<?xml version="1.0" standalone="no"?>
<svg width="29.7cm" height="42cm" version="1.1" xmlns="http://www.w3.org/2000/svg" viewBox="0.0 0.0 29.700001 42.000001">
<path d="M7.653515625 10.823524923186138L12.346874999999999 8.113812624626235L14.015625 9.077265886336422L14.015625 12.208488986894533" stroke-width="0.03" stroke="#000000" fill="none"/>
<path d="M14.119921875 12.148273158037647L10.782421874999999 14.075179681458023" stroke-width="0.03" stroke="#000000" fill="none"/>
<path d="M10.573828124999999 13.95474802374425L9.739453124999999 14.436474654599342L9.530859375 14.31604299688557L9.21796875 14.49669048345623" stroke-width="0.03" stroke="#000000" fill="none"/>
<path d="M9.21796875 14.376258825742458L9.63515625 14.13539551031491L9.63515625 11.485899040611892L11.303906249999999 10.522445778901705L11.303906249999999 10.40201412118793L9.84375 9.558992517191516" stroke-width="0.03" stroke="#000000" fill="none"/>
<path d="M11.303906249999999 10.40201412118793L9.113671875 11.666546527182554L9.113671875 14.075179681458023" stroke-width="0.03" stroke="#000000" fill="none"/>
<path d="M9.21796875 14.13539551031491L8.38359375 14.617122141170004L5.567578125 12.991294762034062L6.4019531249999995 12.509568131178968L9.21796875 14.13539551031491L9.21796875 16.303165349162832" stroke-width="0.03" stroke="#000000" fill="none"/>
<path d="M9.21796875 15.94187037602151L9.84375 16.303165349162832L9.84375 18.109640214869437L8.279296875 19.01287764772274L8.279296875 21.18064748657066" stroke-width="0.03" stroke="#000000" fill="none"/>
<path d="M7.7578125 21.481726630855093L11.72109375 19.193525134293395L11.72109375 14.617122141170004L12.138281249999999 14.376258825742458L12.97265625 14.85798545659755L12.97265625 17.86877689944189" stroke-width="0.03" stroke="#000000" fill="none"/>
<path d="M12.555468750000001 18.109640214869437L12.555468750000001 15.098848772025098L12.97265625 14.85798545659755" stroke-width="0.03" stroke="#000000" fill="none"/>
<path d="M12.555468750000001 15.098848772025098L10.573828124999999 13.95474802374425" stroke-width="0.03" stroke="#000000" fill="none"/>
<path d="M9.739453124999999 14.436474654599342L9.739453124999999 11.54611486946878L9.63515625 11.485899040611892" stroke-width="0.03" stroke="#000000" fill="none"/>
<path d="M9.739453124999999 11.54611486946878L14.015625 9.077265886336422" stroke-width="0.03" stroke="#000000" fill="none"/>
<path d="M13.494140625 10.462229950044819L13.076953125000001 10.703093265472365L13.076953125000001 11.184819896327458L13.598437500000001 11.485899040611892L14.015625 11.245035725184344" stroke-width="0.03" stroke="#000000" fill="none"/>
<path d="M14.015625 10.763309094329252L13.598437500000001 11.004172409756798L13.076953125000001 10.703093265472365" stroke-width="0.03" stroke="#000000" fill="none"/>
<path d="M13.494140625 10.462229950044819L14.015625 10.763309094329252" stroke-width="0.03" stroke="#000000" fill="none"/>
<path d="M13.598437500000001 11.004172409756798L13.598437500000001 11.485899040611892" stroke-width="0.03" stroke="#000000" fill="none"/>
<path d="M14.119921875 12.148273158037647L14.85 12.569783960035853L15.580078125 12.148273158037647L18.917578125000002 14.075179681458023" stroke-width="0.03" stroke="#000000" fill="none"/>
<path d="M19.126171875 13.95474802374425L17.14453125 15.098848772025098L17.14453125 18.109640214869437" stroke-width="0.03" stroke="#000000" fill="none"/>
<path d="M17.353125 18.23007187258321L16.205859375 18.892445990008962L14.85 18.109640214869437L13.494140625 18.892445990008962L12.346874999999999 18.23007187258321L12.346874999999999 19.554820107434715L11.199609375 20.21719422486047L11.199609375 22.14410074828085L12.033984375000001 22.62582737913594L12.033984375000001 23.58928064084613L13.702734374999999 24.55273390255632L14.85 23.890359785130563L15.997265625 24.55273390255632L17.666015625 23.58928064084613L17.666015625 22.62582737913594L18.500390624999998 22.14410074828085L18.500390624999998 20.21719422486047L17.353125 19.554820107434715L17.353125 18.23007187258321L15.684375 17.26661861087302L14.85 17.748345241728117L14.015625 17.26661861087302L12.346874999999999 18.23007187258321" stroke-width="0.03" stroke="#000000" fill="none"/>
<path d="M11.72109375 18.23007187258321L10.46953125 17.50748192630057L10.46953125 18.470935188010756L13.494140625 20.21719422486047L12.346874999999999 20.879568342286227L12.346874999999999 22.44517989256528L13.702734374999999 23.227985667704807L14.85 22.565611550279055L15.997265625 23.227985667704807L17.353125 22.44517989256528L17.353125 20.879568342286227L18.500390624999998 20.21719422486047" stroke-width="0.03" stroke="#000000" fill="none"/>
<path d="M18.500390624999998 20.458057540288017L21.107812499999998 21.96345326171019L21.107812499999998 22.44517989256528L21.9421875 21.96345326171019L21.9421875 21.481726630855093L17.978906249999998 19.193525134293395L17.978906249999998 14.617122141170004L17.56171875 14.376258825742458L16.72734375 14.85798545659755L16.72734375 17.86877689944189" stroke-width="0.03" stroke="#000000" fill="none"/>
<path d="M16.205859375 18.892445990008962L16.205859375 20.21719422486047L17.353125 20.879568342286227" stroke-width="0.03" stroke="#000000" fill="none"/>
<path d="M18.500390624999998 20.939784171143113L21.107812499999998 22.44517989256528" stroke-width="0.03" stroke="#000000" fill="none"/>
<path d="M21.107812499999998 21.96345326171019L23.089453125000002 20.819352513429337L23.089453125000002 19.85589925171915L23.298046874999997 19.735467594005378L23.298046874999997 19.37417262086406" stroke-width="0.03" stroke="#000000" fill="none"/>
<path d="M23.298046874999997 19.49460427857783L23.40234375 19.434388449720945L23.40234375 19.916115080576038L25.696875000000002 21.240863315427546L25.696875000000002 23.167769838847924L25.801171875 23.227985667704807L27.261328125 22.384964063708395" stroke-width="0.03" stroke="#000000" fill="none"/>
<path d="M25.801171875 23.227985667704807L25.801171875 20.698920855715564L27.261328125 19.85589925171915L27.261328125 25.27532384883896L25.592578125 26.238777110549147L22.880859375 24.673165560270093" stroke-width="0.03" stroke="#000000" fill="none"/>
<path d="M22.880859375 24.793597217983862L22.150781249999998 25.215108019982072L22.150781249999998 26.058129623978488L18.81328125 27.985036147398862" stroke-width="0.03" stroke="#000000" fill="none"/>
<path d="M18.81328125 28.22589946282641L17.978906249999998 28.7076260936815L17.978906249999998 28.94848940910905L17.666015625 29.12913689567971" stroke-width="0.03" stroke="#000000" fill="none"/>
<path d="M17.7703125 29.189352724536597L18.1875 28.94848940910905L20.482031250000002 30.273237643960556L22.150781249999998 29.30978438225037L22.255078124999997 29.37000021110726L22.255078124999997 31.056043419100085" stroke-width="0.03" stroke="#000000" fill="none"/>
<path d="M22.255078124999997 29.37000021110726L20.064843749999998 30.63453261710188L17.978906249999998 29.430216039964147" stroke-width="0.03" stroke="#000000" fill="none"/>
<path d="M17.978906249999998 29.30978438225037L17.14453125 29.791511013105463L16.1015625 29.189352724536597" stroke-width="0.03" stroke="#000000" fill="none"/>
<path d="M16.414453125 28.40654694939707L16.414453125 27.68395700311443L18.291796875 26.600072083690467" stroke-width="0.03" stroke="#000000" fill="none"/>
<path d="M18.81328125 26.901151227974903L19.23046875 26.660287912547354L19.23046875 25.696834650837165L16.623046875 24.191438929414996" stroke-width="0.03" stroke="#000000" fill="none"/>
<path d="M16.205859375 24.432302244842543L18.81328125 25.937697966264714L18.81328125 28.22589946282641" stroke-width="0.03" stroke="#000000" fill="none"/>
<path d="M17.978906249999998 28.7076260936815L20.482031250000002 30.152805986246786L20.482031250000002 30.273237643960556" stroke-width="0.03" stroke="#000000" fill="none"/>
<path d="M20.482031250000002 30.152805986246786L24.758203125 27.68395700311443L22.046484375000002 26.118345452835374" stroke-width="0.03" stroke="#000000" fill="none"/>
<path d="M22.463671875 26.840935399118013L22.880859375 26.600072083690467" stroke-width="0.03" stroke="#000000" fill="none"/>
<path d="M23.298046874999997 26.840935399118013L22.880859375 27.081798714545563L22.880859375 27.68395700311443L22.463671875 27.443093687686883L22.463671875 26.840935399118013L22.880859375 27.081798714545563" stroke-width="0.03" stroke="#000000" fill="none"/>
<path d="M23.298046874999997 26.840935399118013L23.298046874999997 27.443093687686883L22.880859375 27.68395700311443" stroke-width="0.03" stroke="#000000" fill="none"/>
<path d="M24.758203125 27.68395700311443L24.758203125 29.610863526534803L20.064843749999998 32.32057582509471L19.021874999999998 31.71841753652584L19.021874999999998 31.597985878812068L18.917578125000002 31.53777004995518L18.708984375 31.658201707668955L18.708984375 32.139928338524044L18.81328125 32.200144167380934L19.334765625 31.8990650230965" stroke-width="0.03" stroke="#000000" fill="none"/>
<path d="M19.021874999999998 31.597985878812068L18.81328125 31.71841753652584L18.81328125 32.200144167380934" stroke-width="0.03" stroke="#000000" fill="none"/>
<path d="M18.81328125 31.71841753652584L18.708984375 31.658201707668955" stroke-width="0.03" stroke="#000000" fill="none"/>
<path d="M18.81328125 31.597985878812068L17.978906249999998 31.11625924795697" stroke-width="0.03" stroke="#000000" fill="none"/>
<path d="M17.978906249999998 32.56143914052225L17.14453125 33.043165771377346L16.1015625 32.44100748280849" stroke-width="0.03" stroke="#000000" fill="none"/>
<path d="M17.14453125 33.043165771377346L17.14453125 29.791511013105463" stroke-width="0.03" stroke="#000000" fill="none"/>
<path d="M17.7703125 29.189352724536597L17.7703125 29.068921066822824" stroke-width="0.03" stroke="#000000" fill="none"/>
<path d="M17.978906249999998 29.30978438225037L17.978906249999998 32.56143914052225" stroke-width="0.03" stroke="#000000" fill="none"/>
<path d="M20.064843749999998 32.32057582509471L20.064843749999998 30.63453261710188" stroke-width="0.03" stroke="#000000" fill="none"/>
<path d="M17.978906249999998 29.30978438225037L16.1015625 28.22589946282641" stroke-width="0.03" stroke="#000000" fill="none"/>
<path d="M16.1015625 27.744172831971316L15.267187499999999 28.22589946282641L14.85 27.985036147398862L14.4328125 28.22589946282641L13.598437500000001 27.744172831971316L14.4328125 27.26244620111622L14.85 27.50330951654377L15.267187499999999 27.26244620111622L16.1015625 27.744172831971316L16.1015625 34.12705069080131L15.267187499999999 34.608777321656405L14.85 34.36791400622886L14.4328125 34.608777321656405L13.598437500000001 34.12705069080131L13.598437500000001 27.744172831971316" stroke-width="0.03" stroke="#000000" fill="none"/>
<path d="M13.285546875 27.68395700311443L14.85 26.780719570261127L16.414453125 27.68395700311443" stroke-width="0.03" stroke="#000000" fill="none"/>
<path d="M15.267187499999999 28.22589946282641L15.267187499999999 34.608777321656405" stroke-width="0.03" stroke="#000000" fill="none"/>
<path d="M14.85 34.36791400622886L14.85 27.985036147398862" stroke-width="0.03" stroke="#000000" fill="none"/>
<path d="M14.85 27.50330951654377L14.85 26.780719570261127" stroke-width="0.03" stroke="#000000" fill="none"/>
<path d="M14.85 26.058129623978488L14.015625 26.53985625483358L13.494140625 26.238777110549147L13.389843749999999 26.29899293940603L12.659765624999999 25.877482137407824" stroke-width="0.03" stroke="#000000" fill="none"/>
<path d="M13.389843749999999 25.45597133540962L13.389843749999999 26.29899293940603" stroke-width="0.03" stroke="#000000" fill="none"/>
<path d="M13.494140625 26.238777110549147L13.494140625 25.39575550655273" stroke-width="0.03" stroke="#000000" fill="none"/>
<path d="M14.015625 25.0946763622683L14.015625 26.53985625483358" stroke-width="0.03" stroke="#000000" fill="none"/>
<path d="M14.85 26.058129623978488L14.85 22.565611550279055" stroke-width="0.03" stroke="#000000" fill="none"/>
<path d="M13.702734374999999 23.227985667704807L13.702734374999999 24.55273390255632" stroke-width="0.03" stroke="#000000" fill="none"/>
<path d="M13.494140625 24.432302244842543L10.88671875 25.937697966264714L10.88671875 28.22589946282641L11.72109375 28.7076260936815L11.72109375 28.94848940910905L12.033984375000001 29.12913689567971" stroke-width="0.03" stroke="#000000" fill="none"/>
<path d="M11.9296875 29.068921066822824L11.9296875 29.189352724536597L11.512500000000001 28.94848940910905L9.21796875 30.273237643960556L7.5492187500000005 29.30978438225037L7.4449218749999995 29.37000021110726L7.4449218749999995 31.056043419100085" stroke-width="0.03" stroke="#000000" fill="none"/>
<path d="M7.4449218749999995 29.37000021110726L9.63515625 30.63453261710188L11.72109375 29.430216039964147" stroke-width="0.03" stroke="#000000" fill="none"/>
<path d="M11.72109375 29.30978438225037L13.598437500000001 28.22589946282641" stroke-width="0.03" stroke="#000000" fill="none"/>
<path d="M13.285546875 28.40654694939707L13.285546875 27.68395700311443L11.408203125 26.600072083690467" stroke-width="0.03" stroke="#000000" fill="none"/>
<path d="M10.88671875 26.901151227974903L14.85 24.612949731413206L18.81328125 26.901151227974903" stroke-width="0.03" stroke="#000000" fill="none"/>
<path d="M18.81328125 25.937697966264714L19.23046875 25.696834650837165" stroke-width="0.03" stroke="#000000" fill="none"/>
<path d="M17.040234375 25.877482137407824L16.31015625 26.29899293940603L16.205859375 26.238777110549147L15.684375 26.53985625483358L14.85 26.058129623978488" stroke-width="0.03" stroke="#000000" fill="none"/>
<path d="M15.684375 26.53985625483358L15.684375 25.0946763622683" stroke-width="0.03" stroke="#000000" fill="none"/>
<path d="M16.205859375 25.39575550655273L16.205859375 26.238777110549147" stroke-width="0.03" stroke="#000000" fill="none"/>
<path d="M16.31015625 26.29899293940603L16.31015625 25.45597133540962" stroke-width="0.03" stroke="#000000" fill="none"/>
<path d="M15.997265625 24.55273390255632L15.997265625 23.227985667704807" stroke-width="0.03" stroke="#000000" fill="none"/>
<path d="M17.353125 22.44517989256528L14.85 21L14.85 18.109640214869437" stroke-width="0.03" stroke="#000000" fill="none"/>
<path d="M13.494140625 18.892445990008962L13.494140625 20.21719422486047" stroke-width="0.03" stroke="#000000" fill="none"/>
<path d="M12.346874999999999 20.879568342286227L11.199609375 20.21719422486047" stroke-width="0.03" stroke="#000000" fill="none"/>
<path d="M11.199609375 20.458057540288017L8.5921875 21.96345326171019L8.5921875 22.44517989256528L7.7578125 21.96345326171019L7.7578125 21.481726630855093" stroke-width="0.03" stroke="#000000" fill="none"/>
<path d="M8.5921875 21.96345326171019L6.610546875 20.819352513429337L6.610546875 19.85589925171915L6.4019531249999995 19.735467594005378L6.4019531249999995 19.37417262086406" stroke-width="0.03" stroke="#000000" fill="none"/>
<path d="M6.4019531249999995 19.49460427857783L6.297656249999999 19.434388449720945L6.297656249999999 19.916115080576038L4.003124999999999 21.240863315427546L4.003124999999999 23.167769838847924L3.898828125 23.227985667704807L2.438671874999999 22.384964063708395" stroke-width="0.03" stroke="#000000" fill="none"/>
<path d="M3.898828125 23.227985667704807L3.898828125 20.698920855715564L5.984765624999999 19.49460427857783" stroke-width="0.03" stroke="#000000" fill="none"/>
<path d="M6.089062499999999 19.554820107434715L7.96640625 18.470935188010756" stroke-width="0.03" stroke="#000000" fill="none"/>
<path d="M7.653515625 18.651582674581416L8.279296875 19.01287764772274" stroke-width="0.03" stroke="#000000" fill="none"/>
<path d="M8.38359375 18.711798503438303L9.21796875 18.23007187258321L9.21796875 17.748345241728117L9.63515625 17.50748192630057L9.63515625 16.54402866459038L4.107421875 13.352589735175382L3.2730468750000017 13.834316366030475L3.2730468750000017 14.31604299688557L2.8558593750000005 14.556906312313117L2.8558593750000005 15.520359574023306L8.38359375 18.711798503438303L8.38359375 17.748345241728117L2.8558593750000005 14.556906312313117" stroke-width="0.03" stroke="#000000" fill="none"/>
<path d="M3.2730468750000017 14.31604299688557L8.80078125 17.50748192630057L8.80078125 17.025755295445475L9.63515625 16.54402866459038" stroke-width="0.03" stroke="#000000" fill="none"/>
<path d="M9.84375 16.303165349162832L11.72109375 15.21928042973887" stroke-width="0.03" stroke="#000000" fill="none"/>
<path d="M11.72109375 16.66446032230415L10.991015625000001 17.08597112430236L10.991015625000001 17.206402782016134L10.46953125 17.50748192630057" stroke-width="0.03" stroke="#000000" fill="none"/>
<path d="M10.991015625000001 17.206402782016134L11.72109375 17.62791358401434" stroke-width="0.03" stroke="#000000" fill="none"/>
<path d="M11.72109375 17.50748192630057L10.991015625000001 17.08597112430236" stroke-width="0.03" stroke="#000000" fill="none"/>
<path d="M10.46953125 18.470935188010756L9.63515625 18.95266181886585L9.63515625 19.554820107434715L9.530859375 19.615035936291605L9.530859375 20.458057540288017" stroke-width="0.03" stroke="#000000" fill="none"/>
<path d="M9.530859375 19.615035936291605L10.260937499999999 20.03654673828981" stroke-width="0.03" stroke="#000000" fill="none"/>
<path d="M10.365234375 19.976330909432924L9.63515625 19.554820107434715" stroke-width="0.03" stroke="#000000" fill="none"/>
<path d="M9.63515625 18.95266181886585L10.88671875 19.67525176514849" stroke-width="0.03" stroke="#000000" fill="none"/>
<path d="M11.199609375 20.939784171143113L8.5921875 22.44517989256528" stroke-width="0.03" stroke="#000000" fill="none"/>
<path d="M6.819140625 20.939784171143113L6.819140625 24.793597217983862L7.5492187500000005 25.215108019982072L7.5492187500000005 26.058129623978488L10.88671875 27.985036147398862" stroke-width="0.03" stroke="#000000" fill="none"/>
<path d="M10.88671875 26.901151227974903L10.46953125 26.660287912547354L10.46953125 25.696834650837165L13.076953125000001 24.191438929414996" stroke-width="0.03" stroke="#000000" fill="none"/>
<path d="M12.346874999999999 22.44517989256528L14.85 21" stroke-width="0.03" stroke="#000000" fill="none"/>
<path d="M16.205859375 20.21719422486047L19.23046875 18.470935188010756L20.064843749999998 18.95266181886585L20.064843749999998 19.554820107434715L20.169140624999997 19.615035936291605L20.169140624999997 20.458057540288017" stroke-width="0.03" stroke="#000000" fill="none"/>
<path d="M19.439062500000002 20.03654673828981L20.169140624999997 19.615035936291605" stroke-width="0.03" stroke="#000000" fill="none"/>
<path d="M20.064843749999998 19.554820107434715L19.334765625 19.976330909432924" stroke-width="0.03" stroke="#000000" fill="none"/>
<path d="M18.81328125 19.67525176514849L20.064843749999998 18.95266181886585" stroke-width="0.03" stroke="#000000" fill="none"/>
<path d="M20.482031250000002 18.23007187258321L20.482031250000002 17.748345241728117L20.064843749999998 17.50748192630057L20.064843749999998 16.54402866459038L25.592578125 13.352589735175382L26.426953124999997 13.834316366030475L26.426953124999997 14.31604299688557L20.89921875 17.50748192630057L20.89921875 17.025755295445475L20.064843749999998 16.54402866459038" stroke-width="0.03" stroke="#000000" fill="none"/>
<path d="M19.85625 16.303165349162832L20.482031250000002 15.94187037602151" stroke-width="0.03" stroke="#000000" fill="none"/>
<path d="M20.482031250000002 16.303165349162832L20.482031250000002 14.13539551031491L23.298046874999997 12.509568131178968L24.132421875000002 12.991294762034062L24.132421875000002 14.195611339171796" stroke-width="0.03" stroke="#000000" fill="none"/>
<path d="M24.132421875000002 12.991294762034062L21.31640625 14.617122141170004L21.31640625 15.82143871830774" stroke-width="0.03" stroke="#000000" fill="none"/>
<path d="M21.31640625 14.617122141170004L20.482031250000002 14.13539551031491" stroke-width="0.03" stroke="#000000" fill="none"/>
<path d="M20.586328125 14.075179681458023L20.586328125 11.666546527182554L18.396093750000002 10.40201412118793L19.85625 9.558992517191516" stroke-width="0.03" stroke="#000000" fill="none"/>
<path d="M18.396093750000002 10.40201412118793L18.396093750000002 10.522445778901705L20.064843749999998 11.485899040611892L20.064843749999998 14.13539551031491L20.482031250000002 14.376258825742458L20.377734375 14.436474654599342" stroke-width="0.03" stroke="#000000" fill="none"/>
<path d="M20.482031250000002 14.49669048345623L20.169140624999997 14.31604299688557L19.960546875000002 14.436474654599342L19.126171875 13.95474802374425" stroke-width="0.03" stroke="#000000" fill="none"/>
<path d="M19.960546875000002 14.436474654599342L19.960546875000002 11.54611486946878L20.064843749999998 11.485899040611892" stroke-width="0.03" stroke="#000000" fill="none"/>
<path d="M19.960546875000002 11.54611486946878L15.684375 9.077265886336422L17.353125 8.113812624626235L22.046484375000002 10.823524923186138L22.046484375000002 12.027841500323873L21.9421875 12.08805732918076L21.9421875 12.208488986894533L22.150781249999998 12.328920644608306L22.567968750000002 12.08805732918076L22.567968750000002 11.967625671466987L22.046484375000002 11.666546527182554" stroke-width="0.03" stroke="#000000" fill="none"/>
<path d="M21.9421875 12.08805732918076L22.150781249999998 12.208488986894533L22.567968750000002 11.967625671466987" stroke-width="0.03" stroke="#000000" fill="none"/>
<path d="M22.150781249999998 12.208488986894533L22.150781249999998 12.328920644608306" stroke-width="0.03" stroke="#000000" fill="none"/>
<path d="M22.046484375000002 12.26870481575142L22.046484375000002 13.232158077461609" stroke-width="0.03" stroke="#000000" fill="none"/>
<path d="M20.586328125 11.666546527182554L22.046484375000002 10.823524923186138" stroke-width="0.03" stroke="#000000" fill="none"/>
<path d="M26.426953124999997 13.834316366030475L20.89921875 17.025755295445475" stroke-width="0.03" stroke="#000000" fill="none"/>
<path d="M20.89921875 17.50748192630057L21.31640625 17.748345241728117L26.844140625 14.556906312313117L26.844140625 15.520359574023306L21.31640625 18.711798503438303L20.482031250000002 18.23007187258321" stroke-width="0.03" stroke="#000000" fill="none"/>
<path d="M20.482031250000002 17.748345241728117L19.85625 18.109640214869437L19.85625 16.303165349162832L17.978906249999998 15.21928042973887" stroke-width="0.03" stroke="#000000" fill="none"/>
<path d="M17.14453125 15.098848772025098L16.72734375 14.85798545659755" stroke-width="0.03" stroke="#000000" fill="none"/>
<path d="M17.978906249999998 16.66446032230415L18.708984375 17.08597112430236L18.708984375 17.206402782016134L19.23046875 17.50748192630057L19.23046875 18.470935188010756" stroke-width="0.03" stroke="#000000" fill="none"/>
<path d="M19.85625 18.109640214869437L21.420703125 19.01287764772274L21.420703125 21.18064748657066" stroke-width="0.03" stroke="#000000" fill="none"/>
<path d="M22.880859375 20.939784171143113L22.880859375 24.793597217983862" stroke-width="0.03" stroke="#000000" fill="none"/>
<path d="M23.715234375 24.673165560270093L24.23671875 24.37208641598566L24.653906250000002 24.612949731413206L24.653906250000002 25.0946763622683L24.132421875000002 25.39575550655273L24.132421875000002 24.914028875697635L24.653906250000002 24.612949731413206" stroke-width="0.03" stroke="#000000" fill="none"/>
<path d="M24.132421875000002 24.914028875697635L23.715234375 24.673165560270093L23.715234375 25.154892191125185" stroke-width="0.03" stroke="#000000" fill="none"/>
<path d="M25.592578125 26.238777110549147L25.592578125 21.301079144284433L23.089453125000002 19.85589925171915" stroke-width="0.03" stroke="#000000" fill="none"/>
<path d="M23.610937500000002 19.554820107434715L26.426953124999997 17.928992728298773L26.426953124999997 16.965539466588588L25.383984374999997 16.36338117801972" stroke-width="0.03" stroke="#000000" fill="none"/>
<path d="M26.426953124999997 16.965539466588588L23.610937500000002 18.59136684572453L22.567968750000002 17.989208557155663" stroke-width="0.03" stroke="#000000" fill="none"/>
<path d="M22.046484375000002 18.651582674581416L21.420703125 19.01287764772274" stroke-width="0.03" stroke="#000000" fill="none"/>
<path d="M21.31640625 18.711798503438303L21.31640625 17.748345241728117" stroke-width="0.03" stroke="#000000" fill="none"/>
<path d="M21.733593749999997 18.470935188010756L23.610937500000002 19.554820107434715L23.610937500000002 18.59136684572453" stroke-width="0.03" stroke="#000000" fill="none"/>
<path d="M23.715234375 19.49460427857783L25.801171875 20.698920855715564" stroke-width="0.03" stroke="#000000" fill="none"/>
<path d="M25.696875000000002 21.240863315427546L25.592578125 21.301079144284433" stroke-width="0.03" stroke="#000000" fill="none"/>
<path d="M26.1140625 19.31395679200717L26.218359375 19.253740963150285L27.261328125 19.85589925171915" stroke-width="0.03" stroke="#000000" fill="none"/>
<path d="M26.53125 19.434388449720945L26.53125 18.832230161152076L26.426953124999997 18.77201433229519L26.009765625 19.01287764772274L26.009765625 19.253740963150285L26.1140625 19.31395679200717L26.1140625 19.073093476579622L26.53125 18.832230161152076" stroke-width="0.03" stroke="#000000" fill="none"/>
<path d="M26.1140625 19.073093476579622L26.009765625 19.01287764772274" stroke-width="0.03" stroke="#000000" fill="none"/>
<path d="M26.009765625 19.13330930543651L25.175390624999995 18.651582674581416" stroke-width="0.03" stroke="#000000" fill="none"/>
<path d="M26.844140625 14.556906312313117L26.426953124999997 14.31604299688557" stroke-width="0.03" stroke="#000000" fill="none"/>
<path d="M19.23046875 17.50748192630057L17.978906249999998 18.23007187258321" stroke-width="0.03" stroke="#000000" fill="none"/>
<path d="M17.978906249999998 17.62791358401434L18.708984375 17.206402782016134" stroke-width="0.03" stroke="#000000" fill="none"/>
<path d="M18.708984375 17.08597112430236L17.978906249999998 17.50748192630057" stroke-width="0.03" stroke="#000000" fill="none"/>
<path d="M15.684375 12.208488986894533L15.684375 9.077265886336422" stroke-width="0.03" stroke="#000000" fill="none"/>
<path d="M16.205859375 10.462229950044819L15.684375 10.763309094329252L16.1015625 11.004172409756798L16.623046875 10.703093265472365L16.623046875 11.184819896327458L16.1015625 11.485899040611892L15.684375 11.245035725184344" stroke-width="0.03" stroke="#000000" fill="none"/>
<path d="M16.1015625 11.004172409756798L16.1015625 11.485899040611892" stroke-width="0.03" stroke="#000000" fill="none"/>
<path d="M16.623046875 10.703093265472365L16.205859375 10.462229950044819" stroke-width="0.03" stroke="#000000" fill="none"/>
<path d="M9.113671875 11.666546527182554L7.653515625 10.823524923186138L7.653515625 12.027841500323873L7.7578125 12.08805732918076L7.7578125 12.208488986894533L7.5492187500000005 12.328920644608306L7.13203125 12.08805732918076L7.13203125 11.967625671466987L7.653515625 11.666546527182554" stroke-width="0.03" stroke="#000000" fill="none"/>
<path d="M7.7578125 12.08805732918076L7.5492187500000005 12.208488986894533L7.13203125 11.967625671466987" stroke-width="0.03" stroke="#000000" fill="none"/>
<path d="M7.5492187500000005 12.208488986894533L7.5492187500000005 12.328920644608306" stroke-width="0.03" stroke="#000000" fill="none"/>
<path d="M7.653515625 12.26870481575142L7.653515625 13.232158077461609" stroke-width="0.03" stroke="#000000" fill="none"/>
<path d="M8.38359375 14.617122141170004L8.38359375 15.82143871830774" stroke-width="0.03" stroke="#000000" fill="none"/>
<path d="M8.80078125 17.025755295445475L3.2730468750000017 13.834316366030475" stroke-width="0.03" stroke="#000000" fill="none"/>
<path d="M5.567578125 14.195611339171796L5.567578125 12.991294762034062" stroke-width="0.03" stroke="#000000" fill="none"/>
<path d="M4.3160156249999995 16.36338117801972L3.2730468750000017 16.965539466588588L3.2730468750000017 17.928992728298773L6.089062499999999 19.554820107434715L6.089062499999999 18.59136684572453L3.2730468750000017 16.965539466588588" stroke-width="0.03" stroke="#000000" fill="none"/>
<path d="M3.2730468750000017 18.77201433229519L3.1687499999999984 18.832230161152076L3.1687499999999984 19.434388449720945" stroke-width="0.03" stroke="#000000" fill="none"/>
<path d="M3.481640624999999 19.253740963150285L2.438671874999999 19.85589925171915L2.438671874999999 25.27532384883896L4.107421875 26.238777110549147L6.819140625 24.673165560270093" stroke-width="0.03" stroke="#000000" fill="none"/>
<path d="M5.984765624999999 24.673165560270093L5.567578125 24.914028875697635L5.046093749999999 24.612949731413206L5.046093749999999 25.0946763622683L5.567578125 25.39575550655273L5.567578125 24.914028875697635" stroke-width="0.03" stroke="#000000" fill="none"/>
<path d="M5.984765624999999 24.673165560270093L5.984765624999999 25.154892191125185" stroke-width="0.03" stroke="#000000" fill="none"/>
<path d="M5.984765624999999 24.673165560270093L5.46328125 24.37208641598566L5.046093749999999 24.612949731413206" stroke-width="0.03" stroke="#000000" fill="none"/>
<path d="M4.107421875 26.238777110549147L4.107421875 21.301079144284433L6.610546875 19.85589925171915" stroke-width="0.03" stroke="#000000" fill="none"/>
<path d="M6.089062499999999 18.59136684572453L7.13203125 17.989208557155663" stroke-width="0.03" stroke="#000000" fill="none"/>
<path d="M8.38359375 17.748345241728117L8.80078125 17.50748192630057" stroke-width="0.03" stroke="#000000" fill="none"/>
<path d="M9.21796875 17.748345241728117L9.84375 18.109640214869437" stroke-width="0.03" stroke="#000000" fill="none"/>
<path d="M9.322265625 14.436474654599342L9.21796875 14.376258825742458" stroke-width="0.03" stroke="#000000" fill="none"/>
<path d="M4.524609375000001 18.651582674581416L3.6902343750000006 19.13330930543651" stroke-width="0.03" stroke="#000000" fill="none"/>
<path d="M3.6902343750000006 19.01287764772274L3.5859375 19.073093476579622L3.1687499999999984 18.832230161152076" stroke-width="0.03" stroke="#000000" fill="none"/>
<path d="M3.2730468750000017 18.77201433229519L3.6902343750000006 19.01287764772274L3.6902343750000006 19.253740963150285L3.5859375 19.31395679200717L3.481640624999999 19.253740963150285" stroke-width="0.03" stroke="#000000" fill="none"/>
<path d="M3.5859375 19.31395679200717L3.5859375 19.073093476579622" stroke-width="0.03" stroke="#000000" fill="none"/>
<path d="M2.438671874999999 19.85589925171915L3.898828125 20.698920855715564" stroke-width="0.03" stroke="#000000" fill="none"/>
<path d="M4.003124999999999 21.240863315427546L4.107421875 21.301079144284433" stroke-width="0.03" stroke="#000000" fill="none"/>
<path d="M6.819140625 26.600072083690467L7.236328125 26.840935399118013L7.236328125 27.443093687686883L6.819140625 27.68395700311443L6.4019531249999995 27.443093687686883L6.4019531249999995 26.840935399118013L6.819140625 27.081798714545563L6.819140625 27.68395700311443" stroke-width="0.03" stroke="#000000" fill="none"/>
<path d="M6.819140625 27.081798714545563L7.236328125 26.840935399118013" stroke-width="0.03" stroke="#000000" fill="none"/>
<path d="M7.653515625 26.118345452835374L4.941796875 27.68395700311443L4.941796875 29.610863526534803L9.63515625 32.32057582509471L10.678125 31.71841753652584L10.678125 31.597985878812068L10.782421874999999 31.53777004995518L10.991015625000001 31.658201707668955L10.991015625000001 32.139928338524044L10.88671875 32.200144167380934L10.365234375 31.8990650230965" stroke-width="0.03" stroke="#000000" fill="none"/>
<path d="M10.678125 31.597985878812068L10.88671875 31.71841753652584L10.991015625000001 31.658201707668955" stroke-width="0.03" stroke="#000000" fill="none"/>
<path d="M10.88671875 31.597985878812068L11.72109375 31.11625924795697" stroke-width="0.03" stroke="#000000" fill="none"/>
<path d="M10.88671875 31.71841753652584L10.88671875 32.200144167380934" stroke-width="0.03" stroke="#000000" fill="none"/>
<path d="M11.72109375 32.56143914052225L11.72109375 29.30978438225037L12.555468750000001 29.791511013105463L13.598437500000001 29.189352724536597" stroke-width="0.03" stroke="#000000" fill="none"/>
<path d="M12.555468750000001 29.791511013105463L12.555468750000001 33.043165771377346L13.598437500000001 32.44100748280849" stroke-width="0.03" stroke="#000000" fill="none"/>
<path d="M12.555468750000001 33.043165771377346L11.72109375 32.56143914052225" stroke-width="0.03" stroke="#000000" fill="none"/>
<path d="M9.63515625 32.32057582509471L9.63515625 30.63453261710188" stroke-width="0.03" stroke="#000000" fill="none"/>
<path d="M9.21796875 30.273237643960556L9.21796875 30.152805986246786L11.72109375 28.7076260936815" stroke-width="0.03" stroke="#000000" fill="none"/>
<path d="M14.4328125 28.22589946282641L14.4328125 34.608777321656405" stroke-width="0.03" stroke="#000000" fill="none"/>
<path d="M9.21796875 30.152805986246786L4.941796875 27.68395700311443" stroke-width="0.03" stroke="#000000" fill="none"/>
<path d="M10.46953125 25.696834650837165L10.88671875 25.937697966264714" stroke-width="0.03" stroke="#000000" fill="none"/>
<path d="M5.479016328337949 3.383983116796798L5.22665244959841 3.383983116796798L5.406912362983795 3.2037232034114123L5.442964345660872 3.149645229395796L5.46099033699941 3.113593246718719L5.46099033699941 3.077541264041642L5.442964345660872 3.041489281364565L5.424938354322334 3.023463290026026L5.388886371645256 3.0054372986874878L5.316782406291102 3.0054372986874878L5.280730423614025 3.023463290026026L5.262704432275486 3.041489281364565L5.244678440936948 3.077541264041642L5.244678440936948 3.0955672553801805" stroke-width="0.03" stroke="#000000" fill="none"/>
<path d="M5.1184965015671775 3.383983116796798L4.866132622827637 3.383983116796798L5.046392536213023 3.2037232034114123L5.0824445188901 3.149645229395796L5.100470510228639 3.113593246718719L5.100470510228639 3.077541264041642L5.0824445188901 3.041489281364565L5.064418527551561 3.023463290026026L5.028366544874484 3.0054372986874878L4.95626257952033 3.0054372986874878L4.920210596843253 3.023463290026026L4.902184605504715 3.041489281364565L4.884158614166176 3.077541264041642L4.884158614166176 3.0955672553801805" stroke-width="0.03" stroke="#000000" fill="none"/>
<path d="M4.776002666134945 3.0054372986874878L4.541664778733942 3.0054372986874878L4.541664778733942 3.383983116796798L4.776002666134945 3.383983116796798" stroke-width="0.03" stroke="#000000" fill="none"/>
<path d="M4.6858727094422505 3.1856972120728733L4.541664778733942 3.1856972120728733" stroke-width="0.03" stroke="#000000" fill="none"/>
<path d="M4.253248917317325 3.0054372986874878L4.199170943301709 3.023463290026026L4.18114495196317 3.0595152727031034L4.18114495196317 3.0955672553801805L4.199170943301709 3.1316192380572576L4.235222925978786 3.149645229395796L4.3073268913329406 3.167671220734335L4.361404865348556 3.1856972120728733L4.397456848025634 3.221749194749951L4.415482839364172 3.257801177427028L4.415482839364172 3.3118791514426436L4.397456848025634 3.3479311341197207L4.379430856687095 3.3659571254582596L4.3253528826714795 3.383983116796798L4.253248917317325 3.383983116796798L4.199170943301709 3.3659571254582596L4.18114495196317 3.3479311341197207L4.163118960624631 3.3118791514426436L4.163118960624631 3.257801177427028L4.18114495196317 3.221749194749951L4.217196934640247 3.1856972120728733L4.2712749086558635 3.167671220734335L4.343378874010018 3.149645229395796L4.379430856687095 3.1316192380572576L4.397456848025634 3.0955672553801805L4.397456848025634 3.0595152727031034L4.379430856687095 3.023463290026026L4.3253528826714795 3.0054372986874878L4.253248917317325 3.0054372986874878" stroke-width="0.03" stroke="#000000" fill="none"/>
<path d="M4.036937021254861 3.0595152727031034L4.018911029916323 3.023463290026026L3.9648330559007072 3.0054372986874878L3.9287810732236297 3.0054372986874878L3.8747030992080145 3.023463290026026L3.838651116530937 3.077541264041642L3.8206251251923984 3.167671220734335L3.8206251251923984 3.257801177427028L3.838651116530937 3.3299051427811825L3.8747030992080145 3.3659571254582596L3.9287810732236297 3.383983116796798L3.9468070645621687 3.383983116796798L4.000885038577785 3.3659571254582596L4.036937021254861 3.3299051427811825L4.0549630125934 3.2758271687655665L4.0549630125934 3.257801177427028L4.036937021254861 3.2037232034114123L4.000885038577785 3.167671220734335L3.9468070645621687 3.149645229395796L3.9287810732236297 3.149645229395796L3.8747030992080145 3.167671220734335L3.838651116530937 3.2037232034114123L3.8206251251923984 3.257801177427028" stroke-width="0.03" stroke="#000000" fill="none"/>
<path d="M3.6764171944840895 3.1316192380572576L3.658391203145551 3.1856972120728733L3.622339220468474 3.221749194749951L3.568261246452858 3.2397751860884894L3.5502352551143197 3.2397751860884894L3.4961572810987036 3.221749194749951L3.4601052984216265 3.1856972120728733L3.442079307083088 3.1316192380572576L3.442079307083088 3.113593246718719L3.4601052984216265 3.0595152727031034L3.4961572810987036 3.023463290026026L3.5502352551143197 3.0054372986874878L3.568261246452858 3.0054372986874878L3.622339220468474 3.023463290026026L3.658391203145551 3.0595152727031034L3.6764171944840895 3.1316192380572576L3.6764171944840895 3.221749194749951L3.658391203145551 3.3118791514426436L3.622339220468474 3.3659571254582596L3.568261246452858 3.383983116796798L3.5322092637757807 3.383983116796798L3.478131289760165 3.3659571254582596L3.4601052984216265 3.3299051427811825" stroke-width="0.03" stroke="#000000" fill="none"/>
<path d="M3.225767411020625 3.383983116796798L3.225767411020625 3.0054372986874878L3.171689437005009 3.0595152727031034L3.1356374543279317 3.077541264041642" stroke-width="0.03" stroke="#000000" fill="none"/>
<path d="M2.77511762755716 3.077541264041642L2.811169610234237 3.0595152727031034L2.8652475842498526 3.0054372986874878L2.8652475842498526 3.383983116796798" stroke-width="0.03" stroke="#000000" fill="none"/>
<path d="M2.6128837055103125 3.383983116796798L2.414597800786388 3.1316192380572576" stroke-width="0.03" stroke="#000000" fill="none"/>
<path d="M2.6128837055103125 3.1316192380572576L2.414597800786388 3.383983116796798" stroke-width="0.03" stroke="#000000" fill="none"/>
<path d="M2.1622339220468474 3.0054372986874878L2.1081559480312317 3.023463290026026L2.072103965354154 3.077541264041642L2.0540779740156156 3.167671220734335L2.0540779740156156 3.221749194749951L2.072103965354154 3.3118791514426436L2.1081559480312317 3.3659571254582596L2.1622339220468474 3.383983116796798L2.1982859047239245 3.383983116796798L2.2523638787395406 3.3659571254582596L2.2884158614166177 3.3118791514426436L2.3064418527551562 3.221749194749951L2.3064418527551562 3.167671220734335L2.2884158614166177 3.077541264041642L2.2523638787395406 3.023463290026026L2.1982859047239245 3.0054372986874878L2.1622339220468474 3.0054372986874878" stroke-width="0.03" stroke="#000000" fill="none"/>
<path d="M2.1166666666666667 2.2291666666666665L2.1166666666666667 1.8208333333333333" stroke-width="0.03" stroke="#000000" fill="none"/>
<path d="M2.0875 1.6166666666666667L2.1166666666666667 1.6458333333333333L2.145833333333333 1.6166666666666667L2.1166666666666667 1.5875L2.0875 1.6166666666666667" stroke-width="0.03" stroke="#000000" fill="none"/>
<path d="M2.3208333333333333 2.1416666666666666L2.35 2.2L2.4375 2.2291666666666665L2.525 2.2291666666666665L2.6125 2.2L2.6416666666666666 2.1416666666666666L2.6416666666666666 2.1125L2.6125 2.0541666666666667L2.5541666666666667 2.025L2.408333333333333 1.9958333333333333L2.35 1.9666666666666666L2.3208333333333333 1.9083333333333332L2.35 1.85L2.4375 1.8208333333333333L2.525 1.8208333333333333L2.6125 1.85L2.6416666666666666 1.9083333333333332" stroke-width="0.03" stroke="#000000" fill="none"/>
<path d="M2.9625 1.8208333333333333L2.904166666666667 1.85L2.845833333333333 1.9083333333333332L2.8166666666666664 1.9958333333333333L2.8166666666666664 2.0541666666666667L2.845833333333333 2.1416666666666666L2.904166666666667 2.2L2.9625 2.2291666666666665L3.05 2.2291666666666665L3.1083333333333334 2.2L3.1666666666666665 2.1416666666666666L3.1958333333333333 2.0541666666666667L3.1958333333333333 1.9958333333333333L3.1666666666666665 1.9083333333333332L3.1083333333333334 1.85L3.05 1.8208333333333333L2.9625 1.8208333333333333" stroke-width="0.03" stroke="#000000" fill="none"/>
<path d="M3.283333333333333 2.2874999999999996L3.75 2.2874999999999996" stroke-width="0.03" stroke="#000000" fill="none"/>
<path d="M3.8375 2.1416666666666666L3.8666666666666663 2.2L3.9541666666666666 2.2291666666666665L4.041666666666666 2.2291666666666665L4.129166666666666 2.2L4.158333333333333 2.1416666666666666L4.158333333333333 2.1125L4.129166666666666 2.0541666666666667L4.070833333333333 2.025L3.925 1.9958333333333333L3.8666666666666663 1.9666666666666666L3.8375 1.9083333333333332L3.8666666666666663 1.85L3.9541666666666666 1.8208333333333333L4.041666666666666 1.8208333333333333L4.129166666666666 1.85L4.158333333333333 1.9083333333333332" stroke-width="0.03" stroke="#000000" fill="none"/>
<path d="M4.3625 1.9375L4.449999999999999 1.85L4.508333333333333 1.8208333333333333L4.595833333333333 1.8208333333333333L4.654166666666667 1.85L4.683333333333334 1.9375L4.683333333333334 2.2291666666666665" stroke-width="0.03" stroke="#000000" fill="none"/>
<path d="M4.3625 2.2291666666666665L4.3625 1.8208333333333333" stroke-width="0.03" stroke="#000000" fill="none"/>
<path d="M5.033333333333333 1.8208333333333333L4.975 1.85L4.916666666666666 1.9083333333333332L4.887499999999999 1.9958333333333333L4.887499999999999 2.0541666666666667L4.916666666666666 2.1416666666666666L4.975 2.2L5.033333333333333 2.2291666666666665L5.120833333333334 2.2291666666666665L5.179166666666666 2.2L5.2375 2.1416666666666666L5.266666666666666 2.0541666666666667L5.266666666666666 1.9958333333333333L5.2375 1.9083333333333332L5.179166666666666 1.85L5.120833333333334 1.8208333333333333L5.033333333333333 1.8208333333333333" stroke-width="0.03" stroke="#000000" fill="none"/>
<path d="M5.441666666666666 1.8208333333333333L5.558333333333334 2.2291666666666665L5.675 1.8208333333333333L5.791666666666666 2.2291666666666665L5.908333333333333 1.8208333333333333" stroke-width="0.03" stroke="#000000" fill="none"/>
<path d="M6.054166666666666 1.8208333333333333L6.258333333333333 1.8208333333333333" stroke-width="0.03" stroke="#000000" fill="none"/>
<path d="M6.2875 1.6166666666666667L6.229166666666666 1.6166666666666667L6.1708333333333325 1.6458333333333333L6.141666666666667 1.7333333333333334L6.141666666666667 2.2291666666666665" stroke-width="0.03" stroke="#000000" fill="none"/>
<path d="M6.4624999999999995 2.2291666666666665L6.4624999999999995 1.6166666666666667" stroke-width="0.03" stroke="#000000" fill="none"/>
<path d="M7.016666666666666 1.8208333333333333L7.016666666666666 2.2291666666666665" stroke-width="0.03" stroke="#000000" fill="none"/>
<path d="M7.016666666666666 2.1416666666666666L6.958333333333333 2.2L6.8999999999999995 2.2291666666666665L6.812499999999999 2.2291666666666665L6.754166666666666 2.2L6.695833333333333 2.1416666666666666L6.666666666666666 2.0541666666666667L6.666666666666666 1.9958333333333333L6.695833333333333 1.9083333333333332L6.754166666666666 1.85L6.812499999999999 1.8208333333333333L6.8999999999999995 1.8208333333333333L6.958333333333333 1.85L7.016666666666666 1.9083333333333332" stroke-width="0.03" stroke="#000000" fill="none"/>
<path d="M7.249999999999999 2.1125L7.541666666666666 1.8208333333333333" stroke-width="0.03" stroke="#000000" fill="none"/>
<path d="M7.366666666666666 1.9958333333333333L7.570833333333333 2.2291666666666665" stroke-width="0.03" stroke="#000000" fill="none"/>
<path d="M7.716666666666666 1.9958333333333333L8.066666666666666 1.9958333333333333L8.066666666666666 1.9375L8.0375 1.8791666666666667L8.008333333333333 1.85L7.949999999999999 1.8208333333333333L7.8625 1.8208333333333333L7.804166666666666 1.85L7.745833333333333 1.9083333333333332L7.716666666666666 1.9958333333333333L7.716666666666666 2.0541666666666667L7.745833333333333 2.1416666666666666L7.804166666666666 2.2L7.8625 2.2291666666666665L7.949999999999999 2.2291666666666665L8.008333333333333 2.2L8.066666666666666 2.1416666666666666" stroke-width="0.03" stroke="#000000" fill="none"/>
<path d="M8.475 2.2291666666666665L8.475 1.6166666666666667L8.3875 1.7041666666666666L8.329166666666666 1.7333333333333334" stroke-width="0.03" stroke="#000000" fill="none"/>
<path d="M7.249999999999999 1.6166666666666667L7.249999999999999 2.2291666666666665" stroke-width="0.03" stroke="#000000" fill="none"/>
<path d="M9.237499999999999 2.533333333333333L1.5 2.533333333333333" stroke-width="0.03" stroke="#000000" fill="none"/>
</svg>
