<?xml version="1.0" standalone="no"?>
<svg width="29.7cm" height="42cm" version="1.1" xmlns="http://www.w3.org/2000/svg" viewBox="0.0 0.0 29.700001 42.000001">
<path d="M4.733203124999998 12.027841500323873L4.941796875 11.9074098426101L5.46328125 12.208488986894533L5.46328125 12.569783960035853" stroke-width="0.03" stroke="#000000" fill="none"/>
<path d="M5.3589843749999995 12.629999788892741L5.150390625 12.509568131178968L3.481640624999999 13.473021392889155L3.481640624999999 14.195611339171796L3.2730468750000017 14.075179681458023L3.481640624999999 13.95474802374425" stroke-width="0.03" stroke="#000000" fill="none"/>
<path d="M3.481640624999999 13.834316366030475L3.064453125 13.593453050602928L3.064453125 13.473021392889155L3.898828125 12.991294762034062L4.107421875 13.111726419747836" stroke-width="0.03" stroke="#000000" fill="none"/>
<path d="M4.3160156249999995 13.232158077461609L7.653515625 11.305251554041233L7.862109374999999 11.425683211755006" stroke-width="0.03" stroke="#000000" fill="none"/>
<path d="M7.7578125 11.365467382898117L8.070703124999998 11.184819896327458L8.175 11.245035725184344" stroke-width="0.03" stroke="#000000" fill="none"/>
<path d="M8.487890625 12.027841500323873L7.027734374999999 12.87086310432029L7.027734374999999 13.111726419747836" stroke-width="0.03" stroke="#000000" fill="none"/>
<path d="M6.819140625 13.232158077461609L9.530859375 11.666546527182554L10.05234375 11.967625671466987" stroke-width="0.03" stroke="#000000" fill="none"/>
<path d="M9.84375 11.847194013753214L11.199609375 11.064388238613684L11.408203125 11.184819896327458" stroke-width="0.03" stroke="#000000" fill="none"/>
<path d="M11.825390624999999 10.943956580899911L5.776171874999998 14.436474654599342L5.776171874999998 14.797769627740664L3.481640624999999 13.473021392889155" stroke-width="0.03" stroke="#000000" fill="none"/>
<path d="M3.481640624999999 13.713884708316701L3.064453125 13.473021392889155" stroke-width="0.03" stroke="#000000" fill="none"/>
<path d="M3.2730468750000017 14.075179681458023L3.2730468750000017 14.31604299688557L10.573828124999999 18.531151016867643L10.46953125 18.59136684572453L10.46953125 19.073093476579622L11.095312499999999 19.434388449720945L11.095312499999999 20.879568342286227L10.260937499999999 20.397841711431134L10.156640625 20.458057540288017L10.156640625 22.384964063708395L11.303906249999999 23.047338181134148L11.303906249999999 24.37208641598566L12.97265625 25.335539677695845L13.076953125000001 25.27532384883896L14.015625 25.817266308550938L14.015625 26.780719570261127L14.328515625 26.96136705683179L14.64140625 26.780719570261127" stroke-width="0.03" stroke="#000000" fill="none"/>
<path d="M14.745703124999999 26.840935399118013L14.85 26.780719570261127L14.954296875 26.840935399118013L15.371484375 26.600072083690467L15.371484375 26.96136705683179L15.684375 26.780719570261127L15.684375 25.817266308550938L16.623046875 25.27532384883896L16.72734375 25.335539677695845L18.396093750000002 24.37208641598566L18.396093750000002 23.047338181134148L19.543359374999998 22.384964063708395L19.543359374999998 20.458057540288017L19.439062500000002 20.397841711431134L18.6046875 20.879568342286227L17.457421875 20.21719422486047L16.623046875 20.698920855715564L16.623046875 20.939784171143113L17.353125 21.36129497314132L17.353125 22.44517989256528L16.414453125 22.98712235227726L15.684375 22.565611550279055L15.47578125 22.686043207992828L15.47578125 23.649496469703017L16.623046875 24.311870587128773L16.623046875 25.27532384883896" stroke-width="0.03" stroke="#000000" fill="none"/>
<path d="M16.72734375 25.335539677695845L16.72734375 23.40863315427547L15.47578125 22.686043207992828" stroke-width="0.03" stroke="#000000" fill="none"/>
<path d="M15.162890625 23.227985667704807L14.85 23.40863315427547L14.537109375 23.227985667704807L14.224218749999999 23.40863315427547" stroke-width="0.03" stroke="#000000" fill="none"/>
<path d="M14.224218749999999 23.649496469703017L13.076953125000001 24.311870587128773L13.076953125000001 25.27532384883896" stroke-width="0.03" stroke="#000000" fill="none"/>
<path d="M12.97265625 25.335539677695845L12.97265625 23.40863315427547L14.224218749999999 22.686043207992828L14.015625 22.565611550279055L13.285546875 22.98712235227726L12.346874999999999 22.44517989256528L11.825390624999999 22.746259036849715L11.825390624999999 21.42151080199821L13.076953125000001 20.698920855715564L12.242578125 20.21719422486047L11.095312499999999 20.879568342286227" stroke-width="0.03" stroke="#000000" fill="none"/>
<path d="M11.825390624999999 21.42151080199821L10.156640625 20.458057540288017" stroke-width="0.03" stroke="#000000" fill="none"/>
<path d="M10.260937499999999 20.397841711431134L10.260937499999999 19.31395679200717L9.4265625 18.832230161152076L9.4265625 18.470935188010756L9.739453124999999 18.290287701440096" stroke-width="0.03" stroke="#000000" fill="none"/>
<path d="M9.739453124999999 18.16985604372632L9.84375 18.109640214869437L9.84375 17.989208557155663L10.260937499999999 17.748345241728117L9.948046875 17.567697755157454L10.260937499999999 17.387050268586794L11.095312499999999 17.86877689944189L12.033984375000001 17.326834439729907L12.033984375000001 17.206402782016134L13.702734374999999 16.24294952030595L14.85 16.905323637731698L15.997265625 16.24294952030595L17.666015625 17.206402782016134L17.666015625 17.326834439729907L18.6046875 17.86877689944189L19.439062500000002 17.387050268586794L19.751953125 17.567697755157454L19.751953125 17.928992728298773" stroke-width="0.03" stroke="#000000" fill="none"/>
<path d="M19.85625 17.989208557155663L19.126171875 18.410719359153866L18.708984375 18.16985604372632L18.083203125 18.531151016867643L18.083203125 19.13330930543651L18.6046875 19.434388449720945L18.6046875 20.879568342286227" stroke-width="0.03" stroke="#000000" fill="none"/>
<path d="M17.874609375000002 21.42151080199821L19.543359374999998 20.458057540288017" stroke-width="0.03" stroke="#000000" fill="none"/>
<path d="M19.439062500000002 20.397841711431134L19.439062500000002 19.31395679200717L20.2734375 18.832230161152076L20.2734375 18.470935188010756L19.960546875000002 18.290287701440096" stroke-width="0.03" stroke="#000000" fill="none"/>
<path d="M19.960546875000002 18.16985604372632L19.23046875 18.59136684572453L19.23046875 19.073093476579622L18.6046875 19.434388449720945" stroke-width="0.03" stroke="#000000" fill="none"/>
<path d="M18.083203125 19.13330930543651L18.708984375 18.77201433229519L19.23046875 19.073093476579622" stroke-width="0.03" stroke="#000000" fill="none"/>
<path d="M19.439062500000002 19.31395679200717L19.751953125 19.49460427857783L19.751953125 23.830143956273677L15.997265625 25.9979137951216L15.997265625 32.139928338524044L15.684375 31.959280851953388L15.684375 34.608777321656405L17.353125 33.64532405994622L17.353125 33.40446074451867" stroke-width="0.03" stroke="#000000" fill="none"/>
<path d="M17.353125 33.52489240223244L17.56171875 33.64532405994622L17.56171875 34.247482348515085L16.9359375 33.886187375373765" stroke-width="0.03" stroke="#000000" fill="none"/>
<path d="M16.31015625 33.886187375373765L18.291796875 32.74208662709292L18.291796875 32.621654969379136L23.089453125000002 29.851726841962353L23.089453125000002 29.610863526534803" stroke-width="0.03" stroke="#000000" fill="none"/>
<path d="M22.880859375 30.21302181510367L21.837890625 30.815180103672542L21.837890625 30.935611761386316L22.255078124999997 31.17647507681386L23.298046874999997 30.574316788244992L23.298046874999997 30.45388513053122L22.880859375 30.21302181510367" stroke-width="0.03" stroke="#000000" fill="none"/>
<path d="M23.298046874999997 30.45388513053122L22.255078124999997 31.056043419100085L21.837890625 30.815180103672542" stroke-width="0.03" stroke="#000000" fill="none"/>
<path d="M22.255078124999997 31.056043419100085L22.255078124999997 31.17647507681386" stroke-width="0.03" stroke="#000000" fill="none"/>
<path d="M22.046484375000002 30.21302181510367L24.758203125 28.647410264824618L24.758203125 26.72050374140424L26.426953124999997 25.75705047969405L26.426953124999997 22.62582737913594L26.322656249999998 22.565611550279055L26.218359375 22.62582737913594L25.279687499999998 22.08388491942396" stroke-width="0.03" stroke="#000000" fill="none"/>
<path d="M25.279687499999998 22.8064748657066L25.07109375 22.926906523420374" stroke-width="0.03" stroke="#000000" fill="none"/>
<path d="M25.279687499999998 22.8064748657066L25.279687499999998 21.240863315427546" stroke-width="0.03" stroke="#000000" fill="none"/>
<path d="M25.07109375 21.36129497314132L25.592578125 21.060215828856883L25.592578125 17.928992728298773L25.383984374999997 17.808561070585" stroke-width="0.03" stroke="#000000" fill="none"/>
<path d="M25.592578125 17.928992728298773L25.07109375 18.23007187258321" stroke-width="0.03" stroke="#000000" fill="none"/>
<path d="M25.07109375 17.989208557155663L26.009765625 17.44726609744368L26.009765625 16.60424449344727L26.1140625 16.54402866459038L26.1140625 15.94187037602151L26.53125 15.701007060593964L26.73984375 15.82143871830774L26.73984375 18.109640214869437L26.635546875 18.16985604372632L26.635546875 23.709712298559904L26.426953124999997 23.830143956273677" stroke-width="0.03" stroke="#000000" fill="none"/>
<path d="M26.844140625 23.348417325418584L26.844140625 22.14410074828085L26.9484375 22.08388491942396L27.365624999999998 22.32474823485151L27.365624999999998 23.529064811989244L27.261328125 23.58928064084613L26.844140625 23.348417325418584" stroke-width="0.03" stroke="#000000" fill="none"/>
<path d="M27.261328125 23.58928064084613L27.261328125 22.384964063708395L27.365624999999998 22.32474823485151" stroke-width="0.03" stroke="#000000" fill="none"/>
<path d="M27.261328125 22.384964063708395L26.844140625 22.14410074828085" stroke-width="0.03" stroke="#000000" fill="none"/>
<path d="M26.426953124999997 22.62582737913594L25.07109375 23.40863315427547L25.07109375 16.423597006876605L24.758203125 16.24294952030595L27.052734375 14.918201285454437L27.052734375 16.845107808874815L26.844140625 16.965539466588588" stroke-width="0.03" stroke="#000000" fill="none"/>
<path d="M26.844140625 17.08597112430236L27.15703125 17.26661861087302L27.678515625 16.965539466588588L27.678515625 16.72467615116104L27.052734375 16.36338117801972" stroke-width="0.03" stroke="#000000" fill="none"/>
<path d="M26.9484375 16.905323637731698L27.15703125 17.025755295445475L27.15703125 17.26661861087302" stroke-width="0.03" stroke="#000000" fill="none"/>
<path d="M27.15703125 17.025755295445475L27.678515625 16.72467615116104" stroke-width="0.03" stroke="#000000" fill="none"/>
<path d="M27.052734375 15.640791231737078L27.261328125 15.520359574023306L27.261328125 14.556906312313117L27.15703125 14.49669048345623L26.73984375 14.737553798883777" stroke-width="0.03" stroke="#000000" fill="none"/>
<path d="M26.635546875 14.67733797002689L26.635546875 14.436474654599342L26.426953124999997 14.31604299688557L19.126171875 18.531151016867643L19.23046875 18.59136684572453" stroke-width="0.03" stroke="#000000" fill="none"/>
<path d="M19.126171875 18.531151016867643L19.126171875 18.410719359153866" stroke-width="0.03" stroke="#000000" fill="none"/>
<path d="M18.708984375 18.16985604372632L18.708984375 18.77201433229519" stroke-width="0.03" stroke="#000000" fill="none"/>
<path d="M18.083203125 18.531151016867643L16.831640625 17.808561070585L16.831640625 19.13330930543651L15.997265625 19.615035936291605L15.788671874999999 19.49460427857783L15.788671874999999 18.651582674581416L14.85 18.109640214869437L13.911328125 18.651582674581416L13.911328125 19.49460427857783L13.702734374999999 19.615035936291605L12.868359374999999 19.13330930543651L12.868359374999999 17.808561070585L12.033984375000001 17.326834439729907" stroke-width="0.03" stroke="#000000" fill="none"/>
<path d="M12.033984375000001 17.206402782016134L13.702734374999999 18.16985604372632L14.85 17.50748192630057L15.997265625 18.16985604372632L17.666015625 17.206402782016134" stroke-width="0.03" stroke="#000000" fill="none"/>
<path d="M17.666015625 17.326834439729907L16.831640625 17.808561070585" stroke-width="0.03" stroke="#000000" fill="none"/>
<path d="M15.997265625 18.16985604372632L15.997265625 19.615035936291605" stroke-width="0.03" stroke="#000000" fill="none"/>
<path d="M16.623046875 19.615035936291605L16.623046875 19.253740963150285" stroke-width="0.03" stroke="#000000" fill="none"/>
<path d="M16.623046875 19.615035936291605L16.9359375 19.795683422862265L16.9359375 20.156978396003588L17.248828125 20.337625882574244" stroke-width="0.03" stroke="#000000" fill="none"/>
<path d="M16.9359375 19.795683422862265L14.954296875 20.939784171143113L14.954296875 19.13330930543651L15.788671874999999 18.651582674581416" stroke-width="0.03" stroke="#000000" fill="none"/>
<path d="M14.954296875 19.13330930543651L14.85 19.073093476579622L14.745703124999999 19.13330930543651L13.911328125 18.651582674581416" stroke-width="0.03" stroke="#000000" fill="none"/>
<path d="M13.702734374999999 18.16985604372632L13.702734374999999 19.615035936291605" stroke-width="0.03" stroke="#000000" fill="none"/>
<path d="M13.076953125000001 19.615035936291605L12.7640625 19.795683422862265L12.7640625 20.156978396003588L12.451171875 20.337625882574244" stroke-width="0.03" stroke="#000000" fill="none"/>
<path d="M12.7640625 19.795683422862265L14.745703124999999 20.939784171143113L14.745703124999999 19.13330930543651" stroke-width="0.03" stroke="#000000" fill="none"/>
<path d="M14.85 19.073093476579622L14.85 21L13.181249999999999 21.96345326171019L13.181249999999999 21.843021603996412L12.346874999999999 21.36129497314132L12.346874999999999 22.44517989256528" stroke-width="0.03" stroke="#000000" fill="none"/>
<path d="M11.825390624999999 22.746259036849715L12.97265625 23.40863315427547" stroke-width="0.03" stroke="#000000" fill="none"/>
<path d="M13.285546875 22.98712235227726L13.285546875 22.023669090567072L14.85 21.120431657713773L16.414453125 22.023669090567072L16.51875 21.96345326171019L16.51875 21.843021603996412L17.353125 21.36129497314132" stroke-width="0.03" stroke="#000000" fill="none"/>
<path d="M17.874609375000002 21.42151080199821L17.874609375000002 22.746259036849715L16.72734375 23.40863315427547" stroke-width="0.03" stroke="#000000" fill="none"/>
<path d="M16.414453125 22.98712235227726L16.414453125 22.023669090567072" stroke-width="0.03" stroke="#000000" fill="none"/>
<path d="M16.51875 21.96345326171019L14.85 21" stroke-width="0.03" stroke="#000000" fill="none"/>
<path d="M14.85 21.120431657713773L14.85 23.40863315427547" stroke-width="0.03" stroke="#000000" fill="none"/>
<path d="M15.162890625 23.227985667704807L15.47578125 23.40863315427547" stroke-width="0.03" stroke="#000000" fill="none"/>
<path d="M14.224218749999999 23.649496469703017L14.224218749999999 22.686043207992828" stroke-width="0.03" stroke="#000000" fill="none"/>
<path d="M13.285546875 22.023669090567072L13.181249999999999 21.96345326171019" stroke-width="0.03" stroke="#000000" fill="none"/>
<path d="M13.181249999999999 21.843021603996412L14.745703124999999 20.939784171143113" stroke-width="0.03" stroke="#000000" fill="none"/>
<path d="M14.954296875 20.939784171143113L16.51875 21.843021603996412" stroke-width="0.03" stroke="#000000" fill="none"/>
<path d="M17.353125 22.44517989256528L17.874609375000002 22.746259036849715" stroke-width="0.03" stroke="#000000" fill="none"/>
<path d="M18.396093750000002 23.047338181134148L18.6046875 23.167769838847924L18.396093750000002 23.288201496561694" stroke-width="0.03" stroke="#000000" fill="none"/>
<path d="M18.6046875 23.167769838847924L18.6046875 22.926906523420374" stroke-width="0.03" stroke="#000000" fill="none"/>
<path d="M19.439062500000002 22.44517989256528L19.439062500000002 23.649496469703017L19.751953125 23.830143956273677" stroke-width="0.03" stroke="#000000" fill="none"/>
<path d="M19.439062500000002 23.649496469703017L18.396093750000002 24.251654758271883" stroke-width="0.03" stroke="#000000" fill="none"/>
<path d="M16.623046875 24.311870587128773L15.371484375 25.034460533411412L14.85 24.73338138912698L14.328515625 25.034460533411412L13.076953125000001 24.311870587128773" stroke-width="0.03" stroke="#000000" fill="none"/>
<path d="M14.328515625 25.034460533411412L14.328515625 25.75705047969405L14.745703124999999 25.9979137951216L14.745703124999999 26.840935399118013L14.328515625 26.600072083690467L14.328515625 26.96136705683179" stroke-width="0.03" stroke="#000000" fill="none"/>
<path d="M14.954296875 26.840935399118013L14.954296875 25.9979137951216L15.371484375 25.75705047969405L15.371484375 25.034460533411412" stroke-width="0.03" stroke="#000000" fill="none"/>
<path d="M14.85 24.73338138912698L14.85 25.45597133540962L14.328515625 25.75705047969405" stroke-width="0.03" stroke="#000000" fill="none"/>
<path d="M14.015625 25.817266308550938L13.702734374999999 25.9979137951216L13.702734374999999 32.139928338524044L14.015625 31.959280851953388L14.015625 34.608777321656405L12.346874999999999 33.64532405994622L12.346874999999999 33.40446074451867" stroke-width="0.03" stroke="#000000" fill="none"/>
<path d="M12.346874999999999 33.52489240223244L12.138281249999999 33.64532405994622L12.138281249999999 34.247482348515085L12.7640625 33.886187375373765" stroke-width="0.03" stroke="#000000" fill="none"/>
<path d="M13.389843749999999 33.886187375373765L13.598437500000001 33.76575571765999L13.598437500000001 33.2840290868049L13.076953125000001 32.98294994252046L13.076953125000001 32.86251828480669L12.346874999999999 32.44100748280849L12.346874999999999 31.35712256338452" stroke-width="0.03" stroke="#000000" fill="none"/>
<path d="M12.138281249999999 31.236690905670745L12.138281249999999 31.838849194239618L9.4265625 30.273237643960556L9.4265625 29.67107935539169" stroke-width="0.03" stroke="#000000" fill="none"/>
<path d="M9.4265625 29.91194267081924L8.070703124999998 29.12913689567971L8.070703124999998 28.888273580252164" stroke-width="0.03" stroke="#000000" fill="none"/>
<path d="M7.653515625 28.647410264824618L7.653515625 30.21302181510367L7.7578125 30.152805986246786L7.7578125 30.032374328533013L8.696484375 29.490431868821034" stroke-width="0.03" stroke="#000000" fill="none"/>
<path d="M7.7578125 30.032374328533013L12.868359374999999 32.98294994252046L13.076953125000001 32.86251828480669" stroke-width="0.03" stroke="#000000" fill="none"/>
<path d="M13.076953125000001 32.98294994252046L12.868359374999999 33.103381600234236L12.868359374999999 32.98294994252046" stroke-width="0.03" stroke="#000000" fill="none"/>
<path d="M12.868359374999999 33.103381600234236L13.389843749999999 33.40446074451867L13.389843749999999 34.00661903308754L10.05234375 32.07971250966716L10.05234375 31.838849194239618" stroke-width="0.03" stroke="#000000" fill="none"/>
<path d="M10.05234375 31.959280851953388L9.739453124999999 31.77863336538273L9.739453124999999 31.658201707668955" stroke-width="0.03" stroke="#000000" fill="none"/>
<path d="M10.260937499999999 30.995827590243202L10.260937499999999 30.754964274815652" stroke-width="0.03" stroke="#000000" fill="none"/>
<path d="M10.260937499999999 30.995827590243202L11.72109375 31.838849194239618L11.9296875 31.71841753652584" stroke-width="0.03" stroke="#000000" fill="none"/>
<path d="M11.72109375 31.597985878812068L11.72109375 31.838849194239618" stroke-width="0.03" stroke="#000000" fill="none"/>
<path d="M12.138281249999999 31.838849194239618L12.346874999999999 31.71841753652584" stroke-width="0.03" stroke="#000000" fill="none"/>
<path d="M11.408203125 32.621654969379136L11.408203125 32.74208662709292L13.389843749999999 33.886187375373765" stroke-width="0.03" stroke="#000000" fill="none"/>
<path d="M13.494140625 33.94640320423065L13.389843749999999 34.00661903308754" stroke-width="0.03" stroke="#000000" fill="none"/>
<path d="M13.494140625 33.94640320423065L13.494140625 33.82597154651688" stroke-width="0.03" stroke="#000000" fill="none"/>
<path d="M13.389843749999999 34.247482348515085L13.389843749999999 34.48834566394263L14.224218749999999 34.970072294797724L14.328515625 34.90985646594084L14.328515625 34.42812983508574" stroke-width="0.03" stroke="#000000" fill="none"/>
<path d="M14.4328125 34.36791400622886L14.64140625 34.48834566394263L14.85 34.36791400622886L15.05859375 34.48834566394263L15.267187499999999 34.36791400622886" stroke-width="0.03" stroke="#000000" fill="none"/>
<path d="M15.371484375 34.42812983508574L15.371484375 34.90985646594084L15.47578125 34.970072294797724L16.31015625 34.48834566394263L16.31015625 34.247482348515085" stroke-width="0.03" stroke="#000000" fill="none"/>
<path d="M16.31015625 34.00661903308754L19.647656249999997 32.07971250966716L19.647656249999997 31.838849194239618" stroke-width="0.03" stroke="#000000" fill="none"/>
<path d="M19.647656249999997 31.959280851953388L19.960546875000002 31.77863336538273L19.960546875000002 31.658201707668955" stroke-width="0.03" stroke="#000000" fill="none"/>
<path d="M19.439062500000002 30.995827590243202L17.978906249999998 31.838849194239618L17.7703125 31.71841753652584" stroke-width="0.03" stroke="#000000" fill="none"/>
<path d="M17.978906249999998 31.597985878812068L17.978906249999998 31.838849194239618" stroke-width="0.03" stroke="#000000" fill="none"/>
<path d="M17.56171875 31.838849194239618L20.2734375 30.273237643960556L20.2734375 29.67107935539169" stroke-width="0.03" stroke="#000000" fill="none"/>
<path d="M20.2734375 29.91194267081924L21.629296875 29.12913689567971L21.629296875 28.888273580252164" stroke-width="0.03" stroke="#000000" fill="none"/>
<path d="M22.046484375000002 28.647410264824618L15.997265625 32.139928338524044" stroke-width="0.03" stroke="#000000" fill="none"/>
<path d="M16.623046875 32.86251828480669L17.353125 32.44100748280849L17.353125 31.35712256338452" stroke-width="0.03" stroke="#000000" fill="none"/>
<path d="M17.56171875 31.236690905670745L17.56171875 31.838849194239618L17.353125 31.71841753652584" stroke-width="0.03" stroke="#000000" fill="none"/>
<path d="M16.623046875 32.86251828480669L16.623046875 32.98294994252046L16.1015625 33.2840290868049L16.1015625 33.76575571765999L16.31015625 33.886187375373765" stroke-width="0.03" stroke="#000000" fill="none"/>
<path d="M16.205859375 33.82597154651688L16.205859375 33.94640320423065L16.31015625 34.00661903308754L16.31015625 33.40446074451867L16.831640625 33.103381600234236L16.831640625 32.98294994252046L16.623046875 32.86251828480669" stroke-width="0.03" stroke="#000000" fill="none"/>
<path d="M16.623046875 32.98294994252046L16.831640625 33.103381600234236" stroke-width="0.03" stroke="#000000" fill="none"/>
<path d="M16.831640625 32.98294994252046L21.9421875 30.032374328533013L21.9421875 30.152805986246786L22.046484375000002 30.21302181510367L22.046484375000002 28.647410264824618" stroke-width="0.03" stroke="#000000" fill="none"/>
<path d="M21.003515625000002 29.490431868821034L21.9421875 30.032374328533013" stroke-width="0.03" stroke="#000000" fill="none"/>
<path d="M19.439062500000002 30.754964274815652L19.439062500000002 30.995827590243202" stroke-width="0.03" stroke="#000000" fill="none"/>
<path d="M17.7703125 33.52489240223244L17.56171875 33.64532405994622" stroke-width="0.03" stroke="#000000" fill="none"/>
<path d="M17.7703125 33.52489240223244L17.7703125 34.12705069080131L17.56171875 34.247482348515085" stroke-width="0.03" stroke="#000000" fill="none"/>
<path d="M17.7703125 33.52489240223244L17.457421875 33.34424491566179" stroke-width="0.03" stroke="#000000" fill="none"/>
<path d="M16.31015625 33.40446074451867L16.1015625 33.2840290868049" stroke-width="0.03" stroke="#000000" fill="none"/>
<path d="M15.47578125 34.48834566394263L15.47578125 34.970072294797724" stroke-width="0.03" stroke="#000000" fill="none"/>
<path d="M15.684375 34.608777321656405L15.05859375 34.247482348515085L15.05859375 34.48834566394263" stroke-width="0.03" stroke="#000000" fill="none"/>
<path d="M14.85 34.36791400622886L14.85 25.937697966264714L14.745703124999999 25.9979137951216" stroke-width="0.03" stroke="#000000" fill="none"/>
<path d="M14.85 25.937697966264714L14.954296875 25.9979137951216" stroke-width="0.03" stroke="#000000" fill="none"/>
<path d="M15.371484375 25.75705047969405L14.85 25.45597133540962" stroke-width="0.03" stroke="#000000" fill="none"/>
<path d="M15.684375 25.817266308550938L15.997265625 25.9979137951216" stroke-width="0.03" stroke="#000000" fill="none"/>
<path d="M15.371484375 26.96136705683179L15.05859375 26.780719570261127" stroke-width="0.03" stroke="#000000" fill="none"/>
<path d="M13.702734374999999 25.9979137951216L9.948046875 23.830143956273677L9.948046875 19.49460427857783L10.260937499999999 19.31395679200717" stroke-width="0.03" stroke="#000000" fill="none"/>
<path d="M10.46953125 19.073093476579622L10.991015625000001 18.77201433229519L11.616796874999999 19.13330930543651L11.095312499999999 19.434388449720945" stroke-width="0.03" stroke="#000000" fill="none"/>
<path d="M11.616796874999999 19.13330930543651L11.616796874999999 18.531151016867643L10.991015625000001 18.16985604372632L10.573828124999999 18.410719359153866L9.84375 17.989208557155663" stroke-width="0.03" stroke="#000000" fill="none"/>
<path d="M9.948046875 17.928992728298773L9.948046875 17.567697755157454" stroke-width="0.03" stroke="#000000" fill="none"/>
<path d="M9.739453124999999 18.16985604372632L9.739453124999999 18.651582674581416L9.4265625 18.470935188010756" stroke-width="0.03" stroke="#000000" fill="none"/>
<path d="M9.739453124999999 18.16985604372632L10.46953125 18.59136684572453" stroke-width="0.03" stroke="#000000" fill="none"/>
<path d="M10.573828124999999 18.531151016867643L10.573828124999999 18.410719359153866" stroke-width="0.03" stroke="#000000" fill="none"/>
<path d="M10.991015625000001 18.16985604372632L10.991015625000001 18.77201433229519" stroke-width="0.03" stroke="#000000" fill="none"/>
<path d="M11.616796874999999 18.531151016867643L12.868359374999999 17.808561070585" stroke-width="0.03" stroke="#000000" fill="none"/>
<path d="M13.076953125000001 19.253740963150285L13.076953125000001 19.615035936291605" stroke-width="0.03" stroke="#000000" fill="none"/>
<path d="M13.076953125000001 20.698920855715564L13.076953125000001 20.939784171143113L12.346874999999999 21.36129497314132" stroke-width="0.03" stroke="#000000" fill="none"/>
<path d="M11.303906249999999 23.047338181134148L11.095312499999999 23.167769838847924L11.303906249999999 23.288201496561694" stroke-width="0.03" stroke="#000000" fill="none"/>
<path d="M11.095312499999999 23.167769838847924L11.095312499999999 22.926906523420374" stroke-width="0.03" stroke="#000000" fill="none"/>
<path d="M10.260937499999999 22.44517989256528L10.260937499999999 23.649496469703017L9.948046875 23.830143956273677" stroke-width="0.03" stroke="#000000" fill="none"/>
<path d="M10.260937499999999 23.649496469703017L11.303906249999999 24.251654758271883" stroke-width="0.03" stroke="#000000" fill="none"/>
<path d="M7.5492187500000005 25.215108019982072L7.5492187500000005 26.660287912547354L6.297656249999999 25.937697966264714L6.297656249999999 24.492518073699433L7.5492187500000005 25.215108019982072" stroke-width="0.03" stroke="#000000" fill="none"/>
<path d="M7.340624999999999 25.335539677695845L7.236328125 25.39575550655273L7.340624999999999 25.45597133540962L7.340624999999999 25.335539677695845L7.236328125 25.27532384883896L7.236328125 25.39575550655273" stroke-width="0.03" stroke="#000000" fill="none"/>
<path d="M7.027734374999999 25.51618716426651L6.297656249999999 25.937697966264714" stroke-width="0.03" stroke="#000000" fill="none"/>
<path d="M7.027734374999999 25.877482137407824L7.027734374999999 25.51618716426651L6.714843749999999 25.335539677695845L6.714843749999999 24.73338138912698" stroke-width="0.03" stroke="#000000" fill="none"/>
<path d="M7.027734374999999 25.877482137407824L7.5492187500000005 26.17856128169226" stroke-width="0.03" stroke="#000000" fill="none"/>
<path d="M7.653515625 28.647410264824618L13.702734374999999 32.139928338524044" stroke-width="0.03" stroke="#000000" fill="none"/>
<path d="M13.598437500000001 33.2840290868049L13.389843749999999 33.40446074451867" stroke-width="0.03" stroke="#000000" fill="none"/>
<path d="M12.242578125 33.34424491566179L11.9296875 33.52489240223244L11.9296875 34.12705069080131L12.138281249999999 34.247482348515085" stroke-width="0.03" stroke="#000000" fill="none"/>
<path d="M12.138281249999999 33.64532405994622L11.9296875 33.52489240223244" stroke-width="0.03" stroke="#000000" fill="none"/>
<path d="M11.408203125 32.621654969379136L6.610546875 29.851726841962353L6.610546875 29.610863526534803" stroke-width="0.03" stroke="#000000" fill="none"/>
<path d="M6.819140625 30.21302181510367L6.4019531249999995 30.45388513053122L6.4019531249999995 30.574316788244992L7.4449218749999995 31.17647507681386L7.862109374999999 30.935611761386316L7.862109374999999 30.815180103672542L6.819140625 30.21302181510367" stroke-width="0.03" stroke="#000000" fill="none"/>
<path d="M6.4019531249999995 30.45388513053122L7.4449218749999995 31.056043419100085L7.862109374999999 30.815180103672542" stroke-width="0.03" stroke="#000000" fill="none"/>
<path d="M7.4449218749999995 31.056043419100085L7.4449218749999995 31.17647507681386" stroke-width="0.03" stroke="#000000" fill="none"/>
<path d="M7.653515625 30.21302181510367L4.941796875 28.647410264824618L4.941796875 26.72050374140424L3.2730468750000017 25.75705047969405L3.2730468750000017 22.62582737913594L3.3773437500000005 22.565611550279055L3.481640624999999 22.62582737913594L4.4203125 22.08388491942396" stroke-width="0.03" stroke="#000000" fill="none"/>
<path d="M4.4203125 22.8064748657066L4.4203125 21.240863315427546" stroke-width="0.03" stroke="#000000" fill="none"/>
<path d="M4.62890625 21.36129497314132L4.107421875 21.060215828856883L4.107421875 17.928992728298773L4.3160156249999995 17.808561070585" stroke-width="0.03" stroke="#000000" fill="none"/>
<path d="M4.107421875 17.928992728298773L4.62890625 18.23007187258321" stroke-width="0.03" stroke="#000000" fill="none"/>
<path d="M4.62890625 17.989208557155663L3.6902343750000006 17.44726609744368L3.6902343750000006 16.60424449344727L3.5859375 16.54402866459038L3.5859375 15.94187037602151L3.1687499999999984 15.701007060593964L2.960156250000001 15.82143871830774L2.960156250000001 18.109640214869437L3.064453125 18.16985604372632L3.064453125 23.709712298559904L3.2730468750000017 23.830143956273677" stroke-width="0.03" stroke="#000000" fill="none"/>
<path d="M2.8558593750000005 23.348417325418584L2.438671874999999 23.58928064084613L2.3343750000000005 23.529064811989244L2.3343750000000005 22.32474823485151L2.7515624999999995 22.08388491942396L2.8558593750000005 22.14410074828085L2.8558593750000005 23.348417325418584" stroke-width="0.03" stroke="#000000" fill="none"/>
<path d="M2.438671874999999 23.58928064084613L2.438671874999999 22.384964063708395L2.3343750000000005 22.32474823485151" stroke-width="0.03" stroke="#000000" fill="none"/>
<path d="M2.438671874999999 22.384964063708395L2.8558593750000005 22.14410074828085" stroke-width="0.03" stroke="#000000" fill="none"/>
<path d="M3.2730468750000017 22.62582737913594L4.62890625 23.40863315427547L4.62890625 16.423597006876605L4.941796875 16.24294952030595L2.647265625000001 14.918201285454437L3.2730468750000017 14.556906312313117L3.064453125 14.436474654599342L3.064453125 14.67733797002689" stroke-width="0.03" stroke="#000000" fill="none"/>
<path d="M2.960156250000001 14.737553798883777L2.54296875 14.49669048345623L2.438671874999999 14.556906312313117L2.438671874999999 15.520359574023306L2.647265625000001 15.640791231737078" stroke-width="0.03" stroke="#000000" fill="none"/>
<path d="M2.8558593750000005 15.761222889450853L2.960156250000001 15.701007060593964L3.064453125 15.761222889450853" stroke-width="0.03" stroke="#000000" fill="none"/>
<path d="M2.8558593750000005 15.761222889450853L2.8558593750000005 19.615035936291605L3.064453125 19.735467594005378" stroke-width="0.03" stroke="#000000" fill="none"/>
<path d="M2.960156250000001 19.67525176514849L2.960156250000001 20.03654673828981L3.064453125 20.096762567146698" stroke-width="0.03" stroke="#000000" fill="none"/>
<path d="M3.898828125 19.976330909432924L3.898828125 18.290287701440096L4.107421875 18.16985604372632" stroke-width="0.03" stroke="#000000" fill="none"/>
<path d="M4.107421875 18.410719359153866L3.898828125 18.290287701440096" stroke-width="0.03" stroke="#000000" fill="none"/>
<path d="M2.8558593750000005 17.08597112430236L2.54296875 17.26661861087302L2.021484375 16.965539466588588L2.021484375 16.72467615116104L2.647265625000001 16.36338117801972" stroke-width="0.03" stroke="#000000" fill="none"/>
<path d="M2.647265625000001 16.845107808874815L2.647265625000001 14.918201285454437" stroke-width="0.03" stroke="#000000" fill="none"/>
<path d="M2.8558593750000005 14.797769627740664L2.438671874999999 14.556906312313117" stroke-width="0.03" stroke="#000000" fill="none"/>
<path d="M3.064453125 14.436474654599342L3.2730468750000017 14.31604299688557" stroke-width="0.03" stroke="#000000" fill="none"/>
<path d="M4.4203125 13.533237221746042L4.4203125 13.292373906318495L6.4019531249999995 12.148273158037647L6.5062500000000005 12.208488986894533L11.303906249999999 9.438560859477743L11.512500000000001 9.558992517191516" stroke-width="0.03" stroke="#000000" fill="none"/>
<path d="M10.88671875 9.438560859477743L9.84375 10.04071914804661L9.739453124999999 9.980503319189724L9.739453124999999 9.49877668833463L10.782421874999999 8.896618399765762L10.88671875 8.956834228622649L10.88671875 9.438560859477743" stroke-width="0.03" stroke="#000000" fill="none"/>
<path d="M10.88671875 8.956834228622649L9.84375 9.558992517191516L9.739453124999999 9.49877668833463" stroke-width="0.03" stroke="#000000" fill="none"/>
<path d="M9.84375 9.558992517191516L9.84375 10.04071914804661" stroke-width="0.03" stroke="#000000" fill="none"/>
<path d="M10.46953125 10.161150805760384L13.181249999999999 8.595539255481327L14.85 9.558992517191516L16.51875 8.595539255481327L19.23046875 10.161150805760384L19.23046875 10.281582463474159L19.126171875 10.341798292331045L19.126171875 11.425683211755006" stroke-width="0.03" stroke="#000000" fill="none"/>
<path d="M18.500390624999998 11.064388238613684L18.291796875 11.184819896327458" stroke-width="0.03" stroke="#000000" fill="none"/>
<path d="M18.500390624999998 11.064388238613684L19.85625 11.847194013753214" stroke-width="0.03" stroke="#000000" fill="none"/>
<path d="M19.647656249999997 11.967625671466987L20.169140624999997 11.666546527182554L22.880859375 13.232158077461609L22.880859375 13.473021392889155" stroke-width="0.03" stroke="#000000" fill="none"/>
<path d="M22.880859375 13.232158077461609L22.359375 13.533237221746042" stroke-width="0.03" stroke="#000000" fill="none"/>
<path d="M22.567968750000002 13.653668879459815L23.506640625 13.111726419747836L24.23671875 13.533237221746042L24.341015624999997 13.473021392889155L24.341015624999997 13.232158077461609L24.8625 13.533237221746042L25.383984374999997 13.232158077461609L22.046484375000002 11.305251554041233L21.837890625 11.425683211755006" stroke-width="0.03" stroke="#000000" fill="none"/>
<path d="M21.9421875 11.365467382898117L21.629296875 11.184819896327458L21.525000000000002 11.245035725184344" stroke-width="0.03" stroke="#000000" fill="none"/>
<path d="M21.212109374999997 12.027841500323873L21.003515625000002 12.148273158037647" stroke-width="0.03" stroke="#000000" fill="none"/>
<path d="M21.212109374999997 12.027841500323873L22.672265625 12.87086310432029L22.672265625 13.111726419747836" stroke-width="0.03" stroke="#000000" fill="none"/>
<path d="M22.672265625 12.87086310432029L22.463671875 12.991294762034062" stroke-width="0.03" stroke="#000000" fill="none"/>
<path d="M23.193749999999998 12.208488986894533L23.298046874999997 12.148273158037647L25.279687499999998 13.292373906318495L25.279687499999998 13.533237221746042L24.8625 13.77410053717359L24.341015624999997 13.473021392889155" stroke-width="0.03" stroke="#000000" fill="none"/>
<path d="M24.23671875 13.533237221746042L24.23671875 13.292373906318495L24.341015624999997 13.232158077461609" stroke-width="0.03" stroke="#000000" fill="none"/>
<path d="M24.23671875 13.292373906318495L19.126171875 10.341798292331045" stroke-width="0.03" stroke="#000000" fill="none"/>
<path d="M19.23046875 10.161150805760384L17.874609375000002 10.943956580899911L23.923828125000004 14.436474654599342L23.923828125000004 14.797769627740664L26.218359375 13.473021392889155L24.549609375 12.509568131178968L24.341015624999997 12.629999788892741" stroke-width="0.03" stroke="#000000" fill="none"/>
<path d="M24.23671875 12.569783960035853L24.23671875 12.208488986894533L24.758203125 11.9074098426101L24.966796875000004 12.027841500323873L24.966796875000004 12.750431446606514" stroke-width="0.03" stroke="#000000" fill="none"/>
<path d="M24.4453125 12.569783960035853L24.4453125 12.328920644608306L24.23671875 12.208488986894533" stroke-width="0.03" stroke="#000000" fill="none"/>
<path d="M24.4453125 12.328920644608306L24.966796875000004 12.027841500323873" stroke-width="0.03" stroke="#000000" fill="none"/>
<path d="M25.592578125 13.111726419747836L25.801171875 12.991294762034062L26.635546875 13.473021392889155L26.635546875 13.593453050602928L26.218359375 13.834316366030475" stroke-width="0.03" stroke="#000000" fill="none"/>
<path d="M26.218359375 13.713884708316701L26.635546875 13.473021392889155" stroke-width="0.03" stroke="#000000" fill="none"/>
<path d="M26.218359375 13.473021392889155L26.218359375 14.195611339171796L26.426953124999997 14.075179681458023L26.218359375 13.95474802374425" stroke-width="0.03" stroke="#000000" fill="none"/>
<path d="M26.426953124999997 14.075179681458023L26.426953124999997 14.31604299688557" stroke-width="0.03" stroke="#000000" fill="none"/>
<path d="M26.426953124999997 14.556906312313117L26.635546875 14.436474654599342" stroke-width="0.03" stroke="#000000" fill="none"/>
<path d="M26.426953124999997 14.556906312313117L27.052734375 14.918201285454437" stroke-width="0.03" stroke="#000000" fill="none"/>
<path d="M26.844140625 14.797769627740664L27.261328125 14.556906312313117" stroke-width="0.03" stroke="#000000" fill="none"/>
<path d="M26.73984375 15.701007060593964L26.635546875 15.761222889450853" stroke-width="0.03" stroke="#000000" fill="none"/>
<path d="M26.73984375 15.701007060593964L26.844140625 15.761222889450853L26.844140625 19.615035936291605L26.635546875 19.735467594005378" stroke-width="0.03" stroke="#000000" fill="none"/>
<path d="M26.73984375 19.67525176514849L26.73984375 20.03654673828981L26.635546875 20.096762567146698" stroke-width="0.03" stroke="#000000" fill="none"/>
<path d="M25.801171875 19.976330909432924L25.592578125 20.096762567146698" stroke-width="0.03" stroke="#000000" fill="none"/>
<path d="M25.801171875 19.976330909432924L25.801171875 18.290287701440096L25.592578125 18.16985604372632" stroke-width="0.03" stroke="#000000" fill="none"/>
<path d="M25.592578125 18.410719359153866L25.801171875 18.290287701440096" stroke-width="0.03" stroke="#000000" fill="none"/>
<path d="M26.218359375 16.72467615116104L26.322656249999998 16.66446032230415L26.322656249999998 16.062302033735286L26.1140625 15.94187037602151" stroke-width="0.03" stroke="#000000" fill="none"/>
<path d="M26.322656249999998 16.062302033735286L26.844140625 15.761222889450853" stroke-width="0.03" stroke="#000000" fill="none"/>
<path d="M26.322656249999998 16.66446032230415L26.1140625 16.54402866459038" stroke-width="0.03" stroke="#000000" fill="none"/>
<path d="M26.009765625 16.60424449344727L26.218359375 16.72467615116104L26.218359375 22.62582737913594" stroke-width="0.03" stroke="#000000" fill="none"/>
<path d="M26.426953124999997 25.39575550655273L27.052734375 25.75705047969405L27.052734375 27.68395700311443L26.73984375 27.864604489685092L26.73984375 28.22589946282641L25.07109375 29.189352724536597L24.4453125 28.828057751395274" stroke-width="0.03" stroke="#000000" fill="none"/>
<path d="M25.07109375 29.189352724536597L25.07109375 27.382877858829996L24.758203125 27.202230372259333" stroke-width="0.03" stroke="#000000" fill="none"/>
<path d="M25.07109375 27.382877858829996L25.48828125 27.142014543402446L25.48828125 26.660287912547354L27.052734375 25.75705047969405" stroke-width="0.03" stroke="#000000" fill="none"/>
<path d="M25.48828125 26.660287912547354L25.175390624999995 26.479640425976694" stroke-width="0.03" stroke="#000000" fill="none"/>
<path d="M24.758203125 26.72050374140424L25.48828125 27.142014543402446" stroke-width="0.03" stroke="#000000" fill="none"/>
<path d="M23.40234375 25.937697966264714L22.150781249999998 26.660287912547354L22.150781249999998 25.215108019982072L23.40234375 24.492518073699433L23.40234375 25.937697966264714L22.672265625 25.51618716426651L22.98515625 25.335539677695845L22.98515625 24.73338138912698" stroke-width="0.03" stroke="#000000" fill="none"/>
<path d="M22.463671875 25.27532384883896L22.359375 25.335539677695845L22.359375 25.45597133540962L22.463671875 25.39575550655273L22.463671875 25.27532384883896" stroke-width="0.03" stroke="#000000" fill="none"/>
<path d="M22.359375 25.335539677695845L22.463671875 25.39575550655273" stroke-width="0.03" stroke="#000000" fill="none"/>
<path d="M22.672265625 25.51618716426651L22.672265625 25.877482137407824L22.150781249999998 26.17856128169226" stroke-width="0.03" stroke="#000000" fill="none"/>
<path d="M17.874609375000002 21.42151080199821L16.623046875 20.698920855715564" stroke-width="0.03" stroke="#000000" fill="none"/>
<path d="M14.85 18.109640214869437L14.85 17.50748192630057" stroke-width="0.03" stroke="#000000" fill="none"/>
<path d="M14.85 16.905323637731698L14.85 16.66446032230415L14.64140625 16.784891980017925" stroke-width="0.03" stroke="#000000" fill="none"/>
<path d="M14.85 16.66446032230415L15.05859375 16.784891980017925" stroke-width="0.03" stroke="#000000" fill="none"/>
<path d="M15.89296875 16.303165349162832L14.85 15.701007060593964L14.85 15.339712087452645L11.095312499999999 17.50748192630057L11.095312499999999 17.86877689944189" stroke-width="0.03" stroke="#000000" fill="none"/>
<path d="M11.095312499999999 17.50748192630057L5.776171874999998 14.436474654599342" stroke-width="0.03" stroke="#000000" fill="none"/>
<path d="M5.46328125 13.533237221746042L6.193359375 13.111726419747836L7.13203125 13.653668879459815" stroke-width="0.03" stroke="#000000" fill="none"/>
<path d="M7.340624999999999 13.533237221746042L6.819140625 13.232158077461609L6.819140625 13.473021392889155" stroke-width="0.03" stroke="#000000" fill="none"/>
<path d="M7.027734374999999 12.87086310432029L7.236328125 12.991294762034062" stroke-width="0.03" stroke="#000000" fill="none"/>
<path d="M8.487890625 12.027841500323873L8.696484375 12.148273158037647" stroke-width="0.03" stroke="#000000" fill="none"/>
<path d="M10.573828124999999 11.425683211755006L10.573828124999999 10.341798292331045L10.46953125 10.281582463474159L10.46953125 10.161150805760384L11.825390624999999 10.943956580899911" stroke-width="0.03" stroke="#000000" fill="none"/>
<path d="M10.573828124999999 10.341798292331045L5.46328125 13.292373906318495L5.3589843749999995 13.232158077461609L4.8374999999999995 13.533237221746042L4.3160156249999995 13.232158077461609L4.3160156249999995 13.352589735175382L4.4203125 13.412805564032269" stroke-width="0.03" stroke="#000000" fill="none"/>
<path d="M4.4203125 13.533237221746042L4.8374999999999995 13.77410053717359L5.3589843749999995 13.473021392889155L5.3589843749999995 13.232158077461609" stroke-width="0.03" stroke="#000000" fill="none"/>
<path d="M5.46328125 13.292373906318495L5.46328125 13.533237221746042L5.3589843749999995 13.473021392889155" stroke-width="0.03" stroke="#000000" fill="none"/>
<path d="M4.8374999999999995 13.533237221746042L4.8374999999999995 13.77410053717359" stroke-width="0.03" stroke="#000000" fill="none"/>
<path d="M4.733203124999998 12.750431446606514L4.733203124999998 12.027841500323873L5.254687500000001 12.328920644608306L5.46328125 12.208488986894533" stroke-width="0.03" stroke="#000000" fill="none"/>
<path d="M5.254687500000001 12.328920644608306L5.254687500000001 12.569783960035853" stroke-width="0.03" stroke="#000000" fill="none"/>
<path d="M3.5859375 15.94187037602151L3.3773437500000005 16.062302033735286L3.3773437500000005 16.66446032230415L3.481640624999999 16.72467615116104L3.481640624999999 22.62582737913594" stroke-width="0.03" stroke="#000000" fill="none"/>
<path d="M4.4203125 22.8064748657066L4.62890625 22.926906523420374" stroke-width="0.03" stroke="#000000" fill="none"/>
<path d="M3.2730468750000017 25.39575550655273L2.647265625000001 25.75705047969405L2.647265625000001 27.68395700311443L2.960156250000001 27.864604489685092L2.960156250000001 28.22589946282641L4.62890625 29.189352724536597L5.254687500000001 28.828057751395274" stroke-width="0.03" stroke="#000000" fill="none"/>
<path d="M4.62890625 29.189352724536597L4.62890625 27.382877858829996L4.941796875 27.202230372259333" stroke-width="0.03" stroke="#000000" fill="none"/>
<path d="M4.62890625 27.382877858829996L4.211718750000001 27.142014543402446L4.211718750000001 26.660287912547354L2.647265625000001 25.75705047969405" stroke-width="0.03" stroke="#000000" fill="none"/>
<path d="M4.211718750000001 26.660287912547354L4.524609375000001 26.479640425976694" stroke-width="0.03" stroke="#000000" fill="none"/>
<path d="M4.941796875 26.72050374140424L4.211718750000001 27.142014543402446" stroke-width="0.03" stroke="#000000" fill="none"/>
<path d="M4.107421875 20.096762567146698L3.898828125 19.976330909432924" stroke-width="0.03" stroke="#000000" fill="none"/>
<path d="M2.54296875 17.26661861087302L2.54296875 17.025755295445475L2.7515624999999995 16.905323637731698" stroke-width="0.03" stroke="#000000" fill="none"/>
<path d="M2.647265625000001 16.845107808874815L2.8558593750000005 16.965539466588588" stroke-width="0.03" stroke="#000000" fill="none"/>
<path d="M2.54296875 17.025755295445475L2.021484375 16.72467615116104" stroke-width="0.03" stroke="#000000" fill="none"/>
<path d="M2.8558593750000005 15.761222889450853L3.3773437500000005 16.062302033735286" stroke-width="0.03" stroke="#000000" fill="none"/>
<path d="M3.5859375 16.54402866459038L3.3773437500000005 16.66446032230415" stroke-width="0.03" stroke="#000000" fill="none"/>
<path d="M3.481640624999999 16.72467615116104L3.6902343750000006 16.60424449344727" stroke-width="0.03" stroke="#000000" fill="none"/>
<path d="M4.62890625 16.423597006876605L9.948046875 19.49460427857783" stroke-width="0.03" stroke="#000000" fill="none"/>
<path d="M13.80703125 16.303165349162832L14.85 15.701007060593964" stroke-width="0.03" stroke="#000000" fill="none"/>
<path d="M14.85 15.339712087452645L18.6046875 17.50748192630057L18.6046875 17.86877689944189" stroke-width="0.03" stroke="#000000" fill="none"/>
<path d="M18.6046875 17.50748192630057L23.923828125000004 14.436474654599342" stroke-width="0.03" stroke="#000000" fill="none"/>
<path d="M24.8625 13.77410053717359L24.8625 13.533237221746042" stroke-width="0.03" stroke="#000000" fill="none"/>
<path d="M25.279687499999998 13.412805564032269L25.383984374999997 13.352589735175382L25.383984374999997 13.232158077461609" stroke-width="0.03" stroke="#000000" fill="none"/>
<path d="M23.193749999999998 12.208488986894533L18.396093750000002 9.438560859477743L18.1875 9.558992517191516" stroke-width="0.03" stroke="#000000" fill="none"/>
<path d="M18.81328125 9.438560859477743L18.81328125 8.956834228622649L18.917578125000002 8.896618399765762L19.960546875000002 9.49877668833463L19.960546875000002 9.980503319189724L19.85625 10.04071914804661L18.81328125 9.438560859477743" stroke-width="0.03" stroke="#000000" fill="none"/>
<path d="M18.81328125 8.956834228622649L19.85625 9.558992517191516L19.960546875000002 9.49877668833463" stroke-width="0.03" stroke="#000000" fill="none"/>
<path d="M19.85625 9.558992517191516L19.85625 10.04071914804661" stroke-width="0.03" stroke="#000000" fill="none"/>
<path d="M16.831640625 8.776186742051989L16.831640625 8.053596795769348L15.162890625 7.090143534059159L14.85 7.27079102062982L14.537109375 7.090143534059159L12.868359374999999 8.053596795769348L12.868359374999999 8.776186742051989" stroke-width="0.03" stroke="#000000" fill="none"/>
<path d="M12.868359374999999 8.053596795769348L14.4328125 8.956834228622649L14.85 8.715970913195102L15.267187499999999 8.956834228622649L16.831640625 8.053596795769348" stroke-width="0.03" stroke="#000000" fill="none"/>
<path d="M15.267187499999999 8.956834228622649L15.267187499999999 9.31812920176397" stroke-width="0.03" stroke="#000000" fill="none"/>
<path d="M14.85 9.558992517191516L14.85 8.715970913195102" stroke-width="0.03" stroke="#000000" fill="none"/>
<path d="M14.4328125 8.956834228622649L14.4328125 9.31812920176397" stroke-width="0.03" stroke="#000000" fill="none"/>
<path d="M14.85 11.124604067470571L13.598437500000001 11.847194013753214L14.85 12.569783960035853L16.1015625 11.847194013753214L14.85 11.124604067470571L14.85 11.967625671466987L15.162890625 11.786978184896327L15.684375 12.08805732918076" stroke-width="0.03" stroke="#000000" fill="none"/>
<path d="M14.954296875 12.26870481575142L14.85 12.328920644608306L14.745703124999999 12.26870481575142L14.85 12.208488986894533L14.954296875 12.26870481575142" stroke-width="0.03" stroke="#000000" fill="none"/>
<path d="M14.85 12.208488986894533L14.85 12.328920644608306" stroke-width="0.03" stroke="#000000" fill="none"/>
<path d="M14.85 11.967625671466987L14.537109375 11.786978184896327L14.015625 12.08805732918076" stroke-width="0.03" stroke="#000000" fill="none"/>
<path d="M19.439062500000002 17.748345241728117L19.751953125 17.567697755157454" stroke-width="0.03" stroke="#000000" fill="none"/>
<path d="M19.439062500000002 17.748345241728117L19.85625 17.989208557155663L19.85625 18.109640214869437L19.960546875000002 18.16985604372632L19.960546875000002 18.651582674581416L20.2734375 18.470935188010756" stroke-width="0.03" stroke="#000000" fill="none"/>
<path d="M19.751953125 19.49460427857783L25.07109375 16.423597006876605" stroke-width="0.03" stroke="#000000" fill="none"/>
<path d="M14.64140625 34.247482348515085L14.015625 34.608777321656405" stroke-width="0.03" stroke="#000000" fill="none"/>
<path d="M14.224218749999999 34.48834566394263L14.224218749999999 34.970072294797724" stroke-width="0.03" stroke="#000000" fill="none"/>
<path d="M14.64140625 34.48834566394263L14.64140625 34.247482348515085" stroke-width="0.03" stroke="#000000" fill="none"/>
<path d="M9.237499999999999 2.533333333333333L1.5 2.533333333333333" stroke-width="0.03" stroke="#000000" fill="none"/>
<path d="M2.1166666666666667 2.2291666666666665L2.1166666666666667 1.8208333333333333" stroke-width="0.03" stroke="#000000" fill="none"/>
<path d="M2.0875 1.6166666666666667L2.1166666666666667 1.6458333333333333L2.145833333333333 1.6166666666666667L2.1166666666666667 1.5875L2.0875 1.6166666666666667" stroke-width="0.03" stroke="#000000" fill="none"/>
<path d="M2.3208333333333333 2.1416666666666666L2.35 2.2L2.4375 2.2291666666666665L2.525 2.2291666666666665L2.6125 2.2L2.6416666666666666 2.1416666666666666L2.6416666666666666 2.1125L2.6125 2.0541666666666667L2.5541666666666667 2.025L2.408333333333333 1.9958333333333333L2.35 1.9666666666666666L2.3208333333333333 1.9083333333333332L2.35 1.85L2.4375 1.8208333333333333L2.525 1.8208333333333333L2.6125 1.85L2.6416666666666666 1.9083333333333332" stroke-width="0.03" stroke="#000000" fill="none"/>
<path d="M2.9625 1.8208333333333333L2.904166666666667 1.85L2.845833333333333 1.9083333333333332L2.8166666666666664 1.9958333333333333L2.8166666666666664 2.0541666666666667L2.845833333333333 2.1416666666666666L2.904166666666667 2.2L2.9625 2.2291666666666665L3.05 2.2291666666666665L3.1083333333333334 2.2L3.1666666666666665 2.1416666666666666L3.1958333333333333 2.0541666666666667L3.1958333333333333 1.9958333333333333L3.1666666666666665 1.9083333333333332L3.1083333333333334 1.85L3.05 1.8208333333333333L2.9625 1.8208333333333333" stroke-width="0.03" stroke="#000000" fill="none"/>
<path d="M3.283333333333333 2.2874999999999996L3.75 2.2874999999999996" stroke-width="0.03" stroke="#000000" fill="none"/>
<path d="M3.8375 2.1416666666666666L3.8666666666666663 2.2L3.9541666666666666 2.2291666666666665L4.041666666666666 2.2291666666666665L4.129166666666666 2.2L4.158333333333333 2.1416666666666666L4.158333333333333 2.1125L4.129166666666666 2.0541666666666667L4.070833333333333 2.025L3.925 1.9958333333333333L3.8666666666666663 1.9666666666666666L3.8375 1.9083333333333332L3.8666666666666663 1.85L3.9541666666666666 1.8208333333333333L4.041666666666666 1.8208333333333333L4.129166666666666 1.85L4.158333333333333 1.9083333333333332" stroke-width="0.03" stroke="#000000" fill="none"/>
<path d="M4.3625 1.9375L4.449999999999999 1.85L4.508333333333333 1.8208333333333333L4.595833333333333 1.8208333333333333L4.654166666666667 1.85L4.683333333333334 1.9375L4.683333333333334 2.2291666666666665" stroke-width="0.03" stroke="#000000" fill="none"/>
<path d="M4.3625 2.2291666666666665L4.3625 1.8208333333333333" stroke-width="0.03" stroke="#000000" fill="none"/>
<path d="M5.033333333333333 1.8208333333333333L4.975 1.85L4.916666666666666 1.9083333333333332L4.887499999999999 1.9958333333333333L4.887499999999999 2.0541666666666667L4.916666666666666 2.1416666666666666L4.975 2.2L5.033333333333333 2.2291666666666665L5.120833333333334 2.2291666666666665L5.179166666666666 2.2L5.2375 2.1416666666666666L5.266666666666666 2.0541666666666667L5.266666666666666 1.9958333333333333L5.2375 1.9083333333333332L5.179166666666666 1.85L5.120833333333334 1.8208333333333333L5.033333333333333 1.8208333333333333" stroke-width="0.03" stroke="#000000" fill="none"/>
<path d="M5.441666666666666 1.8208333333333333L5.558333333333334 2.2291666666666665L5.675 1.8208333333333333L5.791666666666666 2.2291666666666665L5.908333333333333 1.8208333333333333" stroke-width="0.03" stroke="#000000" fill="none"/>
<path d="M6.054166666666666 1.8208333333333333L6.258333333333333 1.8208333333333333" stroke-width="0.03" stroke="#000000" fill="none"/>
<path d="M6.2875 1.6166666666666667L6.229166666666666 1.6166666666666667L6.1708333333333325 1.6458333333333333L6.141666666666667 1.7333333333333334L6.141666666666667 2.2291666666666665" stroke-width="0.03" stroke="#000000" fill="none"/>
<path d="M6.4624999999999995 2.2291666666666665L6.4624999999999995 1.6166666666666667" stroke-width="0.03" stroke="#000000" fill="none"/>
<path d="M7.016666666666666 1.8208333333333333L7.016666666666666 2.2291666666666665" stroke-width="0.03" stroke="#000000" fill="none"/>
<path d="M7.016666666666666 2.1416666666666666L6.958333333333333 2.2L6.8999999999999995 2.2291666666666665L6.812499999999999 2.2291666666666665L6.754166666666666 2.2L6.695833333333333 2.1416666666666666L6.666666666666666 2.0541666666666667L6.666666666666666 1.9958333333333333L6.695833333333333 1.9083333333333332L6.754166666666666 1.85L6.812499999999999 1.8208333333333333L6.8999999999999995 1.8208333333333333L6.958333333333333 1.85L7.016666666666666 1.9083333333333332" stroke-width="0.03" stroke="#000000" fill="none"/>
<path d="M7.249999999999999 2.1125L7.541666666666666 1.8208333333333333" stroke-width="0.03" stroke="#000000" fill="none"/>
<path d="M7.366666666666666 1.9958333333333333L7.570833333333333 2.2291666666666665" stroke-width="0.03" stroke="#000000" fill="none"/>
<path d="M7.716666666666666 1.9958333333333333L8.066666666666666 1.9958333333333333L8.066666666666666 1.9375L8.0375 1.8791666666666667L8.008333333333333 1.85L7.949999999999999 1.8208333333333333L7.8625 1.8208333333333333L7.804166666666666 1.85L7.745833333333333 1.9083333333333332L7.716666666666666 1.9958333333333333L7.716666666666666 2.0541666666666667L7.745833333333333 2.1416666666666666L7.804166666666666 2.2L7.8625 2.2291666666666665L7.949999999999999 2.2291666666666665L8.008333333333333 2.2L8.066666666666666 2.1416666666666666" stroke-width="0.03" stroke="#000000" fill="none"/>
<path d="M8.475 2.2291666666666665L8.475 1.6166666666666667L8.3875 1.7041666666666666L8.329166666666666 1.7333333333333334" stroke-width="0.03" stroke="#000000" fill="none"/>
<path d="M7.249999999999999 1.6166666666666667L7.249999999999999 2.2291666666666665" stroke-width="0.03" stroke="#000000" fill="none"/>
<path d="M5.316782406291102 3.077541264041642L5.352834388968179 3.0595152727031034L5.406912362983795 3.0054372986874878L5.406912362983795 3.383983116796798" stroke-width="0.03" stroke="#000000" fill="none"/>
<path d="M5.136522492905716 3.0595152727031034L5.1184965015671775 3.023463290026026L5.064418527551561 3.0054372986874878L5.028366544874484 3.0054372986874878L4.974288570858869 3.023463290026026L4.938236588181791 3.077541264041642L4.920210596843253 3.167671220734335L4.920210596843253 3.257801177427028L4.938236588181791 3.3299051427811825L4.974288570858869 3.3659571254582596L5.028366544874484 3.383983116796798L5.046392536213023 3.383983116796798L5.100470510228639 3.3659571254582596L5.136522492905716 3.3299051427811825L5.154548484244255 3.2758271687655665L5.154548484244255 3.257801177427028L5.136522492905716 3.2037232034114123L5.100470510228639 3.167671220734335L5.046392536213023 3.149645229395796L5.028366544874484 3.149645229395796L4.974288570858869 3.167671220734335L4.938236588181791 3.2037232034114123L4.920210596843253 3.257801177427028" stroke-width="0.03" stroke="#000000" fill="none"/>
<path d="M4.6858727094422505 3.383983116796798L4.6858727094422505 3.0054372986874878L4.631794735426635 3.0595152727031034L4.595742752749558 3.077541264041642" stroke-width="0.03" stroke="#000000" fill="none"/>
<path d="M4.433508830702711 3.0955672553801805L4.415482839364172 3.0595152727031034L4.379430856687095 3.023463290026026L4.343378874010018 3.0054372986874878L4.2712749086558635 3.0054372986874878L4.235222925978786 3.023463290026026L4.199170943301709 3.0595152727031034L4.18114495196317 3.0955672553801805L4.163118960624631 3.149645229395796L4.163118960624631 3.2397751860884894L4.18114495196317 3.293853160104105L4.199170943301709 3.3299051427811825L4.235222925978786 3.3659571254582596L4.2712749086558635 3.383983116796798L4.343378874010018 3.383983116796798L4.379430856687095 3.3659571254582596L4.415482839364172 3.3299051427811825L4.433508830702711 3.293853160104105" stroke-width="0.03" stroke="#000000" fill="none"/>
<path d="M4.0549630125934 3.0054372986874878L3.8747030992080145 3.383983116796798" stroke-width="0.03" stroke="#000000" fill="none"/>
<path d="M3.6764171944840895 3.1316192380572576L3.658391203145551 3.1856972120728733L3.622339220468474 3.221749194749951L3.568261246452858 3.2397751860884894L3.5502352551143197 3.2397751860884894L3.4961572810987036 3.221749194749951L3.4601052984216265 3.1856972120728733L3.442079307083088 3.1316192380572576L3.442079307083088 3.113593246718719L3.4601052984216265 3.0595152727031034L3.4961572810987036 3.023463290026026L3.5502352551143197 3.0054372986874878L3.568261246452858 3.0054372986874878L3.622339220468474 3.023463290026026L3.658391203145551 3.0595152727031034L3.6764171944840895 3.1316192380572576L3.6764171944840895 3.221749194749951L3.658391203145551 3.3118791514426436L3.622339220468474 3.3659571254582596L3.568261246452858 3.383983116796798L3.5322092637757807 3.383983116796798L3.478131289760165 3.3659571254582596L3.4601052984216265 3.3299051427811825" stroke-width="0.03" stroke="#000000" fill="none"/>
<path d="M3.3519493503903948 3.257801177427028L3.0815594803123156 3.257801177427028L3.261819393697702 3.0054372986874878L3.261819393697702 3.383983116796798" stroke-width="0.03" stroke="#000000" fill="none"/>
<path d="M2.8652475842498526 3.383983116796798L2.8652475842498526 3.0054372986874878L2.811169610234237 3.0595152727031034L2.77511762755716 3.077541264041642" stroke-width="0.03" stroke="#000000" fill="none"/>
<path d="M2.6128837055103125 3.1316192380572576L2.414597800786388 3.383983116796798" stroke-width="0.03" stroke="#000000" fill="none"/>
<path d="M2.6128837055103125 3.383983116796798L2.414597800786388 3.1316192380572576" stroke-width="0.03" stroke="#000000" fill="none"/>
<path d="M2.1622339220468474 3.0054372986874878L2.1081559480312317 3.023463290026026L2.072103965354154 3.077541264041642L2.0540779740156156 3.167671220734335L2.0540779740156156 3.221749194749951L2.072103965354154 3.3118791514426436L2.1081559480312317 3.3659571254582596L2.1622339220468474 3.383983116796798L2.1982859047239245 3.383983116796798L2.2523638787395406 3.3659571254582596L2.2884158614166177 3.3118791514426436L2.3064418527551562 3.221749194749951L2.3064418527551562 3.167671220734335L2.2884158614166177 3.077541264041642L2.2523638787395406 3.023463290026026L2.1982859047239245 3.0054372986874878L2.1622339220468474 3.0054372986874878" stroke-width="0.03" stroke="#000000" fill="none"/>
<path d="M3.80259913385386 3.0054372986874878L4.0549630125934 3.0054372986874878" stroke-width="0.03" stroke="#000000" fill="none"/>
</svg>
