<?xml version="1.0" standalone="no"?>
<svg width="29.7cm" height="42cm" version="1.1" xmlns="http://www.w3.org/2000/svg" viewBox="0.0 0.0 29.700001 42.000001">
<path d="M11.095312499999999 7.9933809669124605L13.181249999999999 6.789064389774726L14.85 7.752517651484913L16.51875 6.789064389774726L18.6046875 7.9933809669124605L18.6046875 9.077265886336422L21.9421875 11.004172409756798L21.9421875 11.847194013753214" stroke-width="0.03" stroke="#000000" fill="none"/>
<path d="M22.255078124999997 11.666546527182554L17.56171875 14.376258825742458L17.56171875 16.303165349162832L17.666015625 16.36338117801972" stroke-width="0.03" stroke="#000000" fill="none"/>
<path d="M18.291796875 16.0020862048784L15.47578125 17.62791358401434" stroke-width="0.03" stroke="#000000" fill="none"/>
<path d="M15.371484375 17.567697755157454L14.85 17.86877689944189L14.328515625 17.567697755157454L13.285546875 18.16985604372632" stroke-width="0.03" stroke="#000000" fill="none"/>
<path d="M13.80703125 18.470935188010756L13.285546875 18.77201433229519" stroke-width="0.03" stroke="#000000" fill="none"/>
<path d="M13.702734374999999 19.01287764772274L13.80703125 18.95266181886585L13.80703125 18.470935188010756L9.322265625 15.881654547164626L8.487890625 16.36338117801972L8.487890625 17.326834439729907L14.537109375 20.819352513429337L14.224218749999999 21L14.224218749999999 21.36129497314132L14.537109375 21.54194245971198L14.85 21.36129497314132L15.162890625 21.54194245971198L15.47578125 21.36129497314132L15.47578125 21L15.162890625 20.819352513429337L15.162890625 20.458057540288017L14.85 20.277410053717357L14.537109375 20.458057540288017L14.015625 20.156978396003588L14.015625 20.518273369144907L13.702734374999999 20.698920855715564L13.702734374999999 21.060215828856883L10.991015625000001 19.49460427857783L11.616796874999999 19.13330930543651L11.616796874999999 18.410719359153866L12.138281249999999 18.109640214869437L14.85 19.67525176514849L17.56171875 18.109640214869437L18.083203125 18.410719359153866L18.083203125 19.13330930543651L18.708984375 19.49460427857783L18.708984375 20.096762567146698L15.997265625 21.662374117425752L15.997265625 24.793597217983862L15.47578125 25.0946763622683L14.85 24.73338138912698L14.224218749999999 25.0946763622683L13.702734374999999 24.793597217983862L13.702734374999999 21.662374117425752L10.991015625000001 20.096762567146698L10.991015625000001 19.49460427857783" stroke-width="0.03" stroke="#000000" fill="none"/>
<path d="M10.991015625000001 19.735467594005378L7.653515625 17.808561070585L7.653515625 18.77201433229519L12.138281249999999 21.36129497314132L12.555468750000001 21.120431657713773L12.555468750000001 21" stroke-width="0.03" stroke="#000000" fill="none"/>
<path d="M12.138281249999999 20.759136684572454L12.138281249999999 21.36129497314132" stroke-width="0.03" stroke="#000000" fill="none"/>
<path d="M11.616796874999999 21.060215828856883L11.616796874999999 22.264532405994622L12.138281249999999 22.565611550279055L12.138281249999999 23.167769838847924L13.181249999999999 23.76992812741679" stroke-width="0.03" stroke="#000000" fill="none"/>
<path d="M13.181249999999999 23.167769838847924L13.598437500000001 22.926906523420374L13.702734374999999 22.98712235227726" stroke-width="0.03" stroke="#000000" fill="none"/>
<path d="M13.702734374999999 23.468848983132357L13.181249999999999 23.167769838847924L13.181249999999999 28.346331120540185L14.015625 28.828057751395274L14.85 28.346331120540185L15.684375 28.828057751395274L16.51875 28.346331120540185L16.51875 23.167769838847924L16.1015625 22.926906523420374L15.997265625 22.98712235227726" stroke-width="0.03" stroke="#000000" fill="none"/>
<path d="M15.997265625 23.468848983132357L16.51875 23.167769838847924" stroke-width="0.03" stroke="#000000" fill="none"/>
<path d="M16.51875 23.76992812741679L17.56171875 23.167769838847924L17.56171875 22.565611550279055L18.083203125 22.264532405994622L18.083203125 21.060215828856883" stroke-width="0.03" stroke="#000000" fill="none"/>
<path d="M17.56171875 20.759136684572454L17.56171875 21.36129497314132L17.14453125 21.120431657713773L17.14453125 21" stroke-width="0.03" stroke="#000000" fill="none"/>
<path d="M17.56171875 21.36129497314132L22.046484375000002 18.77201433229519L22.046484375000002 17.808561070585L21.212109374999997 17.326834439729907L15.162890625 20.819352513429337" stroke-width="0.03" stroke="#000000" fill="none"/>
<path d="M15.162890625 20.458057540288017L15.684375 20.156978396003588L15.684375 20.518273369144907L15.997265625 20.698920855715564L15.997265625 21.060215828856883L18.708984375 19.49460427857783" stroke-width="0.03" stroke="#000000" fill="none"/>
<path d="M18.708984375 19.735467594005378L22.046484375000002 17.808561070585" stroke-width="0.03" stroke="#000000" fill="none"/>
<path d="M21.525000000000002 17.50748192630057L24.966796875000004 15.520359574023306L26.635546875 16.483812835733495L26.635546875 19.253740963150285L21.9421875 21.96345326171019L20.2734375 21L20.2734375 20.879568342286227" stroke-width="0.03" stroke="#000000" fill="none"/>
<path d="M20.89921875 20.518273369144907L18.083203125 22.14410074828085" stroke-width="0.03" stroke="#000000" fill="none"/>
<path d="M18.291796875 22.023669090567072L18.291796875 22.98712235227726L17.457421875 23.468848983132357" stroke-width="0.03" stroke="#000000" fill="none"/>
<path d="M17.457421875 23.227985667704807L17.457421875 26.479640425976694L16.51875 27.021582885688677" stroke-width="0.03" stroke="#000000" fill="none"/>
<path d="M16.51875 27.864604489685092L16.831640625 28.04525197625575L19.23046875 26.660287912547354L17.56171875 25.696834650837165L17.457421875 25.75705047969405" stroke-width="0.03" stroke="#000000" fill="none"/>
<path d="M18.6046875 25.817266308550938L19.021874999999998 25.576402993123395L19.021874999999998 23.40863315427547L20.89921875 22.32474823485151L20.89921875 21.843021603996412L21.31640625 21.602158288568866" stroke-width="0.03" stroke="#000000" fill="none"/>
<path d="M20.89921875 21.843021603996412L21.837890625 22.384964063708395L21.837890625 23.348417325418584L21.420703125 23.107554009991038L20.794921875 23.468848983132357" stroke-width="0.03" stroke="#000000" fill="none"/>
<path d="M20.89921875 23.529064811989244L20.482031250000002 23.76992812741679L20.482031250000002 24.251654758271883L20.064843749999998 24.492518073699433L20.064843749999998 24.974244704554525L20.482031250000002 24.73338138912698L20.482031250000002 26.29899293940603L20.377734375 26.238777110549147L20.377734375 25.877482137407824L19.960546875000002 25.636618821980278L19.960546875000002 24.914028875697635" stroke-width="0.03" stroke="#000000" fill="none"/>
<path d="M20.064843749999998 24.974244704554525L19.543359374999998 24.673165560270093L19.543359374999998 24.191438929414996L19.960546875000002 23.95057561398745L19.960546875000002 23.468848983132357L20.377734375 23.227985667704807L20.89921875 23.529064811989244L20.89921875 24.010791442844337L22.255078124999997 23.227985667704807L22.255078124999997 23.709712298559904L20.89921875 24.492518073699433L20.89921875 26.058129623978488L20.482031250000002 26.29899293940603" stroke-width="0.03" stroke="#000000" fill="none"/>
<path d="M20.377734375 25.877482137407824L19.543359374999998 26.359208768262917L18.6046875 25.817266308550938L18.6046875 26.29899293940603" stroke-width="0.03" stroke="#000000" fill="none"/>
<path d="M19.23046875 26.660287912547354L19.23046875 32.07971250966716L16.831640625 33.464676573375556L15.162890625 32.50122331166537L15.162890625 28.526978607110845" stroke-width="0.03" stroke="#000000" fill="none"/>
<path d="M14.85 28.346331120540185L14.85 21.36129497314132" stroke-width="0.03" stroke="#000000" fill="none"/>
<path d="M14.85 21L14.224218749999999 21.36129497314132" stroke-width="0.03" stroke="#000000" fill="none"/>
<path d="M14.224218749999999 21L13.702734374999999 20.698920855715564" stroke-width="0.03" stroke="#000000" fill="none"/>
<path d="M14.015625 20.156978396003588L14.328515625 19.976330909432924L11.616796874999999 18.410719359153866" stroke-width="0.03" stroke="#000000" fill="none"/>
<path d="M11.825390624999999 18.290287701440096L8.487890625 16.36338117801972" stroke-width="0.03" stroke="#000000" fill="none"/>
<path d="M8.487890625 16.965539466588588L5.046093749999999 14.978417114311325L5.046093749999999 13.051510590890949L7.4449218749999995 11.666546527182554L12.138281249999999 14.376258825742458L12.138281249999999 16.303165349162832L12.033984375000001 16.36338117801972" stroke-width="0.03" stroke="#000000" fill="none"/>
<path d="M11.408203125 16.0020862048784L10.46953125 16.54402866459038" stroke-width="0.03" stroke="#000000" fill="none"/>
<path d="M9.739453124999999 16.122517862592172L9.739453124999999 15.761222889450853L12.138281249999999 14.376258825742458" stroke-width="0.03" stroke="#000000" fill="none"/>
<path d="M12.555468750000001 14.255827168028683L13.389843749999999 13.77410053717359L13.076953125000001 13.593453050602928L13.076953125000001 13.473021392889155L13.494140625 13.232158077461609L14.85 14.014963852601136L16.205859375 13.232158077461609L16.623046875 13.473021392889155L16.623046875 13.593453050602928L16.31015625 13.77410053717359L16.31015625 14.255827168028683L15.684375 14.617122141170004" stroke-width="0.03" stroke="#000000" fill="none"/>
<path d="M15.684375 14.49669048345623L15.267187499999999 14.737553798883777L14.85 14.49669048345623L14.4328125 14.737553798883777L14.015625 14.49669048345623L14.015625 15.098848772025098L14.4328125 15.339712087452645L14.85 15.098848772025098L15.267187499999999 15.339712087452645L15.684375 15.098848772025098L15.684375 14.49669048345623L15.267187499999999 14.255827168028683L16.623046875 13.473021392889155" stroke-width="0.03" stroke="#000000" fill="none"/>
<path d="M16.31015625 13.77410053717359L17.14453125 14.255827168028683L18.083203125 13.713884708316701L18.083203125 13.834316366030475L18.291796875 13.95474802374425" stroke-width="0.03" stroke="#000000" fill="none"/>
<path d="M18.396093750000002 13.894532194887363L18.396093750000002 13.051510590890949L21.9421875 11.004172409756798" stroke-width="0.03" stroke="#000000" fill="none"/>
<path d="M22.255078124999997 11.666546527182554L24.653906250000002 13.051510590890949L24.653906250000002 14.978417114311325L21.212109374999997 16.965539466588588" stroke-width="0.03" stroke="#000000" fill="none"/>
<path d="M21.212109374999997 17.326834439729907L21.212109374999997 16.36338117801972L20.377734375 15.881654547164626L15.89296875 18.470935188010756L15.89296875 18.95266181886585L15.997265625 19.01287764772274" stroke-width="0.03" stroke="#000000" fill="none"/>
<path d="M16.414453125 18.77201433229519L15.89296875 18.470935188010756" stroke-width="0.03" stroke="#000000" fill="none"/>
<path d="M16.414453125 18.16985604372632L15.371484375 17.567697755157454" stroke-width="0.03" stroke="#000000" fill="none"/>
<path d="M15.684375 17.50748192630057L14.85 17.025755295445475L14.015625 17.50748192630057" stroke-width="0.03" stroke="#000000" fill="none"/>
<path d="M14.224218749999999 17.62791358401434L11.408203125 16.0020862048784" stroke-width="0.03" stroke="#000000" fill="none"/>
<path d="M12.138281249999999 15.098848772025098L12.555468750000001 15.339712087452645L12.97265625 15.098848772025098L14.85 16.18273369144906L16.72734375 15.098848772025098L17.14453125 15.339712087452645L17.56171875 15.098848772025098" stroke-width="0.03" stroke="#000000" fill="none"/>
<path d="M17.14453125 15.339712087452645L17.14453125 14.255827168028683" stroke-width="0.03" stroke="#000000" fill="none"/>
<path d="M17.56171875 14.376258825742458L19.960546875000002 15.761222889450853L24.653906250000002 13.051510590890949" stroke-width="0.03" stroke="#000000" fill="none"/>
<path d="M26.635546875 16.483812835733495L21.9421875 19.193525134293395L21.629296875 19.01287764772274" stroke-width="0.03" stroke="#000000" fill="none"/>
<path d="M21.9421875 19.193525134293395L21.9421875 21.96345326171019" stroke-width="0.03" stroke="#000000" fill="none"/>
<path d="M21.837890625 22.384964063708395L22.7765625 21.843021603996412L22.672265625 21.782805775139526L22.672265625 21.54194245971198" stroke-width="0.03" stroke="#000000" fill="none"/>
<path d="M22.7765625 21.481726630855093L23.506640625 21.903237432853302L23.506640625 25.75705047969405L27.052734375 23.709712298559904L27.99140625 24.251654758271883L27.99140625 26.660287912547354L26.322656249999998 27.623741174257542L26.322656249999998 29.550647697677917L24.23671875 30.754964274815652L23.298046874999997 30.21302181510367L19.960546875000002 32.139928338524044L19.23046875 31.71841753652584" stroke-width="0.03" stroke="#000000" fill="none"/>
<path d="M19.960546875000002 32.139928338524044L19.960546875000002 28.04525197625575L23.298046874999997 26.118345452835374L22.463671875 25.636618821980278L21.31640625 26.29899293940603" stroke-width="0.03" stroke="#000000" fill="none"/>
<path d="M21.31640625 26.419424597119807L19.543359374999998 27.443093687686883L19.439062500000002 27.382877858829996L19.23046875 27.50330951654377" stroke-width="0.03" stroke="#000000" fill="none"/>
<path d="M19.23046875 27.623741174257542L19.960546875000002 28.04525197625575" stroke-width="0.03" stroke="#000000" fill="none"/>
<path d="M19.439062500000002 27.985036147398862L19.23046875 28.105467805112635" stroke-width="0.03" stroke="#000000" fill="none"/>
<path d="M19.23046875 27.864604489685092L19.439062500000002 27.985036147398862L19.439062500000002 29.91194267081924L19.23046875 30.032374328533013" stroke-width="0.03" stroke="#000000" fill="none"/>
<path d="M19.543359374999998 27.443093687686883L19.543359374999998 26.359208768262917" stroke-width="0.03" stroke="#000000" fill="none"/>
<path d="M20.89921875 25.576402993123395L21.31640625 25.335539677695845L20.89921875 25.0946763622683" stroke-width="0.03" stroke="#000000" fill="none"/>
<path d="M20.89921875 24.974244704554525L22.255078124999997 25.75705047969405" stroke-width="0.03" stroke="#000000" fill="none"/>
<path d="M22.672265625 25.27532384883896L22.672265625 23.95057561398745" stroke-width="0.03" stroke="#000000" fill="none"/>
<path d="M22.7765625 23.890359785130563L21.837890625 24.432302244842543L21.420703125 24.191438929414996" stroke-width="0.03" stroke="#000000" fill="none"/>
<path d="M21.31640625 24.251654758271883L22.672265625 25.034460533411412" stroke-width="0.03" stroke="#000000" fill="none"/>
<path d="M22.672265625 25.27532384883896L23.506640625 25.75705047969405" stroke-width="0.03" stroke="#000000" fill="none"/>
<path d="M23.715234375 25.636618821980278L24.653906250000002 26.17856128169226L24.653906250000002 26.660287912547354L24.23671875 26.901151227974903L24.23671875 30.754964274815652" stroke-width="0.03" stroke="#000000" fill="none"/>
<path d="M23.298046874999997 30.21302181510367L23.298046874999997 26.118345452835374" stroke-width="0.03" stroke="#000000" fill="none"/>
<path d="M23.298046874999997 26.359208768262917L24.23671875 26.901151227974903" stroke-width="0.03" stroke="#000000" fill="none"/>
<path d="M24.653906250000002 26.660287912547354L20.89921875 24.492518073699433" stroke-width="0.03" stroke="#000000" fill="none"/>
<path d="M20.482031250000002 24.251654758271883L19.021874999999998 23.40863315427547" stroke-width="0.03" stroke="#000000" fill="none"/>
<path d="M19.021874999999998 24.010791442844337L19.543359374999998 24.311870587128773" stroke-width="0.03" stroke="#000000" fill="none"/>
<path d="M19.543359374999998 24.191438929414996L20.064843749999998 24.492518073699433" stroke-width="0.03" stroke="#000000" fill="none"/>
<path d="M20.482031250000002 23.76992812741679L19.960546875000002 23.468848983132357" stroke-width="0.03" stroke="#000000" fill="none"/>
<path d="M20.064843749999998 23.40863315427547L19.543359374999998 23.107554009991038" stroke-width="0.03" stroke="#000000" fill="none"/>
<path d="M18.291796875 22.98712235227726L17.56171875 22.565611550279055" stroke-width="0.03" stroke="#000000" fill="none"/>
<path d="M15.47578125 21.96345326171019L15.162890625 22.14410074828085L14.85 21.96345326171019L14.537109375 22.14410074828085L14.224218749999999 21.96345326171019L14.224218749999999 25.0946763622683" stroke-width="0.03" stroke="#000000" fill="none"/>
<path d="M14.015625 24.974244704554525L14.015625 28.828057751395274" stroke-width="0.03" stroke="#000000" fill="none"/>
<path d="M14.537109375 28.526978607110845L14.537109375 32.50122331166537L12.868359374999999 33.464676573375556L10.46953125 32.07971250966716L10.46953125 26.660287912547354L12.138281249999999 25.696834650837165L12.242578125 25.75705047969405" stroke-width="0.03" stroke="#000000" fill="none"/>
<path d="M12.242578125 26.479640425976694L12.242578125 23.227985667704807" stroke-width="0.03" stroke="#000000" fill="none"/>
<path d="M12.242578125 23.468848983132357L11.408203125 22.98712235227726L11.408203125 22.023669090567072" stroke-width="0.03" stroke="#000000" fill="none"/>
<path d="M11.616796874999999 22.14410074828085L8.80078125 20.518273369144907L8.80078125 19.434388449720945" stroke-width="0.03" stroke="#000000" fill="none"/>
<path d="M8.070703124999998 19.01287764772274L7.7578125 19.193525134293395L3.064453125 16.483812835733495L3.064453125 19.253740963150285L7.7578125 21.96345326171019L9.4265625 21L9.4265625 20.879568342286227" stroke-width="0.03" stroke="#000000" fill="none"/>
<path d="M8.80078125 21.843021603996412L7.862109374999999 22.384964063708395L7.862109374999999 23.348417325418584L8.279296875 23.107554009991038L8.905078125 23.468848983132357" stroke-width="0.03" stroke="#000000" fill="none"/>
<path d="M8.80078125 23.529064811989244L9.322265625 23.227985667704807L9.739453124999999 23.468848983132357L9.739453124999999 23.95057561398745L10.156640625 24.191438929414996L10.156640625 24.673165560270093L9.63515625 24.974244704554525L9.21796875 24.73338138912698L9.21796875 26.29899293940603L9.322265625 26.238777110549147L9.322265625 25.877482137407824L9.739453124999999 25.636618821980278L9.739453124999999 24.914028875697635" stroke-width="0.03" stroke="#000000" fill="none"/>
<path d="M9.63515625 24.974244704554525L9.63515625 24.492518073699433L9.21796875 24.251654758271883L9.21796875 23.76992812741679L9.739453124999999 23.468848983132357" stroke-width="0.03" stroke="#000000" fill="none"/>
<path d="M9.63515625 23.40863315427547L10.156640625 23.107554009991038" stroke-width="0.03" stroke="#000000" fill="none"/>
<path d="M10.678125 23.40863315427547L9.21796875 24.251654758271883" stroke-width="0.03" stroke="#000000" fill="none"/>
<path d="M9.21796875 23.76992812741679L8.80078125 23.529064811989244L8.80078125 24.010791442844337L7.4449218749999995 23.227985667704807L7.4449218749999995 23.709712298559904L8.80078125 24.492518073699433L8.80078125 26.058129623978488L9.21796875 26.29899293940603" stroke-width="0.03" stroke="#000000" fill="none"/>
<path d="M9.322265625 25.877482137407824L10.156640625 26.359208768262917L11.095312499999999 25.817266308550938L11.095312499999999 26.29899293940603" stroke-width="0.03" stroke="#000000" fill="none"/>
<path d="M11.095312499999999 25.817266308550938L10.678125 25.576402993123395L10.678125 23.40863315427547L8.80078125 22.32474823485151L8.80078125 21.843021603996412L8.38359375 21.602158288568866" stroke-width="0.03" stroke="#000000" fill="none"/>
<path d="M7.7578125 21.96345326171019L7.7578125 19.193525134293395" stroke-width="0.03" stroke="#000000" fill="none"/>
<path d="M7.653515625 17.808561070585L8.487890625 17.326834439729907" stroke-width="0.03" stroke="#000000" fill="none"/>
<path d="M8.175 17.50748192630057L4.733203124999998 15.520359574023306L3.064453125 16.483812835733495" stroke-width="0.03" stroke="#000000" fill="none"/>
<path d="M3.3773437500000005 19.434388449720945L2.647265625000001 19.85589925171915L2.647265625000001 23.709712298559904L6.193359375 25.75705047969405L7.027734374999999 25.27532384883896L7.027734374999999 23.95057561398745" stroke-width="0.03" stroke="#000000" fill="none"/>
<path d="M6.9234374999999995 23.890359785130563L6.9234374999999995 21.843021603996412L7.027734374999999 21.782805775139526L7.027734374999999 21.54194245971198" stroke-width="0.03" stroke="#000000" fill="none"/>
<path d="M6.9234374999999995 21.481726630855093L6.193359375 21.903237432853302L6.193359375 25.75705047969405" stroke-width="0.03" stroke="#000000" fill="none"/>
<path d="M5.984765624999999 25.636618821980278L5.046093749999999 26.17856128169226L5.046093749999999 26.660287912547354L5.46328125 26.901151227974903L5.46328125 30.754964274815652L3.3773437500000005 29.550647697677917L3.3773437500000005 27.623741174257542L1.7085937499999995 26.660287912547354L1.7085937499999995 24.251654758271883L2.647265625000001 23.709712298559904" stroke-width="0.03" stroke="#000000" fill="none"/>
<path d="M3.064453125 23.95057561398745L3.064453125 24.071007271701223L3.898828125 24.55273390255632L4.003124999999999 24.492518073699433" stroke-width="0.03" stroke="#000000" fill="none"/>
<path d="M3.898828125 24.55273390255632L3.898828125 24.432302244842543" stroke-width="0.03" stroke="#000000" fill="none"/>
<path d="M5.046093749999999 26.17856128169226L1.7085937499999995 24.251654758271883" stroke-width="0.03" stroke="#000000" fill="none"/>
<path d="M5.046093749999999 26.660287912547354L8.80078125 24.492518073699433" stroke-width="0.03" stroke="#000000" fill="none"/>
<path d="M8.80078125 24.974244704554525L7.4449218749999995 25.75705047969405" stroke-width="0.03" stroke="#000000" fill="none"/>
<path d="M7.236328125 25.636618821980278L6.4019531249999995 26.118345452835374L6.4019531249999995 30.21302181510367L5.46328125 30.754964274815652" stroke-width="0.03" stroke="#000000" fill="none"/>
<path d="M6.4019531249999995 30.21302181510367L9.739453124999999 32.139928338524044L10.46953125 31.71841753652584" stroke-width="0.03" stroke="#000000" fill="none"/>
<path d="M9.739453124999999 32.139928338524044L9.739453124999999 28.04525197625575L6.4019531249999995 26.118345452835374" stroke-width="0.03" stroke="#000000" fill="none"/>
<path d="M6.4019531249999995 26.359208768262917L5.46328125 26.901151227974903" stroke-width="0.03" stroke="#000000" fill="none"/>
<path d="M6.4019531249999995 28.647410264824618L6.297656249999999 28.7076260936815L6.297656249999999 29.67107935539169L6.4019531249999995 29.731295184248577" stroke-width="0.03" stroke="#000000" fill="none"/>
<path d="M6.4019531249999995 28.767841922538388L6.297656249999999 28.7076260936815" stroke-width="0.03" stroke="#000000" fill="none"/>
<path d="M8.38359375 26.419424597119807L8.38359375 25.335539677695845L8.80078125 25.0946763622683" stroke-width="0.03" stroke="#000000" fill="none"/>
<path d="M8.38359375 25.335539677695845L8.80078125 25.576402993123395" stroke-width="0.03" stroke="#000000" fill="none"/>
<path d="M8.38359375 26.29899293940603L7.236328125 25.636618821980278" stroke-width="0.03" stroke="#000000" fill="none"/>
<path d="M7.027734374999999 25.034460533411412L8.38359375 24.251654758271883" stroke-width="0.03" stroke="#000000" fill="none"/>
<path d="M8.279296875 24.191438929414996L7.862109374999999 24.432302244842543L6.9234374999999995 23.890359785130563" stroke-width="0.03" stroke="#000000" fill="none"/>
<path d="M7.4449218749999995 23.227985667704807L7.5492187500000005 23.167769838847924L7.862109374999999 23.348417325418584" stroke-width="0.03" stroke="#000000" fill="none"/>
<path d="M7.862109374999999 23.95057561398745L7.862109374999999 24.432302244842543" stroke-width="0.03" stroke="#000000" fill="none"/>
<path d="M9.63515625 24.492518073699433L10.156640625 24.191438929414996" stroke-width="0.03" stroke="#000000" fill="none"/>
<path d="M10.156640625 24.311870587128773L10.678125 24.010791442844337" stroke-width="0.03" stroke="#000000" fill="none"/>
<path d="M11.408203125 22.98712235227726L12.138281249999999 22.565611550279055" stroke-width="0.03" stroke="#000000" fill="none"/>
<path d="M14.537109375 22.14410074828085L14.537109375 21.54194245971198" stroke-width="0.03" stroke="#000000" fill="none"/>
<path d="M14.85 21L14.85 20.277410053717357" stroke-width="0.03" stroke="#000000" fill="none"/>
<path d="M14.537109375 20.458057540288017L14.537109375 20.819352513429337" stroke-width="0.03" stroke="#000000" fill="none"/>
<path d="M14.85 21L15.47578125 21.36129497314132" stroke-width="0.03" stroke="#000000" fill="none"/>
<path d="M15.47578125 21L15.997265625 20.698920855715564" stroke-width="0.03" stroke="#000000" fill="none"/>
<path d="M15.684375 20.156978396003588L15.371484375 19.976330909432924L18.083203125 18.410719359153866" stroke-width="0.03" stroke="#000000" fill="none"/>
<path d="M17.874609375000002 18.290287701440096L21.212109374999997 16.36338117801972" stroke-width="0.03" stroke="#000000" fill="none"/>
<path d="M19.960546875000002 16.122517862592172L19.960546875000002 15.761222889450853" stroke-width="0.03" stroke="#000000" fill="none"/>
<path d="M19.23046875 16.54402866459038L18.291796875 16.0020862048784" stroke-width="0.03" stroke="#000000" fill="none"/>
<path d="M18.6046875 13.77410053717359L18.6046875 13.533237221746042L20.2734375 12.569783960035853L20.482031250000002 12.690215617749628" stroke-width="0.03" stroke="#000000" fill="none"/>
<path d="M18.81328125 13.653668879459815L18.6046875 13.533237221746042" stroke-width="0.03" stroke="#000000" fill="none"/>
<path d="M18.396093750000002 13.051510590890949L15.05859375 11.124604067470571L18.6046875 9.077265886336422" stroke-width="0.03" stroke="#000000" fill="none"/>
<path d="M18.1875 9.31812920176397L18.083203125 9.257913372907083L17.248828125 9.739640003762176L17.248828125 9.86007166147595" stroke-width="0.03" stroke="#000000" fill="none"/>
<path d="M17.353125 9.799855832619063L17.248828125 9.739640003762176" stroke-width="0.03" stroke="#000000" fill="none"/>
<path d="M15.267187499999999 9.920287490332836L18.6046875 7.9933809669124605" stroke-width="0.03" stroke="#000000" fill="none"/>
<path d="M15.267187499999999 9.920287490332836L15.267187499999999 11.004172409756798" stroke-width="0.03" stroke="#000000" fill="none"/>
<path d="M15.05859375 11.124604067470571L15.05859375 12.08805732918076L16.205859375 12.750431446606514" stroke-width="0.03" stroke="#000000" fill="none"/>
<path d="M16.31015625 12.690215617749628L15.371484375 13.232158077461609L15.371484375 13.713884708316701" stroke-width="0.03" stroke="#000000" fill="none"/>
<path d="M15.267187499999999 13.77410053717359L15.267187499999999 12.208488986894533" stroke-width="0.03" stroke="#000000" fill="none"/>
<path d="M14.64140625 12.08805732918076L13.494140625 12.750431446606514" stroke-width="0.03" stroke="#000000" fill="none"/>
<path d="M13.389843749999999 12.690215617749628L11.616796874999999 13.713884708316701L11.616796874999999 13.834316366030475L11.408203125 13.95474802374425" stroke-width="0.03" stroke="#000000" fill="none"/>
<path d="M11.303906249999999 13.894532194887363L11.303906249999999 13.051510590890949L7.7578125 11.004172409756798L11.095312499999999 9.077265886336422L11.095312499999999 7.9933809669124605L14.4328125 9.920287490332836L14.85 9.67942417490529L15.267187499999999 9.920287490332836" stroke-width="0.03" stroke="#000000" fill="none"/>
<path d="M14.85 9.67942417490529L14.85 14.014963852601136" stroke-width="0.03" stroke="#000000" fill="none"/>
<path d="M14.4328125 14.255827168028683L14.015625 14.49669048345623" stroke-width="0.03" stroke="#000000" fill="none"/>
<path d="M14.015625 14.617122141170004L13.389843749999999 14.255827168028683L13.389843749999999 13.77410053717359" stroke-width="0.03" stroke="#000000" fill="none"/>
<path d="M13.076953125000001 13.473021392889155L14.4328125 14.255827168028683" stroke-width="0.03" stroke="#000000" fill="none"/>
<path d="M14.4328125 13.77410053717359L14.4328125 12.208488986894533" stroke-width="0.03" stroke="#000000" fill="none"/>
<path d="M14.64140625 12.08805732918076L14.64140625 11.124604067470571L11.095312499999999 9.077265886336422" stroke-width="0.03" stroke="#000000" fill="none"/>
<path d="M11.512500000000001 9.31812920176397L11.616796874999999 9.257913372907083L12.451171875 9.739640003762176L12.451171875 9.86007166147595" stroke-width="0.03" stroke="#000000" fill="none"/>
<path d="M12.451171875 9.739640003762176L12.346874999999999 9.799855832619063" stroke-width="0.03" stroke="#000000" fill="none"/>
<path d="M14.4328125 9.920287490332836L14.4328125 11.004172409756798" stroke-width="0.03" stroke="#000000" fill="none"/>
<path d="M14.64140625 11.124604067470571L11.303906249999999 13.051510590890949" stroke-width="0.03" stroke="#000000" fill="none"/>
<path d="M11.095312499999999 13.533237221746042L10.88671875 13.653668879459815" stroke-width="0.03" stroke="#000000" fill="none"/>
<path d="M11.095312499999999 13.533237221746042L11.095312499999999 13.77410053717359" stroke-width="0.03" stroke="#000000" fill="none"/>
<path d="M11.095312499999999 13.533237221746042L9.4265625 12.569783960035853L9.21796875 12.690215617749628" stroke-width="0.03" stroke="#000000" fill="none"/>
<path d="M7.7578125 11.847194013753214L7.7578125 11.004172409756798" stroke-width="0.03" stroke="#000000" fill="none"/>
<path d="M5.046093749999999 13.051510590890949L9.739453124999999 15.761222889450853" stroke-width="0.03" stroke="#000000" fill="none"/>
<path d="M11.616796874999999 13.713884708316701L12.555468750000001 14.255827168028683L12.555468750000001 15.339712087452645" stroke-width="0.03" stroke="#000000" fill="none"/>
<path d="M14.328515625 15.279496258595758L14.328515625 15.881654547164626" stroke-width="0.03" stroke="#000000" fill="none"/>
<path d="M14.4328125 15.339712087452645L14.4328125 14.737553798883777" stroke-width="0.03" stroke="#000000" fill="none"/>
<path d="M14.85 14.49669048345623L14.85 16.18273369144906" stroke-width="0.03" stroke="#000000" fill="none"/>
<path d="M15.371484375 15.881654547164626L15.371484375 15.279496258595758" stroke-width="0.03" stroke="#000000" fill="none"/>
<path d="M15.267187499999999 15.339712087452645L15.267187499999999 14.737553798883777" stroke-width="0.03" stroke="#000000" fill="none"/>
<path d="M15.788671874999999 13.473021392889155L15.371484375 13.232158077461609" stroke-width="0.03" stroke="#000000" fill="none"/>
<path d="M14.328515625 13.232158077461609L13.911328125 13.473021392889155" stroke-width="0.03" stroke="#000000" fill="none"/>
<path d="M14.328515625 13.232158077461609L14.328515625 13.713884708316701" stroke-width="0.03" stroke="#000000" fill="none"/>
<path d="M14.328515625 13.232158077461609L13.389843749999999 12.690215617749628" stroke-width="0.03" stroke="#000000" fill="none"/>
<path d="M16.31015625 12.690215617749628L18.083203125 13.713884708316701" stroke-width="0.03" stroke="#000000" fill="none"/>
<path d="M14.85 17.025755295445475L14.85 17.86877689944189" stroke-width="0.03" stroke="#000000" fill="none"/>
<path d="M15.162890625 21.54194245971198L15.162890625 22.14410074828085" stroke-width="0.03" stroke="#000000" fill="none"/>
<path d="M15.47578125 21.96345326171019L15.47578125 25.0946763622683" stroke-width="0.03" stroke="#000000" fill="none"/>
<path d="M15.684375 24.974244704554525L15.684375 28.828057751395274" stroke-width="0.03" stroke="#000000" fill="none"/>
<path d="M16.831640625 28.04525197625575L16.831640625 33.464676573375556" stroke-width="0.03" stroke="#000000" fill="none"/>
<path d="M12.868359374999999 33.464676573375556L12.868359374999999 28.04525197625575L10.46953125 26.660287912547354" stroke-width="0.03" stroke="#000000" fill="none"/>
<path d="M10.156640625 26.359208768262917L10.156640625 27.443093687686883L8.38359375 26.419424597119807" stroke-width="0.03" stroke="#000000" fill="none"/>
<path d="M10.156640625 27.443093687686883L10.260937499999999 27.382877858829996L10.46953125 27.50330951654377" stroke-width="0.03" stroke="#000000" fill="none"/>
<path d="M10.46953125 27.623741174257542L9.739453124999999 28.04525197625575" stroke-width="0.03" stroke="#000000" fill="none"/>
<path d="M10.260937499999999 27.985036147398862L10.46953125 27.864604489685092" stroke-width="0.03" stroke="#000000" fill="none"/>
<path d="M10.46953125 28.105467805112635L10.260937499999999 27.985036147398862L10.260937499999999 29.91194267081924L10.46953125 30.032374328533013" stroke-width="0.03" stroke="#000000" fill="none"/>
<path d="M12.868359374999999 28.04525197625575L13.181249999999999 27.864604489685092" stroke-width="0.03" stroke="#000000" fill="none"/>
<path d="M13.181249999999999 27.021582885688677L12.242578125 26.479640425976694" stroke-width="0.03" stroke="#000000" fill="none"/>
<path d="M7.862109374999999 22.384964063708395L6.9234374999999995 21.843021603996412" stroke-width="0.03" stroke="#000000" fill="none"/>
<path d="M6.714843749999999 21.36129497314132L6.5062500000000005 21.481726630855093L4.8374999999999995 20.518273369144907L4.8374999999999995 20.277410053717357" stroke-width="0.03" stroke="#000000" fill="none"/>
<path d="M6.5062500000000005 21.240863315427546L6.5062500000000005 21.481726630855093" stroke-width="0.03" stroke="#000000" fill="none"/>
<path d="M6.193359375 21.903237432853302L2.647265625000001 19.85589925171915" stroke-width="0.03" stroke="#000000" fill="none"/>
<path d="M2.6128837055103125 3.383983116796798L2.414597800786388 3.1316192380572576" stroke-width="0.03" stroke="#000000" fill="none"/>
<path d="M2.6128837055103125 3.1316192380572576L2.414597800786388 3.383983116796798" stroke-width="0.03" stroke="#000000" fill="none"/>
<path d="M2.7390656448800828 3.0955672553801805L2.7390656448800828 3.077541264041642L2.757091636218621 3.041489281364565L2.77511762755716 3.023463290026026L2.811169610234237 3.0054372986874878L2.883273575588391 3.0054372986874878L2.9193255582654682 3.023463290026026L2.9373515496040072 3.041489281364565L2.955377540942546 3.077541264041642L2.955377540942546 3.113593246718719L2.9373515496040072 3.149645229395796L2.90129956692693 3.2037232034114123L2.7210396535415438 3.383983116796798L2.9734035322810843 3.383983116796798" stroke-width="0.03" stroke="#000000" fill="none"/>
<path d="M3.0995854716508546 3.0955672553801805L3.0995854716508546 3.077541264041642L3.117611462989393 3.041489281364565L3.1356374543279317 3.023463290026026L3.171689437005009 3.0054372986874878L3.243793402359163 3.0054372986874878L3.2798453850362406 3.023463290026026L3.297871376374779 3.041489281364565L3.3158973677133177 3.077541264041642L3.3158973677133177 3.113593246718719L3.297871376374779 3.149645229395796L3.261819393697702 3.2037232034114123L3.0815594803123156 3.383983116796798L3.333923359051856 3.383983116796798" stroke-width="0.03" stroke="#000000" fill="none"/>
<path d="M3.712469177161167 3.293853160104105L3.694443185822628 3.3299051427811825L3.658391203145551 3.3659571254582596L3.622339220468474 3.383983116796798L3.5502352551143197 3.383983116796798L3.514183272437242 3.3659571254582596L3.478131289760165 3.3299051427811825L3.4601052984216265 3.293853160104105L3.442079307083088 3.2397751860884894L3.442079307083088 3.149645229395796L3.4601052984216265 3.0955672553801805L3.478131289760165 3.0595152727031034L3.514183272437242 3.023463290026026L3.5502352551143197 3.0054372986874878L3.622339220468474 3.0054372986874878L3.658391203145551 3.023463290026026L3.694443185822628 3.0595152727031034L3.712469177161167 3.0955672553801805" stroke-width="0.03" stroke="#000000" fill="none"/>
<path d="M3.8566771078694755 3.0054372986874878L4.0549630125934 3.0054372986874878L3.9468070645621687 3.149645229395796L4.000885038577785 3.149645229395796L4.036937021254861 3.167671220734335L4.0549630125934 3.1856972120728733L4.072989003931939 3.2397751860884894L4.072989003931939 3.2758271687655665L4.0549630125934 3.3299051427811825L4.018911029916323 3.3659571254582596L3.9648330559007072 3.383983116796798L3.9107550818850916 3.383983116796798L3.8566771078694755 3.3659571254582596L3.838651116530937 3.3479311341197207L3.8206251251923984 3.3118791514426436" stroke-width="0.03" stroke="#000000" fill="none"/>
<path d="M4.199170943301709 3.257801177427028L4.217196934640247 3.2037232034114123L4.253248917317325 3.167671220734335L4.3073268913329406 3.149645229395796L4.3253528826714795 3.149645229395796L4.379430856687095 3.167671220734335L4.415482839364172 3.2037232034114123L4.433508830702711 3.257801177427028L4.433508830702711 3.2758271687655665L4.415482839364172 3.3299051427811825L4.379430856687095 3.3659571254582596L4.3253528826714795 3.383983116796798L4.3073268913329406 3.383983116796798L4.253248917317325 3.3659571254582596L4.217196934640247 3.3299051427811825L4.199170943301709 3.257801177427028L4.199170943301709 3.167671220734335L4.217196934640247 3.077541264041642L4.253248917317325 3.023463290026026L4.3073268913329406 3.0054372986874878L4.343378874010018 3.0054372986874878L4.397456848025634 3.023463290026026L4.415482839364172 3.0595152727031034" stroke-width="0.03" stroke="#000000" fill="none"/>
<path d="M4.559690770072481 3.0054372986874878L4.559690770072481 3.383983116796798L4.6858727094422505 3.383983116796798L4.739950683457867 3.3659571254582596L4.776002666134945 3.3299051427811825L4.794028657473483 3.293853160104105L4.812054648812021 3.2397751860884894L4.812054648812021 3.149645229395796L4.794028657473483 3.0955672553801805L4.776002666134945 3.0595152727031034L4.739950683457867 3.023463290026026L4.6858727094422505 3.0054372986874878L4.559690770072481 3.0054372986874878" stroke-width="0.03" stroke="#000000" fill="none"/>
<path d="M4.938236588181791 3.0054372986874878L4.938236588181791 3.383983116796798" stroke-width="0.03" stroke="#000000" fill="none"/>
<path d="M4.938236588181791 3.1856972120728733L5.0824445188901 3.1856972120728733" stroke-width="0.03" stroke="#000000" fill="none"/>
<path d="M5.262704432275486 3.1856972120728733L5.406912362983795 3.1856972120728733" stroke-width="0.03" stroke="#000000" fill="none"/>
<path d="M5.497042319676488 3.0054372986874878L5.262704432275486 3.0054372986874878L5.262704432275486 3.383983116796798" stroke-width="0.03" stroke="#000000" fill="none"/>
<path d="M5.172574475582794 3.0054372986874878L4.938236588181791 3.0054372986874878" stroke-width="0.03" stroke="#000000" fill="none"/>
<path d="M4.683333333333334 2.2291666666666665L4.683333333333334 1.9375L4.654166666666667 1.85L4.595833333333333 1.8208333333333333L4.508333333333333 1.8208333333333333L4.449999999999999 1.85L4.3625 1.9375" stroke-width="0.03" stroke="#000000" fill="none"/>
<path d="M4.3625 1.8208333333333333L4.3625 2.2291666666666665" stroke-width="0.03" stroke="#000000" fill="none"/>
<path d="M4.158333333333333 1.9083333333333332L4.129166666666666 1.85L4.041666666666666 1.8208333333333333L3.9541666666666666 1.8208333333333333L3.8666666666666663 1.85L3.8375 1.9083333333333332L3.8666666666666663 1.9666666666666666L3.925 1.9958333333333333L4.070833333333333 2.025L4.129166666666666 2.0541666666666667L4.158333333333333 2.1125L4.158333333333333 2.1416666666666666L4.129166666666666 2.2L4.041666666666666 2.2291666666666665L3.9541666666666666 2.2291666666666665L3.8666666666666663 2.2L3.8375 2.1416666666666666" stroke-width="0.03" stroke="#000000" fill="none"/>
<path d="M3.75 2.2874999999999996L3.283333333333333 2.2874999999999996" stroke-width="0.03" stroke="#000000" fill="none"/>
<path d="M2.9625 1.8208333333333333L2.904166666666667 1.85L2.845833333333333 1.9083333333333332L2.8166666666666664 1.9958333333333333L2.8166666666666664 2.0541666666666667L2.845833333333333 2.1416666666666666L2.904166666666667 2.2L2.9625 2.2291666666666665L3.05 2.2291666666666665L3.1083333333333334 2.2L3.1666666666666665 2.1416666666666666L3.1958333333333333 2.0541666666666667L3.1958333333333333 1.9958333333333333L3.1666666666666665 1.9083333333333332L3.1083333333333334 1.85L3.05 1.8208333333333333L2.9625 1.8208333333333333" stroke-width="0.03" stroke="#000000" fill="none"/>
<path d="M2.6416666666666666 1.9083333333333332L2.6125 1.85L2.525 1.8208333333333333L2.4375 1.8208333333333333L2.35 1.85L2.3208333333333333 1.9083333333333332L2.35 1.9666666666666666L2.408333333333333 1.9958333333333333L2.5541666666666667 2.025L2.6125 2.0541666666666667L2.6416666666666666 2.1125L2.6416666666666666 2.1416666666666666L2.6125 2.2L2.525 2.2291666666666665L2.4375 2.2291666666666665L2.35 2.2L2.3208333333333333 2.1416666666666666" stroke-width="0.03" stroke="#000000" fill="none"/>
<path d="M2.1166666666666667 2.2291666666666665L2.1166666666666667 1.8208333333333333" stroke-width="0.03" stroke="#000000" fill="none"/>
<path d="M2.0875 1.6166666666666667L2.1166666666666667 1.6458333333333333L2.145833333333333 1.6166666666666667L2.1166666666666667 1.5875L2.0875 1.6166666666666667" stroke-width="0.03" stroke="#000000" fill="none"/>
<path d="M1.5 2.533333333333333L9.237499999999999 2.533333333333333" stroke-width="0.03" stroke="#000000" fill="none"/>
<path d="M8.475 2.2291666666666665L8.475 1.6166666666666667L8.3875 1.7041666666666666L8.329166666666666 1.7333333333333334" stroke-width="0.03" stroke="#000000" fill="none"/>
<path d="M8.066666666666666 2.1416666666666666L8.008333333333333 2.2L7.949999999999999 2.2291666666666665L7.8625 2.2291666666666665L7.804166666666666 2.2L7.745833333333333 2.1416666666666666L7.716666666666666 2.0541666666666667L7.716666666666666 1.9958333333333333L7.745833333333333 1.9083333333333332L7.804166666666666 1.85L7.8625 1.8208333333333333L7.949999999999999 1.8208333333333333L8.008333333333333 1.85L8.0375 1.8791666666666667L8.066666666666666 1.9375L8.066666666666666 1.9958333333333333L7.716666666666666 1.9958333333333333" stroke-width="0.03" stroke="#000000" fill="none"/>
<path d="M7.541666666666666 1.8208333333333333L7.249999999999999 2.1125" stroke-width="0.03" stroke="#000000" fill="none"/>
<path d="M7.249999999999999 2.2291666666666665L7.249999999999999 1.6166666666666667" stroke-width="0.03" stroke="#000000" fill="none"/>
<path d="M7.016666666666666 1.8208333333333333L7.016666666666666 2.2291666666666665" stroke-width="0.03" stroke="#000000" fill="none"/>
<path d="M7.016666666666666 2.1416666666666666L6.958333333333333 2.2L6.8999999999999995 2.2291666666666665L6.812499999999999 2.2291666666666665L6.754166666666666 2.2L6.695833333333333 2.1416666666666666L6.666666666666666 2.0541666666666667L6.666666666666666 1.9958333333333333L6.695833333333333 1.9083333333333332L6.754166666666666 1.85L6.812499999999999 1.8208333333333333L6.8999999999999995 1.8208333333333333L6.958333333333333 1.85L7.016666666666666 1.9083333333333332" stroke-width="0.03" stroke="#000000" fill="none"/>
<path d="M7.366666666666666 1.9958333333333333L7.570833333333333 2.2291666666666665" stroke-width="0.03" stroke="#000000" fill="none"/>
<path d="M6.4624999999999995 2.2291666666666665L6.4624999999999995 1.6166666666666667" stroke-width="0.03" stroke="#000000" fill="none"/>
<path d="M6.2875 1.6166666666666667L6.229166666666666 1.6166666666666667L6.1708333333333325 1.6458333333333333L6.141666666666667 1.7333333333333334L6.141666666666667 2.2291666666666665" stroke-width="0.03" stroke="#000000" fill="none"/>
<path d="M5.791666666666666 2.2291666666666665L5.675 1.8208333333333333L5.558333333333334 2.2291666666666665L5.441666666666666 1.8208333333333333" stroke-width="0.03" stroke="#000000" fill="none"/>
<path d="M5.033333333333333 1.8208333333333333L4.975 1.85L4.916666666666666 1.9083333333333332L4.887499999999999 1.9958333333333333L4.887499999999999 2.0541666666666667L4.916666666666666 2.1416666666666666L4.975 2.2L5.033333333333333 2.2291666666666665L5.120833333333334 2.2291666666666665L5.179166666666666 2.2L5.2375 2.1416666666666666L5.266666666666666 2.0541666666666667L5.266666666666666 1.9958333333333333L5.2375 1.9083333333333332L5.179166666666666 1.85L5.120833333333334 1.8208333333333333L5.033333333333333 1.8208333333333333" stroke-width="0.03" stroke="#000000" fill="none"/>
<path d="M5.791666666666666 2.2291666666666665L5.908333333333333 1.8208333333333333" stroke-width="0.03" stroke="#000000" fill="none"/>
<path d="M6.054166666666666 1.8208333333333333L6.258333333333333 1.8208333333333333" stroke-width="0.03" stroke="#000000" fill="none"/>
<path d="M2.1622339220468474 3.0054372986874878L2.1081559480312317 3.023463290026026L2.072103965354154 3.077541264041642L2.0540779740156156 3.167671220734335L2.0540779740156156 3.221749194749951L2.072103965354154 3.3118791514426436L2.1081559480312317 3.3659571254582596L2.1622339220468474 3.383983116796798L2.1982859047239245 3.383983116796798L2.2523638787395406 3.3659571254582596L2.2884158614166177 3.3118791514426436L2.3064418527551562 3.221749194749951L2.3064418527551562 3.167671220734335L2.2884158614166177 3.077541264041642L2.2523638787395406 3.023463290026026L2.1982859047239245 3.0054372986874878L2.1622339220468474 3.0054372986874878" stroke-width="0.03" stroke="#000000" fill="none"/>
<path d="M20.89921875 19.434388449720945L20.89921875 20.518273369144907" stroke-width="0.03" stroke="#000000" fill="none"/>
<path d="M22.98515625 21.36129497314132L23.193749999999998 21.481726630855093L24.8625 20.518273369144907L24.8625 20.277410053717357" stroke-width="0.03" stroke="#000000" fill="none"/>
<path d="M26.322656249999998 19.434388449720945L27.052734375 19.85589925171915L27.052734375 23.709712298559904" stroke-width="0.03" stroke="#000000" fill="none"/>
<path d="M26.635546875 23.95057561398745L26.635546875 24.071007271701223L25.801171875 24.55273390255632L25.696875000000002 24.492518073699433" stroke-width="0.03" stroke="#000000" fill="none"/>
<path d="M25.801171875 24.55273390255632L25.801171875 24.432302244842543" stroke-width="0.03" stroke="#000000" fill="none"/>
<path d="M24.653906250000002 26.17856128169226L27.99140625 24.251654758271883" stroke-width="0.03" stroke="#000000" fill="none"/>
<path d="M27.052734375 19.85589925171915L23.506640625 21.903237432853302" stroke-width="0.03" stroke="#000000" fill="none"/>
<path d="M23.193749999999998 21.481726630855093L23.193749999999998 21.240863315427546" stroke-width="0.03" stroke="#000000" fill="none"/>
<path d="M22.7765625 21.843021603996412L22.7765625 23.890359785130563" stroke-width="0.03" stroke="#000000" fill="none"/>
<path d="M22.255078124999997 23.227985667704807L22.150781249999998 23.167769838847924L21.837890625 23.348417325418584" stroke-width="0.03" stroke="#000000" fill="none"/>
<path d="M21.837890625 23.95057561398745L21.837890625 24.432302244842543" stroke-width="0.03" stroke="#000000" fill="none"/>
<path d="M21.31640625 25.335539677695845L21.31640625 26.419424597119807" stroke-width="0.03" stroke="#000000" fill="none"/>
<path d="M23.298046874999997 28.647410264824618L23.40234375 28.7076260936815L23.40234375 29.67107935539169L23.298046874999997 29.731295184248577" stroke-width="0.03" stroke="#000000" fill="none"/>
<path d="M23.298046874999997 28.767841922538388L23.40234375 28.7076260936815" stroke-width="0.03" stroke="#000000" fill="none"/>
</svg>
