<?xml version="1.0" standalone="no"?>
<svg width="29.7cm" height="42cm" version="1.1" xmlns="http://www.w3.org/2000/svg" viewBox="0.0 0.0 29.700001 42.000001">
<path d="M13.181249999999999 8.113812624626235L13.598437500000001 7.872949309198687L14.224218749999999 8.234244282340008" stroke-width="0.03" stroke="#000000" fill="none"/>
<path d="M13.80703125 8.475107597767554L13.181249999999999 8.113812624626235L13.181249999999999 8.595539255481327L13.389843749999999 8.715970913195102" stroke-width="0.03" stroke="#000000" fill="none"/>
<path d="M12.346874999999999 9.31812920176397L14.85 7.872949309198687L17.353125 9.31812920176397" stroke-width="0.03" stroke="#000000" fill="none"/>
<path d="M17.7703125 9.077265886336422L14.85 10.763309094329252L11.9296875 9.077265886336422L7.7578125 11.485899040611892L7.7578125 11.606330698325666L11.512500000000001 13.77410053717359L11.512500000000001 14.737553798883777L12.242578125 15.159064600881985" stroke-width="0.03" stroke="#000000" fill="none"/>
<path d="M12.033984375000001 15.279496258595758L11.9296875 15.21928042973887L8.5921875 17.146186953159244L8.5921875 17.387050268586794L8.38359375 17.50748192630057L8.38359375 21.36129497314132L8.487890625 21.42151080199821" stroke-width="0.03" stroke="#000000" fill="none"/>
<path d="M8.487890625 21.662374117425752L7.7578125 21.240863315427546L6.9234374999999995 21.72258994628264L3.1687499999999984 19.554820107434715L3.064453125 19.615035936291605L3.064453125 24.432302244842543L5.984765624999999 26.118345452835374L5.984765624999999 29.490431868821034L10.156640625 31.8990650230965L10.260937499999999 31.838849194239618L10.260937499999999 27.50330951654377L11.095312499999999 27.021582885688677L11.9296875 27.50330951654377L11.9296875 26.780719570261127" stroke-width="0.03" stroke="#000000" fill="none"/>
<path d="M12.242578125 26.840935399118013L12.659765624999999 26.600072083690467L12.659765624999999 26.359208768262917L14.85 25.0946763622683L17.040234375 26.359208768262917L17.040234375 26.600072083690467L17.457421875 26.840935399118013L20.794921875 24.914028875697635L20.794921875 25.39575550655273L19.543359374999998 26.118345452835374L19.543359374999998 31.8990650230965L19.439062500000002 31.838849194239618L19.439062500000002 27.50330951654377L18.6046875 27.021582885688677L17.7703125 27.50330951654377L17.7703125 26.780719570261127" stroke-width="0.03" stroke="#000000" fill="none"/>
<path d="M17.457421875 26.840935399118013L17.457421875 26.359208768262917L20.794921875 24.432302244842543L20.794921875 20.57848919800179L21.212109374999997 20.337625882574244L20.794921875 20.096762567146698L20.586328125 20.21719422486047L18.396093750000002 18.95266181886585L18.1875 19.073093476579622L18.1875 16.062302033735286L14.85 14.13539551031491L11.512500000000001 16.062302033735286L11.095312499999999 15.82143871830774L11.095312499999999 16.303165349162832L11.303906249999999 16.423597006876605L11.303906249999999 18.95266181886585L9.113671875 20.21719422486047L8.905078125 20.096762567146698L8.487890625 20.337625882574244L8.487890625 24.191438929414996L8.070703124999998 23.95057561398745L8.070703124999998 22.50539572142217L3.064453125 19.615035936291605" stroke-width="0.03" stroke="#000000" fill="none"/>
<path d="M4.524609375000001 19.49460427857783L5.3589843749999995 19.01287764772274" stroke-width="0.03" stroke="#000000" fill="none"/>
<path d="M5.3589843749999995 19.13330930543651L4.62890625 19.554820107434715L4.524609375000001 19.49460427857783L4.524609375000001 20.337625882574244" stroke-width="0.03" stroke="#000000" fill="none"/>
<path d="M4.62890625 20.397841711431134L4.62890625 19.554820107434715" stroke-width="0.03" stroke="#000000" fill="none"/>
<path d="M4.941796875 20.57848919800179L5.3589843749999995 20.337625882574244" stroke-width="0.03" stroke="#000000" fill="none"/>
<path d="M5.3589843749999995 20.819352513429337L5.3589843749999995 16.72467615116104L6.4019531249999995 16.122517862592172L6.4019531249999995 14.918201285454437L9.948046875 12.87086310432029" stroke-width="0.03" stroke="#000000" fill="none"/>
<path d="M10.260937499999999 13.051510590890949L6.714843749999999 15.098848772025098L6.714843749999999 16.303165349162832L5.671875 16.905323637731698L5.3589843749999995 16.72467615116104" stroke-width="0.03" stroke="#000000" fill="none"/>
<path d="M5.046093749999999 16.66446032230415L4.211718750000001 17.146186953159244L4.107421875 17.08597112430236L4.107421875 16.72467615116104L4.941796875 16.24294952030595L5.046093749999999 16.303165349162832L5.046093749999999 16.66446032230415" stroke-width="0.03" stroke="#000000" fill="none"/>
<path d="M5.046093749999999 16.303165349162832L4.211718750000001 16.784891980017925L4.107421875 16.72467615116104" stroke-width="0.03" stroke="#000000" fill="none"/>
<path d="M4.211718750000001 16.784891980017925L4.211718750000001 17.146186953159244" stroke-width="0.03" stroke="#000000" fill="none"/>
<path d="M5.671875 16.905323637731698L5.671875 21" stroke-width="0.03" stroke="#000000" fill="none"/>
<path d="M6.9234374999999995 20.518273369144907L6.9234374999999995 20.156978396003588L7.13203125 20.03654673828981" stroke-width="0.03" stroke="#000000" fill="none"/>
<path d="M6.9234374999999995 20.156978396003588L7.7578125 20.63870502685868" stroke-width="0.03" stroke="#000000" fill="none"/>
<path d="M7.653515625 20.337625882574244L8.38359375 19.916115080576038" stroke-width="0.03" stroke="#000000" fill="none"/>
<path d="M8.487890625 20.337625882574244L8.905078125 20.57848919800179L11.512500000000001 19.073093476579622L11.512500000000001 16.062302033735286" stroke-width="0.03" stroke="#000000" fill="none"/>
<path d="M11.303906249999999 16.423597006876605L9.322265625 17.567697755157454L9.322265625 17.808561070585L9.113671875 17.928992728298773L8.38359375 17.50748192630057" stroke-width="0.03" stroke="#000000" fill="none"/>
<path d="M8.5921875 17.387050268586794L9.322265625 17.808561070585" stroke-width="0.03" stroke="#000000" fill="none"/>
<path d="M9.322265625 17.567697755157454L8.5921875 17.146186953159244" stroke-width="0.03" stroke="#000000" fill="none"/>
<path d="M9.113671875 17.928992728298773L9.113671875 20.21719422486047" stroke-width="0.03" stroke="#000000" fill="none"/>
<path d="M8.905078125 20.57848919800179L8.905078125 24.432302244842543L12.242578125 26.359208768262917L14.85 24.85381304684075L17.457421875 26.359208768262917" stroke-width="0.03" stroke="#000000" fill="none"/>
<path d="M17.040234375 26.359208768262917L15.05859375 27.50330951654377L15.05859375 28.346331120540185L18.396093750000002 26.419424597119807L18.396093750000002 26.29899293940603" stroke-width="0.03" stroke="#000000" fill="none"/>
<path d="M18.6046875 26.17856128169226L18.6046875 27.021582885688677" stroke-width="0.03" stroke="#000000" fill="none"/>
<path d="M18.396093750000002 27.142014543402446L18.396093750000002 28.105467805112635L18.083203125 28.286115291683295L17.874609375000002 28.165683633969522" stroke-width="0.03" stroke="#000000" fill="none"/>
<path d="M18.083203125 28.286115291683295L18.083203125 27.322662029973106" stroke-width="0.03" stroke="#000000" fill="none"/>
<path d="M17.874609375000002 27.563525345400656L16.9359375 28.105467805112635L16.205859375 27.68395700311443" stroke-width="0.03" stroke="#000000" fill="none"/>
<path d="M16.1015625 27.744172831971316L16.1015625 29.550647697677917L16.9359375 30.032374328533013L17.874609375000002 29.490431868821034L17.874609375000002 27.563525345400656L17.14453125 27.142014543402446" stroke-width="0.03" stroke="#000000" fill="none"/>
<path d="M16.9359375 28.105467805112635L16.9359375 30.032374328533013" stroke-width="0.03" stroke="#000000" fill="none"/>
<path d="M17.874609375000002 30.21302181510367L18.708984375 30.694748445958766L19.439062500000002 30.273237643960556" stroke-width="0.03" stroke="#000000" fill="none"/>
<path d="M19.439062500000002 30.152805986246786L18.708984375 30.574316788244992L17.978906249999998 30.152805986246786" stroke-width="0.03" stroke="#000000" fill="none"/>
<path d="M18.708984375 30.574316788244992L18.708984375 30.694748445958766" stroke-width="0.03" stroke="#000000" fill="none"/>
<path d="M19.439062500000002 29.791511013105463L19.021874999999998 29.550647697677917" stroke-width="0.03" stroke="#000000" fill="none"/>
<path d="M19.439062500000002 29.30978438225037L15.89296875 31.35712256338452L14.85 30.754964274815652L14.85 30.393669301674333L13.80703125 30.995827590243202L13.80703125 31.35712256338452L10.260937499999999 29.30978438225037" stroke-width="0.03" stroke="#000000" fill="none"/>
<path d="M10.260937499999999 28.94848940910905L13.80703125 30.995827590243202" stroke-width="0.03" stroke="#000000" fill="none"/>
<path d="M13.80703125 31.35712256338452L14.85 30.754964274815652" stroke-width="0.03" stroke="#000000" fill="none"/>
<path d="M14.85 30.393669301674333L15.89296875 30.995827590243202L15.89296875 31.35712256338452" stroke-width="0.03" stroke="#000000" fill="none"/>
<path d="M15.997265625 31.658201707668955L15.684375 31.838849194239618L15.684375 31.959280851953388L16.51875 32.44100748280849L16.831640625 32.260359996237824L16.831640625 32.139928338524044L15.997265625 31.658201707668955" stroke-width="0.03" stroke="#000000" fill="none"/>
<path d="M15.684375 31.838849194239618L16.51875 32.32057582509471L16.51875 32.44100748280849" stroke-width="0.03" stroke="#000000" fill="none"/>
<path d="M16.51875 32.32057582509471L16.831640625 32.139928338524044" stroke-width="0.03" stroke="#000000" fill="none"/>
<path d="M15.89296875 30.995827590243202L19.439062500000002 28.94848940910905" stroke-width="0.03" stroke="#000000" fill="none"/>
<path d="M19.543359374999998 26.118345452835374L19.439062500000002 26.058129623978488L19.439062500000002 25.696834650837165" stroke-width="0.03" stroke="#000000" fill="none"/>
<path d="M19.439062500000002 26.058129623978488L20.690625 25.335539677695845L20.690625 24.974244704554525" stroke-width="0.03" stroke="#000000" fill="none"/>
<path d="M20.690625 25.335539677695845L20.794921875 25.39575550655273" stroke-width="0.03" stroke="#000000" fill="none"/>
<path d="M21.212109374999997 25.154892191125185L21.629296875 24.914028875697635L21.629296875 24.432302244842543L21.212109374999997 24.673165560270093L21.212109374999997 25.154892191125185" stroke-width="0.03" stroke="#000000" fill="none"/>
<path d="M21.212109374999997 25.034460533411412L21.525000000000002 24.85381304684075L21.525000000000002 24.492518073699433" stroke-width="0.03" stroke="#000000" fill="none"/>
<path d="M21.525000000000002 24.85381304684075L21.629296875 24.914028875697635" stroke-width="0.03" stroke="#000000" fill="none"/>
<path d="M21.212109374999997 24.191438929414996L21.629296875 23.95057561398745L21.629296875 22.50539572142217L21.525000000000002 22.44517989256528L21.212109374999997 22.62582737913594" stroke-width="0.03" stroke="#000000" fill="none"/>
<path d="M21.525000000000002 22.44517989256528L21.525000000000002 23.890359785130563L21.629296875 23.95057561398745" stroke-width="0.03" stroke="#000000" fill="none"/>
<path d="M21.525000000000002 23.890359785130563L21.212109374999997 24.071007271701223" stroke-width="0.03" stroke="#000000" fill="none"/>
<path d="M21.212109374999997 24.191438929414996L21.212109374999997 20.337625882574244" stroke-width="0.03" stroke="#000000" fill="none"/>
<path d="M21.31640625 20.63870502685868L21.9421875 20.277410053717357L21.9421875 21.240863315427546L22.7765625 21.72258994628264L26.53125 19.554820107434715L26.635546875 19.615035936291605L26.635546875 24.432302244842543L23.715234375 26.118345452835374L23.715234375 29.490431868821034L19.543359374999998 31.8990650230965" stroke-width="0.03" stroke="#000000" fill="none"/>
<path d="M23.715234375 29.008705237965938L26.218359375 27.563525345400656L26.218359375 24.673165560270093" stroke-width="0.03" stroke="#000000" fill="none"/>
<path d="M26.426953124999997 25.75705047969405L26.218359375 25.877482137407824" stroke-width="0.03" stroke="#000000" fill="none"/>
<path d="M26.426953124999997 25.75705047969405L26.844140625 25.9979137951216L26.844140625 26.479640425976694L26.218359375 26.840935399118013" stroke-width="0.03" stroke="#000000" fill="none"/>
<path d="M26.218359375 26.359208768262917L26.844140625 25.9979137951216" stroke-width="0.03" stroke="#000000" fill="none"/>
<path d="M24.8625 25.45597133540962L24.8625 26.780719570261127L23.715234375 27.443093687686883" stroke-width="0.03" stroke="#000000" fill="none"/>
<path d="M23.715234375 26.118345452835374L24.8625 26.780719570261127" stroke-width="0.03" stroke="#000000" fill="none"/>
<path d="M25.592578125 27.92482031854198L25.592578125 28.647410264824618L25.175390624999995 28.888273580252164L24.758203125 28.647410264824618L24.758203125 28.40654694939707" stroke-width="0.03" stroke="#000000" fill="none"/>
<path d="M25.175390624999995 28.165683633969522L25.175390624999995 28.888273580252164" stroke-width="0.03" stroke="#000000" fill="none"/>
<path d="M20.794921875 24.432302244842543L20.690625 24.37208641598566L19.439062500000002 25.0946763622683L18.6046875 24.612949731413206L18.6046875 23.529064811989244L18.917578125000002 23.348417325418584L18.917578125000002 22.98712235227726L19.85625 22.44517989256528L20.690625 22.926906523420374L20.690625 24.37208641598566" stroke-width="0.03" stroke="#000000" fill="none"/>
<path d="M19.751953125 23.830143956273677L19.439062500000002 24.010791442844337L19.439062500000002 25.0946763622683" stroke-width="0.03" stroke="#000000" fill="none"/>
<path d="M18.6046875 24.492518073699433L17.874609375000002 24.914028875697635" stroke-width="0.03" stroke="#000000" fill="none"/>
<path d="M17.874609375000002 25.154892191125185L17.14453125 25.576402993123395L16.623046875 25.27532384883896L16.623046875 22.98712235227726" stroke-width="0.03" stroke="#000000" fill="none"/>
<path d="M16.51875 22.926906523420374L16.51875 22.08388491942396L16.623046875 22.023669090567072L16.623046875 21.903237432853302L17.353125 21.481726630855093L17.874609375000002 21.782805775139526L17.874609375000002 21.903237432853302L19.960546875000002 20.698920855715564L19.960546875000002 21.54194245971198L17.874609375000002 22.746259036849715L17.874609375000002 25.154892191125185" stroke-width="0.03" stroke="#000000" fill="none"/>
<path d="M17.14453125 25.576402993123395L17.14453125 23.167769838847924L17.040234375 23.227985667704807L16.51875 22.926906523420374" stroke-width="0.03" stroke="#000000" fill="none"/>
<path d="M16.51875 22.686043207992828L15.371484375 23.348417325418584L14.85 23.047338181134148L14.328515625 23.348417325418584L13.181249999999999 22.686043207992828" stroke-width="0.03" stroke="#000000" fill="none"/>
<path d="M13.181249999999999 22.926906523420374L12.659765624999999 23.227985667704807L12.555468750000001 23.167769838847924L12.555468750000001 25.576402993123395L11.825390624999999 25.154892191125185L11.825390624999999 22.746259036849715L9.739453124999999 21.54194245971198L9.739453124999999 20.698920855715564L10.260937499999999 20.397841711431134L12.242578125 21.54194245971198" stroke-width="0.03" stroke="#000000" fill="none"/>
<path d="M12.346874999999999 21.481726630855093L11.825390624999999 21.782805775139526L11.825390624999999 21.903237432853302L9.739453124999999 20.698920855715564" stroke-width="0.03" stroke="#000000" fill="none"/>
<path d="M9.948046875 21.662374117425752L9.948046875 22.50539572142217" stroke-width="0.03" stroke="#000000" fill="none"/>
<path d="M9.84375 22.44517989256528L9.009374999999999 22.926906523420374L9.009374999999999 24.37208641598566L10.260937499999999 25.0946763622683L11.095312499999999 24.612949731413206L11.095312499999999 23.529064811989244L10.782421874999999 23.348417325418584L10.782421874999999 22.98712235227726L9.84375 22.44517989256528" stroke-width="0.03" stroke="#000000" fill="none"/>
<path d="M10.573828124999999 22.866690694563488L10.573828124999999 22.023669090567072" stroke-width="0.03" stroke="#000000" fill="none"/>
<path d="M10.782421874999999 22.98712235227726L9.948046875 23.468848983132357L9.948046875 23.830143956273677L10.260937499999999 24.010791442844337L11.095312499999999 23.529064811989244" stroke-width="0.03" stroke="#000000" fill="none"/>
<path d="M11.095312499999999 23.76992812741679L11.825390624999999 24.191438929414996" stroke-width="0.03" stroke="#000000" fill="none"/>
<path d="M11.825390624999999 24.914028875697635L11.095312499999999 24.492518073699433" stroke-width="0.03" stroke="#000000" fill="none"/>
<path d="M10.260937499999999 24.010791442844337L10.260937499999999 25.0946763622683" stroke-width="0.03" stroke="#000000" fill="none"/>
<path d="M10.260937499999999 25.696834650837165L10.260937499999999 26.058129623978488L10.156640625 26.118345452835374L10.156640625 31.8990650230965" stroke-width="0.03" stroke="#000000" fill="none"/>
<path d="M10.991015625000001 30.694748445958766L11.825390624999999 30.21302181510367" stroke-width="0.03" stroke="#000000" fill="none"/>
<path d="M11.72109375 30.152805986246786L10.991015625000001 30.574316788244992L10.260937499999999 30.152805986246786" stroke-width="0.03" stroke="#000000" fill="none"/>
<path d="M10.260937499999999 30.273237643960556L10.991015625000001 30.694748445958766L10.991015625000001 30.574316788244992" stroke-width="0.03" stroke="#000000" fill="none"/>
<path d="M10.678125 29.550647697677917L10.260937499999999 29.791511013105463" stroke-width="0.03" stroke="#000000" fill="none"/>
<path d="M11.825390624999999 29.490431868821034L11.825390624999999 27.563525345400656L12.555468750000001 27.142014543402446" stroke-width="0.03" stroke="#000000" fill="none"/>
<path d="M12.242578125 26.840935399118013L12.242578125 26.359208768262917" stroke-width="0.03" stroke="#000000" fill="none"/>
<path d="M12.659765624999999 26.359208768262917L14.64140625 27.50330951654377L14.64140625 28.346331120540185L11.303906249999999 26.419424597119807L11.303906249999999 26.29899293940603" stroke-width="0.03" stroke="#000000" fill="none"/>
<path d="M11.095312499999999 26.17856128169226L11.095312499999999 27.021582885688677" stroke-width="0.03" stroke="#000000" fill="none"/>
<path d="M11.303906249999999 27.142014543402446L11.303906249999999 28.105467805112635L11.616796874999999 28.286115291683295L11.825390624999999 28.165683633969522" stroke-width="0.03" stroke="#000000" fill="none"/>
<path d="M11.616796874999999 28.286115291683295L11.616796874999999 27.322662029973106" stroke-width="0.03" stroke="#000000" fill="none"/>
<path d="M11.825390624999999 27.563525345400656L12.7640625 28.105467805112635L13.494140625 27.68395700311443" stroke-width="0.03" stroke="#000000" fill="none"/>
<path d="M13.598437500000001 27.744172831971316L13.598437500000001 29.550647697677917L12.7640625 30.032374328533013L11.825390624999999 29.490431868821034" stroke-width="0.03" stroke="#000000" fill="none"/>
<path d="M12.7640625 30.032374328533013L12.7640625 28.105467805112635" stroke-width="0.03" stroke="#000000" fill="none"/>
<path d="M12.242578125 26.840935399118013L8.905078125 24.914028875697635L8.905078125 25.39575550655273L10.156640625 26.118345452835374" stroke-width="0.03" stroke="#000000" fill="none"/>
<path d="M10.260937499999999 26.058129623978488L9.009374999999999 25.335539677695845L9.009374999999999 24.974244704554525" stroke-width="0.03" stroke="#000000" fill="none"/>
<path d="M9.009374999999999 25.335539677695845L8.905078125 25.39575550655273" stroke-width="0.03" stroke="#000000" fill="none"/>
<path d="M8.487890625 25.154892191125185L8.487890625 24.673165560270093L8.070703124999998 24.432302244842543L8.070703124999998 24.914028875697635L8.487890625 25.154892191125185" stroke-width="0.03" stroke="#000000" fill="none"/>
<path d="M8.487890625 25.034460533411412L8.175 24.85381304684075L8.175 24.492518073699433" stroke-width="0.03" stroke="#000000" fill="none"/>
<path d="M8.175 24.85381304684075L8.070703124999998 24.914028875697635" stroke-width="0.03" stroke="#000000" fill="none"/>
<path d="M8.487890625 24.071007271701223L8.175 23.890359785130563L8.070703124999998 23.95057561398745" stroke-width="0.03" stroke="#000000" fill="none"/>
<path d="M8.175 23.890359785130563L8.175 22.44517989256528L8.070703124999998 22.50539572142217" stroke-width="0.03" stroke="#000000" fill="none"/>
<path d="M8.175 22.44517989256528L8.487890625 22.62582737913594" stroke-width="0.03" stroke="#000000" fill="none"/>
<path d="M9.009374999999999 22.926906523420374L9.948046875 23.468848983132357" stroke-width="0.03" stroke="#000000" fill="none"/>
<path d="M9.948046875 23.830143956273677L11.825390624999999 22.746259036849715" stroke-width="0.03" stroke="#000000" fill="none"/>
<path d="M12.555468750000001 22.32474823485151L14.4328125 21.240863315427546L14.4328125 21.120431657713773" stroke-width="0.03" stroke="#000000" fill="none"/>
<path d="M14.4328125 21.240863315427546L14.537109375 21.301079144284433" stroke-width="0.03" stroke="#000000" fill="none"/>
<path d="M14.64140625 21.240863315427546L12.659765624999999 22.384964063708395L12.659765624999999 23.227985667704807" stroke-width="0.03" stroke="#000000" fill="none"/>
<path d="M13.076953125000001 22.98712235227726L13.076953125000001 25.27532384883896L12.555468750000001 25.576402993123395" stroke-width="0.03" stroke="#000000" fill="none"/>
<path d="M13.076953125000001 24.311870587128773L14.224218749999999 23.649496469703017L14.4328125 23.76992812741679" stroke-width="0.03" stroke="#000000" fill="none"/>
<path d="M14.537109375 23.709712298559904L14.85 23.529064811989244L15.162890625 23.709712298559904L15.162890625 23.95057561398745L15.267187499999999 23.890359785130563L15.267187499999999 23.649496469703017L14.85 23.40863315427547L14.4328125 23.649496469703017L14.4328125 23.890359785130563L14.537109375 23.95057561398745L14.64140625 23.890359785130563L14.85 24.010791442844337L15.05859375 23.890359785130563L15.162890625 23.95057561398745" stroke-width="0.03" stroke="#000000" fill="none"/>
<path d="M15.267187499999999 23.76992812741679L15.47578125 23.649496469703017L16.623046875 24.311870587128773" stroke-width="0.03" stroke="#000000" fill="none"/>
<path d="M16.623046875 23.58928064084613L15.788671874999999 23.107554009991038" stroke-width="0.03" stroke="#000000" fill="none"/>
<path d="M15.371484375 23.107554009991038L16.51875 22.44517989256528" stroke-width="0.03" stroke="#000000" fill="none"/>
<path d="M17.040234375 22.384964063708395L17.14453125 22.32474823485151L17.14453125 22.204316577137735L15.162890625 21.060215828856883L15.162890625 20.819352513429337L14.954296875 20.698920855715564L14.954296875 18.410719359153866L15.684375 17.989208557155663L15.580078125 17.928992728298773L17.666015625 16.72467615116104L16.9359375 16.303165349162832L14.85 17.50748192630057L12.7640625 16.303165349162832L12.033984375000001 16.72467615116104L12.033984375000001 17.326834439729907L14.015625 18.470935188010756" stroke-width="0.03" stroke="#000000" fill="none"/>
<path d="M14.015625 18.59136684572453L14.015625 17.989208557155663L14.119921875 17.928992728298773L12.033984375000001 16.72467615116104" stroke-width="0.03" stroke="#000000" fill="none"/>
<path d="M12.97265625 16.423597006876605L13.702734374999999 16.0020862048784" stroke-width="0.03" stroke="#000000" fill="none"/>
<path d="M13.598437500000001 15.94187037602151L13.598437500000001 14.978417114311325L14.85 14.255827168028683L14.85 14.13539551031491" stroke-width="0.03" stroke="#000000" fill="none"/>
<path d="M14.85 14.255827168028683L16.1015625 14.978417114311325L16.1015625 15.94187037602151L15.162890625 16.483812835733495L14.85 16.303165349162832L14.537109375 16.483812835733495L13.598437500000001 15.94187037602151" stroke-width="0.03" stroke="#000000" fill="none"/>
<path d="M14.328515625 16.36338117801972L13.598437500000001 16.784891980017925" stroke-width="0.03" stroke="#000000" fill="none"/>
<path d="M14.537109375 16.483812835733495L14.537109375 15.520359574023306L14.85 15.339712087452645L15.162890625 15.520359574023306L15.162890625 16.483812835733495" stroke-width="0.03" stroke="#000000" fill="none"/>
<path d="M15.371484375 16.36338117801972L16.1015625 16.784891980017925" stroke-width="0.03" stroke="#000000" fill="none"/>
<path d="M16.72734375 16.423597006876605L15.997265625 16.0020862048784" stroke-width="0.03" stroke="#000000" fill="none"/>
<path d="M15.162890625 15.520359574023306L16.1015625 14.978417114311325" stroke-width="0.03" stroke="#000000" fill="none"/>
<path d="M16.623046875 14.67733797002689L16.9359375 14.49669048345623L16.9359375 14.376258825742458L21.9421875 11.485899040611892L17.7703125 9.077265886336422" stroke-width="0.03" stroke="#000000" fill="none"/>
<path d="M16.51875 8.595539255481327L16.31015625 8.715970913195102" stroke-width="0.03" stroke="#000000" fill="none"/>
<path d="M16.51875 8.595539255481327L16.51875 8.113812624626235L16.1015625 7.872949309198687L15.47578125 8.234244282340008" stroke-width="0.03" stroke="#000000" fill="none"/>
<path d="M15.89296875 8.475107597767554L16.51875 8.113812624626235" stroke-width="0.03" stroke="#000000" fill="none"/>
<path d="M15.997265625 10.100934976903497L14.85 9.438560859477743L13.702734374999999 10.100934976903497" stroke-width="0.03" stroke="#000000" fill="none"/>
<path d="M14.85 9.438560859477743L14.85 10.763309094329252" stroke-width="0.03" stroke="#000000" fill="none"/>
<path d="M14.85 13.171942248604722L14.4328125 13.412805564032269L14.85 13.653668879459815L15.267187499999999 13.412805564032269L14.85 13.171942248604722L14.85 13.292373906318495L14.537109375 13.473021392889155" stroke-width="0.03" stroke="#000000" fill="none"/>
<path d="M14.85 13.292373906318495L15.162890625 13.473021392889155" stroke-width="0.03" stroke="#000000" fill="none"/>
<path d="M15.267187499999999 13.894532194887363L15.684375 13.653668879459815L16.9359375 14.376258825742458" stroke-width="0.03" stroke="#000000" fill="none"/>
<path d="M16.9359375 14.49669048345623L15.684375 13.77410053717359L15.371484375 13.95474802374425" stroke-width="0.03" stroke="#000000" fill="none"/>
<path d="M15.267187499999999 13.894532194887363L18.6046875 15.82143871830774L18.6046875 16.303165349162832L18.396093750000002 16.423597006876605L18.396093750000002 18.95266181886585" stroke-width="0.03" stroke="#000000" fill="none"/>
<path d="M18.1875 19.073093476579622L20.794921875 20.57848919800179" stroke-width="0.03" stroke="#000000" fill="none"/>
<path d="M20.586328125 20.21719422486047L20.586328125 17.928992728298773L21.31640625 17.50748192630057L21.31640625 21.36129497314132L21.212109374999997 21.42151080199821" stroke-width="0.03" stroke="#000000" fill="none"/>
<path d="M21.212109374999997 21.662374117425752L21.9421875 21.240863315427546" stroke-width="0.03" stroke="#000000" fill="none"/>
<path d="M21.9421875 21L22.7765625 20.518273369144907L22.7765625 20.156978396003588L22.567968750000002 20.03654673828981" stroke-width="0.03" stroke="#000000" fill="none"/>
<path d="M22.7765625 20.156978396003588L21.9421875 20.63870502685868" stroke-width="0.03" stroke="#000000" fill="none"/>
<path d="M22.046484375000002 20.337625882574244L23.715234375 19.37417262086406L23.715234375 18.290287701440096L22.880859375 17.808561070585L21.31640625 18.711798503438303" stroke-width="0.03" stroke="#000000" fill="none"/>
<path d="M21.31640625 18.832230161152076L22.046484375000002 19.253740963150285L22.046484375000002 20.337625882574244L21.31640625 19.916115080576038" stroke-width="0.03" stroke="#000000" fill="none"/>
<path d="M22.046484375000002 19.253740963150285L23.715234375 18.290287701440096" stroke-width="0.03" stroke="#000000" fill="none"/>
<path d="M24.341015624999997 19.01287764772274L25.175390624999995 19.49460427857783L25.175390624999995 20.337625882574244" stroke-width="0.03" stroke="#000000" fill="none"/>
<path d="M25.07109375 20.397841711431134L25.07109375 19.554820107434715L24.341015624999997 19.13330930543651" stroke-width="0.03" stroke="#000000" fill="none"/>
<path d="M25.07109375 19.554820107434715L25.175390624999995 19.49460427857783" stroke-width="0.03" stroke="#000000" fill="none"/>
<path d="M24.758203125 20.57848919800179L24.341015624999997 20.337625882574244" stroke-width="0.03" stroke="#000000" fill="none"/>
<path d="M24.341015624999997 20.819352513429337L24.341015624999997 16.72467615116104L23.298046874999997 16.122517862592172L23.298046874999997 14.918201285454437L19.751953125 12.87086310432029" stroke-width="0.03" stroke="#000000" fill="none"/>
<path d="M19.439062500000002 13.051510590890949L22.98515625 15.098848772025098L22.98515625 16.303165349162832L24.028125 16.905323637731698L24.341015624999997 16.72467615116104" stroke-width="0.03" stroke="#000000" fill="none"/>
<path d="M24.653906250000002 16.66446032230415L24.653906250000002 16.303165349162832L24.758203125 16.24294952030595L25.592578125 16.72467615116104L25.592578125 17.08597112430236L25.48828125 17.146186953159244L24.653906250000002 16.66446032230415" stroke-width="0.03" stroke="#000000" fill="none"/>
<path d="M24.653906250000002 16.303165349162832L25.48828125 16.784891980017925L25.592578125 16.72467615116104" stroke-width="0.03" stroke="#000000" fill="none"/>
<path d="M25.48828125 16.784891980017925L25.48828125 17.146186953159244" stroke-width="0.03" stroke="#000000" fill="none"/>
<path d="M24.028125 16.905323637731698L24.028125 21" stroke-width="0.03" stroke="#000000" fill="none"/>
<path d="M21.629296875 22.50539572142217L26.635546875 19.615035936291605" stroke-width="0.03" stroke="#000000" fill="none"/>
<path d="M23.298046874999997 16.122517862592172L22.98515625 16.303165349162832" stroke-width="0.03" stroke="#000000" fill="none"/>
<path d="M22.98515625 15.098848772025098L23.298046874999997 14.918201285454437" stroke-width="0.03" stroke="#000000" fill="none"/>
<path d="M23.506640625 14.67733797002689L23.506640625 13.713884708316701L23.610937500000002 13.653668879459815L23.923828125000004 13.834316366030475L23.923828125000004 14.797769627740664L23.819531249999997 14.85798545659755L23.506640625 14.67733797002689" stroke-width="0.03" stroke="#000000" fill="none"/>
<path d="M23.819531249999997 14.85798545659755L23.819531249999997 13.894532194887363L23.506640625 13.713884708316701" stroke-width="0.03" stroke="#000000" fill="none"/>
<path d="M23.819531249999997 13.894532194887363L23.923828125000004 13.834316366030475" stroke-width="0.03" stroke="#000000" fill="none"/>
<path d="M21.629296875 14.67733797002689L19.960546875000002 15.640791231737078L19.021874999999998 15.098848772025098L19.021874999999998 15.94187037602151" stroke-width="0.03" stroke="#000000" fill="none"/>
<path d="M18.6046875 15.82143871830774L18.1875 16.062302033735286" stroke-width="0.03" stroke="#000000" fill="none"/>
<path d="M18.396093750000002 16.423597006876605L20.377734375 17.567697755157454L20.377734375 17.808561070585L20.586328125 17.928992728298773" stroke-width="0.03" stroke="#000000" fill="none"/>
<path d="M20.377734375 17.808561070585L21.107812499999998 17.387050268586794L21.107812499999998 17.146186953159244L17.7703125 15.21928042973887L17.666015625 15.279496258595758" stroke-width="0.03" stroke="#000000" fill="none"/>
<path d="M17.457421875 15.159064600881985L18.1875 14.737553798883777L18.1875 13.77410053717359L21.9421875 11.606330698325666L21.9421875 11.485899040611892" stroke-width="0.03" stroke="#000000" fill="none"/>
<path d="M21.31640625 12.8106472754634L21.212109374999997 12.87086310432029L21.212109374999997 13.713884708316701" stroke-width="0.03" stroke="#000000" fill="none"/>
<path d="M21.31640625 13.77410053717359L21.31640625 12.8106472754634L20.586328125 12.389136473465193" stroke-width="0.03" stroke="#000000" fill="none"/>
<path d="M20.482031250000002 12.44935230232208L21.212109374999997 12.87086310432029" stroke-width="0.03" stroke="#000000" fill="none"/>
<path d="M20.169140624999997 13.111726419747836L20.169140624999997 12.629999788892741" stroke-width="0.03" stroke="#000000" fill="none"/>
<path d="M20.690625 14.13539551031491L19.021874999999998 15.098848772025098" stroke-width="0.03" stroke="#000000" fill="none"/>
<path d="M19.021874999999998 15.21928042973887L18.396093750000002 15.580575402880193" stroke-width="0.03" stroke="#000000" fill="none"/>
<path d="M18.708984375 15.038632943168212L19.543359374999998 14.556906312313117L19.23046875 14.376258825742458L18.396093750000002 14.85798545659755" stroke-width="0.03" stroke="#000000" fill="none"/>
<path d="M18.1875 14.737553798883777L19.021874999999998 15.21928042973887" stroke-width="0.03" stroke="#000000" fill="none"/>
<path d="M19.543359374999998 14.797769627740664L19.543359374999998 14.556906312313117" stroke-width="0.03" stroke="#000000" fill="none"/>
<path d="M19.960546875000002 15.640791231737078L19.960546875000002 16.483812835733495" stroke-width="0.03" stroke="#000000" fill="none"/>
<path d="M20.064843749999998 16.54402866459038L21.629296875 15.640791231737078L21.629296875 14.67733797002689L20.690625 14.13539551031491" stroke-width="0.03" stroke="#000000" fill="none"/>
<path d="M21.107812499999998 17.146186953159244L20.377734375 17.567697755157454" stroke-width="0.03" stroke="#000000" fill="none"/>
<path d="M21.107812499999998 17.387050268586794L21.31640625 17.50748192630057" stroke-width="0.03" stroke="#000000" fill="none"/>
<path d="M19.439062500000002 20.397841711431134L17.457421875 21.54194245971198" stroke-width="0.03" stroke="#000000" fill="none"/>
<path d="M17.14453125 21.602158288568866L17.14453125 20.277410053717357L16.623046875 19.976330909432924L16.623046875 19.37417262086406L15.47578125 18.711798503438303" stroke-width="0.03" stroke="#000000" fill="none"/>
<path d="M15.684375 18.59136684572453L14.954296875 19.01287764772274L14.85 18.95266181886585L14.745703124999999 19.01287764772274L14.015625 18.59136684572453" stroke-width="0.03" stroke="#000000" fill="none"/>
<path d="M14.224218749999999 18.711798503438303L13.076953125000001 19.37417262086406L13.076953125000001 19.976330909432924L12.555468750000001 20.277410053717357L12.555468750000001 21.602158288568866" stroke-width="0.03" stroke="#000000" fill="none"/>
<path d="M12.7640625 21.72258994628264L12.7640625 20.397841711431134L12.555468750000001 20.277410053717357" stroke-width="0.03" stroke="#000000" fill="none"/>
<path d="M12.7640625 20.397841711431134L13.285546875 20.096762567146698L13.285546875 19.49460427857783L13.076953125000001 19.37417262086406" stroke-width="0.03" stroke="#000000" fill="none"/>
<path d="M13.285546875 19.49460427857783L14.4328125 18.832230161152076" stroke-width="0.03" stroke="#000000" fill="none"/>
<path d="M14.745703124999999 18.410719359153866L14.85 18.350503530296983L14.954296875 18.410719359153866" stroke-width="0.03" stroke="#000000" fill="none"/>
<path d="M14.85 18.350503530296983L14.85 20.518273369144907L14.745703124999999 20.57848919800179" stroke-width="0.03" stroke="#000000" fill="none"/>
<path d="M14.85 20.518273369144907L14.954296875 20.57848919800179" stroke-width="0.03" stroke="#000000" fill="none"/>
<path d="M14.745703124999999 20.698920855715564L14.537109375 20.819352513429337L14.537109375 21.060215828856883L12.555468750000001 22.204316577137735L12.555468750000001 22.32474823485151L12.659765624999999 22.384964063708395" stroke-width="0.03" stroke="#000000" fill="none"/>
<path d="M12.555468750000001 22.204316577137735L11.825390624999999 21.782805775139526" stroke-width="0.03" stroke="#000000" fill="none"/>
<path d="M11.72109375 21.240863315427546L12.555468750000001 20.759136684572454" stroke-width="0.03" stroke="#000000" fill="none"/>
<path d="M12.242578125 20.21719422486047L11.095312499999999 20.879568342286227" stroke-width="0.03" stroke="#000000" fill="none"/>
<path d="M12.242578125 20.21719422486047L12.242578125 19.976330909432924" stroke-width="0.03" stroke="#000000" fill="none"/>
<path d="M12.346874999999999 19.916115080576038L12.659765624999999 19.735467594005378L12.659765624999999 19.37417262086406L12.7640625 19.31395679200717L12.555468750000001 19.193525134293395L12.451171875 19.253740963150285L12.451171875 19.37417262086406L12.242578125 19.49460427857783L12.242578125 19.735467594005378L12.138281249999999 19.795683422862265L12.138281249999999 19.916115080576038L12.346874999999999 20.03654673828981L12.7640625 19.795683422862265L13.285546875 20.096762567146698" stroke-width="0.03" stroke="#000000" fill="none"/>
<path d="M12.7640625 19.795683422862265L12.7640625 19.31395679200717" stroke-width="0.03" stroke="#000000" fill="none"/>
<path d="M12.659765624999999 19.253740963150285L12.868359374999999 19.13330930543651L12.868359374999999 17.808561070585" stroke-width="0.03" stroke="#000000" fill="none"/>
<path d="M13.494140625 18.16985604372632L13.494140625 19.13330930543651" stroke-width="0.03" stroke="#000000" fill="none"/>
<path d="M12.659765624999999 19.37417262086406L12.451171875 19.253740963150285" stroke-width="0.03" stroke="#000000" fill="none"/>
<path d="M12.242578125 19.49460427857783L12.659765624999999 19.735467594005378" stroke-width="0.03" stroke="#000000" fill="none"/>
<path d="M12.346874999999999 19.916115080576038L12.346874999999999 20.03654673828981" stroke-width="0.03" stroke="#000000" fill="none"/>
<path d="M12.346874999999999 19.916115080576038L12.138281249999999 19.795683422862265" stroke-width="0.03" stroke="#000000" fill="none"/>
<path d="M11.512500000000001 19.073093476579622L11.303906249999999 18.95266181886585" stroke-width="0.03" stroke="#000000" fill="none"/>
<path d="M12.346874999999999 21.481726630855093L13.076953125000001 21.903237432853302L13.076953125000001 22.023669090567072L13.181249999999999 22.08388491942396L13.181249999999999 22.926906523420374" stroke-width="0.03" stroke="#000000" fill="none"/>
<path d="M13.181249999999999 22.44517989256528L14.328515625 23.107554009991038L14.328515625 23.348417325418584" stroke-width="0.03" stroke="#000000" fill="none"/>
<path d="M14.328515625 23.107554009991038L14.85 22.8064748657066L15.371484375 23.107554009991038L15.371484375 23.348417325418584" stroke-width="0.03" stroke="#000000" fill="none"/>
<path d="M15.267187499999999 23.649496469703017L15.162890625 23.709712298559904" stroke-width="0.03" stroke="#000000" fill="none"/>
<path d="M14.85 23.529064811989244L14.85 24.010791442844337" stroke-width="0.03" stroke="#000000" fill="none"/>
<path d="M14.537109375 23.95057561398745L14.537109375 23.709712298559904L14.4328125 23.649496469703017" stroke-width="0.03" stroke="#000000" fill="none"/>
<path d="M14.85 23.40863315427547L14.85 22.8064748657066" stroke-width="0.03" stroke="#000000" fill="none"/>
<path d="M13.911328125 23.107554009991038L13.076953125000001 23.58928064084613" stroke-width="0.03" stroke="#000000" fill="none"/>
<path d="M13.702734374999999 21.782805775139526L13.598437500000001 21.72258994628264L13.598437500000001 21.602158288568866" stroke-width="0.03" stroke="#000000" fill="none"/>
<path d="M14.119921875 21.42151080199821L14.119921875 21.301079144284433" stroke-width="0.03" stroke="#000000" fill="none"/>
<path d="M14.119921875 21.42151080199821L14.224218749999999 21.481726630855093" stroke-width="0.03" stroke="#000000" fill="none"/>
<path d="M14.64140625 21.240863315427546L14.85 21.36129497314132L15.05859375 21.240863315427546L17.040234375 22.384964063708395L17.040234375 23.227985667704807" stroke-width="0.03" stroke="#000000" fill="none"/>
<path d="M17.14453125 22.32474823485151L15.267187499999999 21.240863315427546L15.267187499999999 21.120431657713773" stroke-width="0.03" stroke="#000000" fill="none"/>
<path d="M15.267187499999999 21.240863315427546L15.162890625 21.301079144284433" stroke-width="0.03" stroke="#000000" fill="none"/>
<path d="M15.47578125 21.481726630855093L15.580078125 21.42151080199821L15.580078125 21.301079144284433" stroke-width="0.03" stroke="#000000" fill="none"/>
<path d="M16.1015625 21.602158288568866L16.1015625 21.72258994628264L15.997265625 21.782805775139526" stroke-width="0.03" stroke="#000000" fill="none"/>
<path d="M16.9359375 21.72258994628264L16.9359375 20.397841711431134L17.14453125 20.277410053717357" stroke-width="0.03" stroke="#000000" fill="none"/>
<path d="M16.9359375 20.397841711431134L16.414453125 20.096762567146698L16.414453125 19.49460427857783L16.623046875 19.37417262086406" stroke-width="0.03" stroke="#000000" fill="none"/>
<path d="M16.414453125 19.49460427857783L15.267187499999999 18.832230161152076" stroke-width="0.03" stroke="#000000" fill="none"/>
<path d="M15.684375 18.59136684572453L15.684375 17.989208557155663" stroke-width="0.03" stroke="#000000" fill="none"/>
<path d="M15.684375 18.470935188010756L17.666015625 17.326834439729907L17.666015625 16.72467615116104" stroke-width="0.03" stroke="#000000" fill="none"/>
<path d="M16.831640625 17.808561070585L16.831640625 19.13330930543651L17.040234375 19.253740963150285" stroke-width="0.03" stroke="#000000" fill="none"/>
<path d="M16.9359375 19.31395679200717L17.14453125 19.193525134293395L17.248828125 19.253740963150285L17.248828125 19.37417262086406L17.457421875 19.49460427857783L17.457421875 19.735467594005378L17.56171875 19.795683422862265L17.56171875 19.916115080576038L17.353125 20.03654673828981L16.9359375 19.795683422862265L16.9359375 19.31395679200717L17.040234375 19.37417262086406L17.040234375 19.735467594005378L17.353125 19.916115080576038L17.56171875 19.795683422862265" stroke-width="0.03" stroke="#000000" fill="none"/>
<path d="M17.457421875 19.976330909432924L17.457421875 20.21719422486047L18.6046875 20.879568342286227" stroke-width="0.03" stroke="#000000" fill="none"/>
<path d="M17.978906249999998 21.240863315427546L17.14453125 20.759136684572454" stroke-width="0.03" stroke="#000000" fill="none"/>
<path d="M17.353125 20.03654673828981L17.353125 19.916115080576038" stroke-width="0.03" stroke="#000000" fill="none"/>
<path d="M17.040234375 19.735467594005378L17.457421875 19.49460427857783" stroke-width="0.03" stroke="#000000" fill="none"/>
<path d="M17.248828125 19.253740963150285L17.040234375 19.37417262086406" stroke-width="0.03" stroke="#000000" fill="none"/>
<path d="M16.9359375 19.795683422862265L16.414453125 20.096762567146698" stroke-width="0.03" stroke="#000000" fill="none"/>
<path d="M16.205859375 19.13330930543651L16.205859375 18.16985604372632" stroke-width="0.03" stroke="#000000" fill="none"/>
<path d="M14.745703124999999 18.410719359153866L14.745703124999999 20.698920855715564" stroke-width="0.03" stroke="#000000" fill="none"/>
<path d="M14.745703124999999 20.21719422486047L14.85 20.156978396003588L14.954296875 20.21719422486047" stroke-width="0.03" stroke="#000000" fill="none"/>
<path d="M14.954296875 19.615035936291605L14.85 19.554820107434715L14.745703124999999 19.615035936291605" stroke-width="0.03" stroke="#000000" fill="none"/>
<path d="M14.745703124999999 18.410719359153866L14.015625 17.989208557155663" stroke-width="0.03" stroke="#000000" fill="none"/>
<path d="M14.85 17.50748192630057L14.85 15.339712087452645" stroke-width="0.03" stroke="#000000" fill="none"/>
<path d="M14.537109375 15.520359574023306L13.598437500000001 14.978417114311325" stroke-width="0.03" stroke="#000000" fill="none"/>
<path d="M13.076953125000001 14.67733797002689L12.7640625 14.49669048345623L12.7640625 14.376258825742458L14.015625 13.653668879459815L14.4328125 13.894532194887363L11.095312499999999 15.82143871830774" stroke-width="0.03" stroke="#000000" fill="none"/>
<path d="M11.303906249999999 15.580575402880193L10.678125 15.21928042973887L11.512500000000001 14.737553798883777" stroke-width="0.03" stroke="#000000" fill="none"/>
<path d="M11.303906249999999 14.85798545659755L10.46953125 14.376258825742458L10.156640625 14.556906312313117L10.156640625 14.797769627740664" stroke-width="0.03" stroke="#000000" fill="none"/>
<path d="M10.156640625 14.556906312313117L10.991015625000001 15.038632943168212" stroke-width="0.03" stroke="#000000" fill="none"/>
<path d="M10.678125 15.098848772025098L9.739453124999999 15.640791231737078L8.070703124999998 14.67733797002689L8.070703124999998 15.640791231737078L9.63515625 16.54402866459038" stroke-width="0.03" stroke="#000000" fill="none"/>
<path d="M9.739453124999999 16.483812835733495L9.739453124999999 15.640791231737078" stroke-width="0.03" stroke="#000000" fill="none"/>
<path d="M10.678125 15.94187037602151L10.678125 15.098848772025098L9.009374999999999 14.13539551031491L8.070703124999998 14.67733797002689" stroke-width="0.03" stroke="#000000" fill="none"/>
<path d="M8.38359375 13.77410053717359L8.38359375 12.8106472754634L9.113671875 12.389136473465193" stroke-width="0.03" stroke="#000000" fill="none"/>
<path d="M9.21796875 12.44935230232208L8.487890625 12.87086310432029L8.487890625 13.713884708316701" stroke-width="0.03" stroke="#000000" fill="none"/>
<path d="M8.487890625 12.87086310432029L8.38359375 12.8106472754634" stroke-width="0.03" stroke="#000000" fill="none"/>
<path d="M9.530859375 12.629999788892741L9.530859375 13.111726419747836" stroke-width="0.03" stroke="#000000" fill="none"/>
<path d="M7.7578125 11.485899040611892L12.7640625 14.376258825742458" stroke-width="0.03" stroke="#000000" fill="none"/>
<path d="M12.7640625 14.49669048345623L14.015625 13.77410053717359L14.328515625 13.95474802374425" stroke-width="0.03" stroke="#000000" fill="none"/>
<path d="M14.015625 13.77410053717359L14.015625 13.653668879459815" stroke-width="0.03" stroke="#000000" fill="none"/>
<path d="M15.684375 13.653668879459815L15.684375 13.77410053717359" stroke-width="0.03" stroke="#000000" fill="none"/>
<path d="M19.439062500000002 20.397841711431134L19.960546875000002 20.698920855715564" stroke-width="0.03" stroke="#000000" fill="none"/>
<path d="M19.751953125 21.662374117425752L19.751953125 22.50539572142217" stroke-width="0.03" stroke="#000000" fill="none"/>
<path d="M19.126171875 22.866690694563488L19.126171875 22.023669090567072" stroke-width="0.03" stroke="#000000" fill="none"/>
<path d="M18.917578125000002 22.98712235227726L19.751953125 23.468848983132357L19.751953125 23.830143956273677L17.874609375000002 22.746259036849715" stroke-width="0.03" stroke="#000000" fill="none"/>
<path d="M17.14453125 22.204316577137735L17.874609375000002 21.782805775139526" stroke-width="0.03" stroke="#000000" fill="none"/>
<path d="M18.6046875 23.529064811989244L19.439062500000002 24.010791442844337" stroke-width="0.03" stroke="#000000" fill="none"/>
<path d="M19.751953125 23.468848983132357L20.690625 22.926906523420374" stroke-width="0.03" stroke="#000000" fill="none"/>
<path d="M18.6046875 23.76992812741679L17.874609375000002 24.191438929414996" stroke-width="0.03" stroke="#000000" fill="none"/>
<path d="M14.85 24.85381304684075L14.85 25.0946763622683" stroke-width="0.03" stroke="#000000" fill="none"/>
<path d="M14.85 27.382877858829996L14.64140625 27.50330951654377" stroke-width="0.03" stroke="#000000" fill="none"/>
<path d="M14.85 27.382877858829996L14.85 28.22589946282641L14.64140625 28.346331120540185" stroke-width="0.03" stroke="#000000" fill="none"/>
<path d="M14.85 28.22589946282641L15.05859375 28.346331120540185" stroke-width="0.03" stroke="#000000" fill="none"/>
<path d="M15.05859375 27.50330951654377L14.85 27.382877858829996" stroke-width="0.03" stroke="#000000" fill="none"/>
<path d="M13.702734374999999 31.658201707668955L12.868359374999999 32.139928338524044L12.868359374999999 32.260359996237824L13.181249999999999 32.44100748280849L14.015625 31.959280851953388L14.015625 31.838849194239618L13.702734374999999 31.658201707668955" stroke-width="0.03" stroke="#000000" fill="none"/>
<path d="M14.015625 31.838849194239618L13.181249999999999 32.32057582509471L12.868359374999999 32.139928338524044" stroke-width="0.03" stroke="#000000" fill="none"/>
<path d="M13.181249999999999 32.32057582509471L13.181249999999999 32.44100748280849" stroke-width="0.03" stroke="#000000" fill="none"/>
<path d="M5.984765624999999 29.008705237965938L3.481640624999999 27.563525345400656L3.481640624999999 24.673165560270093" stroke-width="0.03" stroke="#000000" fill="none"/>
<path d="M3.2730468750000017 25.75705047969405L2.8558593750000005 25.9979137951216L2.8558593750000005 26.479640425976694L3.481640624999999 26.840935399118013" stroke-width="0.03" stroke="#000000" fill="none"/>
<path d="M3.481640624999999 26.359208768262917L2.8558593750000005 25.9979137951216" stroke-width="0.03" stroke="#000000" fill="none"/>
<path d="M3.2730468750000017 25.75705047969405L3.481640624999999 25.877482137407824" stroke-width="0.03" stroke="#000000" fill="none"/>
<path d="M4.8374999999999995 25.45597133540962L4.8374999999999995 26.780719570261127L5.984765624999999 27.443093687686883" stroke-width="0.03" stroke="#000000" fill="none"/>
<path d="M5.984765624999999 26.118345452835374L4.8374999999999995 26.780719570261127" stroke-width="0.03" stroke="#000000" fill="none"/>
<path d="M4.107421875 27.92482031854198L4.107421875 28.647410264824618L4.524609375000001 28.888273580252164L4.941796875 28.647410264824618L4.941796875 28.40654694939707" stroke-width="0.03" stroke="#000000" fill="none"/>
<path d="M4.524609375000001 28.165683633969522L4.524609375000001 28.888273580252164" stroke-width="0.03" stroke="#000000" fill="none"/>
<path d="M8.905078125 24.432302244842543L9.009374999999999 24.37208641598566" stroke-width="0.03" stroke="#000000" fill="none"/>
<path d="M7.7578125 21.240863315427546L7.7578125 20.277410053717357L8.38359375 20.63870502685868" stroke-width="0.03" stroke="#000000" fill="none"/>
<path d="M7.7578125 21L6.9234374999999995 20.518273369144907" stroke-width="0.03" stroke="#000000" fill="none"/>
<path d="M7.653515625 20.337625882574244L7.653515625 19.253740963150285L8.38359375 18.832230161152076" stroke-width="0.03" stroke="#000000" fill="none"/>
<path d="M8.38359375 18.711798503438303L6.819140625 17.808561070585L5.984765624999999 18.290287701440096L5.984765624999999 19.37417262086406L7.653515625 20.337625882574244" stroke-width="0.03" stroke="#000000" fill="none"/>
<path d="M7.653515625 19.253740963150285L5.984765624999999 18.290287701440096" stroke-width="0.03" stroke="#000000" fill="none"/>
<path d="M6.714843749999999 16.303165349162832L6.4019531249999995 16.122517862592172" stroke-width="0.03" stroke="#000000" fill="none"/>
<path d="M6.714843749999999 15.098848772025098L6.4019531249999995 14.918201285454437" stroke-width="0.03" stroke="#000000" fill="none"/>
<path d="M6.193359375 14.67733797002689L5.88046875 14.85798545659755L5.776171874999998 14.797769627740664L5.776171874999998 13.834316366030475L6.089062499999999 13.653668879459815L6.193359375 13.713884708316701L6.193359375 14.67733797002689" stroke-width="0.03" stroke="#000000" fill="none"/>
<path d="M5.88046875 14.85798545659755L5.88046875 13.894532194887363L6.193359375 13.713884708316701" stroke-width="0.03" stroke="#000000" fill="none"/>
<path d="M5.88046875 13.894532194887363L5.776171874999998 13.834316366030475" stroke-width="0.03" stroke="#000000" fill="none"/>
<path d="M5.442964345660872 3.383983116796798L5.442964345660872 3.0054372986874878L5.262704432275486 3.257801177427028L5.533094302353565 3.257801177427028" stroke-width="0.03" stroke="#000000" fill="none"/>
<path d="M5.154548484244255 3.293853160104105L5.136522492905716 3.3299051427811825L5.100470510228639 3.3659571254582596L5.064418527551561 3.383983116796798L4.992314562197407 3.383983116796798L4.95626257952033 3.3659571254582596L4.920210596843253 3.3299051427811825L4.902184605504715 3.293853160104105L4.884158614166176 3.2397751860884894L4.884158614166176 3.149645229395796L4.902184605504715 3.0955672553801805L4.920210596843253 3.0595152727031034L4.95626257952033 3.023463290026026L4.992314562197407 3.0054372986874878L5.064418527551561 3.0054372986874878L5.100470510228639 3.023463290026026L5.136522492905716 3.0595152727031034L5.154548484244255 3.0955672553801805" stroke-width="0.03" stroke="#000000" fill="none"/>
<path d="M4.776002666134945 3.0955672553801805L4.757976674796406 3.0595152727031034L4.7219246921193285 3.023463290026026L4.6858727094422505 3.0054372986874878L4.613768744088096 3.0054372986874878L4.57771676141102 3.023463290026026L4.541664778733942 3.0595152727031034L4.523638787395404 3.0955672553801805L4.505612796056865 3.149645229395796L4.505612796056865 3.2397751860884894L4.523638787395404 3.293853160104105L4.541664778733942 3.3299051427811825L4.57771676141102 3.3659571254582596L4.613768744088096 3.383983116796798L4.6858727094422505 3.383983116796798L4.7219246921193285 3.3659571254582596L4.757976674796406 3.3299051427811825L4.776002666134945 3.293853160104105" stroke-width="0.03" stroke="#000000" fill="none"/>
<path d="M4.433508830702711 3.383983116796798L4.289300899994402 3.0054372986874878L4.145092969286093 3.383983116796798" stroke-width="0.03" stroke="#000000" fill="none"/>
<path d="M4.199170943301709 3.257801177427028L4.379430856687095 3.257801177427028" stroke-width="0.03" stroke="#000000" fill="none"/>
<path d="M3.9828590472392458 3.1856972120728733L4.036937021254861 3.167671220734335L4.0549630125934 3.149645229395796L4.072989003931939 3.113593246718719L4.072989003931939 3.077541264041642L4.0549630125934 3.041489281364565L4.036937021254861 3.023463290026026L3.9828590472392458 3.0054372986874878L3.8206251251923984 3.0054372986874878L3.8206251251923984 3.383983116796798L3.9828590472392458 3.383983116796798L4.036937021254861 3.3659571254582596L4.0549630125934 3.3479311341197207L4.072989003931939 3.3118791514426436L4.072989003931939 3.257801177427028L4.0549630125934 3.221749194749951L4.036937021254861 3.2037232034114123L3.9828590472392458 3.1856972120728733L3.8206251251923984 3.1856972120728733" stroke-width="0.03" stroke="#000000" fill="none"/>
<path d="M3.478131289760165 3.0054372986874878L3.6764171944840895 3.0054372986874878L3.568261246452858 3.149645229395796L3.622339220468474 3.149645229395796L3.658391203145551 3.167671220734335L3.6764171944840895 3.1856972120728733L3.694443185822628 3.2397751860884894L3.694443185822628 3.2758271687655665L3.6764171944840895 3.3299051427811825L3.6403652118070124 3.3659571254582596L3.586287237791397 3.383983116796798L3.5322092637757807 3.383983116796798L3.478131289760165 3.3659571254582596L3.4601052984216265 3.3479311341197207L3.442079307083088 3.3118791514426436" stroke-width="0.03" stroke="#000000" fill="none"/>
<path d="M3.333923359051856 3.383983116796798L3.0815594803123156 3.383983116796798L3.261819393697702 3.2037232034114123L3.297871376374779 3.149645229395796L3.3158973677133177 3.113593246718719L3.3158973677133177 3.077541264041642L3.297871376374779 3.041489281364565L3.2798453850362406 3.023463290026026L3.243793402359163 3.0054372986874878L3.171689437005009 3.0054372986874878L3.1356374543279317 3.023463290026026L3.117611462989393 3.041489281364565L3.0995854716508546 3.077541264041642L3.0995854716508546 3.0955672553801805" stroke-width="0.03" stroke="#000000" fill="none"/>
<path d="M2.757091636218621 3.0054372986874878L2.955377540942546 3.0054372986874878L2.847221592911314 3.149645229395796L2.90129956692693 3.149645229395796L2.9373515496040072 3.167671220734335L2.955377540942546 3.1856972120728733L2.9734035322810843 3.2397751860884894L2.9734035322810843 3.2758271687655665L2.955377540942546 3.3299051427811825L2.9193255582654682 3.3659571254582596L2.8652475842498526 3.383983116796798L2.811169610234237 3.383983116796798L2.757091636218621 3.3659571254582596L2.7390656448800828 3.3479311341197207L2.7210396535415438 3.3118791514426436" stroke-width="0.03" stroke="#000000" fill="none"/>
<path d="M2.6128837055103125 3.383983116796798L2.414597800786388 3.1316192380572576" stroke-width="0.03" stroke="#000000" fill="none"/>
<path d="M2.6128837055103125 3.1316192380572576L2.414597800786388 3.383983116796798" stroke-width="0.03" stroke="#000000" fill="none"/>
<path d="M2.1622339220468474 3.0054372986874878L2.1081559480312317 3.023463290026026L2.072103965354154 3.077541264041642L2.0540779740156156 3.167671220734335L2.0540779740156156 3.221749194749951L2.072103965354154 3.3118791514426436L2.1081559480312317 3.3659571254582596L2.1622339220468474 3.383983116796798L2.1982859047239245 3.383983116796798L2.2523638787395406 3.3659571254582596L2.2884158614166177 3.3118791514426436L2.3064418527551562 3.221749194749951L2.3064418527551562 3.167671220734335L2.2884158614166177 3.077541264041642L2.2523638787395406 3.023463290026026L2.1982859047239245 3.0054372986874878L2.1622339220468474 3.0054372986874878" stroke-width="0.03" stroke="#000000" fill="none"/>
<path d="M2.1166666666666667 2.2291666666666665L2.1166666666666667 1.8208333333333333" stroke-width="0.03" stroke="#000000" fill="none"/>
<path d="M2.0875 1.6166666666666667L2.1166666666666667 1.6458333333333333L2.145833333333333 1.6166666666666667L2.1166666666666667 1.5875L2.0875 1.6166666666666667" stroke-width="0.03" stroke="#000000" fill="none"/>
<path d="M2.3208333333333333 2.1416666666666666L2.35 2.2L2.4375 2.2291666666666665L2.525 2.2291666666666665L2.6125 2.2L2.6416666666666666 2.1416666666666666L2.6416666666666666 2.1125L2.6125 2.0541666666666667L2.5541666666666667 2.025L2.408333333333333 1.9958333333333333L2.35 1.9666666666666666L2.3208333333333333 1.9083333333333332L2.35 1.85L2.4375 1.8208333333333333L2.525 1.8208333333333333L2.6125 1.85L2.6416666666666666 1.9083333333333332" stroke-width="0.03" stroke="#000000" fill="none"/>
<path d="M2.9625 1.8208333333333333L2.904166666666667 1.85L2.845833333333333 1.9083333333333332L2.8166666666666664 1.9958333333333333L2.8166666666666664 2.0541666666666667L2.845833333333333 2.1416666666666666L2.904166666666667 2.2L2.9625 2.2291666666666665L3.05 2.2291666666666665L3.1083333333333334 2.2L3.1666666666666665 2.1416666666666666L3.1958333333333333 2.0541666666666667L3.1958333333333333 1.9958333333333333L3.1666666666666665 1.9083333333333332L3.1083333333333334 1.85L3.05 1.8208333333333333L2.9625 1.8208333333333333" stroke-width="0.03" stroke="#000000" fill="none"/>
<path d="M3.283333333333333 2.2874999999999996L3.75 2.2874999999999996" stroke-width="0.03" stroke="#000000" fill="none"/>
<path d="M3.8375 2.1416666666666666L3.8666666666666663 2.2L3.9541666666666666 2.2291666666666665L4.041666666666666 2.2291666666666665L4.129166666666666 2.2L4.158333333333333 2.1416666666666666L4.158333333333333 2.1125L4.129166666666666 2.0541666666666667L4.070833333333333 2.025L3.925 1.9958333333333333L3.8666666666666663 1.9666666666666666L3.8375 1.9083333333333332L3.8666666666666663 1.85L3.9541666666666666 1.8208333333333333L4.041666666666666 1.8208333333333333L4.129166666666666 1.85L4.158333333333333 1.9083333333333332" stroke-width="0.03" stroke="#000000" fill="none"/>
<path d="M4.3625 1.9375L4.449999999999999 1.85L4.508333333333333 1.8208333333333333L4.595833333333333 1.8208333333333333L4.654166666666667 1.85L4.683333333333334 1.9375L4.683333333333334 2.2291666666666665" stroke-width="0.03" stroke="#000000" fill="none"/>
<path d="M4.3625 2.2291666666666665L4.3625 1.8208333333333333" stroke-width="0.03" stroke="#000000" fill="none"/>
<path d="M5.033333333333333 1.8208333333333333L4.975 1.85L4.916666666666666 1.9083333333333332L4.887499999999999 1.9958333333333333L4.887499999999999 2.0541666666666667L4.916666666666666 2.1416666666666666L4.975 2.2L5.033333333333333 2.2291666666666665L5.120833333333334 2.2291666666666665L5.179166666666666 2.2L5.2375 2.1416666666666666L5.266666666666666 2.0541666666666667L5.266666666666666 1.9958333333333333L5.2375 1.9083333333333332L5.179166666666666 1.85L5.120833333333334 1.8208333333333333L5.033333333333333 1.8208333333333333" stroke-width="0.03" stroke="#000000" fill="none"/>
<path d="M5.441666666666666 1.8208333333333333L5.558333333333334 2.2291666666666665L5.675 1.8208333333333333L5.791666666666666 2.2291666666666665L5.908333333333333 1.8208333333333333" stroke-width="0.03" stroke="#000000" fill="none"/>
<path d="M6.054166666666666 1.8208333333333333L6.258333333333333 1.8208333333333333" stroke-width="0.03" stroke="#000000" fill="none"/>
<path d="M6.2875 1.6166666666666667L6.229166666666666 1.6166666666666667L6.1708333333333325 1.6458333333333333L6.141666666666667 1.7333333333333334L6.141666666666667 2.2291666666666665" stroke-width="0.03" stroke="#000000" fill="none"/>
<path d="M6.4624999999999995 2.2291666666666665L6.4624999999999995 1.6166666666666667" stroke-width="0.03" stroke="#000000" fill="none"/>
<path d="M7.016666666666666 1.8208333333333333L7.016666666666666 2.2291666666666665" stroke-width="0.03" stroke="#000000" fill="none"/>
<path d="M7.016666666666666 2.1416666666666666L6.958333333333333 2.2L6.8999999999999995 2.2291666666666665L6.812499999999999 2.2291666666666665L6.754166666666666 2.2L6.695833333333333 2.1416666666666666L6.666666666666666 2.0541666666666667L6.666666666666666 1.9958333333333333L6.695833333333333 1.9083333333333332L6.754166666666666 1.85L6.812499999999999 1.8208333333333333L6.8999999999999995 1.8208333333333333L6.958333333333333 1.85L7.016666666666666 1.9083333333333332" stroke-width="0.03" stroke="#000000" fill="none"/>
<path d="M7.249999999999999 2.1125L7.541666666666666 1.8208333333333333" stroke-width="0.03" stroke="#000000" fill="none"/>
<path d="M7.366666666666666 1.9958333333333333L7.570833333333333 2.2291666666666665" stroke-width="0.03" stroke="#000000" fill="none"/>
<path d="M7.716666666666666 1.9958333333333333L8.066666666666666 1.9958333333333333L8.066666666666666 1.9375L8.0375 1.8791666666666667L8.008333333333333 1.85L7.949999999999999 1.8208333333333333L7.8625 1.8208333333333333L7.804166666666666 1.85L7.745833333333333 1.9083333333333332L7.716666666666666 1.9958333333333333L7.716666666666666 2.0541666666666667L7.745833333333333 2.1416666666666666L7.804166666666666 2.2L7.8625 2.2291666666666665L7.949999999999999 2.2291666666666665L8.008333333333333 2.2L8.066666666666666 2.1416666666666666" stroke-width="0.03" stroke="#000000" fill="none"/>
<path d="M8.475 2.2291666666666665L8.475 1.6166666666666667L8.3875 1.7041666666666666L8.329166666666666 1.7333333333333334" stroke-width="0.03" stroke="#000000" fill="none"/>
<path d="M7.249999999999999 1.6166666666666667L7.249999999999999 2.2291666666666665" stroke-width="0.03" stroke="#000000" fill="none"/>
<path d="M9.237499999999999 2.533333333333333L1.5 2.533333333333333" stroke-width="0.03" stroke="#000000" fill="none"/>
</svg>
