<?xml version="1.0" standalone="no"?>
<svg width="29.7cm" height="42cm" version="1.1" xmlns="http://www.w3.org/2000/svg" viewBox="0.0 0.0 29.700001 42.000001">
<path d="M2.021484375 13.111726419747836L4.4203125 11.72676235603944L4.62890625 11.847194013753214L4.62890625 12.44935230232208L2.3343750000000005 13.77410053717359L2.3343750000000005 16.423597006876605L1.8128906250000005 16.72467615116104L1.6042968749999988 16.60424449344727L1.6042968749999988 13.834316366030475L2.021484375 13.593453050602928L2.2300781249999995 13.713884708316701L1.8128906250000005 13.95474802374425L1.8128906250000005 16.72467615116104" stroke-width="0.03" stroke="#000000" fill="none"/>
<path d="M2.2300781249999995 16.483812835733495L2.2300781249999995 16.965539466588588L3.2730468750000017 17.567697755157454" stroke-width="0.03" stroke="#000000" fill="none"/>
<path d="M3.2730468750000017 17.688129412871227L2.7515624999999995 17.989208557155663L2.7515624999999995 19.916115080576038L3.064453125 20.096762567146698L4.107421875 19.49460427857783" stroke-width="0.03" stroke="#000000" fill="none"/>
<path d="M4.003124999999999 19.554820107434715L4.107421875 19.615035936291605" stroke-width="0.03" stroke="#000000" fill="none"/>
<path d="M4.107421875 19.735467594005378L3.898828125 19.615035936291605" stroke-width="0.03" stroke="#000000" fill="none"/>
<path d="M3.898828125 19.85589925171915L3.898828125 20.939784171143113" stroke-width="0.03" stroke="#000000" fill="none"/>
<path d="M4.003124999999999 20.879568342286227L4.003124999999999 19.916115080576038" stroke-width="0.03" stroke="#000000" fill="none"/>
<path d="M4.107421875 19.976330909432924L3.6902343750000006 19.735467594005378" stroke-width="0.03" stroke="#000000" fill="none"/>
<path d="M3.3773437500000005 19.916115080576038L3.3773437500000005 20.879568342286227L3.7945312499999995 21.120431657713773" stroke-width="0.03" stroke="#000000" fill="none"/>
<path d="M3.7945312499999995 21L4.107421875 20.819352513429337" stroke-width="0.03" stroke="#000000" fill="none"/>
<path d="M3.7945312499999995 21L3.7945312499999995 21.602158288568866L4.107421875 21.782805775139526L4.107421875 24.191438929414996L5.3589843749999995 24.914028875697635" stroke-width="0.03" stroke="#000000" fill="none"/>
<path d="M5.3589843749999995 25.034460533411412L5.254687500000001 25.0946763622683L5.254687500000001 25.45597133540962L5.3589843749999995 25.51618716426651" stroke-width="0.03" stroke="#000000" fill="none"/>
<path d="M5.254687500000001 25.45597133540962L4.733203124999998 25.75705047969405L4.733203124999998 25.877482137407824" stroke-width="0.03" stroke="#000000" fill="none"/>
<path d="M4.733203124999998 25.75705047969405L4.8374999999999995 25.817266308550938" stroke-width="0.03" stroke="#000000" fill="none"/>
<path d="M5.046093749999999 25.696834650837165L4.211718750000001 26.17856128169226L4.211718750000001 26.419424597119807L4.8374999999999995 26.780719570261127L4.8374999999999995 27.50330951654377L5.046093749999999 27.623741174257542L5.88046875 27.142014543402446L5.88046875 26.17856128169226L5.046093749999999 25.696834650837165" stroke-width="0.03" stroke="#000000" fill="none"/>
<path d="M5.3589843749999995 25.75705047969405L5.3589843749999995 23.107554009991038L5.776171874999998 22.866690694563488L5.984765624999999 22.98712235227726" stroke-width="0.03" stroke="#000000" fill="none"/>
<path d="M5.984765624999999 23.468848983132357L5.984765624999999 21.18064748657066" stroke-width="0.03" stroke="#000000" fill="none"/>
<path d="M5.46328125 20.879568342286227L5.46328125 23.047338181134148" stroke-width="0.03" stroke="#000000" fill="none"/>
<path d="M5.3589843749999995 23.107554009991038L5.984765624999999 23.468848983132357" stroke-width="0.03" stroke="#000000" fill="none"/>
<path d="M5.254687500000001 25.0946763622683L5.3589843749999995 25.154892191125185" stroke-width="0.03" stroke="#000000" fill="none"/>
<path d="M5.3589843749999995 25.75705047969405L5.984765624999999 26.118345452835374L5.984765624999999 26.840935399118013L8.279296875 28.165683633969522L8.696484375 27.92482031854198L8.696484375 27.68395700311443" stroke-width="0.03" stroke="#000000" fill="none"/>
<path d="M8.279296875 27.443093687686883L8.279296875 28.165683633969522" stroke-width="0.03" stroke="#000000" fill="none"/>
<path d="M8.38359375 28.105467805112635L10.260937499999999 29.189352724536597" stroke-width="0.03" stroke="#000000" fill="none"/>
<path d="M10.260937499999999 28.58719443596773L8.279296875 27.443093687686883" stroke-width="0.03" stroke="#000000" fill="none"/>
<path d="M6.714843749999999 27.26244620111622L6.714843749999999 28.7076260936815L8.80078125 29.91194267081924L8.80078125 30.273237643960556L9.322265625 30.574316788244992L9.63515625 30.393669301674333" stroke-width="0.03" stroke="#000000" fill="none"/>
<path d="M9.530859375 30.45388513053122L10.365234375 30.935611761386316" stroke-width="0.03" stroke="#000000" fill="none"/>
<path d="M10.365234375 31.056043419100085L9.4265625 30.514100959388106" stroke-width="0.03" stroke="#000000" fill="none"/>
<path d="M9.322265625 30.574316788244992L9.322265625 30.21302181510367L12.033984375000001 31.77863336538273L12.346874999999999 31.597985878812068L12.346874999999999 30.995827590243202" stroke-width="0.03" stroke="#000000" fill="none"/>
<path d="M12.033984375000001 30.815180103672542L12.033984375000001 31.8990650230965L12.242578125 32.01949668081028" stroke-width="0.03" stroke="#000000" fill="none"/>
<path d="M12.033984375000001 32.139928338524044L11.512500000000001 31.838849194239618L11.512500000000001 32.200144167380934L12.555468750000001 32.8023024559498L14.224218749999999 31.838849194239618L13.911328125 31.658201707668955" stroke-width="0.03" stroke="#000000" fill="none"/>
<path d="M14.119921875 31.53777004995518L13.702734374999999 31.77863336538273L10.88671875 30.152805986246786L10.88671875 24.492518073699433L11.095312499999999 24.37208641598566L11.095312499999999 24.010791442844337" stroke-width="0.03" stroke="#000000" fill="none"/>
<path d="M10.991015625000001 24.071007271701223L11.199609375 23.95057561398745" stroke-width="0.03" stroke="#000000" fill="none"/>
<path d="M11.095312499999999 24.13122310055811L11.199609375 24.191438929414996" stroke-width="0.03" stroke="#000000" fill="none"/>
<path d="M10.991015625000001 24.071007271701223L10.991015625000001 23.58928064084613L11.199609375 23.468848983132357" stroke-width="0.03" stroke="#000000" fill="none"/>
<path d="M10.991015625000001 23.58928064084613L10.678125 23.40863315427547L10.678125 23.047338181134148L10.88671875 22.926906523420374" stroke-width="0.03" stroke="#000000" fill="none"/>
<path d="M11.095312499999999 23.047338181134148L11.095312499999999 23.167769838847924L10.678125 23.40863315427547" stroke-width="0.03" stroke="#000000" fill="none"/>
<path d="M10.678125 23.047338181134148L10.260937499999999 22.8064748657066L10.260937499999999 23.167769838847924L4.8374999999999995 20.03654673828981L5.046093749999999 19.916115080576038" stroke-width="0.03" stroke="#000000" fill="none"/>
<path d="M4.941796875 19.85589925171915L4.941796875 16.60424449344727L5.3589843749999995 16.36338117801972L8.175 17.989208557155663" stroke-width="0.03" stroke="#000000" fill="none"/>
<path d="M8.487890625 17.688129412871227L8.175 17.50748192630057L8.175 18.470935188010756L4.941796875 16.60424449344727" stroke-width="0.03" stroke="#000000" fill="none"/>
<path d="M4.941796875 16.845107808874815L4.62890625 17.025755295445475L4.62890625 17.146186953159244" stroke-width="0.03" stroke="#000000" fill="none"/>
<path d="M4.62890625 17.025755295445475L4.941796875 17.206402782016134" stroke-width="0.03" stroke="#000000" fill="none"/>
<path d="M4.941796875 17.326834439729907L4.3160156249999995 16.965539466588588L4.211718750000001 17.025755295445475L4.211718750000001 17.62791358401434L3.481640624999999 18.049424386012547L3.2730468750000017 17.928992728298773L3.2730468750000017 16.965539466588588L4.941796875 16.0020862048784L4.941796875 15.881654547164626L4.3160156249999995 15.520359574023306L4.3160156249999995 15.038632943168212L4.4203125 14.978417114311325L4.4203125 14.85798545659755L4.8374999999999995 14.617122141170004L5.46328125 14.978417114311325L5.567578125 14.918201285454437L5.567578125 12.991294762034062L6.4019531249999995 12.509568131178968L6.610546875 12.629999788892741L6.610546875 13.473021392889155L6.089062499999999 13.77410053717359L6.089062499999999 13.894532194887363L6.714843749999999 14.255827168028683" stroke-width="0.03" stroke="#000000" fill="none"/>
<path d="M6.610546875 14.31604299688557L6.297656249999999 14.13539551031491L6.297656249999999 14.49669048345623" stroke-width="0.03" stroke="#000000" fill="none"/>
<path d="M6.089062499999999 14.617122141170004L8.905078125 12.991294762034062L13.80703125 15.82143871830774L13.80703125 16.062302033735286L14.119921875 16.24294952030595" stroke-width="0.03" stroke="#000000" fill="none"/>
<path d="M14.119921875 16.36338117801972L14.119921875 16.122517862592172L14.4328125 15.94187037602151L9.009374999999999 12.8106472754634L9.4265625 12.569783960035853L14.85 15.701007060593964L20.2734375 12.569783960035853L20.690625 12.8106472754634L20.690625 13.051510590890949" stroke-width="0.03" stroke="#000000" fill="none"/>
<path d="M20.794921875 12.991294762034062L15.89296875 15.82143871830774L15.89296875 16.062302033735286L15.580078125 16.24294952030595" stroke-width="0.03" stroke="#000000" fill="none"/>
<path d="M15.580078125 16.36338117801972L15.580078125 16.122517862592172L15.267187499999999 15.94187037602151L20.690625 12.8106472754634" stroke-width="0.03" stroke="#000000" fill="none"/>
<path d="M20.794921875 12.991294762034062L23.610937500000002 14.617122141170004L23.610937500000002 15.098848772025098L20.794921875 16.72467615116104" stroke-width="0.03" stroke="#000000" fill="none"/>
<path d="M20.89921875 17.146186953159244L21.212109374999997 16.965539466588588L21.212109374999997 17.326834439729907L21.525000000000002 17.50748192630057L21.525000000000002 18.470935188010756L24.758203125 16.60424449344727L24.341015624999997 16.36338117801972L21.525000000000002 17.989208557155663" stroke-width="0.03" stroke="#000000" fill="none"/>
<path d="M21.212109374999997 17.688129412871227L21.525000000000002 17.50748192630057" stroke-width="0.03" stroke="#000000" fill="none"/>
<path d="M21.212109374999997 17.567697755157454L17.248828125 19.85589925171915L17.248828125 22.384964063708395L15.05859375 23.649496469703017L14.85 23.529064811989244L14.64140625 23.649496469703017L12.451171875 22.384964063708395L12.451171875 19.85589925171915L12.659765624999999 19.735467594005378L12.659765624999999 19.49460427857783L8.696484375 17.206402782016134L12.138281249999999 15.21928042973887L14.85 16.784891980017925L17.56171875 15.21928042973887L21.003515625000002 17.206402782016134L21.003515625000002 17.44726609744368L21.212109374999997 17.567697755157454L21.212109374999997 21.54194245971198L18.500390624999998 23.107554009991038L18.500390624999998 26.238777110549147L15.05859375 28.22589946282641L14.85 28.105467805112635L14.64140625 28.22589946282641L11.199609375 26.238777110549147L11.199609375 23.107554009991038L8.487890625 21.54194245971198L8.487890625 17.567697755157454L8.696484375 17.44726609744368L8.696484375 17.206402782016134" stroke-width="0.03" stroke="#000000" fill="none"/>
<path d="M8.80078125 17.146186953159244L8.487890625 16.965539466588588L8.487890625 17.326834439729907L8.175 17.50748192630057" stroke-width="0.03" stroke="#000000" fill="none"/>
<path d="M8.487890625 17.567697755157454L12.451171875 19.85589925171915" stroke-width="0.03" stroke="#000000" fill="none"/>
<path d="M12.659765624999999 19.735467594005378L7.862109374999999 16.965539466588588L7.340624999999999 17.26661861087302L6.5062500000000005 16.784891980017925L6.5062500000000005 16.18273369144906L7.027734374999999 15.881654547164626L7.862109374999999 16.36338117801972L7.862109374999999 16.965539466588588" stroke-width="0.03" stroke="#000000" fill="none"/>
<path d="M7.340624999999999 17.26661861087302L7.340624999999999 16.66446032230415L6.4019531249999995 16.122517862592172L5.984765624999999 16.36338117801972L6.5062500000000005 16.66446032230415" stroke-width="0.03" stroke="#000000" fill="none"/>
<path d="M6.5062500000000005 16.784891980017925L6.297656249999999 16.905323637731698" stroke-width="0.03" stroke="#000000" fill="none"/>
<path d="M5.984765624999999 16.72467615116104L5.984765624999999 16.0020862048784L6.089062499999999 15.94187037602151L6.089062499999999 15.82143871830774L6.714843749999999 15.460143745166418" stroke-width="0.03" stroke="#000000" fill="none"/>
<path d="M6.4019531249999995 15.640791231737078L6.4019531249999995 16.122517862592172" stroke-width="0.03" stroke="#000000" fill="none"/>
<path d="M6.089062499999999 15.94187037602151L3.7945312499999995 14.617122141170004L3.1687499999999984 14.978417114311325L3.1687499999999984 16.303165349162832" stroke-width="0.03" stroke="#000000" fill="none"/>
<path d="M3.3773437500000005 16.423597006876605L2.3343750000000005 15.82143871830774" stroke-width="0.03" stroke="#000000" fill="none"/>
<path d="M2.3343750000000005 15.94187037602151L3.3773437500000005 16.54402866459038" stroke-width="0.03" stroke="#000000" fill="none"/>
<path d="M3.3773437500000005 16.905323637731698L3.3773437500000005 15.94187037602151L3.6902343750000006 15.761222889450853L4.107421875 16.0020862048784L4.107421875 16.483812835733495" stroke-width="0.03" stroke="#000000" fill="none"/>
<path d="M4.107421875 16.24294952030595L4.3160156249999995 16.36338117801972" stroke-width="0.03" stroke="#000000" fill="none"/>
<path d="M4.107421875 16.0020862048784L3.7945312499999995 16.18273369144906L3.3773437500000005 15.94187037602151" stroke-width="0.03" stroke="#000000" fill="none"/>
<path d="M3.7945312499999995 16.18273369144906L3.7945312499999995 16.66446032230415" stroke-width="0.03" stroke="#000000" fill="none"/>
<path d="M3.481640624999999 17.08597112430236L5.150390625 16.122517862592172L5.150390625 16.483812835733495" stroke-width="0.03" stroke="#000000" fill="none"/>
<path d="M5.150390625 16.122517862592172L4.941796875 16.0020862048784" stroke-width="0.03" stroke="#000000" fill="none"/>
<path d="M4.941796875 15.881654547164626L4.8374999999999995 15.94187037602151L3.1687499999999984 14.978417114311325" stroke-width="0.03" stroke="#000000" fill="none"/>
<path d="M3.7945312499999995 14.617122141170004L3.7945312499999995 13.894532194887363L4.941796875 13.232158077461609" stroke-width="0.03" stroke="#000000" fill="none"/>
<path d="M5.150390625 13.352589735175382L4.107421875 12.750431446606514" stroke-width="0.03" stroke="#000000" fill="none"/>
<path d="M4.211718750000001 12.690215617749628L5.254687500000001 13.292373906318495" stroke-width="0.03" stroke="#000000" fill="none"/>
<path d="M5.567578125 13.111726419747836L4.733203124999998 13.593453050602928L4.733203124999998 13.95474802374425L5.150390625 14.195611339171796L5.567578125 13.95474802374425" stroke-width="0.03" stroke="#000000" fill="none"/>
<path d="M5.567578125 14.195611339171796L5.3589843749999995 14.075179681458023" stroke-width="0.03" stroke="#000000" fill="none"/>
<path d="M5.150390625 14.195611339171796L5.150390625 13.834316366030475L5.567578125 13.593453050602928" stroke-width="0.03" stroke="#000000" fill="none"/>
<path d="M5.150390625 13.834316366030475L4.733203124999998 13.593453050602928" stroke-width="0.03" stroke="#000000" fill="none"/>
<path d="M3.7945312499999995 13.894532194887363L5.46328125 14.85798545659755L5.567578125 14.797769627740664" stroke-width="0.03" stroke="#000000" fill="none"/>
<path d="M5.567578125 14.918201285454437L5.776171874999998 15.038632943168212L6.089062499999999 14.85798545659755" stroke-width="0.03" stroke="#000000" fill="none"/>
<path d="M6.089062499999999 14.617122141170004L6.089062499999999 15.098848772025098L8.905078125 16.72467615116104" stroke-width="0.03" stroke="#000000" fill="none"/>
<path d="M8.487890625 16.965539466588588L9.322265625 16.483812835733495L6.089062499999999 14.617122141170004" stroke-width="0.03" stroke="#000000" fill="none"/>
<path d="M6.297656249999999 14.13539551031491L6.4019531249999995 14.075179681458023" stroke-width="0.03" stroke="#000000" fill="none"/>
<path d="M6.089062499999999 13.77410053717359L6.819140625 14.195611339171796" stroke-width="0.03" stroke="#000000" fill="none"/>
<path d="M6.9234374999999995 13.533237221746042L6.9234374999999995 13.171942248604722L9.63515625 11.606330698325666L9.322265625 11.425683211755006L9.84375 11.124604067470571L10.156640625 11.305251554041233L12.242578125 10.100934976903497L13.494140625 10.823524923186138" stroke-width="0.03" stroke="#000000" fill="none"/>
<path d="M13.598437500000001 10.763309094329252L13.598437500000001 10.642877436615478L13.911328125 10.462229950044819L13.911328125 9.86007166147595L14.015625 9.799855832619063" stroke-width="0.03" stroke="#000000" fill="none"/>
<path d="M13.911328125 9.86007166147595L14.015625 9.920287490332836" stroke-width="0.03" stroke="#000000" fill="none"/>
<path d="M14.015625 10.161150805760384L14.015625 9.197697544050197L14.224218749999999 9.077265886336422L14.85 9.438560859477743L15.47578125 9.077265886336422L15.684375 9.197697544050197L15.684375 10.161150805760384L14.85 10.642877436615478L14.015625 10.161150805760384" stroke-width="0.03" stroke="#000000" fill="none"/>
<path d="M14.224218749999999 10.40201412118793L11.9296875 11.72676235603944L11.9296875 12.208488986894533L12.138281249999999 12.328920644608306" stroke-width="0.03" stroke="#000000" fill="none"/>
<path d="M12.555468750000001 12.08805732918076L10.573828124999999 13.232158077461609" stroke-width="0.03" stroke="#000000" fill="none"/>
<path d="M10.05234375 12.931078933177174L11.9296875 11.847194013753214" stroke-width="0.03" stroke="#000000" fill="none"/>
<path d="M11.9296875 11.72676235603944L12.555468750000001 12.08805732918076" stroke-width="0.03" stroke="#000000" fill="none"/>
<path d="M13.598437500000001 10.642877436615478L13.702734374999999 10.703093265472365" stroke-width="0.03" stroke="#000000" fill="none"/>
<path d="M13.911328125 10.462229950044819L14.015625 10.522445778901705" stroke-width="0.03" stroke="#000000" fill="none"/>
<path d="M14.224218749999999 10.40201412118793L14.85 10.763309094329252L15.47578125 10.40201412118793L17.7703125 11.72676235603944L17.7703125 12.208488986894533L17.56171875 12.328920644608306" stroke-width="0.03" stroke="#000000" fill="none"/>
<path d="M17.14453125 12.08805732918076L17.7703125 11.72676235603944" stroke-width="0.03" stroke="#000000" fill="none"/>
<path d="M17.7703125 11.847194013753214L19.647656249999997 12.931078933177174" stroke-width="0.03" stroke="#000000" fill="none"/>
<path d="M19.126171875 13.232158077461609L17.14453125 12.08805732918076" stroke-width="0.03" stroke="#000000" fill="none"/>
<path d="M16.205859375 10.823524923186138L17.457421875 10.100934976903497L19.543359374999998 11.305251554041233L19.85625 11.124604067470571L20.377734375 11.425683211755006L20.377734375 11.786978184896327" stroke-width="0.03" stroke="#000000" fill="none"/>
<path d="M20.377734375 11.666546527182554L21.212109374999997 12.148273158037647" stroke-width="0.03" stroke="#000000" fill="none"/>
<path d="M21.107812499999998 12.208488986894533L21.525000000000002 11.967625671466987" stroke-width="0.03" stroke="#000000" fill="none"/>
<path d="M21.525000000000002 12.208488986894533L21.31640625 12.328920644608306" stroke-width="0.03" stroke="#000000" fill="none"/>
<path d="M21.420703125 12.389136473465193L21.525000000000002 12.328920644608306" stroke-width="0.03" stroke="#000000" fill="none"/>
<path d="M21.525000000000002 12.44935230232208L21.525000000000002 11.245035725184344L21.837890625 11.064388238613684L23.506640625 12.027841500323873L23.506640625 12.629999788892741" stroke-width="0.03" stroke="#000000" fill="none"/>
<path d="M23.506640625 12.509568131178968L23.715234375 12.389136473465193L23.923828125000004 12.509568131178968" stroke-width="0.03" stroke="#000000" fill="none"/>
<path d="M23.610937500000002 12.690215617749628L24.653906250000002 12.08805732918076L25.07109375 12.328920644608306" stroke-width="0.03" stroke="#000000" fill="none"/>
<path d="M25.07109375 12.44935230232208L25.07109375 11.847194013753214L25.279687499999998 11.72676235603944L27.678515625 13.111726419747836L27.678515625 13.593453050602928L27.469921874999997 13.713884708316701L27.469921874999997 13.232158077461609L25.07109375 11.847194013753214" stroke-width="0.03" stroke="#000000" fill="none"/>
<path d="M25.07109375 12.44935230232208L27.365624999999998 13.77410053717359L27.365624999999998 16.423597006876605L27.887109375 16.72467615116104L28.095703125000004 16.60424449344727L28.095703125000004 13.834316366030475L27.678515625 13.593453050602928" stroke-width="0.03" stroke="#000000" fill="none"/>
<path d="M27.469921874999997 13.713884708316701L27.887109375 13.95474802374425L28.095703125000004 13.834316366030475" stroke-width="0.03" stroke="#000000" fill="none"/>
<path d="M27.887109375 13.95474802374425L27.887109375 16.72467615116104" stroke-width="0.03" stroke="#000000" fill="none"/>
<path d="M27.469921874999997 16.965539466588588L26.426953124999997 17.567697755157454" stroke-width="0.03" stroke="#000000" fill="none"/>
<path d="M26.426953124999997 17.688129412871227L26.9484375 17.989208557155663L26.9484375 19.916115080576038L26.635546875 20.096762567146698L25.592578125 19.49460427857783" stroke-width="0.03" stroke="#000000" fill="none"/>
<path d="M25.592578125 19.615035936291605L25.696875000000002 19.554820107434715" stroke-width="0.03" stroke="#000000" fill="none"/>
<path d="M25.801171875 19.615035936291605L25.592578125 19.735467594005378" stroke-width="0.03" stroke="#000000" fill="none"/>
<path d="M25.696875000000002 19.916115080576038L25.696875000000002 20.879568342286227" stroke-width="0.03" stroke="#000000" fill="none"/>
<path d="M25.801171875 20.939784171143113L25.801171875 19.85589925171915" stroke-width="0.03" stroke="#000000" fill="none"/>
<path d="M26.009765625 19.735467594005378L25.592578125 19.976330909432924" stroke-width="0.03" stroke="#000000" fill="none"/>
<path d="M25.592578125 20.096762567146698L25.696875000000002 20.156978396003588" stroke-width="0.03" stroke="#000000" fill="none"/>
<path d="M25.696875000000002 20.277410053717357L25.592578125 20.337625882574244" stroke-width="0.03" stroke="#000000" fill="none"/>
<path d="M25.592578125 20.819352513429337L25.90546875 21L25.90546875 21.602158288568866L25.592578125 21.782805775139526L25.592578125 24.191438929414996L24.341015624999997 24.914028875697635" stroke-width="0.03" stroke="#000000" fill="none"/>
<path d="M24.341015624999997 25.034460533411412L24.4453125 25.0946763622683L24.4453125 25.45597133540962L24.966796875000004 25.75705047969405L24.966796875000004 25.877482137407824" stroke-width="0.03" stroke="#000000" fill="none"/>
<path d="M24.966796875000004 25.75705047969405L24.8625 25.817266308550938" stroke-width="0.03" stroke="#000000" fill="none"/>
<path d="M24.653906250000002 25.696834650837165L23.819531249999997 26.17856128169226L23.819531249999997 27.142014543402446L24.653906250000002 27.623741174257542L24.8625 27.50330951654377L24.8625 26.780719570261127L25.48828125 26.419424597119807L25.48828125 26.17856128169226L24.653906250000002 25.696834650837165" stroke-width="0.03" stroke="#000000" fill="none"/>
<path d="M24.4453125 25.45597133540962L24.341015624999997 25.51618716426651" stroke-width="0.03" stroke="#000000" fill="none"/>
<path d="M24.341015624999997 25.75705047969405L23.715234375 26.118345452835374L23.715234375 26.840935399118013L21.420703125 28.165683633969522L21.003515625000002 27.92482031854198L21.003515625000002 27.68395700311443" stroke-width="0.03" stroke="#000000" fill="none"/>
<path d="M21.420703125 27.443093687686883L19.439062500000002 28.58719443596773" stroke-width="0.03" stroke="#000000" fill="none"/>
<path d="M19.439062500000002 29.189352724536597L21.31640625 28.105467805112635" stroke-width="0.03" stroke="#000000" fill="none"/>
<path d="M21.420703125 28.165683633969522L21.420703125 27.443093687686883" stroke-width="0.03" stroke="#000000" fill="none"/>
<path d="M22.98515625 27.26244620111622L22.98515625 28.7076260936815L20.89921875 29.91194267081924L20.89921875 30.273237643960556L20.377734375 30.574316788244992L20.064843749999998 30.393669301674333" stroke-width="0.03" stroke="#000000" fill="none"/>
<path d="M20.169140624999997 30.45388513053122L19.334765625 30.935611761386316" stroke-width="0.03" stroke="#000000" fill="none"/>
<path d="M19.334765625 31.056043419100085L20.2734375 30.514100959388106" stroke-width="0.03" stroke="#000000" fill="none"/>
<path d="M20.377734375 30.574316788244992L20.377734375 30.21302181510367L17.666015625 31.77863336538273L17.353125 31.597985878812068L17.353125 30.995827590243202" stroke-width="0.03" stroke="#000000" fill="none"/>
<path d="M17.666015625 30.815180103672542L17.666015625 31.8990650230965L17.457421875 32.01949668081028" stroke-width="0.03" stroke="#000000" fill="none"/>
<path d="M17.666015625 32.139928338524044L18.1875 31.838849194239618L18.1875 32.200144167380934L17.14453125 32.8023024559498L15.47578125 31.838849194239618L15.788671874999999 31.658201707668955" stroke-width="0.03" stroke="#000000" fill="none"/>
<path d="M15.580078125 31.53777004995518L15.580078125 28.286115291683295" stroke-width="0.03" stroke="#000000" fill="none"/>
<path d="M15.162890625 28.165683633969522L15.162890625 28.526978607110845L14.85 28.346331120540185L14.537109375 28.526978607110845L13.702734374999999 28.04525197625575L13.702734374999999 31.77863336538273" stroke-width="0.03" stroke="#000000" fill="none"/>
<path d="M13.494140625 31.658201707668955L13.181249999999999 31.838849194239618L13.076953125000001 31.77863336538273" stroke-width="0.03" stroke="#000000" fill="none"/>
<path d="M13.181249999999999 31.838849194239618L13.181249999999999 31.477554221098295" stroke-width="0.03" stroke="#000000" fill="none"/>
<path d="M13.076953125000001 31.41733839224141L13.076953125000001 32.139928338524044L12.97265625 32.200144167380934L12.451171875 31.8990650230965L11.72109375 32.32057582509471L11.72109375 32.56143914052225L12.555468750000001 33.043165771377346L14.224218749999999 32.07971250966716L14.328515625 32.139928338524044L14.328515625 32.86251828480669L14.745703124999999 33.103381600234236L14.85 33.043165771377346L14.954296875 33.103381600234236L15.371484375 32.86251828480669L15.371484375 32.139928338524044L15.47578125 32.07971250966716L17.14453125 33.043165771377346L17.978906249999998 32.56143914052225L17.978906249999998 32.32057582509471L17.248828125 31.8990650230965L16.72734375 32.200144167380934L16.623046875 32.139928338524044L16.623046875 31.41733839224141" stroke-width="0.03" stroke="#000000" fill="none"/>
<path d="M16.51875 31.477554221098295L16.51875 31.838849194239618L16.623046875 31.77863336538273" stroke-width="0.03" stroke="#000000" fill="none"/>
<path d="M16.51875 31.838849194239618L16.205859375 31.658201707668955" stroke-width="0.03" stroke="#000000" fill="none"/>
<path d="M15.997265625 31.77863336538273L18.81328125 30.152805986246786L18.81328125 24.492518073699433L18.6046875 24.37208641598566L18.6046875 24.010791442844337" stroke-width="0.03" stroke="#000000" fill="none"/>
<path d="M18.708984375 24.071007271701223L19.021874999999998 23.890359785130563L19.021874999999998 30.152805986246786L19.439062500000002 29.91194267081924L19.439062500000002 23.649496469703017L24.8625 20.518273369144907L24.8625 20.03654673828981L24.653906250000002 19.916115080576038" stroke-width="0.03" stroke="#000000" fill="none"/>
<path d="M24.758203125 19.85589925171915L19.85625 22.686043207992828L19.647656249999997 22.565611550279055L19.334765625 22.746259036849715" stroke-width="0.03" stroke="#000000" fill="none"/>
<path d="M19.23046875 22.686043207992828L19.439062500000002 22.8064748657066L19.439062500000002 23.167769838847924L24.8625 20.03654673828981" stroke-width="0.03" stroke="#000000" fill="none"/>
<path d="M24.758203125 19.85589925171915L24.758203125 16.60424449344727" stroke-width="0.03" stroke="#000000" fill="none"/>
<path d="M24.758203125 16.845107808874815L25.07109375 17.025755295445475L25.07109375 17.146186953159244" stroke-width="0.03" stroke="#000000" fill="none"/>
<path d="M25.07109375 17.025755295445475L24.758203125 17.206402782016134" stroke-width="0.03" stroke="#000000" fill="none"/>
<path d="M24.758203125 17.326834439729907L25.383984374999997 16.965539466588588L25.48828125 17.025755295445475L25.48828125 17.62791358401434L26.218359375 18.049424386012547L26.426953124999997 17.928992728298773L26.426953124999997 16.965539466588588L24.758203125 16.0020862048784L24.549609375 16.122517862592172L24.549609375 16.483812835733495" stroke-width="0.03" stroke="#000000" fill="none"/>
<path d="M24.549609375 16.122517862592172L26.218359375 17.08597112430236L26.218359375 18.290287701440096L25.90546875 18.470935188010756L25.592578125 18.290287701440096" stroke-width="0.03" stroke="#000000" fill="none"/>
<path d="M25.592578125 18.049424386012547L25.592578125 21.18064748657066L25.90546875 21" stroke-width="0.03" stroke="#000000" fill="none"/>
<path d="M26.009765625 21.060215828856883L27.052734375 21.662374117425752L27.052734375 24.071007271701223L26.844140625 24.191438929414996L26.844140625 24.311870587128773L27.261328125 24.55273390255632L27.678515625 24.311870587128773L27.678515625 24.191438929414996L27.052734375 23.830143956273677" stroke-width="0.03" stroke="#000000" fill="none"/>
<path d="M26.844140625 24.191438929414996L27.261328125 24.432302244842543L27.261328125 24.55273390255632" stroke-width="0.03" stroke="#000000" fill="none"/>
<path d="M27.261328125 24.432302244842543L27.678515625 24.191438929414996" stroke-width="0.03" stroke="#000000" fill="none"/>
<path d="M27.052734375 24.432302244842543L27.052734375 25.51618716426651L26.1140625 26.058129623978488L26.009765625 25.9979137951216" stroke-width="0.03" stroke="#000000" fill="none"/>
<path d="M26.1140625 26.058129623978488L26.1140625 22.204316577137735L27.052734375 21.662374117425752" stroke-width="0.03" stroke="#000000" fill="none"/>
<path d="M26.322656249999998 20.879568342286227L25.90546875 21.120431657713773" stroke-width="0.03" stroke="#000000" fill="none"/>
<path d="M26.322656249999998 20.879568342286227L26.322656249999998 19.916115080576038" stroke-width="0.03" stroke="#000000" fill="none"/>
<path d="M26.635546875 20.096762567146698L26.635546875 18.16985604372632L26.9484375 17.989208557155663" stroke-width="0.03" stroke="#000000" fill="none"/>
<path d="M26.635546875 18.16985604372632L26.322656249999998 17.989208557155663" stroke-width="0.03" stroke="#000000" fill="none"/>
<path d="M26.53125 17.748345241728117L26.73984375 17.62791358401434L26.73984375 17.387050268586794" stroke-width="0.03" stroke="#000000" fill="none"/>
<path d="M26.426953124999997 16.965539466588588L26.218359375 17.08597112430236" stroke-width="0.03" stroke="#000000" fill="none"/>
<path d="M26.322656249999998 16.905323637731698L26.322656249999998 15.94187037602151L26.009765625 15.761222889450853L25.592578125 16.0020862048784L25.592578125 16.483812835733495" stroke-width="0.03" stroke="#000000" fill="none"/>
<path d="M25.592578125 16.24294952030595L25.383984374999997 16.36338117801972" stroke-width="0.03" stroke="#000000" fill="none"/>
<path d="M25.592578125 16.0020862048784L25.90546875 16.18273369144906L26.322656249999998 15.94187037602151" stroke-width="0.03" stroke="#000000" fill="none"/>
<path d="M26.53125 16.303165349162832L26.53125 14.978417114311325L25.90546875 14.617122141170004L25.90546875 13.894532194887363L24.758203125 13.232158077461609" stroke-width="0.03" stroke="#000000" fill="none"/>
<path d="M24.549609375 13.352589735175382L25.592578125 12.750431446606514" stroke-width="0.03" stroke="#000000" fill="none"/>
<path d="M25.48828125 12.690215617749628L24.4453125 13.292373906318495" stroke-width="0.03" stroke="#000000" fill="none"/>
<path d="M24.132421875000002 13.111726419747836L24.966796875000004 13.593453050602928L24.966796875000004 13.95474802374425L24.549609375 14.195611339171796L24.132421875000002 13.95474802374425" stroke-width="0.03" stroke="#000000" fill="none"/>
<path d="M24.341015624999997 14.075179681458023L24.132421875000002 14.195611339171796" stroke-width="0.03" stroke="#000000" fill="none"/>
<path d="M24.549609375 14.195611339171796L24.549609375 13.834316366030475L24.132421875000002 13.593453050602928" stroke-width="0.03" stroke="#000000" fill="none"/>
<path d="M24.549609375 13.834316366030475L24.966796875000004 13.593453050602928" stroke-width="0.03" stroke="#000000" fill="none"/>
<path d="M25.90546875 13.894532194887363L24.23671875 14.85798545659755L24.23671875 14.978417114311325L24.8625 14.617122141170004L25.279687499999998 14.85798545659755L25.279687499999998 14.978417114311325L25.383984374999997 15.038632943168212L25.383984374999997 15.520359574023306L24.758203125 15.881654547164626L24.758203125 16.0020862048784" stroke-width="0.03" stroke="#000000" fill="none"/>
<path d="M24.8625 16.062302033735286L24.8625 15.94187037602151L26.53125 14.978417114311325" stroke-width="0.03" stroke="#000000" fill="none"/>
<path d="M25.90546875 14.617122141170004L23.610937500000002 15.94187037602151L23.715234375 16.0020862048784L23.715234375 16.72467615116104" stroke-width="0.03" stroke="#000000" fill="none"/>
<path d="M23.40234375 16.905323637731698L23.193749999999998 16.784891980017925L22.359375 17.26661861087302L21.837890625 16.965539466588588L17.040234375 19.735467594005378L17.248828125 19.85589925171915" stroke-width="0.03" stroke="#000000" fill="none"/>
<path d="M17.040234375 19.735467594005378L17.040234375 19.49460427857783L21.003515625000002 17.206402782016134" stroke-width="0.03" stroke="#000000" fill="none"/>
<path d="M21.212109374999997 16.965539466588588L20.377734375 16.483812835733495L23.610937500000002 14.617122141170004" stroke-width="0.03" stroke="#000000" fill="none"/>
<path d="M23.610937500000002 14.85798545659755L23.923828125000004 15.038632943168212L24.132421875000002 14.918201285454437L24.132421875000002 12.991294762034062L23.298046874999997 12.509568131178968L23.089453125000002 12.629999788892741L23.089453125000002 13.473021392889155L23.610937500000002 13.77410053717359L23.610937500000002 13.894532194887363L22.98515625 14.255827168028683" stroke-width="0.03" stroke="#000000" fill="none"/>
<path d="M22.880859375 14.195611339171796L23.610937500000002 13.77410053717359" stroke-width="0.03" stroke="#000000" fill="none"/>
<path d="M23.40234375 14.13539551031491L23.089453125000002 14.31604299688557" stroke-width="0.03" stroke="#000000" fill="none"/>
<path d="M23.298046874999997 14.075179681458023L23.40234375 14.13539551031491L23.40234375 14.49669048345623" stroke-width="0.03" stroke="#000000" fill="none"/>
<path d="M23.923828125000004 15.038632943168212L23.923828125000004 13.111726419747836L24.132421875000002 12.991294762034062" stroke-width="0.03" stroke="#000000" fill="none"/>
<path d="M23.923828125000004 13.111726419747836L22.880859375 12.509568131178968L22.567968750000002 12.690215617749628L22.567968750000002 13.051510590890949" stroke-width="0.03" stroke="#000000" fill="none"/>
<path d="M22.7765625 13.171942248604722L22.7765625 13.533237221746042L22.255078124999997 13.834316366030475" stroke-width="0.03" stroke="#000000" fill="none"/>
<path d="M21.9421875 13.653668879459815L22.880859375 13.111726419747836L23.089453125000002 13.232158077461609" stroke-width="0.03" stroke="#000000" fill="none"/>
<path d="M23.089453125000002 12.991294762034062L22.567968750000002 12.690215617749628" stroke-width="0.03" stroke="#000000" fill="none"/>
<path d="M22.7765625 13.171942248604722L20.064843749999998 11.606330698325666L20.377734375 11.425683211755006" stroke-width="0.03" stroke="#000000" fill="none"/>
<path d="M20.377734375 11.305251554041233L20.377734375 10.100934976903497L18.291796875 8.896618399765762L18.083203125 9.017050057479535L17.978906249999998 8.956834228622649L17.978906249999998 8.475107597767554L18.396093750000002 8.234244282340008L18.500390624999998 8.294460111196894L18.500390624999998 9.017050057479535" stroke-width="0.03" stroke="#000000" fill="none"/>
<path d="M18.083203125 9.017050057479535L18.083203125 8.53532342662444L18.500390624999998 8.294460111196894" stroke-width="0.03" stroke="#000000" fill="none"/>
<path d="M18.083203125 8.53532342662444L17.978906249999998 8.475107597767554" stroke-width="0.03" stroke="#000000" fill="none"/>
<path d="M17.978906249999998 8.715970913195102L17.040234375 8.174028453483121L16.1015625 8.715970913195102L16.1015625 8.836402570908875" stroke-width="0.03" stroke="#000000" fill="none"/>
<path d="M16.1015625 8.715970913195102L19.439062500000002 10.642877436615478L19.439062500000002 11.245035725184344" stroke-width="0.03" stroke="#000000" fill="none"/>
<path d="M19.439062500000002 10.642877436615478L20.377734375 10.100934976903497" stroke-width="0.03" stroke="#000000" fill="none"/>
<path d="M20.690625 11.124604067470571L20.2734375 11.365467382898117" stroke-width="0.03" stroke="#000000" fill="none"/>
<path d="M20.377734375 11.54611486946878L21.31640625 12.08805732918076" stroke-width="0.03" stroke="#000000" fill="none"/>
<path d="M21.003515625000002 12.027841500323873L21.003515625000002 12.148273158037647" stroke-width="0.03" stroke="#000000" fill="none"/>
<path d="M20.89921875 11.967625671466987L20.794921875 12.027841500323873" stroke-width="0.03" stroke="#000000" fill="none"/>
<path d="M21.525000000000002 11.606330698325666L20.690625 11.124604067470571" stroke-width="0.03" stroke="#000000" fill="none"/>
<path d="M21.525000000000002 11.245035725184344L23.193749999999998 12.208488986894533L23.506640625 12.027841500323873" stroke-width="0.03" stroke="#000000" fill="none"/>
<path d="M23.193749999999998 12.208488986894533L23.193749999999998 12.569783960035853" stroke-width="0.03" stroke="#000000" fill="none"/>
<path d="M24.132421875000002 14.797769627740664L24.23671875 14.85798545659755" stroke-width="0.03" stroke="#000000" fill="none"/>
<path d="M24.132421875000002 14.918201285454437L24.23671875 14.978417114311325" stroke-width="0.03" stroke="#000000" fill="none"/>
<path d="M24.758203125 15.881654547164626L24.8625 15.94187037602151" stroke-width="0.03" stroke="#000000" fill="none"/>
<path d="M25.383984374999997 15.038632943168212L23.715234375 16.0020862048784" stroke-width="0.03" stroke="#000000" fill="none"/>
<path d="M23.610937500000002 15.94187037602151L23.610937500000002 15.82143871830774L25.279687499999998 14.85798545659755" stroke-width="0.03" stroke="#000000" fill="none"/>
<path d="M25.90546875 16.18273369144906L25.90546875 16.66446032230415" stroke-width="0.03" stroke="#000000" fill="none"/>
<path d="M26.322656249999998 16.54402866459038L27.365624999999998 15.94187037602151" stroke-width="0.03" stroke="#000000" fill="none"/>
<path d="M27.365624999999998 15.82143871830774L26.322656249999998 16.423597006876605" stroke-width="0.03" stroke="#000000" fill="none"/>
<path d="M25.48828125 17.025755295445475L24.758203125 17.44726609744368" stroke-width="0.03" stroke="#000000" fill="none"/>
<path d="M25.279687499999998 17.86877689944189L24.758203125 18.16985604372632" stroke-width="0.03" stroke="#000000" fill="none"/>
<path d="M24.758203125 18.531151016867643L25.696875000000002 17.989208557155663L25.696875000000002 17.748345241728117" stroke-width="0.03" stroke="#000000" fill="none"/>
<path d="M25.90546875 17.86877689944189L25.90546875 18.470935188010756" stroke-width="0.03" stroke="#000000" fill="none"/>
<path d="M25.592578125 18.049424386012547L25.279687499999998 17.86877689944189" stroke-width="0.03" stroke="#000000" fill="none"/>
<path d="M23.715234375 16.36338117801972L23.193749999999998 16.66446032230415" stroke-width="0.03" stroke="#000000" fill="none"/>
<path d="M23.193749999999998 16.784891980017925L23.193749999999998 16.18273369144906L22.672265625 15.881654547164626L22.672265625 15.640791231737078" stroke-width="0.03" stroke="#000000" fill="none"/>
<path d="M22.672265625 15.881654547164626L21.837890625 16.36338117801972L21.837890625 16.965539466588588" stroke-width="0.03" stroke="#000000" fill="none"/>
<path d="M22.359375 17.26661861087302L22.359375 16.66446032230415L23.298046874999997 16.122517862592172L23.715234375 16.36338117801972" stroke-width="0.03" stroke="#000000" fill="none"/>
<path d="M23.298046874999997 16.122517862592172L23.298046874999997 15.640791231737078L22.7765625 15.94187037602151" stroke-width="0.03" stroke="#000000" fill="none"/>
<path d="M22.98515625 15.460143745166418L23.610937500000002 15.82143871830774" stroke-width="0.03" stroke="#000000" fill="none"/>
<path d="M22.359375 16.66446032230415L21.837890625 16.36338117801972" stroke-width="0.03" stroke="#000000" fill="none"/>
<path d="M24.23671875 20.879568342286227L24.23671875 23.047338181134148" stroke-width="0.03" stroke="#000000" fill="none"/>
<path d="M24.341015624999997 23.107554009991038L23.715234375 23.468848983132357L23.715234375 21.18064748657066" stroke-width="0.03" stroke="#000000" fill="none"/>
<path d="M23.923828125000004 22.866690694563488L23.715234375 22.98712235227726" stroke-width="0.03" stroke="#000000" fill="none"/>
<path d="M23.923828125000004 22.866690694563488L24.341015624999997 23.107554009991038L24.341015624999997 25.75705047969405" stroke-width="0.03" stroke="#000000" fill="none"/>
<path d="M23.923828125000004 26.118345452835374L23.819531249999997 26.058129623978488" stroke-width="0.03" stroke="#000000" fill="none"/>
<path d="M23.715234375 26.118345452835374L24.653906250000002 26.660287912547354L25.48828125 26.17856128169226" stroke-width="0.03" stroke="#000000" fill="none"/>
<path d="M24.8625 26.780719570261127L25.801171875 27.322662029973106L25.801171875 23.95057561398745L26.009765625 23.830143956273677L25.592578125 23.58928064084613" stroke-width="0.03" stroke="#000000" fill="none"/>
<path d="M25.592578125 23.830143956273677L25.801171875 23.95057561398745" stroke-width="0.03" stroke="#000000" fill="none"/>
<path d="M26.009765625 23.830143956273677L26.009765625 27.202230372259333L26.1140625 27.142014543402446L26.1140625 27.382877858829996L26.009765625 27.443093687686883L26.009765625 27.563525345400656L25.801171875 27.68395700311443L25.696875000000002 27.623741174257542" stroke-width="0.03" stroke="#000000" fill="none"/>
<path d="M25.801171875 27.563525345400656L22.880859375 29.249568553393484L22.463671875 29.008705237965938" stroke-width="0.03" stroke="#000000" fill="none"/>
<path d="M22.672265625 28.888273580252164L22.880859375 29.008705237965938L22.880859375 29.249568553393484" stroke-width="0.03" stroke="#000000" fill="none"/>
<path d="M22.880859375 29.008705237965938L25.801171875 27.322662029973106" stroke-width="0.03" stroke="#000000" fill="none"/>
<path d="M25.801171875 27.563525345400656L25.801171875 27.68395700311443" stroke-width="0.03" stroke="#000000" fill="none"/>
<path d="M26.1140625 27.142014543402446L26.009765625 27.081798714545563" stroke-width="0.03" stroke="#000000" fill="none"/>
<path d="M24.653906250000002 26.660287912547354L24.653906250000002 27.623741174257542" stroke-width="0.03" stroke="#000000" fill="none"/>
<path d="M24.758203125 28.165683633969522L24.8625 28.22589946282641L24.8625 29.30978438225037L23.923828125000004 29.851726841962353" stroke-width="0.03" stroke="#000000" fill="none"/>
<path d="M24.028125 30.032374328533013L24.132421875000002 29.972158499676127L24.132421875000002 30.45388513053122L24.028125 30.514100959388106L23.40234375 30.152805986246786" stroke-width="0.03" stroke="#000000" fill="none"/>
<path d="M23.610937500000002 30.032374328533013L21.525000000000002 31.236690905670745L20.482031250000002 30.63453261710188" stroke-width="0.03" stroke="#000000" fill="none"/>
<path d="M20.482031250000002 30.514100959388106L20.482031250000002 30.995827590243202L19.647656249999997 31.477554221098295" stroke-width="0.03" stroke="#000000" fill="none"/>
<path d="M19.334765625 31.296906734527635L19.334765625 30.815180103672542" stroke-width="0.03" stroke="#000000" fill="none"/>
<path d="M19.439062500000002 30.754964274815652L19.543359374999998 30.815180103672542" stroke-width="0.03" stroke="#000000" fill="none"/>
<path d="M19.647656249999997 30.754964274815652L19.647656249999997 30.63453261710188" stroke-width="0.03" stroke="#000000" fill="none"/>
<path d="M19.126171875 30.935611761386316L19.126171875 31.17647507681386" stroke-width="0.03" stroke="#000000" fill="none"/>
<path d="M19.021874999999998 31.11625924795697L19.021874999999998 30.995827590243202" stroke-width="0.03" stroke="#000000" fill="none"/>
<path d="M18.917578125000002 31.056043419100085L19.960546875000002 31.658201707668955L19.960546875000002 32.01949668081028L18.291796875 32.98294994252046L17.7703125 32.68187079823603" stroke-width="0.03" stroke="#000000" fill="none"/>
<path d="M17.666015625 32.74208662709292L17.666015625 33.94640320423065L17.248828125 34.187266519658195" stroke-width="0.03" stroke="#000000" fill="none"/>
<path d="M17.14453125 34.12705069080131L14.85 35.451798925652824L12.555468750000001 34.12705069080131L12.033984375000001 34.42812983508574L12.033984375000001 34.66899315051329L14.4328125 36.05395721422168L14.85 35.813093898794136L15.267187499999999 36.05395721422168L17.666015625 34.66899315051329L17.666015625 34.42812983508574L17.14453125 34.12705069080131" stroke-width="0.03" stroke="#000000" fill="none"/>
<path d="M16.72734375 34.36791400622886L16.72734375 33.163597429091126" stroke-width="0.03" stroke="#000000" fill="none"/>
<path d="M16.623046875 33.22381325794801L16.623046875 34.42812983508574" stroke-width="0.03" stroke="#000000" fill="none"/>
<path d="M16.623046875 33.464676573375556L15.47578125 34.12705069080131L14.85 33.76575571765999L14.224218749999999 34.12705069080131L13.076953125000001 33.464676573375556" stroke-width="0.03" stroke="#000000" fill="none"/>
<path d="M13.076953125000001 33.22381325794801L13.076953125000001 34.42812983508574" stroke-width="0.03" stroke="#000000" fill="none"/>
<path d="M12.97265625 34.36791400622886L12.97265625 33.163597429091126" stroke-width="0.03" stroke="#000000" fill="none"/>
<path d="M12.659765624999999 32.98294994252046L13.494140625 33.464676573375556L13.80703125 33.2840290868049L13.80703125 32.8023024559498L13.389843749999999 32.56143914052225" stroke-width="0.03" stroke="#000000" fill="none"/>
<path d="M13.598437500000001 32.44100748280849L13.598437500000001 32.68187079823603" stroke-width="0.03" stroke="#000000" fill="none"/>
<path d="M13.80703125 32.8023024559498L13.494140625 32.98294994252046L13.494140625 33.464676573375556" stroke-width="0.03" stroke="#000000" fill="none"/>
<path d="M13.494140625 32.98294994252046L13.076953125000001 32.74208662709292" stroke-width="0.03" stroke="#000000" fill="none"/>
<path d="M12.555468750000001 32.8023024559498L12.555468750000001 33.043165771377346" stroke-width="0.03" stroke="#000000" fill="none"/>
<path d="M12.033984375000001 33.103381600234236L11.825390624999999 32.98294994252046L11.825390624999999 32.74208662709292" stroke-width="0.03" stroke="#000000" fill="none"/>
<path d="M11.9296875 32.68187079823603L11.408203125 32.98294994252046L9.739453124999999 32.01949668081028L9.739453124999999 31.658201707668955L10.782421874999999 31.056043419100085" stroke-width="0.03" stroke="#000000" fill="none"/>
<path d="M10.678125 30.995827590243202L10.678125 31.11625924795697" stroke-width="0.03" stroke="#000000" fill="none"/>
<path d="M10.573828124999999 31.17647507681386L10.573828124999999 30.935611761386316" stroke-width="0.03" stroke="#000000" fill="none"/>
<path d="M10.365234375 30.815180103672542L10.365234375 31.296906734527635" stroke-width="0.03" stroke="#000000" fill="none"/>
<path d="M10.05234375 31.477554221098295L9.21796875 30.995827590243202L9.21796875 30.514100959388106" stroke-width="0.03" stroke="#000000" fill="none"/>
<path d="M9.21796875 30.63453261710188L8.175 31.236690905670745L6.089062499999999 30.032374328533013L6.089062499999999 29.791511013105463L5.984765624999999 29.731295184248577L5.567578125 29.972158499676127L5.567578125 30.45388513053122L5.671875 30.514100959388106L6.297656249999999 30.152805986246786" stroke-width="0.03" stroke="#000000" fill="none"/>
<path d="M6.089062499999999 29.791511013105463L5.671875 30.032374328533013L5.671875 30.514100959388106" stroke-width="0.03" stroke="#000000" fill="none"/>
<path d="M5.671875 30.032374328533013L5.567578125 29.972158499676127" stroke-width="0.03" stroke="#000000" fill="none"/>
<path d="M5.776171874999998 29.851726841962353L4.8374999999999995 29.30978438225037L4.8374999999999995 28.22589946282641L4.941796875 28.165683633969522" stroke-width="0.03" stroke="#000000" fill="none"/>
<path d="M4.8374999999999995 28.22589946282641L8.175 30.152805986246786L8.696484375 29.851726841962353" stroke-width="0.03" stroke="#000000" fill="none"/>
<path d="M8.175 30.152805986246786L8.175 31.236690905670745" stroke-width="0.03" stroke="#000000" fill="none"/>
<path d="M9.739453124999999 31.658201707668955L11.408203125 32.621654969379136L11.72109375 32.44100748280849" stroke-width="0.03" stroke="#000000" fill="none"/>
<path d="M11.408203125 32.621654969379136L11.408203125 32.98294994252046" stroke-width="0.03" stroke="#000000" fill="none"/>
<path d="M12.033984375000001 32.74208662709292L12.033984375000001 33.94640320423065L12.451171875 34.187266519658195" stroke-width="0.03" stroke="#000000" fill="none"/>
<path d="M12.033984375000001 34.42812983508574L14.4328125 35.813093898794136L14.85 35.57223058336659L15.267187499999999 35.813093898794136L17.666015625 34.42812983508574" stroke-width="0.03" stroke="#000000" fill="none"/>
<path d="M17.666015625 33.103381600234236L17.874609375000002 32.98294994252046L17.874609375000002 32.74208662709292" stroke-width="0.03" stroke="#000000" fill="none"/>
<path d="M17.978906249999998 32.44100748280849L18.291796875 32.621654969379136L19.960546875000002 31.658201707668955" stroke-width="0.03" stroke="#000000" fill="none"/>
<path d="M21.525000000000002 31.236690905670745L21.525000000000002 30.152805986246786L24.8625 28.22589946282641" stroke-width="0.03" stroke="#000000" fill="none"/>
<path d="M24.132421875000002 27.322662029973106L24.028125 27.382877858829996L23.506640625 27.081798714545563L23.193749999999998 27.26244620111622L23.089453125000002 27.202230372259333" stroke-width="0.03" stroke="#000000" fill="none"/>
<path d="M23.193749999999998 27.142014543402446L23.193749999999998 27.26244620111622" stroke-width="0.03" stroke="#000000" fill="none"/>
<path d="M23.506640625 27.081798714545563L23.506640625 26.96136705683179" stroke-width="0.03" stroke="#000000" fill="none"/>
<path d="M24.028125 27.26244620111622L24.028125 27.382877858829996" stroke-width="0.03" stroke="#000000" fill="none"/>
<path d="M23.819531249999997 26.29899293940603L23.715234375 26.238777110549147" stroke-width="0.03" stroke="#000000" fill="none"/>
<path d="M24.341015624999997 25.154892191125185L24.4453125 25.0946763622683" stroke-width="0.03" stroke="#000000" fill="none"/>
<path d="M21.420703125 24.793597217983862L19.439062500000002 25.937697966264714" stroke-width="0.03" stroke="#000000" fill="none"/>
<path d="M19.439062500000002 25.576402993123395L19.751953125 25.39575550655273L19.751953125 23.830143956273677L21.107812499999998 23.047338181134148L21.107812499999998 22.686043207992828" stroke-width="0.03" stroke="#000000" fill="none"/>
<path d="M21.420703125 22.50539572142217L21.420703125 24.793597217983862L21.003515625000002 24.55273390255632L19.751953125 25.27532384883896" stroke-width="0.03" stroke="#000000" fill="none"/>
<path d="M18.81328125 24.492518073699433L18.500390624999998 24.673165560270093" stroke-width="0.03" stroke="#000000" fill="none"/>
<path d="M18.500390624999998 24.191438929414996L18.6046875 24.13122310055811" stroke-width="0.03" stroke="#000000" fill="none"/>
<path d="M18.708984375 24.071007271701223L18.708984375 23.58928064084613L19.021874999999998 23.40863315427547L19.021874999999998 23.047338181134148L18.81328125 22.926906523420374" stroke-width="0.03" stroke="#000000" fill="none"/>
<path d="M19.021874999999998 23.047338181134148L19.439062500000002 22.8064748657066" stroke-width="0.03" stroke="#000000" fill="none"/>
<path d="M19.439062500000002 22.686043207992828L19.439062500000002 22.565611550279055" stroke-width="0.03" stroke="#000000" fill="none"/>
<path d="M19.85625 22.686043207992828L19.85625 22.32474823485151" stroke-width="0.03" stroke="#000000" fill="none"/>
<path d="M19.543359374999998 23.58928064084613L19.543359374999998 23.709712298559904L19.439062500000002 23.76992812741679" stroke-width="0.03" stroke="#000000" fill="none"/>
<path d="M19.543359374999998 23.709712298559904L19.439062500000002 23.649496469703017" stroke-width="0.03" stroke="#000000" fill="none"/>
<path d="M19.021874999999998 23.40863315427547L18.6046875 23.167769838847924L18.500390624999998 23.227985667704807" stroke-width="0.03" stroke="#000000" fill="none"/>
<path d="M18.6046875 23.167769838847924L18.6046875 23.047338181134148" stroke-width="0.03" stroke="#000000" fill="none"/>
<path d="M18.500390624999998 23.468848983132357L18.708984375 23.58928064084613" stroke-width="0.03" stroke="#000000" fill="none"/>
<path d="M18.500390624999998 23.95057561398745L18.708984375 24.071007271701223" stroke-width="0.03" stroke="#000000" fill="none"/>
<path d="M17.248828125 22.384964063708395L14.85 21L14.85 18.23007187258321L12.659765624999999 19.49460427857783" stroke-width="0.03" stroke="#000000" fill="none"/>
<path d="M13.494140625 20.21719422486047L14.224218749999999 19.795683422862265L14.224218749999999 20.63870502685868L13.494140625 21.060215828856883L13.494140625 20.21719422486047L13.80703125 20.397841711431134L13.494140625 20.57848919800179" stroke-width="0.03" stroke="#000000" fill="none"/>
<path d="M13.494140625 20.819352513429337L13.80703125 20.63870502685868L13.911328125 20.698920855715564" stroke-width="0.03" stroke="#000000" fill="none"/>
<path d="M14.119921875 20.57848919800179L13.494140625 20.939784171143113" stroke-width="0.03" stroke="#000000" fill="none"/>
<path d="M13.80703125 20.397841711431134L13.80703125 20.03654673828981" stroke-width="0.03" stroke="#000000" fill="none"/>
<path d="M14.015625 19.916115080576038L14.015625 20.277410053717357L14.119921875 20.337625882574244" stroke-width="0.03" stroke="#000000" fill="none"/>
<path d="M14.119921875 20.57848919800179L14.119921875 19.85589925171915" stroke-width="0.03" stroke="#000000" fill="none"/>
<path d="M14.119921875 20.57848919800179L14.224218749999999 20.63870502685868" stroke-width="0.03" stroke="#000000" fill="none"/>
<path d="M14.85 21L12.451171875 22.384964063708395" stroke-width="0.03" stroke="#000000" fill="none"/>
<path d="M11.199609375 23.227985667704807L11.095312499999999 23.167769838847924" stroke-width="0.03" stroke="#000000" fill="none"/>
<path d="M10.46953125 22.686043207992828L10.260937499999999 22.8064748657066" stroke-width="0.03" stroke="#000000" fill="none"/>
<path d="M10.260937499999999 22.686043207992828L10.260937499999999 22.565611550279055" stroke-width="0.03" stroke="#000000" fill="none"/>
<path d="M10.05234375 22.565611550279055L9.84375 22.686043207992828L4.941796875 19.85589925171915" stroke-width="0.03" stroke="#000000" fill="none"/>
<path d="M4.8374999999999995 20.03654673828981L4.8374999999999995 20.518273369144907L10.260937499999999 23.649496469703017L10.260937499999999 29.91194267081924L10.678125 30.152805986246786L10.88671875 30.032374328533013" stroke-width="0.03" stroke="#000000" fill="none"/>
<path d="M10.678125 30.152805986246786L10.678125 23.890359785130563L10.991015625000001 24.071007271701223" stroke-width="0.03" stroke="#000000" fill="none"/>
<path d="M10.88671875 24.492518073699433L11.199609375 24.673165560270093" stroke-width="0.03" stroke="#000000" fill="none"/>
<path d="M10.260937499999999 23.76992812741679L10.156640625 23.709712298559904L10.156640625 23.58928064084613" stroke-width="0.03" stroke="#000000" fill="none"/>
<path d="M10.260937499999999 23.649496469703017L10.156640625 23.709712298559904" stroke-width="0.03" stroke="#000000" fill="none"/>
<path d="M9.948046875 23.830143956273677L9.948046875 25.39575550655273L10.260937499999999 25.576402993123395" stroke-width="0.03" stroke="#000000" fill="none"/>
<path d="M10.260937499999999 25.937697966264714L8.279296875 24.793597217983862L8.279296875 22.50539572142217" stroke-width="0.03" stroke="#000000" fill="none"/>
<path d="M8.5921875 22.686043207992828L8.5921875 23.047338181134148L9.948046875 23.830143956273677" stroke-width="0.03" stroke="#000000" fill="none"/>
<path d="M9.84375 22.686043207992828L9.84375 22.32474823485151" stroke-width="0.03" stroke="#000000" fill="none"/>
<path d="M10.05234375 22.565611550279055L10.365234375 22.746259036849715" stroke-width="0.03" stroke="#000000" fill="none"/>
<path d="M8.696484375 23.107554009991038L8.696484375 24.55273390255632L9.948046875 25.27532384883896" stroke-width="0.03" stroke="#000000" fill="none"/>
<path d="M8.696484375 24.55273390255632L8.279296875 24.793597217983862" stroke-width="0.03" stroke="#000000" fill="none"/>
<path d="M5.984765624999999 26.118345452835374L5.046093749999999 26.660287912547354L4.211718750000001 26.17856128169226" stroke-width="0.03" stroke="#000000" fill="none"/>
<path d="M3.6902343750000006 25.9979137951216L3.5859375 26.058129623978488L2.647265625000001 25.51618716426651L2.647265625000001 24.432302244842543" stroke-width="0.03" stroke="#000000" fill="none"/>
<path d="M2.438671874999999 24.432302244842543L2.8558593750000005 24.191438929414996L2.8558593750000005 24.311870587128773L2.438671874999999 24.55273390255632L2.021484375 24.311870587128773L2.021484375 24.191438929414996L2.647265625000001 23.830143956273677" stroke-width="0.03" stroke="#000000" fill="none"/>
<path d="M2.647265625000001 24.071007271701223L2.647265625000001 21.662374117425752L3.6902343750000006 21.060215828856883" stroke-width="0.03" stroke="#000000" fill="none"/>
<path d="M3.7945312499999995 21L4.107421875 21.18064748657066L4.107421875 18.049424386012547L4.4203125 17.86877689944189L4.941796875 18.16985604372632" stroke-width="0.03" stroke="#000000" fill="none"/>
<path d="M4.941796875 18.531151016867643L4.003124999999999 17.989208557155663L4.003124999999999 17.748345241728117" stroke-width="0.03" stroke="#000000" fill="none"/>
<path d="M3.7945312499999995 17.86877689944189L3.7945312499999995 18.470935188010756L4.107421875 18.290287701440096" stroke-width="0.03" stroke="#000000" fill="none"/>
<path d="M3.7945312499999995 18.470935188010756L3.481640624999999 18.290287701440096L3.481640624999999 17.08597112430236L3.2730468750000017 16.965539466588588" stroke-width="0.03" stroke="#000000" fill="none"/>
<path d="M2.960156250000001 17.387050268586794L2.960156250000001 17.62791358401434L3.1687499999999984 17.748345241728117" stroke-width="0.03" stroke="#000000" fill="none"/>
<path d="M3.3773437500000005 17.989208557155663L3.064453125 18.16985604372632L2.7515624999999995 17.989208557155663" stroke-width="0.03" stroke="#000000" fill="none"/>
<path d="M3.064453125 18.16985604372632L3.064453125 20.096762567146698" stroke-width="0.03" stroke="#000000" fill="none"/>
<path d="M4.003124999999999 20.156978396003588L4.107421875 20.096762567146698" stroke-width="0.03" stroke="#000000" fill="none"/>
<path d="M4.003124999999999 20.277410053717357L4.107421875 20.337625882574244" stroke-width="0.03" stroke="#000000" fill="none"/>
<path d="M4.107421875 21.903237432853302L3.5859375 22.204316577137735L2.647265625000001 21.662374117425752" stroke-width="0.03" stroke="#000000" fill="none"/>
<path d="M3.5859375 22.204316577137735L3.5859375 26.058129623978488" stroke-width="0.03" stroke="#000000" fill="none"/>
<path d="M3.6902343750000006 27.081798714545563L3.5859375 27.142014543402446L3.5859375 27.382877858829996L3.6902343750000006 27.443093687686883L3.6902343750000006 27.563525345400656L3.898828125 27.68395700311443L4.003124999999999 27.623741174257542" stroke-width="0.03" stroke="#000000" fill="none"/>
<path d="M3.898828125 27.563525345400656L3.898828125 27.68395700311443" stroke-width="0.03" stroke="#000000" fill="none"/>
<path d="M3.898828125 27.563525345400656L6.819140625 29.249568553393484L7.236328125 29.008705237965938" stroke-width="0.03" stroke="#000000" fill="none"/>
<path d="M7.027734374999999 28.888273580252164L6.819140625 29.008705237965938L6.819140625 29.249568553393484" stroke-width="0.03" stroke="#000000" fill="none"/>
<path d="M6.819140625 29.008705237965938L3.898828125 27.322662029973106L3.898828125 23.95057561398745L3.6902343750000006 23.830143956273677L3.6902343750000006 27.202230372259333L3.5859375 27.142014543402446" stroke-width="0.03" stroke="#000000" fill="none"/>
<path d="M3.898828125 27.322662029973106L4.8374999999999995 26.780719570261127" stroke-width="0.03" stroke="#000000" fill="none"/>
<path d="M5.046093749999999 26.660287912547354L5.046093749999999 27.623741174257542" stroke-width="0.03" stroke="#000000" fill="none"/>
<path d="M5.567578125 27.322662029973106L5.671875 27.382877858829996L6.193359375 27.081798714545563L6.5062500000000005 27.26244620111622L6.610546875 27.202230372259333" stroke-width="0.03" stroke="#000000" fill="none"/>
<path d="M6.5062500000000005 27.142014543402446L6.5062500000000005 27.26244620111622" stroke-width="0.03" stroke="#000000" fill="none"/>
<path d="M6.193359375 27.081798714545563L6.193359375 26.96136705683179" stroke-width="0.03" stroke="#000000" fill="none"/>
<path d="M5.671875 27.26244620111622L5.671875 27.382877858829996" stroke-width="0.03" stroke="#000000" fill="none"/>
<path d="M5.88046875 26.29899293940603L5.984765624999999 26.238777110549147" stroke-width="0.03" stroke="#000000" fill="none"/>
<path d="M5.88046875 26.058129623978488L5.776171874999998 26.118345452835374" stroke-width="0.03" stroke="#000000" fill="none"/>
<path d="M4.107421875 23.830143956273677L3.898828125 23.95057561398745" stroke-width="0.03" stroke="#000000" fill="none"/>
<path d="M3.6902343750000006 23.830143956273677L4.107421875 23.58928064084613" stroke-width="0.03" stroke="#000000" fill="none"/>
<path d="M2.8558593750000005 24.191438929414996L2.647265625000001 24.071007271701223" stroke-width="0.03" stroke="#000000" fill="none"/>
<path d="M2.438671874999999 24.432302244842543L2.438671874999999 24.55273390255632" stroke-width="0.03" stroke="#000000" fill="none"/>
<path d="M2.438671874999999 24.432302244842543L2.021484375 24.191438929414996" stroke-width="0.03" stroke="#000000" fill="none"/>
<path d="M4.941796875 17.44726609744368L4.211718750000001 17.025755295445475" stroke-width="0.03" stroke="#000000" fill="none"/>
<path d="M4.8374999999999995 16.062302033735286L4.8374999999999995 15.94187037602151" stroke-width="0.03" stroke="#000000" fill="none"/>
<path d="M4.3160156249999995 15.038632943168212L5.984765624999999 16.0020862048784" stroke-width="0.03" stroke="#000000" fill="none"/>
<path d="M6.089062499999999 15.82143871830774L4.4203125 14.85798545659755" stroke-width="0.03" stroke="#000000" fill="none"/>
<path d="M5.46328125 14.85798545659755L5.46328125 14.978417114311325" stroke-width="0.03" stroke="#000000" fill="none"/>
<path d="M5.776171874999998 15.038632943168212L5.776171874999998 13.111726419747836L5.567578125 12.991294762034062" stroke-width="0.03" stroke="#000000" fill="none"/>
<path d="M5.776171874999998 13.111726419747836L6.819140625 12.509568131178968L7.13203125 12.690215617749628L7.13203125 13.051510590890949" stroke-width="0.03" stroke="#000000" fill="none"/>
<path d="M6.819140625 13.111726419747836L6.610546875 13.232158077461609" stroke-width="0.03" stroke="#000000" fill="none"/>
<path d="M6.610546875 12.991294762034062L7.13203125 12.690215617749628" stroke-width="0.03" stroke="#000000" fill="none"/>
<path d="M6.819140625 13.111726419747836L7.7578125 13.653668879459815" stroke-width="0.03" stroke="#000000" fill="none"/>
<path d="M7.4449218749999995 13.834316366030475L6.9234374999999995 13.533237221746042" stroke-width="0.03" stroke="#000000" fill="none"/>
<path d="M6.5062500000000005 12.569783960035853L6.5062500000000005 12.208488986894533L8.175 11.245035725184344L8.175 12.44935230232208" stroke-width="0.03" stroke="#000000" fill="none"/>
<path d="M8.279296875 12.389136473465193L8.175 12.328920644608306" stroke-width="0.03" stroke="#000000" fill="none"/>
<path d="M8.175 12.208488986894533L8.38359375 12.328920644608306" stroke-width="0.03" stroke="#000000" fill="none"/>
<path d="M8.487890625 12.148273158037647L9.322265625 11.666546527182554" stroke-width="0.03" stroke="#000000" fill="none"/>
<path d="M9.322265625 11.54611486946878L8.38359375 12.08805732918076" stroke-width="0.03" stroke="#000000" fill="none"/>
<path d="M8.175 11.967625671466987L8.5921875 12.208488986894533" stroke-width="0.03" stroke="#000000" fill="none"/>
<path d="M8.696484375 12.148273158037647L8.696484375 12.027841500323873" stroke-width="0.03" stroke="#000000" fill="none"/>
<path d="M8.80078125 11.967625671466987L8.905078125 12.027841500323873" stroke-width="0.03" stroke="#000000" fill="none"/>
<path d="M9.322265625 11.786978184896327L9.322265625 11.425683211755006" stroke-width="0.03" stroke="#000000" fill="none"/>
<path d="M9.322265625 11.305251554041233L9.322265625 10.100934976903497L11.408203125 8.896618399765762L11.616796874999999 9.017050057479535L11.72109375 8.956834228622649L11.72109375 8.475107597767554L11.303906249999999 8.234244282340008L11.199609375 8.294460111196894L11.199609375 9.017050057479535" stroke-width="0.03" stroke="#000000" fill="none"/>
<path d="M11.616796874999999 9.017050057479535L11.616796874999999 8.53532342662444L11.199609375 8.294460111196894" stroke-width="0.03" stroke="#000000" fill="none"/>
<path d="M11.616796874999999 8.53532342662444L11.72109375 8.475107597767554" stroke-width="0.03" stroke="#000000" fill="none"/>
<path d="M11.72109375 8.715970913195102L12.659765624999999 8.174028453483121L13.598437500000001 8.715970913195102L13.598437500000001 8.836402570908875" stroke-width="0.03" stroke="#000000" fill="none"/>
<path d="M13.598437500000001 8.715970913195102L10.260937499999999 10.642877436615478L10.260937499999999 11.245035725184344" stroke-width="0.03" stroke="#000000" fill="none"/>
<path d="M10.260937499999999 10.642877436615478L9.322265625 10.100934976903497" stroke-width="0.03" stroke="#000000" fill="none"/>
<path d="M9.009374999999999 11.124604067470571L8.175 11.606330698325666" stroke-width="0.03" stroke="#000000" fill="none"/>
<path d="M8.175 11.245035725184344L7.862109374999999 11.064388238613684L6.193359375 12.027841500323873L6.193359375 12.629999788892741" stroke-width="0.03" stroke="#000000" fill="none"/>
<path d="M6.193359375 12.509568131178968L5.984765624999999 12.389136473465193L5.776171874999998 12.509568131178968" stroke-width="0.03" stroke="#000000" fill="none"/>
<path d="M6.089062499999999 12.690215617749628L5.046093749999999 12.08805732918076L4.62890625 12.328920644608306" stroke-width="0.03" stroke="#000000" fill="none"/>
<path d="M4.62890625 11.847194013753214L2.2300781249999995 13.232158077461609L2.021484375 13.111726419747836L2.021484375 13.593453050602928" stroke-width="0.03" stroke="#000000" fill="none"/>
<path d="M2.2300781249999995 13.713884708316701L2.2300781249999995 13.232158077461609" stroke-width="0.03" stroke="#000000" fill="none"/>
<path d="M1.8128906250000005 13.95474802374425L1.6042968749999988 13.834316366030475" stroke-width="0.03" stroke="#000000" fill="none"/>
<path d="M6.193359375 12.027841500323873L6.5062500000000005 12.208488986894533" stroke-width="0.03" stroke="#000000" fill="none"/>
<path d="M9.009374999999999 12.8106472754634L9.009374999999999 13.051510590890949" stroke-width="0.03" stroke="#000000" fill="none"/>
<path d="M9.4265625 11.365467382898117L9.009374999999999 11.124604067470571" stroke-width="0.03" stroke="#000000" fill="none"/>
<path d="M11.72109375 10.40201412118793L11.72109375 9.920287490332836L14.64140625 8.234244282340008L14.537109375 8.174028453483121L14.745703124999999 8.053596795769348L14.85 8.113812624626235L14.954296875 8.053596795769348L15.162890625 8.174028453483121L15.162890625 8.294460111196894" stroke-width="0.03" stroke="#000000" fill="none"/>
<path d="M15.05859375 8.234244282340008L15.162890625 8.174028453483121" stroke-width="0.03" stroke="#000000" fill="none"/>
<path d="M15.05859375 8.234244282340008L17.978906249999998 9.920287490332836L17.978906249999998 10.40201412118793" stroke-width="0.03" stroke="#000000" fill="none"/>
<path d="M17.7703125 10.281582463474159L17.7703125 10.04071914804661L17.978906249999998 9.920287490332836" stroke-width="0.03" stroke="#000000" fill="none"/>
<path d="M17.7703125 10.04071914804661L14.85 8.354675940053781L11.9296875 10.04071914804661L11.9296875 10.281582463474159" stroke-width="0.03" stroke="#000000" fill="none"/>
<path d="M11.9296875 10.04071914804661L11.72109375 9.920287490332836" stroke-width="0.03" stroke="#000000" fill="none"/>
<path d="M14.015625 9.197697544050197L14.85 9.67942417490529L15.684375 9.197697544050197" stroke-width="0.03" stroke="#000000" fill="none"/>
<path d="M15.684375 9.799855832619063L15.788671874999999 9.86007166147595L15.788671874999999 10.462229950044819L15.684375 10.522445778901705" stroke-width="0.03" stroke="#000000" fill="none"/>
<path d="M15.788671874999999 10.462229950044819L16.1015625 10.642877436615478L16.1015625 10.763309094329252" stroke-width="0.03" stroke="#000000" fill="none"/>
<path d="M15.997265625 10.703093265472365L16.1015625 10.642877436615478" stroke-width="0.03" stroke="#000000" fill="none"/>
<path d="M15.684375 9.920287490332836L15.788671874999999 9.86007166147595" stroke-width="0.03" stroke="#000000" fill="none"/>
<path d="M14.85 9.67942417490529L14.85 10.763309094329252" stroke-width="0.03" stroke="#000000" fill="none"/>
<path d="M14.745703124999999 10.703093265472365L14.745703124999999 10.582661607758592" stroke-width="0.03" stroke="#000000" fill="none"/>
<path d="M14.954296875 10.582661607758592L14.954296875 10.703093265472365" stroke-width="0.03" stroke="#000000" fill="none"/>
<path d="M14.85 9.438560859477743L14.85 8.354675940053781" stroke-width="0.03" stroke="#000000" fill="none"/>
<path d="M14.537109375 8.294460111196894L14.537109375 8.174028453483121" stroke-width="0.03" stroke="#000000" fill="none"/>
<path d="M14.85 13.412805564032269L12.868359374999999 14.556906312313117" stroke-width="0.03" stroke="#000000" fill="none"/>
<path d="M13.181249999999999 14.737553798883777L13.494140625 14.556906312313117L14.85 15.339712087452645L16.205859375 14.556906312313117L16.51875 14.737553798883777" stroke-width="0.03" stroke="#000000" fill="none"/>
<path d="M16.831640625 14.556906312313117L14.85 13.412805564032269L14.85 13.894532194887363L13.598437500000001 14.617122141170004" stroke-width="0.03" stroke="#000000" fill="none"/>
<path d="M13.80703125 15.82143871830774L13.494140625 16.0020862048784" stroke-width="0.03" stroke="#000000" fill="none"/>
<path d="M13.911328125 16.24294952030595L14.015625 16.18273369144906" stroke-width="0.03" stroke="#000000" fill="none"/>
<path d="M14.119921875 16.122517862592172L14.537109375 16.36338117801972L14.85 16.18273369144906L15.162890625 16.36338117801972L15.580078125 16.122517862592172" stroke-width="0.03" stroke="#000000" fill="none"/>
<path d="M15.684375 16.18273369144906L15.788671874999999 16.24294952030595" stroke-width="0.03" stroke="#000000" fill="none"/>
<path d="M15.89296875 15.82143871830774L16.205859375 16.0020862048784" stroke-width="0.03" stroke="#000000" fill="none"/>
<path d="M15.162890625 16.36338117801972L15.162890625 16.60424449344727" stroke-width="0.03" stroke="#000000" fill="none"/>
<path d="M14.954296875 16.72467615116104L14.85 16.66446032230415L14.85 16.18273369144906" stroke-width="0.03" stroke="#000000" fill="none"/>
<path d="M14.537109375 16.36338117801972L14.537109375 16.60424449344727" stroke-width="0.03" stroke="#000000" fill="none"/>
<path d="M14.745703124999999 16.72467615116104L14.85 16.66446032230415" stroke-width="0.03" stroke="#000000" fill="none"/>
<path d="M14.85 15.701007060593964L14.85 15.580575402880193L14.745703124999999 15.640791231737078" stroke-width="0.03" stroke="#000000" fill="none"/>
<path d="M14.85 15.580575402880193L14.954296875 15.640791231737078" stroke-width="0.03" stroke="#000000" fill="none"/>
<path d="M16.1015625 14.617122141170004L14.85 13.894532194887363" stroke-width="0.03" stroke="#000000" fill="none"/>
<path d="M14.85 18.23007187258321L17.040234375 19.49460427857783" stroke-width="0.03" stroke="#000000" fill="none"/>
<path d="M16.205859375 20.21719422486047L15.89296875 20.397841711431134L16.205859375 20.57848919800179" stroke-width="0.03" stroke="#000000" fill="none"/>
<path d="M16.205859375 20.819352513429337L15.89296875 20.63870502685868L15.788671874999999 20.698920855715564" stroke-width="0.03" stroke="#000000" fill="none"/>
<path d="M15.580078125 20.57848919800179L15.47578125 20.63870502685868L16.205859375 21.060215828856883L16.205859375 20.21719422486047L15.47578125 19.795683422862265L15.47578125 20.63870502685868" stroke-width="0.03" stroke="#000000" fill="none"/>
<path d="M15.580078125 20.57848919800179L15.580078125 19.85589925171915" stroke-width="0.03" stroke="#000000" fill="none"/>
<path d="M15.684375 19.916115080576038L15.684375 20.277410053717357L15.580078125 20.337625882574244" stroke-width="0.03" stroke="#000000" fill="none"/>
<path d="M15.580078125 20.57848919800179L16.205859375 20.939784171143113" stroke-width="0.03" stroke="#000000" fill="none"/>
<path d="M15.89296875 20.397841711431134L15.89296875 20.03654673828981" stroke-width="0.03" stroke="#000000" fill="none"/>
<path d="M14.85 21.72258994628264L14.119921875 22.14410074828085L14.85 22.565611550279055L15.580078125 22.14410074828085L14.85 21.72258994628264L14.85 21.843021603996412L14.224218749999999 22.204316577137735" stroke-width="0.03" stroke="#000000" fill="none"/>
<path d="M14.328515625 22.264532405994622L14.64140625 22.08388491942396L14.64140625 21.96345326171019" stroke-width="0.03" stroke="#000000" fill="none"/>
<path d="M14.85 21.843021603996412L15.47578125 22.204316577137735" stroke-width="0.03" stroke="#000000" fill="none"/>
<path d="M15.371484375 22.264532405994622L15.05859375 22.08388491942396L15.05859375 21.96345326171019" stroke-width="0.03" stroke="#000000" fill="none"/>
<path d="M14.85 22.204316577137735L14.537109375 22.384964063708395" stroke-width="0.03" stroke="#000000" fill="none"/>
<path d="M14.85 22.204316577137735L14.85 22.565611550279055" stroke-width="0.03" stroke="#000000" fill="none"/>
<path d="M14.85 22.204316577137735L15.162890625 22.384964063708395" stroke-width="0.03" stroke="#000000" fill="none"/>
<path d="M14.85 23.529064811989244L14.85 29.068921066822824L14.328515625 29.37000021110726L14.328515625 30.333453472817446L14.85 30.63453261710188L15.371484375 30.333453472817446L15.580078125 30.45388513053122" stroke-width="0.03" stroke="#000000" fill="none"/>
<path d="M15.371484375 30.333453472817446L15.371484375 29.37000021110726L14.85 29.068921066822824" stroke-width="0.03" stroke="#000000" fill="none"/>
<path d="M14.85 29.67107935539169L15.371484375 29.37000021110726" stroke-width="0.03" stroke="#000000" fill="none"/>
<path d="M14.85 29.67107935539169L14.85 30.754964274815652L14.4328125 30.995827590243202L14.4328125 30.393669301674333" stroke-width="0.03" stroke="#000000" fill="none"/>
<path d="M14.328515625 30.333453472817446L14.119921875 30.45388513053122" stroke-width="0.03" stroke="#000000" fill="none"/>
<path d="M14.119921875 30.815180103672542L14.745703124999999 31.17647507681386L14.85 31.11625924795697L14.954296875 31.17647507681386L15.580078125 30.815180103672542" stroke-width="0.03" stroke="#000000" fill="none"/>
<path d="M15.267187499999999 30.995827590243202L15.267187499999999 30.393669301674333" stroke-width="0.03" stroke="#000000" fill="none"/>
<path d="M14.85 30.754964274815652L15.267187499999999 30.995827590243202" stroke-width="0.03" stroke="#000000" fill="none"/>
<path d="M14.954296875 31.17647507681386L14.954296875 33.103381600234236" stroke-width="0.03" stroke="#000000" fill="none"/>
<path d="M14.745703124999999 33.103381600234236L14.745703124999999 31.17647507681386" stroke-width="0.03" stroke="#000000" fill="none"/>
<path d="M14.85 31.11625924795697L14.85 33.76575571765999" stroke-width="0.03" stroke="#000000" fill="none"/>
<path d="M14.224218749999999 34.12705069080131L14.224218749999999 32.200144167380934L14.119921875 32.139928338524044" stroke-width="0.03" stroke="#000000" fill="none"/>
<path d="M14.224218749999999 32.07971250966716L14.224218749999999 31.838849194239618" stroke-width="0.03" stroke="#000000" fill="none"/>
<path d="M14.328515625 32.139928338524044L14.224218749999999 32.200144167380934" stroke-width="0.03" stroke="#000000" fill="none"/>
<path d="M14.119921875 31.53777004995518L14.119921875 28.286115291683295" stroke-width="0.03" stroke="#000000" fill="none"/>
<path d="M14.537109375 28.165683633969522L14.537109375 28.526978607110845" stroke-width="0.03" stroke="#000000" fill="none"/>
<path d="M14.64140625 28.22589946282641L14.64140625 23.649496469703017" stroke-width="0.03" stroke="#000000" fill="none"/>
<path d="M15.05859375 23.649496469703017L15.05859375 28.22589946282641" stroke-width="0.03" stroke="#000000" fill="none"/>
<path d="M15.162890625 28.526978607110845L15.997265625 28.04525197625575L15.997265625 31.77863336538273L15.580078125 31.53777004995518" stroke-width="0.03" stroke="#000000" fill="none"/>
<path d="M15.47578125 31.838849194239618L15.47578125 32.07971250966716" stroke-width="0.03" stroke="#000000" fill="none"/>
<path d="M15.580078125 32.139928338524044L15.47578125 32.200144167380934L15.47578125 34.12705069080131" stroke-width="0.03" stroke="#000000" fill="none"/>
<path d="M15.89296875 33.2840290868049L15.89296875 32.8023024559498L16.31015625 32.56143914052225" stroke-width="0.03" stroke="#000000" fill="none"/>
<path d="M16.1015625 32.44100748280849L16.1015625 32.68187079823603" stroke-width="0.03" stroke="#000000" fill="none"/>
<path d="M15.89296875 32.8023024559498L16.205859375 32.98294994252046L16.205859375 33.464676573375556L15.89296875 33.2840290868049" stroke-width="0.03" stroke="#000000" fill="none"/>
<path d="M16.205859375 33.464676573375556L17.040234375 32.98294994252046" stroke-width="0.03" stroke="#000000" fill="none"/>
<path d="M17.14453125 33.043165771377346L17.14453125 32.8023024559498" stroke-width="0.03" stroke="#000000" fill="none"/>
<path d="M16.623046875 32.74208662709292L16.205859375 32.98294994252046" stroke-width="0.03" stroke="#000000" fill="none"/>
<path d="M16.72734375 32.200144167380934L16.72734375 31.35712256338452" stroke-width="0.03" stroke="#000000" fill="none"/>
<path d="M17.874609375000002 31.658201707668955L18.1875 31.838849194239618" stroke-width="0.03" stroke="#000000" fill="none"/>
<path d="M18.291796875 32.621654969379136L18.291796875 32.98294994252046" stroke-width="0.03" stroke="#000000" fill="none"/>
<path d="M15.47578125 32.200144167380934L15.371484375 32.139928338524044" stroke-width="0.03" stroke="#000000" fill="none"/>
<path d="M12.97265625 32.200144167380934L12.97265625 31.35712256338452" stroke-width="0.03" stroke="#000000" fill="none"/>
<path d="M11.825390624999999 31.658201707668955L11.512500000000001 31.838849194239618" stroke-width="0.03" stroke="#000000" fill="none"/>
<path d="M10.260937499999999 30.754964274815652L10.156640625 30.815180103672542" stroke-width="0.03" stroke="#000000" fill="none"/>
<path d="M10.05234375 30.754964274815652L10.05234375 30.63453261710188" stroke-width="0.03" stroke="#000000" fill="none"/>
<path d="M14.328515625 29.37000021110726L14.85 29.67107935539169" stroke-width="0.03" stroke="#000000" fill="none"/>
<path d="M18.81328125 30.032374328533013L19.021874999999998 30.152805986246786" stroke-width="0.03" stroke="#000000" fill="none"/>
<path d="M21.003515625000002 29.851726841962353L21.525000000000002 30.152805986246786" stroke-width="0.03" stroke="#000000" fill="none"/>
<path d="M23.610937500000002 30.032374328533013L23.610937500000002 29.791511013105463L23.715234375 29.731295184248577L24.132421875000002 29.972158499676127" stroke-width="0.03" stroke="#000000" fill="none"/>
<path d="M24.028125 30.032374328533013L24.028125 30.514100959388106" stroke-width="0.03" stroke="#000000" fill="none"/>
<path d="M24.028125 30.032374328533013L23.610937500000002 29.791511013105463" stroke-width="0.03" stroke="#000000" fill="none"/>
<path d="M21.003515625000002 24.55273390255632L21.003515625000002 23.107554009991038" stroke-width="0.03" stroke="#000000" fill="none"/>
<path d="M25.592578125 21.903237432853302L26.1140625 22.204316577137735" stroke-width="0.03" stroke="#000000" fill="none"/>
<path d="M27.469921874999997 16.965539466588588L27.469921874999997 16.483812835733495" stroke-width="0.03" stroke="#000000" fill="none"/>
<path d="M27.469921874999997 13.232158077461609L27.678515625 13.111726419747836" stroke-width="0.03" stroke="#000000" fill="none"/>
<path d="M7.862109374999999 16.36338117801972L7.340624999999999 16.66446032230415" stroke-width="0.03" stroke="#000000" fill="none"/>
<path d="M6.9234374999999995 15.94187037602151L6.4019531249999995 15.640791231737078" stroke-width="0.03" stroke="#000000" fill="none"/>
<path d="M7.027734374999999 15.640791231737078L7.027734374999999 15.881654547164626" stroke-width="0.03" stroke="#000000" fill="none"/>
<path d="M5.424938354322334 3.383983116796798L5.172574475582794 3.383983116796798L5.352834388968179 3.2037232034114123L5.388886371645256 3.149645229395796L5.406912362983795 3.113593246718719L5.406912362983795 3.077541264041642L5.388886371645256 3.041489281364565L5.370860380306718 3.023463290026026L5.33480839762964 3.0054372986874878L5.262704432275486 3.0054372986874878L5.22665244959841 3.023463290026026L5.20862645825987 3.041489281364565L5.190600466921332 3.077541264041642L5.190600466921332 3.0955672553801805" stroke-width="0.03" stroke="#000000" fill="none"/>
<path d="M5.046392536213023 3.257801177427028L4.866132622827637 3.257801177427028" stroke-width="0.03" stroke="#000000" fill="none"/>
<path d="M4.812054648812021 3.383983116796798L4.95626257952033 3.0054372986874878L5.100470510228639 3.383983116796798" stroke-width="0.03" stroke="#000000" fill="none"/>
<path d="M4.57771676141102 3.0054372986874878L4.523638787395404 3.023463290026026L4.505612796056865 3.0595152727031034L4.505612796056865 3.0955672553801805L4.523638787395404 3.1316192380572576L4.559690770072481 3.149645229395796L4.631794735426635 3.167671220734335L4.6858727094422505 3.1856972120728733L4.7219246921193285 3.221749194749951L4.739950683457867 3.257801177427028L4.739950683457867 3.3118791514426436L4.7219246921193285 3.3479311341197207L4.7038987007807895 3.3659571254582596L4.649820726765174 3.383983116796798L4.57771676141102 3.383983116796798L4.523638787395404 3.3659571254582596L4.505612796056865 3.3479311341197207L4.487586804718326 3.3118791514426436L4.487586804718326 3.257801177427028L4.505612796056865 3.221749194749951L4.541664778733942 3.1856972120728733L4.595742752749558 3.167671220734335L4.667846718103712 3.149645229395796L4.7038987007807895 3.1316192380572576L4.7219246921193285 3.0955672553801805L4.7219246921193285 3.0595152727031034L4.7038987007807895 3.023463290026026L4.649820726765174 3.0054372986874878L4.57771676141102 3.0054372986874878" stroke-width="0.03" stroke="#000000" fill="none"/>
<path d="M4.18114495196317 3.077541264041642L4.217196934640247 3.0595152727031034L4.2712749086558635 3.0054372986874878L4.2712749086558635 3.383983116796798" stroke-width="0.03" stroke="#000000" fill="none"/>
<path d="M3.9648330559007072 3.1856972120728733L3.8206251251923984 3.1856972120728733" stroke-width="0.03" stroke="#000000" fill="none"/>
<path d="M3.8206251251923984 3.0054372986874878L3.8206251251923984 3.383983116796798" stroke-width="0.03" stroke="#000000" fill="none"/>
<path d="M3.8206251251923984 3.0054372986874878L4.0549630125934 3.0054372986874878" stroke-width="0.03" stroke="#000000" fill="none"/>
<path d="M3.5322092637757807 3.0054372986874878L3.478131289760165 3.023463290026026L3.4601052984216265 3.0595152727031034L3.4601052984216265 3.0955672553801805L3.478131289760165 3.1316192380572576L3.514183272437242 3.149645229395796L3.586287237791397 3.167671220734335L3.6403652118070124 3.1856972120728733L3.6764171944840895 3.221749194749951L3.694443185822628 3.257801177427028L3.694443185822628 3.3118791514426436L3.6764171944840895 3.3479311341197207L3.658391203145551 3.3659571254582596L3.604313229129935 3.383983116796798L3.5322092637757807 3.383983116796798L3.478131289760165 3.3659571254582596L3.4601052984216265 3.3479311341197207L3.442079307083088 3.3118791514426436L3.442079307083088 3.257801177427028L3.4601052984216265 3.221749194749951L3.4961572810987036 3.1856972120728733L3.5502352551143197 3.167671220734335L3.622339220468474 3.149645229395796L3.658391203145551 3.1316192380572576L3.6764171944840895 3.0955672553801805L3.6764171944840895 3.0595152727031034L3.658391203145551 3.023463290026026L3.604313229129935 3.0054372986874878L3.5322092637757807 3.0054372986874878" stroke-width="0.03" stroke="#000000" fill="none"/>
<path d="M3.333923359051856 3.383983116796798L3.0815594803123156 3.383983116796798L3.261819393697702 3.2037232034114123L3.297871376374779 3.149645229395796L3.3158973677133177 3.113593246718719L3.3158973677133177 3.077541264041642L3.297871376374779 3.041489281364565L3.2798453850362406 3.023463290026026L3.243793402359163 3.0054372986874878L3.171689437005009 3.0054372986874878L3.1356374543279317 3.023463290026026L3.117611462989393 3.041489281364565L3.0995854716508546 3.077541264041642L3.0995854716508546 3.0955672553801805" stroke-width="0.03" stroke="#000000" fill="none"/>
<path d="M2.757091636218621 3.0054372986874878L2.955377540942546 3.0054372986874878L2.847221592911314 3.149645229395796L2.90129956692693 3.149645229395796L2.9373515496040072 3.167671220734335L2.955377540942546 3.1856972120728733L2.9734035322810843 3.2397751860884894L2.9734035322810843 3.2758271687655665L2.955377540942546 3.3299051427811825L2.9193255582654682 3.3659571254582596L2.8652475842498526 3.383983116796798L2.811169610234237 3.383983116796798L2.757091636218621 3.3659571254582596L2.7390656448800828 3.3479311341197207L2.7210396535415438 3.3118791514426436" stroke-width="0.03" stroke="#000000" fill="none"/>
<path d="M2.6128837055103125 3.383983116796798L2.414597800786388 3.1316192380572576" stroke-width="0.03" stroke="#000000" fill="none"/>
<path d="M2.6128837055103125 3.1316192380572576L2.414597800786388 3.383983116796798" stroke-width="0.03" stroke="#000000" fill="none"/>
<path d="M2.1622339220468474 3.0054372986874878L2.1081559480312317 3.023463290026026L2.072103965354154 3.077541264041642L2.0540779740156156 3.167671220734335L2.0540779740156156 3.221749194749951L2.072103965354154 3.3118791514426436L2.1081559480312317 3.3659571254582596L2.1622339220468474 3.383983116796798L2.1982859047239245 3.383983116796798L2.2523638787395406 3.3659571254582596L2.2884158614166177 3.3118791514426436L2.3064418527551562 3.221749194749951L2.3064418527551562 3.167671220734335L2.2884158614166177 3.077541264041642L2.2523638787395406 3.023463290026026L2.1982859047239245 3.0054372986874878L2.1622339220468474 3.0054372986874878" stroke-width="0.03" stroke="#000000" fill="none"/>
<path d="M2.1166666666666667 2.2291666666666665L2.1166666666666667 1.8208333333333333" stroke-width="0.03" stroke="#000000" fill="none"/>
<path d="M2.0875 1.6166666666666667L2.1166666666666667 1.6458333333333333L2.145833333333333 1.6166666666666667L2.1166666666666667 1.5875L2.0875 1.6166666666666667" stroke-width="0.03" stroke="#000000" fill="none"/>
<path d="M2.3208333333333333 2.1416666666666666L2.35 2.2L2.4375 2.2291666666666665L2.525 2.2291666666666665L2.6125 2.2L2.6416666666666666 2.1416666666666666L2.6416666666666666 2.1125L2.6125 2.0541666666666667L2.5541666666666667 2.025L2.408333333333333 1.9958333333333333L2.35 1.9666666666666666L2.3208333333333333 1.9083333333333332L2.35 1.85L2.4375 1.8208333333333333L2.525 1.8208333333333333L2.6125 1.85L2.6416666666666666 1.9083333333333332" stroke-width="0.03" stroke="#000000" fill="none"/>
<path d="M2.9625 1.8208333333333333L2.904166666666667 1.85L2.845833333333333 1.9083333333333332L2.8166666666666664 1.9958333333333333L2.8166666666666664 2.0541666666666667L2.845833333333333 2.1416666666666666L2.904166666666667 2.2L2.9625 2.2291666666666665L3.05 2.2291666666666665L3.1083333333333334 2.2L3.1666666666666665 2.1416666666666666L3.1958333333333333 2.0541666666666667L3.1958333333333333 1.9958333333333333L3.1666666666666665 1.9083333333333332L3.1083333333333334 1.85L3.05 1.8208333333333333L2.9625 1.8208333333333333" stroke-width="0.03" stroke="#000000" fill="none"/>
<path d="M3.283333333333333 2.2874999999999996L3.75 2.2874999999999996" stroke-width="0.03" stroke="#000000" fill="none"/>
<path d="M3.8375 2.1416666666666666L3.8666666666666663 2.2L3.9541666666666666 2.2291666666666665L4.041666666666666 2.2291666666666665L4.129166666666666 2.2L4.158333333333333 2.1416666666666666L4.158333333333333 2.1125L4.129166666666666 2.0541666666666667L4.070833333333333 2.025L3.925 1.9958333333333333L3.8666666666666663 1.9666666666666666L3.8375 1.9083333333333332L3.8666666666666663 1.85L3.9541666666666666 1.8208333333333333L4.041666666666666 1.8208333333333333L4.129166666666666 1.85L4.158333333333333 1.9083333333333332" stroke-width="0.03" stroke="#000000" fill="none"/>
<path d="M4.3625 1.9375L4.449999999999999 1.85L4.508333333333333 1.8208333333333333L4.595833333333333 1.8208333333333333L4.654166666666667 1.85L4.683333333333334 1.9375L4.683333333333334 2.2291666666666665" stroke-width="0.03" stroke="#000000" fill="none"/>
<path d="M4.3625 2.2291666666666665L4.3625 1.8208333333333333" stroke-width="0.03" stroke="#000000" fill="none"/>
<path d="M5.033333333333333 1.8208333333333333L4.975 1.85L4.916666666666666 1.9083333333333332L4.887499999999999 1.9958333333333333L4.887499999999999 2.0541666666666667L4.916666666666666 2.1416666666666666L4.975 2.2L5.033333333333333 2.2291666666666665L5.120833333333334 2.2291666666666665L5.179166666666666 2.2L5.2375 2.1416666666666666L5.266666666666666 2.0541666666666667L5.266666666666666 1.9958333333333333L5.2375 1.9083333333333332L5.179166666666666 1.85L5.120833333333334 1.8208333333333333L5.033333333333333 1.8208333333333333" stroke-width="0.03" stroke="#000000" fill="none"/>
<path d="M5.441666666666666 1.8208333333333333L5.558333333333334 2.2291666666666665L5.675 1.8208333333333333L5.791666666666666 2.2291666666666665L5.908333333333333 1.8208333333333333" stroke-width="0.03" stroke="#000000" fill="none"/>
<path d="M6.054166666666666 1.8208333333333333L6.258333333333333 1.8208333333333333" stroke-width="0.03" stroke="#000000" fill="none"/>
<path d="M6.2875 1.6166666666666667L6.229166666666666 1.6166666666666667L6.1708333333333325 1.6458333333333333L6.141666666666667 1.7333333333333334L6.141666666666667 2.2291666666666665" stroke-width="0.03" stroke="#000000" fill="none"/>
<path d="M6.4624999999999995 2.2291666666666665L6.4624999999999995 1.6166666666666667" stroke-width="0.03" stroke="#000000" fill="none"/>
<path d="M7.016666666666666 1.8208333333333333L7.016666666666666 2.2291666666666665" stroke-width="0.03" stroke="#000000" fill="none"/>
<path d="M7.016666666666666 2.1416666666666666L6.958333333333333 2.2L6.8999999999999995 2.2291666666666665L6.812499999999999 2.2291666666666665L6.754166666666666 2.2L6.695833333333333 2.1416666666666666L6.666666666666666 2.0541666666666667L6.666666666666666 1.9958333333333333L6.695833333333333 1.9083333333333332L6.754166666666666 1.85L6.812499999999999 1.8208333333333333L6.8999999999999995 1.8208333333333333L6.958333333333333 1.85L7.016666666666666 1.9083333333333332" stroke-width="0.03" stroke="#000000" fill="none"/>
<path d="M7.249999999999999 2.1125L7.541666666666666 1.8208333333333333" stroke-width="0.03" stroke="#000000" fill="none"/>
<path d="M7.366666666666666 1.9958333333333333L7.570833333333333 2.2291666666666665" stroke-width="0.03" stroke="#000000" fill="none"/>
<path d="M7.716666666666666 1.9958333333333333L8.066666666666666 1.9958333333333333L8.066666666666666 1.9375L8.0375 1.8791666666666667L8.008333333333333 1.85L7.949999999999999 1.8208333333333333L7.8625 1.8208333333333333L7.804166666666666 1.85L7.745833333333333 1.9083333333333332L7.716666666666666 1.9958333333333333L7.716666666666666 2.0541666666666667L7.745833333333333 2.1416666666666666L7.804166666666666 2.2L7.8625 2.2291666666666665L7.949999999999999 2.2291666666666665L8.008333333333333 2.2L8.066666666666666 2.1416666666666666" stroke-width="0.03" stroke="#000000" fill="none"/>
<path d="M8.475 2.2291666666666665L8.475 1.6166666666666667L8.3875 1.7041666666666666L8.329166666666666 1.7333333333333334" stroke-width="0.03" stroke="#000000" fill="none"/>
<path d="M7.249999999999999 1.6166666666666667L7.249999999999999 2.2291666666666665" stroke-width="0.03" stroke="#000000" fill="none"/>
<path d="M9.237499999999999 2.533333333333333L1.5 2.533333333333333" stroke-width="0.03" stroke="#000000" fill="none"/>
<path d="M14.85 35.57223058336659L14.85 35.813093898794136" stroke-width="0.03" stroke="#000000" fill="none"/>
<path d="M14.4328125 35.813093898794136L14.4328125 36.05395721422168" stroke-width="0.03" stroke="#000000" fill="none"/>
<path d="M15.267187499999999 36.05395721422168L15.267187499999999 35.813093898794136" stroke-width="0.03" stroke="#000000" fill="none"/>
</svg>
