<?xml version="1.0" standalone="no"?>
<svg width="29.7cm" height="42cm" version="1.1" xmlns="http://www.w3.org/2000/svg" viewBox="0.0 0.0 29.700001 42.000001">
<path d="M6.5062500000000005 10.642877436615478L9.84375 8.715970913195102L10.365234375 9.017050057479535" stroke-width="0.03" stroke="#000000" fill="none"/>
<path d="M10.05234375 9.67942417490529L13.389843749999999 7.752517651484913L12.97265625 7.511654336057367L9.63515625 9.438560859477743L9.63515625 9.558992517191516L9.84375 9.67942417490529L9.84375 9.920287490332836L10.05234375 10.04071914804661L10.573828124999999 9.739640003762176L10.782421874999999 9.86007166147595L10.782421874999999 9.980503319189724" stroke-width="0.03" stroke="#000000" fill="none"/>
<path d="M10.782421874999999 9.86007166147595L7.7578125 11.606330698325666" stroke-width="0.03" stroke="#000000" fill="none"/>
<path d="M7.96640625 11.72676235603944L8.487890625 11.425683211755006L10.156640625 12.389136473465193" stroke-width="0.03" stroke="#000000" fill="none"/>
<path d="M9.63515625 12.690215617749628L13.076953125000001 10.703093265472365L14.119921875 11.305251554041233L14.119921875 11.54611486946878L12.451171875 12.509568131178968L12.451171875 13.111726419747836" stroke-width="0.03" stroke="#000000" fill="none"/>
<path d="M12.033984375000001 13.232158077461609L10.365234375 14.195611339171796L11.512500000000001 14.85798545659755L14.64140625 13.051510590890949L14.85 13.171942248604722L15.05859375 13.051510590890949L18.1875 14.85798545659755L19.334765625 14.195611339171796L17.666015625 13.232158077461609L17.666015625 13.352589735175382" stroke-width="0.03" stroke="#000000" fill="none"/>
<path d="M17.666015625 13.232158077461609L18.291796875 12.87086310432029L14.85 10.883740752043025L14.85 10.642877436615478L13.911328125 11.184819896327458" stroke-width="0.03" stroke="#000000" fill="none"/>
<path d="M14.119921875 11.54611486946878L14.64140625 11.847194013753214" stroke-width="0.03" stroke="#000000" fill="none"/>
<path d="M14.85 11.72676235603944L10.46953125 14.255827168028683" stroke-width="0.03" stroke="#000000" fill="none"/>
<path d="M9.948046875 13.713884708316701L9.739453124999999 13.834316366030475L9.4265625 13.653668879459815L9.63515625 13.533237221746042L9.948046875 13.713884708316701" stroke-width="0.03" stroke="#000000" fill="none"/>
<path d="M9.63515625 13.77410053717359L9.63515625 13.533237221746042" stroke-width="0.03" stroke="#000000" fill="none"/>
<path d="M9.63515625 12.690215617749628L6.5062500000000005 10.883740752043025L6.5062500000000005 10.642877436615478L7.340624999999999 11.124604067470571L9.84375 9.67942417490529" stroke-width="0.03" stroke="#000000" fill="none"/>
<path d="M10.05234375 9.67942417490529L10.05234375 10.04071914804661" stroke-width="0.03" stroke="#000000" fill="none"/>
<path d="M9.84375 9.920287490332836L7.340624999999999 11.365467382898117L7.340624999999999 11.124604067470571" stroke-width="0.03" stroke="#000000" fill="none"/>
<path d="M7.236328125 11.305251554041233L4.3160156249999995 12.991294762034062L4.3160156249999995 13.95474802374425L7.4449218749999995 15.761222889450853L7.5492187500000005 15.701007060593964L7.5492187500000005 15.21928042973887L8.5921875 14.617122141170004L8.696484375 14.67733797002689" stroke-width="0.03" stroke="#000000" fill="none"/>
<path d="M8.5921875 14.617122141170004L8.5921875 14.13539551031491L8.905078125 14.31604299688557L8.696484375 14.436474654599342L8.696484375 14.918201285454437L9.009374999999999 15.098848772025098" stroke-width="0.03" stroke="#000000" fill="none"/>
<path d="M9.21796875 15.339712087452645L9.948046875 14.918201285454437L9.530859375 14.67733797002689L9.322265625 14.797769627740664L8.696484375 14.436474654599342" stroke-width="0.03" stroke="#000000" fill="none"/>
<path d="M8.5921875 14.13539551031491L7.4449218749999995 14.797769627740664L4.3160156249999995 12.991294762034062" stroke-width="0.03" stroke="#000000" fill="none"/>
<path d="M5.150390625 14.436474654599342L5.150390625 15.399927916309531L4.3160156249999995 15.881654547164626" stroke-width="0.03" stroke="#000000" fill="none"/>
<path d="M3.481640624999999 15.399927916309531L2.647265625000001 15.881654547164626L2.647265625000001 19.253740963150285" stroke-width="0.03" stroke="#000000" fill="none"/>
<path d="M2.7515624999999995 19.31395679200717L2.54296875 19.434388449720945L2.54296875 22.32474823485151L2.7515624999999995 22.204316577137735L2.960156250000001 22.32474823485151L2.960156250000001 22.926906523420374L3.1687499999999984 23.047338181134148L3.2730468750000017 22.98712235227726" stroke-width="0.03" stroke="#000000" fill="none"/>
<path d="M3.1687499999999984 23.047338181134148L3.1687499999999984 19.554820107434715" stroke-width="0.03" stroke="#000000" fill="none"/>
<path d="M3.3773437500000005 19.67525176514849L3.3773437500000005 20.277410053717357L5.046093749999999 21.240863315427546" stroke-width="0.03" stroke="#000000" fill="none"/>
<path d="M5.046093749999999 20.63870502685868L5.046093749999999 24.612949731413206L6.089062499999999 25.215108019982072L6.297656249999999 25.0946763622683L6.819140625 25.39575550655273" stroke-width="0.03" stroke="#000000" fill="none"/>
<path d="M6.819140625 25.636618821980278L6.819140625 20.57848919800179" stroke-width="0.03" stroke="#000000" fill="none"/>
<path d="M6.714843749999999 20.518273369144907L6.714843749999999 22.44517989256528L6.819140625 22.384964063708395" stroke-width="0.03" stroke="#000000" fill="none"/>
<path d="M6.714843749999999 22.44517989256528L6.089062499999999 22.08388491942396L6.089062499999999 26.058129623978488L5.88046875 26.17856128169226L6.819140625 26.72050374140424" stroke-width="0.03" stroke="#000000" fill="none"/>
<path d="M6.819140625 26.479640425976694L7.027734374999999 26.359208768262917L7.027734374999999 25.75705047969405" stroke-width="0.03" stroke="#000000" fill="none"/>
<path d="M6.819140625 25.636618821980278L11.199609375 28.165683633969522" stroke-width="0.03" stroke="#000000" fill="none"/>
<path d="M11.199609375 28.286115291683295L11.199609375 26.96136705683179L8.070703124999998 25.154892191125185L8.070703124999998 24.914028875697635L7.862109374999999 24.793597217983862L7.862109374999999 21.18064748657066L6.714843749999999 20.518273369144907" stroke-width="0.03" stroke="#000000" fill="none"/>
<path d="M6.089062499999999 20.397841711431134L6.089062499999999 20.156978396003588L5.776171874999998 19.976330909432924L5.776171874999998 20.21719422486047L6.089062499999999 20.397841711431134" stroke-width="0.03" stroke="#000000" fill="none"/>
<path d="M5.984765624999999 20.096762567146698L5.776171874999998 20.21719422486047" stroke-width="0.03" stroke="#000000" fill="none"/>
<path d="M5.046093749999999 20.63870502685868L1.9171874999999992 18.832230161152076L1.7085937499999995 18.95266181886585L1.7085937499999995 22.8064748657066L2.2300781249999995 23.107554009991038" stroke-width="0.03" stroke="#000000" fill="none"/>
<path d="M2.647265625000001 22.50539572142217L2.960156250000001 22.32474823485151" stroke-width="0.03" stroke="#000000" fill="none"/>
<path d="M2.7515624999999995 22.204316577137735L2.7515624999999995 19.31395679200717" stroke-width="0.03" stroke="#000000" fill="none"/>
<path d="M2.54296875 19.193525134293395L2.54296875 18.832230161152076L2.647265625000001 18.77201433229519" stroke-width="0.03" stroke="#000000" fill="none"/>
<path d="M2.647265625000001 18.892445990008962L2.54296875 18.832230161152076" stroke-width="0.03" stroke="#000000" fill="none"/>
<path d="M2.54296875 19.434388449720945L1.7085937499999995 18.95266181886585" stroke-width="0.03" stroke="#000000" fill="none"/>
<path d="M4.003124999999999 20.63870502685868L4.003124999999999 22.565611550279055L4.62890625 22.926906523420374" stroke-width="0.03" stroke="#000000" fill="none"/>
<path d="M4.62890625 23.047338181134148L4.107421875 22.746259036849715L4.107421875 22.62582737913594L4.4203125 22.44517989256528L4.62890625 22.565611550279055" stroke-width="0.03" stroke="#000000" fill="none"/>
<path d="M4.62890625 22.204316577137735L5.046093749999999 21.96345326171019" stroke-width="0.03" stroke="#000000" fill="none"/>
<path d="M5.046093749999999 22.44517989256528L4.62890625 22.204316577137735L4.62890625 23.529064811989244L3.2730468750000017 22.746259036849715L3.898828125 22.384964063708395L4.003124999999999 22.44517989256528" stroke-width="0.03" stroke="#000000" fill="none"/>
<path d="M3.6902343750000006 22.50539572142217L3.6902343750000006 21.18064748657066L4.003124999999999 21" stroke-width="0.03" stroke="#000000" fill="none"/>
<path d="M3.6902343750000006 21.18064748657066L4.003124999999999 21.36129497314132" stroke-width="0.03" stroke="#000000" fill="none"/>
<path d="M3.2730468750000017 22.746259036849715L3.2730468750000017 25.9979137951216L4.733203124999998 26.840935399118013L4.733203124999998 28.526978607110845L4.107421875 28.888273580252164L4.107421875 29.37000021110726L7.4449218749999995 31.296906734527635L7.5492187500000005 31.236690905670745L7.5492187500000005 30.995827590243202L7.7578125 30.87539593252943L10.260937499999999 32.32057582509471L10.05234375 32.44100748280849L10.05234375 33.40446074451867L6.714843749999999 31.477554221098295L6.714843749999999 30.87539593252943" stroke-width="0.03" stroke="#000000" fill="none"/>
<path d="M7.4449218749999995 30.815180103672542L7.7578125 30.63453261710188L7.236328125 30.333453472817446L7.236328125 30.0925901573899L7.340624999999999 30.032374328533013" stroke-width="0.03" stroke="#000000" fill="none"/>
<path d="M7.236328125 30.0925901573899L10.260937499999999 31.838849194239618" stroke-width="0.03" stroke="#000000" fill="none"/>
<path d="M10.260937499999999 31.597985878812068L9.739453124999999 31.296906734527635L9.739453124999999 29.37000021110726" stroke-width="0.03" stroke="#000000" fill="none"/>
<path d="M10.260937499999999 29.67107935539169L10.260937499999999 33.2840290868049L10.05234375 33.40446074451867" stroke-width="0.03" stroke="#000000" fill="none"/>
<path d="M10.573828124999999 32.74208662709292L10.678125 32.68187079823603" stroke-width="0.03" stroke="#000000" fill="none"/>
<path d="M10.573828124999999 32.621654969379136L10.573828124999999 32.74208662709292L10.260937499999999 32.56143914052225" stroke-width="0.03" stroke="#000000" fill="none"/>
<path d="M10.260937499999999 32.44100748280849L13.181249999999999 34.12705069080131L14.015625 33.64532405994622L14.015625 30.032374328533013L13.911328125 29.972158499676127L13.494140625 30.21302181510367L12.451171875 29.610863526534803L12.451171875 29.490431868821034" stroke-width="0.03" stroke="#000000" fill="none"/>
<path d="M12.451171875 29.610863526534803L12.033984375000001 29.851726841962353L13.181249999999999 30.514100959388106L14.015625 30.032374328533013" stroke-width="0.03" stroke="#000000" fill="none"/>
<path d="M13.494140625 30.21302181510367L13.494140625 28.04525197625575L13.598437500000001 28.105467805112635L14.119921875 27.804388660828202L14.119921875 25.154892191125185" stroke-width="0.03" stroke="#000000" fill="none"/>
<path d="M14.015625 25.0946763622683L14.015625 24.37208641598566" stroke-width="0.03" stroke="#000000" fill="none"/>
<path d="M13.911328125 24.311870587128773L13.911328125 22.866690694563488L14.015625 22.8064748657066L13.80703125 22.686043207992828L13.80703125 22.926906523420374L13.911328125 22.98712235227726" stroke-width="0.03" stroke="#000000" fill="none"/>
<path d="M13.911328125 22.866690694563488L14.745703124999999 23.348417325418584L14.745703124999999 23.58928064084613L14.85 23.529064811989244L14.954296875 23.58928064084613L15.788671874999999 23.107554009991038" stroke-width="0.03" stroke="#000000" fill="none"/>
<path d="M15.788671874999999 22.98712235227726L15.89296875 22.926906523420374L15.89296875 22.686043207992828L15.788671874999999 22.62582737913594L15.47578125 22.8064748657066L14.85 22.44517989256528L14.224218749999999 22.8064748657066L13.911328125 22.62582737913594L13.80703125 22.686043207992828" stroke-width="0.03" stroke="#000000" fill="none"/>
<path d="M13.911328125 22.62582737913594L13.911328125 22.264532405994622L14.119921875 22.14410074828085L14.119921875 21.54194245971198L14.015625 21.481726630855093L14.015625 21.36129497314132L13.494140625 21.060215828856883L13.285546875 21.18064748657066L12.97265625 21L12.868359374999999 21.060215828856883L12.659765624999999 20.939784171143113L12.659765624999999 20.819352513429337" stroke-width="0.03" stroke="#000000" fill="none"/>
<path d="M12.555468750000001 20.759136684572454L12.555468750000001 19.795683422862265L12.659765624999999 19.735467594005378L12.659765624999999 19.615035936291605L13.494140625 19.13330930543651" stroke-width="0.03" stroke="#000000" fill="none"/>
<path d="M13.598437500000001 19.193525134293395L13.702734374999999 19.13330930543651L13.911328125 19.253740963150285L13.911328125 19.37417262086406L14.224218749999999 19.554820107434715L14.224218749999999 19.795683422862265L14.745703124999999 20.096762567146698L14.85 20.03654673828981L14.954296875 20.096762567146698L15.47578125 19.795683422862265L15.47578125 19.554820107434715L15.788671874999999 19.37417262086406L16.1015625 19.554820107434715L16.1015625 20.277410053717357L16.72734375 20.63870502685868L16.72734375 21L16.414453125 21.18064748657066L16.205859375 21.060215828856883L15.684375 21.36129497314132L15.684375 21.481726630855093L15.580078125 21.54194245971198L15.580078125 22.14410074828085L15.788671874999999 22.264532405994622L15.788671874999999 22.62582737913594" stroke-width="0.03" stroke="#000000" fill="none"/>
<path d="M15.89296875 22.686043207992828L15.684375 22.8064748657066L15.788671874999999 22.866690694563488L15.788671874999999 24.311870587128773L15.47578125 24.492518073699433L15.371484375 24.432302244842543L15.371484375 25.27532384883896L14.85 24.974244704554525L14.328515625 25.27532384883896L14.015625 25.0946763622683" stroke-width="0.03" stroke="#000000" fill="none"/>
<path d="M14.119921875 25.27532384883896L14.328515625 25.39575550655273L14.85 25.0946763622683L15.371484375 25.39575550655273L15.580078125 25.27532384883896" stroke-width="0.03" stroke="#000000" fill="none"/>
<path d="M15.580078125 25.154892191125185L15.580078125 27.804388660828202L16.1015625 28.105467805112635L16.205859375 28.04525197625575L16.205859375 30.21302181510367L15.788671874999999 29.972158499676127L15.684375 30.032374328533013L15.684375 33.64532405994622L16.51875 34.12705069080131L19.439062500000002 32.44100748280849" stroke-width="0.03" stroke="#000000" fill="none"/>
<path d="M19.439062500000002 32.56143914052225L19.126171875 32.74208662709292L19.021874999999998 32.68187079823603" stroke-width="0.03" stroke="#000000" fill="none"/>
<path d="M19.126171875 32.621654969379136L19.126171875 32.74208662709292" stroke-width="0.03" stroke="#000000" fill="none"/>
<path d="M19.439062500000002 32.32057582509471L21.9421875 30.87539593252943L21.9421875 30.63453261710188L22.463671875 30.333453472817446L22.463671875 30.0925901573899L22.359375 30.032374328533013" stroke-width="0.03" stroke="#000000" fill="none"/>
<path d="M22.463671875 30.0925901573899L19.439062500000002 31.838849194239618" stroke-width="0.03" stroke="#000000" fill="none"/>
<path d="M19.439062500000002 31.597985878812068L19.960546875000002 31.296906734527635L19.960546875000002 29.37000021110726" stroke-width="0.03" stroke="#000000" fill="none"/>
<path d="M19.439062500000002 29.67107935539169L22.880859375 27.68395700311443L22.880859375 26.479640425976694L22.672265625 26.359208768262917L22.672265625 25.75705047969405" stroke-width="0.03" stroke="#000000" fill="none"/>
<path d="M22.880859375 25.636618821980278L18.500390624999998 28.165683633969522" stroke-width="0.03" stroke="#000000" fill="none"/>
<path d="M18.500390624999998 28.286115291683295L20.169140624999997 27.322662029973106L20.064843749999998 27.26244620111622" stroke-width="0.03" stroke="#000000" fill="none"/>
<path d="M20.169140624999997 27.322662029973106L20.169140624999997 28.04525197625575L23.610937500000002 26.058129623978488L23.610937500000002 22.08388491942396L22.98515625 22.44517989256528L22.880859375 22.384964063708395" stroke-width="0.03" stroke="#000000" fill="none"/>
<path d="M22.98515625 22.44517989256528L22.98515625 20.518273369144907L21.837890625 21.18064748657066L21.837890625 24.793597217983862L21.629296875 24.914028875697635L21.629296875 25.154892191125185L18.500390624999998 26.96136705683179L18.500390624999998 28.286115291683295" stroke-width="0.03" stroke="#000000" fill="none"/>
<path d="M18.708984375 28.888273580252164L18.500390624999998 29.008705237965938L18.500390624999998 29.37000021110726L18.708984375 29.249568553393484L18.708984375 28.888273580252164" stroke-width="0.03" stroke="#000000" fill="none"/>
<path d="M18.500390624999998 29.12913689567971L18.708984375 29.249568553393484" stroke-width="0.03" stroke="#000000" fill="none"/>
<path d="M19.439062500000002 29.67107935539169L19.439062500000002 33.2840290868049L19.647656249999997 33.40446074451867L22.98515625 31.477554221098295L22.98515625 30.87539593252943" stroke-width="0.03" stroke="#000000" fill="none"/>
<path d="M22.255078124999997 30.815180103672542L25.592578125 28.888273580252164L24.966796875000004 28.526978607110845L24.966796875000004 26.840935399118013L26.426953124999997 25.9979137951216L27.052734375 26.359208768262917L27.469921874999997 26.118345452835374L27.469921874999997 22.264532405994622L27.365624999999998 22.204316577137735L27.15703125 22.32474823485151L26.9484375 22.204316577137735L26.73984375 22.32474823485151L26.73984375 22.926906523420374L26.53125 23.047338181134148L26.426953124999997 22.98712235227726" stroke-width="0.03" stroke="#000000" fill="none"/>
<path d="M26.53125 23.047338181134148L26.53125 19.554820107434715" stroke-width="0.03" stroke="#000000" fill="none"/>
<path d="M26.322656249999998 19.67525176514849L26.322656249999998 20.277410053717357L24.653906250000002 21.240863315427546" stroke-width="0.03" stroke="#000000" fill="none"/>
<path d="M24.653906250000002 20.63870502685868L27.7828125 18.832230161152076L27.99140625 18.95266181886585L27.99140625 22.8064748657066L27.469921874999997 23.107554009991038" stroke-width="0.03" stroke="#000000" fill="none"/>
<path d="M27.052734375 22.50539572142217L27.469921874999997 22.264532405994622" stroke-width="0.03" stroke="#000000" fill="none"/>
<path d="M27.15703125 22.32474823485151L27.15703125 19.434388449720945L26.9484375 19.31395679200717L26.9484375 22.204316577137735" stroke-width="0.03" stroke="#000000" fill="none"/>
<path d="M26.73984375 22.32474823485151L27.052734375 22.50539572142217L27.052734375 26.359208768262917" stroke-width="0.03" stroke="#000000" fill="none"/>
<path d="M26.635546875 26.118345452835374L26.635546875 26.840935399118013" stroke-width="0.03" stroke="#000000" fill="none"/>
<path d="M26.53125 26.780719570261127L25.696875000000002 27.26244620111622L25.696875000000002 28.22589946282641L26.009765625 28.40654694939707L26.844140625 27.92482031854198L26.844140625 26.96136705683179L26.53125 26.780719570261127" stroke-width="0.03" stroke="#000000" fill="none"/>
<path d="M26.844140625 26.96136705683179L26.009765625 27.443093687686883L26.009765625 28.40654694939707" stroke-width="0.03" stroke="#000000" fill="none"/>
<path d="M25.801171875 28.286115291683295L25.175390624999995 28.647410264824618" stroke-width="0.03" stroke="#000000" fill="none"/>
<path d="M24.966796875000004 28.526978607110845L22.150781249999998 30.152805986246786L21.525000000000002 29.791511013105463L21.525000000000002 29.67107935539169" stroke-width="0.03" stroke="#000000" fill="none"/>
<path d="M21.629296875 29.610863526534803L19.960546875000002 30.574316788244992" stroke-width="0.03" stroke="#000000" fill="none"/>
<path d="M20.2734375 30.393669301674333L20.586328125 30.574316788244992L21.733593749999997 29.91194267081924" stroke-width="0.03" stroke="#000000" fill="none"/>
<path d="M21.629296875 29.610863526534803L21.629296875 28.888273580252164" stroke-width="0.03" stroke="#000000" fill="none"/>
<path d="M21.733593749999997 28.828057751395274L21.733593749999997 29.430216039964147L21.629296875 29.490431868821034L21.31640625 29.30978438225037L21.31640625 29.068921066822824" stroke-width="0.03" stroke="#000000" fill="none"/>
<path d="M21.003515625000002 29.249568553393484L22.150781249999998 28.58719443596773L22.150781249999998 30.152805986246786" stroke-width="0.03" stroke="#000000" fill="none"/>
<path d="M22.463671875 30.21302181510367L23.610937500000002 29.550647697677917L23.610937500000002 29.30978438225037" stroke-width="0.03" stroke="#000000" fill="none"/>
<path d="M25.592578125 29.37000021110726L22.255078124999997 31.296906734527635L22.150781249999998 31.236690905670745L22.150781249999998 30.995827590243202L21.9421875 30.87539593252943" stroke-width="0.03" stroke="#000000" fill="none"/>
<path d="M22.150781249999998 30.995827590243202L19.647656249999997 32.44100748280849L19.647656249999997 33.40446074451867" stroke-width="0.03" stroke="#000000" fill="none"/>
<path d="M19.647656249999997 32.44100748280849L19.439062500000002 32.32057582509471" stroke-width="0.03" stroke="#000000" fill="none"/>
<path d="M20.586328125 30.574316788244992L20.586328125 30.21302181510367" stroke-width="0.03" stroke="#000000" fill="none"/>
<path d="M21.003515625000002 29.249568553393484L21.003515625000002 28.767841922538388" stroke-width="0.03" stroke="#000000" fill="none"/>
<path d="M20.586328125 29.008705237965938L21.003515625000002 29.249568553393484" stroke-width="0.03" stroke="#000000" fill="none"/>
<path d="M21.9421875 30.63453261710188L22.255078124999997 30.815180103672542L22.255078124999997 31.296906734527635" stroke-width="0.03" stroke="#000000" fill="none"/>
<path d="M25.592578125 29.37000021110726L25.592578125 28.888273580252164" stroke-width="0.03" stroke="#000000" fill="none"/>
<path d="M26.009765625 27.443093687686883L25.696875000000002 27.26244620111622" stroke-width="0.03" stroke="#000000" fill="none"/>
<path d="M26.426953124999997 25.9979137951216L26.426953124999997 22.746259036849715L25.801171875 22.384964063708395L25.696875000000002 22.44517989256528" stroke-width="0.03" stroke="#000000" fill="none"/>
<path d="M25.696875000000002 22.565611550279055L25.07109375 22.926906523420374" stroke-width="0.03" stroke="#000000" fill="none"/>
<path d="M25.07109375 23.047338181134148L25.592578125 22.746259036849715L25.592578125 22.62582737913594L25.279687499999998 22.44517989256528L25.07109375 22.565611550279055" stroke-width="0.03" stroke="#000000" fill="none"/>
<path d="M25.07109375 22.204316577137735L24.653906250000002 22.44517989256528" stroke-width="0.03" stroke="#000000" fill="none"/>
<path d="M25.07109375 22.204316577137735L25.07109375 23.529064811989244L26.426953124999997 22.746259036849715" stroke-width="0.03" stroke="#000000" fill="none"/>
<path d="M26.635546875 22.98712235227726L26.635546875 24.311870587128773L26.426953124999997 24.432302244842543" stroke-width="0.03" stroke="#000000" fill="none"/>
<path d="M24.653906250000002 24.612949731413206L23.610937500000002 25.215108019982072L23.40234375 25.0946763622683L22.880859375 25.39575550655273" stroke-width="0.03" stroke="#000000" fill="none"/>
<path d="M22.880859375 25.636618821980278L22.880859375 20.57848919800179" stroke-width="0.03" stroke="#000000" fill="none"/>
<path d="M23.610937500000002 20.397841711431134L23.923828125000004 20.21719422486047L23.923828125000004 19.976330909432924L23.610937500000002 20.156978396003588L23.610937500000002 20.397841711431134" stroke-width="0.03" stroke="#000000" fill="none"/>
<path d="M23.715234375 20.096762567146698L23.923828125000004 20.21719422486047" stroke-width="0.03" stroke="#000000" fill="none"/>
<path d="M24.653906250000002 20.63870502685868L24.653906250000002 24.612949731413206" stroke-width="0.03" stroke="#000000" fill="none"/>
<path d="M23.819531249999997 25.0946763622683L23.819531249999997 26.17856128169226L22.880859375 26.72050374140424" stroke-width="0.03" stroke="#000000" fill="none"/>
<path d="M22.672265625 26.359208768262917L21.003515625000002 27.322662029973106L20.482031250000002 27.021582885688677" stroke-width="0.03" stroke="#000000" fill="none"/>
<path d="M21.003515625000002 27.322662029973106L21.003515625000002 26.72050374140424" stroke-width="0.03" stroke="#000000" fill="none"/>
<path d="M21.003515625000002 25.636618821980278L21.9421875 25.0946763622683L22.046484375000002 25.154892191125185L22.046484375000002 21.060215828856883" stroke-width="0.03" stroke="#000000" fill="none"/>
<path d="M21.837890625 20.21719422486047L22.046484375000002 20.096762567146698L22.046484375000002 19.253740963150285L21.837890625 19.13330930543651" stroke-width="0.03" stroke="#000000" fill="none"/>
<path d="M21.837890625 19.01287764772274L22.046484375000002 19.13330930543651L22.463671875 18.892445990008962L22.567968750000002 18.95266181886585L22.567968750000002 19.795683422862265L22.98515625 19.554820107434715L22.98515625 19.31395679200717L23.610937500000002 18.95266181886585L23.610937500000002 19.193525134293395L23.923828125000004 19.01287764772274L23.923828125000004 17.688129412871227L27.052734375 15.881654547164626L26.218359375 15.399927916309531L23.089453125000002 17.206402782016134L23.089453125000002 17.326834439729907L23.506640625 17.567697755157454L23.506640625 18.77201433229519L23.40234375 18.832230161152076" stroke-width="0.03" stroke="#000000" fill="none"/>
<path d="M23.506640625 18.77201433229519L23.923828125000004 19.01287764772274" stroke-width="0.03" stroke="#000000" fill="none"/>
<path d="M23.610937500000002 18.95266181886585L23.193749999999998 18.711798503438303L22.880859375 18.892445990008962" stroke-width="0.03" stroke="#000000" fill="none"/>
<path d="M22.567968750000002 18.95266181886585L22.046484375000002 19.253740963150285" stroke-width="0.03" stroke="#000000" fill="none"/>
<path d="M22.046484375000002 19.13330930543651L22.046484375000002 19.01287764772274L21.837890625 18.892445990008962" stroke-width="0.03" stroke="#000000" fill="none"/>
<path d="M21.837890625 18.77201433229519L22.567968750000002 18.350503530296983L22.880859375 18.531151016867643L22.880859375 19.49460427857783L22.567968750000002 19.67525176514849" stroke-width="0.03" stroke="#000000" fill="none"/>
<path d="M22.880859375 19.49460427857783L22.98515625 19.554820107434715" stroke-width="0.03" stroke="#000000" fill="none"/>
<path d="M22.98515625 19.31395679200717L22.880859375 19.253740963150285" stroke-width="0.03" stroke="#000000" fill="none"/>
<path d="M22.880859375 18.531151016867643L22.046484375000002 19.01287764772274" stroke-width="0.03" stroke="#000000" fill="none"/>
<path d="M21.837890625 18.531151016867643L21.837890625 20.21719422486047" stroke-width="0.03" stroke="#000000" fill="none"/>
<path d="M21.837890625 19.976330909432924L22.046484375000002 20.096762567146698" stroke-width="0.03" stroke="#000000" fill="none"/>
<path d="M21.629296875 18.651582674581416L23.506640625 17.567697755157454" stroke-width="0.03" stroke="#000000" fill="none"/>
<path d="M23.923828125000004 17.688129412871227L23.089453125000002 17.206402782016134" stroke-width="0.03" stroke="#000000" fill="none"/>
<path d="M23.715234375 16.60424449344727L23.715234375 16.122517862592172L24.132421875000002 15.881654547164626L24.341015624999997 16.0020862048784L24.341015624999997 16.483812835733495" stroke-width="0.03" stroke="#000000" fill="none"/>
<path d="M23.923828125000004 16.24294952030595L24.341015624999997 16.0020862048784" stroke-width="0.03" stroke="#000000" fill="none"/>
<path d="M23.923828125000004 16.24294952030595L23.923828125000004 16.72467615116104L23.715234375 16.60424449344727" stroke-width="0.03" stroke="#000000" fill="none"/>
<path d="M23.923828125000004 16.24294952030595L23.715234375 16.122517862592172" stroke-width="0.03" stroke="#000000" fill="none"/>
<path d="M23.506640625 15.761222889450853L23.923828125000004 15.520359574023306L23.923828125000004 15.279496258595758L23.506640625 15.038632943168212" stroke-width="0.03" stroke="#000000" fill="none"/>
<path d="M23.089453125000002 15.279496258595758L23.089453125000002 15.520359574023306L23.506640625 15.761222889450853L23.506640625 15.520359574023306L23.089453125000002 15.279496258595758" stroke-width="0.03" stroke="#000000" fill="none"/>
<path d="M23.506640625 15.520359574023306L23.923828125000004 15.279496258595758" stroke-width="0.03" stroke="#000000" fill="none"/>
<path d="M24.549609375 15.399927916309531L18.396093750000002 18.95266181886585L18.917578125000002 19.253740963150285L18.917578125000002 19.49460427857783" stroke-width="0.03" stroke="#000000" fill="none"/>
<path d="M18.81328125 19.554820107434715L21.107812499999998 18.23007187258321L21.629296875 18.531151016867643L21.629296875 18.651582674581416" stroke-width="0.03" stroke="#000000" fill="none"/>
<path d="M21.629296875 18.531151016867643L16.205859375 21.662374117425752L15.684375 21.36129497314132" stroke-width="0.03" stroke="#000000" fill="none"/>
<path d="M15.580078125 21.54194245971198L16.1015625 21.843021603996412L16.205859375 21.782805775139526L16.205859375 21.662374117425752" stroke-width="0.03" stroke="#000000" fill="none"/>
<path d="M16.205859375 21.782805775139526L15.371484375 21.301079144284433L15.05859375 21.481726630855093L14.85 21.36129497314132L14.64140625 21.481726630855093L14.328515625 21.301079144284433L13.494140625 21.782805775139526L13.494140625 21.662374117425752L8.070703124999998 18.531151016867643L8.070703124999998 18.651582674581416L6.193359375 17.567697755157454L6.610546875 17.326834439729907L6.610546875 17.206402782016134L3.481640624999999 15.399927916309531" stroke-width="0.03" stroke="#000000" fill="none"/>
<path d="M2.647265625000001 15.881654547164626L5.776171874999998 17.688129412871227L6.610546875 17.206402782016134" stroke-width="0.03" stroke="#000000" fill="none"/>
<path d="M6.193359375 17.567697755157454L6.193359375 18.77201433229519L5.776171874999998 19.01287764772274L5.776171874999998 17.688129412871227" stroke-width="0.03" stroke="#000000" fill="none"/>
<path d="M5.776171874999998 16.72467615116104L5.984765624999999 16.60424449344727L5.984765624999999 16.122517862592172L5.567578125 15.881654547164626L5.3589843749999995 16.0020862048784L5.3589843749999995 16.483812835733495" stroke-width="0.03" stroke="#000000" fill="none"/>
<path d="M5.776171874999998 16.24294952030595L5.984765624999999 16.122517862592172" stroke-width="0.03" stroke="#000000" fill="none"/>
<path d="M5.776171874999998 16.24294952030595L5.776171874999998 16.72467615116104" stroke-width="0.03" stroke="#000000" fill="none"/>
<path d="M5.776171874999998 16.24294952030595L5.3589843749999995 16.0020862048784" stroke-width="0.03" stroke="#000000" fill="none"/>
<path d="M5.776171874999998 15.520359574023306L5.776171874999998 15.279496258595758L6.193359375 15.038632943168212" stroke-width="0.03" stroke="#000000" fill="none"/>
<path d="M6.610546875 15.279496258595758L6.193359375 15.520359574023306L6.193359375 15.761222889450853L5.776171874999998 15.520359574023306" stroke-width="0.03" stroke="#000000" fill="none"/>
<path d="M5.776171874999998 15.279496258595758L6.193359375 15.520359574023306" stroke-width="0.03" stroke="#000000" fill="none"/>
<path d="M6.193359375 15.761222889450853L6.610546875 15.520359574023306L6.610546875 15.279496258595758" stroke-width="0.03" stroke="#000000" fill="none"/>
<path d="M7.5492187500000005 15.21928042973887L9.4265625 16.303165349162832L9.322265625 16.36338117801972L9.322265625 16.965539466588588L11.616796874999999 18.290287701440096" stroke-width="0.03" stroke="#000000" fill="none"/>
<path d="M11.512500000000001 18.23007187258321L11.303906249999999 18.350503530296983L10.260937499999999 17.748345241728117L10.46953125 17.62791358401434" stroke-width="0.03" stroke="#000000" fill="none"/>
<path d="M10.260937499999999 17.748345241728117L10.260937499999999 18.350503530296983L9.739453124999999 18.651582674581416L9.739453124999999 18.892445990008962" stroke-width="0.03" stroke="#000000" fill="none"/>
<path d="M9.739453124999999 18.651582674581416L10.782421874999999 19.253740963150285L10.782421874999999 19.49460427857783" stroke-width="0.03" stroke="#000000" fill="none"/>
<path d="M10.88671875 19.554820107434715L8.5921875 18.23007187258321L8.070703124999998 18.531151016867643" stroke-width="0.03" stroke="#000000" fill="none"/>
<path d="M7.862109374999999 18.531151016867643L8.38359375 18.23007187258321L8.487890625 18.290287701440096" stroke-width="0.03" stroke="#000000" fill="none"/>
<path d="M8.80078125 17.989208557155663L8.80078125 17.748345241728117L9.009374999999999 17.62791358401434L9.009374999999999 17.387050268586794L9.21796875 17.26661861087302L10.260937499999999 17.86877689944189" stroke-width="0.03" stroke="#000000" fill="none"/>
<path d="M10.260937499999999 18.109640214869437L9.009374999999999 17.387050268586794" stroke-width="0.03" stroke="#000000" fill="none"/>
<path d="M8.80078125 17.748345241728117L10.05234375 18.470935188010756" stroke-width="0.03" stroke="#000000" fill="none"/>
<path d="M9.84375 18.59136684572453L8.80078125 17.989208557155663" stroke-width="0.03" stroke="#000000" fill="none"/>
<path d="M7.862109374999999 18.531151016867643L7.862109374999999 20.21719422486047L7.653515625 20.096762567146698L7.653515625 19.253740963150285L7.862109374999999 19.13330930543651" stroke-width="0.03" stroke="#000000" fill="none"/>
<path d="M7.862109374999999 19.01287764772274L7.653515625 19.13330930543651L7.236328125 18.892445990008962L7.13203125 18.95266181886585L7.13203125 19.795683422862265L6.714843749999999 19.554820107434715L6.714843749999999 19.31395679200717L6.089062499999999 18.95266181886585L6.089062499999999 19.193525134293395L5.776171874999998 19.01287764772274" stroke-width="0.03" stroke="#000000" fill="none"/>
<path d="M6.089062499999999 18.95266181886585L6.5062500000000005 18.711798503438303L6.819140625 18.892445990008962" stroke-width="0.03" stroke="#000000" fill="none"/>
<path d="M7.13203125 18.95266181886585L7.653515625 19.253740963150285" stroke-width="0.03" stroke="#000000" fill="none"/>
<path d="M7.653515625 19.13330930543651L7.653515625 19.01287764772274L7.862109374999999 18.892445990008962" stroke-width="0.03" stroke="#000000" fill="none"/>
<path d="M7.862109374999999 18.77201433229519L7.13203125 18.350503530296983L6.819140625 18.531151016867643L6.819140625 19.49460427857783L7.13203125 19.67525176514849" stroke-width="0.03" stroke="#000000" fill="none"/>
<path d="M6.819140625 19.49460427857783L6.714843749999999 19.554820107434715" stroke-width="0.03" stroke="#000000" fill="none"/>
<path d="M6.714843749999999 19.31395679200717L6.819140625 19.253740963150285" stroke-width="0.03" stroke="#000000" fill="none"/>
<path d="M6.297656249999999 18.832230161152076L6.193359375 18.77201433229519" stroke-width="0.03" stroke="#000000" fill="none"/>
<path d="M6.819140625 18.531151016867643L7.653515625 19.01287764772274" stroke-width="0.03" stroke="#000000" fill="none"/>
<path d="M7.862109374999999 19.976330909432924L7.653515625 20.096762567146698" stroke-width="0.03" stroke="#000000" fill="none"/>
<path d="M7.653515625 21.060215828856883L7.653515625 25.154892191125185L11.199609375 27.202230372259333" stroke-width="0.03" stroke="#000000" fill="none"/>
<path d="M12.033984375000001 27.443093687686883L12.033984375000001 27.68395700311443L12.7640625 28.105467805112635L12.97265625 27.985036147398862" stroke-width="0.03" stroke="#000000" fill="none"/>
<path d="M13.076953125000001 28.04525197625575L12.868359374999999 28.165683633969522L12.868359374999999 28.647410264824618L12.7640625 28.7076260936815L12.033984375000001 28.286115291683295L12.033984375000001 28.767841922538388L12.242578125 28.888273580252164L12.242578125 29.610863526534803L12.033984375000001 29.490431868821034L12.033984375000001 29.851726841962353" stroke-width="0.03" stroke="#000000" fill="none"/>
<path d="M12.242578125 29.610863526534803L12.659765624999999 29.37000021110726L12.659765624999999 29.008705237965938" stroke-width="0.03" stroke="#000000" fill="none"/>
<path d="M12.7640625 28.7076260936815L12.7640625 28.105467805112635" stroke-width="0.03" stroke="#000000" fill="none"/>
<path d="M12.868359374999999 28.165683633969522L12.97265625 28.22589946282641L13.181249999999999 28.105467805112635" stroke-width="0.03" stroke="#000000" fill="none"/>
<path d="M13.285546875 28.165683633969522L13.285546875 29.008705237965938L12.97265625 29.189352724536597L12.138281249999999 28.7076260936815L12.138281249999999 28.346331120540185" stroke-width="0.03" stroke="#000000" fill="none"/>
<path d="M12.138281249999999 28.7076260936815L12.033984375000001 28.767841922538388" stroke-width="0.03" stroke="#000000" fill="none"/>
<path d="M12.242578125 28.888273580252164L12.346874999999999 28.828057751395274" stroke-width="0.03" stroke="#000000" fill="none"/>
<path d="M12.97265625 29.189352724536597L12.97265625 28.22589946282641" stroke-width="0.03" stroke="#000000" fill="none"/>
<path d="M13.494140625 28.286115291683295L14.015625 27.985036147398862L14.015625 27.864604489685092" stroke-width="0.03" stroke="#000000" fill="none"/>
<path d="M14.4328125 27.744172831971316L14.4328125 26.53985625483358" stroke-width="0.03" stroke="#000000" fill="none"/>
<path d="M14.328515625 26.600072083690467L14.85 26.29899293940603L15.371484375 26.600072083690467L15.580078125 26.479640425976694" stroke-width="0.03" stroke="#000000" fill="none"/>
<path d="M15.371484375 26.600072083690467L15.371484375 25.39575550655273" stroke-width="0.03" stroke="#000000" fill="none"/>
<path d="M15.371484375 25.27532384883896L15.684375 25.0946763622683L15.684375 24.37208641598566" stroke-width="0.03" stroke="#000000" fill="none"/>
<path d="M15.47578125 24.492518073699433L15.47578125 23.288201496561694" stroke-width="0.03" stroke="#000000" fill="none"/>
<path d="M15.47578125 22.8064748657066L15.47578125 22.44517989256528L14.85 22.08388491942396L14.224218749999999 22.44517989256528L14.224218749999999 22.8064748657066" stroke-width="0.03" stroke="#000000" fill="none"/>
<path d="M14.224218749999999 22.44517989256528L13.911328125 22.264532405994622" stroke-width="0.03" stroke="#000000" fill="none"/>
<path d="M13.598437500000001 21.843021603996412L14.119921875 21.54194245971198" stroke-width="0.03" stroke="#000000" fill="none"/>
<path d="M14.015625 21.36129497314132L13.494140625 21.662374117425752" stroke-width="0.03" stroke="#000000" fill="none"/>
<path d="M13.494140625 21.782805775139526L13.598437500000001 21.843021603996412L13.598437500000001 28.105467805112635" stroke-width="0.03" stroke="#000000" fill="none"/>
<path d="M13.494140625 28.286115291683295L12.033984375000001 27.443093687686883" stroke-width="0.03" stroke="#000000" fill="none"/>
<path d="M12.242578125 27.563525345400656L12.033984375000001 27.68395700311443" stroke-width="0.03" stroke="#000000" fill="none"/>
<path d="M11.199609375 28.286115291683295L9.530859375 27.322662029973106L9.63515625 27.26244620111622" stroke-width="0.03" stroke="#000000" fill="none"/>
<path d="M9.530859375 27.322662029973106L9.530859375 28.04525197625575L6.089062499999999 26.058129623978488" stroke-width="0.03" stroke="#000000" fill="none"/>
<path d="M5.88046875 26.17856128169226L5.88046875 25.0946763622683" stroke-width="0.03" stroke="#000000" fill="none"/>
<path d="M6.297656249999999 25.0946763622683L6.297656249999999 23.167769838847924L6.819140625 22.866690694563488" stroke-width="0.03" stroke="#000000" fill="none"/>
<path d="M6.819140625 23.468848983132357L6.297656249999999 23.167769838847924" stroke-width="0.03" stroke="#000000" fill="none"/>
<path d="M7.7578125 24.010791442844337L7.862109374999999 23.95057561398745" stroke-width="0.03" stroke="#000000" fill="none"/>
<path d="M7.7578125 24.010791442844337L7.7578125 25.0946763622683L8.696484375 25.636618821980278L8.80078125 25.576402993123395" stroke-width="0.03" stroke="#000000" fill="none"/>
<path d="M8.696484375 25.636618821980278L8.696484375 25.51618716426651" stroke-width="0.03" stroke="#000000" fill="none"/>
<path d="M7.7578125 25.0946763622683L7.653515625 25.154892191125185" stroke-width="0.03" stroke="#000000" fill="none"/>
<path d="M7.862109374999999 24.071007271701223L7.7578125 24.010791442844337" stroke-width="0.03" stroke="#000000" fill="none"/>
<path d="M7.027734374999999 26.359208768262917L8.696484375 27.322662029973106L9.21796875 27.021582885688677" stroke-width="0.03" stroke="#000000" fill="none"/>
<path d="M8.696484375 27.322662029973106L8.696484375 26.72050374140424" stroke-width="0.03" stroke="#000000" fill="none"/>
<path d="M6.819140625 26.479640425976694L6.819140625 27.68395700311443L10.260937499999999 29.67107935539169" stroke-width="0.03" stroke="#000000" fill="none"/>
<path d="M10.991015625000001 29.249568553393484L11.199609375 29.12913689567971" stroke-width="0.03" stroke="#000000" fill="none"/>
<path d="M11.199609375 29.008705237965938L11.199609375 29.37000021110726L10.991015625000001 29.249568553393484L10.991015625000001 28.888273580252164L11.199609375 29.008705237965938" stroke-width="0.03" stroke="#000000" fill="none"/>
<path d="M9.113671875 29.008705237965938L8.696484375 29.249568553393484L7.5492187500000005 28.58719443596773L7.5492187500000005 30.152805986246786L4.733203124999998 28.526978607110845" stroke-width="0.03" stroke="#000000" fill="none"/>
<path d="M4.524609375000001 28.647410264824618L3.898828125 28.286115291683295" stroke-width="0.03" stroke="#000000" fill="none"/>
<path d="M4.003124999999999 28.22589946282641L3.6902343750000006 28.40654694939707L2.8558593750000005 27.92482031854198L2.8558593750000005 26.96136705683179L3.1687499999999984 26.780719570261127L4.003124999999999 27.26244620111622L4.003124999999999 28.22589946282641" stroke-width="0.03" stroke="#000000" fill="none"/>
<path d="M3.6902343750000006 28.40654694939707L3.6902343750000006 27.443093687686883L4.003124999999999 27.26244620111622" stroke-width="0.03" stroke="#000000" fill="none"/>
<path d="M3.6902343750000006 27.443093687686883L2.8558593750000005 26.96136705683179" stroke-width="0.03" stroke="#000000" fill="none"/>
<path d="M3.064453125 26.840935399118013L3.064453125 26.118345452835374" stroke-width="0.03" stroke="#000000" fill="none"/>
<path d="M3.2730468750000017 25.9979137951216L2.647265625000001 26.359208768262917L2.2300781249999995 26.118345452835374L2.2300781249999995 22.264532405994622L2.3343750000000005 22.204316577137735L2.54296875 22.32474823485151" stroke-width="0.03" stroke="#000000" fill="none"/>
<path d="M2.647265625000001 22.50539572142217L2.647265625000001 26.359208768262917" stroke-width="0.03" stroke="#000000" fill="none"/>
<path d="M3.2730468750000017 24.432302244842543L3.064453125 24.311870587128773L3.064453125 22.98712235227726" stroke-width="0.03" stroke="#000000" fill="none"/>
<path d="M2.647265625000001 22.50539572142217L2.2300781249999995 22.264532405994622" stroke-width="0.03" stroke="#000000" fill="none"/>
<path d="M4.107421875 28.888273580252164L7.4449218749999995 30.815180103672542L7.4449218749999995 31.296906734527635" stroke-width="0.03" stroke="#000000" fill="none"/>
<path d="M7.5492187500000005 30.995827590243202L10.05234375 32.44100748280849" stroke-width="0.03" stroke="#000000" fill="none"/>
<path d="M9.739453124999999 30.574316788244992L8.070703124999998 29.610863526534803L8.070703124999998 28.888273580252164" stroke-width="0.03" stroke="#000000" fill="none"/>
<path d="M7.96640625 28.828057751395274L7.96640625 29.430216039964147L8.070703124999998 29.490431868821034L8.38359375 29.30978438225037L8.38359375 29.068921066822824" stroke-width="0.03" stroke="#000000" fill="none"/>
<path d="M8.696484375 29.249568553393484L8.696484375 28.767841922538388" stroke-width="0.03" stroke="#000000" fill="none"/>
<path d="M8.175 29.67107935539169L8.175 29.791511013105463L7.5492187500000005 30.152805986246786" stroke-width="0.03" stroke="#000000" fill="none"/>
<path d="M7.236328125 30.21302181510367L6.089062499999999 29.550647697677917L6.089062499999999 29.30978438225037" stroke-width="0.03" stroke="#000000" fill="none"/>
<path d="M7.96640625 29.91194267081924L9.113671875 30.574316788244992L9.4265625 30.393669301674333" stroke-width="0.03" stroke="#000000" fill="none"/>
<path d="M9.113671875 30.574316788244992L9.113671875 30.21302181510367" stroke-width="0.03" stroke="#000000" fill="none"/>
<path d="M7.7578125 30.63453261710188L7.7578125 30.87539593252943" stroke-width="0.03" stroke="#000000" fill="none"/>
<path d="M13.181249999999999 30.514100959388106L13.181249999999999 34.12705069080131" stroke-width="0.03" stroke="#000000" fill="none"/>
<path d="M14.015625 32.68187079823603L14.85 32.200144167380934L15.684375 32.68187079823603" stroke-width="0.03" stroke="#000000" fill="none"/>
<path d="M14.85 32.200144167380934L14.85 25.0946763622683" stroke-width="0.03" stroke="#000000" fill="none"/>
<path d="M14.85 24.974244704554525L14.85 23.288201496561694L14.745703124999999 23.348417325418584" stroke-width="0.03" stroke="#000000" fill="none"/>
<path d="M14.85 23.288201496561694L14.954296875 23.348417325418584L14.954296875 23.58928064084613" stroke-width="0.03" stroke="#000000" fill="none"/>
<path d="M14.745703124999999 23.58928064084613L13.911328125 23.107554009991038" stroke-width="0.03" stroke="#000000" fill="none"/>
<path d="M14.224218749999999 23.288201496561694L14.224218749999999 24.492518073699433L13.911328125 24.311870587128773" stroke-width="0.03" stroke="#000000" fill="none"/>
<path d="M14.224218749999999 24.492518073699433L14.328515625 24.432302244842543L14.328515625 25.27532384883896" stroke-width="0.03" stroke="#000000" fill="none"/>
<path d="M14.328515625 25.39575550655273L14.328515625 26.600072083690467L14.119921875 26.479640425976694" stroke-width="0.03" stroke="#000000" fill="none"/>
<path d="M14.64140625 26.419424597119807L14.64140625 27.864604489685092L14.85 27.744172831971316L15.05859375 27.864604489685092L15.267187499999999 27.744172831971316L15.267187499999999 26.53985625483358" stroke-width="0.03" stroke="#000000" fill="none"/>
<path d="M15.05859375 26.419424597119807L15.05859375 27.864604489685092" stroke-width="0.03" stroke="#000000" fill="none"/>
<path d="M14.64140625 27.864604489685092L14.4328125 27.744172831971316" stroke-width="0.03" stroke="#000000" fill="none"/>
<path d="M15.684375 27.864604489685092L15.684375 27.985036147398862L16.205859375 28.286115291683295L17.666015625 27.443093687686883L17.666015625 27.68395700311443L16.9359375 28.105467805112635L16.72734375 27.985036147398862" stroke-width="0.03" stroke="#000000" fill="none"/>
<path d="M16.623046875 28.04525197625575L16.831640625 28.165683633969522L16.831640625 28.647410264824618L16.9359375 28.7076260936815L17.666015625 28.286115291683295L17.666015625 28.767841922538388L17.457421875 28.888273580252164L17.457421875 29.610863526534803L17.666015625 29.490431868821034L17.666015625 29.851726841962353L16.51875 30.514100959388106L15.684375 30.032374328533013" stroke-width="0.03" stroke="#000000" fill="none"/>
<path d="M16.205859375 30.21302181510367L17.248828125 29.610863526534803L17.248828125 29.490431868821034" stroke-width="0.03" stroke="#000000" fill="none"/>
<path d="M17.248828125 29.610863526534803L17.666015625 29.851726841962353" stroke-width="0.03" stroke="#000000" fill="none"/>
<path d="M17.457421875 29.610863526534803L17.040234375 29.37000021110726L17.040234375 29.008705237965938" stroke-width="0.03" stroke="#000000" fill="none"/>
<path d="M16.9359375 28.7076260936815L16.9359375 28.105467805112635" stroke-width="0.03" stroke="#000000" fill="none"/>
<path d="M16.831640625 28.165683633969522L16.72734375 28.22589946282641L16.72734375 29.189352724536597L17.56171875 28.7076260936815L17.56171875 28.346331120540185" stroke-width="0.03" stroke="#000000" fill="none"/>
<path d="M17.56171875 28.7076260936815L17.666015625 28.767841922538388" stroke-width="0.03" stroke="#000000" fill="none"/>
<path d="M17.457421875 28.888273580252164L17.353125 28.828057751395274" stroke-width="0.03" stroke="#000000" fill="none"/>
<path d="M16.72734375 29.189352724536597L16.414453125 29.008705237965938L16.414453125 28.165683633969522" stroke-width="0.03" stroke="#000000" fill="none"/>
<path d="M16.51875 28.105467805112635L16.72734375 28.22589946282641" stroke-width="0.03" stroke="#000000" fill="none"/>
<path d="M16.1015625 28.105467805112635L16.1015625 21.843021603996412" stroke-width="0.03" stroke="#000000" fill="none"/>
<path d="M15.788671874999999 22.264532405994622L15.47578125 22.44517989256528" stroke-width="0.03" stroke="#000000" fill="none"/>
<path d="M15.788671874999999 22.866690694563488L14.954296875 23.348417325418584" stroke-width="0.03" stroke="#000000" fill="none"/>
<path d="M14.85 22.44517989256528L14.85 22.08388491942396" stroke-width="0.03" stroke="#000000" fill="none"/>
<path d="M14.64140625 21.481726630855093L14.64140625 21.120431657713773L15.162890625 20.819352513429337L15.162890625 20.57848919800179L14.85 20.397841711431134L14.537109375 20.57848919800179L14.537109375 20.819352513429337L14.328515625 20.939784171143113L14.328515625 21.301079144284433" stroke-width="0.03" stroke="#000000" fill="none"/>
<path d="M14.328515625 20.939784171143113L14.64140625 21.120431657713773" stroke-width="0.03" stroke="#000000" fill="none"/>
<path d="M14.85 21.36129497314132L14.85 20.759136684572454L15.162890625 20.57848919800179" stroke-width="0.03" stroke="#000000" fill="none"/>
<path d="M15.162890625 20.819352513429337L15.371484375 20.939784171143113L15.371484375 21.301079144284433" stroke-width="0.03" stroke="#000000" fill="none"/>
<path d="M15.371484375 20.939784171143113L15.05859375 21.120431657713773L15.05859375 21.481726630855093" stroke-width="0.03" stroke="#000000" fill="none"/>
<path d="M15.05859375 21.120431657713773L14.537109375 20.819352513429337" stroke-width="0.03" stroke="#000000" fill="none"/>
<path d="M14.537109375 20.57848919800179L14.85 20.759136684572454" stroke-width="0.03" stroke="#000000" fill="none"/>
<path d="M14.85 20.397841711431134L14.85 19.434388449720945L14.745703124999999 19.49460427857783L9.322265625 16.36338117801972" stroke-width="0.03" stroke="#000000" fill="none"/>
<path d="M9.21796875 16.18273369144906L10.678125 15.339712087452645L10.46953125 15.21928042973887L9.739453124999999 15.640791231737078L9.739453124999999 15.881654547164626" stroke-width="0.03" stroke="#000000" fill="none"/>
<path d="M9.63515625 15.94187037602151L9.63515625 15.701007060593964L9.21796875 15.460143745166418L9.21796875 15.339712087452645L9.739453124999999 15.640791231737078" stroke-width="0.03" stroke="#000000" fill="none"/>
<path d="M9.63515625 15.701007060593964L9.530859375 15.761222889450853L9.530859375 16.0020862048784" stroke-width="0.03" stroke="#000000" fill="none"/>
<path d="M9.4265625 16.062302033735286L8.696484375 15.640791231737078L8.696484375 15.279496258595758L9.530859375 14.797769627740664L9.530859375 14.67733797002689" stroke-width="0.03" stroke="#000000" fill="none"/>
<path d="M9.530859375 14.797769627740664L9.84375 14.978417114311325" stroke-width="0.03" stroke="#000000" fill="none"/>
<path d="M9.322265625 14.918201285454437L9.322265625 14.797769627740664" stroke-width="0.03" stroke="#000000" fill="none"/>
<path d="M8.696484375 15.279496258595758L9.530859375 15.761222889450853" stroke-width="0.03" stroke="#000000" fill="none"/>
<path d="M9.21796875 16.18273369144906L9.21796875 16.784891980017925L9.322265625 16.845107808874815" stroke-width="0.03" stroke="#000000" fill="none"/>
<path d="M10.46953125 15.460143745166418L10.46953125 15.21928042973887" stroke-width="0.03" stroke="#000000" fill="none"/>
<path d="M11.303906249999999 14.737553798883777L14.85 12.690215617749628L18.396093750000002 14.737553798883777" stroke-width="0.03" stroke="#000000" fill="none"/>
<path d="M19.021874999999998 15.339712087452645L19.23046875 15.21928042973887L19.960546875000002 15.640791231737078L20.482031250000002 15.339712087452645L20.482031250000002 15.460143745166418L20.064843749999998 15.701007060593964L20.064843749999998 15.94187037602151" stroke-width="0.03" stroke="#000000" fill="none"/>
<path d="M19.960546875000002 15.881654547164626L19.960546875000002 15.640791231737078" stroke-width="0.03" stroke="#000000" fill="none"/>
<path d="M20.064843749999998 15.701007060593964L20.169140624999997 15.761222889450853L20.169140624999997 16.0020862048784" stroke-width="0.03" stroke="#000000" fill="none"/>
<path d="M20.2734375 16.062302033735286L21.003515625000002 15.640791231737078L21.003515625000002 15.279496258595758L20.169140624999997 14.797769627740664L20.169140624999997 14.67733797002689L20.377734375 14.797769627740664L21.003515625000002 14.436474654599342L21.003515625000002 14.918201285454437L20.690625 15.098848772025098" stroke-width="0.03" stroke="#000000" fill="none"/>
<path d="M20.482031250000002 15.339712087452645L19.751953125 14.918201285454437L20.169140624999997 14.67733797002689" stroke-width="0.03" stroke="#000000" fill="none"/>
<path d="M20.169140624999997 14.797769627740664L19.85625 14.978417114311325" stroke-width="0.03" stroke="#000000" fill="none"/>
<path d="M20.377734375 14.918201285454437L20.377734375 14.797769627740664" stroke-width="0.03" stroke="#000000" fill="none"/>
<path d="M20.794921875 14.31604299688557L21.107812499999998 14.13539551031491L22.255078124999997 14.797769627740664L22.255078124999997 15.761222889450853L25.383984374999997 13.95474802374425L25.383984374999997 12.991294762034062L22.463671875 11.305251554041233" stroke-width="0.03" stroke="#000000" fill="none"/>
<path d="M22.359375 11.365467382898117L22.359375 11.124604067470571L23.193749999999998 10.642877436615478L19.85625 8.715970913195102L19.334765625 9.017050057479535" stroke-width="0.03" stroke="#000000" fill="none"/>
<path d="M19.647656249999997 9.67942417490529L20.064843749999998 9.438560859477743L20.064843749999998 9.558992517191516L19.85625 9.67942417490529L19.85625 9.920287490332836L19.647656249999997 10.04071914804661L19.126171875 9.739640003762176L18.917578125000002 9.86007166147595L18.917578125000002 9.980503319189724" stroke-width="0.03" stroke="#000000" fill="none"/>
<path d="M18.917578125000002 9.86007166147595L21.9421875 11.606330698325666" stroke-width="0.03" stroke="#000000" fill="none"/>
<path d="M21.733593749999997 11.72676235603944L21.212109374999997 11.425683211755006L19.543359374999998 12.389136473465193" stroke-width="0.03" stroke="#000000" fill="none"/>
<path d="M20.064843749999998 12.690215617749628L23.193749999999998 10.883740752043025L23.193749999999998 10.642877436615478" stroke-width="0.03" stroke="#000000" fill="none"/>
<path d="M22.880859375 11.425683211755006L22.7765625 11.485899040611892" stroke-width="0.03" stroke="#000000" fill="none"/>
<path d="M22.880859375 11.425683211755006L22.880859375 11.54611486946878" stroke-width="0.03" stroke="#000000" fill="none"/>
<path d="M22.880859375 11.425683211755006L22.567968750000002 11.245035725184344" stroke-width="0.03" stroke="#000000" fill="none"/>
<path d="M22.359375 11.365467382898117L19.85625 9.920287490332836" stroke-width="0.03" stroke="#000000" fill="none"/>
<path d="M19.85625 9.67942417490529L22.359375 11.124604067470571" stroke-width="0.03" stroke="#000000" fill="none"/>
<path d="M20.586328125 11.786978184896327L18.917578125000002 10.823524923186138L18.291796875 11.184819896327458" stroke-width="0.03" stroke="#000000" fill="none"/>
<path d="M18.1875 11.124604067470571L18.708984375 10.823524923186138L18.81328125 10.883740752043025L18.81328125 11.245035725184344L18.6046875 11.365467382898117" stroke-width="0.03" stroke="#000000" fill="none"/>
<path d="M18.917578125000002 11.54611486946878L18.500390624999998 11.786978184896327" stroke-width="0.03" stroke="#000000" fill="none"/>
<path d="M18.917578125000002 11.54611486946878L18.917578125000002 12.027841500323873" stroke-width="0.03" stroke="#000000" fill="none"/>
<path d="M18.917578125000002 11.54611486946878L17.7703125 10.883740752043025L19.126171875 10.100934976903497L19.126171875 10.823524923186138L19.021874999999998 10.883740752043025" stroke-width="0.03" stroke="#000000" fill="none"/>
<path d="M19.126171875 10.582661607758592L20.2734375 11.245035725184344L20.2734375 11.606330698325666" stroke-width="0.03" stroke="#000000" fill="none"/>
<path d="M19.960546875000002 11.425683211755006L20.2734375 11.245035725184344" stroke-width="0.03" stroke="#000000" fill="none"/>
<path d="M19.647656249999997 10.04071914804661L19.647656249999997 9.67942417490529L16.31015625 7.752517651484913L16.31015625 8.475107597767554L14.85 9.31812920176397L13.389843749999999 8.475107597767554L13.389843749999999 7.752517651484913" stroke-width="0.03" stroke="#000000" fill="none"/>
<path d="M13.389843749999999 8.234244282340008L14.015625 7.872949309198687" stroke-width="0.03" stroke="#000000" fill="none"/>
<path d="M14.015625 7.9933809669124605L14.015625 7.63208599377114L14.85 7.1503593629160465L15.684375 7.63208599377114L15.684375 7.9933809669124605L14.85 8.475107597767554L14.015625 7.9933809669124605" stroke-width="0.03" stroke="#000000" fill="none"/>
<path d="M14.015625 7.63208599377114L14.85 8.113812624626235L14.85 8.475107597767554" stroke-width="0.03" stroke="#000000" fill="none"/>
<path d="M14.85 8.113812624626235L15.684375 7.63208599377114" stroke-width="0.03" stroke="#000000" fill="none"/>
<path d="M15.684375 7.872949309198687L16.31015625 8.234244282340008" stroke-width="0.03" stroke="#000000" fill="none"/>
<path d="M16.31015625 8.475107597767554L19.126171875 10.100934976903497" stroke-width="0.03" stroke="#000000" fill="none"/>
<path d="M19.021874999999998 9.799855832619063L17.874609375000002 9.13748171519331L17.666015625 9.257913372907083" stroke-width="0.03" stroke="#000000" fill="none"/>
<path d="M16.623046875 10.703093265472365L15.580078125 11.305251554041233L15.580078125 11.54611486946878L17.248828125 12.509568131178968L17.248828125 13.111726419747836" stroke-width="0.03" stroke="#000000" fill="none"/>
<path d="M17.248828125 12.509568131178968L16.72734375 12.8106472754634" stroke-width="0.03" stroke="#000000" fill="none"/>
<path d="M15.788671874999999 13.352589735175382L15.684375 13.412805564032269" stroke-width="0.03" stroke="#000000" fill="none"/>
<path d="M15.788671874999999 13.352589735175382L15.788671874999999 13.473021392889155" stroke-width="0.03" stroke="#000000" fill="none"/>
<path d="M15.788671874999999 13.352589735175382L14.85 12.8106472754634L14.85 12.690215617749628" stroke-width="0.03" stroke="#000000" fill="none"/>
<path d="M14.85 12.8106472754634L13.911328125 13.352589735175382L13.911328125 13.473021392889155" stroke-width="0.03" stroke="#000000" fill="none"/>
<path d="M14.015625 13.412805564032269L13.911328125 13.352589735175382" stroke-width="0.03" stroke="#000000" fill="none"/>
<path d="M12.97265625 12.8106472754634L12.451171875 12.509568131178968" stroke-width="0.03" stroke="#000000" fill="none"/>
<path d="M12.033984375000001 13.232158077461609L12.033984375000001 13.352589735175382" stroke-width="0.03" stroke="#000000" fill="none"/>
<path d="M12.033984375000001 13.232158077461609L11.408203125 12.87086310432029L14.85 10.883740752043025" stroke-width="0.03" stroke="#000000" fill="none"/>
<path d="M14.85 10.642877436615478L15.788671874999999 11.184819896327458" stroke-width="0.03" stroke="#000000" fill="none"/>
<path d="M15.580078125 11.54611486946878L15.05859375 11.847194013753214" stroke-width="0.03" stroke="#000000" fill="none"/>
<path d="M14.85 11.72676235603944L19.23046875 14.255827168028683" stroke-width="0.03" stroke="#000000" fill="none"/>
<path d="M19.751953125 13.713884708316701L20.064843749999998 13.533237221746042L20.2734375 13.653668879459815L19.960546875000002 13.834316366030475L19.751953125 13.713884708316701" stroke-width="0.03" stroke="#000000" fill="none"/>
<path d="M20.064843749999998 13.77410053717359L20.064843749999998 13.533237221746042" stroke-width="0.03" stroke="#000000" fill="none"/>
<path d="M20.064843749999998 12.690215617749628L16.623046875 10.703093265472365" stroke-width="0.03" stroke="#000000" fill="none"/>
<path d="M16.31015625 7.752517651484913L16.72734375 7.511654336057367L20.064843749999998 9.438560859477743" stroke-width="0.03" stroke="#000000" fill="none"/>
<path d="M21.107812499999998 14.13539551031491L21.107812499999998 14.617122141170004L21.003515625000002 14.67733797002689" stroke-width="0.03" stroke="#000000" fill="none"/>
<path d="M21.107812499999998 14.617122141170004L22.150781249999998 15.21928042973887L22.150781249999998 15.701007060593964L22.255078124999997 15.761222889450853" stroke-width="0.03" stroke="#000000" fill="none"/>
<path d="M22.150781249999998 15.21928042973887L20.2734375 16.303165349162832L20.377734375 16.36338117801972L20.377734375 16.965539466588588L18.083203125 18.290287701440096" stroke-width="0.03" stroke="#000000" fill="none"/>
<path d="M18.1875 18.23007187258321L18.396093750000002 18.350503530296983L19.439062500000002 17.748345241728117L19.23046875 17.62791358401434" stroke-width="0.03" stroke="#000000" fill="none"/>
<path d="M19.439062500000002 17.748345241728117L19.439062500000002 18.350503530296983L19.960546875000002 18.651582674581416L19.960546875000002 18.892445990008962" stroke-width="0.03" stroke="#000000" fill="none"/>
<path d="M19.960546875000002 18.651582674581416L18.917578125000002 19.253740963150285" stroke-width="0.03" stroke="#000000" fill="none"/>
<path d="M18.81328125 19.31395679200717L18.083203125 19.735467594005378L18.1875 19.795683422862265L18.1875 20.156978396003588L16.9359375 20.879568342286227L16.831640625 20.819352513429337L16.831640625 21.060215828856883L16.72734375 21" stroke-width="0.03" stroke="#000000" fill="none"/>
<path d="M16.831640625 21.060215828856883L17.040234375 20.939784171143113L17.040234375 20.819352513429337" stroke-width="0.03" stroke="#000000" fill="none"/>
<path d="M17.14453125 20.759136684572454L17.14453125 19.795683422862265L17.040234375 19.735467594005378L17.040234375 19.615035936291605L16.205859375 19.13330930543651" stroke-width="0.03" stroke="#000000" fill="none"/>
<path d="M16.1015625 19.193525134293395L15.997265625 19.13330930543651L15.788671874999999 19.253740963150285L15.788671874999999 19.37417262086406" stroke-width="0.03" stroke="#000000" fill="none"/>
<path d="M15.788671874999999 19.253740963150285L15.997265625 19.37417262086406L15.997265625 19.253740963150285L17.248828125 18.531151016867643L17.56171875 18.711798503438303L17.56171875 18.832230161152076L18.291796875 18.410719359153866L18.291796875 19.01287764772274L16.831640625 19.85589925171915L16.831640625 19.735467594005378L15.997265625 19.253740963150285" stroke-width="0.03" stroke="#000000" fill="none"/>
<path d="M16.1015625 19.554820107434715L15.788671874999999 19.735467594005378L15.788671874999999 20.458057540288017L16.414453125 20.819352513429337L16.72734375 20.63870502685868" stroke-width="0.03" stroke="#000000" fill="none"/>
<path d="M16.9359375 20.879568342286227L16.9359375 19.916115080576038L17.14453125 19.795683422862265" stroke-width="0.03" stroke="#000000" fill="none"/>
<path d="M17.040234375 19.615035936291605L16.831640625 19.735467594005378" stroke-width="0.03" stroke="#000000" fill="none"/>
<path d="M16.831640625 19.85589925171915L16.9359375 19.916115080576038" stroke-width="0.03" stroke="#000000" fill="none"/>
<path d="M17.14453125 20.397841711431134L18.1875 19.795683422862265" stroke-width="0.03" stroke="#000000" fill="none"/>
<path d="M18.1875 20.03654673828981L18.81328125 19.67525176514849L18.81328125 19.31395679200717L18.291796875 19.01287764772274" stroke-width="0.03" stroke="#000000" fill="none"/>
<path d="M18.396093750000002 18.95266181886585L18.396093750000002 18.350503530296983" stroke-width="0.03" stroke="#000000" fill="none"/>
<path d="M18.291796875 18.410719359153866L17.978906249999998 18.23007187258321L17.353125 18.59136684572453" stroke-width="0.03" stroke="#000000" fill="none"/>
<path d="M17.56171875 18.711798503438303L16.51875 19.31395679200717" stroke-width="0.03" stroke="#000000" fill="none"/>
<path d="M15.788671874999999 19.735467594005378L15.47578125 19.554820107434715" stroke-width="0.03" stroke="#000000" fill="none"/>
<path d="M14.954296875 19.49460427857783L20.377734375 16.36338117801972" stroke-width="0.03" stroke="#000000" fill="none"/>
<path d="M20.482031250000002 16.18273369144906L20.482031250000002 16.784891980017925L20.377734375 16.845107808874815" stroke-width="0.03" stroke="#000000" fill="none"/>
<path d="M20.482031250000002 17.26661861087302L19.439062500000002 17.86877689944189" stroke-width="0.03" stroke="#000000" fill="none"/>
<path d="M19.439062500000002 18.109640214869437L20.690625 17.387050268586794L20.482031250000002 17.26661861087302" stroke-width="0.03" stroke="#000000" fill="none"/>
<path d="M20.690625 17.387050268586794L20.690625 17.62791358401434L20.89921875 17.748345241728117L20.89921875 17.989208557155663L19.85625 18.59136684572453" stroke-width="0.03" stroke="#000000" fill="none"/>
<path d="M19.647656249999997 18.470935188010756L20.89921875 17.748345241728117" stroke-width="0.03" stroke="#000000" fill="none"/>
<path d="M21.212109374999997 18.290287701440096L21.31640625 18.23007187258321L21.837890625 18.531151016867643" stroke-width="0.03" stroke="#000000" fill="none"/>
<path d="M20.482031250000002 16.18273369144906L19.021874999999998 15.339712087452645" stroke-width="0.03" stroke="#000000" fill="none"/>
<path d="M19.23046875 15.460143745166418L19.23046875 15.21928042973887" stroke-width="0.03" stroke="#000000" fill="none"/>
<path d="M20.169140624999997 15.761222889450853L21.003515625000002 15.279496258595758" stroke-width="0.03" stroke="#000000" fill="none"/>
<path d="M21.003515625000002 14.436474654599342L20.794921875 14.31604299688557" stroke-width="0.03" stroke="#000000" fill="none"/>
<path d="M22.255078124999997 14.797769627740664L25.383984374999997 12.991294762034062" stroke-width="0.03" stroke="#000000" fill="none"/>
<path d="M24.549609375 14.436474654599342L24.549609375 15.399927916309531L25.383984374999997 15.881654547164626" stroke-width="0.03" stroke="#000000" fill="none"/>
<path d="M27.052734375 15.881654547164626L27.052734375 19.253740963150285" stroke-width="0.03" stroke="#000000" fill="none"/>
<path d="M27.15703125 19.193525134293395L27.15703125 18.832230161152076L27.052734375 18.77201433229519" stroke-width="0.03" stroke="#000000" fill="none"/>
<path d="M27.15703125 18.832230161152076L27.052734375 18.892445990008962" stroke-width="0.03" stroke="#000000" fill="none"/>
<path d="M27.15703125 19.434388449720945L27.99140625 18.95266181886585" stroke-width="0.03" stroke="#000000" fill="none"/>
<path d="M25.696875000000002 20.63870502685868L25.696875000000002 22.565611550279055" stroke-width="0.03" stroke="#000000" fill="none"/>
<path d="M26.009765625 22.50539572142217L26.009765625 21.18064748657066L25.696875000000002 21" stroke-width="0.03" stroke="#000000" fill="none"/>
<path d="M26.009765625 21.18064748657066L25.696875000000002 21.36129497314132" stroke-width="0.03" stroke="#000000" fill="none"/>
<path d="M25.07109375 22.204316577137735L24.653906250000002 21.96345326171019" stroke-width="0.03" stroke="#000000" fill="none"/>
<path d="M23.40234375 23.167769838847924L22.880859375 23.468848983132357" stroke-width="0.03" stroke="#000000" fill="none"/>
<path d="M23.40234375 23.167769838847924L23.40234375 25.0946763622683" stroke-width="0.03" stroke="#000000" fill="none"/>
<path d="M23.610937500000002 26.058129623978488L23.819531249999997 26.17856128169226" stroke-width="0.03" stroke="#000000" fill="none"/>
<path d="M22.046484375000002 25.154892191125185L18.500390624999998 27.202230372259333" stroke-width="0.03" stroke="#000000" fill="none"/>
<path d="M17.666015625 27.68395700311443L17.457421875 27.563525345400656" stroke-width="0.03" stroke="#000000" fill="none"/>
<path d="M16.51875 30.514100959388106L16.51875 34.12705069080131" stroke-width="0.03" stroke="#000000" fill="none"/>
<path d="M15.267187499999999 31.71841753652584L15.684375 31.477554221098295" stroke-width="0.03" stroke="#000000" fill="none"/>
<path d="M15.684375 30.995827590243202L15.267187499999999 31.236690905670745L15.05859375 31.11625924795697L15.05859375 31.597985878812068L15.267187499999999 31.71841753652584L15.267187499999999 31.236690905670745" stroke-width="0.03" stroke="#000000" fill="none"/>
<path d="M15.05859375 31.11625924795697L15.47578125 30.87539593252943L15.684375 30.995827590243202" stroke-width="0.03" stroke="#000000" fill="none"/>
<path d="M14.64140625 31.11625924795697L14.4328125 31.236690905670745L14.015625 30.995827590243202L14.224218749999999 30.87539593252943L14.64140625 31.11625924795697L14.64140625 31.597985878812068L14.4328125 31.71841753652584L14.015625 31.477554221098295" stroke-width="0.03" stroke="#000000" fill="none"/>
<path d="M14.4328125 31.71841753652584L14.4328125 31.236690905670745" stroke-width="0.03" stroke="#000000" fill="none"/>
<path d="M20.89921875 25.576402993123395L21.003515625000002 25.636618821980278L21.003515625000002 25.51618716426651" stroke-width="0.03" stroke="#000000" fill="none"/>
<path d="M21.9421875 25.0946763622683L21.9421875 24.010791442844337L21.837890625 23.95057561398745" stroke-width="0.03" stroke="#000000" fill="none"/>
<path d="M21.9421875 24.010791442844337L21.837890625 24.071007271701223" stroke-width="0.03" stroke="#000000" fill="none"/>
<path d="M22.880859375 22.866690694563488L23.40234375 23.167769838847924" stroke-width="0.03" stroke="#000000" fill="none"/>
<path d="M16.414453125 21.18064748657066L16.414453125 20.819352513429337" stroke-width="0.03" stroke="#000000" fill="none"/>
<path d="M16.1015625 20.277410053717357L15.788671874999999 20.458057540288017" stroke-width="0.03" stroke="#000000" fill="none"/>
<path d="M14.954296875 20.096762567146698L14.954296875 19.49460427857783L14.85 19.434388449720945" stroke-width="0.03" stroke="#000000" fill="none"/>
<path d="M14.745703124999999 19.49460427857783L14.745703124999999 20.096762567146698" stroke-width="0.03" stroke="#000000" fill="none"/>
<path d="M14.224218749999999 19.554820107434715L13.911328125 19.735467594005378L13.911328125 20.458057540288017L13.285546875 20.819352513429337L12.97265625 20.63870502685868L12.97265625 21" stroke-width="0.03" stroke="#000000" fill="none"/>
<path d="M12.868359374999999 21.060215828856883L12.868359374999999 20.819352513429337L12.7640625 20.879568342286227L11.512500000000001 20.156978396003588L11.512500000000001 19.795683422862265L11.616796874999999 19.735467594005378L10.88671875 19.31395679200717L11.408203125 19.01287764772274L12.868359374999999 19.85589925171915L12.7640625 19.916115080576038L12.7640625 20.879568342286227" stroke-width="0.03" stroke="#000000" fill="none"/>
<path d="M12.97265625 20.63870502685868L13.598437500000001 20.277410053717357L13.598437500000001 19.554820107434715L13.911328125 19.37417262086406" stroke-width="0.03" stroke="#000000" fill="none"/>
<path d="M13.911328125 19.253740963150285L13.702734374999999 19.37417262086406L13.702734374999999 19.253740963150285L12.451171875 18.531151016867643L12.138281249999999 18.711798503438303L12.138281249999999 18.832230161152076L11.408203125 18.410719359153866L11.408203125 19.01287764772274" stroke-width="0.03" stroke="#000000" fill="none"/>
<path d="M11.303906249999999 18.95266181886585L10.782421874999999 19.253740963150285" stroke-width="0.03" stroke="#000000" fill="none"/>
<path d="M10.88671875 19.31395679200717L10.88671875 19.67525176514849L11.512500000000001 20.03654673828981" stroke-width="0.03" stroke="#000000" fill="none"/>
<path d="M11.512500000000001 19.795683422862265L12.555468750000001 20.397841711431134" stroke-width="0.03" stroke="#000000" fill="none"/>
<path d="M12.7640625 19.916115080576038L12.555468750000001 19.795683422862265" stroke-width="0.03" stroke="#000000" fill="none"/>
<path d="M12.659765624999999 19.615035936291605L12.868359374999999 19.735467594005378L13.702734374999999 19.253740963150285" stroke-width="0.03" stroke="#000000" fill="none"/>
<path d="M13.598437500000001 19.554820107434715L13.911328125 19.735467594005378" stroke-width="0.03" stroke="#000000" fill="none"/>
<path d="M13.598437500000001 20.277410053717357L13.911328125 20.458057540288017" stroke-width="0.03" stroke="#000000" fill="none"/>
<path d="M13.285546875 20.819352513429337L13.285546875 21.18064748657066" stroke-width="0.03" stroke="#000000" fill="none"/>
<path d="M12.868359374999999 19.85589925171915L12.868359374999999 19.735467594005378" stroke-width="0.03" stroke="#000000" fill="none"/>
<path d="M13.181249999999999 19.31395679200717L12.138281249999999 18.711798503438303" stroke-width="0.03" stroke="#000000" fill="none"/>
<path d="M12.346874999999999 18.59136684572453L11.72109375 18.23007187258321L11.408203125 18.410719359153866" stroke-width="0.03" stroke="#000000" fill="none"/>
<path d="M11.303906249999999 18.350503530296983L11.303906249999999 18.95266181886585L5.150390625 15.399927916309531" stroke-width="0.03" stroke="#000000" fill="none"/>
<path d="M7.4449218749999995 15.761222889450853L7.4449218749999995 14.797769627740664" stroke-width="0.03" stroke="#000000" fill="none"/>
<path d="M6.819140625 11.54611486946878L6.819140625 11.425683211755006L7.13203125 11.245035725184344" stroke-width="0.03" stroke="#000000" fill="none"/>
<path d="M6.9234374999999995 11.485899040611892L6.819140625 11.425683211755006" stroke-width="0.03" stroke="#000000" fill="none"/>
<path d="M9.113671875 11.786978184896327L10.782421874999999 10.823524923186138L11.408203125 11.184819896327458" stroke-width="0.03" stroke="#000000" fill="none"/>
<path d="M11.512500000000001 11.124604067470571L10.991015625000001 10.823524923186138L10.88671875 10.883740752043025L10.88671875 11.245035725184344L11.095312499999999 11.365467382898117" stroke-width="0.03" stroke="#000000" fill="none"/>
<path d="M10.782421874999999 11.54611486946878L11.9296875 10.883740752043025L10.573828124999999 10.100934976903497L10.573828124999999 10.823524923186138L10.678125 10.883740752043025" stroke-width="0.03" stroke="#000000" fill="none"/>
<path d="M10.573828124999999 10.582661607758592L9.4265625 11.245035725184344L9.4265625 11.606330698325666" stroke-width="0.03" stroke="#000000" fill="none"/>
<path d="M9.739453124999999 11.425683211755006L9.4265625 11.245035725184344" stroke-width="0.03" stroke="#000000" fill="none"/>
<path d="M10.782421874999999 11.54611486946878L10.782421874999999 12.027841500323873" stroke-width="0.03" stroke="#000000" fill="none"/>
<path d="M10.782421874999999 11.54611486946878L11.199609375 11.786978184896327" stroke-width="0.03" stroke="#000000" fill="none"/>
<path d="M10.573828124999999 10.100934976903497L13.389843749999999 8.475107597767554" stroke-width="0.03" stroke="#000000" fill="none"/>
<path d="M12.033984375000001 9.257913372907083L11.825390624999999 9.13748171519331L10.678125 9.799855832619063" stroke-width="0.03" stroke="#000000" fill="none"/>
<path d="M10.05234375 9.67942417490529L9.63515625 9.438560859477743" stroke-width="0.03" stroke="#000000" fill="none"/>
<path d="M9.237499999999999 2.533333333333333L1.5 2.533333333333333" stroke-width="0.03" stroke="#000000" fill="none"/>
<path d="M2.1166666666666667 2.2291666666666665L2.1166666666666667 1.8208333333333333" stroke-width="0.03" stroke="#000000" fill="none"/>
<path d="M2.0875 1.6166666666666667L2.1166666666666667 1.6458333333333333L2.145833333333333 1.6166666666666667L2.1166666666666667 1.5875L2.0875 1.6166666666666667" stroke-width="0.03" stroke="#000000" fill="none"/>
<path d="M2.3208333333333333 2.1416666666666666L2.35 2.2L2.4375 2.2291666666666665L2.525 2.2291666666666665L2.6125 2.2L2.6416666666666666 2.1416666666666666L2.6416666666666666 2.1125L2.6125 2.0541666666666667L2.5541666666666667 2.025L2.408333333333333 1.9958333333333333L2.35 1.9666666666666666L2.3208333333333333 1.9083333333333332L2.35 1.85L2.4375 1.8208333333333333L2.525 1.8208333333333333L2.6125 1.85L2.6416666666666666 1.9083333333333332" stroke-width="0.03" stroke="#000000" fill="none"/>
<path d="M2.9625 1.8208333333333333L2.904166666666667 1.85L2.845833333333333 1.9083333333333332L2.8166666666666664 1.9958333333333333L2.8166666666666664 2.0541666666666667L2.845833333333333 2.1416666666666666L2.904166666666667 2.2L2.9625 2.2291666666666665L3.05 2.2291666666666665L3.1083333333333334 2.2L3.1666666666666665 2.1416666666666666L3.1958333333333333 2.0541666666666667L3.1958333333333333 1.9958333333333333L3.1666666666666665 1.9083333333333332L3.1083333333333334 1.85L3.05 1.8208333333333333L2.9625 1.8208333333333333" stroke-width="0.03" stroke="#000000" fill="none"/>
<path d="M3.283333333333333 2.2874999999999996L3.75 2.2874999999999996" stroke-width="0.03" stroke="#000000" fill="none"/>
<path d="M3.8375 2.1416666666666666L3.8666666666666663 2.2L3.9541666666666666 2.2291666666666665L4.041666666666666 2.2291666666666665L4.129166666666666 2.2L4.158333333333333 2.1416666666666666L4.158333333333333 2.1125L4.129166666666666 2.0541666666666667L4.070833333333333 2.025L3.925 1.9958333333333333L3.8666666666666663 1.9666666666666666L3.8375 1.9083333333333332L3.8666666666666663 1.85L3.9541666666666666 1.8208333333333333L4.041666666666666 1.8208333333333333L4.129166666666666 1.85L4.158333333333333 1.9083333333333332" stroke-width="0.03" stroke="#000000" fill="none"/>
<path d="M4.3625 1.9375L4.449999999999999 1.85L4.508333333333333 1.8208333333333333L4.595833333333333 1.8208333333333333L4.654166666666667 1.85L4.683333333333334 1.9375L4.683333333333334 2.2291666666666665" stroke-width="0.03" stroke="#000000" fill="none"/>
<path d="M4.3625 2.2291666666666665L4.3625 1.8208333333333333" stroke-width="0.03" stroke="#000000" fill="none"/>
<path d="M5.033333333333333 1.8208333333333333L4.975 1.85L4.916666666666666 1.9083333333333332L4.887499999999999 1.9958333333333333L4.887499999999999 2.0541666666666667L4.916666666666666 2.1416666666666666L4.975 2.2L5.033333333333333 2.2291666666666665L5.120833333333334 2.2291666666666665L5.179166666666666 2.2L5.2375 2.1416666666666666L5.266666666666666 2.0541666666666667L5.266666666666666 1.9958333333333333L5.2375 1.9083333333333332L5.179166666666666 1.85L5.120833333333334 1.8208333333333333L5.033333333333333 1.8208333333333333" stroke-width="0.03" stroke="#000000" fill="none"/>
<path d="M5.441666666666666 1.8208333333333333L5.558333333333334 2.2291666666666665L5.675 1.8208333333333333L5.791666666666666 2.2291666666666665L5.908333333333333 1.8208333333333333" stroke-width="0.03" stroke="#000000" fill="none"/>
<path d="M6.054166666666666 1.8208333333333333L6.258333333333333 1.8208333333333333" stroke-width="0.03" stroke="#000000" fill="none"/>
<path d="M6.2875 1.6166666666666667L6.229166666666666 1.6166666666666667L6.1708333333333325 1.6458333333333333L6.141666666666667 1.7333333333333334L6.141666666666667 2.2291666666666665" stroke-width="0.03" stroke="#000000" fill="none"/>
<path d="M6.4624999999999995 2.2291666666666665L6.4624999999999995 1.6166666666666667" stroke-width="0.03" stroke="#000000" fill="none"/>
<path d="M7.016666666666666 1.8208333333333333L7.016666666666666 2.2291666666666665" stroke-width="0.03" stroke="#000000" fill="none"/>
<path d="M7.016666666666666 2.1416666666666666L6.958333333333333 2.2L6.8999999999999995 2.2291666666666665L6.812499999999999 2.2291666666666665L6.754166666666666 2.2L6.695833333333333 2.1416666666666666L6.666666666666666 2.0541666666666667L6.666666666666666 1.9958333333333333L6.695833333333333 1.9083333333333332L6.754166666666666 1.85L6.812499999999999 1.8208333333333333L6.8999999999999995 1.8208333333333333L6.958333333333333 1.85L7.016666666666666 1.9083333333333332" stroke-width="0.03" stroke="#000000" fill="none"/>
<path d="M7.249999999999999 2.1125L7.541666666666666 1.8208333333333333" stroke-width="0.03" stroke="#000000" fill="none"/>
<path d="M7.366666666666666 1.9958333333333333L7.570833333333333 2.2291666666666665" stroke-width="0.03" stroke="#000000" fill="none"/>
<path d="M7.716666666666666 1.9958333333333333L8.066666666666666 1.9958333333333333L8.066666666666666 1.9375L8.0375 1.8791666666666667L8.008333333333333 1.85L7.949999999999999 1.8208333333333333L7.8625 1.8208333333333333L7.804166666666666 1.85L7.745833333333333 1.9083333333333332L7.716666666666666 1.9958333333333333L7.716666666666666 2.0541666666666667L7.745833333333333 2.1416666666666666L7.804166666666666 2.2L7.8625 2.2291666666666665L7.949999999999999 2.2291666666666665L8.008333333333333 2.2L8.066666666666666 2.1416666666666666" stroke-width="0.03" stroke="#000000" fill="none"/>
<path d="M8.475 2.2291666666666665L8.475 1.6166666666666667L8.3875 1.7041666666666666L8.329166666666666 1.7333333333333334" stroke-width="0.03" stroke="#000000" fill="none"/>
<path d="M7.249999999999999 1.6166666666666667L7.249999999999999 2.2291666666666665" stroke-width="0.03" stroke="#000000" fill="none"/>
<path d="M5.442964345660872 3.0054372986874878L5.20862645825987 3.0054372986874878L5.20862645825987 3.383983116796798L5.442964345660872 3.383983116796798" stroke-width="0.03" stroke="#000000" fill="none"/>
<path d="M5.352834388968179 3.1856972120728733L5.20862645825987 3.1856972120728733" stroke-width="0.03" stroke="#000000" fill="none"/>
<path d="M5.0824445188901 3.0955672553801805L5.064418527551561 3.0595152727031034L5.028366544874484 3.023463290026026L4.992314562197407 3.0054372986874878L4.920210596843253 3.0054372986874878L4.884158614166176 3.023463290026026L4.848106631489099 3.0595152727031034L4.83008064015056 3.0955672553801805L4.812054648812021 3.149645229395796L4.812054648812021 3.2397751860884894L4.83008064015056 3.293853160104105L4.848106631489099 3.3299051427811825L4.884158614166176 3.3659571254582596L4.920210596843253 3.383983116796798L4.992314562197407 3.383983116796798L5.028366544874484 3.3659571254582596L5.064418527551561 3.3299051427811825L5.0824445188901 3.293853160104105" stroke-width="0.03" stroke="#000000" fill="none"/>
<path d="M4.739950683457867 3.383983116796798L4.595742752749558 3.0054372986874878L4.45153482204125 3.383983116796798" stroke-width="0.03" stroke="#000000" fill="none"/>
<path d="M4.397456848025634 3.383983116796798L4.163118960624631 3.383983116796798L4.163118960624631 3.0054372986874878L4.397456848025634 3.0054372986874878" stroke-width="0.03" stroke="#000000" fill="none"/>
<path d="M4.3073268913329406 3.1856972120728733L4.163118960624631 3.1856972120728733" stroke-width="0.03" stroke="#000000" fill="none"/>
<path d="M3.9648330559007072 3.1856972120728733L3.8206251251923984 3.1856972120728733" stroke-width="0.03" stroke="#000000" fill="none"/>
<path d="M3.8206251251923984 3.0054372986874878L3.8206251251923984 3.383983116796798L4.0549630125934 3.383983116796798" stroke-width="0.03" stroke="#000000" fill="none"/>
<path d="M4.0549630125934 3.0054372986874878L3.8206251251923984 3.0054372986874878" stroke-width="0.03" stroke="#000000" fill="none"/>
<path d="M3.478131289760165 3.0054372986874878L3.6764171944840895 3.0054372986874878L3.568261246452858 3.149645229395796L3.622339220468474 3.149645229395796L3.658391203145551 3.167671220734335L3.6764171944840895 3.1856972120728733L3.694443185822628 3.2397751860884894L3.694443185822628 3.2758271687655665L3.6764171944840895 3.3299051427811825L3.6403652118070124 3.3659571254582596L3.586287237791397 3.383983116796798L3.5322092637757807 3.383983116796798L3.478131289760165 3.3659571254582596L3.4601052984216265 3.3479311341197207L3.442079307083088 3.3118791514426436" stroke-width="0.03" stroke="#000000" fill="none"/>
<path d="M3.0815594803123156 3.3118791514426436L3.0995854716508546 3.3479311341197207L3.117611462989393 3.3659571254582596L3.171689437005009 3.383983116796798L3.225767411020625 3.383983116796798L3.2798453850362406 3.3659571254582596L3.3158973677133177 3.3299051427811825L3.333923359051856 3.2758271687655665L3.333923359051856 3.2397751860884894L3.3158973677133177 3.1856972120728733L3.297871376374779 3.167671220734335L3.261819393697702 3.149645229395796L3.207741419682086 3.149645229395796L3.3158973677133177 3.0054372986874878L3.117611462989393 3.0054372986874878" stroke-width="0.03" stroke="#000000" fill="none"/>
<path d="M2.90129956692693 3.0054372986874878L2.7210396535415438 3.257801177427028L2.991429523619623 3.257801177427028" stroke-width="0.03" stroke="#000000" fill="none"/>
<path d="M2.90129956692693 3.383983116796798L2.90129956692693 3.0054372986874878" stroke-width="0.03" stroke="#000000" fill="none"/>
<path d="M2.6128837055103125 3.1316192380572576L2.414597800786388 3.383983116796798" stroke-width="0.03" stroke="#000000" fill="none"/>
<path d="M2.6128837055103125 3.383983116796798L2.414597800786388 3.1316192380572576" stroke-width="0.03" stroke="#000000" fill="none"/>
<path d="M2.1622339220468474 3.0054372986874878L2.1081559480312317 3.023463290026026L2.072103965354154 3.077541264041642L2.0540779740156156 3.167671220734335L2.0540779740156156 3.221749194749951L2.072103965354154 3.3118791514426436L2.1081559480312317 3.3659571254582596L2.1622339220468474 3.383983116796798L2.1982859047239245 3.383983116796798L2.2523638787395406 3.3659571254582596L2.2884158614166177 3.3118791514426436L2.3064418527551562 3.221749194749951L2.3064418527551562 3.167671220734335L2.2884158614166177 3.077541264041642L2.2523638787395406 3.023463290026026L2.1982859047239245 3.0054372986874878L2.1622339220468474 3.0054372986874878" stroke-width="0.03" stroke="#000000" fill="none"/>
<path d="M4.505612796056865 3.257801177427028L4.6858727094422505 3.257801177427028" stroke-width="0.03" stroke="#000000" fill="none"/>
</svg>
