<?xml version="1.0" standalone="no"?>
<svg width="29.7cm" height="42cm" version="1.1" xmlns="http://www.w3.org/2000/svg" viewBox="0.0 0.0 29.700001 42.000001">
<path d="M2.647265625000001 12.87086310432029L3.481640624999999 12.389136473465193L3.7945312499999995 12.569783960035853L3.7945312499999995 13.051510590890949" stroke-width="0.03" stroke="#000000" fill="none"/>
<path d="M3.7945312499999995 12.569783960035853L2.960156250000001 13.051510590890949L2.960156250000001 13.533237221746042" stroke-width="0.03" stroke="#000000" fill="none"/>
<path d="M2.647265625000001 13.713884708316701L2.647265625000001 12.87086310432029L2.960156250000001 13.051510590890949" stroke-width="0.03" stroke="#000000" fill="none"/>
<path d="M2.438671874999999 13.834316366030475L5.671875 11.967625671466987L7.4449218749999995 12.991294762034062" stroke-width="0.03" stroke="#000000" fill="none"/>
<path d="M7.13203125 12.8106472754634L7.4449218749999995 12.629999788892741L7.7578125 12.8106472754634" stroke-width="0.03" stroke="#000000" fill="none"/>
<path d="M7.862109374999999 12.750431446606514L7.340624999999999 12.44935230232208L7.340624999999999 11.847194013753214L8.38359375 11.245035725184344L9.322265625 11.786978184896327" stroke-width="0.03" stroke="#000000" fill="none"/>
<path d="M9.009374999999999 11.606330698325666L9.009374999999999 9.920287490332836L9.4265625 9.67942417490529L10.782421874999999 10.462229950044819L11.825390624999999 9.86007166147595L10.782421874999999 9.257913372907083L10.782421874999999 9.378345030620856L11.72109375 9.920287490332836" stroke-width="0.03" stroke="#000000" fill="none"/>
<path d="M11.199609375 9.619208346048403L10.260937499999999 10.161150805760384" stroke-width="0.03" stroke="#000000" fill="none"/>
<path d="M10.260937499999999 10.04071914804661L10.260937499999999 9.920287490332836L10.991015625000001 9.49877668833463" stroke-width="0.03" stroke="#000000" fill="none"/>
<path d="M10.782421874999999 9.257913372907083L12.346874999999999 8.354675940053781L14.85 9.799855832619063L17.353125 8.354675940053781L18.917578125000002 9.257913372907083L18.917578125000002 9.378345030620856L17.978906249999998 9.920287490332836" stroke-width="0.03" stroke="#000000" fill="none"/>
<path d="M17.874609375000002 9.86007166147595L18.917578125000002 9.257913372907083" stroke-width="0.03" stroke="#000000" fill="none"/>
<path d="M18.708984375 9.49877668833463L19.439062500000002 9.920287490332836L19.439062500000002 10.04071914804661L19.334765625 10.100934976903497" stroke-width="0.03" stroke="#000000" fill="none"/>
<path d="M19.23046875 10.04071914804661L19.439062500000002 9.920287490332836" stroke-width="0.03" stroke="#000000" fill="none"/>
<path d="M19.439062500000002 10.161150805760384L18.500390624999998 9.619208346048403" stroke-width="0.03" stroke="#000000" fill="none"/>
<path d="M18.500390624999998 9.017050057479535L18.500390624999998 8.53532342662444L17.248828125 7.812733480341801L14.954296875 9.13748171519331L14.954296875 9.257913372907083L14.85 9.197697544050197L14.745703124999999 9.257913372907083L14.745703124999999 9.13748171519331L12.451171875 7.812733480341801L11.199609375 8.53532342662444L11.199609375 9.017050057479535" stroke-width="0.03" stroke="#000000" fill="none"/>
<path d="M11.616796874999999 8.776186742051989L11.199609375 8.53532342662444" stroke-width="0.03" stroke="#000000" fill="none"/>
<path d="M10.260937499999999 9.920287490332836L10.46953125 10.04071914804661" stroke-width="0.03" stroke="#000000" fill="none"/>
<path d="M10.365234375 10.100934976903497L10.260937499999999 10.04071914804661" stroke-width="0.03" stroke="#000000" fill="none"/>
<path d="M10.365234375 10.703093265472365L9.322265625 11.305251554041233L10.678125 12.08805732918076L5.254687500000001 15.21928042973887L5.254687500000001 15.460143745166418L5.046093749999999 15.580575402880193L5.046093749999999 21.843021603996412L3.6902343750000006 21.060215828856883L3.6902343750000006 22.264532405994622L2.3343750000000005 21.481726630855093L3.7945312499999995 20.63870502685868" stroke-width="0.03" stroke="#000000" fill="none"/>
<path d="M4.107421875 20.819352513429337L3.1687499999999984 20.277410053717357L3.1687499999999984 19.073093476579622L3.6902343750000006 18.77201433229519L4.211718750000001 19.073093476579622" stroke-width="0.03" stroke="#000000" fill="none"/>
<path d="M4.211718750000001 18.95266181886585L3.898828125 18.77201433229519L3.898828125 18.410719359153866" stroke-width="0.03" stroke="#000000" fill="none"/>
<path d="M4.211718750000001 18.59136684572453L2.438671874999999 17.567697755157454L2.438671874999999 13.834316366030475L8.905078125 17.567697755157454L8.696484375 17.688129412871227L8.696484375 22.264532405994622L9.84375 22.926906523420374L9.84375 22.32474823485151L10.46953125 21.96345326171019L9.84375 21.602158288568866L9.84375 21.240863315427546" stroke-width="0.03" stroke="#000000" fill="none"/>
<path d="M10.05234375 21.120431657713773L9.530859375 21.42151080199821L9.322265625 21.301079144284433L9.322265625 19.37417262086406L10.678125 18.59136684572453L10.678125 17.025755295445475L12.346874999999999 16.062302033735286L12.555468750000001 16.18273369144906L12.555468750000001 16.784891980017925L12.451171875 16.845107808874815" stroke-width="0.03" stroke="#000000" fill="none"/>
<path d="M12.346874999999999 16.784891980017925L11.9296875 17.025755295445475L11.9296875 17.86877689944189L11.199609375 18.290287701440096L11.199609375 18.651582674581416L11.408203125 18.77201433229519" stroke-width="0.03" stroke="#000000" fill="none"/>
<path d="M11.408203125 18.892445990008962L11.095312499999999 18.711798503438303L11.095312499999999 18.832230161152076L10.991015625000001 18.892445990008962L10.991015625000001 19.01287764772274L11.199609375 19.13330930543651" stroke-width="0.03" stroke="#000000" fill="none"/>
<path d="M11.303906249999999 19.073093476579622L10.991015625000001 18.892445990008962" stroke-width="0.03" stroke="#000000" fill="none"/>
<path d="M11.095312499999999 18.832230161152076L11.825390624999999 19.253740963150285L11.408203125 19.49460427857783L10.991015625000001 19.253740963150285L10.991015625000001 19.49460427857783L11.408203125 19.735467594005378" stroke-width="0.03" stroke="#000000" fill="none"/>
<path d="M11.408203125 19.49460427857783L11.408203125 22.50539572142217L11.303906249999999 22.44517989256528L10.678125 22.8064748657066L9.84375 22.32474823485151" stroke-width="0.03" stroke="#000000" fill="none"/>
<path d="M10.365234375 22.023669090567072L10.365234375 21.18064748657066" stroke-width="0.03" stroke="#000000" fill="none"/>
<path d="M10.573828124999999 21.301079144284433L10.573828124999999 21.782805775139526L10.365234375 21.903237432853302" stroke-width="0.03" stroke="#000000" fill="none"/>
<path d="M10.573828124999999 21.782805775139526L10.678125 21.843021603996412L11.095312499999999 21.602158288568866" stroke-width="0.03" stroke="#000000" fill="none"/>
<path d="M11.408203125 21.782805775139526L9.948046875 20.939784171143113L9.948046875 20.458057540288017L10.678125 20.03654673828981L10.782421874999999 20.096762567146698" stroke-width="0.03" stroke="#000000" fill="none"/>
<path d="M10.678125 20.03654673828981L10.678125 19.193525134293395L10.991015625000001 19.01287764772274" stroke-width="0.03" stroke="#000000" fill="none"/>
<path d="M10.991015625000001 19.253740963150285L11.408203125 19.01287764772274L11.408203125 18.531151016867643L11.616796874999999 18.410719359153866L12.033984375000001 18.651582674581416" stroke-width="0.03" stroke="#000000" fill="none"/>
<path d="M11.825390624999999 18.77201433229519L14.4328125 17.26661861087302L14.328515625 17.206402782016134L14.328515625 16.483812835733495L14.85 16.18273369144906L15.371484375 16.483812835733495L15.371484375 17.206402782016134L15.267187499999999 17.26661861087302L17.874609375000002 18.77201433229519L17.874609375000002 19.253740963150285L18.291796875 19.49460427857783L18.291796875 22.50539572142217L18.396093750000002 22.44517989256528L19.021874999999998 22.8064748657066L19.021874999999998 23.40863315427547L18.500390624999998 23.709712298559904L17.874609375000002 23.348417325418584L17.874609375000002 23.227985667704807L15.267187499999999 24.73338138912698L15.267187499999999 25.215108019982072L15.47578125 25.0946763622683L15.47578125 24.612949731413206" stroke-width="0.03" stroke="#000000" fill="none"/>
<path d="M15.267187499999999 24.73338138912698L14.85 24.492518073699433L14.4328125 24.73338138912698L14.4328125 25.215108019982072L14.224218749999999 25.0946763622683L14.224218749999999 24.612949731413206" stroke-width="0.03" stroke="#000000" fill="none"/>
<path d="M14.4328125 24.73338138912698L11.825390624999999 23.227985667704807L11.825390624999999 23.348417325418584L11.199609375 23.709712298559904L10.678125 23.40863315427547L10.678125 22.8064748657066" stroke-width="0.03" stroke="#000000" fill="none"/>
<path d="M10.678125 23.40863315427547L11.408203125 22.98712235227726L11.408203125 23.107554009991038L11.825390624999999 23.348417325418584" stroke-width="0.03" stroke="#000000" fill="none"/>
<path d="M11.408203125 22.98712235227726L11.303906249999999 22.926906523420374L11.303906249999999 22.44517989256528" stroke-width="0.03" stroke="#000000" fill="none"/>
<path d="M11.825390624999999 22.746259036849715L12.346874999999999 22.44517989256528L12.346874999999999 22.8064748657066" stroke-width="0.03" stroke="#000000" fill="none"/>
<path d="M12.033984375000001 22.62582737913594L12.033984375000001 19.37417262086406L14.85 17.748345241728117L17.666015625 19.37417262086406L17.666015625 22.62582737913594L14.85 24.251654758271883L12.033984375000001 22.62582737913594" stroke-width="0.03" stroke="#000000" fill="none"/>
<path d="M11.825390624999999 22.746259036849715L11.825390624999999 19.49460427857783L9.948046875 20.57848919800179L10.88671875 21.120431657713773L10.88671875 21.240863315427546L11.408203125 20.939784171143113" stroke-width="0.03" stroke="#000000" fill="none"/>
<path d="M11.408203125 20.819352513429337L10.88671875 21.120431657713773" stroke-width="0.03" stroke="#000000" fill="none"/>
<path d="M10.88671875 21.240863315427546L9.948046875 20.698920855715564" stroke-width="0.03" stroke="#000000" fill="none"/>
<path d="M10.05234375 20.518273369144907L9.948046875 20.458057540288017" stroke-width="0.03" stroke="#000000" fill="none"/>
<path d="M10.05234375 21L10.05234375 21.120431657713773" stroke-width="0.03" stroke="#000000" fill="none"/>
<path d="M9.84375 21.602158288568866L8.696484375 22.264532405994622" stroke-width="0.03" stroke="#000000" fill="none"/>
<path d="M8.80078125 22.44517989256528L8.5921875 22.565611550279055L8.5921875 24.37208641598566L10.365234375 25.39575550655273L10.573828124999999 25.27532384883896L9.84375 24.85381304684075L9.84375 23.890359785130563L9.009374999999999 23.40863315427547L9.009374999999999 22.565611550279055L8.80078125 22.44517989256528" stroke-width="0.03" stroke="#000000" fill="none"/>
<path d="M9.009374999999999 22.565611550279055L8.80078125 22.686043207992828L8.80078125 24.73338138912698L10.365234375 25.636618821980278L10.573828124999999 25.51618716426651L10.573828124999999 25.27532384883896" stroke-width="0.03" stroke="#000000" fill="none"/>
<path d="M10.365234375 25.39575550655273L10.365234375 25.636618821980278" stroke-width="0.03" stroke="#000000" fill="none"/>
<path d="M10.678125 25.696834650837165L11.825390624999999 25.034460533411412L12.138281249999999 25.215108019982072" stroke-width="0.03" stroke="#000000" fill="none"/>
<path d="M12.346874999999999 25.0946763622683L11.825390624999999 25.39575550655273L11.825390624999999 25.636618821980278L13.494140625 26.600072083690467L14.85 25.817266308550938L14.85 25.576402993123395L13.494140625 26.359208768262917L11.825390624999999 25.39575550655273" stroke-width="0.03" stroke="#000000" fill="none"/>
<path d="M11.825390624999999 25.034460533411412L11.825390624999999 24.311870587128773L11.199609375 24.673165560270093L10.678125 24.37208641598566L10.678125 25.696834650837165L14.64140625 27.985036147398862L14.85 27.864604489685092L15.05859375 27.985036147398862L19.021874999999998 25.696834650837165L19.021874999999998 24.37208641598566L18.500390624999998 24.673165560270093L17.874609375000002 24.311870587128773L17.874609375000002 25.034460533411412L19.021874999999998 25.696834650837165" stroke-width="0.03" stroke="#000000" fill="none"/>
<path d="M19.126171875 25.51618716426651L19.126171875 25.27532384883896L19.85625 24.85381304684075L19.85625 23.890359785130563L20.690625 23.40863315427547L20.690625 22.565611550279055L20.89921875 22.44517989256528L21.107812499999998 22.565611550279055L21.107812499999998 24.37208641598566L19.334765625 25.39575550655273L19.334765625 25.636618821980278L19.126171875 25.51618716426651" stroke-width="0.03" stroke="#000000" fill="none"/>
<path d="M19.334765625 25.636618821980278L20.89921875 24.73338138912698L20.89921875 22.686043207992828L21.107812499999998 22.565611550279055" stroke-width="0.03" stroke="#000000" fill="none"/>
<path d="M20.89921875 22.686043207992828L20.690625 22.565611550279055" stroke-width="0.03" stroke="#000000" fill="none"/>
<path d="M21.003515625000002 22.264532405994622L19.85625 22.926906523420374L19.85625 22.32474823485151L19.23046875 21.96345326171019L19.85625 21.602158288568866L19.85625 21.240863315427546" stroke-width="0.03" stroke="#000000" fill="none"/>
<path d="M19.647656249999997 21.120431657713773L19.647656249999997 21" stroke-width="0.03" stroke="#000000" fill="none"/>
<path d="M19.647656249999997 21.120431657713773L20.169140624999997 21.42151080199821L20.377734375 21.301079144284433L20.377734375 19.37417262086406L19.021874999999998 18.59136684572453L19.021874999999998 17.025755295445475L17.353125 16.062302033735286L17.14453125 16.18273369144906L17.14453125 16.784891980017925L17.248828125 16.845107808874815" stroke-width="0.03" stroke="#000000" fill="none"/>
<path d="M17.353125 16.784891980017925L15.89296875 17.62791358401434" stroke-width="0.03" stroke="#000000" fill="none"/>
<path d="M16.205859375 17.44726609744368L16.205859375 16.965539466588588L16.31015625 16.905323637731698L16.31015625 16.66446032230415" stroke-width="0.03" stroke="#000000" fill="none"/>
<path d="M16.205859375 16.60424449344727L16.9359375 17.025755295445475" stroke-width="0.03" stroke="#000000" fill="none"/>
<path d="M16.72734375 17.146186953159244L16.31015625 16.905323637731698" stroke-width="0.03" stroke="#000000" fill="none"/>
<path d="M16.205859375 16.72467615116104L16.831640625 16.36338117801972L16.831640625 15.038632943168212L15.684375 15.701007060593964L16.205859375 16.0020862048784L16.205859375 16.72467615116104" stroke-width="0.03" stroke="#000000" fill="none"/>
<path d="M16.51875 17.025755295445475L16.51875 17.146186953159244L16.623046875 17.206402782016134" stroke-width="0.03" stroke="#000000" fill="none"/>
<path d="M16.623046875 17.44726609744368L17.56171875 16.905323637731698" stroke-width="0.03" stroke="#000000" fill="none"/>
<path d="M17.666015625 16.965539466588588L16.72734375 17.50748192630057L16.72734375 18.109640214869437" stroke-width="0.03" stroke="#000000" fill="none"/>
<path d="M16.623046875 18.049424386012547L16.623046875 17.44726609744368L16.72734375 17.50748192630057" stroke-width="0.03" stroke="#000000" fill="none"/>
<path d="M16.623046875 17.688129412871227L16.31015625 17.86877689944189" stroke-width="0.03" stroke="#000000" fill="none"/>
<path d="M15.580078125 18.16985604372632L15.267187499999999 18.350503530296983L15.267187499999999 18.832230161152076L14.85 18.59136684572453L14.4328125 18.832230161152076L14.4328125 18.350503530296983L14.119921875 18.16985604372632" stroke-width="0.03" stroke="#000000" fill="none"/>
<path d="M14.4328125 18.350503530296983L12.7640625 19.31395679200717L12.451171875 19.13330930543651" stroke-width="0.03" stroke="#000000" fill="none"/>
<path d="M12.346874999999999 19.193525134293395L12.346874999999999 19.554820107434715L12.033984375000001 19.735467594005378" stroke-width="0.03" stroke="#000000" fill="none"/>
<path d="M12.138281249999999 19.67525176514849L12.033984375000001 19.615035936291605" stroke-width="0.03" stroke="#000000" fill="none"/>
<path d="M12.033984375000001 19.49460427857783L12.242578125 19.615035936291605" stroke-width="0.03" stroke="#000000" fill="none"/>
<path d="M12.346874999999999 19.434388449720945L12.138281249999999 19.31395679200717" stroke-width="0.03" stroke="#000000" fill="none"/>
<path d="M12.242578125 19.253740963150285L12.346874999999999 19.31395679200717" stroke-width="0.03" stroke="#000000" fill="none"/>
<path d="M12.033984375000001 19.37417262086406L12.7640625 19.795683422862265L12.7640625 19.31395679200717" stroke-width="0.03" stroke="#000000" fill="none"/>
<path d="M12.7640625 19.795683422862265L12.346874999999999 20.03654673828981L12.033984375000001 19.85589925171915" stroke-width="0.03" stroke="#000000" fill="none"/>
<path d="M12.346874999999999 20.03654673828981L12.346874999999999 21.96345326171019L12.7640625 21.72258994628264L12.7640625 22.204316577137735L13.181249999999999 22.44517989256528L12.7640625 22.686043207992828L12.7640625 23.047338181134148" stroke-width="0.03" stroke="#000000" fill="none"/>
<path d="M12.7640625 22.686043207992828L14.4328125 23.649496469703017L14.4328125 24.010791442844337" stroke-width="0.03" stroke="#000000" fill="none"/>
<path d="M14.537109375 24.071007271701223L14.85 23.890359785130563L15.162890625 24.071007271701223" stroke-width="0.03" stroke="#000000" fill="none"/>
<path d="M15.05859375 24.010791442844337L15.05859375 24.13122310055811" stroke-width="0.03" stroke="#000000" fill="none"/>
<path d="M14.954296875 24.191438929414996L14.954296875 23.95057561398745" stroke-width="0.03" stroke="#000000" fill="none"/>
<path d="M14.745703124999999 23.95057561398745L14.745703124999999 24.191438929414996" stroke-width="0.03" stroke="#000000" fill="none"/>
<path d="M14.64140625 24.13122310055811L14.64140625 24.010791442844337" stroke-width="0.03" stroke="#000000" fill="none"/>
<path d="M14.85 24.251654758271883L14.85 23.40863315427547L14.4328125 23.649496469703017" stroke-width="0.03" stroke="#000000" fill="none"/>
<path d="M14.85 23.40863315427547L15.267187499999999 23.649496469703017L16.9359375 22.686043207992828L16.9359375 23.047338181134148" stroke-width="0.03" stroke="#000000" fill="none"/>
<path d="M16.9359375 22.686043207992828L16.51875 22.44517989256528L16.9359375 22.204316577137735L16.9359375 21.72258994628264L17.353125 21.96345326171019L17.666015625 21.782805775139526" stroke-width="0.03" stroke="#000000" fill="none"/>
<path d="M17.353125 21.96345326171019L17.353125 20.03654673828981L16.9359375 19.795683422862265L16.9359375 19.31395679200717L17.248828125 19.13330930543651" stroke-width="0.03" stroke="#000000" fill="none"/>
<path d="M17.353125 19.193525134293395L17.353125 19.554820107434715L17.666015625 19.735467594005378" stroke-width="0.03" stroke="#000000" fill="none"/>
<path d="M17.56171875 19.67525176514849L17.666015625 19.615035936291605" stroke-width="0.03" stroke="#000000" fill="none"/>
<path d="M17.666015625 19.49460427857783L17.457421875 19.615035936291605" stroke-width="0.03" stroke="#000000" fill="none"/>
<path d="M17.353125 19.434388449720945L17.56171875 19.31395679200717" stroke-width="0.03" stroke="#000000" fill="none"/>
<path d="M17.457421875 19.253740963150285L17.353125 19.31395679200717" stroke-width="0.03" stroke="#000000" fill="none"/>
<path d="M17.666015625 19.37417262086406L16.9359375 19.795683422862265" stroke-width="0.03" stroke="#000000" fill="none"/>
<path d="M17.353125 20.03654673828981L17.666015625 19.85589925171915" stroke-width="0.03" stroke="#000000" fill="none"/>
<path d="M17.874609375000002 19.49460427857783L17.874609375000002 22.746259036849715L15.05859375 24.37208641598566L16.9359375 25.45597133540962L16.9359375 24.37208641598566L16.414453125 24.071007271701223" stroke-width="0.03" stroke="#000000" fill="none"/>
<path d="M16.51875 24.010791442844337L17.040234375 24.311870587128773L17.040234375 25.39575550655273" stroke-width="0.03" stroke="#000000" fill="none"/>
<path d="M16.831640625 25.39575550655273L16.831640625 25.51618716426651L16.1015625 25.0946763622683L16.1015625 24.974244704554525" stroke-width="0.03" stroke="#000000" fill="none"/>
<path d="M16.1015625 25.0946763622683L15.371484375 25.51618716426651L15.05859375 25.335539677695845L15.05859375 25.0946763622683" stroke-width="0.03" stroke="#000000" fill="none"/>
<path d="M14.954296875 25.034460533411412L14.954296875 25.39575550655273L14.85 25.335539677695845L14.745703124999999 25.39575550655273L14.64140625 25.335539677695845L14.64140625 25.0946763622683" stroke-width="0.03" stroke="#000000" fill="none"/>
<path d="M14.745703124999999 25.034460533411412L14.745703124999999 25.39575550655273" stroke-width="0.03" stroke="#000000" fill="none"/>
<path d="M14.64140625 25.335539677695845L14.328515625 25.51618716426651L13.598437500000001 25.0946763622683L13.598437500000001 24.974244704554525" stroke-width="0.03" stroke="#000000" fill="none"/>
<path d="M13.598437500000001 25.0946763622683L12.868359374999999 25.51618716426651L12.451171875 25.27532384883896L12.451171875 23.58928064084613" stroke-width="0.03" stroke="#000000" fill="none"/>
<path d="M12.451171875 23.95057561398745L12.033984375000001 24.191438929414996L12.033984375000001 24.311870587128773L12.451171875 24.55273390255632" stroke-width="0.03" stroke="#000000" fill="none"/>
<path d="M12.451171875 24.432302244842543L12.346874999999999 24.37208641598566L12.242578125 24.432302244842543" stroke-width="0.03" stroke="#000000" fill="none"/>
<path d="M12.033984375000001 24.311870587128773L11.825390624999999 24.432302244842543" stroke-width="0.03" stroke="#000000" fill="none"/>
<path d="M11.72109375 24.37208641598566L12.451171875 24.793597217983862" stroke-width="0.03" stroke="#000000" fill="none"/>
<path d="M12.346874999999999 25.0946763622683L12.451171875 25.154892191125185" stroke-width="0.03" stroke="#000000" fill="none"/>
<path d="M12.659765624999999 25.39575550655273L12.659765624999999 24.311870587128773L13.181249999999999 24.010791442844337" stroke-width="0.03" stroke="#000000" fill="none"/>
<path d="M13.285546875 24.071007271701223L12.7640625 24.37208641598566L12.7640625 25.45597133540962L14.64140625 24.37208641598566L11.825390624999999 22.746259036849715" stroke-width="0.03" stroke="#000000" fill="none"/>
<path d="M12.033984375000001 22.264532405994622L12.346874999999999 22.44517989256528" stroke-width="0.03" stroke="#000000" fill="none"/>
<path d="M12.346874999999999 21.96345326171019L12.033984375000001 21.782805775139526" stroke-width="0.03" stroke="#000000" fill="none"/>
<path d="M11.408203125 21.301079144284433L11.095312499999999 21.120431657713773" stroke-width="0.03" stroke="#000000" fill="none"/>
<path d="M10.678125 21.36129497314132L10.678125 21.481726630855093L10.573828124999999 21.54194245971198" stroke-width="0.03" stroke="#000000" fill="none"/>
<path d="M9.530859375 21.42151080199821L9.530859375 19.49460427857783L10.88671875 18.711798503438303L10.88671875 17.146186953159244L12.555468750000001 16.18273369144906" stroke-width="0.03" stroke="#000000" fill="none"/>
<path d="M12.868359374999999 16.36338117801972L12.555468750000001 16.54402866459038" stroke-width="0.03" stroke="#000000" fill="none"/>
<path d="M12.346874999999999 16.784891980017925L13.80703125 17.62791358401434" stroke-width="0.03" stroke="#000000" fill="none"/>
<path d="M13.494140625 17.44726609744368L13.494140625 16.965539466588588L13.389843749999999 16.905323637731698L13.389843749999999 16.66446032230415" stroke-width="0.03" stroke="#000000" fill="none"/>
<path d="M13.494140625 16.60424449344727L12.7640625 17.025755295445475" stroke-width="0.03" stroke="#000000" fill="none"/>
<path d="M12.97265625 17.146186953159244L13.389843749999999 16.905323637731698" stroke-width="0.03" stroke="#000000" fill="none"/>
<path d="M13.494140625 16.72467615116104L13.494140625 16.0020862048784L14.015625 15.701007060593964L12.868359374999999 15.038632943168212L8.905078125 17.326834439729907L5.046093749999999 15.098848772025098L5.046093749999999 14.978417114311325L6.089062499999999 14.376258825742458L6.089062499999999 14.014963852601136L5.671875 13.77410053717359L4.524609375000001 14.436474654599342L4.524609375000001 14.918201285454437L4.941796875 15.159064600881985L5.046093749999999 15.098848772025098" stroke-width="0.03" stroke="#000000" fill="none"/>
<path d="M4.941796875 15.159064600881985L4.941796875 14.67733797002689L4.524609375000001 14.436474654599342" stroke-width="0.03" stroke="#000000" fill="none"/>
<path d="M4.941796875 14.67733797002689L6.089062499999999 14.014963852601136" stroke-width="0.03" stroke="#000000" fill="none"/>
<path d="M5.88046875 13.894532194887363L8.175 12.569783960035853L9.009374999999999 13.051510590890949" stroke-width="0.03" stroke="#000000" fill="none"/>
<path d="M8.696484375 12.87086310432029L8.696484375 12.629999788892741L9.322265625 12.26870481575142" stroke-width="0.03" stroke="#000000" fill="none"/>
<path d="M9.322265625 12.87086310432029L9.322265625 10.703093265472365L9.739453124999999 10.462229950044819L10.260937499999999 10.763309094329252" stroke-width="0.03" stroke="#000000" fill="none"/>
<path d="M10.156640625 10.823524923186138L13.494140625 12.750431446606514L13.494140625 12.991294762034062L13.076953125000001 13.232158077461609L9.739453124999999 11.305251554041233L9.739453124999999 11.064388238613684L13.076953125000001 12.991294762034062L13.076953125000001 13.232158077461609" stroke-width="0.03" stroke="#000000" fill="none"/>
<path d="M13.076953125000001 12.991294762034062L13.494140625 12.750431446606514" stroke-width="0.03" stroke="#000000" fill="none"/>
<path d="M14.64140625 13.051510590890949L14.85 12.931078933177174L15.05859375 13.051510590890949" stroke-width="0.03" stroke="#000000" fill="none"/>
<path d="M14.85 13.171942248604722L17.666015625 11.54611486946878L17.978906249999998 11.72676235603944" stroke-width="0.03" stroke="#000000" fill="none"/>
<path d="M17.7703125 11.847194013753214L16.414453125 11.064388238613684L15.162890625 11.786978184896327L15.162890625 11.9074098426101L14.85 11.72676235603944L14.537109375 11.9074098426101L14.537109375 11.786978184896327L14.85 11.606330698325666L15.162890625 11.786978184896327" stroke-width="0.03" stroke="#000000" fill="none"/>
<path d="M14.85 11.72676235603944L14.85 11.606330698325666" stroke-width="0.03" stroke="#000000" fill="none"/>
<path d="M14.537109375 11.786978184896327L13.285546875 11.064388238613684L11.9296875 11.847194013753214" stroke-width="0.03" stroke="#000000" fill="none"/>
<path d="M12.033984375000001 11.9074098426101L12.242578125 11.786978184896327L12.242578125 11.666546527182554" stroke-width="0.03" stroke="#000000" fill="none"/>
<path d="M12.033984375000001 11.54611486946878L11.72109375 11.72676235603944" stroke-width="0.03" stroke="#000000" fill="none"/>
<path d="M12.033984375000001 11.54611486946878L14.85 13.171942248604722L14.85 12.931078933177174" stroke-width="0.03" stroke="#000000" fill="none"/>
<path d="M14.4328125 13.653668879459815L13.80703125 14.014963852601136L13.80703125 14.13539551031491L14.015625 14.255827168028683" stroke-width="0.03" stroke="#000000" fill="none"/>
<path d="M14.119921875 14.195611339171796L13.80703125 14.014963852601136" stroke-width="0.03" stroke="#000000" fill="none"/>
<path d="M14.4328125 13.653668879459815L14.85 13.894532194887363L15.267187499999999 13.653668879459815L15.89296875 14.014963852601136L15.89296875 14.13539551031491L15.684375 14.255827168028683" stroke-width="0.03" stroke="#000000" fill="none"/>
<path d="M15.580078125 14.195611339171796L15.89296875 14.014963852601136" stroke-width="0.03" stroke="#000000" fill="none"/>
<path d="M15.684375 14.737553798883777L14.85 15.21928042973887L14.015625 14.737553798883777L13.285546875 15.159064600881985L13.076953125000001 15.038632943168212L13.076953125000001 14.797769627740664L14.64140625 13.894532194887363L16.414453125 14.918201285454437L16.623046875 14.797769627740664L15.05859375 13.894532194887363L13.285546875 14.918201285454437L13.285546875 15.159064600881985" stroke-width="0.03" stroke="#000000" fill="none"/>
<path d="M13.285546875 14.918201285454437L13.076953125000001 14.797769627740664" stroke-width="0.03" stroke="#000000" fill="none"/>
<path d="M12.868359374999999 15.038632943168212L12.868359374999999 16.36338117801972L13.494140625 16.72467615116104" stroke-width="0.03" stroke="#000000" fill="none"/>
<path d="M13.181249999999999 17.025755295445475L13.181249999999999 17.146186953159244L13.076953125000001 17.206402782016134" stroke-width="0.03" stroke="#000000" fill="none"/>
<path d="M13.076953125000001 17.44726609744368L12.97265625 17.50748192630057L12.97265625 18.109640214869437" stroke-width="0.03" stroke="#000000" fill="none"/>
<path d="M13.076953125000001 18.049424386012547L13.076953125000001 17.44726609744368L12.138281249999999 16.905323637731698" stroke-width="0.03" stroke="#000000" fill="none"/>
<path d="M12.033984375000001 16.965539466588588L12.033984375000001 19.13330930543651L14.85 17.50748192630057L17.666015625 19.13330930543651L17.666015625 16.965539466588588" stroke-width="0.03" stroke="#000000" fill="none"/>
<path d="M17.7703125 17.025755295445475L17.666015625 17.08597112430236" stroke-width="0.03" stroke="#000000" fill="none"/>
<path d="M17.7703125 17.025755295445475L17.7703125 17.86877689944189L18.500390624999998 18.290287701440096L18.500390624999998 18.651582674581416L18.291796875 18.77201433229519" stroke-width="0.03" stroke="#000000" fill="none"/>
<path d="M18.291796875 18.892445990008962L18.6046875 18.711798503438303L18.6046875 18.832230161152076L17.874609375000002 19.253740963150285" stroke-width="0.03" stroke="#000000" fill="none"/>
<path d="M17.874609375000002 19.49460427857783L19.751953125 20.57848919800179L18.81328125 21.120431657713773L18.81328125 21.240863315427546L18.291796875 20.939784171143113" stroke-width="0.03" stroke="#000000" fill="none"/>
<path d="M18.291796875 20.819352513429337L18.81328125 21.120431657713773" stroke-width="0.03" stroke="#000000" fill="none"/>
<path d="M18.81328125 21.240863315427546L19.751953125 20.698920855715564" stroke-width="0.03" stroke="#000000" fill="none"/>
<path d="M19.647656249999997 20.518273369144907L19.751953125 20.458057540288017L19.021874999999998 20.03654673828981L19.021874999999998 19.193525134293395L18.708984375 19.01287764772274L18.500390624999998 19.13330930543651" stroke-width="0.03" stroke="#000000" fill="none"/>
<path d="M18.396093750000002 19.073093476579622L18.708984375 18.892445990008962L18.6046875 18.832230161152076" stroke-width="0.03" stroke="#000000" fill="none"/>
<path d="M18.708984375 18.892445990008962L18.708984375 19.01287764772274" stroke-width="0.03" stroke="#000000" fill="none"/>
<path d="M18.708984375 19.253740963150285L18.291796875 19.49460427857783" stroke-width="0.03" stroke="#000000" fill="none"/>
<path d="M18.291796875 19.735467594005378L18.708984375 19.49460427857783L18.708984375 19.253740963150285L18.291796875 19.01287764772274L18.291796875 18.531151016867643L18.083203125 18.410719359153866L17.666015625 18.651582674581416" stroke-width="0.03" stroke="#000000" fill="none"/>
<path d="M17.874609375000002 18.77201433229519L18.291796875 18.531151016867643" stroke-width="0.03" stroke="#000000" fill="none"/>
<path d="M18.1875 18.470935188010756L18.500390624999998 18.290287701440096" stroke-width="0.03" stroke="#000000" fill="none"/>
<path d="M18.500390624999998 18.651582674581416L18.6046875 18.711798503438303" stroke-width="0.03" stroke="#000000" fill="none"/>
<path d="M18.81328125 18.711798503438303L19.021874999999998 18.59136684572453" stroke-width="0.03" stroke="#000000" fill="none"/>
<path d="M18.81328125 18.711798503438303L18.81328125 17.146186953159244L17.14453125 16.18273369144906" stroke-width="0.03" stroke="#000000" fill="none"/>
<path d="M17.14453125 16.54402866459038L16.831640625 16.36338117801972" stroke-width="0.03" stroke="#000000" fill="none"/>
<path d="M17.353125 16.784891980017925L17.7703125 17.025755295445475" stroke-width="0.03" stroke="#000000" fill="none"/>
<path d="M17.7703125 17.86877689944189L17.666015625 17.928992728298773" stroke-width="0.03" stroke="#000000" fill="none"/>
<path d="M18.81328125 17.146186953159244L19.021874999999998 17.025755295445475" stroke-width="0.03" stroke="#000000" fill="none"/>
<path d="M18.81328125 18.711798503438303L20.169140624999997 19.49460427857783L20.377734375 19.37417262086406" stroke-width="0.03" stroke="#000000" fill="none"/>
<path d="M20.169140624999997 19.49460427857783L20.169140624999997 21.42151080199821" stroke-width="0.03" stroke="#000000" fill="none"/>
<path d="M19.85625 21.602158288568866L21.003515625000002 22.264532405994622L21.003515625000002 17.688129412871227L24.8625 15.460143745166418L24.966796875000004 15.520359574023306L24.966796875000004 16.72467615116104L25.279687499999998 16.905323637731698L25.696875000000002 16.66446032230415L25.696875000000002 15.339712087452645L25.279687499999998 15.098848772025098L24.8625 15.339712087452645L24.8625 15.460143745166418" stroke-width="0.03" stroke="#000000" fill="none"/>
<path d="M24.8625 15.339712087452645L25.279687499999998 15.580575402880193L25.279687499999998 16.905323637731698" stroke-width="0.03" stroke="#000000" fill="none"/>
<path d="M25.48828125 16.784891980017925L25.48828125 19.434388449720945L24.653906250000002 19.916115080576038" stroke-width="0.03" stroke="#000000" fill="none"/>
<path d="M24.653906250000002 20.277410053717357L26.53125 21.36129497314132L26.53125 21.843021603996412L26.009765625 22.14410074828085" stroke-width="0.03" stroke="#000000" fill="none"/>
<path d="M26.009765625 22.264532405994622L27.365624999999998 21.481726630855093L25.90546875 20.63870502685868" stroke-width="0.03" stroke="#000000" fill="none"/>
<path d="M25.592578125 20.819352513429337L26.53125 20.277410053717357L26.53125 19.073093476579622L26.009765625 18.77201433229519L25.48828125 19.073093476579622" stroke-width="0.03" stroke="#000000" fill="none"/>
<path d="M25.48828125 18.95266181886585L25.801171875 18.77201433229519L25.801171875 18.410719359153866" stroke-width="0.03" stroke="#000000" fill="none"/>
<path d="M25.48828125 18.59136684572453L27.261328125 17.567697755157454L27.261328125 13.834316366030475L24.028125 11.967625671466987L22.255078124999997 12.991294762034062" stroke-width="0.03" stroke="#000000" fill="none"/>
<path d="M21.9421875 12.8106472754634L22.255078124999997 12.629999788892741L22.567968750000002 12.8106472754634" stroke-width="0.03" stroke="#000000" fill="none"/>
<path d="M22.359375 12.44935230232208L21.837890625 12.750431446606514" stroke-width="0.03" stroke="#000000" fill="none"/>
<path d="M21.525000000000002 12.569783960035853L20.690625 13.051510590890949" stroke-width="0.03" stroke="#000000" fill="none"/>
<path d="M20.377734375 12.87086310432029L20.377734375 10.703093265472365L19.960546875000002 10.462229950044819L19.439062500000002 10.763309094329252" stroke-width="0.03" stroke="#000000" fill="none"/>
<path d="M19.543359374999998 10.823524923186138L16.205859375 12.750431446606514L16.205859375 12.991294762034062L16.623046875 13.232158077461609L19.960546875000002 11.305251554041233L19.960546875000002 11.064388238613684L16.623046875 12.991294762034062L16.623046875 13.232158077461609" stroke-width="0.03" stroke="#000000" fill="none"/>
<path d="M16.623046875 12.991294762034062L16.205859375 12.750431446606514" stroke-width="0.03" stroke="#000000" fill="none"/>
<path d="M17.248828125 11.786978184896327L16.31015625 11.245035725184344" stroke-width="0.03" stroke="#000000" fill="none"/>
<path d="M16.414453125 11.184819896327458L14.85 12.08805732918076L13.285546875 11.184819896327458L13.285546875 11.064388238613684" stroke-width="0.03" stroke="#000000" fill="none"/>
<path d="M13.389843749999999 11.245035725184344L12.451171875 11.786978184896327" stroke-width="0.03" stroke="#000000" fill="none"/>
<path d="M11.825390624999999 12.629999788892741L10.573828124999999 13.352589735175382L10.260937499999999 13.171942248604722L10.260937499999999 13.292373906318495L10.573828124999999 13.473021392889155L11.825390624999999 12.750431446606514L11.825390624999999 12.629999788892741L11.512500000000001 12.44935230232208L10.260937499999999 13.171942248604722" stroke-width="0.03" stroke="#000000" fill="none"/>
<path d="M10.573828124999999 13.352589735175382L10.573828124999999 13.473021392889155" stroke-width="0.03" stroke="#000000" fill="none"/>
<path d="M8.696484375 12.629999788892741L7.340624999999999 11.847194013753214" stroke-width="0.03" stroke="#000000" fill="none"/>
<path d="M9.322265625 10.703093265472365L9.84375 11.004172409756798" stroke-width="0.03" stroke="#000000" fill="none"/>
<path d="M10.365234375 10.703093265472365L9.009374999999999 9.920287490332836" stroke-width="0.03" stroke="#000000" fill="none"/>
<path d="M13.181249999999999 8.234244282340008L14.015625 7.752517651484913L14.85 8.234244282340008L15.684375 7.752517651484913L16.51875 8.234244282340008" stroke-width="0.03" stroke="#000000" fill="none"/>
<path d="M15.47578125 9.438560859477743L14.954296875 9.13748171519331" stroke-width="0.03" stroke="#000000" fill="none"/>
<path d="M15.05859375 9.077265886336422L14.85 8.956834228622649L14.64140625 9.077265886336422" stroke-width="0.03" stroke="#000000" fill="none"/>
<path d="M14.745703124999999 9.13748171519331L14.224218749999999 9.438560859477743" stroke-width="0.03" stroke="#000000" fill="none"/>
<path d="M14.537109375 9.619208346048403L14.85 9.438560859477743L15.162890625 9.619208346048403" stroke-width="0.03" stroke="#000000" fill="none"/>
<path d="M14.85 9.438560859477743L14.85 9.197697544050197" stroke-width="0.03" stroke="#000000" fill="none"/>
<path d="M16.414453125 11.064388238613684L16.414453125 11.184819896327458" stroke-width="0.03" stroke="#000000" fill="none"/>
<path d="M17.457421875 11.666546527182554L17.457421875 11.786978184896327L17.666015625 11.9074098426101" stroke-width="0.03" stroke="#000000" fill="none"/>
<path d="M18.1875 12.44935230232208L17.874609375000002 12.629999788892741L17.874609375000002 12.750431446606514L19.126171875 13.473021392889155L19.439062500000002 13.292373906318495L19.439062500000002 13.171942248604722L18.1875 12.44935230232208" stroke-width="0.03" stroke="#000000" fill="none"/>
<path d="M17.874609375000002 12.629999788892741L19.126171875 13.352589735175382L19.439062500000002 13.171942248604722" stroke-width="0.03" stroke="#000000" fill="none"/>
<path d="M19.126171875 13.352589735175382L19.126171875 13.473021392889155" stroke-width="0.03" stroke="#000000" fill="none"/>
<path d="M19.021874999999998 12.08805732918076L20.377734375 11.305251554041233L19.334765625 10.703093265472365L20.690625 9.920287490332836L20.690625 11.606330698325666" stroke-width="0.03" stroke="#000000" fill="none"/>
<path d="M20.377734375 11.786978184896327L21.31640625 11.245035725184344L22.359375 11.847194013753214L22.359375 12.44935230232208" stroke-width="0.03" stroke="#000000" fill="none"/>
<path d="M22.359375 11.847194013753214L21.003515625000002 12.629999788892741L21.003515625000002 12.87086310432029" stroke-width="0.03" stroke="#000000" fill="none"/>
<path d="M21.003515625000002 12.629999788892741L20.377734375 12.26870481575142" stroke-width="0.03" stroke="#000000" fill="none"/>
<path d="M21.525000000000002 12.569783960035853L23.819531249999997 13.894532194887363" stroke-width="0.03" stroke="#000000" fill="none"/>
<path d="M23.610937500000002 14.014963852601136L24.028125 13.77410053717359L25.175390624999995 14.436474654599342L25.175390624999995 14.918201285454437L24.758203125 15.159064600881985L24.653906250000002 15.098848772025098L24.653906250000002 14.978417114311325L23.610937500000002 14.376258825742458L23.610937500000002 14.014963852601136L24.758203125 14.67733797002689L24.758203125 15.159064600881985" stroke-width="0.03" stroke="#000000" fill="none"/>
<path d="M24.653906250000002 15.098848772025098L20.794921875 17.326834439729907L16.831640625 15.038632943168212" stroke-width="0.03" stroke="#000000" fill="none"/>
<path d="M16.623046875 15.038632943168212L16.414453125 15.159064600881985L15.684375 14.737553798883777" stroke-width="0.03" stroke="#000000" fill="none"/>
<path d="M16.414453125 14.918201285454437L16.414453125 15.159064600881985" stroke-width="0.03" stroke="#000000" fill="none"/>
<path d="M16.623046875 15.038632943168212L16.623046875 14.797769627740664" stroke-width="0.03" stroke="#000000" fill="none"/>
<path d="M16.205859375 16.0020862048784L15.371484375 16.483812835733495" stroke-width="0.03" stroke="#000000" fill="none"/>
<path d="M14.85 16.18273369144906L14.85 17.025755295445475L14.954296875 16.965539466588588L15.371484375 17.206402782016134" stroke-width="0.03" stroke="#000000" fill="none"/>
<path d="M14.85 17.025755295445475L14.745703124999999 16.965539466588588L14.328515625 17.206402782016134" stroke-width="0.03" stroke="#000000" fill="none"/>
<path d="M14.85 17.50748192630057L14.85 18.109640214869437L15.162890625 17.928992728298773" stroke-width="0.03" stroke="#000000" fill="none"/>
<path d="M14.85 18.109640214869437L14.537109375 17.928992728298773" stroke-width="0.03" stroke="#000000" fill="none"/>
<path d="M14.85 18.59136684572453L14.85 21L12.7640625 22.204316577137735" stroke-width="0.03" stroke="#000000" fill="none"/>
<path d="M12.868359374999999 23.830143956273677L12.868359374999999 24.191438929414996" stroke-width="0.03" stroke="#000000" fill="none"/>
<path d="M12.7640625 24.37208641598566L12.659765624999999 24.311870587128773" stroke-width="0.03" stroke="#000000" fill="none"/>
<path d="M12.868359374999999 25.39575550655273L12.868359374999999 25.51618716426651" stroke-width="0.03" stroke="#000000" fill="none"/>
<path d="M13.494140625 26.359208768262917L13.494140625 26.600072083690467" stroke-width="0.03" stroke="#000000" fill="none"/>
<path d="M14.328515625 25.51618716426651L14.328515625 25.154892191125185" stroke-width="0.03" stroke="#000000" fill="none"/>
<path d="M14.4328125 25.215108019982072L14.85 24.974244704554525L15.267187499999999 25.215108019982072" stroke-width="0.03" stroke="#000000" fill="none"/>
<path d="M15.371484375 25.154892191125185L15.371484375 25.51618716426651" stroke-width="0.03" stroke="#000000" fill="none"/>
<path d="M15.05859375 25.335539677695845L14.954296875 25.39575550655273" stroke-width="0.03" stroke="#000000" fill="none"/>
<path d="M14.85 25.335539677695845L14.85 24.492518073699433" stroke-width="0.03" stroke="#000000" fill="none"/>
<path d="M15.267187499999999 24.010791442844337L15.267187499999999 23.649496469703017" stroke-width="0.03" stroke="#000000" fill="none"/>
<path d="M16.831640625 23.830143956273677L16.831640625 24.191438929414996" stroke-width="0.03" stroke="#000000" fill="none"/>
<path d="M16.9359375 24.37208641598566L17.040234375 24.311870587128773" stroke-width="0.03" stroke="#000000" fill="none"/>
<path d="M17.248828125 24.432302244842543L17.353125 24.37208641598566L17.457421875 24.432302244842543" stroke-width="0.03" stroke="#000000" fill="none"/>
<path d="M17.666015625 24.311870587128773L17.248828125 24.55273390255632" stroke-width="0.03" stroke="#000000" fill="none"/>
<path d="M17.248828125 24.793597217983862L17.978906249999998 24.37208641598566" stroke-width="0.03" stroke="#000000" fill="none"/>
<path d="M17.874609375000002 24.432302244842543L17.666015625 24.311870587128773L17.666015625 24.191438929414996L17.248828125 23.95057561398745" stroke-width="0.03" stroke="#000000" fill="none"/>
<path d="M17.248828125 23.58928064084613L17.248828125 25.27532384883896L16.831640625 25.51618716426651" stroke-width="0.03" stroke="#000000" fill="none"/>
<path d="M17.248828125 25.154892191125185L17.353125 25.0946763622683L17.874609375000002 25.39575550655273L17.874609375000002 25.636618821980278L16.205859375 26.600072083690467L14.85 25.817266308550938" stroke-width="0.03" stroke="#000000" fill="none"/>
<path d="M14.85 25.576402993123395L16.205859375 26.359208768262917L17.874609375000002 25.39575550655273" stroke-width="0.03" stroke="#000000" fill="none"/>
<path d="M17.874609375000002 25.034460533411412L17.56171875 25.215108019982072" stroke-width="0.03" stroke="#000000" fill="none"/>
<path d="M18.500390624999998 24.673165560270093L18.500390624999998 23.709712298559904" stroke-width="0.03" stroke="#000000" fill="none"/>
<path d="M19.021874999999998 23.40863315427547L18.291796875 22.98712235227726L18.291796875 23.107554009991038L17.874609375000002 23.348417325418584" stroke-width="0.03" stroke="#000000" fill="none"/>
<path d="M18.291796875 22.98712235227726L18.396093750000002 22.926906523420374L18.396093750000002 22.44517989256528" stroke-width="0.03" stroke="#000000" fill="none"/>
<path d="M17.874609375000002 22.746259036849715L17.353125 22.44517989256528L17.353125 22.8064748657066" stroke-width="0.03" stroke="#000000" fill="none"/>
<path d="M17.353125 22.44517989256528L17.666015625 22.264532405994622" stroke-width="0.03" stroke="#000000" fill="none"/>
<path d="M16.9359375 22.204316577137735L14.85 21" stroke-width="0.03" stroke="#000000" fill="none"/>
<path d="M15.267187499999999 18.350503530296983L16.9359375 19.31395679200717" stroke-width="0.03" stroke="#000000" fill="none"/>
<path d="M18.708984375 19.37417262086406L19.021874999999998 19.193525134293395" stroke-width="0.03" stroke="#000000" fill="none"/>
<path d="M19.021874999999998 20.03654673828981L18.917578125000002 20.096762567146698" stroke-width="0.03" stroke="#000000" fill="none"/>
<path d="M19.751953125 20.458057540288017L19.751953125 20.939784171143113L18.291796875 21.782805775139526" stroke-width="0.03" stroke="#000000" fill="none"/>
<path d="M18.6046875 21.602158288568866L19.021874999999998 21.843021603996412L19.126171875 21.782805775139526L19.334765625 21.903237432853302" stroke-width="0.03" stroke="#000000" fill="none"/>
<path d="M19.334765625 22.023669090567072L19.334765625 21.18064748657066" stroke-width="0.03" stroke="#000000" fill="none"/>
<path d="M19.126171875 21.301079144284433L19.126171875 21.782805775139526" stroke-width="0.03" stroke="#000000" fill="none"/>
<path d="M19.126171875 21.54194245971198L19.021874999999998 21.481726630855093L19.021874999999998 21.36129497314132" stroke-width="0.03" stroke="#000000" fill="none"/>
<path d="M18.6046875 21.120431657713773L18.291796875 21.301079144284433" stroke-width="0.03" stroke="#000000" fill="none"/>
<path d="M19.021874999999998 22.8064748657066L19.85625 22.32474823485151" stroke-width="0.03" stroke="#000000" fill="none"/>
<path d="M19.85625 23.890359785130563L20.89921875 24.492518073699433" stroke-width="0.03" stroke="#000000" fill="none"/>
<path d="M21.003515625000002 24.55273390255632L21.420703125 24.311870587128773L21.420703125 23.58928064084613L21.31640625 23.529064811989244L21.107812499999998 23.649496469703017" stroke-width="0.03" stroke="#000000" fill="none"/>
<path d="M21.107812499999998 23.76992812741679L21.420703125 23.58928064084613" stroke-width="0.03" stroke="#000000" fill="none"/>
<path d="M21.003515625000002 24.55273390255632L21.003515625000002 25.034460533411412L20.377734375 25.39575550655273L20.2734375 25.335539677695845L20.2734375 25.0946763622683" stroke-width="0.03" stroke="#000000" fill="none"/>
<path d="M20.377734375 25.034460533411412L20.377734375 25.39575550655273" stroke-width="0.03" stroke="#000000" fill="none"/>
<path d="M19.334765625 25.39575550655273L19.126171875 25.27532384883896" stroke-width="0.03" stroke="#000000" fill="none"/>
<path d="M20.690625 26.419424597119807L21.107812499999998 26.17856128169226L21.31640625 26.29899293940603L21.31640625 30.152805986246786" stroke-width="0.03" stroke="#000000" fill="none"/>
<path d="M21.420703125 30.0925901573899L21.420703125 30.694748445958766L21.003515625000002 30.935611761386316L19.126171875 29.851726841962353" stroke-width="0.03" stroke="#000000" fill="none"/>
<path d="M18.81328125 30.032374328533013L18.81328125 30.995827590243202L16.51875 32.32057582509471" stroke-width="0.03" stroke="#000000" fill="none"/>
<path d="M16.51875 32.07971250966716L15.371484375 32.74208662709292L15.371484375 33.22381325794801L14.954296875 32.98294994252046L14.954296875 32.50122331166537L15.05859375 32.44100748280849L15.162890625 32.50122331166537L16.205859375 31.8990650230965L16.51875 32.07971250966716L16.51875 32.56143914052225L15.371484375 33.22381325794801" stroke-width="0.03" stroke="#000000" fill="none"/>
<path d="M15.371484375 32.74208662709292L14.954296875 32.50122331166537" stroke-width="0.03" stroke="#000000" fill="none"/>
<path d="M15.05859375 32.44100748280849L15.05859375 27.985036147398862" stroke-width="0.03" stroke="#000000" fill="none"/>
<path d="M14.85 27.864604489685092L14.85 35.331367267939044L18.083203125 33.464676573375556L18.083203125 31.41733839224141" stroke-width="0.03" stroke="#000000" fill="none"/>
<path d="M18.396093750000002 31.597985878812068L18.083203125 31.77863336538273" stroke-width="0.03" stroke="#000000" fill="none"/>
<path d="M18.396093750000002 31.597985878812068L18.396093750000002 31.236690905670745" stroke-width="0.03" stroke="#000000" fill="none"/>
<path d="M18.500390624999998 31.17647507681386L18.500390624999998 31.77863336538273L19.021874999999998 32.07971250966716L20.064843749999998 31.477554221098295L20.064843749999998 30.393669301674333" stroke-width="0.03" stroke="#000000" fill="none"/>
<path d="M20.064843749999998 30.754964274815652L21.525000000000002 31.597985878812068L21.9421875 31.35712256338452L21.9421875 29.791511013105463L22.98515625 29.189352724536597L22.98515625 30.393669301674333L24.549609375 29.490431868821034L24.549609375 26.600072083690467L27.052734375 25.154892191125185L27.052734375 23.348417325418584L26.9484375 23.288201496561694L26.009765625 23.830143956273677" stroke-width="0.03" stroke="#000000" fill="none"/>
<path d="M26.009765625 23.95057561398745L27.052734375 23.348417325418584" stroke-width="0.03" stroke="#000000" fill="none"/>
<path d="M26.73984375 23.40863315427547L26.73984375 22.565611550279055L26.635546875 22.50539572142217L26.53125 22.565611550279055" stroke-width="0.03" stroke="#000000" fill="none"/>
<path d="M26.53125 22.686043207992828L26.73984375 22.565611550279055" stroke-width="0.03" stroke="#000000" fill="none"/>
<path d="M26.53125 22.44517989256528L26.53125 23.529064811989244" stroke-width="0.03" stroke="#000000" fill="none"/>
<path d="M27.052734375 23.830143956273677L27.469921874999997 24.071007271701223L27.469921874999997 25.51618716426651L25.175390624999995 26.840935399118013L25.07109375 26.780719570261127L25.07109375 26.901151227974903L24.966796875000004 26.96136705683179L25.07109375 27.021582885688677L25.07109375 29.67107935539169L23.819531249999997 30.393669301674333L23.40234375 30.152805986246786" stroke-width="0.03" stroke="#000000" fill="none"/>
<path d="M23.819531249999997 29.91194267081924L23.819531249999997 30.393669301674333" stroke-width="0.03" stroke="#000000" fill="none"/>
<path d="M22.98515625 30.393669301674333L22.880859375 30.333453472817446L22.880859375 29.249568553393484" stroke-width="0.03" stroke="#000000" fill="none"/>
<path d="M22.880859375 29.851726841962353L21.9421875 30.393669301674333" stroke-width="0.03" stroke="#000000" fill="none"/>
<path d="M22.046484375000002 30.333453472817446L22.046484375000002 30.45388513053122L22.150781249999998 30.514100959388106L22.880859375 30.0925901573899" stroke-width="0.03" stroke="#000000" fill="none"/>
<path d="M22.150781249999998 30.273237643960556L22.150781249999998 30.514100959388106" stroke-width="0.03" stroke="#000000" fill="none"/>
<path d="M21.525000000000002 30.032374328533013L20.482031250000002 30.63453261710188L20.482031250000002 29.068921066822824L15.05859375 32.200144167380934L14.85 32.07971250966716L14.64140625 32.200144167380934L9.21796875 29.068921066822824L9.21796875 30.63453261710188L8.175 30.032374328533013L8.175 31.597985878812068L7.7578125 31.35712256338452L7.7578125 29.791511013105463L6.714843749999999 29.189352724536597L6.714843749999999 30.393669301674333L6.819140625 30.333453472817446L6.819140625 29.249568553393484" stroke-width="0.03" stroke="#000000" fill="none"/>
<path d="M6.819140625 29.851726841962353L7.7578125 30.393669301674333" stroke-width="0.03" stroke="#000000" fill="none"/>
<path d="M7.653515625 30.45388513053122L7.5492187500000005 30.514100959388106L6.819140625 30.0925901573899" stroke-width="0.03" stroke="#000000" fill="none"/>
<path d="M6.714843749999999 30.393669301674333L5.150390625 29.490431868821034L5.150390625 26.600072083690467L2.647265625000001 25.154892191125185L2.647265625000001 23.348417325418584L2.7515624999999995 23.288201496561694L3.6902343750000006 23.830143956273677" stroke-width="0.03" stroke="#000000" fill="none"/>
<path d="M3.6902343750000006 23.95057561398745L3.6902343750000006 22.746259036849715L2.3343750000000005 21.96345326171019L2.3343750000000005 21.481726630855093" stroke-width="0.03" stroke="#000000" fill="none"/>
<path d="M3.1687499999999984 21.36129497314132L5.046093749999999 20.277410053717357" stroke-width="0.03" stroke="#000000" fill="none"/>
<path d="M5.046093749999999 19.916115080576038L4.211718750000001 19.434388449720945L4.211718750000001 16.784891980017925" stroke-width="0.03" stroke="#000000" fill="none"/>
<path d="M4.4203125 16.905323637731698L4.733203124999998 16.72467615116104L4.733203124999998 15.520359574023306L4.8374999999999995 15.460143745166418L4.8374999999999995 15.339712087452645L4.4203125 15.098848772025098L4.003124999999999 15.339712087452645L4.003124999999999 16.66446032230415L4.4203125 16.905323637731698L4.4203125 15.580575402880193L4.8374999999999995 15.339712087452645" stroke-width="0.03" stroke="#000000" fill="none"/>
<path d="M4.8374999999999995 15.460143745166418L8.696484375 17.688129412871227" stroke-width="0.03" stroke="#000000" fill="none"/>
<path d="M8.905078125 17.567697755157454L8.905078125 17.326834439729907" stroke-width="0.03" stroke="#000000" fill="none"/>
<path d="M10.678125 17.025755295445475L10.88671875 17.146186953159244" stroke-width="0.03" stroke="#000000" fill="none"/>
<path d="M11.9296875 17.025755295445475L12.033984375000001 17.08597112430236" stroke-width="0.03" stroke="#000000" fill="none"/>
<path d="M12.033984375000001 16.965539466588588L12.97265625 17.50748192630057" stroke-width="0.03" stroke="#000000" fill="none"/>
<path d="M13.076953125000001 17.688129412871227L13.389843749999999 17.86877689944189" stroke-width="0.03" stroke="#000000" fill="none"/>
<path d="M12.033984375000001 17.928992728298773L11.9296875 17.86877689944189" stroke-width="0.03" stroke="#000000" fill="none"/>
<path d="M11.512500000000001 18.470935188010756L11.199609375 18.290287701440096" stroke-width="0.03" stroke="#000000" fill="none"/>
<path d="M11.408203125 18.531151016867643L11.825390624999999 18.77201433229519L11.825390624999999 19.253740963150285" stroke-width="0.03" stroke="#000000" fill="none"/>
<path d="M10.991015625000001 19.37417262086406L10.678125 19.193525134293395" stroke-width="0.03" stroke="#000000" fill="none"/>
<path d="M10.88671875 18.711798503438303L10.678125 18.59136684572453" stroke-width="0.03" stroke="#000000" fill="none"/>
<path d="M11.095312499999999 18.711798503438303L11.199609375 18.651582674581416" stroke-width="0.03" stroke="#000000" fill="none"/>
<path d="M9.530859375 19.49460427857783L9.322265625 19.37417262086406" stroke-width="0.03" stroke="#000000" fill="none"/>
<path d="M8.5921875 22.565611550279055L8.80078125 22.686043207992828" stroke-width="0.03" stroke="#000000" fill="none"/>
<path d="M8.38359375 23.529064811989244L8.279296875 23.58928064084613L8.279296875 24.311870587128773L8.696484375 24.55273390255632L8.696484375 25.034460533411412L9.322265625 25.39575550655273L9.4265625 25.335539677695845L9.4265625 25.0946763622683" stroke-width="0.03" stroke="#000000" fill="none"/>
<path d="M9.322265625 25.034460533411412L9.322265625 25.39575550655273" stroke-width="0.03" stroke="#000000" fill="none"/>
<path d="M8.80078125 24.492518073699433L9.84375 23.890359785130563" stroke-width="0.03" stroke="#000000" fill="none"/>
<path d="M8.5921875 23.76992812741679L8.279296875 23.58928064084613" stroke-width="0.03" stroke="#000000" fill="none"/>
<path d="M8.38359375 23.529064811989244L8.5921875 23.649496469703017" stroke-width="0.03" stroke="#000000" fill="none"/>
<path d="M7.862109374999999 24.793597217983862L7.862109374999999 25.034460533411412L8.070703124999998 25.154892191125185" stroke-width="0.03" stroke="#000000" fill="none"/>
<path d="M7.862109374999999 25.034460533411412L8.070703124999998 24.914028875697635L5.254687500000001 23.288201496561694L5.254687500000001 22.926906523420374" stroke-width="0.03" stroke="#000000" fill="none"/>
<path d="M5.46328125 23.047338181134148L5.46328125 24.612949731413206L6.714843749999999 25.335539677695845L6.819140625 25.27532384883896L6.819140625 25.636618821980278L7.13203125 25.817266308550938L7.027734374999999 25.877482137407824L6.714843749999999 25.696834650837165L6.714843749999999 25.335539677695845" stroke-width="0.03" stroke="#000000" fill="none"/>
<path d="M6.819140625 25.636618821980278L6.714843749999999 25.696834650837165" stroke-width="0.03" stroke="#000000" fill="none"/>
<path d="M7.027734374999999 25.877482137407824L7.027734374999999 27.322662029973106L8.38359375 28.105467805112635" stroke-width="0.03" stroke="#000000" fill="none"/>
<path d="M8.38359375 27.985036147398862L8.175 27.864604489685092L8.070703124999998 27.92482031854198" stroke-width="0.03" stroke="#000000" fill="none"/>
<path d="M8.070703124999998 28.165683633969522L8.070703124999998 24.914028875697635" stroke-width="0.03" stroke="#000000" fill="none"/>
<path d="M7.13203125 25.45597133540962L7.13203125 27.26244620111622L7.027734374999999 27.322662029973106" stroke-width="0.03" stroke="#000000" fill="none"/>
<path d="M7.13203125 27.142014543402446L8.070703124999998 27.68395700311443" stroke-width="0.03" stroke="#000000" fill="none"/>
<path d="M8.070703124999998 28.165683633969522L8.38359375 28.346331120540185" stroke-width="0.03" stroke="#000000" fill="none"/>
<path d="M9.113671875 28.165683633969522L9.113671875 27.804388660828202L9.21796875 27.744172831971316L10.46953125 28.46676277825396L10.46953125 28.828057751395274L10.365234375 28.888273580252164L9.113671875 28.165683633969522" stroke-width="0.03" stroke="#000000" fill="none"/>
<path d="M9.113671875 27.804388660828202L10.365234375 28.526978607110845L10.365234375 28.888273580252164" stroke-width="0.03" stroke="#000000" fill="none"/>
<path d="M10.365234375 28.526978607110845L10.46953125 28.46676277825396" stroke-width="0.03" stroke="#000000" fill="none"/>
<path d="M10.573828124999999 29.851726841962353L8.696484375 30.935611761386316L8.279296875 30.694748445958766L8.279296875 30.0925901573899" stroke-width="0.03" stroke="#000000" fill="none"/>
<path d="M8.38359375 30.152805986246786L8.38359375 26.29899293940603L8.5921875 26.17856128169226L9.009374999999999 26.419424597119807L9.009374999999999 30.273237643960556L8.80078125 30.393669301674333L8.80078125 26.53985625483358L8.38359375 26.29899293940603" stroke-width="0.03" stroke="#000000" fill="none"/>
<path d="M8.80078125 26.53985625483358L9.009374999999999 26.419424597119807" stroke-width="0.03" stroke="#000000" fill="none"/>
<path d="M7.13203125 25.45597133540962L5.567578125 24.55273390255632L5.46328125 24.612949731413206" stroke-width="0.03" stroke="#000000" fill="none"/>
<path d="M5.671875 24.612949731413206L5.671875 23.529064811989244" stroke-width="0.03" stroke="#000000" fill="none"/>
<path d="M5.567578125 23.348417325418584L5.46328125 23.40863315427547" stroke-width="0.03" stroke="#000000" fill="none"/>
<path d="M5.567578125 23.348417325418584L5.567578125 23.107554009991038" stroke-width="0.03" stroke="#000000" fill="none"/>
<path d="M6.089062499999999 22.565611550279055L6.193359375 22.50539572142217L6.193359375 21.060215828856883L5.88046875 20.879568342286227L5.776171874999998 20.939784171143113L5.776171874999998 22.384964063708395L6.089062499999999 22.565611550279055L6.089062499999999 21.120431657713773L6.193359375 21.060215828856883" stroke-width="0.03" stroke="#000000" fill="none"/>
<path d="M6.089062499999999 21.120431657713773L5.776171874999998 20.939784171143113" stroke-width="0.03" stroke="#000000" fill="none"/>
<path d="M4.524609375000001 20.57848919800179L4.524609375000001 19.85589925171915L4.733203124999998 19.735467594005378" stroke-width="0.03" stroke="#000000" fill="none"/>
<path d="M4.524609375000001 19.85589925171915L3.1687499999999984 19.073093476579622" stroke-width="0.03" stroke="#000000" fill="none"/>
<path d="M3.1687499999999984 21.36129497314132L3.1687499999999984 21.843021603996412L3.6902343750000006 22.14410074828085" stroke-width="0.03" stroke="#000000" fill="none"/>
<path d="M3.6902343750000006 22.023669090567072L7.027734374999999 23.95057561398745L7.236328125 23.830143956273677L7.236328125 23.348417325418584L3.898828125 21.42151080199821L3.6902343750000006 21.54194245971198L7.027734374999999 23.468848983132357L7.236328125 23.348417325418584" stroke-width="0.03" stroke="#000000" fill="none"/>
<path d="M7.027734374999999 23.468848983132357L7.027734374999999 23.95057561398745" stroke-width="0.03" stroke="#000000" fill="none"/>
<path d="M4.8374999999999995 26.419424597119807L4.8374999999999995 26.780719570261127L4.62890625 26.901151227974903L4.733203124999998 26.96136705683179L4.62890625 27.021582885688677L4.62890625 29.67107935539169L5.88046875 30.393669301674333L6.297656249999999 30.152805986246786" stroke-width="0.03" stroke="#000000" fill="none"/>
<path d="M5.88046875 29.91194267081924L5.88046875 30.393669301674333" stroke-width="0.03" stroke="#000000" fill="none"/>
<path d="M7.5492187500000005 30.514100959388106L7.5492187500000005 30.273237643960556" stroke-width="0.03" stroke="#000000" fill="none"/>
<path d="M7.653515625 30.333453472817446L7.653515625 30.45388513053122" stroke-width="0.03" stroke="#000000" fill="none"/>
<path d="M8.696484375 30.333453472817446L8.696484375 30.935611761386316" stroke-width="0.03" stroke="#000000" fill="none"/>
<path d="M8.175 31.597985878812068L9.63515625 30.754964274815652" stroke-width="0.03" stroke="#000000" fill="none"/>
<path d="M9.63515625 30.393669301674333L9.63515625 31.477554221098295L10.678125 32.07971250966716L11.199609375 31.77863336538273L11.199609375 31.17647507681386" stroke-width="0.03" stroke="#000000" fill="none"/>
<path d="M11.303906249999999 31.236690905670745L11.303906249999999 31.597985878812068L11.616796874999999 31.77863336538273" stroke-width="0.03" stroke="#000000" fill="none"/>
<path d="M11.616796874999999 31.41733839224141L11.616796874999999 33.464676573375556L14.85 35.331367267939044" stroke-width="0.03" stroke="#000000" fill="none"/>
<path d="M14.64140625 35.21093561022528L13.911328125 35.63244641222348L13.076953125000001 35.15071978136838L13.076953125000001 34.78942480822707L13.494140625 34.54856149279952" stroke-width="0.03" stroke="#000000" fill="none"/>
<path d="M13.076953125000001 34.78942480822707L13.911328125 35.27115143908216L14.328515625 35.030288123654614" stroke-width="0.03" stroke="#000000" fill="none"/>
<path d="M13.911328125 35.27115143908216L13.911328125 35.63244641222348" stroke-width="0.03" stroke="#000000" fill="none"/>
<path d="M15.05859375 35.21093561022528L15.788671874999999 35.63244641222348L16.623046875 35.15071978136838L16.623046875 34.78942480822707L16.205859375 34.54856149279952" stroke-width="0.03" stroke="#000000" fill="none"/>
<path d="M16.623046875 34.78942480822707L15.788671874999999 35.27115143908216L15.371484375 35.030288123654614" stroke-width="0.03" stroke="#000000" fill="none"/>
<path d="M15.788671874999999 35.27115143908216L15.788671874999999 35.63244641222348" stroke-width="0.03" stroke="#000000" fill="none"/>
<path d="M14.328515625 33.22381325794801L14.745703124999999 32.98294994252046L14.745703124999999 32.50122331166537L14.64140625 32.44100748280849L14.537109375 32.50122331166537L13.494140625 31.8990650230965L13.181249999999999 32.07971250966716L13.181249999999999 32.56143914052225L14.328515625 33.22381325794801L14.328515625 32.74208662709292L13.181249999999999 32.07971250966716" stroke-width="0.03" stroke="#000000" fill="none"/>
<path d="M13.181249999999999 32.32057582509471L10.88671875 30.995827590243202L10.88671875 30.032374328533013" stroke-width="0.03" stroke="#000000" fill="none"/>
<path d="M10.88671875 30.393669301674333L10.678125 30.514100959388106L10.05234375 30.152805986246786" stroke-width="0.03" stroke="#000000" fill="none"/>
<path d="M10.678125 30.514100959388106L10.678125 32.07971250966716" stroke-width="0.03" stroke="#000000" fill="none"/>
<path d="M14.328515625 32.74208662709292L14.745703124999999 32.50122331166537" stroke-width="0.03" stroke="#000000" fill="none"/>
<path d="M14.64140625 32.44100748280849L14.64140625 27.985036147398862" stroke-width="0.03" stroke="#000000" fill="none"/>
<path d="M16.205859375 26.600072083690467L16.205859375 26.359208768262917" stroke-width="0.03" stroke="#000000" fill="none"/>
<path d="M19.23046875 28.46676277825396L20.482031250000002 27.744172831971316L20.586328125 27.804388660828202L20.586328125 28.165683633969522L19.334765625 28.888273580252164L19.23046875 28.828057751395274L19.23046875 28.46676277825396L19.334765625 28.526978607110845L19.334765625 28.888273580252164" stroke-width="0.03" stroke="#000000" fill="none"/>
<path d="M19.334765625 28.526978607110845L20.586328125 27.804388660828202" stroke-width="0.03" stroke="#000000" fill="none"/>
<path d="M21.31640625 27.985036147398862L21.525000000000002 27.864604489685092L21.629296875 27.92482031854198" stroke-width="0.03" stroke="#000000" fill="none"/>
<path d="M21.629296875 28.165683633969522L21.31640625 28.346331120540185" stroke-width="0.03" stroke="#000000" fill="none"/>
<path d="M21.31640625 28.105467805112635L22.672265625 27.322662029973106L22.672265625 25.877482137407824L22.98515625 25.696834650837165L22.98515625 25.335539677695845L22.880859375 25.27532384883896L22.880859375 25.636618821980278L22.567968750000002 25.817266308550938L22.672265625 25.877482137407824" stroke-width="0.03" stroke="#000000" fill="none"/>
<path d="M22.880859375 25.636618821980278L22.98515625 25.696834650837165" stroke-width="0.03" stroke="#000000" fill="none"/>
<path d="M22.98515625 25.335539677695845L24.23671875 24.612949731413206L24.23671875 23.047338181134148" stroke-width="0.03" stroke="#000000" fill="none"/>
<path d="M24.132421875000002 23.107554009991038L24.132421875000002 23.348417325418584L24.23671875 23.40863315427547" stroke-width="0.03" stroke="#000000" fill="none"/>
<path d="M24.4453125 23.288201496561694L21.629296875 24.914028875697635L21.629296875 28.165683633969522" stroke-width="0.03" stroke="#000000" fill="none"/>
<path d="M21.629296875 27.68395700311443L22.567968750000002 27.142014543402446" stroke-width="0.03" stroke="#000000" fill="none"/>
<path d="M22.567968750000002 27.26244620111622L22.567968750000002 25.45597133540962L24.132421875000002 24.55273390255632L24.23671875 24.612949731413206" stroke-width="0.03" stroke="#000000" fill="none"/>
<path d="M24.028125 24.612949731413206L24.028125 23.529064811989244" stroke-width="0.03" stroke="#000000" fill="none"/>
<path d="M24.4453125 23.288201496561694L24.4453125 22.926906523420374" stroke-width="0.03" stroke="#000000" fill="none"/>
<path d="M23.923828125000004 22.384964063708395L23.610937500000002 22.565611550279055L23.506640625 22.50539572142217L23.506640625 21.060215828856883L23.819531249999997 20.879568342286227L23.923828125000004 20.939784171143113L23.923828125000004 22.384964063708395" stroke-width="0.03" stroke="#000000" fill="none"/>
<path d="M23.610937500000002 22.565611550279055L23.610937500000002 21.120431657713773L23.506640625 21.060215828856883" stroke-width="0.03" stroke="#000000" fill="none"/>
<path d="M23.610937500000002 21.120431657713773L23.923828125000004 20.939784171143113" stroke-width="0.03" stroke="#000000" fill="none"/>
<path d="M24.653906250000002 21.843021603996412L26.009765625 21.060215828856883L26.009765625 22.264532405994622" stroke-width="0.03" stroke="#000000" fill="none"/>
<path d="M26.009765625 22.023669090567072L22.672265625 23.95057561398745L22.463671875 23.830143956273677L22.463671875 23.348417325418584L25.801171875 21.42151080199821L26.009765625 21.54194245971198L22.672265625 23.468848983132357L22.463671875 23.348417325418584" stroke-width="0.03" stroke="#000000" fill="none"/>
<path d="M22.672265625 23.468848983132357L22.672265625 23.95057561398745" stroke-width="0.03" stroke="#000000" fill="none"/>
<path d="M21.837890625 24.793597217983862L21.837890625 25.034460533411412L21.629296875 25.154892191125185" stroke-width="0.03" stroke="#000000" fill="none"/>
<path d="M21.837890625 25.034460533411412L21.629296875 24.914028875697635" stroke-width="0.03" stroke="#000000" fill="none"/>
<path d="M21.31640625 26.29899293940603L20.89921875 26.53985625483358L20.89921875 30.393669301674333L20.690625 30.273237643960556L20.690625 26.419424597119807L20.89921875 26.53985625483358" stroke-width="0.03" stroke="#000000" fill="none"/>
<path d="M22.567968750000002 27.26244620111622L22.672265625 27.322662029973106" stroke-width="0.03" stroke="#000000" fill="none"/>
<path d="M24.549609375 27.322662029973106L25.07109375 27.021582885688677" stroke-width="0.03" stroke="#000000" fill="none"/>
<path d="M25.07109375 27.142014543402446L25.279687499999998 27.021582885688677L25.279687499999998 26.780719570261127" stroke-width="0.03" stroke="#000000" fill="none"/>
<path d="M25.175390624999995 26.840935399118013L25.175390624999995 26.238777110549147" stroke-width="0.03" stroke="#000000" fill="none"/>
<path d="M24.8625 26.419424597119807L24.8625 26.780719570261127L25.07109375 26.901151227974903" stroke-width="0.03" stroke="#000000" fill="none"/>
<path d="M24.8625 26.780719570261127L24.549609375 26.96136705683179" stroke-width="0.03" stroke="#000000" fill="none"/>
<path d="M25.90546875 27.382877858829996L26.73984375 26.901151227974903L26.73984375 25.937697966264714" stroke-width="0.03" stroke="#000000" fill="none"/>
<path d="M27.052734375 24.311870587128773L27.469921874999997 24.071007271701223" stroke-width="0.03" stroke="#000000" fill="none"/>
<path d="M26.009765625 23.95057561398745L26.009765625 22.746259036849715L27.365624999999998 21.96345326171019L27.365624999999998 21.481726630855093" stroke-width="0.03" stroke="#000000" fill="none"/>
<path d="M26.53125 21.36129497314132L26.009765625 21.662374117425752" stroke-width="0.03" stroke="#000000" fill="none"/>
<path d="M24.653906250000002 21.843021603996412L24.653906250000002 15.580575402880193L24.4453125 15.460143745166418L24.4453125 15.21928042973887L19.021874999999998 12.08805732918076" stroke-width="0.03" stroke="#000000" fill="none"/>
<path d="M19.85625 11.004172409756798L20.377734375 10.703093265472365" stroke-width="0.03" stroke="#000000" fill="none"/>
<path d="M20.690625 9.920287490332836L20.2734375 9.67942417490529L18.917578125000002 10.462229950044819L17.874609375000002 9.86007166147595" stroke-width="0.03" stroke="#000000" fill="none"/>
<path d="M18.083203125 8.776186742051989L18.500390624999998 8.53532342662444" stroke-width="0.03" stroke="#000000" fill="none"/>
<path d="M14.85 14.014963852601136L14.85 15.21928042973887" stroke-width="0.03" stroke="#000000" fill="none"/>
<path d="M14.328515625 16.483812835733495L13.494140625 16.0020862048784" stroke-width="0.03" stroke="#000000" fill="none"/>
<path d="M20.794921875 17.326834439729907L20.794921875 17.567697755157454L21.003515625000002 17.688129412871227" stroke-width="0.03" stroke="#000000" fill="none"/>
<path d="M20.794921875 17.567697755157454L27.261328125 13.834316366030475" stroke-width="0.03" stroke="#000000" fill="none"/>
<path d="M27.052734375 13.713884708316701L27.052734375 12.87086310432029L26.218359375 12.389136473465193L25.90546875 12.569783960035853L25.90546875 13.051510590890949" stroke-width="0.03" stroke="#000000" fill="none"/>
<path d="M25.90546875 12.569783960035853L26.73984375 13.051510590890949L26.73984375 13.533237221746042" stroke-width="0.03" stroke="#000000" fill="none"/>
<path d="M26.73984375 13.051510590890949L27.052734375 12.87086310432029" stroke-width="0.03" stroke="#000000" fill="none"/>
<path d="M27.261328125 14.075179681458023L27.99140625 14.49669048345623L27.99140625 15.460143745166418L27.678515625 15.640791231737078L27.261328125 15.399927916309531" stroke-width="0.03" stroke="#000000" fill="none"/>
<path d="M27.678515625 15.640791231737078L27.678515625 14.67733797002689L27.261328125 14.436474654599342" stroke-width="0.03" stroke="#000000" fill="none"/>
<path d="M27.678515625 14.67733797002689L27.99140625 14.49669048345623" stroke-width="0.03" stroke="#000000" fill="none"/>
<path d="M25.696875000000002 15.339712087452645L25.279687499999998 15.580575402880193" stroke-width="0.03" stroke="#000000" fill="none"/>
<path d="M24.966796875000004 15.520359574023306L24.653906250000002 15.701007060593964" stroke-width="0.03" stroke="#000000" fill="none"/>
<path d="M24.341015624999997 15.159064600881985L24.653906250000002 14.978417114311325" stroke-width="0.03" stroke="#000000" fill="none"/>
<path d="M24.758203125 14.67733797002689L25.175390624999995 14.436474654599342" stroke-width="0.03" stroke="#000000" fill="none"/>
<path d="M26.53125 19.073093476579622L25.175390624999995 19.85589925171915L25.175390624999995 20.57848919800179" stroke-width="0.03" stroke="#000000" fill="none"/>
<path d="M25.175390624999995 19.85589925171915L24.966796875000004 19.735467594005378" stroke-width="0.03" stroke="#000000" fill="none"/>
<path d="M25.90546875 27.382877858829996L25.90546875 28.346331120540185L25.07109375 28.828057751395274" stroke-width="0.03" stroke="#000000" fill="none"/>
<path d="M21.525000000000002 30.032374328533013L21.525000000000002 31.597985878812068" stroke-width="0.03" stroke="#000000" fill="none"/>
<path d="M21.003515625000002 30.935611761386316L21.003515625000002 30.333453472817446" stroke-width="0.03" stroke="#000000" fill="none"/>
<path d="M19.647656249999997 30.152805986246786L19.021874999999998 30.514100959388106L19.021874999999998 32.07971250966716" stroke-width="0.03" stroke="#000000" fill="none"/>
<path d="M19.021874999999998 30.514100959388106L18.81328125 30.393669301674333" stroke-width="0.03" stroke="#000000" fill="none"/>
<path d="M15.162890625 32.139928338524044L15.162890625 32.50122331166537" stroke-width="0.03" stroke="#000000" fill="none"/>
<path d="M14.537109375 32.50122331166537L14.537109375 32.139928338524044" stroke-width="0.03" stroke="#000000" fill="none"/>
<path d="M11.199609375 24.673165560270093L11.199609375 23.709712298559904" stroke-width="0.03" stroke="#000000" fill="none"/>
<path d="M5.150390625 26.96136705683179L4.8374999999999995 26.780719570261127" stroke-width="0.03" stroke="#000000" fill="none"/>
<path d="M4.62890625 26.780719570261127L4.524609375000001 26.840935399118013L2.2300781249999995 25.51618716426651L2.2300781249999995 24.071007271701223L2.647265625000001 23.830143956273677" stroke-width="0.03" stroke="#000000" fill="none"/>
<path d="M2.647265625000001 23.348417325418584L3.6902343750000006 23.95057561398745" stroke-width="0.03" stroke="#000000" fill="none"/>
<path d="M3.1687499999999984 23.529064811989244L3.1687499999999984 22.44517989256528" stroke-width="0.03" stroke="#000000" fill="none"/>
<path d="M3.064453125 22.50539572142217L2.960156250000001 22.565611550279055L2.960156250000001 23.40863315427547" stroke-width="0.03" stroke="#000000" fill="none"/>
<path d="M3.1687499999999984 22.686043207992828L2.960156250000001 22.565611550279055" stroke-width="0.03" stroke="#000000" fill="none"/>
<path d="M3.064453125 22.50539572142217L3.1687499999999984 22.565611550279055" stroke-width="0.03" stroke="#000000" fill="none"/>
<path d="M3.6902343750000006 21.662374117425752L3.1687499999999984 21.36129497314132" stroke-width="0.03" stroke="#000000" fill="none"/>
<path d="M2.2300781249999995 24.071007271701223L2.647265625000001 24.311870587128773" stroke-width="0.03" stroke="#000000" fill="none"/>
<path d="M2.960156250000001 25.937697966264714L2.960156250000001 26.901151227974903L3.7945312499999995 27.382877858829996L3.7945312499999995 28.346331120540185L4.62890625 28.828057751395274" stroke-width="0.03" stroke="#000000" fill="none"/>
<path d="M5.150390625 27.322662029973106L4.62890625 27.021582885688677" stroke-width="0.03" stroke="#000000" fill="none"/>
<path d="M4.62890625 27.142014543402446L4.4203125 27.021582885688677L4.4203125 26.780719570261127" stroke-width="0.03" stroke="#000000" fill="none"/>
<path d="M4.524609375000001 26.840935399118013L4.524609375000001 26.238777110549147" stroke-width="0.03" stroke="#000000" fill="none"/>
<path d="M4.62890625 26.780719570261127L4.62890625 26.901151227974903" stroke-width="0.03" stroke="#000000" fill="none"/>
<path d="M5.046093749999999 15.701007060593964L4.733203124999998 15.520359574023306" stroke-width="0.03" stroke="#000000" fill="none"/>
<path d="M4.4203125 15.580575402880193L4.003124999999999 15.339712087452645" stroke-width="0.03" stroke="#000000" fill="none"/>
<path d="M5.046093749999999 14.978417114311325L5.3589843749999995 15.159064600881985" stroke-width="0.03" stroke="#000000" fill="none"/>
<path d="M2.438671874999999 15.399927916309531L2.021484375 15.640791231737078L1.7085937499999995 15.460143745166418L1.7085937499999995 14.49669048345623L2.438671874999999 14.075179681458023" stroke-width="0.03" stroke="#000000" fill="none"/>
<path d="M2.438671874999999 14.436474654599342L2.021484375 14.67733797002689L2.021484375 15.640791231737078" stroke-width="0.03" stroke="#000000" fill="none"/>
<path d="M2.021484375 14.67733797002689L1.7085937499999995 14.49669048345623" stroke-width="0.03" stroke="#000000" fill="none"/>
<path d="M2.414597800786388 3.383983116796798L2.6128837055103125 3.1316192380572576" stroke-width="0.03" stroke="#000000" fill="none"/>
<path d="M2.414597800786388 3.1316192380572576L2.6128837055103125 3.383983116796798" stroke-width="0.03" stroke="#000000" fill="none"/>
<path d="M2.90129956692693 3.383983116796798L2.90129956692693 3.0054372986874878L2.7210396535415438 3.257801177427028L2.991429523619623 3.257801177427028" stroke-width="0.03" stroke="#000000" fill="none"/>
<path d="M3.0995854716508546 3.3299051427811825L3.117611462989393 3.3659571254582596L3.171689437005009 3.383983116796798L3.207741419682086 3.383983116796798L3.261819393697702 3.3659571254582596L3.297871376374779 3.3118791514426436L3.3158973677133177 3.221749194749951L3.3158973677133177 3.1316192380572576L3.297871376374779 3.0595152727031034L3.261819393697702 3.023463290026026L3.207741419682086 3.0054372986874878L3.1897154283435474 3.0054372986874878L3.1356374543279317 3.023463290026026L3.0995854716508546 3.0595152727031034L3.0815594803123156 3.113593246718719L3.0815594803123156 3.1316192380572576L3.0995854716508546 3.1856972120728733L3.1356374543279317 3.221749194749951L3.1897154283435474 3.2397751860884894L3.207741419682086 3.2397751860884894L3.261819393697702 3.221749194749951L3.297871376374779 3.1856972120728733L3.3158973677133177 3.1316192380572576" stroke-width="0.03" stroke="#000000" fill="none"/>
<path d="M3.4961572810987036 3.077541264041642L3.5322092637757807 3.0595152727031034L3.586287237791397 3.0054372986874878L3.586287237791397 3.383983116796798" stroke-width="0.03" stroke="#000000" fill="none"/>
<path d="M4.072989003931939 3.293853160104105L4.0549630125934 3.3299051427811825L4.018911029916323 3.3659571254582596L3.9828590472392458 3.383983116796798L3.9107550818850916 3.383983116796798L3.8747030992080145 3.3659571254582596L3.838651116530937 3.3299051427811825L3.8206251251923984 3.293853160104105L3.80259913385386 3.2397751860884894L3.80259913385386 3.149645229395796L3.8206251251923984 3.0955672553801805L3.838651116530937 3.0595152727031034L3.8747030992080145 3.023463290026026L3.9107550818850916 3.0054372986874878L3.9828590472392458 3.0054372986874878L4.018911029916323 3.023463290026026L4.0549630125934 3.0595152727031034L4.072989003931939 3.0955672553801805" stroke-width="0.03" stroke="#000000" fill="none"/>
<path d="M4.199170943301709 3.257801177427028L4.379430856687095 3.257801177427028" stroke-width="0.03" stroke="#000000" fill="none"/>
<path d="M4.433508830702711 3.383983116796798L4.289300899994402 3.0054372986874878L4.145092969286093 3.383983116796798" stroke-width="0.03" stroke="#000000" fill="none"/>
<path d="M4.523638787395404 3.383983116796798L4.523638787395404 3.0054372986874878L4.6858727094422505 3.0054372986874878L4.739950683457867 3.023463290026026L4.757976674796406 3.041489281364565L4.776002666134945 3.077541264041642L4.776002666134945 3.113593246718719L4.757976674796406 3.149645229395796L4.739950683457867 3.167671220734335L4.6858727094422505 3.1856972120728733" stroke-width="0.03" stroke="#000000" fill="none"/>
<path d="M4.523638787395404 3.1856972120728733L4.6858727094422505 3.1856972120728733L4.739950683457867 3.2037232034114123L4.757976674796406 3.221749194749951L4.776002666134945 3.257801177427028L4.776002666134945 3.3118791514426436L4.757976674796406 3.3479311341197207L4.739950683457867 3.3659571254582596L4.6858727094422505 3.383983116796798L4.523638787395404 3.383983116796798" stroke-width="0.03" stroke="#000000" fill="none"/>
<path d="M4.992314562197407 3.0054372986874878L4.938236588181791 3.023463290026026L4.902184605504715 3.077541264041642L4.884158614166176 3.167671220734335L4.884158614166176 3.221749194749951L4.902184605504715 3.3118791514426436L4.938236588181791 3.3659571254582596L4.992314562197407 3.383983116796798L5.028366544874484 3.383983116796798L5.0824445188901 3.3659571254582596L5.1184965015671775 3.3118791514426436L5.136522492905716 3.221749194749951L5.136522492905716 3.167671220734335L5.1184965015671775 3.077541264041642L5.0824445188901 3.023463290026026L5.028366544874484 3.0054372986874878L4.992314562197407 3.0054372986874878" stroke-width="0.03" stroke="#000000" fill="none"/>
<path d="M5.33480839762964 3.0054372986874878L5.280730423614025 3.023463290026026L5.262704432275486 3.0595152727031034L5.262704432275486 3.0955672553801805L5.280730423614025 3.1316192380572576L5.316782406291102 3.149645229395796L5.388886371645256 3.167671220734335L5.442964345660872 3.1856972120728733L5.479016328337949 3.221749194749951L5.497042319676488 3.257801177427028L5.497042319676488 3.3118791514426436L5.479016328337949 3.3479311341197207L5.46099033699941 3.3659571254582596L5.406912362983795 3.383983116796798L5.33480839762964 3.383983116796798L5.280730423614025 3.3659571254582596L5.262704432275486 3.3479311341197207L5.244678440936948 3.3118791514426436L5.244678440936948 3.257801177427028L5.262704432275486 3.221749194749951L5.298756414952564 3.1856972120728733L5.352834388968179 3.167671220734335L5.424938354322334 3.149645229395796L5.46099033699941 3.1316192380572576L5.479016328337949 3.0955672553801805L5.479016328337949 3.0595152727031034L5.46099033699941 3.023463290026026L5.406912362983795 3.0054372986874878L5.33480839762964 3.0054372986874878" stroke-width="0.03" stroke="#000000" fill="none"/>
<path d="M5.558333333333334 2.2291666666666665L5.441666666666666 1.8208333333333333" stroke-width="0.03" stroke="#000000" fill="none"/>
<path d="M5.675 1.8208333333333333L5.558333333333334 2.2291666666666665" stroke-width="0.03" stroke="#000000" fill="none"/>
<path d="M5.791666666666666 2.2291666666666665L5.675 1.8208333333333333" stroke-width="0.03" stroke="#000000" fill="none"/>
<path d="M5.908333333333333 1.8208333333333333L5.791666666666666 2.2291666666666665" stroke-width="0.03" stroke="#000000" fill="none"/>
<path d="M6.141666666666667 2.2291666666666665L6.141666666666667 1.7333333333333334L6.1708333333333325 1.6458333333333333L6.229166666666666 1.6166666666666667L6.2875 1.6166666666666667" stroke-width="0.03" stroke="#000000" fill="none"/>
<path d="M6.4624999999999995 1.6166666666666667L6.4624999999999995 2.2291666666666665" stroke-width="0.03" stroke="#000000" fill="none"/>
<path d="M6.258333333333333 1.8208333333333333L6.054166666666666 1.8208333333333333" stroke-width="0.03" stroke="#000000" fill="none"/>
<path d="M7.016666666666666 1.8208333333333333L7.016666666666666 2.2291666666666665" stroke-width="0.03" stroke="#000000" fill="none"/>
<path d="M7.016666666666666 2.1416666666666666L6.958333333333333 2.2L6.8999999999999995 2.2291666666666665L6.812499999999999 2.2291666666666665L6.754166666666666 2.2L6.695833333333333 2.1416666666666666L6.666666666666666 2.0541666666666667L6.666666666666666 1.9958333333333333L6.695833333333333 1.9083333333333332L6.754166666666666 1.85L6.812499999999999 1.8208333333333333L6.8999999999999995 1.8208333333333333L6.958333333333333 1.85L7.016666666666666 1.9083333333333332" stroke-width="0.03" stroke="#000000" fill="none"/>
<path d="M7.249999999999999 2.1125L7.541666666666666 1.8208333333333333" stroke-width="0.03" stroke="#000000" fill="none"/>
<path d="M7.366666666666666 1.9958333333333333L7.570833333333333 2.2291666666666665" stroke-width="0.03" stroke="#000000" fill="none"/>
<path d="M7.716666666666666 1.9958333333333333L8.066666666666666 1.9958333333333333L8.066666666666666 1.9375L8.0375 1.8791666666666667L8.008333333333333 1.85L7.949999999999999 1.8208333333333333L7.8625 1.8208333333333333L7.804166666666666 1.85L7.745833333333333 1.9083333333333332L7.716666666666666 1.9958333333333333L7.716666666666666 2.0541666666666667L7.745833333333333 2.1416666666666666L7.804166666666666 2.2L7.8625 2.2291666666666665L7.949999999999999 2.2291666666666665L8.008333333333333 2.2L8.066666666666666 2.1416666666666666" stroke-width="0.03" stroke="#000000" fill="none"/>
<path d="M8.475 2.2291666666666665L8.475 1.6166666666666667L8.3875 1.7041666666666666L8.329166666666666 1.7333333333333334" stroke-width="0.03" stroke="#000000" fill="none"/>
<path d="M7.249999999999999 1.6166666666666667L7.249999999999999 2.2291666666666665" stroke-width="0.03" stroke="#000000" fill="none"/>
<path d="M9.237499999999999 2.533333333333333L1.5 2.533333333333333" stroke-width="0.03" stroke="#000000" fill="none"/>
<path d="M2.1166666666666667 2.2291666666666665L2.1166666666666667 1.8208333333333333" stroke-width="0.03" stroke="#000000" fill="none"/>
<path d="M2.0875 1.6166666666666667L2.1166666666666667 1.6458333333333333L2.145833333333333 1.6166666666666667L2.1166666666666667 1.5875L2.0875 1.6166666666666667" stroke-width="0.03" stroke="#000000" fill="none"/>
<path d="M2.3208333333333333 2.1416666666666666L2.35 2.2L2.4375 2.2291666666666665L2.525 2.2291666666666665L2.6125 2.2L2.6416666666666666 2.1416666666666666L2.6416666666666666 2.1125L2.6125 2.0541666666666667L2.5541666666666667 2.025L2.408333333333333 1.9958333333333333L2.35 1.9666666666666666L2.3208333333333333 1.9083333333333332L2.35 1.85L2.4375 1.8208333333333333L2.525 1.8208333333333333L2.6125 1.85L2.6416666666666666 1.9083333333333332" stroke-width="0.03" stroke="#000000" fill="none"/>
<path d="M2.9625 1.8208333333333333L2.904166666666667 1.85L2.845833333333333 1.9083333333333332L2.8166666666666664 1.9958333333333333L2.8166666666666664 2.0541666666666667L2.845833333333333 2.1416666666666666L2.904166666666667 2.2L2.9625 2.2291666666666665L3.05 2.2291666666666665L3.1083333333333334 2.2L3.1666666666666665 2.1416666666666666L3.1958333333333333 2.0541666666666667L3.1958333333333333 1.9958333333333333L3.1666666666666665 1.9083333333333332L3.1083333333333334 1.85L3.05 1.8208333333333333L2.9625 1.8208333333333333" stroke-width="0.03" stroke="#000000" fill="none"/>
<path d="M3.283333333333333 2.2874999999999996L3.75 2.2874999999999996" stroke-width="0.03" stroke="#000000" fill="none"/>
<path d="M3.8375 2.1416666666666666L3.8666666666666663 2.2L3.9541666666666666 2.2291666666666665L4.041666666666666 2.2291666666666665L4.129166666666666 2.2L4.158333333333333 2.1416666666666666L4.158333333333333 2.1125L4.129166666666666 2.0541666666666667L4.070833333333333 2.025L3.925 1.9958333333333333L3.8666666666666663 1.9666666666666666L3.8375 1.9083333333333332L3.8666666666666663 1.85L3.9541666666666666 1.8208333333333333L4.041666666666666 1.8208333333333333L4.129166666666666 1.85L4.158333333333333 1.9083333333333332" stroke-width="0.03" stroke="#000000" fill="none"/>
<path d="M4.3625 1.9375L4.449999999999999 1.85L4.508333333333333 1.8208333333333333L4.595833333333333 1.8208333333333333L4.654166666666667 1.85L4.683333333333334 1.9375L4.683333333333334 2.2291666666666665" stroke-width="0.03" stroke="#000000" fill="none"/>
<path d="M4.3625 2.2291666666666665L4.3625 1.8208333333333333" stroke-width="0.03" stroke="#000000" fill="none"/>
<path d="M5.033333333333333 1.8208333333333333L4.975 1.85L4.916666666666666 1.9083333333333332L4.887499999999999 1.9958333333333333L4.887499999999999 2.0541666666666667L4.916666666666666 2.1416666666666666L4.975 2.2L5.033333333333333 2.2291666666666665L5.120833333333334 2.2291666666666665L5.179166666666666 2.2L5.2375 2.1416666666666666L5.266666666666666 2.0541666666666667L5.266666666666666 1.9958333333333333L5.2375 1.9083333333333332L5.179166666666666 1.85L5.120833333333334 1.8208333333333333L5.033333333333333 1.8208333333333333" stroke-width="0.03" stroke="#000000" fill="none"/>
<path d="M2.1622339220468474 3.0054372986874878L2.1081559480312317 3.023463290026026L2.072103965354154 3.077541264041642L2.0540779740156156 3.167671220734335L2.0540779740156156 3.221749194749951L2.072103965354154 3.3118791514426436L2.1081559480312317 3.3659571254582596L2.1622339220468474 3.383983116796798L2.1982859047239245 3.383983116796798L2.2523638787395406 3.3659571254582596L2.2884158614166177 3.3118791514426436L2.3064418527551562 3.221749194749951L2.3064418527551562 3.167671220734335L2.2884158614166177 3.077541264041642L2.2523638787395406 3.023463290026026L2.1982859047239245 3.0054372986874878L2.1622339220468474 3.0054372986874878" stroke-width="0.03" stroke="#000000" fill="none"/>
</svg>
