<?xml version="1.0" standalone="no"?>
<svg width="29.7cm" height="42cm" version="1.1" xmlns="http://www.w3.org/2000/svg" viewBox="0.0 0.0 29.700001 42.000001">
<path d="M7.236328125 10.341798292331045L10.991015625000001 8.174028453483121L12.868359374999999 9.257913372907083L12.868359374999999 10.100934976903497L12.242578125 9.739640003762176L11.825390624999999 9.980503319189724L11.825390624999999 10.100934976903497L12.7640625 10.642877436615478" stroke-width="0.03" stroke="#000000" fill="none"/>
<path d="M12.868359374999999 10.582661607758592L11.825390624999999 9.980503319189724" stroke-width="0.03" stroke="#000000" fill="none"/>
<path d="M12.451171875 10.462229950044819L11.199609375 11.184819896327458" stroke-width="0.03" stroke="#000000" fill="none"/>
<path d="M11.199609375 10.943956580899911L9.009374999999999 12.208488986894533L9.21796875 12.328920644608306L9.322265625 12.26870481575142L10.991015625000001 13.232158077461609L10.991015625000001 13.352589735175382" stroke-width="0.03" stroke="#000000" fill="none"/>
<path d="M10.991015625000001 13.232158077461609L10.88671875 13.292373906318495L11.825390624999999 13.834316366030475L11.825390624999999 14.556906312313117" stroke-width="0.03" stroke="#000000" fill="none"/>
<path d="M11.303906249999999 15.339712087452645L14.85 13.292373906318495L18.396093750000002 15.339712087452645" stroke-width="0.03" stroke="#000000" fill="none"/>
<path d="M18.1875 15.460143745166418L14.954296875 13.593453050602928L14.85 13.653668879459815L14.745703124999999 13.593453050602928L11.512500000000001 15.460143745166418" stroke-width="0.03" stroke="#000000" fill="none"/>
<path d="M10.88671875 15.098848772025098L14.4328125 13.051510590890949L13.702734374999999 12.629999788892741L13.702734374999999 13.111726419747836L14.015625 13.292373906318495" stroke-width="0.03" stroke="#000000" fill="none"/>
<path d="M13.702734374999999 12.991294762034062L13.494140625 12.87086310432029L13.494140625 12.750431446606514L14.119921875 12.389136473465193L14.85 12.8106472754634L15.580078125 12.389136473465193L16.205859375 12.750431446606514L16.205859375 12.87086310432029L15.997265625 12.991294762034062" stroke-width="0.03" stroke="#000000" fill="none"/>
<path d="M15.997265625 12.87086310432029L16.205859375 12.750431446606514" stroke-width="0.03" stroke="#000000" fill="none"/>
<path d="M16.205859375 12.87086310432029L20.2734375 15.21928042973887L18.291796875 16.36338117801972L18.291796875 16.483812835733495L19.85625 17.387050268586794L22.463671875 15.881654547164626L22.567968750000002 15.94187037602151" stroke-width="0.03" stroke="#000000" fill="none"/>
<path d="M22.672265625 15.881654547164626L19.334765625 17.808561070585L19.334765625 17.928992728298773L16.623046875 16.36338117801972L16.623046875 16.845107808874815" stroke-width="0.03" stroke="#000000" fill="none"/>
<path d="M16.31015625 16.66446032230415L14.85 17.50748192630057L13.389843749999999 16.66446032230415L12.451171875 17.206402782016134" stroke-width="0.03" stroke="#000000" fill="none"/>
<path d="M12.555468750000001 17.26661861087302L12.033984375000001 17.567697755157454L11.616796874999999 17.326834439729907L11.616796874999999 17.688129412871227L10.365234375 18.410719359153866L10.365234375 19.85589925171915L10.05234375 20.03654673828981L10.05234375 20.63870502685868L10.46953125 20.879568342286227L11.303906249999999 20.397841711431134L11.303906249999999 20.03654673828981" stroke-width="0.03" stroke="#000000" fill="none"/>
<path d="M11.199609375 19.976330909432924L11.199609375 19.85589925171915L10.573828124999999 19.49460427857783L10.365234375 19.615035936291605" stroke-width="0.03" stroke="#000000" fill="none"/>
<path d="M10.365234375 19.49460427857783L10.46953125 19.554820107434715" stroke-width="0.03" stroke="#000000" fill="none"/>
<path d="M10.05234375 20.03654673828981L10.46953125 20.277410053717357L11.199609375 19.85589925171915" stroke-width="0.03" stroke="#000000" fill="none"/>
<path d="M11.199609375 19.976330909432924L13.911328125 21.54194245971198L13.911328125 24.673165560270093L14.015625 24.73338138912698L14.015625 25.45597133540962L13.80703125 25.576402993123395" stroke-width="0.03" stroke="#000000" fill="none"/>
<path d="M13.911328125 25.636618821980278L13.911328125 25.51618716426651" stroke-width="0.03" stroke="#000000" fill="none"/>
<path d="M13.598437500000001 25.45597133540962L13.285546875 25.636618821980278L12.7640625 25.335539677695845L12.7640625 24.85381304684075L13.598437500000001 24.37208641598566L13.911328125 24.55273390255632" stroke-width="0.03" stroke="#000000" fill="none"/>
<path d="M14.015625 24.73338138912698L13.285546875 25.154892191125185L13.285546875 25.636618821980278" stroke-width="0.03" stroke="#000000" fill="none"/>
<path d="M13.598437500000001 25.45597133540962L14.85 26.17856128169226L16.1015625 25.45597133540962L16.414453125 25.636618821980278L16.9359375 25.335539677695845L16.9359375 24.85381304684075L16.1015625 24.37208641598566L15.788671874999999 24.55273390255632" stroke-width="0.03" stroke="#000000" fill="none"/>
<path d="M15.788671874999999 24.673165560270093L15.684375 24.73338138912698L15.684375 25.45597133540962L15.89296875 25.576402993123395" stroke-width="0.03" stroke="#000000" fill="none"/>
<path d="M15.788671874999999 25.636618821980278L15.788671874999999 25.51618716426651" stroke-width="0.03" stroke="#000000" fill="none"/>
<path d="M16.414453125 25.636618821980278L16.414453125 25.154892191125185L16.9359375 24.85381304684075" stroke-width="0.03" stroke="#000000" fill="none"/>
<path d="M16.831640625 24.793597217983862L16.831640625 22.866690694563488L16.623046875 22.746259036849715L16.205859375 22.98712235227726L16.205859375 24.432302244842543" stroke-width="0.03" stroke="#000000" fill="none"/>
<path d="M16.414453125 24.55273390255632L16.414453125 23.107554009991038L16.831640625 22.866690694563488" stroke-width="0.03" stroke="#000000" fill="none"/>
<path d="M16.414453125 23.107554009991038L16.205859375 22.98712235227726" stroke-width="0.03" stroke="#000000" fill="none"/>
<path d="M15.788671874999999 21.54194245971198L18.500390624999998 19.976330909432924L18.500390624999998 19.85589925171915L19.126171875 19.49460427857783L19.334765625 19.615035936291605" stroke-width="0.03" stroke="#000000" fill="none"/>
<path d="M19.334765625 19.49460427857783L19.23046875 19.554820107434715" stroke-width="0.03" stroke="#000000" fill="none"/>
<path d="M19.334765625 19.85589925171915L19.334765625 18.410719359153866L18.083203125 17.688129412871227L18.083203125 17.326834439729907L17.56171875 17.025755295445475L17.14453125 17.26661861087302L17.14453125 18.23007187258321L17.457421875 18.410719359153866" stroke-width="0.03" stroke="#000000" fill="none"/>
<path d="M17.56171875 18.350503530296983L14.85 19.916115080576038L12.138281249999999 18.350503530296983L12.033984375000001 18.410719359153866L11.408203125 18.049424386012547L11.408203125 17.808561070585" stroke-width="0.03" stroke="#000000" fill="none"/>
<path d="M11.408203125 17.928992728298773L11.303906249999999 17.86877689944189" stroke-width="0.03" stroke="#000000" fill="none"/>
<path d="M11.616796874999999 17.326834439729907L12.138281249999999 17.025755295445475L12.555468750000001 17.26661861087302L12.555468750000001 18.23007187258321L12.242578125 18.410719359153866" stroke-width="0.03" stroke="#000000" fill="none"/>
<path d="M12.033984375000001 18.410719359153866L12.033984375000001 17.567697755157454" stroke-width="0.03" stroke="#000000" fill="none"/>
<path d="M12.555468750000001 17.387050268586794L14.224218749999999 18.350503530296983L14.224218749999999 18.59136684572453L13.80703125 18.832230161152076L12.555468750000001 18.109640214869437" stroke-width="0.03" stroke="#000000" fill="none"/>
<path d="M12.555468750000001 17.86877689944189L13.80703125 18.59136684572453L14.224218749999999 18.350503530296983" stroke-width="0.03" stroke="#000000" fill="none"/>
<path d="M13.80703125 18.59136684572453L13.80703125 18.832230161152076" stroke-width="0.03" stroke="#000000" fill="none"/>
<path d="M15.47578125 18.59136684572453L15.47578125 18.350503530296983L17.14453125 17.387050268586794" stroke-width="0.03" stroke="#000000" fill="none"/>
<path d="M17.14453125 17.26661861087302L17.666015625 17.567697755157454L18.083203125 17.326834439729907" stroke-width="0.03" stroke="#000000" fill="none"/>
<path d="M17.666015625 17.567697755157454L17.666015625 18.410719359153866L17.56171875 18.350503530296983" stroke-width="0.03" stroke="#000000" fill="none"/>
<path d="M17.666015625 18.410719359153866L18.291796875 18.049424386012547L18.291796875 17.808561070585" stroke-width="0.03" stroke="#000000" fill="none"/>
<path d="M18.291796875 17.928992728298773L18.396093750000002 17.86877689944189" stroke-width="0.03" stroke="#000000" fill="none"/>
<path d="M19.334765625 17.808561070585L19.751953125 18.049424386012547L23.089453125000002 16.122517862592172L23.089453125000002 16.24294952030595L23.193749999999998 16.303165349162832L23.193749999999998 16.784891980017925L19.85625 18.711798503438303L19.751953125 18.651582674581416L19.751953125 21.782805775139526L19.334765625 21.54194245971198" stroke-width="0.03" stroke="#000000" fill="none"/>
<path d="M19.334765625 21.903237432853302L17.874609375000002 22.746259036849715L17.874609375000002 24.432302244842543L16.9359375 24.974244704554525" stroke-width="0.03" stroke="#000000" fill="none"/>
<path d="M16.414453125 25.154892191125185L15.684375 24.73338138912698" stroke-width="0.03" stroke="#000000" fill="none"/>
<path d="M15.788671874999999 24.673165560270093L15.788671874999999 21.54194245971198" stroke-width="0.03" stroke="#000000" fill="none"/>
<path d="M15.371484375 21.301079144284433L14.954296875 21.54194245971198L14.85 21.481726630855093L14.745703124999999 21.54194245971198L14.328515625 21.301079144284433L14.328515625 20.819352513429337L10.365234375 18.531151016867643" stroke-width="0.03" stroke="#000000" fill="none"/>
<path d="M10.365234375 18.410719359153866L14.4328125 20.759136684572454L14.4328125 20.63870502685868L10.46953125 18.350503530296983" stroke-width="0.03" stroke="#000000" fill="none"/>
<path d="M10.365234375 17.928992728298773L13.076953125000001 16.36338117801972L13.076953125000001 16.845107808874815" stroke-width="0.03" stroke="#000000" fill="none"/>
<path d="M13.076953125000001 16.36338117801972L10.365234375 14.797769627740664L9.530859375 15.279496258595758" stroke-width="0.03" stroke="#000000" fill="none"/>
<path d="M9.4265625 15.21928042973887L13.494140625 12.87086310432029" stroke-width="0.03" stroke="#000000" fill="none"/>
<path d="M13.494140625 12.750431446606514L13.702734374999999 12.87086310432029" stroke-width="0.03" stroke="#000000" fill="none"/>
<path d="M14.745703124999999 12.750431446606514L14.85 12.690215617749628L14.954296875 12.750431446606514" stroke-width="0.03" stroke="#000000" fill="none"/>
<path d="M14.85 12.690215617749628L14.85 11.365467382898117L11.199609375 13.473021392889155" stroke-width="0.03" stroke="#000000" fill="none"/>
<path d="M9.739453124999999 12.389136473465193L9.530859375 12.26870481575142L9.4265625 12.328920644608306" stroke-width="0.03" stroke="#000000" fill="none"/>
<path d="M9.63515625 12.44935230232208L13.181249999999999 10.40201412118793L12.7640625 10.161150805760384L12.7640625 10.281582463474159L13.076953125000001 10.462229950044819" stroke-width="0.03" stroke="#000000" fill="none"/>
<path d="M12.7640625 10.161150805760384L14.4328125 9.197697544050197L14.85 9.438560859477743L15.267187499999999 9.197697544050197L16.9359375 10.161150805760384L16.9359375 10.281582463474159L16.623046875 10.462229950044819" stroke-width="0.03" stroke="#000000" fill="none"/>
<path d="M16.51875 10.40201412118793L16.9359375 10.161150805760384" stroke-width="0.03" stroke="#000000" fill="none"/>
<path d="M16.831640625 10.100934976903497L17.457421875 9.739640003762176L17.874609375000002 9.980503319189724L17.874609375000002 10.100934976903497L16.9359375 10.642877436615478" stroke-width="0.03" stroke="#000000" fill="none"/>
<path d="M17.040234375 10.582661607758592L17.040234375 10.703093265472365" stroke-width="0.03" stroke="#000000" fill="none"/>
<path d="M17.040234375 10.582661607758592L18.500390624999998 11.425683211755006" stroke-width="0.03" stroke="#000000" fill="none"/>
<path d="M18.500390624999998 11.54611486946878L18.500390624999998 10.943956580899911L19.960546875000002 10.100934976903497L23.193749999999998 11.967625671466987L23.193749999999998 12.208488986894533" stroke-width="0.03" stroke="#000000" fill="none"/>
<path d="M23.193749999999998 11.967625671466987L22.255078124999997 12.509568131178968L23.610937500000002 13.292373906318495L25.175390624999995 12.389136473465193L24.028125 11.72676235603944L22.463671875 12.629999788892741" stroke-width="0.03" stroke="#000000" fill="none"/>
<path d="M22.98515625 11.847194013753214L22.98515625 11.485899040611892L22.359375 11.124604067470571L22.046484375000002 11.305251554041233" stroke-width="0.03" stroke="#000000" fill="none"/>
<path d="M22.463671875 11.184819896327458L22.463671875 10.341798292331045L18.708984375 8.174028453483121L16.831640625 9.257913372907083L16.831640625 10.100934976903497" stroke-width="0.03" stroke="#000000" fill="none"/>
<path d="M16.51875 10.40201412118793L20.064843749999998 12.44935230232208" stroke-width="0.03" stroke="#000000" fill="none"/>
<path d="M19.960546875000002 12.389136473465193L20.169140624999997 12.26870481575142L20.2734375 12.328920644608306" stroke-width="0.03" stroke="#000000" fill="none"/>
<path d="M20.377734375 12.26870481575142L18.708984375 13.232158077461609L18.708984375 13.352589735175382" stroke-width="0.03" stroke="#000000" fill="none"/>
<path d="M18.81328125 13.292373906318495L17.874609375000002 13.834316366030475L17.874609375000002 14.556906312313117" stroke-width="0.03" stroke="#000000" fill="none"/>
<path d="M18.81328125 15.098848772025098L15.267187499999999 13.051510590890949L15.997265625 12.629999788892741L15.997265625 13.111726419747836L15.684375 13.292373906318495" stroke-width="0.03" stroke="#000000" fill="none"/>
<path d="M14.85 13.292373906318495L14.85 13.653668879459815" stroke-width="0.03" stroke="#000000" fill="none"/>
<path d="M14.85 15.21928042973887L12.97265625 16.303165349162832" stroke-width="0.03" stroke="#000000" fill="none"/>
<path d="M13.702734374999999 16.845107808874815L14.119921875 16.60424449344727L14.4328125 16.784891980017925L14.4328125 17.025755295445475L14.224218749999999 17.146186953159244" stroke-width="0.03" stroke="#000000" fill="none"/>
<path d="M14.015625 17.025755295445475L14.4328125 16.784891980017925" stroke-width="0.03" stroke="#000000" fill="none"/>
<path d="M14.4328125 16.905323637731698L14.85 17.146186953159244L15.267187499999999 16.905323637731698" stroke-width="0.03" stroke="#000000" fill="none"/>
<path d="M15.267187499999999 16.784891980017925L15.580078125 16.60424449344727L15.997265625 16.845107808874815" stroke-width="0.03" stroke="#000000" fill="none"/>
<path d="M16.31015625 16.66446032230415L17.248828125 17.206402782016134" stroke-width="0.03" stroke="#000000" fill="none"/>
<path d="M17.14453125 17.86877689944189L15.89296875 18.59136684572453L15.47578125 18.350503530296983" stroke-width="0.03" stroke="#000000" fill="none"/>
<path d="M15.47578125 18.59136684572453L15.89296875 18.832230161152076L17.14453125 18.109640214869437" stroke-width="0.03" stroke="#000000" fill="none"/>
<path d="M15.89296875 18.59136684572453L15.89296875 18.832230161152076" stroke-width="0.03" stroke="#000000" fill="none"/>
<path d="M15.47578125 17.146186953159244L15.267187499999999 17.025755295445475L15.267187499999999 16.784891980017925L15.684375 17.025755295445475" stroke-width="0.03" stroke="#000000" fill="none"/>
<path d="M15.05859375 17.025755295445475L15.05859375 16.905323637731698L14.85 16.784891980017925L14.64140625 16.905323637731698L14.64140625 17.025755295445475" stroke-width="0.03" stroke="#000000" fill="none"/>
<path d="M14.745703124999999 16.965539466588588L14.85 16.905323637731698L14.954296875 16.965539466588588L14.954296875 17.08597112430236" stroke-width="0.03" stroke="#000000" fill="none"/>
<path d="M14.85 17.146186953159244L14.85 16.905323637731698" stroke-width="0.03" stroke="#000000" fill="none"/>
<path d="M14.85 16.784891980017925L14.85 15.21928042973887L16.72734375 16.303165349162832" stroke-width="0.03" stroke="#000000" fill="none"/>
<path d="M16.623046875 16.36338117801972L19.334765625 14.797769627740664L20.169140624999997 15.279496258595758" stroke-width="0.03" stroke="#000000" fill="none"/>
<path d="M19.85625 17.26661861087302L26.426953124999997 13.473021392889155L24.8625 12.569783960035853" stroke-width="0.03" stroke="#000000" fill="none"/>
<path d="M25.07109375 12.690215617749628L25.175390624999995 12.629999788892741L25.175390624999995 12.389136473465193" stroke-width="0.03" stroke="#000000" fill="none"/>
<path d="M25.801171875 13.111726419747836L26.1140625 12.931078933177174L26.218359375 12.991294762034062L26.218359375 13.352589735175382" stroke-width="0.03" stroke="#000000" fill="none"/>
<path d="M26.426953124999997 13.473021392889155L26.426953124999997 14.31604299688557L24.653906250000002 15.339712087452645L24.653906250000002 15.82143871830774L24.23671875 15.580575402880193L19.751953125 18.16985604372632L19.85625 18.23007187258321L19.85625 18.711798503438303" stroke-width="0.03" stroke="#000000" fill="none"/>
<path d="M19.85625 18.23007187258321L23.193749999999998 16.303165349162832" stroke-width="0.03" stroke="#000000" fill="none"/>
<path d="M23.089453125000002 16.122517862592172L22.672265625 15.881654547164626" stroke-width="0.03" stroke="#000000" fill="none"/>
<path d="M23.089453125000002 16.845107808874815L23.089453125000002 16.965539466588588L20.482031250000002 18.470935188010756L20.482031250000002 20.277410053717357L20.586328125 20.337625882574244L22.567968750000002 19.193525134293395L22.567968750000002 23.890359785130563L22.672265625 23.95057561398745L22.672265625 24.673165560270093L21.9421875 25.0946763622683L21.9421875 25.937697966264714L21.31640625 26.29899293940603L21.212109374999997 26.238777110549147L17.14453125 28.58719443596773L17.14453125 26.29899293940603L17.040234375 26.238777110549147L15.47578125 27.142014543402446L15.47578125 30.152805986246786L15.371484375 30.21302181510367" stroke-width="0.03" stroke="#000000" fill="none"/>
<path d="M15.371484375 30.333453472817446L14.954296875 30.574316788244992L14.85 30.514100959388106L14.745703124999999 30.574316788244992L14.328515625 30.333453472817446L14.328515625 26.479640425976694L14.4328125 26.419424597119807L11.72109375 24.85381304684075L11.72109375 27.985036147398862L12.555468750000001 28.46676277825396" stroke-width="0.03" stroke="#000000" fill="none"/>
<path d="M12.555468750000001 28.58719443596773L12.555468750000001 26.29899293940603L12.659765624999999 26.238777110549147L14.224218749999999 27.142014543402446L14.224218749999999 30.152805986246786L14.328515625 30.21302181510367" stroke-width="0.03" stroke="#000000" fill="none"/>
<path d="M14.745703124999999 30.574316788244992L14.745703124999999 26.72050374140424L14.328515625 26.479640425976694" stroke-width="0.03" stroke="#000000" fill="none"/>
<path d="M14.745703124999999 26.72050374140424L14.85 26.660287912547354L14.954296875 26.72050374140424L15.371484375 26.479640425976694L15.371484375 30.333453472817446" stroke-width="0.03" stroke="#000000" fill="none"/>
<path d="M14.954296875 30.574316788244992L14.954296875 26.72050374140424" stroke-width="0.03" stroke="#000000" fill="none"/>
<path d="M14.85 26.660287912547354L14.85 31.838849194239618L14.4328125 32.07971250966716L14.4328125 34.00661903308754L14.85 34.247482348515085L15.267187499999999 34.00661903308754L15.267187499999999 32.07971250966716L14.85 31.838849194239618" stroke-width="0.03" stroke="#000000" fill="none"/>
<path d="M14.85 32.32057582509471L15.267187499999999 32.07971250966716" stroke-width="0.03" stroke="#000000" fill="none"/>
<path d="M14.85 32.32057582509471L14.85 34.36791400622886L14.119921875 34.78942480822707L12.555468750000001 33.886187375373765" stroke-width="0.03" stroke="#000000" fill="none"/>
<path d="M12.7640625 34.00661903308754L12.7640625 34.12705069080131L12.555468750000001 34.247482348515085L11.408203125 33.58510823108933L11.408203125 31.77863336538273" stroke-width="0.03" stroke="#000000" fill="none"/>
<path d="M11.199609375 31.658201707668955L11.199609375 32.74208662709292L7.96640625 30.87539593252943L7.96640625 29.189352724536597L8.487890625 28.888273580252164" stroke-width="0.03" stroke="#000000" fill="none"/>
<path d="M8.38359375 28.94848940910905L6.9234374999999995 28.105467805112635L7.027734374999999 28.04525197625575" stroke-width="0.03" stroke="#000000" fill="none"/>
<path d="M6.9234374999999995 27.985036147398862L6.9234374999999995 29.068921066822824L6.819140625 29.12913689567971L6.4019531249999995 28.888273580252164L6.4019531249999995 28.165683633969522L5.671875 28.58719443596773L5.671875 30.754964274815652L9.4265625 32.92273411366358L10.156640625 32.50122331166537" stroke-width="0.03" stroke="#000000" fill="none"/>
<path d="M10.05234375 32.44100748280849L10.05234375 32.07971250966716" stroke-width="0.03" stroke="#000000" fill="none"/>
<path d="M10.05234375 32.44100748280849L10.678125 32.8023024559498L10.991015625000001 32.621654969379136" stroke-width="0.03" stroke="#000000" fill="none"/>
<path d="M11.199609375 32.74208662709292L11.408203125 32.621654969379136" stroke-width="0.03" stroke="#000000" fill="none"/>
<path d="M11.408203125 33.103381600234236L10.782421874999999 32.74208662709292" stroke-width="0.03" stroke="#000000" fill="none"/>
<path d="M10.678125 32.8023024559498L10.678125 32.44100748280849" stroke-width="0.03" stroke="#000000" fill="none"/>
<path d="M11.199609375 31.658201707668955L12.555468750000001 32.44100748280849L12.555468750000001 34.247482348515085" stroke-width="0.03" stroke="#000000" fill="none"/>
<path d="M13.494140625 34.42812983508574L13.494140625 34.78942480822707L13.598437500000001 34.84964063708395L13.911328125 34.66899315051329" stroke-width="0.03" stroke="#000000" fill="none"/>
<path d="M14.119921875 34.78942480822707L14.119921875 27.202230372259333L14.224218749999999 27.142014543402446" stroke-width="0.03" stroke="#000000" fill="none"/>
<path d="M14.119921875 27.202230372259333L12.555468750000001 26.29899293940603" stroke-width="0.03" stroke="#000000" fill="none"/>
<path d="M11.72109375 26.660287912547354L8.487890625 24.793597217983862L8.487890625 24.673165560270093L8.38359375 24.612949731413206L8.38359375 20.879568342286227" stroke-width="0.03" stroke="#000000" fill="none"/>
<path d="M8.175 20.759136684572454L8.175 24.85381304684075L11.72109375 26.901151227974903" stroke-width="0.03" stroke="#000000" fill="none"/>
<path d="M11.72109375 27.382877858829996L8.175 25.335539677695845L8.175 26.17856128169226L8.5921875 25.937697966264714L8.5921875 25.576402993123395" stroke-width="0.03" stroke="#000000" fill="none"/>
<path d="M8.487890625 25.9979137951216L8.487890625 26.238777110549147L12.555468750000001 28.58719443596773" stroke-width="0.03" stroke="#000000" fill="none"/>
<path d="M10.156640625 28.286115291683295L10.156640625 27.202230372259333L10.782421874999999 26.840935399118013" stroke-width="0.03" stroke="#000000" fill="none"/>
<path d="M10.156640625 27.92482031854198L6.5062500000000005 25.817266308550938L6.5062500000000005 21.602158288568866" stroke-width="0.03" stroke="#000000" fill="none"/>
<path d="M6.297656249999999 21.481726630855093L6.193359375 21.54194245971198L4.524609375000001 20.57848919800179L4.524609375000001 20.458057540288017L4.3160156249999995 20.337625882574244L4.3160156249999995 22.866690694563488L4.8374999999999995 22.565611550279055" stroke-width="0.03" stroke="#000000" fill="none"/>
<path d="M4.733203124999998 22.62582737913594L4.733203124999998 24.311870587128773L4.8374999999999995 24.251654758271883" stroke-width="0.03" stroke="#000000" fill="none"/>
<path d="M4.8374999999999995 24.37208641598566L3.898828125 23.830143956273677L3.7945312499999995 23.890359785130563L3.7945312499999995 24.37208641598566L4.4203125 24.73338138912698L3.6902343750000006 25.154892191125185L1.8128906250000005 24.071007271701223L1.8128906250000005 19.735467594005378L2.54296875 19.31395679200717" stroke-width="0.03" stroke="#000000" fill="none"/>
<path d="M2.54296875 19.434388449720945L2.54296875 18.711798503438303L2.8558593750000005 18.531151016867643" stroke-width="0.03" stroke="#000000" fill="none"/>
<path d="M2.8558593750000005 18.290287701440096L3.064453125 18.16985604372632" stroke-width="0.03" stroke="#000000" fill="none"/>
<path d="M2.8558593750000005 18.290287701440096L2.8558593750000005 22.023669090567072L4.3160156249999995 22.866690694563488" stroke-width="0.03" stroke="#000000" fill="none"/>
<path d="M4.524609375000001 22.746259036849715L4.524609375000001 24.191438929414996" stroke-width="0.03" stroke="#000000" fill="none"/>
<path d="M4.524609375000001 24.55273390255632L4.4203125 24.612949731413206L4.4203125 26.53985625483358L4.8374999999999995 26.780719570261127L4.8374999999999995 27.26244620111622L6.5062500000000005 28.22589946282641L6.610546875 28.165683633969522L6.610546875 27.804388660828202" stroke-width="0.03" stroke="#000000" fill="none"/>
<path d="M6.5062500000000005 27.744172831971316L6.5062500000000005 28.22589946282641" stroke-width="0.03" stroke="#000000" fill="none"/>
<path d="M6.819140625 27.92482031854198L6.819140625 29.12913689567971" stroke-width="0.03" stroke="#000000" fill="none"/>
<path d="M6.9234374999999995 28.346331120540185L8.175 29.068921066822824" stroke-width="0.03" stroke="#000000" fill="none"/>
<path d="M7.96640625 29.189352724536597L10.156640625 30.45388513053122L10.156640625 30.21302181510367L10.05234375 30.152805986246786L10.05234375 28.22589946282641L10.156640625 28.165683633969522" stroke-width="0.03" stroke="#000000" fill="none"/>
<path d="M10.05234375 28.22589946282641L10.156640625 28.286115291683295" stroke-width="0.03" stroke="#000000" fill="none"/>
<path d="M9.948046875 29.731295184248577L9.948046875 29.972158499676127L10.05234375 30.032374328533013" stroke-width="0.03" stroke="#000000" fill="none"/>
<path d="M10.05234375 29.791511013105463L6.5062500000000005 27.744172831971316" stroke-width="0.03" stroke="#000000" fill="none"/>
<path d="M5.671875 28.58719443596773L7.96640625 29.91194267081924" stroke-width="0.03" stroke="#000000" fill="none"/>
<path d="M5.671875 30.152805986246786L5.150390625 29.851726841962353L5.150390625 27.443093687686883" stroke-width="0.03" stroke="#000000" fill="none"/>
<path d="M4.941796875 27.443093687686883L4.8374999999999995 27.50330951654377L4.8374999999999995 29.430216039964147L4.4203125 29.189352724536597L4.4203125 27.26244620111622L4.524609375000001 27.202230372259333L4.941796875 27.443093687686883L4.941796875 28.647410264824618L5.150390625 28.767841922538388" stroke-width="0.03" stroke="#000000" fill="none"/>
<path d="M5.150390625 29.249568553393484L4.8374999999999995 29.430216039964147" stroke-width="0.03" stroke="#000000" fill="none"/>
<path d="M4.4203125 28.346331120540185L3.481640624999999 27.804388660828202L3.481640624999999 27.563525345400656L3.2730468750000017 27.443093687686883L3.2730468750000017 26.359208768262917" stroke-width="0.03" stroke="#000000" fill="none"/>
<path d="M3.2730468750000017 25.75705047969405L3.2730468750000017 25.51618716426651" stroke-width="0.03" stroke="#000000" fill="none"/>
<path d="M3.2730468750000017 25.75705047969405L4.3160156249999995 26.359208768262917L4.3160156249999995 26.840935399118013L4.211718750000001 26.901151227974903L2.54296875 25.937697966264714L2.54296875 25.45597133540962L2.8558593750000005 25.27532384883896" stroke-width="0.03" stroke="#000000" fill="none"/>
<path d="M2.54296875 25.45597133540962L4.211718750000001 26.419424597119807L4.211718750000001 26.901151227974903" stroke-width="0.03" stroke="#000000" fill="none"/>
<path d="M4.4203125 27.26244620111622L4.8374999999999995 27.50330951654377" stroke-width="0.03" stroke="#000000" fill="none"/>
<path d="M4.8374999999999995 26.901151227974903L4.733203124999998 26.840935399118013L4.733203124999998 26.72050374140424" stroke-width="0.03" stroke="#000000" fill="none"/>
<path d="M4.733203124999998 26.840935399118013L4.8374999999999995 26.780719570261127" stroke-width="0.03" stroke="#000000" fill="none"/>
<path d="M4.3160156249999995 26.359208768262917L4.211718750000001 26.419424597119807" stroke-width="0.03" stroke="#000000" fill="none"/>
<path d="M4.4203125 26.17856128169226L2.3343750000000005 24.974244704554525L2.3343750000000005 24.37208641598566" stroke-width="0.03" stroke="#000000" fill="none"/>
<path d="M3.7945312499999995 23.890359785130563L4.8374999999999995 24.492518073699433" stroke-width="0.03" stroke="#000000" fill="none"/>
<path d="M4.8374999999999995 24.73338138912698L4.524609375000001 24.55273390255632" stroke-width="0.03" stroke="#000000" fill="none"/>
<path d="M4.4203125 24.612949731413206L4.8374999999999995 24.85381304684075L4.8374999999999995 20.759136684572454" stroke-width="0.03" stroke="#000000" fill="none"/>
<path d="M4.8374999999999995 20.879568342286227L4.62890625 20.759136684572454L4.62890625 20.63870502685868" stroke-width="0.03" stroke="#000000" fill="none"/>
<path d="M6.193359375 21.42151080199821L6.193359375 21.54194245971198" stroke-width="0.03" stroke="#000000" fill="none"/>
<path d="M6.193359375 21.42151080199821L7.13203125 21.96345326171019L7.7578125 21.602158288568866" stroke-width="0.03" stroke="#000000" fill="none"/>
<path d="M7.7578125 20.518273369144907L7.7578125 24.612949731413206L7.027734374999999 24.191438929414996L7.4449218749999995 23.95057561398745L7.7578125 24.13122310055811" stroke-width="0.03" stroke="#000000" fill="none"/>
<path d="M7.340624999999999 24.010791442844337L7.13203125 23.890359785130563L7.027734374999999 23.95057561398745L7.027734374999999 24.673165560270093L7.7578125 25.0946763622683L7.7578125 25.937697966264714L8.38359375 26.29899293940603L8.487890625 26.238777110549147" stroke-width="0.03" stroke="#000000" fill="none"/>
<path d="M8.38359375 26.29899293940603L8.38359375 26.058129623978488" stroke-width="0.03" stroke="#000000" fill="none"/>
<path d="M7.7578125 25.215108019982072L7.653515625 25.154892191125185L6.5062500000000005 25.817266308550938" stroke-width="0.03" stroke="#000000" fill="none"/>
<path d="M7.653515625 25.154892191125185L7.653515625 25.034460533411412" stroke-width="0.03" stroke="#000000" fill="none"/>
<path d="M8.175 24.85381304684075L8.487890625 24.673165560270093" stroke-width="0.03" stroke="#000000" fill="none"/>
<path d="M7.236328125 24.071007271701223L7.027734374999999 23.95057561398745" stroke-width="0.03" stroke="#000000" fill="none"/>
<path d="M7.13203125 23.890359785130563L7.13203125 19.193525134293395L9.113671875 20.337625882574244L9.21796875 20.277410053717357L9.21796875 18.470935188010756L6.610546875 16.965539466588588L6.610546875 16.845107808874815" stroke-width="0.03" stroke="#000000" fill="none"/>
<path d="M6.5062500000000005 16.784891980017925L6.5062500000000005 16.303165349162832L6.610546875 16.24294952030595L6.610546875 16.122517862592172L7.027734374999999 15.881654547164626L10.365234375 17.808561070585L10.365234375 17.928992728298773" stroke-width="0.03" stroke="#000000" fill="none"/>
<path d="M10.365234375 17.808561070585L9.948046875 18.049424386012547L6.610546875 16.122517862592172" stroke-width="0.03" stroke="#000000" fill="none"/>
<path d="M6.5062500000000005 16.303165349162832L9.84375 18.23007187258321L9.84375 18.711798503438303L6.5062500000000005 16.784891980017925" stroke-width="0.03" stroke="#000000" fill="none"/>
<path d="M7.13203125 15.94187037602151L7.236328125 15.881654547164626L9.84375 17.387050268586794L11.408203125 16.483812835733495L11.408203125 16.36338117801972L9.4265625 15.21928042973887" stroke-width="0.03" stroke="#000000" fill="none"/>
<path d="M9.84375 17.26661861087302L11.408203125 16.36338117801972" stroke-width="0.03" stroke="#000000" fill="none"/>
<path d="M9.84375 17.26661861087302L9.84375 17.387050268586794" stroke-width="0.03" stroke="#000000" fill="none"/>
<path d="M9.84375 17.26661861087302L3.2730468750000017 13.473021392889155L4.8374999999999995 12.569783960035853" stroke-width="0.03" stroke="#000000" fill="none"/>
<path d="M4.62890625 12.690215617749628L4.524609375000001 12.629999788892741L4.524609375000001 12.389136473465193L5.671875 11.72676235603944L7.236328125 12.629999788892741" stroke-width="0.03" stroke="#000000" fill="none"/>
<path d="M7.4449218749999995 12.509568131178968L6.089062499999999 13.292373906318495L4.524609375000001 12.389136473465193" stroke-width="0.03" stroke="#000000" fill="none"/>
<path d="M3.898828125 13.111726419747836L3.5859375 12.931078933177174L3.481640624999999 12.991294762034062L3.481640624999999 13.352589735175382" stroke-width="0.03" stroke="#000000" fill="none"/>
<path d="M3.2730468750000017 13.473021392889155L3.2730468750000017 14.31604299688557L5.046093749999999 15.339712087452645L5.046093749999999 15.82143871830774L5.46328125 15.580575402880193L9.948046875 18.16985604372632L9.84375 18.23007187258321" stroke-width="0.03" stroke="#000000" fill="none"/>
<path d="M9.948046875 18.16985604372632L9.948046875 18.049424386012547" stroke-width="0.03" stroke="#000000" fill="none"/>
<path d="M9.948046875 18.651582674581416L9.84375 18.711798503438303" stroke-width="0.03" stroke="#000000" fill="none"/>
<path d="M9.948046875 18.651582674581416L9.948046875 21.782805775139526L10.365234375 21.54194245971198" stroke-width="0.03" stroke="#000000" fill="none"/>
<path d="M10.365234375 21.903237432853302L10.365234375 20.819352513429337" stroke-width="0.03" stroke="#000000" fill="none"/>
<path d="M10.46953125 20.879568342286227L10.46953125 20.277410053717357" stroke-width="0.03" stroke="#000000" fill="none"/>
<path d="M10.573828124999999 20.819352513429337L12.242578125 21.782805775139526L12.451171875 21.662374117425752L12.451171875 21.18064748657066L11.199609375 20.458057540288017" stroke-width="0.03" stroke="#000000" fill="none"/>
<path d="M10.991015625000001 20.57848919800179L12.242578125 21.301079144284433L12.242578125 21.782805775139526" stroke-width="0.03" stroke="#000000" fill="none"/>
<path d="M12.242578125 21.301079144284433L12.451171875 21.18064748657066" stroke-width="0.03" stroke="#000000" fill="none"/>
<path d="M13.076953125000001 22.746259036849715L12.868359374999999 22.866690694563488L12.868359374999999 24.793597217983862" stroke-width="0.03" stroke="#000000" fill="none"/>
<path d="M12.7640625 24.85381304684075L13.285546875 25.154892191125185" stroke-width="0.03" stroke="#000000" fill="none"/>
<path d="M12.7640625 24.974244704554525L11.825390624999999 24.432302244842543L11.825390624999999 22.746259036849715L10.365234375 21.903237432853302" stroke-width="0.03" stroke="#000000" fill="none"/>
<path d="M10.678125 22.08388491942396L10.678125 22.565611550279055L10.991015625000001 22.746259036849715L11.199609375 22.62582737913594L11.199609375 22.384964063708395" stroke-width="0.03" stroke="#000000" fill="none"/>
<path d="M10.991015625000001 22.264532405994622L10.991015625000001 22.746259036849715" stroke-width="0.03" stroke="#000000" fill="none"/>
<path d="M11.095312499999999 22.686043207992828L11.512500000000001 22.926906523420374L11.512500000000001 23.40863315427547" stroke-width="0.03" stroke="#000000" fill="none"/>
<path d="M11.616796874999999 23.348417325418584L11.408203125 23.468848983132357L11.408203125 23.830143956273677L11.825390624999999 24.071007271701223" stroke-width="0.03" stroke="#000000" fill="none"/>
<path d="M11.825390624999999 23.709712298559904L11.408203125 23.468848983132357" stroke-width="0.03" stroke="#000000" fill="none"/>
<path d="M11.616796874999999 23.348417325418584L11.825390624999999 23.468848983132357" stroke-width="0.03" stroke="#000000" fill="none"/>
<path d="M11.512500000000001 23.167769838847924L11.408203125 23.227985667704807L11.199609375 23.107554009991038L9.84375 23.890359785130563L9.84375 21.72258994628264" stroke-width="0.03" stroke="#000000" fill="none"/>
<path d="M9.948046875 21.782805775139526L7.236328125 20.21719422486047L7.236328125 19.253740963150285" stroke-width="0.03" stroke="#000000" fill="none"/>
<path d="M9.113671875 18.531151016867643L9.21796875 18.470935188010756" stroke-width="0.03" stroke="#000000" fill="none"/>
<path d="M9.113671875 18.531151016867643L9.113671875 20.337625882574244" stroke-width="0.03" stroke="#000000" fill="none"/>
<path d="M9.113671875 18.531151016867643L2.54296875 14.737553798883777L3.2730468750000017 14.31604299688557" stroke-width="0.03" stroke="#000000" fill="none"/>
<path d="M3.3773437500000005 14.376258825742458L3.7945312499999995 14.13539551031491L5.46328125 15.098848772025098L5.46328125 15.580575402880193" stroke-width="0.03" stroke="#000000" fill="none"/>
<path d="M5.046093749999999 15.82143871830774L3.3773437500000005 14.85798545659755L3.3773437500000005 14.376258825742458" stroke-width="0.03" stroke="#000000" fill="none"/>
<path d="M2.54296875 14.737553798883777L2.54296875 16.54402866459038" stroke-width="0.03" stroke="#000000" fill="none"/>
<path d="M2.54296875 16.303165349162832L2.438671874999999 16.24294952030595L2.2300781249999995 16.36338117801972L2.2300781249999995 17.688129412871227L3.7945312499999995 18.59136684572453" stroke-width="0.03" stroke="#000000" fill="none"/>
<path d="M3.7945312499999995 18.832230161152076L3.7945312499999995 17.26661861087302L2.2300781249999995 16.36338117801972" stroke-width="0.03" stroke="#000000" fill="none"/>
<path d="M2.54296875 15.460143745166418L2.2300781249999995 15.279496258595758L2.2300781249999995 15.159064600881985L2.54296875 14.978417114311325" stroke-width="0.03" stroke="#000000" fill="none"/>
<path d="M2.54296875 15.339712087452645L2.2300781249999995 15.159064600881985" stroke-width="0.03" stroke="#000000" fill="none"/>
<path d="M3.481640624999999 12.991294762034062L3.7945312499999995 13.171942248604722" stroke-width="0.03" stroke="#000000" fill="none"/>
<path d="M5.046093749999999 15.339712087452645L5.46328125 15.098848772025098" stroke-width="0.03" stroke="#000000" fill="none"/>
<path d="M6.5062500000000005 12.208488986894533L6.5062500000000005 11.967625671466987L9.739453124999999 10.100934976903497L11.199609375 10.943956580899911L11.199609375 11.54611486946878" stroke-width="0.03" stroke="#000000" fill="none"/>
<path d="M11.199609375 11.425683211755006L12.659765624999999 10.582661607758592L12.659765624999999 10.703093265472365" stroke-width="0.03" stroke="#000000" fill="none"/>
<path d="M12.868359374999999 9.257913372907083L10.573828124999999 10.582661607758592" stroke-width="0.03" stroke="#000000" fill="none"/>
<path d="M11.512500000000001 8.475107597767554L12.033984375000001 8.174028453483121L14.119921875 9.378345030620856" stroke-width="0.03" stroke="#000000" fill="none"/>
<path d="M14.224218749999999 9.197697544050197L14.64140625 8.956834228622649L14.64140625 8.836402570908875L12.97265625 7.872949309198687L12.555468750000001 8.113812624626235L12.555468750000001 8.475107597767554" stroke-width="0.03" stroke="#000000" fill="none"/>
<path d="M12.555468750000001 8.113812624626235L14.224218749999999 9.077265886336422L14.64140625 8.836402570908875" stroke-width="0.03" stroke="#000000" fill="none"/>
<path d="M15.05859375 8.836402570908875L16.72734375 7.872949309198687L17.14453125 8.113812624626235L17.14453125 8.475107597767554" stroke-width="0.03" stroke="#000000" fill="none"/>
<path d="M17.14453125 8.113812624626235L15.47578125 9.077265886336422L15.05859375 8.836402570908875L15.05859375 8.956834228622649L15.47578125 9.197697544050197L16.51875 8.595539255481327L16.72734375 8.715970913195102" stroke-width="0.03" stroke="#000000" fill="none"/>
<path d="M16.831640625 9.257913372907083L19.126171875 10.582661607758592" stroke-width="0.03" stroke="#000000" fill="none"/>
<path d="M18.500390624999998 10.943956580899911L20.690625 12.208488986894533L20.482031250000002 12.328920644608306L20.377734375 12.26870481575142" stroke-width="0.03" stroke="#000000" fill="none"/>
<path d="M21.420703125 10.943956580899911L22.463671875 10.341798292331045" stroke-width="0.03" stroke="#000000" fill="none"/>
<path d="M22.98515625 11.485899040611892L22.672265625 11.666546527182554" stroke-width="0.03" stroke="#000000" fill="none"/>
<path d="M22.98515625 11.606330698325666L23.610937500000002 11.967625671466987" stroke-width="0.03" stroke="#000000" fill="none"/>
<path d="M25.90546875 13.171942248604722L26.218359375 12.991294762034062" stroke-width="0.03" stroke="#000000" fill="none"/>
<path d="M25.90546875 14.13539551031491L24.23671875 15.098848772025098L24.23671875 15.580575402880193" stroke-width="0.03" stroke="#000000" fill="none"/>
<path d="M24.653906250000002 15.82143871830774L26.322656249999998 14.85798545659755L26.322656249999998 14.376258825742458L25.90546875 14.13539551031491" stroke-width="0.03" stroke="#000000" fill="none"/>
<path d="M26.426953124999997 14.31604299688557L27.15703125 14.737553798883777L27.15703125 16.54402866459038" stroke-width="0.03" stroke="#000000" fill="none"/>
<path d="M27.15703125 16.303165349162832L27.261328125 16.24294952030595L27.469921874999997 16.36338117801972L27.469921874999997 17.688129412871227L25.90546875 18.59136684572453" stroke-width="0.03" stroke="#000000" fill="none"/>
<path d="M25.90546875 18.832230161152076L26.844140625 18.290287701440096L26.635546875 18.16985604372632" stroke-width="0.03" stroke="#000000" fill="none"/>
<path d="M26.844140625 18.290287701440096L26.844140625 22.023669090567072L25.383984374999997 22.866690694563488L24.8625 22.565611550279055" stroke-width="0.03" stroke="#000000" fill="none"/>
<path d="M24.966796875000004 22.62582737913594L24.966796875000004 24.311870587128773L24.8625 24.251654758271883" stroke-width="0.03" stroke="#000000" fill="none"/>
<path d="M24.8625 24.37208641598566L25.801171875 23.830143956273677L25.90546875 23.890359785130563L25.90546875 24.37208641598566L25.279687499999998 24.73338138912698L26.009765625 25.154892191125185L27.887109375 24.071007271701223L27.887109375 19.735467594005378L27.15703125 19.31395679200717" stroke-width="0.03" stroke="#000000" fill="none"/>
<path d="M27.15703125 19.434388449720945L26.844140625 19.615035936291605" stroke-width="0.03" stroke="#000000" fill="none"/>
<path d="M27.15703125 19.434388449720945L27.15703125 18.711798503438303L26.844140625 18.531151016867643" stroke-width="0.03" stroke="#000000" fill="none"/>
<path d="M27.052734375 18.651582674581416L27.052734375 17.928992728298773" stroke-width="0.03" stroke="#000000" fill="none"/>
<path d="M27.15703125 18.711798503438303L26.844140625 18.892445990008962" stroke-width="0.03" stroke="#000000" fill="none"/>
<path d="M25.90546875 18.832230161152076L25.90546875 17.26661861087302L27.469921874999997 16.36338117801972" stroke-width="0.03" stroke="#000000" fill="none"/>
<path d="M27.15703125 15.460143745166418L27.469921874999997 15.279496258595758L27.469921874999997 15.159064600881985L27.15703125 14.978417114311325" stroke-width="0.03" stroke="#000000" fill="none"/>
<path d="M27.15703125 14.737553798883777L20.586328125 18.531151016867643L20.586328125 20.337625882574244" stroke-width="0.03" stroke="#000000" fill="none"/>
<path d="M21.31640625 20.879568342286227L21.31640625 24.612949731413206L21.212109374999997 24.673165560270093L21.212109374999997 24.793597217983862L17.978906249999998 26.660287912547354" stroke-width="0.03" stroke="#000000" fill="none"/>
<path d="M17.978906249999998 26.901151227974903L21.525000000000002 24.85381304684075L21.525000000000002 20.759136684572454" stroke-width="0.03" stroke="#000000" fill="none"/>
<path d="M21.9421875 20.518273369144907L21.9421875 24.612949731413206L22.672265625 24.191438929414996L22.255078124999997 23.95057561398745L21.9421875 24.13122310055811" stroke-width="0.03" stroke="#000000" fill="none"/>
<path d="M22.359375 24.010791442844337L22.567968750000002 23.890359785130563" stroke-width="0.03" stroke="#000000" fill="none"/>
<path d="M22.672265625 23.95057561398745L22.463671875 24.071007271701223" stroke-width="0.03" stroke="#000000" fill="none"/>
<path d="M22.046484375000002 25.034460533411412L22.046484375000002 25.154892191125185L23.193749999999998 25.817266308550938L19.543359374999998 27.92482031854198" stroke-width="0.03" stroke="#000000" fill="none"/>
<path d="M19.543359374999998 28.165683633969522L19.647656249999997 28.22589946282641L19.647656249999997 30.152805986246786L19.543359374999998 30.21302181510367L19.543359374999998 30.45388513053122L21.733593749999997 29.189352724536597L21.733593749999997 30.87539593252943L18.500390624999998 32.74208662709292L18.291796875 32.621654969379136" stroke-width="0.03" stroke="#000000" fill="none"/>
<path d="M18.500390624999998 32.74208662709292L18.500390624999998 31.658201707668955L17.14453125 32.44100748280849L17.14453125 34.247482348515085L18.291796875 33.58510823108933L18.291796875 31.77863336538273" stroke-width="0.03" stroke="#000000" fill="none"/>
<path d="M18.708984375 32.621654969379136L19.021874999999998 32.8023024559498L19.647656249999997 32.44100748280849L19.647656249999997 32.07971250966716" stroke-width="0.03" stroke="#000000" fill="none"/>
<path d="M19.543359374999998 32.50122331166537L20.2734375 32.92273411366358L24.028125 30.754964274815652L24.028125 28.58719443596773L23.298046874999997 28.165683633969522L23.298046874999997 28.888273580252164L22.880859375 29.12913689567971L22.7765625 29.068921066822824L22.7765625 27.985036147398862" stroke-width="0.03" stroke="#000000" fill="none"/>
<path d="M22.880859375 27.92482031854198L22.880859375 29.12913689567971" stroke-width="0.03" stroke="#000000" fill="none"/>
<path d="M22.7765625 28.346331120540185L21.525000000000002 29.068921066822824" stroke-width="0.03" stroke="#000000" fill="none"/>
<path d="M21.733593749999997 29.189352724536597L21.212109374999997 28.888273580252164" stroke-width="0.03" stroke="#000000" fill="none"/>
<path d="M21.31640625 28.94848940910905L22.7765625 28.105467805112635L22.672265625 28.04525197625575" stroke-width="0.03" stroke="#000000" fill="none"/>
<path d="M23.089453125000002 28.165683633969522L23.089453125000002 27.804388660828202" stroke-width="0.03" stroke="#000000" fill="none"/>
<path d="M23.193749999999998 27.744172831971316L19.647656249999997 29.791511013105463" stroke-width="0.03" stroke="#000000" fill="none"/>
<path d="M19.751953125 29.731295184248577L19.751953125 29.972158499676127L19.647656249999997 30.032374328533013" stroke-width="0.03" stroke="#000000" fill="none"/>
<path d="M19.543359374999998 28.286115291683295L19.647656249999997 28.22589946282641" stroke-width="0.03" stroke="#000000" fill="none"/>
<path d="M19.543359374999998 28.286115291683295L19.543359374999998 27.202230372259333L18.917578125000002 26.840935399118013" stroke-width="0.03" stroke="#000000" fill="none"/>
<path d="M17.978906249999998 27.382877858829996L21.525000000000002 25.335539677695845L21.525000000000002 26.17856128169226L21.107812499999998 25.937697966264714L21.107812499999998 25.576402993123395" stroke-width="0.03" stroke="#000000" fill="none"/>
<path d="M21.212109374999997 25.9979137951216L21.212109374999997 26.238777110549147" stroke-width="0.03" stroke="#000000" fill="none"/>
<path d="M21.31640625 26.29899293940603L21.31640625 26.058129623978488" stroke-width="0.03" stroke="#000000" fill="none"/>
<path d="M21.9421875 25.215108019982072L22.046484375000002 25.154892191125185" stroke-width="0.03" stroke="#000000" fill="none"/>
<path d="M21.525000000000002 24.85381304684075L21.212109374999997 24.673165560270093" stroke-width="0.03" stroke="#000000" fill="none"/>
<path d="M19.85625 23.890359785130563L17.978906249999998 24.974244704554525" stroke-width="0.03" stroke="#000000" fill="none"/>
<path d="M17.978906249999998 24.85381304684075L15.267187499999999 26.419424597119807L15.371484375 26.479640425976694" stroke-width="0.03" stroke="#000000" fill="none"/>
<path d="M14.954296875 26.118345452835374L14.954296875 21.54194245971198" stroke-width="0.03" stroke="#000000" fill="none"/>
<path d="M14.85 21.481726630855093L14.85 26.17856128169226" stroke-width="0.03" stroke="#000000" fill="none"/>
<path d="M14.745703124999999 26.118345452835374L14.745703124999999 21.54194245971198" stroke-width="0.03" stroke="#000000" fill="none"/>
<path d="M14.328515625 21.301079144284433L14.85 21L15.371484375 21.301079144284433L15.371484375 20.819352513429337L19.334765625 18.531151016867643" stroke-width="0.03" stroke="#000000" fill="none"/>
<path d="M19.334765625 18.410719359153866L15.267187499999999 20.759136684572454L15.267187499999999 20.63870502685868L19.23046875 18.350503530296983" stroke-width="0.03" stroke="#000000" fill="none"/>
<path d="M19.751953125 18.16985604372632L19.751953125 18.049424386012547" stroke-width="0.03" stroke="#000000" fill="none"/>
<path d="M19.85625 17.387050268586794L19.85625 17.26661861087302L18.291796875 16.36338117801972" stroke-width="0.03" stroke="#000000" fill="none"/>
<path d="M18.500390624999998 13.473021392889155L14.85 11.365467382898117" stroke-width="0.03" stroke="#000000" fill="none"/>
<path d="M14.85 9.438560859477743L14.85 9.31812920176397L14.745703124999999 9.378345030620856" stroke-width="0.03" stroke="#000000" fill="none"/>
<path d="M14.85 9.31812920176397L14.954296875 9.378345030620856" stroke-width="0.03" stroke="#000000" fill="none"/>
<path d="M15.47578125 9.197697544050197L15.47578125 9.077265886336422" stroke-width="0.03" stroke="#000000" fill="none"/>
<path d="M15.580078125 9.378345030620856L17.666015625 8.174028453483121L18.1875 8.475107597767554" stroke-width="0.03" stroke="#000000" fill="none"/>
<path d="M17.874609375000002 9.980503319189724L16.831640625 10.582661607758592" stroke-width="0.03" stroke="#000000" fill="none"/>
<path d="M17.248828125 10.462229950044819L18.500390624999998 11.184819896327458" stroke-width="0.03" stroke="#000000" fill="none"/>
<path d="M18.708984375 13.232158077461609L18.81328125 13.292373906318495" stroke-width="0.03" stroke="#000000" fill="none"/>
<path d="M15.05859375 16.905323637731698L14.954296875 16.965539466588588" stroke-width="0.03" stroke="#000000" fill="none"/>
<path d="M14.745703124999999 16.965539466588588L14.745703124999999 17.08597112430236" stroke-width="0.03" stroke="#000000" fill="none"/>
<path d="M14.745703124999999 16.965539466588588L14.64140625 16.905323637731698" stroke-width="0.03" stroke="#000000" fill="none"/>
<path d="M14.85 20.397841711431134L14.4328125 20.63870502685868" stroke-width="0.03" stroke="#000000" fill="none"/>
<path d="M14.4328125 20.759136684572454L14.328515625 20.819352513429337" stroke-width="0.03" stroke="#000000" fill="none"/>
<path d="M14.85 21L14.85 20.397841711431134L15.267187499999999 20.63870502685868" stroke-width="0.03" stroke="#000000" fill="none"/>
<path d="M15.267187499999999 20.759136684572454L15.371484375 20.819352513429337" stroke-width="0.03" stroke="#000000" fill="none"/>
<path d="M17.248828125 21.18064748657066L18.500390624999998 20.458057540288017" stroke-width="0.03" stroke="#000000" fill="none"/>
<path d="M18.396093750000002 20.397841711431134L18.396093750000002 20.03654673828981" stroke-width="0.03" stroke="#000000" fill="none"/>
<path d="M18.500390624999998 19.85589925171915L19.23046875 20.277410053717357L19.647656249999997 20.03654673828981L19.334765625 19.85589925171915" stroke-width="0.03" stroke="#000000" fill="none"/>
<path d="M19.647656249999997 20.03654673828981L19.647656249999997 20.63870502685868L19.23046875 20.879568342286227L18.396093750000002 20.397841711431134" stroke-width="0.03" stroke="#000000" fill="none"/>
<path d="M18.708984375 20.57848919800179L17.457421875 21.301079144284433L17.248828125 21.18064748657066L17.248828125 21.662374117425752L17.457421875 21.782805775139526L19.126171875 20.819352513429337" stroke-width="0.03" stroke="#000000" fill="none"/>
<path d="M19.23046875 20.879568342286227L19.23046875 20.277410053717357" stroke-width="0.03" stroke="#000000" fill="none"/>
<path d="M19.334765625 20.819352513429337L19.334765625 21.903237432853302" stroke-width="0.03" stroke="#000000" fill="none"/>
<path d="M19.021874999999998 22.08388491942396L19.021874999999998 22.565611550279055L18.708984375 22.746259036849715L18.500390624999998 22.62582737913594L18.500390624999998 22.384964063708395" stroke-width="0.03" stroke="#000000" fill="none"/>
<path d="M18.708984375 22.264532405994622L18.708984375 22.746259036849715" stroke-width="0.03" stroke="#000000" fill="none"/>
<path d="M18.6046875 22.686043207992828L18.1875 22.926906523420374L18.1875 23.40863315427547" stroke-width="0.03" stroke="#000000" fill="none"/>
<path d="M18.083203125 23.348417325418584L17.874609375000002 23.468848983132357" stroke-width="0.03" stroke="#000000" fill="none"/>
<path d="M18.083203125 23.348417325418584L18.291796875 23.468848983132357L18.291796875 23.830143956273677L17.874609375000002 24.071007271701223" stroke-width="0.03" stroke="#000000" fill="none"/>
<path d="M17.874609375000002 23.709712298559904L18.291796875 23.468848983132357" stroke-width="0.03" stroke="#000000" fill="none"/>
<path d="M18.291796875 23.227985667704807L18.500390624999998 23.107554009991038L19.85625 23.890359785130563L19.85625 21.72258994628264" stroke-width="0.03" stroke="#000000" fill="none"/>
<path d="M19.751953125 21.782805775139526L22.463671875 20.21719422486047L22.463671875 19.253740963150285" stroke-width="0.03" stroke="#000000" fill="none"/>
<path d="M20.586328125 18.531151016867643L20.482031250000002 18.470935188010756" stroke-width="0.03" stroke="#000000" fill="none"/>
<path d="M21.9421875 21.602158288568866L22.567968750000002 21.96345326171019L23.506640625 21.42151080199821L23.506640625 21.54194245971198L25.175390624999995 20.57848919800179L25.175390624999995 20.458057540288017L25.383984374999997 20.337625882574244L25.383984374999997 22.866690694563488" stroke-width="0.03" stroke="#000000" fill="none"/>
<path d="M25.175390624999995 22.746259036849715L25.175390624999995 24.191438929414996" stroke-width="0.03" stroke="#000000" fill="none"/>
<path d="M25.175390624999995 24.55273390255632L24.8625 24.73338138912698" stroke-width="0.03" stroke="#000000" fill="none"/>
<path d="M24.8625 24.85381304684075L25.279687499999998 24.612949731413206L25.279687499999998 26.53985625483358L24.8625 26.780719570261127L24.8625 27.26244620111622L23.193749999999998 28.22589946282641L23.089453125000002 28.165683633969522" stroke-width="0.03" stroke="#000000" fill="none"/>
<path d="M23.193749999999998 28.22589946282641L23.193749999999998 27.744172831971316" stroke-width="0.03" stroke="#000000" fill="none"/>
<path d="M24.028125 28.58719443596773L21.733593749999997 29.91194267081924" stroke-width="0.03" stroke="#000000" fill="none"/>
<path d="M24.028125 30.152805986246786L24.549609375 29.851726841962353L24.549609375 27.443093687686883" stroke-width="0.03" stroke="#000000" fill="none"/>
<path d="M24.758203125 27.443093687686883L25.175390624999995 27.202230372259333L25.279687499999998 27.26244620111622L25.279687499999998 29.189352724536597L24.8625 29.430216039964147L24.549609375 29.249568553393484" stroke-width="0.03" stroke="#000000" fill="none"/>
<path d="M24.8625 29.430216039964147L24.8625 27.50330951654377L25.279687499999998 27.26244620111622" stroke-width="0.03" stroke="#000000" fill="none"/>
<path d="M25.48828125 26.901151227974903L27.15703125 25.937697966264714L27.15703125 25.45597133540962L26.844140625 25.27532384883896" stroke-width="0.03" stroke="#000000" fill="none"/>
<path d="M27.15703125 25.45597133540962L25.48828125 26.419424597119807L25.48828125 26.901151227974903L25.383984374999997 26.840935399118013L25.383984374999997 26.359208768262917L26.426953124999997 25.75705047969405L26.426953124999997 25.51618716426651" stroke-width="0.03" stroke="#000000" fill="none"/>
<path d="M26.009765625 25.154892191125185L26.009765625 22.50539572142217" stroke-width="0.03" stroke="#000000" fill="none"/>
<path d="M25.90546875 23.890359785130563L24.8625 24.492518073699433" stroke-width="0.03" stroke="#000000" fill="none"/>
<path d="M25.175390624999995 24.55273390255632L25.279687499999998 24.612949731413206" stroke-width="0.03" stroke="#000000" fill="none"/>
<path d="M24.8625 24.85381304684075L24.8625 20.759136684572454" stroke-width="0.03" stroke="#000000" fill="none"/>
<path d="M24.8625 20.879568342286227L25.07109375 20.759136684572454L25.07109375 20.63870502685868" stroke-width="0.03" stroke="#000000" fill="none"/>
<path d="M26.844140625 20.337625882574244L27.887109375 19.735467594005378" stroke-width="0.03" stroke="#000000" fill="none"/>
<path d="M27.15703125 15.339712087452645L27.469921874999997 15.159064600881985" stroke-width="0.03" stroke="#000000" fill="none"/>
<path d="M24.653906250000002 15.339712087452645L24.23671875 15.098848772025098" stroke-width="0.03" stroke="#000000" fill="none"/>
<path d="M23.40234375 21.481726630855093L23.506640625 21.54194245971198" stroke-width="0.03" stroke="#000000" fill="none"/>
<path d="M23.193749999999998 21.602158288568866L23.193749999999998 25.817266308550938" stroke-width="0.03" stroke="#000000" fill="none"/>
<path d="M24.8625 26.780719570261127L24.966796875000004 26.840935399118013L24.966796875000004 26.72050374140424" stroke-width="0.03" stroke="#000000" fill="none"/>
<path d="M24.966796875000004 26.840935399118013L24.8625 26.901151227974903" stroke-width="0.03" stroke="#000000" fill="none"/>
<path d="M24.758203125 27.443093687686883L24.758203125 28.647410264824618L24.549609375 28.767841922538388" stroke-width="0.03" stroke="#000000" fill="none"/>
<path d="M25.279687499999998 28.346331120540185L26.218359375 27.804388660828202L26.218359375 27.563525345400656L26.426953124999997 27.443093687686883L26.426953124999997 26.359208768262917" stroke-width="0.03" stroke="#000000" fill="none"/>
<path d="M25.48828125 26.419424597119807L25.383984374999997 26.359208768262917" stroke-width="0.03" stroke="#000000" fill="none"/>
<path d="M25.279687499999998 26.17856128169226L27.365624999999998 24.974244704554525L27.365624999999998 24.37208641598566" stroke-width="0.03" stroke="#000000" fill="none"/>
<path d="M24.8625 27.50330951654377L24.758203125 27.443093687686883" stroke-width="0.03" stroke="#000000" fill="none"/>
<path d="M20.2734375 31.71841753652584L20.2734375 32.92273411366358" stroke-width="0.03" stroke="#000000" fill="none"/>
<path d="M19.021874999999998 32.8023024559498L19.021874999999998 32.44100748280849" stroke-width="0.03" stroke="#000000" fill="none"/>
<path d="M18.917578125000002 32.74208662709292L18.291796875 33.103381600234236" stroke-width="0.03" stroke="#000000" fill="none"/>
<path d="M17.14453125 33.886187375373765L15.580078125 34.78942480822707L14.85 34.36791400622886" stroke-width="0.03" stroke="#000000" fill="none"/>
<path d="M15.580078125 34.78942480822707L15.580078125 27.202230372259333L15.47578125 27.142014543402446" stroke-width="0.03" stroke="#000000" fill="none"/>
<path d="M15.580078125 27.202230372259333L17.14453125 26.29899293940603" stroke-width="0.03" stroke="#000000" fill="none"/>
<path d="M17.978906249999998 24.85381304684075L17.978906249999998 27.985036147398862L17.14453125 28.46676277825396" stroke-width="0.03" stroke="#000000" fill="none"/>
<path d="M17.978906249999998 24.85381304684075L17.56171875 24.612949731413206" stroke-width="0.03" stroke="#000000" fill="none"/>
<path d="M18.291796875 23.227985667704807L18.291796875 23.107554009991038L18.1875 23.047338181134148" stroke-width="0.03" stroke="#000000" fill="none"/>
<path d="M18.1875 22.926906523420374L18.396093750000002 23.047338181134148L18.291796875 23.107554009991038" stroke-width="0.03" stroke="#000000" fill="none"/>
<path d="M18.291796875 23.227985667704807L18.1875 23.167769838847924" stroke-width="0.03" stroke="#000000" fill="none"/>
<path d="M18.396093750000002 23.047338181134148L18.396093750000002 22.926906523420374L18.500390624999998 22.866690694563488L18.396093750000002 22.8064748657066" stroke-width="0.03" stroke="#000000" fill="none"/>
<path d="M18.500390624999998 22.866690694563488L18.500390624999998 23.107554009991038" stroke-width="0.03" stroke="#000000" fill="none"/>
<path d="M18.396093750000002 22.926906523420374L18.291796875 22.866690694563488" stroke-width="0.03" stroke="#000000" fill="none"/>
<path d="M17.457421875 21.782805775139526L17.457421875 21.301079144284433" stroke-width="0.03" stroke="#000000" fill="none"/>
<path d="M13.494140625 22.98712235227726L13.285546875 23.107554009991038L13.285546875 24.55273390255632" stroke-width="0.03" stroke="#000000" fill="none"/>
<path d="M13.494140625 24.432302244842543L13.494140625 22.98712235227726L13.076953125000001 22.746259036849715" stroke-width="0.03" stroke="#000000" fill="none"/>
<path d="M12.868359374999999 22.866690694563488L13.285546875 23.107554009991038" stroke-width="0.03" stroke="#000000" fill="none"/>
<path d="M11.512500000000001 23.047338181134148L11.408203125 23.107554009991038L11.408203125 23.227985667704807" stroke-width="0.03" stroke="#000000" fill="none"/>
<path d="M11.408203125 23.107554009991038L11.303906249999999 23.047338181134148L11.303906249999999 22.926906523420374L11.199609375 22.866690694563488L11.303906249999999 22.8064748657066" stroke-width="0.03" stroke="#000000" fill="none"/>
<path d="M11.199609375 22.866690694563488L11.199609375 23.107554009991038" stroke-width="0.03" stroke="#000000" fill="none"/>
<path d="M11.303906249999999 23.047338181134148L11.512500000000001 22.926906523420374" stroke-width="0.03" stroke="#000000" fill="none"/>
<path d="M11.408203125 22.866690694563488L11.303906249999999 22.926906523420374" stroke-width="0.03" stroke="#000000" fill="none"/>
<path d="M9.84375 23.890359785130563L11.72109375 24.974244704554525" stroke-width="0.03" stroke="#000000" fill="none"/>
<path d="M11.72109375 24.85381304684075L12.138281249999999 24.612949731413206" stroke-width="0.03" stroke="#000000" fill="none"/>
<path d="M9.4265625 31.71841753652584L9.4265625 32.92273411366358" stroke-width="0.03" stroke="#000000" fill="none"/>
<path d="M13.598437500000001 34.48834566394263L13.598437500000001 34.84964063708395" stroke-width="0.03" stroke="#000000" fill="none"/>
<path d="M15.788671874999999 34.66899315051329L16.1015625 34.84964063708395L16.205859375 34.78942480822707L16.205859375 34.42812983508574" stroke-width="0.03" stroke="#000000" fill="none"/>
<path d="M16.1015625 34.48834566394263L16.1015625 34.84964063708395" stroke-width="0.03" stroke="#000000" fill="none"/>
<path d="M16.9359375 34.12705069080131L16.9359375 34.00661903308754" stroke-width="0.03" stroke="#000000" fill="none"/>
<path d="M16.9359375 34.12705069080131L17.14453125 34.247482348515085" stroke-width="0.03" stroke="#000000" fill="none"/>
<path d="M14.85 32.32057582509471L14.4328125 32.07971250966716" stroke-width="0.03" stroke="#000000" fill="none"/>
<path d="M3.6902343750000006 25.154892191125185L3.6902343750000006 22.50539572142217" stroke-width="0.03" stroke="#000000" fill="none"/>
<path d="M2.8558593750000005 20.337625882574244L1.8128906250000005 19.735467594005378" stroke-width="0.03" stroke="#000000" fill="none"/>
<path d="M2.54296875 19.434388449720945L2.8558593750000005 19.615035936291605" stroke-width="0.03" stroke="#000000" fill="none"/>
<path d="M2.8558593750000005 18.892445990008962L2.54296875 18.711798503438303" stroke-width="0.03" stroke="#000000" fill="none"/>
<path d="M2.647265625000001 18.651582674581416L2.647265625000001 17.928992728298773" stroke-width="0.03" stroke="#000000" fill="none"/>
<path d="M2.8558593750000005 18.290287701440096L3.7945312499999995 18.832230161152076" stroke-width="0.03" stroke="#000000" fill="none"/>
<path d="M6.089062499999999 11.967625671466987L6.714843749999999 11.606330698325666" stroke-width="0.03" stroke="#000000" fill="none"/>
<path d="M6.714843749999999 11.485899040611892L7.340624999999999 11.124604067470571L7.653515625 11.305251554041233" stroke-width="0.03" stroke="#000000" fill="none"/>
<path d="M7.236328125 11.184819896327458L7.236328125 10.341798292331045L8.279296875 10.943956580899911" stroke-width="0.03" stroke="#000000" fill="none"/>
<path d="M7.027734374999999 11.666546527182554L6.714843749999999 11.485899040611892L6.714843749999999 11.847194013753214" stroke-width="0.03" stroke="#000000" fill="none"/>
<path d="M6.5062500000000005 11.967625671466987L7.4449218749999995 12.509568131178968" stroke-width="0.03" stroke="#000000" fill="none"/>
<path d="M12.97265625 8.715970913195102L13.181249999999999 8.595539255481327L14.224218749999999 9.197697544050197L14.224218749999999 9.077265886336422" stroke-width="0.03" stroke="#000000" fill="none"/>
<path d="M13.702734374999999 8.294460111196894L14.64140625 7.752517651484913L14.85 7.872949309198687L15.05859375 7.752517651484913L15.997265625 8.294460111196894" stroke-width="0.03" stroke="#000000" fill="none"/>
<path d="M9.237499999999999 2.533333333333333L1.5 2.533333333333333" stroke-width="0.03" stroke="#000000" fill="none"/>
<path d="M2.1166666666666667 2.2291666666666665L2.1166666666666667 1.8208333333333333" stroke-width="0.03" stroke="#000000" fill="none"/>
<path d="M2.0875 1.6166666666666667L2.1166666666666667 1.6458333333333333L2.145833333333333 1.6166666666666667L2.1166666666666667 1.5875L2.0875 1.6166666666666667" stroke-width="0.03" stroke="#000000" fill="none"/>
<path d="M2.3208333333333333 2.1416666666666666L2.35 2.2L2.4375 2.2291666666666665L2.525 2.2291666666666665L2.6125 2.2L2.6416666666666666 2.1416666666666666L2.6416666666666666 2.1125L2.6125 2.0541666666666667L2.5541666666666667 2.025L2.408333333333333 1.9958333333333333L2.35 1.9666666666666666L2.3208333333333333 1.9083333333333332L2.35 1.85L2.4375 1.8208333333333333L2.525 1.8208333333333333L2.6125 1.85L2.6416666666666666 1.9083333333333332" stroke-width="0.03" stroke="#000000" fill="none"/>
<path d="M2.9625 1.8208333333333333L2.904166666666667 1.85L2.845833333333333 1.9083333333333332L2.8166666666666664 1.9958333333333333L2.8166666666666664 2.0541666666666667L2.845833333333333 2.1416666666666666L2.904166666666667 2.2L2.9625 2.2291666666666665L3.05 2.2291666666666665L3.1083333333333334 2.2L3.1666666666666665 2.1416666666666666L3.1958333333333333 2.0541666666666667L3.1958333333333333 1.9958333333333333L3.1666666666666665 1.9083333333333332L3.1083333333333334 1.85L3.05 1.8208333333333333L2.9625 1.8208333333333333" stroke-width="0.03" stroke="#000000" fill="none"/>
<path d="M3.283333333333333 2.2874999999999996L3.75 2.2874999999999996" stroke-width="0.03" stroke="#000000" fill="none"/>
<path d="M3.8375 2.1416666666666666L3.8666666666666663 2.2L3.9541666666666666 2.2291666666666665L4.041666666666666 2.2291666666666665L4.129166666666666 2.2L4.158333333333333 2.1416666666666666L4.158333333333333 2.1125L4.129166666666666 2.0541666666666667L4.070833333333333 2.025L3.925 1.9958333333333333L3.8666666666666663 1.9666666666666666L3.8375 1.9083333333333332L3.8666666666666663 1.85L3.9541666666666666 1.8208333333333333L4.041666666666666 1.8208333333333333L4.129166666666666 1.85L4.158333333333333 1.9083333333333332" stroke-width="0.03" stroke="#000000" fill="none"/>
<path d="M4.3625 1.9375L4.449999999999999 1.85L4.508333333333333 1.8208333333333333L4.595833333333333 1.8208333333333333L4.654166666666667 1.85L4.683333333333334 1.9375L4.683333333333334 2.2291666666666665" stroke-width="0.03" stroke="#000000" fill="none"/>
<path d="M4.3625 2.2291666666666665L4.3625 1.8208333333333333" stroke-width="0.03" stroke="#000000" fill="none"/>
<path d="M5.033333333333333 1.8208333333333333L4.975 1.85L4.916666666666666 1.9083333333333332L4.887499999999999 1.9958333333333333L4.887499999999999 2.0541666666666667L4.916666666666666 2.1416666666666666L4.975 2.2L5.033333333333333 2.2291666666666665L5.120833333333334 2.2291666666666665L5.179166666666666 2.2L5.2375 2.1416666666666666L5.266666666666666 2.0541666666666667L5.266666666666666 1.9958333333333333L5.2375 1.9083333333333332L5.179166666666666 1.85L5.120833333333334 1.8208333333333333L5.033333333333333 1.8208333333333333" stroke-width="0.03" stroke="#000000" fill="none"/>
<path d="M5.441666666666666 1.8208333333333333L5.558333333333334 2.2291666666666665L5.675 1.8208333333333333L5.791666666666666 2.2291666666666665L5.908333333333333 1.8208333333333333" stroke-width="0.03" stroke="#000000" fill="none"/>
<path d="M6.054166666666666 1.8208333333333333L6.258333333333333 1.8208333333333333" stroke-width="0.03" stroke="#000000" fill="none"/>
<path d="M6.2875 1.6166666666666667L6.229166666666666 1.6166666666666667L6.1708333333333325 1.6458333333333333L6.141666666666667 1.7333333333333334L6.141666666666667 2.2291666666666665" stroke-width="0.03" stroke="#000000" fill="none"/>
<path d="M6.4624999999999995 2.2291666666666665L6.4624999999999995 1.6166666666666667" stroke-width="0.03" stroke="#000000" fill="none"/>
<path d="M7.016666666666666 1.8208333333333333L7.016666666666666 2.2291666666666665" stroke-width="0.03" stroke="#000000" fill="none"/>
<path d="M7.016666666666666 2.1416666666666666L6.958333333333333 2.2L6.8999999999999995 2.2291666666666665L6.812499999999999 2.2291666666666665L6.754166666666666 2.2L6.695833333333333 2.1416666666666666L6.666666666666666 2.0541666666666667L6.666666666666666 1.9958333333333333L6.695833333333333 1.9083333333333332L6.754166666666666 1.85L6.812499999999999 1.8208333333333333L6.8999999999999995 1.8208333333333333L6.958333333333333 1.85L7.016666666666666 1.9083333333333332" stroke-width="0.03" stroke="#000000" fill="none"/>
<path d="M7.249999999999999 2.1125L7.541666666666666 1.8208333333333333" stroke-width="0.03" stroke="#000000" fill="none"/>
<path d="M7.366666666666666 1.9958333333333333L7.570833333333333 2.2291666666666665" stroke-width="0.03" stroke="#000000" fill="none"/>
<path d="M7.716666666666666 1.9958333333333333L8.066666666666666 1.9958333333333333L8.066666666666666 1.9375L8.0375 1.8791666666666667L8.008333333333333 1.85L7.949999999999999 1.8208333333333333L7.8625 1.8208333333333333L7.804166666666666 1.85L7.745833333333333 1.9083333333333332L7.716666666666666 1.9958333333333333L7.716666666666666 2.0541666666666667L7.745833333333333 2.1416666666666666L7.804166666666666 2.2L7.8625 2.2291666666666665L7.949999999999999 2.2291666666666665L8.008333333333333 2.2L8.066666666666666 2.1416666666666666" stroke-width="0.03" stroke="#000000" fill="none"/>
<path d="M8.475 2.2291666666666665L8.475 1.6166666666666667L8.3875 1.7041666666666666L8.329166666666666 1.7333333333333334" stroke-width="0.03" stroke="#000000" fill="none"/>
<path d="M7.249999999999999 1.6166666666666667L7.249999999999999 2.2291666666666665" stroke-width="0.03" stroke="#000000" fill="none"/>
<path d="M5.298756414952564 3.077541264041642L5.33480839762964 3.0595152727031034L5.388886371645256 3.0054372986874878L5.388886371645256 3.383983116796798" stroke-width="0.03" stroke="#000000" fill="none"/>
<path d="M5.100470510228639 3.0054372986874878L4.920210596843253 3.0054372986874878L4.902184605504715 3.167671220734335L4.920210596843253 3.149645229395796L4.974288570858869 3.1316192380572576L5.028366544874484 3.1316192380572576L5.0824445188901 3.149645229395796L5.1184965015671775 3.1856972120728733L5.136522492905716 3.2397751860884894L5.136522492905716 3.2758271687655665L5.1184965015671775 3.3299051427811825L5.0824445188901 3.3659571254582596L5.028366544874484 3.383983116796798L4.974288570858869 3.383983116796798L4.920210596843253 3.3659571254582596L4.902184605504715 3.3479311341197207L4.884158614166176 3.3118791514426436" stroke-width="0.03" stroke="#000000" fill="none"/>
<path d="M4.667846718103712 3.383983116796798L4.667846718103712 3.0054372986874878L4.613768744088096 3.0595152727031034L4.57771676141102 3.077541264041642" stroke-width="0.03" stroke="#000000" fill="none"/>
<path d="M4.415482839364172 3.0955672553801805L4.397456848025634 3.0595152727031034L4.361404865348556 3.023463290026026L4.3253528826714795 3.0054372986874878L4.253248917317325 3.0054372986874878L4.217196934640247 3.023463290026026L4.18114495196317 3.0595152727031034L4.163118960624631 3.0955672553801805L4.145092969286093 3.149645229395796L4.145092969286093 3.2397751860884894L4.163118960624631 3.293853160104105L4.18114495196317 3.3299051427811825L4.217196934640247 3.3659571254582596L4.253248917317325 3.383983116796798L4.3253528826714795 3.383983116796798L4.361404865348556 3.3659571254582596L4.397456848025634 3.3299051427811825L4.415482839364172 3.293853160104105" stroke-width="0.03" stroke="#000000" fill="none"/>
<path d="M3.9828590472392458 3.1856972120728733L3.838651116530937 3.1856972120728733" stroke-width="0.03" stroke="#000000" fill="none"/>
<path d="M3.838651116530937 3.0054372986874878L3.838651116530937 3.383983116796798" stroke-width="0.03" stroke="#000000" fill="none"/>
<path d="M3.838651116530937 3.0054372986874878L4.072989003931939 3.0054372986874878" stroke-width="0.03" stroke="#000000" fill="none"/>
<path d="M3.568261246452858 3.0054372986874878L3.514183272437242 3.023463290026026L3.478131289760165 3.077541264041642L3.4601052984216265 3.167671220734335L3.4601052984216265 3.221749194749951L3.478131289760165 3.3118791514426436L3.514183272437242 3.3659571254582596L3.568261246452858 3.383983116796798L3.604313229129935 3.383983116796798L3.658391203145551 3.3659571254582596L3.694443185822628 3.3118791514426436L3.712469177161167 3.221749194749951L3.712469177161167 3.167671220734335L3.694443185822628 3.077541264041642L3.658391203145551 3.023463290026026L3.604313229129935 3.0054372986874878L3.568261246452858 3.0054372986874878" stroke-width="0.03" stroke="#000000" fill="none"/>
<path d="M3.261819393697702 3.1856972120728733L3.3158973677133177 3.167671220734335L3.333923359051856 3.149645229395796L3.3519493503903948 3.113593246718719L3.3519493503903948 3.077541264041642L3.333923359051856 3.041489281364565L3.3158973677133177 3.023463290026026L3.261819393697702 3.0054372986874878L3.0995854716508546 3.0054372986874878L3.0995854716508546 3.383983116796798L3.261819393697702 3.383983116796798L3.3158973677133177 3.3659571254582596L3.333923359051856 3.3479311341197207L3.3519493503903948 3.3118791514426436L3.3519493503903948 3.257801177427028L3.333923359051856 3.221749194749951L3.3158973677133177 3.2037232034114123L3.261819393697702 3.1856972120728733L3.0995854716508546 3.1856972120728733" stroke-width="0.03" stroke="#000000" fill="none"/>
<path d="M2.991429523619623 3.257801177427028L2.7210396535415438 3.257801177427028L2.90129956692693 3.0054372986874878L2.90129956692693 3.383983116796798" stroke-width="0.03" stroke="#000000" fill="none"/>
<path d="M2.6128837055103125 3.383983116796798L2.414597800786388 3.1316192380572576" stroke-width="0.03" stroke="#000000" fill="none"/>
<path d="M2.6128837055103125 3.1316192380572576L2.414597800786388 3.383983116796798" stroke-width="0.03" stroke="#000000" fill="none"/>
<path d="M2.1622339220468474 3.0054372986874878L2.1081559480312317 3.023463290026026L2.072103965354154 3.077541264041642L2.0540779740156156 3.167671220734335L2.0540779740156156 3.221749194749951L2.072103965354154 3.3118791514426436L2.1081559480312317 3.3659571254582596L2.1622339220468474 3.383983116796798L2.1982859047239245 3.383983116796798L2.2523638787395406 3.3659571254582596L2.2884158614166177 3.3118791514426436L2.3064418527551562 3.221749194749951L2.3064418527551562 3.167671220734335L2.2884158614166177 3.077541264041642L2.2523638787395406 3.023463290026026L2.1982859047239245 3.0054372986874878L2.1622339220468474 3.0054372986874878" stroke-width="0.03" stroke="#000000" fill="none"/>
</svg>
