<?xml version="1.0" standalone="no"?>
<svg width="29.7cm" height="42cm" version="1.1" xmlns="http://www.w3.org/2000/svg" viewBox="0.0 0.0 29.700001 42.000001">
<path d="M5.671875 13.412805564032269L9.009374999999999 11.485899040611892L9.113671875 11.54611486946878" stroke-width="0.03" stroke="#000000" fill="none"/>
<path d="M11.199609375 10.341798292331045L6.714843749999999 12.931078933177174L6.714843749999999 16.303165349162832L3.7945312499999995 17.989208557155663L3.7945312499999995 23.167769838847924L6.714843749999999 24.85381304684075L7.7578125 24.251654758271883L7.7578125 24.13122310055811" stroke-width="0.03" stroke="#000000" fill="none"/>
<path d="M7.340624999999999 23.288201496561694L7.4449218749999995 23.227985667704807L7.4449218749999995 19.37417262086406L5.88046875 18.470935188010756L5.776171874999998 18.531151016867643L5.776171874999998 19.13330930543651L3.7945312499999995 17.989208557155663" stroke-width="0.03" stroke="#000000" fill="none"/>
<path d="M4.733203124999998 17.44726609744368L3.6902343750000006 16.845107808874815L5.671875 15.701007060593964L5.671875 13.412805564032269L6.714843749999999 14.014963852601136" stroke-width="0.03" stroke="#000000" fill="none"/>
<path d="M7.236328125 14.31604299688557L7.862109374999999 13.95474802374425L8.38359375 14.255827168028683" stroke-width="0.03" stroke="#000000" fill="none"/>
<path d="M8.175 14.376258825742458L8.696484375 14.075179681458023L6.714843749999999 12.931078933177174" stroke-width="0.03" stroke="#000000" fill="none"/>
<path d="M7.236328125 14.31604299688557L7.236328125 15.279496258595758L8.070703124999998 15.761222889450853L8.070703124999998 17.08597112430236L6.9234374999999995 17.748345241728117L6.089062499999999 17.26661861087302L5.254687500000001 17.748345241728117L5.254687500000001 18.470935188010756L5.776171874999998 18.77201433229519" stroke-width="0.03" stroke="#000000" fill="none"/>
<path d="M5.776171874999998 18.531151016867643L7.340624999999999 19.434388449720945L7.4449218749999995 19.37417262086406" stroke-width="0.03" stroke="#000000" fill="none"/>
<path d="M7.340624999999999 19.434388449720945L7.340624999999999 23.288201496561694L6.714843749999999 22.926906523420374L6.714843749999999 23.288201496561694L8.80078125 24.492518073699433L8.80078125 26.901151227974903L9.113671875 27.081798714545563L9.113671875 26.359208768262917L9.21796875 26.29899293940603L12.555468750000001 28.22589946282641L12.555468750000001 30.032374328533013L12.451171875 30.0925901573899L11.9296875 29.791511013105463L11.9296875 32.07971250966716L7.4449218749999995 29.490431868821034L7.4449218749999995 26.118345452835374L8.487890625 25.51618716426651L8.5921875 25.576402993123395" stroke-width="0.03" stroke="#000000" fill="none"/>
<path d="M9.113671875 26.359208768262917L12.451171875 28.286115291683295L12.555468750000001 28.22589946282641" stroke-width="0.03" stroke="#000000" fill="none"/>
<path d="M12.451171875 28.286115291683295L12.451171875 30.0925901573899" stroke-width="0.03" stroke="#000000" fill="none"/>
<path d="M12.555468750000001 29.91194267081924L12.7640625 30.032374328533013L12.868359374999999 29.972158499676127L12.868359374999999 30.935611761386316L13.702734374999999 30.45388513053122L13.702734374999999 29.490431868821034L14.85 28.828057751395274L15.997265625 29.490431868821034L15.997265625 30.45388513053122L16.831640625 30.935611761386316L17.457421875 30.574316788244992L17.457421875 29.972158499676127" stroke-width="0.03" stroke="#000000" fill="none"/>
<path d="M17.248828125 30.0925901573899L17.7703125 29.791511013105463L17.7703125 32.07971250966716L22.255078124999997 29.490431868821034L22.255078124999997 26.118345452835374L21.212109374999997 25.51618716426651L21.107812499999998 25.576402993123395" stroke-width="0.03" stroke="#000000" fill="none"/>
<path d="M20.586328125 26.359208768262917L17.248828125 28.286115291683295L17.248828125 30.0925901573899L17.14453125 30.032374328533013L17.14453125 28.22589946282641L20.482031250000002 26.29899293940603L20.586328125 26.359208768262917L20.586328125 27.081798714545563L20.89921875 26.901151227974903L20.89921875 24.492518073699433L22.98515625 23.288201496561694L22.98515625 22.926906523420374L22.359375 23.288201496561694L22.255078124999997 23.227985667704807L22.255078124999997 19.37417262086406L23.819531249999997 18.470935188010756L23.923828125000004 18.531151016867643L23.923828125000004 19.13330930543651L25.90546875 17.989208557155663L25.90546875 23.167769838847924L22.98515625 24.85381304684075L21.9421875 24.251654758271883L21.9421875 24.13122310055811" stroke-width="0.03" stroke="#000000" fill="none"/>
<path d="M22.359375 23.288201496561694L22.359375 19.434388449720945L23.923828125000004 18.531151016867643" stroke-width="0.03" stroke="#000000" fill="none"/>
<path d="M23.715234375 18.531151016867643L23.715234375 18.290287701440096L23.610937500000002 18.23007187258321L24.4453125 17.748345241728117L23.610937500000002 17.26661861087302L22.7765625 17.748345241728117L21.629296875 17.08597112430236L21.629296875 15.761222889450853L22.463671875 15.279496258595758L22.463671875 14.31604299688557L21.837890625 13.95474802374425L21.31640625 14.255827168028683" stroke-width="0.03" stroke="#000000" fill="none"/>
<path d="M21.525000000000002 14.376258825742458L19.960546875000002 15.279496258595758L16.623046875 13.352589735175382L16.623046875 13.473021392889155L19.960546875000002 15.399927916309531L21.525000000000002 14.49669048345623L21.525000000000002 14.376258825742458L21.003515625000002 14.075179681458023L22.98515625 12.931078933177174L18.500390624999998 10.341798292331045L15.580078125 12.027841500323873L15.580078125 13.232158077461609L15.684375 13.292373906318495" stroke-width="0.03" stroke="#000000" fill="none"/>
<path d="M16.623046875 13.352589735175382L17.248828125 12.991294762034062L16.9359375 12.8106472754634L14.85 14.014963852601136L12.7640625 12.8106472754634L12.451171875 12.991294762034062L13.076953125000001 13.352589735175382L13.076953125000001 13.473021392889155L9.739453124999999 15.399927916309531L8.175 14.49669048345623L8.175 14.376258825742458L9.739453124999999 15.279496258595758L9.739453124999999 15.399927916309531" stroke-width="0.03" stroke="#000000" fill="none"/>
<path d="M9.739453124999999 15.279496258595758L13.076953125000001 13.352589735175382" stroke-width="0.03" stroke="#000000" fill="none"/>
<path d="M12.7640625 13.171942248604722L12.7640625 12.8106472754634" stroke-width="0.03" stroke="#000000" fill="none"/>
<path d="M12.97265625 12.690215617749628L14.119921875 12.027841500323873L11.199609375 10.341798292331045" stroke-width="0.03" stroke="#000000" fill="none"/>
<path d="M12.97265625 12.690215617749628L14.85 13.77410053717359L16.72734375 12.690215617749628L15.580078125 12.027841500323873" stroke-width="0.03" stroke="#000000" fill="none"/>
<path d="M15.580078125 12.148273158037647L14.85 12.569783960035853L14.119921875 12.148273158037647" stroke-width="0.03" stroke="#000000" fill="none"/>
<path d="M14.119921875 12.027841500323873L14.119921875 13.232158077461609L14.015625 13.292373906318495" stroke-width="0.03" stroke="#000000" fill="none"/>
<path d="M14.85 14.014963852601136L14.85 15.21928042973887L16.9359375 14.014963852601136L18.500390624999998 14.918201285454437L18.500390624999998 15.520359574023306" stroke-width="0.03" stroke="#000000" fill="none"/>
<path d="M18.500390624999998 14.918201285454437L15.267187499999999 16.784891980017925L14.85 16.54402866459038L14.4328125 16.784891980017925L11.199609375 14.918201285454437L11.199609375 15.520359574023306" stroke-width="0.03" stroke="#000000" fill="none"/>
<path d="M11.199609375 14.918201285454437L12.7640625 14.014963852601136L14.85 15.21928042973887" stroke-width="0.03" stroke="#000000" fill="none"/>
<path d="M14.85 16.54402866459038L14.85 17.26661861087302L15.580078125 16.845107808874815L16.414453125 17.326834439729907L16.414453125 20.096762567146698L18.81328125 21.481726630855093L18.81328125 22.44517989256528L18.083203125 22.866690694563488L18.083203125 23.709712298559904L17.248828125 24.191438929414996L14.85 22.8064748657066L12.451171875 24.191438929414996L11.616796874999999 23.709712298559904L11.616796874999999 22.866690694563488L10.88671875 22.44517989256528L10.88671875 21.481726630855093L13.285546875 20.096762567146698L13.285546875 17.326834439729907L14.119921875 16.845107808874815L14.85 17.26661861087302" stroke-width="0.03" stroke="#000000" fill="none"/>
<path d="M14.4328125 17.025755295445475L14.4328125 16.784891980017925" stroke-width="0.03" stroke="#000000" fill="none"/>
<path d="M15.267187499999999 16.784891980017925L15.267187499999999 17.025755295445475" stroke-width="0.03" stroke="#000000" fill="none"/>
<path d="M14.85 17.989208557155663L14.64140625 18.109640214869437L13.285546875 17.326834439729907" stroke-width="0.03" stroke="#000000" fill="none"/>
<path d="M12.346874999999999 18.470935188010756L12.242578125 18.531151016867643L12.242578125 16.122517862592172L10.365234375 15.038632943168212" stroke-width="0.03" stroke="#000000" fill="none"/>
<path d="M11.408203125 16.60424449344727L12.242578125 16.122517862592172" stroke-width="0.03" stroke="#000000" fill="none"/>
<path d="M11.408203125 16.60424449344727L11.408203125 19.01287764772274L9.322265625 20.21719422486047L5.984765624999999 18.290287701440096L5.984765624999999 18.531151016867643" stroke-width="0.03" stroke="#000000" fill="none"/>
<path d="M5.984765624999999 18.290287701440096L6.089062499999999 18.23007187258321L5.254687500000001 17.748345241728117" stroke-width="0.03" stroke="#000000" fill="none"/>
<path d="M3.6902343750000006 16.845107808874815L3.6902343750000006 20.698920855715564L3.7945312499999995 20.759136684572454" stroke-width="0.03" stroke="#000000" fill="none"/>
<path d="M7.4449218749999995 20.096762567146698L9.322265625 21.18064748657066L11.408203125 19.976330909432924L11.408203125 20.096762567146698L11.303906249999999 20.03654673828981" stroke-width="0.03" stroke="#000000" fill="none"/>
<path d="M11.408203125 20.096762567146698L12.242578125 19.615035936291605L12.242578125 19.49460427857783L12.346874999999999 19.434388449720945L12.346874999999999 18.470935188010756L12.242578125 18.410719359153866" stroke-width="0.03" stroke="#000000" fill="none"/>
<path d="M12.346874999999999 19.193525134293395L13.285546875 19.735467594005378" stroke-width="0.03" stroke="#000000" fill="none"/>
<path d="M12.97265625 20.277410053717357L12.033984375000001 19.735467594005378" stroke-width="0.03" stroke="#000000" fill="none"/>
<path d="M12.242578125 19.49460427857783L14.64140625 20.879568342286227L12.242578125 22.264532405994622L12.242578125 22.50539572142217L12.451171875 22.62582737913594L14.85 21.240863315427546L17.248828125 22.62582737913594L17.457421875 22.50539572142217L17.457421875 22.264532405994622L18.81328125 21.481726630855093" stroke-width="0.03" stroke="#000000" fill="none"/>
<path d="M18.500390624999998 22.62582737913594L18.708984375 22.746259036849715L21.9421875 20.879568342286227L21.420703125 20.57848919800179" stroke-width="0.03" stroke="#000000" fill="none"/>
<path d="M21.9421875 20.879568342286227L21.9421875 22.686043207992828L22.255078124999997 22.866690694563488" stroke-width="0.03" stroke="#000000" fill="none"/>
<path d="M21.9421875 22.686043207992828L19.85625 23.890359785130563L19.85625 26.29899293940603L20.169140624999997 26.479640425976694" stroke-width="0.03" stroke="#000000" fill="none"/>
<path d="M19.85625 26.29899293940603L18.291796875 27.202230372259333L17.7703125 26.901151227974903" stroke-width="0.03" stroke="#000000" fill="none"/>
<path d="M18.291796875 27.202230372259333L18.291796875 23.468848983132357L18.708984375 23.227985667704807L18.708984375 22.746259036849715" stroke-width="0.03" stroke="#000000" fill="none"/>
<path d="M18.708984375 23.227985667704807L18.083203125 22.866690694563488" stroke-width="0.03" stroke="#000000" fill="none"/>
<path d="M18.083203125 23.348417325418584L18.291796875 23.468848983132357" stroke-width="0.03" stroke="#000000" fill="none"/>
<path d="M17.248828125 24.191438929414996L17.248828125 22.62582737913594" stroke-width="0.03" stroke="#000000" fill="none"/>
<path d="M17.457421875 22.50539572142217L14.85 21L12.242578125 22.50539572142217" stroke-width="0.03" stroke="#000000" fill="none"/>
<path d="M12.242578125 22.264532405994622L10.88671875 21.481726630855093" stroke-width="0.03" stroke="#000000" fill="none"/>
<path d="M11.199609375 22.62582737913594L10.991015625000001 22.746259036849715L10.991015625000001 23.227985667704807L11.408203125 23.468848983132357L11.408203125 27.202230372259333L11.9296875 26.901151227974903" stroke-width="0.03" stroke="#000000" fill="none"/>
<path d="M11.408203125 27.202230372259333L9.84375 26.29899293940603L9.84375 23.890359785130563L7.7578125 22.686043207992828L7.4449218749999995 22.866690694563488" stroke-width="0.03" stroke="#000000" fill="none"/>
<path d="M7.7578125 22.686043207992828L7.7578125 20.879568342286227L8.279296875 20.57848919800179" stroke-width="0.03" stroke="#000000" fill="none"/>
<path d="M7.7578125 20.879568342286227L10.991015625000001 22.746259036849715" stroke-width="0.03" stroke="#000000" fill="none"/>
<path d="M10.991015625000001 23.227985667704807L11.616796874999999 22.866690694563488" stroke-width="0.03" stroke="#000000" fill="none"/>
<path d="M11.616796874999999 23.348417325418584L11.408203125 23.468848983132357" stroke-width="0.03" stroke="#000000" fill="none"/>
<path d="M12.451171875 24.191438929414996L12.451171875 22.62582737913594" stroke-width="0.03" stroke="#000000" fill="none"/>
<path d="M14.537109375 22.98712235227726L14.537109375 24.071007271701223" stroke-width="0.03" stroke="#000000" fill="none"/>
<path d="M14.745703124999999 23.95057561398745L13.911328125 24.432302244842543L13.911328125 24.55273390255632" stroke-width="0.03" stroke="#000000" fill="none"/>
<path d="M14.015625 24.492518073699433L11.9296875 25.696834650837165L11.9296875 27.864604489685092" stroke-width="0.03" stroke="#000000" fill="none"/>
<path d="M12.7640625 26.17856128169226L14.85 24.974244704554525L16.9359375 26.17856128169226L16.9359375 30.032374328533013L16.831640625 29.972158499676127L16.831640625 30.935611761386316" stroke-width="0.03" stroke="#000000" fill="none"/>
<path d="M16.831640625 31.53777004995518L16.831640625 32.74208662709292L20.169140624999997 30.815180103672542L20.169140624999997 30.694748445958766" stroke-width="0.03" stroke="#000000" fill="none"/>
<path d="M17.7703125 32.07971250966716L14.85 30.393669301674333L11.9296875 32.07971250966716" stroke-width="0.03" stroke="#000000" fill="none"/>
<path d="M12.868359374999999 31.53777004995518L12.868359374999999 32.74208662709292L9.530859375 30.815180103672542L9.530859375 30.694748445958766" stroke-width="0.03" stroke="#000000" fill="none"/>
<path d="M12.242578125 30.574316788244992L12.242578125 29.972158499676127" stroke-width="0.03" stroke="#000000" fill="none"/>
<path d="M12.7640625 30.032374328533013L12.7640625 26.17856128169226L11.9296875 25.696834650837165" stroke-width="0.03" stroke="#000000" fill="none"/>
<path d="M9.84375 26.29899293940603L9.530859375 26.479640425976694" stroke-width="0.03" stroke="#000000" fill="none"/>
<path d="M9.113671875 26.72050374140424L8.80078125 26.901151227974903" stroke-width="0.03" stroke="#000000" fill="none"/>
<path d="M8.5921875 26.780719570261127L8.5921875 24.612949731413206L6.714843749999999 23.529064811989244L6.714843749999999 24.85381304684075" stroke-width="0.03" stroke="#000000" fill="none"/>
<path d="M6.819140625 24.793597217983862L7.5492187500000005 25.215108019982072L7.5492187500000005 26.058129623978488" stroke-width="0.03" stroke="#000000" fill="none"/>
<path d="M7.4449218749999995 26.118345452835374L8.5921875 26.780719570261127" stroke-width="0.03" stroke="#000000" fill="none"/>
<path d="M7.4449218749999995 26.359208768262917L7.13203125 26.17856128169226L7.13203125 25.45597133540962L6.5062500000000005 25.0946763622683L6.5062500000000005 24.73338138912698" stroke-width="0.03" stroke="#000000" fill="none"/>
<path d="M6.714843749999999 23.288201496561694L7.027734374999999 23.107554009991038" stroke-width="0.03" stroke="#000000" fill="none"/>
<path d="M8.80078125 24.492518073699433L9.84375 23.890359785130563" stroke-width="0.03" stroke="#000000" fill="none"/>
<path d="M9.322265625 21.18064748657066L9.322265625 20.21719422486047" stroke-width="0.03" stroke="#000000" fill="none"/>
<path d="M11.408203125 19.01287764772274L5.671875 15.701007060593964" stroke-width="0.03" stroke="#000000" fill="none"/>
<path d="M7.236328125 14.31604299688557L8.070703124999998 14.797769627740664L8.070703124999998 14.67733797002689L8.279296875 14.556906312313117" stroke-width="0.03" stroke="#000000" fill="none"/>
<path d="M8.070703124999998 14.67733797002689L11.408203125 16.60424449344727" stroke-width="0.03" stroke="#000000" fill="none"/>
<path d="M12.7640625 14.014963852601136L12.7640625 13.653668879459815" stroke-width="0.03" stroke="#000000" fill="none"/>
<path d="M13.911328125 11.9074098426101L14.224218749999999 11.72676235603944L14.85 12.08805732918076L15.47578125 11.72676235603944L15.788671874999999 11.9074098426101" stroke-width="0.03" stroke="#000000" fill="none"/>
<path d="M16.9359375 12.8106472754634L16.9359375 13.171942248604722" stroke-width="0.03" stroke="#000000" fill="none"/>
<path d="M16.9359375 13.653668879459815L16.9359375 14.014963852601136" stroke-width="0.03" stroke="#000000" fill="none"/>
<path d="M17.457421875 16.122517862592172L19.334765625 15.038632943168212" stroke-width="0.03" stroke="#000000" fill="none"/>
<path d="M19.960546875000002 15.279496258595758L19.960546875000002 15.399927916309531" stroke-width="0.03" stroke="#000000" fill="none"/>
<path d="M21.420703125 14.556906312313117L21.629296875 14.67733797002689L21.629296875 14.797769627740664L22.463671875 14.31604299688557" stroke-width="0.03" stroke="#000000" fill="none"/>
<path d="M22.98515625 14.014963852601136L24.028125 13.412805564032269L20.690625 11.485899040611892L20.586328125 11.54611486946878" stroke-width="0.03" stroke="#000000" fill="none"/>
<path d="M22.98515625 12.931078933177174L22.98515625 16.303165349162832L25.90546875 17.989208557155663" stroke-width="0.03" stroke="#000000" fill="none"/>
<path d="M24.966796875000004 17.44726609744368L26.009765625 16.845107808874815L24.028125 15.701007060593964L24.028125 13.412805564032269" stroke-width="0.03" stroke="#000000" fill="none"/>
<path d="M24.028125 15.701007060593964L18.291796875 19.01287764772274L18.291796875 16.60424449344727L17.457421875 16.122517862592172L17.457421875 18.531151016867643L17.353125 18.470935188010756L17.353125 19.434388449720945L17.457421875 19.49460427857783L17.457421875 19.615035936291605L18.291796875 20.096762567146698L18.396093750000002 20.03654673828981" stroke-width="0.03" stroke="#000000" fill="none"/>
<path d="M18.291796875 19.976330909432924L18.291796875 20.096762567146698" stroke-width="0.03" stroke="#000000" fill="none"/>
<path d="M18.291796875 19.976330909432924L20.377734375 21.18064748657066L22.255078124999997 20.096762567146698" stroke-width="0.03" stroke="#000000" fill="none"/>
<path d="M22.359375 19.434388449720945L22.255078124999997 19.37417262086406" stroke-width="0.03" stroke="#000000" fill="none"/>
<path d="M23.923828125000004 18.77201433229519L24.4453125 18.470935188010756L24.4453125 17.748345241728117" stroke-width="0.03" stroke="#000000" fill="none"/>
<path d="M23.715234375 18.290287701440096L20.377734375 20.21719422486047L18.291796875 19.01287764772274" stroke-width="0.03" stroke="#000000" fill="none"/>
<path d="M17.666015625 19.735467594005378L16.72734375 20.277410053717357" stroke-width="0.03" stroke="#000000" fill="none"/>
<path d="M16.414453125 19.735467594005378L17.353125 19.193525134293395" stroke-width="0.03" stroke="#000000" fill="none"/>
<path d="M17.457421875 19.49460427857783L15.05859375 20.879568342286227L15.05859375 18.109640214869437L16.414453125 17.326834439729907" stroke-width="0.03" stroke="#000000" fill="none"/>
<path d="M17.353125 18.470935188010756L17.457421875 18.410719359153866" stroke-width="0.03" stroke="#000000" fill="none"/>
<path d="M18.291796875 16.60424449344727L21.629296875 14.67733797002689" stroke-width="0.03" stroke="#000000" fill="none"/>
<path d="M26.009765625 16.845107808874815L26.009765625 20.698920855715564L25.90546875 20.759136684572454" stroke-width="0.03" stroke="#000000" fill="none"/>
<path d="M22.98515625 23.288201496561694L22.672265625 23.107554009991038" stroke-width="0.03" stroke="#000000" fill="none"/>
<path d="M22.98515625 23.529064811989244L21.107812499999998 24.612949731413206L21.107812499999998 26.780719570261127L22.255078124999997 26.118345452835374" stroke-width="0.03" stroke="#000000" fill="none"/>
<path d="M22.150781249999998 26.058129623978488L22.150781249999998 25.215108019982072L22.880859375 24.793597217983862" stroke-width="0.03" stroke="#000000" fill="none"/>
<path d="M22.98515625 24.85381304684075L22.98515625 23.529064811989244" stroke-width="0.03" stroke="#000000" fill="none"/>
<path d="M23.193749999999998 24.73338138912698L23.193749999999998 25.0946763622683L22.567968750000002 25.45597133540962L22.567968750000002 26.17856128169226L22.255078124999997 26.359208768262917" stroke-width="0.03" stroke="#000000" fill="none"/>
<path d="M20.89921875 26.901151227974903L20.586328125 26.72050374140424" stroke-width="0.03" stroke="#000000" fill="none"/>
<path d="M20.89921875 24.492518073699433L19.85625 23.890359785130563" stroke-width="0.03" stroke="#000000" fill="none"/>
<path d="M17.7703125 25.696834650837165L16.9359375 26.17856128169226" stroke-width="0.03" stroke="#000000" fill="none"/>
<path d="M17.7703125 25.696834650837165L17.7703125 27.864604489685092" stroke-width="0.03" stroke="#000000" fill="none"/>
<path d="M17.248828125 28.286115291683295L17.14453125 28.22589946282641" stroke-width="0.03" stroke="#000000" fill="none"/>
<path d="M17.14453125 29.91194267081924L16.9359375 30.032374328533013" stroke-width="0.03" stroke="#000000" fill="none"/>
<path d="M14.85 31.597985878812068L12.868359374999999 32.74208662709292" stroke-width="0.03" stroke="#000000" fill="none"/>
<path d="M12.868359374999999 30.935611761386316L12.242578125 30.574316788244992" stroke-width="0.03" stroke="#000000" fill="none"/>
<path d="M14.85 31.597985878812068L14.85 24.974244704554525" stroke-width="0.03" stroke="#000000" fill="none"/>
<path d="M15.162890625 24.071007271701223L15.162890625 22.98712235227726" stroke-width="0.03" stroke="#000000" fill="none"/>
<path d="M14.954296875 23.95057561398745L14.85 24.010791442844337L14.745703124999999 23.95057561398745" stroke-width="0.03" stroke="#000000" fill="none"/>
<path d="M14.85 24.010791442844337L14.85 21.240863315427546" stroke-width="0.03" stroke="#000000" fill="none"/>
<path d="M14.85 21L14.85 17.989208557155663L15.05859375 18.109640214869437" stroke-width="0.03" stroke="#000000" fill="none"/>
<path d="M14.64140625 18.109640214869437L14.64140625 20.879568342286227" stroke-width="0.03" stroke="#000000" fill="none"/>
<path d="M15.05859375 20.879568342286227L17.457421875 22.264532405994622" stroke-width="0.03" stroke="#000000" fill="none"/>
<path d="M15.788671874999999 24.432302244842543L15.684375 24.492518073699433L17.7703125 25.696834650837165" stroke-width="0.03" stroke="#000000" fill="none"/>
<path d="M15.788671874999999 24.55273390255632L15.788671874999999 24.432302244842543L14.954296875 23.95057561398745" stroke-width="0.03" stroke="#000000" fill="none"/>
<path d="M14.015625 24.492518073699433L13.911328125 24.432302244842543" stroke-width="0.03" stroke="#000000" fill="none"/>
<path d="M14.85 31.597985878812068L16.831640625 32.74208662709292" stroke-width="0.03" stroke="#000000" fill="none"/>
<path d="M20.377734375 21.18064748657066L20.377734375 20.21719422486047" stroke-width="0.03" stroke="#000000" fill="none"/>
<path d="M9.237499999999999 2.533333333333333L1.5 2.533333333333333" stroke-width="0.03" stroke="#000000" fill="none"/>
<path d="M2.1166666666666667 2.2291666666666665L2.1166666666666667 1.8208333333333333" stroke-width="0.03" stroke="#000000" fill="none"/>
<path d="M2.0875 1.6166666666666667L2.1166666666666667 1.6458333333333333L2.145833333333333 1.6166666666666667L2.1166666666666667 1.5875L2.0875 1.6166666666666667" stroke-width="0.03" stroke="#000000" fill="none"/>
<path d="M2.3208333333333333 2.1416666666666666L2.35 2.2L2.4375 2.2291666666666665L2.525 2.2291666666666665L2.6125 2.2L2.6416666666666666 2.1416666666666666L2.6416666666666666 2.1125L2.6125 2.0541666666666667L2.5541666666666667 2.025L2.408333333333333 1.9958333333333333L2.35 1.9666666666666666L2.3208333333333333 1.9083333333333332L2.35 1.85L2.4375 1.8208333333333333L2.525 1.8208333333333333L2.6125 1.85L2.6416666666666666 1.9083333333333332" stroke-width="0.03" stroke="#000000" fill="none"/>
<path d="M2.9625 1.8208333333333333L2.904166666666667 1.85L2.845833333333333 1.9083333333333332L2.8166666666666664 1.9958333333333333L2.8166666666666664 2.0541666666666667L2.845833333333333 2.1416666666666666L2.904166666666667 2.2L2.9625 2.2291666666666665L3.05 2.2291666666666665L3.1083333333333334 2.2L3.1666666666666665 2.1416666666666666L3.1958333333333333 2.0541666666666667L3.1958333333333333 1.9958333333333333L3.1666666666666665 1.9083333333333332L3.1083333333333334 1.85L3.05 1.8208333333333333L2.9625 1.8208333333333333" stroke-width="0.03" stroke="#000000" fill="none"/>
<path d="M3.283333333333333 2.2874999999999996L3.75 2.2874999999999996" stroke-width="0.03" stroke="#000000" fill="none"/>
<path d="M3.8375 2.1416666666666666L3.8666666666666663 2.2L3.9541666666666666 2.2291666666666665L4.041666666666666 2.2291666666666665L4.129166666666666 2.2L4.158333333333333 2.1416666666666666L4.158333333333333 2.1125L4.129166666666666 2.0541666666666667L4.070833333333333 2.025L3.925 1.9958333333333333L3.8666666666666663 1.9666666666666666L3.8375 1.9083333333333332L3.8666666666666663 1.85L3.9541666666666666 1.8208333333333333L4.041666666666666 1.8208333333333333L4.129166666666666 1.85L4.158333333333333 1.9083333333333332" stroke-width="0.03" stroke="#000000" fill="none"/>
<path d="M4.3625 1.9375L4.449999999999999 1.85L4.508333333333333 1.8208333333333333L4.595833333333333 1.8208333333333333L4.654166666666667 1.85L4.683333333333334 1.9375L4.683333333333334 2.2291666666666665" stroke-width="0.03" stroke="#000000" fill="none"/>
<path d="M4.3625 2.2291666666666665L4.3625 1.8208333333333333" stroke-width="0.03" stroke="#000000" fill="none"/>
<path d="M5.033333333333333 1.8208333333333333L4.975 1.85L4.916666666666666 1.9083333333333332L4.887499999999999 1.9958333333333333L4.887499999999999 2.0541666666666667L4.916666666666666 2.1416666666666666L4.975 2.2L5.033333333333333 2.2291666666666665L5.120833333333334 2.2291666666666665L5.179166666666666 2.2L5.2375 2.1416666666666666L5.266666666666666 2.0541666666666667L5.266666666666666 1.9958333333333333L5.2375 1.9083333333333332L5.179166666666666 1.85L5.120833333333334 1.8208333333333333L5.033333333333333 1.8208333333333333" stroke-width="0.03" stroke="#000000" fill="none"/>
<path d="M5.441666666666666 1.8208333333333333L5.558333333333334 2.2291666666666665L5.675 1.8208333333333333L5.791666666666666 2.2291666666666665L5.908333333333333 1.8208333333333333" stroke-width="0.03" stroke="#000000" fill="none"/>
<path d="M6.054166666666666 1.8208333333333333L6.258333333333333 1.8208333333333333" stroke-width="0.03" stroke="#000000" fill="none"/>
<path d="M6.2875 1.6166666666666667L6.229166666666666 1.6166666666666667L6.1708333333333325 1.6458333333333333L6.141666666666667 1.7333333333333334L6.141666666666667 2.2291666666666665" stroke-width="0.03" stroke="#000000" fill="none"/>
<path d="M6.4624999999999995 2.2291666666666665L6.4624999999999995 1.6166666666666667" stroke-width="0.03" stroke="#000000" fill="none"/>
<path d="M7.016666666666666 1.8208333333333333L7.016666666666666 2.2291666666666665" stroke-width="0.03" stroke="#000000" fill="none"/>
<path d="M7.016666666666666 2.1416666666666666L6.958333333333333 2.2L6.8999999999999995 2.2291666666666665L6.812499999999999 2.2291666666666665L6.754166666666666 2.2L6.695833333333333 2.1416666666666666L6.666666666666666 2.0541666666666667L6.666666666666666 1.9958333333333333L6.695833333333333 1.9083333333333332L6.754166666666666 1.85L6.812499999999999 1.8208333333333333L6.8999999999999995 1.8208333333333333L6.958333333333333 1.85L7.016666666666666 1.9083333333333332" stroke-width="0.03" stroke="#000000" fill="none"/>
<path d="M7.249999999999999 2.1125L7.541666666666666 1.8208333333333333" stroke-width="0.03" stroke="#000000" fill="none"/>
<path d="M7.366666666666666 1.9958333333333333L7.570833333333333 2.2291666666666665" stroke-width="0.03" stroke="#000000" fill="none"/>
<path d="M7.716666666666666 1.9958333333333333L8.066666666666666 1.9958333333333333L8.066666666666666 1.9375L8.0375 1.8791666666666667L8.008333333333333 1.85L7.949999999999999 1.8208333333333333L7.8625 1.8208333333333333L7.804166666666666 1.85L7.745833333333333 1.9083333333333332L7.716666666666666 1.9958333333333333L7.716666666666666 2.0541666666666667L7.745833333333333 2.1416666666666666L7.804166666666666 2.2L7.8625 2.2291666666666665L7.949999999999999 2.2291666666666665L8.008333333333333 2.2L8.066666666666666 2.1416666666666666" stroke-width="0.03" stroke="#000000" fill="none"/>
<path d="M8.475 2.2291666666666665L8.475 1.6166666666666667L8.3875 1.7041666666666666L8.329166666666666 1.7333333333333334" stroke-width="0.03" stroke="#000000" fill="none"/>
<path d="M7.249999999999999 1.6166666666666667L7.249999999999999 2.2291666666666665" stroke-width="0.03" stroke="#000000" fill="none"/>
<path d="M5.22665244959841 3.0054372986874878L5.424938354322334 3.0054372986874878L5.316782406291102 3.149645229395796L5.370860380306718 3.149645229395796L5.406912362983795 3.167671220734335L5.424938354322334 3.1856972120728733L5.442964345660872 3.2397751860884894L5.442964345660872 3.2758271687655665L5.424938354322334 3.3299051427811825L5.388886371645256 3.3659571254582596L5.33480839762964 3.383983116796798L5.280730423614025 3.383983116796798L5.22665244959841 3.3659571254582596L5.20862645825987 3.3479311341197207L5.190600466921332 3.3118791514426436" stroke-width="0.03" stroke="#000000" fill="none"/>
<path d="M4.83008064015056 3.3118791514426436L4.848106631489099 3.3479311341197207L4.866132622827637 3.3659571254582596L4.920210596843253 3.383983116796798L4.974288570858869 3.383983116796798L5.028366544874484 3.3659571254582596L5.064418527551561 3.3299051427811825L5.0824445188901 3.2758271687655665L5.0824445188901 3.2397751860884894L5.064418527551561 3.1856972120728733L5.046392536213023 3.167671220734335L5.010340553535945 3.149645229395796L4.95626257952033 3.149645229395796L5.064418527551561 3.0054372986874878L4.866132622827637 3.0054372986874878" stroke-width="0.03" stroke="#000000" fill="none"/>
<path d="M4.523638787395404 3.077541264041642L4.559690770072481 3.0595152727031034L4.613768744088096 3.0054372986874878L4.613768744088096 3.383983116796798" stroke-width="0.03" stroke="#000000" fill="none"/>
<path d="M4.397456848025634 3.383983116796798L4.253248917317325 3.0054372986874878L4.109040986609016 3.383983116796798" stroke-width="0.03" stroke="#000000" fill="none"/>
<path d="M4.0549630125934 3.383983116796798L3.8206251251923984 3.383983116796798L3.8206251251923984 3.0054372986874878L4.0549630125934 3.0054372986874878" stroke-width="0.03" stroke="#000000" fill="none"/>
<path d="M3.9648330559007072 3.1856972120728733L3.8206251251923984 3.1856972120728733" stroke-width="0.03" stroke="#000000" fill="none"/>
<path d="M3.658391203145551 3.0054372986874878L3.478131289760165 3.0054372986874878L3.4601052984216265 3.167671220734335L3.478131289760165 3.149645229395796L3.5322092637757807 3.1316192380572576L3.586287237791397 3.1316192380572576L3.6403652118070124 3.149645229395796L3.6764171944840895 3.1856972120728733L3.694443185822628 3.2397751860884894L3.694443185822628 3.2758271687655665L3.6764171944840895 3.3299051427811825L3.6403652118070124 3.3659571254582596L3.586287237791397 3.383983116796798L3.5322092637757807 3.383983116796798L3.478131289760165 3.3659571254582596L3.4601052984216265 3.3479311341197207L3.442079307083088 3.3118791514426436" stroke-width="0.03" stroke="#000000" fill="none"/>
<path d="M3.1897154283435474 3.0054372986874878L3.1356374543279317 3.023463290026026L3.0995854716508546 3.077541264041642L3.0815594803123156 3.167671220734335L3.0815594803123156 3.221749194749951L3.0995854716508546 3.3118791514426436L3.1356374543279317 3.3659571254582596L3.1897154283435474 3.383983116796798L3.225767411020625 3.383983116796798L3.2798453850362406 3.3659571254582596L3.3158973677133177 3.3118791514426436L3.333923359051856 3.221749194749951L3.333923359051856 3.167671220734335L3.3158973677133177 3.077541264041642L3.2798453850362406 3.023463290026026L3.225767411020625 3.0054372986874878L3.1897154283435474 3.0054372986874878" stroke-width="0.03" stroke="#000000" fill="none"/>
<path d="M2.955377540942546 3.0595152727031034L2.9373515496040072 3.023463290026026L2.883273575588391 3.0054372986874878L2.847221592911314 3.0054372986874878L2.7931436188956984 3.023463290026026L2.757091636218621 3.077541264041642L2.7390656448800828 3.167671220734335L2.7390656448800828 3.257801177427028L2.757091636218621 3.3299051427811825L2.7931436188956984 3.3659571254582596L2.847221592911314 3.383983116796798L2.8652475842498526 3.383983116796798L2.9193255582654682 3.3659571254582596L2.955377540942546 3.3299051427811825L2.9734035322810843 3.2758271687655665L2.9734035322810843 3.257801177427028L2.955377540942546 3.2037232034114123L2.9193255582654682 3.167671220734335L2.8652475842498526 3.149645229395796L2.847221592911314 3.149645229395796L2.7931436188956984 3.167671220734335L2.757091636218621 3.2037232034114123L2.7390656448800828 3.257801177427028" stroke-width="0.03" stroke="#000000" fill="none"/>
<path d="M2.6128837055103125 3.383983116796798L2.414597800786388 3.1316192380572576" stroke-width="0.03" stroke="#000000" fill="none"/>
<path d="M2.6128837055103125 3.1316192380572576L2.414597800786388 3.383983116796798" stroke-width="0.03" stroke="#000000" fill="none"/>
<path d="M2.1622339220468474 3.0054372986874878L2.1081559480312317 3.023463290026026L2.072103965354154 3.077541264041642L2.0540779740156156 3.167671220734335L2.0540779740156156 3.221749194749951L2.072103965354154 3.3118791514426436L2.1081559480312317 3.3659571254582596L2.1622339220468474 3.383983116796798L2.1982859047239245 3.383983116796798L2.2523638787395406 3.3659571254582596L2.2884158614166177 3.3118791514426436L2.3064418527551562 3.221749194749951L2.3064418527551562 3.167671220734335L2.2884158614166177 3.077541264041642L2.2523638787395406 3.023463290026026L2.1982859047239245 3.0054372986874878L2.1622339220468474 3.0054372986874878" stroke-width="0.03" stroke="#000000" fill="none"/>
<path d="M4.163118960624631 3.257801177427028L4.343378874010018 3.257801177427028" stroke-width="0.03" stroke="#000000" fill="none"/>
</svg>
