<?xml version="1.0" standalone="no"?>
<svg width="29.7cm" height="42cm" version="1.1" xmlns="http://www.w3.org/2000/svg" viewBox="0.0 0.0 29.700001 42.000001">
<path d="M5.046093749999999 11.967625671466987L9.21796875 9.558992517191516L14.85 12.8106472754634L20.482031250000002 9.558992517191516L24.653906250000002 11.967625671466987L24.653906250000002 13.533237221746042" stroke-width="0.03" stroke="#000000" fill="none"/>
<path d="M24.549609375 13.473021392889155L24.549609375 13.111726419747836L23.923828125000004 12.750431446606514L22.98515625 13.292373906318495L22.98515625 13.412805564032269L21.31640625 14.376258825742458L20.690625 14.014963852601136L20.586328125 14.075179681458023L20.586328125 14.195611339171796L22.359375 15.21928042973887L23.819531249999997 14.376258825742458L24.23671875 14.617122141170004L24.23671875 15.580575402880193L25.07109375 16.062302033735286L25.07109375 16.54402866459038L23.610937500000002 17.387050268586794L23.610937500000002 19.434388449720945L23.715234375 19.49460427857783L23.819531249999997 19.434388449720945L23.819531249999997 18.711798503438303L25.48828125 17.748345241728117L25.592578125 17.808561070585L26.53125 17.26661861087302L26.53125 16.54402866459038L26.218359375 16.36338117801972" stroke-width="0.03" stroke="#000000" fill="none"/>
<path d="M26.218359375 16.24294952030595L27.57421875 17.025755295445475L27.57421875 21.843021603996412L21.9421875 25.0946763622683L21.9421875 31.597985878812068L17.7703125 34.00661903308754L16.414453125 33.22381325794801" stroke-width="0.03" stroke="#000000" fill="none"/>
<path d="M16.51875 33.163597429091126L16.831640625 33.34424491566179L17.457421875 32.98294994252046L17.457421875 31.8990650230965L17.353125 31.838849194239618L16.72734375 32.200144167380934L16.72734375 33.043165771377346L16.205859375 33.34424491566179L14.85 32.56143914052225L14.85 24.612949731413206L14.015625 25.0946763622683L10.88671875 23.288201496561694L10.88671875 19.67525176514849L11.72109375 19.193525134293395L11.72109375 18.23007187258321L14.85 16.423597006876605L17.978906249999998 18.23007187258321L17.978906249999998 19.193525134293395L18.81328125 19.67525176514849L18.81328125 23.288201496561694L15.684375 25.0946763622683L15.684375 32.32057582509471L14.85 31.838849194239618L14.015625 32.32057582509471L13.598437500000001 32.07971250966716L13.598437500000001 30.393669301674333L11.825390624999999 29.37000021110726L11.72109375 29.430216039964147L11.72109375 29.550647697677917L12.346874999999999 29.91194267081924L12.346874999999999 31.838849194239618L12.97265625 32.200144167380934L12.97265625 33.043165771377346L13.494140625 33.34424491566179L14.85 32.56143914052225" stroke-width="0.03" stroke="#000000" fill="none"/>
<path d="M15.684375 32.32057582509471L16.1015625 32.07971250966716L16.1015625 30.393669301674333L17.874609375000002 29.37000021110726L17.978906249999998 29.430216039964147L17.978906249999998 29.550647697677917L17.353125 29.91194267081924L17.353125 31.838849194239618" stroke-width="0.03" stroke="#000000" fill="none"/>
<path d="M17.457421875 31.8990650230965L16.831640625 32.260359996237824L16.831640625 33.34424491566179" stroke-width="0.03" stroke="#000000" fill="none"/>
<path d="M16.205859375 33.34424491566179L16.205859375 30.45388513053122L16.1015625 30.393669301674333" stroke-width="0.03" stroke="#000000" fill="none"/>
<path d="M16.205859375 30.45388513053122L21.420703125 27.443093687686883L21.9421875 27.744172831971316L17.7703125 30.152805986246786L17.353125 29.91194267081924" stroke-width="0.03" stroke="#000000" fill="none"/>
<path d="M17.7703125 30.152805986246786L17.7703125 34.00661903308754" stroke-width="0.03" stroke="#000000" fill="none"/>
<path d="M16.831640625 32.260359996237824L16.72734375 32.200144167380934" stroke-width="0.03" stroke="#000000" fill="none"/>
<path d="M14.015625 32.32057582509471L14.015625 25.0946763622683" stroke-width="0.03" stroke="#000000" fill="none"/>
<path d="M14.85 24.612949731413206L15.684375 25.0946763622683" stroke-width="0.03" stroke="#000000" fill="none"/>
<path d="M14.954296875 22.98712235227726L16.1015625 22.32474823485151L16.1015625 22.08388491942396L15.997265625 22.023669090567072L16.31015625 21.843021603996412L16.31015625 21.481726630855093L16.414453125 21.54194245971198L16.623046875 21.42151080199821L16.623046875 20.096762567146698L16.51875 20.03654673828981L16.51875 19.916115080576038L15.371484375 19.253740963150285L15.162890625 19.37417262086406L15.162890625 19.49460427857783L14.85 19.31395679200717L14.537109375 19.49460427857783L14.537109375 19.37417262086406L14.328515625 19.253740963150285L13.181249999999999 19.916115080576038L13.181249999999999 20.03654673828981L13.389843749999999 20.156978396003588L13.389843749999999 20.03654673828981L14.537109375 19.37417262086406" stroke-width="0.03" stroke="#000000" fill="none"/>
<path d="M14.4328125 19.31395679200717L14.85 19.073093476579622L15.267187499999999 19.31395679200717" stroke-width="0.03" stroke="#000000" fill="none"/>
<path d="M15.162890625 19.37417262086406L16.31015625 20.03654673828981L16.51875 19.916115080576038" stroke-width="0.03" stroke="#000000" fill="none"/>
<path d="M16.51875 20.03654673828981L16.31015625 20.156978396003588L16.31015625 20.03654673828981" stroke-width="0.03" stroke="#000000" fill="none"/>
<path d="M16.31015625 20.156978396003588L16.414453125 20.21719422486047L16.623046875 20.096762567146698" stroke-width="0.03" stroke="#000000" fill="none"/>
<path d="M16.414453125 20.21719422486047L16.414453125 21.54194245971198" stroke-width="0.03" stroke="#000000" fill="none"/>
<path d="M16.51875 21.481726630855093L16.51875 21.96345326171019L18.81328125 23.288201496561694" stroke-width="0.03" stroke="#000000" fill="none"/>
<path d="M16.51875 21.96345326171019L16.1015625 22.204316577137735" stroke-width="0.03" stroke="#000000" fill="none"/>
<path d="M16.1015625 22.08388491942396L14.954296875 22.746259036849715L14.85 22.686043207992828L14.745703124999999 22.746259036849715L13.598437500000001 22.08388491942396L13.702734374999999 22.023669090567072L13.389843749999999 21.843021603996412L13.389843749999999 21.481726630855093L13.285546875 21.54194245971198L13.076953125000001 21.42151080199821L13.076953125000001 20.096762567146698L13.181249999999999 20.03654673828981" stroke-width="0.03" stroke="#000000" fill="none"/>
<path d="M13.076953125000001 20.096762567146698L13.285546875 20.21719422486047L13.389843749999999 20.156978396003588" stroke-width="0.03" stroke="#000000" fill="none"/>
<path d="M13.285546875 20.21719422486047L13.285546875 21.54194245971198" stroke-width="0.03" stroke="#000000" fill="none"/>
<path d="M13.181249999999999 21.481726630855093L13.181249999999999 21.96345326171019L10.88671875 23.288201496561694" stroke-width="0.03" stroke="#000000" fill="none"/>
<path d="M13.181249999999999 21.96345326171019L13.598437500000001 22.204316577137735" stroke-width="0.03" stroke="#000000" fill="none"/>
<path d="M13.598437500000001 22.32474823485151L13.598437500000001 22.08388491942396" stroke-width="0.03" stroke="#000000" fill="none"/>
<path d="M13.598437500000001 22.32474823485151L14.745703124999999 22.98712235227726L14.85 22.926906523420374L14.954296875 22.98712235227726L14.954296875 22.746259036849715" stroke-width="0.03" stroke="#000000" fill="none"/>
<path d="M14.85 22.686043207992828L14.85 22.926906523420374" stroke-width="0.03" stroke="#000000" fill="none"/>
<path d="M14.745703124999999 22.98712235227726L14.745703124999999 22.746259036849715" stroke-width="0.03" stroke="#000000" fill="none"/>
<path d="M14.85 21.36129497314132L15.162890625 21.18064748657066L15.162890625 20.819352513429337L14.85 20.63870502685868L14.537109375 20.819352513429337L14.537109375 21.18064748657066L14.85 21.36129497314132" stroke-width="0.03" stroke="#000000" fill="none"/>
<path d="M14.85 21L13.389843749999999 21.843021603996412" stroke-width="0.03" stroke="#000000" fill="none"/>
<path d="M14.85 21L14.85 19.31395679200717" stroke-width="0.03" stroke="#000000" fill="none"/>
<path d="M14.85 19.073093476579622L14.85 16.423597006876605" stroke-width="0.03" stroke="#000000" fill="none"/>
<path d="M17.978906249999998 18.23007187258321L24.23671875 14.617122141170004" stroke-width="0.03" stroke="#000000" fill="none"/>
<path d="M24.8625 15.21928042973887L17.978906249999998 19.193525134293395" stroke-width="0.03" stroke="#000000" fill="none"/>
<path d="M18.81328125 19.67525176514849L25.07109375 16.062302033735286" stroke-width="0.03" stroke="#000000" fill="none"/>
<path d="M24.8625 15.21928042973887L24.8625 13.653668879459815L24.341015624999997 13.352589735175382L23.610937500000002 13.77410053717359L22.98515625 13.412805564032269" stroke-width="0.03" stroke="#000000" fill="none"/>
<path d="M22.98515625 13.292373906318495L23.610937500000002 13.653668879459815L24.549609375 13.111726419747836" stroke-width="0.03" stroke="#000000" fill="none"/>
<path d="M24.8625 13.653668879459815L22.359375 15.098848772025098L22.359375 15.21928042973887" stroke-width="0.03" stroke="#000000" fill="none"/>
<path d="M22.359375 15.098848772025098L17.14453125 12.08805732918076L17.14453125 11.485899040611892L21.31640625 13.894532194887363L24.653906250000002 11.967625671466987" stroke-width="0.03" stroke="#000000" fill="none"/>
<path d="M23.610937500000002 13.653668879459815L23.610937500000002 13.77410053717359" stroke-width="0.03" stroke="#000000" fill="none"/>
<path d="M24.8625 15.21928042973887L26.218359375 16.0020862048784L26.218359375 16.60424449344727L25.48828125 17.025755295445475L25.48828125 17.748345241728117" stroke-width="0.03" stroke="#000000" fill="none"/>
<path d="M25.592578125 17.808561070585L25.592578125 17.08597112430236L25.48828125 17.025755295445475" stroke-width="0.03" stroke="#000000" fill="none"/>
<path d="M25.592578125 17.08597112430236L26.53125 16.54402866459038" stroke-width="0.03" stroke="#000000" fill="none"/>
<path d="M26.218359375 16.0020862048784L23.715234375 17.44726609744368L23.715234375 23.468848983132357L24.23671875 23.76992812741679L24.23671875 18.95266181886585L27.57421875 17.025755295445475" stroke-width="0.03" stroke="#000000" fill="none"/>
<path d="M24.23671875 18.95266181886585L23.819531249999997 18.711798503438303" stroke-width="0.03" stroke="#000000" fill="none"/>
<path d="M23.715234375 17.44726609744368L23.610937500000002 17.387050268586794" stroke-width="0.03" stroke="#000000" fill="none"/>
<path d="M21.31640625 14.376258825742458L21.31640625 13.894532194887363" stroke-width="0.03" stroke="#000000" fill="none"/>
<path d="M19.85625 9.920287490332836L18.917578125000002 9.378345030620856L15.580078125 11.305251554041233L15.580078125 11.54611486946878L16.31015625 11.967625671466987" stroke-width="0.03" stroke="#000000" fill="none"/>
<path d="M16.205859375 12.027841500323873L14.85 11.245035725184344L13.494140625 12.027841500323873" stroke-width="0.03" stroke="#000000" fill="none"/>
<path d="M13.389843749999999 11.967625671466987L14.119921875 11.54611486946878L14.119921875 11.305251554041233L10.782421874999999 9.378345030620856L9.84375 9.920287490332836" stroke-width="0.03" stroke="#000000" fill="none"/>
<path d="M11.095312499999999 9.558992517191516L11.199609375 9.49877668833463L12.033984375000001 9.980503319189724L12.7640625 9.558992517191516L14.85 10.763309094329252L16.9359375 9.558992517191516L17.666015625 9.980503319189724L18.500390624999998 9.49877668833463L18.6046875 9.558992517191516" stroke-width="0.03" stroke="#000000" fill="none"/>
<path d="M18.500390624999998 9.49877668833463L18.500390624999998 8.896618399765762L16.9359375 7.9933809669124605L16.1015625 8.475107597767554L16.1015625 10.04071914804661" stroke-width="0.03" stroke="#000000" fill="none"/>
<path d="M15.47578125 10.40201412118793L15.162890625 10.22136663461727L14.85 10.40201412118793L14.537109375 10.22136663461727L14.224218749999999 10.40201412118793" stroke-width="0.03" stroke="#000000" fill="none"/>
<path d="M13.598437500000001 10.04071914804661L13.598437500000001 8.475107597767554L12.7640625 7.9933809669124605L11.199609375 8.896618399765762L11.199609375 9.49877668833463" stroke-width="0.03" stroke="#000000" fill="none"/>
<path d="M11.199609375 8.896618399765762L12.033984375000001 9.378345030620856L13.598437500000001 8.475107597767554" stroke-width="0.03" stroke="#000000" fill="none"/>
<path d="M12.033984375000001 9.378345030620856L12.033984375000001 9.980503319189724" stroke-width="0.03" stroke="#000000" fill="none"/>
<path d="M12.555468750000001 11.485899040611892L8.38359375 13.894532194887363L5.046093749999999 11.967625671466987L5.046093749999999 13.533237221746042" stroke-width="0.03" stroke="#000000" fill="none"/>
<path d="M5.150390625 13.473021392889155L5.150390625 13.111726419747836L5.776171874999998 12.750431446606514L6.714843749999999 13.292373906318495L6.714843749999999 13.412805564032269L6.089062499999999 13.77410053717359L5.3589843749999995 13.352589735175382L4.8374999999999995 13.653668879459815L4.8374999999999995 15.21928042973887L3.481640624999999 16.0020862048784L3.481640624999999 16.60424449344727L4.211718750000001 17.025755295445475L4.211718750000001 17.748345241728117L5.88046875 18.711798503438303L5.88046875 19.434388449720945L5.984765624999999 19.49460427857783L6.089062499999999 19.434388449720945L6.089062499999999 17.387050268586794L4.62890625 16.54402866459038L4.62890625 16.062302033735286L5.46328125 15.580575402880193L5.46328125 14.617122141170004L5.88046875 14.376258825742458L7.340624999999999 15.21928042973887L9.113671875 14.195611339171796L9.113671875 14.075179681458023L9.009374999999999 14.014963852601136L8.38359375 14.376258825742458L6.714843749999999 13.412805564032269" stroke-width="0.03" stroke="#000000" fill="none"/>
<path d="M6.714843749999999 13.292373906318495L6.089062499999999 13.653668879459815L5.150390625 13.111726419747836" stroke-width="0.03" stroke="#000000" fill="none"/>
<path d="M4.8374999999999995 13.653668879459815L7.340624999999999 15.098848772025098L7.340624999999999 15.21928042973887" stroke-width="0.03" stroke="#000000" fill="none"/>
<path d="M7.340624999999999 15.098848772025098L12.555468750000001 12.08805732918076L12.555468750000001 11.485899040611892" stroke-width="0.03" stroke="#000000" fill="none"/>
<path d="M13.181249999999999 11.847194013753214L14.119921875 11.305251554041233" stroke-width="0.03" stroke="#000000" fill="none"/>
<path d="M14.328515625 11.9074098426101L13.80703125 12.208488986894533" stroke-width="0.03" stroke="#000000" fill="none"/>
<path d="M14.328515625 11.9074098426101L14.85 12.208488986894533L15.371484375 11.9074098426101L15.89296875 12.208488986894533" stroke-width="0.03" stroke="#000000" fill="none"/>
<path d="M16.51875 11.847194013753214L15.580078125 11.305251554041233" stroke-width="0.03" stroke="#000000" fill="none"/>
<path d="M14.85 11.245035725184344L14.85 12.208488986894533" stroke-width="0.03" stroke="#000000" fill="none"/>
<path d="M17.666015625 9.980503319189724L17.666015625 9.378345030620856L18.500390624999998 8.896618399765762" stroke-width="0.03" stroke="#000000" fill="none"/>
<path d="M17.666015625 9.378345030620856L16.1015625 8.475107597767554" stroke-width="0.03" stroke="#000000" fill="none"/>
<path d="M9.237499999999999 2.533333333333333L1.5 2.533333333333333" stroke-width="0.03" stroke="#000000" fill="none"/>
<path d="M2.1166666666666667 2.2291666666666665L2.1166666666666667 1.8208333333333333" stroke-width="0.03" stroke="#000000" fill="none"/>
<path d="M2.0875 1.6166666666666667L2.1166666666666667 1.6458333333333333L2.145833333333333 1.6166666666666667L2.1166666666666667 1.5875L2.0875 1.6166666666666667" stroke-width="0.03" stroke="#000000" fill="none"/>
<path d="M2.3208333333333333 2.1416666666666666L2.35 2.2L2.4375 2.2291666666666665L2.525 2.2291666666666665L2.6125 2.2L2.6416666666666666 2.1416666666666666L2.6416666666666666 2.1125L2.6125 2.0541666666666667L2.5541666666666667 2.025L2.408333333333333 1.9958333333333333L2.35 1.9666666666666666L2.3208333333333333 1.9083333333333332L2.35 1.85L2.4375 1.8208333333333333L2.525 1.8208333333333333L2.6125 1.85L2.6416666666666666 1.9083333333333332" stroke-width="0.03" stroke="#000000" fill="none"/>
<path d="M2.9625 1.8208333333333333L2.904166666666667 1.85L2.845833333333333 1.9083333333333332L2.8166666666666664 1.9958333333333333L2.8166666666666664 2.0541666666666667L2.845833333333333 2.1416666666666666L2.904166666666667 2.2L2.9625 2.2291666666666665L3.05 2.2291666666666665L3.1083333333333334 2.2L3.1666666666666665 2.1416666666666666L3.1958333333333333 2.0541666666666667L3.1958333333333333 1.9958333333333333L3.1666666666666665 1.9083333333333332L3.1083333333333334 1.85L3.05 1.8208333333333333L2.9625 1.8208333333333333" stroke-width="0.03" stroke="#000000" fill="none"/>
<path d="M3.283333333333333 2.2874999999999996L3.75 2.2874999999999996" stroke-width="0.03" stroke="#000000" fill="none"/>
<path d="M3.8375 2.1416666666666666L3.8666666666666663 2.2L3.9541666666666666 2.2291666666666665L4.041666666666666 2.2291666666666665L4.129166666666666 2.2L4.158333333333333 2.1416666666666666L4.158333333333333 2.1125L4.129166666666666 2.0541666666666667L4.070833333333333 2.025L3.925 1.9958333333333333L3.8666666666666663 1.9666666666666666L3.8375 1.9083333333333332L3.8666666666666663 1.85L3.9541666666666666 1.8208333333333333L4.041666666666666 1.8208333333333333L4.129166666666666 1.85L4.158333333333333 1.9083333333333332" stroke-width="0.03" stroke="#000000" fill="none"/>
<path d="M4.3625 1.9375L4.449999999999999 1.85L4.508333333333333 1.8208333333333333L4.595833333333333 1.8208333333333333L4.654166666666667 1.85L4.683333333333334 1.9375L4.683333333333334 2.2291666666666665" stroke-width="0.03" stroke="#000000" fill="none"/>
<path d="M4.3625 2.2291666666666665L4.3625 1.8208333333333333" stroke-width="0.03" stroke="#000000" fill="none"/>
<path d="M5.033333333333333 1.8208333333333333L4.975 1.85L4.916666666666666 1.9083333333333332L4.887499999999999 1.9958333333333333L4.887499999999999 2.0541666666666667L4.916666666666666 2.1416666666666666L4.975 2.2L5.033333333333333 2.2291666666666665L5.120833333333334 2.2291666666666665L5.179166666666666 2.2L5.2375 2.1416666666666666L5.266666666666666 2.0541666666666667L5.266666666666666 1.9958333333333333L5.2375 1.9083333333333332L5.179166666666666 1.85L5.120833333333334 1.8208333333333333L5.033333333333333 1.8208333333333333" stroke-width="0.03" stroke="#000000" fill="none"/>
<path d="M5.441666666666666 1.8208333333333333L5.558333333333334 2.2291666666666665L5.675 1.8208333333333333L5.791666666666666 2.2291666666666665L5.908333333333333 1.8208333333333333" stroke-width="0.03" stroke="#000000" fill="none"/>
<path d="M6.054166666666666 1.8208333333333333L6.258333333333333 1.8208333333333333" stroke-width="0.03" stroke="#000000" fill="none"/>
<path d="M6.2875 1.6166666666666667L6.229166666666666 1.6166666666666667L6.1708333333333325 1.6458333333333333L6.141666666666667 1.7333333333333334L6.141666666666667 2.2291666666666665" stroke-width="0.03" stroke="#000000" fill="none"/>
<path d="M6.4624999999999995 2.2291666666666665L6.4624999999999995 1.6166666666666667" stroke-width="0.03" stroke="#000000" fill="none"/>
<path d="M7.016666666666666 1.8208333333333333L7.016666666666666 2.2291666666666665" stroke-width="0.03" stroke="#000000" fill="none"/>
<path d="M7.016666666666666 2.1416666666666666L6.958333333333333 2.2L6.8999999999999995 2.2291666666666665L6.812499999999999 2.2291666666666665L6.754166666666666 2.2L6.695833333333333 2.1416666666666666L6.666666666666666 2.0541666666666667L6.666666666666666 1.9958333333333333L6.695833333333333 1.9083333333333332L6.754166666666666 1.85L6.812499999999999 1.8208333333333333L6.8999999999999995 1.8208333333333333L6.958333333333333 1.85L7.016666666666666 1.9083333333333332" stroke-width="0.03" stroke="#000000" fill="none"/>
<path d="M7.249999999999999 2.1125L7.541666666666666 1.8208333333333333" stroke-width="0.03" stroke="#000000" fill="none"/>
<path d="M7.366666666666666 1.9958333333333333L7.570833333333333 2.2291666666666665" stroke-width="0.03" stroke="#000000" fill="none"/>
<path d="M7.716666666666666 1.9958333333333333L8.066666666666666 1.9958333333333333L8.066666666666666 1.9375L8.0375 1.8791666666666667L8.008333333333333 1.85L7.949999999999999 1.8208333333333333L7.8625 1.8208333333333333L7.804166666666666 1.85L7.745833333333333 1.9083333333333332L7.716666666666666 1.9958333333333333L7.716666666666666 2.0541666666666667L7.745833333333333 2.1416666666666666L7.804166666666666 2.2L7.8625 2.2291666666666665L7.949999999999999 2.2291666666666665L8.008333333333333 2.2L8.066666666666666 2.1416666666666666" stroke-width="0.03" stroke="#000000" fill="none"/>
<path d="M8.475 2.2291666666666665L8.475 1.6166666666666667L8.3875 1.7041666666666666L8.329166666666666 1.7333333333333334" stroke-width="0.03" stroke="#000000" fill="none"/>
<path d="M7.249999999999999 1.6166666666666667L7.249999999999999 2.2291666666666665" stroke-width="0.03" stroke="#000000" fill="none"/>
<path d="M5.46099033699941 3.0054372986874878L5.280730423614025 3.0054372986874878L5.262704432275486 3.167671220734335L5.280730423614025 3.149645229395796L5.33480839762964 3.1316192380572576L5.388886371645256 3.1316192380572576L5.442964345660872 3.149645229395796L5.479016328337949 3.1856972120728733L5.497042319676488 3.2397751860884894L5.497042319676488 3.2758271687655665L5.479016328337949 3.3299051427811825L5.442964345660872 3.3659571254582596L5.388886371645256 3.383983116796798L5.33480839762964 3.383983116796798L5.280730423614025 3.3659571254582596L5.262704432275486 3.3479311341197207L5.244678440936948 3.3118791514426436" stroke-width="0.03" stroke="#000000" fill="none"/>
<path d="M5.100470510228639 3.0054372986874878L4.920210596843253 3.0054372986874878L4.902184605504715 3.167671220734335L4.920210596843253 3.149645229395796L4.974288570858869 3.1316192380572576L5.028366544874484 3.1316192380572576L5.0824445188901 3.149645229395796L5.1184965015671775 3.1856972120728733L5.136522492905716 3.2397751860884894L5.136522492905716 3.2758271687655665L5.1184965015671775 3.3299051427811825L5.0824445188901 3.3659571254582596L5.028366544874484 3.383983116796798L4.974288570858869 3.383983116796798L4.920210596843253 3.3659571254582596L4.902184605504715 3.3479311341197207L4.884158614166176 3.3118791514426436" stroke-width="0.03" stroke="#000000" fill="none"/>
<path d="M4.794028657473483 3.383983116796798L4.559690770072481 3.383983116796798L4.559690770072481 3.0054372986874878L4.794028657473483 3.0054372986874878" stroke-width="0.03" stroke="#000000" fill="none"/>
<path d="M4.7038987007807895 3.1856972120728733L4.559690770072481 3.1856972120728733" stroke-width="0.03" stroke="#000000" fill="none"/>
<path d="M4.433508830702711 3.383983116796798L4.18114495196317 3.383983116796798L4.361404865348556 3.2037232034114123L4.397456848025634 3.149645229395796L4.415482839364172 3.113593246718719L4.415482839364172 3.077541264041642L4.397456848025634 3.041489281364565L4.379430856687095 3.023463290026026L4.343378874010018 3.0054372986874878L4.2712749086558635 3.0054372986874878L4.235222925978786 3.023463290026026L4.217196934640247 3.041489281364565L4.199170943301709 3.077541264041642L4.199170943301709 3.0955672553801805" stroke-width="0.03" stroke="#000000" fill="none"/>
<path d="M4.036937021254861 3.0054372986874878L3.8566771078694755 3.0054372986874878L3.838651116530937 3.167671220734335L3.8566771078694755 3.149645229395796L3.9107550818850916 3.1316192380572576L3.9648330559007072 3.1316192380572576L4.018911029916323 3.149645229395796L4.0549630125934 3.1856972120728733L4.072989003931939 3.2397751860884894L4.072989003931939 3.2758271687655665L4.0549630125934 3.3299051427811825L4.018911029916323 3.3659571254582596L3.9648330559007072 3.383983116796798L3.9107550818850916 3.383983116796798L3.8566771078694755 3.3659571254582596L3.838651116530937 3.3479311341197207L3.8206251251923984 3.3118791514426436" stroke-width="0.03" stroke="#000000" fill="none"/>
<path d="M3.622339220468474 3.1856972120728733L3.6764171944840895 3.167671220734335L3.694443185822628 3.149645229395796L3.712469177161167 3.113593246718719L3.712469177161167 3.077541264041642L3.694443185822628 3.041489281364565L3.6764171944840895 3.023463290026026L3.622339220468474 3.0054372986874878L3.4601052984216265 3.0054372986874878L3.4601052984216265 3.383983116796798L3.622339220468474 3.383983116796798L3.6764171944840895 3.3659571254582596L3.694443185822628 3.3479311341197207L3.712469177161167 3.3118791514426436L3.712469177161167 3.257801177427028L3.694443185822628 3.221749194749951L3.6764171944840895 3.2037232034114123L3.622339220468474 3.1856972120728733L3.4601052984216265 3.1856972120728733" stroke-width="0.03" stroke="#000000" fill="none"/>
<path d="M3.3158973677133177 3.1316192380572576L3.297871376374779 3.1856972120728733L3.261819393697702 3.221749194749951L3.207741419682086 3.2397751860884894L3.1897154283435474 3.2397751860884894L3.1356374543279317 3.221749194749951L3.0995854716508546 3.1856972120728733L3.0815594803123156 3.1316192380572576L3.0815594803123156 3.113593246718719L3.0995854716508546 3.0595152727031034L3.1356374543279317 3.023463290026026L3.1897154283435474 3.0054372986874878L3.207741419682086 3.0054372986874878L3.261819393697702 3.023463290026026L3.297871376374779 3.0595152727031034L3.3158973677133177 3.1316192380572576L3.3158973677133177 3.221749194749951L3.297871376374779 3.3118791514426436L3.261819393697702 3.3659571254582596L3.207741419682086 3.383983116796798L3.171689437005009 3.383983116796798L3.117611462989393 3.3659571254582596L3.0995854716508546 3.3299051427811825" stroke-width="0.03" stroke="#000000" fill="none"/>
<path d="M2.955377540942546 3.0595152727031034L2.9373515496040072 3.023463290026026L2.883273575588391 3.0054372986874878L2.847221592911314 3.0054372986874878L2.7931436188956984 3.023463290026026L2.757091636218621 3.077541264041642L2.7390656448800828 3.167671220734335L2.7390656448800828 3.257801177427028L2.757091636218621 3.3299051427811825L2.7931436188956984 3.3659571254582596L2.847221592911314 3.383983116796798L2.8652475842498526 3.383983116796798L2.9193255582654682 3.3659571254582596L2.955377540942546 3.3299051427811825L2.9734035322810843 3.2758271687655665L2.9734035322810843 3.257801177427028L2.955377540942546 3.2037232034114123L2.9193255582654682 3.167671220734335L2.8652475842498526 3.149645229395796L2.847221592911314 3.149645229395796L2.7931436188956984 3.167671220734335L2.757091636218621 3.2037232034114123L2.7390656448800828 3.257801177427028" stroke-width="0.03" stroke="#000000" fill="none"/>
<path d="M2.6128837055103125 3.383983116796798L2.414597800786388 3.1316192380572576" stroke-width="0.03" stroke="#000000" fill="none"/>
<path d="M2.6128837055103125 3.1316192380572576L2.414597800786388 3.383983116796798" stroke-width="0.03" stroke="#000000" fill="none"/>
<path d="M2.1622339220468474 3.0054372986874878L2.1081559480312317 3.023463290026026L2.072103965354154 3.077541264041642L2.0540779740156156 3.167671220734335L2.0540779740156156 3.221749194749951L2.072103965354154 3.3118791514426436L2.1081559480312317 3.3659571254582596L2.1622339220468474 3.383983116796798L2.1982859047239245 3.383983116796798L2.2523638787395406 3.3659571254582596L2.2884158614166177 3.3118791514426436L2.3064418527551562 3.221749194749951L2.3064418527551562 3.167671220734335L2.2884158614166177 3.077541264041642L2.2523638787395406 3.023463290026026L2.1982859047239245 3.0054372986874878L2.1622339220468474 3.0054372986874878" stroke-width="0.03" stroke="#000000" fill="none"/>
<path d="M6.089062499999999 13.653668879459815L6.089062499999999 13.77410053717359" stroke-width="0.03" stroke="#000000" fill="none"/>
<path d="M5.46328125 14.617122141170004L11.72109375 18.23007187258321" stroke-width="0.03" stroke="#000000" fill="none"/>
<path d="M11.72109375 19.193525134293395L4.8374999999999995 15.21928042973887" stroke-width="0.03" stroke="#000000" fill="none"/>
<path d="M4.62890625 16.062302033735286L10.88671875 19.67525176514849" stroke-width="0.03" stroke="#000000" fill="none"/>
<path d="M13.181249999999999 19.916115080576038L13.389843749999999 20.03654673828981" stroke-width="0.03" stroke="#000000" fill="none"/>
<path d="M14.85 21L16.31015625 21.843021603996412" stroke-width="0.03" stroke="#000000" fill="none"/>
<path d="M22.463671875 25.39575550655273L22.98515625 25.0946763622683L22.98515625 24.492518073699433" stroke-width="0.03" stroke="#000000" fill="none"/>
<path d="M23.298046874999997 24.311870587128773L23.298046874999997 25.877482137407824L21.9421875 26.660287912547354" stroke-width="0.03" stroke="#000000" fill="none"/>
<path d="M21.9421875 26.780719570261127L22.672265625 26.359208768262917L22.880859375 26.479640425976694L22.880859375 30.333453472817446L21.9421875 30.87539593252943" stroke-width="0.03" stroke="#000000" fill="none"/>
<path d="M22.880859375 29.972158499676127L22.98515625 29.91194267081924L23.506640625 30.21302181510367L25.07109375 29.30978438225037L25.07109375 28.346331120540185L23.715234375 27.563525345400656" stroke-width="0.03" stroke="#000000" fill="none"/>
<path d="M23.715234375 26.840935399118013L24.028125 26.660287912547354L24.028125 26.29899293940603L24.341015624999997 26.118345452835374L24.341015624999997 25.75705047969405" stroke-width="0.03" stroke="#000000" fill="none"/>
<path d="M23.715234375 26.118345452835374L25.801171875 24.914028875697635L25.801171875 24.071007271701223L26.635546875 23.58928064084613L27.15703125 23.890359785130563L27.15703125 25.696834650837165L26.322656249999998 26.17856128169226L24.966796875000004 25.39575550655273" stroke-width="0.03" stroke="#000000" fill="none"/>
<path d="M23.610937500000002 25.215108019982072L26.9484375 23.288201496561694L26.9484375 22.204316577137735" stroke-width="0.03" stroke="#000000" fill="none"/>
<path d="M26.635546875 23.468848983132357L26.635546875 23.58928064084613" stroke-width="0.03" stroke="#000000" fill="none"/>
<path d="M27.15703125 23.890359785130563L26.322656249999998 24.37208641598566L26.322656249999998 26.17856128169226" stroke-width="0.03" stroke="#000000" fill="none"/>
<path d="M26.322656249999998 24.37208641598566L25.801171875 24.071007271701223" stroke-width="0.03" stroke="#000000" fill="none"/>
<path d="M23.610937500000002 24.13122310055811L23.610937500000002 25.215108019982072L23.40234375 25.0946763622683L23.40234375 24.251654758271883" stroke-width="0.03" stroke="#000000" fill="none"/>
<path d="M22.463671875 25.39575550655273L22.463671875 25.9979137951216L21.9421875 26.29899293940603" stroke-width="0.03" stroke="#000000" fill="none"/>
<path d="M21.9421875 27.021582885688677L22.880859375 26.479640425976694" stroke-width="0.03" stroke="#000000" fill="none"/>
<path d="M23.298046874999997 25.877482137407824L22.463671875 25.39575550655273" stroke-width="0.03" stroke="#000000" fill="none"/>
<path d="M23.715234375 26.118345452835374L23.715234375 28.526978607110845L22.98515625 28.94848940910905L22.98515625 29.91194267081924" stroke-width="0.03" stroke="#000000" fill="none"/>
<path d="M23.506640625 30.21302181510367L23.506640625 29.249568553393484L25.07109375 28.346331120540185" stroke-width="0.03" stroke="#000000" fill="none"/>
<path d="M23.506640625 29.249568553393484L22.98515625 28.94848940910905" stroke-width="0.03" stroke="#000000" fill="none"/>
<path d="M13.598437500000001 30.393669301674333L13.494140625 30.45388513053122L8.279296875 27.443093687686883L7.7578125 27.744172831971316L11.9296875 30.152805986246786L11.9296875 34.00661903308754L7.7578125 31.597985878812068L7.7578125 25.0946763622683L2.125781250000001 21.843021603996412L2.125781250000001 17.025755295445475L3.481640624999999 16.24294952030595" stroke-width="0.03" stroke="#000000" fill="none"/>
<path d="M3.481640624999999 16.36338117801972L3.1687499999999984 16.54402866459038L3.1687499999999984 17.26661861087302L4.107421875 17.808561070585L4.211718750000001 17.748345241728117" stroke-width="0.03" stroke="#000000" fill="none"/>
<path d="M4.107421875 17.808561070585L4.107421875 17.08597112430236L3.1687499999999984 16.54402866459038" stroke-width="0.03" stroke="#000000" fill="none"/>
<path d="M3.481640624999999 16.0020862048784L5.984765624999999 17.44726609744368L6.089062499999999 17.387050268586794" stroke-width="0.03" stroke="#000000" fill="none"/>
<path d="M5.984765624999999 17.44726609744368L5.984765624999999 23.468848983132357L5.46328125 23.76992812741679L5.46328125 18.95266181886585L2.125781250000001 17.025755295445475" stroke-width="0.03" stroke="#000000" fill="none"/>
<path d="M4.107421875 17.08597112430236L4.211718750000001 17.025755295445475" stroke-width="0.03" stroke="#000000" fill="none"/>
<path d="M5.46328125 18.95266181886585L5.88046875 18.711798503438303" stroke-width="0.03" stroke="#000000" fill="none"/>
<path d="M2.7515624999999995 22.204316577137735L2.7515624999999995 23.288201496561694L6.089062499999999 25.215108019982072L6.297656249999999 25.0946763622683L6.297656249999999 24.251654758271883" stroke-width="0.03" stroke="#000000" fill="none"/>
<path d="M6.4019531249999995 24.311870587128773L6.4019531249999995 25.877482137407824L7.7578125 26.660287912547354" stroke-width="0.03" stroke="#000000" fill="none"/>
<path d="M7.7578125 26.780719570261127L7.027734374999999 26.359208768262917L6.819140625 26.479640425976694L6.819140625 30.333453472817446L7.7578125 30.87539593252943" stroke-width="0.03" stroke="#000000" fill="none"/>
<path d="M6.819140625 29.972158499676127L6.714843749999999 29.91194267081924L6.193359375 30.21302181510367L4.62890625 29.30978438225037L4.62890625 28.346331120540185L5.984765624999999 27.563525345400656" stroke-width="0.03" stroke="#000000" fill="none"/>
<path d="M5.984765624999999 26.840935399118013L5.671875 26.660287912547354L5.671875 26.29899293940603L5.3589843749999995 26.118345452835374L5.3589843749999995 25.75705047969405" stroke-width="0.03" stroke="#000000" fill="none"/>
<path d="M4.733203124999998 25.39575550655273L3.3773437500000005 26.17856128169226L2.54296875 25.696834650837165L2.54296875 23.890359785130563L3.064453125 23.58928064084613L3.898828125 24.071007271701223L3.898828125 24.914028875697635L5.984765624999999 26.118345452835374L5.984765624999999 28.526978607110845L6.714843749999999 28.94848940910905L6.714843749999999 29.91194267081924" stroke-width="0.03" stroke="#000000" fill="none"/>
<path d="M6.193359375 30.21302181510367L6.193359375 29.249568553393484L6.714843749999999 28.94848940910905" stroke-width="0.03" stroke="#000000" fill="none"/>
<path d="M6.193359375 29.249568553393484L4.62890625 28.346331120540185" stroke-width="0.03" stroke="#000000" fill="none"/>
<path d="M3.3773437500000005 26.17856128169226L3.3773437500000005 24.37208641598566L3.898828125 24.071007271701223" stroke-width="0.03" stroke="#000000" fill="none"/>
<path d="M3.3773437500000005 24.37208641598566L2.54296875 23.890359785130563" stroke-width="0.03" stroke="#000000" fill="none"/>
<path d="M3.064453125 23.58928064084613L3.064453125 23.468848983132357" stroke-width="0.03" stroke="#000000" fill="none"/>
<path d="M6.089062499999999 24.13122310055811L6.089062499999999 25.215108019982072" stroke-width="0.03" stroke="#000000" fill="none"/>
<path d="M6.714843749999999 25.0946763622683L6.714843749999999 24.492518073699433" stroke-width="0.03" stroke="#000000" fill="none"/>
<path d="M6.714843749999999 25.0946763622683L7.236328125 25.39575550655273L7.236328125 25.9979137951216L7.7578125 26.29899293940603" stroke-width="0.03" stroke="#000000" fill="none"/>
<path d="M7.7578125 27.021582885688677L6.819140625 26.479640425976694" stroke-width="0.03" stroke="#000000" fill="none"/>
<path d="M6.4019531249999995 25.877482137407824L7.236328125 25.39575550655273" stroke-width="0.03" stroke="#000000" fill="none"/>
<path d="M11.9296875 30.152805986246786L12.346874999999999 29.91194267081924" stroke-width="0.03" stroke="#000000" fill="none"/>
<path d="M13.494140625 30.45388513053122L13.494140625 33.34424491566179" stroke-width="0.03" stroke="#000000" fill="none"/>
<path d="M13.285546875 33.22381325794801L11.9296875 34.00661903308754" stroke-width="0.03" stroke="#000000" fill="none"/>
<path d="M12.242578125 32.98294994252046L12.242578125 31.8990650230965L12.346874999999999 31.838849194239618" stroke-width="0.03" stroke="#000000" fill="none"/>
<path d="M12.242578125 31.8990650230965L12.868359374999999 32.260359996237824L12.868359374999999 33.34424491566179L13.181249999999999 33.163597429091126" stroke-width="0.03" stroke="#000000" fill="none"/>
<path d="M12.868359374999999 33.34424491566179L12.242578125 32.98294994252046" stroke-width="0.03" stroke="#000000" fill="none"/>
<path d="M12.868359374999999 32.260359996237824L12.97265625 32.200144167380934" stroke-width="0.03" stroke="#000000" fill="none"/>
<path d="M8.38359375 14.376258825742458L8.38359375 13.894532194887363" stroke-width="0.03" stroke="#000000" fill="none"/>
</svg>
