<?xml version="1.0" standalone="no"?>
<svg width="29.7cm" height="42cm" version="1.1" xmlns="http://www.w3.org/2000/svg" viewBox="0.0 0.0 29.700001 42.000001">
<path d="M3.481640624999999 12.991294762034062L4.8374999999999995 12.208488986894533L5.254687500000001 12.44935230232208L5.254687500000001 12.931078933177174L3.898828125 13.713884708316701L3.481640624999999 13.473021392889155L3.481640624999999 12.991294762034062L3.898828125 13.232158077461609L5.254687500000001 12.44935230232208" stroke-width="0.03" stroke="#000000" fill="none"/>
<path d="M5.776171874999998 12.87086310432029L6.193359375 12.629999788892741L6.5062500000000005 12.8106472754634L7.96640625 11.967625671466987L10.365234375 13.352589735175382" stroke-width="0.03" stroke="#000000" fill="none"/>
<path d="M9.948046875 13.111726419747836L11.303906249999999 12.328920644608306" stroke-width="0.03" stroke="#000000" fill="none"/>
<path d="M11.512500000000001 12.44935230232208L12.242578125 12.027841500323873L12.451171875 12.148273158037647" stroke-width="0.03" stroke="#000000" fill="none"/>
<path d="M12.555468750000001 12.08805732918076L9.4265625 13.894532194887363" stroke-width="0.03" stroke="#000000" fill="none"/>
<path d="M9.63515625 12.931078933177174L11.303906249999999 11.967625671466987" stroke-width="0.03" stroke="#000000" fill="none"/>
<path d="M11.512500000000001 12.44935230232208L11.512500000000001 12.690215617749628" stroke-width="0.03" stroke="#000000" fill="none"/>
<path d="M11.72109375 12.569783960035853L11.512500000000001 12.44935230232208" stroke-width="0.03" stroke="#000000" fill="none"/>
<path d="M11.303906249999999 12.8106472754634L11.303906249999999 11.365467382898117L13.598437500000001 10.04071914804661" stroke-width="0.03" stroke="#000000" fill="none"/>
<path d="M13.598437500000001 9.799855832619063L13.389843749999999 9.920287490332836L13.389843749999999 10.161150805760384" stroke-width="0.03" stroke="#000000" fill="none"/>
<path d="M13.389843749999999 9.920287490332836L14.85 10.763309094329252L16.31015625 9.920287490332836L16.1015625 9.799855832619063L14.85 10.522445778901705L13.598437500000001 9.799855832619063" stroke-width="0.03" stroke="#000000" fill="none"/>
<path d="M12.138281249999999 10.883740752043025L11.9296875 10.763309094329252L11.616796874999999 10.943956580899911L11.616796874999999 11.184819896327458" stroke-width="0.03" stroke="#000000" fill="none"/>
<path d="M11.616796874999999 10.943956580899911L11.825390624999999 11.064388238613684" stroke-width="0.03" stroke="#000000" fill="none"/>
<path d="M11.303906249999999 11.365467382898117L12.555468750000001 12.08805732918076" stroke-width="0.03" stroke="#000000" fill="none"/>
<path d="M13.285546875 14.195611339171796L11.616796874999999 15.159064600881985" stroke-width="0.03" stroke="#000000" fill="none"/>
<path d="M11.408203125 15.038632943168212L14.537109375 13.232158077461609L14.64140625 13.292373906318495L14.64140625 14.014963852601136" stroke-width="0.03" stroke="#000000" fill="none"/>
<path d="M14.537109375 13.95474802374425L14.537109375 13.232158077461609" stroke-width="0.03" stroke="#000000" fill="none"/>
<path d="M14.64140625 13.292373906318495L14.85 13.171942248604722L15.05859375 13.292373906318495L15.162890625 13.232158077461609L18.291796875 15.038632943168212" stroke-width="0.03" stroke="#000000" fill="none"/>
<path d="M18.083203125 15.159064600881985L16.414453125 14.195611339171796L16.1015625 14.376258825742458L16.1015625 14.617122141170004L17.7703125 15.580575402880193L17.874609375000002 15.520359574023306" stroke-width="0.03" stroke="#000000" fill="none"/>
<path d="M17.7703125 15.580575402880193L17.7703125 15.339712087452645L21.420703125 13.232158077461609L24.758203125 15.159064600881985L24.758203125 15.279496258595758L24.8625 15.339712087452645L24.8625 19.193525134293395L21.212109374999997 21.301079144284433L21.003515625000002 21.18064748657066L21.107812499999998 21.120431657713773" stroke-width="0.03" stroke="#000000" fill="none"/>
<path d="M21.003515625000002 21.18064748657066L21.003515625000002 23.107554009991038L21.212109374999997 23.227985667704807L21.525000000000002 23.047338181134148L21.525000000000002 21.120431657713773" stroke-width="0.03" stroke="#000000" fill="none"/>
<path d="M21.733593749999997 21L21.733593749999997 24.612949731413206L21.629296875 24.673165560270093L21.629296875 24.914028875697635L21.420703125 25.034460533411412L21.420703125 25.154892191125185L18.291796875 26.96136705683179" stroke-width="0.03" stroke="#000000" fill="none"/>
<path d="M18.291796875 26.72050374140424L19.960546875000002 25.75705047969405L19.960546875000002 25.39575550655273L19.751953125 25.27532384883896L18.083203125 26.238777110549147L18.083203125 26.359208768262917" stroke-width="0.03" stroke="#000000" fill="none"/>
<path d="M18.083203125 26.238777110549147L18.291796875 26.359208768262917L18.291796875 30.574316788244992L14.954296875 32.50122331166537L14.85 32.44100748280849L14.745703124999999 32.50122331166537L11.408203125 30.574316788244992L11.408203125 26.359208768262917L11.616796874999999 26.238777110549147L11.616796874999999 26.359208768262917" stroke-width="0.03" stroke="#000000" fill="none"/>
<path d="M11.616796874999999 26.238777110549147L9.948046875 25.27532384883896L9.739453124999999 25.39575550655273L9.739453124999999 25.75705047969405L11.408203125 26.72050374140424" stroke-width="0.03" stroke="#000000" fill="none"/>
<path d="M11.408203125 26.96136705683179L8.279296875 25.154892191125185L8.279296875 25.034460533411412L8.070703124999998 24.914028875697635L8.070703124999998 24.673165560270093L7.96640625 24.612949731413206L7.96640625 21" stroke-width="0.03" stroke="#000000" fill="none"/>
<path d="M8.175 21.120431657713773L8.175 23.047338181134148L8.487890625 23.227985667704807L8.696484375 23.107554009991038L8.696484375 21.18064748657066L8.5921875 21.120431657713773" stroke-width="0.03" stroke="#000000" fill="none"/>
<path d="M8.5921875 21.240863315427546L8.5921875 20.277410053717357" stroke-width="0.03" stroke="#000000" fill="none"/>
<path d="M8.487890625 20.21719422486047L8.487890625 23.227985667704807" stroke-width="0.03" stroke="#000000" fill="none"/>
<path d="M8.487890625 23.709712298559904L8.279296875 23.830143956273677L8.279296875 24.071007271701223L8.905078125 24.432302244842543L8.905078125 25.154892191125185L9.113671875 25.27532384883896L9.322265625 25.154892191125185L9.322265625 24.673165560270093" stroke-width="0.03" stroke="#000000" fill="none"/>
<path d="M9.113671875 24.55273390255632L9.113671875 25.27532384883896" stroke-width="0.03" stroke="#000000" fill="none"/>
<path d="M8.905078125 24.793597217983862L8.279296875 25.154892191125185" stroke-width="0.03" stroke="#000000" fill="none"/>
<path d="M8.279296875 25.034460533411412L8.905078125 24.673165560270093" stroke-width="0.03" stroke="#000000" fill="none"/>
<path d="M9.113671875 24.55273390255632L10.991015625000001 25.636618821980278L11.095312499999999 25.576402993123395L11.095312499999999 25.335539677695845L10.46953125 24.974244704554525L10.46953125 24.010791442844337L11.512500000000001 23.40863315427547L14.015625 24.85381304684075L14.015625 26.780719570261127L13.181249999999999 27.26244620111622" stroke-width="0.03" stroke="#000000" fill="none"/>
<path d="M12.97265625 27.142014543402446L12.97265625 25.45597133540962L12.659765624999999 25.27532384883896" stroke-width="0.03" stroke="#000000" fill="none"/>
<path d="M12.555468750000001 24.974244704554525L12.659765624999999 24.914028875697635L12.451171875 24.793597217983862L12.346874999999999 24.85381304684075L12.346874999999999 26.901151227974903L9.739453124999999 25.39575550655273" stroke-width="0.03" stroke="#000000" fill="none"/>
<path d="M10.46953125 25.335539677695845L10.46953125 25.576402993123395" stroke-width="0.03" stroke="#000000" fill="none"/>
<path d="M10.991015625000001 25.636618821980278L10.991015625000001 25.39575550655273L11.095312499999999 25.335539677695845" stroke-width="0.03" stroke="#000000" fill="none"/>
<path d="M10.991015625000001 25.39575550655273L9.113671875 24.311870587128773L9.113671875 22.14410074828085L9.21796875 22.08388491942396L9.009374999999999 21.96345326171019L8.905078125 22.023669090567072L8.905078125 24.191438929414996L8.279296875 23.830143956273677" stroke-width="0.03" stroke="#000000" fill="none"/>
<path d="M8.487890625 23.709712298559904L8.905078125 23.95057561398745" stroke-width="0.03" stroke="#000000" fill="none"/>
<path d="M9.322265625 23.95057561398745L10.782421874999999 23.107554009991038L10.782421874999999 23.348417325418584L10.991015625000001 23.468848983132357L9.530859375 24.311870587128773" stroke-width="0.03" stroke="#000000" fill="none"/>
<path d="M9.63515625 24.37208641598566L10.991015625000001 23.58928064084613" stroke-width="0.03" stroke="#000000" fill="none"/>
<path d="M10.991015625000001 23.709712298559904L10.991015625000001 23.227985667704807L10.573828124999999 22.98712235227726" stroke-width="0.03" stroke="#000000" fill="none"/>
<path d="M10.678125 23.047338181134148L9.322265625 23.830143956273677" stroke-width="0.03" stroke="#000000" fill="none"/>
<path d="M9.322265625 24.191438929414996L9.322265625 22.866690694563488" stroke-width="0.03" stroke="#000000" fill="none"/>
<path d="M9.21796875 22.8064748657066L9.21796875 22.08388491942396" stroke-width="0.03" stroke="#000000" fill="none"/>
<path d="M9.113671875 22.14410074828085L8.905078125 22.023669090567072" stroke-width="0.03" stroke="#000000" fill="none"/>
<path d="M8.696484375 22.50539572142217L8.905078125 22.62582737913594" stroke-width="0.03" stroke="#000000" fill="none"/>
<path d="M9.21796875 22.8064748657066L10.05234375 23.288201496561694L11.095312499999999 22.686043207992828L11.095312499999999 19.795683422862265L9.4265625 18.832230161152076L8.5921875 19.31395679200717" stroke-width="0.03" stroke="#000000" fill="none"/>
<path d="M8.5921875 19.554820107434715L10.05234375 20.397841711431134L10.05234375 20.759136684572454" stroke-width="0.03" stroke="#000000" fill="none"/>
<path d="M10.260937499999999 21L10.365234375 20.939784171143113L10.365234375 21.18064748657066L10.260937499999999 21.240863315427546L8.487890625 20.21719422486047" stroke-width="0.03" stroke="#000000" fill="none"/>
<path d="M8.487890625 19.976330909432924L8.5921875 19.916115080576038L8.5921875 17.26661861087302L10.782421874999999 16.0020862048784L12.555468750000001 17.025755295445475L12.555468750000001 17.146186953159244L12.7640625 17.025755295445475L12.7640625 16.905323637731698L10.991015625000001 15.881654547164626L13.598437500000001 14.376258825742458L13.285546875 14.195611339171796" stroke-width="0.03" stroke="#000000" fill="none"/>
<path d="M13.598437500000001 14.376258825742458L13.598437500000001 14.617122141170004L11.9296875 15.580575402880193L11.825390624999999 15.520359574023306" stroke-width="0.03" stroke="#000000" fill="none"/>
<path d="M11.9296875 15.580575402880193L11.9296875 15.339712087452645L8.279296875 13.232158077461609L4.941796875 15.159064600881985L4.941796875 15.279496258595758L9.21796875 17.748345241728117L9.21796875 17.025755295445475" stroke-width="0.03" stroke="#000000" fill="none"/>
<path d="M8.5921875 17.26661861087302L4.941796875 15.159064600881985" stroke-width="0.03" stroke="#000000" fill="none"/>
<path d="M4.941796875 15.279496258595758L4.8374999999999995 15.339712087452645L4.8374999999999995 19.193525134293395L8.487890625 21.301079144284433L8.696484375 21.18064748657066" stroke-width="0.03" stroke="#000000" fill="none"/>
<path d="M8.487890625 19.976330909432924L8.487890625 17.44726609744368L10.782421874999999 16.122517862592172L12.555468750000001 17.146186953159244" stroke-width="0.03" stroke="#000000" fill="none"/>
<path d="M12.555468750000001 17.025755295445475L12.7640625 16.905323637731698" stroke-width="0.03" stroke="#000000" fill="none"/>
<path d="M12.555468750000001 16.784891980017925L14.4328125 15.701007060593964L14.4328125 16.905323637731698L11.9296875 18.350503530296983L10.260937499999999 17.387050268586794L10.260937499999999 16.423597006876605" stroke-width="0.03" stroke="#000000" fill="none"/>
<path d="M10.46953125 16.303165349162832L11.9296875 17.146186953159244L12.242578125 16.965539466588588" stroke-width="0.03" stroke="#000000" fill="none"/>
<path d="M11.9296875 17.146186953159244L11.9296875 18.350503530296983" stroke-width="0.03" stroke="#000000" fill="none"/>
<path d="M12.033984375000001 18.290287701440096L13.494140625 19.13330930543651L13.494140625 19.01287764772274L14.64140625 18.350503530296983L14.85 18.470935188010756L15.05859375 18.350503530296983L16.205859375 19.01287764772274L16.205859375 19.13330930543651L17.666015625 18.290287701440096" stroke-width="0.03" stroke="#000000" fill="none"/>
<path d="M17.7703125 18.350503530296983L19.439062500000002 17.387050268586794L19.439062500000002 16.423597006876605" stroke-width="0.03" stroke="#000000" fill="none"/>
<path d="M19.23046875 16.303165349162832L17.7703125 17.146186953159244L17.457421875 16.965539466588588" stroke-width="0.03" stroke="#000000" fill="none"/>
<path d="M17.14453125 17.025755295445475L18.917578125000002 16.0020862048784L21.107812499999998 17.26661861087302L21.107812499999998 19.916115080576038L21.212109374999997 19.976330909432924L19.439062500000002 21L19.334765625 20.939784171143113L19.334765625 21.18064748657066L19.439062500000002 21.240863315427546L21.212109374999997 20.21719422486047L21.212109374999997 23.227985667704807" stroke-width="0.03" stroke="#000000" fill="none"/>
<path d="M21.212109374999997 23.709712298559904L20.794921875 23.95057561398745" stroke-width="0.03" stroke="#000000" fill="none"/>
<path d="M20.794921875 24.191438929414996L21.420703125 23.830143956273677L21.420703125 24.071007271701223L20.794921875 24.432302244842543L20.794921875 25.154892191125185L20.586328125 25.27532384883896L20.377734375 25.154892191125185L20.377734375 24.673165560270093" stroke-width="0.03" stroke="#000000" fill="none"/>
<path d="M20.586328125 24.55273390255632L18.708984375 25.636618821980278L18.6046875 25.576402993123395L18.6046875 25.335539677695845L19.23046875 24.974244704554525L19.23046875 24.010791442844337L18.1875 23.40863315427547L15.684375 24.85381304684075L15.684375 26.780719570261127L16.51875 27.26244620111622" stroke-width="0.03" stroke="#000000" fill="none"/>
<path d="M16.72734375 27.142014543402446L16.72734375 25.45597133540962L17.040234375 25.27532384883896" stroke-width="0.03" stroke="#000000" fill="none"/>
<path d="M17.14453125 24.974244704554525L17.353125 24.85381304684075L17.248828125 24.793597217983862L17.040234375 24.914028875697635L17.040234375 26.96136705683179L17.14453125 27.021582885688677L14.954296875 28.286115291683295L12.659765624999999 26.96136705683179L12.659765624999999 24.914028875697635" stroke-width="0.03" stroke="#000000" fill="none"/>
<path d="M12.555468750000001 24.974244704554525L12.555468750000001 27.021582885688677L14.745703124999999 28.286115291683295L17.040234375 26.96136705683179" stroke-width="0.03" stroke="#000000" fill="none"/>
<path d="M17.14453125 27.021582885688677L17.14453125 24.974244704554525L17.040234375 24.914028875697635" stroke-width="0.03" stroke="#000000" fill="none"/>
<path d="M17.353125 24.85381304684075L17.353125 26.901151227974903L19.960546875000002 25.39575550655273" stroke-width="0.03" stroke="#000000" fill="none"/>
<path d="M20.586328125 25.27532384883896L20.586328125 24.55273390255632" stroke-width="0.03" stroke="#000000" fill="none"/>
<path d="M20.794921875 24.673165560270093L21.420703125 25.034460533411412" stroke-width="0.03" stroke="#000000" fill="none"/>
<path d="M21.420703125 25.154892191125185L20.794921875 24.793597217983862" stroke-width="0.03" stroke="#000000" fill="none"/>
<path d="M20.794921875 24.432302244842543L21.629296875 24.914028875697635" stroke-width="0.03" stroke="#000000" fill="none"/>
<path d="M21.629296875 24.673165560270093L21.003515625000002 24.311870587128773" stroke-width="0.03" stroke="#000000" fill="none"/>
<path d="M21.107812499999998 24.251654758271883L21.733593749999997 24.612949731413206" stroke-width="0.03" stroke="#000000" fill="none"/>
<path d="M21.420703125 23.830143956273677L21.212109374999997 23.709712298559904" stroke-width="0.03" stroke="#000000" fill="none"/>
<path d="M20.794921875 24.191438929414996L20.794921875 22.023669090567072L20.690625 21.96345326171019L20.482031250000002 22.08388491942396L20.482031250000002 22.8064748657066L19.647656249999997 23.288201496561694L18.6046875 22.686043207992828L18.6046875 19.795683422862265L20.2734375 18.832230161152076L21.107812499999998 19.31395679200717" stroke-width="0.03" stroke="#000000" fill="none"/>
<path d="M21.107812499999998 19.554820107434715L19.647656249999997 20.397841711431134L19.647656249999997 20.759136684572454" stroke-width="0.03" stroke="#000000" fill="none"/>
<path d="M19.439062500000002 21L19.439062500000002 21.240863315427546" stroke-width="0.03" stroke="#000000" fill="none"/>
<path d="M19.647656249999997 21.120431657713773L19.647656249999997 23.288201496561694" stroke-width="0.03" stroke="#000000" fill="none"/>
<path d="M19.126171875 22.98712235227726L18.708984375 23.227985667704807L18.708984375 23.709712298559904" stroke-width="0.03" stroke="#000000" fill="none"/>
<path d="M18.708984375 23.58928064084613L20.064843749999998 24.37208641598566" stroke-width="0.03" stroke="#000000" fill="none"/>
<path d="M20.169140624999997 24.311870587128773L18.708984375 23.468848983132357L18.917578125000002 23.348417325418584L18.917578125000002 23.107554009991038L20.377734375 23.95057561398745" stroke-width="0.03" stroke="#000000" fill="none"/>
<path d="M20.377734375 23.830143956273677L19.021874999999998 23.047338181134148" stroke-width="0.03" stroke="#000000" fill="none"/>
<path d="M18.708984375 23.227985667704807L20.586328125 24.311870587128773L18.708984375 25.39575550655273L18.6046875 25.335539677695845" stroke-width="0.03" stroke="#000000" fill="none"/>
<path d="M18.708984375 25.39575550655273L18.708984375 25.636618821980278" stroke-width="0.03" stroke="#000000" fill="none"/>
<path d="M19.23046875 25.576402993123395L19.23046875 25.335539677695845" stroke-width="0.03" stroke="#000000" fill="none"/>
<path d="M19.23046875 24.85381304684075L20.377734375 24.191438929414996L20.377734375 22.866690694563488" stroke-width="0.03" stroke="#000000" fill="none"/>
<path d="M20.794921875 22.62582737913594L21.003515625000002 22.50539572142217" stroke-width="0.03" stroke="#000000" fill="none"/>
<path d="M20.794921875 22.023669090567072L20.586328125 22.14410074828085L20.586328125 24.311870587128773" stroke-width="0.03" stroke="#000000" fill="none"/>
<path d="M19.23046875 24.010791442844337L17.353125 25.0946763622683" stroke-width="0.03" stroke="#000000" fill="none"/>
<path d="M16.72734375 25.45597133540962L15.684375 24.85381304684075" stroke-width="0.03" stroke="#000000" fill="none"/>
<path d="M15.788671874999999 24.793597217983862L15.788671874999999 23.107554009991038L15.89296875 23.167769838847924L17.040234375 22.50539572142217L17.040234375 22.264532405994622L17.248828125 22.14410074828085L17.248828125 20.819352513429337L17.14453125 20.759136684572454L18.6046875 19.916115080576038" stroke-width="0.03" stroke="#000000" fill="none"/>
<path d="M18.6046875 19.795683422862265L19.647656249999997 20.397841711431134" stroke-width="0.03" stroke="#000000" fill="none"/>
<path d="M19.334765625 20.939784171143113L21.107812499999998 19.916115080576038" stroke-width="0.03" stroke="#000000" fill="none"/>
<path d="M21.212109374999997 19.976330909432924L21.212109374999997 17.44726609744368L18.917578125000002 16.122517862592172L18.917578125000002 16.0020862048784" stroke-width="0.03" stroke="#000000" fill="none"/>
<path d="M18.917578125000002 16.122517862592172L17.14453125 17.146186953159244L16.9359375 17.025755295445475L16.9359375 16.905323637731698L18.708984375 15.881654547164626L16.1015625 14.376258825742458" stroke-width="0.03" stroke="#000000" fill="none"/>
<path d="M15.684375 14.13539551031491L15.267187499999999 14.376258825742458" stroke-width="0.03" stroke="#000000" fill="none"/>
<path d="M15.05859375 14.255827168028683L15.684375 13.894532194887363L15.47578125 13.77410053717359L14.85 14.13539551031491L14.224218749999999 13.77410053717359L14.015625 13.894532194887363L14.015625 14.13539551031491L14.4328125 14.376258825742458" stroke-width="0.03" stroke="#000000" fill="none"/>
<path d="M14.64140625 14.255827168028683L12.7640625 15.339712087452645L12.7640625 15.460143745166418L12.97265625 15.580575402880193L13.598437500000001 15.21928042973887L14.4328125 15.701007060593964" stroke-width="0.03" stroke="#000000" fill="none"/>
<path d="M14.4328125 16.303165349162832L14.85 16.54402866459038L15.267187499999999 16.303165349162832" stroke-width="0.03" stroke="#000000" fill="none"/>
<path d="M15.162890625 16.36338117801972L15.162890625 14.797769627740664" stroke-width="0.03" stroke="#000000" fill="none"/>
<path d="M15.05859375 14.737553798883777L15.05859375 16.423597006876605L14.85 16.303165349162832L14.64140625 16.423597006876605L14.64140625 14.737553798883777" stroke-width="0.03" stroke="#000000" fill="none"/>
<path d="M14.537109375 14.797769627740664L14.537109375 16.36338117801972" stroke-width="0.03" stroke="#000000" fill="none"/>
<path d="M14.85 16.54402866459038L14.85 14.376258825742458L12.97265625 15.460143745166418L12.7640625 15.339712087452645" stroke-width="0.03" stroke="#000000" fill="none"/>
<path d="M12.97265625 15.460143745166418L12.97265625 15.580575402880193" stroke-width="0.03" stroke="#000000" fill="none"/>
<path d="M13.285546875 15.038632943168212L13.076953125000001 14.918201285454437" stroke-width="0.03" stroke="#000000" fill="none"/>
<path d="M13.702734374999999 15.279496258595758L14.85 14.617122141170004L15.997265625 15.279496258595758" stroke-width="0.03" stroke="#000000" fill="none"/>
<path d="M16.1015625 15.21928042973887L15.267187499999999 15.701007060593964L15.267187499999999 16.905323637731698L17.7703125 18.350503530296983L17.7703125 17.146186953159244" stroke-width="0.03" stroke="#000000" fill="none"/>
<path d="M17.14453125 17.146186953159244L17.14453125 17.025755295445475L16.9359375 16.905323637731698" stroke-width="0.03" stroke="#000000" fill="none"/>
<path d="M17.14453125 16.784891980017925L15.267187499999999 15.701007060593964" stroke-width="0.03" stroke="#000000" fill="none"/>
<path d="M16.1015625 15.21928042973887L16.72734375 15.580575402880193L16.9359375 15.460143745166418L16.9359375 15.339712087452645L15.05859375 14.255827168028683" stroke-width="0.03" stroke="#000000" fill="none"/>
<path d="M15.05859375 14.014963852601136L15.05859375 13.292373906318495" stroke-width="0.03" stroke="#000000" fill="none"/>
<path d="M15.162890625 13.232158077461609L15.162890625 13.95474802374425" stroke-width="0.03" stroke="#000000" fill="none"/>
<path d="M14.85 14.13539551031491L14.85 13.171942248604722" stroke-width="0.03" stroke="#000000" fill="none"/>
<path d="M14.64140625 14.255827168028683L14.015625 13.894532194887363" stroke-width="0.03" stroke="#000000" fill="none"/>
<path d="M14.85 14.376258825742458L16.72734375 15.460143745166418L16.9359375 15.339712087452645" stroke-width="0.03" stroke="#000000" fill="none"/>
<path d="M16.72734375 15.460143745166418L16.72734375 15.580575402880193" stroke-width="0.03" stroke="#000000" fill="none"/>
<path d="M16.414453125 15.038632943168212L16.623046875 14.918201285454437" stroke-width="0.03" stroke="#000000" fill="none"/>
<path d="M15.684375 14.13539551031491L15.684375 13.894532194887363" stroke-width="0.03" stroke="#000000" fill="none"/>
<path d="M17.14453125 12.08805732918076L18.396093750000002 11.365467382898117L18.396093750000002 12.8106472754634" stroke-width="0.03" stroke="#000000" fill="none"/>
<path d="M18.1875 12.690215617749628L18.1875 12.44935230232208L17.457421875 12.027841500323873L17.248828125 12.148273158037647" stroke-width="0.03" stroke="#000000" fill="none"/>
<path d="M17.14453125 12.08805732918076L20.2734375 13.894532194887363" stroke-width="0.03" stroke="#000000" fill="none"/>
<path d="M19.751953125 13.111726419747836L18.396093750000002 12.328920644608306" stroke-width="0.03" stroke="#000000" fill="none"/>
<path d="M18.1875 12.44935230232208L17.978906249999998 12.569783960035853" stroke-width="0.03" stroke="#000000" fill="none"/>
<path d="M18.396093750000002 11.967625671466987L20.064843749999998 12.931078933177174" stroke-width="0.03" stroke="#000000" fill="none"/>
<path d="M20.169140624999997 12.87086310432029L19.543359374999998 12.509568131178968L19.439062500000002 12.569783960035853" stroke-width="0.03" stroke="#000000" fill="none"/>
<path d="M19.334765625 13.352589735175382L21.733593749999997 11.967625671466987L23.193749999999998 12.8106472754634L23.506640625 12.629999788892741L23.923828125000004 12.87086310432029L23.923828125000004 12.991294762034062L23.715234375 13.111726419747836" stroke-width="0.03" stroke="#000000" fill="none"/>
<path d="M23.610937500000002 13.051510590890949L23.923828125000004 12.87086310432029" stroke-width="0.03" stroke="#000000" fill="none"/>
<path d="M23.610937500000002 13.051510590890949L24.23671875 13.412805564032269L24.23671875 14.617122141170004L24.028125 14.737553798883777" stroke-width="0.03" stroke="#000000" fill="none"/>
<path d="M24.758203125 15.159064600881985L21.107812499999998 17.26661861087302" stroke-width="0.03" stroke="#000000" fill="none"/>
<path d="M21.212109374999997 17.44726609744368L24.8625 15.339712087452645" stroke-width="0.03" stroke="#000000" fill="none"/>
<path d="M24.758203125 15.279496258595758L20.482031250000002 17.748345241728117L21.107812499999998 18.109640214869437" stroke-width="0.03" stroke="#000000" fill="none"/>
<path d="M20.482031250000002 17.748345241728117L20.482031250000002 17.025755295445475" stroke-width="0.03" stroke="#000000" fill="none"/>
<path d="M19.126171875 17.567697755157454L19.126171875 18.531151016867643L19.960546875000002 19.01287764772274" stroke-width="0.03" stroke="#000000" fill="none"/>
<path d="M19.126171875 18.531151016867643L15.05859375 20.879568342286227L15.05859375 19.67525176514849L14.85 19.554820107434715L14.64140625 19.67525176514849L14.64140625 20.879568342286227L13.598437500000001 21.481726630855093L12.451171875 20.819352513429337L12.451171875 22.14410074828085L12.659765624999999 22.264532405994622L12.659765624999999 22.50539572142217L13.80703125 23.167769838847924L13.911328125 23.107554009991038L13.911328125 24.793597217983862" stroke-width="0.03" stroke="#000000" fill="none"/>
<path d="M14.015625 24.85381304684075L12.97265625 25.45597133540962" stroke-width="0.03" stroke="#000000" fill="none"/>
<path d="M12.555468750000001 24.974244704554525L12.346874999999999 24.85381304684075" stroke-width="0.03" stroke="#000000" fill="none"/>
<path d="M12.346874999999999 25.0946763622683L10.46953125 24.010791442844337" stroke-width="0.03" stroke="#000000" fill="none"/>
<path d="M10.05234375 23.288201496561694L10.05234375 21.120431657713773" stroke-width="0.03" stroke="#000000" fill="none"/>
<path d="M10.260937499999999 21L10.260937499999999 21.240863315427546" stroke-width="0.03" stroke="#000000" fill="none"/>
<path d="M10.260937499999999 21L8.487890625 19.976330909432924" stroke-width="0.03" stroke="#000000" fill="none"/>
<path d="M8.5921875 19.916115080576038L10.365234375 20.939784171143113" stroke-width="0.03" stroke="#000000" fill="none"/>
<path d="M10.05234375 20.397841711431134L11.095312499999999 19.795683422862265" stroke-width="0.03" stroke="#000000" fill="none"/>
<path d="M11.095312499999999 19.916115080576038L12.555468750000001 20.759136684572454L12.451171875 20.819352513429337" stroke-width="0.03" stroke="#000000" fill="none"/>
<path d="M13.598437500000001 21.481726630855093L13.598437500000001 21.72258994628264L13.80703125 21.843021603996412L13.80703125 23.167769838847924" stroke-width="0.03" stroke="#000000" fill="none"/>
<path d="M13.80703125 21.843021603996412L14.85 21.240863315427546L15.89296875 21.843021603996412L16.1015625 21.72258994628264L16.1015625 21.481726630855093L17.248828125 20.819352513429337" stroke-width="0.03" stroke="#000000" fill="none"/>
<path d="M16.1015625 21.481726630855093L15.05859375 20.879568342286227" stroke-width="0.03" stroke="#000000" fill="none"/>
<path d="M14.85 21L13.598437500000001 21.72258994628264" stroke-width="0.03" stroke="#000000" fill="none"/>
<path d="M14.64140625 20.879568342286227L10.573828124999999 18.531151016867643L10.573828124999999 17.567697755157454" stroke-width="0.03" stroke="#000000" fill="none"/>
<path d="M10.573828124999999 18.531151016867643L9.739453124999999 19.01287764772274" stroke-width="0.03" stroke="#000000" fill="none"/>
<path d="M9.21796875 17.748345241728117L8.5921875 18.109640214869437" stroke-width="0.03" stroke="#000000" fill="none"/>
<path d="M8.487890625 17.44726609744368L4.8374999999999995 15.339712087452645" stroke-width="0.03" stroke="#000000" fill="none"/>
<path d="M4.62890625 16.062302033735286L3.5859375 16.66446032230415L3.5859375 17.387050268586794L3.2730468750000017 17.206402782016134L3.3773437500000005 17.146186953159244L3.5859375 17.26661861087302" stroke-width="0.03" stroke="#000000" fill="none"/>
<path d="M3.2730468750000017 17.206402782016134L3.2730468750000017 17.688129412871227L3.5859375 17.86877689944189L3.5859375 19.554820107434715L5.984765624999999 20.939784171143113" stroke-width="0.03" stroke="#000000" fill="none"/>
<path d="M5.567578125 20.698920855715564L5.567578125 22.264532405994622" stroke-width="0.03" stroke="#000000" fill="none"/>
<path d="M5.776171874999998 22.384964063708395L5.984765624999999 22.264532405994622" stroke-width="0.03" stroke="#000000" fill="none"/>
<path d="M5.984765624999999 22.50539572142217L5.776171874999998 22.384964063708395L5.776171874999998 23.227985667704807L5.984765624999999 23.348417325418584" stroke-width="0.03" stroke="#000000" fill="none"/>
<path d="M5.984765624999999 23.468848983132357L5.984765624999999 19.85589925171915" stroke-width="0.03" stroke="#000000" fill="none"/>
<path d="M5.254687500000001 20.518273369144907L5.254687500000001 22.44517989256528" stroke-width="0.03" stroke="#000000" fill="none"/>
<path d="M4.733203124999998 22.746259036849715L5.984765624999999 22.023669090567072" stroke-width="0.03" stroke="#000000" fill="none"/>
<path d="M5.254687500000001 21.240863315427546L5.150390625 21.18064748657066L5.150390625 20.458057540288017" stroke-width="0.03" stroke="#000000" fill="none"/>
<path d="M4.733203124999998 22.746259036849715L4.733203124999998 25.39575550655273" stroke-width="0.03" stroke="#000000" fill="none"/>
<path d="M4.524609375000001 25.27532384883896L4.733203124999998 25.154892191125185" stroke-width="0.03" stroke="#000000" fill="none"/>
<path d="M4.524609375000001 25.27532384883896L4.524609375000001 25.51618716426651L5.776171874999998 26.238777110549147L5.776171874999998 27.68395700311443L5.984765624999999 27.804388660828202L6.193359375 27.68395700311443" stroke-width="0.03" stroke="#000000" fill="none"/>
<path d="M5.984765624999999 27.804388660828202L5.984765624999999 26.118345452835374L4.524609375000001 25.27532384883896" stroke-width="0.03" stroke="#000000" fill="none"/>
<path d="M4.733203124999998 23.709712298559904L4.524609375000001 23.58928064084613L4.524609375000001 23.227985667704807L4.733203124999998 23.107554009991038" stroke-width="0.03" stroke="#000000" fill="none"/>
<path d="M4.524609375000001 23.227985667704807L4.733203124999998 23.348417325418584" stroke-width="0.03" stroke="#000000" fill="none"/>
<path d="M4.733203124999998 22.746259036849715L5.984765624999999 23.468848983132357" stroke-width="0.03" stroke="#000000" fill="none"/>
<path d="M7.96640625 24.612949731413206L8.5921875 24.251654758271883" stroke-width="0.03" stroke="#000000" fill="none"/>
<path d="M8.696484375 24.311870587128773L8.070703124999998 24.673165560270093" stroke-width="0.03" stroke="#000000" fill="none"/>
<path d="M8.070703124999998 24.914028875697635L8.905078125 24.432302244842543" stroke-width="0.03" stroke="#000000" fill="none"/>
<path d="M9.113671875 24.311870587128773L10.991015625000001 23.227985667704807" stroke-width="0.03" stroke="#000000" fill="none"/>
<path d="M10.46953125 24.85381304684075L9.322265625 24.191438929414996" stroke-width="0.03" stroke="#000000" fill="none"/>
<path d="M11.512500000000001 26.29899293940603L12.346874999999999 26.780719570261127" stroke-width="0.03" stroke="#000000" fill="none"/>
<path d="M12.555468750000001 27.021582885688677L12.659765624999999 26.96136705683179" stroke-width="0.03" stroke="#000000" fill="none"/>
<path d="M14.015625 26.419424597119807L14.85 25.937697966264714L15.684375 26.419424597119807" stroke-width="0.03" stroke="#000000" fill="none"/>
<path d="M14.85 25.937697966264714L14.85 21.240863315427546" stroke-width="0.03" stroke="#000000" fill="none"/>
<path d="M14.85 21L14.85 19.554820107434715" stroke-width="0.03" stroke="#000000" fill="none"/>
<path d="M15.05859375 19.67525176514849L16.205859375 19.01287764772274" stroke-width="0.03" stroke="#000000" fill="none"/>
<path d="M14.64140625 19.67525176514849L13.494140625 19.01287764772274" stroke-width="0.03" stroke="#000000" fill="none"/>
<path d="M14.85 21L16.1015625 21.72258994628264" stroke-width="0.03" stroke="#000000" fill="none"/>
<path d="M15.89296875 21.843021603996412L15.89296875 23.167769838847924" stroke-width="0.03" stroke="#000000" fill="none"/>
<path d="M18.1875 26.29899293940603L17.353125 26.780719570261127" stroke-width="0.03" stroke="#000000" fill="none"/>
<path d="M15.47578125 27.864604489685092L14.85 27.50330951654377L14.224218749999999 27.864604489685092" stroke-width="0.03" stroke="#000000" fill="none"/>
<path d="M14.745703124999999 28.286115291683295L14.745703124999999 32.50122331166537" stroke-width="0.03" stroke="#000000" fill="none"/>
<path d="M14.85 32.44100748280849L14.85 27.50330951654377" stroke-width="0.03" stroke="#000000" fill="none"/>
<path d="M14.954296875 28.286115291683295L14.954296875 32.50122331166537" stroke-width="0.03" stroke="#000000" fill="none"/>
<path d="M15.684375 32.32057582509471L15.684375 32.07971250966716" stroke-width="0.03" stroke="#000000" fill="none"/>
<path d="M15.684375 32.32057582509471L16.72734375 32.92273411366358L17.353125 32.56143914052225L17.353125 32.92273411366358L17.7703125 32.68187079823603L17.7703125 32.32057582509471L19.23046875 31.477554221098295L19.23046875 28.7076260936815" stroke-width="0.03" stroke="#000000" fill="none"/>
<path d="M19.23046875 29.189352724536597L20.586328125 28.40654694939707" stroke-width="0.03" stroke="#000000" fill="none"/>
<path d="M20.586328125 28.165683633969522L21.31640625 27.744172831971316L21.31640625 27.50330951654377" stroke-width="0.03" stroke="#000000" fill="none"/>
<path d="M21.420703125 27.443093687686883L18.291796875 29.249568553393484" stroke-width="0.03" stroke="#000000" fill="none"/>
<path d="M19.23046875 29.550647697677917L20.89921875 28.58719443596773" stroke-width="0.03" stroke="#000000" fill="none"/>
<path d="M20.586328125 28.165683633969522L20.586328125 27.92482031854198" stroke-width="0.03" stroke="#000000" fill="none"/>
<path d="M20.586328125 28.165683633969522L20.377734375 28.04525197625575" stroke-width="0.03" stroke="#000000" fill="none"/>
<path d="M20.169140624999997 28.165683633969522L21.420703125 28.888273580252164L23.715234375 27.563525345400656" stroke-width="0.03" stroke="#000000" fill="none"/>
<path d="M23.715234375 27.804388660828202L23.923828125000004 27.68395700311443L23.923828125000004 26.238777110549147L25.175390624999995 25.51618716426651L25.175390624999995 25.27532384883896L24.966796875000004 25.154892191125185" stroke-width="0.03" stroke="#000000" fill="none"/>
<path d="M25.175390624999995 25.27532384883896L23.715234375 26.118345452835374L23.715234375 27.804388660828202L23.506640625 27.68395700311443" stroke-width="0.03" stroke="#000000" fill="none"/>
<path d="M22.255078124999997 28.40654694939707L22.255078124999997 28.647410264824618L21.9421875 28.828057751395274L21.733593749999997 28.7076260936815" stroke-width="0.03" stroke="#000000" fill="none"/>
<path d="M21.9421875 28.58719443596773L21.9421875 28.828057751395274" stroke-width="0.03" stroke="#000000" fill="none"/>
<path d="M21.420703125 28.888273580252164L21.420703125 27.443093687686883" stroke-width="0.03" stroke="#000000" fill="none"/>
<path d="M19.85625 29.189352724536597L19.85625 29.30978438225037L19.23046875 29.67107935539169" stroke-width="0.03" stroke="#000000" fill="none"/>
<path d="M16.72734375 31.477554221098295L16.72734375 32.92273411366358" stroke-width="0.03" stroke="#000000" fill="none"/>
<path d="M17.248828125 32.86251828480669L17.248828125 32.621654969379136" stroke-width="0.03" stroke="#000000" fill="none"/>
<path d="M17.248828125 32.86251828480669L17.353125 32.92273411366358" stroke-width="0.03" stroke="#000000" fill="none"/>
<path d="M17.040234375 33.34424491566179L15.684375 34.12705069080131L15.684375 34.608777321656405L16.1015625 34.84964063708395L17.457421875 34.06683486194443L17.457421875 33.58510823108933L17.040234375 33.34424491566179" stroke-width="0.03" stroke="#000000" fill="none"/>
<path d="M17.457421875 33.58510823108933L16.1015625 34.36791400622886L15.684375 34.12705069080131" stroke-width="0.03" stroke="#000000" fill="none"/>
<path d="M16.1015625 34.36791400622886L16.1015625 34.84964063708395" stroke-width="0.03" stroke="#000000" fill="none"/>
<path d="M14.015625 34.608777321656405L13.598437500000001 34.84964063708395L12.242578125 34.06683486194443L12.242578125 33.58510823108933L12.659765624999999 33.34424491566179L14.015625 34.12705069080131L14.015625 34.608777321656405" stroke-width="0.03" stroke="#000000" fill="none"/>
<path d="M14.015625 34.12705069080131L13.598437500000001 34.36791400622886L13.598437500000001 34.84964063708395" stroke-width="0.03" stroke="#000000" fill="none"/>
<path d="M13.598437500000001 34.36791400622886L12.242578125 33.58510823108933" stroke-width="0.03" stroke="#000000" fill="none"/>
<path d="M12.346874999999999 32.92273411366358L12.451171875 32.86251828480669L12.451171875 32.621654969379136" stroke-width="0.03" stroke="#000000" fill="none"/>
<path d="M12.346874999999999 32.56143914052225L12.346874999999999 32.92273411366358L11.9296875 32.68187079823603L11.9296875 32.32057582509471L10.46953125 31.477554221098295L10.46953125 28.7076260936815" stroke-width="0.03" stroke="#000000" fill="none"/>
<path d="M10.46953125 29.189352724536597L9.113671875 28.40654694939707" stroke-width="0.03" stroke="#000000" fill="none"/>
<path d="M9.113671875 28.165683633969522L9.322265625 28.04525197625575" stroke-width="0.03" stroke="#000000" fill="none"/>
<path d="M9.113671875 27.92482031854198L9.113671875 28.165683633969522L8.38359375 27.744172831971316L8.38359375 27.50330951654377" stroke-width="0.03" stroke="#000000" fill="none"/>
<path d="M8.279296875 27.443093687686883L8.279296875 28.888273580252164L5.984765624999999 27.563525345400656" stroke-width="0.03" stroke="#000000" fill="none"/>
<path d="M7.4449218749999995 28.40654694939707L7.4449218749999995 28.647410264824618L7.7578125 28.828057751395274L7.96640625 28.7076260936815" stroke-width="0.03" stroke="#000000" fill="none"/>
<path d="M7.7578125 28.58719443596773L7.7578125 28.828057751395274" stroke-width="0.03" stroke="#000000" fill="none"/>
<path d="M8.279296875 28.888273580252164L9.530859375 28.165683633969522" stroke-width="0.03" stroke="#000000" fill="none"/>
<path d="M8.80078125 28.58719443596773L10.46953125 29.550647697677917" stroke-width="0.03" stroke="#000000" fill="none"/>
<path d="M10.46953125 29.67107935539169L9.84375 29.30978438225037L9.84375 29.189352724536597" stroke-width="0.03" stroke="#000000" fill="none"/>
<path d="M11.408203125 29.249568553393484L8.279296875 27.443093687686883" stroke-width="0.03" stroke="#000000" fill="none"/>
<path d="M12.97265625 31.477554221098295L12.97265625 32.92273411366358L14.015625 32.32057582509471L14.015625 32.07971250966716" stroke-width="0.03" stroke="#000000" fill="none"/>
<path d="M12.97265625 32.92273411366358L12.346874999999999 32.56143914052225" stroke-width="0.03" stroke="#000000" fill="none"/>
<path d="M20.482031250000002 22.08388491942396L20.586328125 22.14410074828085" stroke-width="0.03" stroke="#000000" fill="none"/>
<path d="M21.107812499999998 21.240863315427546L21.107812499999998 20.277410053717357" stroke-width="0.03" stroke="#000000" fill="none"/>
<path d="M23.715234375 19.85589925171915L23.715234375 23.468848983132357L24.966796875000004 22.746259036849715L23.715234375 22.023669090567072" stroke-width="0.03" stroke="#000000" fill="none"/>
<path d="M23.715234375 22.264532405994622L23.923828125000004 22.384964063708395L23.923828125000004 23.227985667704807L23.715234375 23.348417325418584" stroke-width="0.03" stroke="#000000" fill="none"/>
<path d="M23.715234375 22.50539572142217L23.923828125000004 22.384964063708395" stroke-width="0.03" stroke="#000000" fill="none"/>
<path d="M24.132421875000002 22.264532405994622L24.132421875000002 20.698920855715564" stroke-width="0.03" stroke="#000000" fill="none"/>
<path d="M24.4453125 20.518273369144907L24.4453125 22.44517989256528" stroke-width="0.03" stroke="#000000" fill="none"/>
<path d="M24.966796875000004 22.746259036849715L24.966796875000004 25.39575550655273" stroke-width="0.03" stroke="#000000" fill="none"/>
<path d="M24.966796875000004 23.709712298559904L25.175390624999995 23.58928064084613L25.175390624999995 23.227985667704807L24.966796875000004 23.107554009991038" stroke-width="0.03" stroke="#000000" fill="none"/>
<path d="M25.175390624999995 23.227985667704807L24.966796875000004 23.348417325418584" stroke-width="0.03" stroke="#000000" fill="none"/>
<path d="M24.4453125 21.240863315427546L24.549609375 21.18064748657066L24.549609375 20.458057540288017" stroke-width="0.03" stroke="#000000" fill="none"/>
<path d="M23.715234375 20.939784171143113L26.1140625 19.554820107434715L26.1140625 17.86877689944189L26.426953124999997 17.688129412871227L26.426953124999997 17.206402782016134L26.322656249999998 17.146186953159244L26.1140625 17.26661861087302" stroke-width="0.03" stroke="#000000" fill="none"/>
<path d="M26.1140625 17.387050268586794L26.426953124999997 17.206402782016134" stroke-width="0.03" stroke="#000000" fill="none"/>
<path d="M26.1140625 17.387050268586794L26.1140625 16.66446032230415L25.07109375 16.062302033735286L24.8625 16.18273369144906" stroke-width="0.03" stroke="#000000" fill="none"/>
<path d="M24.8625 17.387050268586794L26.1140625 16.66446032230415" stroke-width="0.03" stroke="#000000" fill="none"/>
<path d="M26.635546875 16.72467615116104L26.635546875 15.159064600881985L27.052734375 14.918201285454437L27.469921874999997 15.159064600881985L27.469921874999997 16.72467615116104L27.052734375 16.965539466588588L26.635546875 16.72467615116104" stroke-width="0.03" stroke="#000000" fill="none"/>
<path d="M27.052734375 16.965539466588588L27.052734375 15.399927916309531L27.469921874999997 15.159064600881985" stroke-width="0.03" stroke="#000000" fill="none"/>
<path d="M27.052734375 15.399927916309531L26.635546875 15.159064600881985" stroke-width="0.03" stroke="#000000" fill="none"/>
<path d="M25.801171875 13.713884708316701L26.218359375 13.473021392889155L26.218359375 12.991294762034062L24.8625 12.208488986894533L24.4453125 12.44935230232208L24.4453125 12.931078933177174L25.801171875 13.713884708316701L25.801171875 13.232158077461609L26.218359375 12.991294762034062" stroke-width="0.03" stroke="#000000" fill="none"/>
<path d="M25.801171875 13.232158077461609L24.4453125 12.44935230232208" stroke-width="0.03" stroke="#000000" fill="none"/>
<path d="M24.23671875 13.412805564032269L22.98515625 14.13539551031491" stroke-width="0.03" stroke="#000000" fill="none"/>
<path d="M18.6046875 15.94187037602151L17.7703125 15.460143745166418" stroke-width="0.03" stroke="#000000" fill="none"/>
<path d="M18.396093750000002 11.365467382898117L16.1015625 10.04071914804661" stroke-width="0.03" stroke="#000000" fill="none"/>
<path d="M16.31015625 10.161150805760384L16.31015625 9.920287490332836" stroke-width="0.03" stroke="#000000" fill="none"/>
<path d="M17.56171875 10.883740752043025L17.7703125 10.763309094329252L18.083203125 10.943956580899911L18.083203125 11.184819896327458" stroke-width="0.03" stroke="#000000" fill="none"/>
<path d="M17.874609375000002 11.064388238613684L18.083203125 10.943956580899911" stroke-width="0.03" stroke="#000000" fill="none"/>
<path d="M11.9296875 15.460143745166418L11.095312499999999 15.94187037602151" stroke-width="0.03" stroke="#000000" fill="none"/>
<path d="M10.782421874999999 16.0020862048784L10.782421874999999 16.122517862592172" stroke-width="0.03" stroke="#000000" fill="none"/>
<path d="M9.530859375 12.87086310432029L10.156640625 12.509568131178968L10.260937499999999 12.569783960035853" stroke-width="0.03" stroke="#000000" fill="none"/>
<path d="M6.714843749999999 14.13539551031491L5.46328125 13.412805564032269L5.46328125 14.617122141170004L5.671875 14.737553798883777" stroke-width="0.03" stroke="#000000" fill="none"/>
<path d="M5.46328125 13.412805564032269L6.089062499999999 13.051510590890949L5.776171874999998 12.87086310432029L5.776171874999998 12.991294762034062L5.984765624999999 13.111726419747836" stroke-width="0.03" stroke="#000000" fill="none"/>
<path d="M3.898828125 13.232158077461609L3.898828125 13.713884708316701" stroke-width="0.03" stroke="#000000" fill="none"/>
<path d="M3.064453125 15.159064600881985L2.647265625000001 15.399927916309531L2.2300781249999995 15.159064600881985L2.2300781249999995 16.72467615116104L2.647265625000001 16.965539466588588L3.064453125 16.72467615116104L3.064453125 15.159064600881985L2.647265625000001 14.918201285454437L2.2300781249999995 15.159064600881985" stroke-width="0.03" stroke="#000000" fill="none"/>
<path d="M2.647265625000001 15.399927916309531L2.647265625000001 16.965539466588588" stroke-width="0.03" stroke="#000000" fill="none"/>
<path d="M3.5859375 16.66446032230415L4.8374999999999995 17.387050268586794" stroke-width="0.03" stroke="#000000" fill="none"/>
<path d="M4.8374999999999995 16.18273369144906L4.62890625 16.062302033735286" stroke-width="0.03" stroke="#000000" fill="none"/>
<path d="M4.794028657473483 3.383983116796798L4.541664778733942 3.383983116796798L4.7219246921193285 3.2037232034114123L4.757976674796406 3.149645229395796L4.776002666134945 3.113593246718719L4.776002666134945 3.077541264041642L4.757976674796406 3.041489281364565L4.739950683457867 3.023463290026026L4.7038987007807895 3.0054372986874878L4.631794735426635 3.0054372986874878L4.595742752749558 3.023463290026026L4.57771676141102 3.041489281364565L4.559690770072481 3.077541264041642L4.559690770072481 3.0955672553801805" stroke-width="0.03" stroke="#000000" fill="none"/>
<path d="M4.343378874010018 3.1856972120728733L4.397456848025634 3.167671220734335L4.415482839364172 3.149645229395796L4.433508830702711 3.113593246718719L4.433508830702711 3.077541264041642L4.415482839364172 3.041489281364565L4.397456848025634 3.023463290026026L4.343378874010018 3.0054372986874878L4.18114495196317 3.0054372986874878L4.18114495196317 3.383983116796798L4.343378874010018 3.383983116796798L4.397456848025634 3.3659571254582596L4.415482839364172 3.3479311341197207L4.433508830702711 3.3118791514426436L4.433508830702711 3.257801177427028L4.415482839364172 3.221749194749951L4.397456848025634 3.2037232034114123L4.343378874010018 3.1856972120728733L4.18114495196317 3.1856972120728733" stroke-width="0.03" stroke="#000000" fill="none"/>
<path d="M4.072989003931939 3.257801177427028L3.80259913385386 3.257801177427028L3.9828590472392458 3.0054372986874878L3.9828590472392458 3.383983116796798" stroke-width="0.03" stroke="#000000" fill="none"/>
<path d="M3.6764171944840895 3.1316192380572576L3.658391203145551 3.1856972120728733L3.622339220468474 3.221749194749951L3.568261246452858 3.2397751860884894L3.5502352551143197 3.2397751860884894L3.4961572810987036 3.221749194749951L3.4601052984216265 3.1856972120728733L3.442079307083088 3.1316192380572576L3.442079307083088 3.113593246718719L3.4601052984216265 3.0595152727031034L3.4961572810987036 3.023463290026026L3.5502352551143197 3.0054372986874878L3.568261246452858 3.0054372986874878L3.622339220468474 3.023463290026026L3.658391203145551 3.0595152727031034L3.6764171944840895 3.1316192380572576L3.6764171944840895 3.221749194749951L3.658391203145551 3.3118791514426436L3.622339220468474 3.3659571254582596L3.568261246452858 3.383983116796798L3.5322092637757807 3.383983116796798L3.478131289760165 3.3659571254582596L3.4601052984216265 3.3299051427811825" stroke-width="0.03" stroke="#000000" fill="none"/>
<path d="M3.225767411020625 3.383983116796798L3.225767411020625 3.0054372986874878L3.171689437005009 3.0595152727031034L3.1356374543279317 3.077541264041642" stroke-width="0.03" stroke="#000000" fill="none"/>
<path d="M2.811169610234237 3.0054372986874878L2.757091636218621 3.023463290026026L2.7390656448800828 3.0595152727031034L2.7390656448800828 3.0955672553801805L2.757091636218621 3.1316192380572576L2.7931436188956984 3.149645229395796L2.8652475842498526 3.167671220734335L2.9193255582654682 3.1856972120728733L2.955377540942546 3.221749194749951L2.9734035322810843 3.257801177427028L2.9734035322810843 3.3118791514426436L2.955377540942546 3.3479311341197207L2.9373515496040072 3.3659571254582596L2.883273575588391 3.383983116796798L2.811169610234237 3.383983116796798L2.757091636218621 3.3659571254582596L2.7390656448800828 3.3479311341197207L2.7210396535415438 3.3118791514426436L2.7210396535415438 3.257801177427028L2.7390656448800828 3.221749194749951L2.77511762755716 3.1856972120728733L2.8291956015727755 3.167671220734335L2.90129956692693 3.149645229395796L2.9373515496040072 3.1316192380572576L2.955377540942546 3.0955672553801805L2.955377540942546 3.0595152727031034L2.9373515496040072 3.023463290026026L2.883273575588391 3.0054372986874878L2.811169610234237 3.0054372986874878" stroke-width="0.03" stroke="#000000" fill="none"/>
<path d="M2.6128837055103125 3.1316192380572576L2.414597800786388 3.383983116796798" stroke-width="0.03" stroke="#000000" fill="none"/>
<path d="M2.6128837055103125 3.383983116796798L2.414597800786388 3.1316192380572576" stroke-width="0.03" stroke="#000000" fill="none"/>
<path d="M2.1622339220468474 3.0054372986874878L2.1081559480312317 3.023463290026026L2.072103965354154 3.077541264041642L2.0540779740156156 3.167671220734335L2.0540779740156156 3.221749194749951L2.072103965354154 3.3118791514426436L2.1081559480312317 3.3659571254582596L2.1622339220468474 3.383983116796798L2.1982859047239245 3.383983116796798L2.2523638787395406 3.3659571254582596L2.2884158614166177 3.3118791514426436L2.3064418527551562 3.221749194749951L2.3064418527551562 3.167671220734335L2.2884158614166177 3.077541264041642L2.2523638787395406 3.023463290026026L2.1982859047239245 3.0054372986874878L2.1622339220468474 3.0054372986874878" stroke-width="0.03" stroke="#000000" fill="none"/>
<path d="M2.1166666666666667 2.2291666666666665L2.1166666666666667 1.8208333333333333" stroke-width="0.03" stroke="#000000" fill="none"/>
<path d="M2.0875 1.6166666666666667L2.1166666666666667 1.6458333333333333L2.145833333333333 1.6166666666666667L2.1166666666666667 1.5875L2.0875 1.6166666666666667" stroke-width="0.03" stroke="#000000" fill="none"/>
<path d="M2.3208333333333333 2.1416666666666666L2.35 2.2L2.4375 2.2291666666666665L2.525 2.2291666666666665L2.6125 2.2L2.6416666666666666 2.1416666666666666L2.6416666666666666 2.1125L2.6125 2.0541666666666667L2.5541666666666667 2.025L2.408333333333333 1.9958333333333333L2.35 1.9666666666666666L2.3208333333333333 1.9083333333333332L2.35 1.85L2.4375 1.8208333333333333L2.525 1.8208333333333333L2.6125 1.85L2.6416666666666666 1.9083333333333332" stroke-width="0.03" stroke="#000000" fill="none"/>
<path d="M2.9625 1.8208333333333333L2.904166666666667 1.85L2.845833333333333 1.9083333333333332L2.8166666666666664 1.9958333333333333L2.8166666666666664 2.0541666666666667L2.845833333333333 2.1416666666666666L2.904166666666667 2.2L2.9625 2.2291666666666665L3.05 2.2291666666666665L3.1083333333333334 2.2L3.1666666666666665 2.1416666666666666L3.1958333333333333 2.0541666666666667L3.1958333333333333 1.9958333333333333L3.1666666666666665 1.9083333333333332L3.1083333333333334 1.85L3.05 1.8208333333333333L2.9625 1.8208333333333333" stroke-width="0.03" stroke="#000000" fill="none"/>
<path d="M3.283333333333333 2.2874999999999996L3.75 2.2874999999999996" stroke-width="0.03" stroke="#000000" fill="none"/>
<path d="M3.8375 2.1416666666666666L3.8666666666666663 2.2L3.9541666666666666 2.2291666666666665L4.041666666666666 2.2291666666666665L4.129166666666666 2.2L4.158333333333333 2.1416666666666666L4.158333333333333 2.1125L4.129166666666666 2.0541666666666667L4.070833333333333 2.025L3.925 1.9958333333333333L3.8666666666666663 1.9666666666666666L3.8375 1.9083333333333332L3.8666666666666663 1.85L3.9541666666666666 1.8208333333333333L4.041666666666666 1.8208333333333333L4.129166666666666 1.85L4.158333333333333 1.9083333333333332" stroke-width="0.03" stroke="#000000" fill="none"/>
<path d="M4.3625 1.9375L4.449999999999999 1.85L4.508333333333333 1.8208333333333333L4.595833333333333 1.8208333333333333L4.654166666666667 1.85L4.683333333333334 1.9375L4.683333333333334 2.2291666666666665" stroke-width="0.03" stroke="#000000" fill="none"/>
<path d="M4.3625 2.2291666666666665L4.3625 1.8208333333333333" stroke-width="0.03" stroke="#000000" fill="none"/>
<path d="M5.033333333333333 1.8208333333333333L4.975 1.85L4.916666666666666 1.9083333333333332L4.887499999999999 1.9958333333333333L4.887499999999999 2.0541666666666667L4.916666666666666 2.1416666666666666L4.975 2.2L5.033333333333333 2.2291666666666665L5.120833333333334 2.2291666666666665L5.179166666666666 2.2L5.2375 2.1416666666666666L5.266666666666666 2.0541666666666667L5.266666666666666 1.9958333333333333L5.2375 1.9083333333333332L5.179166666666666 1.85L5.120833333333334 1.8208333333333333L5.033333333333333 1.8208333333333333" stroke-width="0.03" stroke="#000000" fill="none"/>
<path d="M5.441666666666666 1.8208333333333333L5.558333333333334 2.2291666666666665L5.675 1.8208333333333333L5.791666666666666 2.2291666666666665L5.908333333333333 1.8208333333333333" stroke-width="0.03" stroke="#000000" fill="none"/>
<path d="M6.054166666666666 1.8208333333333333L6.258333333333333 1.8208333333333333" stroke-width="0.03" stroke="#000000" fill="none"/>
<path d="M6.2875 1.6166666666666667L6.229166666666666 1.6166666666666667L6.1708333333333325 1.6458333333333333L6.141666666666667 1.7333333333333334L6.141666666666667 2.2291666666666665" stroke-width="0.03" stroke="#000000" fill="none"/>
<path d="M6.4624999999999995 2.2291666666666665L6.4624999999999995 1.6166666666666667" stroke-width="0.03" stroke="#000000" fill="none"/>
<path d="M7.016666666666666 1.8208333333333333L7.016666666666666 2.2291666666666665" stroke-width="0.03" stroke="#000000" fill="none"/>
<path d="M7.016666666666666 2.1416666666666666L6.958333333333333 2.2L6.8999999999999995 2.2291666666666665L6.812499999999999 2.2291666666666665L6.754166666666666 2.2L6.695833333333333 2.1416666666666666L6.666666666666666 2.0541666666666667L6.666666666666666 1.9958333333333333L6.695833333333333 1.9083333333333332L6.754166666666666 1.85L6.812499999999999 1.8208333333333333L6.8999999999999995 1.8208333333333333L6.958333333333333 1.85L7.016666666666666 1.9083333333333332" stroke-width="0.03" stroke="#000000" fill="none"/>
<path d="M7.249999999999999 2.1125L7.541666666666666 1.8208333333333333" stroke-width="0.03" stroke="#000000" fill="none"/>
<path d="M7.366666666666666 1.9958333333333333L7.570833333333333 2.2291666666666665" stroke-width="0.03" stroke="#000000" fill="none"/>
<path d="M7.716666666666666 1.9958333333333333L8.066666666666666 1.9958333333333333L8.066666666666666 1.9375L8.0375 1.8791666666666667L8.008333333333333 1.85L7.949999999999999 1.8208333333333333L7.8625 1.8208333333333333L7.804166666666666 1.85L7.745833333333333 1.9083333333333332L7.716666666666666 1.9958333333333333L7.716666666666666 2.0541666666666667L7.745833333333333 2.1416666666666666L7.804166666666666 2.2L7.8625 2.2291666666666665L7.949999999999999 2.2291666666666665L8.008333333333333 2.2L8.066666666666666 2.1416666666666666" stroke-width="0.03" stroke="#000000" fill="none"/>
<path d="M8.475 2.2291666666666665L8.475 1.6166666666666667L8.3875 1.7041666666666666L8.329166666666666 1.7333333333333334" stroke-width="0.03" stroke="#000000" fill="none"/>
<path d="M7.249999999999999 1.6166666666666667L7.249999999999999 2.2291666666666665" stroke-width="0.03" stroke="#000000" fill="none"/>
<path d="M9.237499999999999 2.533333333333333L1.5 2.533333333333333" stroke-width="0.03" stroke="#000000" fill="none"/>
<path d="M4.938236588181791 3.0054372986874878L5.136522492905716 3.0054372986874878L5.028366544874484 3.149645229395796L5.0824445188901 3.149645229395796L5.1184965015671775 3.167671220734335L5.136522492905716 3.1856972120728733L5.154548484244255 3.2397751860884894L5.154548484244255 3.2758271687655665L5.136522492905716 3.3299051427811825L5.100470510228639 3.3659571254582596L5.046392536213023 3.383983116796798L4.992314562197407 3.383983116796798L4.938236588181791 3.3659571254582596L4.920210596843253 3.3479311341197207L4.902184605504715 3.3118791514426436" stroke-width="0.03" stroke="#000000" fill="none"/>
<path d="M5.262704432275486 3.3118791514426436L5.280730423614025 3.3479311341197207L5.298756414952564 3.3659571254582596L5.352834388968179 3.383983116796798L5.406912362983795 3.383983116796798L5.46099033699941 3.3659571254582596L5.497042319676488 3.3299051427811825L5.5150683110150265 3.2758271687655665L5.5150683110150265 3.2397751860884894L5.497042319676488 3.1856972120728733L5.479016328337949 3.167671220734335L5.442964345660872 3.149645229395796L5.388886371645256 3.149645229395796L5.497042319676488 3.0054372986874878L5.298756414952564 3.0054372986874878" stroke-width="0.03" stroke="#000000" fill="none"/>
</svg>
