<?xml version="1.0" standalone="no"?>
<svg width="29.7cm" height="42cm" version="1.1" xmlns="http://www.w3.org/2000/svg" viewBox="0.0 0.0 29.700001 42.000001">
<path d="M9.63515625 11.365467382898117L11.9296875 10.04071914804661L14.85 11.72676235603944L17.7703125 10.04071914804661L20.064843749999998 11.365467382898117L20.064843749999998 11.847194013753214L16.72734375 13.77410053717359L14.85 12.690215617749628L12.97265625 13.77410053717359L9.63515625 11.847194013753214L9.63515625 11.365467382898117L12.97265625 13.292373906318495L12.97265625 13.77410053717359" stroke-width="0.03" stroke="#000000" fill="none"/>
<path d="M13.076953125000001 13.713884708316701L13.076953125000001 14.195611339171796" stroke-width="0.03" stroke="#000000" fill="none"/>
<path d="M13.181249999999999 14.255827168028683L13.181249999999999 13.653668879459815" stroke-width="0.03" stroke="#000000" fill="none"/>
<path d="M12.97265625 13.292373906318495L14.85 12.208488986894533L16.72734375 13.292373906318495L16.72734375 13.77410053717359" stroke-width="0.03" stroke="#000000" fill="none"/>
<path d="M16.623046875 13.713884708316701L16.623046875 14.195611339171796" stroke-width="0.03" stroke="#000000" fill="none"/>
<path d="M16.51875 14.255827168028683L16.51875 13.653668879459815" stroke-width="0.03" stroke="#000000" fill="none"/>
<path d="M16.72734375 13.292373906318495L20.064843749999998 11.365467382898117" stroke-width="0.03" stroke="#000000" fill="none"/>
<path d="M18.917578125000002 13.352589735175382L18.81328125 13.412805564032269" stroke-width="0.03" stroke="#000000" fill="none"/>
<path d="M18.917578125000002 13.352589735175382L18.917578125000002 13.473021392889155" stroke-width="0.03" stroke="#000000" fill="none"/>
<path d="M18.917578125000002 13.352589735175382L18.1875 12.931078933177174" stroke-width="0.03" stroke="#000000" fill="none"/>
<path d="M18.396093750000002 13.171942248604722L16.414453125 14.31604299688557L16.414453125 15.640791231737078L17.978906249999998 16.54402866459038L19.126171875 15.881654547164626" stroke-width="0.03" stroke="#000000" fill="none"/>
<path d="M19.126171875 16.24294952030595L18.708984375 16.483812835733495L18.708984375 16.72467615116104" stroke-width="0.03" stroke="#000000" fill="none"/>
<path d="M18.708984375 16.483812835733495L18.396093750000002 16.303165349162832" stroke-width="0.03" stroke="#000000" fill="none"/>
<path d="M18.291796875 16.36338117801972L18.291796875 16.965539466588588" stroke-width="0.03" stroke="#000000" fill="none"/>
<path d="M18.1875 17.025755295445475L18.1875 16.423597006876605" stroke-width="0.03" stroke="#000000" fill="none"/>
<path d="M18.1875 16.54402866459038L18.291796875 16.60424449344727" stroke-width="0.03" stroke="#000000" fill="none"/>
<path d="M17.978906249999998 16.54402866459038L17.978906249999998 15.21928042973887L16.414453125 14.31604299688557" stroke-width="0.03" stroke="#000000" fill="none"/>
<path d="M16.414453125 14.556906312313117L15.47578125 14.014963852601136L14.85 14.376258825742458L14.224218749999999 14.014963852601136L13.285546875 14.556906312313117" stroke-width="0.03" stroke="#000000" fill="none"/>
<path d="M13.285546875 14.31604299688557L11.72109375 15.21928042973887L9.739453124999999 14.075179681458023L9.739453124999999 14.797769627740664" stroke-width="0.03" stroke="#000000" fill="none"/>
<path d="M9.4265625 14.978417114311325L10.260937499999999 14.49669048345623L10.573828124999999 14.67733797002689L10.573828124999999 16.483812835733495" stroke-width="0.03" stroke="#000000" fill="none"/>
<path d="M10.573828124999999 16.24294952030595L10.991015625000001 16.483812835733495L10.991015625000001 16.72467615116104" stroke-width="0.03" stroke="#000000" fill="none"/>
<path d="M10.991015625000001 16.483812835733495L11.303906249999999 16.303165349162832" stroke-width="0.03" stroke="#000000" fill="none"/>
<path d="M11.408203125 16.36338117801972L11.408203125 16.965539466588588" stroke-width="0.03" stroke="#000000" fill="none"/>
<path d="M11.512500000000001 17.025755295445475L11.512500000000001 16.423597006876605" stroke-width="0.03" stroke="#000000" fill="none"/>
<path d="M11.512500000000001 16.54402866459038L11.408203125 16.60424449344727" stroke-width="0.03" stroke="#000000" fill="none"/>
<path d="M11.72109375 16.54402866459038L13.285546875 15.640791231737078L13.285546875 14.31604299688557L11.303906249999999 13.171942248604722L9.739453124999999 14.075179681458023" stroke-width="0.03" stroke="#000000" fill="none"/>
<path d="M9.4265625 14.978417114311325L9.4265625 16.18273369144906L9.739453124999999 16.36338117801972L10.05234375 16.18273369144906L12.451171875 17.567697755157454L12.451171875 18.049424386012547L11.095312499999999 18.832230161152076L11.095312499999999 20.397841711431134L10.678125 20.63870502685868L8.279296875 19.253740963150285L8.279296875 18.892445990008962L7.96640625 18.711798503438303L6.9234374999999995 19.31395679200717L6.9234374999999995 20.277410053717357L7.236328125 20.458057540288017L8.80078125 19.554820107434715" stroke-width="0.03" stroke="#000000" fill="none"/>
<path d="M8.5921875 19.67525176514849L9.009374999999999 19.916115080576038L9.21796875 19.795683422862265" stroke-width="0.03" stroke="#000000" fill="none"/>
<path d="M9.009374999999999 19.916115080576038L9.009374999999999 20.277410053717357" stroke-width="0.03" stroke="#000000" fill="none"/>
<path d="M9.113671875 20.337625882574244L9.63515625 20.03654673828981" stroke-width="0.03" stroke="#000000" fill="none"/>
<path d="M9.739453124999999 20.096762567146698L9.21796875 20.397841711431134" stroke-width="0.03" stroke="#000000" fill="none"/>
<path d="M9.322265625 20.337625882574244L9.322265625 20.21719422486047" stroke-width="0.03" stroke="#000000" fill="none"/>
<path d="M9.4265625 20.518273369144907L8.279296875 21.18064748657066L6.297656249999999 20.03654673828981L6.297656249999999 21.843021603996412L8.279296875 22.98712235227726L9.4265625 22.32474823485151L9.4265625 20.518273369144907L8.279296875 19.85589925171915" stroke-width="0.03" stroke="#000000" fill="none"/>
<path d="M8.279296875 18.892445990008962L7.236328125 19.49460427857783L7.236328125 20.458057540288017" stroke-width="0.03" stroke="#000000" fill="none"/>
<path d="M6.9234374999999995 19.67525176514849L6.297656249999999 20.03654673828981" stroke-width="0.03" stroke="#000000" fill="none"/>
<path d="M6.9234374999999995 19.31395679200717L7.236328125 19.49460427857783" stroke-width="0.03" stroke="#000000" fill="none"/>
<path d="M7.027734374999999 19.253740963150285L5.567578125 18.410719359153866L5.567578125 17.928992728298773L5.776171874999998 17.808561070585" stroke-width="0.03" stroke="#000000" fill="none"/>
<path d="M5.567578125 17.928992728298773L7.4449218749999995 19.01287764772274" stroke-width="0.03" stroke="#000000" fill="none"/>
<path d="M7.653515625 18.892445990008962L4.62890625 17.146186953159244L4.62890625 15.098848772025098L6.4019531249999995 14.075179681458023L9.4265625 15.82143871830774" stroke-width="0.03" stroke="#000000" fill="none"/>
<path d="M9.4265625 15.580575402880193L7.5492187500000005 14.49669048345623L7.96640625 14.255827168028683L9.4265625 15.098848772025098" stroke-width="0.03" stroke="#000000" fill="none"/>
<path d="M9.4265625 14.978417114311325L9.739453124999999 15.159064600881985L10.573828124999999 14.67733797002689" stroke-width="0.03" stroke="#000000" fill="none"/>
<path d="M9.739453124999999 15.159064600881985L9.739453124999999 16.36338117801972" stroke-width="0.03" stroke="#000000" fill="none"/>
<path d="M10.573828124999999 15.881654547164626L11.72109375 16.54402866459038L11.72109375 15.21928042973887" stroke-width="0.03" stroke="#000000" fill="none"/>
<path d="M11.825390624999999 16.483812835733495L13.181249999999999 17.26661861087302L13.911328125 16.845107808874815" stroke-width="0.03" stroke="#000000" fill="none"/>
<path d="M13.911328125 16.965539466588588L13.911328125 14.67733797002689L14.328515625 14.436474654599342L14.64140625 14.617122141170004L14.64140625 16.905323637731698L14.224218749999999 17.146186953159244L13.911328125 16.965539466588588" stroke-width="0.03" stroke="#000000" fill="none"/>
<path d="M14.224218749999999 17.146186953159244L14.224218749999999 14.85798545659755L13.911328125 14.67733797002689" stroke-width="0.03" stroke="#000000" fill="none"/>
<path d="M14.224218749999999 14.85798545659755L14.64140625 14.617122141170004" stroke-width="0.03" stroke="#000000" fill="none"/>
<path d="M14.85 14.376258825742458L14.85 12.208488986894533" stroke-width="0.03" stroke="#000000" fill="none"/>
<path d="M14.85 11.606330698325666L15.162890625 11.425683211755006L15.267187499999999 11.485899040611892" stroke-width="0.03" stroke="#000000" fill="none"/>
<path d="M14.85 11.606330698325666L14.537109375 11.425683211755006L14.4328125 11.485899040611892" stroke-width="0.03" stroke="#000000" fill="none"/>
<path d="M14.85 11.245035725184344L16.51875 10.281582463474159L16.9359375 10.522445778901705" stroke-width="0.03" stroke="#000000" fill="none"/>
<path d="M14.85 11.245035725184344L13.181249999999999 10.281582463474159L12.7640625 10.522445778901705" stroke-width="0.03" stroke="#000000" fill="none"/>
<path d="M11.512500000000001 12.931078933177174L10.782421874999999 13.352589735175382L10.782421874999999 13.473021392889155" stroke-width="0.03" stroke="#000000" fill="none"/>
<path d="M10.782421874999999 13.352589735175382L10.88671875 13.412805564032269" stroke-width="0.03" stroke="#000000" fill="none"/>
<path d="M11.512500000000001 13.292373906318495L11.825390624999999 13.111726419747836" stroke-width="0.03" stroke="#000000" fill="none"/>
<path d="M12.033984375000001 13.232158077461609L12.033984375000001 13.593453050602928" stroke-width="0.03" stroke="#000000" fill="none"/>
<path d="M12.138281249999999 13.653668879459815L12.451171875 13.473021392889155" stroke-width="0.03" stroke="#000000" fill="none"/>
<path d="M15.05859375 14.617122141170004L15.371484375 14.436474654599342L15.788671874999999 14.67733797002689L15.788671874999999 16.965539466588588L15.47578125 17.146186953159244L15.05859375 16.905323637731698L15.05859375 14.617122141170004L15.47578125 14.85798545659755L15.788671874999999 14.67733797002689" stroke-width="0.03" stroke="#000000" fill="none"/>
<path d="M15.47578125 14.85798545659755L15.47578125 17.146186953159244" stroke-width="0.03" stroke="#000000" fill="none"/>
<path d="M15.788671874999999 16.845107808874815L16.51875 17.26661861087302L17.874609375000002 16.483812835733495" stroke-width="0.03" stroke="#000000" fill="none"/>
<path d="M19.126171875 16.483812835733495L19.126171875 14.67733797002689L19.439062500000002 14.49669048345623L20.2734375 14.978417114311325L20.2734375 16.18273369144906L19.960546875000002 16.36338117801972L19.647656249999997 16.18273369144906L17.248828125 17.567697755157454L17.248828125 18.049424386012547L18.6046875 18.832230161152076L18.6046875 20.397841711431134L19.021874999999998 20.63870502685868L21.420703125 19.253740963150285L21.420703125 18.892445990008962L21.733593749999997 18.711798503438303L22.7765625 19.31395679200717L22.7765625 20.277410053717357L22.463671875 20.458057540288017L20.89921875 19.554820107434715" stroke-width="0.03" stroke="#000000" fill="none"/>
<path d="M21.107812499999998 19.67525176514849L20.690625 19.916115080576038L20.690625 20.277410053717357" stroke-width="0.03" stroke="#000000" fill="none"/>
<path d="M20.586328125 20.337625882574244L20.064843749999998 20.03654673828981" stroke-width="0.03" stroke="#000000" fill="none"/>
<path d="M19.960546875000002 20.096762567146698L20.482031250000002 20.397841711431134" stroke-width="0.03" stroke="#000000" fill="none"/>
<path d="M20.377734375 20.337625882574244L20.377734375 20.21719422486047" stroke-width="0.03" stroke="#000000" fill="none"/>
<path d="M20.2734375 20.518273369144907L21.420703125 19.85589925171915" stroke-width="0.03" stroke="#000000" fill="none"/>
<path d="M20.690625 19.916115080576038L20.482031250000002 19.795683422862265" stroke-width="0.03" stroke="#000000" fill="none"/>
<path d="M20.2734375 20.518273369144907L20.2734375 22.32474823485151L21.420703125 22.98712235227726L23.40234375 21.843021603996412L23.40234375 20.03654673828981L22.7765625 19.67525176514849" stroke-width="0.03" stroke="#000000" fill="none"/>
<path d="M22.463671875 19.49460427857783L22.7765625 19.31395679200717" stroke-width="0.03" stroke="#000000" fill="none"/>
<path d="M22.672265625 19.253740963150285L24.132421875000002 18.410719359153866L24.132421875000002 17.928992728298773L23.923828125000004 17.808561070585" stroke-width="0.03" stroke="#000000" fill="none"/>
<path d="M24.132421875000002 17.928992728298773L22.255078124999997 19.01287764772274" stroke-width="0.03" stroke="#000000" fill="none"/>
<path d="M22.046484375000002 18.892445990008962L25.07109375 17.146186953159244L25.07109375 15.098848772025098L23.298046874999997 14.075179681458023L20.2734375 15.82143871830774" stroke-width="0.03" stroke="#000000" fill="none"/>
<path d="M20.2734375 15.580575402880193L22.150781249999998 14.49669048345623L21.733593749999997 14.255827168028683L20.2734375 15.098848772025098" stroke-width="0.03" stroke="#000000" fill="none"/>
<path d="M20.2734375 14.978417114311325L19.960546875000002 15.159064600881985L19.960546875000002 16.36338117801972" stroke-width="0.03" stroke="#000000" fill="none"/>
<path d="M19.960546875000002 15.159064600881985L19.126171875 14.67733797002689" stroke-width="0.03" stroke="#000000" fill="none"/>
<path d="M19.960546875000002 14.797769627740664L19.960546875000002 14.075179681458023L18.396093750000002 13.171942248604722" stroke-width="0.03" stroke="#000000" fill="none"/>
<path d="M18.1875 13.292373906318495L17.874609375000002 13.111726419747836" stroke-width="0.03" stroke="#000000" fill="none"/>
<path d="M17.666015625 13.232158077461609L17.666015625 13.593453050602928" stroke-width="0.03" stroke="#000000" fill="none"/>
<path d="M17.56171875 13.653668879459815L17.248828125 13.473021392889155" stroke-width="0.03" stroke="#000000" fill="none"/>
<path d="M17.978906249999998 15.21928042973887L19.960546875000002 14.075179681458023" stroke-width="0.03" stroke="#000000" fill="none"/>
<path d="M22.150781249999998 14.49669048345623L22.150781249999998 14.737553798883777" stroke-width="0.03" stroke="#000000" fill="none"/>
<path d="M25.07109375 15.098848772025098L19.021874999999998 18.59136684572453L19.021874999999998 20.63870502685868" stroke-width="0.03" stroke="#000000" fill="none"/>
<path d="M18.917578125000002 20.57848919800179L18.1875 21L18.1875 22.926906523420374L18.917578125000002 23.348417325418584L18.917578125000002 23.107554009991038" stroke-width="0.03" stroke="#000000" fill="none"/>
<path d="M18.917578125000002 23.348417325418584L18.708984375 23.468848983132357" stroke-width="0.03" stroke="#000000" fill="none"/>
<path d="M18.291796875 23.227985667704807L17.874609375000002 23.468848983132357L17.874609375000002 23.830143956273677L19.85625 24.974244704554525L20.2734375 24.73338138912698L20.2734375 24.37208641598566L18.291796875 23.227985667704807" stroke-width="0.03" stroke="#000000" fill="none"/>
<path d="M18.1875 22.926906523420374L16.51875 23.890359785130563L16.51875 24.73338138912698" stroke-width="0.03" stroke="#000000" fill="none"/>
<path d="M16.623046875 24.793597217983862L14.85 25.817266308550938L14.85 32.8023024559498L16.623046875 31.77863336538273L16.623046875 28.286115291683295" stroke-width="0.03" stroke="#000000" fill="none"/>
<path d="M16.831640625 28.40654694939707L16.831640625 30.574316788244992L17.248828125 30.333453472817446L17.248828125 28.647410264824618" stroke-width="0.03" stroke="#000000" fill="none"/>
<path d="M17.353125 28.7076260936815L18.1875 28.22589946282641L18.1875 27.864604489685092L16.623046875 26.96136705683179" stroke-width="0.03" stroke="#000000" fill="none"/>
<path d="M16.831640625 27.081798714545563L16.831640625 26.600072083690467L16.623046875 26.479640425976694" stroke-width="0.03" stroke="#000000" fill="none"/>
<path d="M16.831640625 26.600072083690467L17.14453125 26.419424597119807" stroke-width="0.03" stroke="#000000" fill="none"/>
<path d="M17.14453125 26.29899293940603L16.623046875 25.9979137951216" stroke-width="0.03" stroke="#000000" fill="none"/>
<path d="M16.623046875 25.877482137407824L17.14453125 26.17856128169226" stroke-width="0.03" stroke="#000000" fill="none"/>
<path d="M17.040234375 26.118345452835374L16.9359375 26.17856128169226" stroke-width="0.03" stroke="#000000" fill="none"/>
<path d="M17.14453125 25.937697966264714L18.708984375 25.034460533411412L19.85625 25.696834650837165L19.85625 27.985036147398862L18.291796875 28.888273580252164L17.666015625 28.526978607110845" stroke-width="0.03" stroke="#000000" fill="none"/>
<path d="M17.353125 28.7076260936815L17.353125 28.346331120540185L16.31015625 27.744172831971316L16.31015625 28.105467805112635L17.353125 28.7076260936815" stroke-width="0.03" stroke="#000000" fill="none"/>
<path d="M17.353125 28.346331120540185L18.1875 27.864604489685092" stroke-width="0.03" stroke="#000000" fill="none"/>
<path d="M18.291796875 28.888273580252164L18.291796875 26.600072083690467L19.85625 25.696834650837165" stroke-width="0.03" stroke="#000000" fill="none"/>
<path d="M19.85625 25.817266308550938L20.377734375 26.118345452835374" stroke-width="0.03" stroke="#000000" fill="none"/>
<path d="M20.2734375 26.17856128169226L19.85625 25.937697966264714" stroke-width="0.03" stroke="#000000" fill="none"/>
<path d="M19.647656249999997 25.576402993123395L20.586328125 25.034460533411412L20.586328125 24.311870587128773L21.212109374999997 23.95057561398745L21.212109374999997 22.866690694563488" stroke-width="0.03" stroke="#000000" fill="none"/>
<path d="M21.420703125 22.98712235227726L21.420703125 21.18064748657066L23.40234375 20.03654673828981" stroke-width="0.03" stroke="#000000" fill="none"/>
<path d="M22.463671875 20.458057540288017L22.463671875 19.49460427857783L21.420703125 18.892445990008962" stroke-width="0.03" stroke="#000000" fill="none"/>
<path d="M20.2734375 20.518273369144907L21.420703125 21.18064748657066" stroke-width="0.03" stroke="#000000" fill="none"/>
<path d="M20.2734375 20.63870502685868L18.917578125000002 21.42151080199821L18.917578125000002 22.264532405994622" stroke-width="0.03" stroke="#000000" fill="none"/>
<path d="M18.81328125 22.204316577137735L18.500390624999998 22.384964063708395L18.500390624999998 22.866690694563488L20.482031250000002 24.010791442844337L20.794921875 23.830143956273677L20.794921875 23.348417325418584L18.81328125 22.204316577137735" stroke-width="0.03" stroke="#000000" fill="none"/>
<path d="M18.500390624999998 22.384964063708395L20.482031250000002 23.529064811989244L20.482031250000002 24.010791442844337" stroke-width="0.03" stroke="#000000" fill="none"/>
<path d="M20.586328125 24.311870587128773L22.463671875 25.39575550655273L22.463671875 23.227985667704807L22.046484375000002 22.98712235227726L25.383984374999997 21.060215828856883L25.801171875 21.301079144284433L25.801171875 23.95057561398745L22.880859375 25.636618821980278L22.880859375 29.008705237965938L20.586328125 30.333453472817446L20.169140624999997 30.0925901573899L20.169140624999997 26.238777110549147L22.046484375000002 25.154892191125185L22.046484375000002 22.98712235227726" stroke-width="0.03" stroke="#000000" fill="none"/>
<path d="M22.046484375000002 23.107554009991038L21.629296875 22.866690694563488" stroke-width="0.03" stroke="#000000" fill="none"/>
<path d="M21.525000000000002 22.926906523420374L22.046484375000002 23.227985667704807" stroke-width="0.03" stroke="#000000" fill="none"/>
<path d="M22.463671875 23.227985667704807L25.801171875 21.301079144284433" stroke-width="0.03" stroke="#000000" fill="none"/>
<path d="M23.506640625 21.301079144284433L23.40234375 21.36129497314132" stroke-width="0.03" stroke="#000000" fill="none"/>
<path d="M23.506640625 21.301079144284433L23.506640625 22.14410074828085" stroke-width="0.03" stroke="#000000" fill="none"/>
<path d="M23.193749999999998 21.96345326171019L23.193749999999998 22.32474823485151" stroke-width="0.03" stroke="#000000" fill="none"/>
<path d="M22.98515625 22.44517989256528L22.672265625 22.264532405994622" stroke-width="0.03" stroke="#000000" fill="none"/>
<path d="M22.567968750000002 22.32474823485151L22.567968750000002 22.686043207992828" stroke-width="0.03" stroke="#000000" fill="none"/>
<path d="M23.40234375 21.240863315427546L23.506640625 21.301079144284433" stroke-width="0.03" stroke="#000000" fill="none"/>
<path d="M20.794921875 23.348417325418584L20.482031250000002 23.529064811989244" stroke-width="0.03" stroke="#000000" fill="none"/>
<path d="M20.2734375 24.37208641598566L19.85625 24.612949731413206L17.874609375000002 23.468848983132357" stroke-width="0.03" stroke="#000000" fill="none"/>
<path d="M17.978906249999998 23.890359785130563L17.248828125 24.311870587128773L17.248828125 25.877482137407824" stroke-width="0.03" stroke="#000000" fill="none"/>
<path d="M17.14453125 25.937697966264714L17.14453125 27.26244620111622" stroke-width="0.03" stroke="#000000" fill="none"/>
<path d="M16.623046875 27.563525345400656L16.31015625 27.744172831971316" stroke-width="0.03" stroke="#000000" fill="none"/>
<path d="M16.623046875 27.563525345400656L16.623046875 24.793597217983862L16.205859375 24.55273390255632L14.85 25.335539677695845L13.494140625 24.55273390255632L13.076953125000001 24.793597217983862L13.076953125000001 27.563525345400656L13.389843749999999 27.744172831971316L13.389843749999999 28.105467805112635L12.346874999999999 28.7076260936815L11.512500000000001 28.22589946282641L11.512500000000001 27.864604489685092L13.076953125000001 26.96136705683179" stroke-width="0.03" stroke="#000000" fill="none"/>
<path d="M12.868359374999999 27.081798714545563L12.868359374999999 26.600072083690467L12.555468750000001 26.419424597119807" stroke-width="0.03" stroke="#000000" fill="none"/>
<path d="M12.555468750000001 26.29899293940603L13.076953125000001 25.9979137951216" stroke-width="0.03" stroke="#000000" fill="none"/>
<path d="M13.076953125000001 25.877482137407824L12.555468750000001 26.17856128169226" stroke-width="0.03" stroke="#000000" fill="none"/>
<path d="M12.659765624999999 26.118345452835374L12.7640625 26.17856128169226" stroke-width="0.03" stroke="#000000" fill="none"/>
<path d="M12.555468750000001 25.937697966264714L11.408203125 26.600072083690467L9.84375 25.696834650837165L9.84375 27.985036147398862L11.408203125 28.888273580252164L12.033984375000001 28.526978607110845" stroke-width="0.03" stroke="#000000" fill="none"/>
<path d="M12.346874999999999 28.7076260936815L12.346874999999999 28.346331120540185L13.389843749999999 27.744172831971316" stroke-width="0.03" stroke="#000000" fill="none"/>
<path d="M13.076953125000001 28.286115291683295L13.076953125000001 31.77863336538273L14.85 32.8023024559498" stroke-width="0.03" stroke="#000000" fill="none"/>
<path d="M13.076953125000001 30.45388513053122L12.868359374999999 30.574316788244992L12.451171875 30.333453472817446L12.451171875 28.647410264824618" stroke-width="0.03" stroke="#000000" fill="none"/>
<path d="M12.346874999999999 28.346331120540185L11.512500000000001 27.864604489685092" stroke-width="0.03" stroke="#000000" fill="none"/>
<path d="M11.408203125 28.888273580252164L11.408203125 26.600072083690467" stroke-width="0.03" stroke="#000000" fill="none"/>
<path d="M12.451171875 25.877482137407824L12.451171875 24.311870587128773L13.181249999999999 23.890359785130563L11.512500000000001 22.926906523420374L11.512500000000001 21L10.782421874999999 20.57848919800179" stroke-width="0.03" stroke="#000000" fill="none"/>
<path d="M10.678125 20.63870502685868L10.678125 18.59136684572453L12.451171875 17.567697755157454" stroke-width="0.03" stroke="#000000" fill="none"/>
<path d="M12.451171875 17.688129412871227L13.181249999999999 18.109640214869437L14.85 17.146186953159244L14.85 16.303165349162832L14.64140625 16.423597006876605" stroke-width="0.03" stroke="#000000" fill="none"/>
<path d="M14.85 16.303165349162832L15.05859375 16.423597006876605" stroke-width="0.03" stroke="#000000" fill="none"/>
<path d="M14.85 17.146186953159244L16.51875 18.109640214869437L17.248828125 17.688129412871227" stroke-width="0.03" stroke="#000000" fill="none"/>
<path d="M17.248828125 17.567697755157454L19.021874999999998 18.59136684572453" stroke-width="0.03" stroke="#000000" fill="none"/>
<path d="M18.6046875 18.832230161152076L15.89296875 20.397841711431134L16.31015625 20.63870502685868L16.31015625 21.843021603996412L15.267187499999999 22.44517989256528L15.267187499999999 25.0946763622683" stroke-width="0.03" stroke="#000000" fill="none"/>
<path d="M14.85 25.335539677695845L14.85 22.204316577137735L14.4328125 22.44517989256528L14.4328125 25.0946763622683" stroke-width="0.03" stroke="#000000" fill="none"/>
<path d="M14.85 25.817266308550938L13.076953125000001 24.793597217983862" stroke-width="0.03" stroke="#000000" fill="none"/>
<path d="M13.181249999999999 24.73338138912698L13.181249999999999 23.890359785130563" stroke-width="0.03" stroke="#000000" fill="none"/>
<path d="M12.451171875 24.311870587128773L11.72109375 23.890359785130563" stroke-width="0.03" stroke="#000000" fill="none"/>
<path d="M11.825390624999999 23.830143956273677L9.84375 24.974244704554525L9.4265625 24.73338138912698L9.4265625 24.37208641598566L11.408203125 23.227985667704807L11.825390624999999 23.468848983132357L11.825390624999999 23.830143956273677" stroke-width="0.03" stroke="#000000" fill="none"/>
<path d="M11.825390624999999 23.468848983132357L9.84375 24.612949731413206L9.4265625 24.37208641598566" stroke-width="0.03" stroke="#000000" fill="none"/>
<path d="M9.113671875 24.311870587128773L7.236328125 25.39575550655273L7.236328125 23.227985667704807L3.898828125 21.301079144284433L4.3160156249999995 21.060215828856883L7.653515625 22.98712235227726L7.653515625 25.154892191125185L9.530859375 26.238777110549147L9.530859375 30.0925901573899L9.113671875 30.333453472817446L6.819140625 29.008705237965938L6.819140625 25.636618821980278L3.898828125 23.95057561398745L3.898828125 21.301079144284433" stroke-width="0.03" stroke="#000000" fill="none"/>
<path d="M6.193359375 21.301079144284433L6.297656249999999 21.240863315427546" stroke-width="0.03" stroke="#000000" fill="none"/>
<path d="M6.193359375 21.301079144284433L6.193359375 22.14410074828085" stroke-width="0.03" stroke="#000000" fill="none"/>
<path d="M6.5062500000000005 21.96345326171019L6.5062500000000005 22.32474823485151" stroke-width="0.03" stroke="#000000" fill="none"/>
<path d="M6.714843749999999 22.44517989256528L7.027734374999999 22.264532405994622" stroke-width="0.03" stroke="#000000" fill="none"/>
<path d="M7.13203125 22.32474823485151L7.13203125 22.686043207992828" stroke-width="0.03" stroke="#000000" fill="none"/>
<path d="M7.236328125 23.227985667704807L7.653515625 22.98712235227726" stroke-width="0.03" stroke="#000000" fill="none"/>
<path d="M7.653515625 23.107554009991038L8.070703124999998 22.866690694563488" stroke-width="0.03" stroke="#000000" fill="none"/>
<path d="M8.175 22.926906523420374L7.653515625 23.227985667704807" stroke-width="0.03" stroke="#000000" fill="none"/>
<path d="M8.279296875 22.98712235227726L8.279296875 21.18064748657066" stroke-width="0.03" stroke="#000000" fill="none"/>
<path d="M9.4265625 20.63870502685868L10.782421874999999 21.42151080199821L10.782421874999999 22.264532405994622" stroke-width="0.03" stroke="#000000" fill="none"/>
<path d="M10.88671875 22.204316577137735L8.905078125 23.348417325418584L8.905078125 23.830143956273677L9.21796875 24.010791442844337L11.199609375 22.866690694563488L11.199609375 22.384964063708395L10.88671875 22.204316577137735" stroke-width="0.03" stroke="#000000" fill="none"/>
<path d="M11.199609375 22.384964063708395L9.21796875 23.529064811989244L8.905078125 23.348417325418584" stroke-width="0.03" stroke="#000000" fill="none"/>
<path d="M9.21796875 23.529064811989244L9.21796875 24.010791442844337" stroke-width="0.03" stroke="#000000" fill="none"/>
<path d="M9.113671875 24.311870587128773L9.113671875 25.034460533411412L10.05234375 25.576402993123395" stroke-width="0.03" stroke="#000000" fill="none"/>
<path d="M9.84375 25.696834650837165L10.991015625000001 25.034460533411412L12.555468750000001 25.937697966264714L12.555468750000001 27.26244620111622" stroke-width="0.03" stroke="#000000" fill="none"/>
<path d="M12.868359374999999 26.600072083690467L13.076953125000001 26.479640425976694" stroke-width="0.03" stroke="#000000" fill="none"/>
<path d="M12.868359374999999 28.40654694939707L12.868359374999999 30.574316788244992" stroke-width="0.03" stroke="#000000" fill="none"/>
<path d="M10.365234375 28.286115291683295L10.260937499999999 28.346331120540185L9.530859375 27.92482031854198" stroke-width="0.03" stroke="#000000" fill="none"/>
<path d="M9.84375 27.744172831971316L9.530859375 27.563525345400656" stroke-width="0.03" stroke="#000000" fill="none"/>
<path d="M9.530859375 27.322662029973106L9.84375 27.142014543402446" stroke-width="0.03" stroke="#000000" fill="none"/>
<path d="M9.84375 27.021582885688677L9.530859375 26.840935399118013" stroke-width="0.03" stroke="#000000" fill="none"/>
<path d="M9.113671875 26.479640425976694L9.530859375 26.238777110549147" stroke-width="0.03" stroke="#000000" fill="none"/>
<path d="M9.4265625 26.17856128169226L9.84375 25.937697966264714" stroke-width="0.03" stroke="#000000" fill="none"/>
<path d="M9.84375 25.817266308550938L9.322265625 26.118345452835374" stroke-width="0.03" stroke="#000000" fill="none"/>
<path d="M9.113671875 26.479640425976694L9.113671875 30.333453472817446" stroke-width="0.03" stroke="#000000" fill="none"/>
<path d="M10.260937499999999 28.346331120540185L10.260937499999999 28.22589946282641" stroke-width="0.03" stroke="#000000" fill="none"/>
<path d="M9.113671875 26.479640425976694L7.236328125 25.39575550655273" stroke-width="0.03" stroke="#000000" fill="none"/>
<path d="M6.714843749999999 25.696834650837165L6.714843749999999 26.058129623978488L6.819140625 26.118345452835374" stroke-width="0.03" stroke="#000000" fill="none"/>
<path d="M6.714843749999999 25.696834650837165L6.4019531249999995 25.51618716426651L6.4019531249999995 25.39575550655273" stroke-width="0.03" stroke="#000000" fill="none"/>
<path d="M6.4019531249999995 25.877482137407824L6.4019531249999995 27.804388660828202L6.819140625 28.04525197625575" stroke-width="0.03" stroke="#000000" fill="none"/>
<path d="M6.4019531249999995 25.877482137407824L4.733203124999998 24.914028875697635L4.733203124999998 24.432302244842543" stroke-width="0.03" stroke="#000000" fill="none"/>
<path d="M6.297656249999999 21.36129497314132L6.193359375 21.301079144284433" stroke-width="0.03" stroke="#000000" fill="none"/>
<path d="M8.487890625 22.866690694563488L8.487890625 23.95057561398745L9.113671875 24.311870587128773" stroke-width="0.03" stroke="#000000" fill="none"/>
<path d="M9.84375 24.612949731413206L9.84375 24.974244704554525" stroke-width="0.03" stroke="#000000" fill="none"/>
<path d="M10.782421874999999 23.348417325418584L11.512500000000001 22.926906523420374" stroke-width="0.03" stroke="#000000" fill="none"/>
<path d="M10.991015625000001 23.468848983132357L10.782421874999999 23.348417325418584L10.782421874999999 23.107554009991038" stroke-width="0.03" stroke="#000000" fill="none"/>
<path d="M10.782421874999999 21.42151080199821L11.512500000000001 21" stroke-width="0.03" stroke="#000000" fill="none"/>
<path d="M11.095312499999999 19.31395679200717L13.389843749999999 20.63870502685868L13.389843749999999 21.843021603996412L14.4328125 22.44517989256528" stroke-width="0.03" stroke="#000000" fill="none"/>
<path d="M14.85 22.204316577137735L15.267187499999999 22.44517989256528" stroke-width="0.03" stroke="#000000" fill="none"/>
<path d="M14.85 21.72258994628264L15.47578125 21.36129497314132L15.47578125 20.63870502685868L14.85 20.277410053717357L14.224218749999999 20.63870502685868L14.224218749999999 21.36129497314132L14.85 21.72258994628264" stroke-width="0.03" stroke="#000000" fill="none"/>
<path d="M14.85 21.120431657713773L14.954296875 21.060215828856883L14.954296875 20.939784171143113L14.85 20.879568342286227L14.745703124999999 20.939784171143113L14.745703124999999 21.060215828856883L14.85 21.120431657713773" stroke-width="0.03" stroke="#000000" fill="none"/>
<path d="M14.745703124999999 21.060215828856883L13.389843749999999 21.843021603996412" stroke-width="0.03" stroke="#000000" fill="none"/>
<path d="M13.389843749999999 20.63870502685868L13.80703125 20.397841711431134L13.80703125 19.916115080576038L14.85 19.31395679200717L15.89296875 19.916115080576038L15.89296875 20.397841711431134" stroke-width="0.03" stroke="#000000" fill="none"/>
<path d="M16.31015625 20.63870502685868L18.6046875 19.31395679200717" stroke-width="0.03" stroke="#000000" fill="none"/>
<path d="M18.1875 18.59136684572453L15.89296875 19.916115080576038" stroke-width="0.03" stroke="#000000" fill="none"/>
<path d="M14.85 19.31395679200717L14.85 20.879568342286227" stroke-width="0.03" stroke="#000000" fill="none"/>
<path d="M14.954296875 21.060215828856883L16.31015625 21.843021603996412" stroke-width="0.03" stroke="#000000" fill="none"/>
<path d="M18.1875 21L18.917578125000002 21.42151080199821" stroke-width="0.03" stroke="#000000" fill="none"/>
<path d="M19.85625 24.612949731413206L19.85625 24.974244704554525" stroke-width="0.03" stroke="#000000" fill="none"/>
<path d="M20.169140624999997 26.238777110549147L20.586328125 26.479640425976694L22.463671875 25.39575550655273" stroke-width="0.03" stroke="#000000" fill="none"/>
<path d="M22.98515625 25.696834650837165L23.298046874999997 25.51618716426651L23.298046874999997 25.39575550655273" stroke-width="0.03" stroke="#000000" fill="none"/>
<path d="M22.98515625 25.696834650837165L22.98515625 26.058129623978488L22.880859375 26.118345452835374" stroke-width="0.03" stroke="#000000" fill="none"/>
<path d="M23.298046874999997 25.877482137407824L24.966796875000004 24.914028875697635L24.966796875000004 24.432302244842543" stroke-width="0.03" stroke="#000000" fill="none"/>
<path d="M23.298046874999997 25.877482137407824L23.298046874999997 27.804388660828202L22.880859375 28.04525197625575" stroke-width="0.03" stroke="#000000" fill="none"/>
<path d="M20.169140624999997 27.92482031854198L19.439062500000002 28.346331120540185L19.334765625 28.286115291683295" stroke-width="0.03" stroke="#000000" fill="none"/>
<path d="M19.439062500000002 28.22589946282641L19.439062500000002 28.346331120540185" stroke-width="0.03" stroke="#000000" fill="none"/>
<path d="M19.85625 27.744172831971316L20.169140624999997 27.563525345400656" stroke-width="0.03" stroke="#000000" fill="none"/>
<path d="M20.169140624999997 27.322662029973106L19.85625 27.142014543402446" stroke-width="0.03" stroke="#000000" fill="none"/>
<path d="M19.85625 27.021582885688677L20.169140624999997 26.840935399118013" stroke-width="0.03" stroke="#000000" fill="none"/>
<path d="M20.586328125 26.479640425976694L20.586328125 30.333453472817446" stroke-width="0.03" stroke="#000000" fill="none"/>
<path d="M16.831640625 30.574316788244992L16.623046875 30.45388513053122" stroke-width="0.03" stroke="#000000" fill="none"/>
<path d="M18.291796875 26.600072083690467L17.14453125 25.937697966264714" stroke-width="0.03" stroke="#000000" fill="none"/>
<path d="M17.248828125 24.311870587128773L16.51875 23.890359785130563" stroke-width="0.03" stroke="#000000" fill="none"/>
<path d="M13.80703125 20.397841711431134L11.095312499999999 18.832230161152076" stroke-width="0.03" stroke="#000000" fill="none"/>
<path d="M10.678125 18.59136684572453L4.62890625 15.098848772025098" stroke-width="0.03" stroke="#000000" fill="none"/>
<path d="M7.5492187500000005 14.737553798883777L7.5492187500000005 14.49669048345623" stroke-width="0.03" stroke="#000000" fill="none"/>
<path d="M11.512500000000001 18.59136684572453L13.80703125 19.916115080576038" stroke-width="0.03" stroke="#000000" fill="none"/>
<path d="M13.181249999999999 18.109640214869437L13.181249999999999 17.26661861087302" stroke-width="0.03" stroke="#000000" fill="none"/>
<path d="M16.51875 17.26661861087302L16.51875 18.109640214869437" stroke-width="0.03" stroke="#000000" fill="none"/>
<path d="M9.237499999999999 2.533333333333333L1.5 2.533333333333333" stroke-width="0.03" stroke="#000000" fill="none"/>
<path d="M2.1166666666666667 2.2291666666666665L2.1166666666666667 1.8208333333333333" stroke-width="0.03" stroke="#000000" fill="none"/>
<path d="M2.0875 1.6166666666666667L2.1166666666666667 1.6458333333333333L2.145833333333333 1.6166666666666667L2.1166666666666667 1.5875L2.0875 1.6166666666666667" stroke-width="0.03" stroke="#000000" fill="none"/>
<path d="M2.3208333333333333 2.1416666666666666L2.35 2.2L2.4375 2.2291666666666665L2.525 2.2291666666666665L2.6125 2.2L2.6416666666666666 2.1416666666666666L2.6416666666666666 2.1125L2.6125 2.0541666666666667L2.5541666666666667 2.025L2.408333333333333 1.9958333333333333L2.35 1.9666666666666666L2.3208333333333333 1.9083333333333332L2.35 1.85L2.4375 1.8208333333333333L2.525 1.8208333333333333L2.6125 1.85L2.6416666666666666 1.9083333333333332" stroke-width="0.03" stroke="#000000" fill="none"/>
<path d="M2.9625 1.8208333333333333L2.904166666666667 1.85L2.845833333333333 1.9083333333333332L2.8166666666666664 1.9958333333333333L2.8166666666666664 2.0541666666666667L2.845833333333333 2.1416666666666666L2.904166666666667 2.2L2.9625 2.2291666666666665L3.05 2.2291666666666665L3.1083333333333334 2.2L3.1666666666666665 2.1416666666666666L3.1958333333333333 2.0541666666666667L3.1958333333333333 1.9958333333333333L3.1666666666666665 1.9083333333333332L3.1083333333333334 1.85L3.05 1.8208333333333333L2.9625 1.8208333333333333" stroke-width="0.03" stroke="#000000" fill="none"/>
<path d="M3.283333333333333 2.2874999999999996L3.75 2.2874999999999996" stroke-width="0.03" stroke="#000000" fill="none"/>
<path d="M3.8375 2.1416666666666666L3.8666666666666663 2.2L3.9541666666666666 2.2291666666666665L4.041666666666666 2.2291666666666665L4.129166666666666 2.2L4.158333333333333 2.1416666666666666L4.158333333333333 2.1125L4.129166666666666 2.0541666666666667L4.070833333333333 2.025L3.925 1.9958333333333333L3.8666666666666663 1.9666666666666666L3.8375 1.9083333333333332L3.8666666666666663 1.85L3.9541666666666666 1.8208333333333333L4.041666666666666 1.8208333333333333L4.129166666666666 1.85L4.158333333333333 1.9083333333333332" stroke-width="0.03" stroke="#000000" fill="none"/>
<path d="M4.3625 1.9375L4.449999999999999 1.85L4.508333333333333 1.8208333333333333L4.595833333333333 1.8208333333333333L4.654166666666667 1.85L4.683333333333334 1.9375L4.683333333333334 2.2291666666666665" stroke-width="0.03" stroke="#000000" fill="none"/>
<path d="M4.3625 2.2291666666666665L4.3625 1.8208333333333333" stroke-width="0.03" stroke="#000000" fill="none"/>
<path d="M5.033333333333333 1.8208333333333333L4.975 1.85L4.916666666666666 1.9083333333333332L4.887499999999999 1.9958333333333333L4.887499999999999 2.0541666666666667L4.916666666666666 2.1416666666666666L4.975 2.2L5.033333333333333 2.2291666666666665L5.120833333333334 2.2291666666666665L5.179166666666666 2.2L5.2375 2.1416666666666666L5.266666666666666 2.0541666666666667L5.266666666666666 1.9958333333333333L5.2375 1.9083333333333332L5.179166666666666 1.85L5.120833333333334 1.8208333333333333L5.033333333333333 1.8208333333333333" stroke-width="0.03" stroke="#000000" fill="none"/>
<path d="M5.441666666666666 1.8208333333333333L5.558333333333334 2.2291666666666665L5.675 1.8208333333333333L5.791666666666666 2.2291666666666665L5.908333333333333 1.8208333333333333" stroke-width="0.03" stroke="#000000" fill="none"/>
<path d="M6.054166666666666 1.8208333333333333L6.258333333333333 1.8208333333333333" stroke-width="0.03" stroke="#000000" fill="none"/>
<path d="M6.2875 1.6166666666666667L6.229166666666666 1.6166666666666667L6.1708333333333325 1.6458333333333333L6.141666666666667 1.7333333333333334L6.141666666666667 2.2291666666666665" stroke-width="0.03" stroke="#000000" fill="none"/>
<path d="M6.4624999999999995 2.2291666666666665L6.4624999999999995 1.6166666666666667" stroke-width="0.03" stroke="#000000" fill="none"/>
<path d="M7.016666666666666 1.8208333333333333L7.016666666666666 2.2291666666666665" stroke-width="0.03" stroke="#000000" fill="none"/>
<path d="M7.016666666666666 2.1416666666666666L6.958333333333333 2.2L6.8999999999999995 2.2291666666666665L6.812499999999999 2.2291666666666665L6.754166666666666 2.2L6.695833333333333 2.1416666666666666L6.666666666666666 2.0541666666666667L6.666666666666666 1.9958333333333333L6.695833333333333 1.9083333333333332L6.754166666666666 1.85L6.812499999999999 1.8208333333333333L6.8999999999999995 1.8208333333333333L6.958333333333333 1.85L7.016666666666666 1.9083333333333332" stroke-width="0.03" stroke="#000000" fill="none"/>
<path d="M7.249999999999999 2.1125L7.541666666666666 1.8208333333333333" stroke-width="0.03" stroke="#000000" fill="none"/>
<path d="M7.366666666666666 1.9958333333333333L7.570833333333333 2.2291666666666665" stroke-width="0.03" stroke="#000000" fill="none"/>
<path d="M7.716666666666666 1.9958333333333333L8.066666666666666 1.9958333333333333L8.066666666666666 1.9375L8.0375 1.8791666666666667L8.008333333333333 1.85L7.949999999999999 1.8208333333333333L7.8625 1.8208333333333333L7.804166666666666 1.85L7.745833333333333 1.9083333333333332L7.716666666666666 1.9958333333333333L7.716666666666666 2.0541666666666667L7.745833333333333 2.1416666666666666L7.804166666666666 2.2L7.8625 2.2291666666666665L7.949999999999999 2.2291666666666665L8.008333333333333 2.2L8.066666666666666 2.1416666666666666" stroke-width="0.03" stroke="#000000" fill="none"/>
<path d="M8.475 2.2291666666666665L8.475 1.6166666666666667L8.3875 1.7041666666666666L8.329166666666666 1.7333333333333334" stroke-width="0.03" stroke="#000000" fill="none"/>
<path d="M7.249999999999999 1.6166666666666667L7.249999999999999 2.2291666666666665" stroke-width="0.03" stroke="#000000" fill="none"/>
<path d="M5.497042319676488 3.1316192380572576L5.479016328337949 3.1856972120728733L5.442964345660872 3.221749194749951L5.388886371645256 3.2397751860884894L5.370860380306718 3.2397751860884894L5.316782406291102 3.221749194749951L5.280730423614025 3.1856972120728733L5.262704432275486 3.1316192380572576L5.262704432275486 3.113593246718719L5.280730423614025 3.0595152727031034L5.316782406291102 3.023463290026026L5.370860380306718 3.0054372986874878L5.388886371645256 3.0054372986874878L5.442964345660872 3.023463290026026L5.479016328337949 3.0595152727031034L5.497042319676488 3.1316192380572576L5.497042319676488 3.221749194749951L5.479016328337949 3.3118791514426436L5.442964345660872 3.3659571254582596L5.388886371645256 3.383983116796798L5.352834388968179 3.383983116796798L5.298756414952564 3.3659571254582596L5.280730423614025 3.3299051427811825" stroke-width="0.03" stroke="#000000" fill="none"/>
<path d="M5.136522492905716 3.1316192380572576L5.1184965015671775 3.1856972120728733L5.0824445188901 3.221749194749951L5.028366544874484 3.2397751860884894L5.010340553535945 3.2397751860884894L4.95626257952033 3.221749194749951L4.920210596843253 3.1856972120728733L4.902184605504715 3.1316192380572576L4.902184605504715 3.113593246718719L4.920210596843253 3.0595152727031034L4.95626257952033 3.023463290026026L5.010340553535945 3.0054372986874878L5.028366544874484 3.0054372986874878L5.0824445188901 3.023463290026026L5.1184965015671775 3.0595152727031034L5.136522492905716 3.1316192380572576L5.136522492905716 3.221749194749951L5.1184965015671775 3.3118791514426436L5.0824445188901 3.3659571254582596L5.028366544874484 3.383983116796798L4.992314562197407 3.383983116796798L4.938236588181791 3.3659571254582596L4.920210596843253 3.3299051427811825" stroke-width="0.03" stroke="#000000" fill="none"/>
<path d="M4.739950683457867 3.1856972120728733L4.595742752749558 3.1856972120728733" stroke-width="0.03" stroke="#000000" fill="none"/>
<path d="M4.595742752749558 3.0054372986874878L4.595742752749558 3.383983116796798" stroke-width="0.03" stroke="#000000" fill="none"/>
<path d="M4.595742752749558 3.0054372986874878L4.83008064015056 3.0054372986874878" stroke-width="0.03" stroke="#000000" fill="none"/>
<path d="M4.217196934640247 3.0054372986874878L4.217196934640247 3.383983116796798L4.343378874010018 3.383983116796798L4.397456848025634 3.3659571254582596L4.433508830702711 3.3299051427811825L4.45153482204125 3.293853160104105L4.469560813379788 3.2397751860884894L4.469560813379788 3.149645229395796L4.45153482204125 3.0955672553801805L4.433508830702711 3.0595152727031034L4.397456848025634 3.023463290026026L4.343378874010018 3.0054372986874878L4.217196934640247 3.0054372986874878" stroke-width="0.03" stroke="#000000" fill="none"/>
<path d="M4.072989003931939 3.1316192380572576L4.0549630125934 3.1856972120728733L4.018911029916323 3.221749194749951L3.9648330559007072 3.2397751860884894L3.9468070645621687 3.2397751860884894L3.8927290905465526 3.221749194749951L3.8566771078694755 3.1856972120728733L3.838651116530937 3.1316192380572576L3.838651116530937 3.113593246718719L3.8566771078694755 3.0595152727031034L3.8927290905465526 3.023463290026026L3.9468070645621687 3.0054372986874878L3.9648330559007072 3.0054372986874878L4.018911029916323 3.023463290026026L4.0549630125934 3.0595152727031034L4.072989003931939 3.1316192380572576L4.072989003931939 3.221749194749951L4.0549630125934 3.3118791514426436L4.018911029916323 3.3659571254582596L3.9648330559007072 3.383983116796798L3.9287810732236297 3.383983116796798L3.8747030992080145 3.3659571254582596L3.8566771078694755 3.3299051427811825" stroke-width="0.03" stroke="#000000" fill="none"/>
<path d="M3.730495168499705 3.293853160104105L3.712469177161167 3.3299051427811825L3.6764171944840895 3.3659571254582596L3.6403652118070124 3.383983116796798L3.568261246452858 3.383983116796798L3.5322092637757807 3.3659571254582596L3.4961572810987036 3.3299051427811825L3.478131289760165 3.293853160104105L3.4601052984216265 3.2397751860884894L3.4601052984216265 3.149645229395796L3.478131289760165 3.0955672553801805L3.4961572810987036 3.0595152727031034L3.5322092637757807 3.023463290026026L3.568261246452858 3.0054372986874878L3.6403652118070124 3.0054372986874878L3.6764171944840895 3.023463290026026L3.712469177161167 3.0595152727031034L3.730495168499705 3.0955672553801805" stroke-width="0.03" stroke="#000000" fill="none"/>
<path d="M3.0995854716508546 3.0054372986874878L3.0995854716508546 3.383983116796798L3.225767411020625 3.383983116796798L3.2798453850362406 3.3659571254582596L3.3158973677133177 3.3299051427811825L3.333923359051856 3.293853160104105L3.3519493503903948 3.2397751860884894L3.3519493503903948 3.149645229395796L3.333923359051856 3.0955672553801805L3.3158973677133177 3.0595152727031034L3.2798453850362406 3.023463290026026L3.225767411020625 3.0054372986874878L3.0995854716508546 3.0054372986874878" stroke-width="0.03" stroke="#000000" fill="none"/>
<path d="M2.811169610234237 3.0054372986874878L2.757091636218621 3.023463290026026L2.7390656448800828 3.0595152727031034L2.7390656448800828 3.0955672553801805L2.757091636218621 3.1316192380572576L2.7931436188956984 3.149645229395796L2.8652475842498526 3.167671220734335L2.9193255582654682 3.1856972120728733L2.955377540942546 3.221749194749951L2.9734035322810843 3.257801177427028L2.9734035322810843 3.3118791514426436L2.955377540942546 3.3479311341197207L2.9373515496040072 3.3659571254582596L2.883273575588391 3.383983116796798L2.811169610234237 3.383983116796798L2.757091636218621 3.3659571254582596L2.7390656448800828 3.3479311341197207L2.7210396535415438 3.3118791514426436L2.7210396535415438 3.257801177427028L2.7390656448800828 3.221749194749951L2.77511762755716 3.1856972120728733L2.8291956015727755 3.167671220734335L2.90129956692693 3.149645229395796L2.9373515496040072 3.1316192380572576L2.955377540942546 3.0955672553801805L2.955377540942546 3.0595152727031034L2.9373515496040072 3.023463290026026L2.883273575588391 3.0054372986874878L2.811169610234237 3.0054372986874878" stroke-width="0.03" stroke="#000000" fill="none"/>
<path d="M2.6128837055103125 3.1316192380572576L2.414597800786388 3.383983116796798" stroke-width="0.03" stroke="#000000" fill="none"/>
<path d="M2.6128837055103125 3.383983116796798L2.414597800786388 3.1316192380572576" stroke-width="0.03" stroke="#000000" fill="none"/>
<path d="M2.1622339220468474 3.0054372986874878L2.1081559480312317 3.023463290026026L2.072103965354154 3.077541264041642L2.0540779740156156 3.167671220734335L2.0540779740156156 3.221749194749951L2.072103965354154 3.3118791514426436L2.1081559480312317 3.3659571254582596L2.1622339220468474 3.383983116796798L2.1982859047239245 3.383983116796798L2.2523638787395406 3.3659571254582596L2.2884158614166177 3.3118791514426436L2.3064418527551562 3.221749194749951L2.3064418527551562 3.167671220734335L2.2884158614166177 3.077541264041642L2.2523638787395406 3.023463290026026L2.1982859047239245 3.0054372986874878L2.1622339220468474 3.0054372986874878" stroke-width="0.03" stroke="#000000" fill="none"/>
</svg>
