<?xml version="1.0" standalone="no"?>
<svg width="29.7cm" height="42cm" version="1.1" xmlns="http://www.w3.org/2000/svg" viewBox="0.0 0.0 29.700001 42.000001">
<path d="M12.346874999999999 8.595539255481327L13.285546875 8.053596795769348L14.85 8.956834228622649L16.414453125 8.053596795769348L17.353125 8.595539255481327L17.353125 10.642877436615478" stroke-width="0.03" stroke="#000000" fill="none"/>
<path d="M17.14453125 10.522445778901705L17.353125 10.40201412118793L15.788671874999999 9.49877668833463L17.353125 8.595539255481327" stroke-width="0.03" stroke="#000000" fill="none"/>
<path d="M16.72734375 10.281582463474159L15.267187499999999 11.124604067470571L15.267187499999999 12.8106472754634L15.05859375 12.931078933177174L15.05859375 13.412805564032269L15.47578125 13.653668879459815" stroke-width="0.03" stroke="#000000" fill="none"/>
<path d="M15.684375 13.533237221746042L14.85 14.014963852601136L14.015625 13.533237221746042L13.181249999999999 14.014963852601136L13.181249999999999 15.580575402880193L13.80703125 15.94187037602151" stroke-width="0.03" stroke="#000000" fill="none"/>
<path d="M13.80703125 16.062302033735286L12.7640625 16.66446032230415" stroke-width="0.03" stroke="#000000" fill="none"/>
<path d="M12.97265625 17.025755295445475L13.181249999999999 16.905323637731698L12.138281249999999 16.303165349162832L11.9296875 16.423597006876605L11.9296875 18.350503530296983" stroke-width="0.03" stroke="#000000" fill="none"/>
<path d="M11.616796874999999 18.049424386012547L11.512500000000001 18.109640214869437L11.512500000000001 18.59136684572453L11.095312499999999 18.832230161152076L11.095312499999999 19.31395679200717L10.678125 19.554820107434715L10.678125 19.67525176514849L9.4265625 20.397841711431134L8.905078125 20.096762567146698" stroke-width="0.03" stroke="#000000" fill="none"/>
<path d="M8.5921875 20.277410053717357L8.5921875 22.204316577137735L9.009374999999999 22.44517989256528" stroke-width="0.03" stroke="#000000" fill="none"/>
<path d="M8.696484375 22.62582737913594L8.175 22.32474823485151" stroke-width="0.03" stroke="#000000" fill="none"/>
<path d="M8.175 21.96345326171019L8.5921875 21.72258994628264" stroke-width="0.03" stroke="#000000" fill="none"/>
<path d="M9.322265625 22.264532405994622L7.96640625 23.047338181134148L7.96640625 24.010791442844337L8.80078125 24.492518073699433L8.80078125 25.45597133540962L9.63515625 25.937697966264714L10.991015625000001 25.154892191125185L10.991015625000001 24.432302244842543" stroke-width="0.03" stroke="#000000" fill="none"/>
<path d="M11.095312499999999 24.37208641598566L12.138281249999999 24.974244704554525" stroke-width="0.03" stroke="#000000" fill="none"/>
<path d="M12.346874999999999 24.612949731413206L14.015625 23.649496469703017L13.80703125 23.529064811989244L12.138281249999999 24.492518073699433L12.138281249999999 25.696834650837165L12.346874999999999 25.817266308550938L14.015625 24.85381304684075" stroke-width="0.03" stroke="#000000" fill="none"/>
<path d="M13.911328125 25.27532384883896L12.659765624999999 25.9979137951216L12.659765624999999 26.600072083690467" stroke-width="0.03" stroke="#000000" fill="none"/>
<path d="M12.346874999999999 26.780719570261127L12.346874999999999 24.612949731413206L12.138281249999999 24.492518073699433" stroke-width="0.03" stroke="#000000" fill="none"/>
<path d="M12.555468750000001 24.251654758271883L12.555468750000001 22.32474823485151L10.88671875 21.36129497314132" stroke-width="0.03" stroke="#000000" fill="none"/>
<path d="M11.095312499999999 21.240863315427546L12.7640625 22.204316577137735L12.7640625 24.13122310055811" stroke-width="0.03" stroke="#000000" fill="none"/>
<path d="M13.598437500000001 23.649496469703017L13.598437500000001 22.686043207992828L14.4328125 22.204316577137735L13.598437500000001 21.72258994628264L13.598437500000001 20.759136684572454L12.7640625 21.240863315427546L11.9296875 20.759136684572454" stroke-width="0.03" stroke="#000000" fill="none"/>
<path d="M12.138281249999999 20.63870502685868L10.46953125 21.602158288568866L9.4265625 21L9.4265625 20.759136684572454L11.095312499999999 19.795683422862265" stroke-width="0.03" stroke="#000000" fill="none"/>
<path d="M10.678125 20.03654673828981L10.365234375 19.85589925171915" stroke-width="0.03" stroke="#000000" fill="none"/>
<path d="M10.678125 19.554820107434715L12.7640625 20.759136684572454L12.7640625 21.240863315427546" stroke-width="0.03" stroke="#000000" fill="none"/>
<path d="M12.7640625 20.759136684572454L13.598437500000001 20.277410053717357L13.598437500000001 19.31395679200717L14.015625 19.073093476579622L14.015625 20.03654673828981L14.85 19.554820107434715L15.684375 20.03654673828981L15.684375 19.073093476579622L16.51875 18.59136684572453" stroke-width="0.03" stroke="#000000" fill="none"/>
<path d="M16.51875 18.832230161152076L16.51875 16.905323637731698L17.56171875 16.303165349162832L17.7703125 16.423597006876605L17.7703125 18.350503530296983" stroke-width="0.03" stroke="#000000" fill="none"/>
<path d="M18.083203125 18.049424386012547L18.083203125 16.60424449344727L18.6046875 16.303165349162832" stroke-width="0.03" stroke="#000000" fill="none"/>
<path d="M18.6046875 15.94187037602151L16.72734375 17.025755295445475L16.72734375 18.95266181886585L16.51875 18.832230161152076" stroke-width="0.03" stroke="#000000" fill="none"/>
<path d="M16.1015625 19.31395679200717L18.1875 18.109640214869437L18.083203125 18.049424386012547" stroke-width="0.03" stroke="#000000" fill="none"/>
<path d="M18.1875 18.109640214869437L18.1875 18.59136684572453L18.6046875 18.832230161152076L18.6046875 19.31395679200717L19.021874999999998 19.554820107434715L19.021874999999998 19.67525176514849L20.2734375 20.397841711431134L20.794921875 20.096762567146698" stroke-width="0.03" stroke="#000000" fill="none"/>
<path d="M21.107812499999998 20.277410053717357L19.23046875 21.36129497314132L19.23046875 21.602158288568866L20.2734375 21L20.2734375 20.759136684572454L18.6046875 19.795683422862265" stroke-width="0.03" stroke="#000000" fill="none"/>
<path d="M19.021874999999998 20.03654673828981L19.334765625 19.85589925171915" stroke-width="0.03" stroke="#000000" fill="none"/>
<path d="M19.021874999999998 19.554820107434715L16.9359375 20.759136684572454L16.9359375 21.240863315427546L16.1015625 20.759136684572454L16.1015625 21.72258994628264L15.267187499999999 22.204316577137735L16.1015625 22.686043207992828L16.1015625 23.649496469703017" stroke-width="0.03" stroke="#000000" fill="none"/>
<path d="M15.89296875 23.529064811989244L15.684375 23.649496469703017L17.353125 24.612949731413206L17.56171875 24.492518073699433L17.56171875 25.696834650837165L17.353125 25.817266308550938L15.684375 24.85381304684075" stroke-width="0.03" stroke="#000000" fill="none"/>
<path d="M15.788671874999999 25.27532384883896L15.684375 25.335539677695845L15.267187499999999 25.0946763622683L14.85 25.335539677695845L14.4328125 25.0946763622683L14.015625 25.335539677695845L13.911328125 25.27532384883896" stroke-width="0.03" stroke="#000000" fill="none"/>
<path d="M14.015625 25.335539677695845L14.015625 22.926906523420374L13.598437500000001 22.686043207992828" stroke-width="0.03" stroke="#000000" fill="none"/>
<path d="M14.015625 22.926906523420374L14.85 22.44517989256528L15.684375 22.926906523420374L16.1015625 22.686043207992828" stroke-width="0.03" stroke="#000000" fill="none"/>
<path d="M15.684375 22.926906523420374L15.684375 25.335539677695845" stroke-width="0.03" stroke="#000000" fill="none"/>
<path d="M15.788671874999999 25.27532384883896L17.040234375 25.9979137951216L17.040234375 26.600072083690467" stroke-width="0.03" stroke="#000000" fill="none"/>
<path d="M17.353125 26.780719570261127L19.021874999999998 25.817266308550938L19.021874999999998 25.335539677695845" stroke-width="0.03" stroke="#000000" fill="none"/>
<path d="M18.708984375 25.154892191125185L18.708984375 24.432302244842543" stroke-width="0.03" stroke="#000000" fill="none"/>
<path d="M18.6046875 24.37208641598566L17.56171875 24.974244704554525" stroke-width="0.03" stroke="#000000" fill="none"/>
<path d="M17.353125 24.612949731413206L17.353125 26.780719570261127" stroke-width="0.03" stroke="#000000" fill="none"/>
<path d="M17.457421875 26.840935399118013L17.56171875 26.780719570261127L18.500390624999998 27.322662029973106" stroke-width="0.03" stroke="#000000" fill="none"/>
<path d="M18.291796875 27.202230372259333L21.733593749999997 25.215108019982072L21.31640625 24.974244704554525L20.89921875 25.215108019982072" stroke-width="0.03" stroke="#000000" fill="none"/>
<path d="M20.89921875 25.45597133540962L20.064843749999998 25.937697966264714L18.708984375 25.154892191125185" stroke-width="0.03" stroke="#000000" fill="none"/>
<path d="M19.334765625 25.51618716426651L19.334765625 26.118345452835374" stroke-width="0.03" stroke="#000000" fill="none"/>
<path d="M19.021874999999998 26.29899293940603L18.6046875 26.058129623978488" stroke-width="0.03" stroke="#000000" fill="none"/>
<path d="M17.874609375000002 26.96136705683179L19.85625 25.817266308550938" stroke-width="0.03" stroke="#000000" fill="none"/>
<path d="M20.064843749999998 25.937697966264714L20.064843749999998 24.974244704554525L19.85625 25.0946763622683L18.500390624999998 24.311870587128773L18.500390624999998 23.348417325418584L18.708984375 23.227985667704807L18.708984375 22.98712235227726L19.543359374999998 22.50539572142217L20.89921875 23.288201496561694L20.89921875 23.529064811989244L21.733593749999997 23.047338181134148L20.377734375 22.264532405994622L19.751953125 22.62582737913594" stroke-width="0.03" stroke="#000000" fill="none"/>
<path d="M19.647656249999997 22.565611550279055L19.647656249999997 21.36129497314132" stroke-width="0.03" stroke="#000000" fill="none"/>
<path d="M19.23046875 21.36129497314132L17.56171875 20.397841711431134L17.56171875 20.63870502685868L19.23046875 21.602158288568866" stroke-width="0.03" stroke="#000000" fill="none"/>
<path d="M18.81328125 21.36129497314132L17.14453125 22.32474823485151L17.14453125 24.251654758271883" stroke-width="0.03" stroke="#000000" fill="none"/>
<path d="M16.9359375 24.13122310055811L16.9359375 22.204316577137735L18.6046875 21.240863315427546" stroke-width="0.03" stroke="#000000" fill="none"/>
<path d="M17.7703125 20.759136684572454L16.9359375 21.240863315427546" stroke-width="0.03" stroke="#000000" fill="none"/>
<path d="M16.9359375 20.759136684572454L16.1015625 20.277410053717357L16.1015625 19.31395679200717L15.684375 19.073093476579622" stroke-width="0.03" stroke="#000000" fill="none"/>
<path d="M14.85 18.59136684572453L16.51875 17.62791358401434" stroke-width="0.03" stroke="#000000" fill="none"/>
<path d="M16.51875 17.387050268586794L14.85 18.350503530296983L13.181249999999999 17.387050268586794" stroke-width="0.03" stroke="#000000" fill="none"/>
<path d="M13.181249999999999 17.62791358401434L14.85 18.59136684572453" stroke-width="0.03" stroke="#000000" fill="none"/>
<path d="M14.4328125 18.109640214869437L14.85 17.86877689944189L15.267187499999999 18.109640214869437" stroke-width="0.03" stroke="#000000" fill="none"/>
<path d="M14.85 17.86877689944189L14.85 14.978417114311325L14.64140625 15.098848772025098L13.80703125 14.617122141170004L13.80703125 16.18273369144906L14.64140625 16.66446032230415L14.85 16.54402866459038L15.05859375 16.66446032230415L15.89296875 16.18273369144906L15.89296875 14.617122141170004L15.684375 14.49669048345623L16.51875 14.014963852601136L16.51875 15.580575402880193L15.89296875 15.94187037602151" stroke-width="0.03" stroke="#000000" fill="none"/>
<path d="M15.89296875 16.062302033735286L16.9359375 16.66446032230415" stroke-width="0.03" stroke="#000000" fill="none"/>
<path d="M16.72734375 17.025755295445475L16.51875 16.905323637731698" stroke-width="0.03" stroke="#000000" fill="none"/>
<path d="M17.7703125 16.905323637731698L18.083203125 16.72467615116104" stroke-width="0.03" stroke="#000000" fill="none"/>
<path d="M18.083203125 16.60424449344727L18.6046875 16.905323637731698L18.6046875 15.580575402880193L20.2734375 14.617122141170004L21.9421875 15.580575402880193L21.9421875 16.905323637731698L23.089453125000002 17.567697755157454L23.089453125000002 19.49460427857783L21.420703125 20.458057540288017L20.2734375 19.795683422862265L20.2734375 20.397841711431134" stroke-width="0.03" stroke="#000000" fill="none"/>
<path d="M20.169140624999997 20.337625882574244L19.85625 20.518273369144907" stroke-width="0.03" stroke="#000000" fill="none"/>
<path d="M20.064843749999998 20.397841711431134L20.064843749999998 20.63870502685868" stroke-width="0.03" stroke="#000000" fill="none"/>
<path d="M21.107812499999998 20.277410053717357L21.107812499999998 22.204316577137735L20.690625 22.44517989256528" stroke-width="0.03" stroke="#000000" fill="none"/>
<path d="M21.003515625000002 22.62582737913594L21.525000000000002 22.32474823485151" stroke-width="0.03" stroke="#000000" fill="none"/>
<path d="M21.525000000000002 21.96345326171019L21.107812499999998 21.72258994628264" stroke-width="0.03" stroke="#000000" fill="none"/>
<path d="M21.525000000000002 20.63870502685868L21.525000000000002 22.926906523420374" stroke-width="0.03" stroke="#000000" fill="none"/>
<path d="M21.733593749999997 23.047338181134148L21.733593749999997 24.010791442844337L20.89921875 24.492518073699433L20.89921875 25.45597133540962" stroke-width="0.03" stroke="#000000" fill="none"/>
<path d="M21.733593749999997 25.45597133540962L18.291796875 27.443093687686883L18.291796875 27.68395700311443L18.500390624999998 27.804388660828202L18.500390624999998 28.286115291683295L17.978906249999998 28.58719443596773L17.666015625 28.40654694939707" stroke-width="0.03" stroke="#000000" fill="none"/>
<path d="M17.978906249999998 28.58719443596773L17.978906249999998 28.105467805112635L18.500390624999998 27.804388660828202" stroke-width="0.03" stroke="#000000" fill="none"/>
<path d="M18.291796875 27.443093687686883L19.751953125 28.286115291683295L23.193749999999998 26.29899293940603L23.193749999999998 27.985036147398862L19.751953125 29.972158499676127L18.291796875 29.12913689567971L18.291796875 28.40654694939707" stroke-width="0.03" stroke="#000000" fill="none"/>
<path d="M18.291796875 28.647410264824618L16.623046875 29.610863526534803" stroke-width="0.03" stroke="#000000" fill="none"/>
<path d="M16.51875 29.550647697677917L18.083203125 30.45388513053122L18.083203125 31.17647507681386L17.666015625 31.41733839224141L17.666015625 31.8990650230965L16.414453125 32.621654969379136L14.85 31.71841753652584L13.285546875 32.621654969379136L12.033984375000001 31.8990650230965L12.033984375000001 31.41733839224141L11.616796874999999 31.17647507681386L11.616796874999999 30.45388513053122L13.181249999999999 29.550647697677917" stroke-width="0.03" stroke="#000000" fill="none"/>
<path d="M13.076953125000001 29.610863526534803L11.408203125 28.647410264824618" stroke-width="0.03" stroke="#000000" fill="none"/>
<path d="M11.408203125 28.40654694939707L11.408203125 29.12913689567971L9.948046875 29.972158499676127L6.5062500000000005 27.985036147398862L6.5062500000000005 26.29899293940603L7.96640625 25.45597133540962L11.408203125 27.443093687686883L11.408203125 27.68395700311443L11.199609375 27.804388660828202L11.199609375 28.286115291683295L11.72109375 28.58719443596773L12.033984375000001 28.40654694939707" stroke-width="0.03" stroke="#000000" fill="none"/>
<path d="M11.72109375 28.58719443596773L11.72109375 28.105467805112635L11.199609375 27.804388660828202" stroke-width="0.03" stroke="#000000" fill="none"/>
<path d="M11.408203125 27.443093687686883L9.948046875 28.286115291683295L6.5062500000000005 26.29899293940603" stroke-width="0.03" stroke="#000000" fill="none"/>
<path d="M6.089062499999999 25.576402993123395L7.5492187500000005 24.73338138912698L7.7578125 24.85381304684075L8.175 24.612949731413206L8.175 24.13122310055811" stroke-width="0.03" stroke="#000000" fill="none"/>
<path d="M7.7578125 24.85381304684075L7.7578125 20.879568342286227" stroke-width="0.03" stroke="#000000" fill="none"/>
<path d="M7.5492187500000005 20.759136684572454L6.089062499999999 21.602158288568866L4.62890625 20.759136684572454L4.62890625 24.73338138912698L6.089062499999999 25.576402993123395L6.089062499999999 21.602158288568866" stroke-width="0.03" stroke="#000000" fill="none"/>
<path d="M6.714843749999999 20.518273369144907L6.714843749999999 19.916115080576038L7.027734374999999 19.735467594005378" stroke-width="0.03" stroke="#000000" fill="none"/>
<path d="M6.714843749999999 19.916115080576038L7.13203125 20.156978396003588L7.13203125 20.759136684572454L6.714843749999999 20.518273369144907" stroke-width="0.03" stroke="#000000" fill="none"/>
<path d="M6.714843749999999 20.277410053717357L6.089062499999999 19.916115080576038L4.62890625 20.759136684572454" stroke-width="0.03" stroke="#000000" fill="none"/>
<path d="M5.046093749999999 19.073093476579622L6.610546875 18.16985604372632" stroke-width="0.03" stroke="#000000" fill="none"/>
<path d="M6.5062500000000005 18.23007187258321L6.5062500000000005 20.156978396003588" stroke-width="0.03" stroke="#000000" fill="none"/>
<path d="M7.13203125 20.156978396003588L7.4449218749999995 19.976330909432924" stroke-width="0.03" stroke="#000000" fill="none"/>
<path d="M7.340624999999999 20.63870502685868L7.13203125 20.759136684572454" stroke-width="0.03" stroke="#000000" fill="none"/>
<path d="M7.340624999999999 20.63870502685868L7.5492187500000005 20.759136684572454L7.5492187500000005 24.73338138912698" stroke-width="0.03" stroke="#000000" fill="none"/>
<path d="M7.027734374999999 25.034460533411412L7.027734374999999 25.51618716426651L5.3589843749999995 26.479640425976694L5.3589843749999995 25.154892191125185" stroke-width="0.03" stroke="#000000" fill="none"/>
<path d="M4.62890625 24.251654758271883L4.4203125 24.13122310055811L4.4203125 25.937697966264714L2.8558593750000005 25.034460533411412L4.62890625 24.010791442844337" stroke-width="0.03" stroke="#000000" fill="none"/>
<path d="M2.8558593750000005 25.034460533411412L2.8558593750000005 26.118345452835374L4.4203125 27.021582885688677L4.4203125 28.828057751395274L5.3589843749999995 29.37000021110726L7.13203125 28.346331120540185" stroke-width="0.03" stroke="#000000" fill="none"/>
<path d="M6.9234374999999995 28.46676277825396L6.9234374999999995 28.22589946282641" stroke-width="0.03" stroke="#000000" fill="none"/>
<path d="M6.9234374999999995 28.46676277825396L5.3589843749999995 27.563525345400656L5.3589843749999995 29.37000021110726" stroke-width="0.03" stroke="#000000" fill="none"/>
<path d="M6.5062500000000005 27.142014543402446L5.3589843749999995 26.479640425976694" stroke-width="0.03" stroke="#000000" fill="none"/>
<path d="M7.027734374999999 25.51618716426651L7.4449218749999995 25.75705047969405" stroke-width="0.03" stroke="#000000" fill="none"/>
<path d="M7.96640625 25.45597133540962L7.96640625 25.215108019982072L8.38359375 24.974244704554525L8.80078125 25.215108019982072" stroke-width="0.03" stroke="#000000" fill="none"/>
<path d="M7.96640625 25.215108019982072L11.408203125 27.202230372259333" stroke-width="0.03" stroke="#000000" fill="none"/>
<path d="M11.199609375 27.322662029973106L12.138281249999999 26.780719570261127L12.242578125 26.840935399118013" stroke-width="0.03" stroke="#000000" fill="none"/>
<path d="M12.346874999999999 26.780719570261127L10.678125 25.817266308550938L10.678125 25.335539677695845" stroke-width="0.03" stroke="#000000" fill="none"/>
<path d="M10.365234375 25.51618716426651L10.365234375 26.118345452835374" stroke-width="0.03" stroke="#000000" fill="none"/>
<path d="M10.678125 26.29899293940603L11.095312499999999 26.058129623978488" stroke-width="0.03" stroke="#000000" fill="none"/>
<path d="M11.825390624999999 26.96136705683179L9.84375 25.817266308550938" stroke-width="0.03" stroke="#000000" fill="none"/>
<path d="M9.63515625 25.937697966264714L9.63515625 24.974244704554525L9.84375 25.0946763622683L11.199609375 24.311870587128773L11.199609375 23.348417325418584L10.991015625000001 23.227985667704807L10.991015625000001 22.98712235227726L10.156640625 22.50539572142217L8.80078125 23.288201496561694L8.80078125 23.529064811989244L7.96640625 23.047338181134148" stroke-width="0.03" stroke="#000000" fill="none"/>
<path d="M8.175 22.926906523420374L8.175 20.63870502685868" stroke-width="0.03" stroke="#000000" fill="none"/>
<path d="M8.279296875 20.458057540288017L9.4265625 19.795683422862265L9.4265625 20.397841711431134" stroke-width="0.03" stroke="#000000" fill="none"/>
<path d="M9.530859375 20.337625882574244L9.84375 20.518273369144907" stroke-width="0.03" stroke="#000000" fill="none"/>
<path d="M9.63515625 20.397841711431134L9.63515625 20.63870502685868" stroke-width="0.03" stroke="#000000" fill="none"/>
<path d="M10.05234375 21.36129497314132L10.05234375 22.565611550279055" stroke-width="0.03" stroke="#000000" fill="none"/>
<path d="M9.948046875 22.62582737913594L9.322265625 22.264532405994622" stroke-width="0.03" stroke="#000000" fill="none"/>
<path d="M8.80078125 23.288201496561694L9.63515625 23.76992812741679L9.63515625 24.010791442844337L9.84375 24.13122310055811L11.199609375 23.348417325418584" stroke-width="0.03" stroke="#000000" fill="none"/>
<path d="M10.991015625000001 22.98712235227726L9.63515625 23.76992812741679" stroke-width="0.03" stroke="#000000" fill="none"/>
<path d="M9.63515625 24.010791442844337L12.138281249999999 22.565611550279055L12.555468750000001 22.8064748657066" stroke-width="0.03" stroke="#000000" fill="none"/>
<path d="M12.138281249999999 22.565611550279055L12.138281249999999 22.08388491942396" stroke-width="0.03" stroke="#000000" fill="none"/>
<path d="M12.138281249999999 20.63870502685868L12.138281249999999 20.397841711431134L10.46953125 21.36129497314132L8.5921875 20.277410053717357" stroke-width="0.03" stroke="#000000" fill="none"/>
<path d="M8.487890625 20.337625882574244L8.487890625 20.458057540288017L7.5492187500000005 21" stroke-width="0.03" stroke="#000000" fill="none"/>
<path d="M8.279296875 20.458057540288017L8.279296875 18.531151016867643L6.610546875 17.567697755157454L7.7578125 16.905323637731698L7.7578125 15.580575402880193L9.4265625 14.617122141170004L11.095312499999999 15.580575402880193L11.095312499999999 16.905323637731698L11.616796874999999 16.60424449344727L11.616796874999999 18.049424386012547" stroke-width="0.03" stroke="#000000" fill="none"/>
<path d="M11.512500000000001 18.109640214869437L13.598437500000001 19.31395679200717" stroke-width="0.03" stroke="#000000" fill="none"/>
<path d="M14.015625 19.073093476579622L13.181249999999999 18.59136684572453" stroke-width="0.03" stroke="#000000" fill="none"/>
<path d="M13.181249999999999 18.832230161152076L12.97265625 18.95266181886585L12.97265625 17.025755295445475L11.095312499999999 15.94187037602151L12.7640625 14.978417114311325L13.181249999999999 15.21928042973887" stroke-width="0.03" stroke="#000000" fill="none"/>
<path d="M13.181249999999999 14.85798545659755L12.659765624999999 14.556906312313117" stroke-width="0.03" stroke="#000000" fill="none"/>
<path d="M12.346874999999999 14.737553798883777L12.346874999999999 15.21928042973887" stroke-width="0.03" stroke="#000000" fill="none"/>
<path d="M11.199609375 15.399927916309531L13.181249999999999 14.255827168028683" stroke-width="0.03" stroke="#000000" fill="none"/>
<path d="M13.181249999999999 14.014963852601136L14.015625 14.49669048345623L13.80703125 14.617122141170004" stroke-width="0.03" stroke="#000000" fill="none"/>
<path d="M14.64140625 15.098848772025098L14.64140625 16.66446032230415" stroke-width="0.03" stroke="#000000" fill="none"/>
<path d="M15.05859375 16.66446032230415L15.05859375 15.098848772025098L15.89296875 14.617122141170004" stroke-width="0.03" stroke="#000000" fill="none"/>
<path d="M16.51875 14.85798545659755L17.040234375 14.556906312313117" stroke-width="0.03" stroke="#000000" fill="none"/>
<path d="M17.353125 14.737553798883777L17.353125 15.21928042973887" stroke-width="0.03" stroke="#000000" fill="none"/>
<path d="M16.9359375 14.978417114311325L16.51875 15.21928042973887" stroke-width="0.03" stroke="#000000" fill="none"/>
<path d="M16.9359375 14.978417114311325L18.6046875 15.94187037602151" stroke-width="0.03" stroke="#000000" fill="none"/>
<path d="M18.6046875 15.82143871830774L18.500390624999998 15.761222889450853L18.500390624999998 14.67733797002689" stroke-width="0.03" stroke="#000000" fill="none"/>
<path d="M18.500390624999998 14.918201285454437L15.05859375 12.931078933177174" stroke-width="0.03" stroke="#000000" fill="none"/>
<path d="M15.267187499999999 12.8106472754634L18.708984375 14.797769627740664L18.917578125000002 14.67733797002689L18.917578125000002 14.436474654599342L19.334765625 14.195611339171796L19.85625 14.49669048345623L19.85625 14.85798545659755" stroke-width="0.03" stroke="#000000" fill="none"/>
<path d="M19.85625 14.49669048345623L19.439062500000002 14.737553798883777L19.439062500000002 15.098848772025098" stroke-width="0.03" stroke="#000000" fill="none"/>
<path d="M19.439062500000002 14.737553798883777L18.917578125000002 14.436474654599342" stroke-width="0.03" stroke="#000000" fill="none"/>
<path d="M18.708984375 14.797769627740664L18.708984375 13.111726419747836L20.169140624999997 12.26870481575142L16.72734375 10.281582463474159" stroke-width="0.03" stroke="#000000" fill="none"/>
<path d="M15.997265625 10.703093265472365L14.85 10.04071914804661L13.702734374999999 10.703093265472365" stroke-width="0.03" stroke="#000000" fill="none"/>
<path d="M12.97265625 10.281582463474159L9.530859375 12.26870481575142L9.530859375 13.95474802374425L10.156640625 14.31604299688557" stroke-width="0.03" stroke="#000000" fill="none"/>
<path d="M9.948046875 14.195611339171796L8.279296875 15.159064600881985" stroke-width="0.03" stroke="#000000" fill="none"/>
<path d="M8.279296875 15.279496258595758L8.279296875 13.473021392889155L7.653515625 13.111726419747836L7.236328125 13.352589735175382L6.819140625 13.111726419747836L5.567578125 13.834316366030475L5.567578125 15.640791231737078L5.984765624999999 15.881654547164626L5.3589843749999995 16.24294952030595L5.3589843749999995 16.36338117801972L5.567578125 16.24294952030595L5.984765624999999 16.483812835733495L5.984765624999999 17.326834439729907L4.941796875 17.928992728298773L5.046093749999999 17.989208557155663L5.046093749999999 19.073093476579622L4.4203125 18.711798503438303L4.4203125 18.23007187258321L4.003124999999999 17.989208557155663L4.003124999999999 16.54402866459038L5.567578125 15.640791231737078" stroke-width="0.03" stroke="#000000" fill="none"/>
<path d="M5.984765624999999 15.881654547164626L5.984765624999999 15.159064600881985L5.567578125 14.918201285454437L5.671875 14.85798545659755L6.089062499999999 15.098848772025098L6.089062499999999 15.339712087452645L6.5062500000000005 15.580575402880193L7.236328125 15.159064600881985L7.236328125 13.95474802374425L6.5062500000000005 14.376258825742458L6.5062500000000005 15.580575402880193" stroke-width="0.03" stroke="#000000" fill="none"/>
<path d="M6.819140625 15.399927916309531L6.819140625 16.122517862592172L6.610546875 16.24294952030595L6.610546875 16.483812835733495L5.984765624999999 16.845107808874815" stroke-width="0.03" stroke="#000000" fill="none"/>
<path d="M5.984765624999999 16.483812835733495L4.941796875 17.08597112430236L4.003124999999999 16.54402866459038" stroke-width="0.03" stroke="#000000" fill="none"/>
<path d="M4.941796875 16.122517862592172L4.941796875 16.0020862048784L5.3589843749999995 16.24294952030595" stroke-width="0.03" stroke="#000000" fill="none"/>
<path d="M5.3589843749999995 16.36338117801972L4.941796875 16.122517862592172" stroke-width="0.03" stroke="#000000" fill="none"/>
<path d="M4.941796875 17.08597112430236L4.941796875 17.928992728298773" stroke-width="0.03" stroke="#000000" fill="none"/>
<path d="M5.046093749999999 17.989208557155663L7.340624999999999 16.66446032230415L7.340624999999999 14.014963852601136L7.236328125 13.95474802374425" stroke-width="0.03" stroke="#000000" fill="none"/>
<path d="M7.340624999999999 14.014963852601136L8.279296875 13.473021392889155" stroke-width="0.03" stroke="#000000" fill="none"/>
<path d="M9.530859375 12.26870481575142L10.991015625000001 13.111726419747836L10.991015625000001 14.797769627740664L10.782421874999999 14.67733797002689L10.782421874999999 14.436474654599342L10.365234375 14.195611339171796L9.84375 14.49669048345623L9.84375 14.85798545659755" stroke-width="0.03" stroke="#000000" fill="none"/>
<path d="M9.84375 14.49669048345623L10.260937499999999 14.737553798883777L10.260937499999999 15.098848772025098" stroke-width="0.03" stroke="#000000" fill="none"/>
<path d="M10.260937499999999 14.737553798883777L10.782421874999999 14.436474654599342" stroke-width="0.03" stroke="#000000" fill="none"/>
<path d="M10.991015625000001 14.797769627740664L14.4328125 12.8106472754634L14.4328125 11.124604067470571L12.97265625 10.281582463474159" stroke-width="0.03" stroke="#000000" fill="none"/>
<path d="M12.555468750000001 10.522445778901705L12.346874999999999 10.40201412118793L13.911328125 9.49877668833463L12.346874999999999 8.595539255481327L12.346874999999999 10.642877436615478" stroke-width="0.03" stroke="#000000" fill="none"/>
<path d="M14.4328125 11.124604067470571L10.991015625000001 13.111726419747836" stroke-width="0.03" stroke="#000000" fill="none"/>
<path d="M11.199609375 14.67733797002689L11.199609375 15.761222889450853L11.095312499999999 15.82143871830774" stroke-width="0.03" stroke="#000000" fill="none"/>
<path d="M11.095312499999999 15.580575402880193L9.4265625 16.54402866459038L7.7578125 15.580575402880193" stroke-width="0.03" stroke="#000000" fill="none"/>
<path d="M7.7578125 16.54402866459038L7.4449218749999995 16.72467615116104L7.4449218749999995 17.08597112430236" stroke-width="0.03" stroke="#000000" fill="none"/>
<path d="M7.4449218749999995 16.72467615116104L9.4265625 17.86877689944189L9.4265625 16.54402866459038" stroke-width="0.03" stroke="#000000" fill="none"/>
<path d="M9.4265625 17.86877689944189L8.279296875 18.531151016867643" stroke-width="0.03" stroke="#000000" fill="none"/>
<path d="M9.84375 18.23007187258321L9.948046875 18.16985604372632L9.948046875 18.049424386012547L10.573828124999999 17.688129412871227L10.991015625000001 17.928992728298773L10.991015625000001 18.77201433229519L10.260937499999999 19.193525134293395L9.84375 18.95266181886585L9.84375 18.23007187258321L10.260937499999999 18.470935188010756L10.260937499999999 19.193525134293395" stroke-width="0.03" stroke="#000000" fill="none"/>
<path d="M10.260937499999999 18.470935188010756L10.365234375 18.410719359153866L10.365234375 18.290287701440096L9.948046875 18.049424386012547" stroke-width="0.03" stroke="#000000" fill="none"/>
<path d="M9.948046875 18.16985604372632L10.365234375 18.410719359153866" stroke-width="0.03" stroke="#000000" fill="none"/>
<path d="M10.365234375 18.290287701440096L10.991015625000001 17.928992728298773" stroke-width="0.03" stroke="#000000" fill="none"/>
<path d="M11.616796874999999 17.688129412871227L11.9296875 17.86877689944189" stroke-width="0.03" stroke="#000000" fill="none"/>
<path d="M11.9296875 16.905323637731698L11.616796874999999 16.72467615116104" stroke-width="0.03" stroke="#000000" fill="none"/>
<path d="M11.72109375 16.784891980017925L11.9296875 16.66446032230415" stroke-width="0.03" stroke="#000000" fill="none"/>
<path d="M11.616796874999999 16.60424449344727L11.095312499999999 16.303165349162832" stroke-width="0.03" stroke="#000000" fill="none"/>
<path d="M11.199609375 14.918201285454437L14.64140625 12.931078933177174L14.4328125 12.8106472754634" stroke-width="0.03" stroke="#000000" fill="none"/>
<path d="M14.64140625 12.931078933177174L14.64140625 13.412805564032269L14.224218749999999 13.653668879459815" stroke-width="0.03" stroke="#000000" fill="none"/>
<path d="M14.4328125 12.208488986894533L14.85 11.967625671466987L15.267187499999999 12.208488986894533" stroke-width="0.03" stroke="#000000" fill="none"/>
<path d="M14.85 11.967625671466987L14.85 10.04071914804661" stroke-width="0.03" stroke="#000000" fill="none"/>
<path d="M15.267187499999999 11.124604067470571L18.708984375 13.111726419747836" stroke-width="0.03" stroke="#000000" fill="none"/>
<path d="M19.543359374999998 14.31604299688557L20.169140624999997 13.95474802374425L20.169140624999997 12.26870481575142" stroke-width="0.03" stroke="#000000" fill="none"/>
<path d="M21.420703125 13.473021392889155L22.046484375000002 13.111726419747836L22.463671875 13.352589735175382L22.880859375 13.111726419747836L24.132421875000002 13.834316366030475L24.132421875000002 15.640791231737078L23.715234375 15.881654547164626L24.341015624999997 16.24294952030595L24.341015624999997 16.36338117801972L24.758203125 16.122517862592172L24.758203125 16.0020862048784L24.341015624999997 16.24294952030595" stroke-width="0.03" stroke="#000000" fill="none"/>
<path d="M24.341015624999997 16.36338117801972L24.132421875000002 16.24294952030595L23.715234375 16.483812835733495L23.715234375 17.326834439729907L24.758203125 17.928992728298773L24.653906250000002 17.989208557155663L24.653906250000002 19.073093476579622L23.089453125000002 18.16985604372632" stroke-width="0.03" stroke="#000000" fill="none"/>
<path d="M23.193749999999998 18.23007187258321L23.193749999999998 20.156978396003588" stroke-width="0.03" stroke="#000000" fill="none"/>
<path d="M22.98515625 20.277410053717357L23.610937500000002 19.916115080576038L25.07109375 20.759136684572454L25.07109375 24.73338138912698L23.610937500000002 25.576402993123395L22.150781249999998 24.73338138912698L21.9421875 24.85381304684075L21.525000000000002 24.612949731413206L21.525000000000002 24.13122310055811" stroke-width="0.03" stroke="#000000" fill="none"/>
<path d="M21.9421875 24.85381304684075L21.9421875 20.879568342286227" stroke-width="0.03" stroke="#000000" fill="none"/>
<path d="M22.150781249999998 20.759136684572454L22.359375 20.63870502685868L22.567968750000002 20.759136684572454L22.98515625 20.518273369144907L22.98515625 19.916115080576038L22.672265625 19.735467594005378" stroke-width="0.03" stroke="#000000" fill="none"/>
<path d="M22.98515625 19.916115080576038L22.567968750000002 20.156978396003588L22.567968750000002 20.759136684572454" stroke-width="0.03" stroke="#000000" fill="none"/>
<path d="M22.150781249999998 20.759136684572454L22.150781249999998 24.73338138912698" stroke-width="0.03" stroke="#000000" fill="none"/>
<path d="M22.672265625 25.034460533411412L22.672265625 25.51618716426651L24.341015624999997 26.479640425976694L24.341015624999997 25.154892191125185" stroke-width="0.03" stroke="#000000" fill="none"/>
<path d="M23.610937500000002 25.576402993123395L23.610937500000002 21.602158288568866L25.07109375 20.759136684572454" stroke-width="0.03" stroke="#000000" fill="none"/>
<path d="M23.610937500000002 21.602158288568866L22.150781249999998 20.759136684572454" stroke-width="0.03" stroke="#000000" fill="none"/>
<path d="M22.150781249999998 21L21.212109374999997 20.458057540288017L21.212109374999997 20.337625882574244" stroke-width="0.03" stroke="#000000" fill="none"/>
<path d="M21.420703125 20.458057540288017L21.420703125 18.531151016867643L23.089453125000002 17.567697755157454" stroke-width="0.03" stroke="#000000" fill="none"/>
<path d="M23.715234375 16.845107808874815L23.089453125000002 16.483812835733495L23.089453125000002 16.24294952030595L22.880859375 16.122517862592172L22.880859375 15.399927916309531" stroke-width="0.03" stroke="#000000" fill="none"/>
<path d="M23.193749999999998 15.580575402880193L23.610937500000002 15.339712087452645L23.610937500000002 15.098848772025098L24.028125 14.85798545659755L24.132421875000002 14.918201285454437L23.715234375 15.159064600881985L23.715234375 15.881654547164626" stroke-width="0.03" stroke="#000000" fill="none"/>
<path d="M24.132421875000002 15.640791231737078L25.696875000000002 16.54402866459038L25.696875000000002 17.989208557155663L25.279687499999998 18.23007187258321L25.279687499999998 18.711798503438303L24.653906250000002 19.073093476579622" stroke-width="0.03" stroke="#000000" fill="none"/>
<path d="M24.653906250000002 17.989208557155663L22.359375 16.66446032230415L22.359375 14.014963852601136L22.463671875 13.95474802374425L23.193749999999998 14.376258825742458L23.193749999999998 15.580575402880193L22.463671875 15.159064600881985L22.463671875 13.95474802374425" stroke-width="0.03" stroke="#000000" fill="none"/>
<path d="M22.359375 14.014963852601136L21.420703125 13.473021392889155L21.420703125 15.279496258595758" stroke-width="0.03" stroke="#000000" fill="none"/>
<path d="M21.420703125 15.159064600881985L19.751953125 14.195611339171796" stroke-width="0.03" stroke="#000000" fill="none"/>
<path d="M18.500390624999998 15.399927916309531L16.51875 14.255827168028683" stroke-width="0.03" stroke="#000000" fill="none"/>
<path d="M16.51875 14.014963852601136L15.684375 13.533237221746042" stroke-width="0.03" stroke="#000000" fill="none"/>
<path d="M14.85 14.978417114311325L15.05859375 15.098848772025098" stroke-width="0.03" stroke="#000000" fill="none"/>
<path d="M13.181249999999999 16.905323637731698L13.181249999999999 18.832230161152076" stroke-width="0.03" stroke="#000000" fill="none"/>
<path d="M13.598437500000001 20.277410053717357L11.095312499999999 18.832230161152076" stroke-width="0.03" stroke="#000000" fill="none"/>
<path d="M10.46953125 21.36129497314132L10.46953125 21.602158288568866" stroke-width="0.03" stroke="#000000" fill="none"/>
<path d="M8.279296875 20.458057540288017L6.610546875 19.49460427857783L6.610546875 17.567697755157454" stroke-width="0.03" stroke="#000000" fill="none"/>
<path d="M7.340624999999999 16.66446032230415L6.714843749999999 16.303165349162832L6.610546875 16.36338117801972" stroke-width="0.03" stroke="#000000" fill="none"/>
<path d="M6.714843749999999 16.303165349162832L6.714843749999999 16.18273369144906" stroke-width="0.03" stroke="#000000" fill="none"/>
<path d="M6.089062499999999 15.098848772025098L5.984765624999999 15.159064600881985" stroke-width="0.03" stroke="#000000" fill="none"/>
<path d="M6.5062500000000005 14.376258825742458L5.567578125 13.834316366030475" stroke-width="0.03" stroke="#000000" fill="none"/>
<path d="M4.57771676141102 3.383983116796798L4.757976674796406 3.0054372986874878L4.505612796056865 3.0054372986874878" stroke-width="0.03" stroke="#000000" fill="none"/>
<path d="M4.3073268913329406 3.1856972120728733L4.361404865348556 3.167671220734335L4.379430856687095 3.149645229395796L4.397456848025634 3.113593246718719L4.397456848025634 3.077541264041642L4.379430856687095 3.041489281364565L4.361404865348556 3.023463290026026L4.3073268913329406 3.0054372986874878L4.145092969286093 3.0054372986874878L4.145092969286093 3.383983116796798L4.3073268913329406 3.383983116796798L4.361404865348556 3.3659571254582596L4.379430856687095 3.3479311341197207L4.397456848025634 3.3118791514426436L4.397456848025634 3.257801177427028L4.379430856687095 3.221749194749951L4.361404865348556 3.2037232034114123L4.3073268913329406 3.1856972120728733L4.145092969286093 3.1856972120728733" stroke-width="0.03" stroke="#000000" fill="none"/>
<path d="M4.000885038577785 3.257801177427028L3.8206251251923984 3.257801177427028" stroke-width="0.03" stroke="#000000" fill="none"/>
<path d="M3.694443185822628 3.293853160104105L3.6764171944840895 3.3299051427811825L3.6403652118070124 3.3659571254582596L3.604313229129935 3.383983116796798L3.5322092637757807 3.383983116796798L3.4961572810987036 3.3659571254582596L3.4601052984216265 3.3299051427811825L3.442079307083088 3.293853160104105L3.4240533157445494 3.2397751860884894L3.4240533157445494 3.149645229395796L3.442079307083088 3.0955672553801805L3.4601052984216265 3.0595152727031034L3.4961572810987036 3.023463290026026L3.5322092637757807 3.0054372986874878L3.604313229129935 3.0054372986874878L3.6403652118070124 3.023463290026026L3.6764171944840895 3.0595152727031034L3.694443185822628 3.0955672553801805" stroke-width="0.03" stroke="#000000" fill="none"/>
<path d="M3.9107550818850916 3.0054372986874878L3.7665471511767823 3.383983116796798" stroke-width="0.03" stroke="#000000" fill="none"/>
<path d="M4.0549630125934 3.383983116796798L3.9107550818850916 3.0054372986874878" stroke-width="0.03" stroke="#000000" fill="none"/>
<path d="M3.333923359051856 3.0054372986874878L3.0995854716508546 3.0054372986874878L3.0995854716508546 3.383983116796798L3.333923359051856 3.383983116796798" stroke-width="0.03" stroke="#000000" fill="none"/>
<path d="M3.243793402359163 3.1856972120728733L3.0995854716508546 3.1856972120728733" stroke-width="0.03" stroke="#000000" fill="none"/>
<path d="M2.955377540942546 3.1316192380572576L2.9373515496040072 3.1856972120728733L2.90129956692693 3.221749194749951L2.847221592911314 3.2397751860884894L2.8291956015727755 3.2397751860884894L2.77511762755716 3.221749194749951L2.7390656448800828 3.1856972120728733L2.7210396535415438 3.1316192380572576L2.7210396535415438 3.113593246718719L2.7390656448800828 3.0595152727031034L2.77511762755716 3.023463290026026L2.8291956015727755 3.0054372986874878L2.847221592911314 3.0054372986874878L2.90129956692693 3.023463290026026L2.9373515496040072 3.0595152727031034L2.955377540942546 3.1316192380572576L2.955377540942546 3.221749194749951L2.9373515496040072 3.3118791514426436L2.90129956692693 3.3659571254582596L2.847221592911314 3.383983116796798L2.811169610234237 3.383983116796798L2.757091636218621 3.3659571254582596L2.7390656448800828 3.3299051427811825" stroke-width="0.03" stroke="#000000" fill="none"/>
<path d="M2.6128837055103125 3.383983116796798L2.414597800786388 3.1316192380572576" stroke-width="0.03" stroke="#000000" fill="none"/>
<path d="M2.6128837055103125 3.1316192380572576L2.414597800786388 3.383983116796798" stroke-width="0.03" stroke="#000000" fill="none"/>
<path d="M2.1622339220468474 3.0054372986874878L2.1081559480312317 3.023463290026026L2.072103965354154 3.077541264041642L2.0540779740156156 3.167671220734335L2.0540779740156156 3.221749194749951L2.072103965354154 3.3118791514426436L2.1081559480312317 3.3659571254582596L2.1622339220468474 3.383983116796798L2.1982859047239245 3.383983116796798L2.2523638787395406 3.3659571254582596L2.2884158614166177 3.3118791514426436L2.3064418527551562 3.221749194749951L2.3064418527551562 3.167671220734335L2.2884158614166177 3.077541264041642L2.2523638787395406 3.023463290026026L2.1982859047239245 3.0054372986874878L2.1622339220468474 3.0054372986874878" stroke-width="0.03" stroke="#000000" fill="none"/>
<path d="M2.1166666666666667 2.2291666666666665L2.1166666666666667 1.8208333333333333" stroke-width="0.03" stroke="#000000" fill="none"/>
<path d="M2.0875 1.6166666666666667L2.1166666666666667 1.6458333333333333L2.145833333333333 1.6166666666666667L2.1166666666666667 1.5875L2.0875 1.6166666666666667" stroke-width="0.03" stroke="#000000" fill="none"/>
<path d="M2.3208333333333333 2.1416666666666666L2.35 2.2L2.4375 2.2291666666666665L2.525 2.2291666666666665L2.6125 2.2L2.6416666666666666 2.1416666666666666L2.6416666666666666 2.1125L2.6125 2.0541666666666667L2.5541666666666667 2.025L2.408333333333333 1.9958333333333333L2.35 1.9666666666666666L2.3208333333333333 1.9083333333333332L2.35 1.85L2.4375 1.8208333333333333L2.525 1.8208333333333333L2.6125 1.85L2.6416666666666666 1.9083333333333332" stroke-width="0.03" stroke="#000000" fill="none"/>
<path d="M2.9625 1.8208333333333333L2.904166666666667 1.85L2.845833333333333 1.9083333333333332L2.8166666666666664 1.9958333333333333L2.8166666666666664 2.0541666666666667L2.845833333333333 2.1416666666666666L2.904166666666667 2.2L2.9625 2.2291666666666665L3.05 2.2291666666666665L3.1083333333333334 2.2L3.1666666666666665 2.1416666666666666L3.1958333333333333 2.0541666666666667L3.1958333333333333 1.9958333333333333L3.1666666666666665 1.9083333333333332L3.1083333333333334 1.85L3.05 1.8208333333333333L2.9625 1.8208333333333333" stroke-width="0.03" stroke="#000000" fill="none"/>
<path d="M3.283333333333333 2.2874999999999996L3.75 2.2874999999999996" stroke-width="0.03" stroke="#000000" fill="none"/>
<path d="M3.8375 2.1416666666666666L3.8666666666666663 2.2L3.9541666666666666 2.2291666666666665L4.041666666666666 2.2291666666666665L4.129166666666666 2.2L4.158333333333333 2.1416666666666666L4.158333333333333 2.1125L4.129166666666666 2.0541666666666667L4.070833333333333 2.025L3.925 1.9958333333333333L3.8666666666666663 1.9666666666666666L3.8375 1.9083333333333332L3.8666666666666663 1.85L3.9541666666666666 1.8208333333333333L4.041666666666666 1.8208333333333333L4.129166666666666 1.85L4.158333333333333 1.9083333333333332" stroke-width="0.03" stroke="#000000" fill="none"/>
<path d="M4.3625 1.9375L4.449999999999999 1.85L4.508333333333333 1.8208333333333333L4.595833333333333 1.8208333333333333L4.654166666666667 1.85L4.683333333333334 1.9375L4.683333333333334 2.2291666666666665" stroke-width="0.03" stroke="#000000" fill="none"/>
<path d="M4.3625 2.2291666666666665L4.3625 1.8208333333333333" stroke-width="0.03" stroke="#000000" fill="none"/>
<path d="M5.033333333333333 1.8208333333333333L4.975 1.85L4.916666666666666 1.9083333333333332L4.887499999999999 1.9958333333333333L4.887499999999999 2.0541666666666667L4.916666666666666 2.1416666666666666L4.975 2.2L5.033333333333333 2.2291666666666665L5.120833333333334 2.2291666666666665L5.179166666666666 2.2L5.2375 2.1416666666666666L5.266666666666666 2.0541666666666667L5.266666666666666 1.9958333333333333L5.2375 1.9083333333333332L5.179166666666666 1.85L5.120833333333334 1.8208333333333333L5.033333333333333 1.8208333333333333" stroke-width="0.03" stroke="#000000" fill="none"/>
<path d="M5.441666666666666 1.8208333333333333L5.558333333333334 2.2291666666666665L5.675 1.8208333333333333L5.791666666666666 2.2291666666666665L5.908333333333333 1.8208333333333333" stroke-width="0.03" stroke="#000000" fill="none"/>
<path d="M6.054166666666666 1.8208333333333333L6.258333333333333 1.8208333333333333" stroke-width="0.03" stroke="#000000" fill="none"/>
<path d="M6.2875 1.6166666666666667L6.229166666666666 1.6166666666666667L6.1708333333333325 1.6458333333333333L6.141666666666667 1.7333333333333334L6.141666666666667 2.2291666666666665" stroke-width="0.03" stroke="#000000" fill="none"/>
<path d="M6.4624999999999995 2.2291666666666665L6.4624999999999995 1.6166666666666667" stroke-width="0.03" stroke="#000000" fill="none"/>
<path d="M7.016666666666666 1.8208333333333333L7.016666666666666 2.2291666666666665" stroke-width="0.03" stroke="#000000" fill="none"/>
<path d="M7.016666666666666 2.1416666666666666L6.958333333333333 2.2L6.8999999999999995 2.2291666666666665L6.812499999999999 2.2291666666666665L6.754166666666666 2.2L6.695833333333333 2.1416666666666666L6.666666666666666 2.0541666666666667L6.666666666666666 1.9958333333333333L6.695833333333333 1.9083333333333332L6.754166666666666 1.85L6.812499999999999 1.8208333333333333L6.8999999999999995 1.8208333333333333L6.958333333333333 1.85L7.016666666666666 1.9083333333333332" stroke-width="0.03" stroke="#000000" fill="none"/>
<path d="M7.249999999999999 2.1125L7.541666666666666 1.8208333333333333" stroke-width="0.03" stroke="#000000" fill="none"/>
<path d="M7.366666666666666 1.9958333333333333L7.570833333333333 2.2291666666666665" stroke-width="0.03" stroke="#000000" fill="none"/>
<path d="M7.716666666666666 1.9958333333333333L8.066666666666666 1.9958333333333333L8.066666666666666 1.9375L8.0375 1.8791666666666667L8.008333333333333 1.85L7.949999999999999 1.8208333333333333L7.8625 1.8208333333333333L7.804166666666666 1.85L7.745833333333333 1.9083333333333332L7.716666666666666 1.9958333333333333L7.716666666666666 2.0541666666666667L7.745833333333333 2.1416666666666666L7.804166666666666 2.2L7.8625 2.2291666666666665L7.949999999999999 2.2291666666666665L8.008333333333333 2.2L8.066666666666666 2.1416666666666666" stroke-width="0.03" stroke="#000000" fill="none"/>
<path d="M8.475 2.2291666666666665L8.475 1.6166666666666667L8.3875 1.7041666666666666L8.329166666666666 1.7333333333333334" stroke-width="0.03" stroke="#000000" fill="none"/>
<path d="M7.249999999999999 1.6166666666666667L7.249999999999999 2.2291666666666665" stroke-width="0.03" stroke="#000000" fill="none"/>
<path d="M9.237499999999999 2.533333333333333L1.5 2.533333333333333" stroke-width="0.03" stroke="#000000" fill="none"/>
<path d="M5.136522492905716 3.0955672553801805L5.1184965015671775 3.0595152727031034L5.0824445188901 3.023463290026026L5.046392536213023 3.0054372986874878L4.974288570858869 3.0054372986874878L4.938236588181791 3.023463290026026L4.902184605504715 3.0595152727031034L4.884158614166176 3.0955672553801805L4.866132622827637 3.149645229395796L4.866132622827637 3.2397751860884894L4.884158614166176 3.293853160104105L4.902184605504715 3.3299051427811825L4.938236588181791 3.3659571254582596L4.974288570858869 3.383983116796798L5.046392536213023 3.383983116796798L5.0824445188901 3.3659571254582596L5.1184965015671775 3.3299051427811825L5.136522492905716 3.293853160104105" stroke-width="0.03" stroke="#000000" fill="none"/>
<path d="M5.33480839762964 3.0054372986874878L5.280730423614025 3.023463290026026L5.262704432275486 3.0595152727031034L5.262704432275486 3.0955672553801805L5.280730423614025 3.1316192380572576L5.316782406291102 3.149645229395796L5.388886371645256 3.167671220734335L5.442964345660872 3.1856972120728733L5.479016328337949 3.221749194749951L5.497042319676488 3.257801177427028L5.497042319676488 3.3118791514426436L5.479016328337949 3.3479311341197207L5.46099033699941 3.3659571254582596L5.406912362983795 3.383983116796798L5.33480839762964 3.383983116796798L5.280730423614025 3.3659571254582596L5.262704432275486 3.3479311341197207L5.244678440936948 3.3118791514426436L5.244678440936948 3.257801177427028L5.262704432275486 3.221749194749951L5.298756414952564 3.1856972120728733L5.352834388968179 3.167671220734335L5.424938354322334 3.149645229395796L5.46099033699941 3.1316192380572576L5.479016328337949 3.0955672553801805L5.479016328337949 3.0595152727031034L5.46099033699941 3.023463290026026L5.406912362983795 3.0054372986874878L5.33480839762964 3.0054372986874878" stroke-width="0.03" stroke="#000000" fill="none"/>
<path d="M18.6046875 15.580575402880193L20.2734375 16.54402866459038L21.9421875 15.580575402880193" stroke-width="0.03" stroke="#000000" fill="none"/>
<path d="M21.9421875 16.54402866459038L22.255078124999997 16.72467615116104L22.255078124999997 17.08597112430236" stroke-width="0.03" stroke="#000000" fill="none"/>
<path d="M22.255078124999997 16.72467615116104L20.2734375 17.86877689944189L21.420703125 18.531151016867643" stroke-width="0.03" stroke="#000000" fill="none"/>
<path d="M20.2734375 17.86877689944189L20.2734375 16.54402866459038" stroke-width="0.03" stroke="#000000" fill="none"/>
<path d="M19.751953125 18.049424386012547L19.334765625 18.290287701440096L19.334765625 18.410719359153866L19.439062500000002 18.470935188010756L19.439062500000002 19.193525134293395L18.708984375 18.77201433229519L18.708984375 17.928992728298773L19.126171875 17.688129412871227L19.751953125 18.049424386012547L19.751953125 18.16985604372632L19.85625 18.23007187258321L19.85625 18.95266181886585L19.439062500000002 19.193525134293395" stroke-width="0.03" stroke="#000000" fill="none"/>
<path d="M19.439062500000002 18.470935188010756L19.85625 18.23007187258321" stroke-width="0.03" stroke="#000000" fill="none"/>
<path d="M19.751953125 18.16985604372632L19.334765625 18.410719359153866" stroke-width="0.03" stroke="#000000" fill="none"/>
<path d="M19.334765625 18.290287701440096L18.708984375 17.928992728298773" stroke-width="0.03" stroke="#000000" fill="none"/>
<path d="M18.083203125 17.688129412871227L17.7703125 17.86877689944189" stroke-width="0.03" stroke="#000000" fill="none"/>
<path d="M17.978906249999998 16.784891980017925L17.7703125 16.66446032230415" stroke-width="0.03" stroke="#000000" fill="none"/>
<path d="M18.6046875 18.832230161152076L16.1015625 20.277410053717357" stroke-width="0.03" stroke="#000000" fill="none"/>
<path d="M15.684375 20.518273369144907L15.684375 21.481726630855093L14.85 21.96345326171019L14.015625 21.481726630855093L14.015625 20.518273369144907L14.85 20.03654673828981L15.684375 20.518273369144907" stroke-width="0.03" stroke="#000000" fill="none"/>
<path d="M14.85 21L13.598437500000001 21.72258994628264" stroke-width="0.03" stroke="#000000" fill="none"/>
<path d="M14.85 21L14.85 19.554820107434715" stroke-width="0.03" stroke="#000000" fill="none"/>
<path d="M14.85 21L16.1015625 21.72258994628264" stroke-width="0.03" stroke="#000000" fill="none"/>
<path d="M14.85 22.44517989256528L14.85 25.335539677695845" stroke-width="0.03" stroke="#000000" fill="none"/>
<path d="M14.85 25.45597133540962L14.119921875 25.877482137407824L14.119921875 26.359208768262917L14.745703124999999 26.72050374140424L14.85 26.660287912547354L14.954296875 26.72050374140424L15.580078125 26.359208768262917L15.580078125 25.877482137407824L14.85 25.45597133540962" stroke-width="0.03" stroke="#000000" fill="none"/>
<path d="M14.85 26.17856128169226L14.745703124999999 26.238777110549147L14.119921875 25.877482137407824" stroke-width="0.03" stroke="#000000" fill="none"/>
<path d="M13.598437500000001 25.45597133540962L13.598437500000001 25.0946763622683" stroke-width="0.03" stroke="#000000" fill="none"/>
<path d="M12.7640625 25.576402993123395L12.7640625 25.937697966264714" stroke-width="0.03" stroke="#000000" fill="none"/>
<path d="M12.659765624999999 25.9979137951216L13.181249999999999 26.29899293940603L12.033984375000001 26.96136705683179L12.033984375000001 28.888273580252164L13.702734374999999 29.851726841962353L14.85 29.189352724536597L15.997265625 29.851726841962353L17.666015625 28.888273580252164L17.666015625 26.96136705683179L16.51875 26.29899293940603L17.040234375 25.9979137951216" stroke-width="0.03" stroke="#000000" fill="none"/>
<path d="M16.9359375 25.937697966264714L16.9359375 25.576402993123395" stroke-width="0.03" stroke="#000000" fill="none"/>
<path d="M16.9359375 25.817266308550938L17.14453125 25.696834650837165" stroke-width="0.03" stroke="#000000" fill="none"/>
<path d="M16.1015625 25.45597133540962L16.1015625 25.0946763622683" stroke-width="0.03" stroke="#000000" fill="none"/>
<path d="M15.580078125 25.877482137407824L14.954296875 26.238777110549147L14.954296875 26.72050374140424" stroke-width="0.03" stroke="#000000" fill="none"/>
<path d="M14.85 26.660287912547354L14.85 26.17856128169226L14.954296875 26.238777110549147" stroke-width="0.03" stroke="#000000" fill="none"/>
<path d="M14.745703124999999 26.238777110549147L14.745703124999999 26.72050374140424" stroke-width="0.03" stroke="#000000" fill="none"/>
<path d="M14.85 27.26244620111622L13.702734374999999 27.92482031854198L13.702734374999999 29.851726841962353" stroke-width="0.03" stroke="#000000" fill="none"/>
<path d="M13.598437500000001 30.514100959388106L12.555468750000001 31.11625924795697L13.285546875 31.53777004995518L13.285546875 32.621654969379136" stroke-width="0.03" stroke="#000000" fill="none"/>
<path d="M14.119921875 32.01949668081028L14.119921875 31.53777004995518L14.328515625 31.41733839224141L14.328515625 30.935611761386316L13.598437500000001 30.514100959388106" stroke-width="0.03" stroke="#000000" fill="none"/>
<path d="M14.015625 30.754964274815652L14.64140625 30.393669301674333L14.85 30.514100959388106L15.05859375 30.393669301674333L15.684375 30.754964274815652" stroke-width="0.03" stroke="#000000" fill="none"/>
<path d="M15.371484375 30.935611761386316L16.1015625 30.514100959388106L17.14453125 31.11625924795697L16.414453125 31.53777004995518L16.414453125 32.621654969379136" stroke-width="0.03" stroke="#000000" fill="none"/>
<path d="M15.580078125 32.01949668081028L15.47578125 32.07971250966716L15.47578125 31.597985878812068L14.85 31.236690905670745L14.224218749999999 31.597985878812068L14.224218749999999 32.07971250966716L14.119921875 32.01949668081028" stroke-width="0.03" stroke="#000000" fill="none"/>
<path d="M14.224218749999999 31.597985878812068L14.119921875 31.53777004995518" stroke-width="0.03" stroke="#000000" fill="none"/>
<path d="M14.328515625 30.935611761386316L13.285546875 31.53777004995518" stroke-width="0.03" stroke="#000000" fill="none"/>
<path d="M12.555468750000001 31.11625924795697L12.555468750000001 30.995827590243202L14.85 29.67107935539169L17.14453125 30.995827590243202L17.14453125 31.11625924795697" stroke-width="0.03" stroke="#000000" fill="none"/>
<path d="M17.14453125 30.995827590243202L18.083203125 30.45388513053122" stroke-width="0.03" stroke="#000000" fill="none"/>
<path d="M19.751953125 29.972158499676127L19.751953125 28.286115291683295" stroke-width="0.03" stroke="#000000" fill="none"/>
<path d="M17.978906249999998 28.105467805112635L17.666015625 27.92482031854198" stroke-width="0.03" stroke="#000000" fill="none"/>
<path d="M17.666015625 26.96136705683179L15.997265625 27.92482031854198L15.997265625 29.851726841962353" stroke-width="0.03" stroke="#000000" fill="none"/>
<path d="M15.162890625 29.37000021110726L14.85 29.550647697677917L14.537109375 29.37000021110726" stroke-width="0.03" stroke="#000000" fill="none"/>
<path d="M14.85 29.550647697677917L14.85 27.26244620111622L15.997265625 27.92482031854198" stroke-width="0.03" stroke="#000000" fill="none"/>
<path d="M14.85 29.67107935539169L14.85 30.393669301674333L14.745703124999999 30.45388513053122" stroke-width="0.03" stroke="#000000" fill="none"/>
<path d="M14.85 30.393669301674333L14.954296875 30.45388513053122" stroke-width="0.03" stroke="#000000" fill="none"/>
<path d="M15.371484375 30.935611761386316L15.371484375 31.41733839224141L15.580078125 31.53777004995518L15.580078125 32.01949668081028" stroke-width="0.03" stroke="#000000" fill="none"/>
<path d="M15.47578125 31.597985878812068L15.580078125 31.53777004995518" stroke-width="0.03" stroke="#000000" fill="none"/>
<path d="M15.371484375 30.935611761386316L16.414453125 31.53777004995518" stroke-width="0.03" stroke="#000000" fill="none"/>
<path d="M14.85 31.71841753652584L14.85 31.236690905670745" stroke-width="0.03" stroke="#000000" fill="none"/>
<path d="M12.555468750000001 30.995827590243202L11.616796874999999 30.45388513053122" stroke-width="0.03" stroke="#000000" fill="none"/>
<path d="M9.948046875 29.972158499676127L9.948046875 28.286115291683295" stroke-width="0.03" stroke="#000000" fill="none"/>
<path d="M11.72109375 28.105467805112635L12.033984375000001 27.92482031854198" stroke-width="0.03" stroke="#000000" fill="none"/>
<path d="M12.033984375000001 26.96136705683179L13.702734374999999 27.92482031854198" stroke-width="0.03" stroke="#000000" fill="none"/>
<path d="M12.7640625 25.817266308550938L12.555468750000001 25.696834650837165" stroke-width="0.03" stroke="#000000" fill="none"/>
<path d="M9.84375 25.0946763622683L9.84375 24.13122310055811" stroke-width="0.03" stroke="#000000" fill="none"/>
<path d="M15.89296875 23.529064811989244L17.56171875 24.492518073699433" stroke-width="0.03" stroke="#000000" fill="none"/>
<path d="M18.500390624999998 23.348417325418584L19.85625 24.13122310055811L20.064843749999998 24.010791442844337L20.064843749999998 23.76992812741679L18.708984375 22.98712235227726" stroke-width="0.03" stroke="#000000" fill="none"/>
<path d="M17.56171875 22.565611550279055L17.14453125 22.8064748657066" stroke-width="0.03" stroke="#000000" fill="none"/>
<path d="M17.56171875 22.565611550279055L17.56171875 22.08388491942396" stroke-width="0.03" stroke="#000000" fill="none"/>
<path d="M17.56171875 22.565611550279055L20.064843749999998 24.010791442844337" stroke-width="0.03" stroke="#000000" fill="none"/>
<path d="M19.85625 24.13122310055811L19.85625 25.0946763622683" stroke-width="0.03" stroke="#000000" fill="none"/>
<path d="M20.064843749999998 23.76992812741679L20.89921875 23.288201496561694" stroke-width="0.03" stroke="#000000" fill="none"/>
<path d="M21.733593749999997 25.215108019982072L21.733593749999997 25.45597133540962L23.193749999999998 26.29899293940603" stroke-width="0.03" stroke="#000000" fill="none"/>
<path d="M23.193749999999998 27.142014543402446L24.341015624999997 26.479640425976694" stroke-width="0.03" stroke="#000000" fill="none"/>
<path d="M25.279687499999998 25.937697966264714L26.844140625 25.034460533411412L26.844140625 26.118345452835374L25.279687499999998 27.021582885688677L25.279687499999998 28.828057751395274L24.341015624999997 29.37000021110726L22.567968750000002 28.346331120540185" stroke-width="0.03" stroke="#000000" fill="none"/>
<path d="M22.7765625 28.46676277825396L24.341015624999997 27.563525345400656L24.341015624999997 29.37000021110726" stroke-width="0.03" stroke="#000000" fill="none"/>
<path d="M22.7765625 28.46676277825396L22.7765625 28.22589946282641" stroke-width="0.03" stroke="#000000" fill="none"/>
<path d="M22.255078124999997 25.75705047969405L22.672265625 25.51618716426651" stroke-width="0.03" stroke="#000000" fill="none"/>
<path d="M25.279687499999998 25.937697966264714L25.279687499999998 24.13122310055811L25.07109375 24.251654758271883" stroke-width="0.03" stroke="#000000" fill="none"/>
<path d="M25.07109375 24.010791442844337L26.844140625 25.034460533411412" stroke-width="0.03" stroke="#000000" fill="none"/>
<path d="M22.567968750000002 20.156978396003588L22.255078124999997 19.976330909432924" stroke-width="0.03" stroke="#000000" fill="none"/>
<path d="M24.758203125 17.928992728298773L24.758203125 17.08597112430236L25.696875000000002 16.54402866459038" stroke-width="0.03" stroke="#000000" fill="none"/>
<path d="M24.758203125 17.08597112430236L23.715234375 16.483812835733495" stroke-width="0.03" stroke="#000000" fill="none"/>
<path d="M23.089453125000002 16.36338117801972L22.98515625 16.303165349162832L22.359375 16.66446032230415" stroke-width="0.03" stroke="#000000" fill="none"/>
<path d="M22.98515625 16.303165349162832L22.98515625 16.18273369144906" stroke-width="0.03" stroke="#000000" fill="none"/>
<path d="M23.610937500000002 15.098848772025098L23.715234375 15.159064600881985" stroke-width="0.03" stroke="#000000" fill="none"/>
<path d="M23.193749999999998 14.376258825742458L24.132421875000002 13.834316366030475" stroke-width="0.03" stroke="#000000" fill="none"/>
</svg>
