<?xml version="1.0" standalone="no"?>
<svg width="29.7cm" height="42cm" version="1.1" xmlns="http://www.w3.org/2000/svg" viewBox="0.0 0.0 29.700001 42.000001">
<path d="M4.941796875 11.425683211755006L5.046093749999999 11.365467382898117L7.653515625 12.87086310432029L7.653515625 13.593453050602928L7.5492187500000005 13.653668879459815L6.193359375 12.87086310432029" stroke-width="0.03" stroke="#000000" fill="none"/>
<path d="M5.88046875 12.690215617749628L4.941796875 12.148273158037647L4.941796875 11.425683211755006L7.5492187500000005 12.931078933177174L7.653515625 12.87086310432029" stroke-width="0.03" stroke="#000000" fill="none"/>
<path d="M7.5492187500000005 12.931078933177174L7.5492187500000005 13.653668879459815" stroke-width="0.03" stroke="#000000" fill="none"/>
<path d="M7.653515625 13.473021392889155L8.175 13.77410053717359L8.175 14.376258825742458" stroke-width="0.03" stroke="#000000" fill="none"/>
<path d="M8.175 13.77410053717359L9.84375 12.8106472754634L8.905078125 12.26870481575142L7.653515625 12.991294762034062" stroke-width="0.03" stroke="#000000" fill="none"/>
<path d="M8.070703124999998 12.750431446606514L8.070703124999998 12.509568131178968L11.408203125 10.582661607758592L11.72109375 10.763309094329252" stroke-width="0.03" stroke="#000000" fill="none"/>
<path d="M11.72109375 11.124604067470571L13.911328125 9.86007166147595L14.85 10.40201412118793L15.788671874999999 9.86007166147595L17.978906249999998 11.124604067470571L17.040234375 11.666546527182554L19.334765625 12.991294762034062L19.334765625 13.834316366030475" stroke-width="0.03" stroke="#000000" fill="none"/>
<path d="M19.647656249999997 13.653668879459815L15.47578125 16.062302033735286L15.47578125 16.303165349162832L18.81328125 18.23007187258321" stroke-width="0.03" stroke="#000000" fill="none"/>
<path d="M18.81328125 18.350503530296983L19.021874999999998 18.23007187258321L18.917578125000002 18.16985604372632" stroke-width="0.03" stroke="#000000" fill="none"/>
<path d="M19.021874999999998 18.23007187258321L19.021874999999998 18.350503530296983L18.81328125 18.470935188010756" stroke-width="0.03" stroke="#000000" fill="none"/>
<path d="M18.81328125 18.711798503438303L16.831640625 19.85589925171915L16.831640625 19.37417262086406L15.267187499999999 18.470935188010756L17.248828125 17.326834439729907" stroke-width="0.03" stroke="#000000" fill="none"/>
<path d="M16.51875 16.905323637731698L14.85 17.86877689944189L13.181249999999999 16.905323637731698" stroke-width="0.03" stroke="#000000" fill="none"/>
<path d="M12.451171875 17.326834439729907L14.4328125 18.470935188010756L14.4328125 20.277410053717357L14.015625 20.518273369144907L14.015625 21L12.451171875 21.903237432853302L10.46953125 20.759136684572454" stroke-width="0.03" stroke="#000000" fill="none"/>
<path d="M10.46953125 21.602158288568866L12.138281249999999 22.565611550279055L12.138281249999999 24.492518073699433" stroke-width="0.03" stroke="#000000" fill="none"/>
<path d="M12.868359374999999 24.914028875697635L12.868359374999999 22.62582737913594L14.4328125 21.72258994628264L14.85 21.96345326171019L15.267187499999999 21.72258994628264L16.831640625 22.62582737913594L16.831640625 24.914028875697635" stroke-width="0.03" stroke="#000000" fill="none"/>
<path d="M17.56171875 24.492518073699433L17.56171875 22.565611550279055L19.23046875 21.602158288568866" stroke-width="0.03" stroke="#000000" fill="none"/>
<path d="M19.23046875 20.759136684572454L17.248828125 21.903237432853302L15.684375 21L15.684375 20.518273369144907L15.267187499999999 20.277410053717357L15.267187499999999 18.470935188010756" stroke-width="0.03" stroke="#000000" fill="none"/>
<path d="M15.267187499999999 18.59136684572453L14.85 18.350503530296983L14.4328125 18.59136684572453" stroke-width="0.03" stroke="#000000" fill="none"/>
<path d="M14.4328125 18.470935188010756L12.868359374999999 19.37417262086406L12.868359374999999 19.85589925171915L12.451171875 20.096762567146698L6.297656249999999 16.54402866459038L6.089062499999999 16.66446032230415L6.089062499999999 20.518273369144907L10.260937499999999 22.926906523420374L10.46953125 22.8064748657066L10.46953125 18.95266181886585" stroke-width="0.03" stroke="#000000" fill="none"/>
<path d="M10.365234375 18.892445990008962L10.365234375 18.77201433229519L10.46953125 18.711798503438303L10.678125 18.832230161152076" stroke-width="0.03" stroke="#000000" fill="none"/>
<path d="M10.573828124999999 18.892445990008962L10.365234375 18.77201433229519" stroke-width="0.03" stroke="#000000" fill="none"/>
<path d="M10.260937499999999 19.073093476579622L10.88671875 18.711798503438303L12.868359374999999 19.85589925171915" stroke-width="0.03" stroke="#000000" fill="none"/>
<path d="M12.868359374999999 19.37417262086406L6.714843749999999 15.82143871830774L6.714843749999999 15.580575402880193L10.05234375 13.653668879459815L14.224218749999999 16.062302033735286L14.224218749999999 16.303165349162832L10.88671875 18.23007187258321" stroke-width="0.03" stroke="#000000" fill="none"/>
<path d="M10.88671875 18.350503530296983L10.678125 18.23007187258321L10.782421874999999 18.16985604372632" stroke-width="0.03" stroke="#000000" fill="none"/>
<path d="M10.678125 18.23007187258321L10.678125 18.350503530296983L10.88671875 18.470935188010756" stroke-width="0.03" stroke="#000000" fill="none"/>
<path d="M10.88671875 18.711798503438303L10.88671875 17.989208557155663L14.224218749999999 16.062302033735286" stroke-width="0.03" stroke="#000000" fill="none"/>
<path d="M14.537109375 15.520359574023306L14.85 15.339712087452645L15.162890625 15.520359574023306L15.47578125 15.339712087452645L15.47578125 13.412805564032269L14.85 13.051510590890949L14.224218749999999 13.412805564032269L14.224218749999999 15.339712087452645L14.537109375 15.520359574023306L14.537109375 13.593453050602928L14.85 13.412805564032269L15.162890625 13.593453050602928L15.47578125 13.412805564032269" stroke-width="0.03" stroke="#000000" fill="none"/>
<path d="M15.162890625 13.593453050602928L15.162890625 15.520359574023306" stroke-width="0.03" stroke="#000000" fill="none"/>
<path d="M15.05859375 15.580575402880193L14.954296875 15.640791231737078L14.85 15.580575402880193L14.745703124999999 15.640791231737078L14.64140625 15.580575402880193L14.64140625 15.460143745166418" stroke-width="0.03" stroke="#000000" fill="none"/>
<path d="M14.745703124999999 15.399927916309531L14.745703124999999 15.640791231737078" stroke-width="0.03" stroke="#000000" fill="none"/>
<path d="M14.954296875 15.640791231737078L14.954296875 15.399927916309531" stroke-width="0.03" stroke="#000000" fill="none"/>
<path d="M15.05859375 15.460143745166418L15.05859375 15.580575402880193" stroke-width="0.03" stroke="#000000" fill="none"/>
<path d="M15.47578125 16.062302033735286L18.81328125 17.989208557155663L18.81328125 18.711798503438303L19.439062500000002 19.073093476579622L23.610937500000002 16.66446032230415L23.610937500000002 20.518273369144907L19.439062500000002 22.926906523420374L19.23046875 22.8064748657066L19.23046875 18.95266181886585" stroke-width="0.03" stroke="#000000" fill="none"/>
<path d="M19.126171875 18.892445990008962L19.334765625 18.77201433229519L19.23046875 18.711798503438303L19.021874999999998 18.832230161152076" stroke-width="0.03" stroke="#000000" fill="none"/>
<path d="M19.334765625 18.77201433229519L19.334765625 18.892445990008962" stroke-width="0.03" stroke="#000000" fill="none"/>
<path d="M19.439062500000002 19.073093476579622L19.439062500000002 22.926906523420374" stroke-width="0.03" stroke="#000000" fill="none"/>
<path d="M19.751953125 23.468848983132357L20.064843749999998 23.288201496561694L21.733593749999997 24.251654758271883L21.733593749999997 24.974244704554525L21.107812499999998 25.335539677695845L19.439062500000002 24.37208641598566L19.439062500000002 24.010791442844337L19.751953125 23.830143956273677L19.751953125 23.468848983132357L21.420703125 24.432302244842543L21.733593749999997 24.251654758271883" stroke-width="0.03" stroke="#000000" fill="none"/>
<path d="M21.420703125 24.432302244842543L21.420703125 24.793597217983862L21.107812499999998 24.974244704554525L21.107812499999998 25.335539677695845" stroke-width="0.03" stroke="#000000" fill="none"/>
<path d="M21.107812499999998 24.974244704554525L19.439062500000002 24.010791442844337" stroke-width="0.03" stroke="#000000" fill="none"/>
<path d="M19.543359374999998 23.95057561398745L19.439062500000002 23.890359785130563L19.439062500000002 23.76992812741679L19.543359374999998 23.709712298559904L19.543359374999998 23.58928064084613L19.647656249999997 23.529064811989244L19.751953125 23.58928064084613" stroke-width="0.03" stroke="#000000" fill="none"/>
<path d="M19.751953125 23.709712298559904L19.543359374999998 23.58928064084613" stroke-width="0.03" stroke="#000000" fill="none"/>
<path d="M19.439062500000002 23.76992812741679L19.647656249999997 23.890359785130563" stroke-width="0.03" stroke="#000000" fill="none"/>
<path d="M18.81328125 24.010791442844337L15.47578125 25.937697966264714L14.85 25.576402993123395L14.224218749999999 25.937697966264714L10.88671875 24.010791442844337L11.095312499999999 23.890359785130563L14.4328125 25.817266308550938" stroke-width="0.03" stroke="#000000" fill="none"/>
<path d="M14.537109375 25.75705047969405L14.537109375 25.9979137951216L14.64140625 25.937697966264714L14.64140625 25.696834650837165" stroke-width="0.03" stroke="#000000" fill="none"/>
<path d="M14.85 25.576402993123395L14.85 23.288201496561694L14.4328125 23.529064811989244L14.4328125 30.63453261710188L14.224218749999999 30.754964274815652L10.88671875 28.828057751395274L10.88671875 24.010791442844337" stroke-width="0.03" stroke="#000000" fill="none"/>
<path d="M10.260937499999999 24.010791442844337L8.5921875 24.974244704554525L8.5921875 25.335539677695845L10.260937499999999 24.37208641598566L10.260937499999999 24.010791442844337L9.948046875 23.830143956273677L9.948046875 23.468848983132357L9.63515625 23.288201496561694L7.96640625 24.251654758271883L7.96640625 24.974244704554525L8.5921875 25.335539677695845" stroke-width="0.03" stroke="#000000" fill="none"/>
<path d="M8.5921875 24.974244704554525L8.279296875 24.793597217983862L8.279296875 24.432302244842543L7.96640625 24.251654758271883" stroke-width="0.03" stroke="#000000" fill="none"/>
<path d="M8.279296875 24.432302244842543L9.948046875 23.468848983132357" stroke-width="0.03" stroke="#000000" fill="none"/>
<path d="M9.948046875 23.58928064084613L10.05234375 23.529064811989244L10.156640625 23.58928064084613L10.156640625 23.709712298559904L10.260937499999999 23.76992812741679L10.260937499999999 23.890359785130563L10.156640625 23.95057561398745" stroke-width="0.03" stroke="#000000" fill="none"/>
<path d="M10.05234375 23.890359785130563L10.260937499999999 23.76992812741679" stroke-width="0.03" stroke="#000000" fill="none"/>
<path d="M10.156640625 23.58928064084613L9.948046875 23.709712298559904" stroke-width="0.03" stroke="#000000" fill="none"/>
<path d="M10.260937499999999 22.926906523420374L10.260937499999999 19.073093476579622L6.089062499999999 16.66446032230415" stroke-width="0.03" stroke="#000000" fill="none"/>
<path d="M6.193359375 16.24294952030595L4.524609375000001 17.206402782016134L4.524609375000001 18.16985604372632L6.089062499999999 17.26661861087302" stroke-width="0.03" stroke="#000000" fill="none"/>
<path d="M6.089062499999999 17.50748192630057L5.776171874999998 17.688129412871227L5.776171874999998 21.060215828856883" stroke-width="0.03" stroke="#000000" fill="none"/>
<path d="M5.671875 21.120431657713773L6.4019531249999995 20.698920855715564" stroke-width="0.03" stroke="#000000" fill="none"/>
<path d="M6.9234374999999995 21L6.9234374999999995 21.36129497314132L7.340624999999999 21.602158288568866L7.653515625 21.42151080199821" stroke-width="0.03" stroke="#000000" fill="none"/>
<path d="M7.340624999999999 21.602158288568866L7.340624999999999 21.240863315427546" stroke-width="0.03" stroke="#000000" fill="none"/>
<path d="M7.862109374999999 22.384964063708395L8.5921875 21.96345326171019" stroke-width="0.03" stroke="#000000" fill="none"/>
<path d="M7.862109374999999 22.384964063708395L7.862109374999999 25.034460533411412L10.156640625 26.359208768262917L10.88671875 25.937697966264714" stroke-width="0.03" stroke="#000000" fill="none"/>
<path d="M10.156640625 26.359208768262917L10.156640625 28.888273580252164L10.88671875 28.46676277825396" stroke-width="0.03" stroke="#000000" fill="none"/>
<path d="M10.88671875 27.864604489685092L10.573828124999999 27.68395700311443L10.573828124999999 27.202230372259333L10.88671875 27.021582885688677" stroke-width="0.03" stroke="#000000" fill="none"/>
<path d="M10.88671875 27.382877858829996L10.573828124999999 27.202230372259333" stroke-width="0.03" stroke="#000000" fill="none"/>
<path d="M10.260937499999999 28.828057751395274L13.181249999999999 30.514100959388106L13.494140625 30.333453472817446" stroke-width="0.03" stroke="#000000" fill="none"/>
<path d="M13.702734374999999 30.45388513053122L12.138281249999999 31.35712256338452L12.97265625 31.838849194239618L14.64140625 30.87539593252943L14.64140625 29.91194267081924L14.745703124999999 29.972158499676127L14.85 29.91194267081924L14.954296875 29.972158499676127L15.05859375 29.91194267081924L15.05859375 30.87539593252943L16.72734375 31.838849194239618L17.56171875 31.35712256338452L15.997265625 30.45388513053122" stroke-width="0.03" stroke="#000000" fill="none"/>
<path d="M16.205859375 30.333453472817446L16.51875 30.514100959388106L19.439062500000002 28.828057751395274" stroke-width="0.03" stroke="#000000" fill="none"/>
<path d="M19.543359374999998 28.888273580252164L21.837890625 27.563525345400656L21.837890625 28.647410264824618L24.028125 27.382877858829996L24.028125 26.29899293940603L24.966796875000004 25.75705047969405L24.966796875000004 23.227985667704807L24.028125 23.76992812741679L24.028125 21.120431657713773L23.298046874999997 20.698920855715564" stroke-width="0.03" stroke="#000000" fill="none"/>
<path d="M22.7765625 21L22.7765625 21.36129497314132L22.359375 21.602158288568866L22.046484375000002 21.42151080199821" stroke-width="0.03" stroke="#000000" fill="none"/>
<path d="M22.359375 21.602158288568866L22.359375 21.240863315427546" stroke-width="0.03" stroke="#000000" fill="none"/>
<path d="M21.837890625 22.384964063708395L24.028125 21.120431657713773" stroke-width="0.03" stroke="#000000" fill="none"/>
<path d="M23.923828125000004 21.060215828856883L23.923828125000004 17.688129412871227L23.610937500000002 17.50748192630057" stroke-width="0.03" stroke="#000000" fill="none"/>
<path d="M23.610937500000002 17.26661861087302L25.175390624999995 18.16985604372632L25.175390624999995 17.206402782016134L23.506640625 16.24294952030595L22.672265625 16.72467615116104L22.672265625 16.60424449344727L22.567968750000002 16.54402866459038L22.567968750000002 16.423597006876605L22.463671875 16.36338117801972L23.298046874999997 15.881654547164626L23.298046874999997 13.95474802374425L22.463671875 13.473021392889155L22.463671875 15.279496258595758" stroke-width="0.03" stroke="#000000" fill="none"/>
<path d="M22.255078124999997 15.159064600881985L22.255078124999997 14.797769627740664L19.334765625 13.111726419747836" stroke-width="0.03" stroke="#000000" fill="none"/>
<path d="M19.334765625 12.991294762034062L17.14453125 14.255827168028683L14.85 12.931078933177174L12.555468750000001 14.255827168028683L10.365234375 12.991294762034062L10.365234375 13.834316366030475" stroke-width="0.03" stroke="#000000" fill="none"/>
<path d="M10.88671875 14.13539551031491L11.199609375 13.95474802374425L11.616796874999999 14.195611339171796L11.616796874999999 14.556906312313117" stroke-width="0.03" stroke="#000000" fill="none"/>
<path d="M11.303906249999999 14.376258825742458L11.616796874999999 14.195611339171796" stroke-width="0.03" stroke="#000000" fill="none"/>
<path d="M12.555468750000001 14.255827168028683L12.555468750000001 15.098848772025098" stroke-width="0.03" stroke="#000000" fill="none"/>
<path d="M14.224218749999999 13.412805564032269L14.537109375 13.593453050602928" stroke-width="0.03" stroke="#000000" fill="none"/>
<path d="M14.85 13.412805564032269L14.85 17.50748192630057L14.537109375 17.688129412871227" stroke-width="0.03" stroke="#000000" fill="none"/>
<path d="M14.85 17.50748192630057L15.162890625 17.688129412871227" stroke-width="0.03" stroke="#000000" fill="none"/>
<path d="M14.85 18.350503530296983L14.85 18.470935188010756L14.4328125 18.711798503438303" stroke-width="0.03" stroke="#000000" fill="none"/>
<path d="M14.4328125 18.95266181886585L14.85 18.711798503438303L15.267187499999999 18.95266181886585" stroke-width="0.03" stroke="#000000" fill="none"/>
<path d="M15.267187499999999 19.193525134293395L14.85 18.95266181886585L14.4328125 19.193525134293395" stroke-width="0.03" stroke="#000000" fill="none"/>
<path d="M14.85 18.95266181886585L14.85 18.711798503438303" stroke-width="0.03" stroke="#000000" fill="none"/>
<path d="M14.85 18.470935188010756L15.267187499999999 18.711798503438303" stroke-width="0.03" stroke="#000000" fill="none"/>
<path d="M14.85 19.795683422862265L14.4328125 20.03654673828981" stroke-width="0.03" stroke="#000000" fill="none"/>
<path d="M14.85 19.795683422862265L14.85 21L13.80703125 21.602158288568866L13.80703125 21.120431657713773" stroke-width="0.03" stroke="#000000" fill="none"/>
<path d="M13.80703125 21.602158288568866L14.224218749999999 21.843021603996412" stroke-width="0.03" stroke="#000000" fill="none"/>
<path d="M14.328515625 21.301079144284433L14.328515625 20.698920855715564L14.85 20.397841711431134L15.371484375 20.698920855715564L15.371484375 21.301079144284433L14.85 21.602158288568866L14.328515625 21.301079144284433" stroke-width="0.03" stroke="#000000" fill="none"/>
<path d="M14.85 21L15.89296875 21.602158288568866L15.89296875 21.120431657713773" stroke-width="0.03" stroke="#000000" fill="none"/>
<path d="M15.89296875 21.602158288568866L15.47578125 21.843021603996412" stroke-width="0.03" stroke="#000000" fill="none"/>
<path d="M16.205859375 22.264532405994622L16.623046875 22.023669090567072L16.623046875 21.54194245971198" stroke-width="0.03" stroke="#000000" fill="none"/>
<path d="M16.831640625 21.662374117425752L16.831640625 22.14410074828085L16.414453125 22.384964063708395" stroke-width="0.03" stroke="#000000" fill="none"/>
<path d="M16.623046875 22.50539572142217L17.040234375 22.264532405994622L17.14453125 22.32474823485151L16.72734375 22.565611550279055" stroke-width="0.03" stroke="#000000" fill="none"/>
<path d="M16.831640625 22.62582737913594L15.267187499999999 23.529064811989244L15.267187499999999 30.63453261710188L15.47578125 30.754964274815652L18.81328125 28.828057751395274L18.81328125 24.010791442844337L18.6046875 23.890359785130563L15.267187499999999 25.817266308550938" stroke-width="0.03" stroke="#000000" fill="none"/>
<path d="M15.162890625 25.75705047969405L15.162890625 25.9979137951216L15.267187499999999 25.937697966264714" stroke-width="0.03" stroke="#000000" fill="none"/>
<path d="M15.162890625 25.9979137951216L15.05859375 25.937697966264714L15.05859375 25.696834650837165" stroke-width="0.03" stroke="#000000" fill="none"/>
<path d="M15.47578125 25.937697966264714L15.47578125 30.754964274815652" stroke-width="0.03" stroke="#000000" fill="none"/>
<path d="M15.267187499999999 30.032374328533013L14.85 29.791511013105463L14.4328125 30.032374328533013" stroke-width="0.03" stroke="#000000" fill="none"/>
<path d="M14.4328125 29.791511013105463L14.85 29.550647697677917L15.267187499999999 29.791511013105463" stroke-width="0.03" stroke="#000000" fill="none"/>
<path d="M14.954296875 29.851726841962353L14.954296875 29.972158499676127" stroke-width="0.03" stroke="#000000" fill="none"/>
<path d="M14.85 29.91194267081924L14.85 26.780719570261127L14.4328125 27.021582885688677" stroke-width="0.03" stroke="#000000" fill="none"/>
<path d="M14.85 27.26244620111622L14.4328125 27.50330951654377" stroke-width="0.03" stroke="#000000" fill="none"/>
<path d="M14.85 27.26244620111622L15.267187499999999 27.50330951654377" stroke-width="0.03" stroke="#000000" fill="none"/>
<path d="M15.267187499999999 27.021582885688677L14.85 26.780719570261127" stroke-width="0.03" stroke="#000000" fill="none"/>
<path d="M14.537109375 25.9979137951216L14.4328125 25.937697966264714" stroke-width="0.03" stroke="#000000" fill="none"/>
<path d="M14.224218749999999 25.937697966264714L14.224218749999999 30.754964274815652" stroke-width="0.03" stroke="#000000" fill="none"/>
<path d="M14.745703124999999 29.972158499676127L14.745703124999999 29.851726841962353" stroke-width="0.03" stroke="#000000" fill="none"/>
<path d="M13.181249999999999 30.152805986246786L13.181249999999999 30.514100959388106" stroke-width="0.03" stroke="#000000" fill="none"/>
<path d="M12.97265625 30.87539593252943L12.97265625 31.838849194239618" stroke-width="0.03" stroke="#000000" fill="none"/>
<path d="M12.138281249999999 32.56143914052225L12.138281249999999 30.995827590243202L12.033984375000001 30.935611761386316L11.408203125 31.296906734527635L11.408203125 34.307698177371975L11.512500000000001 34.36791400622886L12.138281249999999 34.00661903308754L12.138281249999999 32.92273411366358" stroke-width="0.03" stroke="#000000" fill="none"/>
<path d="M11.616796874999999 32.621654969379136L11.616796874999999 32.50122331166537L11.825390624999999 32.3807916539516L14.85 34.12705069080131L17.874609375000002 32.3807916539516L18.083203125 32.50122331166537L18.083203125 32.621654969379136L15.162890625 34.307698177371975" stroke-width="0.03" stroke="#000000" fill="none"/>
<path d="M15.267187499999999 34.36791400622886L15.05859375 34.48834566394263L15.05859375 34.608777321656405L14.85 34.48834566394263L14.64140625 34.608777321656405L14.4328125 34.48834566394263L14.4328125 34.36791400622886L14.64140625 34.247482348515085L11.616796874999999 32.50122331166537" stroke-width="0.03" stroke="#000000" fill="none"/>
<path d="M11.616796874999999 32.621654969379136L14.537109375 34.307698177371975" stroke-width="0.03" stroke="#000000" fill="none"/>
<path d="M14.4328125 34.36791400622886L14.64140625 34.48834566394263L14.64140625 34.608777321656405" stroke-width="0.03" stroke="#000000" fill="none"/>
<path d="M14.64140625 34.48834566394263L14.85 34.36791400622886L15.05859375 34.48834566394263" stroke-width="0.03" stroke="#000000" fill="none"/>
<path d="M15.05859375 34.608777321656405L15.267187499999999 34.48834566394263L15.267187499999999 34.36791400622886L15.05859375 34.247482348515085L18.083203125 32.50122331166537" stroke-width="0.03" stroke="#000000" fill="none"/>
<path d="M18.291796875 32.50122331166537L19.960546875000002 31.53777004995518L19.960546875000002 31.41733839224141L19.751953125 31.296906734527635L18.291796875 32.139928338524044" stroke-width="0.03" stroke="#000000" fill="none"/>
<path d="M18.291796875 32.3807916539516L19.960546875000002 31.41733839224141" stroke-width="0.03" stroke="#000000" fill="none"/>
<path d="M19.439062500000002 30.514100959388106L18.1875 31.236690905670745" stroke-width="0.03" stroke="#000000" fill="none"/>
<path d="M18.291796875 31.296906734527635L18.1875 31.35712256338452L18.1875 34.36791400622886L18.291796875 34.307698177371975L18.291796875 31.296906734527635L17.666015625 30.935611761386316L17.56171875 30.995827590243202L17.56171875 32.56143914052225" stroke-width="0.03" stroke="#000000" fill="none"/>
<path d="M17.56171875 32.92273411366358L17.56171875 34.00661903308754L18.1875 34.36791400622886" stroke-width="0.03" stroke="#000000" fill="none"/>
<path d="M16.72734375 31.838849194239618L16.72734375 30.87539593252943" stroke-width="0.03" stroke="#000000" fill="none"/>
<path d="M16.51875 30.514100959388106L16.51875 30.152805986246786" stroke-width="0.03" stroke="#000000" fill="none"/>
<path d="M17.248828125 30.0925901573899L17.7703125 30.393669301674333L19.439062500000002 29.430216039964147L18.917578125000002 29.12913689567971" stroke-width="0.03" stroke="#000000" fill="none"/>
<path d="M19.439062500000002 29.430216039964147L19.439062500000002 30.514100959388106" stroke-width="0.03" stroke="#000000" fill="none"/>
<path d="M18.81328125 30.87539593252943L18.81328125 31.11625924795697L18.6046875 30.995827590243202" stroke-width="0.03" stroke="#000000" fill="none"/>
<path d="M18.81328125 31.11625924795697L22.150781249999998 29.189352724536597L22.150781249999998 28.828057751395274" stroke-width="0.03" stroke="#000000" fill="none"/>
<path d="M22.255078124999997 28.40654694939707L23.089453125000002 28.888273580252164L24.23671875 28.22589946282641L23.40234375 27.744172831971316" stroke-width="0.03" stroke="#000000" fill="none"/>
<path d="M23.819531249999997 27.50330951654377L24.8625 28.105467805112635L25.696875000000002 27.623741174257542L25.696875000000002 27.26244620111622L26.009765625 27.081798714545563L26.009765625 26.118345452835374L24.966796875000004 25.51618716426651" stroke-width="0.03" stroke="#000000" fill="none"/>
<path d="M24.758203125 25.877482137407824L25.592578125 26.359208768262917L26.009765625 26.118345452835374" stroke-width="0.03" stroke="#000000" fill="none"/>
<path d="M25.592578125 26.359208768262917L25.592578125 27.202230372259333L24.8625 27.623741174257542L24.8625 28.105467805112635" stroke-width="0.03" stroke="#000000" fill="none"/>
<path d="M24.8625 27.623741174257542L24.028125 27.142014543402446" stroke-width="0.03" stroke="#000000" fill="none"/>
<path d="M24.028125 26.29899293940603L25.592578125 27.202230372259333" stroke-width="0.03" stroke="#000000" fill="none"/>
<path d="M25.801171875 25.51618716426651L26.218359375 25.27532384883896L26.218359375 23.95057561398745L24.028125 22.686043207992828" stroke-width="0.03" stroke="#000000" fill="none"/>
<path d="M24.966796875000004 23.709712298559904L25.801171875 24.191438929414996L25.801171875 25.51618716426651L24.966796875000004 25.034460533411412" stroke-width="0.03" stroke="#000000" fill="none"/>
<path d="M25.801171875 24.191438929414996L26.218359375 23.95057561398745" stroke-width="0.03" stroke="#000000" fill="none"/>
<path d="M25.592578125 23.227985667704807L25.279687499999998 23.40863315427547" stroke-width="0.03" stroke="#000000" fill="none"/>
<path d="M25.592578125 23.227985667704807L25.592578125 19.37417262086406L25.383984374999997 19.253740963150285" stroke-width="0.03" stroke="#000000" fill="none"/>
<path d="M25.383984374999997 19.49460427857783L25.592578125 19.37417262086406" stroke-width="0.03" stroke="#000000" fill="none"/>
<path d="M25.48828125 18.832230161152076L28.095703125000004 17.326834439729907L28.095703125000004 17.206402782016134L27.469921874999997 16.845107808874815L26.53125 17.387050268586794" stroke-width="0.03" stroke="#000000" fill="none"/>
<path d="M26.218359375 17.567697755157454L24.8625 18.350503530296983L24.8625 18.470935188010756L25.48828125 18.832230161152076L25.48828125 18.711798503438303L24.8625 18.350503530296983" stroke-width="0.03" stroke="#000000" fill="none"/>
<path d="M24.966796875000004 18.531151016867643L24.4453125 18.832230161152076L23.923828125000004 18.531151016867643" stroke-width="0.03" stroke="#000000" fill="none"/>
<path d="M24.4453125 18.832230161152076L24.4453125 20.759136684572454L25.383984374999997 20.21719422486047L25.383984374999997 18.77201433229519" stroke-width="0.03" stroke="#000000" fill="none"/>
<path d="M25.48828125 18.711798503438303L28.095703125000004 17.206402782016134" stroke-width="0.03" stroke="#000000" fill="none"/>
<path d="M26.53125 17.989208557155663L26.426953124999997 18.049424386012547L26.218359375 17.928992728298773L26.218359375 14.436474654599342L23.193749999999998 12.690215617749628L23.193749999999998 12.44935230232208L23.298046874999997 12.389136473465193L26.218359375 14.075179681458023" stroke-width="0.03" stroke="#000000" fill="none"/>
<path d="M26.218359375 13.95474802374425L26.322656249999998 13.894532194887363L26.53125 14.014963852601136L26.53125 14.255827168028683L26.73984375 14.376258825742458L26.73984375 14.617122141170004L26.635546875 14.67733797002689L26.426953124999997 14.556906312313117L26.426953124999997 18.049424386012547" stroke-width="0.03" stroke="#000000" fill="none"/>
<path d="M26.53125 17.989208557155663L26.53125 14.617122141170004" stroke-width="0.03" stroke="#000000" fill="none"/>
<path d="M26.635546875 14.67733797002689L26.635546875 14.436474654599342L26.426953124999997 14.31604299688557L26.426953124999997 14.075179681458023L26.218359375 13.95474802374425L26.218359375 14.195611339171796L23.193749999999998 12.44935230232208" stroke-width="0.03" stroke="#000000" fill="none"/>
<path d="M23.089453125000002 12.26870481575142L21.420703125 11.305251554041233L21.31640625 11.365467382898117L21.31640625 11.606330698325666L22.7765625 12.44935230232208" stroke-width="0.03" stroke="#000000" fill="none"/>
<path d="M22.98515625 12.328920644608306L21.31640625 11.365467382898117" stroke-width="0.03" stroke="#000000" fill="none"/>
<path d="M20.794921875 12.26870481575142L19.85625 12.8106472754634L19.85625 13.412805564032269" stroke-width="0.03" stroke="#000000" fill="none"/>
<path d="M19.647656249999997 13.653668879459815L22.98515625 15.580575402880193L22.98515625 15.82143871830774L16.831640625 19.37417262086406" stroke-width="0.03" stroke="#000000" fill="none"/>
<path d="M16.831640625 19.85589925171915L17.248828125 20.096762567146698L23.40234375 16.54402866459038L23.610937500000002 16.66446032230415" stroke-width="0.03" stroke="#000000" fill="none"/>
<path d="M22.880859375 16.845107808874815L22.463671875 16.60424449344727L22.463671875 16.122517862592172" stroke-width="0.03" stroke="#000000" fill="none"/>
<path d="M22.255078124999997 16.24294952030595L22.255078124999997 16.72467615116104L22.672265625 16.965539466588588" stroke-width="0.03" stroke="#000000" fill="none"/>
<path d="M22.567968750000002 16.66446032230415L22.672265625 16.60424449344727" stroke-width="0.03" stroke="#000000" fill="none"/>
<path d="M22.567968750000002 16.54402866459038L19.85625 18.109640214869437L19.85625 17.62791358401434" stroke-width="0.03" stroke="#000000" fill="none"/>
<path d="M20.2734375 17.387050268586794L20.2734375 17.86877689944189L20.690625 18.109640214869437" stroke-width="0.03" stroke="#000000" fill="none"/>
<path d="M20.2734375 18.350503530296983L19.85625 18.109640214869437" stroke-width="0.03" stroke="#000000" fill="none"/>
<path d="M18.81328125 17.989208557155663L22.98515625 15.580575402880193" stroke-width="0.03" stroke="#000000" fill="none"/>
<path d="M22.567968750000002 16.423597006876605L22.463671875 16.483812835733495" stroke-width="0.03" stroke="#000000" fill="none"/>
<path d="M21.9421875 14.978417114311325L22.255078124999997 14.797769627740664" stroke-width="0.03" stroke="#000000" fill="none"/>
<path d="M22.463671875 14.436474654599342L23.298046874999997 13.95474802374425" stroke-width="0.03" stroke="#000000" fill="none"/>
<path d="M23.506640625 12.87086310432029L22.150781249999998 13.653668879459815L22.046484375000002 13.593453050602928L22.046484375000002 12.87086310432029L24.653906250000002 11.365467382898117L24.758203125 11.425683211755006L24.758203125 12.148273158037647L23.819531249999997 12.690215617749628" stroke-width="0.03" stroke="#000000" fill="none"/>
<path d="M24.758203125 11.425683211755006L22.150781249999998 12.931078933177174L22.150781249999998 13.653668879459815" stroke-width="0.03" stroke="#000000" fill="none"/>
<path d="M22.046484375000002 13.473021392889155L21.525000000000002 13.77410053717359L21.525000000000002 14.376258825742458" stroke-width="0.03" stroke="#000000" fill="none"/>
<path d="M21.525000000000002 13.77410053717359L19.85625 12.8106472754634" stroke-width="0.03" stroke="#000000" fill="none"/>
<path d="M20.794921875 12.26870481575142L22.046484375000002 12.991294762034062" stroke-width="0.03" stroke="#000000" fill="none"/>
<path d="M22.150781249999998 12.931078933177174L22.046484375000002 12.87086310432029" stroke-width="0.03" stroke="#000000" fill="none"/>
<path d="M21.629296875 12.750431446606514L21.629296875 12.509568131178968L18.291796875 10.582661607758592L17.978906249999998 10.763309094329252" stroke-width="0.03" stroke="#000000" fill="none"/>
<path d="M17.56171875 10.883740752043025L17.56171875 9.920287490332836L17.978906249999998 9.67942417490529L16.831640625 9.017050057479535L16.414453125 9.257913372907083L16.414453125 10.22136663461727" stroke-width="0.03" stroke="#000000" fill="none"/>
<path d="M15.997265625 9.980503319189724L15.997265625 8.776186742051989L15.162890625 8.294460111196894L14.85 8.475107597767554L14.537109375 8.294460111196894L13.702734374999999 8.776186742051989L13.702734374999999 9.980503319189724" stroke-width="0.03" stroke="#000000" fill="none"/>
<path d="M14.119921875 9.980503319189724L14.119921875 9.017050057479535L14.85 8.595539255481327L15.580078125 9.017050057479535L15.997265625 8.776186742051989" stroke-width="0.03" stroke="#000000" fill="none"/>
<path d="M15.580078125 9.017050057479535L15.580078125 9.980503319189724" stroke-width="0.03" stroke="#000000" fill="none"/>
<path d="M14.85 10.40201412118793L14.85 8.595539255481327" stroke-width="0.03" stroke="#000000" fill="none"/>
<path d="M14.119921875 9.017050057479535L13.702734374999999 8.776186742051989" stroke-width="0.03" stroke="#000000" fill="none"/>
<path d="M13.285546875 9.257913372907083L12.138281249999999 9.920287490332836L11.72109375 9.67942417490529L12.868359374999999 9.017050057479535L13.285546875 9.257913372907083L13.285546875 10.22136663461727" stroke-width="0.03" stroke="#000000" fill="none"/>
<path d="M12.138281249999999 9.920287490332836L12.138281249999999 10.883740752043025" stroke-width="0.03" stroke="#000000" fill="none"/>
<path d="M11.72109375 11.124604067470571L12.659765624999999 11.666546527182554L10.365234375 12.991294762034062" stroke-width="0.03" stroke="#000000" fill="none"/>
<path d="M10.365234375 13.111726419747836L7.4449218749999995 14.797769627740664L7.4449218749999995 15.159064600881985" stroke-width="0.03" stroke="#000000" fill="none"/>
<path d="M7.236328125 15.279496258595758L7.236328125 13.473021392889155L6.4019531249999995 13.95474802374425L6.4019531249999995 15.881654547164626L7.236328125 16.36338117801972L7.13203125 16.423597006876605L7.13203125 16.54402866459038L7.027734374999999 16.60424449344727L7.027734374999999 16.72467615116104L6.193359375 16.24294952030595" stroke-width="0.03" stroke="#000000" fill="none"/>
<path d="M6.714843749999999 15.580575402880193L10.88671875 17.989208557155663" stroke-width="0.03" stroke="#000000" fill="none"/>
<path d="M9.84375 18.109640214869437L9.4265625 18.350503530296983" stroke-width="0.03" stroke="#000000" fill="none"/>
<path d="M9.4265625 17.86877689944189L9.009374999999999 18.109640214869437" stroke-width="0.03" stroke="#000000" fill="none"/>
<path d="M9.4265625 17.86877689944189L9.4265625 17.387050268586794" stroke-width="0.03" stroke="#000000" fill="none"/>
<path d="M9.84375 17.62791358401434L9.84375 18.109640214869437L7.13203125 16.54402866459038" stroke-width="0.03" stroke="#000000" fill="none"/>
<path d="M7.236328125 16.483812835733495L7.13203125 16.423597006876605" stroke-width="0.03" stroke="#000000" fill="none"/>
<path d="M7.236328125 16.60424449344727L6.819140625 16.845107808874815" stroke-width="0.03" stroke="#000000" fill="none"/>
<path d="M7.027734374999999 16.965539466588588L7.4449218749999995 16.72467615116104L7.4449218749999995 16.24294952030595" stroke-width="0.03" stroke="#000000" fill="none"/>
<path d="M7.236328125 16.122517862592172L7.236328125 16.60424449344727" stroke-width="0.03" stroke="#000000" fill="none"/>
<path d="M7.13203125 16.66446032230415L7.027734374999999 16.60424449344727" stroke-width="0.03" stroke="#000000" fill="none"/>
<path d="M6.089062499999999 17.86877689944189L5.776171874999998 17.688129412871227" stroke-width="0.03" stroke="#000000" fill="none"/>
<path d="M5.3589843749999995 17.688129412871227L4.524609375000001 17.206402782016134" stroke-width="0.03" stroke="#000000" fill="none"/>
<path d="M3.481640624999999 17.567697755157454L4.8374999999999995 18.350503530296983L4.8374999999999995 18.470935188010756L4.211718750000001 18.832230161152076L1.6042968749999988 17.326834439729907L1.6042968749999988 17.206402782016134L2.2300781249999995 16.845107808874815L3.1687499999999984 17.387050268586794" stroke-width="0.03" stroke="#000000" fill="none"/>
<path d="M3.1687499999999984 17.989208557155663L3.1687499999999984 14.617122141170004" stroke-width="0.03" stroke="#000000" fill="none"/>
<path d="M3.064453125 14.67733797002689L3.2730468750000017 14.556906312313117L3.2730468750000017 18.049424386012547L3.1687499999999984 17.989208557155663" stroke-width="0.03" stroke="#000000" fill="none"/>
<path d="M3.2730468750000017 18.049424386012547L3.481640624999999 17.928992728298773L3.481640624999999 14.436474654599342L6.5062500000000005 12.690215617749628L6.5062500000000005 12.44935230232208L6.4019531249999995 12.389136473465193L3.481640624999999 14.075179681458023" stroke-width="0.03" stroke="#000000" fill="none"/>
<path d="M3.481640624999999 13.95474802374425L3.2730468750000017 14.075179681458023L3.1687499999999984 14.014963852601136L3.1687499999999984 14.255827168028683L2.960156250000001 14.376258825742458L2.960156250000001 14.617122141170004L3.064453125 14.67733797002689L3.064453125 14.436474654599342L3.2730468750000017 14.31604299688557L3.2730468750000017 14.075179681458023" stroke-width="0.03" stroke="#000000" fill="none"/>
<path d="M3.1687499999999984 14.014963852601136L3.3773437500000005 13.894532194887363L3.481640624999999 13.95474802374425L3.481640624999999 14.195611339171796L6.5062500000000005 12.44935230232208" stroke-width="0.03" stroke="#000000" fill="none"/>
<path d="M6.610546875 12.26870481575142L8.279296875 11.305251554041233L8.38359375 11.365467382898117L8.38359375 11.606330698325666L6.9234374999999995 12.44935230232208" stroke-width="0.03" stroke="#000000" fill="none"/>
<path d="M6.714843749999999 12.328920644608306L8.38359375 11.365467382898117" stroke-width="0.03" stroke="#000000" fill="none"/>
<path d="M8.070703124999998 12.509568131178968L8.279296875 12.629999788892741" stroke-width="0.03" stroke="#000000" fill="none"/>
<path d="M9.84375 12.8106472754634L9.84375 13.412805564032269" stroke-width="0.03" stroke="#000000" fill="none"/>
<path d="M11.72109375 12.208488986894533L11.72109375 9.67942417490529" stroke-width="0.03" stroke="#000000" fill="none"/>
<path d="M14.85 12.931078933177174L14.85 13.051510590890949" stroke-width="0.03" stroke="#000000" fill="none"/>
<path d="M17.14453125 14.255827168028683L17.14453125 15.098848772025098" stroke-width="0.03" stroke="#000000" fill="none"/>
<path d="M18.083203125 14.556906312313117L18.083203125 14.195611339171796L18.500390624999998 13.95474802374425L18.81328125 14.13539551031491" stroke-width="0.03" stroke="#000000" fill="none"/>
<path d="M18.396093750000002 14.376258825742458L18.083203125 14.195611339171796" stroke-width="0.03" stroke="#000000" fill="none"/>
<path d="M17.978906249999998 12.208488986894533L17.978906249999998 9.67942417490529" stroke-width="0.03" stroke="#000000" fill="none"/>
<path d="M17.56171875 9.920287490332836L16.414453125 9.257913372907083" stroke-width="0.03" stroke="#000000" fill="none"/>
<path d="M21.420703125 12.629999788892741L21.629296875 12.509568131178968" stroke-width="0.03" stroke="#000000" fill="none"/>
<path d="M26.426953124999997 14.075179681458023L26.53125 14.014963852601136" stroke-width="0.03" stroke="#000000" fill="none"/>
<path d="M26.53125 14.255827168028683L26.426953124999997 14.31604299688557" stroke-width="0.03" stroke="#000000" fill="none"/>
<path d="M26.635546875 14.436474654599342L26.73984375 14.376258825742458" stroke-width="0.03" stroke="#000000" fill="none"/>
<path d="M25.175390624999995 17.206402782016134L24.341015624999997 17.688129412871227" stroke-width="0.03" stroke="#000000" fill="none"/>
<path d="M23.923828125000004 17.688129412871227L23.610937500000002 17.86877689944189" stroke-width="0.03" stroke="#000000" fill="none"/>
<path d="M23.923828125000004 20.458057540288017L24.4453125 20.759136684572454" stroke-width="0.03" stroke="#000000" fill="none"/>
<path d="M26.218359375 20.096762567146698L26.218359375 18.410719359153866" stroke-width="0.03" stroke="#000000" fill="none"/>
<path d="M26.426953124999997 18.290287701440096L26.426953124999997 20.21719422486047L26.53125 20.156978396003588L26.53125 18.23007187258321" stroke-width="0.03" stroke="#000000" fill="none"/>
<path d="M26.218359375 20.096762567146698L26.426953124999997 20.21719422486047" stroke-width="0.03" stroke="#000000" fill="none"/>
<path d="M21.837890625 22.384964063708395L21.837890625 25.034460533411412L19.543359374999998 26.359208768262917L18.81328125 25.937697966264714" stroke-width="0.03" stroke="#000000" fill="none"/>
<path d="M19.543359374999998 26.359208768262917L19.543359374999998 28.888273580252164L18.81328125 28.46676277825396" stroke-width="0.03" stroke="#000000" fill="none"/>
<path d="M18.81328125 27.864604489685092L19.126171875 27.68395700311443L19.126171875 27.202230372259333L18.81328125 27.021582885688677" stroke-width="0.03" stroke="#000000" fill="none"/>
<path d="M18.81328125 27.382877858829996L19.126171875 27.202230372259333" stroke-width="0.03" stroke="#000000" fill="none"/>
<path d="M20.89921875 28.105467805112635L23.089453125000002 29.37000021110726L24.23671875 28.7076260936815L24.23671875 28.22589946282641" stroke-width="0.03" stroke="#000000" fill="none"/>
<path d="M23.089453125000002 28.888273580252164L23.089453125000002 29.37000021110726" stroke-width="0.03" stroke="#000000" fill="none"/>
<path d="M21.837890625 25.034460533411412L21.733593749999997 24.974244704554525" stroke-width="0.03" stroke="#000000" fill="none"/>
<path d="M21.420703125 24.793597217983862L17.874609375000002 22.746259036849715L17.56171875 22.926906523420374" stroke-width="0.03" stroke="#000000" fill="none"/>
<path d="M17.874609375000002 22.746259036849715L17.874609375000002 22.384964063708395" stroke-width="0.03" stroke="#000000" fill="none"/>
<path d="M17.14453125 22.32474823485151L17.14453125 21.843021603996412" stroke-width="0.03" stroke="#000000" fill="none"/>
<path d="M17.040234375 21.782805775139526L17.040234375 22.264532405994622" stroke-width="0.03" stroke="#000000" fill="none"/>
<path d="M16.831640625 22.14410074828085L16.623046875 22.023669090567072" stroke-width="0.03" stroke="#000000" fill="none"/>
<path d="M17.248828125 21.903237432853302L17.248828125 20.096762567146698" stroke-width="0.03" stroke="#000000" fill="none"/>
<path d="M15.267187499999999 20.03654673828981L14.85 19.795683422862265" stroke-width="0.03" stroke="#000000" fill="none"/>
<path d="M12.451171875 20.096762567146698L12.451171875 21.903237432853302" stroke-width="0.03" stroke="#000000" fill="none"/>
<path d="M12.555468750000001 21.843021603996412L12.555468750000001 22.32474823485151L12.97265625 22.565611550279055" stroke-width="0.03" stroke="#000000" fill="none"/>
<path d="M13.076953125000001 22.50539572142217L12.659765624999999 22.264532405994622L12.659765624999999 21.782805775139526" stroke-width="0.03" stroke="#000000" fill="none"/>
<path d="M12.868359374999999 21.662374117425752L12.868359374999999 22.14410074828085L13.285546875 22.384964063708395" stroke-width="0.03" stroke="#000000" fill="none"/>
<path d="M13.494140625 22.264532405994622L13.076953125000001 22.023669090567072L13.076953125000001 21.54194245971198" stroke-width="0.03" stroke="#000000" fill="none"/>
<path d="M13.076953125000001 22.023669090567072L12.868359374999999 22.14410074828085" stroke-width="0.03" stroke="#000000" fill="none"/>
<path d="M12.659765624999999 22.264532405994622L12.555468750000001 22.32474823485151" stroke-width="0.03" stroke="#000000" fill="none"/>
<path d="M12.868359374999999 22.62582737913594L14.4328125 23.529064811989244" stroke-width="0.03" stroke="#000000" fill="none"/>
<path d="M14.85 23.288201496561694L15.267187499999999 23.529064811989244" stroke-width="0.03" stroke="#000000" fill="none"/>
<path d="M12.138281249999999 22.926906523420374L11.825390624999999 22.746259036849715L8.279296875 24.793597217983862" stroke-width="0.03" stroke="#000000" fill="none"/>
<path d="M7.96640625 24.974244704554525L7.862109374999999 25.034460533411412" stroke-width="0.03" stroke="#000000" fill="none"/>
<path d="M5.671875 26.29899293940603L4.107421875 27.202230372259333L4.8374999999999995 27.623741174257542L4.8374999999999995 28.105467805112635L5.88046875 27.50330951654377" stroke-width="0.03" stroke="#000000" fill="none"/>
<path d="M5.671875 27.382877858829996L5.671875 26.29899293940603L4.733203124999998 25.75705047969405L4.733203124999998 23.227985667704807L5.671875 23.76992812741679L5.671875 21.120431657713773L7.862109374999999 22.384964063708395" stroke-width="0.03" stroke="#000000" fill="none"/>
<path d="M5.671875 22.686043207992828L3.481640624999999 23.95057561398745L3.481640624999999 25.27532384883896L3.898828125 25.51618716426651L4.733203124999998 25.034460533411412" stroke-width="0.03" stroke="#000000" fill="none"/>
<path d="M4.733203124999998 25.51618716426651L3.6902343750000006 26.118345452835374L3.6902343750000006 27.081798714545563L4.003124999999999 27.26244620111622L4.003124999999999 27.623741174257542L4.8374999999999995 28.105467805112635" stroke-width="0.03" stroke="#000000" fill="none"/>
<path d="M4.8374999999999995 27.623741174257542L5.671875 27.142014543402446" stroke-width="0.03" stroke="#000000" fill="none"/>
<path d="M5.671875 27.382877858829996L7.862109374999999 28.647410264824618L7.862109374999999 27.563525345400656L10.156640625 28.888273580252164" stroke-width="0.03" stroke="#000000" fill="none"/>
<path d="M10.260937499999999 29.430216039964147L10.782421874999999 29.12913689567971" stroke-width="0.03" stroke="#000000" fill="none"/>
<path d="M10.260937499999999 29.430216039964147L10.260937499999999 30.514100959388106L11.512500000000001 31.236690905670745" stroke-width="0.03" stroke="#000000" fill="none"/>
<path d="M11.408203125 31.296906734527635L11.512500000000001 31.35712256338452L12.138281249999999 30.995827590243202" stroke-width="0.03" stroke="#000000" fill="none"/>
<path d="M11.9296875 30.995827590243202L11.9296875 30.393669301674333L12.451171875 30.0925901573899" stroke-width="0.03" stroke="#000000" fill="none"/>
<path d="M11.9296875 30.393669301674333L10.260937499999999 29.430216039964147" stroke-width="0.03" stroke="#000000" fill="none"/>
<path d="M10.88671875 30.87539593252943L10.88671875 31.11625924795697L11.095312499999999 30.995827590243202" stroke-width="0.03" stroke="#000000" fill="none"/>
<path d="M10.88671875 31.11625924795697L7.5492187500000005 29.189352724536597L7.5492187500000005 28.828057751395274" stroke-width="0.03" stroke="#000000" fill="none"/>
<path d="M7.4449218749999995 28.40654694939707L6.610546875 28.888273580252164L5.46328125 28.22589946282641L6.297656249999999 27.744172831971316" stroke-width="0.03" stroke="#000000" fill="none"/>
<path d="M5.46328125 28.22589946282641L5.46328125 28.7076260936815L6.610546875 29.37000021110726L8.80078125 28.105467805112635" stroke-width="0.03" stroke="#000000" fill="none"/>
<path d="M6.610546875 28.888273580252164L6.610546875 29.37000021110726" stroke-width="0.03" stroke="#000000" fill="none"/>
<path d="M4.107421875 27.202230372259333L4.107421875 26.359208768262917L4.941796875 25.877482137407824" stroke-width="0.03" stroke="#000000" fill="none"/>
<path d="M4.107421875 26.359208768262917L3.6902343750000006 26.118345452835374" stroke-width="0.03" stroke="#000000" fill="none"/>
<path d="M3.898828125 25.51618716426651L3.898828125 24.191438929414996L4.733203124999998 23.709712298559904" stroke-width="0.03" stroke="#000000" fill="none"/>
<path d="M4.4203125 23.40863315427547L4.107421875 23.227985667704807L4.107421875 19.37417262086406L4.3160156249999995 19.253740963150285" stroke-width="0.03" stroke="#000000" fill="none"/>
<path d="M4.3160156249999995 19.49460427857783L4.107421875 19.37417262086406" stroke-width="0.03" stroke="#000000" fill="none"/>
<path d="M4.211718750000001 18.832230161152076L4.211718750000001 18.711798503438303L4.8374999999999995 18.350503530296983" stroke-width="0.03" stroke="#000000" fill="none"/>
<path d="M4.733203124999998 18.531151016867643L5.254687500000001 18.832230161152076L5.776171874999998 18.531151016867643" stroke-width="0.03" stroke="#000000" fill="none"/>
<path d="M5.254687500000001 18.832230161152076L5.254687500000001 20.759136684572454L4.3160156249999995 20.21719422486047L4.3160156249999995 18.77201433229519" stroke-width="0.03" stroke="#000000" fill="none"/>
<path d="M4.211718750000001 18.711798503438303L1.6042968749999988 17.206402782016134" stroke-width="0.03" stroke="#000000" fill="none"/>
<path d="M3.1687499999999984 18.23007187258321L3.1687499999999984 20.156978396003588L3.2730468750000017 20.21719422486047L3.481640624999999 20.096762567146698L3.481640624999999 18.410719359153866" stroke-width="0.03" stroke="#000000" fill="none"/>
<path d="M3.2730468750000017 18.290287701440096L3.2730468750000017 20.21719422486047" stroke-width="0.03" stroke="#000000" fill="none"/>
<path d="M5.254687500000001 20.759136684572454L5.776171874999998 20.458057540288017" stroke-width="0.03" stroke="#000000" fill="none"/>
<path d="M3.898828125 24.191438929414996L3.481640624999999 23.95057561398745" stroke-width="0.03" stroke="#000000" fill="none"/>
<path d="M11.825390624999999 22.746259036849715L11.825390624999999 22.384964063708395" stroke-width="0.03" stroke="#000000" fill="none"/>
<path d="M7.7578125 14.978417114311325L7.4449218749999995 14.797769627740664" stroke-width="0.03" stroke="#000000" fill="none"/>
<path d="M7.236328125 14.436474654599342L6.4019531249999995 13.95474802374425" stroke-width="0.03" stroke="#000000" fill="none"/>
<path d="M3.2730468750000017 14.31604299688557L3.1687499999999984 14.255827168028683" stroke-width="0.03" stroke="#000000" fill="none"/>
<path d="M3.064453125 14.436474654599342L2.960156250000001 14.376258825742458" stroke-width="0.03" stroke="#000000" fill="none"/>
<path d="M2.7390656448800828 3.383983116796798L2.7390656448800828 3.0054372986874878L2.90129956692693 3.0054372986874878L2.955377540942546 3.023463290026026L2.9734035322810843 3.041489281364565L2.991429523619623 3.077541264041642L2.991429523619623 3.113593246718719L2.9734035322810843 3.149645229395796L2.955377540942546 3.167671220734335L2.90129956692693 3.1856972120728733" stroke-width="0.03" stroke="#000000" fill="none"/>
<path d="M2.7390656448800828 3.1856972120728733L2.90129956692693 3.1856972120728733L2.955377540942546 3.2037232034114123L2.9734035322810843 3.221749194749951L2.991429523619623 3.257801177427028L2.991429523619623 3.3118791514426436L2.9734035322810843 3.3479311341197207L2.955377540942546 3.3659571254582596L2.90129956692693 3.383983116796798L2.7390656448800828 3.383983116796798" stroke-width="0.03" stroke="#000000" fill="none"/>
<path d="M2.6128837055103125 3.383983116796798L2.414597800786388 3.1316192380572576" stroke-width="0.03" stroke="#000000" fill="none"/>
<path d="M2.6128837055103125 3.1316192380572576L2.414597800786388 3.383983116796798" stroke-width="0.03" stroke="#000000" fill="none"/>
<path d="M2.1622339220468474 3.0054372986874878L2.1081559480312317 3.023463290026026L2.072103965354154 3.077541264041642L2.0540779740156156 3.167671220734335L2.0540779740156156 3.221749194749951L2.072103965354154 3.3118791514426436L2.1081559480312317 3.3659571254582596L2.1622339220468474 3.383983116796798L2.1982859047239245 3.383983116796798L2.2523638787395406 3.3659571254582596L2.2884158614166177 3.3118791514426436L2.3064418527551562 3.221749194749951L2.3064418527551562 3.167671220734335L2.2884158614166177 3.077541264041642L2.2523638787395406 3.023463290026026L2.1982859047239245 3.0054372986874878L2.1622339220468474 3.0054372986874878" stroke-width="0.03" stroke="#000000" fill="none"/>
<path d="M2.1166666666666667 2.2291666666666665L2.1166666666666667 1.8208333333333333" stroke-width="0.03" stroke="#000000" fill="none"/>
<path d="M2.0875 1.6166666666666667L2.1166666666666667 1.6458333333333333L2.145833333333333 1.6166666666666667L2.1166666666666667 1.5875L2.0875 1.6166666666666667" stroke-width="0.03" stroke="#000000" fill="none"/>
<path d="M2.3208333333333333 2.1416666666666666L2.35 2.2L2.4375 2.2291666666666665L2.525 2.2291666666666665L2.6125 2.2L2.6416666666666666 2.1416666666666666L2.6416666666666666 2.1125L2.6125 2.0541666666666667L2.5541666666666667 2.025L2.408333333333333 1.9958333333333333L2.35 1.9666666666666666L2.3208333333333333 1.9083333333333332L2.35 1.85L2.4375 1.8208333333333333L2.525 1.8208333333333333L2.6125 1.85L2.6416666666666666 1.9083333333333332" stroke-width="0.03" stroke="#000000" fill="none"/>
<path d="M2.9625 1.8208333333333333L2.904166666666667 1.85L2.845833333333333 1.9083333333333332L2.8166666666666664 1.9958333333333333L2.8166666666666664 2.0541666666666667L2.845833333333333 2.1416666666666666L2.904166666666667 2.2L2.9625 2.2291666666666665L3.05 2.2291666666666665L3.1083333333333334 2.2L3.1666666666666665 2.1416666666666666L3.1958333333333333 2.0541666666666667L3.1958333333333333 1.9958333333333333L3.1666666666666665 1.9083333333333332L3.1083333333333334 1.85L3.05 1.8208333333333333L2.9625 1.8208333333333333" stroke-width="0.03" stroke="#000000" fill="none"/>
<path d="M3.283333333333333 2.2874999999999996L3.75 2.2874999999999996" stroke-width="0.03" stroke="#000000" fill="none"/>
<path d="M3.8375 2.1416666666666666L3.8666666666666663 2.2L3.9541666666666666 2.2291666666666665L4.041666666666666 2.2291666666666665L4.129166666666666 2.2L4.158333333333333 2.1416666666666666L4.158333333333333 2.1125L4.129166666666666 2.0541666666666667L4.070833333333333 2.025L3.925 1.9958333333333333L3.8666666666666663 1.9666666666666666L3.8375 1.9083333333333332L3.8666666666666663 1.85L3.9541666666666666 1.8208333333333333L4.041666666666666 1.8208333333333333L4.129166666666666 1.85L4.158333333333333 1.9083333333333332" stroke-width="0.03" stroke="#000000" fill="none"/>
<path d="M4.3625 1.9375L4.449999999999999 1.85L4.508333333333333 1.8208333333333333L4.595833333333333 1.8208333333333333L4.654166666666667 1.85L4.683333333333334 1.9375L4.683333333333334 2.2291666666666665" stroke-width="0.03" stroke="#000000" fill="none"/>
<path d="M4.3625 2.2291666666666665L4.3625 1.8208333333333333" stroke-width="0.03" stroke="#000000" fill="none"/>
<path d="M5.033333333333333 1.8208333333333333L4.975 1.85L4.916666666666666 1.9083333333333332L4.887499999999999 1.9958333333333333L4.887499999999999 2.0541666666666667L4.916666666666666 2.1416666666666666L4.975 2.2L5.033333333333333 2.2291666666666665L5.120833333333334 2.2291666666666665L5.179166666666666 2.2L5.2375 2.1416666666666666L5.266666666666666 2.0541666666666667L5.266666666666666 1.9958333333333333L5.2375 1.9083333333333332L5.179166666666666 1.85L5.120833333333334 1.8208333333333333L5.033333333333333 1.8208333333333333" stroke-width="0.03" stroke="#000000" fill="none"/>
<path d="M5.441666666666666 1.8208333333333333L5.558333333333334 2.2291666666666665L5.675 1.8208333333333333L5.791666666666666 2.2291666666666665L5.908333333333333 1.8208333333333333" stroke-width="0.03" stroke="#000000" fill="none"/>
<path d="M6.054166666666666 1.8208333333333333L6.258333333333333 1.8208333333333333" stroke-width="0.03" stroke="#000000" fill="none"/>
<path d="M6.2875 1.6166666666666667L6.229166666666666 1.6166666666666667L6.1708333333333325 1.6458333333333333L6.141666666666667 1.7333333333333334L6.141666666666667 2.2291666666666665" stroke-width="0.03" stroke="#000000" fill="none"/>
<path d="M6.4624999999999995 2.2291666666666665L6.4624999999999995 1.6166666666666667" stroke-width="0.03" stroke="#000000" fill="none"/>
<path d="M7.016666666666666 1.8208333333333333L7.016666666666666 2.2291666666666665" stroke-width="0.03" stroke="#000000" fill="none"/>
<path d="M7.016666666666666 2.1416666666666666L6.958333333333333 2.2L6.8999999999999995 2.2291666666666665L6.812499999999999 2.2291666666666665L6.754166666666666 2.2L6.695833333333333 2.1416666666666666L6.666666666666666 2.0541666666666667L6.666666666666666 1.9958333333333333L6.695833333333333 1.9083333333333332L6.754166666666666 1.85L6.812499999999999 1.8208333333333333L6.8999999999999995 1.8208333333333333L6.958333333333333 1.85L7.016666666666666 1.9083333333333332" stroke-width="0.03" stroke="#000000" fill="none"/>
<path d="M7.249999999999999 2.1125L7.541666666666666 1.8208333333333333" stroke-width="0.03" stroke="#000000" fill="none"/>
<path d="M7.366666666666666 1.9958333333333333L7.570833333333333 2.2291666666666665" stroke-width="0.03" stroke="#000000" fill="none"/>
<path d="M7.716666666666666 1.9958333333333333L8.066666666666666 1.9958333333333333L8.066666666666666 1.9375L8.0375 1.8791666666666667L8.008333333333333 1.85L7.949999999999999 1.8208333333333333L7.8625 1.8208333333333333L7.804166666666666 1.85L7.745833333333333 1.9083333333333332L7.716666666666666 1.9958333333333333L7.716666666666666 2.0541666666666667L7.745833333333333 2.1416666666666666L7.804166666666666 2.2L7.8625 2.2291666666666665L7.949999999999999 2.2291666666666665L8.008333333333333 2.2L8.066666666666666 2.1416666666666666" stroke-width="0.03" stroke="#000000" fill="none"/>
<path d="M8.475 2.2291666666666665L8.475 1.6166666666666667L8.3875 1.7041666666666666L8.329166666666666 1.7333333333333334" stroke-width="0.03" stroke="#000000" fill="none"/>
<path d="M7.249999999999999 1.6166666666666667L7.249999999999999 2.2291666666666665" stroke-width="0.03" stroke="#000000" fill="none"/>
<path d="M5.5150683110150265 3.0054372986874878L5.280730423614025 3.0054372986874878L5.280730423614025 3.383983116796798L5.5150683110150265 3.383983116796798" stroke-width="0.03" stroke="#000000" fill="none"/>
<path d="M5.424938354322334 3.1856972120728733L5.280730423614025 3.1856972120728733" stroke-width="0.03" stroke="#000000" fill="none"/>
<path d="M5.136522492905716 3.0595152727031034L5.1184965015671775 3.023463290026026L5.064418527551561 3.0054372986874878L5.028366544874484 3.0054372986874878L4.974288570858869 3.023463290026026L4.938236588181791 3.077541264041642L4.920210596843253 3.167671220734335L4.920210596843253 3.257801177427028L4.938236588181791 3.3299051427811825L4.974288570858869 3.3659571254582596L5.028366544874484 3.383983116796798L5.046392536213023 3.383983116796798L5.100470510228639 3.3659571254582596L5.136522492905716 3.3299051427811825L5.154548484244255 3.2758271687655665L5.154548484244255 3.257801177427028L5.136522492905716 3.2037232034114123L5.100470510228639 3.167671220734335L5.046392536213023 3.149645229395796L5.028366544874484 3.149645229395796L4.974288570858869 3.167671220734335L4.938236588181791 3.2037232034114123L4.920210596843253 3.257801177427028" stroke-width="0.03" stroke="#000000" fill="none"/>
<path d="M4.794028657473483 3.0054372986874878L4.613768744088096 3.383983116796798" stroke-width="0.03" stroke="#000000" fill="none"/>
<path d="M4.541664778733942 3.0054372986874878L4.794028657473483 3.0054372986874878" stroke-width="0.03" stroke="#000000" fill="none"/>
<path d="M4.217196934640247 3.0054372986874878L4.415482839364172 3.0054372986874878L4.3073268913329406 3.149645229395796L4.361404865348556 3.149645229395796L4.397456848025634 3.167671220734335L4.415482839364172 3.1856972120728733L4.433508830702711 3.2397751860884894L4.433508830702711 3.2758271687655665L4.415482839364172 3.3299051427811825L4.379430856687095 3.3659571254582596L4.3253528826714795 3.383983116796798L4.2712749086558635 3.383983116796798L4.217196934640247 3.3659571254582596L4.199170943301709 3.3479311341197207L4.18114495196317 3.3118791514426436" stroke-width="0.03" stroke="#000000" fill="none"/>
<path d="M3.9107550818850916 3.0054372986874878L3.8566771078694755 3.023463290026026L3.838651116530937 3.0595152727031034L3.838651116530937 3.0955672553801805L3.8566771078694755 3.1316192380572576L3.8927290905465526 3.149645229395796L3.9648330559007072 3.167671220734335L4.018911029916323 3.1856972120728733L4.0549630125934 3.221749194749951L4.072989003931939 3.257801177427028L4.072989003931939 3.3118791514426436L4.0549630125934 3.3479311341197207L4.036937021254861 3.3659571254582596L3.9828590472392458 3.383983116796798L3.9107550818850916 3.383983116796798L3.8566771078694755 3.3659571254582596L3.838651116530937 3.3479311341197207L3.8206251251923984 3.3118791514426436L3.8206251251923984 3.257801177427028L3.838651116530937 3.221749194749951L3.8747030992080145 3.1856972120728733L3.9287810732236297 3.167671220734335L4.000885038577785 3.149645229395796L4.036937021254861 3.1316192380572576L4.0549630125934 3.0955672553801805L4.0549630125934 3.0595152727031034L4.036937021254861 3.023463290026026L3.9828590472392458 3.0054372986874878L3.9107550818850916 3.0054372986874878" stroke-width="0.03" stroke="#000000" fill="none"/>
<path d="M3.6764171944840895 3.0054372986874878L3.4961572810987036 3.0054372986874878L3.478131289760165 3.167671220734335L3.4961572810987036 3.149645229395796L3.5502352551143197 3.1316192380572576L3.604313229129935 3.1316192380572576L3.658391203145551 3.149645229395796L3.694443185822628 3.1856972120728733L3.712469177161167 3.2397751860884894L3.712469177161167 3.2758271687655665L3.694443185822628 3.3299051427811825L3.658391203145551 3.3659571254582596L3.604313229129935 3.383983116796798L3.5502352551143197 3.383983116796798L3.4961572810987036 3.3659571254582596L3.478131289760165 3.3479311341197207L3.4601052984216265 3.3118791514426436" stroke-width="0.03" stroke="#000000" fill="none"/>
<path d="M3.3158973677133177 3.0054372986874878L3.1356374543279317 3.0054372986874878L3.117611462989393 3.167671220734335L3.1356374543279317 3.149645229395796L3.1897154283435474 3.1316192380572576L3.243793402359163 3.1316192380572576L3.297871376374779 3.149645229395796L3.333923359051856 3.1856972120728733L3.3519493503903948 3.2397751860884894L3.3519493503903948 3.2758271687655665L3.333923359051856 3.3299051427811825L3.297871376374779 3.3659571254582596L3.243793402359163 3.383983116796798L3.1897154283435474 3.383983116796798L3.1356374543279317 3.3659571254582596L3.117611462989393 3.3479311341197207L3.0995854716508546 3.3118791514426436" stroke-width="0.03" stroke="#000000" fill="none"/>
<path d="M1.5 2.533333333333333L9.237499999999999 2.533333333333333" stroke-width="0.03" stroke="#000000" fill="none"/>
<path d="M21.107812499999998 21.96345326171019L21.837890625 22.384964063708395" stroke-width="0.03" stroke="#000000" fill="none"/>
<path d="M17.7703125 30.393669301674333L17.7703125 30.995827590243202" stroke-width="0.03" stroke="#000000" fill="none"/>
<path d="M17.56171875 30.995827590243202L18.1875 31.35712256338452" stroke-width="0.03" stroke="#000000" fill="none"/>
<path d="M14.85 34.36791400622886L14.85 34.48834566394263" stroke-width="0.03" stroke="#000000" fill="none"/>
<path d="M11.512500000000001 34.36791400622886L11.512500000000001 31.35712256338452" stroke-width="0.03" stroke="#000000" fill="none"/>
<path d="M11.408203125 32.139928338524044L9.948046875 31.296906734527635L9.739453124999999 31.41733839224141L9.739453124999999 31.53777004995518L11.408203125 32.50122331166537" stroke-width="0.03" stroke="#000000" fill="none"/>
<path d="M11.408203125 32.3807916539516L9.739453124999999 31.41733839224141" stroke-width="0.03" stroke="#000000" fill="none"/>
</svg>
