<?xml version="1.0" standalone="no"?>
<svg width="29.7cm" height="42cm" version="1.1" xmlns="http://www.w3.org/2000/svg" viewBox="0.0 0.0 29.700001 42.000001">
<path d="M2.8558593750000005 12.629999788892741L6.193359375 10.703093265472365L6.297656249999999 10.763309094329252L6.297656249999999 11.245035725184344L2.960156250000001 13.171942248604722L2.8558593750000005 13.111726419747836L2.8558593750000005 12.629999788892741L2.960156250000001 12.690215617749628L6.297656249999999 10.763309094329252" stroke-width="0.03" stroke="#000000" fill="none"/>
<path d="M6.4019531249999995 10.582661607758592L9.739453124999999 8.655755084338216L10.156640625 8.896618399765762L10.156640625 10.22136663461727L9.739453124999999 9.980503319189724L6.819140625 11.666546527182554L6.4019531249999995 11.425683211755006L6.4019531249999995 10.582661607758592L6.819140625 10.823524923186138L10.156640625 8.896618399765762" stroke-width="0.03" stroke="#000000" fill="none"/>
<path d="M11.303906249999999 8.956834228622649L12.346874999999999 8.354675940053781L12.555468750000001 8.475107597767554L12.555468750000001 8.836402570908875" stroke-width="0.03" stroke="#000000" fill="none"/>
<path d="M12.555468750000001 8.475107597767554L11.512500000000001 9.077265886336422L11.303906249999999 8.956834228622649L11.303906249999999 9.558992517191516" stroke-width="0.03" stroke="#000000" fill="none"/>
<path d="M11.512500000000001 9.438560859477743L11.512500000000001 9.077265886336422" stroke-width="0.03" stroke="#000000" fill="none"/>
<path d="M11.408203125 8.896618399765762L11.408203125 8.776186742051989L14.119921875 7.210575191772933L14.328515625 7.331006849486706L14.328515625 7.812733480341801" stroke-width="0.03" stroke="#000000" fill="none"/>
<path d="M14.537109375 7.692301822628027L7.96640625 11.485899040611892L7.96640625 11.967625671466987" stroke-width="0.03" stroke="#000000" fill="none"/>
<path d="M8.070703124999998 11.9074098426101L7.653515625 12.148273158037647L7.653515625 12.389136473465193" stroke-width="0.03" stroke="#000000" fill="none"/>
<path d="M7.653515625 12.148273158037647L8.38359375 12.569783960035853" stroke-width="0.03" stroke="#000000" fill="none"/>
<path d="M8.175 12.690215617749628L5.984765624999999 11.425683211755006" stroke-width="0.03" stroke="#000000" fill="none"/>
<path d="M6.193359375 11.54611486946878L6.4019531249999995 11.425683211755006" stroke-width="0.03" stroke="#000000" fill="none"/>
<path d="M6.819140625 11.666546527182554L6.819140625 10.823524923186138" stroke-width="0.03" stroke="#000000" fill="none"/>
<path d="M7.13203125 12.08805732918076L7.96640625 11.606330698325666" stroke-width="0.03" stroke="#000000" fill="none"/>
<path d="M7.96640625 11.485899040611892L8.696484375 11.9074098426101L8.696484375 12.26870481575142L8.070703124999998 11.9074098426101" stroke-width="0.03" stroke="#000000" fill="none"/>
<path d="M8.696484375 11.9074098426101L11.408203125 10.341798292331045L11.616796874999999 10.462229950044819L11.616796874999999 10.703093265472365" stroke-width="0.03" stroke="#000000" fill="none"/>
<path d="M11.512500000000001 10.763309094329252L11.408203125 10.703093265472365L8.696484375 12.26870481575142" stroke-width="0.03" stroke="#000000" fill="none"/>
<path d="M6.5062500000000005 13.653668879459815L4.3160156249999995 12.389136473465193" stroke-width="0.03" stroke="#000000" fill="none"/>
<path d="M4.211718750000001 12.44935230232208L6.4019531249999995 13.713884708316701" stroke-width="0.03" stroke="#000000" fill="none"/>
<path d="M6.193359375 13.593453050602928L5.254687500000001 14.13539551031491L5.254687500000001 15.460143745166418L4.107421875 16.122517862592172L4.107421875 17.206402782016134" stroke-width="0.03" stroke="#000000" fill="none"/>
<path d="M4.107421875 16.965539466588588L4.941796875 17.44726609744368L4.941796875 15.640791231737078L8.279296875 17.567697755157454L8.5921875 17.387050268586794L8.5921875 17.025755295445475L5.254687500000001 15.098848772025098L6.819140625 14.195611339171796L5.984765624999999 13.713884708316701" stroke-width="0.03" stroke="#000000" fill="none"/>
<path d="M5.776171874999998 13.834316366030475L4.941796875 13.352589735175382L4.941796875 13.473021392889155L5.3589843749999995 13.713884708316701L5.3589843749999995 13.834316366030475L4.3160156249999995 14.436474654599342L2.8558593750000005 13.593453050602928L2.8558593750000005 13.473021392889155L4.4203125 12.569783960035853" stroke-width="0.03" stroke="#000000" fill="none"/>
<path d="M4.941796875 13.352589735175382L5.3589843749999995 13.111726419747836" stroke-width="0.03" stroke="#000000" fill="none"/>
<path d="M5.3589843749999995 13.713884708316701L4.3160156249999995 14.31604299688557L4.3160156249999995 14.436474654599342" stroke-width="0.03" stroke="#000000" fill="none"/>
<path d="M4.3160156249999995 14.31604299688557L2.8558593750000005 13.473021392889155" stroke-width="0.03" stroke="#000000" fill="none"/>
<path d="M2.960156250000001 13.171942248604722L2.960156250000001 12.690215617749628" stroke-width="0.03" stroke="#000000" fill="none"/>
<path d="M2.438671874999999 14.31604299688557L2.3343750000000005 14.376258825742458L2.3343750000000005 16.18273369144906" stroke-width="0.03" stroke="#000000" fill="none"/>
<path d="M2.125781250000001 16.18273369144906L4.3160156249999995 17.44726609744368" stroke-width="0.03" stroke="#000000" fill="none"/>
<path d="M4.3160156249999995 17.326834439729907L2.125781250000001 16.062302033735286" stroke-width="0.03" stroke="#000000" fill="none"/>
<path d="M3.2730468750000017 16.24294952030595L3.3773437500000005 16.18273369144906L3.7945312499999995 16.423597006876605L3.898828125 16.36338117801972L3.898828125 15.159064600881985L2.438671874999999 14.31604299688557" stroke-width="0.03" stroke="#000000" fill="none"/>
<path d="M2.3343750000000005 14.376258825742458L3.7945312499999995 15.21928042973887L3.898828125 15.159064600881985" stroke-width="0.03" stroke="#000000" fill="none"/>
<path d="M3.7945312499999995 15.21928042973887L3.7945312499999995 16.423597006876605" stroke-width="0.03" stroke="#000000" fill="none"/>
<path d="M4.107421875 16.122517862592172L4.941796875 16.60424449344727" stroke-width="0.03" stroke="#000000" fill="none"/>
<path d="M4.4203125 17.025755295445475L4.3160156249999995 17.08597112430236L4.3160156249999995 24.071007271701223L6.9234374999999995 25.576402993123395L6.9234374999999995 28.58719443596773L12.97265625 32.07971250966716L13.076953125000001 32.01949668081028L13.076953125000001 31.41733839224141" stroke-width="0.03" stroke="#000000" fill="none"/>
<path d="M12.97265625 31.35712256338452L12.97265625 32.32057582509471" stroke-width="0.03" stroke="#000000" fill="none"/>
<path d="M12.7640625 32.200144167380934L13.702734374999999 32.74208662709292L14.85 32.07971250966716L15.997265625 32.74208662709292L16.9359375 32.200144167380934" stroke-width="0.03" stroke="#000000" fill="none"/>
<path d="M16.9359375 31.959280851953388L16.9359375 34.48834566394263" stroke-width="0.03" stroke="#000000" fill="none"/>
<path d="M17.040234375 34.42812983508574L17.040234375 31.8990650230965" stroke-width="0.03" stroke="#000000" fill="none"/>
<path d="M16.72734375 32.07971250966716L22.7765625 28.58719443596773L22.7765625 25.576402993123395L25.383984374999997 24.071007271701223L25.383984374999997 17.08597112430236L25.279687499999998 17.025755295445475L24.758203125 17.326834439729907" stroke-width="0.03" stroke="#000000" fill="none"/>
<path d="M24.758203125 17.44726609744368L25.592578125 16.965539466588588" stroke-width="0.03" stroke="#000000" fill="none"/>
<path d="M25.592578125 16.72467615116104L26.426953124999997 16.24294952030595L26.322656249999998 16.18273369144906L25.90546875 16.423597006876605L25.801171875 16.36338117801972L25.801171875 15.159064600881985L27.261328125 14.31604299688557L27.365624999999998 14.376258825742458L27.365624999999998 16.18273369144906" stroke-width="0.03" stroke="#000000" fill="none"/>
<path d="M27.57421875 16.18273369144906L25.383984374999997 17.44726609744368" stroke-width="0.03" stroke="#000000" fill="none"/>
<path d="M25.383984374999997 17.326834439729907L27.57421875 16.062302033735286" stroke-width="0.03" stroke="#000000" fill="none"/>
<path d="M26.426953124999997 16.24294952030595L26.426953124999997 16.72467615116104" stroke-width="0.03" stroke="#000000" fill="none"/>
<path d="M25.90546875 16.423597006876605L25.90546875 15.21928042973887L27.365624999999998 14.376258825742458" stroke-width="0.03" stroke="#000000" fill="none"/>
<path d="M27.57421875 14.617122141170004L27.678515625 14.556906312313117L28.095703125000004 14.797769627740664L28.095703125000004 18.651582674581416L27.99140625 18.711798503438303L27.57421875 18.470935188010756L27.57421875 14.617122141170004L27.99140625 14.85798545659755L28.095703125000004 14.797769627740664" stroke-width="0.03" stroke="#000000" fill="none"/>
<path d="M27.99140625 14.85798545659755L27.99140625 18.711798503438303" stroke-width="0.03" stroke="#000000" fill="none"/>
<path d="M28.095703125000004 18.892445990008962L27.678515625 19.13330930543651L26.9484375 18.711798503438303L27.365624999999998 18.470935188010756L28.095703125000004 18.892445990008962L28.095703125000004 22.746259036849715L27.678515625 22.98712235227726L26.53125 22.32474823485151L26.9484375 22.08388491942396L26.9484375 18.711798503438303" stroke-width="0.03" stroke="#000000" fill="none"/>
<path d="M27.365624999999998 18.470935188010756L27.365624999999998 18.23007187258321" stroke-width="0.03" stroke="#000000" fill="none"/>
<path d="M27.57421875 18.109640214869437L25.383984374999997 19.37417262086406" stroke-width="0.03" stroke="#000000" fill="none"/>
<path d="M25.383984374999997 19.615035936291605L26.1140625 19.193525134293395L25.90546875 19.073093476579622" stroke-width="0.03" stroke="#000000" fill="none"/>
<path d="M26.1140625 19.193525134293395L26.1140625 19.67525176514849L25.48828125 20.03654673828981L25.48828125 23.167769838847924L25.801171875 23.348417325418584L25.801171875 20.21719422486047L26.53125 19.795683422862265L26.1140625 19.554820107434715" stroke-width="0.03" stroke="#000000" fill="none"/>
<path d="M26.426953124999997 19.735467594005378L26.426953124999997 18.77201433229519" stroke-width="0.03" stroke="#000000" fill="none"/>
<path d="M26.53125 19.795683422862265L26.53125 27.382877858829996L26.218359375 27.563525345400656L26.218359375 27.92482031854198L19.647656249999997 31.71841753652584L19.23046875 31.477554221098295" stroke-width="0.03" stroke="#000000" fill="none"/>
<path d="M19.334765625 31.41733839224141L18.917578125000002 31.658201707668955L18.708984375 31.53777004995518" stroke-width="0.03" stroke="#000000" fill="none"/>
<path d="M18.917578125000002 31.658201707668955L18.917578125000002 30.815180103672542" stroke-width="0.03" stroke="#000000" fill="none"/>
<path d="M18.708984375 30.935611761386316L18.708984375 33.464676573375556" stroke-width="0.03" stroke="#000000" fill="none"/>
<path d="M18.708984375 33.22381325794801L18.917578125000002 33.103381600234236L19.647656249999997 33.52489240223244L22.98515625 31.597985878812068L22.98515625 31.11625924795697L21.837890625 30.45388513053122L21.837890625 30.935611761386316L18.917578125000002 32.621654969379136L18.917578125000002 33.103381600234236" stroke-width="0.03" stroke="#000000" fill="none"/>
<path d="M19.021874999999998 33.2840290868049L15.684375 35.21093561022528L15.684375 35.331367267939044L16.1015625 35.57223058336659L19.439062500000002 33.64532405994622L19.439062500000002 33.52489240223244L19.021874999999998 33.2840290868049" stroke-width="0.03" stroke="#000000" fill="none"/>
<path d="M19.439062500000002 33.52489240223244L16.1015625 35.451798925652824L16.1015625 35.57223058336659" stroke-width="0.03" stroke="#000000" fill="none"/>
<path d="M16.1015625 35.451798925652824L15.684375 35.21093561022528" stroke-width="0.03" stroke="#000000" fill="none"/>
<path d="M15.371484375 35.15071978136838L16.9359375 34.247482348515085" stroke-width="0.03" stroke="#000000" fill="none"/>
<path d="M16.51875 33.40446074451867L16.9359375 33.163597429091126" stroke-width="0.03" stroke="#000000" fill="none"/>
<path d="M16.51875 33.40446074451867L16.51875 32.44100748280849" stroke-width="0.03" stroke="#000000" fill="none"/>
<path d="M16.72734375 32.32057582509471L16.72734375 31.35712256338452L15.162890625 32.260359996237824L15.162890625 28.40654694939707L14.85 28.22589946282641L14.537109375 28.40654694939707L14.537109375 32.260359996237824L12.97265625 31.35712256338452" stroke-width="0.03" stroke="#000000" fill="none"/>
<path d="M12.659765624999999 31.8990650230965L12.659765624999999 34.42812983508574" stroke-width="0.03" stroke="#000000" fill="none"/>
<path d="M12.7640625 34.48834566394263L12.7640625 31.959280851953388" stroke-width="0.03" stroke="#000000" fill="none"/>
<path d="M13.181249999999999 32.44100748280849L13.181249999999999 33.40446074451867L13.285546875 33.34424491566179L13.285546875 32.86251828480669L13.389843749999999 32.8023024559498L14.4328125 33.40446074451867L14.4328125 35.0905039525115L14.328515625 35.15071978136838L12.7640625 34.247482348515085" stroke-width="0.03" stroke="#000000" fill="none"/>
<path d="M13.181249999999999 33.40446074451867L12.7640625 33.163597429091126" stroke-width="0.03" stroke="#000000" fill="none"/>
<path d="M13.285546875 32.86251828480669L14.328515625 33.464676573375556L14.4328125 33.40446074451867" stroke-width="0.03" stroke="#000000" fill="none"/>
<path d="M14.328515625 33.464676573375556L14.328515625 35.15071978136838" stroke-width="0.03" stroke="#000000" fill="none"/>
<path d="M14.015625 35.21093561022528L13.598437500000001 35.451798925652824L13.598437500000001 35.57223058336659L10.260937499999999 33.64532405994622L10.260937499999999 33.52489240223244L10.678125 33.2840290868049L14.015625 35.21093561022528L14.015625 35.331367267939044L13.598437500000001 35.57223058336659" stroke-width="0.03" stroke="#000000" fill="none"/>
<path d="M13.598437500000001 35.451798925652824L10.260937499999999 33.52489240223244" stroke-width="0.03" stroke="#000000" fill="none"/>
<path d="M10.05234375 33.52489240223244L10.782421874999999 33.103381600234236L10.991015625000001 33.22381325794801" stroke-width="0.03" stroke="#000000" fill="none"/>
<path d="M10.991015625000001 33.464676573375556L10.991015625000001 30.935611761386316" stroke-width="0.03" stroke="#000000" fill="none"/>
<path d="M10.782421874999999 30.815180103672542L10.782421874999999 31.658201707668955L10.991015625000001 31.53777004995518" stroke-width="0.03" stroke="#000000" fill="none"/>
<path d="M10.782421874999999 31.658201707668955L10.365234375 31.41733839224141L10.365234375 30.694748445958766L7.653515625 29.12913689567971L7.340624999999999 29.30978438225037L7.340624999999999 29.068921066822824L7.236328125 29.008705237965938L7.4449218749999995 28.888273580252164" stroke-width="0.03" stroke="#000000" fill="none"/>
<path d="M7.340624999999999 28.94848940910905L4.733203124999998 27.443093687686883L4.733203124999998 27.202230372259333L4.8374999999999995 27.142014543402446" stroke-width="0.03" stroke="#000000" fill="none"/>
<path d="M4.8374999999999995 27.26244620111622L4.8374999999999995 26.780719570261127L4.4203125 26.53985625483358L4.4203125 26.660287912547354L4.524609375000001 26.600072083690467" stroke-width="0.03" stroke="#000000" fill="none"/>
<path d="M4.4203125 26.660287912547354L4.211718750000001 26.53985625483358L4.211718750000001 23.529064811989244" stroke-width="0.03" stroke="#000000" fill="none"/>
<path d="M4.3160156249999995 23.468848983132357L4.107421875 23.58928064084613L3.898828125 23.468848983132357L3.898828125 27.322662029973106L7.236328125 29.249568553393484L7.236328125 29.008705237965938" stroke-width="0.03" stroke="#000000" fill="none"/>
<path d="M7.340624999999999 29.068921066822824L7.5492187500000005 28.94848940910905" stroke-width="0.03" stroke="#000000" fill="none"/>
<path d="M7.653515625 29.008705237965938L7.653515625 29.12913689567971" stroke-width="0.03" stroke="#000000" fill="none"/>
<path d="M7.862109374999999 29.12913689567971L7.862109374999999 29.249568553393484" stroke-width="0.03" stroke="#000000" fill="none"/>
<path d="M8.070703124999998 29.249568553393484L8.070703124999998 29.37000021110726L8.175 29.30978438225037" stroke-width="0.03" stroke="#000000" fill="none"/>
<path d="M7.340624999999999 29.30978438225037L10.05234375 30.87539593252943L10.05234375 31.71841753652584L3.481640624999999 27.92482031854198L3.481640624999999 27.563525345400656L3.1687499999999984 27.382877858829996L3.1687499999999984 19.795683422862265L3.5859375 19.554820107434715" stroke-width="0.03" stroke="#000000" fill="none"/>
<path d="M3.5859375 19.67525176514849L3.5859375 19.193525134293395L3.7945312499999995 19.073093476579622" stroke-width="0.03" stroke="#000000" fill="none"/>
<path d="M3.5859375 19.193525134293395L4.3160156249999995 19.615035936291605" stroke-width="0.03" stroke="#000000" fill="none"/>
<path d="M4.3160156249999995 19.37417262086406L2.125781250000001 18.109640214869437" stroke-width="0.03" stroke="#000000" fill="none"/>
<path d="M2.3343750000000005 18.23007187258321L2.3343750000000005 18.470935188010756L2.7515624999999995 18.711798503438303L2.7515624999999995 22.08388491942396L3.1687499999999984 22.32474823485151L2.021484375 22.98712235227726L1.6042968749999988 22.746259036849715L1.6042968749999988 18.892445990008962L2.3343750000000005 18.470935188010756" stroke-width="0.03" stroke="#000000" fill="none"/>
<path d="M2.125781250000001 18.470935188010756L1.7085937499999995 18.711798503438303L1.6042968749999988 18.651582674581416L1.6042968749999988 14.797769627740664L2.021484375 14.556906312313117L2.125781250000001 14.617122141170004L2.125781250000001 18.470935188010756" stroke-width="0.03" stroke="#000000" fill="none"/>
<path d="M1.7085937499999995 18.711798503438303L1.7085937499999995 14.85798545659755L2.125781250000001 14.617122141170004" stroke-width="0.03" stroke="#000000" fill="none"/>
<path d="M1.7085937499999995 14.85798545659755L1.6042968749999988 14.797769627740664" stroke-width="0.03" stroke="#000000" fill="none"/>
<path d="M3.2730468750000017 16.24294952030595L3.2730468750000017 16.72467615116104" stroke-width="0.03" stroke="#000000" fill="none"/>
<path d="M3.2730468750000017 16.24294952030595L4.107421875 16.72467615116104" stroke-width="0.03" stroke="#000000" fill="none"/>
<path d="M4.4203125 17.025755295445475L4.941796875 17.326834439729907" stroke-width="0.03" stroke="#000000" fill="none"/>
<path d="M3.898828125 15.881654547164626L4.941796875 15.279496258595758L4.941796875 14.075179681458023" stroke-width="0.03" stroke="#000000" fill="none"/>
<path d="M5.254687500000001 14.13539551031491L6.089062499999999 14.617122141170004" stroke-width="0.03" stroke="#000000" fill="none"/>
<path d="M6.193359375 13.95474802374425L6.193359375 13.834316366030475L12.242578125 10.341798292331045L14.85 11.847194013753214L17.457421875 10.341798292331045L23.506640625 13.834316366030475L23.506640625 13.95474802374425L22.98515625 14.255827168028683" stroke-width="0.03" stroke="#000000" fill="none"/>
<path d="M22.880859375 14.195611339171796L23.715234375 13.713884708316701" stroke-width="0.03" stroke="#000000" fill="none"/>
<path d="M23.923828125000004 13.834316366030475L24.758203125 13.352589735175382L24.758203125 13.473021392889155L24.341015624999997 13.713884708316701L24.341015624999997 13.834316366030475L25.383984374999997 14.436474654599342L26.844140625 13.593453050602928L26.844140625 13.473021392889155L25.279687499999998 12.569783960035853" stroke-width="0.03" stroke="#000000" fill="none"/>
<path d="M25.383984374999997 12.389136473465193L23.193749999999998 13.653668879459815" stroke-width="0.03" stroke="#000000" fill="none"/>
<path d="M23.298046874999997 13.713884708316701L25.48828125 12.44935230232208" stroke-width="0.03" stroke="#000000" fill="none"/>
<path d="M24.758203125 13.352589735175382L24.341015624999997 13.111726419747836" stroke-width="0.03" stroke="#000000" fill="none"/>
<path d="M24.341015624999997 13.713884708316701L25.383984374999997 14.31604299688557L26.844140625 13.473021392889155" stroke-width="0.03" stroke="#000000" fill="none"/>
<path d="M26.73984375 13.171942248604722L26.844140625 13.111726419747836L26.844140625 12.629999788892741L23.506640625 10.703093265472365L23.40234375 10.763309094329252L23.40234375 11.245035725184344L26.73984375 13.171942248604722L26.73984375 12.690215617749628L23.40234375 10.763309094329252" stroke-width="0.03" stroke="#000000" fill="none"/>
<path d="M23.298046874999997 10.582661607758592L22.880859375 10.823524923186138L22.880859375 11.666546527182554L19.960546875000002 9.980503319189724L19.543359374999998 10.22136663461727L19.543359374999998 8.896618399765762L19.960546875000002 8.655755084338216L23.298046874999997 10.582661607758592L23.298046874999997 11.425683211755006L22.880859375 11.666546527182554" stroke-width="0.03" stroke="#000000" fill="none"/>
<path d="M23.298046874999997 11.425683211755006L23.506640625 11.54611486946878" stroke-width="0.03" stroke="#000000" fill="none"/>
<path d="M23.715234375 11.425683211755006L21.525000000000002 12.690215617749628" stroke-width="0.03" stroke="#000000" fill="none"/>
<path d="M21.31640625 12.569783960035853L22.046484375000002 12.148273158037647L22.046484375000002 12.389136473465193" stroke-width="0.03" stroke="#000000" fill="none"/>
<path d="M22.046484375000002 12.148273158037647L21.629296875 11.9074098426101L21.003515625000002 12.26870481575142L18.291796875 10.703093265472365L18.291796875 10.341798292331045L21.003515625000002 11.9074098426101L21.003515625000002 12.26870481575142" stroke-width="0.03" stroke="#000000" fill="none"/>
<path d="M21.003515625000002 11.9074098426101L21.733593749999997 11.485899040611892L15.162890625 7.692301822628027L14.85 7.872949309198687L14.537109375 7.692301822628027" stroke-width="0.03" stroke="#000000" fill="none"/>
<path d="M14.328515625 7.331006849486706L12.451171875 8.414891768910667" stroke-width="0.03" stroke="#000000" fill="none"/>
<path d="M11.512500000000001 8.836402570908875L11.408203125 8.776186742051989" stroke-width="0.03" stroke="#000000" fill="none"/>
<path d="M11.512500000000001 10.281582463474159L14.85 8.354675940053781L18.1875 10.281582463474159L17.978906249999998 10.40201412118793L17.978906249999998 10.642877436615478" stroke-width="0.03" stroke="#000000" fill="none"/>
<path d="M17.978906249999998 10.522445778901705L15.371484375 9.017050057479535L15.162890625 9.13748171519331L15.162890625 9.257913372907083" stroke-width="0.03" stroke="#000000" fill="none"/>
<path d="M15.267187499999999 9.197697544050197L14.85 9.438560859477743L14.4328125 9.197697544050197L14.537109375 9.13748171519331L14.328515625 9.017050057479535L11.72109375 10.522445778901705" stroke-width="0.03" stroke="#000000" fill="none"/>
<path d="M11.72109375 10.642877436615478L11.72109375 10.40201412118793L11.512500000000001 10.281582463474159" stroke-width="0.03" stroke="#000000" fill="none"/>
<path d="M11.408203125 10.341798292331045L11.408203125 10.703093265472365" stroke-width="0.03" stroke="#000000" fill="none"/>
<path d="M11.303906249999999 10.883740752043025L11.199609375 10.823524923186138" stroke-width="0.03" stroke="#000000" fill="none"/>
<path d="M11.095312499999999 11.004172409756798L10.991015625000001 10.943956580899911L10.991015625000001 11.064388238613684" stroke-width="0.03" stroke="#000000" fill="none"/>
<path d="M11.616796874999999 10.462229950044819L11.72109375 10.40201412118793" stroke-width="0.03" stroke="#000000" fill="none"/>
<path d="M13.181249999999999 10.883740752043025L14.537109375 10.100934976903497L14.85 10.281582463474159L15.162890625 10.100934976903497L16.51875 10.883740752043025" stroke-width="0.03" stroke="#000000" fill="none"/>
<path d="M17.978906249999998 10.40201412118793L18.083203125 10.462229950044819L18.083203125 10.703093265472365" stroke-width="0.03" stroke="#000000" fill="none"/>
<path d="M18.1875 10.763309094329252L18.291796875 10.703093265472365" stroke-width="0.03" stroke="#000000" fill="none"/>
<path d="M18.396093750000002 10.883740752043025L18.500390624999998 10.823524923186138" stroke-width="0.03" stroke="#000000" fill="none"/>
<path d="M18.6046875 11.004172409756798L18.708984375 10.943956580899911L18.708984375 11.064388238613684" stroke-width="0.03" stroke="#000000" fill="none"/>
<path d="M18.291796875 10.341798292331045L18.083203125 10.462229950044819" stroke-width="0.03" stroke="#000000" fill="none"/>
<path d="M18.396093750000002 9.558992517191516L18.396093750000002 8.956834228622649L17.353125 8.354675940053781L17.14453125 8.475107597767554L17.14453125 8.836402570908875" stroke-width="0.03" stroke="#000000" fill="none"/>
<path d="M17.14453125 8.475107597767554L18.1875 9.077265886336422L18.396093750000002 8.956834228622649" stroke-width="0.03" stroke="#000000" fill="none"/>
<path d="M18.291796875 8.896618399765762L18.291796875 8.776186742051989L15.580078125 7.210575191772933L15.371484375 7.331006849486706L15.371484375 7.812733480341801" stroke-width="0.03" stroke="#000000" fill="none"/>
<path d="M15.371484375 7.331006849486706L17.248828125 8.414891768910667" stroke-width="0.03" stroke="#000000" fill="none"/>
<path d="M18.1875 8.836402570908875L18.291796875 8.776186742051989" stroke-width="0.03" stroke="#000000" fill="none"/>
<path d="M18.1875 9.077265886336422L18.1875 9.438560859477743" stroke-width="0.03" stroke="#000000" fill="none"/>
<path d="M19.543359374999998 8.896618399765762L22.880859375 10.823524923186138" stroke-width="0.03" stroke="#000000" fill="none"/>
<path d="M22.567968750000002 12.08805732918076L21.733593749999997 11.606330698325666" stroke-width="0.03" stroke="#000000" fill="none"/>
<path d="M21.733593749999997 11.485899040611892L21.733593749999997 11.967625671466987" stroke-width="0.03" stroke="#000000" fill="none"/>
<path d="M23.506640625 13.593453050602928L24.4453125 14.13539551031491L24.4453125 15.460143745166418L25.592578125 16.122517862592172L25.592578125 17.206402782016134" stroke-width="0.03" stroke="#000000" fill="none"/>
<path d="M24.758203125 17.44726609744368L24.758203125 15.640791231737078L21.420703125 17.567697755157454L21.107812499999998 17.387050268586794L21.107812499999998 17.025755295445475L21.003515625000002 16.965539466588588L18.291796875 18.531151016867643L17.978906249999998 18.350503530296983L16.9359375 18.95266181886585L16.9359375 19.31395679200717L16.31015625 18.95266181886585L14.85 19.795683422862265L13.389843749999999 18.95266181886585L13.389843749999999 18.832230161152076L13.494140625 18.77201433229519L14.85 19.554820107434715L16.205859375 18.77201433229519L16.31015625 18.832230161152076L16.31015625 18.95266181886585" stroke-width="0.03" stroke="#000000" fill="none"/>
<path d="M16.31015625 18.832230161152076L14.85 19.67525176514849L14.85 19.795683422862265" stroke-width="0.03" stroke="#000000" fill="none"/>
<path d="M14.85 19.67525176514849L13.389843749999999 18.832230161152076" stroke-width="0.03" stroke="#000000" fill="none"/>
<path d="M13.389843749999999 18.95266181886585L12.7640625 19.31395679200717L11.72109375 18.711798503438303L11.408203125 18.892445990008962L11.408203125 18.531151016867643L8.696484375 16.965539466588588L8.5921875 17.025755295445475" stroke-width="0.03" stroke="#000000" fill="none"/>
<path d="M8.696484375 16.965539466588588L8.696484375 17.44726609744368L14.119921875 20.57848919800179L14.015625 20.63870502685868L14.015625 21.120431657713773L14.119921875 21.18064748657066L14.119921875 21.54194245971198L14.015625 21.481726630855093L14.015625 21.36129497314132L14.328515625 21.54194245971198L14.85 21.240863315427546L15.371484375 21.54194245971198L15.684375 21.36129497314132L15.684375 21.481726630855093L15.580078125 21.54194245971198L15.580078125 21.18064748657066L15.684375 21.120431657713773L15.684375 20.63870502685868L15.580078125 20.57848919800179L15.580078125 20.458057540288017L18.291796875 18.892445990008962L18.291796875 18.531151016867643" stroke-width="0.03" stroke="#000000" fill="none"/>
<path d="M18.291796875 18.892445990008962L17.978906249999998 18.711798503438303L16.9359375 19.31395679200717" stroke-width="0.03" stroke="#000000" fill="none"/>
<path d="M16.9359375 18.95266181886585L14.954296875 17.808561070585L14.954296875 17.928992728298773L14.85 17.989208557155663L14.745703124999999 17.928992728298773L14.745703124999999 17.808561070585L14.64140625 17.748345241728117L14.85 17.62791358401434L15.05859375 17.748345241728117L14.954296875 17.808561070585" stroke-width="0.03" stroke="#000000" fill="none"/>
<path d="M14.954296875 17.928992728298773L15.162890625 18.049424386012547L15.162890625 18.410719359153866L14.954296875 18.531151016867643L14.85 18.470935188010756L14.745703124999999 18.531151016867643L14.537109375 18.410719359153866L14.537109375 18.049424386012547L14.745703124999999 17.928992728298773" stroke-width="0.03" stroke="#000000" fill="none"/>
<path d="M14.745703124999999 17.808561070585L12.7640625 18.95266181886585L11.72109375 18.350503530296983L11.408203125 18.531151016867643" stroke-width="0.03" stroke="#000000" fill="none"/>
<path d="M11.408203125 18.892445990008962L14.119921875 20.458057540288017L14.537109375 20.21719422486047L14.64140625 20.277410053717357L14.64140625 20.879568342286227L14.119921875 21.18064748657066" stroke-width="0.03" stroke="#000000" fill="none"/>
<path d="M14.015625 21.120431657713773L14.537109375 20.819352513429337L14.537109375 20.21719422486047" stroke-width="0.03" stroke="#000000" fill="none"/>
<path d="M14.64140625 20.277410053717357L14.954296875 20.096762567146698L14.85 20.03654673828981L14.745703124999999 20.096762567146698L15.05859375 20.277410053717357L15.162890625 20.21719422486047L15.580078125 20.458057540288017" stroke-width="0.03" stroke="#000000" fill="none"/>
<path d="M15.580078125 20.57848919800179L21.003515625000002 17.44726609744368L21.003515625000002 16.965539466588588" stroke-width="0.03" stroke="#000000" fill="none"/>
<path d="M21.107812499999998 17.025755295445475L24.4453125 15.098848772025098L22.880859375 14.195611339171796" stroke-width="0.03" stroke="#000000" fill="none"/>
<path d="M23.610937500000002 14.617122141170004L24.4453125 14.13539551031491" stroke-width="0.03" stroke="#000000" fill="none"/>
<path d="M24.758203125 14.075179681458023L24.758203125 15.279496258595758L25.801171875 15.881654547164626" stroke-width="0.03" stroke="#000000" fill="none"/>
<path d="M25.592578125 16.122517862592172L24.758203125 16.60424449344727" stroke-width="0.03" stroke="#000000" fill="none"/>
<path d="M25.383984374999997 15.640791231737078L25.801171875 15.399927916309531L25.175390624999995 15.038632943168212L21.107812499999998 17.387050268586794" stroke-width="0.03" stroke="#000000" fill="none"/>
<path d="M21.003515625000002 17.44726609744368L21.420703125 17.688129412871227L18.708984375 19.253740963150285L18.708984375 19.615035936291605L17.666015625 20.21719422486047L17.353125 20.03654673828981L17.353125 20.759136684572454L15.89296875 21.602158288568866L15.89296875 23.288201496561694L15.997265625 23.348417325418584L16.1015625 23.288201496561694L16.1015625 21.72258994628264L17.457421875 20.939784171143113L17.457421875 20.819352513429337L17.353125 20.759136684572454" stroke-width="0.03" stroke="#000000" fill="none"/>
<path d="M17.457421875 20.819352513429337L15.997265625 21.662374117425752L15.89296875 21.602158288568866" stroke-width="0.03" stroke="#000000" fill="none"/>
<path d="M15.997265625 21.662374117425752L15.997265625 23.348417325418584" stroke-width="0.03" stroke="#000000" fill="none"/>
<path d="M15.89296875 23.288201496561694L15.267187499999999 23.649496469703017L15.267187499999999 24.85381304684075L14.954296875 25.034460533411412L15.267187499999999 25.215108019982072L15.267187499999999 28.346331120540185L15.162890625 28.40654694939707" stroke-width="0.03" stroke="#000000" fill="none"/>
<path d="M15.267187499999999 28.346331120540185L14.85 28.105467805112635L14.85 21.843021603996412L14.745703124999999 21.903237432853302L14.745703124999999 25.034460533411412L14.4328125 25.215108019982072L14.4328125 28.346331120540185L14.537109375 28.40654694939707" stroke-width="0.03" stroke="#000000" fill="none"/>
<path d="M14.4328125 28.346331120540185L14.85 28.105467805112635" stroke-width="0.03" stroke="#000000" fill="none"/>
<path d="M14.85 28.22589946282641L14.85 32.92273411366358L14.224218749999999 33.2840290868049L14.224218749999999 32.8023024559498" stroke-width="0.03" stroke="#000000" fill="none"/>
<path d="M13.80703125 33.043165771377346L14.85 32.44100748280849L15.89296875 33.043165771377346" stroke-width="0.03" stroke="#000000" fill="none"/>
<path d="M15.997265625 32.74208662709292L15.997265625 31.77863336538273" stroke-width="0.03" stroke="#000000" fill="none"/>
<path d="M16.623046875 32.01949668081028L16.623046875 31.41733839224141" stroke-width="0.03" stroke="#000000" fill="none"/>
<path d="M16.623046875 32.01949668081028L16.72734375 32.07971250966716" stroke-width="0.03" stroke="#000000" fill="none"/>
<path d="M16.31015625 32.8023024559498L15.267187499999999 33.40446074451867L15.267187499999999 35.0905039525115L15.371484375 35.15071978136838L15.371484375 33.464676573375556L16.414453125 32.86251828480669L16.31015625 32.8023024559498" stroke-width="0.03" stroke="#000000" fill="none"/>
<path d="M16.414453125 32.86251828480669L16.414453125 33.34424491566179L16.51875 33.40446074451867" stroke-width="0.03" stroke="#000000" fill="none"/>
<path d="M15.47578125 33.2840290868049L15.47578125 32.8023024559498" stroke-width="0.03" stroke="#000000" fill="none"/>
<path d="M15.47578125 33.2840290868049L14.85 32.92273411366358" stroke-width="0.03" stroke="#000000" fill="none"/>
<path d="M15.267187499999999 33.40446074451867L15.371484375 33.464676573375556" stroke-width="0.03" stroke="#000000" fill="none"/>
<path d="M13.702734374999999 32.74208662709292L13.702734374999999 31.77863336538273" stroke-width="0.03" stroke="#000000" fill="none"/>
<path d="M10.991015625000001 32.139928338524044L10.156640625 31.658201707668955" stroke-width="0.03" stroke="#000000" fill="none"/>
<path d="M10.05234375 31.71841753652584L10.46953125 31.477554221098295" stroke-width="0.03" stroke="#000000" fill="none"/>
<path d="M10.05234375 30.87539593252943L10.365234375 30.694748445958766" stroke-width="0.03" stroke="#000000" fill="none"/>
<path d="M10.782421874999999 32.621654969379136L10.05234375 33.043165771377346L10.05234375 33.52489240223244L6.714843749999999 31.597985878812068L6.714843749999999 31.11625924795697L7.862109374999999 30.45388513053122L7.862109374999999 30.935611761386316L10.782421874999999 32.621654969379136L10.782421874999999 33.103381600234236" stroke-width="0.03" stroke="#000000" fill="none"/>
<path d="M10.05234375 33.043165771377346L6.714843749999999 31.11625924795697" stroke-width="0.03" stroke="#000000" fill="none"/>
<path d="M6.193359375 30.0925901573899L6.714843749999999 29.791511013105463" stroke-width="0.03" stroke="#000000" fill="none"/>
<path d="M6.5062500000000005 29.67107935539169L6.193359375 29.851726841962353L6.193359375 30.0925901573899L5.150390625 29.490431868821034L5.150390625 29.249568553393484L5.46328125 29.068921066822824" stroke-width="0.03" stroke="#000000" fill="none"/>
<path d="M5.150390625 29.249568553393484L6.193359375 29.851726841962353" stroke-width="0.03" stroke="#000000" fill="none"/>
<path d="M6.089062499999999 30.032374328533013L5.984765624999999 30.0925901573899L3.2730468750000017 28.526978607110845L3.2730468750000017 28.286115291683295L3.6902343750000006 28.04525197625575" stroke-width="0.03" stroke="#000000" fill="none"/>
<path d="M3.2730468750000017 28.286115291683295L5.150390625 29.37000021110726" stroke-width="0.03" stroke="#000000" fill="none"/>
<path d="M5.984765624999999 29.972158499676127L5.984765624999999 30.0925901573899" stroke-width="0.03" stroke="#000000" fill="none"/>
<path d="M6.9234374999999995 27.50330951654377L5.567578125 26.72050374140424L5.567578125 26.359208768262917L5.254687500000001 26.17856128169226L5.254687500000001 24.612949731413206" stroke-width="0.03" stroke="#000000" fill="none"/>
<path d="M4.107421875 23.58928064084613L4.107421875 23.468848983132357L4.3160156249999995 23.348417325418584" stroke-width="0.03" stroke="#000000" fill="none"/>
<path d="M4.3160156249999995 23.227985667704807L4.211718750000001 23.167769838847924L3.898828125 23.348417325418584L3.898828125 20.21719422486047L3.1687499999999984 19.795683422862265" stroke-width="0.03" stroke="#000000" fill="none"/>
<path d="M3.2730468750000017 19.735467594005378L3.2730468750000017 18.77201433229519" stroke-width="0.03" stroke="#000000" fill="none"/>
<path d="M2.7515624999999995 18.711798503438303L2.021484375 19.13330930543651L1.6042968749999988 18.892445990008962" stroke-width="0.03" stroke="#000000" fill="none"/>
<path d="M2.021484375 19.13330930543651L2.021484375 22.98712235227726" stroke-width="0.03" stroke="#000000" fill="none"/>
<path d="M2.647265625000001 23.95057561398745L3.1687499999999984 23.649496469703017" stroke-width="0.03" stroke="#000000" fill="none"/>
<path d="M3.1687499999999984 23.890359785130563L2.8558593750000005 24.071007271701223L2.8558593750000005 25.27532384883896L2.647265625000001 25.154892191125185L2.647265625000001 23.95057561398745L2.8558593750000005 24.071007271701223" stroke-width="0.03" stroke="#000000" fill="none"/>
<path d="M2.647265625000001 24.071007271701223L2.54296875 24.13122310055811L2.54296875 27.26244620111622L2.7515624999999995 27.382877858829996L3.1687499999999984 27.142014543402446" stroke-width="0.03" stroke="#000000" fill="none"/>
<path d="M2.7515624999999995 27.382877858829996L2.7515624999999995 25.215108019982072" stroke-width="0.03" stroke="#000000" fill="none"/>
<path d="M2.8558593750000005 25.27532384883896L3.1687499999999984 25.0946763622683" stroke-width="0.03" stroke="#000000" fill="none"/>
<path d="M2.647265625000001 24.191438929414996L2.54296875 24.13122310055811" stroke-width="0.03" stroke="#000000" fill="none"/>
<path d="M3.898828125 23.348417325418584L4.107421875 23.468848983132357" stroke-width="0.03" stroke="#000000" fill="none"/>
<path d="M4.211718750000001 23.167769838847924L4.211718750000001 20.03654673828981L3.5859375 19.67525176514849" stroke-width="0.03" stroke="#000000" fill="none"/>
<path d="M3.898828125 20.21719422486047L4.211718750000001 20.03654673828981" stroke-width="0.03" stroke="#000000" fill="none"/>
<path d="M4.3160156249999995 22.62582737913594L4.211718750000001 22.686043207992828L4.3160156249999995 22.746259036849715" stroke-width="0.03" stroke="#000000" fill="none"/>
<path d="M4.211718750000001 22.926906523420374L4.3160156249999995 22.98712235227726" stroke-width="0.03" stroke="#000000" fill="none"/>
<path d="M6.714843749999999 25.45597133540962L6.714843749999999 25.696834650837165L6.9234374999999995 25.817266308550938" stroke-width="0.03" stroke="#000000" fill="none"/>
<path d="M6.9234374999999995 25.576402993123395L6.714843749999999 25.696834650837165" stroke-width="0.03" stroke="#000000" fill="none"/>
<path d="M4.8374999999999995 26.780719570261127L3.898828125 27.322662029973106" stroke-width="0.03" stroke="#000000" fill="none"/>
<path d="M4.733203124999998 27.202230372259333L4.8374999999999995 27.26244620111622" stroke-width="0.03" stroke="#000000" fill="none"/>
<path d="M11.199609375 23.107554009991038L11.512500000000001 22.926906523420374L11.199609375 22.746259036849715L11.199609375 23.107554009991038L11.512500000000001 23.288201496561694L11.512500000000001 22.926906523420374" stroke-width="0.03" stroke="#000000" fill="none"/>
<path d="M11.9296875 22.686043207992828L12.242578125 22.50539572142217L12.242578125 22.62582737913594L12.451171875 22.746259036849715L12.7640625 22.565611550279055L12.7640625 22.32474823485151L12.659765624999999 22.264532405994622L12.451171875 22.384964063708395L12.451171875 22.264532405994622L12.659765624999999 22.14410074828085L12.451171875 22.023669090567072L12.138281249999999 22.204316577137735L12.138281249999999 22.44517989256528L12.033984375000001 22.50539572142217L11.9296875 22.44517989256528L11.9296875 22.686043207992828L12.138281249999999 22.8064748657066L12.138281249999999 22.686043207992828L12.242578125 22.62582737913594" stroke-width="0.03" stroke="#000000" fill="none"/>
<path d="M12.242578125 22.50539572142217L12.138281249999999 22.44517989256528" stroke-width="0.03" stroke="#000000" fill="none"/>
<path d="M12.033984375000001 22.50539572142217L12.033984375000001 20.21719422486047L12.346874999999999 20.03654673828981L11.303906249999999 19.434388449720945L10.991015625000001 19.615035936291605L12.033984375000001 20.21719422486047" stroke-width="0.03" stroke="#000000" fill="none"/>
<path d="M12.346874999999999 20.03654673828981L12.346874999999999 20.759136684572454L13.80703125 21.602158288568866L13.80703125 23.288201496561694L13.702734374999999 23.348417325418584L13.598437500000001 23.288201496561694L13.598437500000001 21.72258994628264L12.242578125 20.939784171143113L12.242578125 20.819352513429337L12.346874999999999 20.759136684572454" stroke-width="0.03" stroke="#000000" fill="none"/>
<path d="M12.242578125 20.819352513429337L13.702734374999999 21.662374117425752L13.80703125 21.602158288568866" stroke-width="0.03" stroke="#000000" fill="none"/>
<path d="M13.702734374999999 21.662374117425752L13.702734374999999 23.348417325418584" stroke-width="0.03" stroke="#000000" fill="none"/>
<path d="M13.80703125 23.288201496561694L14.4328125 23.649496469703017L14.4328125 24.85381304684075L14.745703124999999 25.034460533411412" stroke-width="0.03" stroke="#000000" fill="none"/>
<path d="M14.954296875 25.034460533411412L14.954296875 21.903237432853302L14.85 21.843021603996412" stroke-width="0.03" stroke="#000000" fill="none"/>
<path d="M14.954296875 21.903237432853302L15.371484375 21.662374117425752L15.371484375 21.54194245971198" stroke-width="0.03" stroke="#000000" fill="none"/>
<path d="M15.371484375 21.662374117425752L14.85 21.36129497314132L14.328515625 21.662374117425752L14.745703124999999 21.903237432853302" stroke-width="0.03" stroke="#000000" fill="none"/>
<path d="M14.328515625 21.662374117425752L14.328515625 21.54194245971198" stroke-width="0.03" stroke="#000000" fill="none"/>
<path d="M14.015625 21.481726630855093L14.85 21L15.684375 21.481726630855093" stroke-width="0.03" stroke="#000000" fill="none"/>
<path d="M15.580078125 21.18064748657066L15.05859375 20.879568342286227L15.05859375 20.277410053717357" stroke-width="0.03" stroke="#000000" fill="none"/>
<path d="M15.162890625 20.21719422486047L15.162890625 20.819352513429337L15.05859375 20.879568342286227" stroke-width="0.03" stroke="#000000" fill="none"/>
<path d="M15.162890625 20.819352513429337L15.684375 21.120431657713773" stroke-width="0.03" stroke="#000000" fill="none"/>
<path d="M15.684375 20.63870502685868L18.396093750000002 19.073093476579622L18.708984375 19.253740963150285" stroke-width="0.03" stroke="#000000" fill="none"/>
<path d="M18.396093750000002 19.434388449720945L17.353125 20.03654673828981" stroke-width="0.03" stroke="#000000" fill="none"/>
<path d="M17.666015625 20.21719422486047L17.666015625 22.50539572142217L17.7703125 22.44517989256528L17.7703125 22.686043207992828L17.56171875 22.8064748657066L17.56171875 22.686043207992828L17.457421875 22.62582737913594L17.248828125 22.746259036849715L16.9359375 22.565611550279055L16.9359375 22.32474823485151L17.040234375 22.264532405994622L17.040234375 22.14410074828085L17.248828125 22.023669090567072L17.56171875 22.204316577137735L17.56171875 22.44517989256528L17.457421875 22.50539572142217L17.457421875 22.62582737913594" stroke-width="0.03" stroke="#000000" fill="none"/>
<path d="M17.56171875 22.686043207992828L15.580078125 23.830143956273677L15.267187499999999 23.649496469703017" stroke-width="0.03" stroke="#000000" fill="none"/>
<path d="M15.580078125 23.830143956273677L15.580078125 25.034460533411412L15.267187499999999 25.215108019982072" stroke-width="0.03" stroke="#000000" fill="none"/>
<path d="M15.580078125 25.034460533411412L15.267187499999999 24.85381304684075" stroke-width="0.03" stroke="#000000" fill="none"/>
<path d="M14.4328125 24.85381304684075L14.119921875 25.034460533411412L14.4328125 25.215108019982072" stroke-width="0.03" stroke="#000000" fill="none"/>
<path d="M14.119921875 25.034460533411412L14.119921875 23.830143956273677L12.138281249999999 22.686043207992828" stroke-width="0.03" stroke="#000000" fill="none"/>
<path d="M12.451171875 22.62582737913594L12.451171875 22.746259036849715" stroke-width="0.03" stroke="#000000" fill="none"/>
<path d="M12.451171875 22.62582737913594L12.555468750000001 22.686043207992828L12.555468750000001 22.44517989256528L12.7640625 22.32474823485151" stroke-width="0.03" stroke="#000000" fill="none"/>
<path d="M12.659765624999999 22.264532405994622L12.659765624999999 22.14410074828085" stroke-width="0.03" stroke="#000000" fill="none"/>
<path d="M12.451171875 22.264532405994622L12.242578125 22.14410074828085L12.242578125 22.264532405994622L12.138281249999999 22.204316577137735" stroke-width="0.03" stroke="#000000" fill="none"/>
<path d="M12.346874999999999 22.08388491942396L12.346874999999999 21.602158288568866" stroke-width="0.03" stroke="#000000" fill="none"/>
<path d="M12.242578125 21.54194245971198L12.242578125 21.301079144284433L12.346874999999999 21.240863315427546L12.346874999999999 21" stroke-width="0.03" stroke="#000000" fill="none"/>
<path d="M12.346874999999999 21.240863315427546L12.868359374999999 21.54194245971198L12.868359374999999 21.782805775139526L12.7640625 21.843021603996412L12.242578125 21.54194245971198" stroke-width="0.03" stroke="#000000" fill="none"/>
<path d="M12.242578125 21.301079144284433L12.7640625 21.602158288568866L12.868359374999999 21.54194245971198" stroke-width="0.03" stroke="#000000" fill="none"/>
<path d="M12.7640625 21.602158288568866L12.7640625 21.843021603996412" stroke-width="0.03" stroke="#000000" fill="none"/>
<path d="M12.451171875 22.384964063708395L12.555468750000001 22.44517989256528" stroke-width="0.03" stroke="#000000" fill="none"/>
<path d="M12.659765624999999 22.62582737913594L13.076953125000001 22.866690694563488" stroke-width="0.03" stroke="#000000" fill="none"/>
<path d="M13.076953125000001 22.98712235227726L13.076953125000001 22.384964063708395L13.181249999999999 22.32474823485151L13.389843749999999 22.44517989256528L13.389843749999999 23.047338181134148L13.285546875 23.107554009991038L13.076953125000001 22.98712235227726" stroke-width="0.03" stroke="#000000" fill="none"/>
<path d="M13.285546875 23.107554009991038L13.285546875 22.50539572142217L13.389843749999999 22.44517989256528" stroke-width="0.03" stroke="#000000" fill="none"/>
<path d="M13.285546875 22.50539572142217L13.076953125000001 22.384964063708395" stroke-width="0.03" stroke="#000000" fill="none"/>
<path d="M13.389843749999999 23.047338181134148L13.598437500000001 23.167769838847924" stroke-width="0.03" stroke="#000000" fill="none"/>
<path d="M14.119921875 23.830143956273677L14.4328125 23.649496469703017" stroke-width="0.03" stroke="#000000" fill="none"/>
<path d="M16.1015625 23.167769838847924L16.31015625 23.047338181134148L16.31015625 22.44517989256528L16.51875 22.32474823485151L16.623046875 22.384964063708395L16.623046875 22.98712235227726L16.414453125 23.107554009991038L16.31015625 23.047338181134148" stroke-width="0.03" stroke="#000000" fill="none"/>
<path d="M16.414453125 23.107554009991038L16.414453125 22.50539572142217L16.623046875 22.384964063708395" stroke-width="0.03" stroke="#000000" fill="none"/>
<path d="M16.414453125 22.50539572142217L16.31015625 22.44517989256528" stroke-width="0.03" stroke="#000000" fill="none"/>
<path d="M16.623046875 22.866690694563488L17.040234375 22.62582737913594" stroke-width="0.03" stroke="#000000" fill="none"/>
<path d="M17.14453125 22.686043207992828L17.248828125 22.62582737913594L17.248828125 22.746259036849715" stroke-width="0.03" stroke="#000000" fill="none"/>
<path d="M17.14453125 22.686043207992828L17.14453125 22.44517989256528L17.248828125 22.384964063708395L17.248828125 22.264532405994622L17.040234375 22.14410074828085" stroke-width="0.03" stroke="#000000" fill="none"/>
<path d="M17.040234375 22.264532405994622L17.248828125 22.384964063708395" stroke-width="0.03" stroke="#000000" fill="none"/>
<path d="M17.14453125 22.44517989256528L16.9359375 22.32474823485151" stroke-width="0.03" stroke="#000000" fill="none"/>
<path d="M17.248828125 22.264532405994622L17.457421875 22.14410074828085L17.457421875 22.264532405994622L17.56171875 22.204316577137735" stroke-width="0.03" stroke="#000000" fill="none"/>
<path d="M17.56171875 22.44517989256528L17.666015625 22.50539572142217" stroke-width="0.03" stroke="#000000" fill="none"/>
<path d="M17.457421875 22.50539572142217L17.7703125 22.686043207992828" stroke-width="0.03" stroke="#000000" fill="none"/>
<path d="M18.1875 22.926906523420374L18.500390624999998 22.746259036849715L18.500390624999998 23.107554009991038L18.1875 23.288201496561694L18.1875 22.926906523420374L18.500390624999998 23.107554009991038" stroke-width="0.03" stroke="#000000" fill="none"/>
<path d="M17.353125 22.08388491942396L17.353125 21.602158288568866" stroke-width="0.03" stroke="#000000" fill="none"/>
<path d="M17.457421875 21.54194245971198L16.9359375 21.843021603996412L16.831640625 21.782805775139526L16.831640625 21.54194245971198L17.353125 21.240863315427546L17.457421875 21.301079144284433L17.457421875 21.54194245971198" stroke-width="0.03" stroke="#000000" fill="none"/>
<path d="M17.457421875 21.301079144284433L16.9359375 21.602158288568866L16.831640625 21.54194245971198" stroke-width="0.03" stroke="#000000" fill="none"/>
<path d="M16.9359375 21.602158288568866L16.9359375 21.843021603996412" stroke-width="0.03" stroke="#000000" fill="none"/>
<path d="M17.353125 21.240863315427546L17.353125 21" stroke-width="0.03" stroke="#000000" fill="none"/>
<path d="M18.396093750000002 19.434388449720945L18.396093750000002 19.073093476579622" stroke-width="0.03" stroke="#000000" fill="none"/>
<path d="M18.396093750000002 19.434388449720945L18.708984375 19.615035936291605" stroke-width="0.03" stroke="#000000" fill="none"/>
<path d="M17.978906249999998 18.711798503438303L17.978906249999998 18.350503530296983" stroke-width="0.03" stroke="#000000" fill="none"/>
<path d="M16.1015625 18.832230161152076L15.89296875 18.711798503438303L15.89296875 18.59136684572453L15.684375 18.470935188010756L15.162890625 18.77201433229519L15.162890625 18.892445990008962L15.371484375 19.01287764772274L15.89296875 18.711798503438303" stroke-width="0.03" stroke="#000000" fill="none"/>
<path d="M15.89296875 18.59136684572453L15.371484375 18.892445990008962L15.162890625 18.77201433229519" stroke-width="0.03" stroke="#000000" fill="none"/>
<path d="M15.371484375 18.892445990008962L15.371484375 19.01287764772274" stroke-width="0.03" stroke="#000000" fill="none"/>
<path d="M15.580078125 18.531151016867643L15.162890625 18.290287701440096" stroke-width="0.03" stroke="#000000" fill="none"/>
<path d="M15.162890625 18.16985604372632L14.954296875 18.290287701440096L14.954296875 18.531151016867643" stroke-width="0.03" stroke="#000000" fill="none"/>
<path d="M14.85 18.470935188010756L14.85 18.23007187258321L14.745703124999999 18.290287701440096L14.745703124999999 18.531151016867643" stroke-width="0.03" stroke="#000000" fill="none"/>
<path d="M14.745703124999999 18.290287701440096L14.537109375 18.16985604372632L14.64140625 18.109640214869437L14.537109375 18.049424386012547" stroke-width="0.03" stroke="#000000" fill="none"/>
<path d="M14.537109375 18.290287701440096L14.119921875 18.531151016867643" stroke-width="0.03" stroke="#000000" fill="none"/>
<path d="M14.015625 18.470935188010756L13.80703125 18.59136684572453L13.80703125 18.711798503438303L14.328515625 19.01287764772274L14.537109375 18.892445990008962L14.537109375 18.77201433229519L14.015625 18.470935188010756" stroke-width="0.03" stroke="#000000" fill="none"/>
<path d="M13.80703125 18.59136684572453L14.328515625 18.892445990008962L14.537109375 18.77201433229519" stroke-width="0.03" stroke="#000000" fill="none"/>
<path d="M14.328515625 18.892445990008962L14.328515625 19.01287764772274" stroke-width="0.03" stroke="#000000" fill="none"/>
<path d="M13.80703125 18.711798503438303L13.598437500000001 18.832230161152076" stroke-width="0.03" stroke="#000000" fill="none"/>
<path d="M12.7640625 18.95266181886585L12.7640625 19.31395679200717" stroke-width="0.03" stroke="#000000" fill="none"/>
<path d="M11.72109375 18.711798503438303L11.72109375 18.350503530296983" stroke-width="0.03" stroke="#000000" fill="none"/>
<path d="M11.303906249999999 19.073093476579622L10.991015625000001 19.253740963150285L10.991015625000001 19.615035936291605" stroke-width="0.03" stroke="#000000" fill="none"/>
<path d="M11.303906249999999 19.434388449720945L11.303906249999999 19.073093476579622L14.015625 20.63870502685868" stroke-width="0.03" stroke="#000000" fill="none"/>
<path d="M14.119921875 20.57848919800179L14.119921875 20.458057540288017" stroke-width="0.03" stroke="#000000" fill="none"/>
<path d="M14.537109375 20.819352513429337L14.64140625 20.879568342286227" stroke-width="0.03" stroke="#000000" fill="none"/>
<path d="M14.85 21L14.85 20.03654673828981" stroke-width="0.03" stroke="#000000" fill="none"/>
<path d="M14.85 21.240863315427546L14.85 21.36129497314132" stroke-width="0.03" stroke="#000000" fill="none"/>
<path d="M14.954296875 18.290287701440096L14.85 18.23007187258321" stroke-width="0.03" stroke="#000000" fill="none"/>
<path d="M14.85 17.989208557155663L14.85 17.62791358401434" stroke-width="0.03" stroke="#000000" fill="none"/>
<path d="M14.85 17.146186953159244L15.162890625 16.965539466588588L14.85 16.784891980017925L14.537109375 16.965539466588588L14.85 17.146186953159244L14.85 16.784891980017925" stroke-width="0.03" stroke="#000000" fill="none"/>
<path d="M15.162890625 18.049424386012547L15.05859375 18.109640214869437L15.162890625 18.16985604372632" stroke-width="0.03" stroke="#000000" fill="none"/>
<path d="M10.991015625000001 19.253740963150285L8.279296875 17.688129412871227L8.279296875 17.567697755157454" stroke-width="0.03" stroke="#000000" fill="none"/>
<path d="M8.279296875 17.688129412871227L8.696484375 17.44726609744368" stroke-width="0.03" stroke="#000000" fill="none"/>
<path d="M8.5921875 17.387050268586794L4.524609375000001 15.038632943168212L3.898828125 15.399927916309531L4.3160156249999995 15.640791231737078" stroke-width="0.03" stroke="#000000" fill="none"/>
<path d="M4.524609375000001 15.038632943168212L4.524609375000001 14.31604299688557L4.941796875 14.556906312313117" stroke-width="0.03" stroke="#000000" fill="none"/>
<path d="M6.193359375 13.95474802374425L6.714843749999999 14.255827168028683" stroke-width="0.03" stroke="#000000" fill="none"/>
<path d="M14.64140625 11.72676235603944L14.85 11.606330698325666L15.05859375 11.72676235603944" stroke-width="0.03" stroke="#000000" fill="none"/>
<path d="M14.85 11.847194013753214L14.85 11.606330698325666" stroke-width="0.03" stroke="#000000" fill="none"/>
<path d="M14.85 9.438560859477743L14.85 8.354675940053781" stroke-width="0.03" stroke="#000000" fill="none"/>
<path d="M14.537109375 9.13748171519331L14.537109375 9.257913372907083" stroke-width="0.03" stroke="#000000" fill="none"/>
<path d="M15.162890625 9.13748171519331L15.267187499999999 9.197697544050197" stroke-width="0.03" stroke="#000000" fill="none"/>
<path d="M9.237499999999999 2.533333333333333L1.5 2.533333333333333" stroke-width="0.03" stroke="#000000" fill="none"/>
<path d="M2.1166666666666667 2.2291666666666665L2.1166666666666667 1.8208333333333333" stroke-width="0.03" stroke="#000000" fill="none"/>
<path d="M2.0875 1.6166666666666667L2.1166666666666667 1.6458333333333333L2.145833333333333 1.6166666666666667L2.1166666666666667 1.5875L2.0875 1.6166666666666667" stroke-width="0.03" stroke="#000000" fill="none"/>
<path d="M2.3208333333333333 2.1416666666666666L2.35 2.2L2.4375 2.2291666666666665L2.525 2.2291666666666665L2.6125 2.2L2.6416666666666666 2.1416666666666666L2.6416666666666666 2.1125L2.6125 2.0541666666666667L2.5541666666666667 2.025L2.408333333333333 1.9958333333333333L2.35 1.9666666666666666L2.3208333333333333 1.9083333333333332L2.35 1.85L2.4375 1.8208333333333333L2.525 1.8208333333333333L2.6125 1.85L2.6416666666666666 1.9083333333333332" stroke-width="0.03" stroke="#000000" fill="none"/>
<path d="M2.9625 1.8208333333333333L2.904166666666667 1.85L2.845833333333333 1.9083333333333332L2.8166666666666664 1.9958333333333333L2.8166666666666664 2.0541666666666667L2.845833333333333 2.1416666666666666L2.904166666666667 2.2L2.9625 2.2291666666666665L3.05 2.2291666666666665L3.1083333333333334 2.2L3.1666666666666665 2.1416666666666666L3.1958333333333333 2.0541666666666667L3.1958333333333333 1.9958333333333333L3.1666666666666665 1.9083333333333332L3.1083333333333334 1.85L3.05 1.8208333333333333L2.9625 1.8208333333333333" stroke-width="0.03" stroke="#000000" fill="none"/>
<path d="M3.283333333333333 2.2874999999999996L3.75 2.2874999999999996" stroke-width="0.03" stroke="#000000" fill="none"/>
<path d="M3.8375 2.1416666666666666L3.8666666666666663 2.2L3.9541666666666666 2.2291666666666665L4.041666666666666 2.2291666666666665L4.129166666666666 2.2L4.158333333333333 2.1416666666666666L4.158333333333333 2.1125L4.129166666666666 2.0541666666666667L4.070833333333333 2.025L3.925 1.9958333333333333L3.8666666666666663 1.9666666666666666L3.8375 1.9083333333333332L3.8666666666666663 1.85L3.9541666666666666 1.8208333333333333L4.041666666666666 1.8208333333333333L4.129166666666666 1.85L4.158333333333333 1.9083333333333332" stroke-width="0.03" stroke="#000000" fill="none"/>
<path d="M4.3625 1.9375L4.449999999999999 1.85L4.508333333333333 1.8208333333333333L4.595833333333333 1.8208333333333333L4.654166666666667 1.85L4.683333333333334 1.9375L4.683333333333334 2.2291666666666665" stroke-width="0.03" stroke="#000000" fill="none"/>
<path d="M4.3625 2.2291666666666665L4.3625 1.8208333333333333" stroke-width="0.03" stroke="#000000" fill="none"/>
<path d="M5.033333333333333 1.8208333333333333L4.975 1.85L4.916666666666666 1.9083333333333332L4.887499999999999 1.9958333333333333L4.887499999999999 2.0541666666666667L4.916666666666666 2.1416666666666666L4.975 2.2L5.033333333333333 2.2291666666666665L5.120833333333334 2.2291666666666665L5.179166666666666 2.2L5.2375 2.1416666666666666L5.266666666666666 2.0541666666666667L5.266666666666666 1.9958333333333333L5.2375 1.9083333333333332L5.179166666666666 1.85L5.120833333333334 1.8208333333333333L5.033333333333333 1.8208333333333333" stroke-width="0.03" stroke="#000000" fill="none"/>
<path d="M5.441666666666666 1.8208333333333333L5.558333333333334 2.2291666666666665L5.675 1.8208333333333333L5.791666666666666 2.2291666666666665L5.908333333333333 1.8208333333333333" stroke-width="0.03" stroke="#000000" fill="none"/>
<path d="M6.054166666666666 1.8208333333333333L6.258333333333333 1.8208333333333333" stroke-width="0.03" stroke="#000000" fill="none"/>
<path d="M6.2875 1.6166666666666667L6.229166666666666 1.6166666666666667L6.1708333333333325 1.6458333333333333L6.141666666666667 1.7333333333333334L6.141666666666667 2.2291666666666665" stroke-width="0.03" stroke="#000000" fill="none"/>
<path d="M6.4624999999999995 2.2291666666666665L6.4624999999999995 1.6166666666666667" stroke-width="0.03" stroke="#000000" fill="none"/>
<path d="M7.016666666666666 1.8208333333333333L7.016666666666666 2.2291666666666665" stroke-width="0.03" stroke="#000000" fill="none"/>
<path d="M7.016666666666666 2.1416666666666666L6.958333333333333 2.2L6.8999999999999995 2.2291666666666665L6.812499999999999 2.2291666666666665L6.754166666666666 2.2L6.695833333333333 2.1416666666666666L6.666666666666666 2.0541666666666667L6.666666666666666 1.9958333333333333L6.695833333333333 1.9083333333333332L6.754166666666666 1.85L6.812499999999999 1.8208333333333333L6.8999999999999995 1.8208333333333333L6.958333333333333 1.85L7.016666666666666 1.9083333333333332" stroke-width="0.03" stroke="#000000" fill="none"/>
<path d="M7.249999999999999 2.1125L7.541666666666666 1.8208333333333333" stroke-width="0.03" stroke="#000000" fill="none"/>
<path d="M7.366666666666666 1.9958333333333333L7.570833333333333 2.2291666666666665" stroke-width="0.03" stroke="#000000" fill="none"/>
<path d="M7.716666666666666 1.9958333333333333L8.066666666666666 1.9958333333333333L8.066666666666666 1.9375L8.0375 1.8791666666666667L8.008333333333333 1.85L7.949999999999999 1.8208333333333333L7.8625 1.8208333333333333L7.804166666666666 1.85L7.745833333333333 1.9083333333333332L7.716666666666666 1.9958333333333333L7.716666666666666 2.0541666666666667L7.745833333333333 2.1416666666666666L7.804166666666666 2.2L7.8625 2.2291666666666665L7.949999999999999 2.2291666666666665L8.008333333333333 2.2L8.066666666666666 2.1416666666666666" stroke-width="0.03" stroke="#000000" fill="none"/>
<path d="M8.475 2.2291666666666665L8.475 1.6166666666666667L8.3875 1.7041666666666666L8.329166666666666 1.7333333333333334" stroke-width="0.03" stroke="#000000" fill="none"/>
<path d="M7.249999999999999 1.6166666666666667L7.249999999999999 2.2291666666666665" stroke-width="0.03" stroke="#000000" fill="none"/>
<path d="M5.316782406291102 3.077541264041642L5.352834388968179 3.0595152727031034L5.406912362983795 3.0054372986874878L5.406912362983795 3.383983116796798" stroke-width="0.03" stroke="#000000" fill="none"/>
<path d="M5.172574475582794 3.257801177427028L4.902184605504715 3.257801177427028L5.0824445188901 3.0054372986874878L5.0824445188901 3.383983116796798" stroke-width="0.03" stroke="#000000" fill="none"/>
<path d="M4.541664778733942 3.3118791514426436L4.559690770072481 3.3479311341197207L4.57771676141102 3.3659571254582596L4.631794735426635 3.383983116796798L4.6858727094422505 3.383983116796798L4.739950683457867 3.3659571254582596L4.776002666134945 3.3299051427811825L4.794028657473483 3.2758271687655665L4.794028657473483 3.2397751860884894L4.776002666134945 3.1856972120728733L4.757976674796406 3.167671220734335L4.7219246921193285 3.149645229395796L4.667846718103712 3.149645229395796L4.776002666134945 3.0054372986874878L4.57771676141102 3.0054372986874878" stroke-width="0.03" stroke="#000000" fill="none"/>
<path d="M4.397456848025634 3.0054372986874878L4.217196934640247 3.0054372986874878L4.199170943301709 3.167671220734335L4.217196934640247 3.149645229395796L4.2712749086558635 3.1316192380572576L4.3253528826714795 3.1316192380572576L4.379430856687095 3.149645229395796L4.415482839364172 3.1856972120728733L4.433508830702711 3.2397751860884894L4.433508830702711 3.2758271687655665L4.415482839364172 3.3299051427811825L4.379430856687095 3.3659571254582596L4.3253528826714795 3.383983116796798L4.2712749086558635 3.383983116796798L4.217196934640247 3.3659571254582596L4.199170943301709 3.3479311341197207L4.18114495196317 3.3118791514426436" stroke-width="0.03" stroke="#000000" fill="none"/>
<path d="M3.8206251251923984 3.3118791514426436L3.838651116530937 3.3479311341197207L3.8566771078694755 3.3659571254582596L3.9107550818850916 3.383983116796798L3.9648330559007072 3.383983116796798L4.018911029916323 3.3659571254582596L4.0549630125934 3.3299051427811825L4.072989003931939 3.2758271687655665L4.072989003931939 3.2397751860884894L4.0549630125934 3.1856972120728733L4.036937021254861 3.167671220734335L4.000885038577785 3.149645229395796L3.9468070645621687 3.149645229395796L4.0549630125934 3.0054372986874878L3.8566771078694755 3.0054372986874878" stroke-width="0.03" stroke="#000000" fill="none"/>
<path d="M3.6764171944840895 3.0054372986874878L3.4961572810987036 3.0054372986874878L3.478131289760165 3.167671220734335L3.4961572810987036 3.149645229395796L3.5502352551143197 3.1316192380572576L3.604313229129935 3.1316192380572576L3.658391203145551 3.149645229395796L3.694443185822628 3.1856972120728733L3.712469177161167 3.2397751860884894L3.712469177161167 3.2758271687655665L3.694443185822628 3.3299051427811825L3.658391203145551 3.3659571254582596L3.604313229129935 3.383983116796798L3.5502352551143197 3.383983116796798L3.4961572810987036 3.3659571254582596L3.478131289760165 3.3479311341197207L3.4601052984216265 3.3118791514426436" stroke-width="0.03" stroke="#000000" fill="none"/>
<path d="M3.207741419682086 3.0054372986874878L3.1536634456664703 3.023463290026026L3.117611462989393 3.077541264041642L3.0995854716508546 3.167671220734335L3.0995854716508546 3.221749194749951L3.117611462989393 3.3118791514426436L3.1536634456664703 3.3659571254582596L3.207741419682086 3.383983116796798L3.243793402359163 3.383983116796798L3.297871376374779 3.3659571254582596L3.333923359051856 3.3118791514426436L3.3519493503903948 3.221749194749951L3.3519493503903948 3.167671220734335L3.333923359051856 3.077541264041642L3.297871376374779 3.023463290026026L3.243793402359163 3.0054372986874878L3.207741419682086 3.0054372986874878" stroke-width="0.03" stroke="#000000" fill="none"/>
<path d="M2.7390656448800828 3.0054372986874878L2.7390656448800828 3.383983116796798L2.8652475842498526 3.383983116796798L2.9193255582654682 3.3659571254582596L2.955377540942546 3.3299051427811825L2.9734035322810843 3.293853160104105L2.991429523619623 3.2397751860884894L2.991429523619623 3.149645229395796L2.9734035322810843 3.0955672553801805L2.955377540942546 3.0595152727031034L2.9193255582654682 3.023463290026026L2.8652475842498526 3.0054372986874878L2.7390656448800828 3.0054372986874878" stroke-width="0.03" stroke="#000000" fill="none"/>
<path d="M2.6128837055103125 3.1316192380572576L2.414597800786388 3.383983116796798" stroke-width="0.03" stroke="#000000" fill="none"/>
<path d="M2.6128837055103125 3.383983116796798L2.414597800786388 3.1316192380572576" stroke-width="0.03" stroke="#000000" fill="none"/>
<path d="M2.1622339220468474 3.0054372986874878L2.1081559480312317 3.023463290026026L2.072103965354154 3.077541264041642L2.0540779740156156 3.167671220734335L2.0540779740156156 3.221749194749951L2.072103965354154 3.3118791514426436L2.1081559480312317 3.3659571254582596L2.1622339220468474 3.383983116796798L2.1982859047239245 3.383983116796798L2.2523638787395406 3.3659571254582596L2.2884158614166177 3.3118791514426436L2.3064418527551562 3.221749194749951L2.3064418527551562 3.167671220734335L2.2884158614166177 3.077541264041642L2.2523638787395406 3.023463290026026L2.1982859047239245 3.0054372986874878L2.1622339220468474 3.0054372986874878" stroke-width="0.03" stroke="#000000" fill="none"/>
<path d="M21.420703125 17.567697755157454L21.420703125 17.688129412871227" stroke-width="0.03" stroke="#000000" fill="none"/>
<path d="M24.758203125 14.556906312313117L25.175390624999995 14.31604299688557L25.175390624999995 15.038632943168212" stroke-width="0.03" stroke="#000000" fill="none"/>
<path d="M25.383984374999997 14.436474654599342L25.383984374999997 14.31604299688557" stroke-width="0.03" stroke="#000000" fill="none"/>
<path d="M25.801171875 15.159064600881985L25.90546875 15.21928042973887" stroke-width="0.03" stroke="#000000" fill="none"/>
<path d="M26.73984375 12.690215617749628L26.844140625 12.629999788892741" stroke-width="0.03" stroke="#000000" fill="none"/>
<path d="M27.678515625 19.13330930543651L27.678515625 22.98712235227726" stroke-width="0.03" stroke="#000000" fill="none"/>
<path d="M27.052734375 23.95057561398745L26.844140625 24.071007271701223L26.844140625 25.27532384883896L26.53125 25.0946763622683" stroke-width="0.03" stroke="#000000" fill="none"/>
<path d="M26.844140625 25.27532384883896L27.052734375 25.154892191125185L27.052734375 23.95057561398745L26.53125 23.649496469703017" stroke-width="0.03" stroke="#000000" fill="none"/>
<path d="M26.53125 23.890359785130563L26.844140625 24.071007271701223" stroke-width="0.03" stroke="#000000" fill="none"/>
<path d="M27.052734375 24.071007271701223L27.15703125 24.13122310055811L27.15703125 27.26244620111622L26.9484375 27.382877858829996L26.53125 27.142014543402446" stroke-width="0.03" stroke="#000000" fill="none"/>
<path d="M26.9484375 27.382877858829996L26.9484375 25.215108019982072" stroke-width="0.03" stroke="#000000" fill="none"/>
<path d="M27.052734375 24.191438929414996L27.15703125 24.13122310055811" stroke-width="0.03" stroke="#000000" fill="none"/>
<path d="M25.801171875 23.468848983132357L25.592578125 23.58928064084613L25.383984374999997 23.468848983132357" stroke-width="0.03" stroke="#000000" fill="none"/>
<path d="M25.383984374999997 23.348417325418584L25.592578125 23.468848983132357L25.801171875 23.348417325418584" stroke-width="0.03" stroke="#000000" fill="none"/>
<path d="M25.801171875 23.468848983132357L25.801171875 27.322662029973106L22.463671875 29.249568553393484L22.463671875 29.008705237965938L22.255078124999997 28.888273580252164" stroke-width="0.03" stroke="#000000" fill="none"/>
<path d="M22.150781249999998 28.94848940910905L22.359375 29.068921066822824L22.463671875 29.008705237965938" stroke-width="0.03" stroke="#000000" fill="none"/>
<path d="M22.359375 28.94848940910905L24.966796875000004 27.443093687686883L24.966796875000004 27.202230372259333L24.8625 27.142014543402446" stroke-width="0.03" stroke="#000000" fill="none"/>
<path d="M24.8625 27.26244620111622L24.966796875000004 27.202230372259333" stroke-width="0.03" stroke="#000000" fill="none"/>
<path d="M24.8625 27.26244620111622L24.8625 26.780719570261127L25.279687499999998 26.53985625483358L25.279687499999998 26.660287912547354L25.175390624999995 26.600072083690467" stroke-width="0.03" stroke="#000000" fill="none"/>
<path d="M25.279687499999998 26.660287912547354L25.48828125 26.53985625483358L25.48828125 23.529064811989244" stroke-width="0.03" stroke="#000000" fill="none"/>
<path d="M25.592578125 23.468848983132357L25.592578125 23.58928064084613" stroke-width="0.03" stroke="#000000" fill="none"/>
<path d="M25.383984374999997 23.227985667704807L25.48828125 23.167769838847924" stroke-width="0.03" stroke="#000000" fill="none"/>
<path d="M25.383984374999997 22.98712235227726L25.48828125 22.926906523420374" stroke-width="0.03" stroke="#000000" fill="none"/>
<path d="M25.383984374999997 22.746259036849715L25.48828125 22.686043207992828L25.383984374999997 22.62582737913594" stroke-width="0.03" stroke="#000000" fill="none"/>
<path d="M24.4453125 24.612949731413206L24.4453125 26.17856128169226L24.132421875000002 26.359208768262917L24.132421875000002 26.72050374140424L22.7765625 27.50330951654377" stroke-width="0.03" stroke="#000000" fill="none"/>
<path d="M22.359375 29.068921066822824L22.359375 29.30978438225037L19.647656249999997 30.87539593252943L19.647656249999997 31.71841753652584" stroke-width="0.03" stroke="#000000" fill="none"/>
<path d="M19.543359374999998 31.658201707668955L18.708984375 32.139928338524044" stroke-width="0.03" stroke="#000000" fill="none"/>
<path d="M18.917578125000002 32.621654969379136L19.647656249999997 33.043165771377346L19.647656249999997 33.52489240223244" stroke-width="0.03" stroke="#000000" fill="none"/>
<path d="M19.647656249999997 33.043165771377346L22.98515625 31.11625924795697" stroke-width="0.03" stroke="#000000" fill="none"/>
<path d="M23.506640625 30.0925901573899L24.549609375 29.490431868821034L24.549609375 29.249568553393484L24.23671875 29.068921066822824" stroke-width="0.03" stroke="#000000" fill="none"/>
<path d="M24.549609375 29.249568553393484L23.506640625 29.851726841962353L23.506640625 30.0925901573899L22.98515625 29.791511013105463" stroke-width="0.03" stroke="#000000" fill="none"/>
<path d="M23.193749999999998 29.67107935539169L23.506640625 29.851726841962353" stroke-width="0.03" stroke="#000000" fill="none"/>
<path d="M23.610937500000002 30.032374328533013L23.715234375 30.0925901573899L26.426953124999997 28.526978607110845L26.426953124999997 28.286115291683295L26.009765625 28.04525197625575" stroke-width="0.03" stroke="#000000" fill="none"/>
<path d="M26.426953124999997 28.286115291683295L24.549609375 29.37000021110726" stroke-width="0.03" stroke="#000000" fill="none"/>
<path d="M23.715234375 29.972158499676127L23.715234375 30.0925901573899" stroke-width="0.03" stroke="#000000" fill="none"/>
<path d="M22.359375 29.30978438225037L22.046484375000002 29.12913689567971L22.046484375000002 29.008705237965938" stroke-width="0.03" stroke="#000000" fill="none"/>
<path d="M22.046484375000002 29.12913689567971L19.334765625 30.694748445958766L19.334765625 31.41733839224141" stroke-width="0.03" stroke="#000000" fill="none"/>
<path d="M19.647656249999997 30.87539593252943L19.334765625 30.694748445958766" stroke-width="0.03" stroke="#000000" fill="none"/>
<path d="M21.525000000000002 29.30978438225037L21.629296875 29.37000021110726L21.629296875 29.249568553393484" stroke-width="0.03" stroke="#000000" fill="none"/>
<path d="M21.837890625 29.249568553393484L21.837890625 29.12913689567971" stroke-width="0.03" stroke="#000000" fill="none"/>
<path d="M22.7765625 25.817266308550938L22.98515625 25.696834650837165L22.98515625 25.45597133540962" stroke-width="0.03" stroke="#000000" fill="none"/>
<path d="M22.98515625 25.696834650837165L22.7765625 25.576402993123395" stroke-width="0.03" stroke="#000000" fill="none"/>
<path d="M24.8625 26.780719570261127L25.801171875 27.322662029973106" stroke-width="0.03" stroke="#000000" fill="none"/>
<path d="M25.801171875 20.21719422486047L25.48828125 20.03654673828981" stroke-width="0.03" stroke="#000000" fill="none"/>
</svg>
