<?xml version="1.0" standalone="no"?>
<svg width="29.7cm" height="42cm" version="1.1" xmlns="http://www.w3.org/2000/svg" viewBox="0.0 0.0 29.700001 42.000001">
<path d="M4.4203125 13.653668879459815L4.524609375000001 13.593453050602928L4.733203124999998 13.713884708316701" stroke-width="0.03" stroke="#000000" fill="none"/>
<path d="M4.62890625 13.77410053717359L4.4203125 13.653668879459815L4.4203125 13.894532194887363" stroke-width="0.03" stroke="#000000" fill="none"/>
<path d="M4.4203125 14.255827168028683L4.4203125 14.49669048345623" stroke-width="0.03" stroke="#000000" fill="none"/>
<path d="M4.3160156249999995 14.556906312313117L4.8374999999999995 14.255827168028683L5.776171874999998 14.797769627740664L5.88046875 14.737553798883777L5.88046875 14.376258825742458L5.046093749999999 13.894532194887363" stroke-width="0.03" stroke="#000000" fill="none"/>
<path d="M4.941796875 13.95474802374425L5.776171874999998 14.436474654599342L5.88046875 14.376258825742458" stroke-width="0.03" stroke="#000000" fill="none"/>
<path d="M5.776171874999998 14.436474654599342L5.776171874999998 14.797769627740664" stroke-width="0.03" stroke="#000000" fill="none"/>
<path d="M5.254687500000001 14.014963852601136L5.984765624999999 13.593453050602928L7.027734374999999 14.195611339171796" stroke-width="0.03" stroke="#000000" fill="none"/>
<path d="M6.819140625 14.31604299688557L7.236328125 14.075179681458023L8.5921875 14.85798545659755" stroke-width="0.03" stroke="#000000" fill="none"/>
<path d="M8.38359375 14.978417114311325L10.991015625000001 13.473021392889155L11.408203125 13.713884708316701L11.408203125 14.436474654599342L11.825390624999999 14.67733797002689L14.85 12.931078933177174L14.85 11.847194013753214L17.874609375000002 13.593453050602928L20.690625 11.967625671466987L20.690625 12.208488986894533" stroke-width="0.03" stroke="#000000" fill="none"/>
<path d="M20.586328125 12.389136473465193L21.420703125 11.9074098426101L21.31640625 11.847194013753214L20.482031250000002 12.328920644608306L20.482031250000002 13.292373906318495L20.586328125 13.352589735175382L21.420703125 12.87086310432029L21.420703125 11.9074098426101" stroke-width="0.03" stroke="#000000" fill="none"/>
<path d="M21.420703125 12.027841500323873L26.1140625 14.737553798883777L26.1140625 19.193525134293395L26.218359375 19.13330930543651L26.218359375 14.67733797002689L26.009765625 14.556906312313117L26.009765625 14.31604299688557L22.150781249999998 12.08805732918076L22.046484375000002 12.148273158037647L22.046484375000002 12.389136473465193" stroke-width="0.03" stroke="#000000" fill="none"/>
<path d="M22.046484375000002 12.148273158037647L25.90546875 14.376258825742458L25.90546875 19.795683422862265" stroke-width="0.03" stroke="#000000" fill="none"/>
<path d="M26.009765625 19.85589925171915L25.175390624999995 20.337625882574244L24.341015624999997 19.85589925171915L24.341015624999997 19.976330909432924L25.175390624999995 20.458057540288017L26.009765625 19.976330909432924L26.009765625 19.85589925171915L25.175390624999995 19.37417262086406L24.341015624999997 19.85589925171915" stroke-width="0.03" stroke="#000000" fill="none"/>
<path d="M24.4453125 20.03654673828981L24.132421875000002 20.21719422486047" stroke-width="0.03" stroke="#000000" fill="none"/>
<path d="M23.819531249999997 20.03654673828981L23.40234375 20.277410053717357L23.40234375 20.63870502685868" stroke-width="0.03" stroke="#000000" fill="none"/>
<path d="M23.298046874999997 20.698920855715564L23.610937500000002 20.518273369144907L24.23671875 20.879568342286227L24.653906250000002 20.63870502685868L24.653906250000002 20.518273369144907L23.819531249999997 20.03654673828981" stroke-width="0.03" stroke="#000000" fill="none"/>
<path d="M23.40234375 20.277410053717357L24.23671875 20.759136684572454L24.23671875 20.879568342286227" stroke-width="0.03" stroke="#000000" fill="none"/>
<path d="M24.23671875 20.759136684572454L24.653906250000002 20.518273369144907" stroke-width="0.03" stroke="#000000" fill="none"/>
<path d="M25.175390624999995 20.458057540288017L25.175390624999995 20.337625882574244" stroke-width="0.03" stroke="#000000" fill="none"/>
<path d="M25.383984374999997 20.337625882574244L25.592578125 20.458057540288017L25.592578125 26.72050374140424L25.175390624999995 26.96136705683179L25.175390624999995 27.443093687686883L19.751953125 30.574316788244992L19.543359374999998 30.45388513053122" stroke-width="0.03" stroke="#000000" fill="none"/>
<path d="M19.439062500000002 30.273237643960556L19.543359374999998 30.21302181510367L18.708984375 29.731295184248577L18.6046875 29.791511013105463L18.6046875 30.754964274815652L19.439062500000002 31.236690905670745L19.543359374999998 31.17647507681386L19.543359374999998 30.21302181510367" stroke-width="0.03" stroke="#000000" fill="none"/>
<path d="M19.439062500000002 30.273237643960556L19.439062500000002 31.236690905670745" stroke-width="0.03" stroke="#000000" fill="none"/>
<path d="M19.334765625 31.17647507681386L14.64140625 33.886187375373765L14.64140625 34.00661903308754L14.85 33.886187375373765L15.05859375 34.00661903308754L18.917578125000002 31.77863336538273L18.917578125000002 31.658201707668955L18.708984375 31.53777004995518" stroke-width="0.03" stroke="#000000" fill="none"/>
<path d="M18.917578125000002 31.658201707668955L15.05859375 33.886187375373765L15.05859375 34.00661903308754" stroke-width="0.03" stroke="#000000" fill="none"/>
<path d="M15.05859375 33.886187375373765L10.365234375 31.17647507681386" stroke-width="0.03" stroke="#000000" fill="none"/>
<path d="M10.260937499999999 31.236690905670745L11.095312499999999 30.754964274815652L11.095312499999999 29.791511013105463L10.991015625000001 29.731295184248577L10.156640625 30.21302181510367L10.156640625 31.17647507681386L10.260937499999999 31.236690905670745L10.260937499999999 30.273237643960556L10.156640625 30.21302181510367" stroke-width="0.03" stroke="#000000" fill="none"/>
<path d="M10.260937499999999 30.273237643960556L11.095312499999999 29.791511013105463" stroke-width="0.03" stroke="#000000" fill="none"/>
<path d="M10.88671875 29.791511013105463L10.88671875 29.430216039964147" stroke-width="0.03" stroke="#000000" fill="none"/>
<path d="M11.199609375 29.249568553393484L10.365234375 29.731295184248577L10.260937499999999 29.67107935539169L10.260937499999999 29.189352724536597L10.88671875 28.828057751395274L10.88671875 28.46676277825396" stroke-width="0.03" stroke="#000000" fill="none"/>
<path d="M10.88671875 28.58719443596773L11.199609375 28.767841922538388L11.199609375 29.249568553393484" stroke-width="0.03" stroke="#000000" fill="none"/>
<path d="M11.199609375 28.767841922538388L10.365234375 29.249568553393484L10.260937499999999 29.189352724536597" stroke-width="0.03" stroke="#000000" fill="none"/>
<path d="M10.365234375 29.249568553393484L10.365234375 29.731295184248577" stroke-width="0.03" stroke="#000000" fill="none"/>
<path d="M10.156640625 30.45388513053122L9.948046875 30.574316788244992L4.524609375000001 27.443093687686883L4.524609375000001 26.96136705683179L4.107421875 26.72050374140424L4.107421875 20.458057540288017L4.3160156249999995 20.337625882574244" stroke-width="0.03" stroke="#000000" fill="none"/>
<path d="M4.524609375000001 20.337625882574244L5.3589843749999995 19.85589925171915L5.3589843749999995 19.976330909432924L4.524609375000001 20.458057540288017L3.6902343750000006 19.976330909432924L3.6902343750000006 19.85589925171915L4.524609375000001 19.37417262086406L5.3589843749999995 19.85589925171915" stroke-width="0.03" stroke="#000000" fill="none"/>
<path d="M5.254687500000001 20.03654673828981L5.567578125 20.21719422486047" stroke-width="0.03" stroke="#000000" fill="none"/>
<path d="M5.88046875 20.03654673828981L5.046093749999999 20.518273369144907L5.046093749999999 20.63870502685868L5.46328125 20.879568342286227L6.089062499999999 20.518273369144907L6.4019531249999995 20.698920855715564" stroke-width="0.03" stroke="#000000" fill="none"/>
<path d="M6.297656249999999 20.63870502685868L6.297656249999999 20.277410053717357L5.88046875 20.03654673828981" stroke-width="0.03" stroke="#000000" fill="none"/>
<path d="M6.297656249999999 20.277410053717357L5.46328125 20.759136684572454L5.46328125 20.879568342286227" stroke-width="0.03" stroke="#000000" fill="none"/>
<path d="M5.46328125 20.759136684572454L5.046093749999999 20.518273369144907" stroke-width="0.03" stroke="#000000" fill="none"/>
<path d="M4.524609375000001 20.458057540288017L4.524609375000001 20.337625882574244L3.6902343750000006 19.85589925171915" stroke-width="0.03" stroke="#000000" fill="none"/>
<path d="M3.7945312499999995 19.795683422862265L3.7945312499999995 14.376258825742458L3.6902343750000006 14.31604299688557L7.5492187500000005 12.08805732918076L7.653515625 12.148273158037647L7.653515625 12.389136473465193" stroke-width="0.03" stroke="#000000" fill="none"/>
<path d="M7.653515625 12.148273158037647L3.7945312499999995 14.376258825742458" stroke-width="0.03" stroke="#000000" fill="none"/>
<path d="M3.6902343750000006 14.31604299688557L3.6902343750000006 14.556906312313117L3.7945312499999995 14.617122141170004" stroke-width="0.03" stroke="#000000" fill="none"/>
<path d="M3.6902343750000006 14.556906312313117L3.481640624999999 14.67733797002689L3.481640624999999 19.13330930543651L3.5859375 19.193525134293395L3.7945312499999995 19.073093476579622" stroke-width="0.03" stroke="#000000" fill="none"/>
<path d="M3.5859375 19.193525134293395L3.5859375 14.737553798883777L8.279296875 12.027841500323873" stroke-width="0.03" stroke="#000000" fill="none"/>
<path d="M8.279296875 11.9074098426101L8.38359375 11.847194013753214L9.21796875 12.328920644608306L9.21796875 13.292373906318495L9.113671875 13.352589735175382L8.279296875 12.87086310432029L8.279296875 11.9074098426101L9.113671875 12.389136473465193L9.21796875 12.328920644608306" stroke-width="0.03" stroke="#000000" fill="none"/>
<path d="M9.113671875 12.389136473465193L9.113671875 13.352589735175382" stroke-width="0.03" stroke="#000000" fill="none"/>
<path d="M9.21796875 13.171942248604722L9.530859375 13.352589735175382" stroke-width="0.03" stroke="#000000" fill="none"/>
<path d="M9.530859375 13.713884708316701L9.530859375 12.750431446606514L9.63515625 12.690215617749628L10.05234375 12.931078933177174L10.05234375 13.653668879459815L10.365234375 13.834316366030475" stroke-width="0.03" stroke="#000000" fill="none"/>
<path d="M10.260937499999999 13.77410053717359L9.948046875 13.95474802374425L9.530859375 13.713884708316701" stroke-width="0.03" stroke="#000000" fill="none"/>
<path d="M9.948046875 13.95474802374425L9.948046875 12.991294762034062L10.05234375 12.931078933177174" stroke-width="0.03" stroke="#000000" fill="none"/>
<path d="M9.948046875 12.991294762034062L9.530859375 12.750431446606514" stroke-width="0.03" stroke="#000000" fill="none"/>
<path d="M9.009374999999999 12.208488986894533L9.009374999999999 11.967625671466987L14.4328125 8.836402570908875L14.85 9.077265886336422L15.267187499999999 8.836402570908875L20.690625 11.967625671466987" stroke-width="0.03" stroke="#000000" fill="none"/>
<path d="M20.482031250000002 12.328920644608306L20.586328125 12.389136473465193L20.586328125 13.352589735175382" stroke-width="0.03" stroke="#000000" fill="none"/>
<path d="M20.482031250000002 13.171942248604722L20.169140624999997 13.352589735175382" stroke-width="0.03" stroke="#000000" fill="none"/>
<path d="M20.169140624999997 13.713884708316701L19.751953125 13.95474802374425L19.439062500000002 13.77410053717359" stroke-width="0.03" stroke="#000000" fill="none"/>
<path d="M19.334765625 13.834316366030475L19.647656249999997 13.653668879459815L19.647656249999997 12.931078933177174L20.064843749999998 12.690215617749628L20.169140624999997 12.750431446606514L20.169140624999997 13.713884708316701" stroke-width="0.03" stroke="#000000" fill="none"/>
<path d="M19.751953125 13.95474802374425L19.751953125 12.991294762034062L20.169140624999997 12.750431446606514" stroke-width="0.03" stroke="#000000" fill="none"/>
<path d="M19.751953125 12.991294762034062L19.647656249999997 12.931078933177174" stroke-width="0.03" stroke="#000000" fill="none"/>
<path d="M18.708984375 13.473021392889155L18.291796875 13.713884708316701L18.291796875 14.436474654599342L17.874609375000002 14.67733797002689L14.85 12.931078933177174" stroke-width="0.03" stroke="#000000" fill="none"/>
<path d="M14.537109375 13.111726419747836L14.537109375 13.232158077461609" stroke-width="0.03" stroke="#000000" fill="none"/>
<path d="M14.4328125 13.171942248604722L14.85 13.412805564032269L15.267187499999999 13.171942248604722" stroke-width="0.03" stroke="#000000" fill="none"/>
<path d="M15.162890625 13.111726419747836L15.162890625 13.232158077461609" stroke-width="0.03" stroke="#000000" fill="none"/>
<path d="M15.788671874999999 13.473021392889155L14.85 14.014963852601136L13.911328125 13.473021392889155" stroke-width="0.03" stroke="#000000" fill="none"/>
<path d="M14.745703124999999 15.038632943168212L11.408203125 16.965539466588588L11.408203125 19.01287764772274L9.63515625 20.03654673828981L9.63515625 23.890359785130563L9.739453124999999 23.95057561398745L9.739453124999999 24.071007271701223L13.076953125000001 25.9979137951216L14.85 24.974244704554525L14.85 24.73338138912698L16.623046875 25.75705047969405L19.85625 23.890359785130563L19.85625 20.156978396003588L20.064843749999998 20.03654673828981L18.291796875 19.01287764772274L18.083203125 19.13330930543651L18.083203125 17.08597112430236L18.291796875 16.965539466588588L14.954296875 15.038632943168212L14.85 15.098848772025098L14.745703124999999 15.038632943168212" stroke-width="0.03" stroke="#000000" fill="none"/>
<path d="M14.85 15.21928042973887L11.616796874999999 17.08597112430236L11.616796874999999 19.13330930543651L9.84375 20.156978396003588L9.84375 23.890359785130563L13.076953125000001 25.75705047969405L14.85 24.73338138912698" stroke-width="0.03" stroke="#000000" fill="none"/>
<path d="M14.85 24.974244704554525L16.623046875 25.9979137951216L19.960546875000002 24.071007271701223L19.960546875000002 23.95057561398745L20.064843749999998 23.890359785130563L20.064843749999998 20.03654673828981" stroke-width="0.03" stroke="#000000" fill="none"/>
<path d="M19.85625 20.156978396003588L18.083203125 19.13330930543651" stroke-width="0.03" stroke="#000000" fill="none"/>
<path d="M18.291796875 19.01287764772274L18.291796875 16.965539466588588" stroke-width="0.03" stroke="#000000" fill="none"/>
<path d="M18.083203125 17.08597112430236L14.85 15.21928042973887L14.85 21L9.84375 23.890359785130563" stroke-width="0.03" stroke="#000000" fill="none"/>
<path d="M8.80078125 24.492518073699433L8.80078125 25.576402993123395" stroke-width="0.03" stroke="#000000" fill="none"/>
<path d="M8.279296875 25.27532384883896L8.279296875 24.793597217983862L7.862109374999999 24.55273390255632" stroke-width="0.03" stroke="#000000" fill="none"/>
<path d="M7.862109374999999 24.673165560270093L7.96640625 24.612949731413206" stroke-width="0.03" stroke="#000000" fill="none"/>
<path d="M7.862109374999999 25.034460533411412L6.9234374999999995 25.576402993123395L9.948046875 27.322662029973106L10.88671875 26.780719570261127L10.88671875 27.26244620111622L10.260937499999999 27.623741174257542L10.260937499999999 28.105467805112635L12.868359374999999 29.610863526534803" stroke-width="0.03" stroke="#000000" fill="none"/>
<path d="M12.868359374999999 29.731295184248577L12.868359374999999 28.526978607110845L12.97265625 28.46676277825396L13.076953125000001 28.526978607110845L13.076953125000001 31.296906734527635L12.659765624999999 31.056043419100085L12.659765624999999 29.490431868821034" stroke-width="0.03" stroke="#000000" fill="none"/>
<path d="M12.868359374999999 29.731295184248577L12.97265625 29.791511013105463L13.076953125000001 29.731295184248577L14.328515625 30.45388513053122L14.85 30.152805986246786L15.371484375 30.45388513053122L16.623046875 29.731295184248577L16.72734375 29.791511013105463L16.831640625 29.731295184248577L16.831640625 28.526978607110845L16.72734375 28.46676277825396L16.623046875 28.526978607110845L16.623046875 31.296906734527635L17.040234375 31.056043419100085L17.040234375 29.490431868821034" stroke-width="0.03" stroke="#000000" fill="none"/>
<path d="M16.831640625 29.610863526534803L19.439062500000002 28.105467805112635L19.439062500000002 27.623741174257542L18.81328125 27.26244620111622L18.81328125 26.780719570261127L21.837890625 25.034460533411412L21.837890625 21.54194245971198L22.255078124999997 21.301079144284433L22.880859375 21.662374117425752L23.298046874999997 21.42151080199821L23.298046874999997 18.410719359153866" stroke-width="0.03" stroke="#000000" fill="none"/>
<path d="M23.40234375 18.350503530296983L22.359375 18.95266181886585L22.255078124999997 18.892445990008962L22.255078124999997 18.77201433229519L24.653906250000002 17.387050268586794L24.653906250000002 17.86877689944189L23.298046874999997 18.651582674581416" stroke-width="0.03" stroke="#000000" fill="none"/>
<path d="M23.40234375 18.350503530296983L23.40234375 18.23007187258321L23.298046874999997 18.16985604372632L23.298046874999997 16.72467615116104L22.7765625 16.423597006876605L22.7765625 15.82143871830774L21.525000000000002 15.098848772025098L21.525000000000002 14.978417114311325L21.420703125 14.918201285454437L20.377734375 15.520359574023306L20.377734375 15.640791231737078L20.482031250000002 15.701007060593964L22.880859375 14.31604299688557L22.880859375 14.67733797002689L21.837890625 15.279496258595758" stroke-width="0.03" stroke="#000000" fill="none"/>
<path d="M21.525000000000002 14.978417114311325L20.482031250000002 15.580575402880193L20.377734375 15.520359574023306" stroke-width="0.03" stroke="#000000" fill="none"/>
<path d="M20.482031250000002 15.580575402880193L20.482031250000002 15.701007060593964" stroke-width="0.03" stroke="#000000" fill="none"/>
<path d="M20.89921875 15.21928042973887L18.291796875 13.713884708316701" stroke-width="0.03" stroke="#000000" fill="none"/>
<path d="M17.874609375000002 13.593453050602928L17.874609375000002 14.67733797002689" stroke-width="0.03" stroke="#000000" fill="none"/>
<path d="M18.083203125 14.556906312313117L21.837890625 16.72467615116104L21.837890625 16.965539466588588L19.543359374999998 18.290287701440096L19.543359374999998 18.049424386012547L18.291796875 17.326834439729907" stroke-width="0.03" stroke="#000000" fill="none"/>
<path d="M17.14453125 17.62791358401434L17.040234375 17.688129412871227L17.040234375 18.651582674581416L17.14453125 18.59136684572453L17.14453125 17.62791358401434L16.72734375 17.387050268586794L16.623046875 17.44726609744368L16.623046875 18.410719359153866L17.040234375 18.651582674581416" stroke-width="0.03" stroke="#000000" fill="none"/>
<path d="M17.040234375 17.688129412871227L16.623046875 17.44726609744368" stroke-width="0.03" stroke="#000000" fill="none"/>
<path d="M19.543359374999998 18.049424386012547L21.837890625 16.72467615116104" stroke-width="0.03" stroke="#000000" fill="none"/>
<path d="M21.837890625 16.965539466588588L22.046484375000002 17.08597112430236L22.046484375000002 21.42151080199821" stroke-width="0.03" stroke="#000000" fill="none"/>
<path d="M21.837890625 21.54194245971198L22.7765625 22.08388491942396L25.592578125 20.458057540288017" stroke-width="0.03" stroke="#000000" fill="none"/>
<path d="M25.592578125 21.301079144284433L25.696875000000002 21.36129497314132L25.696875000000002 21.843021603996412" stroke-width="0.03" stroke="#000000" fill="none"/>
<path d="M25.592578125 21.903237432853302L26.322656249999998 21.481726630855093L26.322656249999998 17.62791358401434L26.218359375 17.567697755157454" stroke-width="0.03" stroke="#000000" fill="none"/>
<path d="M26.322656249999998 17.62791358401434L26.218359375 17.688129412871227" stroke-width="0.03" stroke="#000000" fill="none"/>
<path d="M25.90546875 17.86877689944189L25.801171875 17.928992728298773" stroke-width="0.03" stroke="#000000" fill="none"/>
<path d="M25.90546875 17.989208557155663L23.298046874999997 19.49460427857783" stroke-width="0.03" stroke="#000000" fill="none"/>
<path d="M22.880859375 18.651582674581416L22.880859375 21.662374117425752" stroke-width="0.03" stroke="#000000" fill="none"/>
<path d="M22.7765625 22.08388491942396L22.7765625 25.576402993123395L19.751953125 27.322662029973106L18.81328125 26.780719570261127" stroke-width="0.03" stroke="#000000" fill="none"/>
<path d="M18.81328125 27.021582885688677L15.05859375 29.189352724536597L14.85 29.068921066822824L14.64140625 29.189352724536597L10.88671875 27.021582885688677" stroke-width="0.03" stroke="#000000" fill="none"/>
<path d="M10.88671875 26.780719570261127L7.862109374999999 25.034460533411412L7.862109374999999 21.54194245971198L7.4449218749999995 21.301079144284433L6.819140625 21.662374117425752L6.4019531249999995 21.42151080199821L6.4019531249999995 18.410719359153866" stroke-width="0.03" stroke="#000000" fill="none"/>
<path d="M6.297656249999999 18.350503530296983L6.297656249999999 18.23007187258321L6.4019531249999995 18.16985604372632L6.4019531249999995 16.72467615116104L6.9234374999999995 16.423597006876605L6.9234374999999995 15.82143871830774L8.175 15.098848772025098L8.175 14.978417114311325L8.279296875 14.918201285454437L9.322265625 15.520359574023306L9.322265625 15.640791231737078L9.21796875 15.701007060593964L6.819140625 14.31604299688557L6.819140625 14.67733797002689L7.862109374999999 15.279496258595758" stroke-width="0.03" stroke="#000000" fill="none"/>
<path d="M8.175 14.978417114311325L9.21796875 15.580575402880193L9.21796875 15.701007060593964" stroke-width="0.03" stroke="#000000" fill="none"/>
<path d="M9.21796875 15.580575402880193L9.322265625 15.520359574023306" stroke-width="0.03" stroke="#000000" fill="none"/>
<path d="M8.80078125 15.21928042973887L11.408203125 13.713884708316701" stroke-width="0.03" stroke="#000000" fill="none"/>
<path d="M11.825390624999999 13.593453050602928L14.85 11.847194013753214" stroke-width="0.03" stroke="#000000" fill="none"/>
<path d="M16.831640625 9.739640003762176L17.248828125 9.49877668833463L17.353125 9.558992517191516L17.353125 10.04071914804661" stroke-width="0.03" stroke="#000000" fill="none"/>
<path d="M16.9359375 9.799855832619063L17.353125 9.558992517191516" stroke-width="0.03" stroke="#000000" fill="none"/>
<path d="M19.439062500000002 11.245035725184344L20.169140624999997 10.823524923186138L23.506640625 12.750431446606514L23.506640625 12.87086310432029" stroke-width="0.03" stroke="#000000" fill="none"/>
<path d="M23.40234375 12.8106472754634L23.506640625 12.750431446606514" stroke-width="0.03" stroke="#000000" fill="none"/>
<path d="M23.089453125000002 12.991294762034062L22.98515625 13.051510590890949" stroke-width="0.03" stroke="#000000" fill="none"/>
<path d="M22.98515625 12.931078933177174L20.377734375 14.436474654599342" stroke-width="0.03" stroke="#000000" fill="none"/>
<path d="M21.107812499999998 14.85798545659755L22.463671875 14.075179681458023L22.880859375 14.31604299688557" stroke-width="0.03" stroke="#000000" fill="none"/>
<path d="M22.672265625 14.195611339171796L23.715234375 13.593453050602928L24.4453125 14.014963852601136" stroke-width="0.03" stroke="#000000" fill="none"/>
<path d="M24.653906250000002 13.894532194887363L23.819531249999997 14.376258825742458L23.819531249999997 14.737553798883777L23.923828125000004 14.797769627740664L24.8625 14.255827168028683L25.383984374999997 14.556906312313117L25.383984374999997 14.918201285454437L22.359375 16.66446032230415L22.880859375 16.965539466588588L22.880859375 18.410719359153866" stroke-width="0.03" stroke="#000000" fill="none"/>
<path d="M23.40234375 18.23007187258321L22.359375 18.832230161152076L22.255078124999997 18.77201433229519" stroke-width="0.03" stroke="#000000" fill="none"/>
<path d="M22.359375 18.832230161152076L22.359375 18.95266181886585" stroke-width="0.03" stroke="#000000" fill="none"/>
<path d="M23.298046874999997 17.808561070585L24.341015624999997 17.206402782016134L24.653906250000002 17.387050268586794" stroke-width="0.03" stroke="#000000" fill="none"/>
<path d="M24.653906250000002 17.62791358401434L25.696875000000002 17.025755295445475L25.696875000000002 16.18273369144906" stroke-width="0.03" stroke="#000000" fill="none"/>
<path d="M25.90546875 16.062302033735286L25.07109375 16.54402866459038L24.758203125 16.36338117801972L24.758203125 16.24294952030595L25.696875000000002 15.701007060593964L25.696875000000002 15.098848772025098L25.383984374999997 14.918201285454437" stroke-width="0.03" stroke="#000000" fill="none"/>
<path d="M25.383984374999997 14.556906312313117L22.7765625 16.062302033735286" stroke-width="0.03" stroke="#000000" fill="none"/>
<path d="M22.7765625 15.82143871830774L22.359375 16.062302033735286L21.107812499999998 15.339712087452645" stroke-width="0.03" stroke="#000000" fill="none"/>
<path d="M21.31640625 14.978417114311325L18.708984375 13.473021392889155" stroke-width="0.03" stroke="#000000" fill="none"/>
<path d="M19.85625 11.485899040611892L19.960546875000002 11.425683211755006L19.960546875000002 11.54611486946878" stroke-width="0.03" stroke="#000000" fill="none"/>
<path d="M19.960546875000002 11.425683211755006L19.543359374999998 11.184819896327458" stroke-width="0.03" stroke="#000000" fill="none"/>
<path d="M22.98515625 12.931078933177174L22.98515625 14.014963852601136" stroke-width="0.03" stroke="#000000" fill="none"/>
<path d="M23.506640625 13.713884708316701L23.506640625 13.232158077461609" stroke-width="0.03" stroke="#000000" fill="none"/>
<path d="M23.819531249999997 14.376258825742458L23.923828125000004 14.436474654599342L24.758203125 13.95474802374425" stroke-width="0.03" stroke="#000000" fill="none"/>
<path d="M24.966796875000004 13.713884708316701L25.175390624999995 13.593453050602928L25.279687499999998 13.653668879459815L25.279687499999998 13.894532194887363" stroke-width="0.03" stroke="#000000" fill="none"/>
<path d="M25.07109375 13.77410053717359L25.279687499999998 13.653668879459815" stroke-width="0.03" stroke="#000000" fill="none"/>
<path d="M25.279687499999998 14.255827168028683L25.279687499999998 14.49669048345623" stroke-width="0.03" stroke="#000000" fill="none"/>
<path d="M25.90546875 14.376258825742458L26.009765625 14.31604299688557" stroke-width="0.03" stroke="#000000" fill="none"/>
<path d="M26.009765625 14.556906312313117L25.90546875 14.617122141170004" stroke-width="0.03" stroke="#000000" fill="none"/>
<path d="M26.1140625 14.737553798883777L26.218359375 14.67733797002689" stroke-width="0.03" stroke="#000000" fill="none"/>
<path d="M25.696875000000002 15.098848772025098L23.089453125000002 16.60424449344727" stroke-width="0.03" stroke="#000000" fill="none"/>
<path d="M23.298046874999997 16.72467615116104L22.880859375 16.965539466588588" stroke-width="0.03" stroke="#000000" fill="none"/>
<path d="M22.359375 16.66446032230415L22.359375 16.062302033735286" stroke-width="0.03" stroke="#000000" fill="none"/>
<path d="M22.046484375000002 17.08597112430236L19.751953125 18.410719359153866L19.543359374999998 18.290287701440096" stroke-width="0.03" stroke="#000000" fill="none"/>
<path d="M19.751953125 18.410719359153866L19.751953125 19.85589925171915" stroke-width="0.03" stroke="#000000" fill="none"/>
<path d="M18.917578125000002 20.698920855715564L18.81328125 20.759136684572454L18.81328125 21.240863315427546L18.917578125000002 21.18064748657066L18.917578125000002 20.698920855715564L18.083203125 20.21719422486047L17.978906249999998 20.277410053717357L17.978906249999998 20.759136684572454L18.81328125 21.240863315427546" stroke-width="0.03" stroke="#000000" fill="none"/>
<path d="M18.81328125 20.759136684572454L17.978906249999998 20.277410053717357" stroke-width="0.03" stroke="#000000" fill="none"/>
<path d="M14.954296875 20.939784171143113L14.954296875 21.060215828856883L14.85 21.120431657713773L14.745703124999999 21.060215828856883L14.745703124999999 20.939784171143113L14.85 20.879568342286227L14.954296875 20.939784171143113" stroke-width="0.03" stroke="#000000" fill="none"/>
<path d="M14.85 21L19.85625 23.890359785130563" stroke-width="0.03" stroke="#000000" fill="none"/>
<path d="M20.89921875 24.492518073699433L21.837890625 23.95057561398745" stroke-width="0.03" stroke="#000000" fill="none"/>
<path d="M21.837890625 24.55273390255632L21.420703125 24.793597217983862L21.420703125 25.27532384883896" stroke-width="0.03" stroke="#000000" fill="none"/>
<path d="M21.420703125 25.154892191125185L21.525000000000002 25.215108019982072" stroke-width="0.03" stroke="#000000" fill="none"/>
<path d="M21.837890625 25.034460533411412L22.7765625 25.576402993123395" stroke-width="0.03" stroke="#000000" fill="none"/>
<path d="M21.837890625 24.673165560270093L21.733593749999997 24.612949731413206" stroke-width="0.03" stroke="#000000" fill="none"/>
<path d="M20.89921875 24.492518073699433L20.89921875 25.576402993123395" stroke-width="0.03" stroke="#000000" fill="none"/>
<path d="M19.751953125 27.322662029973106L19.751953125 30.574316788244992" stroke-width="0.03" stroke="#000000" fill="none"/>
<path d="M19.439062500000002 30.273237643960556L18.6046875 29.791511013105463" stroke-width="0.03" stroke="#000000" fill="none"/>
<path d="M18.81328125 29.791511013105463L18.81328125 29.430216039964147" stroke-width="0.03" stroke="#000000" fill="none"/>
<path d="M18.500390624999998 29.249568553393484L18.500390624999998 28.767841922538388L18.81328125 28.58719443596773" stroke-width="0.03" stroke="#000000" fill="none"/>
<path d="M18.81328125 28.46676277825396L18.81328125 28.828057751395274L19.439062500000002 29.189352724536597L19.439062500000002 29.67107935539169L19.334765625 29.731295184248577L18.500390624999998 29.249568553393484" stroke-width="0.03" stroke="#000000" fill="none"/>
<path d="M18.500390624999998 28.767841922538388L19.334765625 29.249568553393484L19.439062500000002 29.189352724536597" stroke-width="0.03" stroke="#000000" fill="none"/>
<path d="M19.334765625 29.249568553393484L19.334765625 29.731295184248577" stroke-width="0.03" stroke="#000000" fill="none"/>
<path d="M20.482031250000002 30.152805986246786L20.586328125 30.21302181510367L21.003515625000002 29.972158499676127" stroke-width="0.03" stroke="#000000" fill="none"/>
<path d="M21.003515625000002 29.851726841962353L21.003515625000002 30.694748445958766L17.666015625 32.621654969379136L17.56171875 32.56143914052225" stroke-width="0.03" stroke="#000000" fill="none"/>
<path d="M17.666015625 32.50122331166537L17.666015625 32.621654969379136" stroke-width="0.03" stroke="#000000" fill="none"/>
<path d="M17.248828125 32.3807916539516L16.831640625 32.139928338524044" stroke-width="0.03" stroke="#000000" fill="none"/>
<path d="M16.831640625 32.3807916539516L16.1015625 32.8023024559498" stroke-width="0.03" stroke="#000000" fill="none"/>
<path d="M16.1015625 33.043165771377346L16.1015625 32.07971250966716L15.788671874999999 31.8990650230965L15.684375 31.959280851953388L15.684375 33.043165771377346L15.162890625 33.34424491566179L14.85 33.163597429091126L14.85 29.67107935539169L14.328515625 29.972158499676127L14.328515625 30.45388513053122" stroke-width="0.03" stroke="#000000" fill="none"/>
<path d="M14.537109375 30.333453472817446L14.537109375 33.34424491566179L14.85 33.163597429091126" stroke-width="0.03" stroke="#000000" fill="none"/>
<path d="M15.162890625 33.34424491566179L15.162890625 30.333453472817446" stroke-width="0.03" stroke="#000000" fill="none"/>
<path d="M15.371484375 30.45388513053122L15.371484375 29.972158499676127L14.85 29.67107935539169" stroke-width="0.03" stroke="#000000" fill="none"/>
<path d="M14.64140625 29.189352724536597L14.64140625 26.53985625483358L13.389843749999999 25.817266308550938" stroke-width="0.03" stroke="#000000" fill="none"/>
<path d="M13.076953125000001 25.75705047969405L13.076953125000001 25.9979137951216" stroke-width="0.03" stroke="#000000" fill="none"/>
<path d="M13.076953125000001 24.673165560270093L13.911328125 24.191438929414996L13.911328125 24.071007271701223L13.494140625 23.830143956273677L12.659765624999999 24.311870587128773L12.659765624999999 24.432302244842543L13.076953125000001 24.673165560270093L13.076953125000001 24.55273390255632L13.911328125 24.071007271701223" stroke-width="0.03" stroke="#000000" fill="none"/>
<path d="M13.076953125000001 24.55273390255632L12.659765624999999 24.311870587128773" stroke-width="0.03" stroke="#000000" fill="none"/>
<path d="M14.64140625 26.53985625483358L14.85 26.419424597119807L15.05859375 26.53985625483358L16.31015625 25.817266308550938" stroke-width="0.03" stroke="#000000" fill="none"/>
<path d="M16.623046875 25.75705047969405L16.623046875 25.9979137951216" stroke-width="0.03" stroke="#000000" fill="none"/>
<path d="M16.623046875 24.673165560270093L17.040234375 24.432302244842543L17.040234375 24.311870587128773L16.205859375 23.830143956273677L15.788671874999999 24.071007271701223L15.788671874999999 24.191438929414996L16.623046875 24.673165560270093L16.623046875 24.55273390255632L15.788671874999999 24.071007271701223" stroke-width="0.03" stroke="#000000" fill="none"/>
<path d="M16.623046875 24.55273390255632L17.040234375 24.311870587128773" stroke-width="0.03" stroke="#000000" fill="none"/>
<path d="M15.05859375 26.53985625483358L15.05859375 29.189352724536597" stroke-width="0.03" stroke="#000000" fill="none"/>
<path d="M14.85 29.068921066822824L14.85 26.419424597119807" stroke-width="0.03" stroke="#000000" fill="none"/>
<path d="M13.076953125000001 28.526978607110845L12.97265625 28.58719443596773L12.868359374999999 28.526978607110845" stroke-width="0.03" stroke="#000000" fill="none"/>
<path d="M12.97265625 28.58719443596773L12.97265625 29.791511013105463" stroke-width="0.03" stroke="#000000" fill="none"/>
<path d="M13.389843749999999 29.91194267081924L13.389843749999999 31.11625924795697L13.076953125000001 31.296906734527635" stroke-width="0.03" stroke="#000000" fill="none"/>
<path d="M12.868359374999999 31.17647507681386L12.868359374999999 32.3807916539516L13.598437500000001 32.8023024559498" stroke-width="0.03" stroke="#000000" fill="none"/>
<path d="M13.598437500000001 33.043165771377346L13.598437500000001 32.07971250966716L13.911328125 31.8990650230965L14.015625 31.959280851953388L14.015625 33.043165771377346L14.537109375 33.34424491566179" stroke-width="0.03" stroke="#000000" fill="none"/>
<path d="M14.4328125 33.2840290868049L14.224218749999999 33.40446074451867" stroke-width="0.03" stroke="#000000" fill="none"/>
<path d="M13.911328125 33.58510823108933L13.702734374999999 33.7055398888031L13.598437500000001 33.64532405994622L13.598437500000001 33.40446074451867" stroke-width="0.03" stroke="#000000" fill="none"/>
<path d="M13.702734374999999 33.464676573375556L13.702734374999999 33.7055398888031" stroke-width="0.03" stroke="#000000" fill="none"/>
<path d="M13.702734374999999 33.103381600234236L13.702734374999999 32.139928338524044L14.015625 31.959280851953388" stroke-width="0.03" stroke="#000000" fill="none"/>
<path d="M13.702734374999999 32.139928338524044L13.598437500000001 32.07971250966716" stroke-width="0.03" stroke="#000000" fill="none"/>
<path d="M12.868359374999999 32.139928338524044L12.451171875 32.3807916539516" stroke-width="0.03" stroke="#000000" fill="none"/>
<path d="M12.138281249999999 32.56143914052225L12.033984375000001 32.621654969379136L8.696484375 30.694748445958766L8.696484375 29.851726841962353" stroke-width="0.03" stroke="#000000" fill="none"/>
<path d="M8.696484375 29.972158499676127L9.113671875 30.21302181510367L9.21796875 30.152805986246786" stroke-width="0.03" stroke="#000000" fill="none"/>
<path d="M9.113671875 30.21302181510367L9.113671875 30.0925901573899" stroke-width="0.03" stroke="#000000" fill="none"/>
<path d="M9.948046875 30.574316788244992L9.948046875 27.322662029973106" stroke-width="0.03" stroke="#000000" fill="none"/>
<path d="M10.260937499999999 27.623741174257542L12.868359374999999 29.12913689567971" stroke-width="0.03" stroke="#000000" fill="none"/>
<path d="M13.076953125000001 29.249568553393484L14.328515625 29.972158499676127" stroke-width="0.03" stroke="#000000" fill="none"/>
<path d="M15.371484375 29.972158499676127L16.623046875 29.249568553393484" stroke-width="0.03" stroke="#000000" fill="none"/>
<path d="M16.831640625 29.12913689567971L19.439062500000002 27.623741174257542" stroke-width="0.03" stroke="#000000" fill="none"/>
<path d="M17.7703125 29.068921066822824L17.7703125 32.07971250966716L16.831640625 31.53777004995518" stroke-width="0.03" stroke="#000000" fill="none"/>
<path d="M16.623046875 31.296906734527635L16.31015625 31.11625924795697L16.31015625 29.91194267081924" stroke-width="0.03" stroke="#000000" fill="none"/>
<path d="M16.72734375 29.791511013105463L16.72734375 28.58719443596773L16.831640625 28.526978607110845" stroke-width="0.03" stroke="#000000" fill="none"/>
<path d="M16.72734375 28.58719443596773L16.623046875 28.526978607110845" stroke-width="0.03" stroke="#000000" fill="none"/>
<path d="M16.831640625 31.17647507681386L16.831640625 32.3807916539516" stroke-width="0.03" stroke="#000000" fill="none"/>
<path d="M16.1015625 32.07971250966716L15.997265625 32.139928338524044L15.684375 31.959280851953388" stroke-width="0.03" stroke="#000000" fill="none"/>
<path d="M15.997265625 32.139928338524044L15.997265625 33.103381600234236" stroke-width="0.03" stroke="#000000" fill="none"/>
<path d="M16.1015625 33.40446074451867L16.1015625 33.64532405994622L15.997265625 33.7055398888031L15.788671874999999 33.58510823108933" stroke-width="0.03" stroke="#000000" fill="none"/>
<path d="M15.997265625 33.464676573375556L15.997265625 33.7055398888031" stroke-width="0.03" stroke="#000000" fill="none"/>
<path d="M15.47578125 33.40446074451867L15.267187499999999 33.2840290868049" stroke-width="0.03" stroke="#000000" fill="none"/>
<path d="M14.85 33.76575571765999L14.85 33.886187375373765" stroke-width="0.03" stroke="#000000" fill="none"/>
<path d="M14.64140625 33.886187375373765L10.782421874999999 31.658201707668955L10.782421874999999 31.77863336538273L14.64140625 34.00661903308754" stroke-width="0.03" stroke="#000000" fill="none"/>
<path d="M12.033984375000001 32.621654969379136L12.033984375000001 32.50122331166537" stroke-width="0.03" stroke="#000000" fill="none"/>
<path d="M12.033984375000001 32.139928338524044L12.033984375000001 32.01949668081028" stroke-width="0.03" stroke="#000000" fill="none"/>
<path d="M11.9296875 32.07971250966716L12.868359374999999 31.53777004995518" stroke-width="0.03" stroke="#000000" fill="none"/>
<path d="M11.9296875 32.07971250966716L11.9296875 29.068921066822824" stroke-width="0.03" stroke="#000000" fill="none"/>
<path d="M10.991015625000001 31.53777004995518L10.782421874999999 31.658201707668955" stroke-width="0.03" stroke="#000000" fill="none"/>
<path d="M6.610546875 28.647410264824618L6.193359375 28.888273580252164L6.089062499999999 28.828057751395274L6.089062499999999 28.346331120540185" stroke-width="0.03" stroke="#000000" fill="none"/>
<path d="M6.193359375 28.40654694939707L6.193359375 28.888273580252164" stroke-width="0.03" stroke="#000000" fill="none"/>
<path d="M6.9234374999999995 25.576402993123395L6.9234374999999995 22.08388491942396L4.107421875 20.458057540288017" stroke-width="0.03" stroke="#000000" fill="none"/>
<path d="M4.107421875 21.301079144284433L4.003124999999999 21.36129497314132L4.003124999999999 21.843021603996412" stroke-width="0.03" stroke="#000000" fill="none"/>
<path d="M4.107421875 21.903237432853302L3.3773437500000005 21.481726630855093L3.3773437500000005 17.62791358401434L3.481640624999999 17.567697755157454" stroke-width="0.03" stroke="#000000" fill="none"/>
<path d="M3.3773437500000005 17.62791358401434L3.481640624999999 17.688129412871227" stroke-width="0.03" stroke="#000000" fill="none"/>
<path d="M3.7945312499999995 17.86877689944189L3.898828125 17.928992728298773" stroke-width="0.03" stroke="#000000" fill="none"/>
<path d="M3.7945312499999995 17.989208557155663L4.733203124999998 17.44726609744368" stroke-width="0.03" stroke="#000000" fill="none"/>
<path d="M5.046093749999999 17.387050268586794L5.3589843749999995 17.206402782016134L6.4019531249999995 17.808561070585" stroke-width="0.03" stroke="#000000" fill="none"/>
<path d="M6.297656249999999 18.23007187258321L7.340624999999999 18.832230161152076L7.4449218749999995 18.77201433229519L7.4449218749999995 18.892445990008962L7.340624999999999 18.95266181886585L6.297656249999999 18.350503530296983" stroke-width="0.03" stroke="#000000" fill="none"/>
<path d="M6.4019531249999995 18.651582674581416L5.046093749999999 17.86877689944189L5.046093749999999 17.387050268586794L7.4449218749999995 18.77201433229519" stroke-width="0.03" stroke="#000000" fill="none"/>
<path d="M7.340624999999999 18.832230161152076L7.340624999999999 18.95266181886585" stroke-width="0.03" stroke="#000000" fill="none"/>
<path d="M6.819140625 18.651582674581416L6.819140625 21.662374117425752" stroke-width="0.03" stroke="#000000" fill="none"/>
<path d="M6.9234374999999995 22.08388491942396L7.862109374999999 21.54194245971198" stroke-width="0.03" stroke="#000000" fill="none"/>
<path d="M7.653515625 21.42151080199821L7.653515625 17.08597112430236L7.862109374999999 16.965539466588588L10.156640625 18.290287701440096L10.156640625 18.049424386012547L7.862109374999999 16.72467615116104L7.862109374999999 16.965539466588588" stroke-width="0.03" stroke="#000000" fill="none"/>
<path d="M7.862109374999999 16.72467615116104L11.616796874999999 14.556906312313117" stroke-width="0.03" stroke="#000000" fill="none"/>
<path d="M11.825390624999999 14.67733797002689L11.825390624999999 13.593453050602928L9.009374999999999 11.967625671466987" stroke-width="0.03" stroke="#000000" fill="none"/>
<path d="M9.739453124999999 11.54611486946878L9.739453124999999 11.425683211755006L10.156640625 11.184819896327458" stroke-width="0.03" stroke="#000000" fill="none"/>
<path d="M10.260937499999999 11.245035725184344L9.530859375 10.823524923186138L6.193359375 12.750431446606514L6.193359375 12.87086310432029" stroke-width="0.03" stroke="#000000" fill="none"/>
<path d="M6.297656249999999 12.8106472754634L6.193359375 12.750431446606514" stroke-width="0.03" stroke="#000000" fill="none"/>
<path d="M6.610546875 12.991294762034062L6.714843749999999 13.051510590890949" stroke-width="0.03" stroke="#000000" fill="none"/>
<path d="M6.714843749999999 12.931078933177174L6.714843749999999 14.014963852601136" stroke-width="0.03" stroke="#000000" fill="none"/>
<path d="M6.193359375 13.713884708316701L6.193359375 13.232158077461609" stroke-width="0.03" stroke="#000000" fill="none"/>
<path d="M6.714843749999999 12.931078933177174L9.322265625 14.436474654599342" stroke-width="0.03" stroke="#000000" fill="none"/>
<path d="M8.5921875 15.339712087452645L7.340624999999999 16.062302033735286L6.9234374999999995 15.82143871830774" stroke-width="0.03" stroke="#000000" fill="none"/>
<path d="M6.9234374999999995 16.062302033735286L4.3160156249999995 14.556906312313117L4.3160156249999995 14.918201285454437L4.003124999999999 15.098848772025098L4.003124999999999 15.701007060593964L4.941796875 16.24294952030595L4.941796875 16.36338117801972L4.62890625 16.54402866459038L3.7945312499999995 16.062302033735286" stroke-width="0.03" stroke="#000000" fill="none"/>
<path d="M3.7945312499999995 15.94187037602151L4.62890625 16.423597006876605L4.941796875 16.24294952030595" stroke-width="0.03" stroke="#000000" fill="none"/>
<path d="M4.62890625 16.423597006876605L4.62890625 16.54402866459038" stroke-width="0.03" stroke="#000000" fill="none"/>
<path d="M4.003124999999999 16.18273369144906L4.003124999999999 17.025755295445475L5.046093749999999 17.62791358401434" stroke-width="0.03" stroke="#000000" fill="none"/>
<path d="M4.211718750000001 17.146186953159244L3.7945312499999995 17.387050268586794" stroke-width="0.03" stroke="#000000" fill="none"/>
<path d="M3.7945312499999995 17.989208557155663L6.4019531249999995 19.49460427857783" stroke-width="0.03" stroke="#000000" fill="none"/>
<path d="M6.819140625 18.410719359153866L6.819140625 16.965539466588588L7.340624999999999 16.66446032230415L7.340624999999999 16.062302033735286" stroke-width="0.03" stroke="#000000" fill="none"/>
<path d="M7.340624999999999 16.66446032230415L4.3160156249999995 14.918201285454437" stroke-width="0.03" stroke="#000000" fill="none"/>
<path d="M4.003124999999999 15.098848772025098L6.610546875 16.60424449344727" stroke-width="0.03" stroke="#000000" fill="none"/>
<path d="M6.4019531249999995 16.72467615116104L6.819140625 16.965539466588588" stroke-width="0.03" stroke="#000000" fill="none"/>
<path d="M7.653515625 17.08597112430236L9.948046875 18.410719359153866L10.156640625 18.290287701440096" stroke-width="0.03" stroke="#000000" fill="none"/>
<path d="M9.948046875 18.410719359153866L9.948046875 19.85589925171915" stroke-width="0.03" stroke="#000000" fill="none"/>
<path d="M9.84375 20.156978396003588L9.63515625 20.03654673828981" stroke-width="0.03" stroke="#000000" fill="none"/>
<path d="M10.782421874999999 20.698920855715564L11.616796874999999 20.21719422486047L11.72109375 20.277410053717357L11.72109375 20.759136684572454L10.88671875 21.240863315427546L10.782421874999999 21.18064748657066L10.782421874999999 20.698920855715564L10.88671875 20.759136684572454L10.88671875 21.240863315427546" stroke-width="0.03" stroke="#000000" fill="none"/>
<path d="M10.88671875 20.759136684572454L11.72109375 20.277410053717357" stroke-width="0.03" stroke="#000000" fill="none"/>
<path d="M11.616796874999999 19.13330930543651L11.408203125 19.01287764772274" stroke-width="0.03" stroke="#000000" fill="none"/>
<path d="M12.555468750000001 18.59136684572453L12.555468750000001 17.62791358401434L12.97265625 17.387050268586794L13.076953125000001 17.44726609744368L13.076953125000001 18.410719359153866L12.659765624999999 18.651582674581416L12.555468750000001 18.59136684572453" stroke-width="0.03" stroke="#000000" fill="none"/>
<path d="M12.659765624999999 18.651582674581416L12.659765624999999 17.688129412871227L12.555468750000001 17.62791358401434" stroke-width="0.03" stroke="#000000" fill="none"/>
<path d="M12.659765624999999 17.688129412871227L13.076953125000001 17.44726609744368" stroke-width="0.03" stroke="#000000" fill="none"/>
<path d="M11.616796874999999 17.08597112430236L11.408203125 16.965539466588588" stroke-width="0.03" stroke="#000000" fill="none"/>
<path d="M11.408203125 17.326834439729907L10.156640625 18.049424386012547" stroke-width="0.03" stroke="#000000" fill="none"/>
<path d="M7.862109374999999 23.95057561398745L8.80078125 24.492518073699433" stroke-width="0.03" stroke="#000000" fill="none"/>
<path d="M8.279296875 25.154892191125185L8.175 25.215108019982072" stroke-width="0.03" stroke="#000000" fill="none"/>
<path d="M4.107421875 24.914028875697635L3.6902343750000006 24.673165560270093L3.6902343750000006 24.55273390255632L4.107421875 24.311870587128773" stroke-width="0.03" stroke="#000000" fill="none"/>
<path d="M4.107421875 24.793597217983862L3.6902343750000006 24.55273390255632" stroke-width="0.03" stroke="#000000" fill="none"/>
<path d="M4.107421875 21.42151080199821L4.003124999999999 21.36129497314132" stroke-width="0.03" stroke="#000000" fill="none"/>
<path d="M3.481640624999999 15.881654547164626L3.2730468750000017 15.761222889450853L3.2730468750000017 15.640791231737078L3.481640624999999 15.520359574023306" stroke-width="0.03" stroke="#000000" fill="none"/>
<path d="M3.2730468750000017 15.640791231737078L3.481640624999999 15.761222889450853" stroke-width="0.03" stroke="#000000" fill="none"/>
<path d="M3.7945312499999995 15.339712087452645L4.003124999999999 15.21928042973887" stroke-width="0.03" stroke="#000000" fill="none"/>
<path d="M3.5859375 14.737553798883777L3.481640624999999 14.67733797002689" stroke-width="0.03" stroke="#000000" fill="none"/>
<path d="M9.739453124999999 11.425683211755006L9.84375 11.485899040611892" stroke-width="0.03" stroke="#000000" fill="none"/>
<path d="M12.346874999999999 10.04071914804661L12.346874999999999 9.558992517191516L12.451171875 9.49877668833463L12.868359374999999 9.739640003762176" stroke-width="0.03" stroke="#000000" fill="none"/>
<path d="M12.7640625 9.799855832619063L12.346874999999999 9.558992517191516" stroke-width="0.03" stroke="#000000" fill="none"/>
<path d="M9.237499999999999 2.533333333333333L1.5 2.533333333333333" stroke-width="0.03" stroke="#000000" fill="none"/>
<path d="M2.1166666666666667 2.2291666666666665L2.1166666666666667 1.8208333333333333" stroke-width="0.03" stroke="#000000" fill="none"/>
<path d="M2.0875 1.6166666666666667L2.1166666666666667 1.6458333333333333L2.145833333333333 1.6166666666666667L2.1166666666666667 1.5875L2.0875 1.6166666666666667" stroke-width="0.03" stroke="#000000" fill="none"/>
<path d="M2.3208333333333333 2.1416666666666666L2.35 2.2L2.4375 2.2291666666666665L2.525 2.2291666666666665L2.6125 2.2L2.6416666666666666 2.1416666666666666L2.6416666666666666 2.1125L2.6125 2.0541666666666667L2.5541666666666667 2.025L2.408333333333333 1.9958333333333333L2.35 1.9666666666666666L2.3208333333333333 1.9083333333333332L2.35 1.85L2.4375 1.8208333333333333L2.525 1.8208333333333333L2.6125 1.85L2.6416666666666666 1.9083333333333332" stroke-width="0.03" stroke="#000000" fill="none"/>
<path d="M2.9625 1.8208333333333333L2.904166666666667 1.85L2.845833333333333 1.9083333333333332L2.8166666666666664 1.9958333333333333L2.8166666666666664 2.0541666666666667L2.845833333333333 2.1416666666666666L2.904166666666667 2.2L2.9625 2.2291666666666665L3.05 2.2291666666666665L3.1083333333333334 2.2L3.1666666666666665 2.1416666666666666L3.1958333333333333 2.0541666666666667L3.1958333333333333 1.9958333333333333L3.1666666666666665 1.9083333333333332L3.1083333333333334 1.85L3.05 1.8208333333333333L2.9625 1.8208333333333333" stroke-width="0.03" stroke="#000000" fill="none"/>
<path d="M3.283333333333333 2.2874999999999996L3.75 2.2874999999999996" stroke-width="0.03" stroke="#000000" fill="none"/>
<path d="M3.8375 2.1416666666666666L3.8666666666666663 2.2L3.9541666666666666 2.2291666666666665L4.041666666666666 2.2291666666666665L4.129166666666666 2.2L4.158333333333333 2.1416666666666666L4.158333333333333 2.1125L4.129166666666666 2.0541666666666667L4.070833333333333 2.025L3.925 1.9958333333333333L3.8666666666666663 1.9666666666666666L3.8375 1.9083333333333332L3.8666666666666663 1.85L3.9541666666666666 1.8208333333333333L4.041666666666666 1.8208333333333333L4.129166666666666 1.85L4.158333333333333 1.9083333333333332" stroke-width="0.03" stroke="#000000" fill="none"/>
<path d="M4.3625 1.9375L4.449999999999999 1.85L4.508333333333333 1.8208333333333333L4.595833333333333 1.8208333333333333L4.654166666666667 1.85L4.683333333333334 1.9375L4.683333333333334 2.2291666666666665" stroke-width="0.03" stroke="#000000" fill="none"/>
<path d="M4.3625 2.2291666666666665L4.3625 1.8208333333333333" stroke-width="0.03" stroke="#000000" fill="none"/>
<path d="M5.033333333333333 1.8208333333333333L4.975 1.85L4.916666666666666 1.9083333333333332L4.887499999999999 1.9958333333333333L4.887499999999999 2.0541666666666667L4.916666666666666 2.1416666666666666L4.975 2.2L5.033333333333333 2.2291666666666665L5.120833333333334 2.2291666666666665L5.179166666666666 2.2L5.2375 2.1416666666666666L5.266666666666666 2.0541666666666667L5.266666666666666 1.9958333333333333L5.2375 1.9083333333333332L5.179166666666666 1.85L5.120833333333334 1.8208333333333333L5.033333333333333 1.8208333333333333" stroke-width="0.03" stroke="#000000" fill="none"/>
<path d="M5.441666666666666 1.8208333333333333L5.558333333333334 2.2291666666666665L5.675 1.8208333333333333L5.791666666666666 2.2291666666666665L5.908333333333333 1.8208333333333333" stroke-width="0.03" stroke="#000000" fill="none"/>
<path d="M6.054166666666666 1.8208333333333333L6.258333333333333 1.8208333333333333" stroke-width="0.03" stroke="#000000" fill="none"/>
<path d="M6.2875 1.6166666666666667L6.229166666666666 1.6166666666666667L6.1708333333333325 1.6458333333333333L6.141666666666667 1.7333333333333334L6.141666666666667 2.2291666666666665" stroke-width="0.03" stroke="#000000" fill="none"/>
<path d="M6.4624999999999995 2.2291666666666665L6.4624999999999995 1.6166666666666667" stroke-width="0.03" stroke="#000000" fill="none"/>
<path d="M7.016666666666666 1.8208333333333333L7.016666666666666 2.2291666666666665" stroke-width="0.03" stroke="#000000" fill="none"/>
<path d="M7.016666666666666 2.1416666666666666L6.958333333333333 2.2L6.8999999999999995 2.2291666666666665L6.812499999999999 2.2291666666666665L6.754166666666666 2.2L6.695833333333333 2.1416666666666666L6.666666666666666 2.0541666666666667L6.666666666666666 1.9958333333333333L6.695833333333333 1.9083333333333332L6.754166666666666 1.85L6.812499999999999 1.8208333333333333L6.8999999999999995 1.8208333333333333L6.958333333333333 1.85L7.016666666666666 1.9083333333333332" stroke-width="0.03" stroke="#000000" fill="none"/>
<path d="M7.249999999999999 2.1125L7.541666666666666 1.8208333333333333" stroke-width="0.03" stroke="#000000" fill="none"/>
<path d="M7.366666666666666 1.9958333333333333L7.570833333333333 2.2291666666666665" stroke-width="0.03" stroke="#000000" fill="none"/>
<path d="M7.716666666666666 1.9958333333333333L8.066666666666666 1.9958333333333333L8.066666666666666 1.9375L8.0375 1.8791666666666667L8.008333333333333 1.85L7.949999999999999 1.8208333333333333L7.8625 1.8208333333333333L7.804166666666666 1.85L7.745833333333333 1.9083333333333332L7.716666666666666 1.9958333333333333L7.716666666666666 2.0541666666666667L7.745833333333333 2.1416666666666666L7.804166666666666 2.2L7.8625 2.2291666666666665L7.949999999999999 2.2291666666666665L8.008333333333333 2.2L8.066666666666666 2.1416666666666666" stroke-width="0.03" stroke="#000000" fill="none"/>
<path d="M8.475 2.2291666666666665L8.475 1.6166666666666667L8.3875 1.7041666666666666L8.329166666666666 1.7333333333333334" stroke-width="0.03" stroke="#000000" fill="none"/>
<path d="M7.249999999999999 1.6166666666666667L7.249999999999999 2.2291666666666665" stroke-width="0.03" stroke="#000000" fill="none"/>
<path d="M5.5511202936921045 3.1316192380572576L5.533094302353565 3.1856972120728733L5.497042319676488 3.221749194749951L5.442964345660872 3.2397751860884894L5.424938354322334 3.2397751860884894L5.370860380306718 3.221749194749951L5.33480839762964 3.1856972120728733L5.316782406291102 3.1316192380572576L5.316782406291102 3.113593246718719L5.33480839762964 3.0595152727031034L5.370860380306718 3.023463290026026L5.424938354322334 3.0054372986874878L5.442964345660872 3.0054372986874878L5.497042319676488 3.023463290026026L5.533094302353565 3.0595152727031034L5.5511202936921045 3.1316192380572576L5.5511202936921045 3.221749194749951L5.533094302353565 3.3118791514426436L5.497042319676488 3.3659571254582596L5.442964345660872 3.383983116796798L5.406912362983795 3.383983116796798L5.352834388968179 3.3659571254582596L5.33480839762964 3.3299051427811825" stroke-width="0.03" stroke="#000000" fill="none"/>
<path d="M5.1184965015671775 3.1856972120728733L5.172574475582794 3.167671220734335L5.190600466921332 3.149645229395796L5.20862645825987 3.113593246718719L5.20862645825987 3.077541264041642L5.190600466921332 3.041489281364565L5.172574475582794 3.023463290026026L5.1184965015671775 3.0054372986874878L4.95626257952033 3.0054372986874878L4.95626257952033 3.383983116796798L5.1184965015671775 3.383983116796798L5.172574475582794 3.3659571254582596L5.190600466921332 3.3479311341197207L5.20862645825987 3.3118791514426436L5.20862645825987 3.257801177427028L5.190600466921332 3.221749194749951L5.172574475582794 3.2037232034114123L5.1184965015671775 3.1856972120728733L4.95626257952033 3.1856972120728733" stroke-width="0.03" stroke="#000000" fill="none"/>
<path d="M4.83008064015056 3.0054372986874878L4.649820726765174 3.383983116796798" stroke-width="0.03" stroke="#000000" fill="none"/>
<path d="M4.469560813379788 3.293853160104105L4.45153482204125 3.3299051427811825L4.415482839364172 3.3659571254582596L4.379430856687095 3.383983116796798L4.3073268913329406 3.383983116796798L4.2712749086558635 3.3659571254582596L4.235222925978786 3.3299051427811825L4.217196934640247 3.293853160104105L4.199170943301709 3.2397751860884894L4.199170943301709 3.149645229395796L4.217196934640247 3.0955672553801805L4.235222925978786 3.0595152727031034L4.2712749086558635 3.023463290026026L4.3073268913329406 3.0054372986874878L4.379430856687095 3.0054372986874878L4.415482839364172 3.023463290026026L4.45153482204125 3.0595152727031034L4.469560813379788 3.0955672553801805" stroke-width="0.03" stroke="#000000" fill="none"/>
<path d="M4.57771676141102 3.0054372986874878L4.83008064015056 3.0054372986874878" stroke-width="0.03" stroke="#000000" fill="none"/>
<path d="M4.091014995270477 3.383983116796798L3.838651116530937 3.383983116796798L4.018911029916323 3.2037232034114123L4.0549630125934 3.149645229395796L4.072989003931939 3.113593246718719L4.072989003931939 3.077541264041642L4.0549630125934 3.041489281364565L4.036937021254861 3.023463290026026L4.000885038577785 3.0054372986874878L3.9287810732236297 3.0054372986874878L3.8927290905465526 3.023463290026026L3.8747030992080145 3.041489281364565L3.8566771078694755 3.077541264041642L3.8566771078694755 3.0955672553801805" stroke-width="0.03" stroke="#000000" fill="none"/>
<path d="M3.730495168499705 3.0955672553801805L3.712469177161167 3.0595152727031034L3.6764171944840895 3.023463290026026L3.6403652118070124 3.0054372986874878L3.568261246452858 3.0054372986874878L3.5322092637757807 3.023463290026026L3.4961572810987036 3.0595152727031034L3.478131289760165 3.0955672553801805L3.4601052984216265 3.149645229395796L3.4601052984216265 3.2397751860884894L3.478131289760165 3.293853160104105L3.4961572810987036 3.3299051427811825L3.5322092637757807 3.3659571254582596L3.568261246452858 3.383983116796798L3.6403652118070124 3.383983116796798L3.6764171944840895 3.3659571254582596L3.712469177161167 3.3299051427811825L3.730495168499705 3.293853160104105" stroke-width="0.03" stroke="#000000" fill="none"/>
<path d="M3.3699753417289333 3.257801177427028L3.0995854716508546 3.257801177427028L3.2798453850362406 3.0054372986874878L3.2798453850362406 3.383983116796798" stroke-width="0.03" stroke="#000000" fill="none"/>
<path d="M2.7390656448800828 3.383983116796798L2.7390656448800828 3.0054372986874878L2.8652475842498526 3.0054372986874878L2.9193255582654682 3.023463290026026L2.955377540942546 3.0595152727031034L2.9734035322810843 3.0955672553801805L2.991429523619623 3.149645229395796L2.991429523619623 3.2397751860884894L2.9734035322810843 3.293853160104105L2.955377540942546 3.3299051427811825L2.9193255582654682 3.3659571254582596L2.8652475842498526 3.383983116796798L2.7390656448800828 3.383983116796798" stroke-width="0.03" stroke="#000000" fill="none"/>
<path d="M2.6128837055103125 3.383983116796798L2.414597800786388 3.1316192380572576" stroke-width="0.03" stroke="#000000" fill="none"/>
<path d="M2.6128837055103125 3.1316192380572576L2.414597800786388 3.383983116796798" stroke-width="0.03" stroke="#000000" fill="none"/>
<path d="M2.1622339220468474 3.0054372986874878L2.1081559480312317 3.023463290026026L2.072103965354154 3.077541264041642L2.0540779740156156 3.167671220734335L2.0540779740156156 3.221749194749951L2.072103965354154 3.3118791514426436L2.1081559480312317 3.3659571254582596L2.1622339220468474 3.383983116796798L2.1982859047239245 3.383983116796798L2.2523638787395406 3.3659571254582596L2.2884158614166177 3.3118791514426436L2.3064418527551562 3.221749194749951L2.3064418527551562 3.167671220734335L2.2884158614166177 3.077541264041642L2.2523638787395406 3.023463290026026L2.1982859047239245 3.0054372986874878L2.1622339220468474 3.0054372986874878" stroke-width="0.03" stroke="#000000" fill="none"/>
<path d="M23.923828125000004 14.436474654599342L23.923828125000004 14.797769627740664" stroke-width="0.03" stroke="#000000" fill="none"/>
<path d="M24.758203125 16.24294952030595L25.07109375 16.423597006876605L25.90546875 15.94187037602151" stroke-width="0.03" stroke="#000000" fill="none"/>
<path d="M26.218359375 15.881654547164626L26.426953124999997 15.761222889450853L26.426953124999997 15.640791231737078L26.218359375 15.520359574023306" stroke-width="0.03" stroke="#000000" fill="none"/>
<path d="M26.426953124999997 15.640791231737078L26.218359375 15.761222889450853" stroke-width="0.03" stroke="#000000" fill="none"/>
<path d="M25.90546875 15.339712087452645L25.696875000000002 15.21928042973887" stroke-width="0.03" stroke="#000000" fill="none"/>
<path d="M25.07109375 16.423597006876605L25.07109375 16.54402866459038" stroke-width="0.03" stroke="#000000" fill="none"/>
<path d="M25.48828125 17.146186953159244L25.90546875 17.387050268586794" stroke-width="0.03" stroke="#000000" fill="none"/>
<path d="M25.90546875 17.989208557155663L24.966796875000004 17.44726609744368" stroke-width="0.03" stroke="#000000" fill="none"/>
<path d="M25.90546875 19.073093476579622L26.1140625 19.193525134293395" stroke-width="0.03" stroke="#000000" fill="none"/>
<path d="M25.696875000000002 21.36129497314132L25.592578125 21.42151080199821" stroke-width="0.03" stroke="#000000" fill="none"/>
<path d="M25.592578125 24.311870587128773L26.009765625 24.55273390255632L26.009765625 24.673165560270093L25.592578125 24.914028875697635" stroke-width="0.03" stroke="#000000" fill="none"/>
<path d="M25.592578125 24.793597217983862L26.009765625 24.55273390255632" stroke-width="0.03" stroke="#000000" fill="none"/>
<path d="M23.610937500000002 28.346331120540185L23.610937500000002 28.828057751395274L23.506640625 28.888273580252164L23.089453125000002 28.647410264824618" stroke-width="0.03" stroke="#000000" fill="none"/>
<path d="M23.506640625 28.40654694939707L23.506640625 28.888273580252164" stroke-width="0.03" stroke="#000000" fill="none"/>
<path d="M20.586328125 30.0925901573899L20.586328125 30.21302181510367" stroke-width="0.03" stroke="#000000" fill="none"/>
<path d="M17.666015625 32.01949668081028L17.666015625 32.139928338524044" stroke-width="0.03" stroke="#000000" fill="none"/>
</svg>
