<?xml version="1.0" standalone="no"?>
<svg width="29.7cm" height="42cm" version="1.1" xmlns="http://www.w3.org/2000/svg" viewBox="0.0 0.0 29.700001 42.000001">
<path d="M4.003124999999999 12.931078933177174L4.107421875 12.87086310432029L5.984765624999999 13.95474802374425L6.714843749999999 13.533237221746042" stroke-width="0.03" stroke="#000000" fill="none"/>
<path d="M6.819140625 13.593453050602928L6.089062499999999 14.014963852601136L7.4449218749999995 14.797769627740664L7.4449218749999995 15.159064600881985L7.340624999999999 15.21928042973887L4.003124999999999 13.292373906318495L4.003124999999999 12.931078933177174L7.340624999999999 14.85798545659755L7.96640625 14.49669048345623L7.96640625 13.533237221746042L7.13203125 13.051510590890949L6.5062500000000005 13.412805564032269L6.5062500000000005 13.653668879459815" stroke-width="0.03" stroke="#000000" fill="none"/>
<path d="M6.5062500000000005 13.533237221746042L5.88046875 13.894532194887363" stroke-width="0.03" stroke="#000000" fill="none"/>
<path d="M6.297656249999999 14.13539551031491L6.819140625 13.834316366030475L6.819140625 13.593453050602928" stroke-width="0.03" stroke="#000000" fill="none"/>
<path d="M6.819140625 13.232158077461609L6.5062500000000005 13.051510590890949L5.46328125 13.653668879459815" stroke-width="0.03" stroke="#000000" fill="none"/>
<path d="M5.3589843749999995 13.593453050602928L5.3589843749999995 13.473021392889155L9.739453124999999 10.943956580899911L9.739453124999999 10.703093265472365L9.322265625 10.462229950044819L9.322265625 10.703093265472365L4.941796875 13.232158077461609L4.941796875 13.352589735175382" stroke-width="0.03" stroke="#000000" fill="none"/>
<path d="M4.941796875 13.232158077461609L5.3589843749999995 13.473021392889155" stroke-width="0.03" stroke="#000000" fill="none"/>
<path d="M5.046093749999999 13.894532194887363L4.211718750000001 14.376258825742458L4.211718750000001 14.85798545659755L3.7945312499999995 15.098848772025098L3.7945312499999995 16.062302033735286" stroke-width="0.03" stroke="#000000" fill="none"/>
<path d="M4.107421875 16.24294952030595L4.211718750000001 16.18273369144906L4.211718750000001 16.303165349162832" stroke-width="0.03" stroke="#000000" fill="none"/>
<path d="M4.211718750000001 16.784891980017925L4.211718750000001 17.50748192630057" stroke-width="0.03" stroke="#000000" fill="none"/>
<path d="M4.107421875 17.567697755157454L4.3160156249999995 17.44726609744368" stroke-width="0.03" stroke="#000000" fill="none"/>
<path d="M4.3160156249999995 17.688129412871227L4.3160156249999995 16.845107808874815L2.438671874999999 15.761222889450853L2.438671874999999 15.640791231737078L2.7515624999999995 15.460143745166418L6.089062499999999 17.387050268586794L6.089062499999999 17.50748192630057L5.776171874999998 17.688129412871227L4.4203125 16.905323637731698L4.4203125 17.748345241728117L4.62890625 17.62791358401434L4.62890625 17.025755295445475" stroke-width="0.03" stroke="#000000" fill="none"/>
<path d="M4.8374999999999995 17.146186953159244L4.62890625 17.26661861087302" stroke-width="0.03" stroke="#000000" fill="none"/>
<path d="M4.107421875 17.567697755157454L4.107421875 18.290287701440096L4.941796875 18.77201433229519L5.776171874999998 18.290287701440096L5.776171874999998 17.567697755157454L2.438671874999999 15.640791231737078" stroke-width="0.03" stroke="#000000" fill="none"/>
<path d="M3.3773437500000005 15.82143871830774L3.3773437500000005 14.85798545659755L3.7945312499999995 14.617122141170004L4.211718750000001 14.85798545659755" stroke-width="0.03" stroke="#000000" fill="none"/>
<path d="M4.211718750000001 14.376258825742458L3.7945312499999995 14.13539551031491L4.62890625 13.653668879459815" stroke-width="0.03" stroke="#000000" fill="none"/>
<path d="M5.3589843749999995 14.075179681458023L5.3589843749999995 14.195611339171796L5.46328125 14.13539551031491" stroke-width="0.03" stroke="#000000" fill="none"/>
<path d="M6.5062500000000005 14.014963852601136L6.5062500000000005 14.255827168028683" stroke-width="0.03" stroke="#000000" fill="none"/>
<path d="M6.610546875 14.797769627740664L5.3589843749999995 15.520359574023306L5.3589843749999995 16.965539466588588" stroke-width="0.03" stroke="#000000" fill="none"/>
<path d="M5.46328125 17.025755295445475L6.714843749999999 16.303165349162832L6.714843749999999 14.85798545659755" stroke-width="0.03" stroke="#000000" fill="none"/>
<path d="M6.714843749999999 15.339712087452645L6.610546875 15.399927916309531L6.610546875 16.0020862048784L6.714843749999999 16.062302033735286L6.610546875 16.122517862592172L6.610546875 16.24294952030595L6.5062500000000005 16.303165349162832L6.5062500000000005 16.423597006876605L6.4019531249999995 16.36338117801972L5.88046875 16.66446032230415L5.88046875 16.784891980017925" stroke-width="0.03" stroke="#000000" fill="none"/>
<path d="M5.984765624999999 16.72467615116104L5.88046875 16.66446032230415" stroke-width="0.03" stroke="#000000" fill="none"/>
<path d="M6.193359375 16.483812835733495L6.193359375 16.122517862592172L6.297656249999999 16.062302033735286L6.297656249999999 15.94187037602151L6.610546875 15.761222889450853" stroke-width="0.03" stroke="#000000" fill="none"/>
<path d="M6.714843749999999 15.94187037602151L9.84375 14.13539551031491L10.05234375 14.255827168028683" stroke-width="0.03" stroke="#000000" fill="none"/>
<path d="M10.156640625 14.195611339171796L9.113671875 14.797769627740664L9.113671875 14.918201285454437L10.156640625 15.520359574023306" stroke-width="0.03" stroke="#000000" fill="none"/>
<path d="M10.260937499999999 15.460143745166418L9.113671875 14.797769627740664" stroke-width="0.03" stroke="#000000" fill="none"/>
<path d="M8.696484375 14.797769627740664L8.175 14.49669048345623L7.4449218749999995 14.918201285454437" stroke-width="0.03" stroke="#000000" fill="none"/>
<path d="M7.340624999999999 14.85798545659755L7.340624999999999 15.580575402880193" stroke-width="0.03" stroke="#000000" fill="none"/>
<path d="M7.13203125 15.701007060593964L7.13203125 15.098848772025098" stroke-width="0.03" stroke="#000000" fill="none"/>
<path d="M7.340624999999999 15.339712087452645L8.279296875 14.797769627740664L8.279296875 15.038632943168212" stroke-width="0.03" stroke="#000000" fill="none"/>
<path d="M8.279296875 14.797769627740664L8.070703124999998 14.67733797002689L7.4449218749999995 15.038632943168212" stroke-width="0.03" stroke="#000000" fill="none"/>
<path d="M7.340624999999999 14.737553798883777L7.340624999999999 13.894532194887363L6.5062500000000005 13.412805564032269" stroke-width="0.03" stroke="#000000" fill="none"/>
<path d="M7.340624999999999 13.894532194887363L7.96640625 13.533237221746042" stroke-width="0.03" stroke="#000000" fill="none"/>
<path d="M8.487890625 14.67733797002689L9.530859375 14.075179681458023" stroke-width="0.03" stroke="#000000" fill="none"/>
<path d="M9.530859375 14.31604299688557L9.530859375 13.232158077461609L10.365234375 12.750431446606514L12.033984375000001 13.713884708316701L12.033984375000001 14.31604299688557L11.199609375 14.797769627740664L10.156640625 14.195611339171796" stroke-width="0.03" stroke="#000000" fill="none"/>
<path d="M11.199609375 14.195611339171796L12.033984375000001 13.713884708316701" stroke-width="0.03" stroke="#000000" fill="none"/>
<path d="M11.72109375 13.051510590890949L10.991015625000001 12.629999788892741L14.328515625 10.703093265472365L14.85 11.004172409756798L15.371484375 10.703093265472365L18.708984375 12.629999788892741L18.708984375 12.991294762034062" stroke-width="0.03" stroke="#000000" fill="none"/>
<path d="M18.917578125000002 12.87086310432029L18.291796875 13.232158077461609L15.05859375 11.365467382898117L14.85 11.485899040611892L14.64140625 11.365467382898117L11.408203125 13.232158077461609L10.782421874999999 12.87086310432029L10.678125 12.931078933177174" stroke-width="0.03" stroke="#000000" fill="none"/>
<path d="M10.991015625000001 12.991294762034062L10.991015625000001 12.629999788892741" stroke-width="0.03" stroke="#000000" fill="none"/>
<path d="M11.095312499999999 12.569783960035853L11.095312499999999 11.365467382898117L12.7640625 10.40201412118793L13.80703125 11.004172409756798L13.80703125 10.281582463474159L13.911328125 10.22136663461727" stroke-width="0.03" stroke="#000000" fill="none"/>
<path d="M13.80703125 10.281582463474159L13.389843749999999 10.04071914804661L13.911328125 9.739640003762176" stroke-width="0.03" stroke="#000000" fill="none"/>
<path d="M13.389843749999999 10.04071914804661L13.389843749999999 10.763309094329252" stroke-width="0.03" stroke="#000000" fill="none"/>
<path d="M13.911328125 10.943956580899911L13.911328125 9.017050057479535L14.745703124999999 8.53532342662444L14.85 8.595539255481327L14.954296875 8.53532342662444L15.788671874999999 9.017050057479535L15.788671874999999 10.943956580899911" stroke-width="0.03" stroke="#000000" fill="none"/>
<path d="M15.89296875 11.004172409756798L16.9359375 10.40201412118793L18.6046875 11.365467382898117L18.6046875 12.569783960035853" stroke-width="0.03" stroke="#000000" fill="none"/>
<path d="M18.708984375 12.629999788892741L17.978906249999998 13.051510590890949" stroke-width="0.03" stroke="#000000" fill="none"/>
<path d="M17.666015625 13.713884708316701L19.334765625 12.750431446606514L20.169140624999997 13.232158077461609L20.169140624999997 14.31604299688557" stroke-width="0.03" stroke="#000000" fill="none"/>
<path d="M20.169140624999997 14.075179681458023L21.212109374999997 14.67733797002689" stroke-width="0.03" stroke="#000000" fill="none"/>
<path d="M21.003515625000002 14.797769627740664L21.525000000000002 14.49669048345623L22.255078124999997 14.918201285454437" stroke-width="0.03" stroke="#000000" fill="none"/>
<path d="M22.255078124999997 14.797769627740664L23.610937500000002 14.014963852601136L22.880859375 13.593453050602928L22.880859375 13.834316366030475L23.40234375 14.13539551031491" stroke-width="0.03" stroke="#000000" fill="none"/>
<path d="M23.193749999999998 14.014963852601136L23.193749999999998 14.255827168028683" stroke-width="0.03" stroke="#000000" fill="none"/>
<path d="M23.089453125000002 14.797769627740664L24.341015624999997 15.520359574023306L24.341015624999997 16.965539466588588" stroke-width="0.03" stroke="#000000" fill="none"/>
<path d="M24.23671875 17.025755295445475L22.98515625 16.303165349162832L22.98515625 14.85798545659755" stroke-width="0.03" stroke="#000000" fill="none"/>
<path d="M22.567968750000002 15.098848772025098L22.567968750000002 15.701007060593964" stroke-width="0.03" stroke="#000000" fill="none"/>
<path d="M22.359375 15.580575402880193L22.359375 14.85798545659755L25.696875000000002 12.931078933177174L25.696875000000002 13.292373906318495L22.359375 15.21928042973887L22.255078124999997 15.159064600881985L22.255078124999997 14.797769627740664" stroke-width="0.03" stroke="#000000" fill="none"/>
<path d="M22.359375 14.737553798883777L22.359375 13.894532194887363L23.193749999999998 13.412805564032269L22.567968750000002 13.051510590890949L21.733593749999997 13.533237221746042L21.733593749999997 14.49669048345623L22.359375 14.85798545659755" stroke-width="0.03" stroke="#000000" fill="none"/>
<path d="M22.255078124999997 15.038632943168212L21.629296875 14.67733797002689L21.420703125 14.797769627740664L21.420703125 15.038632943168212" stroke-width="0.03" stroke="#000000" fill="none"/>
<path d="M21.420703125 14.797769627740664L22.359375 15.339712087452645" stroke-width="0.03" stroke="#000000" fill="none"/>
<path d="M22.98515625 15.339712087452645L23.089453125000002 15.399927916309531L23.089453125000002 16.0020862048784L22.98515625 16.062302033735286L23.089453125000002 16.122517862592172L23.089453125000002 16.24294952030595L23.193749999999998 16.303165349162832L23.193749999999998 16.423597006876605L23.298046874999997 16.36338117801972L23.819531249999997 16.66446032230415L23.819531249999997 16.784891980017925" stroke-width="0.03" stroke="#000000" fill="none"/>
<path d="M23.715234375 16.72467615116104L23.819531249999997 16.66446032230415" stroke-width="0.03" stroke="#000000" fill="none"/>
<path d="M23.506640625 16.483812835733495L23.506640625 16.122517862592172L23.40234375 16.062302033735286L23.40234375 15.94187037602151L23.089453125000002 15.761222889450853" stroke-width="0.03" stroke="#000000" fill="none"/>
<path d="M22.98515625 15.94187037602151L22.463671875 16.24294952030595" stroke-width="0.03" stroke="#000000" fill="none"/>
<path d="M22.463671875 16.122517862592172L19.960546875000002 17.567697755157454L19.647656249999997 17.387050268586794L19.647656249999997 18.23007187258321L17.457421875 19.49460427857783L18.291796875 19.976330909432924L21.9421875 17.86877689944189L21.837890625 17.808561070585L20.377734375 18.651582674581416L19.647656249999997 18.23007187258321" stroke-width="0.03" stroke="#000000" fill="none"/>
<path d="M19.960546875000002 18.049424386012547L23.40234375 16.062302033735286" stroke-width="0.03" stroke="#000000" fill="none"/>
<path d="M23.506640625 16.122517862592172L23.089453125000002 16.36338117801972" stroke-width="0.03" stroke="#000000" fill="none"/>
<path d="M22.98515625 16.18273369144906L23.40234375 15.94187037602151" stroke-width="0.03" stroke="#000000" fill="none"/>
<path d="M22.98515625 15.94187037602151L19.85625 14.13539551031491L19.647656249999997 14.255827168028683" stroke-width="0.03" stroke="#000000" fill="none"/>
<path d="M19.543359374999998 14.195611339171796L18.500390624999998 14.797769627740664L17.666015625 14.31604299688557L17.666015625 13.713884708316701L18.500390624999998 14.195611339171796L18.500390624999998 14.797769627740664" stroke-width="0.03" stroke="#000000" fill="none"/>
<path d="M18.396093750000002 14.85798545659755L14.85 16.905323637731698L11.303906249999999 14.85798545659755L8.5921875 16.423597006876605L8.5921875 16.54402866459038L10.05234375 17.387050268586794L10.05234375 18.23007187258321L12.242578125 19.49460427857783L12.242578125 18.531151016867643L13.285546875 17.928992728298773L13.076953125000001 17.808561070585L12.033984375000001 18.410719359153866L12.033984375000001 19.37417262086406L11.199609375 19.85589925171915L11.199609375 21.060215828856883L11.408203125 21.18064748657066L11.72109375 21L11.72109375 20.03654673828981L12.451171875 19.615035936291605L14.745703124999999 20.939784171143113L14.015625 21.36129497314132L11.72109375 20.03654673828981" stroke-width="0.03" stroke="#000000" fill="none"/>
<path d="M11.408203125 19.976330909432924L12.242578125 19.49460427857783" stroke-width="0.03" stroke="#000000" fill="none"/>
<path d="M12.451171875 19.615035936291605L12.451171875 18.77201433229519L13.285546875 18.290287701440096L13.285546875 17.928992728298773" stroke-width="0.03" stroke="#000000" fill="none"/>
<path d="M12.451171875 18.77201433229519L14.745703124999999 20.096762567146698L14.85 20.03654673828981L14.954296875 20.096762567146698L17.248828125 18.77201433229519L16.414453125 18.290287701440096L16.414453125 17.928992728298773L16.623046875 17.808561070585L17.666015625 18.410719359153866L17.666015625 19.37417262086406L18.500390624999998 19.85589925171915L18.500390624999998 21.060215828856883L18.291796875 21.18064748657066L17.978906249999998 21L17.978906249999998 20.03654673828981L17.248828125 19.615035936291605L14.954296875 20.939784171143113L15.684375 21.36129497314132L17.978906249999998 20.03654673828981" stroke-width="0.03" stroke="#000000" fill="none"/>
<path d="M18.291796875 19.976330909432924L18.291796875 21.18064748657066" stroke-width="0.03" stroke="#000000" fill="none"/>
<path d="M19.021874999999998 22.686043207992828L19.021874999999998 23.40863315427547L18.396093750000002 23.76992812741679" stroke-width="0.03" stroke="#000000" fill="none"/>
<path d="M18.396093750000002 23.649496469703017L18.917578125000002 23.348417325418584L18.917578125000002 22.746259036849715" stroke-width="0.03" stroke="#000000" fill="none"/>
<path d="M18.81328125 22.8064748657066L18.81328125 23.288201496561694L18.396093750000002 23.529064811989244" stroke-width="0.03" stroke="#000000" fill="none"/>
<path d="M18.396093750000002 23.047338181134148L21.9421875 21L21.9421875 17.86877689944189" stroke-width="0.03" stroke="#000000" fill="none"/>
<path d="M22.880859375 18.77201433229519L21.9421875 19.31395679200717" stroke-width="0.03" stroke="#000000" fill="none"/>
<path d="M21.9421875 19.67525176514849L22.98515625 19.073093476579622L23.089453125000002 19.13330930543651L23.089453125000002 20.337625882574244L22.046484375000002 20.939784171143113L22.046484375000002 21.903237432853302L22.567968750000002 22.204316577137735L24.23671875 21.240863315427546L24.23671875 20.277410053717357L23.298046874999997 19.735467594005378" stroke-width="0.03" stroke="#000000" fill="none"/>
<path d="M23.506640625 19.85589925171915L23.506640625 18.651582674581416" stroke-width="0.03" stroke="#000000" fill="none"/>
<path d="M23.298046874999997 18.77201433229519L23.819531249999997 18.470935188010756L23.819531249999997 17.62791358401434" stroke-width="0.03" stroke="#000000" fill="none"/>
<path d="M23.715234375 17.567697755157454L23.715234375 18.290287701440096L23.506640625 18.410719359153866L23.298046874999997 18.290287701440096" stroke-width="0.03" stroke="#000000" fill="none"/>
<path d="M23.506640625 18.410719359153866L23.506640625 17.326834439729907" stroke-width="0.03" stroke="#000000" fill="none"/>
<path d="M23.610937500000002 17.387050268586794L26.9484375 15.460143745166418L27.261328125 15.640791231737078L27.261328125 15.761222889450853L25.383984374999997 16.845107808874815L25.383984374999997 17.688129412871227" stroke-width="0.03" stroke="#000000" fill="none"/>
<path d="M25.279687499999998 17.748345241728117L25.279687499999998 16.905323637731698L23.923828125000004 17.688129412871227L23.610937500000002 17.50748192630057L23.610937500000002 17.387050268586794" stroke-width="0.03" stroke="#000000" fill="none"/>
<path d="M23.819531249999997 17.26661861087302L23.298046874999997 16.965539466588588" stroke-width="0.03" stroke="#000000" fill="none"/>
<path d="M23.298046874999997 17.206402782016134L23.923828125000004 17.567697755157454L27.261328125 15.640791231737078" stroke-width="0.03" stroke="#000000" fill="none"/>
<path d="M26.322656249999998 15.82143871830774L26.322656249999998 14.85798545659755L25.90546875 14.617122141170004L25.90546875 14.13539551031491L25.07109375 13.653668879459815" stroke-width="0.03" stroke="#000000" fill="none"/>
<path d="M24.758203125 13.352589735175382L24.758203125 13.232158077461609L20.377734375 10.703093265472365L20.377734375 10.462229950044819L20.064843749999998 10.281582463474159L19.647656249999997 10.522445778901705L19.647656249999997 10.763309094329252L18.396093750000002 10.04071914804661L18.81328125 9.799855832619063L19.85625 10.40201412118793" stroke-width="0.03" stroke="#000000" fill="none"/>
<path d="M19.647656249999997 10.522445778901705L19.960546875000002 10.703093265472365L20.377734375 10.462229950044819" stroke-width="0.03" stroke="#000000" fill="none"/>
<path d="M20.377734375 10.703093265472365L19.960546875000002 10.943956580899911L24.341015624999997 13.473021392889155L24.758203125 13.232158077461609" stroke-width="0.03" stroke="#000000" fill="none"/>
<path d="M24.341015624999997 13.473021392889155L24.341015624999997 13.593453050602928" stroke-width="0.03" stroke="#000000" fill="none"/>
<path d="M24.23671875 13.653668879459815L23.193749999999998 13.051510590890949L22.880859375 13.232158077461609" stroke-width="0.03" stroke="#000000" fill="none"/>
<path d="M22.98515625 13.533237221746042L23.715234375 13.95474802374425L25.592578125 12.87086310432029L25.696875000000002 12.931078933177174" stroke-width="0.03" stroke="#000000" fill="none"/>
<path d="M25.90546875 14.13539551031491L25.48828125 14.376258825742458L25.48828125 14.85798545659755L25.90546875 15.098848772025098L25.90546875 16.062302033735286" stroke-width="0.03" stroke="#000000" fill="none"/>
<path d="M25.592578125 16.24294952030595L25.48828125 16.18273369144906L25.48828125 16.303165349162832" stroke-width="0.03" stroke="#000000" fill="none"/>
<path d="M25.48828125 16.784891980017925L25.48828125 17.50748192630057" stroke-width="0.03" stroke="#000000" fill="none"/>
<path d="M25.592578125 17.567697755157454L24.758203125 18.049424386012547L24.028125 17.62791358401434" stroke-width="0.03" stroke="#000000" fill="none"/>
<path d="M23.923828125000004 17.567697755157454L23.923828125000004 18.290287701440096L24.758203125 18.77201433229519L25.592578125 18.290287701440096L25.592578125 17.567697755157454L25.383984374999997 17.44726609744368" stroke-width="0.03" stroke="#000000" fill="none"/>
<path d="M25.279687499999998 17.748345241728117L25.07109375 17.62791358401434L25.07109375 17.025755295445475" stroke-width="0.03" stroke="#000000" fill="none"/>
<path d="M24.8625 17.146186953159244L25.07109375 17.26661861087302" stroke-width="0.03" stroke="#000000" fill="none"/>
<path d="M24.758203125 18.049424386012547L24.758203125 18.77201433229519" stroke-width="0.03" stroke="#000000" fill="none"/>
<path d="M25.592578125 17.928992728298773L25.90546875 17.748345241728117L25.90546875 16.54402866459038" stroke-width="0.03" stroke="#000000" fill="none"/>
<path d="M26.009765625 16.483812835733495L26.1140625 16.54402866459038L26.53125 16.303165349162832L26.53125 21.36129497314132L26.73984375 21.481726630855093L26.73984375 21.843021603996412L26.322656249999998 22.08388491942396L26.1140625 21.96345326171019L26.1140625 23.40863315427547L26.53125 23.167769838847924L26.53125 21.96345326171019" stroke-width="0.03" stroke="#000000" fill="none"/>
<path d="M26.322656249999998 22.08388491942396L26.322656249999998 21.72258994628264L26.1140625 21.602158288568866L26.1140625 16.54402866459038" stroke-width="0.03" stroke="#000000" fill="none"/>
<path d="M26.426953124999997 16.24294952030595L26.53125 16.303165349162832" stroke-width="0.03" stroke="#000000" fill="none"/>
<path d="M25.90546875 15.098848772025098L26.322656249999998 14.85798545659755" stroke-width="0.03" stroke="#000000" fill="none"/>
<path d="M25.90546875 14.617122141170004L25.48828125 14.85798545659755" stroke-width="0.03" stroke="#000000" fill="none"/>
<path d="M25.48828125 14.376258825742458L24.653906250000002 13.894532194887363" stroke-width="0.03" stroke="#000000" fill="none"/>
<path d="M24.341015624999997 14.075179681458023L24.341015624999997 14.195611339171796L24.23671875 14.13539551031491" stroke-width="0.03" stroke="#000000" fill="none"/>
<path d="M23.819531249999997 13.894532194887363L23.193749999999998 13.533237221746042" stroke-width="0.03" stroke="#000000" fill="none"/>
<path d="M23.193749999999998 13.412805564032269L23.193749999999998 13.653668879459815" stroke-width="0.03" stroke="#000000" fill="none"/>
<path d="M22.359375 13.894532194887363L21.733593749999997 13.533237221746042" stroke-width="0.03" stroke="#000000" fill="none"/>
<path d="M20.169140624999997 13.232158077461609L18.500390624999998 14.195611339171796" stroke-width="0.03" stroke="#000000" fill="none"/>
<path d="M18.396093750000002 14.85798545659755L21.107812499999998 16.423597006876605L21.107812499999998 16.54402866459038L19.647656249999997 17.387050268586794" stroke-width="0.03" stroke="#000000" fill="none"/>
<path d="M19.960546875000002 17.567697755157454L19.960546875000002 18.049424386012547L20.377734375 18.290287701440096L20.377734375 18.651582674581416" stroke-width="0.03" stroke="#000000" fill="none"/>
<path d="M20.377734375 18.290287701440096L22.880859375 16.845107808874815L22.880859375 18.77201433229519" stroke-width="0.03" stroke="#000000" fill="none"/>
<path d="M23.089453125000002 19.13330930543651L21.9421875 19.795683422862265" stroke-width="0.03" stroke="#000000" fill="none"/>
<path d="M22.046484375000002 20.939784171143113L22.567968750000002 21.240863315427546L24.23671875 20.277410053717357" stroke-width="0.03" stroke="#000000" fill="none"/>
<path d="M24.23671875 20.397841711431134L24.341015624999997 20.458057540288017L24.341015624999997 22.14410074828085" stroke-width="0.03" stroke="#000000" fill="none"/>
<path d="M24.028125 21.96345326171019L25.07109375 22.565611550279055L25.07109375 24.492518073699433L24.028125 25.0946763622683L24.653906250000002 25.45597133540962L24.653906250000002 25.576402993123395" stroke-width="0.03" stroke="#000000" fill="none"/>
<path d="M24.653906250000002 25.45597133540962L25.07109375 25.215108019982072L24.4453125 24.85381304684075" stroke-width="0.03" stroke="#000000" fill="none"/>
<path d="M24.028125 25.215108019982072L25.696875000000002 26.17856128169226L25.696875000000002 27.142014543402446L25.592578125 27.202230372259333L25.592578125 27.322662029973106L24.758203125 27.804388660828202L23.089453125000002 26.840935399118013" stroke-width="0.03" stroke="#000000" fill="none"/>
<path d="M22.98515625 26.901151227974903L22.98515625 28.105467805112635L21.31640625 29.068921066822824L20.2734375 28.46676277825396" stroke-width="0.03" stroke="#000000" fill="none"/>
<path d="M20.169140624999997 28.526978607110845L23.506640625 26.600072083690467L24.758203125 27.322662029973106L25.279687499999998 27.021582885688677L25.279687499999998 26.419424597119807L24.028125 25.696834650837165L24.028125 21.843021603996412L23.715234375 21.662374117425752" stroke-width="0.03" stroke="#000000" fill="none"/>
<path d="M23.923828125000004 21.54194245971198L23.298046874999997 21.903237432853302L23.298046874999997 25.636618821980278L23.089453125000002 25.75705047969405L23.089453125000002 25.9979137951216L19.85625 27.864604489685092L19.85625 28.58719443596773L19.751953125 28.647410264824618" stroke-width="0.03" stroke="#000000" fill="none"/>
<path d="M19.85625 28.346331120540185L20.169140624999997 28.526978607110845L20.169140624999997 27.68395700311443" stroke-width="0.03" stroke="#000000" fill="none"/>
<path d="M19.751953125 27.081798714545563L18.917578125000002 27.563525345400656L18.917578125000002 29.490431868821034L17.978906249999998 28.94848940910905" stroke-width="0.03" stroke="#000000" fill="none"/>
<path d="M18.1875 29.068921066822824L17.14453125 29.67107935539169" stroke-width="0.03" stroke="#000000" fill="none"/>
<path d="M17.14453125 29.430216039964147L17.14453125 30.032374328533013L16.414453125 30.45388513053122" stroke-width="0.03" stroke="#000000" fill="none"/>
<path d="M16.51875 30.514100959388106L16.51875 32.07971250966716L17.248828125 31.658201707668955L17.040234375 31.53777004995518L16.51875 31.838849194239618" stroke-width="0.03" stroke="#000000" fill="none"/>
<path d="M16.72734375 31.71841753652584L16.51875 31.597985878812068" stroke-width="0.03" stroke="#000000" fill="none"/>
<path d="M16.1015625 31.236690905670745L14.85 31.959280851953388L13.598437500000001 31.236690905670745" stroke-width="0.03" stroke="#000000" fill="none"/>
<path d="M13.598437500000001 31.11625924795697L14.85 30.393669301674333L16.1015625 31.11625924795697" stroke-width="0.03" stroke="#000000" fill="none"/>
<path d="M15.684375 30.87539593252943L15.580078125 30.935611761386316L15.05859375 30.63453261710188L15.05859375 30.514100959388106L14.954296875 30.574316788244992L14.85 30.514100959388106L14.745703124999999 30.574316788244992L14.64140625 30.514100959388106L14.64140625 30.63453261710188L14.119921875 30.935611761386316L14.015625 30.87539593252943" stroke-width="0.03" stroke="#000000" fill="none"/>
<path d="M14.119921875 30.815180103672542L14.119921875 30.935611761386316" stroke-width="0.03" stroke="#000000" fill="none"/>
<path d="M14.4328125 30.754964274815652L14.745703124999999 30.935611761386316L14.85 30.87539593252943L14.954296875 30.935611761386316L15.267187499999999 30.754964274815652" stroke-width="0.03" stroke="#000000" fill="none"/>
<path d="M15.162890625 30.574316788244992L18.291796875 28.767841922538388L18.291796875 28.526978607110845" stroke-width="0.03" stroke="#000000" fill="none"/>
<path d="M18.396093750000002 28.46676277825396L17.353125 29.068921066822824L17.248828125 29.008705237965938L17.248828125 27.804388660828202" stroke-width="0.03" stroke="#000000" fill="none"/>
<path d="M17.353125 27.744172831971316L17.353125 29.068921066822824" stroke-width="0.03" stroke="#000000" fill="none"/>
<path d="M16.9359375 29.068921066822824L15.267187499999999 30.032374328533013L14.85 29.791511013105463L14.4328125 30.032374328533013L12.7640625 29.068921066822824L12.7640625 27.985036147398862" stroke-width="0.03" stroke="#000000" fill="none"/>
<path d="M12.451171875 27.804388660828202L12.451171875 29.008705237965938L12.346874999999999 29.068921066822824L11.303906249999999 28.46676277825396L11.303906249999999 27.26244620111622L10.46953125 26.780719570261127L9.948046875 27.081798714545563L9.948046875 29.008705237965938L10.782421874999999 29.490431868821034L11.72109375 28.94848940910905" stroke-width="0.03" stroke="#000000" fill="none"/>
<path d="M11.512500000000001 29.068921066822824L12.555468750000001 29.67107935539169" stroke-width="0.03" stroke="#000000" fill="none"/>
<path d="M12.555468750000001 29.430216039964147L12.555468750000001 30.032374328533013L13.285546875 30.45388513053122" stroke-width="0.03" stroke="#000000" fill="none"/>
<path d="M13.389843749999999 30.393669301674333L12.7640625 30.032374328533013L12.7640625 29.791511013105463L12.97265625 29.67107935539169" stroke-width="0.03" stroke="#000000" fill="none"/>
<path d="M12.7640625 29.791511013105463L13.702734374999999 30.333453472817446" stroke-width="0.03" stroke="#000000" fill="none"/>
<path d="M13.598437500000001 30.393669301674333L13.598437500000001 34.247482348515085L13.285546875 34.42812983508574L13.181249999999999 34.36791400622886L13.181249999999999 32.200144167380934L12.451171875 31.77863336538273" stroke-width="0.03" stroke="#000000" fill="none"/>
<path d="M12.451171875 31.658201707668955L12.659765624999999 31.53777004995518L13.181249999999999 31.838849194239618" stroke-width="0.03" stroke="#000000" fill="none"/>
<path d="M13.181249999999999 32.07971250966716L13.181249999999999 30.514100959388106L13.494140625 30.333453472817446L13.598437500000001 30.393669301674333" stroke-width="0.03" stroke="#000000" fill="none"/>
<path d="M13.598437500000001 30.63453261710188L14.119921875 30.333453472817446" stroke-width="0.03" stroke="#000000" fill="none"/>
<path d="M13.911328125 30.21302181510367L13.285546875 30.574316788244992L13.285546875 34.42812983508574" stroke-width="0.03" stroke="#000000" fill="none"/>
<path d="M13.598437500000001 33.52489240223244L14.4328125 34.00661903308754L14.85 33.76575571765999L15.267187499999999 34.00661903308754L16.1015625 33.52489240223244" stroke-width="0.03" stroke="#000000" fill="none"/>
<path d="M16.51875 33.40446074451867L16.623046875 33.464676573375556L21.003515625000002 30.935611761386316L21.212109374999997 31.056043419100085L21.525000000000002 30.87539593252943L21.525000000000002 30.393669301674333L21.31640625 30.273237643960556L22.567968750000002 29.550647697677917L22.567968750000002 30.032374328533013L21.525000000000002 30.63453261710188" stroke-width="0.03" stroke="#000000" fill="none"/>
<path d="M21.525000000000002 30.393669301674333L21.212109374999997 30.574316788244992L21.003515625000002 30.45388513053122L16.623046875 32.98294994252046L16.51875 32.92273411366358" stroke-width="0.03" stroke="#000000" fill="none"/>
<path d="M16.623046875 32.98294994252046L16.623046875 33.464676573375556" stroke-width="0.03" stroke="#000000" fill="none"/>
<path d="M16.1015625 33.043165771377346L15.267187499999999 33.52489240223244L14.85 33.2840290868049L14.4328125 33.52489240223244L13.598437500000001 33.043165771377346" stroke-width="0.03" stroke="#000000" fill="none"/>
<path d="M13.598437500000001 32.68187079823603L13.702734374999999 32.621654969379136L13.598437500000001 32.56143914052225" stroke-width="0.03" stroke="#000000" fill="none"/>
<path d="M13.181249999999999 32.32057582509471L12.555468750000001 31.959280851953388" stroke-width="0.03" stroke="#000000" fill="none"/>
<path d="M12.659765624999999 31.8990650230965L12.451171875 32.01949668081028L11.825390624999999 31.658201707668955L11.825390624999999 30.694748445958766L12.659765624999999 30.21302181510367L13.285546875 30.574316788244992" stroke-width="0.03" stroke="#000000" fill="none"/>
<path d="M13.181249999999999 30.63453261710188L12.451171875 31.056043419100085L11.825390624999999 30.694748445958766" stroke-width="0.03" stroke="#000000" fill="none"/>
<path d="M12.451171875 31.056043419100085L12.451171875 32.01949668081028" stroke-width="0.03" stroke="#000000" fill="none"/>
<path d="M12.138281249999999 32.200144167380934L12.138281249999999 31.838849194239618" stroke-width="0.03" stroke="#000000" fill="none"/>
<path d="M12.138281249999999 32.200144167380934L13.181249999999999 32.8023024559498" stroke-width="0.03" stroke="#000000" fill="none"/>
<path d="M13.181249999999999 32.92273411366358L13.076953125000001 32.98294994252046L8.696484375 30.45388513053122L8.487890625 30.574316788244992L8.175 30.393669301674333L8.38359375 30.273237643960556L7.13203125 29.550647697677917L7.13203125 30.032374328533013L8.175 30.63453261710188" stroke-width="0.03" stroke="#000000" fill="none"/>
<path d="M8.175 30.393669301674333L8.175 30.87539593252943L8.487890625 31.056043419100085L8.696484375 30.935611761386316L13.076953125000001 33.464676573375556L13.181249999999999 33.40446074451867" stroke-width="0.03" stroke="#000000" fill="none"/>
<path d="M13.076953125000001 33.464676573375556L13.076953125000001 32.98294994252046" stroke-width="0.03" stroke="#000000" fill="none"/>
<path d="M13.181249999999999 32.07971250966716L12.451171875 31.658201707668955" stroke-width="0.03" stroke="#000000" fill="none"/>
<path d="M12.97265625 31.71841753652584L13.181249999999999 31.597985878812068" stroke-width="0.03" stroke="#000000" fill="none"/>
<path d="M14.745703124999999 30.935611761386316L14.745703124999999 30.45388513053122" stroke-width="0.03" stroke="#000000" fill="none"/>
<path d="M14.954296875 30.45388513053122L14.954296875 30.935611761386316" stroke-width="0.03" stroke="#000000" fill="none"/>
<path d="M14.85 30.87539593252943L14.85 26.901151227974903L14.4328125 27.142014543402446L14.119921875 26.96136705683179L14.119921875 28.647410264824618L14.015625 28.7076260936815L11.303906249999999 27.142014543402446L11.303906249999999 23.047338181134148L7.7578125 21L7.7578125 17.86877689944189L7.862109374999999 17.808561070585L9.322265625 18.651582674581416L10.05234375 18.23007187258321" stroke-width="0.03" stroke="#000000" fill="none"/>
<path d="M9.739453124999999 18.049424386012547L9.322265625 18.290287701440096L9.322265625 18.651582674581416" stroke-width="0.03" stroke="#000000" fill="none"/>
<path d="M9.322265625 18.290287701440096L6.819140625 16.845107808874815L6.819140625 18.77201433229519L7.7578125 19.31395679200717" stroke-width="0.03" stroke="#000000" fill="none"/>
<path d="M7.7578125 19.67525176514849L6.714843749999999 19.073093476579622L6.610546875 19.13330930543651L6.610546875 20.337625882574244L7.653515625 20.939784171143113L7.653515625 21.903237432853302L7.13203125 22.204316577137735L5.46328125 21.240863315427546L5.46328125 20.277410053717357L6.4019531249999995 19.735467594005378" stroke-width="0.03" stroke="#000000" fill="none"/>
<path d="M6.193359375 19.85589925171915L6.193359375 18.651582674581416" stroke-width="0.03" stroke="#000000" fill="none"/>
<path d="M6.4019531249999995 18.77201433229519L5.88046875 18.470935188010756L5.88046875 17.62791358401434" stroke-width="0.03" stroke="#000000" fill="none"/>
<path d="M5.984765624999999 17.567697755157454L5.984765624999999 18.290287701440096L6.193359375 18.410719359153866L6.4019531249999995 18.290287701440096" stroke-width="0.03" stroke="#000000" fill="none"/>
<path d="M6.193359375 18.410719359153866L6.193359375 17.326834439729907" stroke-width="0.03" stroke="#000000" fill="none"/>
<path d="M6.4019531249999995 17.206402782016134L5.776171874999998 17.567697755157454" stroke-width="0.03" stroke="#000000" fill="none"/>
<path d="M5.671875 17.62791358401434L4.941796875 18.049424386012547L4.107421875 17.567697755157454" stroke-width="0.03" stroke="#000000" fill="none"/>
<path d="M4.107421875 17.928992728298773L3.7945312499999995 17.748345241728117L3.7945312499999995 16.54402866459038" stroke-width="0.03" stroke="#000000" fill="none"/>
<path d="M3.6902343750000006 16.483812835733495L3.5859375 16.54402866459038L3.1687499999999984 16.303165349162832L3.1687499999999984 21.36129497314132L2.960156250000001 21.481726630855093L2.960156250000001 21.843021603996412L3.3773437500000005 22.08388491942396L3.5859375 21.96345326171019L3.5859375 23.40863315427547L3.1687499999999984 23.167769838847924L3.1687499999999984 21.96345326171019" stroke-width="0.03" stroke="#000000" fill="none"/>
<path d="M3.3773437500000005 22.08388491942396L3.3773437500000005 21.72258994628264L3.5859375 21.602158288568866L3.5859375 16.54402866459038" stroke-width="0.03" stroke="#000000" fill="none"/>
<path d="M3.2730468750000017 16.24294952030595L3.1687499999999984 16.303165349162832" stroke-width="0.03" stroke="#000000" fill="none"/>
<path d="M3.7945312499999995 15.098848772025098L3.3773437500000005 14.85798545659755" stroke-width="0.03" stroke="#000000" fill="none"/>
<path d="M3.7945312499999995 14.617122141170004L3.7945312499999995 14.13539551031491" stroke-width="0.03" stroke="#000000" fill="none"/>
<path d="M6.297656249999999 15.94187037602151L6.714843749999999 16.18273369144906" stroke-width="0.03" stroke="#000000" fill="none"/>
<path d="M6.610546875 16.36338117801972L6.193359375 16.122517862592172" stroke-width="0.03" stroke="#000000" fill="none"/>
<path d="M6.297656249999999 16.062302033735286L9.739453124999999 18.049424386012547L9.739453124999999 17.567697755157454L7.236328125 16.122517862592172L8.905078125 15.159064600881985L9.84375 15.701007060593964" stroke-width="0.03" stroke="#000000" fill="none"/>
<path d="M8.5921875 16.423597006876605L12.242578125 18.531151016867643" stroke-width="0.03" stroke="#000000" fill="none"/>
<path d="M11.408203125 19.976330909432924L11.408203125 21.18064748657066" stroke-width="0.03" stroke="#000000" fill="none"/>
<path d="M11.408203125 19.976330909432924L7.7578125 17.86877689944189" stroke-width="0.03" stroke="#000000" fill="none"/>
<path d="M7.236328125 16.60424449344727L6.819140625 16.845107808874815" stroke-width="0.03" stroke="#000000" fill="none"/>
<path d="M6.9234374999999995 16.784891980017925L6.4019531249999995 16.483812835733495L6.4019531249999995 20.096762567146698L6.610546875 20.21719422486047" stroke-width="0.03" stroke="#000000" fill="none"/>
<path d="M6.610546875 19.13330930543651L7.7578125 19.795683422862265" stroke-width="0.03" stroke="#000000" fill="none"/>
<path d="M7.653515625 20.939784171143113L7.13203125 21.240863315427546L5.46328125 20.277410053717357" stroke-width="0.03" stroke="#000000" fill="none"/>
<path d="M5.46328125 20.397841711431134L5.3589843749999995 20.458057540288017L5.3589843749999995 22.14410074828085" stroke-width="0.03" stroke="#000000" fill="none"/>
<path d="M5.671875 21.96345326171019L4.62890625 22.565611550279055L4.62890625 24.492518073699433L5.671875 25.0946763622683L5.046093749999999 25.45597133540962L5.046093749999999 25.576402993123395" stroke-width="0.03" stroke="#000000" fill="none"/>
<path d="M5.046093749999999 25.45597133540962L4.62890625 25.215108019982072L5.254687500000001 24.85381304684075" stroke-width="0.03" stroke="#000000" fill="none"/>
<path d="M5.671875 25.215108019982072L4.003124999999999 26.17856128169226L4.003124999999999 27.142014543402446L4.107421875 27.202230372259333L4.107421875 27.322662029973106L4.941796875 27.804388660828202L6.610546875 26.840935399118013" stroke-width="0.03" stroke="#000000" fill="none"/>
<path d="M6.714843749999999 26.901151227974903L6.089062499999999 27.26244620111622L5.984765624999999 27.202230372259333" stroke-width="0.03" stroke="#000000" fill="none"/>
<path d="M6.089062499999999 27.26244620111622L6.089062499999999 27.744172831971316L6.714843749999999 27.382877858829996" stroke-width="0.03" stroke="#000000" fill="none"/>
<path d="M6.714843749999999 26.901151227974903L6.714843749999999 28.105467805112635L8.38359375 29.068921066822824L9.4265625 28.46676277825396" stroke-width="0.03" stroke="#000000" fill="none"/>
<path d="M9.530859375 28.526978607110845L9.84375 28.346331120540185" stroke-width="0.03" stroke="#000000" fill="none"/>
<path d="M9.84375 28.58719443596773L9.84375 27.864604489685092L6.610546875 25.9979137951216L6.610546875 25.75705047969405L6.4019531249999995 25.636618821980278L6.4019531249999995 21.903237432853302L5.776171874999998 21.54194245971198L5.776171874999998 21.42151080199821" stroke-width="0.03" stroke="#000000" fill="none"/>
<path d="M5.984765624999999 21.662374117425752L5.671875 21.843021603996412L5.671875 25.696834650837165L6.193359375 25.9979137951216L6.193359375 26.600072083690467L9.530859375 28.526978607110845L9.530859375 27.68395700311443" stroke-width="0.03" stroke="#000000" fill="none"/>
<path d="M9.948046875 27.081798714545563L10.782421874999999 27.563525345400656L10.782421874999999 29.490431868821034" stroke-width="0.03" stroke="#000000" fill="none"/>
<path d="M10.678125 29.430216039964147L10.573828124999999 29.490431868821034L9.113671875 28.647410264824618" stroke-width="0.03" stroke="#000000" fill="none"/>
<path d="M9.84375 28.58719443596773L9.948046875 28.647410264824618" stroke-width="0.03" stroke="#000000" fill="none"/>
<path d="M10.573828124999999 29.37000021110726L10.573828124999999 29.490431868821034" stroke-width="0.03" stroke="#000000" fill="none"/>
<path d="M11.408203125 28.767841922538388L11.408203125 28.526978607110845" stroke-width="0.03" stroke="#000000" fill="none"/>
<path d="M11.408203125 28.767841922538388L14.537109375 30.574316788244992L14.537109375 29.972158499676127" stroke-width="0.03" stroke="#000000" fill="none"/>
<path d="M14.4328125 30.032374328533013L14.4328125 27.142014543402446" stroke-width="0.03" stroke="#000000" fill="none"/>
<path d="M14.119921875 26.96136705683179L14.85 26.53985625483358L14.85 24.010791442844337L14.015625 24.492518073699433L14.015625 28.7076260936815" stroke-width="0.03" stroke="#000000" fill="none"/>
<path d="M15.580078125 28.647410264824618L15.580078125 26.96136705683179L14.85 26.53985625483358" stroke-width="0.03" stroke="#000000" fill="none"/>
<path d="M14.85 26.901151227974903L15.267187499999999 27.142014543402446L15.580078125 26.96136705683179" stroke-width="0.03" stroke="#000000" fill="none"/>
<path d="M15.267187499999999 27.142014543402446L15.267187499999999 30.032374328533013" stroke-width="0.03" stroke="#000000" fill="none"/>
<path d="M15.162890625 29.972158499676127L15.162890625 30.574316788244992" stroke-width="0.03" stroke="#000000" fill="none"/>
<path d="M15.580078125 30.333453472817446L16.1015625 30.63453261710188" stroke-width="0.03" stroke="#000000" fill="none"/>
<path d="M16.1015625 30.393669301674333L16.205859375 30.333453472817446L16.51875 30.514100959388106" stroke-width="0.03" stroke="#000000" fill="none"/>
<path d="M16.414453125 30.574316788244992L17.040234375 30.21302181510367L17.874609375000002 30.694748445958766L17.874609375000002 31.658201707668955L17.248828125 32.01949668081028L17.040234375 31.8990650230965" stroke-width="0.03" stroke="#000000" fill="none"/>
<path d="M17.14453125 31.959280851953388L16.51875 32.32057582509471" stroke-width="0.03" stroke="#000000" fill="none"/>
<path d="M16.51875 32.200144167380934L17.248828125 31.77863336538273" stroke-width="0.03" stroke="#000000" fill="none"/>
<path d="M17.248828125 32.01949668081028L17.248828125 31.056043419100085L16.51875 30.63453261710188" stroke-width="0.03" stroke="#000000" fill="none"/>
<path d="M16.414453125 30.574316788244992L16.414453125 34.42812983508574L16.51875 34.36791400622886L16.51875 32.200144167380934" stroke-width="0.03" stroke="#000000" fill="none"/>
<path d="M16.1015625 32.56143914052225L15.997265625 32.621654969379136L16.1015625 32.68187079823603" stroke-width="0.03" stroke="#000000" fill="none"/>
<path d="M16.51875 32.8023024559498L17.56171875 32.200144167380934L17.56171875 31.838849194239618" stroke-width="0.03" stroke="#000000" fill="none"/>
<path d="M17.248828125 31.056043419100085L17.874609375000002 30.694748445958766" stroke-width="0.03" stroke="#000000" fill="none"/>
<path d="M16.9359375 30.032374328533013L16.31015625 30.393669301674333" stroke-width="0.03" stroke="#000000" fill="none"/>
<path d="M16.1015625 30.393669301674333L16.1015625 34.247482348515085L16.414453125 34.42812983508574" stroke-width="0.03" stroke="#000000" fill="none"/>
<path d="M15.267187499999999 34.00661903308754L15.267187499999999 33.52489240223244" stroke-width="0.03" stroke="#000000" fill="none"/>
<path d="M14.85 33.2840290868049L14.85 33.76575571765999" stroke-width="0.03" stroke="#000000" fill="none"/>
<path d="M14.4328125 34.00661903308754L14.4328125 33.52489240223244" stroke-width="0.03" stroke="#000000" fill="none"/>
<path d="M15.580078125 30.935611761386316L15.580078125 30.815180103672542" stroke-width="0.03" stroke="#000000" fill="none"/>
<path d="M15.997265625 30.333453472817446L16.9359375 29.791511013105463L16.9359375 30.032374328533013" stroke-width="0.03" stroke="#000000" fill="none"/>
<path d="M16.9359375 29.791511013105463L16.72734375 29.67107935539169" stroke-width="0.03" stroke="#000000" fill="none"/>
<path d="M16.9359375 29.068921066822824L16.9359375 27.985036147398862" stroke-width="0.03" stroke="#000000" fill="none"/>
<path d="M15.684375 28.7076260936815L18.396093750000002 27.142014543402446L18.396093750000002 23.047338181134148L18.917578125000002 23.348417325418584" stroke-width="0.03" stroke="#000000" fill="none"/>
<path d="M19.021874999999998 23.40863315427547L19.751953125 23.830143956273677L19.751953125 22.264532405994622" stroke-width="0.03" stroke="#000000" fill="none"/>
<path d="M19.751953125 23.830143956273677L18.396093750000002 24.612949731413206" stroke-width="0.03" stroke="#000000" fill="none"/>
<path d="M16.72734375 24.13122310055811L15.684375 24.73338138912698L14.85 24.251654758271883L14.015625 24.73338138912698L12.97265625 24.13122310055811L12.97265625 23.890359785130563L13.285546875 23.709712298559904L14.119921875 24.191438929414996L14.85 23.76992812741679L15.580078125 24.191438929414996L16.414453125 23.709712298559904L16.72734375 23.890359785130563L16.72734375 24.13122310055811" stroke-width="0.03" stroke="#000000" fill="none"/>
<path d="M16.72734375 23.890359785130563L15.684375 24.492518073699433L15.684375 28.7076260936815L15.580078125 28.647410264824618" stroke-width="0.03" stroke="#000000" fill="none"/>
<path d="M15.788671874999999 30.21302181510367L16.414453125 30.574316788244992" stroke-width="0.03" stroke="#000000" fill="none"/>
<path d="M18.917578125000002 29.490431868821034L19.751953125 29.008705237965938L19.751953125 27.081798714545563L19.23046875 26.780719570261127L18.396093750000002 27.26244620111622L18.396093750000002 28.46676277825396" stroke-width="0.03" stroke="#000000" fill="none"/>
<path d="M18.917578125000002 27.563525345400656L18.396093750000002 27.26244620111622" stroke-width="0.03" stroke="#000000" fill="none"/>
<path d="M19.126171875 29.37000021110726L19.126171875 29.490431868821034L19.021874999999998 29.430216039964147" stroke-width="0.03" stroke="#000000" fill="none"/>
<path d="M19.126171875 29.490431868821034L20.586328125 28.647410264824618" stroke-width="0.03" stroke="#000000" fill="none"/>
<path d="M21.31640625 29.068921066822824L21.31640625 27.864604489685092" stroke-width="0.03" stroke="#000000" fill="none"/>
<path d="M21.525000000000002 28.94848940910905L22.567968750000002 29.550647697677917" stroke-width="0.03" stroke="#000000" fill="none"/>
<path d="M21.212109374999997 30.574316788244992L21.212109374999997 31.056043419100085" stroke-width="0.03" stroke="#000000" fill="none"/>
<path d="M21.003515625000002 30.935611761386316L21.003515625000002 30.45388513053122" stroke-width="0.03" stroke="#000000" fill="none"/>
<path d="M22.98515625 27.382877858829996L23.610937500000002 27.744172831971316L24.132421875000002 27.443093687686883" stroke-width="0.03" stroke="#000000" fill="none"/>
<path d="M23.715234375 27.202230372259333L23.610937500000002 27.26244620111622L22.98515625 26.901151227974903" stroke-width="0.03" stroke="#000000" fill="none"/>
<path d="M23.506640625 26.600072083690467L23.506640625 25.9979137951216L24.028125 25.696834650837165" stroke-width="0.03" stroke="#000000" fill="none"/>
<path d="M23.506640625 25.9979137951216L25.279687499999998 27.021582885688677" stroke-width="0.03" stroke="#000000" fill="none"/>
<path d="M24.758203125 27.322662029973106L24.758203125 27.804388660828202" stroke-width="0.03" stroke="#000000" fill="none"/>
<path d="M23.610937500000002 27.744172831971316L23.610937500000002 27.26244620111622" stroke-width="0.03" stroke="#000000" fill="none"/>
<path d="M25.279687499999998 26.419424597119807L25.696875000000002 26.17856128169226" stroke-width="0.03" stroke="#000000" fill="none"/>
<path d="M25.07109375 25.817266308550938L25.07109375 25.215108019982072" stroke-width="0.03" stroke="#000000" fill="none"/>
<path d="M26.1140625 23.40863315427547L25.07109375 22.8064748657066" stroke-width="0.03" stroke="#000000" fill="none"/>
<path d="M25.07109375 22.565611550279055L24.028125 23.167769838847924" stroke-width="0.03" stroke="#000000" fill="none"/>
<path d="M23.298046874999997 22.264532405994622L24.028125 21.843021603996412" stroke-width="0.03" stroke="#000000" fill="none"/>
<path d="M23.923828125000004 21.54194245971198L23.923828125000004 21.42151080199821" stroke-width="0.03" stroke="#000000" fill="none"/>
<path d="M24.23671875 20.518273369144907L24.341015624999997 20.458057540288017" stroke-width="0.03" stroke="#000000" fill="none"/>
<path d="M23.298046874999997 20.096762567146698L23.089453125000002 20.21719422486047" stroke-width="0.03" stroke="#000000" fill="none"/>
<path d="M23.298046874999997 20.096762567146698L23.298046874999997 16.483812835733495L22.7765625 16.784891980017925" stroke-width="0.03" stroke="#000000" fill="none"/>
<path d="M22.880859375 16.845107808874815L22.463671875 16.60424449344727L22.463671875 16.122517862592172L20.794921875 15.159064600881985L19.85625 15.701007060593964" stroke-width="0.03" stroke="#000000" fill="none"/>
<path d="M19.543359374999998 15.520359574023306L20.586328125 14.918201285454437L20.586328125 14.797769627740664L19.543359374999998 14.195611339171796" stroke-width="0.03" stroke="#000000" fill="none"/>
<path d="M20.064843749999998 13.171942248604722L20.064843749999998 13.051510590890949L18.6046875 12.208488986894533" stroke-width="0.03" stroke="#000000" fill="none"/>
<path d="M18.917578125000002 12.87086310432029L19.021874999999998 12.931078933177174" stroke-width="0.03" stroke="#000000" fill="none"/>
<path d="M19.960546875000002 13.111726419747836L20.064843749999998 13.051510590890949" stroke-width="0.03" stroke="#000000" fill="none"/>
<path d="M20.586328125 14.797769627740664L19.439062500000002 15.460143745166418" stroke-width="0.03" stroke="#000000" fill="none"/>
<path d="M21.107812499999998 16.423597006876605L17.457421875 18.531151016867643L17.457421875 19.49460427857783" stroke-width="0.03" stroke="#000000" fill="none"/>
<path d="M17.248828125 19.615035936291605L17.248828125 18.77201433229519" stroke-width="0.03" stroke="#000000" fill="none"/>
<path d="M17.457421875 18.531151016867643L16.414453125 17.928992728298773" stroke-width="0.03" stroke="#000000" fill="none"/>
<path d="M15.47578125 16.54402866459038L14.85 16.18273369144906L14.224218749999999 16.54402866459038" stroke-width="0.03" stroke="#000000" fill="none"/>
<path d="M14.328515625 16.60424449344727L14.85 16.303165349162832L15.371484375 16.60424449344727" stroke-width="0.03" stroke="#000000" fill="none"/>
<path d="M15.267187499999999 16.66446032230415L14.85 16.423597006876605L14.4328125 16.66446032230415" stroke-width="0.03" stroke="#000000" fill="none"/>
<path d="M14.85 16.905323637731698L14.85 16.303165349162832" stroke-width="0.03" stroke="#000000" fill="none"/>
<path d="M14.85 16.18273369144906L14.85 15.339712087452645L13.494140625 16.122517862592172" stroke-width="0.03" stroke="#000000" fill="none"/>
<path d="M14.85 15.339712087452645L16.205859375 16.122517862592172" stroke-width="0.03" stroke="#000000" fill="none"/>
<path d="M14.85 20.03654673828981L14.85 21L14.015625 21.481726630855093L14.015625 21.36129497314132" stroke-width="0.03" stroke="#000000" fill="none"/>
<path d="M14.015625 21.481726630855093L14.119921875 21.54194245971198L14.119921875 24.191438929414996" stroke-width="0.03" stroke="#000000" fill="none"/>
<path d="M14.015625 24.492518073699433L12.97265625 23.890359785130563" stroke-width="0.03" stroke="#000000" fill="none"/>
<path d="M11.303906249999999 23.76992812741679L10.678125 23.40863315427547L9.948046875 23.830143956273677L9.948046875 22.264532405994622" stroke-width="0.03" stroke="#000000" fill="none"/>
<path d="M10.678125 22.686043207992828L10.678125 23.40863315427547" stroke-width="0.03" stroke="#000000" fill="none"/>
<path d="M10.782421874999999 23.348417325418584L11.303906249999999 23.047338181134148" stroke-width="0.03" stroke="#000000" fill="none"/>
<path d="M10.88671875 22.8064748657066L10.88671875 23.288201496561694L11.303906249999999 23.529064811989244" stroke-width="0.03" stroke="#000000" fill="none"/>
<path d="M11.303906249999999 23.649496469703017L10.782421874999999 23.348417325418584L10.782421874999999 22.746259036849715" stroke-width="0.03" stroke="#000000" fill="none"/>
<path d="M9.948046875 23.830143956273677L11.303906249999999 24.612949731413206" stroke-width="0.03" stroke="#000000" fill="none"/>
<path d="M11.303906249999999 27.26244620111622L10.782421874999999 27.563525345400656" stroke-width="0.03" stroke="#000000" fill="none"/>
<path d="M12.346874999999999 27.744172831971316L12.346874999999999 29.068921066822824" stroke-width="0.03" stroke="#000000" fill="none"/>
<path d="M8.696484375 30.45388513053122L8.696484375 30.935611761386316" stroke-width="0.03" stroke="#000000" fill="none"/>
<path d="M8.487890625 31.056043419100085L8.487890625 30.574316788244992" stroke-width="0.03" stroke="#000000" fill="none"/>
<path d="M8.38359375 29.068921066822824L8.38359375 27.864604489685092" stroke-width="0.03" stroke="#000000" fill="none"/>
<path d="M8.175 28.94848940910905L7.13203125 29.550647697677917" stroke-width="0.03" stroke="#000000" fill="none"/>
<path d="M6.089062499999999 27.744172831971316L5.567578125 27.443093687686883" stroke-width="0.03" stroke="#000000" fill="none"/>
<path d="M4.941796875 27.322662029973106L6.193359375 26.600072083690467" stroke-width="0.03" stroke="#000000" fill="none"/>
<path d="M6.193359375 25.9979137951216L4.4203125 27.021582885688677L4.4203125 26.419424597119807L5.671875 25.696834650837165" stroke-width="0.03" stroke="#000000" fill="none"/>
<path d="M4.62890625 25.817266308550938L4.62890625 25.215108019982072" stroke-width="0.03" stroke="#000000" fill="none"/>
<path d="M4.003124999999999 26.17856128169226L4.4203125 26.419424597119807" stroke-width="0.03" stroke="#000000" fill="none"/>
<path d="M4.4203125 27.021582885688677L4.941796875 27.322662029973106L4.941796875 27.804388660828202" stroke-width="0.03" stroke="#000000" fill="none"/>
<path d="M3.5859375 23.40863315427547L4.62890625 22.8064748657066" stroke-width="0.03" stroke="#000000" fill="none"/>
<path d="M4.62890625 22.565611550279055L5.671875 23.167769838847924" stroke-width="0.03" stroke="#000000" fill="none"/>
<path d="M6.4019531249999995 22.264532405994622L5.671875 21.843021603996412" stroke-width="0.03" stroke="#000000" fill="none"/>
<path d="M5.46328125 20.518273369144907L5.3589843749999995 20.458057540288017" stroke-width="0.03" stroke="#000000" fill="none"/>
<path d="M4.941796875 18.77201433229519L4.941796875 18.049424386012547" stroke-width="0.03" stroke="#000000" fill="none"/>
<path d="M5.88046875 17.26661861087302L6.4019531249999995 16.965539466588588" stroke-width="0.03" stroke="#000000" fill="none"/>
<path d="M7.236328125 16.60424449344727L7.236328125 16.122517862592172" stroke-width="0.03" stroke="#000000" fill="none"/>
<path d="M7.236328125 16.24294952030595L6.714843749999999 15.94187037602151" stroke-width="0.03" stroke="#000000" fill="none"/>
<path d="M6.714843749999999 15.460143745166418L6.610546875 15.399927916309531" stroke-width="0.03" stroke="#000000" fill="none"/>
<path d="M9.530859375 13.232158077461609L11.199609375 14.195611339171796L11.199609375 14.797769627740664" stroke-width="0.03" stroke="#000000" fill="none"/>
<path d="M9.739453124999999 13.111726419747836L9.63515625 13.051510590890949L11.095312499999999 12.208488986894533" stroke-width="0.03" stroke="#000000" fill="none"/>
<path d="M11.095312499999999 11.365467382898117L12.138281249999999 11.967625671466987" stroke-width="0.03" stroke="#000000" fill="none"/>
<path d="M11.303906249999999 11.245035725184344L11.303906249999999 10.04071914804661L10.88671875 9.799855832619063L9.84375 10.40201412118793" stroke-width="0.03" stroke="#000000" fill="none"/>
<path d="M9.63515625 10.281582463474159L9.322265625 10.462229950044819" stroke-width="0.03" stroke="#000000" fill="none"/>
<path d="M9.322265625 10.703093265472365L9.739453124999999 10.943956580899911" stroke-width="0.03" stroke="#000000" fill="none"/>
<path d="M9.739453124999999 10.703093265472365L10.05234375 10.522445778901705L10.05234375 10.763309094329252L11.303906249999999 10.04071914804661" stroke-width="0.03" stroke="#000000" fill="none"/>
<path d="M10.05234375 10.522445778901705L9.63515625 10.281582463474159" stroke-width="0.03" stroke="#000000" fill="none"/>
<path d="M9.63515625 13.051510590890949L9.63515625 13.171942248604722" stroke-width="0.03" stroke="#000000" fill="none"/>
<path d="M10.05234375 17.387050268586794L9.739453124999999 17.567697755157454" stroke-width="0.03" stroke="#000000" fill="none"/>
<path d="M7.13203125 21.240863315427546L7.13203125 22.204316577137735" stroke-width="0.03" stroke="#000000" fill="none"/>
<path d="M3.5859375 21.602158288568866L3.1687499999999984 21.36129497314132" stroke-width="0.03" stroke="#000000" fill="none"/>
<path d="M2.960156250000001 21.481726630855093L3.3773437500000005 21.72258994628264" stroke-width="0.03" stroke="#000000" fill="none"/>
<path d="M14.119921875 21.54194245971198L14.85 21.120431657713773L15.580078125 21.54194245971198L15.684375 21.481726630855093L15.684375 21.36129497314132" stroke-width="0.03" stroke="#000000" fill="none"/>
<path d="M15.684375 21.481726630855093L14.85 21" stroke-width="0.03" stroke="#000000" fill="none"/>
<path d="M14.85 21.120431657713773L14.85 23.76992812741679" stroke-width="0.03" stroke="#000000" fill="none"/>
<path d="M14.85 24.010791442844337L15.684375 24.492518073699433" stroke-width="0.03" stroke="#000000" fill="none"/>
<path d="M15.580078125 24.191438929414996L15.580078125 21.54194245971198" stroke-width="0.03" stroke="#000000" fill="none"/>
<path d="M14.954296875 20.939784171143113L14.954296875 20.096762567146698" stroke-width="0.03" stroke="#000000" fill="none"/>
<path d="M14.745703124999999 20.096762567146698L14.745703124999999 20.939784171143113" stroke-width="0.03" stroke="#000000" fill="none"/>
<path d="M22.567968750000002 21.240863315427546L22.567968750000002 22.204316577137735" stroke-width="0.03" stroke="#000000" fill="none"/>
<path d="M26.1140625 21.602158288568866L26.53125 21.36129497314132" stroke-width="0.03" stroke="#000000" fill="none"/>
<path d="M26.73984375 21.481726630855093L26.322656249999998 21.72258994628264" stroke-width="0.03" stroke="#000000" fill="none"/>
<path d="M22.98515625 15.460143745166418L23.089453125000002 15.399927916309531" stroke-width="0.03" stroke="#000000" fill="none"/>
<path d="M19.960546875000002 10.943956580899911L19.960546875000002 10.703093265472365" stroke-width="0.03" stroke="#000000" fill="none"/>
<path d="M18.6046875 11.365467382898117L17.56171875 11.967625671466987" stroke-width="0.03" stroke="#000000" fill="none"/>
<path d="M18.396093750000002 11.245035725184344L18.396093750000002 10.04071914804661" stroke-width="0.03" stroke="#000000" fill="none"/>
<path d="M16.31015625 10.04071914804661L15.89296875 10.281582463474159L15.89296875 11.004172409756798" stroke-width="0.03" stroke="#000000" fill="none"/>
<path d="M16.31015625 10.763309094329252L16.31015625 10.04071914804661L15.788671874999999 9.739640003762176" stroke-width="0.03" stroke="#000000" fill="none"/>
<path d="M15.788671874999999 10.22136663461727L15.89296875 10.281582463474159" stroke-width="0.03" stroke="#000000" fill="none"/>
<path d="M15.371484375 10.703093265472365L15.371484375 9.257913372907083L15.788671874999999 9.017050057479535" stroke-width="0.03" stroke="#000000" fill="none"/>
<path d="M15.371484375 9.257913372907083L14.85 8.956834228622649L14.328515625 9.257913372907083L14.328515625 10.703093265472365" stroke-width="0.03" stroke="#000000" fill="none"/>
<path d="M14.85 11.004172409756798L14.85 8.956834228622649" stroke-width="0.03" stroke="#000000" fill="none"/>
<path d="M14.328515625 9.257913372907083L13.911328125 9.017050057479535" stroke-width="0.03" stroke="#000000" fill="none"/>
<path d="M9.237499999999999 2.533333333333333L1.5 2.533333333333333" stroke-width="0.03" stroke="#000000" fill="none"/>
<path d="M2.1166666666666667 2.2291666666666665L2.1166666666666667 1.8208333333333333" stroke-width="0.03" stroke="#000000" fill="none"/>
<path d="M2.0875 1.6166666666666667L2.1166666666666667 1.6458333333333333L2.145833333333333 1.6166666666666667L2.1166666666666667 1.5875L2.0875 1.6166666666666667" stroke-width="0.03" stroke="#000000" fill="none"/>
<path d="M2.3208333333333333 2.1416666666666666L2.35 2.2L2.4375 2.2291666666666665L2.525 2.2291666666666665L2.6125 2.2L2.6416666666666666 2.1416666666666666L2.6416666666666666 2.1125L2.6125 2.0541666666666667L2.5541666666666667 2.025L2.408333333333333 1.9958333333333333L2.35 1.9666666666666666L2.3208333333333333 1.9083333333333332L2.35 1.85L2.4375 1.8208333333333333L2.525 1.8208333333333333L2.6125 1.85L2.6416666666666666 1.9083333333333332" stroke-width="0.03" stroke="#000000" fill="none"/>
<path d="M2.9625 1.8208333333333333L2.904166666666667 1.85L2.845833333333333 1.9083333333333332L2.8166666666666664 1.9958333333333333L2.8166666666666664 2.0541666666666667L2.845833333333333 2.1416666666666666L2.904166666666667 2.2L2.9625 2.2291666666666665L3.05 2.2291666666666665L3.1083333333333334 2.2L3.1666666666666665 2.1416666666666666L3.1958333333333333 2.0541666666666667L3.1958333333333333 1.9958333333333333L3.1666666666666665 1.9083333333333332L3.1083333333333334 1.85L3.05 1.8208333333333333L2.9625 1.8208333333333333" stroke-width="0.03" stroke="#000000" fill="none"/>
<path d="M3.283333333333333 2.2874999999999996L3.75 2.2874999999999996" stroke-width="0.03" stroke="#000000" fill="none"/>
<path d="M3.8375 2.1416666666666666L3.8666666666666663 2.2L3.9541666666666666 2.2291666666666665L4.041666666666666 2.2291666666666665L4.129166666666666 2.2L4.158333333333333 2.1416666666666666L4.158333333333333 2.1125L4.129166666666666 2.0541666666666667L4.070833333333333 2.025L3.925 1.9958333333333333L3.8666666666666663 1.9666666666666666L3.8375 1.9083333333333332L3.8666666666666663 1.85L3.9541666666666666 1.8208333333333333L4.041666666666666 1.8208333333333333L4.129166666666666 1.85L4.158333333333333 1.9083333333333332" stroke-width="0.03" stroke="#000000" fill="none"/>
<path d="M4.3625 1.9375L4.449999999999999 1.85L4.508333333333333 1.8208333333333333L4.595833333333333 1.8208333333333333L4.654166666666667 1.85L4.683333333333334 1.9375L4.683333333333334 2.2291666666666665" stroke-width="0.03" stroke="#000000" fill="none"/>
<path d="M4.3625 2.2291666666666665L4.3625 1.8208333333333333" stroke-width="0.03" stroke="#000000" fill="none"/>
<path d="M5.033333333333333 1.8208333333333333L4.975 1.85L4.916666666666666 1.9083333333333332L4.887499999999999 1.9958333333333333L4.887499999999999 2.0541666666666667L4.916666666666666 2.1416666666666666L4.975 2.2L5.033333333333333 2.2291666666666665L5.120833333333334 2.2291666666666665L5.179166666666666 2.2L5.2375 2.1416666666666666L5.266666666666666 2.0541666666666667L5.266666666666666 1.9958333333333333L5.2375 1.9083333333333332L5.179166666666666 1.85L5.120833333333334 1.8208333333333333L5.033333333333333 1.8208333333333333" stroke-width="0.03" stroke="#000000" fill="none"/>
<path d="M5.441666666666666 1.8208333333333333L5.558333333333334 2.2291666666666665L5.675 1.8208333333333333L5.791666666666666 2.2291666666666665L5.908333333333333 1.8208333333333333" stroke-width="0.03" stroke="#000000" fill="none"/>
<path d="M6.054166666666666 1.8208333333333333L6.258333333333333 1.8208333333333333" stroke-width="0.03" stroke="#000000" fill="none"/>
<path d="M6.2875 1.6166666666666667L6.229166666666666 1.6166666666666667L6.1708333333333325 1.6458333333333333L6.141666666666667 1.7333333333333334L6.141666666666667 2.2291666666666665" stroke-width="0.03" stroke="#000000" fill="none"/>
<path d="M6.4624999999999995 2.2291666666666665L6.4624999999999995 1.6166666666666667" stroke-width="0.03" stroke="#000000" fill="none"/>
<path d="M7.016666666666666 1.8208333333333333L7.016666666666666 2.2291666666666665" stroke-width="0.03" stroke="#000000" fill="none"/>
<path d="M7.016666666666666 2.1416666666666666L6.958333333333333 2.2L6.8999999999999995 2.2291666666666665L6.812499999999999 2.2291666666666665L6.754166666666666 2.2L6.695833333333333 2.1416666666666666L6.666666666666666 2.0541666666666667L6.666666666666666 1.9958333333333333L6.695833333333333 1.9083333333333332L6.754166666666666 1.85L6.812499999999999 1.8208333333333333L6.8999999999999995 1.8208333333333333L6.958333333333333 1.85L7.016666666666666 1.9083333333333332" stroke-width="0.03" stroke="#000000" fill="none"/>
<path d="M7.249999999999999 2.1125L7.541666666666666 1.8208333333333333" stroke-width="0.03" stroke="#000000" fill="none"/>
<path d="M7.366666666666666 1.9958333333333333L7.570833333333333 2.2291666666666665" stroke-width="0.03" stroke="#000000" fill="none"/>
<path d="M7.716666666666666 1.9958333333333333L8.066666666666666 1.9958333333333333L8.066666666666666 1.9375L8.0375 1.8791666666666667L8.008333333333333 1.85L7.949999999999999 1.8208333333333333L7.8625 1.8208333333333333L7.804166666666666 1.85L7.745833333333333 1.9083333333333332L7.716666666666666 1.9958333333333333L7.716666666666666 2.0541666666666667L7.745833333333333 2.1416666666666666L7.804166666666666 2.2L7.8625 2.2291666666666665L7.949999999999999 2.2291666666666665L8.008333333333333 2.2L8.066666666666666 2.1416666666666666" stroke-width="0.03" stroke="#000000" fill="none"/>
<path d="M8.475 2.2291666666666665L8.475 1.6166666666666667L8.3875 1.7041666666666666L8.329166666666666 1.7333333333333334" stroke-width="0.03" stroke="#000000" fill="none"/>
<path d="M7.249999999999999 1.6166666666666667L7.249999999999999 2.2291666666666665" stroke-width="0.03" stroke="#000000" fill="none"/>
<path d="M5.5511202936921045 3.383983116796798L5.298756414952564 3.383983116796798L5.479016328337949 3.2037232034114123L5.5150683110150265 3.149645229395796L5.533094302353565 3.113593246718719L5.533094302353565 3.077541264041642L5.5150683110150265 3.041489281364565L5.497042319676488 3.023463290026026L5.46099033699941 3.0054372986874878L5.388886371645256 3.0054372986874878L5.352834388968179 3.023463290026026L5.33480839762964 3.041489281364565L5.316782406291102 3.077541264041642L5.316782406291102 3.0955672553801805" stroke-width="0.03" stroke="#000000" fill="none"/>
<path d="M4.938236588181791 3.0054372986874878L4.938236588181791 3.383983116796798L5.064418527551561 3.383983116796798L5.1184965015671775 3.3659571254582596L5.154548484244255 3.3299051427811825L5.172574475582794 3.293853160104105L5.190600466921332 3.2397751860884894L5.190600466921332 3.149645229395796L5.172574475582794 3.0955672553801805L5.154548484244255 3.0595152727031034L5.1184965015671775 3.023463290026026L5.064418527551561 3.0054372986874878L4.938236588181791 3.0054372986874878" stroke-width="0.03" stroke="#000000" fill="none"/>
<path d="M4.613768744088096 3.077541264041642L4.649820726765174 3.0595152727031034L4.7038987007807895 3.0054372986874878L4.7038987007807895 3.383983116796798" stroke-width="0.03" stroke="#000000" fill="none"/>
<path d="M4.289300899994402 3.0054372986874878L4.235222925978786 3.023463290026026L4.217196934640247 3.0595152727031034L4.217196934640247 3.0955672553801805L4.235222925978786 3.1316192380572576L4.2712749086558635 3.149645229395796L4.343378874010018 3.167671220734335L4.397456848025634 3.1856972120728733L4.433508830702711 3.221749194749951L4.45153482204125 3.257801177427028L4.45153482204125 3.3118791514426436L4.433508830702711 3.3479311341197207L4.415482839364172 3.3659571254582596L4.361404865348556 3.383983116796798L4.289300899994402 3.383983116796798L4.235222925978786 3.3659571254582596L4.217196934640247 3.3479311341197207L4.199170943301709 3.3118791514426436L4.199170943301709 3.257801177427028L4.217196934640247 3.221749194749951L4.253248917317325 3.1856972120728733L4.3073268913329406 3.167671220734335L4.379430856687095 3.149645229395796L4.415482839364172 3.1316192380572576L4.433508830702711 3.0955672553801805L4.433508830702711 3.0595152727031034L4.415482839364172 3.023463290026026L4.361404865348556 3.0054372986874878L4.289300899994402 3.0054372986874878" stroke-width="0.03" stroke="#000000" fill="none"/>
<path d="M4.091014995270477 3.0955672553801805L4.072989003931939 3.0595152727031034L4.036937021254861 3.023463290026026L4.000885038577785 3.0054372986874878L3.9287810732236297 3.0054372986874878L3.8927290905465526 3.023463290026026L3.8566771078694755 3.0595152727031034L3.838651116530937 3.0955672553801805L3.8206251251923984 3.149645229395796L3.8206251251923984 3.2397751860884894L3.838651116530937 3.293853160104105L3.8566771078694755 3.3299051427811825L3.8927290905465526 3.3659571254582596L3.9287810732236297 3.383983116796798L4.000885038577785 3.383983116796798L4.036937021254861 3.3659571254582596L4.072989003931939 3.3299051427811825L4.091014995270477 3.293853160104105" stroke-width="0.03" stroke="#000000" fill="none"/>
<path d="M3.712469177161167 3.383983116796798L3.4601052984216265 3.383983116796798L3.6403652118070124 3.2037232034114123L3.6764171944840895 3.149645229395796L3.694443185822628 3.113593246718719L3.694443185822628 3.077541264041642L3.6764171944840895 3.041489281364565L3.658391203145551 3.023463290026026L3.622339220468474 3.0054372986874878L3.5502352551143197 3.0054372986874878L3.514183272437242 3.023463290026026L3.4961572810987036 3.041489281364565L3.478131289760165 3.077541264041642L3.478131289760165 3.0955672553801805" stroke-width="0.03" stroke="#000000" fill="none"/>
<path d="M3.3158973677133177 3.0054372986874878L3.1356374543279317 3.0054372986874878L3.117611462989393 3.167671220734335L3.1356374543279317 3.149645229395796L3.1897154283435474 3.1316192380572576L3.243793402359163 3.1316192380572576L3.297871376374779 3.149645229395796L3.333923359051856 3.1856972120728733L3.3519493503903948 3.2397751860884894L3.3519493503903948 3.2758271687655665L3.333923359051856 3.3299051427811825L3.297871376374779 3.3659571254582596L3.243793402359163 3.383983116796798L3.1897154283435474 3.383983116796798L3.1356374543279317 3.3659571254582596L3.117611462989393 3.3479311341197207L3.0995854716508546 3.3118791514426436" stroke-width="0.03" stroke="#000000" fill="none"/>
<path d="M2.7390656448800828 3.383983116796798L2.7390656448800828 3.0054372986874878L2.8652475842498526 3.0054372986874878L2.9193255582654682 3.023463290026026L2.955377540942546 3.0595152727031034L2.9734035322810843 3.0955672553801805L2.991429523619623 3.149645229395796L2.991429523619623 3.2397751860884894L2.9734035322810843 3.293853160104105L2.955377540942546 3.3299051427811825L2.9193255582654682 3.3659571254582596L2.8652475842498526 3.383983116796798L2.7390656448800828 3.383983116796798" stroke-width="0.03" stroke="#000000" fill="none"/>
<path d="M2.6128837055103125 3.383983116796798L2.414597800786388 3.1316192380572576" stroke-width="0.03" stroke="#000000" fill="none"/>
<path d="M2.6128837055103125 3.1316192380572576L2.414597800786388 3.383983116796798" stroke-width="0.03" stroke="#000000" fill="none"/>
<path d="M2.1622339220468474 3.0054372986874878L2.1081559480312317 3.023463290026026L2.072103965354154 3.077541264041642L2.0540779740156156 3.167671220734335L2.0540779740156156 3.221749194749951L2.072103965354154 3.3118791514426436L2.1081559480312317 3.3659571254582596L2.1622339220468474 3.383983116796798L2.1982859047239245 3.383983116796798L2.2523638787395406 3.3659571254582596L2.2884158614166177 3.3118791514426436L2.3064418527551562 3.221749194749951L2.3064418527551562 3.167671220734335L2.2884158614166177 3.077541264041642L2.2523638787395406 3.023463290026026L2.1982859047239245 3.0054372986874878L2.1622339220468474 3.0054372986874878" stroke-width="0.03" stroke="#000000" fill="none"/>
</svg>
