<?xml version="1.0" standalone="no"?>
<svg width="29.7cm" height="42cm" version="1.1" xmlns="http://www.w3.org/2000/svg" viewBox="0.0 0.0 29.700001 42.000001">
<path d="M10.88671875 8.956834228622649L11.512500000000001 8.595539255481327L14.85 10.522445778901705L18.1875 8.595539255481327L18.81328125 8.956834228622649L18.81328125 9.920287490332836" stroke-width="0.03" stroke="#000000" fill="none"/>
<path d="M18.6046875 9.799855832619063L17.978906249999998 10.161150805760384L17.978906249999998 10.883740752043025L16.72734375 11.606330698325666" stroke-width="0.03" stroke="#000000" fill="none"/>
<path d="M17.353125 11.967625671466987L16.72734375 12.328920644608306L14.85 11.245035725184344L12.97265625 12.328920644608306L12.346874999999999 11.967625671466987L12.346874999999999 12.208488986894533" stroke-width="0.03" stroke="#000000" fill="none"/>
<path d="M12.346874999999999 12.08805732918076L11.825390624999999 12.389136473465193" stroke-width="0.03" stroke="#000000" fill="none"/>
<path d="M11.72109375 12.328920644608306L14.224218749999999 10.883740752043025L10.88671875 8.956834228622649L10.88671875 9.920287490332836" stroke-width="0.03" stroke="#000000" fill="none"/>
<path d="M11.095312499999999 9.799855832619063L8.487890625 11.305251554041233L8.487890625 11.425683211755006" stroke-width="0.03" stroke="#000000" fill="none"/>
<path d="M8.487890625 11.305251554041233L8.5921875 11.365467382898117" stroke-width="0.03" stroke="#000000" fill="none"/>
<path d="M9.322265625 10.943956580899911L6.297656249999999 12.690215617749628L6.297656249999999 15.098848772025098" stroke-width="0.03" stroke="#000000" fill="none"/>
<path d="M5.3589843749999995 14.556906312313117L5.150390625 14.67733797002689L5.150390625 15.399927916309531L4.524609375000001 15.761222889450853L4.524609375000001 16.0020862048784L7.5492187500000005 17.748345241728117" stroke-width="0.03" stroke="#000000" fill="none"/>
<path d="M7.5492187500000005 17.50748192630057L4.524609375000001 15.761222889450853" stroke-width="0.03" stroke="#000000" fill="none"/>
<path d="M5.150390625 15.399927916309531L9.63515625 17.989208557155663L9.21796875 18.23007187258321L9.21796875 22.08388491942396L7.5492187500000005 21.120431657713773" stroke-width="0.03" stroke="#000000" fill="none"/>
<path d="M7.5492187500000005 21.481726630855093L6.714843749999999 21L6.714843749999999 19.31395679200717L7.5492187500000005 18.832230161152076" stroke-width="0.03" stroke="#000000" fill="none"/>
<path d="M7.5492187500000005 18.350503530296983L5.984765624999999 19.253740963150285L5.984765624999999 21.662374117425752L4.941796875 22.264532405994622L4.941796875 22.746259036849715L4.3160156249999995 22.384964063708395L4.3160156249999995 21.903237432853302L5.3589843749999995 21.301079144284433L5.984765624999999 21.662374117425752" stroke-width="0.03" stroke="#000000" fill="none"/>
<path d="M6.4019531249999995 21.903237432853302L4.941796875 22.746259036849715" stroke-width="0.03" stroke="#000000" fill="none"/>
<path d="M5.150390625 22.62582737913594L5.150390625 23.709712298559904" stroke-width="0.03" stroke="#000000" fill="none"/>
<path d="M5.776171874999998 23.348417325418584L5.984765624999999 23.227985667704807" stroke-width="0.03" stroke="#000000" fill="none"/>
<path d="M5.88046875 23.288201496561694L5.88046875 22.686043207992828" stroke-width="0.03" stroke="#000000" fill="none"/>
<path d="M5.984765624999999 22.746259036849715L5.46328125 22.44517989256528" stroke-width="0.03" stroke="#000000" fill="none"/>
<path d="M5.776171874999998 22.62582737913594L5.776171874999998 25.51618716426651L2.438671874999999 23.58928064084613L2.438671874999999 24.311870587128773L5.776171874999998 26.238777110549147L5.776171874999998 30.0925901573899L6.4019531249999995 30.45388513053122L7.236328125 29.972158499676127" stroke-width="0.03" stroke="#000000" fill="none"/>
<path d="M7.027734374999999 29.851726841962353L7.027734374999999 29.12913689567971L7.653515625 28.767841922538388L7.653515625 27.322662029973106" stroke-width="0.03" stroke="#000000" fill="none"/>
<path d="M8.279296875 26.96136705683179L9.530859375 26.238777110549147L7.653515625 25.154892191125185L6.4019531249999995 25.877482137407824L6.4019531249999995 23.709712298559904L7.653515625 22.98712235227726L7.653515625 25.154892191125185" stroke-width="0.03" stroke="#000000" fill="none"/>
<path d="M6.4019531249999995 25.877482137407824L8.279296875 26.96136705683179L8.279296875 27.68395700311443L8.487890625 27.563525345400656" stroke-width="0.03" stroke="#000000" fill="none"/>
<path d="M8.38359375 27.50330951654377L8.38359375 27.382877858829996L8.80078125 27.142014543402446L9.84375 27.744172831971316L9.84375 27.864604489685092L8.38359375 28.7076260936815L8.38359375 29.430216039964147L8.80078125 29.67107935539169L9.84375 29.068921066822824L9.84375 28.346331120540185L8.80078125 28.94848940910905L8.80078125 29.67107935539169" stroke-width="0.03" stroke="#000000" fill="none"/>
<path d="M8.905078125 29.610863526534803L8.905078125 30.815180103672542L11.9296875 32.56143914052225L14.015625 31.35712256338452" stroke-width="0.03" stroke="#000000" fill="none"/>
<path d="M14.015625 32.44100748280849L14.015625 28.94848940910905" stroke-width="0.03" stroke="#000000" fill="none"/>
<path d="M14.224218749999999 29.068921066822824L14.224218749999999 32.56143914052225L14.015625 32.44100748280849" stroke-width="0.03" stroke="#000000" fill="none"/>
<path d="M14.224218749999999 32.56143914052225L14.85 32.200144167380934L15.47578125 32.56143914052225L15.684375 32.44100748280849L15.684375 28.94848940910905" stroke-width="0.03" stroke="#000000" fill="none"/>
<path d="M15.47578125 29.068921066822824L15.47578125 32.56143914052225" stroke-width="0.03" stroke="#000000" fill="none"/>
<path d="M14.85 32.200144167380934L14.85 27.021582885688677L14.4328125 27.26244620111622L11.095312499999999 25.335539677695845L11.095312499999999 27.26244620111622" stroke-width="0.03" stroke="#000000" fill="none"/>
<path d="M10.782421874999999 27.081798714545563L10.782421874999999 28.04525197625575L12.242578125 28.888273580252164L13.076953125000001 28.40654694939707" stroke-width="0.03" stroke="#000000" fill="none"/>
<path d="M13.494140625 28.647410264824618L11.9296875 29.550647697677917L9.84375 28.346331120540185" stroke-width="0.03" stroke="#000000" fill="none"/>
<path d="M9.4265625 28.105467805112635L9.4265625 27.985036147398862L8.38359375 27.382877858829996" stroke-width="0.03" stroke="#000000" fill="none"/>
<path d="M8.38359375 27.50330951654377L9.4265625 28.105467805112635" stroke-width="0.03" stroke="#000000" fill="none"/>
<path d="M9.4265625 27.985036147398862L9.84375 27.744172831971316" stroke-width="0.03" stroke="#000000" fill="none"/>
<path d="M9.4265625 27.50330951654377L10.573828124999999 26.840935399118013" stroke-width="0.03" stroke="#000000" fill="none"/>
<path d="M10.46953125 26.901151227974903L9.63515625 26.419424597119807L9.530859375 26.479640425976694" stroke-width="0.03" stroke="#000000" fill="none"/>
<path d="M9.530859375 26.238777110549147L9.530859375 26.96136705683179L9.009374999999999 27.26244620111622" stroke-width="0.03" stroke="#000000" fill="none"/>
<path d="M8.905078125 27.804388660828202L8.905078125 28.40654694939707" stroke-width="0.03" stroke="#000000" fill="none"/>
<path d="M8.5921875 28.58719443596773L7.653515625 28.04525197625575" stroke-width="0.03" stroke="#000000" fill="none"/>
<path d="M8.38359375 27.623741174257542L8.905078125 27.92482031854198" stroke-width="0.03" stroke="#000000" fill="none"/>
<path d="M8.905078125 28.04525197625575L6.4019531249999995 26.600072083690467L6.4019531249999995 30.45388513053122" stroke-width="0.03" stroke="#000000" fill="none"/>
<path d="M7.027734374999999 29.851726841962353L9.63515625 31.35712256338452L9.739453124999999 31.296906734527635" stroke-width="0.03" stroke="#000000" fill="none"/>
<path d="M9.63515625 31.35712256338452L9.63515625 31.236690905670745" stroke-width="0.03" stroke="#000000" fill="none"/>
<path d="M8.905078125 30.21302181510367L7.027734374999999 29.12913689567971" stroke-width="0.03" stroke="#000000" fill="none"/>
<path d="M8.38359375 28.7076260936815L8.80078125 28.94848940910905" stroke-width="0.03" stroke="#000000" fill="none"/>
<path d="M10.573828124999999 26.96136705683179L10.573828124999999 23.58928064084613L13.911328125 21.662374117425752L14.85 22.204316577137735L15.788671874999999 21.662374117425752L19.126171875 23.58928064084613L19.126171875 26.96136705683179L15.267187499999999 29.189352724536597L14.85 28.94848940910905L14.4328125 29.189352724536597L10.573828124999999 26.96136705683179" stroke-width="0.03" stroke="#000000" fill="none"/>
<path d="M10.573828124999999 26.118345452835374L10.46953125 26.058129623978488L10.46953125 25.576402993123395L10.573828124999999 25.51618716426651" stroke-width="0.03" stroke="#000000" fill="none"/>
<path d="M10.573828124999999 25.636618821980278L10.46953125 25.576402993123395" stroke-width="0.03" stroke="#000000" fill="none"/>
<path d="M11.095312499999999 25.335539677695845L11.199609375 25.27532384883896L13.911328125 26.840935399118013L14.85 26.29899293940603L14.85 24.974244704554525L13.911328125 25.51618716426651L13.911328125 26.840935399118013" stroke-width="0.03" stroke="#000000" fill="none"/>
<path d="M14.4328125 27.26244620111622L14.4328125 29.189352724536597" stroke-width="0.03" stroke="#000000" fill="none"/>
<path d="M15.267187499999999 29.189352724536597L15.267187499999999 27.26244620111622L18.6046875 25.335539677695845L18.6046875 27.26244620111622" stroke-width="0.03" stroke="#000000" fill="none"/>
<path d="M18.917578125000002 27.081798714545563L18.917578125000002 28.04525197625575L17.457421875 28.888273580252164L16.623046875 28.40654694939707" stroke-width="0.03" stroke="#000000" fill="none"/>
<path d="M16.205859375 28.647410264824618L17.7703125 29.550647697677917L19.85625 28.346331120540185L20.89921875 28.94848940910905L20.89921875 29.67107935539169L21.31640625 29.430216039964147L21.31640625 28.7076260936815L19.85625 27.864604489685092L19.85625 27.744172831971316L20.89921875 27.142014543402446L21.31640625 27.382877858829996L21.31640625 27.50330951654377L20.2734375 28.105467805112635L20.2734375 27.985036147398862L21.31640625 27.382877858829996" stroke-width="0.03" stroke="#000000" fill="none"/>
<path d="M21.212109374999997 27.563525345400656L21.420703125 27.68395700311443L21.420703125 26.96136705683179L23.298046874999997 25.877482137407824L23.298046874999997 23.709712298559904L22.046484375000002 22.98712235227726L22.672265625 22.62582737913594L23.193749999999998 22.926906523420374" stroke-width="0.03" stroke="#000000" fill="none"/>
<path d="M23.193749999999998 23.167769838847924L23.193749999999998 21.96345326171019L23.298046874999997 21.903237432853302L24.758203125 22.746259036849715L25.383984374999997 22.384964063708395L25.383984374999997 21.903237432853302L24.341015624999997 21.301079144284433L23.715234375 21.662374117425752L24.758203125 22.264532405994622L24.758203125 22.746259036849715" stroke-width="0.03" stroke="#000000" fill="none"/>
<path d="M24.549609375 22.62582737913594L24.549609375 23.709712298559904" stroke-width="0.03" stroke="#000000" fill="none"/>
<path d="M23.923828125000004 23.348417325418584L23.298046874999997 23.709712298559904" stroke-width="0.03" stroke="#000000" fill="none"/>
<path d="M23.610937500000002 23.40863315427547L23.715234375 23.348417325418584L23.715234375 22.14410074828085L23.610937500000002 22.204316577137735L23.193749999999998 21.96345326171019" stroke-width="0.03" stroke="#000000" fill="none"/>
<path d="M23.193749999999998 22.44517989256528L22.046484375000002 21.782805775139526" stroke-width="0.03" stroke="#000000" fill="none"/>
<path d="M22.150781249999998 21.72258994628264L19.23046875 23.40863315427547L15.89296875 21.481726630855093L15.89296875 20.397841711431134L14.954296875 19.85589925171915L14.954296875 16.0020862048784L17.874609375000002 14.31604299688557L21.733593749999997 16.54402866459038L21.733593749999997 17.025755295445475L22.150781249999998 17.26661861087302L22.150781249999998 21.72258994628264" stroke-width="0.03" stroke="#000000" fill="none"/>
<path d="M22.150781249999998 21.843021603996412L22.150781249999998 22.8064748657066L22.255078124999997 22.866690694563488" stroke-width="0.03" stroke="#000000" fill="none"/>
<path d="M22.046484375000002 22.98712235227726L22.046484375000002 25.154892191125185L23.298046874999997 25.877482137407824" stroke-width="0.03" stroke="#000000" fill="none"/>
<path d="M23.298046874999997 26.600072083690467L20.794921875 28.04525197625575" stroke-width="0.03" stroke="#000000" fill="none"/>
<path d="M20.794921875 27.92482031854198L21.31640625 27.623741174257542" stroke-width="0.03" stroke="#000000" fill="none"/>
<path d="M20.794921875 27.804388660828202L20.794921875 28.40654694939707" stroke-width="0.03" stroke="#000000" fill="none"/>
<path d="M21.107812499999998 28.58719443596773L22.046484375000002 28.04525197625575" stroke-width="0.03" stroke="#000000" fill="none"/>
<path d="M22.046484375000002 28.767841922538388L22.046484375000002 27.322662029973106" stroke-width="0.03" stroke="#000000" fill="none"/>
<path d="M21.420703125 26.96136705683179L20.169140624999997 26.238777110549147L20.169140624999997 26.96136705683179L20.690625 27.26244620111622" stroke-width="0.03" stroke="#000000" fill="none"/>
<path d="M20.2734375 27.50330951654377L19.126171875 26.840935399118013" stroke-width="0.03" stroke="#000000" fill="none"/>
<path d="M19.23046875 26.901151227974903L20.064843749999998 26.419424597119807L20.169140624999997 26.479640425976694" stroke-width="0.03" stroke="#000000" fill="none"/>
<path d="M20.169140624999997 26.238777110549147L22.046484375000002 25.154892191125185" stroke-width="0.03" stroke="#000000" fill="none"/>
<path d="M23.298046874999997 26.600072083690467L23.298046874999997 30.45388513053122L23.923828125000004 30.0925901573899L23.923828125000004 26.238777110549147L27.261328125 24.311870587128773L27.261328125 23.58928064084613L26.426953124999997 23.107554009991038" stroke-width="0.03" stroke="#000000" fill="none"/>
<path d="M26.426953124999997 23.348417325418584L25.801171875 23.709712298559904L25.175390624999995 23.348417325418584L23.923828125000004 24.071007271701223" stroke-width="0.03" stroke="#000000" fill="none"/>
<path d="M23.923828125000004 23.348417325418584L23.715234375 23.227985667704807" stroke-width="0.03" stroke="#000000" fill="none"/>
<path d="M23.819531249999997 23.288201496561694L23.819531249999997 22.686043207992828" stroke-width="0.03" stroke="#000000" fill="none"/>
<path d="M23.715234375 22.746259036849715L24.23671875 22.44517989256528" stroke-width="0.03" stroke="#000000" fill="none"/>
<path d="M23.923828125000004 22.62582737913594L23.923828125000004 25.51618716426651L27.261328125 23.58928064084613" stroke-width="0.03" stroke="#000000" fill="none"/>
<path d="M26.426953124999997 23.348417325418584L26.426953124999997 20.337625882574244L26.322656249999998 20.277410053717357" stroke-width="0.03" stroke="#000000" fill="none"/>
<path d="M26.426953124999997 20.337625882574244L26.322656249999998 20.397841711431134" stroke-width="0.03" stroke="#000000" fill="none"/>
<path d="M26.322656249999998 21.240863315427546L25.279687499999998 21.843021603996412" stroke-width="0.03" stroke="#000000" fill="none"/>
<path d="M25.383984374999997 21.903237432853302L24.758203125 22.264532405994622" stroke-width="0.03" stroke="#000000" fill="none"/>
<path d="M23.610937500000002 22.204316577137735L23.610937500000002 23.40863315427547L23.193749999999998 23.167769838847924" stroke-width="0.03" stroke="#000000" fill="none"/>
<path d="M23.715234375 21.662374117425752L23.715234375 19.253740963150285L26.322656249999998 17.748345241728117L24.23671875 16.54402866459038" stroke-width="0.03" stroke="#000000" fill="none"/>
<path d="M25.175390624999995 16.0020862048784L22.150781249999998 17.748345241728117" stroke-width="0.03" stroke="#000000" fill="none"/>
<path d="M22.150781249999998 17.50748192630057L25.175390624999995 15.761222889450853L24.549609375 15.399927916309531L24.549609375 14.67733797002689L24.341015624999997 14.556906312313117L21.31640625 16.303165349162832" stroke-width="0.03" stroke="#000000" fill="none"/>
<path d="M21.525000000000002 16.423597006876605L24.549609375 14.67733797002689" stroke-width="0.03" stroke="#000000" fill="none"/>
<path d="M24.549609375 15.399927916309531L20.064843749999998 17.989208557155663L20.064843749999998 17.50748192630057L21.733593749999997 16.54402866459038" stroke-width="0.03" stroke="#000000" fill="none"/>
<path d="M22.150781249999998 17.26661861087302L20.482031250000002 18.23007187258321L20.064843749999998 17.989208557155663" stroke-width="0.03" stroke="#000000" fill="none"/>
<path d="M20.064843749999998 17.50748192630057L16.72734375 15.580575402880193L18.396093750000002 14.617122141170004" stroke-width="0.03" stroke="#000000" fill="none"/>
<path d="M18.083203125 14.436474654599342L18.917578125000002 13.95474802374425L20.377734375 14.797769627740664L20.377734375 15.761222889450853" stroke-width="0.03" stroke="#000000" fill="none"/>
<path d="M20.794921875 16.0020862048784L20.794921875 14.195611339171796L23.40234375 12.690215617749628L23.40234375 15.098848772025098" stroke-width="0.03" stroke="#000000" fill="none"/>
<path d="M25.175390624999995 15.761222889450853L25.175390624999995 16.0020862048784" stroke-width="0.03" stroke="#000000" fill="none"/>
<path d="M26.322656249999998 17.748345241728117L26.322656249999998 21.240863315427546" stroke-width="0.03" stroke="#000000" fill="none"/>
<path d="M25.801171875 21.54194245971198L25.801171875 23.709712298559904" stroke-width="0.03" stroke="#000000" fill="none"/>
<path d="M22.98515625 21L22.150781249999998 21.481726630855093" stroke-width="0.03" stroke="#000000" fill="none"/>
<path d="M22.150781249999998 21.120431657713773L20.482031250000002 22.08388491942396L20.377734375 22.023669090567072L20.377734375 18.892445990008962L19.439062500000002 18.350503530296983L19.439062500000002 17.26661861087302L16.72734375 15.701007060593964L16.72734375 15.580575402880193" stroke-width="0.03" stroke="#000000" fill="none"/>
<path d="M16.623046875 15.038632943168212L16.623046875 14.918201285454437L17.040234375 14.67733797002689L17.14453125 14.737553798883777" stroke-width="0.03" stroke="#000000" fill="none"/>
<path d="M16.72734375 14.978417114311325L16.623046875 14.918201285454437" stroke-width="0.03" stroke="#000000" fill="none"/>
<path d="M15.580078125 15.038632943168212L15.47578125 15.098848772025098L15.47578125 15.701007060593964" stroke-width="0.03" stroke="#000000" fill="none"/>
<path d="M15.580078125 15.640791231737078L15.580078125 15.038632943168212L15.267187499999999 14.85798545659755L15.162890625 14.918201285454437L15.162890625 15.881654547164626" stroke-width="0.03" stroke="#000000" fill="none"/>
<path d="M14.954296875 16.0020862048784L18.291796875 17.928992728298773L19.439062500000002 17.26661861087302" stroke-width="0.03" stroke="#000000" fill="none"/>
<path d="M19.439062500000002 18.350503530296983L18.291796875 19.01287764772274L18.291796875 17.928992728298773" stroke-width="0.03" stroke="#000000" fill="none"/>
<path d="M18.291796875 19.01287764772274L19.23046875 19.554820107434715L20.377734375 18.892445990008962" stroke-width="0.03" stroke="#000000" fill="none"/>
<path d="M20.482031250000002 18.23007187258321L20.482031250000002 22.08388491942396" stroke-width="0.03" stroke="#000000" fill="none"/>
<path d="M20.89921875 22.44517989256528L21.003515625000002 22.50539572142217L21.420703125 22.264532405994622L21.420703125 22.14410074828085" stroke-width="0.03" stroke="#000000" fill="none"/>
<path d="M21.003515625000002 22.384964063708395L21.003515625000002 22.50539572142217" stroke-width="0.03" stroke="#000000" fill="none"/>
<path d="M20.377734375 23.348417325418584L20.2734375 23.40863315427547L20.2734375 23.76992812741679L20.377734375 23.709712298559904L20.377734375 23.348417325418584L19.85625 23.047338181134148" stroke-width="0.03" stroke="#000000" fill="none"/>
<path d="M19.751953125 23.107554009991038L20.2734375 23.40863315427547" stroke-width="0.03" stroke="#000000" fill="none"/>
<path d="M20.2734375 23.76992812741679L19.439062500000002 23.288201496561694" stroke-width="0.03" stroke="#000000" fill="none"/>
<path d="M19.23046875 23.40863315427547L19.23046875 19.554820107434715" stroke-width="0.03" stroke="#000000" fill="none"/>
<path d="M22.150781249999998 19.795683422862265L22.98515625 19.31395679200717L22.150781249999998 18.832230161152076" stroke-width="0.03" stroke="#000000" fill="none"/>
<path d="M22.150781249999998 18.350503530296983L23.715234375 19.253740963150285" stroke-width="0.03" stroke="#000000" fill="none"/>
<path d="M22.98515625 19.31395679200717L22.98515625 21" stroke-width="0.03" stroke="#000000" fill="none"/>
<path d="M19.960546875000002 24.311870587128773L19.647656249999997 24.492518073699433L19.126171875 24.191438929414996" stroke-width="0.03" stroke="#000000" fill="none"/>
<path d="M19.126171875 24.311870587128773L19.647656249999997 24.612949731413206L19.960546875000002 24.432302244842543L19.960546875000002 24.311870587128773L19.126171875 23.830143956273677" stroke-width="0.03" stroke="#000000" fill="none"/>
<path d="M19.126171875 23.58928064084613L15.788671874999999 25.51618716426651L15.788671874999999 26.840935399118013L18.500390624999998 25.27532384883896L18.6046875 25.335539677695845" stroke-width="0.03" stroke="#000000" fill="none"/>
<path d="M19.126171875 25.51618716426651L19.23046875 25.576402993123395L19.23046875 26.058129623978488L19.126171875 26.118345452835374" stroke-width="0.03" stroke="#000000" fill="none"/>
<path d="M19.126171875 25.636618821980278L19.23046875 25.576402993123395" stroke-width="0.03" stroke="#000000" fill="none"/>
<path d="M19.647656249999997 24.612949731413206L19.647656249999997 24.492518073699433" stroke-width="0.03" stroke="#000000" fill="none"/>
<path d="M17.874609375000002 22.866690694563488L17.874609375000002 22.746259036849715L17.978906249999998 22.686043207992828" stroke-width="0.03" stroke="#000000" fill="none"/>
<path d="M17.874609375000002 22.62582737913594L17.7703125 22.686043207992828L17.7703125 22.8064748657066" stroke-width="0.03" stroke="#000000" fill="none"/>
<path d="M17.040234375 22.264532405994622L16.9359375 22.32474823485151" stroke-width="0.03" stroke="#000000" fill="none"/>
<path d="M17.040234375 22.264532405994622L17.040234375 22.14410074828085" stroke-width="0.03" stroke="#000000" fill="none"/>
<path d="M17.040234375 22.264532405994622L16.31015625 21.843021603996412L16.31015625 21.72258994628264" stroke-width="0.03" stroke="#000000" fill="none"/>
<path d="M16.205859375 21.782805775139526L16.1015625 21.843021603996412" stroke-width="0.03" stroke="#000000" fill="none"/>
<path d="M16.205859375 21.782805775139526L16.205859375 21.662374117425752" stroke-width="0.03" stroke="#000000" fill="none"/>
<path d="M16.205859375 21.782805775139526L14.954296875 21.060215828856883L14.954296875 20.939784171143113L14.85 20.879568342286227L14.745703124999999 20.939784171143113L14.745703124999999 21.060215828856883L14.85 21.120431657713773L14.954296875 21.060215828856883" stroke-width="0.03" stroke="#000000" fill="none"/>
<path d="M14.85 20.879568342286227L14.85 19.434388449720945L14.745703124999999 19.49460427857783" stroke-width="0.03" stroke="#000000" fill="none"/>
<path d="M14.745703124999999 19.37417262086406L14.85 19.31395679200717L14.85 18.470935188010756L14.745703124999999 18.531151016867643" stroke-width="0.03" stroke="#000000" fill="none"/>
<path d="M14.85 18.470935188010756L14.954296875 18.531151016867643" stroke-width="0.03" stroke="#000000" fill="none"/>
<path d="M14.85 19.31395679200717L14.954296875 19.37417262086406" stroke-width="0.03" stroke="#000000" fill="none"/>
<path d="M14.954296875 19.49460427857783L14.85 19.434388449720945" stroke-width="0.03" stroke="#000000" fill="none"/>
<path d="M14.745703124999999 19.85589925171915L13.80703125 20.397841711431134L13.80703125 21.481726630855093L10.46953125 23.40863315427547L7.5492187500000005 21.72258994628264L7.5492187500000005 17.26661861087302L7.96640625 17.025755295445475L7.96640625 16.54402866459038L11.825390624999999 14.31604299688557L14.745703124999999 16.0020862048784L14.745703124999999 19.85589925171915" stroke-width="0.03" stroke="#000000" fill="none"/>
<path d="M14.85 20.03654673828981L14.015625 20.518273369144907L14.015625 21.481726630855093L14.85 21.96345326171019L15.684375 21.481726630855093L15.684375 20.518273369144907L14.85 20.03654673828981" stroke-width="0.03" stroke="#000000" fill="none"/>
<path d="M14.745703124999999 21.060215828856883L13.494140625 21.782805775139526L13.494140625 21.662374117425752" stroke-width="0.03" stroke="#000000" fill="none"/>
<path d="M13.494140625 21.782805775139526L13.598437500000001 21.843021603996412" stroke-width="0.03" stroke="#000000" fill="none"/>
<path d="M13.494140625 21.903237432853302L13.389843749999999 21.843021603996412L13.389843749999999 21.72258994628264" stroke-width="0.03" stroke="#000000" fill="none"/>
<path d="M13.389843749999999 21.843021603996412L12.659765624999999 22.264532405994622L12.659765624999999 22.14410074828085" stroke-width="0.03" stroke="#000000" fill="none"/>
<path d="M12.659765624999999 22.264532405994622L12.7640625 22.32474823485151" stroke-width="0.03" stroke="#000000" fill="none"/>
<path d="M11.9296875 22.686043207992828L11.9296875 22.8064748657066" stroke-width="0.03" stroke="#000000" fill="none"/>
<path d="M11.9296875 22.686043207992828L11.825390624999999 22.62582737913594" stroke-width="0.03" stroke="#000000" fill="none"/>
<path d="M11.72109375 22.686043207992828L11.825390624999999 22.746259036849715L11.825390624999999 22.866690694563488" stroke-width="0.03" stroke="#000000" fill="none"/>
<path d="M10.573828124999999 23.58928064084613L13.911328125 25.51618716426651" stroke-width="0.03" stroke="#000000" fill="none"/>
<path d="M14.85 24.974244704554525L15.788671874999999 25.51618716426651" stroke-width="0.03" stroke="#000000" fill="none"/>
<path d="M14.85 26.29899293940603L15.788671874999999 26.840935399118013" stroke-width="0.03" stroke="#000000" fill="none"/>
<path d="M15.267187499999999 27.26244620111622L14.85 27.021582885688677" stroke-width="0.03" stroke="#000000" fill="none"/>
<path d="M12.242578125 27.92482031854198L12.242578125 28.888273580252164" stroke-width="0.03" stroke="#000000" fill="none"/>
<path d="M11.9296875 29.550647697677917L11.9296875 32.56143914052225" stroke-width="0.03" stroke="#000000" fill="none"/>
<path d="M15.684375 31.35712256338452L17.7703125 32.56143914052225L20.794921875 30.815180103672542L20.794921875 29.610863526534803" stroke-width="0.03" stroke="#000000" fill="none"/>
<path d="M20.89921875 29.67107935539169L19.85625 29.068921066822824L19.85625 28.346331120540185" stroke-width="0.03" stroke="#000000" fill="none"/>
<path d="M20.2734375 27.985036147398862L19.85625 27.744172831971316" stroke-width="0.03" stroke="#000000" fill="none"/>
<path d="M20.89921875 28.94848940910905L21.31640625 28.7076260936815" stroke-width="0.03" stroke="#000000" fill="none"/>
<path d="M22.046484375000002 28.767841922538388L22.672265625 29.12913689567971L22.672265625 29.851726841962353L20.064843749999998 31.35712256338452L19.960546875000002 31.296906734527635" stroke-width="0.03" stroke="#000000" fill="none"/>
<path d="M20.064843749999998 31.35712256338452L20.064843749999998 31.236690905670745" stroke-width="0.03" stroke="#000000" fill="none"/>
<path d="M20.794921875 30.21302181510367L22.672265625 29.12913689567971" stroke-width="0.03" stroke="#000000" fill="none"/>
<path d="M22.463671875 29.972158499676127L23.298046874999997 30.45388513053122" stroke-width="0.03" stroke="#000000" fill="none"/>
<path d="M17.7703125 29.550647697677917L17.7703125 32.56143914052225" stroke-width="0.03" stroke="#000000" fill="none"/>
<path d="M17.457421875 28.888273580252164L17.457421875 27.92482031854198" stroke-width="0.03" stroke="#000000" fill="none"/>
<path d="M16.205859375 21.903237432853302L16.31015625 21.843021603996412" stroke-width="0.03" stroke="#000000" fill="none"/>
<path d="M14.85 17.62791358401434L14.954296875 17.567697755157454" stroke-width="0.03" stroke="#000000" fill="none"/>
<path d="M14.85 17.50748192630057L14.954296875 17.44726609744368" stroke-width="0.03" stroke="#000000" fill="none"/>
<path d="M14.85 17.50748192630057L14.745703124999999 17.44726609744368" stroke-width="0.03" stroke="#000000" fill="none"/>
<path d="M14.745703124999999 17.567697755157454L14.85 17.62791358401434" stroke-width="0.03" stroke="#000000" fill="none"/>
<path d="M14.745703124999999 16.0020862048784L11.408203125 17.928992728298773L10.260937499999999 17.26661861087302L10.260937499999999 18.350503530296983L11.408203125 19.01287764772274L11.408203125 17.928992728298773" stroke-width="0.03" stroke="#000000" fill="none"/>
<path d="M11.408203125 19.01287764772274L10.46953125 19.554820107434715L9.322265625 18.892445990008962L9.322265625 22.023669090567072L9.21796875 22.08388491942396" stroke-width="0.03" stroke="#000000" fill="none"/>
<path d="M8.80078125 22.44517989256528L8.696484375 22.50539572142217L8.279296875 22.264532405994622L8.279296875 22.14410074828085" stroke-width="0.03" stroke="#000000" fill="none"/>
<path d="M8.696484375 22.384964063708395L8.696484375 22.50539572142217" stroke-width="0.03" stroke="#000000" fill="none"/>
<path d="M9.322265625 23.348417325418584L9.84375 23.047338181134148" stroke-width="0.03" stroke="#000000" fill="none"/>
<path d="M9.948046875 23.107554009991038L9.4265625 23.40863315427547L9.322265625 23.348417325418584L9.322265625 23.709712298559904L9.4265625 23.76992812741679L10.260937499999999 23.288201496561694" stroke-width="0.03" stroke="#000000" fill="none"/>
<path d="M10.46953125 23.40863315427547L10.46953125 19.554820107434715" stroke-width="0.03" stroke="#000000" fill="none"/>
<path d="M10.260937499999999 18.350503530296983L9.322265625 18.892445990008962" stroke-width="0.03" stroke="#000000" fill="none"/>
<path d="M9.21796875 18.23007187258321L7.5492187500000005 17.26661861087302" stroke-width="0.03" stroke="#000000" fill="none"/>
<path d="M7.96640625 16.54402866459038L9.63515625 17.50748192630057L9.63515625 17.989208557155663" stroke-width="0.03" stroke="#000000" fill="none"/>
<path d="M9.63515625 17.50748192630057L12.97265625 15.580575402880193L11.303906249999999 14.617122141170004" stroke-width="0.03" stroke="#000000" fill="none"/>
<path d="M11.616796874999999 14.436474654599342L10.782421874999999 13.95474802374425L9.322265625 14.797769627740664L9.322265625 15.761222889450853" stroke-width="0.03" stroke="#000000" fill="none"/>
<path d="M8.905078125 16.0020862048784L8.905078125 14.195611339171796L6.297656249999999 12.690215617749628" stroke-width="0.03" stroke="#000000" fill="none"/>
<path d="M5.3589843749999995 14.556906312313117L8.38359375 16.303165349162832" stroke-width="0.03" stroke="#000000" fill="none"/>
<path d="M8.175 16.423597006876605L5.150390625 14.67733797002689" stroke-width="0.03" stroke="#000000" fill="none"/>
<path d="M5.46328125 16.54402866459038L3.3773437500000005 17.748345241728117L3.3773437500000005 21.240863315427546L4.4203125 21.843021603996412" stroke-width="0.03" stroke="#000000" fill="none"/>
<path d="M4.3160156249999995 21.903237432853302L4.941796875 22.264532405994622" stroke-width="0.03" stroke="#000000" fill="none"/>
<path d="M5.984765624999999 22.14410074828085L5.984765624999999 23.348417325418584L6.089062499999999 23.40863315427547L6.5062500000000005 23.167769838847924L6.5062500000000005 21.96345326171019L6.4019531249999995 21.903237432853302" stroke-width="0.03" stroke="#000000" fill="none"/>
<path d="M6.5062500000000005 21.96345326171019L6.089062499999999 22.204316577137735L5.984765624999999 22.14410074828085" stroke-width="0.03" stroke="#000000" fill="none"/>
<path d="M6.089062499999999 22.204316577137735L6.089062499999999 23.40863315427547" stroke-width="0.03" stroke="#000000" fill="none"/>
<path d="M5.776171874999998 23.348417325418584L6.4019531249999995 23.709712298559904" stroke-width="0.03" stroke="#000000" fill="none"/>
<path d="M5.776171874999998 24.071007271701223L4.524609375000001 23.348417325418584L3.898828125 23.709712298559904L3.2730468750000017 23.348417325418584L3.2730468750000017 20.337625882574244L3.3773437500000005 20.277410053717357" stroke-width="0.03" stroke="#000000" fill="none"/>
<path d="M3.2730468750000017 20.337625882574244L3.3773437500000005 20.397841711431134" stroke-width="0.03" stroke="#000000" fill="none"/>
<path d="M3.898828125 21.54194245971198L3.898828125 23.709712298559904" stroke-width="0.03" stroke="#000000" fill="none"/>
<path d="M3.2730468750000017 23.107554009991038L2.438671874999999 23.58928064084613" stroke-width="0.03" stroke="#000000" fill="none"/>
<path d="M6.5062500000000005 22.926906523420374L7.027734374999999 22.62582737913594L7.653515625 22.98712235227726" stroke-width="0.03" stroke="#000000" fill="none"/>
<path d="M7.5492187500000005 22.8064748657066L7.4449218749999995 22.866690694563488" stroke-width="0.03" stroke="#000000" fill="none"/>
<path d="M7.5492187500000005 22.8064748657066L7.5492187500000005 21.843021603996412" stroke-width="0.03" stroke="#000000" fill="none"/>
<path d="M7.653515625 21.782805775139526L6.5062500000000005 22.44517989256528" stroke-width="0.03" stroke="#000000" fill="none"/>
<path d="M7.5492187500000005 19.795683422862265L6.714843749999999 19.31395679200717" stroke-width="0.03" stroke="#000000" fill="none"/>
<path d="M5.984765624999999 19.253740963150285L3.3773437500000005 17.748345241728117" stroke-width="0.03" stroke="#000000" fill="none"/>
<path d="M8.905078125 14.195611339171796L10.991015625000001 12.991294762034062L10.991015625000001 11.786978184896327L10.365234375 11.425683211755006L10.782421874999999 11.184819896327458L11.408203125 11.54611486946878L11.408203125 13.232158077461609L11.512500000000001 13.292373906318495L12.555468750000001 12.690215617749628L12.555468750000001 12.208488986894533L12.451171875 12.148273158037647L11.408203125 12.750431446606514L11.512500000000001 12.8106472754634L12.555468750000001 12.208488986894533" stroke-width="0.03" stroke="#000000" fill="none"/>
<path d="M12.97265625 12.328920644608306L12.97265625 13.77410053717359L12.346874999999999 13.412805564032269L12.346874999999999 12.8106472754634" stroke-width="0.03" stroke="#000000" fill="none"/>
<path d="M11.9296875 13.051510590890949L11.9296875 14.376258825742458" stroke-width="0.03" stroke="#000000" fill="none"/>
<path d="M11.9296875 14.255827168028683L12.7640625 13.77410053717359L12.7640625 13.653668879459815" stroke-width="0.03" stroke="#000000" fill="none"/>
<path d="M12.97265625 13.77410053717359L14.85 12.690215617749628L14.85 11.245035725184344" stroke-width="0.03" stroke="#000000" fill="none"/>
<path d="M15.47578125 10.883740752043025L18.81328125 8.956834228622649" stroke-width="0.03" stroke="#000000" fill="none"/>
<path d="M18.6046875 9.799855832619063L21.212109374999997 11.305251554041233L21.212109374999997 11.425683211755006" stroke-width="0.03" stroke="#000000" fill="none"/>
<path d="M21.212109374999997 11.305251554041233L21.107812499999998 11.365467382898117" stroke-width="0.03" stroke="#000000" fill="none"/>
<path d="M20.377734375 10.943956580899911L19.334765625 11.54611486946878" stroke-width="0.03" stroke="#000000" fill="none"/>
<path d="M19.334765625 11.425683211755006L18.708984375 11.786978184896327L18.708984375 12.991294762034062L20.794921875 14.195611339171796" stroke-width="0.03" stroke="#000000" fill="none"/>
<path d="M20.377734375 14.797769627740664L19.543359374999998 15.279496258595758" stroke-width="0.03" stroke="#000000" fill="none"/>
<path d="M17.7703125 14.376258825742458L17.7703125 13.051510590890949" stroke-width="0.03" stroke="#000000" fill="none"/>
<path d="M18.1875 13.292373906318495L18.291796875 13.232158077461609L18.291796875 11.54611486946878L18.917578125000002 11.184819896327458L19.334765625 11.425683211755006L19.334765625 12.629999788892741L18.708984375 12.991294762034062" stroke-width="0.03" stroke="#000000" fill="none"/>
<path d="M18.291796875 12.750431446606514L18.1875 12.8106472754634L18.1875 13.292373906318495L17.14453125 12.690215617749628L17.14453125 12.208488986894533L17.248828125 12.148273158037647L18.291796875 12.750431446606514" stroke-width="0.03" stroke="#000000" fill="none"/>
<path d="M18.1875 12.8106472754634L17.14453125 12.208488986894533" stroke-width="0.03" stroke="#000000" fill="none"/>
<path d="M17.353125 12.208488986894533L17.353125 11.967625671466987" stroke-width="0.03" stroke="#000000" fill="none"/>
<path d="M17.353125 12.08805732918076L17.874609375000002 12.389136473465193" stroke-width="0.03" stroke="#000000" fill="none"/>
<path d="M17.978906249999998 12.328920644608306L15.47578125 10.883740752043025" stroke-width="0.03" stroke="#000000" fill="none"/>
<path d="M17.353125 11.245035725184344L18.291796875 11.786978184896327" stroke-width="0.03" stroke="#000000" fill="none"/>
<path d="M18.291796875 11.54611486946878L18.708984375 11.786978184896327" stroke-width="0.03" stroke="#000000" fill="none"/>
<path d="M18.291796875 12.148273158037647L17.7703125 12.44935230232208" stroke-width="0.03" stroke="#000000" fill="none"/>
<path d="M17.353125 12.8106472754634L17.353125 13.412805564032269L16.72734375 13.77410053717359L14.85 12.690215617749628" stroke-width="0.03" stroke="#000000" fill="none"/>
<path d="M16.72734375 12.328920644608306L16.72734375 13.77410053717359" stroke-width="0.03" stroke="#000000" fill="none"/>
<path d="M16.9359375 13.77410053717359L16.9359375 13.653668879459815" stroke-width="0.03" stroke="#000000" fill="none"/>
<path d="M16.9359375 13.77410053717359L17.7703125 14.255827168028683" stroke-width="0.03" stroke="#000000" fill="none"/>
<path d="M15.47578125 15.098848772025098L15.162890625 14.918201285454437" stroke-width="0.03" stroke="#000000" fill="none"/>
<path d="M14.537109375 14.918201285454437L14.224218749999999 15.098848772025098L14.224218749999999 15.701007060593964" stroke-width="0.03" stroke="#000000" fill="none"/>
<path d="M14.119921875 15.640791231737078L14.119921875 15.038632943168212L14.4328125 14.85798545659755L14.537109375 14.918201285454437L14.537109375 15.881654547164626" stroke-width="0.03" stroke="#000000" fill="none"/>
<path d="M14.224218749999999 15.098848772025098L14.119921875 15.038632943168212" stroke-width="0.03" stroke="#000000" fill="none"/>
<path d="M13.076953125000001 15.038632943168212L13.076953125000001 14.918201285454437L12.659765624999999 14.67733797002689L12.555468750000001 14.737553798883777" stroke-width="0.03" stroke="#000000" fill="none"/>
<path d="M12.97265625 14.978417114311325L13.076953125000001 14.918201285454437" stroke-width="0.03" stroke="#000000" fill="none"/>
<path d="M12.97265625 15.580575402880193L12.97265625 15.701007060593964L10.260937499999999 17.26661861087302" stroke-width="0.03" stroke="#000000" fill="none"/>
<path d="M10.156640625 15.279496258595758L9.322265625 14.797769627740664" stroke-width="0.03" stroke="#000000" fill="none"/>
<path d="M10.365234375 12.629999788892741L10.365234375 11.425683211755006" stroke-width="0.03" stroke="#000000" fill="none"/>
<path d="M10.365234375 11.54611486946878L9.322265625 10.943956580899911" stroke-width="0.03" stroke="#000000" fill="none"/>
<path d="M9.84375 11.245035725184344L11.72109375 10.161150805760384L11.72109375 10.883740752043025L12.97265625 11.606330698325666" stroke-width="0.03" stroke="#000000" fill="none"/>
<path d="M12.346874999999999 11.245035725184344L11.408203125 11.786978184896327" stroke-width="0.03" stroke="#000000" fill="none"/>
<path d="M11.408203125 11.54611486946878L10.991015625000001 11.786978184896327" stroke-width="0.03" stroke="#000000" fill="none"/>
<path d="M11.408203125 12.148273158037647L11.9296875 12.44935230232208" stroke-width="0.03" stroke="#000000" fill="none"/>
<path d="M11.512500000000001 12.8106472754634L11.512500000000001 13.292373906318495" stroke-width="0.03" stroke="#000000" fill="none"/>
<path d="M10.991015625000001 12.991294762034062L10.365234375 12.629999788892741" stroke-width="0.03" stroke="#000000" fill="none"/>
<path d="M11.72109375 10.161150805760384L11.095312499999999 9.799855832619063" stroke-width="0.03" stroke="#000000" fill="none"/>
<path d="M17.978906249999998 10.161150805760384L19.85625 11.245035725184344" stroke-width="0.03" stroke="#000000" fill="none"/>
<path d="M20.377734375 10.943956580899911L23.40234375 12.690215617749628" stroke-width="0.03" stroke="#000000" fill="none"/>
<path d="M10.573828124999999 23.830143956273677L9.739453124999999 24.311870587128773L9.739453124999999 24.432302244842543L10.05234375 24.612949731413206L10.573828124999999 24.311870587128773" stroke-width="0.03" stroke="#000000" fill="none"/>
<path d="M10.573828124999999 24.191438929414996L10.05234375 24.492518073699433L10.05234375 24.612949731413206" stroke-width="0.03" stroke="#000000" fill="none"/>
<path d="M10.05234375 24.492518073699433L9.739453124999999 24.311870587128773" stroke-width="0.03" stroke="#000000" fill="none"/>
<path d="M9.4265625 23.76992812741679L9.4265625 23.40863315427547" stroke-width="0.03" stroke="#000000" fill="none"/>
<path d="M5.280730423614025 3.257801177427028L5.298756414952564 3.2037232034114123L5.33480839762964 3.167671220734335L5.388886371645256 3.149645229395796L5.406912362983795 3.149645229395796L5.46099033699941 3.167671220734335L5.497042319676488 3.2037232034114123L5.5150683110150265 3.257801177427028L5.5150683110150265 3.2758271687655665L5.497042319676488 3.3299051427811825L5.46099033699941 3.3659571254582596L5.406912362983795 3.383983116796798L5.388886371645256 3.383983116796798L5.33480839762964 3.3659571254582596L5.298756414952564 3.3299051427811825L5.280730423614025 3.257801177427028L5.280730423614025 3.167671220734335L5.298756414952564 3.077541264041642L5.33480839762964 3.023463290026026L5.388886371645256 3.0054372986874878L5.424938354322334 3.0054372986874878L5.479016328337949 3.023463290026026L5.497042319676488 3.0595152727031034" stroke-width="0.03" stroke="#000000" fill="none"/>
<path d="M5.136522492905716 3.1316192380572576L5.1184965015671775 3.1856972120728733L5.0824445188901 3.221749194749951L5.028366544874484 3.2397751860884894L5.010340553535945 3.2397751860884894L4.95626257952033 3.221749194749951L4.920210596843253 3.1856972120728733L4.902184605504715 3.1316192380572576L4.902184605504715 3.113593246718719L4.920210596843253 3.0595152727031034L4.95626257952033 3.023463290026026L5.010340553535945 3.0054372986874878L5.028366544874484 3.0054372986874878L5.0824445188901 3.023463290026026L5.1184965015671775 3.0595152727031034L5.136522492905716 3.1316192380572576L5.136522492905716 3.221749194749951L5.1184965015671775 3.3118791514426436L5.0824445188901 3.3659571254582596L5.028366544874484 3.383983116796798L4.992314562197407 3.383983116796798L4.938236588181791 3.3659571254582596L4.920210596843253 3.3299051427811825" stroke-width="0.03" stroke="#000000" fill="none"/>
<path d="M4.757976674796406 3.0054372986874878L4.57771676141102 3.0054372986874878L4.559690770072481 3.167671220734335L4.57771676141102 3.149645229395796L4.631794735426635 3.1316192380572576L4.6858727094422505 3.1316192380572576L4.739950683457867 3.149645229395796L4.776002666134945 3.1856972120728733L4.794028657473483 3.2397751860884894L4.794028657473483 3.2758271687655665L4.776002666134945 3.3299051427811825L4.739950683457867 3.3659571254582596L4.6858727094422505 3.383983116796798L4.631794735426635 3.383983116796798L4.57771676141102 3.3659571254582596L4.559690770072481 3.3479311341197207L4.541664778733942 3.3118791514426436" stroke-width="0.03" stroke="#000000" fill="none"/>
<path d="M4.415482839364172 3.1316192380572576L4.397456848025634 3.1856972120728733L4.361404865348556 3.221749194749951L4.3073268913329406 3.2397751860884894L4.289300899994402 3.2397751860884894L4.235222925978786 3.221749194749951L4.199170943301709 3.1856972120728733L4.18114495196317 3.1316192380572576L4.18114495196317 3.113593246718719L4.199170943301709 3.0595152727031034L4.235222925978786 3.023463290026026L4.289300899994402 3.0054372986874878L4.3073268913329406 3.0054372986874878L4.361404865348556 3.023463290026026L4.397456848025634 3.0595152727031034L4.415482839364172 3.1316192380572576L4.415482839364172 3.221749194749951L4.397456848025634 3.3118791514426436L4.361404865348556 3.3659571254582596L4.3073268913329406 3.383983116796798L4.2712749086558635 3.383983116796798L4.217196934640247 3.3659571254582596L4.199170943301709 3.3299051427811825" stroke-width="0.03" stroke="#000000" fill="none"/>
<path d="M4.091014995270477 3.257801177427028L3.8206251251923984 3.257801177427028L4.000885038577785 3.0054372986874878L4.000885038577785 3.383983116796798" stroke-width="0.03" stroke="#000000" fill="none"/>
<path d="M3.6764171944840895 3.0054372986874878L3.4961572810987036 3.0054372986874878L3.478131289760165 3.167671220734335L3.4961572810987036 3.149645229395796L3.5502352551143197 3.1316192380572576L3.604313229129935 3.1316192380572576L3.658391203145551 3.149645229395796L3.694443185822628 3.1856972120728733L3.712469177161167 3.2397751860884894L3.712469177161167 3.2758271687655665L3.694443185822628 3.3299051427811825L3.658391203145551 3.3659571254582596L3.604313229129935 3.383983116796798L3.5502352551143197 3.383983116796798L3.4961572810987036 3.3659571254582596L3.478131289760165 3.3479311341197207L3.4601052984216265 3.3118791514426436" stroke-width="0.03" stroke="#000000" fill="none"/>
<path d="M3.171689437005009 3.383983116796798L3.3519493503903948 3.0054372986874878L3.0995854716508546 3.0054372986874878" stroke-width="0.03" stroke="#000000" fill="none"/>
<path d="M2.7390656448800828 3.0054372986874878L2.7390656448800828 3.383983116796798L2.8652475842498526 3.383983116796798L2.9193255582654682 3.3659571254582596L2.955377540942546 3.3299051427811825L2.9734035322810843 3.293853160104105L2.991429523619623 3.2397751860884894L2.991429523619623 3.149645229395796L2.9734035322810843 3.0955672553801805L2.955377540942546 3.0595152727031034L2.9193255582654682 3.023463290026026L2.8652475842498526 3.0054372986874878L2.7390656448800828 3.0054372986874878" stroke-width="0.03" stroke="#000000" fill="none"/>
<path d="M2.6128837055103125 3.1316192380572576L2.414597800786388 3.383983116796798" stroke-width="0.03" stroke="#000000" fill="none"/>
<path d="M2.6128837055103125 3.383983116796798L2.414597800786388 3.1316192380572576" stroke-width="0.03" stroke="#000000" fill="none"/>
<path d="M2.1622339220468474 3.0054372986874878L2.1081559480312317 3.023463290026026L2.072103965354154 3.077541264041642L2.0540779740156156 3.167671220734335L2.0540779740156156 3.221749194749951L2.072103965354154 3.3118791514426436L2.1081559480312317 3.3659571254582596L2.1622339220468474 3.383983116796798L2.1982859047239245 3.383983116796798L2.2523638787395406 3.3659571254582596L2.2884158614166177 3.3118791514426436L2.3064418527551562 3.221749194749951L2.3064418527551562 3.167671220734335L2.2884158614166177 3.077541264041642L2.2523638787395406 3.023463290026026L2.1982859047239245 3.0054372986874878L2.1622339220468474 3.0054372986874878" stroke-width="0.03" stroke="#000000" fill="none"/>
<path d="M2.1166666666666667 2.2291666666666665L2.1166666666666667 1.8208333333333333" stroke-width="0.03" stroke="#000000" fill="none"/>
<path d="M2.0875 1.6166666666666667L2.1166666666666667 1.6458333333333333L2.145833333333333 1.6166666666666667L2.1166666666666667 1.5875L2.0875 1.6166666666666667" stroke-width="0.03" stroke="#000000" fill="none"/>
<path d="M2.3208333333333333 2.1416666666666666L2.35 2.2L2.4375 2.2291666666666665L2.525 2.2291666666666665L2.6125 2.2L2.6416666666666666 2.1416666666666666L2.6416666666666666 2.1125L2.6125 2.0541666666666667L2.5541666666666667 2.025L2.408333333333333 1.9958333333333333L2.35 1.9666666666666666L2.3208333333333333 1.9083333333333332L2.35 1.85L2.4375 1.8208333333333333L2.525 1.8208333333333333L2.6125 1.85L2.6416666666666666 1.9083333333333332" stroke-width="0.03" stroke="#000000" fill="none"/>
<path d="M2.9625 1.8208333333333333L2.904166666666667 1.85L2.845833333333333 1.9083333333333332L2.8166666666666664 1.9958333333333333L2.8166666666666664 2.0541666666666667L2.845833333333333 2.1416666666666666L2.904166666666667 2.2L2.9625 2.2291666666666665L3.05 2.2291666666666665L3.1083333333333334 2.2L3.1666666666666665 2.1416666666666666L3.1958333333333333 2.0541666666666667L3.1958333333333333 1.9958333333333333L3.1666666666666665 1.9083333333333332L3.1083333333333334 1.85L3.05 1.8208333333333333L2.9625 1.8208333333333333" stroke-width="0.03" stroke="#000000" fill="none"/>
<path d="M3.283333333333333 2.2874999999999996L3.75 2.2874999999999996" stroke-width="0.03" stroke="#000000" fill="none"/>
<path d="M3.8375 2.1416666666666666L3.8666666666666663 2.2L3.9541666666666666 2.2291666666666665L4.041666666666666 2.2291666666666665L4.129166666666666 2.2L4.158333333333333 2.1416666666666666L4.158333333333333 2.1125L4.129166666666666 2.0541666666666667L4.070833333333333 2.025L3.925 1.9958333333333333L3.8666666666666663 1.9666666666666666L3.8375 1.9083333333333332L3.8666666666666663 1.85L3.9541666666666666 1.8208333333333333L4.041666666666666 1.8208333333333333L4.129166666666666 1.85L4.158333333333333 1.9083333333333332" stroke-width="0.03" stroke="#000000" fill="none"/>
<path d="M4.3625 1.9375L4.449999999999999 1.85L4.508333333333333 1.8208333333333333L4.595833333333333 1.8208333333333333L4.654166666666667 1.85L4.683333333333334 1.9375L4.683333333333334 2.2291666666666665" stroke-width="0.03" stroke="#000000" fill="none"/>
<path d="M4.3625 2.2291666666666665L4.3625 1.8208333333333333" stroke-width="0.03" stroke="#000000" fill="none"/>
<path d="M5.033333333333333 1.8208333333333333L4.975 1.85L4.916666666666666 1.9083333333333332L4.887499999999999 1.9958333333333333L4.887499999999999 2.0541666666666667L4.916666666666666 2.1416666666666666L4.975 2.2L5.033333333333333 2.2291666666666665L5.120833333333334 2.2291666666666665L5.179166666666666 2.2L5.2375 2.1416666666666666L5.266666666666666 2.0541666666666667L5.266666666666666 1.9958333333333333L5.2375 1.9083333333333332L5.179166666666666 1.85L5.120833333333334 1.8208333333333333L5.033333333333333 1.8208333333333333" stroke-width="0.03" stroke="#000000" fill="none"/>
<path d="M5.441666666666666 1.8208333333333333L5.558333333333334 2.2291666666666665L5.675 1.8208333333333333L5.791666666666666 2.2291666666666665L5.908333333333333 1.8208333333333333" stroke-width="0.03" stroke="#000000" fill="none"/>
<path d="M6.054166666666666 1.8208333333333333L6.258333333333333 1.8208333333333333" stroke-width="0.03" stroke="#000000" fill="none"/>
<path d="M6.2875 1.6166666666666667L6.229166666666666 1.6166666666666667L6.1708333333333325 1.6458333333333333L6.141666666666667 1.7333333333333334L6.141666666666667 2.2291666666666665" stroke-width="0.03" stroke="#000000" fill="none"/>
<path d="M6.4624999999999995 2.2291666666666665L6.4624999999999995 1.6166666666666667" stroke-width="0.03" stroke="#000000" fill="none"/>
<path d="M7.016666666666666 1.8208333333333333L7.016666666666666 2.2291666666666665" stroke-width="0.03" stroke="#000000" fill="none"/>
<path d="M7.016666666666666 2.1416666666666666L6.958333333333333 2.2L6.8999999999999995 2.2291666666666665L6.812499999999999 2.2291666666666665L6.754166666666666 2.2L6.695833333333333 2.1416666666666666L6.666666666666666 2.0541666666666667L6.666666666666666 1.9958333333333333L6.695833333333333 1.9083333333333332L6.754166666666666 1.85L6.812499999999999 1.8208333333333333L6.8999999999999995 1.8208333333333333L6.958333333333333 1.85L7.016666666666666 1.9083333333333332" stroke-width="0.03" stroke="#000000" fill="none"/>
<path d="M7.249999999999999 2.1125L7.541666666666666 1.8208333333333333" stroke-width="0.03" stroke="#000000" fill="none"/>
<path d="M7.366666666666666 1.9958333333333333L7.570833333333333 2.2291666666666665" stroke-width="0.03" stroke="#000000" fill="none"/>
<path d="M7.716666666666666 1.9958333333333333L8.066666666666666 1.9958333333333333L8.066666666666666 1.9375L8.0375 1.8791666666666667L8.008333333333333 1.85L7.949999999999999 1.8208333333333333L7.8625 1.8208333333333333L7.804166666666666 1.85L7.745833333333333 1.9083333333333332L7.716666666666666 1.9958333333333333L7.716666666666666 2.0541666666666667L7.745833333333333 2.1416666666666666L7.804166666666666 2.2L7.8625 2.2291666666666665L7.949999999999999 2.2291666666666665L8.008333333333333 2.2L8.066666666666666 2.1416666666666666" stroke-width="0.03" stroke="#000000" fill="none"/>
<path d="M8.475 2.2291666666666665L8.475 1.6166666666666667L8.3875 1.7041666666666666L8.329166666666666 1.7333333333333334" stroke-width="0.03" stroke="#000000" fill="none"/>
<path d="M7.249999999999999 1.6166666666666667L7.249999999999999 2.2291666666666665" stroke-width="0.03" stroke="#000000" fill="none"/>
<path d="M9.237499999999999 2.533333333333333L1.5 2.533333333333333" stroke-width="0.03" stroke="#000000" fill="none"/>
</svg>
