<?xml version="1.0" standalone="no"?>
<svg width="29.7cm" height="42cm" version="1.1" xmlns="http://www.w3.org/2000/svg" viewBox="0.0 0.0 29.700001 42.000001">
<path d="M5.3589843749999995 12.26870481575142L11.825390624999999 8.53532342662444L12.033984375000001 8.655755084338216L12.033984375000001 8.896618399765762L5.567578125 12.629999788892741L5.3589843749999995 12.509568131178968L5.3589843749999995 12.26870481575142L5.567578125 12.389136473465193L12.033984375000001 8.655755084338216" stroke-width="0.03" stroke="#000000" fill="none"/>
<path d="M13.285546875 10.100934976903497L14.119921875 9.619208346048403L14.85 10.04071914804661L15.580078125 9.619208346048403L16.414453125 10.100934976903497L16.414453125 10.703093265472365L15.997265625 10.943956580899911L15.997265625 12.26870481575142L15.788671874999999 12.389136473465193" stroke-width="0.03" stroke="#000000" fill="none"/>
<path d="M15.788671874999999 12.509568131178968L15.371484375 12.750431446606514" stroke-width="0.03" stroke="#000000" fill="none"/>
<path d="M15.267187499999999 12.690215617749628L15.267187499999999 12.569783960035853L14.954296875 12.389136473465193L14.85 12.44935230232208L14.745703124999999 12.389136473465193L14.4328125 12.569783960035853L14.4328125 12.690215617749628" stroke-width="0.03" stroke="#000000" fill="none"/>
<path d="M14.537109375 12.629999788892741L11.9296875 14.13539551031491" stroke-width="0.03" stroke="#000000" fill="none"/>
<path d="M12.242578125 14.31604299688557L14.85 12.8106472754634L17.457421875 14.31604299688557" stroke-width="0.03" stroke="#000000" fill="none"/>
<path d="M17.353125 14.376258825742458L19.543359374999998 13.111726419747836L19.751953125 13.232158077461609L19.751953125 14.918201285454437L18.708984375 15.520359574023306" stroke-width="0.03" stroke="#000000" fill="none"/>
<path d="M19.021874999999998 15.701007060593964L17.874609375000002 15.038632943168212" stroke-width="0.03" stroke="#000000" fill="none"/>
<path d="M17.874609375000002 14.67733797002689L17.248828125 15.038632943168212L17.457421875 15.159064600881985L17.457421875 16.60424449344727" stroke-width="0.03" stroke="#000000" fill="none"/>
<path d="M17.874609375000002 16.36338117801972L17.874609375000002 16.122517862592172" stroke-width="0.03" stroke="#000000" fill="none"/>
<path d="M18.083203125 16.24294952030595L17.457421875 15.881654547164626" stroke-width="0.03" stroke="#000000" fill="none"/>
<path d="M17.457421875 15.761222889450853L17.874609375000002 15.520359574023306L17.874609375000002 14.67733797002689L15.47578125 13.292373906318495L14.85 13.653668879459815L14.224218749999999 13.292373906318495L11.825390624999999 14.67733797002689L11.825390624999999 15.520359574023306L12.242578125 15.761222889450853L11.512500000000001 16.18273369144906" stroke-width="0.03" stroke="#000000" fill="none"/>
<path d="M11.616796874999999 16.24294952030595L12.242578125 15.881654547164626" stroke-width="0.03" stroke="#000000" fill="none"/>
<path d="M11.825390624999999 16.122517862592172L11.825390624999999 16.36338117801972" stroke-width="0.03" stroke="#000000" fill="none"/>
<path d="M12.242578125 16.60424449344727L12.242578125 15.159064600881985L12.451171875 15.038632943168212L11.825390624999999 14.67733797002689" stroke-width="0.03" stroke="#000000" fill="none"/>
<path d="M12.138281249999999 14.49669048345623L9.948046875 13.232158077461609L9.948046875 14.918201285454437L10.991015625000001 15.520359574023306" stroke-width="0.03" stroke="#000000" fill="none"/>
<path d="M10.678125 15.701007060593964L11.825390624999999 15.038632943168212" stroke-width="0.03" stroke="#000000" fill="none"/>
<path d="M12.242578125 15.159064600881985L14.64140625 16.54402866459038L14.85 16.423597006876605L15.05859375 16.54402866459038L17.457421875 15.159064600881985" stroke-width="0.03" stroke="#000000" fill="none"/>
<path d="M17.457421875 15.761222889450853L18.1875 16.18273369144906" stroke-width="0.03" stroke="#000000" fill="none"/>
<path d="M17.56171875 14.49669048345623L19.751953125 13.232158077461609" stroke-width="0.03" stroke="#000000" fill="none"/>
<path d="M19.960546875000002 13.473021392889155L20.377734375 13.232158077461609L20.377734375 12.629999788892741L20.586328125 12.509568131178968L21.212109374999997 12.87086310432029L21.212109374999997 13.473021392889155L21.003515625000002 13.593453050602928L20.377734375 13.232158077461609" stroke-width="0.03" stroke="#000000" fill="none"/>
<path d="M19.960546875000002 13.473021392889155L19.960546875000002 14.556906312313117" stroke-width="0.03" stroke="#000000" fill="none"/>
<path d="M19.751953125 14.556906312313117L21.31640625 15.460143745166418L24.758203125 13.473021392889155L24.758203125 13.713884708316701L21.31640625 15.701007060593964L20.377734375 15.159064600881985" stroke-width="0.03" stroke="#000000" fill="none"/>
<path d="M20.377734375 14.918201285454437L15.684375 17.62791358401434L15.684375 18.711798503438303L14.85 18.23007187258321L14.015625 18.711798503438303L14.015625 17.62791358401434L9.322265625 14.918201285454437L9.322265625 15.520359574023306L9.63515625 15.701007060593964" stroke-width="0.03" stroke="#000000" fill="none"/>
<path d="M9.63515625 15.339712087452645L9.84375 15.21928042973887" stroke-width="0.03" stroke="#000000" fill="none"/>
<path d="M9.63515625 15.339712087452645L9.63515625 17.989208557155663L7.340624999999999 19.31395679200717L7.340624999999999 19.554820107434715" stroke-width="0.03" stroke="#000000" fill="none"/>
<path d="M7.340624999999999 19.31395679200717L11.512500000000001 21.72258994628264L12.451171875 21.18064748657066L12.451171875 20.096762567146698L12.7640625 19.916115080576038L12.555468750000001 19.795683422862265L12.242578125 19.976330909432924L12.242578125 21.060215828856883L12.451171875 21.18064748657066" stroke-width="0.03" stroke="#000000" fill="none"/>
<path d="M12.451171875 21.42151080199821L11.512500000000001 21.96345326171019L6.819140625 19.253740963150285L7.340624999999999 18.95266181886585L7.653515625 19.13330930543651" stroke-width="0.03" stroke="#000000" fill="none"/>
<path d="M7.027734374999999 19.13330930543651L7.027734374999999 18.049424386012547L3.5859375 16.062302033735286L3.3773437500000005 16.18273369144906L3.3773437500000005 16.423597006876605L6.819140625 18.410719359153866L7.027734374999999 18.290287701440096" stroke-width="0.03" stroke="#000000" fill="none"/>
<path d="M6.819140625 18.16985604372632L7.027734374999999 18.049424386012547" stroke-width="0.03" stroke="#000000" fill="none"/>
<path d="M6.9234374999999995 17.989208557155663L6.9234374999999995 17.86877689944189L6.610546875 17.688129412871227" stroke-width="0.03" stroke="#000000" fill="none"/>
<path d="M6.610546875 17.808561070585L6.610546875 16.24294952030595L7.96640625 15.460143745166418" stroke-width="0.03" stroke="#000000" fill="none"/>
<path d="M7.862109374999999 15.399927916309531L6.610546875 16.122517862592172L6.610546875 15.038632943168212L6.5062500000000005 15.098848772025098L6.5062500000000005 16.18273369144906L5.567578125 16.72467615116104L5.567578125 16.845107808874815L6.5062500000000005 16.303165349162832L6.5062500000000005 17.748345241728117" stroke-width="0.03" stroke="#000000" fill="none"/>
<path d="M6.819140625 17.928992728298773L6.9234374999999995 17.86877689944189" stroke-width="0.03" stroke="#000000" fill="none"/>
<path d="M6.819140625 18.16985604372632L6.819140625 19.976330909432924" stroke-width="0.03" stroke="#000000" fill="none"/>
<path d="M6.714843749999999 20.03654673828981L6.714843749999999 18.350503530296983" stroke-width="0.03" stroke="#000000" fill="none"/>
<path d="M6.610546875 18.290287701440096L6.5062500000000005 18.350503530296983L4.107421875 16.965539466588588L4.107421875 16.845107808874815" stroke-width="0.03" stroke="#000000" fill="none"/>
<path d="M4.107421875 16.36338117801972L4.107421875 16.0020862048784" stroke-width="0.03" stroke="#000000" fill="none"/>
<path d="M3.3773437500000005 16.18273369144906L6.819140625 18.16985604372632" stroke-width="0.03" stroke="#000000" fill="none"/>
<path d="M6.5062500000000005 18.23007187258321L6.5062500000000005 18.350503530296983" stroke-width="0.03" stroke="#000000" fill="none"/>
<path d="M6.297656249999999 18.23007187258321L5.776171874999998 18.531151016867643L4.211718750000001 17.62791358401434L4.733203124999998 17.326834439729907" stroke-width="0.03" stroke="#000000" fill="none"/>
<path d="M4.211718750000001 17.62791358401434L4.211718750000001 20.156978396003588" stroke-width="0.03" stroke="#000000" fill="none"/>
<path d="M3.898828125 20.337625882574244L4.62890625 19.916115080576038" stroke-width="0.03" stroke="#000000" fill="none"/>
<path d="M4.8374999999999995 19.67525176514849L5.3589843749999995 19.37417262086406L5.3589843749999995 20.096762567146698L4.8374999999999995 20.397841711431134L4.62890625 20.277410053717357L4.62890625 19.554820107434715L5.150390625 19.253740963150285L5.3589843749999995 19.37417262086406" stroke-width="0.03" stroke="#000000" fill="none"/>
<path d="M4.8374999999999995 19.67525176514849L4.8374999999999995 20.397841711431134" stroke-width="0.03" stroke="#000000" fill="none"/>
<path d="M5.3589843749999995 20.096762567146698L5.776171874999998 20.337625882574244L6.714843749999999 19.795683422862265" stroke-width="0.03" stroke="#000000" fill="none"/>
<path d="M7.13203125 19.795683422862265L5.671875 20.63870502685868L5.671875 20.879568342286227L7.862109374999999 22.14410074828085" stroke-width="0.03" stroke="#000000" fill="none"/>
<path d="M7.7578125 22.08388491942396L7.7578125 25.0946763622683L10.365234375 26.600072083690467" stroke-width="0.03" stroke="#000000" fill="none"/>
<path d="M10.365234375 26.479640425976694L10.365234375 29.008705237965938L10.573828124999999 29.12913689567971L12.033984375000001 28.286115291683295L12.033984375000001 27.081798714545563" stroke-width="0.03" stroke="#000000" fill="none"/>
<path d="M12.346874999999999 27.26244620111622L11.199609375 26.600072083690467" stroke-width="0.03" stroke="#000000" fill="none"/>
<path d="M10.88671875 26.780719570261127L11.616796874999999 26.359208768262917L11.616796874999999 25.877482137407824L12.346874999999999 26.29899293940603" stroke-width="0.03" stroke="#000000" fill="none"/>
<path d="M12.346874999999999 26.17856128169226L11.72109375 25.817266308550938" stroke-width="0.03" stroke="#000000" fill="none"/>
<path d="M12.138281249999999 26.058129623978488L12.346874999999999 25.937697966264714" stroke-width="0.03" stroke="#000000" fill="none"/>
<path d="M12.346874999999999 25.45597133540962L11.095312499999999 26.17856128169226L10.88671875 26.058129623978488L10.88671875 26.780719570261127L8.487890625 25.39575550655273L8.487890625 24.673165560270093L7.862109374999999 24.311870587128773L7.862109374999999 21.54194245971198L8.5921875 21.120431657713773L9.009374999999999 21.36129497314132L9.009374999999999 20.518273369144907" stroke-width="0.03" stroke="#000000" fill="none"/>
<path d="M9.113671875 20.57848919800179L9.113671875 21.301079144284433" stroke-width="0.03" stroke="#000000" fill="none"/>
<path d="M9.113671875 20.819352513429337L9.322265625 20.698920855715564" stroke-width="0.03" stroke="#000000" fill="none"/>
<path d="M9.739453124999999 20.939784171143113L8.487890625 21.662374117425752L8.487890625 21.903237432853302L7.862109374999999 21.54194245971198" stroke-width="0.03" stroke="#000000" fill="none"/>
<path d="M8.175 21.36129497314132L8.175 20.03654673828981" stroke-width="0.03" stroke="#000000" fill="none"/>
<path d="M8.175 20.397841711431134L7.13203125 19.795683422862265" stroke-width="0.03" stroke="#000000" fill="none"/>
<path d="M5.776171874999998 20.337625882574244L5.776171874999998 18.531151016867643" stroke-width="0.03" stroke="#000000" fill="none"/>
<path d="M5.984765624999999 17.08597112430236L6.4019531249999995 16.845107808874815L6.4019531249999995 16.36338117801972" stroke-width="0.03" stroke="#000000" fill="none"/>
<path d="M6.5062500000000005 16.18273369144906L6.4019531249999995 16.122517862592172L5.984765624999999 16.36338117801972L5.46328125 16.062302033735286L5.46328125 15.82143871830774L5.671875 15.701007060593964L5.671875 15.460143745166418L5.88046875 15.339712087452645L6.4019531249999995 15.640791231737078L6.4019531249999995 16.122517862592172" stroke-width="0.03" stroke="#000000" fill="none"/>
<path d="M6.193359375 16.0020862048784L5.984765624999999 16.122517862592172L5.46328125 15.82143871830774" stroke-width="0.03" stroke="#000000" fill="none"/>
<path d="M5.671875 15.460143745166418L6.193359375 15.761222889450853L6.193359375 16.0020862048784L4.107421875 14.797769627740664L3.1687499999999984 15.339712087452645L3.1687499999999984 15.460143745166418L5.984765624999999 17.08597112430236L5.984765624999999 16.60424449344727" stroke-width="0.03" stroke="#000000" fill="none"/>
<path d="M5.984765624999999 16.36338117801972L5.984765624999999 16.122517862592172" stroke-width="0.03" stroke="#000000" fill="none"/>
<path d="M6.193359375 15.761222889450853L6.4019531249999995 15.640791231737078" stroke-width="0.03" stroke="#000000" fill="none"/>
<path d="M6.610546875 15.520359574023306L7.027734374999999 15.279496258595758L4.211718750000001 13.653668879459815L4.107421875 13.713884708316701L4.107421875 14.797769627740664" stroke-width="0.03" stroke="#000000" fill="none"/>
<path d="M4.107421875 13.713884708316701L6.5062500000000005 15.098848772025098" stroke-width="0.03" stroke="#000000" fill="none"/>
<path d="M7.027734374999999 15.279496258595758L7.027734374999999 15.761222889450853L6.610546875 16.0020862048784" stroke-width="0.03" stroke="#000000" fill="none"/>
<path d="M6.610546875 16.24294952030595L13.80703125 20.397841711431134L13.80703125 19.193525134293395L12.868359374999999 19.735467594005378L12.659765624999999 19.615035936291605L12.659765624999999 19.253740963150285L13.598437500000001 18.711798503438303L13.80703125 18.832230161152076L12.868359374999999 19.37417262086406L12.868359374999999 19.735467594005378" stroke-width="0.03" stroke="#000000" fill="none"/>
<path d="M12.7640625 19.916115080576038L12.7640625 21L13.80703125 20.397841711431134" stroke-width="0.03" stroke="#000000" fill="none"/>
<path d="M13.80703125 20.63870502685868L12.7640625 21.240863315427546L12.7640625 22.204316577137735L13.598437500000001 22.686043207992828L14.64140625 22.08388491942396L13.80703125 21.602158288568866L13.80703125 20.63870502685868" stroke-width="0.03" stroke="#000000" fill="none"/>
<path d="M13.702734374999999 20.698920855715564L13.702734374999999 21.060215828856883L13.598437500000001 21.120431657713773L13.285546875 20.939784171143113" stroke-width="0.03" stroke="#000000" fill="none"/>
<path d="M13.598437500000001 20.759136684572454L13.598437500000001 21.120431657713773" stroke-width="0.03" stroke="#000000" fill="none"/>
<path d="M13.80703125 21.602158288568866L14.85 21L15.89296875 21.602158288568866L15.89296875 20.63870502685868L16.9359375 21.240863315427546L16.9359375 22.204316577137735L16.1015625 22.686043207992828L15.05859375 22.08388491942396L15.89296875 21.602158288568866" stroke-width="0.03" stroke="#000000" fill="none"/>
<path d="M15.684375 21.481726630855093L14.85 21.96345326171019L14.015625 21.481726630855093L14.015625 20.518273369144907L14.85 20.03654673828981L15.684375 20.518273369144907L15.684375 21.481726630855093" stroke-width="0.03" stroke="#000000" fill="none"/>
<path d="M15.371484375 21.301079144284433L14.85 21.602158288568866L14.328515625 21.301079144284433L14.328515625 20.698920855715564L14.85 20.397841711431134L15.371484375 20.698920855715564L15.371484375 21.301079144284433" stroke-width="0.03" stroke="#000000" fill="none"/>
<path d="M14.85 21L14.85 19.795683422862265L14.015625 20.277410053717357L14.015625 19.073093476579622L14.85 18.59136684572453L15.684375 19.073093476579622L15.684375 20.277410053717357L14.85 19.795683422862265" stroke-width="0.03" stroke="#000000" fill="none"/>
<path d="M14.328515625 19.85589925171915L14.015625 20.03654673828981" stroke-width="0.03" stroke="#000000" fill="none"/>
<path d="M14.015625 20.156978396003588L14.328515625 19.976330909432924L14.328515625 19.85589925171915L14.015625 19.67525176514849" stroke-width="0.03" stroke="#000000" fill="none"/>
<path d="M14.224218749999999 18.95266181886585L14.64140625 19.193525134293395L14.85 19.073093476579622L15.05859375 19.193525134293395L15.47578125 18.95266181886585" stroke-width="0.03" stroke="#000000" fill="none"/>
<path d="M15.89296875 18.832230161152076L16.1015625 18.711798503438303L17.040234375 19.253740963150285L17.040234375 19.615035936291605L16.831640625 19.735467594005378L15.89296875 19.193525134293395L15.89296875 20.397841711431134L16.9359375 21L16.9359375 19.916115080576038L17.14453125 19.795683422862265L17.457421875 19.976330909432924L17.457421875 21.060215828856883L17.248828125 21.18064748657066L18.1875 21.72258994628264L22.359375 19.31395679200717L22.359375 19.554820107434715" stroke-width="0.03" stroke="#000000" fill="none"/>
<path d="M22.359375 19.31395679200717L20.064843749999998 17.989208557155663L20.064843749999998 15.339712087452645L19.85625 15.21928042973887" stroke-width="0.03" stroke="#000000" fill="none"/>
<path d="M20.064843749999998 15.339712087452645L15.89296875 17.748345241728117L15.89296875 18.832230161152076L16.831640625 19.37417262086406L17.040234375 19.253740963150285" stroke-width="0.03" stroke="#000000" fill="none"/>
<path d="M16.831640625 19.37417262086406L16.831640625 19.735467594005378" stroke-width="0.03" stroke="#000000" fill="none"/>
<path d="M16.9359375 19.916115080576038L17.248828125 20.096762567146698L17.457421875 19.976330909432924" stroke-width="0.03" stroke="#000000" fill="none"/>
<path d="M17.248828125 20.096762567146698L17.248828125 21.18064748657066" stroke-width="0.03" stroke="#000000" fill="none"/>
<path d="M17.248828125 21.42151080199821L17.248828125 22.384964063708395L16.414453125 22.866690694563488L17.353125 23.40863315427547L17.353125 28.828057751395274L16.831640625 28.526978607110845L16.831640625 28.165683633969522" stroke-width="0.03" stroke="#000000" fill="none"/>
<path d="M17.14453125 28.346331120540185L17.353125 28.22589946282641" stroke-width="0.03" stroke="#000000" fill="none"/>
<path d="M17.14453125 28.346331120540185L17.14453125 23.529064811989244L17.353125 23.40863315427547" stroke-width="0.03" stroke="#000000" fill="none"/>
<path d="M17.248828125 23.348417325418584L17.248828125 22.62582737913594L16.623046875 22.98712235227726" stroke-width="0.03" stroke="#000000" fill="none"/>
<path d="M16.831640625 22.866690694563488L16.9359375 22.926906523420374" stroke-width="0.03" stroke="#000000" fill="none"/>
<path d="M16.9359375 22.8064748657066L16.9359375 23.167769838847924" stroke-width="0.03" stroke="#000000" fill="none"/>
<path d="M17.14453125 23.529064811989244L16.205859375 22.98712235227726L15.267187499999999 23.529064811989244L15.267187499999999 23.76992812741679L16.205859375 23.227985667704807L16.205859375 22.98712235227726" stroke-width="0.03" stroke="#000000" fill="none"/>
<path d="M15.89296875 22.8064748657066L14.954296875 23.348417325418584L14.954296875 23.58928064084613L15.267187499999999 23.76992812741679" stroke-width="0.03" stroke="#000000" fill="none"/>
<path d="M15.267187499999999 23.529064811989244L14.954296875 23.348417325418584" stroke-width="0.03" stroke="#000000" fill="none"/>
<path d="M14.745703124999999 23.348417325418584L14.4328125 23.529064811989244L14.4328125 23.76992812741679L13.494140625 23.227985667704807L13.494140625 22.98712235227726L14.4328125 23.529064811989244" stroke-width="0.03" stroke="#000000" fill="none"/>
<path d="M14.4328125 23.76992812741679L14.745703124999999 23.58928064084613L14.745703124999999 23.348417325418584L13.80703125 22.8064748657066L14.85 22.204316577137735L15.89296875 22.8064748657066" stroke-width="0.03" stroke="#000000" fill="none"/>
<path d="M16.31015625 22.565611550279055L16.31015625 22.08388491942396L16.51875 21.96345326171019L17.248828125 22.384964063708395" stroke-width="0.03" stroke="#000000" fill="none"/>
<path d="M17.457421875 22.264532405994622L18.083203125 21.903237432853302" stroke-width="0.03" stroke="#000000" fill="none"/>
<path d="M18.1875 21.96345326171019L22.880859375 19.253740963150285L22.359375 18.95266181886585L22.046484375000002 19.13330930543651" stroke-width="0.03" stroke="#000000" fill="none"/>
<path d="M22.672265625 19.13330930543651L22.672265625 18.049424386012547L26.1140625 16.062302033735286L26.322656249999998 16.18273369144906L26.322656249999998 16.423597006876605L22.880859375 18.410719359153866L22.672265625 18.290287701440096" stroke-width="0.03" stroke="#000000" fill="none"/>
<path d="M22.880859375 18.16985604372632L26.322656249999998 16.18273369144906" stroke-width="0.03" stroke="#000000" fill="none"/>
<path d="M25.592578125 16.0020862048784L25.592578125 16.36338117801972" stroke-width="0.03" stroke="#000000" fill="none"/>
<path d="M25.592578125 16.845107808874815L25.592578125 16.965539466588588L23.193749999999998 18.350503530296983L23.089453125000002 18.290287701440096" stroke-width="0.03" stroke="#000000" fill="none"/>
<path d="M23.193749999999998 18.23007187258321L23.193749999999998 18.350503530296983" stroke-width="0.03" stroke="#000000" fill="none"/>
<path d="M22.98515625 18.350503530296983L22.98515625 20.03654673828981" stroke-width="0.03" stroke="#000000" fill="none"/>
<path d="M22.880859375 19.976330909432924L22.880859375 18.16985604372632L22.672265625 18.049424386012547" stroke-width="0.03" stroke="#000000" fill="none"/>
<path d="M22.7765625 17.989208557155663L22.7765625 17.86877689944189L23.089453125000002 17.688129412871227" stroke-width="0.03" stroke="#000000" fill="none"/>
<path d="M23.193749999999998 17.748345241728117L23.193749999999998 16.303165349162832L24.132421875000002 16.845107808874815L24.132421875000002 16.72467615116104L26.53125 15.339712087452645L25.592578125 14.797769627740664L23.506640625 16.0020862048784L23.506640625 15.761222889450853L24.028125 15.460143745166418L24.028125 15.701007060593964L24.23671875 15.82143871830774L24.23671875 16.062302033735286L23.715234375 16.36338117801972L23.298046874999997 16.122517862592172L23.193749999999998 16.18273369144906L24.132421875000002 16.72467615116104" stroke-width="0.03" stroke="#000000" fill="none"/>
<path d="M23.715234375 16.60424449344727L23.715234375 17.08597112430236L23.298046874999997 16.845107808874815L23.298046874999997 16.36338117801972" stroke-width="0.03" stroke="#000000" fill="none"/>
<path d="M23.193749999999998 16.18273369144906L23.193749999999998 15.098848772025098L23.089453125000002 15.038632943168212L23.089453125000002 16.122517862592172L21.837890625 15.399927916309531" stroke-width="0.03" stroke="#000000" fill="none"/>
<path d="M21.837890625 15.520359574023306L21.525000000000002 15.701007060593964L21.420703125 15.640791231737078" stroke-width="0.03" stroke="#000000" fill="none"/>
<path d="M21.31640625 15.701007060593964L21.31640625 15.460143745166418" stroke-width="0.03" stroke="#000000" fill="none"/>
<path d="M21.212109374999997 15.279496258595758L19.751953125 14.436474654599342" stroke-width="0.03" stroke="#000000" fill="none"/>
<path d="M20.377734375 14.918201285454437L20.377734375 15.520359574023306L20.064843749999998 15.701007060593964" stroke-width="0.03" stroke="#000000" fill="none"/>
<path d="M21.107812499999998 15.580575402880193L21.107812499999998 15.339712087452645L24.549609375 13.352589735175382L24.758203125 13.473021392889155" stroke-width="0.03" stroke="#000000" fill="none"/>
<path d="M25.48828125 13.653668879459815L22.672265625 15.279496258595758L22.672265625 15.761222889450853L23.089453125000002 16.0020862048784" stroke-width="0.03" stroke="#000000" fill="none"/>
<path d="M23.298046874999997 16.122517862592172L23.298046874999997 15.640791231737078L23.819531249999997 15.339712087452645L24.028125 15.460143745166418" stroke-width="0.03" stroke="#000000" fill="none"/>
<path d="M24.23671875 15.82143871830774L23.715234375 16.122517862592172L23.506640625 16.0020862048784" stroke-width="0.03" stroke="#000000" fill="none"/>
<path d="M23.506640625 15.761222889450853L23.298046874999997 15.640791231737078" stroke-width="0.03" stroke="#000000" fill="none"/>
<path d="M23.089453125000002 15.520359574023306L22.672265625 15.279496258595758" stroke-width="0.03" stroke="#000000" fill="none"/>
<path d="M23.193749999999998 15.098848772025098L25.592578125 13.713884708316701L25.48828125 13.653668879459815" stroke-width="0.03" stroke="#000000" fill="none"/>
<path d="M25.592578125 13.713884708316701L25.592578125 14.797769627740664" stroke-width="0.03" stroke="#000000" fill="none"/>
<path d="M26.53125 15.339712087452645L26.53125 15.460143745166418L23.715234375 17.08597112430236" stroke-width="0.03" stroke="#000000" fill="none"/>
<path d="M23.089453125000002 17.08597112430236L20.794921875 18.410719359153866" stroke-width="0.03" stroke="#000000" fill="none"/>
<path d="M20.064843749999998 17.146186953159244L22.359375 15.82143871830774" stroke-width="0.03" stroke="#000000" fill="none"/>
<path d="M21.733593749999997 15.460143745166418L23.089453125000002 16.24294952030595L23.089453125000002 17.808561070585" stroke-width="0.03" stroke="#000000" fill="none"/>
<path d="M22.880859375 17.928992728298773L22.7765625 17.86877689944189" stroke-width="0.03" stroke="#000000" fill="none"/>
<path d="M23.40234375 18.23007187258321L23.923828125000004 18.531151016867643L25.48828125 17.62791358401434L24.966796875000004 17.326834439729907" stroke-width="0.03" stroke="#000000" fill="none"/>
<path d="M25.48828125 17.62791358401434L25.48828125 20.156978396003588" stroke-width="0.03" stroke="#000000" fill="none"/>
<path d="M25.801171875 20.337625882574244L24.132421875000002 21.301079144284433L24.132421875000002 25.034460533411412L22.98515625 24.37208641598566L22.7765625 24.492518073699433" stroke-width="0.03" stroke="#000000" fill="none"/>
<path d="M22.672265625 24.432302244842543L22.255078124999997 24.673165560270093" stroke-width="0.03" stroke="#000000" fill="none"/>
<path d="M22.255078124999997 24.793597217983862L22.359375 24.85381304684075L22.359375 25.215108019982072L23.506640625 25.877482137407824L24.341015624999997 25.39575550655273L22.672265625 24.432302244842543" stroke-width="0.03" stroke="#000000" fill="none"/>
<path d="M22.359375 24.85381304684075L22.255078124999997 24.914028875697635L22.255078124999997 21.903237432853302" stroke-width="0.03" stroke="#000000" fill="none"/>
<path d="M21.9421875 22.08388491942396L21.9421875 25.0946763622683L19.334765625 26.600072083690467" stroke-width="0.03" stroke="#000000" fill="none"/>
<path d="M19.334765625 26.479640425976694L19.334765625 29.008705237965938L19.126171875 29.12913689567971L17.666015625 28.286115291683295L17.666015625 27.081798714545563" stroke-width="0.03" stroke="#000000" fill="none"/>
<path d="M17.353125 27.26244620111622L18.500390624999998 26.600072083690467" stroke-width="0.03" stroke="#000000" fill="none"/>
<path d="M18.81328125 26.780719570261127L21.212109374999997 25.39575550655273L21.212109374999997 24.673165560270093L21.837890625 24.311870587128773L21.837890625 21.54194245971198L21.107812499999998 21.120431657713773L20.690625 21.36129497314132L20.690625 20.518273369144907" stroke-width="0.03" stroke="#000000" fill="none"/>
<path d="M20.586328125 20.57848919800179L20.586328125 21.301079144284433" stroke-width="0.03" stroke="#000000" fill="none"/>
<path d="M20.586328125 20.819352513429337L20.377734375 20.698920855715564" stroke-width="0.03" stroke="#000000" fill="none"/>
<path d="M19.960546875000002 20.939784171143113L21.212109374999997 21.662374117425752L21.212109374999997 21.903237432853302L21.837890625 21.54194245971198" stroke-width="0.03" stroke="#000000" fill="none"/>
<path d="M21.525000000000002 21.36129497314132L21.525000000000002 20.03654673828981" stroke-width="0.03" stroke="#000000" fill="none"/>
<path d="M21.525000000000002 20.397841711431134L22.567968750000002 19.795683422862265L24.028125 20.63870502685868L24.028125 20.879568342286227L21.837890625 22.14410074828085" stroke-width="0.03" stroke="#000000" fill="none"/>
<path d="M21.837890625 21.903237432853302L24.028125 20.63870502685868" stroke-width="0.03" stroke="#000000" fill="none"/>
<path d="M23.923828125000004 20.337625882574244L24.341015624999997 20.096762567146698L24.341015624999997 19.37417262086406L24.549609375 19.253740963150285L25.07109375 19.554820107434715L25.07109375 20.277410053717357L24.8625 20.397841711431134L24.341015624999997 20.096762567146698" stroke-width="0.03" stroke="#000000" fill="none"/>
<path d="M23.923828125000004 20.337625882574244L23.923828125000004 18.531151016867643" stroke-width="0.03" stroke="#000000" fill="none"/>
<path d="M24.341015624999997 19.37417262086406L24.8625 19.67525176514849L24.8625 20.397841711431134" stroke-width="0.03" stroke="#000000" fill="none"/>
<path d="M25.07109375 19.916115080576038L25.801171875 20.337625882574244L25.801171875 27.322662029973106L19.751953125 30.815180103672542L19.021874999999998 30.393669301674333" stroke-width="0.03" stroke="#000000" fill="none"/>
<path d="M18.708984375 30.333453472817446L19.334765625 29.972158499676127L18.81328125 29.67107935539169L18.81328125 29.189352724536597L17.874609375000002 28.647410264824618" stroke-width="0.03" stroke="#000000" fill="none"/>
<path d="M17.978906249999998 28.46676277825396L16.414453125 29.37000021110726L16.414453125 33.34424491566179L16.205859375 33.22381325794801L16.205859375 29.249568553393484L17.14453125 28.7076260936815" stroke-width="0.03" stroke="#000000" fill="none"/>
<path d="M17.14453125 28.346331120540185L14.85 27.021582885688677L12.555468750000001 28.346331120540185L12.346874999999999 28.22589946282641" stroke-width="0.03" stroke="#000000" fill="none"/>
<path d="M12.555468750000001 28.346331120540185L12.555468750000001 23.529064811989244L13.494140625 22.98712235227726" stroke-width="0.03" stroke="#000000" fill="none"/>
<path d="M13.285546875 22.866690694563488L12.346874999999999 23.40863315427547L12.346874999999999 28.828057751395274L12.868359374999999 28.526978607110845L12.868359374999999 28.165683633969522" stroke-width="0.03" stroke="#000000" fill="none"/>
<path d="M12.555468750000001 28.7076260936815L13.494140625 29.249568553393484L13.494140625 33.22381325794801L13.285546875 33.34424491566179L13.076953125000001 33.22381325794801L13.076953125000001 29.249568553393484L13.285546875 29.12913689567971" stroke-width="0.03" stroke="#000000" fill="none"/>
<path d="M13.494140625 29.249568553393484L13.285546875 29.37000021110726L13.285546875 33.34424491566179" stroke-width="0.03" stroke="#000000" fill="none"/>
<path d="M13.80703125 33.886187375373765L13.80703125 30.63453261710188L14.224218749999999 30.393669301674333L14.64140625 30.63453261710188" stroke-width="0.03" stroke="#000000" fill="none"/>
<path d="M14.745703124999999 30.574316788244992L13.80703125 31.11625924795697L13.911328125 31.17647507681386L14.85 30.63453261710188L15.788671874999999 31.17647507681386L15.89296875 31.11625924795697L14.954296875 30.574316788244992L16.205859375 29.851726841962353" stroke-width="0.03" stroke="#000000" fill="none"/>
<path d="M16.1015625 29.791511013105463L16.1015625 29.430216039964147L16.205859375 29.37000021110726" stroke-width="0.03" stroke="#000000" fill="none"/>
<path d="M16.1015625 29.430216039964147L16.205859375 29.490431868821034" stroke-width="0.03" stroke="#000000" fill="none"/>
<path d="M16.205859375 29.731295184248577L14.85 30.514100959388106L13.494140625 29.731295184248577" stroke-width="0.03" stroke="#000000" fill="none"/>
<path d="M13.598437500000001 29.791511013105463L13.598437500000001 29.430216039964147L13.494140625 29.37000021110726" stroke-width="0.03" stroke="#000000" fill="none"/>
<path d="M13.494140625 29.490431868821034L13.598437500000001 29.430216039964147" stroke-width="0.03" stroke="#000000" fill="none"/>
<path d="M13.285546875 29.37000021110726L11.72109375 28.46676277825396" stroke-width="0.03" stroke="#000000" fill="none"/>
<path d="M11.616796874999999 28.526978607110845L13.076953125000001 29.37000021110726" stroke-width="0.03" stroke="#000000" fill="none"/>
<path d="M13.076953125000001 29.490431868821034L12.97265625 29.550647697677917L12.97265625 32.32057582509471L13.076953125000001 32.3807916539516" stroke-width="0.03" stroke="#000000" fill="none"/>
<path d="M13.494140625 32.621654969379136L13.80703125 32.8023024559498" stroke-width="0.03" stroke="#000000" fill="none"/>
<path d="M13.80703125 33.886187375373765L13.911328125 33.94640320423065L14.85 33.40446074451867L15.788671874999999 33.94640320423065L15.89296875 33.886187375373765L15.89296875 30.63453261710188L15.47578125 30.393669301674333L15.05859375 30.63453261710188" stroke-width="0.03" stroke="#000000" fill="none"/>
<path d="M14.85 30.63453261710188L14.85 30.754964274815652L14.4328125 30.995827590243202L14.4328125 31.597985878812068L14.64140625 31.71841753652584L14.85 31.597985878812068L15.05859375 31.71841753652584L15.267187499999999 31.597985878812068L15.267187499999999 30.995827590243202L14.85 30.754964274815652" stroke-width="0.03" stroke="#000000" fill="none"/>
<path d="M14.745703124999999 30.574316788244992L13.494140625 29.851726841962353" stroke-width="0.03" stroke="#000000" fill="none"/>
<path d="M13.076953125000001 29.610863526534803L12.97265625 29.550647697677917" stroke-width="0.03" stroke="#000000" fill="none"/>
<path d="M12.97265625 29.791511013105463L12.451171875 30.0925901573899L12.451171875 31.8990650230965L12.97265625 31.597985878812068" stroke-width="0.03" stroke="#000000" fill="none"/>
<path d="M12.451171875 31.8990650230965L10.260937499999999 30.63453261710188" stroke-width="0.03" stroke="#000000" fill="none"/>
<path d="M9.948046875 30.815180103672542L10.678125 30.393669301674333" stroke-width="0.03" stroke="#000000" fill="none"/>
<path d="M10.991015625000001 30.333453472817446L11.512500000000001 30.032374328533013L10.88671875 29.67107935539169L10.88671875 29.189352724536597L11.825390624999999 28.647410264824618" stroke-width="0.03" stroke="#000000" fill="none"/>
<path d="M10.88671875 29.189352724536597L12.451171875 30.0925901573899" stroke-width="0.03" stroke="#000000" fill="none"/>
<path d="M11.512500000000001 30.032374328533013L11.512500000000001 30.273237643960556L10.991015625000001 30.574316788244992L10.365234375 30.21302181510367L10.365234375 29.972158499676127L10.88671875 29.67107935539169" stroke-width="0.03" stroke="#000000" fill="none"/>
<path d="M10.365234375 29.972158499676127L10.991015625000001 30.333453472817446L10.991015625000001 30.574316788244992" stroke-width="0.03" stroke="#000000" fill="none"/>
<path d="M9.948046875 30.815180103672542L9.948046875 28.888273580252164L6.714843749999999 27.021582885688677L7.862109374999999 26.359208768262917L7.862109374999999 26.118345452835374" stroke-width="0.03" stroke="#000000" fill="none"/>
<path d="M7.96640625 26.058129623978488L6.297656249999999 27.021582885688677L6.193359375 26.96136705683179L6.193359375 27.804388660828202L6.714843749999999 27.50330951654377L6.714843749999999 27.021582885688677" stroke-width="0.03" stroke="#000000" fill="none"/>
<path d="M6.297656249999999 27.021582885688677L6.297656249999999 26.058129623978488L6.193359375 25.9979137951216L6.193359375 25.877482137407824L7.340624999999999 25.215108019982072L7.4449218749999995 25.27532384883896L7.4449218749999995 25.39575550655273L7.7578125 25.576402993123395L7.862109374999999 25.51618716426651" stroke-width="0.03" stroke="#000000" fill="none"/>
<path d="M7.7578125 25.45597133540962L7.7578125 25.576402993123395" stroke-width="0.03" stroke="#000000" fill="none"/>
<path d="M7.7578125 25.45597133540962L10.365234375 26.96136705683179" stroke-width="0.03" stroke="#000000" fill="none"/>
<path d="M10.573828124999999 26.600072083690467L10.573828124999999 29.12913689567971" stroke-width="0.03" stroke="#000000" fill="none"/>
<path d="M10.365234375 28.647410264824618L9.948046875 28.888273580252164" stroke-width="0.03" stroke="#000000" fill="none"/>
<path d="M10.365234375 27.443093687686883L9.009374999999999 26.660287912547354L9.009374999999999 26.17856128169226" stroke-width="0.03" stroke="#000000" fill="none"/>
<path d="M7.96640625 26.058129623978488L7.96640625 25.576402993123395" stroke-width="0.03" stroke="#000000" fill="none"/>
<path d="M7.7578125 25.0946763622683L8.175 24.85381304684075L8.175 24.492518073699433" stroke-width="0.03" stroke="#000000" fill="none"/>
<path d="M8.175 24.85381304684075L8.487890625 25.034460533411412" stroke-width="0.03" stroke="#000000" fill="none"/>
<path d="M7.4449218749999995 24.914028875697635L7.4449218749999995 21.903237432853302" stroke-width="0.03" stroke="#000000" fill="none"/>
<path d="M7.862109374999999 21.903237432853302L5.671875 20.63870502685868" stroke-width="0.03" stroke="#000000" fill="none"/>
<path d="M5.984765624999999 21.060215828856883L5.567578125 21.301079144284433L5.567578125 25.034460533411412L6.714843749999999 24.37208641598566L6.9234374999999995 24.492518073699433" stroke-width="0.03" stroke="#000000" fill="none"/>
<path d="M7.027734374999999 24.432302244842543L5.3589843749999995 25.39575550655273L5.3589843749999995 25.51618716426651L4.62890625 25.0946763622683L5.150390625 24.793597217983862L5.567578125 25.034460533411412" stroke-width="0.03" stroke="#000000" fill="none"/>
<path d="M5.3589843749999995 25.39575550655273L6.193359375 25.877482137407824" stroke-width="0.03" stroke="#000000" fill="none"/>
<path d="M6.193359375 25.9979137951216L7.4449218749999995 25.27532384883896" stroke-width="0.03" stroke="#000000" fill="none"/>
<path d="M7.4449218749999995 25.39575550655273L6.297656249999999 26.058129623978488" stroke-width="0.03" stroke="#000000" fill="none"/>
<path d="M5.3589843749999995 26.479640425976694L5.3589843749999995 27.322662029973106L6.193359375 27.804388660828202" stroke-width="0.03" stroke="#000000" fill="none"/>
<path d="M5.3589843749999995 26.479640425976694L4.62890625 26.058129623978488L4.62890625 25.0946763622683" stroke-width="0.03" stroke="#000000" fill="none"/>
<path d="M2.960156250000001 24.612949731413206L2.7515624999999995 24.73338138912698L2.54296875 24.612949731413206L2.54296875 17.146186953159244L2.7515624999999995 17.025755295445475L2.960156250000001 17.146186953159244L2.960156250000001 24.612949731413206" stroke-width="0.03" stroke="#000000" fill="none"/>
<path d="M2.7515624999999995 24.73338138912698L2.7515624999999995 17.26661861087302L2.54296875 17.146186953159244" stroke-width="0.03" stroke="#000000" fill="none"/>
<path d="M2.7515624999999995 17.26661861087302L2.960156250000001 17.146186953159244" stroke-width="0.03" stroke="#000000" fill="none"/>
<path d="M3.1687499999999984 15.339712087452645L5.567578125 16.72467615116104" stroke-width="0.03" stroke="#000000" fill="none"/>
<path d="M6.610546875 17.08597112430236L8.905078125 18.410719359153866" stroke-width="0.03" stroke="#000000" fill="none"/>
<path d="M9.63515625 17.146186953159244L7.340624999999999 15.82143871830774" stroke-width="0.03" stroke="#000000" fill="none"/>
<path d="M7.862109374999999 15.520359574023306L8.175 15.701007060593964L8.279296875 15.640791231737078" stroke-width="0.03" stroke="#000000" fill="none"/>
<path d="M8.175 15.580575402880193L8.175 15.701007060593964" stroke-width="0.03" stroke="#000000" fill="none"/>
<path d="M8.38359375 15.701007060593964L9.322265625 15.159064600881985" stroke-width="0.03" stroke="#000000" fill="none"/>
<path d="M9.63515625 15.339712087452645L13.80703125 17.748345241728117L13.80703125 18.832230161152076" stroke-width="0.03" stroke="#000000" fill="none"/>
<path d="M14.015625 18.470935188010756L14.64140625 18.109640214869437L14.015625 17.748345241728117" stroke-width="0.03" stroke="#000000" fill="none"/>
<path d="M14.015625 17.62791358401434L13.80703125 17.748345241728117" stroke-width="0.03" stroke="#000000" fill="none"/>
<path d="M14.015625 18.109640214869437L14.328515625 18.290287701440096" stroke-width="0.03" stroke="#000000" fill="none"/>
<path d="M14.224218749999999 18.23007187258321L14.224218749999999 18.350503530296983" stroke-width="0.03" stroke="#000000" fill="none"/>
<path d="M14.64140625 18.711798503438303L14.64140625 19.193525134293395" stroke-width="0.03" stroke="#000000" fill="none"/>
<path d="M14.85 19.073093476579622L14.85 18.23007187258321" stroke-width="0.03" stroke="#000000" fill="none"/>
<path d="M14.85 17.989208557155663L15.997265625 17.326834439729907L16.1015625 17.387050268586794" stroke-width="0.03" stroke="#000000" fill="none"/>
<path d="M15.89296875 17.748345241728117L15.684375 17.62791358401434" stroke-width="0.03" stroke="#000000" fill="none"/>
<path d="M15.684375 17.748345241728117L15.05859375 18.109640214869437L15.684375 18.470935188010756" stroke-width="0.03" stroke="#000000" fill="none"/>
<path d="M15.47578125 18.350503530296983L15.47578125 18.23007187258321" stroke-width="0.03" stroke="#000000" fill="none"/>
<path d="M15.371484375 18.290287701440096L15.684375 18.109640214869437" stroke-width="0.03" stroke="#000000" fill="none"/>
<path d="M15.05859375 17.86877689944189L15.05859375 16.54402866459038" stroke-width="0.03" stroke="#000000" fill="none"/>
<path d="M14.85 16.423597006876605L14.85 17.989208557155663L13.702734374999999 17.326834439729907L13.598437500000001 17.387050268586794" stroke-width="0.03" stroke="#000000" fill="none"/>
<path d="M14.64140625 17.86877689944189L14.64140625 16.54402866459038" stroke-width="0.03" stroke="#000000" fill="none"/>
<path d="M15.05859375 18.711798503438303L15.05859375 19.193525134293395" stroke-width="0.03" stroke="#000000" fill="none"/>
<path d="M15.371484375 19.85589925171915L15.684375 19.67525176514849" stroke-width="0.03" stroke="#000000" fill="none"/>
<path d="M15.684375 20.03654673828981L15.371484375 19.85589925171915L15.371484375 19.976330909432924L15.684375 20.156978396003588" stroke-width="0.03" stroke="#000000" fill="none"/>
<path d="M15.89296875 20.397841711431134L23.089453125000002 16.24294952030595" stroke-width="0.03" stroke="#000000" fill="none"/>
<path d="M23.715234375 16.36338117801972L23.715234375 16.122517862592172" stroke-width="0.03" stroke="#000000" fill="none"/>
<path d="M24.549609375 14.195611339171796L24.23671875 14.014963852601136" stroke-width="0.03" stroke="#000000" fill="none"/>
<path d="M23.819531249999997 13.77410053717359L23.715234375 13.713884708316701L21.31640625 15.098848772025098L21.31640625 15.21928042973887" stroke-width="0.03" stroke="#000000" fill="none"/>
<path d="M21.31640625 15.098848772025098L21.420703125 15.159064600881985" stroke-width="0.03" stroke="#000000" fill="none"/>
<path d="M21.525000000000002 14.978417114311325L21.525000000000002 14.376258825742458L23.089453125000002 13.473021392889155L20.89921875 12.208488986894533" stroke-width="0.03" stroke="#000000" fill="none"/>
<path d="M20.89921875 11.847194013753214L19.23046875 12.8106472754634L15.997265625 10.943956580899911" stroke-width="0.03" stroke="#000000" fill="none"/>
<path d="M15.788671874999999 10.582661607758592L14.954296875 11.064388238613684L14.85 11.004172409756798L14.745703124999999 11.064388238613684L13.911328125 10.582661607758592L14.015625 10.522445778901705L13.285546875 10.100934976903497L13.285546875 10.703093265472365L13.702734374999999 10.943956580899911L13.702734374999999 12.26870481575142L13.911328125 12.389136473465193" stroke-width="0.03" stroke="#000000" fill="none"/>
<path d="M13.911328125 12.509568131178968L13.911328125 10.582661607758592" stroke-width="0.03" stroke="#000000" fill="none"/>
<path d="M13.702734374999999 10.943956580899911L10.46953125 12.8106472754634L10.46953125 13.292373906318495" stroke-width="0.03" stroke="#000000" fill="none"/>
<path d="M10.156640625 13.111726419747836L9.948046875 13.232158077461609" stroke-width="0.03" stroke="#000000" fill="none"/>
<path d="M10.156640625 13.111726419747836L12.346874999999999 14.376258825742458" stroke-width="0.03" stroke="#000000" fill="none"/>
<path d="M11.512500000000001 13.894532194887363L12.868359374999999 13.111726419747836L13.285546875 13.352589735175382" stroke-width="0.03" stroke="#000000" fill="none"/>
<path d="M13.911328125 12.509568131178968L14.328515625 12.750431446606514" stroke-width="0.03" stroke="#000000" fill="none"/>
<path d="M14.4328125 12.569783960035853L14.537109375 12.629999788892741" stroke-width="0.03" stroke="#000000" fill="none"/>
<path d="M14.745703124999999 12.389136473465193L14.745703124999999 11.064388238613684" stroke-width="0.03" stroke="#000000" fill="none"/>
<path d="M14.85 11.004172409756798L14.85 12.44935230232208" stroke-width="0.03" stroke="#000000" fill="none"/>
<path d="M14.954296875 12.389136473465193L14.954296875 11.064388238613684" stroke-width="0.03" stroke="#000000" fill="none"/>
<path d="M15.684375 10.522445778901705L16.414453125 10.100934976903497" stroke-width="0.03" stroke="#000000" fill="none"/>
<path d="M15.788671874999999 10.582661607758592L15.788671874999999 12.509568131178968" stroke-width="0.03" stroke="#000000" fill="none"/>
<path d="M15.267187499999999 12.569783960035853L15.162890625 12.629999788892741L17.7703125 14.13539551031491" stroke-width="0.03" stroke="#000000" fill="none"/>
<path d="M18.1875 13.894532194887363L16.831640625 13.111726419747836L16.414453125 13.352589735175382" stroke-width="0.03" stroke="#000000" fill="none"/>
<path d="M15.162890625 13.473021392889155L14.85 13.292373906318495L14.537109375 13.473021392889155" stroke-width="0.03" stroke="#000000" fill="none"/>
<path d="M14.85 13.292373906318495L14.85 12.8106472754634" stroke-width="0.03" stroke="#000000" fill="none"/>
<path d="M15.788671874999999 10.582661607758592L15.684375 10.522445778901705" stroke-width="0.03" stroke="#000000" fill="none"/>
<path d="M14.85 8.354675940053781L8.80078125 11.847194013753214L8.80078125 12.690215617749628" stroke-width="0.03" stroke="#000000" fill="none"/>
<path d="M8.696484375 12.991294762034062L9.322265625 12.629999788892741L9.113671875 12.509568131178968L8.487890625 12.87086310432029L8.487890625 13.473021392889155L8.696484375 13.593453050602928L9.322265625 13.232158077461609L9.739453124999999 13.473021392889155L9.739453124999999 14.556906312313117" stroke-width="0.03" stroke="#000000" fill="none"/>
<path d="M9.948046875 14.556906312313117L8.38359375 15.460143745166418L4.941796875 13.473021392889155L4.941796875 13.713884708316701L8.38359375 15.701007060593964L8.38359375 15.460143745166418" stroke-width="0.03" stroke="#000000" fill="none"/>
<path d="M8.487890625 15.279496258595758L9.948046875 14.436474654599342" stroke-width="0.03" stroke="#000000" fill="none"/>
<path d="M9.739453124999999 13.473021392889155L8.175 14.376258825742458L8.175 14.978417114311325" stroke-width="0.03" stroke="#000000" fill="none"/>
<path d="M8.279296875 15.159064600881985L8.38359375 15.098848772025098L5.984765624999999 13.713884708316701L5.88046875 13.77410053717359" stroke-width="0.03" stroke="#000000" fill="none"/>
<path d="M5.46328125 14.014963852601136L5.150390625 14.195611339171796" stroke-width="0.03" stroke="#000000" fill="none"/>
<path d="M4.941796875 13.473021392889155L5.150390625 13.352589735175382L8.5921875 15.339712087452645L8.5921875 15.580575402880193" stroke-width="0.03" stroke="#000000" fill="none"/>
<path d="M8.38359375 15.21928042973887L8.38359375 15.098848772025098" stroke-width="0.03" stroke="#000000" fill="none"/>
<path d="M8.175 14.376258825742458L6.610546875 13.473021392889155L8.80078125 12.208488986894533" stroke-width="0.03" stroke="#000000" fill="none"/>
<path d="M8.80078125 11.847194013753214L10.46953125 12.8106472754634" stroke-width="0.03" stroke="#000000" fill="none"/>
<path d="M9.322265625 12.629999788892741L9.322265625 13.232158077461609" stroke-width="0.03" stroke="#000000" fill="none"/>
<path d="M8.696484375 12.991294762034062L8.696484375 13.593453050602928" stroke-width="0.03" stroke="#000000" fill="none"/>
<path d="M8.696484375 12.991294762034062L8.487890625 12.87086310432029" stroke-width="0.03" stroke="#000000" fill="none"/>
<path d="M6.610546875 13.473021392889155L6.610546875 14.075179681458023" stroke-width="0.03" stroke="#000000" fill="none"/>
<path d="M5.567578125 12.629999788892741L5.567578125 12.389136473465193" stroke-width="0.03" stroke="#000000" fill="none"/>
<path d="M4.62890625 19.554820107434715L4.8374999999999995 19.67525176514849" stroke-width="0.03" stroke="#000000" fill="none"/>
<path d="M3.898828125 20.337625882574244L3.898828125 27.322662029973106L9.948046875 30.815180103672542" stroke-width="0.03" stroke="#000000" fill="none"/>
<path d="M12.033984375000001 33.34424491566179L12.242578125 33.22381325794801L5.776171874999998 29.490431868821034L5.567578125 29.610863526534803L5.567578125 29.851726841962353L12.033984375000001 33.58510823108933L12.242578125 33.464676573375556L12.242578125 33.22381325794801" stroke-width="0.03" stroke="#000000" fill="none"/>
<path d="M12.033984375000001 33.34424491566179L12.033984375000001 33.58510823108933" stroke-width="0.03" stroke="#000000" fill="none"/>
<path d="M12.033984375000001 33.34424491566179L5.567578125 29.610863526534803" stroke-width="0.03" stroke="#000000" fill="none"/>
<path d="M7.340624999999999 25.215108019982072L7.340624999999999 24.85381304684075L7.4449218749999995 24.793597217983862" stroke-width="0.03" stroke="#000000" fill="none"/>
<path d="M7.4449218749999995 24.673165560270093L7.027734374999999 24.432302244842543" stroke-width="0.03" stroke="#000000" fill="none"/>
<path d="M7.340624999999999 24.85381304684075L7.4449218749999995 24.914028875697635" stroke-width="0.03" stroke="#000000" fill="none"/>
<path d="M7.4449218749999995 23.468848983132357L7.027734374999999 23.227985667704807L7.027734374999999 21.662374117425752" stroke-width="0.03" stroke="#000000" fill="none"/>
<path d="M8.487890625 21.662374117425752L10.88671875 23.047338181134148L12.033984375000001 22.384964063708395" stroke-width="0.03" stroke="#000000" fill="none"/>
<path d="M12.242578125 22.50539572142217L10.88671875 23.288201496561694L11.095312499999999 23.40863315427547L11.095312499999999 26.17856128169226" stroke-width="0.03" stroke="#000000" fill="none"/>
<path d="M12.346874999999999 23.890359785130563L12.242578125 23.830143956273677L12.242578125 22.50539572142217L11.095312499999999 21.843021603996412L11.095312499999999 21.72258994628264" stroke-width="0.03" stroke="#000000" fill="none"/>
<path d="M11.512500000000001 21.72258994628264L11.512500000000001 21.96345326171019" stroke-width="0.03" stroke="#000000" fill="none"/>
<path d="M11.616796874999999 21.903237432853302L12.242578125 22.264532405994622L12.242578125 21.54194245971198" stroke-width="0.03" stroke="#000000" fill="none"/>
<path d="M12.451171875 21.42151080199821L12.451171875 22.384964063708395L13.285546875 22.866690694563488" stroke-width="0.03" stroke="#000000" fill="none"/>
<path d="M13.076953125000001 22.98712235227726L12.451171875 22.62582737913594L12.451171875 23.348417325418584" stroke-width="0.03" stroke="#000000" fill="none"/>
<path d="M12.346874999999999 23.40863315427547L12.555468750000001 23.529064811989244" stroke-width="0.03" stroke="#000000" fill="none"/>
<path d="M12.7640625 23.167769838847924L12.7640625 22.8064748657066" stroke-width="0.03" stroke="#000000" fill="none"/>
<path d="M12.868359374999999 22.866690694563488L12.7640625 22.926906523420374" stroke-width="0.03" stroke="#000000" fill="none"/>
<path d="M12.242578125 22.746259036849715L11.095312499999999 23.40863315427547" stroke-width="0.03" stroke="#000000" fill="none"/>
<path d="M10.88671875 23.288201496561694L10.88671875 23.047338181134148" stroke-width="0.03" stroke="#000000" fill="none"/>
<path d="M11.9296875 21.72258994628264L12.242578125 21.903237432853302" stroke-width="0.03" stroke="#000000" fill="none"/>
<path d="M12.138281249999999 21.843021603996412L12.242578125 21.782805775139526" stroke-width="0.03" stroke="#000000" fill="none"/>
<path d="M12.7640625 21.96345326171019L13.181249999999999 21.72258994628264L12.7640625 21.481726630855093" stroke-width="0.03" stroke="#000000" fill="none"/>
<path d="M13.181249999999999 21.72258994628264L13.181249999999999 21.96345326171019L12.451171875 22.384964063708395" stroke-width="0.03" stroke="#000000" fill="none"/>
<path d="M12.97265625 22.32474823485151L13.389843749999999 22.08388491942396L13.389843749999999 22.565611550279055" stroke-width="0.03" stroke="#000000" fill="none"/>
<path d="M13.389843749999999 22.08388491942396L13.181249999999999 21.96345326171019" stroke-width="0.03" stroke="#000000" fill="none"/>
<path d="M14.119921875 22.023669090567072L14.224218749999999 21.96345326171019L14.537109375 22.14410074828085" stroke-width="0.03" stroke="#000000" fill="none"/>
<path d="M14.4328125 22.204316577137735L14.119921875 22.023669090567072L14.119921875 22.384964063708395" stroke-width="0.03" stroke="#000000" fill="none"/>
<path d="M14.85 22.204316577137735L14.85 30.514100959388106" stroke-width="0.03" stroke="#000000" fill="none"/>
<path d="M14.85 30.995827590243202L14.64140625 31.11625924795697L14.4328125 30.995827590243202" stroke-width="0.03" stroke="#000000" fill="none"/>
<path d="M14.64140625 31.11625924795697L14.64140625 31.71841753652584" stroke-width="0.03" stroke="#000000" fill="none"/>
<path d="M15.05859375 31.71841753652584L15.05859375 31.11625924795697L15.267187499999999 30.995827590243202" stroke-width="0.03" stroke="#000000" fill="none"/>
<path d="M15.05859375 31.11625924795697L14.85 30.995827590243202L14.85 33.40446074451867" stroke-width="0.03" stroke="#000000" fill="none"/>
<path d="M13.911328125 33.94640320423065L13.911328125 31.17647507681386" stroke-width="0.03" stroke="#000000" fill="none"/>
<path d="M14.224218749999999 30.87539593252943L13.80703125 30.63453261710188" stroke-width="0.03" stroke="#000000" fill="none"/>
<path d="M14.119921875 30.0925901573899L14.119921875 27.443093687686883" stroke-width="0.03" stroke="#000000" fill="none"/>
<path d="M15.580078125 27.443093687686883L15.580078125 30.0925901573899" stroke-width="0.03" stroke="#000000" fill="none"/>
<path d="M15.89296875 30.63453261710188L15.47578125 30.87539593252943" stroke-width="0.03" stroke="#000000" fill="none"/>
<path d="M15.788671874999999 31.17647507681386L15.788671874999999 33.94640320423065" stroke-width="0.03" stroke="#000000" fill="none"/>
<path d="M16.414453125 33.34424491566179L16.623046875 33.22381325794801L16.623046875 29.249568553393484L16.414453125 29.12913689567971" stroke-width="0.03" stroke="#000000" fill="none"/>
<path d="M16.205859375 29.249568553393484L16.414453125 29.37000021110726" stroke-width="0.03" stroke="#000000" fill="none"/>
<path d="M16.623046875 29.37000021110726L18.083203125 28.526978607110845" stroke-width="0.03" stroke="#000000" fill="none"/>
<path d="M18.81328125 29.189352724536597L17.248828125 30.0925901573899L17.248828125 31.8990650230965L16.72734375 31.597985878812068" stroke-width="0.03" stroke="#000000" fill="none"/>
<path d="M17.248828125 31.8990650230965L19.439062500000002 30.63453261710188" stroke-width="0.03" stroke="#000000" fill="none"/>
<path d="M19.751953125 30.815180103672542L19.751953125 28.888273580252164L22.98515625 27.021582885688677L21.837890625 26.359208768262917L21.837890625 26.118345452835374" stroke-width="0.03" stroke="#000000" fill="none"/>
<path d="M21.733593749999997 26.058129623978488L21.733593749999997 25.576402993123395" stroke-width="0.03" stroke="#000000" fill="none"/>
<path d="M21.837890625 25.51618716426651L21.9421875 25.576402993123395L22.255078124999997 25.39575550655273L22.255078124999997 25.27532384883896L22.359375 25.215108019982072" stroke-width="0.03" stroke="#000000" fill="none"/>
<path d="M22.255078124999997 25.27532384883896L23.506640625 25.9979137951216L23.40234375 26.058129623978488L23.40234375 27.021582885688677L21.733593749999997 26.058129623978488" stroke-width="0.03" stroke="#000000" fill="none"/>
<path d="M21.9421875 25.576402993123395L21.9421875 25.45597133540962L19.334765625 26.96136705683179" stroke-width="0.03" stroke="#000000" fill="none"/>
<path d="M19.126171875 26.600072083690467L19.126171875 29.12913689567971" stroke-width="0.03" stroke="#000000" fill="none"/>
<path d="M19.334765625 28.647410264824618L19.751953125 28.888273580252164" stroke-width="0.03" stroke="#000000" fill="none"/>
<path d="M19.334765625 29.972158499676127L19.334765625 30.21302181510367L18.708984375 30.574316788244992L18.1875 30.273237643960556L18.1875 30.032374328533013L18.81328125 29.67107935539169" stroke-width="0.03" stroke="#000000" fill="none"/>
<path d="M18.708984375 30.333453472817446L18.708984375 30.574316788244992" stroke-width="0.03" stroke="#000000" fill="none"/>
<path d="M18.708984375 30.333453472817446L18.1875 30.032374328533013" stroke-width="0.03" stroke="#000000" fill="none"/>
<path d="M17.248828125 30.0925901573899L16.72734375 29.791511013105463" stroke-width="0.03" stroke="#000000" fill="none"/>
<path d="M16.623046875 29.610863526534803L16.72734375 29.550647697677917L16.72734375 32.32057582509471L16.623046875 32.3807916539516" stroke-width="0.03" stroke="#000000" fill="none"/>
<path d="M16.205859375 32.621654969379136L15.89296875 32.8023024559498" stroke-width="0.03" stroke="#000000" fill="none"/>
<path d="M17.457421875 33.22381325794801L23.923828125000004 29.490431868821034L24.132421875000002 29.610863526534803L24.132421875000002 29.851726841962353L17.666015625 33.58510823108933L17.457421875 33.464676573375556L17.457421875 33.22381325794801L17.666015625 33.34424491566179L17.666015625 33.58510823108933" stroke-width="0.03" stroke="#000000" fill="none"/>
<path d="M17.666015625 33.34424491566179L24.132421875000002 29.610863526534803" stroke-width="0.03" stroke="#000000" fill="none"/>
<path d="M23.506640625 27.804388660828202L24.341015624999997 27.322662029973106L24.341015624999997 26.479640425976694L25.07109375 26.058129623978488L25.07109375 25.0946763622683L24.549609375 24.793597217983862L24.132421875000002 25.034460533411412" stroke-width="0.03" stroke="#000000" fill="none"/>
<path d="M24.341015624999997 25.39575550655273L24.341015624999997 25.51618716426651L25.07109375 25.0946763622683" stroke-width="0.03" stroke="#000000" fill="none"/>
<path d="M26.73984375 24.612949731413206L26.73984375 17.146186953159244L26.9484375 17.025755295445475L27.15703125 17.146186953159244L27.15703125 24.612949731413206L26.9484375 24.73338138912698L26.73984375 24.612949731413206" stroke-width="0.03" stroke="#000000" fill="none"/>
<path d="M26.9484375 24.73338138912698L26.9484375 17.26661861087302L27.15703125 17.146186953159244" stroke-width="0.03" stroke="#000000" fill="none"/>
<path d="M26.9484375 17.26661861087302L26.73984375 17.146186953159244" stroke-width="0.03" stroke="#000000" fill="none"/>
<path d="M25.07109375 19.554820107434715L24.8625 19.67525176514849" stroke-width="0.03" stroke="#000000" fill="none"/>
<path d="M23.923828125000004 20.337625882574244L22.98515625 19.795683422862265" stroke-width="0.03" stroke="#000000" fill="none"/>
<path d="M23.715234375 21.060215828856883L24.132421875000002 21.301079144284433" stroke-width="0.03" stroke="#000000" fill="none"/>
<path d="M22.672265625 21.662374117425752L22.672265625 23.227985667704807L22.255078124999997 23.468848983132357" stroke-width="0.03" stroke="#000000" fill="none"/>
<path d="M21.525000000000002 24.492518073699433L21.525000000000002 24.85381304684075L21.9421875 25.0946763622683" stroke-width="0.03" stroke="#000000" fill="none"/>
<path d="M22.255078124999997 25.39575550655273L23.40234375 26.058129623978488" stroke-width="0.03" stroke="#000000" fill="none"/>
<path d="M23.506640625 25.9979137951216L23.506640625 25.877482137407824" stroke-width="0.03" stroke="#000000" fill="none"/>
<path d="M23.506640625 26.96136705683179L23.40234375 27.021582885688677" stroke-width="0.03" stroke="#000000" fill="none"/>
<path d="M23.506640625 26.96136705683179L23.506640625 27.804388660828202L22.98515625 27.50330951654377L22.98515625 27.021582885688677" stroke-width="0.03" stroke="#000000" fill="none"/>
<path d="M20.690625 26.660287912547354L19.334765625 27.443093687686883" stroke-width="0.03" stroke="#000000" fill="none"/>
<path d="M18.81328125 26.780719570261127L18.81328125 26.058129623978488L18.6046875 26.17856128169226L17.353125 25.45597133540962" stroke-width="0.03" stroke="#000000" fill="none"/>
<path d="M17.353125 25.937697966264714L17.56171875 26.058129623978488" stroke-width="0.03" stroke="#000000" fill="none"/>
<path d="M17.353125 26.17856128169226L17.978906249999998 25.817266308550938" stroke-width="0.03" stroke="#000000" fill="none"/>
<path d="M18.083203125 25.877482137407824L17.353125 26.29899293940603" stroke-width="0.03" stroke="#000000" fill="none"/>
<path d="M18.083203125 26.359208768262917L18.083203125 25.877482137407824" stroke-width="0.03" stroke="#000000" fill="none"/>
<path d="M18.083203125 26.359208768262917L18.81328125 26.780719570261127" stroke-width="0.03" stroke="#000000" fill="none"/>
<path d="M18.6046875 26.17856128169226L18.6046875 23.40863315427547L18.81328125 23.288201496561694L18.81328125 23.047338181134148L21.212109374999997 21.662374117425752" stroke-width="0.03" stroke="#000000" fill="none"/>
<path d="M18.6046875 21.72258994628264L18.6046875 21.843021603996412L17.457421875 22.50539572142217L17.457421875 23.830143956273677L17.353125 23.890359785130563" stroke-width="0.03" stroke="#000000" fill="none"/>
<path d="M17.457421875 22.746259036849715L18.6046875 23.40863315427547" stroke-width="0.03" stroke="#000000" fill="none"/>
<path d="M18.81328125 23.288201496561694L17.457421875 22.50539572142217" stroke-width="0.03" stroke="#000000" fill="none"/>
<path d="M17.666015625 22.384964063708395L18.81328125 23.047338181134148" stroke-width="0.03" stroke="#000000" fill="none"/>
<path d="M18.1875 21.96345326171019L18.1875 21.72258994628264" stroke-width="0.03" stroke="#000000" fill="none"/>
<path d="M18.1875 21.96345326171019L17.248828125 21.42151080199821" stroke-width="0.03" stroke="#000000" fill="none"/>
<path d="M17.457421875 21.54194245971198L17.457421875 22.264532405994622" stroke-width="0.03" stroke="#000000" fill="none"/>
<path d="M17.457421875 21.903237432853302L17.7703125 21.72258994628264" stroke-width="0.03" stroke="#000000" fill="none"/>
<path d="M17.56171875 21.843021603996412L17.457421875 21.782805775139526" stroke-width="0.03" stroke="#000000" fill="none"/>
<path d="M16.9359375 21.96345326171019L16.51875 21.72258994628264L16.9359375 21.481726630855093" stroke-width="0.03" stroke="#000000" fill="none"/>
<path d="M16.51875 21.72258994628264L16.51875 21.96345326171019" stroke-width="0.03" stroke="#000000" fill="none"/>
<path d="M16.31015625 22.08388491942396L16.72734375 22.32474823485151" stroke-width="0.03" stroke="#000000" fill="none"/>
<path d="M15.580078125 22.384964063708395L15.580078125 22.023669090567072L15.47578125 21.96345326171019L15.162890625 22.14410074828085" stroke-width="0.03" stroke="#000000" fill="none"/>
<path d="M15.267187499999999 22.204316577137735L15.580078125 22.023669090567072" stroke-width="0.03" stroke="#000000" fill="none"/>
<path d="M16.1015625 21.120431657713773L16.414453125 20.939784171143113" stroke-width="0.03" stroke="#000000" fill="none"/>
<path d="M16.1015625 20.759136684572454L16.1015625 21.120431657713773L15.997265625 21.060215828856883L15.997265625 20.698920855715564" stroke-width="0.03" stroke="#000000" fill="none"/>
<path d="M12.868359374999999 19.37417262086406L12.659765624999999 19.253740963150285" stroke-width="0.03" stroke="#000000" fill="none"/>
<path d="M12.242578125 19.976330909432924L12.451171875 20.096762567146698" stroke-width="0.03" stroke="#000000" fill="none"/>
<path d="M5.567578125 21.301079144284433L3.898828125 20.337625882574244" stroke-width="0.03" stroke="#000000" fill="none"/>
<path d="M16.623046875 29.490431868821034L16.72734375 29.550647697677917" stroke-width="0.03" stroke="#000000" fill="none"/>
<path d="M20.690625 26.660287912547354L20.690625 26.17856128169226" stroke-width="0.03" stroke="#000000" fill="none"/>
<path d="M21.212109374999997 25.034460533411412L21.525000000000002 24.85381304684075" stroke-width="0.03" stroke="#000000" fill="none"/>
<path d="M21.525000000000002 15.701007060593964L21.525000000000002 15.580575402880193" stroke-width="0.03" stroke="#000000" fill="none"/>
<path d="M21.525000000000002 14.376258825742458L19.960546875000002 13.473021392889155" stroke-width="0.03" stroke="#000000" fill="none"/>
<path d="M19.23046875 13.292373906318495L19.23046875 12.8106472754634" stroke-width="0.03" stroke="#000000" fill="none"/>
<path d="M20.377734375 12.629999788892741L21.003515625000002 12.991294762034062L21.003515625000002 13.593453050602928" stroke-width="0.03" stroke="#000000" fill="none"/>
<path d="M21.003515625000002 12.991294762034062L21.212109374999997 12.87086310432029" stroke-width="0.03" stroke="#000000" fill="none"/>
<path d="M20.89921875 12.690215617749628L20.89921875 11.847194013753214L14.85 8.354675940053781" stroke-width="0.03" stroke="#000000" fill="none"/>
<path d="M17.666015625 8.655755084338216L17.874609375000002 8.53532342662444L24.341015624999997 12.26870481575142L24.341015624999997 12.509568131178968L24.132421875000002 12.629999788892741L17.666015625 8.896618399765762L17.666015625 8.655755084338216L24.132421875000002 12.389136473465193L24.132421875000002 12.629999788892741" stroke-width="0.03" stroke="#000000" fill="none"/>
<path d="M24.132421875000002 12.389136473465193L24.341015624999997 12.26870481575142" stroke-width="0.03" stroke="#000000" fill="none"/>
<path d="M23.089453125000002 13.473021392889155L23.089453125000002 14.075179681458023" stroke-width="0.03" stroke="#000000" fill="none"/>
<path d="M9.237499999999999 2.533333333333333L1.5 2.533333333333333" stroke-width="0.03" stroke="#000000" fill="none"/>
<path d="M2.1166666666666667 2.2291666666666665L2.1166666666666667 1.8208333333333333" stroke-width="0.03" stroke="#000000" fill="none"/>
<path d="M2.0875 1.6166666666666667L2.1166666666666667 1.6458333333333333L2.145833333333333 1.6166666666666667L2.1166666666666667 1.5875L2.0875 1.6166666666666667" stroke-width="0.03" stroke="#000000" fill="none"/>
<path d="M2.3208333333333333 2.1416666666666666L2.35 2.2L2.4375 2.2291666666666665L2.525 2.2291666666666665L2.6125 2.2L2.6416666666666666 2.1416666666666666L2.6416666666666666 2.1125L2.6125 2.0541666666666667L2.5541666666666667 2.025L2.408333333333333 1.9958333333333333L2.35 1.9666666666666666L2.3208333333333333 1.9083333333333332L2.35 1.85L2.4375 1.8208333333333333L2.525 1.8208333333333333L2.6125 1.85L2.6416666666666666 1.9083333333333332" stroke-width="0.03" stroke="#000000" fill="none"/>
<path d="M2.9625 1.8208333333333333L2.904166666666667 1.85L2.845833333333333 1.9083333333333332L2.8166666666666664 1.9958333333333333L2.8166666666666664 2.0541666666666667L2.845833333333333 2.1416666666666666L2.904166666666667 2.2L2.9625 2.2291666666666665L3.05 2.2291666666666665L3.1083333333333334 2.2L3.1666666666666665 2.1416666666666666L3.1958333333333333 2.0541666666666667L3.1958333333333333 1.9958333333333333L3.1666666666666665 1.9083333333333332L3.1083333333333334 1.85L3.05 1.8208333333333333L2.9625 1.8208333333333333" stroke-width="0.03" stroke="#000000" fill="none"/>
<path d="M3.283333333333333 2.2874999999999996L3.75 2.2874999999999996" stroke-width="0.03" stroke="#000000" fill="none"/>
<path d="M3.8375 2.1416666666666666L3.8666666666666663 2.2L3.9541666666666666 2.2291666666666665L4.041666666666666 2.2291666666666665L4.129166666666666 2.2L4.158333333333333 2.1416666666666666L4.158333333333333 2.1125L4.129166666666666 2.0541666666666667L4.070833333333333 2.025L3.925 1.9958333333333333L3.8666666666666663 1.9666666666666666L3.8375 1.9083333333333332L3.8666666666666663 1.85L3.9541666666666666 1.8208333333333333L4.041666666666666 1.8208333333333333L4.129166666666666 1.85L4.158333333333333 1.9083333333333332" stroke-width="0.03" stroke="#000000" fill="none"/>
<path d="M4.3625 1.9375L4.449999999999999 1.85L4.508333333333333 1.8208333333333333L4.595833333333333 1.8208333333333333L4.654166666666667 1.85L4.683333333333334 1.9375L4.683333333333334 2.2291666666666665" stroke-width="0.03" stroke="#000000" fill="none"/>
<path d="M4.3625 2.2291666666666665L4.3625 1.8208333333333333" stroke-width="0.03" stroke="#000000" fill="none"/>
<path d="M5.033333333333333 1.8208333333333333L4.975 1.85L4.916666666666666 1.9083333333333332L4.887499999999999 1.9958333333333333L4.887499999999999 2.0541666666666667L4.916666666666666 2.1416666666666666L4.975 2.2L5.033333333333333 2.2291666666666665L5.120833333333334 2.2291666666666665L5.179166666666666 2.2L5.2375 2.1416666666666666L5.266666666666666 2.0541666666666667L5.266666666666666 1.9958333333333333L5.2375 1.9083333333333332L5.179166666666666 1.85L5.120833333333334 1.8208333333333333L5.033333333333333 1.8208333333333333" stroke-width="0.03" stroke="#000000" fill="none"/>
<path d="M5.441666666666666 1.8208333333333333L5.558333333333334 2.2291666666666665L5.675 1.8208333333333333L5.791666666666666 2.2291666666666665L5.908333333333333 1.8208333333333333" stroke-width="0.03" stroke="#000000" fill="none"/>
<path d="M6.054166666666666 1.8208333333333333L6.258333333333333 1.8208333333333333" stroke-width="0.03" stroke="#000000" fill="none"/>
<path d="M6.2875 1.6166666666666667L6.229166666666666 1.6166666666666667L6.1708333333333325 1.6458333333333333L6.141666666666667 1.7333333333333334L6.141666666666667 2.2291666666666665" stroke-width="0.03" stroke="#000000" fill="none"/>
<path d="M6.4624999999999995 2.2291666666666665L6.4624999999999995 1.6166666666666667" stroke-width="0.03" stroke="#000000" fill="none"/>
<path d="M7.016666666666666 1.8208333333333333L7.016666666666666 2.2291666666666665" stroke-width="0.03" stroke="#000000" fill="none"/>
<path d="M7.016666666666666 2.1416666666666666L6.958333333333333 2.2L6.8999999999999995 2.2291666666666665L6.812499999999999 2.2291666666666665L6.754166666666666 2.2L6.695833333333333 2.1416666666666666L6.666666666666666 2.0541666666666667L6.666666666666666 1.9958333333333333L6.695833333333333 1.9083333333333332L6.754166666666666 1.85L6.812499999999999 1.8208333333333333L6.8999999999999995 1.8208333333333333L6.958333333333333 1.85L7.016666666666666 1.9083333333333332" stroke-width="0.03" stroke="#000000" fill="none"/>
<path d="M7.249999999999999 2.1125L7.541666666666666 1.8208333333333333" stroke-width="0.03" stroke="#000000" fill="none"/>
<path d="M7.366666666666666 1.9958333333333333L7.570833333333333 2.2291666666666665" stroke-width="0.03" stroke="#000000" fill="none"/>
<path d="M7.716666666666666 1.9958333333333333L8.066666666666666 1.9958333333333333L8.066666666666666 1.9375L8.0375 1.8791666666666667L8.008333333333333 1.85L7.949999999999999 1.8208333333333333L7.8625 1.8208333333333333L7.804166666666666 1.85L7.745833333333333 1.9083333333333332L7.716666666666666 1.9958333333333333L7.716666666666666 2.0541666666666667L7.745833333333333 2.1416666666666666L7.804166666666666 2.2L7.8625 2.2291666666666665L7.949999999999999 2.2291666666666665L8.008333333333333 2.2L8.066666666666666 2.1416666666666666" stroke-width="0.03" stroke="#000000" fill="none"/>
<path d="M8.475 2.2291666666666665L8.475 1.6166666666666667L8.3875 1.7041666666666666L8.329166666666666 1.7333333333333334" stroke-width="0.03" stroke="#000000" fill="none"/>
<path d="M7.249999999999999 1.6166666666666667L7.249999999999999 2.2291666666666665" stroke-width="0.03" stroke="#000000" fill="none"/>
<path d="M5.424938354322334 3.383983116796798L5.172574475582794 3.383983116796798L5.352834388968179 3.2037232034114123L5.388886371645256 3.149645229395796L5.406912362983795 3.113593246718719L5.406912362983795 3.077541264041642L5.388886371645256 3.041489281364565L5.370860380306718 3.023463290026026L5.33480839762964 3.0054372986874878L5.262704432275486 3.0054372986874878L5.22665244959841 3.023463290026026L5.20862645825987 3.041489281364565L5.190600466921332 3.077541264041642L5.190600466921332 3.0955672553801805" stroke-width="0.03" stroke="#000000" fill="none"/>
<path d="M5.046392536213023 3.1316192380572576L5.028366544874484 3.1856972120728733L4.992314562197407 3.221749194749951L4.938236588181791 3.2397751860884894L4.920210596843253 3.2397751860884894L4.866132622827637 3.221749194749951L4.83008064015056 3.1856972120728733L4.812054648812021 3.1316192380572576L4.812054648812021 3.113593246718719L4.83008064015056 3.0595152727031034L4.866132622827637 3.023463290026026L4.920210596843253 3.0054372986874878L4.938236588181791 3.0054372986874878L4.992314562197407 3.023463290026026L5.028366544874484 3.0595152727031034L5.046392536213023 3.1316192380572576L5.046392536213023 3.221749194749951L5.028366544874484 3.3118791514426436L4.992314562197407 3.3659571254582596L4.938236588181791 3.383983116796798L4.902184605504715 3.383983116796798L4.848106631489099 3.3659571254582596L4.83008064015056 3.3299051427811825" stroke-width="0.03" stroke="#000000" fill="none"/>
<path d="M4.7219246921193285 3.383983116796798L4.487586804718326 3.383983116796798L4.487586804718326 3.0054372986874878L4.7219246921193285 3.0054372986874878" stroke-width="0.03" stroke="#000000" fill="none"/>
<path d="M4.631794735426635 3.1856972120728733L4.487586804718326 3.1856972120728733" stroke-width="0.03" stroke="#000000" fill="none"/>
<path d="M4.199170943301709 3.0054372986874878L4.145092969286093 3.023463290026026L4.127066977947555 3.0595152727031034L4.127066977947555 3.0955672553801805L4.145092969286093 3.1316192380572576L4.18114495196317 3.149645229395796L4.253248917317325 3.167671220734335L4.3073268913329406 3.1856972120728733L4.343378874010018 3.221749194749951L4.361404865348556 3.257801177427028L4.361404865348556 3.3118791514426436L4.343378874010018 3.3479311341197207L4.3253528826714795 3.3659571254582596L4.2712749086558635 3.383983116796798L4.199170943301709 3.383983116796798L4.145092969286093 3.3659571254582596L4.127066977947555 3.3479311341197207L4.109040986609016 3.3118791514426436L4.109040986609016 3.257801177427028L4.127066977947555 3.221749194749951L4.163118960624631 3.1856972120728733L4.217196934640247 3.167671220734335L4.289300899994402 3.149645229395796L4.3253528826714795 3.1316192380572576L4.343378874010018 3.0955672553801805L4.343378874010018 3.0595152727031034L4.3253528826714795 3.023463290026026L4.2712749086558635 3.0054372986874878L4.199170943301709 3.0054372986874878" stroke-width="0.03" stroke="#000000" fill="none"/>
<path d="M4.018911029916323 3.0054372986874878L3.7845731425153213 3.0054372986874878L3.7845731425153213 3.383983116796798L4.018911029916323 3.383983116796798" stroke-width="0.03" stroke="#000000" fill="none"/>
<path d="M3.9287810732236297 3.1856972120728733L3.7845731425153213 3.1856972120728733" stroke-width="0.03" stroke="#000000" fill="none"/>
<path d="M3.622339220468474 3.0054372986874878L3.442079307083088 3.0054372986874878L3.4240533157445494 3.167671220734335L3.442079307083088 3.149645229395796L3.4961572810987036 3.1316192380572576L3.5502352551143197 3.1316192380572576L3.604313229129935 3.149645229395796L3.6403652118070124 3.1856972120728733L3.658391203145551 3.2397751860884894L3.658391203145551 3.2758271687655665L3.6403652118070124 3.3299051427811825L3.604313229129935 3.3659571254582596L3.5502352551143197 3.383983116796798L3.4961572810987036 3.383983116796798L3.442079307083088 3.3659571254582596L3.4240533157445494 3.3479311341197207L3.4060273244060104 3.3118791514426436" stroke-width="0.03" stroke="#000000" fill="none"/>
<path d="M3.297871376374779 3.383983116796798L3.0455074976352385 3.383983116796798L3.225767411020625 3.2037232034114123L3.261819393697702 3.149645229395796L3.2798453850362406 3.113593246718719L3.2798453850362406 3.077541264041642L3.261819393697702 3.041489281364565L3.243793402359163 3.023463290026026L3.207741419682086 3.0054372986874878L3.1356374543279317 3.0054372986874878L3.0995854716508546 3.023463290026026L3.0815594803123156 3.041489281364565L3.0635334889737775 3.077541264041642L3.0635334889737775 3.0955672553801805" stroke-width="0.03" stroke="#000000" fill="none"/>
<path d="M2.9734035322810843 3.0054372986874878L2.7390656448800828 3.0054372986874878L2.7390656448800828 3.383983116796798" stroke-width="0.03" stroke="#000000" fill="none"/>
<path d="M2.6128837055103125 3.383983116796798L2.414597800786388 3.1316192380572576" stroke-width="0.03" stroke="#000000" fill="none"/>
<path d="M2.6128837055103125 3.1316192380572576L2.414597800786388 3.383983116796798" stroke-width="0.03" stroke="#000000" fill="none"/>
<path d="M2.7390656448800828 3.1856972120728733L2.883273575588391 3.1856972120728733" stroke-width="0.03" stroke="#000000" fill="none"/>
<path d="M2.1622339220468474 3.0054372986874878L2.1081559480312317 3.023463290026026L2.072103965354154 3.077541264041642L2.0540779740156156 3.167671220734335L2.0540779740156156 3.221749194749951L2.072103965354154 3.3118791514426436L2.1081559480312317 3.3659571254582596L2.1622339220468474 3.383983116796798L2.1982859047239245 3.383983116796798L2.2523638787395406 3.3659571254582596L2.2884158614166177 3.3118791514426436L2.3064418527551562 3.221749194749951L2.3064418527551562 3.167671220734335L2.2884158614166177 3.077541264041642L2.2523638787395406 3.023463290026026L2.1982859047239245 3.0054372986874878L2.1622339220468474 3.0054372986874878" stroke-width="0.03" stroke="#000000" fill="none"/>
</svg>
