<?xml version="1.0" standalone="no"?>
<svg width="29.7cm" height="42cm" version="1.1" xmlns="http://www.w3.org/2000/svg" viewBox="0.0 0.0 29.700001 42.000001">
<path d="M7.5492187500000005 11.606330698325666L12.555468750000001 8.715970913195102L12.97265625 8.956834228622649L14.537109375 8.053596795769348L14.85 8.234244282340008L15.162890625 8.053596795769348L16.72734375 8.956834228622649L17.14453125 8.715970913195102L22.150781249999998 11.606330698325666L22.150781249999998 12.328920644608306" stroke-width="0.03" stroke="#000000" fill="none"/>
<path d="M22.567968750000002 12.569783960035853L21.629296875 13.111726419747836L21.629296875 13.593453050602928L21.003515625000002 13.232158077461609L20.690625 13.412805564032269" stroke-width="0.03" stroke="#000000" fill="none"/>
<path d="M20.482031250000002 13.292373906318495L20.377734375 13.352589735175382L20.377734375 13.834316366030475L21.629296875 14.556906312313117" stroke-width="0.03" stroke="#000000" fill="none"/>
<path d="M22.150781249999998 14.255827168028683L20.482031250000002 13.292373906318495" stroke-width="0.03" stroke="#000000" fill="none"/>
<path d="M20.377734375 13.352589735175382L20.89921875 13.653668879459815L20.89921875 13.533237221746042L21.003515625000002 13.473021392889155L22.255078124999997 14.195611339171796" stroke-width="0.03" stroke="#000000" fill="none"/>
<path d="M22.463671875 14.436474654599342L22.567968750000002 14.376258825742458L24.341015624999997 15.399927916309531L24.341015624999997 15.520359574023306L24.23671875 15.580575402880193L24.341015624999997 15.640791231737078L24.4453125 15.580575402880193L24.4453125 17.62791358401434L24.341015624999997 17.688129412871227L22.7765625 16.784891980017925L20.794921875 17.928992728298773" stroke-width="0.03" stroke="#000000" fill="none"/>
<path d="M20.89921875 17.62791358401434L20.89921875 17.50748192630057L20.794921875 17.44726609744368" stroke-width="0.03" stroke="#000000" fill="none"/>
<path d="M20.794921875 17.567697755157454L15.89296875 20.397841711431134L15.89296875 20.03654673828981L17.56171875 19.073093476579622L17.56171875 19.434388449720945L17.874609375000002 19.615035936291605L17.874609375000002 20.21719422486047L16.205859375 21.18064748657066L15.371484375 20.698920855715564L15.371484375 19.735467594005378L17.040234375 18.77201433229519L17.56171875 19.073093476579622" stroke-width="0.03" stroke="#000000" fill="none"/>
<path d="M17.56171875 19.31395679200717L19.439062500000002 18.23007187258321L19.439062500000002 18.350503530296983L19.543359374999998 18.410719359153866L19.543359374999998 21.060215828856883L17.248828125 22.384964063708395L17.248828125 25.034460533411412L14.954296875 26.359208768262917L14.85 26.29899293940603L14.745703124999999 26.359208768262917L12.451171875 25.034460533411412L12.451171875 22.384964063708395L10.156640625 21.060215828856883L10.156640625 18.410719359153866L10.260937499999999 18.350503530296983L10.260937499999999 18.23007187258321L12.555468750000001 16.905323637731698L14.85 18.23007187258321L17.14453125 16.905323637731698L19.439062500000002 18.23007187258321" stroke-width="0.03" stroke="#000000" fill="none"/>
<path d="M19.543359374999998 18.410719359153866L17.666015625 19.49460427857783" stroke-width="0.03" stroke="#000000" fill="none"/>
<path d="M17.874609375000002 19.615035936291605L16.205859375 20.57848919800179L15.89296875 20.397841711431134" stroke-width="0.03" stroke="#000000" fill="none"/>
<path d="M16.205859375 20.57848919800179L16.205859375 21.18064748657066" stroke-width="0.03" stroke="#000000" fill="none"/>
<path d="M16.623046875 20.939784171143113L16.623046875 22.023669090567072L15.684375 22.565611550279055" stroke-width="0.03" stroke="#000000" fill="none"/>
<path d="M15.684375 22.08388491942396L15.162890625 22.384964063708395L15.162890625 24.311870587128773L15.684375 24.010791442844337L15.684375 22.08388491942396L14.85 21.602158288568866L14.015625 22.08388491942396L14.015625 24.010791442844337L14.537109375 24.311870587128773L14.85 24.13122310055811L15.162890625 24.311870587128773" stroke-width="0.03" stroke="#000000" fill="none"/>
<path d="M14.954296875 24.191438929414996L14.954296875 26.359208768262917" stroke-width="0.03" stroke="#000000" fill="none"/>
<path d="M14.745703124999999 26.359208768262917L14.745703124999999 24.191438929414996" stroke-width="0.03" stroke="#000000" fill="none"/>
<path d="M14.537109375 24.311870587128773L14.537109375 22.384964063708395L14.015625 22.08388491942396" stroke-width="0.03" stroke="#000000" fill="none"/>
<path d="M14.015625 22.565611550279055L13.076953125000001 22.023669090567072L13.076953125000001 20.939784171143113" stroke-width="0.03" stroke="#000000" fill="none"/>
<path d="M13.494140625 21.18064748657066L14.328515625 20.698920855715564L14.328515625 19.735467594005378L12.659765624999999 18.77201433229519L12.138281249999999 19.073093476579622L12.138281249999999 19.434388449720945L11.825390624999999 19.615035936291605L11.825390624999999 20.21719422486047L13.494140625 21.18064748657066L13.494140625 20.57848919800179L11.825390624999999 19.615035936291605" stroke-width="0.03" stroke="#000000" fill="none"/>
<path d="M12.033984375000001 19.49460427857783L10.156640625 18.410719359153866" stroke-width="0.03" stroke="#000000" fill="none"/>
<path d="M10.260937499999999 18.23007187258321L12.138281249999999 19.31395679200717" stroke-width="0.03" stroke="#000000" fill="none"/>
<path d="M12.138281249999999 19.073093476579622L13.80703125 20.03654673828981L14.328515625 19.735467594005378" stroke-width="0.03" stroke="#000000" fill="none"/>
<path d="M13.911328125 19.49460427857783L14.85 18.95266181886585L15.788671874999999 19.49460427857783" stroke-width="0.03" stroke="#000000" fill="none"/>
<path d="M15.371484375 19.735467594005378L15.89296875 20.03654673828981" stroke-width="0.03" stroke="#000000" fill="none"/>
<path d="M14.85 21L13.076953125000001 22.023669090567072" stroke-width="0.03" stroke="#000000" fill="none"/>
<path d="M12.346874999999999 22.44517989256528L11.72109375 22.8064748657066L11.72109375 21.96345326171019" stroke-width="0.03" stroke="#000000" fill="none"/>
<path d="M11.825390624999999 22.023669090567072L11.825390624999999 22.62582737913594L12.451171875 22.98712235227726" stroke-width="0.03" stroke="#000000" fill="none"/>
<path d="M12.451171875 23.107554009991038L11.9296875 22.8064748657066L11.9296875 22.08388491942396" stroke-width="0.03" stroke="#000000" fill="none"/>
<path d="M12.138281249999999 22.204316577137735L12.138281249999999 22.32474823485151L12.346874999999999 22.44517989256528L12.346874999999999 22.686043207992828L12.451171875 22.746259036849715" stroke-width="0.03" stroke="#000000" fill="none"/>
<path d="M12.451171875 23.227985667704807L11.72109375 22.8064748657066" stroke-width="0.03" stroke="#000000" fill="none"/>
<path d="M11.199609375 23.107554009991038L11.199609375 24.55273390255632" stroke-width="0.03" stroke="#000000" fill="none"/>
<path d="M11.303906249999999 24.612949731413206L10.88671875 24.85381304684075L9.530859375 24.071007271701223L9.530859375 22.50539572142217L8.279296875 21.782805775139526L8.38359375 21.72258994628264L8.38359375 21.120431657713773L9.4265625 20.518273369144907" stroke-width="0.03" stroke="#000000" fill="none"/>
<path d="M9.4265625 20.397841711431134L9.4265625 20.759136684572454L9.948046875 21.060215828856883" stroke-width="0.03" stroke="#000000" fill="none"/>
<path d="M9.948046875 21.301079144284433L9.322265625 21.662374117425752L8.38359375 21.120431657713773" stroke-width="0.03" stroke="#000000" fill="none"/>
<path d="M8.38359375 21.72258994628264L9.322265625 22.264532405994622L9.948046875 21.903237432853302" stroke-width="0.03" stroke="#000000" fill="none"/>
<path d="M9.948046875 22.264532405994622L9.530859375 22.50539572142217" stroke-width="0.03" stroke="#000000" fill="none"/>
<path d="M9.322265625 22.264532405994622L9.322265625 21.662374117425752" stroke-width="0.03" stroke="#000000" fill="none"/>
<path d="M9.948046875 22.384964063708395L11.199609375 23.107554009991038" stroke-width="0.03" stroke="#000000" fill="none"/>
<path d="M10.991015625000001 23.227985667704807L10.365234375 23.58928064084613L11.199609375 24.071007271701223" stroke-width="0.03" stroke="#000000" fill="none"/>
<path d="M11.199609375 23.830143956273677L10.991015625000001 23.709712298559904L10.991015625000001 23.227985667704807L10.573828124999999 22.98712235227726L10.573828124999999 22.746259036849715" stroke-width="0.03" stroke="#000000" fill="none"/>
<path d="M10.365234375 22.62582737913594L10.365234375 23.58928064084613" stroke-width="0.03" stroke="#000000" fill="none"/>
<path d="M10.365234375 24.071007271701223L10.365234375 24.191438929414996L9.948046875 23.95057561398745L9.948046875 23.830143956273677L9.84375 23.76992812741679L9.84375 23.288201496561694L9.948046875 23.227985667704807" stroke-width="0.03" stroke="#000000" fill="none"/>
<path d="M9.84375 23.288201496561694L9.948046875 23.348417325418584L9.948046875 20.458057540288017" stroke-width="0.03" stroke="#000000" fill="none"/>
<path d="M10.05234375 20.397841711431134L10.156640625 20.458057540288017" stroke-width="0.03" stroke="#000000" fill="none"/>
<path d="M10.156640625 20.337625882574244L9.739453124999999 20.57848919800179L9.739453124999999 20.337625882574244L3.5859375 16.784891980017925L3.5859375 17.025755295445475L9.948046875 20.698920855715564" stroke-width="0.03" stroke="#000000" fill="none"/>
<path d="M9.739453124999999 20.337625882574244L10.156640625 20.096762567146698" stroke-width="0.03" stroke="#000000" fill="none"/>
<path d="M10.156640625 19.253740963150285L8.905078125 18.531151016867643L8.905078125 17.206402782016134" stroke-width="0.03" stroke="#000000" fill="none"/>
<path d="M8.905078125 17.44726609744368L8.80078125 17.50748192630057L8.80078125 17.62791358401434" stroke-width="0.03" stroke="#000000" fill="none"/>
<path d="M8.905078125 17.567697755157454L13.80703125 20.397841711431134L13.80703125 20.03654673828981" stroke-width="0.03" stroke="#000000" fill="none"/>
<path d="M13.80703125 20.397841711431134L13.494140625 20.57848919800179" stroke-width="0.03" stroke="#000000" fill="none"/>
<path d="M14.85 21L14.85 18.95266181886585" stroke-width="0.03" stroke="#000000" fill="none"/>
<path d="M14.85 18.109640214869437L15.05859375 17.989208557155663L15.162890625 18.049424386012547" stroke-width="0.03" stroke="#000000" fill="none"/>
<path d="M15.371484375 17.928992728298773L14.745703124999999 17.567697755157454L14.224218749999999 17.86877689944189" stroke-width="0.03" stroke="#000000" fill="none"/>
<path d="M14.328515625 17.928992728298773L14.954296875 17.567697755157454L15.47578125 17.86877689944189" stroke-width="0.03" stroke="#000000" fill="none"/>
<path d="M15.580078125 17.808561070585L14.85 17.387050268586794L14.119921875 17.808561070585" stroke-width="0.03" stroke="#000000" fill="none"/>
<path d="M14.537109375 18.049424386012547L14.64140625 17.989208557155663L14.85 18.109640214869437L14.85 17.387050268586794" stroke-width="0.03" stroke="#000000" fill="none"/>
<path d="M14.85 16.784891980017925L16.1015625 16.062302033735286" stroke-width="0.03" stroke="#000000" fill="none"/>
<path d="M16.205859375 16.122517862592172L16.205859375 15.640791231737078L14.85 14.85798545659755L13.494140625 15.640791231737078L12.242578125 14.918201285454437L12.242578125 15.038632943168212L13.181249999999999 15.580575402880193L13.181249999999999 16.303165349162832" stroke-width="0.03" stroke="#000000" fill="none"/>
<path d="M13.494140625 16.122517862592172L13.494140625 15.640791231737078" stroke-width="0.03" stroke="#000000" fill="none"/>
<path d="M13.181249999999999 15.580575402880193L12.659765624999999 15.881654547164626L11.72109375 15.339712087452645L12.242578125 15.038632943168212" stroke-width="0.03" stroke="#000000" fill="none"/>
<path d="M12.242578125 14.918201285454437L12.7640625 14.617122141170004L12.7640625 14.49669048345623L10.88671875 13.412805564032269L8.905078125 14.556906312313117L8.905078125 15.038632943168212" stroke-width="0.03" stroke="#000000" fill="none"/>
<path d="M8.905078125 14.556906312313117L10.782421874999999 15.640791231737078L12.7640625 14.49669048345623" stroke-width="0.03" stroke="#000000" fill="none"/>
<path d="M13.702734374999999 13.834316366030475L14.85 13.171942248604722L15.997265625 13.834316366030475L14.85 14.49669048345623L13.702734374999999 13.834316366030475" stroke-width="0.03" stroke="#000000" fill="none"/>
<path d="M14.4328125 13.894532194887363L14.85 13.653668879459815L14.85 13.171942248604722" stroke-width="0.03" stroke="#000000" fill="none"/>
<path d="M14.85 13.653668879459815L15.267187499999999 13.894532194887363L15.267187499999999 14.255827168028683" stroke-width="0.03" stroke="#000000" fill="none"/>
<path d="M15.162890625 14.31604299688557L15.162890625 13.95474802374425L15.267187499999999 13.894532194887363" stroke-width="0.03" stroke="#000000" fill="none"/>
<path d="M15.162890625 13.95474802374425L14.85 13.77410053717359L14.537109375 13.95474802374425L14.537109375 14.31604299688557" stroke-width="0.03" stroke="#000000" fill="none"/>
<path d="M14.4328125 14.255827168028683L14.4328125 13.894532194887363L14.537109375 13.95474802374425" stroke-width="0.03" stroke="#000000" fill="none"/>
<path d="M14.85 13.77410053717359L14.85 14.49669048345623" stroke-width="0.03" stroke="#000000" fill="none"/>
<path d="M14.85 14.85798545659755L14.85 15.339712087452645L14.954296875 15.279496258595758L15.371484375 15.520359574023306L15.371484375 15.640791231737078" stroke-width="0.03" stroke="#000000" fill="none"/>
<path d="M15.371484375 15.520359574023306L15.267187499999999 15.580575402880193L17.7703125 17.025755295445475" stroke-width="0.03" stroke="#000000" fill="none"/>
<path d="M17.7703125 17.146186953159244L17.666015625 17.206402782016134" stroke-width="0.03" stroke="#000000" fill="none"/>
<path d="M17.7703125 17.26661861087302L17.7703125 16.784891980017925L17.978906249999998 16.905323637731698L17.978906249999998 17.387050268586794" stroke-width="0.03" stroke="#000000" fill="none"/>
<path d="M17.978906249999998 16.905323637731698L24.132421875000002 13.352589735175382L23.923828125000004 13.232158077461609L17.56171875 16.905323637731698" stroke-width="0.03" stroke="#000000" fill="none"/>
<path d="M17.248828125 16.72467615116104L17.7703125 16.423597006876605L18.083203125 16.60424449344727" stroke-width="0.03" stroke="#000000" fill="none"/>
<path d="M17.978906249999998 16.54402866459038L17.978906249999998 15.339712087452645L17.457421875 15.038632943168212L17.457421875 14.918201285454437L16.9359375 14.617122141170004L16.9359375 14.49669048345623L18.81328125 13.412805564032269L20.794921875 14.556906312313117L20.794921875 15.038632943168212" stroke-width="0.03" stroke="#000000" fill="none"/>
<path d="M20.794921875 14.556906312313117L18.917578125000002 15.640791231737078L16.9359375 14.49669048345623" stroke-width="0.03" stroke="#000000" fill="none"/>
<path d="M17.457421875 14.918201285454437L16.205859375 15.640791231737078" stroke-width="0.03" stroke="#000000" fill="none"/>
<path d="M16.51875 15.580575402880193L17.457421875 15.038632943168212" stroke-width="0.03" stroke="#000000" fill="none"/>
<path d="M17.978906249999998 15.339712087452645L17.040234375 15.881654547164626L17.040234375 16.60424449344727" stroke-width="0.03" stroke="#000000" fill="none"/>
<path d="M16.51875 16.303165349162832L16.51875 15.580575402880193L17.040234375 15.881654547164626" stroke-width="0.03" stroke="#000000" fill="none"/>
<path d="M15.684375 16.303165349162832L14.85 15.82143871830774L14.015625 16.303165349162832" stroke-width="0.03" stroke="#000000" fill="none"/>
<path d="M14.224218749999999 16.423597006876605L14.4328125 16.303165349162832L14.85 16.54402866459038L15.267187499999999 16.303165349162832L15.47578125 16.423597006876605" stroke-width="0.03" stroke="#000000" fill="none"/>
<path d="M14.85 16.54402866459038L14.85 15.82143871830774" stroke-width="0.03" stroke="#000000" fill="none"/>
<path d="M14.4328125 15.580575402880193L11.9296875 17.025755295445475" stroke-width="0.03" stroke="#000000" fill="none"/>
<path d="M11.9296875 17.146186953159244L12.033984375000001 17.206402782016134" stroke-width="0.03" stroke="#000000" fill="none"/>
<path d="M11.9296875 17.26661861087302L11.9296875 16.784891980017925L11.72109375 16.905323637731698L5.567578125 13.352589735175382L5.776171874999998 13.232158077461609L12.138281249999999 16.905323637731698" stroke-width="0.03" stroke="#000000" fill="none"/>
<path d="M12.451171875 16.72467615116104L11.9296875 16.423597006876605L11.616796874999999 16.60424449344727" stroke-width="0.03" stroke="#000000" fill="none"/>
<path d="M11.72109375 16.54402866459038L11.72109375 15.339712087452645" stroke-width="0.03" stroke="#000000" fill="none"/>
<path d="M10.782421874999999 15.640791231737078L10.782421874999999 16.122517862592172" stroke-width="0.03" stroke="#000000" fill="none"/>
<path d="M11.72109375 16.905323637731698L11.72109375 17.387050268586794" stroke-width="0.03" stroke="#000000" fill="none"/>
<path d="M10.991015625000001 17.808561070585L9.739453124999999 17.08597112430236L8.5921875 17.748345241728117" stroke-width="0.03" stroke="#000000" fill="none"/>
<path d="M8.905078125 17.928992728298773L6.9234374999999995 16.784891980017925L5.3589843749999995 17.688129412871227L5.254687500000001 17.62791358401434L5.254687500000001 15.580575402880193L5.3589843749999995 15.520359574023306L5.3589843749999995 15.399927916309531L7.13203125 14.376258825742458L7.236328125 14.436474654599342L7.236328125 16.24294952030595L9.21796875 17.387050268586794" stroke-width="0.03" stroke="#000000" fill="none"/>
<path d="M8.5921875 19.916115080576038L8.175 20.156978396003588L8.175 22.44517989256528L6.297656249999999 21.36129497314132L6.297656249999999 19.073093476579622L6.714843749999999 18.832230161152076" stroke-width="0.03" stroke="#000000" fill="none"/>
<path d="M6.297656249999999 19.073093476579622L8.175 20.156978396003588" stroke-width="0.03" stroke="#000000" fill="none"/>
<path d="M8.279296875 21.782805775139526L8.279296875 22.384964063708395L8.175 22.44517989256528" stroke-width="0.03" stroke="#000000" fill="none"/>
<path d="M8.070703124999998 23.58928064084613L8.070703124999998 24.914028875697635L9.21796875 25.576402993123395L9.21796875 24.251654758271883L8.070703124999998 23.58928064084613" stroke-width="0.03" stroke="#000000" fill="none"/>
<path d="M8.487890625 24.191438929414996L8.80078125 24.010791442844337" stroke-width="0.03" stroke="#000000" fill="none"/>
<path d="M8.905078125 24.071007271701223L8.5921875 24.251654758271883L8.5921875 24.612949731413206L8.905078125 24.793597217983862L9.21796875 24.612949731413206" stroke-width="0.03" stroke="#000000" fill="none"/>
<path d="M9.21796875 24.73338138912698L8.905078125 24.914028875697635L8.487890625 24.673165560270093L8.070703124999998 24.914028875697635" stroke-width="0.03" stroke="#000000" fill="none"/>
<path d="M8.487890625 24.673165560270093L8.487890625 24.191438929414996L8.5921875 24.251654758271883" stroke-width="0.03" stroke="#000000" fill="none"/>
<path d="M8.5921875 24.612949731413206L9.21796875 24.251654758271883" stroke-width="0.03" stroke="#000000" fill="none"/>
<path d="M9.530859375 24.071007271701223L9.948046875 23.830143956273677" stroke-width="0.03" stroke="#000000" fill="none"/>
<path d="M10.365234375 24.071007271701223L12.868359374999999 25.51618716426651" stroke-width="0.03" stroke="#000000" fill="none"/>
<path d="M12.97265625 25.45597133540962L12.97265625 25.335539677695845" stroke-width="0.03" stroke="#000000" fill="none"/>
<path d="M13.076953125000001 25.39575550655273L12.659765624999999 25.636618821980278L12.868359374999999 25.75705047969405L13.285546875 25.51618716426651" stroke-width="0.03" stroke="#000000" fill="none"/>
<path d="M12.868359374999999 25.75705047969405L12.868359374999999 32.86251828480669L12.659765624999999 32.74208662709292L12.659765624999999 25.39575550655273" stroke-width="0.03" stroke="#000000" fill="none"/>
<path d="M12.346874999999999 25.215108019982072L12.346874999999999 25.817266308550938L12.659765624999999 25.9979137951216" stroke-width="0.03" stroke="#000000" fill="none"/>
<path d="M12.555468750000001 25.937697966264714L11.512500000000001 26.53985625483358L10.991015625000001 26.238777110549147L10.88671875 26.29899293940603L10.365234375 25.9979137951216L10.260937499999999 26.058129623978488L10.260937499999999 28.22589946282641L12.242578125 29.37000021110726L12.659765624999999 29.12913689567971" stroke-width="0.03" stroke="#000000" fill="none"/>
<path d="M12.242578125 29.37000021110726L12.242578125 27.202230372259333L10.260937499999999 26.058129623978488" stroke-width="0.03" stroke="#000000" fill="none"/>
<path d="M10.88671875 26.29899293940603L10.88671875 24.85381304684075" stroke-width="0.03" stroke="#000000" fill="none"/>
<path d="M10.991015625000001 25.154892191125185L11.616796874999999 24.793597217983862" stroke-width="0.03" stroke="#000000" fill="none"/>
<path d="M12.138281249999999 25.0946763622683L11.512500000000001 25.45597133540962L11.512500000000001 26.53985625483358" stroke-width="0.03" stroke="#000000" fill="none"/>
<path d="M10.991015625000001 26.238777110549147L10.991015625000001 25.154892191125185L11.512500000000001 25.45597133540962" stroke-width="0.03" stroke="#000000" fill="none"/>
<path d="M10.46953125 24.13122310055811L10.365234375 24.191438929414996" stroke-width="0.03" stroke="#000000" fill="none"/>
<path d="M8.905078125 24.793597217983862L8.905078125 24.914028875697635" stroke-width="0.03" stroke="#000000" fill="none"/>
<path d="M8.070703124999998 25.877482137407824L8.070703124999998 26.840935399118013L8.487890625 26.600072083690467L8.487890625 26.118345452835374" stroke-width="0.03" stroke="#000000" fill="none"/>
<path d="M8.696484375 26.238777110549147L8.696484375 27.202230372259333L9.21796875 27.50330951654377" stroke-width="0.03" stroke="#000000" fill="none"/>
<path d="M9.113671875 27.443093687686883L9.113671875 28.04525197625575L9.21796875 28.105467805112635" stroke-width="0.03" stroke="#000000" fill="none"/>
<path d="M9.21796875 28.46676277825396L8.905078125 28.647410264824618L7.5492187500000005 27.864604489685092L7.5492187500000005 26.53985625483358" stroke-width="0.03" stroke="#000000" fill="none"/>
<path d="M7.236328125 26.359208768262917L7.236328125 25.39575550655273L6.4019531249999995 24.914028875697635L6.4019531249999995 23.95057561398745L6.819140625 23.709712298559904L7.236328125 23.95057561398745" stroke-width="0.03" stroke="#000000" fill="none"/>
<path d="M7.236328125 23.709712298559904L6.4019531249999995 23.227985667704807L6.4019531249999995 22.62582737913594" stroke-width="0.03" stroke="#000000" fill="none"/>
<path d="M6.4019531249999995 22.746259036849715L5.88046875 22.44517989256528L5.88046875 22.32474823485151" stroke-width="0.03" stroke="#000000" fill="none"/>
<path d="M5.567578125 22.14410074828085L5.254687500000001 22.32474823485151L5.254687500000001 23.890359785130563L6.4019531249999995 24.55273390255632" stroke-width="0.03" stroke="#000000" fill="none"/>
<path d="M5.88046875 24.37208641598566L5.46328125 24.13122310055811L5.46328125 24.010791442844337" stroke-width="0.03" stroke="#000000" fill="none"/>
<path d="M5.567578125 24.191438929414996L5.567578125 25.636618821980278L4.733203124999998 26.118345452835374L4.211718750000001 25.817266308550938L4.211718750000001 27.142014543402446L5.3589843749999995 27.804388660828202L5.3589843749999995 27.202230372259333L6.193359375 26.72050374140424L7.4449218749999995 27.443093687686883" stroke-width="0.03" stroke="#000000" fill="none"/>
<path d="M7.4449218749999995 27.563525345400656L7.4449218749999995 27.081798714545563" stroke-width="0.03" stroke="#000000" fill="none"/>
<path d="M7.5492187500000005 27.142014543402446L5.984765624999999 26.238777110549147L5.984765624999999 26.118345452835374L5.88046875 26.058129623978488L5.88046875 24.251654758271883" stroke-width="0.03" stroke="#000000" fill="none"/>
<path d="M6.4019531249999995 23.95057561398745L7.236328125 24.432302244842543L7.236328125 23.107554009991038L4.733203124999998 21.662374117425752L4.733203124999998 19.735467594005378L5.046093749999999 19.554820107434715L5.046093749999999 18.832230161152076L4.941796875 18.77201433229519L4.941796875 17.808561070585L3.6902343750000006 18.531151016867643L3.6902343750000006 22.50539572142217L4.62890625 23.047338181134148L5.254687500000001 22.686043207992828" stroke-width="0.03" stroke="#000000" fill="none"/>
<path d="M5.254687500000001 22.32474823485151L6.4019531249999995 22.98712235227726" stroke-width="0.03" stroke="#000000" fill="none"/>
<path d="M4.733203124999998 22.98712235227726L4.733203124999998 26.118345452835374" stroke-width="0.03" stroke="#000000" fill="none"/>
<path d="M5.254687500000001 25.817266308550938L5.88046875 26.17856128169226L5.88046875 26.901151227974903" stroke-width="0.03" stroke="#000000" fill="none"/>
<path d="M5.3589843749999995 27.202230372259333L8.070703124999998 28.767841922538388" stroke-width="0.03" stroke="#000000" fill="none"/>
<path d="M7.96640625 28.828057751395274L8.5921875 28.46676277825396" stroke-width="0.03" stroke="#000000" fill="none"/>
<path d="M8.905078125 28.647410264824618L8.905078125 27.322662029973106" stroke-width="0.03" stroke="#000000" fill="none"/>
<path d="M9.21796875 26.53985625483358L9.21796875 29.430216039964147L10.88671875 30.393669301674333L11.199609375 30.21302181510367L11.199609375 29.851726841962353" stroke-width="0.03" stroke="#000000" fill="none"/>
<path d="M11.408203125 29.972158499676127L11.512500000000001 29.91194267081924L10.991015625000001 29.610863526534803L11.408203125 29.37000021110726L12.659765624999999 30.0925901573899" stroke-width="0.03" stroke="#000000" fill="none"/>
<path d="M12.659765624999999 30.694748445958766L10.991015625000001 29.731295184248577L10.991015625000001 29.610863526534803" stroke-width="0.03" stroke="#000000" fill="none"/>
<path d="M11.199609375 29.490431868821034L11.199609375 28.767841922538388" stroke-width="0.03" stroke="#000000" fill="none"/>
<path d="M10.88671875 28.58719443596773L10.88671875 30.393669301674333" stroke-width="0.03" stroke="#000000" fill="none"/>
<path d="M11.199609375 30.21302181510367L11.825390624999999 30.574316788244992L11.825390624999999 30.694748445958766L12.659765624999999 31.17647507681386L11.408203125 31.8990650230965L7.96640625 29.91194267081924L7.96640625 28.828057751395274L11.408203125 30.815180103672542L11.408203125 31.8990650230965" stroke-width="0.03" stroke="#000000" fill="none"/>
<path d="M11.512500000000001 31.838849194239618L12.659765624999999 32.50122331166537" stroke-width="0.03" stroke="#000000" fill="none"/>
<path d="M12.7640625 32.8023024559498L12.555468750000001 32.92273411366358L12.555468750000001 33.163597429091126L13.494140625 33.7055398888031L14.85 32.92273411366358L16.205859375 33.7055398888031L17.14453125 33.163597429091126L17.14453125 32.92273411366358L16.9359375 32.8023024559498" stroke-width="0.03" stroke="#000000" fill="none"/>
<path d="M17.040234375 32.74208662709292L16.831640625 32.86251828480669L15.162890625 31.8990650230965" stroke-width="0.03" stroke="#000000" fill="none"/>
<path d="M14.954296875 31.8990650230965L16.72734375 30.87539593252943L16.72734375 30.995827590243202L14.954296875 32.01949668081028L14.85 31.959280851953388L14.85 31.838849194239618L14.745703124999999 31.8990650230965L12.97265625 30.87539593252943L12.97265625 30.995827590243202L14.745703124999999 32.01949668081028L14.85 31.959280851953388" stroke-width="0.03" stroke="#000000" fill="none"/>
<path d="M14.85 31.838849194239618L14.954296875 31.8990650230965L14.954296875 32.01949668081028" stroke-width="0.03" stroke="#000000" fill="none"/>
<path d="M14.745703124999999 32.01949668081028L14.745703124999999 31.8990650230965" stroke-width="0.03" stroke="#000000" fill="none"/>
<path d="M14.537109375 31.8990650230965L12.868359374999999 32.86251828480669" stroke-width="0.03" stroke="#000000" fill="none"/>
<path d="M12.555468750000001 32.92273411366358L13.494140625 33.464676573375556L14.85 32.68187079823603L16.205859375 33.464676573375556L17.14453125 32.92273411366358" stroke-width="0.03" stroke="#000000" fill="none"/>
<path d="M17.040234375 32.74208662709292L17.040234375 25.39575550655273" stroke-width="0.03" stroke="#000000" fill="none"/>
<path d="M17.040234375 25.636618821980278L16.831640625 25.75705047969405L16.414453125 25.51618716426651" stroke-width="0.03" stroke="#000000" fill="none"/>
<path d="M16.623046875 25.39575550655273L17.040234375 25.636618821980278" stroke-width="0.03" stroke="#000000" fill="none"/>
<path d="M16.831640625 25.51618716426651L19.334765625 24.071007271701223L19.334765625 24.191438929414996L19.751953125 23.95057561398745L19.751953125 23.830143956273677L19.85625 23.76992812741679L19.85625 23.288201496561694L19.751953125 23.227985667704807" stroke-width="0.03" stroke="#000000" fill="none"/>
<path d="M19.85625 23.288201496561694L19.751953125 23.348417325418584L19.751953125 20.458057540288017" stroke-width="0.03" stroke="#000000" fill="none"/>
<path d="M19.647656249999997 20.397841711431134L19.543359374999998 20.458057540288017" stroke-width="0.03" stroke="#000000" fill="none"/>
<path d="M19.543359374999998 20.337625882574244L19.960546875000002 20.57848919800179L19.960546875000002 20.337625882574244L26.1140625 16.784891980017925L26.1140625 17.025755295445475L19.751953125 20.698920855715564" stroke-width="0.03" stroke="#000000" fill="none"/>
<path d="M19.751953125 21.060215828856883L20.2734375 20.759136684572454L20.2734375 20.397841711431134" stroke-width="0.03" stroke="#000000" fill="none"/>
<path d="M20.2734375 20.518273369144907L21.31640625 21.120431657713773L21.31640625 21.72258994628264L21.420703125 21.782805775139526L21.420703125 22.384964063708395L21.525000000000002 22.44517989256528L23.40234375 21.36129497314132L23.40234375 19.073093476579622L22.98515625 18.832230161152076" stroke-width="0.03" stroke="#000000" fill="none"/>
<path d="M23.40234375 19.073093476579622L21.525000000000002 20.156978396003588L21.525000000000002 22.44517989256528" stroke-width="0.03" stroke="#000000" fill="none"/>
<path d="M21.420703125 21.782805775139526L20.169140624999997 22.50539572142217L20.169140624999997 24.071007271701223L18.81328125 24.85381304684075L18.396093750000002 24.612949731413206" stroke-width="0.03" stroke="#000000" fill="none"/>
<path d="M18.500390624999998 24.55273390255632L18.500390624999998 23.107554009991038L19.751953125 22.384964063708395" stroke-width="0.03" stroke="#000000" fill="none"/>
<path d="M19.751953125 22.264532405994622L20.169140624999997 22.50539572142217" stroke-width="0.03" stroke="#000000" fill="none"/>
<path d="M20.377734375 22.264532405994622L21.31640625 21.72258994628264" stroke-width="0.03" stroke="#000000" fill="none"/>
<path d="M21.31640625 21.120431657713773L20.377734375 21.662374117425752L19.751953125 21.301079144284433" stroke-width="0.03" stroke="#000000" fill="none"/>
<path d="M19.751953125 21.903237432853302L20.377734375 22.264532405994622L20.377734375 21.662374117425752" stroke-width="0.03" stroke="#000000" fill="none"/>
<path d="M19.960546875000002 20.337625882574244L19.543359374999998 20.096762567146698" stroke-width="0.03" stroke="#000000" fill="none"/>
<path d="M19.543359374999998 19.253740963150285L20.794921875 18.531151016867643L20.794921875 17.206402782016134" stroke-width="0.03" stroke="#000000" fill="none"/>
<path d="M20.482031250000002 17.387050268586794L22.463671875 16.24294952030595L22.463671875 14.436474654599342L24.23671875 15.460143745166418L24.23671875 15.580575402880193" stroke-width="0.03" stroke="#000000" fill="none"/>
<path d="M24.341015624999997 15.640791231737078L24.341015624999997 17.688129412871227" stroke-width="0.03" stroke="#000000" fill="none"/>
<path d="M24.4453125 17.989208557155663L24.4453125 19.434388449720945L24.341015624999997 19.49460427857783L24.23671875 19.434388449720945L24.23671875 20.03654673828981L23.819531249999997 19.795683422862265L23.819531249999997 18.350503530296983" stroke-width="0.03" stroke="#000000" fill="none"/>
<path d="M24.341015624999997 18.049424386012547L24.341015624999997 19.976330909432924L24.23671875 20.03654673828981" stroke-width="0.03" stroke="#000000" fill="none"/>
<path d="M24.028125 19.916115080576038L23.40234375 20.277410053717357" stroke-width="0.03" stroke="#000000" fill="none"/>
<path d="M23.40234375 20.63870502685868L24.966796875000004 19.735467594005378L24.653906250000002 19.554820107434715L24.653906250000002 18.832230161152076L24.758203125 18.77201433229519L24.758203125 17.808561070585L26.009765625 18.531151016867643L26.009765625 22.50539572142217L25.07109375 23.047338181134148L24.4453125 22.686043207992828" stroke-width="0.03" stroke="#000000" fill="none"/>
<path d="M24.4453125 22.32474823485151L23.298046874999997 22.98712235227726" stroke-width="0.03" stroke="#000000" fill="none"/>
<path d="M23.298046874999997 22.746259036849715L23.819531249999997 22.44517989256528L23.819531249999997 22.32474823485151" stroke-width="0.03" stroke="#000000" fill="none"/>
<path d="M24.132421875000002 22.14410074828085L24.4453125 22.32474823485151L24.4453125 23.890359785130563L23.298046874999997 24.55273390255632" stroke-width="0.03" stroke="#000000" fill="none"/>
<path d="M23.298046874999997 24.914028875697635L22.463671875 25.39575550655273L22.463671875 26.359208768262917L21.629296875 26.840935399118013L21.212109374999997 26.600072083690467L21.212109374999997 26.118345452835374" stroke-width="0.03" stroke="#000000" fill="none"/>
<path d="M21.003515625000002 26.238777110549147L21.003515625000002 27.202230372259333L20.482031250000002 27.50330951654377" stroke-width="0.03" stroke="#000000" fill="none"/>
<path d="M20.586328125 27.443093687686883L20.586328125 28.04525197625575L20.482031250000002 28.105467805112635" stroke-width="0.03" stroke="#000000" fill="none"/>
<path d="M20.482031250000002 28.46676277825396L20.794921875 28.647410264824618L22.150781249999998 27.864604489685092L22.150781249999998 26.53985625483358" stroke-width="0.03" stroke="#000000" fill="none"/>
<path d="M22.255078124999997 27.081798714545563L22.255078124999997 27.563525345400656L22.150781249999998 27.623741174257542" stroke-width="0.03" stroke="#000000" fill="none"/>
<path d="M22.255078124999997 27.443093687686883L23.506640625 26.72050374140424L24.341015624999997 27.202230372259333L24.341015624999997 27.804388660828202L25.48828125 27.142014543402446L25.48828125 25.817266308550938L24.966796875000004 26.118345452835374L24.132421875000002 25.636618821980278L24.132421875000002 24.191438929414996" stroke-width="0.03" stroke="#000000" fill="none"/>
<path d="M24.23671875 24.13122310055811L23.819531249999997 24.37208641598566" stroke-width="0.03" stroke="#000000" fill="none"/>
<path d="M23.819531249999997 24.251654758271883L23.819531249999997 26.058129623978488L23.715234375 26.118345452835374L23.715234375 26.238777110549147L22.150781249999998 27.142014543402446" stroke-width="0.03" stroke="#000000" fill="none"/>
<path d="M21.629296875 26.840935399118013L21.629296875 25.877482137407824L20.482031250000002 26.53985625483358L20.482031250000002 29.430216039964147L18.81328125 30.393669301674333L18.500390624999998 30.21302181510367L18.500390624999998 29.851726841962353" stroke-width="0.03" stroke="#000000" fill="none"/>
<path d="M18.291796875 29.972158499676127L18.291796875 30.0925901573899L17.040234375 30.815180103672542" stroke-width="0.03" stroke="#000000" fill="none"/>
<path d="M17.040234375 30.694748445958766L18.708984375 29.731295184248577L18.708984375 29.610863526534803L18.291796875 29.37000021110726L17.040234375 30.0925901573899" stroke-width="0.03" stroke="#000000" fill="none"/>
<path d="M17.457421875 29.37000021110726L19.439062500000002 28.22589946282641L19.439062500000002 26.058129623978488L19.334765625 25.9979137951216L18.81328125 26.29899293940603L18.708984375 26.238777110549147L18.1875 26.53985625483358L17.14453125 25.937697966264714" stroke-width="0.03" stroke="#000000" fill="none"/>
<path d="M17.040234375 25.9979137951216L17.353125 25.817266308550938L17.353125 25.215108019982072" stroke-width="0.03" stroke="#000000" fill="none"/>
<path d="M17.56171875 25.0946763622683L18.1875 25.45597133540962L18.1875 26.53985625483358" stroke-width="0.03" stroke="#000000" fill="none"/>
<path d="M18.708984375 26.238777110549147L18.708984375 25.154892191125185L18.083203125 24.793597217983862" stroke-width="0.03" stroke="#000000" fill="none"/>
<path d="M18.1875 25.45597133540962L18.708984375 25.154892191125185" stroke-width="0.03" stroke="#000000" fill="none"/>
<path d="M18.81328125 24.85381304684075L18.81328125 26.29899293940603" stroke-width="0.03" stroke="#000000" fill="none"/>
<path d="M19.439062500000002 26.058129623978488L17.457421875 27.202230372259333L17.040234375 26.96136705683179" stroke-width="0.03" stroke="#000000" fill="none"/>
<path d="M17.457421875 27.202230372259333L17.457421875 29.37000021110726L17.040234375 29.12913689567971" stroke-width="0.03" stroke="#000000" fill="none"/>
<path d="M18.1875 29.91194267081924L18.708984375 29.610863526534803" stroke-width="0.03" stroke="#000000" fill="none"/>
<path d="M18.500390624999998 29.490431868821034L18.500390624999998 28.767841922538388" stroke-width="0.03" stroke="#000000" fill="none"/>
<path d="M18.81328125 28.58719443596773L18.81328125 30.393669301674333" stroke-width="0.03" stroke="#000000" fill="none"/>
<path d="M18.500390624999998 30.21302181510367L17.874609375000002 30.574316788244992L17.874609375000002 30.694748445958766L17.040234375 31.17647507681386L18.291796875 31.8990650230965L21.733593749999997 29.91194267081924L21.733593749999997 28.828057751395274L21.107812499999998 28.46676277825396" stroke-width="0.03" stroke="#000000" fill="none"/>
<path d="M20.794921875 28.647410264824618L20.794921875 27.322662029973106" stroke-width="0.03" stroke="#000000" fill="none"/>
<path d="M21.629296875 28.767841922538388L24.341015624999997 27.202230372259333" stroke-width="0.03" stroke="#000000" fill="none"/>
<path d="M23.819531249999997 26.901151227974903L23.819531249999997 26.17856128169226L24.4453125 25.817266308550938" stroke-width="0.03" stroke="#000000" fill="none"/>
<path d="M24.966796875000004 26.118345452835374L24.966796875000004 22.98712235227726" stroke-width="0.03" stroke="#000000" fill="none"/>
<path d="M25.07109375 23.047338181134148L25.07109375 19.073093476579622L24.653906250000002 18.832230161152076" stroke-width="0.03" stroke="#000000" fill="none"/>
<path d="M25.07109375 19.073093476579622L26.009765625 18.531151016867643" stroke-width="0.03" stroke="#000000" fill="none"/>
<path d="M25.90546875 18.470935188010756L25.90546875 17.146186953159244" stroke-width="0.03" stroke="#000000" fill="none"/>
<path d="M26.1140625 16.905323637731698L26.322656249999998 17.025755295445475L26.53125 16.905323637731698L26.53125 15.82143871830774L25.175390624999995 15.038632943168212L25.175390624999995 13.473021392889155L24.23671875 12.931078933177174L24.028125 13.051510590890949L24.028125 13.292373906318495" stroke-width="0.03" stroke="#000000" fill="none"/>
<path d="M24.132421875000002 13.352589735175382L24.132421875000002 15.279496258595758" stroke-width="0.03" stroke="#000000" fill="none"/>
<path d="M24.23671875 15.460143745166418L24.341015624999997 15.399927916309531" stroke-width="0.03" stroke="#000000" fill="none"/>
<path d="M24.341015624999997 15.520359574023306L24.4453125 15.580575402880193" stroke-width="0.03" stroke="#000000" fill="none"/>
<path d="M24.4453125 15.82143871830774L26.1140625 16.784891980017925" stroke-width="0.03" stroke="#000000" fill="none"/>
<path d="M26.322656249999998 17.025755295445475L26.322656249999998 15.94187037602151L24.966796875000004 15.159064600881985L24.966796875000004 13.593453050602928L25.175390624999995 13.473021392889155" stroke-width="0.03" stroke="#000000" fill="none"/>
<path d="M24.966796875000004 13.593453050602928L24.028125 13.051510590890949" stroke-width="0.03" stroke="#000000" fill="none"/>
<path d="M23.715234375 13.352589735175382L22.567968750000002 12.690215617749628" stroke-width="0.03" stroke="#000000" fill="none"/>
<path d="M22.567968750000002 12.569783960035853L22.567968750000002 14.014963852601136L21.733593749999997 13.533237221746042L21.629296875 13.593453050602928" stroke-width="0.03" stroke="#000000" fill="none"/>
<path d="M21.629296875 13.111726419747836L18.1875 11.124604067470571L18.1875 11.847194013753214" stroke-width="0.03" stroke="#000000" fill="none"/>
<path d="M18.500390624999998 12.027841500323873L17.353125 12.690215617749628" stroke-width="0.03" stroke="#000000" fill="none"/>
<path d="M17.14453125 12.569783960035853L16.31015625 13.051510590890949" stroke-width="0.03" stroke="#000000" fill="none"/>
<path d="M16.1015625 12.931078933177174L16.51875 12.690215617749628L16.51875 12.208488986894533L15.684375 11.72676235603944L14.85 12.208488986894533L14.015625 11.72676235603944L13.181249999999999 12.208488986894533L13.181249999999999 12.690215617749628L13.598437500000001 12.931078933177174" stroke-width="0.03" stroke="#000000" fill="none"/>
<path d="M13.389843749999999 13.051510590890949L12.555468750000001 12.569783960035853L12.033984375000001 12.87086310432029" stroke-width="0.03" stroke="#000000" fill="none"/>
<path d="M12.138281249999999 12.8106472754634L11.616796874999999 12.509568131178968L11.512500000000001 12.569783960035853" stroke-width="0.03" stroke="#000000" fill="none"/>
<path d="M11.199609375 12.389136473465193L11.199609375 12.027841500323873L12.555468750000001 11.245035725184344L13.702734374999999 11.9074098426101" stroke-width="0.03" stroke="#000000" fill="none"/>
<path d="M13.285546875 11.54611486946878L12.868359374999999 11.305251554041233L12.7640625 11.365467382898117" stroke-width="0.03" stroke="#000000" fill="none"/>
<path d="M12.97265625 11.365467382898117L14.224218749999999 10.642877436615478L14.224218749999999 9.67942417490529L13.702734374999999 9.378345030620856L14.85 8.715970913195102L15.997265625 9.378345030620856L15.47578125 9.67942417490529L15.47578125 10.642877436615478L16.72734375 11.365467382898117" stroke-width="0.03" stroke="#000000" fill="none"/>
<path d="M16.831640625 11.305251554041233L16.414453125 11.54611486946878" stroke-width="0.03" stroke="#000000" fill="none"/>
<path d="M16.51875 11.606330698325666L14.954296875 10.703093265472365L14.85 10.763309094329252L14.745703124999999 10.703093265472365L13.181249999999999 11.606330698325666" stroke-width="0.03" stroke="#000000" fill="none"/>
<path d="M13.181249999999999 12.208488986894533L14.015625 12.690215617749628L12.868359374999999 13.352589735175382L10.365234375 11.9074098426101L8.696484375 12.87086310432029L8.696484375 13.232158077461609L9.009374999999999 13.412805564032269" stroke-width="0.03" stroke="#000000" fill="none"/>
<path d="M8.80078125 13.533237221746042L8.80078125 13.653668879459815L9.322265625 13.352589735175382L9.322265625 13.834316366030475L8.070703124999998 14.556906312313117" stroke-width="0.03" stroke="#000000" fill="none"/>
<path d="M7.5492187500000005 14.255827168028683L9.21796875 13.292373906318495L9.322265625 13.352589735175382" stroke-width="0.03" stroke="#000000" fill="none"/>
<path d="M9.322265625 13.593453050602928L9.948046875 13.95474802374425" stroke-width="0.03" stroke="#000000" fill="none"/>
<path d="M10.260937499999999 13.77410053717359L8.696484375 12.87086310432029" stroke-width="0.03" stroke="#000000" fill="none"/>
<path d="M8.696484375 13.232158077461609L8.070703124999998 13.593453050602928L7.96640625 13.533237221746042L7.13203125 14.014963852601136L7.13203125 12.569783960035853L10.573828124999999 10.582661607758592L11.512500000000001 11.124604067470571L11.512500000000001 11.847194013753214" stroke-width="0.03" stroke="#000000" fill="none"/>
<path d="M11.199609375 12.027841500323873L12.346874999999999 12.690215617749628" stroke-width="0.03" stroke="#000000" fill="none"/>
<path d="M11.512500000000001 11.245035725184344L14.224218749999999 9.67942417490529" stroke-width="0.03" stroke="#000000" fill="none"/>
<path d="M14.224218749999999 10.281582463474159L14.85 10.642877436615478L15.47578125 10.281582463474159" stroke-width="0.03" stroke="#000000" fill="none"/>
<path d="M15.47578125 9.67942417490529L18.1875 11.245035725184344" stroke-width="0.03" stroke="#000000" fill="none"/>
<path d="M18.1875 11.124604067470571L19.126171875 10.582661607758592L22.567968750000002 12.569783960035853" stroke-width="0.03" stroke="#000000" fill="none"/>
<path d="M22.567968750000002 12.931078933177174L22.672265625 12.991294762034062L22.672265625 13.111726419747836L22.567968750000002 13.171942248604722" stroke-width="0.03" stroke="#000000" fill="none"/>
<path d="M22.567968750000002 13.051510590890949L22.672265625 12.991294762034062" stroke-width="0.03" stroke="#000000" fill="none"/>
<path d="M22.150781249999998 11.606330698325666L21.525000000000002 11.967625671466987" stroke-width="0.03" stroke="#000000" fill="none"/>
<path d="M21.003515625000002 12.87086310432029L19.439062500000002 13.77410053717359" stroke-width="0.03" stroke="#000000" fill="none"/>
<path d="M19.751953125 13.95474802374425L20.377734375 13.593453050602928" stroke-width="0.03" stroke="#000000" fill="none"/>
<path d="M21.003515625000002 13.232158077461609L21.003515625000002 12.87086310432029L19.334765625 11.9074098426101L16.831640625 13.352589735175382L15.684375 12.690215617749628L16.51875 12.208488986894533" stroke-width="0.03" stroke="#000000" fill="none"/>
<path d="M15.997265625 11.9074098426101L17.14453125 11.245035725184344L18.500390624999998 12.027841500323873L18.500390624999998 12.389136473465193" stroke-width="0.03" stroke="#000000" fill="none"/>
<path d="M18.1875 12.569783960035853L18.083203125 12.509568131178968L17.56171875 12.8106472754634" stroke-width="0.03" stroke="#000000" fill="none"/>
<path d="M17.666015625 12.87086310432029L17.14453125 12.569783960035853" stroke-width="0.03" stroke="#000000" fill="none"/>
<path d="M16.9359375 11.365467382898117L16.831640625 11.305251554041233" stroke-width="0.03" stroke="#000000" fill="none"/>
<path d="M14.85 10.642877436615478L14.85 8.715970913195102" stroke-width="0.03" stroke="#000000" fill="none"/>
<path d="M11.512500000000001 11.124604067470571L8.070703124999998 13.111726419747836L8.070703124999998 13.593453050602928" stroke-width="0.03" stroke="#000000" fill="none"/>
<path d="M8.070703124999998 13.111726419747836L7.13203125 12.569783960035853" stroke-width="0.03" stroke="#000000" fill="none"/>
<path d="M7.13203125 12.690215617749628L5.984765624999999 13.352589735175382" stroke-width="0.03" stroke="#000000" fill="none"/>
<path d="M5.671875 13.292373906318495L5.671875 13.051510590890949L5.46328125 12.931078933177174L4.524609375000001 13.473021392889155L4.524609375000001 15.038632943168212L4.733203124999998 15.159064600881985L3.3773437500000005 15.94187037602151L3.1687499999999984 15.82143871830774L3.1687499999999984 16.905323637731698L3.3773437500000005 17.025755295445475L3.5859375 16.905323637731698" stroke-width="0.03" stroke="#000000" fill="none"/>
<path d="M3.5859375 16.784891980017925L5.254687500000001 15.82143871830774" stroke-width="0.03" stroke="#000000" fill="none"/>
<path d="M5.3589843749999995 15.640791231737078L5.46328125 15.580575402880193L5.46328125 15.460143745166418L7.236328125 14.436474654599342" stroke-width="0.03" stroke="#000000" fill="none"/>
<path d="M7.4449218749999995 14.195611339171796L8.696484375 13.473021392889155L8.80078125 13.533237221746042" stroke-width="0.03" stroke="#000000" fill="none"/>
<path d="M8.175 11.967625671466987L7.5492187500000005 11.606330698325666L7.5492187500000005 12.328920644608306" stroke-width="0.03" stroke="#000000" fill="none"/>
<path d="M7.13203125 12.931078933177174L7.027734374999999 12.991294762034062L7.027734374999999 13.111726419747836L7.13203125 13.171942248604722" stroke-width="0.03" stroke="#000000" fill="none"/>
<path d="M7.13203125 13.051510590890949L7.027734374999999 12.991294762034062" stroke-width="0.03" stroke="#000000" fill="none"/>
<path d="M5.671875 13.051510590890949L4.733203124999998 13.593453050602928L4.524609375000001 13.473021392889155" stroke-width="0.03" stroke="#000000" fill="none"/>
<path d="M4.733203124999998 13.593453050602928L4.733203124999998 15.159064600881985" stroke-width="0.03" stroke="#000000" fill="none"/>
<path d="M4.524609375000001 15.038632943168212L3.1687499999999984 15.82143871830774" stroke-width="0.03" stroke="#000000" fill="none"/>
<path d="M3.3773437500000005 15.94187037602151L3.3773437500000005 17.025755295445475" stroke-width="0.03" stroke="#000000" fill="none"/>
<path d="M3.7945312499999995 17.146186953159244L3.7945312499999995 18.470935188010756" stroke-width="0.03" stroke="#000000" fill="none"/>
<path d="M3.6902343750000006 18.531151016867643L4.62890625 19.073093476579622L5.046093749999999 18.832230161152076" stroke-width="0.03" stroke="#000000" fill="none"/>
<path d="M4.62890625 19.073093476579622L4.62890625 23.047338181134148" stroke-width="0.03" stroke="#000000" fill="none"/>
<path d="M3.481640624999999 25.39575550655273L3.481640624999999 27.202230372259333L3.7945312499999995 27.382877858829996L3.7945312499999995 27.744172831971316L5.3589843749999995 28.647410264824618L5.3589843749999995 29.12913689567971L10.365234375 32.01949668081028L10.991015625000001 31.658201707668955" stroke-width="0.03" stroke="#000000" fill="none"/>
<path d="M10.365234375 31.296906734527635L10.365234375 32.01949668081028" stroke-width="0.03" stroke="#000000" fill="none"/>
<path d="M11.72109375 31.71841753652584L11.825390624999999 31.77863336538273L11.9296875 31.71841753652584L11.9296875 31.597985878812068" stroke-width="0.03" stroke="#000000" fill="none"/>
<path d="M11.825390624999999 31.658201707668955L11.825390624999999 31.77863336538273" stroke-width="0.03" stroke="#000000" fill="none"/>
<path d="M11.408203125 30.815180103672542L11.825390624999999 30.574316788244992" stroke-width="0.03" stroke="#000000" fill="none"/>
<path d="M11.408203125 30.0925901573899L11.408203125 29.972158499676127" stroke-width="0.03" stroke="#000000" fill="none"/>
<path d="M11.408203125 30.0925901573899L12.659765624999999 30.815180103672542" stroke-width="0.03" stroke="#000000" fill="none"/>
<path d="M12.97265625 30.87539593252943L14.537109375 29.972158499676127L14.537109375 27.68395700311443" stroke-width="0.03" stroke="#000000" fill="none"/>
<path d="M14.745703124999999 27.92482031854198L14.85 27.985036147398862L14.954296875 27.92482031854198" stroke-width="0.03" stroke="#000000" fill="none"/>
<path d="M14.85 27.864604489685092L14.85 22.204316577137735L14.537109375 22.384964063708395" stroke-width="0.03" stroke="#000000" fill="none"/>
<path d="M14.85 22.204316577137735L15.162890625 22.384964063708395" stroke-width="0.03" stroke="#000000" fill="none"/>
<path d="M14.85 21L16.623046875 22.023669090567072" stroke-width="0.03" stroke="#000000" fill="none"/>
<path d="M17.353125 22.44517989256528L17.56171875 22.32474823485151L17.56171875 22.204316577137735" stroke-width="0.03" stroke="#000000" fill="none"/>
<path d="M17.7703125 22.08388491942396L17.7703125 22.8064748657066L17.248828125 23.107554009991038" stroke-width="0.03" stroke="#000000" fill="none"/>
<path d="M17.248828125 23.227985667704807L17.978906249999998 22.8064748657066L17.978906249999998 21.96345326171019" stroke-width="0.03" stroke="#000000" fill="none"/>
<path d="M17.874609375000002 22.023669090567072L17.874609375000002 22.62582737913594L17.248828125 22.98712235227726" stroke-width="0.03" stroke="#000000" fill="none"/>
<path d="M17.248828125 22.746259036849715L17.353125 22.686043207992828L17.353125 22.44517989256528L17.978906249999998 22.8064748657066" stroke-width="0.03" stroke="#000000" fill="none"/>
<path d="M18.708984375 23.227985667704807L19.126171875 22.98712235227726L19.126171875 22.746259036849715" stroke-width="0.03" stroke="#000000" fill="none"/>
<path d="M19.334765625 22.62582737913594L19.334765625 23.58928064084613L18.500390624999998 24.071007271701223" stroke-width="0.03" stroke="#000000" fill="none"/>
<path d="M18.500390624999998 23.830143956273677L18.708984375 23.709712298559904L18.708984375 23.227985667704807L19.334765625 23.58928064084613" stroke-width="0.03" stroke="#000000" fill="none"/>
<path d="M19.751953125 23.830143956273677L20.169140624999997 24.071007271701223" stroke-width="0.03" stroke="#000000" fill="none"/>
<path d="M20.482031250000002 24.251654758271883L21.629296875 23.58928064084613L21.629296875 24.914028875697635L20.482031250000002 25.576402993123395L20.482031250000002 24.251654758271883L21.107812499999998 24.612949731413206L20.794921875 24.793597217983862L20.482031250000002 24.612949731413206" stroke-width="0.03" stroke="#000000" fill="none"/>
<path d="M20.482031250000002 24.73338138912698L20.794921875 24.914028875697635L21.212109374999997 24.673165560270093L21.629296875 24.914028875697635" stroke-width="0.03" stroke="#000000" fill="none"/>
<path d="M21.212109374999997 24.673165560270093L21.212109374999997 24.191438929414996L20.89921875 24.010791442844337" stroke-width="0.03" stroke="#000000" fill="none"/>
<path d="M20.794921875 24.071007271701223L21.107812499999998 24.251654758271883L21.107812499999998 24.612949731413206" stroke-width="0.03" stroke="#000000" fill="none"/>
<path d="M20.794921875 24.793597217983862L20.794921875 24.914028875697635" stroke-width="0.03" stroke="#000000" fill="none"/>
<path d="M21.107812499999998 24.251654758271883L21.212109374999997 24.191438929414996" stroke-width="0.03" stroke="#000000" fill="none"/>
<path d="M22.463671875 23.95057561398745L22.880859375 23.709712298559904L23.298046874999997 23.95057561398745L23.298046874999997 24.914028875697635" stroke-width="0.03" stroke="#000000" fill="none"/>
<path d="M23.298046874999997 23.95057561398745L22.463671875 24.432302244842543L22.463671875 23.107554009991038L24.966796875000004 21.662374117425752L24.966796875000004 19.735467594005378" stroke-width="0.03" stroke="#000000" fill="none"/>
<path d="M24.653906250000002 19.554820107434715L24.341015624999997 19.735467594005378" stroke-width="0.03" stroke="#000000" fill="none"/>
<path d="M26.009765625 19.735467594005378L26.635546875 19.37417262086406L26.635546875 25.154892191125185L26.218359375 25.39575550655273L26.218359375 27.202230372259333L25.90546875 27.382877858829996L25.90546875 27.744172831971316L24.341015624999997 28.647410264824618L24.341015624999997 29.12913689567971L19.334765625 32.01949668081028L18.708984375 31.658201707668955" stroke-width="0.03" stroke="#000000" fill="none"/>
<path d="M18.291796875 31.8990650230965L18.291796875 30.815180103672542L17.874609375000002 30.574316788244992" stroke-width="0.03" stroke="#000000" fill="none"/>
<path d="M18.291796875 30.815180103672542L21.733593749999997 28.828057751395274" stroke-width="0.03" stroke="#000000" fill="none"/>
<path d="M23.819531249999997 26.17856128169226L25.48828125 27.142014543402446" stroke-width="0.03" stroke="#000000" fill="none"/>
<path d="M24.23671875 24.13122310055811L24.23671875 24.010791442844337" stroke-width="0.03" stroke="#000000" fill="none"/>
<path d="M23.298046874999997 23.227985667704807L22.463671875 23.709712298559904" stroke-width="0.03" stroke="#000000" fill="none"/>
<path d="M23.298046874999997 23.227985667704807L23.298046874999997 22.62582737913594" stroke-width="0.03" stroke="#000000" fill="none"/>
<path d="M21.525000000000002 20.156978396003588L21.107812499999998 19.916115080576038" stroke-width="0.03" stroke="#000000" fill="none"/>
<path d="M21.107812499999998 17.748345241728117L19.960546875000002 17.08597112430236L18.708984375 17.808561070585" stroke-width="0.03" stroke="#000000" fill="none"/>
<path d="M18.917578125000002 16.122517862592172L18.917578125000002 15.640791231737078" stroke-width="0.03" stroke="#000000" fill="none"/>
<path d="M14.85 15.339712087452645L14.745703124999999 15.279496258595758L14.328515625 15.520359574023306L14.328515625 15.640791231737078" stroke-width="0.03" stroke="#000000" fill="none"/>
<path d="M14.328515625 15.520359574023306L14.4328125 15.580575402880193" stroke-width="0.03" stroke="#000000" fill="none"/>
<path d="M13.598437500000001 16.062302033735286L14.85 16.784891980017925" stroke-width="0.03" stroke="#000000" fill="none"/>
<path d="M12.659765624999999 16.60424449344727L12.659765624999999 15.881654547164626" stroke-width="0.03" stroke="#000000" fill="none"/>
<path d="M5.567578125 15.279496258595758L5.567578125 13.352589735175382" stroke-width="0.03" stroke="#000000" fill="none"/>
<path d="M5.567578125 15.038632943168212L5.046093749999999 15.339712087452645L5.046093749999999 15.94187037602151" stroke-width="0.03" stroke="#000000" fill="none"/>
<path d="M5.254687500000001 15.580575402880193L5.3589843749999995 15.640791231737078L5.3589843749999995 17.688129412871227" stroke-width="0.03" stroke="#000000" fill="none"/>
<path d="M5.254687500000001 17.989208557155663L5.254687500000001 19.434388449720945L5.3589843749999995 19.49460427857783L5.46328125 19.434388449720945L5.46328125 20.03654673828981L5.88046875 19.795683422862265L5.88046875 18.350503530296983" stroke-width="0.03" stroke="#000000" fill="none"/>
<path d="M5.3589843749999995 18.049424386012547L5.3589843749999995 19.976330909432924L5.46328125 20.03654673828981" stroke-width="0.03" stroke="#000000" fill="none"/>
<path d="M5.671875 19.916115080576038L6.297656249999999 20.277410053717357" stroke-width="0.03" stroke="#000000" fill="none"/>
<path d="M6.297656249999999 20.63870502685868L4.733203124999998 19.735467594005378" stroke-width="0.03" stroke="#000000" fill="none"/>
<path d="M5.046093749999999 19.554820107434715L5.3589843749999995 19.735467594005378" stroke-width="0.03" stroke="#000000" fill="none"/>
<path d="M3.6902343750000006 19.735467594005378L3.064453125 19.37417262086406L3.064453125 25.154892191125185L3.481640624999999 25.39575550655273" stroke-width="0.03" stroke="#000000" fill="none"/>
<path d="M4.211718750000001 27.142014543402446L5.88046875 26.17856128169226" stroke-width="0.03" stroke="#000000" fill="none"/>
<path d="M7.236328125 26.359208768262917L8.070703124999998 26.840935399118013" stroke-width="0.03" stroke="#000000" fill="none"/>
<path d="M7.5492187500000005 27.623741174257542L7.4449218749999995 27.563525345400656" stroke-width="0.03" stroke="#000000" fill="none"/>
<path d="M8.070703124999998 25.877482137407824L9.21796875 26.53985625483358" stroke-width="0.03" stroke="#000000" fill="none"/>
<path d="M12.242578125 27.202230372259333L12.659765624999999 26.96136705683179" stroke-width="0.03" stroke="#000000" fill="none"/>
<path d="M14.015625 27.382877858829996L14.015625 25.937697966264714" stroke-width="0.03" stroke="#000000" fill="none"/>
<path d="M14.015625 27.382877858829996L15.162890625 28.04525197625575" stroke-width="0.03" stroke="#000000" fill="none"/>
<path d="M15.162890625 27.68395700311443L15.162890625 29.972158499676127L16.72734375 30.87539593252943" stroke-width="0.03" stroke="#000000" fill="none"/>
<path d="M17.7703125 31.597985878812068L17.7703125 31.71841753652584L17.874609375000002 31.77863336538273L17.978906249999998 31.71841753652584" stroke-width="0.03" stroke="#000000" fill="none"/>
<path d="M17.874609375000002 31.658201707668955L17.874609375000002 31.77863336538273" stroke-width="0.03" stroke="#000000" fill="none"/>
<path d="M18.1875 31.838849194239618L17.040234375 32.50122331166537" stroke-width="0.03" stroke="#000000" fill="none"/>
<path d="M16.831640625 32.86251828480669L16.831640625 25.75705047969405" stroke-width="0.03" stroke="#000000" fill="none"/>
<path d="M16.72734375 25.45597133540962L16.72734375 25.335539677695845" stroke-width="0.03" stroke="#000000" fill="none"/>
<path d="M15.684375 25.937697966264714L15.684375 27.382877858829996L14.537109375 28.04525197625575" stroke-width="0.03" stroke="#000000" fill="none"/>
<path d="M14.328515625 32.01949668081028L14.85 32.32057582509471L15.371484375 32.01949668081028" stroke-width="0.03" stroke="#000000" fill="none"/>
<path d="M14.85 32.68187079823603L14.85 32.92273411366358" stroke-width="0.03" stroke="#000000" fill="none"/>
<path d="M13.494140625 33.464676573375556L13.494140625 33.7055398888031" stroke-width="0.03" stroke="#000000" fill="none"/>
<path d="M16.205859375 33.7055398888031L16.205859375 33.464676573375556" stroke-width="0.03" stroke="#000000" fill="none"/>
<path d="M19.334765625 32.01949668081028L19.334765625 31.296906734527635" stroke-width="0.03" stroke="#000000" fill="none"/>
<path d="M18.291796875 29.972158499676127L18.1875 29.91194267081924" stroke-width="0.03" stroke="#000000" fill="none"/>
<path d="M19.334765625 24.191438929414996L19.23046875 24.13122310055811" stroke-width="0.03" stroke="#000000" fill="none"/>
<path d="M26.009765625 19.01287764772274L26.635546875 19.37417262086406" stroke-width="0.03" stroke="#000000" fill="none"/>
<path d="M25.696875000000002 18.350503530296983L25.696875000000002 18.23007187258321L25.592578125 18.16985604372632L25.48828125 18.23007187258321" stroke-width="0.03" stroke="#000000" fill="none"/>
<path d="M25.592578125 18.290287701440096L25.696875000000002 18.23007187258321" stroke-width="0.03" stroke="#000000" fill="none"/>
<path d="M26.322656249999998 15.94187037602151L26.53125 15.82143871830774" stroke-width="0.03" stroke="#000000" fill="none"/>
<path d="M25.175390624999995 15.038632943168212L24.966796875000004 15.159064600881985" stroke-width="0.03" stroke="#000000" fill="none"/>
<path d="M24.653906250000002 15.339712087452645L24.653906250000002 15.94187037602151" stroke-width="0.03" stroke="#000000" fill="none"/>
<path d="M24.653906250000002 15.339712087452645L24.132421875000002 15.038632943168212" stroke-width="0.03" stroke="#000000" fill="none"/>
<path d="M5.46328125 15.460143745166418L5.3589843749999995 15.399927916309531" stroke-width="0.03" stroke="#000000" fill="none"/>
<path d="M5.3589843749999995 15.520359574023306L5.46328125 15.580575402880193" stroke-width="0.03" stroke="#000000" fill="none"/>
<path d="M4.107421875 18.16985604372632L4.003124999999999 18.23007187258321L4.003124999999999 18.350503530296983" stroke-width="0.03" stroke="#000000" fill="none"/>
<path d="M4.003124999999999 18.23007187258321L4.107421875 18.290287701440096" stroke-width="0.03" stroke="#000000" fill="none"/>
<path d="M4.211718750000001 18.23007187258321L4.107421875 18.16985604372632" stroke-width="0.03" stroke="#000000" fill="none"/>
<path d="M3.6902343750000006 19.01287764772274L3.064453125 19.37417262086406" stroke-width="0.03" stroke="#000000" fill="none"/>
<path d="M2.6128837055103125 3.383983116796798L2.414597800786388 3.1316192380572576" stroke-width="0.03" stroke="#000000" fill="none"/>
<path d="M2.6128837055103125 3.1316192380572576L2.414597800786388 3.383983116796798" stroke-width="0.03" stroke="#000000" fill="none"/>
<path d="M2.1622339220468474 3.0054372986874878L2.1081559480312317 3.023463290026026L2.072103965354154 3.077541264041642L2.0540779740156156 3.167671220734335L2.0540779740156156 3.221749194749951L2.072103965354154 3.3118791514426436L2.1081559480312317 3.3659571254582596L2.1622339220468474 3.383983116796798L2.1982859047239245 3.383983116796798L2.2523638787395406 3.3659571254582596L2.2884158614166177 3.3118791514426436L2.3064418527551562 3.221749194749951L2.3064418527551562 3.167671220734335L2.2884158614166177 3.077541264041642L2.2523638787395406 3.023463290026026L2.1982859047239245 3.0054372986874878L2.1622339220468474 3.0054372986874878" stroke-width="0.03" stroke="#000000" fill="none"/>
<path d="M2.8291956015727755 3.0054372986874878L2.77511762755716 3.023463290026026L2.7390656448800828 3.077541264041642L2.7210396535415438 3.167671220734335L2.7210396535415438 3.221749194749951L2.7390656448800828 3.3118791514426436L2.77511762755716 3.3659571254582596L2.8291956015727755 3.383983116796798L2.8652475842498526 3.383983116796798L2.9193255582654682 3.3659571254582596L2.955377540942546 3.3118791514426436L2.9734035322810843 3.221749194749951L2.9734035322810843 3.167671220734335L2.955377540942546 3.077541264041642L2.9193255582654682 3.023463290026026L2.8652475842498526 3.0054372986874878L2.8291956015727755 3.0054372986874878" stroke-width="0.03" stroke="#000000" fill="none"/>
<path d="M3.0995854716508546 3.257801177427028L3.117611462989393 3.2037232034114123L3.1536634456664703 3.167671220734335L3.207741419682086 3.149645229395796L3.225767411020625 3.149645229395796L3.2798453850362406 3.167671220734335L3.3158973677133177 3.2037232034114123L3.333923359051856 3.257801177427028L3.333923359051856 3.2758271687655665L3.3158973677133177 3.3299051427811825L3.2798453850362406 3.3659571254582596L3.225767411020625 3.383983116796798L3.207741419682086 3.383983116796798L3.1536634456664703 3.3659571254582596L3.117611462989393 3.3299051427811825L3.0995854716508546 3.257801177427028L3.0995854716508546 3.167671220734335L3.117611462989393 3.077541264041642L3.1536634456664703 3.023463290026026L3.207741419682086 3.0054372986874878L3.243793402359163 3.0054372986874878L3.297871376374779 3.023463290026026L3.3158973677133177 3.0595152727031034" stroke-width="0.03" stroke="#000000" fill="none"/>
<path d="M3.4961572810987036 3.077541264041642L3.5322092637757807 3.0595152727031034L3.586287237791397 3.0054372986874878L3.586287237791397 3.383983116796798" stroke-width="0.03" stroke="#000000" fill="none"/>
<path d="M3.80259913385386 3.3118791514426436L3.8206251251923984 3.3479311341197207L3.838651116530937 3.3659571254582596L3.8927290905465526 3.383983116796798L3.9468070645621687 3.383983116796798L4.000885038577785 3.3659571254582596L4.036937021254861 3.3299051427811825L4.0549630125934 3.2758271687655665L4.0549630125934 3.2397751860884894L4.036937021254861 3.1856972120728733L4.000885038577785 3.149645229395796L3.9468070645621687 3.1316192380572576L3.8927290905465526 3.1316192380572576L3.838651116530937 3.149645229395796L3.8206251251923984 3.167671220734335L3.838651116530937 3.0054372986874878L4.018911029916323 3.0054372986874878" stroke-width="0.03" stroke="#000000" fill="none"/>
<path d="M4.18114495196317 3.0054372986874878L4.18114495196317 3.383983116796798L4.343378874010018 3.383983116796798L4.397456848025634 3.3659571254582596L4.415482839364172 3.3479311341197207L4.433508830702711 3.3118791514426436L4.433508830702711 3.257801177427028L4.415482839364172 3.221749194749951L4.397456848025634 3.2037232034114123L4.343378874010018 3.1856972120728733L4.18114495196317 3.1856972120728733" stroke-width="0.03" stroke="#000000" fill="none"/>
<path d="M4.343378874010018 3.1856972120728733L4.397456848025634 3.167671220734335L4.415482839364172 3.149645229395796L4.433508830702711 3.113593246718719L4.433508830702711 3.077541264041642L4.415482839364172 3.041489281364565L4.397456848025634 3.023463290026026L4.343378874010018 3.0054372986874878L4.18114495196317 3.0054372986874878" stroke-width="0.03" stroke="#000000" fill="none"/>
<path d="M4.559690770072481 3.0955672553801805L4.559690770072481 3.077541264041642L4.57771676141102 3.041489281364565L4.595742752749558 3.023463290026026L4.631794735426635 3.0054372986874878L4.7038987007807895 3.0054372986874878L4.739950683457867 3.023463290026026L4.757976674796406 3.041489281364565L4.776002666134945 3.077541264041642L4.776002666134945 3.113593246718719L4.757976674796406 3.149645229395796L4.7219246921193285 3.2037232034114123L4.541664778733942 3.383983116796798L4.794028657473483 3.383983116796798" stroke-width="0.03" stroke="#000000" fill="none"/>
<path d="M4.902184605504715 3.3118791514426436L4.920210596843253 3.3479311341197207L4.938236588181791 3.3659571254582596L4.992314562197407 3.383983116796798L5.046392536213023 3.383983116796798L5.100470510228639 3.3659571254582596L5.136522492905716 3.3299051427811825L5.154548484244255 3.2758271687655665L5.154548484244255 3.2397751860884894L5.136522492905716 3.1856972120728733L5.100470510228639 3.149645229395796L5.046392536213023 3.1316192380572576L4.992314562197407 3.1316192380572576L4.938236588181791 3.149645229395796L4.920210596843253 3.167671220734335L4.938236588181791 3.0054372986874878L5.1184965015671775 3.0054372986874878" stroke-width="0.03" stroke="#000000" fill="none"/>
<path d="M5.442964345660872 3.0054372986874878L5.262704432275486 3.257801177427028L5.533094302353565 3.257801177427028" stroke-width="0.03" stroke="#000000" fill="none"/>
<path d="M5.442964345660872 3.383983116796798L5.442964345660872 3.0054372986874878" stroke-width="0.03" stroke="#000000" fill="none"/>
<path d="M5.558333333333334 2.2291666666666665L5.441666666666666 1.8208333333333333" stroke-width="0.03" stroke="#000000" fill="none"/>
<path d="M5.675 1.8208333333333333L5.558333333333334 2.2291666666666665" stroke-width="0.03" stroke="#000000" fill="none"/>
<path d="M5.791666666666666 2.2291666666666665L5.675 1.8208333333333333" stroke-width="0.03" stroke="#000000" fill="none"/>
<path d="M5.908333333333333 1.8208333333333333L5.791666666666666 2.2291666666666665" stroke-width="0.03" stroke="#000000" fill="none"/>
<path d="M6.141666666666667 2.2291666666666665L6.141666666666667 1.7333333333333334L6.1708333333333325 1.6458333333333333L6.229166666666666 1.6166666666666667L6.2875 1.6166666666666667" stroke-width="0.03" stroke="#000000" fill="none"/>
<path d="M6.4624999999999995 1.6166666666666667L6.4624999999999995 2.2291666666666665" stroke-width="0.03" stroke="#000000" fill="none"/>
<path d="M6.258333333333333 1.8208333333333333L6.054166666666666 1.8208333333333333" stroke-width="0.03" stroke="#000000" fill="none"/>
<path d="M7.016666666666666 1.8208333333333333L7.016666666666666 2.2291666666666665" stroke-width="0.03" stroke="#000000" fill="none"/>
<path d="M7.016666666666666 2.1416666666666666L6.958333333333333 2.2L6.8999999999999995 2.2291666666666665L6.812499999999999 2.2291666666666665L6.754166666666666 2.2L6.695833333333333 2.1416666666666666L6.666666666666666 2.0541666666666667L6.666666666666666 1.9958333333333333L6.695833333333333 1.9083333333333332L6.754166666666666 1.85L6.812499999999999 1.8208333333333333L6.8999999999999995 1.8208333333333333L6.958333333333333 1.85L7.016666666666666 1.9083333333333332" stroke-width="0.03" stroke="#000000" fill="none"/>
<path d="M7.249999999999999 2.1125L7.541666666666666 1.8208333333333333" stroke-width="0.03" stroke="#000000" fill="none"/>
<path d="M7.366666666666666 1.9958333333333333L7.570833333333333 2.2291666666666665" stroke-width="0.03" stroke="#000000" fill="none"/>
<path d="M7.716666666666666 1.9958333333333333L8.066666666666666 1.9958333333333333L8.066666666666666 1.9375L8.0375 1.8791666666666667L8.008333333333333 1.85L7.949999999999999 1.8208333333333333L7.8625 1.8208333333333333L7.804166666666666 1.85L7.745833333333333 1.9083333333333332L7.716666666666666 1.9958333333333333L7.716666666666666 2.0541666666666667L7.745833333333333 2.1416666666666666L7.804166666666666 2.2L7.8625 2.2291666666666665L7.949999999999999 2.2291666666666665L8.008333333333333 2.2L8.066666666666666 2.1416666666666666" stroke-width="0.03" stroke="#000000" fill="none"/>
<path d="M8.270833333333332 1.7625L8.270833333333332 1.7333333333333334L8.299999999999999 1.675L8.329166666666666 1.6458333333333333L8.3875 1.6166666666666667L8.504166666666666 1.6166666666666667L8.5625 1.6458333333333333L8.591666666666665 1.675L8.620833333333334 1.7333333333333334L8.620833333333334 1.7916666666666665L8.591666666666665 1.85L8.533333333333331 1.9375L8.241666666666667 2.2291666666666665L8.649999999999999 2.2291666666666665" stroke-width="0.03" stroke="#000000" fill="none"/>
<path d="M9.237499999999999 2.533333333333333L1.5 2.533333333333333" stroke-width="0.03" stroke="#000000" fill="none"/>
<path d="M2.1166666666666667 2.2291666666666665L2.1166666666666667 1.8208333333333333" stroke-width="0.03" stroke="#000000" fill="none"/>
<path d="M2.0875 1.6166666666666667L2.1166666666666667 1.6458333333333333L2.145833333333333 1.6166666666666667L2.1166666666666667 1.5875L2.0875 1.6166666666666667" stroke-width="0.03" stroke="#000000" fill="none"/>
<path d="M2.3208333333333333 2.1416666666666666L2.35 2.2L2.4375 2.2291666666666665L2.525 2.2291666666666665L2.6125 2.2L2.6416666666666666 2.1416666666666666L2.6416666666666666 2.1125L2.6125 2.0541666666666667L2.5541666666666667 2.025L2.408333333333333 1.9958333333333333L2.35 1.9666666666666666L2.3208333333333333 1.9083333333333332L2.35 1.85L2.4375 1.8208333333333333L2.525 1.8208333333333333L2.6125 1.85L2.6416666666666666 1.9083333333333332" stroke-width="0.03" stroke="#000000" fill="none"/>
<path d="M2.9625 1.8208333333333333L2.904166666666667 1.85L2.845833333333333 1.9083333333333332L2.8166666666666664 1.9958333333333333L2.8166666666666664 2.0541666666666667L2.845833333333333 2.1416666666666666L2.904166666666667 2.2L2.9625 2.2291666666666665L3.05 2.2291666666666665L3.1083333333333334 2.2L3.1666666666666665 2.1416666666666666L3.1958333333333333 2.0541666666666667L3.1958333333333333 1.9958333333333333L3.1666666666666665 1.9083333333333332L3.1083333333333334 1.85L3.05 1.8208333333333333L2.9625 1.8208333333333333" stroke-width="0.03" stroke="#000000" fill="none"/>
<path d="M3.283333333333333 2.2874999999999996L3.75 2.2874999999999996" stroke-width="0.03" stroke="#000000" fill="none"/>
<path d="M3.8375 2.1416666666666666L3.8666666666666663 2.2L3.9541666666666666 2.2291666666666665L4.041666666666666 2.2291666666666665L4.129166666666666 2.2L4.158333333333333 2.1416666666666666L4.158333333333333 2.1125L4.129166666666666 2.0541666666666667L4.070833333333333 2.025L3.925 1.9958333333333333L3.8666666666666663 1.9666666666666666L3.8375 1.9083333333333332L3.8666666666666663 1.85L3.9541666666666666 1.8208333333333333L4.041666666666666 1.8208333333333333L4.129166666666666 1.85L4.158333333333333 1.9083333333333332" stroke-width="0.03" stroke="#000000" fill="none"/>
<path d="M4.3625 1.9375L4.449999999999999 1.85L4.508333333333333 1.8208333333333333L4.595833333333333 1.8208333333333333L4.654166666666667 1.85L4.683333333333334 1.9375L4.683333333333334 2.2291666666666665" stroke-width="0.03" stroke="#000000" fill="none"/>
<path d="M4.3625 2.2291666666666665L4.3625 1.8208333333333333" stroke-width="0.03" stroke="#000000" fill="none"/>
<path d="M5.033333333333333 1.8208333333333333L4.975 1.85L4.916666666666666 1.9083333333333332L4.887499999999999 1.9958333333333333L4.887499999999999 2.0541666666666667L4.916666666666666 2.1416666666666666L4.975 2.2L5.033333333333333 2.2291666666666665L5.120833333333334 2.2291666666666665L5.179166666666666 2.2L5.2375 2.1416666666666666L5.266666666666666 2.0541666666666667L5.266666666666666 1.9958333333333333L5.2375 1.9083333333333332L5.179166666666666 1.85L5.120833333333334 1.8208333333333333L5.033333333333333 1.8208333333333333" stroke-width="0.03" stroke="#000000" fill="none"/>
<path d="M7.249999999999999 1.6166666666666667L7.249999999999999 2.2291666666666665" stroke-width="0.03" stroke="#000000" fill="none"/>
</svg>
