<?xml version="1.0" standalone="no"?>
<svg width="29.7cm" height="42cm" version="1.1" xmlns="http://www.w3.org/2000/svg" viewBox="0.0 0.0 29.700001 42.000001">
<path d="M3.898828125 13.593453050602928L8.905078125 10.703093265472365L9.739453124999999 11.184819896327458L9.739453124999999 12.991294762034062" stroke-width="0.03" stroke="#000000" fill="none"/>
<path d="M9.63515625 12.931078933177174L8.38359375 13.653668879459815" stroke-width="0.03" stroke="#000000" fill="none"/>
<path d="M8.279296875 13.593453050602928L5.254687500000001 15.339712087452645L5.254687500000001 15.460143745166418L5.150390625 15.520359574023306L5.150390625 19.01287764772274L5.46328125 19.193525134293395L5.567578125 19.13330930543651L5.567578125 20.698920855715564L5.254687500000001 20.518273369144907L5.254687500000001 19.073093476579622" stroke-width="0.03" stroke="#000000" fill="none"/>
<path d="M5.46328125 19.193525134293395L5.46328125 15.701007060593964L5.567578125 15.640791231737078L5.567578125 15.520359574023306L5.254687500000001 15.339712087452645" stroke-width="0.03" stroke="#000000" fill="none"/>
<path d="M5.254687500000001 15.460143745166418L5.567578125 15.640791231737078" stroke-width="0.03" stroke="#000000" fill="none"/>
<path d="M5.567578125 15.520359574023306L8.5921875 13.77410053717359L8.279296875 13.593453050602928" stroke-width="0.03" stroke="#000000" fill="none"/>
<path d="M8.5921875 13.77410053717359L8.5921875 13.894532194887363L9.948046875 13.111726419747836L9.63515625 12.931078933177174" stroke-width="0.03" stroke="#000000" fill="none"/>
<path d="M9.739453124999999 12.750431446606514L10.991015625000001 13.473021392889155L14.328515625 11.54611486946878L14.328515625 10.100934976903497L13.076953125000001 9.378345030620856L9.739453124999999 11.305251554041233L10.991015625000001 12.027841500323873L14.328515625 10.100934976903497" stroke-width="0.03" stroke="#000000" fill="none"/>
<path d="M15.371484375 10.100934976903497L16.623046875 9.378345030620856L19.960546875000002 11.305251554041233L18.708984375 12.027841500323873L15.371484375 10.100934976903497L15.371484375 11.54611486946878L18.708984375 13.473021392889155L19.960546875000002 12.750431446606514" stroke-width="0.03" stroke="#000000" fill="none"/>
<path d="M20.064843749999998 12.931078933177174L19.751953125 13.111726419747836L19.751953125 14.436474654599342L21.837890625 15.640791231737078L21.837890625 15.881654547164626L18.81328125 17.62791358401434L17.666015625 16.965539466588588" stroke-width="0.03" stroke="#000000" fill="none"/>
<path d="M17.666015625 16.72467615116104L18.81328125 17.387050268586794L21.837890625 15.640791231737078" stroke-width="0.03" stroke="#000000" fill="none"/>
<path d="M21.629296875 16.0020862048784L21.837890625 16.122517862592172L21.837890625 16.965539466588588L21.003515625000002 17.44726609744368L21.733593749999997 17.86877689944189L21.733593749999997 18.109640214869437" stroke-width="0.03" stroke="#000000" fill="none"/>
<path d="M21.733593749999997 17.86877689944189L22.567968750000002 17.387050268586794L22.567968750000002 17.62791358401434" stroke-width="0.03" stroke="#000000" fill="none"/>
<path d="M22.7765625 17.50748192630057L19.751953125 19.253740963150285L19.751953125 20.57848919800179" stroke-width="0.03" stroke="#000000" fill="none"/>
<path d="M19.960546875000002 20.698920855715564L19.960546875000002 19.37417262086406L22.98515625 17.62791358401434L22.98515625 20.03654673828981L24.132421875000002 20.698920855715564L24.4453125 20.518273369144907L24.4453125 19.073093476579622" stroke-width="0.03" stroke="#000000" fill="none"/>
<path d="M24.549609375 19.01287764772274L24.23671875 19.193525134293395L24.132421875000002 19.13330930543651L24.132421875000002 20.698920855715564" stroke-width="0.03" stroke="#000000" fill="none"/>
<path d="M24.341015624999997 20.57848919800179L25.90546875 21.481726630855093L26.73984375 21L26.73984375 15.21928042973887L25.801171875 14.67733797002689L25.801171875 13.593453050602928L20.794921875 10.703093265472365L19.960546875000002 11.184819896327458L19.960546875000002 12.991294762034062" stroke-width="0.03" stroke="#000000" fill="none"/>
<path d="M20.064843749999998 12.931078933177174L21.31640625 13.653668879459815" stroke-width="0.03" stroke="#000000" fill="none"/>
<path d="M21.420703125 13.593453050602928L21.107812499999998 13.77410053717359L21.107812499999998 13.894532194887363L19.751953125 13.111726419747836" stroke-width="0.03" stroke="#000000" fill="none"/>
<path d="M19.751953125 14.195611339171796L18.708984375 13.593453050602928L15.47578125 15.460143745166418L15.47578125 15.701007060593964L16.9359375 16.54402866459038" stroke-width="0.03" stroke="#000000" fill="none"/>
<path d="M17.14453125 16.423597006876605L17.666015625 16.122517862592172L17.666015625 17.928992728298773L17.14453125 18.23007187258321L16.9359375 18.109640214869437L16.9359375 16.303165349162832L17.457421875 16.0020862048784L17.666015625 16.122517862592172" stroke-width="0.03" stroke="#000000" fill="none"/>
<path d="M17.14453125 16.423597006876605L17.14453125 18.23007187258321" stroke-width="0.03" stroke="#000000" fill="none"/>
<path d="M16.72734375 18.59136684572453L15.580078125 19.253740963150285" stroke-width="0.03" stroke="#000000" fill="none"/>
<path d="M15.267187499999999 19.073093476579622L15.267187499999999 18.832230161152076L15.05859375 18.711798503438303L14.85 18.832230161152076L14.64140625 18.711798503438303L14.4328125 18.832230161152076L14.4328125 19.073093476579622" stroke-width="0.03" stroke="#000000" fill="none"/>
<path d="M14.64140625 18.95266181886585L13.389843749999999 19.67525176514849L13.389843749999999 20.156978396003588L12.97265625 20.397841711431134L12.97265625 21.843021603996412L12.7640625 21.72258994628264L12.7640625 21.96345326171019L12.97265625 22.08388491942396L12.97265625 22.32474823485151L13.181249999999999 22.44517989256528L13.389843749999999 22.32474823485151" stroke-width="0.03" stroke="#000000" fill="none"/>
<path d="M13.181249999999999 22.204316577137735L13.181249999999999 22.44517989256528" stroke-width="0.03" stroke="#000000" fill="none"/>
<path d="M13.181249999999999 22.204316577137735L14.4328125 22.926906523420374L14.85 22.686043207992828L15.267187499999999 22.926906523420374L16.51875 22.204316577137735L16.51875 22.44517989256528L16.31015625 22.32474823485151" stroke-width="0.03" stroke="#000000" fill="none"/>
<path d="M16.51875 22.44517989256528L16.72734375 22.32474823485151L16.72734375 22.08388491942396L16.9359375 21.96345326171019L16.9359375 21.72258994628264L16.72734375 21.602158288568866" stroke-width="0.03" stroke="#000000" fill="none"/>
<path d="M16.72734375 21.843021603996412L16.9359375 21.72258994628264" stroke-width="0.03" stroke="#000000" fill="none"/>
<path d="M16.72734375 21.843021603996412L16.72734375 20.397841711431134L16.31015625 20.156978396003588L16.31015625 19.67525176514849L15.05859375 18.95266181886585L15.267187499999999 18.832230161152076" stroke-width="0.03" stroke="#000000" fill="none"/>
<path d="M14.85 18.832230161152076L14.85 16.062302033735286L16.9359375 17.26661861087302" stroke-width="0.03" stroke="#000000" fill="none"/>
<path d="M17.666015625 17.688129412871227L17.874609375000002 17.808561070585L18.500390624999998 17.44726609744368" stroke-width="0.03" stroke="#000000" fill="none"/>
<path d="M18.81328125 17.387050268586794L18.81328125 17.62791358401434" stroke-width="0.03" stroke="#000000" fill="none"/>
<path d="M17.874609375000002 17.808561070585L17.874609375000002 19.253740963150285L19.126171875 19.976330909432924L19.751953125 19.615035936291605" stroke-width="0.03" stroke="#000000" fill="none"/>
<path d="M19.960546875000002 19.37417262086406L19.751953125 19.253740963150285" stroke-width="0.03" stroke="#000000" fill="none"/>
<path d="M19.126171875 19.976330909432924L19.126171875 20.21719422486047" stroke-width="0.03" stroke="#000000" fill="none"/>
<path d="M18.917578125000002 20.096762567146698L18.396093750000002 20.397841711431134L18.396093750000002 20.63870502685868L19.960546875000002 21.54194245971198L20.482031250000002 21.240863315427546L20.482031250000002 21L18.917578125000002 20.096762567146698" stroke-width="0.03" stroke="#000000" fill="none"/>
<path d="M18.396093750000002 20.397841711431134L19.960546875000002 21.301079144284433L20.482031250000002 21" stroke-width="0.03" stroke="#000000" fill="none"/>
<path d="M19.960546875000002 21.301079144284433L19.960546875000002 23.227985667704807L19.751953125 23.107554009991038L19.751953125 21.42151080199821" stroke-width="0.03" stroke="#000000" fill="none"/>
<path d="M19.126171875 21.060215828856883L19.126171875 23.468848983132357L17.040234375 24.673165560270093" stroke-width="0.03" stroke="#000000" fill="none"/>
<path d="M17.666015625 25.034460533411412L19.126171875 24.191438929414996L19.334765625 24.311870587128773L19.334765625 28.04525197625575L18.291796875 28.647410264824618" stroke-width="0.03" stroke="#000000" fill="none"/>
<path d="M18.083203125 28.526978607110845L15.997265625 29.731295184248577L15.788671874999999 29.610863526534803L15.788671874999999 26.118345452835374L16.9359375 25.45597133540962" stroke-width="0.03" stroke="#000000" fill="none"/>
<path d="M17.14453125 25.576402993123395L15.997265625 26.238777110549147L15.788671874999999 26.118345452835374" stroke-width="0.03" stroke="#000000" fill="none"/>
<path d="M15.997265625 26.238777110549147L15.997265625 29.731295184248577" stroke-width="0.03" stroke="#000000" fill="none"/>
<path d="M15.788671874999999 29.37000021110726L15.580078125 29.490431868821034L14.85 29.068921066822824L14.85 28.105467805112635L14.119921875 28.526978607110845L14.119921875 29.490431868821034L13.911328125 29.37000021110726" stroke-width="0.03" stroke="#000000" fill="none"/>
<path d="M13.911328125 29.610863526534803L13.702734374999999 29.731295184248577L11.616796874999999 28.526978607110845L10.46953125 29.189352724536597L10.46953125 29.550647697677917L11.72109375 30.273237643960556" stroke-width="0.03" stroke="#000000" fill="none"/>
<path d="M11.72109375 30.393669301674333L11.72109375 30.032374328533013L11.825390624999999 29.972158499676127L10.46953125 29.189352724536597" stroke-width="0.03" stroke="#000000" fill="none"/>
<path d="M10.46953125 29.430216039964147L8.905078125 30.333453472817446L8.905078125 31.296906734527635L13.911328125 34.187266519658195L14.85 33.64532405994622L15.788671874999999 34.187266519658195L20.794921875 31.296906734527635L20.794921875 30.333453472817446L19.23046875 29.430216039964147" stroke-width="0.03" stroke="#000000" fill="none"/>
<path d="M19.23046875 29.550647697677917L17.978906249999998 30.273237643960556" stroke-width="0.03" stroke="#000000" fill="none"/>
<path d="M17.978906249999998 30.393669301674333L14.954296875 32.139928338524044L14.85 32.07971250966716L14.745703124999999 32.139928338524044L11.72109375 30.393669301674333" stroke-width="0.03" stroke="#000000" fill="none"/>
<path d="M11.72109375 30.032374328533013L14.745703124999999 31.77863336538273L14.745703124999999 32.139928338524044" stroke-width="0.03" stroke="#000000" fill="none"/>
<path d="M14.85 32.07971250966716L14.85 31.71841753652584L14.745703124999999 31.77863336538273" stroke-width="0.03" stroke="#000000" fill="none"/>
<path d="M14.85 31.71841753652584L14.954296875 31.77863336538273L14.954296875 32.139928338524044" stroke-width="0.03" stroke="#000000" fill="none"/>
<path d="M14.954296875 31.77863336538273L17.978906249999998 30.032374328533013L17.874609375000002 29.972158499676127L19.23046875 29.189352724536597L18.083203125 28.526978607110845" stroke-width="0.03" stroke="#000000" fill="none"/>
<path d="M19.23046875 29.189352724536597L19.23046875 29.550647697677917" stroke-width="0.03" stroke="#000000" fill="none"/>
<path d="M19.439062500000002 29.550647697677917L19.439062500000002 28.105467805112635L22.7765625 26.17856128169226L24.028125 26.901151227974903L24.028125 28.346331120540185L20.690625 30.273237643960556L20.690625 28.828057751395274L19.439062500000002 28.105467805112635" stroke-width="0.03" stroke="#000000" fill="none"/>
<path d="M20.690625 28.828057751395274L24.028125 26.901151227974903" stroke-width="0.03" stroke="#000000" fill="none"/>
<path d="M24.549609375 25.9979137951216L25.801171875 25.27532384883896L25.801171875 21.42151080199821L24.549609375 22.14410074828085L23.298046874999997 21.42151080199821L23.298046874999997 25.27532384883896L24.549609375 25.9979137951216L24.549609375 22.14410074828085" stroke-width="0.03" stroke="#000000" fill="none"/>
<path d="M23.298046874999997 21.42151080199821L24.549609375 20.698920855715564" stroke-width="0.03" stroke="#000000" fill="none"/>
<path d="M23.193749999999998 20.156978396003588L23.193749999999998 21.36129497314132L19.960546875000002 23.227985667704807" stroke-width="0.03" stroke="#000000" fill="none"/>
<path d="M19.126171875 23.468848983132357L16.72734375 22.08388491942396" stroke-width="0.03" stroke="#000000" fill="none"/>
<path d="M16.51875 21.96345326171019L15.267187499999999 22.686043207992828L14.85 22.44517989256528L14.4328125 22.686043207992828L13.181249999999999 21.96345326171019L13.181249999999999 20.518273369144907L13.598437500000001 20.277410053717357L13.598437500000001 19.795683422862265L14.85 19.073093476579622L16.1015625 19.795683422862265L16.1015625 20.277410053717357L16.51875 20.518273369144907L16.51875 21.96345326171019L14.85 21L14.85 19.073093476579622" stroke-width="0.03" stroke="#000000" fill="none"/>
<path d="M14.64140625 18.95266181886585L14.4328125 18.832230161152076" stroke-width="0.03" stroke="#000000" fill="none"/>
<path d="M14.119921875 19.253740963150285L12.97265625 18.59136684572453L12.555468750000001 18.832230161152076L12.555468750000001 19.67525176514849L13.598437500000001 20.277410053717357" stroke-width="0.03" stroke="#000000" fill="none"/>
<path d="M13.598437500000001 19.795683422862265L13.389843749999999 19.67525176514849" stroke-width="0.03" stroke="#000000" fill="none"/>
<path d="M13.702734374999999 19.49460427857783L12.555468750000001 18.832230161152076" stroke-width="0.03" stroke="#000000" fill="none"/>
<path d="M12.555468750000001 18.23007187258321L12.7640625 18.109640214869437L12.7640625 16.303165349162832L12.242578125 16.0020862048784L12.033984375000001 16.122517862592172L12.033984375000001 17.928992728298773L12.555468750000001 18.23007187258321L12.555468750000001 16.423597006876605L14.224218749999999 15.460143745166418L10.991015625000001 13.593453050602928L9.948046875 14.195611339171796" stroke-width="0.03" stroke="#000000" fill="none"/>
<path d="M9.948046875 14.436474654599342L7.862109374999999 15.640791231737078L7.862109374999999 15.881654547164626L10.88671875 17.62791358401434L12.033984375000001 16.965539466588588" stroke-width="0.03" stroke="#000000" fill="none"/>
<path d="M12.033984375000001 16.72467615116104L10.88671875 17.387050268586794L7.862109374999999 15.640791231737078" stroke-width="0.03" stroke="#000000" fill="none"/>
<path d="M8.070703124999998 16.0020862048784L7.862109374999999 16.122517862592172L7.862109374999999 16.965539466588588L7.13203125 17.387050268586794L7.13203125 17.62791358401434" stroke-width="0.03" stroke="#000000" fill="none"/>
<path d="M6.9234374999999995 17.50748192630057L6.714843749999999 17.62791358401434L6.714843749999999 20.03654673828981L5.567578125 20.698920855715564" stroke-width="0.03" stroke="#000000" fill="none"/>
<path d="M5.3589843749999995 20.57848919800179L3.7945312499999995 21.481726630855093L2.960156250000001 21L2.960156250000001 15.21928042973887L3.898828125 14.67733797002689L4.733203124999998 15.159064600881985L3.7945312499999995 15.701007060593964L2.960156250000001 15.21928042973887" stroke-width="0.03" stroke="#000000" fill="none"/>
<path d="M3.7945312499999995 15.701007060593964L3.7945312499999995 21.481726630855093" stroke-width="0.03" stroke="#000000" fill="none"/>
<path d="M3.898828125 21.42151080199821L3.898828125 25.27532384883896L5.150390625 25.9979137951216L6.4019531249999995 25.27532384883896L6.4019531249999995 21.42151080199821L5.150390625 20.698920855715564" stroke-width="0.03" stroke="#000000" fill="none"/>
<path d="M6.4019531249999995 21.42151080199821L5.150390625 22.14410074828085L3.898828125 21.42151080199821" stroke-width="0.03" stroke="#000000" fill="none"/>
<path d="M5.150390625 22.14410074828085L5.150390625 25.9979137951216" stroke-width="0.03" stroke="#000000" fill="none"/>
<path d="M5.671875 26.901151227974903L6.9234374999999995 26.17856128169226L10.260937499999999 28.105467805112635L10.260937499999999 29.550647697677917" stroke-width="0.03" stroke="#000000" fill="none"/>
<path d="M9.009374999999999 30.273237643960556L9.009374999999999 28.828057751395274L5.671875 26.901151227974903L5.671875 28.346331120540185L9.009374999999999 30.273237643960556" stroke-width="0.03" stroke="#000000" fill="none"/>
<path d="M8.905078125 30.333453472817446L13.911328125 33.22381325794801L13.911328125 34.187266519658195" stroke-width="0.03" stroke="#000000" fill="none"/>
<path d="M13.911328125 33.22381325794801L14.85 32.68187079823603L15.788671874999999 33.22381325794801L15.788671874999999 34.187266519658195" stroke-width="0.03" stroke="#000000" fill="none"/>
<path d="M15.788671874999999 33.22381325794801L20.794921875 30.333453472817446" stroke-width="0.03" stroke="#000000" fill="none"/>
<path d="M17.978906249999998 30.393669301674333L17.978906249999998 30.032374328533013" stroke-width="0.03" stroke="#000000" fill="none"/>
<path d="M15.580078125 29.490431868821034L15.580078125 28.526978607110845L14.85 28.105467805112635" stroke-width="0.03" stroke="#000000" fill="none"/>
<path d="M15.580078125 28.526978607110845L15.788671874999999 28.40654694939707" stroke-width="0.03" stroke="#000000" fill="none"/>
<path d="M15.788671874999999 27.68395700311443L14.85 27.142014543402446L14.85 24.492518073699433L16.1015625 25.215108019982072L16.31015625 25.0946763622683" stroke-width="0.03" stroke="#000000" fill="none"/>
<path d="M16.1015625 24.974244704554525L16.1015625 24.37208641598566L16.31015625 24.251654758271883L17.874609375000002 25.154892191125185L17.874609375000002 25.75705047969405L17.666015625 25.877482137407824L16.1015625 24.974244704554525" stroke-width="0.03" stroke="#000000" fill="none"/>
<path d="M16.1015625 25.215108019982072L16.1015625 25.937697966264714" stroke-width="0.03" stroke="#000000" fill="none"/>
<path d="M16.1015625 24.37208641598566L17.666015625 25.27532384883896L19.334765625 24.311870587128773" stroke-width="0.03" stroke="#000000" fill="none"/>
<path d="M19.543359374999998 25.27532384883896L19.334765625 25.39575550655273" stroke-width="0.03" stroke="#000000" fill="none"/>
<path d="M19.334765625 25.51618716426651L19.647656249999997 25.335539677695845L19.543359374999998 25.27532384883896" stroke-width="0.03" stroke="#000000" fill="none"/>
<path d="M19.647656249999997 25.335539677695845L19.647656249999997 25.45597133540962L19.334765625 25.636618821980278" stroke-width="0.03" stroke="#000000" fill="none"/>
<path d="M19.334765625 26.118345452835374L20.690625 25.335539677695845L20.690625 24.37208641598566L21.525000000000002 23.890359785130563L21.525000000000002 22.32474823485151" stroke-width="0.03" stroke="#000000" fill="none"/>
<path d="M21.733593749999997 22.204316577137735L22.255078124999997 22.50539572142217L22.255078124999997 24.311870587128773L23.298046874999997 23.709712298559904" stroke-width="0.03" stroke="#000000" fill="none"/>
<path d="M23.298046874999997 23.107554009991038L22.255078124999997 23.709712298559904" stroke-width="0.03" stroke="#000000" fill="none"/>
<path d="M21.420703125 23.95057561398745L21.420703125 24.793597217983862L20.690625 25.215108019982072" stroke-width="0.03" stroke="#000000" fill="none"/>
<path d="M20.690625 24.612949731413206L20.89921875 24.492518073699433L21.420703125 24.793597217983862" stroke-width="0.03" stroke="#000000" fill="none"/>
<path d="M20.89921875 24.492518073699433L20.89921875 24.251654758271883" stroke-width="0.03" stroke="#000000" fill="none"/>
<path d="M21.003515625000002 22.98712235227726L21.107812499999998 22.926906523420374L21.107812499999998 22.565611550279055" stroke-width="0.03" stroke="#000000" fill="none"/>
<path d="M21.003515625000002 22.62582737913594L21.003515625000002 22.98712235227726L20.89921875 22.926906523420374L20.89921875 22.686043207992828" stroke-width="0.03" stroke="#000000" fill="none"/>
<path d="M21.525000000000002 22.926906523420374L22.255078124999997 22.50539572142217" stroke-width="0.03" stroke="#000000" fill="none"/>
<path d="M23.298046874999997 24.673165560270093L22.255078124999997 25.27532384883896L22.255078124999997 26.479640425976694" stroke-width="0.03" stroke="#000000" fill="none"/>
<path d="M22.359375 26.419424597119807L22.359375 25.335539677695845L23.298046874999997 24.793597217983862" stroke-width="0.03" stroke="#000000" fill="none"/>
<path d="M21.420703125 25.75705047969405L19.85625 26.660287912547354L19.334765625 26.359208768262917" stroke-width="0.03" stroke="#000000" fill="none"/>
<path d="M19.85625 26.660287912547354L19.85625 25.817266308550938" stroke-width="0.03" stroke="#000000" fill="none"/>
<path d="M20.89921875 26.058129623978488L20.89921875 27.26244620111622" stroke-width="0.03" stroke="#000000" fill="none"/>
<path d="M21.420703125 26.96136705683179L21.420703125 25.75705047969405" stroke-width="0.03" stroke="#000000" fill="none"/>
<path d="M17.666015625 25.877482137407824L17.666015625 25.27532384883896" stroke-width="0.03" stroke="#000000" fill="none"/>
<path d="M15.997265625 23.830143956273677L15.580078125 24.071007271701223L14.85 23.649496469703017L14.119921875 24.071007271701223L13.702734374999999 23.830143956273677L13.702734374999999 22.50539572142217" stroke-width="0.03" stroke="#000000" fill="none"/>
<path d="M14.119921875 22.746259036849715L14.119921875 24.071007271701223" stroke-width="0.03" stroke="#000000" fill="none"/>
<path d="M13.598437500000001 24.37208641598566L12.033984375000001 25.27532384883896L10.365234375 24.311870587128773L10.573828124999999 24.191438929414996L12.033984375000001 25.034460533411412" stroke-width="0.03" stroke="#000000" fill="none"/>
<path d="M12.033984375000001 25.27532384883896L12.033984375000001 25.877482137407824L11.825390624999999 25.75705047969405L11.825390624999999 25.154892191125185L13.389843749999999 24.251654758271883L13.598437500000001 24.37208641598566L13.598437500000001 24.974244704554525L12.033984375000001 25.877482137407824" stroke-width="0.03" stroke="#000000" fill="none"/>
<path d="M12.555468750000001 25.576402993123395L13.702734374999999 26.238777110549147L13.911328125 26.118345452835374L13.911328125 29.610863526534803" stroke-width="0.03" stroke="#000000" fill="none"/>
<path d="M14.119921875 29.490431868821034L14.85 29.068921066822824" stroke-width="0.03" stroke="#000000" fill="none"/>
<path d="M14.119921875 28.526978607110845L13.911328125 28.40654694939707" stroke-width="0.03" stroke="#000000" fill="none"/>
<path d="M13.911328125 27.68395700311443L14.85 27.142014543402446" stroke-width="0.03" stroke="#000000" fill="none"/>
<path d="M13.911328125 26.118345452835374L12.7640625 25.45597133540962" stroke-width="0.03" stroke="#000000" fill="none"/>
<path d="M13.389843749999999 25.0946763622683L13.598437500000001 25.215108019982072L14.85 24.492518073699433" stroke-width="0.03" stroke="#000000" fill="none"/>
<path d="M14.85 23.76992812741679L14.954296875 23.709712298559904" stroke-width="0.03" stroke="#000000" fill="none"/>
<path d="M14.85 23.649496469703017L14.85 22.44517989256528" stroke-width="0.03" stroke="#000000" fill="none"/>
<path d="M14.4328125 22.686043207992828L14.4328125 22.926906523420374" stroke-width="0.03" stroke="#000000" fill="none"/>
<path d="M13.702734374999999 23.107554009991038L12.451171875 22.384964063708395L12.451171875 20.939784171143113" stroke-width="0.03" stroke="#000000" fill="none"/>
<path d="M12.97265625 20.759136684572454L11.825390624999999 20.096762567146698L11.825390624999999 20.57848919800179L12.97265625 21.240863315427546" stroke-width="0.03" stroke="#000000" fill="none"/>
<path d="M12.97265625 21.602158288568866L12.7640625 21.72258994628264" stroke-width="0.03" stroke="#000000" fill="none"/>
<path d="M12.97265625 22.08388491942396L10.573828124999999 23.468848983132357L12.659765624999999 24.673165560270093" stroke-width="0.03" stroke="#000000" fill="none"/>
<path d="M13.598437500000001 25.215108019982072L13.598437500000001 25.937697966264714" stroke-width="0.03" stroke="#000000" fill="none"/>
<path d="M13.702734374999999 26.238777110549147L13.702734374999999 29.731295184248577" stroke-width="0.03" stroke="#000000" fill="none"/>
<path d="M11.408203125 28.647410264824618L10.365234375 28.04525197625575L10.365234375 24.311870587128773" stroke-width="0.03" stroke="#000000" fill="none"/>
<path d="M10.573828124999999 23.468848983132357L10.573828124999999 21.060215828856883" stroke-width="0.03" stroke="#000000" fill="none"/>
<path d="M9.948046875 21.42151080199821L9.948046875 23.107554009991038L9.739453124999999 23.227985667704807L6.5062500000000005 21.36129497314132L6.5062500000000005 20.156978396003588" stroke-width="0.03" stroke="#000000" fill="none"/>
<path d="M7.96640625 22.204316577137735L7.4449218749999995 22.50539572142217L7.4449218749999995 24.311870587128773L6.4019531249999995 23.709712298559904" stroke-width="0.03" stroke="#000000" fill="none"/>
<path d="M6.4019531249999995 23.107554009991038L7.4449218749999995 23.709712298559904" stroke-width="0.03" stroke="#000000" fill="none"/>
<path d="M8.175 23.890359785130563L8.175 22.32474823485151" stroke-width="0.03" stroke="#000000" fill="none"/>
<path d="M8.5921875 22.565611550279055L8.5921875 22.926906523420374L8.696484375 22.98712235227726L8.80078125 22.926906523420374L8.80078125 22.686043207992828" stroke-width="0.03" stroke="#000000" fill="none"/>
<path d="M8.696484375 22.62582737913594L8.696484375 22.98712235227726" stroke-width="0.03" stroke="#000000" fill="none"/>
<path d="M8.175 22.926906523420374L7.4449218749999995 22.50539572142217" stroke-width="0.03" stroke="#000000" fill="none"/>
<path d="M8.175 23.890359785130563L9.009374999999999 24.37208641598566L9.009374999999999 25.335539677695845L10.365234375 26.118345452835374" stroke-width="0.03" stroke="#000000" fill="none"/>
<path d="M10.365234375 26.359208768262917L9.84375 26.660287912547354L8.279296875 25.75705047969405L8.279296875 26.96136705683179" stroke-width="0.03" stroke="#000000" fill="none"/>
<path d="M8.80078125 27.26244620111622L8.80078125 26.058129623978488" stroke-width="0.03" stroke="#000000" fill="none"/>
<path d="M9.009374999999999 25.215108019982072L8.279296875 24.793597217983862L8.279296875 23.95057561398745" stroke-width="0.03" stroke="#000000" fill="none"/>
<path d="M8.80078125 24.251654758271883L8.80078125 24.492518073699433L9.009374999999999 24.612949731413206" stroke-width="0.03" stroke="#000000" fill="none"/>
<path d="M8.80078125 24.492518073699433L8.279296875 24.793597217983862" stroke-width="0.03" stroke="#000000" fill="none"/>
<path d="M7.4449218749999995 25.27532384883896L7.4449218749999995 26.479640425976694" stroke-width="0.03" stroke="#000000" fill="none"/>
<path d="M7.340624999999999 26.419424597119807L7.340624999999999 25.335539677695845L6.4019531249999995 24.793597217983862" stroke-width="0.03" stroke="#000000" fill="none"/>
<path d="M6.4019531249999995 24.673165560270093L7.4449218749999995 25.27532384883896" stroke-width="0.03" stroke="#000000" fill="none"/>
<path d="M9.84375 25.817266308550938L9.84375 26.660287912547354" stroke-width="0.03" stroke="#000000" fill="none"/>
<path d="M10.365234375 25.636618821980278L10.05234375 25.45597133540962L10.05234375 25.335539677695845L10.156640625 25.27532384883896L10.365234375 25.39575550655273" stroke-width="0.03" stroke="#000000" fill="none"/>
<path d="M10.365234375 25.51618716426651L10.05234375 25.335539677695845" stroke-width="0.03" stroke="#000000" fill="none"/>
<path d="M9.739453124999999 23.227985667704807L9.739453124999999 21.301079144284433L9.21796875 21L10.782421874999999 20.096762567146698L11.303906249999999 20.397841711431134L11.303906249999999 20.63870502685868L9.739453124999999 21.54194245971198L9.21796875 21.240863315427546L9.21796875 21" stroke-width="0.03" stroke="#000000" fill="none"/>
<path d="M9.739453124999999 21.301079144284433L11.303906249999999 20.397841711431134" stroke-width="0.03" stroke="#000000" fill="none"/>
<path d="M11.825390624999999 20.096762567146698L12.555468750000001 19.67525176514849" stroke-width="0.03" stroke="#000000" fill="none"/>
<path d="M12.451171875 19.615035936291605L12.555468750000001 19.554820107434715" stroke-width="0.03" stroke="#000000" fill="none"/>
<path d="M12.451171875 19.615035936291605L12.451171875 19.735467594005378" stroke-width="0.03" stroke="#000000" fill="none"/>
<path d="M11.825390624999999 19.253740963150285L10.573828124999999 19.976330909432924L9.948046875 19.615035936291605" stroke-width="0.03" stroke="#000000" fill="none"/>
<path d="M9.739453124999999 19.37417262086406L9.948046875 19.253740963150285L9.948046875 20.57848919800179" stroke-width="0.03" stroke="#000000" fill="none"/>
<path d="M9.739453124999999 20.698920855715564L9.739453124999999 19.37417262086406L6.714843749999999 17.62791358401434" stroke-width="0.03" stroke="#000000" fill="none"/>
<path d="M6.9234374999999995 17.50748192630057L9.948046875 19.253740963150285" stroke-width="0.03" stroke="#000000" fill="none"/>
<path d="M10.573828124999999 19.976330909432924L10.573828124999999 20.21719422486047" stroke-width="0.03" stroke="#000000" fill="none"/>
<path d="M11.825390624999999 19.253740963150285L11.825390624999999 17.808561070585L11.199609375 17.44726609744368" stroke-width="0.03" stroke="#000000" fill="none"/>
<path d="M10.88671875 17.387050268586794L10.88671875 17.62791358401434" stroke-width="0.03" stroke="#000000" fill="none"/>
<path d="M11.825390624999999 17.808561070585L12.033984375000001 17.688129412871227" stroke-width="0.03" stroke="#000000" fill="none"/>
<path d="M12.7640625 17.26661861087302L14.85 16.062302033735286" stroke-width="0.03" stroke="#000000" fill="none"/>
<path d="M14.224218749999999 15.701007060593964L12.7640625 16.54402866459038" stroke-width="0.03" stroke="#000000" fill="none"/>
<path d="M12.555468750000001 16.423597006876605L12.033984375000001 16.122517862592172" stroke-width="0.03" stroke="#000000" fill="none"/>
<path d="M12.659765624999999 14.556906312313117L14.015625 13.77410053717359L14.85 14.255827168028683L15.684375 13.77410053717359L17.040234375 14.556906312313117" stroke-width="0.03" stroke="#000000" fill="none"/>
<path d="M17.248828125 14.436474654599342L17.248828125 13.834316366030475L15.684375 12.931078933177174L16.72734375 12.328920644608306" stroke-width="0.03" stroke="#000000" fill="none"/>
<path d="M17.248828125 12.629999788892741L16.205859375 13.232158077461609" stroke-width="0.03" stroke="#000000" fill="none"/>
<path d="M15.580078125 13.834316366030475L14.85 13.412805564032269L14.119921875 13.834316366030475" stroke-width="0.03" stroke="#000000" fill="none"/>
<path d="M14.64140625 14.13539551031491L14.85 14.014963852601136L15.05859375 14.13539551031491" stroke-width="0.03" stroke="#000000" fill="none"/>
<path d="M14.85 14.014963852601136L14.85 13.412805564032269" stroke-width="0.03" stroke="#000000" fill="none"/>
<path d="M14.015625 12.931078933177174L12.451171875 13.834316366030475L12.451171875 14.436474654599342" stroke-width="0.03" stroke="#000000" fill="none"/>
<path d="M12.451171875 13.834316366030475L13.181249999999999 14.255827168028683" stroke-width="0.03" stroke="#000000" fill="none"/>
<path d="M13.389843749999999 14.617122141170004L13.076953125000001 14.797769627740664" stroke-width="0.03" stroke="#000000" fill="none"/>
<path d="M13.181249999999999 14.85798545659755L13.494140625 14.67733797002689L13.494140625 14.797769627740664L13.285546875 14.918201285454437" stroke-width="0.03" stroke="#000000" fill="none"/>
<path d="M13.389843749999999 14.617122141170004L13.494140625 14.67733797002689" stroke-width="0.03" stroke="#000000" fill="none"/>
<path d="M14.224218749999999 15.460143745166418L14.224218749999999 15.701007060593964" stroke-width="0.03" stroke="#000000" fill="none"/>
<path d="M15.47578125 15.460143745166418L17.14453125 16.423597006876605" stroke-width="0.03" stroke="#000000" fill="none"/>
<path d="M16.414453125 14.918201285454437L16.205859375 14.797769627740664L16.205859375 14.67733797002689L16.31015625 14.617122141170004L16.623046875 14.797769627740664" stroke-width="0.03" stroke="#000000" fill="none"/>
<path d="M16.51875 14.85798545659755L16.205859375 14.67733797002689" stroke-width="0.03" stroke="#000000" fill="none"/>
<path d="M16.51875 14.255827168028683L17.248828125 13.834316366030475" stroke-width="0.03" stroke="#000000" fill="none"/>
<path d="M18.708984375 13.473021392889155L18.708984375 12.027841500323873" stroke-width="0.03" stroke="#000000" fill="none"/>
<path d="M19.960546875000002 11.184819896327458L24.966796875000004 14.075179681458023L24.966796875000004 15.159064600881985L25.90546875 15.701007060593964L25.90546875 21.481726630855093" stroke-width="0.03" stroke="#000000" fill="none"/>
<path d="M24.549609375 19.01287764772274L24.549609375 15.520359574023306L24.4453125 15.460143745166418L24.4453125 15.339712087452645L21.420703125 13.593453050602928" stroke-width="0.03" stroke="#000000" fill="none"/>
<path d="M21.107812499999998 13.77410053717359L24.132421875000002 15.520359574023306L24.132421875000002 15.640791231737078L24.23671875 15.701007060593964L24.23671875 19.193525134293395" stroke-width="0.03" stroke="#000000" fill="none"/>
<path d="M22.98515625 17.62791358401434L22.7765625 17.50748192630057" stroke-width="0.03" stroke="#000000" fill="none"/>
<path d="M22.567968750000002 17.387050268586794L21.837890625 16.965539466588588" stroke-width="0.03" stroke="#000000" fill="none"/>
<path d="M21.837890625 16.122517862592172L21.003515625000002 16.60424449344727L21.003515625000002 17.44726609744368" stroke-width="0.03" stroke="#000000" fill="none"/>
<path d="M21.003515625000002 16.60424449344727L20.794921875 16.483812835733495" stroke-width="0.03" stroke="#000000" fill="none"/>
<path d="M20.169140624999997 16.845107808874815L20.169140624999997 17.928992728298773L17.874609375000002 19.253740963150285" stroke-width="0.03" stroke="#000000" fill="none"/>
<path d="M17.248828125 19.615035936291605L17.248828125 19.735467594005378" stroke-width="0.03" stroke="#000000" fill="none"/>
<path d="M17.14453125 19.67525176514849L16.1015625 20.277410053717357" stroke-width="0.03" stroke="#000000" fill="none"/>
<path d="M16.1015625 19.795683422862265L16.31015625 19.67525176514849" stroke-width="0.03" stroke="#000000" fill="none"/>
<path d="M15.997265625 19.49460427857783L17.14453125 18.832230161152076L16.72734375 18.59136684572453" stroke-width="0.03" stroke="#000000" fill="none"/>
<path d="M17.14453125 18.832230161152076L17.14453125 19.67525176514849L17.874609375000002 20.096762567146698L17.874609375000002 20.57848919800179L16.72734375 21.240863315427546" stroke-width="0.03" stroke="#000000" fill="none"/>
<path d="M16.72734375 20.759136684572454L17.874609375000002 20.096762567146698" stroke-width="0.03" stroke="#000000" fill="none"/>
<path d="M17.248828125 19.615035936291605L17.14453125 19.554820107434715" stroke-width="0.03" stroke="#000000" fill="none"/>
<path d="M16.72734375 20.397841711431134L16.51875 20.518273369144907" stroke-width="0.03" stroke="#000000" fill="none"/>
<path d="M17.248828125 20.939784171143113L17.248828125 22.384964063708395L15.997265625 23.107554009991038" stroke-width="0.03" stroke="#000000" fill="none"/>
<path d="M15.580078125 22.746259036849715L15.580078125 24.071007271701223" stroke-width="0.03" stroke="#000000" fill="none"/>
<path d="M15.997265625 23.830143956273677L15.997265625 22.50539572142217" stroke-width="0.03" stroke="#000000" fill="none"/>
<path d="M15.267187499999999 22.686043207992828L15.267187499999999 22.926906523420374" stroke-width="0.03" stroke="#000000" fill="none"/>
<path d="M14.85 23.76992812741679L14.745703124999999 23.709712298559904" stroke-width="0.03" stroke="#000000" fill="none"/>
<path d="M13.181249999999999 21.96345326171019L14.85 21" stroke-width="0.03" stroke="#000000" fill="none"/>
<path d="M14.85 20.759136684572454L14.64140625 20.879568342286227L14.64140625 21.120431657713773L14.85 21.240863315427546L15.05859375 21.120431657713773L15.05859375 20.879568342286227L14.85 20.759136684572454" stroke-width="0.03" stroke="#000000" fill="none"/>
<path d="M13.181249999999999 20.518273369144907L12.97265625 20.397841711431134" stroke-width="0.03" stroke="#000000" fill="none"/>
<path d="M13.598437500000001 18.95266181886585L14.85 18.23007187258321L16.1015625 18.95266181886585" stroke-width="0.03" stroke="#000000" fill="none"/>
<path d="M20.169140624999997 17.928992728298773L21.107812499999998 18.470935188010756" stroke-width="0.03" stroke="#000000" fill="none"/>
<path d="M24.132421875000002 15.640791231737078L24.4453125 15.460143745166418" stroke-width="0.03" stroke="#000000" fill="none"/>
<path d="M24.4453125 15.339712087452645L24.132421875000002 15.520359574023306" stroke-width="0.03" stroke="#000000" fill="none"/>
<path d="M24.23671875 15.701007060593964L24.549609375 15.520359574023306" stroke-width="0.03" stroke="#000000" fill="none"/>
<path d="M24.966796875000004 15.159064600881985L25.801171875 14.67733797002689" stroke-width="0.03" stroke="#000000" fill="none"/>
<path d="M24.966796875000004 14.075179681458023L25.801171875 13.593453050602928" stroke-width="0.03" stroke="#000000" fill="none"/>
<path d="M26.73984375 15.21928042973887L25.90546875 15.701007060593964" stroke-width="0.03" stroke="#000000" fill="none"/>
<path d="M15.89296875 11.847194013753214L14.85 12.44935230232208L13.80703125 11.847194013753214" stroke-width="0.03" stroke="#000000" fill="none"/>
<path d="M13.911328125 11.786978184896327L14.85 12.328920644608306L15.788671874999999 11.786978184896327" stroke-width="0.03" stroke="#000000" fill="none"/>
<path d="M14.015625 12.931078933177174L12.97265625 12.328920644608306" stroke-width="0.03" stroke="#000000" fill="none"/>
<path d="M12.451171875 12.629999788892741L13.494140625 13.232158077461609" stroke-width="0.03" stroke="#000000" fill="none"/>
<path d="M10.991015625000001 13.473021392889155L10.991015625000001 12.027841500323873" stroke-width="0.03" stroke="#000000" fill="none"/>
<path d="M9.948046875 13.111726419747836L9.948046875 14.436474654599342" stroke-width="0.03" stroke="#000000" fill="none"/>
<path d="M8.905078125 16.483812835733495L8.696484375 16.60424449344727L8.696484375 17.44726609744368L7.96640625 17.86877689944189L7.96640625 18.109640214869437" stroke-width="0.03" stroke="#000000" fill="none"/>
<path d="M7.96640625 17.86877689944189L7.13203125 17.387050268586794" stroke-width="0.03" stroke="#000000" fill="none"/>
<path d="M7.862109374999999 16.965539466588588L8.696484375 17.44726609744368" stroke-width="0.03" stroke="#000000" fill="none"/>
<path d="M8.696484375 16.60424449344727L7.862109374999999 16.122517862592172" stroke-width="0.03" stroke="#000000" fill="none"/>
<path d="M9.530859375 16.845107808874815L9.530859375 17.928992728298773L8.5921875 18.470935188010756" stroke-width="0.03" stroke="#000000" fill="none"/>
<path d="M9.530859375 17.928992728298773L11.825390624999999 19.253740963150285" stroke-width="0.03" stroke="#000000" fill="none"/>
<path d="M5.46328125 15.701007060593964L5.150390625 15.520359574023306" stroke-width="0.03" stroke="#000000" fill="none"/>
<path d="M4.733203124999998 15.159064600881985L4.733203124999998 14.075179681458023L3.898828125 13.593453050602928L3.898828125 14.67733797002689" stroke-width="0.03" stroke="#000000" fill="none"/>
<path d="M4.733203124999998 14.075179681458023L9.739453124999999 11.184819896327458" stroke-width="0.03" stroke="#000000" fill="none"/>
<path d="M9.237499999999999 2.533333333333333L1.5 2.533333333333333" stroke-width="0.03" stroke="#000000" fill="none"/>
<path d="M2.1166666666666667 2.2291666666666665L2.1166666666666667 1.8208333333333333" stroke-width="0.03" stroke="#000000" fill="none"/>
<path d="M2.0875 1.6166666666666667L2.1166666666666667 1.6458333333333333L2.145833333333333 1.6166666666666667L2.1166666666666667 1.5875L2.0875 1.6166666666666667" stroke-width="0.03" stroke="#000000" fill="none"/>
<path d="M2.3208333333333333 2.1416666666666666L2.35 2.2L2.4375 2.2291666666666665L2.525 2.2291666666666665L2.6125 2.2L2.6416666666666666 2.1416666666666666L2.6416666666666666 2.1125L2.6125 2.0541666666666667L2.5541666666666667 2.025L2.408333333333333 1.9958333333333333L2.35 1.9666666666666666L2.3208333333333333 1.9083333333333332L2.35 1.85L2.4375 1.8208333333333333L2.525 1.8208333333333333L2.6125 1.85L2.6416666666666666 1.9083333333333332" stroke-width="0.03" stroke="#000000" fill="none"/>
<path d="M2.9625 1.8208333333333333L2.904166666666667 1.85L2.845833333333333 1.9083333333333332L2.8166666666666664 1.9958333333333333L2.8166666666666664 2.0541666666666667L2.845833333333333 2.1416666666666666L2.904166666666667 2.2L2.9625 2.2291666666666665L3.05 2.2291666666666665L3.1083333333333334 2.2L3.1666666666666665 2.1416666666666666L3.1958333333333333 2.0541666666666667L3.1958333333333333 1.9958333333333333L3.1666666666666665 1.9083333333333332L3.1083333333333334 1.85L3.05 1.8208333333333333L2.9625 1.8208333333333333" stroke-width="0.03" stroke="#000000" fill="none"/>
<path d="M3.283333333333333 2.2874999999999996L3.75 2.2874999999999996" stroke-width="0.03" stroke="#000000" fill="none"/>
<path d="M3.8375 2.1416666666666666L3.8666666666666663 2.2L3.9541666666666666 2.2291666666666665L4.041666666666666 2.2291666666666665L4.129166666666666 2.2L4.158333333333333 2.1416666666666666L4.158333333333333 2.1125L4.129166666666666 2.0541666666666667L4.070833333333333 2.025L3.925 1.9958333333333333L3.8666666666666663 1.9666666666666666L3.8375 1.9083333333333332L3.8666666666666663 1.85L3.9541666666666666 1.8208333333333333L4.041666666666666 1.8208333333333333L4.129166666666666 1.85L4.158333333333333 1.9083333333333332" stroke-width="0.03" stroke="#000000" fill="none"/>
<path d="M4.3625 1.9375L4.449999999999999 1.85L4.508333333333333 1.8208333333333333L4.595833333333333 1.8208333333333333L4.654166666666667 1.85L4.683333333333334 1.9375L4.683333333333334 2.2291666666666665" stroke-width="0.03" stroke="#000000" fill="none"/>
<path d="M4.3625 2.2291666666666665L4.3625 1.8208333333333333" stroke-width="0.03" stroke="#000000" fill="none"/>
<path d="M5.033333333333333 1.8208333333333333L4.975 1.85L4.916666666666666 1.9083333333333332L4.887499999999999 1.9958333333333333L4.887499999999999 2.0541666666666667L4.916666666666666 2.1416666666666666L4.975 2.2L5.033333333333333 2.2291666666666665L5.120833333333334 2.2291666666666665L5.179166666666666 2.2L5.2375 2.1416666666666666L5.266666666666666 2.0541666666666667L5.266666666666666 1.9958333333333333L5.2375 1.9083333333333332L5.179166666666666 1.85L5.120833333333334 1.8208333333333333L5.033333333333333 1.8208333333333333" stroke-width="0.03" stroke="#000000" fill="none"/>
<path d="M5.441666666666666 1.8208333333333333L5.558333333333334 2.2291666666666665L5.675 1.8208333333333333L5.791666666666666 2.2291666666666665L5.908333333333333 1.8208333333333333" stroke-width="0.03" stroke="#000000" fill="none"/>
<path d="M6.054166666666666 1.8208333333333333L6.258333333333333 1.8208333333333333" stroke-width="0.03" stroke="#000000" fill="none"/>
<path d="M6.2875 1.6166666666666667L6.229166666666666 1.6166666666666667L6.1708333333333325 1.6458333333333333L6.141666666666667 1.7333333333333334L6.141666666666667 2.2291666666666665" stroke-width="0.03" stroke="#000000" fill="none"/>
<path d="M6.4624999999999995 2.2291666666666665L6.4624999999999995 1.6166666666666667" stroke-width="0.03" stroke="#000000" fill="none"/>
<path d="M7.016666666666666 1.8208333333333333L7.016666666666666 2.2291666666666665" stroke-width="0.03" stroke="#000000" fill="none"/>
<path d="M7.016666666666666 2.1416666666666666L6.958333333333333 2.2L6.8999999999999995 2.2291666666666665L6.812499999999999 2.2291666666666665L6.754166666666666 2.2L6.695833333333333 2.1416666666666666L6.666666666666666 2.0541666666666667L6.666666666666666 1.9958333333333333L6.695833333333333 1.9083333333333332L6.754166666666666 1.85L6.812499999999999 1.8208333333333333L6.8999999999999995 1.8208333333333333L6.958333333333333 1.85L7.016666666666666 1.9083333333333332" stroke-width="0.03" stroke="#000000" fill="none"/>
<path d="M7.249999999999999 2.1125L7.541666666666666 1.8208333333333333" stroke-width="0.03" stroke="#000000" fill="none"/>
<path d="M7.366666666666666 1.9958333333333333L7.570833333333333 2.2291666666666665" stroke-width="0.03" stroke="#000000" fill="none"/>
<path d="M7.716666666666666 1.9958333333333333L8.066666666666666 1.9958333333333333L8.066666666666666 1.9375L8.0375 1.8791666666666667L8.008333333333333 1.85L7.949999999999999 1.8208333333333333L7.8625 1.8208333333333333L7.804166666666666 1.85L7.745833333333333 1.9083333333333332L7.716666666666666 1.9958333333333333L7.716666666666666 2.0541666666666667L7.745833333333333 2.1416666666666666L7.804166666666666 2.2L7.8625 2.2291666666666665L7.949999999999999 2.2291666666666665L8.008333333333333 2.2L8.066666666666666 2.1416666666666666" stroke-width="0.03" stroke="#000000" fill="none"/>
<path d="M8.270833333333332 1.7625L8.270833333333332 1.7333333333333334L8.299999999999999 1.675L8.329166666666666 1.6458333333333333L8.3875 1.6166666666666667L8.504166666666666 1.6166666666666667L8.5625 1.6458333333333333L8.591666666666665 1.675L8.620833333333334 1.7333333333333334L8.620833333333334 1.7916666666666665L8.591666666666665 1.85L8.533333333333331 1.9375L8.241666666666667 2.2291666666666665L8.649999999999999 2.2291666666666665" stroke-width="0.03" stroke="#000000" fill="none"/>
<path d="M7.249999999999999 2.2291666666666665L7.249999999999999 1.6166666666666667" stroke-width="0.03" stroke="#000000" fill="none"/>
<path d="M5.388886371645256 3.0054372986874878L5.33480839762964 3.023463290026026L5.316782406291102 3.0595152727031034L5.316782406291102 3.0955672553801805L5.33480839762964 3.1316192380572576L5.370860380306718 3.149645229395796L5.442964345660872 3.167671220734335L5.497042319676488 3.1856972120728733L5.533094302353565 3.221749194749951L5.5511202936921045 3.257801177427028L5.5511202936921045 3.3118791514426436L5.533094302353565 3.3479311341197207L5.5150683110150265 3.3659571254582596L5.46099033699941 3.383983116796798L5.388886371645256 3.383983116796798L5.33480839762964 3.3659571254582596L5.316782406291102 3.3479311341197207L5.298756414952564 3.3118791514426436L5.298756414952564 3.257801177427028L5.316782406291102 3.221749194749951L5.352834388968179 3.1856972120728733L5.406912362983795 3.167671220734335L5.479016328337949 3.149645229395796L5.5150683110150265 3.1316192380572576L5.533094302353565 3.0955672553801805L5.533094302353565 3.0595152727031034L5.5150683110150265 3.023463290026026L5.46099033699941 3.0054372986874878L5.388886371645256 3.0054372986874878" stroke-width="0.03" stroke="#000000" fill="none"/>
<path d="M5.100470510228639 3.1856972120728733L5.154548484244255 3.167671220734335L5.172574475582794 3.149645229395796L5.190600466921332 3.113593246718719L5.190600466921332 3.077541264041642L5.172574475582794 3.041489281364565L5.154548484244255 3.023463290026026L5.100470510228639 3.0054372986874878L4.938236588181791 3.0054372986874878L4.938236588181791 3.383983116796798L5.100470510228639 3.383983116796798L5.154548484244255 3.3659571254582596L5.172574475582794 3.3479311341197207L5.190600466921332 3.3118791514426436L5.190600466921332 3.257801177427028L5.172574475582794 3.221749194749951L5.154548484244255 3.2037232034114123L5.100470510228639 3.1856972120728733L4.938236588181791 3.1856972120728733" stroke-width="0.03" stroke="#000000" fill="none"/>
<path d="M4.812054648812021 3.383983116796798L4.559690770072481 3.383983116796798L4.739950683457867 3.2037232034114123L4.776002666134945 3.149645229395796L4.794028657473483 3.113593246718719L4.794028657473483 3.077541264041642L4.776002666134945 3.041489281364565L4.757976674796406 3.023463290026026L4.7219246921193285 3.0054372986874878L4.649820726765174 3.0054372986874878L4.613768744088096 3.023463290026026L4.595742752749558 3.041489281364565L4.57771676141102 3.077541264041642L4.57771676141102 3.0955672553801805" stroke-width="0.03" stroke="#000000" fill="none"/>
<path d="M4.45153482204125 3.0955672553801805L4.433508830702711 3.0595152727031034L4.397456848025634 3.023463290026026L4.361404865348556 3.0054372986874878L4.289300899994402 3.0054372986874878L4.253248917317325 3.023463290026026L4.217196934640247 3.0595152727031034L4.199170943301709 3.0955672553801805L4.18114495196317 3.149645229395796L4.18114495196317 3.2397751860884894L4.199170943301709 3.293853160104105L4.217196934640247 3.3299051427811825L4.253248917317325 3.3659571254582596L4.289300899994402 3.383983116796798L4.361404865348556 3.383983116796798L4.397456848025634 3.3659571254582596L4.433508830702711 3.3299051427811825L4.45153482204125 3.293853160104105" stroke-width="0.03" stroke="#000000" fill="none"/>
<path d="M4.072989003931939 3.293853160104105L4.0549630125934 3.3299051427811825L4.018911029916323 3.3659571254582596L3.9828590472392458 3.383983116796798L3.9107550818850916 3.383983116796798L3.8747030992080145 3.3659571254582596L3.838651116530937 3.3299051427811825L3.8206251251923984 3.293853160104105L3.80259913385386 3.2397751860884894L3.80259913385386 3.149645229395796L3.8206251251923984 3.0955672553801805L3.838651116530937 3.0595152727031034L3.8747030992080145 3.023463290026026L3.9107550818850916 3.0054372986874878L3.9828590472392458 3.0054372986874878L4.018911029916323 3.023463290026026L4.0549630125934 3.0595152727031034L4.072989003931939 3.0955672553801805" stroke-width="0.03" stroke="#000000" fill="none"/>
<path d="M3.658391203145551 3.0054372986874878L3.478131289760165 3.0054372986874878L3.4601052984216265 3.167671220734335L3.478131289760165 3.149645229395796L3.5322092637757807 3.1316192380572576L3.586287237791397 3.1316192380572576L3.6403652118070124 3.149645229395796L3.6764171944840895 3.1856972120728733L3.694443185822628 3.2397751860884894L3.694443185822628 3.2758271687655665L3.6764171944840895 3.3299051427811825L3.6403652118070124 3.3659571254582596L3.586287237791397 3.383983116796798L3.5322092637757807 3.383983116796798L3.478131289760165 3.3659571254582596L3.4601052984216265 3.3479311341197207L3.442079307083088 3.3118791514426436" stroke-width="0.03" stroke="#000000" fill="none"/>
<path d="M3.0815594803123156 3.3118791514426436L3.0995854716508546 3.3479311341197207L3.117611462989393 3.3659571254582596L3.171689437005009 3.383983116796798L3.225767411020625 3.383983116796798L3.2798453850362406 3.3659571254582596L3.3158973677133177 3.3299051427811825L3.333923359051856 3.2758271687655665L3.333923359051856 3.2397751860884894L3.3158973677133177 3.1856972120728733L3.297871376374779 3.167671220734335L3.261819393697702 3.149645229395796L3.207741419682086 3.149645229395796L3.3158973677133177 3.0054372986874878L3.117611462989393 3.0054372986874878" stroke-width="0.03" stroke="#000000" fill="none"/>
<path d="M2.77511762755716 3.077541264041642L2.811169610234237 3.0595152727031034L2.8652475842498526 3.0054372986874878L2.8652475842498526 3.383983116796798" stroke-width="0.03" stroke="#000000" fill="none"/>
<path d="M2.6128837055103125 3.383983116796798L2.414597800786388 3.1316192380572576" stroke-width="0.03" stroke="#000000" fill="none"/>
<path d="M2.6128837055103125 3.1316192380572576L2.414597800786388 3.383983116796798" stroke-width="0.03" stroke="#000000" fill="none"/>
<path d="M2.1622339220468474 3.0054372986874878L2.1081559480312317 3.023463290026026L2.072103965354154 3.077541264041642L2.0540779740156156 3.167671220734335L2.0540779740156156 3.221749194749951L2.072103965354154 3.3118791514426436L2.1081559480312317 3.3659571254582596L2.1622339220468474 3.383983116796798L2.1982859047239245 3.383983116796798L2.2523638787395406 3.3659571254582596L2.2884158614166177 3.3118791514426436L2.3064418527551562 3.221749194749951L2.3064418527551562 3.167671220734335L2.2884158614166177 3.077541264041642L2.2523638787395406 3.023463290026026L2.1982859047239245 3.0054372986874878L2.1622339220468474 3.0054372986874878" stroke-width="0.03" stroke="#000000" fill="none"/>
<path d="M10.260937499999999 28.105467805112635L9.009374999999999 28.828057751395274" stroke-width="0.03" stroke="#000000" fill="none"/>
<path d="M14.85 32.68187079823603L14.85 33.64532405994622" stroke-width="0.03" stroke="#000000" fill="none"/>
</svg>
