<?xml version="1.0" standalone="no"?>
<svg width="29.7cm" height="42cm" version="1.1" xmlns="http://www.w3.org/2000/svg" viewBox="0.0 0.0 29.700001 42.000001">
<path d="M5.46328125 13.894532194887363L8.80078125 11.967625671466987L9.21796875 12.208488986894533L9.21796875 13.412805564032269" stroke-width="0.03" stroke="#000000" fill="none"/>
<path d="M9.21796875 12.208488986894533L5.88046875 14.13539551031491L5.46328125 13.894532194887363L5.46328125 15.580575402880193L4.003124999999999 16.423597006876605L4.003124999999999 20.277410053717357L4.4203125 20.518273369144907L5.46328125 19.916115080576038" stroke-width="0.03" stroke="#000000" fill="none"/>
<path d="M4.4203125 20.518273369144907L4.4203125 16.66446032230415L5.88046875 15.82143871830774L5.88046875 14.13539551031491" stroke-width="0.03" stroke="#000000" fill="none"/>
<path d="M5.46328125 15.580575402880193L5.88046875 15.82143871830774" stroke-width="0.03" stroke="#000000" fill="none"/>
<path d="M5.88046875 16.18273369144906L6.193359375 16.0020862048784L9.322265625 17.808561070585L9.009374999999999 17.989208557155663L9.009374999999999 19.434388449720945L10.46953125 18.59136684572453L11.199609375 19.01287764772274L11.199609375 23.107554009991038L14.745703124999999 25.154892191125185L14.745703124999999 25.9979137951216L13.285546875 26.840935399118013L13.285546875 27.443093687686883L13.076953125000001 27.563525345400656L13.076953125000001 28.526978607110845L13.494140625 28.767841922538388L13.702734374999999 28.647410264824618L13.702734374999999 27.68395700311443L13.285546875 27.443093687686883" stroke-width="0.03" stroke="#000000" fill="none"/>
<path d="M13.076953125000001 27.563525345400656L13.494140625 27.804388660828202L13.494140625 28.767841922538388" stroke-width="0.03" stroke="#000000" fill="none"/>
<path d="M13.285546875 28.647410264824618L13.285546875 29.851726841962353L12.346874999999999 30.393669301674333L9.84375 28.94848940910905" stroke-width="0.03" stroke="#000000" fill="none"/>
<path d="M9.84375 29.189352724536597L9.530859375 29.37000021110726L8.905078125 29.008705237965938L8.905078125 25.636618821980278L9.21796875 25.45597133540962L9.84375 25.817266308550938L9.84375 29.189352724536597" stroke-width="0.03" stroke="#000000" fill="none"/>
<path d="M9.530859375 29.37000021110726L9.530859375 25.9979137951216L9.84375 25.817266308550938" stroke-width="0.03" stroke="#000000" fill="none"/>
<path d="M9.530859375 25.9979137951216L8.905078125 25.636618821980278" stroke-width="0.03" stroke="#000000" fill="none"/>
<path d="M8.80078125 24.492518073699433L11.9296875 22.686043207992828L11.9296875 22.32474823485151" stroke-width="0.03" stroke="#000000" fill="none"/>
<path d="M12.138281249999999 22.44517989256528L12.138281249999999 22.565611550279055L12.242578125 22.62582737913594" stroke-width="0.03" stroke="#000000" fill="none"/>
<path d="M12.242578125 22.50539572142217L12.138281249999999 22.565611550279055" stroke-width="0.03" stroke="#000000" fill="none"/>
<path d="M12.242578125 22.50539572142217L12.242578125 23.709712298559904" stroke-width="0.03" stroke="#000000" fill="none"/>
<path d="M11.825390624999999 23.468848983132357L12.242578125 23.227985667704807" stroke-width="0.03" stroke="#000000" fill="none"/>
<path d="M12.242578125 22.866690694563488L11.9296875 22.686043207992828" stroke-width="0.03" stroke="#000000" fill="none"/>
<path d="M12.242578125 22.50539572142217L11.199609375 21.903237432853302" stroke-width="0.03" stroke="#000000" fill="none"/>
<path d="M11.199609375 22.384964063708395L11.616796874999999 22.14410074828085" stroke-width="0.03" stroke="#000000" fill="none"/>
<path d="M12.555468750000001 21.96345326171019L13.911328125 21.18064748657066L12.868359374999999 20.57848919800179" stroke-width="0.03" stroke="#000000" fill="none"/>
<path d="M13.285546875 20.337625882574244L11.9296875 21.120431657713773L11.512500000000001 20.879568342286227L11.512500000000001 20.63870502685868L12.868359374999999 19.85589925171915L12.868359374999999 18.290287701440096L13.076953125000001 18.16985604372632L13.494140625 18.410719359153866L13.494140625 19.976330909432924L13.911328125 19.735467594005378" stroke-width="0.03" stroke="#000000" fill="none"/>
<path d="M14.119921875 19.85589925171915L13.494140625 20.21719422486047L13.494140625 20.939784171143113" stroke-width="0.03" stroke="#000000" fill="none"/>
<path d="M13.285546875 20.819352513429337L13.285546875 20.337625882574244" stroke-width="0.03" stroke="#000000" fill="none"/>
<path d="M13.285546875 20.096762567146698L11.9296875 20.879568342286227L11.9296875 21.120431657713773" stroke-width="0.03" stroke="#000000" fill="none"/>
<path d="M11.9296875 20.879568342286227L11.512500000000001 20.63870502685868" stroke-width="0.03" stroke="#000000" fill="none"/>
<path d="M11.512500000000001 20.759136684572454L11.199609375 20.939784171143113" stroke-width="0.03" stroke="#000000" fill="none"/>
<path d="M11.199609375 21.18064748657066L12.555468750000001 21.96345326171019L12.555468750000001 22.32474823485151L12.868359374999999 22.50539572142217L12.868359374999999 24.071007271701223" stroke-width="0.03" stroke="#000000" fill="none"/>
<path d="M13.076953125000001 24.191438929414996L13.389843749999999 24.010791442844337" stroke-width="0.03" stroke="#000000" fill="none"/>
<path d="M13.285546875 23.95057561398745L13.285546875 23.468848983132357L14.64140625 22.686043207992828L14.224218749999999 22.44517989256528" stroke-width="0.03" stroke="#000000" fill="none"/>
<path d="M14.224218749999999 22.204316577137735L14.85 22.565611550279055L15.47578125 22.204316577137735" stroke-width="0.03" stroke="#000000" fill="none"/>
<path d="M15.47578125 22.44517989256528L15.05859375 22.686043207992828L16.414453125 23.468848983132357L16.414453125 23.95057561398745L16.205859375 24.071007271701223L14.85 23.288201496561694L14.85 22.8064748657066L13.494140625 23.58928064084613L13.494140625 24.071007271701223L13.285546875 23.95057561398745" stroke-width="0.03" stroke="#000000" fill="none"/>
<path d="M13.494140625 24.071007271701223L14.85 23.288201496561694" stroke-width="0.03" stroke="#000000" fill="none"/>
<path d="M15.05859375 23.40863315427547L14.85 23.529064811989244L14.64140625 23.40863315427547" stroke-width="0.03" stroke="#000000" fill="none"/>
<path d="M14.328515625 23.58928064084613L14.85 23.890359785130563L15.371484375 23.58928064084613" stroke-width="0.03" stroke="#000000" fill="none"/>
<path d="M15.47578125 22.926906523420374L15.47578125 21.72258994628264L15.788671874999999 21.54194245971198L15.788671874999999 21.18064748657066L16.831640625 20.57848919800179" stroke-width="0.03" stroke="#000000" fill="none"/>
<path d="M16.414453125 20.337625882574244L16.414453125 20.819352513429337" stroke-width="0.03" stroke="#000000" fill="none"/>
<path d="M16.205859375 20.939784171143113L16.205859375 20.21719422486047L15.580078125 19.85589925171915" stroke-width="0.03" stroke="#000000" fill="none"/>
<path d="M15.788671874999999 19.735467594005378L16.205859375 19.976330909432924L16.205859375 18.410719359153866L16.623046875 18.16985604372632L16.831640625 18.290287701440096L16.831640625 19.85589925171915L16.414453125 20.096762567146698L17.7703125 20.879568342286227L17.7703125 21.120431657713773L18.1875 20.879568342286227L18.1875 20.63870502685868L16.831640625 19.85589925171915" stroke-width="0.03" stroke="#000000" fill="none"/>
<path d="M16.831640625 19.615035936291605L17.040234375 19.735467594005378L17.040234375 19.976330909432924" stroke-width="0.03" stroke="#000000" fill="none"/>
<path d="M17.353125 20.156978396003588L17.353125 19.554820107434715L16.831640625 19.253740963150285" stroke-width="0.03" stroke="#000000" fill="none"/>
<path d="M16.205859375 19.49460427857783L15.162890625 20.096762567146698L14.85 19.916115080576038L14.537109375 20.096762567146698L13.494140625 19.49460427857783" stroke-width="0.03" stroke="#000000" fill="none"/>
<path d="M13.285546875 20.096762567146698L13.285546875 18.531151016867643L13.494140625 18.410719359153866" stroke-width="0.03" stroke="#000000" fill="none"/>
<path d="M13.285546875 18.531151016867643L12.868359374999999 18.290287701440096" stroke-width="0.03" stroke="#000000" fill="none"/>
<path d="M12.97265625 18.23007187258321L12.97265625 17.86877689944189" stroke-width="0.03" stroke="#000000" fill="none"/>
<path d="M13.181249999999999 17.748345241728117L14.537109375 18.531151016867643L14.85 18.350503530296983L15.162890625 18.531151016867643L16.51875 17.748345241728117" stroke-width="0.03" stroke="#000000" fill="none"/>
<path d="M16.72734375 17.86877689944189L16.72734375 18.23007187258321" stroke-width="0.03" stroke="#000000" fill="none"/>
<path d="M16.831640625 18.290287701440096L16.414453125 18.531151016867643L16.414453125 20.096762567146698" stroke-width="0.03" stroke="#000000" fill="none"/>
<path d="M16.414453125 20.337625882574244L17.7703125 21.120431657713773" stroke-width="0.03" stroke="#000000" fill="none"/>
<path d="M17.7703125 20.879568342286227L18.1875 20.63870502685868" stroke-width="0.03" stroke="#000000" fill="none"/>
<path d="M18.1875 20.759136684572454L18.500390624999998 20.939784171143113" stroke-width="0.03" stroke="#000000" fill="none"/>
<path d="M18.500390624999998 21.18064748657066L17.14453125 21.96345326171019L17.14453125 22.32474823485151L16.831640625 22.50539572142217L15.47578125 21.72258994628264" stroke-width="0.03" stroke="#000000" fill="none"/>
<path d="M15.788671874999999 21.54194245971198L17.14453125 22.32474823485151" stroke-width="0.03" stroke="#000000" fill="none"/>
<path d="M17.14453125 21.96345326171019L15.788671874999999 21.18064748657066" stroke-width="0.03" stroke="#000000" fill="none"/>
<path d="M15.162890625 20.096762567146698L15.162890625 18.531151016867643" stroke-width="0.03" stroke="#000000" fill="none"/>
<path d="M14.85 18.350503530296983L14.85 19.916115080576038" stroke-width="0.03" stroke="#000000" fill="none"/>
<path d="M14.537109375 20.096762567146698L14.537109375 18.531151016867643" stroke-width="0.03" stroke="#000000" fill="none"/>
<path d="M14.85 17.989208557155663L15.89296875 17.387050268586794" stroke-width="0.03" stroke="#000000" fill="none"/>
<path d="M15.47578125 17.62791358401434L15.47578125 17.146186953159244" stroke-width="0.03" stroke="#000000" fill="none"/>
<path d="M14.85 16.784891980017925L11.303906249999999 18.832230161152076L10.573828124999999 18.410719359153866L10.573828124999999 16.72467615116104L10.05234375 16.423597006876605L10.05234375 16.18273369144906L9.21796875 15.701007060593964L8.80078125 15.94187037602151L8.80078125 16.18273369144906L9.63515625 16.66446032230415L10.05234375 16.423597006876605" stroke-width="0.03" stroke="#000000" fill="none"/>
<path d="M10.05234375 16.18273369144906L9.63515625 16.423597006876605L8.80078125 15.94187037602151" stroke-width="0.03" stroke="#000000" fill="none"/>
<path d="M9.009374999999999 15.82143871830774L7.96640625 15.21928042973887L7.96640625 14.13539551031491L10.46953125 12.690215617749628" stroke-width="0.03" stroke="#000000" fill="none"/>
<path d="M10.260937499999999 12.569783960035853L10.260937499999999 12.208488986894533L10.88671875 11.847194013753214L13.80703125 13.533237221746042L13.80703125 13.894532194887363L13.181249999999999 14.255827168028683L10.260937499999999 12.569783960035853" stroke-width="0.03" stroke="#000000" fill="none"/>
<path d="M10.260937499999999 12.208488986894533L13.181249999999999 13.894532194887363L13.181249999999999 14.255827168028683" stroke-width="0.03" stroke="#000000" fill="none"/>
<path d="M13.181249999999999 13.894532194887363L13.80703125 13.533237221746042" stroke-width="0.03" stroke="#000000" fill="none"/>
<path d="M14.85 14.014963852601136L11.303906249999999 16.062302033735286L11.303906249999999 18.832230161152076" stroke-width="0.03" stroke="#000000" fill="none"/>
<path d="M11.199609375 19.01287764772274L8.80078125 20.397841711431134L8.80078125 24.492518073699433L12.346874999999999 26.53985625483358L14.745703124999999 25.154892191125185" stroke-width="0.03" stroke="#000000" fill="none"/>
<path d="M14.954296875 25.154892191125185L18.500390624999998 23.107554009991038L18.500390624999998 19.01287764772274L19.23046875 18.59136684572453L20.690625 19.434388449720945L21.212109374999997 19.13330930543651L21.212109374999997 18.651582674581416L22.046484375000002 18.16985604372632L22.255078124999997 18.290287701440096L22.255078124999997 18.77201433229519L21.420703125 19.253740963150285L21.212109374999997 19.13330930543651" stroke-width="0.03" stroke="#000000" fill="none"/>
<path d="M21.420703125 19.253740963150285L21.420703125 18.77201433229519L22.255078124999997 18.290287701440096" stroke-width="0.03" stroke="#000000" fill="none"/>
<path d="M22.255078124999997 18.531151016867643L23.298046874999997 17.928992728298773L24.23671875 18.470935188010756L24.23671875 21.36129497314132" stroke-width="0.03" stroke="#000000" fill="none"/>
<path d="M24.4453125 21.240863315427546L21.525000000000002 22.926906523420374L21.525000000000002 23.649496469703017L21.837890625 23.830143956273677L24.758203125 22.14410074828085L24.758203125 21.42151080199821L24.4453125 21.240863315427546" stroke-width="0.03" stroke="#000000" fill="none"/>
<path d="M24.758203125 21.42151080199821L21.837890625 23.107554009991038L21.837890625 23.830143956273677" stroke-width="0.03" stroke="#000000" fill="none"/>
<path d="M21.837890625 23.107554009991038L21.525000000000002 22.926906523420374" stroke-width="0.03" stroke="#000000" fill="none"/>
<path d="M20.89921875 24.492518073699433L17.353125 26.53985625483358L14.954296875 25.154892191125185L14.954296875 25.9979137951216L16.414453125 26.840935399118013L16.414453125 27.443093687686883L16.623046875 27.563525345400656L16.623046875 28.526978607110845L16.205859375 28.767841922538388L15.997265625 28.647410264824618L15.997265625 27.68395700311443L16.414453125 27.443093687686883" stroke-width="0.03" stroke="#000000" fill="none"/>
<path d="M16.623046875 27.563525345400656L16.205859375 27.804388660828202L15.997265625 27.68395700311443" stroke-width="0.03" stroke="#000000" fill="none"/>
<path d="M16.205859375 27.804388660828202L16.205859375 28.767841922538388" stroke-width="0.03" stroke="#000000" fill="none"/>
<path d="M16.414453125 28.647410264824618L16.414453125 29.851726841962353L17.353125 30.393669301674333L19.85625 28.94848940910905" stroke-width="0.03" stroke="#000000" fill="none"/>
<path d="M19.85625 29.189352724536597L19.85625 25.817266308550938L20.482031250000002 25.45597133540962L20.794921875 25.636618821980278L20.794921875 29.008705237965938L20.169140624999997 29.37000021110726L19.85625 29.189352724536597" stroke-width="0.03" stroke="#000000" fill="none"/>
<path d="M20.169140624999997 29.37000021110726L20.169140624999997 25.9979137951216L19.85625 25.817266308550938" stroke-width="0.03" stroke="#000000" fill="none"/>
<path d="M20.169140624999997 25.9979137951216L20.794921875 25.636618821980278" stroke-width="0.03" stroke="#000000" fill="none"/>
<path d="M20.89921875 24.492518073699433L20.89921875 20.397841711431134L24.23671875 18.470935188010756" stroke-width="0.03" stroke="#000000" fill="none"/>
<path d="M23.819531249999997 18.23007187258321L23.819531249999997 16.18273369144906L23.506640625 16.0020862048784L23.506640625 15.640791231737078L21.733593749999997 14.617122141170004" stroke-width="0.03" stroke="#000000" fill="none"/>
<path d="M21.733593749999997 14.13539551031491L18.396093750000002 16.062302033735286L18.396093750000002 18.832230161152076L14.85 16.784891980017925" stroke-width="0.03" stroke="#000000" fill="none"/>
<path d="M14.224218749999999 17.146186953159244L14.224218749999999 17.62791358401434" stroke-width="0.03" stroke="#000000" fill="none"/>
<path d="M14.537109375 17.808561070585L14.85 17.62791358401434L15.162890625 17.808561070585" stroke-width="0.03" stroke="#000000" fill="none"/>
<path d="M14.954296875 17.928992728298773L14.85 17.86877689944189L14.745703124999999 17.928992728298773" stroke-width="0.03" stroke="#000000" fill="none"/>
<path d="M14.85 17.86877689944189L14.85 17.989208557155663L13.80703125 17.387050268586794" stroke-width="0.03" stroke="#000000" fill="none"/>
<path d="M14.85 17.62791358401434L14.85 14.014963852601136L18.396093750000002 16.062302033735286" stroke-width="0.03" stroke="#000000" fill="none"/>
<path d="M19.126171875 16.72467615116104L19.647656249999997 16.423597006876605L19.647656249999997 16.18273369144906L20.482031250000002 15.701007060593964L20.89921875 15.94187037602151L20.89921875 16.18273369144906L20.064843749999998 16.66446032230415L19.647656249999997 16.423597006876605" stroke-width="0.03" stroke="#000000" fill="none"/>
<path d="M19.647656249999997 16.18273369144906L20.064843749999998 16.423597006876605L20.89921875 15.94187037602151" stroke-width="0.03" stroke="#000000" fill="none"/>
<path d="M20.690625 15.82143871830774L21.733593749999997 15.21928042973887L21.733593749999997 14.13539551031491L19.23046875 12.690215617749628" stroke-width="0.03" stroke="#000000" fill="none"/>
<path d="M19.439062500000002 12.569783960035853L16.51875 14.255827168028683L15.89296875 13.894532194887363L15.89296875 13.533237221746042L18.81328125 11.847194013753214L19.439062500000002 12.208488986894533L19.439062500000002 12.569783960035853" stroke-width="0.03" stroke="#000000" fill="none"/>
<path d="M19.439062500000002 12.208488986894533L16.51875 13.894532194887363L16.51875 14.255827168028683" stroke-width="0.03" stroke="#000000" fill="none"/>
<path d="M16.51875 13.894532194887363L15.89296875 13.533237221746042" stroke-width="0.03" stroke="#000000" fill="none"/>
<path d="M14.85 11.72676235603944L16.205859375 10.943956580899911L18.291796875 12.148273158037647" stroke-width="0.03" stroke="#000000" fill="none"/>
<path d="M17.353125 11.606330698325666L17.353125 11.365467382898117L15.684375 10.40201412118793L14.85 10.883740752043025L14.015625 10.40201412118793L12.346874999999999 11.365467382898117L12.346874999999999 11.606330698325666" stroke-width="0.03" stroke="#000000" fill="none"/>
<path d="M12.346874999999999 11.365467382898117L12.555468750000001 11.485899040611892" stroke-width="0.03" stroke="#000000" fill="none"/>
<path d="M13.494140625 10.943956580899911L11.408203125 12.148273158037647" stroke-width="0.03" stroke="#000000" fill="none"/>
<path d="M13.494140625 10.943956580899911L14.85 11.72676235603944" stroke-width="0.03" stroke="#000000" fill="none"/>
<path d="M17.14453125 11.485899040611892L17.353125 11.365467382898117" stroke-width="0.03" stroke="#000000" fill="none"/>
<path d="M20.482031250000002 12.208488986894533L20.89921875 11.967625671466987L24.23671875 13.894532194887363L24.23671875 15.580575402880193L25.696875000000002 16.423597006876605L25.696875000000002 20.277410053717357L25.279687499999998 20.518273369144907L24.23671875 19.916115080576038" stroke-width="0.03" stroke="#000000" fill="none"/>
<path d="M25.279687499999998 20.518273369144907L25.279687499999998 16.66446032230415L23.819531249999997 15.82143871830774L23.819531249999997 14.13539551031491L20.482031250000002 12.208488986894533L20.482031250000002 13.412805564032269" stroke-width="0.03" stroke="#000000" fill="none"/>
<path d="M20.064843749999998 16.423597006876605L20.064843749999998 16.66446032230415" stroke-width="0.03" stroke="#000000" fill="none"/>
<path d="M20.377734375 17.44726609744368L23.506640625 15.640791231737078" stroke-width="0.03" stroke="#000000" fill="none"/>
<path d="M23.819531249999997 15.82143871830774L24.23671875 15.580575402880193" stroke-width="0.03" stroke="#000000" fill="none"/>
<path d="M23.819531249999997 16.18273369144906L20.690625 17.989208557155663L20.690625 19.434388449720945" stroke-width="0.03" stroke="#000000" fill="none"/>
<path d="M21.212109374999997 18.651582674581416L21.420703125 18.77201433229519" stroke-width="0.03" stroke="#000000" fill="none"/>
<path d="M20.690625 17.989208557155663L20.377734375 17.808561070585L20.377734375 17.44726609744368L19.126171875 16.72467615116104L19.126171875 18.410719359153866L18.396093750000002 18.832230161152076" stroke-width="0.03" stroke="#000000" fill="none"/>
<path d="M18.500390624999998 19.01287764772274L20.89921875 20.397841711431134" stroke-width="0.03" stroke="#000000" fill="none"/>
<path d="M20.377734375 17.808561070585L23.506640625 16.0020862048784" stroke-width="0.03" stroke="#000000" fill="none"/>
<path d="M25.279687499999998 16.66446032230415L25.696875000000002 16.423597006876605" stroke-width="0.03" stroke="#000000" fill="none"/>
<path d="M24.23671875 13.894532194887363L23.819531249999997 14.13539551031491" stroke-width="0.03" stroke="#000000" fill="none"/>
<path d="M24.23671875 22.44517989256528L24.23671875 24.85381304684075L22.880859375 25.636618821980278L22.880859375 27.202230372259333L20.794921875 28.40654694939707" stroke-width="0.03" stroke="#000000" fill="none"/>
<path d="M21.733593749999997 27.864604489685092L21.9421875 27.985036147398862L23.610937500000002 27.021582885688677L23.610937500000002 26.058129623978488L24.4453125 25.576402993123395L24.4453125 23.649496469703017L24.23671875 23.529064811989244" stroke-width="0.03" stroke="#000000" fill="none"/>
<path d="M24.4453125 23.649496469703017L24.23671875 23.76992812741679" stroke-width="0.03" stroke="#000000" fill="none"/>
<path d="M20.89921875 24.492518073699433L17.7703125 22.686043207992828L17.7703125 22.32474823485151" stroke-width="0.03" stroke="#000000" fill="none"/>
<path d="M17.56171875 22.44517989256528L17.56171875 22.565611550279055L17.457421875 22.62582737913594" stroke-width="0.03" stroke="#000000" fill="none"/>
<path d="M17.56171875 22.565611550279055L17.457421875 22.50539572142217L18.500390624999998 21.903237432853302" stroke-width="0.03" stroke="#000000" fill="none"/>
<path d="M18.083203125 22.14410074828085L18.500390624999998 22.384964063708395" stroke-width="0.03" stroke="#000000" fill="none"/>
<path d="M17.7703125 22.686043207992828L17.457421875 22.866690694563488" stroke-width="0.03" stroke="#000000" fill="none"/>
<path d="M17.457421875 22.50539572142217L17.457421875 23.709712298559904" stroke-width="0.03" stroke="#000000" fill="none"/>
<path d="M17.874609375000002 23.468848983132357L17.457421875 23.227985667704807" stroke-width="0.03" stroke="#000000" fill="none"/>
<path d="M16.831640625 22.50539572142217L16.831640625 24.071007271701223" stroke-width="0.03" stroke="#000000" fill="none"/>
<path d="M16.623046875 24.191438929414996L16.31015625 24.010791442844337" stroke-width="0.03" stroke="#000000" fill="none"/>
<path d="M16.205859375 24.071007271701223L16.205859375 23.58928064084613L14.85 22.8064748657066" stroke-width="0.03" stroke="#000000" fill="none"/>
<path d="M14.224218749999999 22.926906523420374L14.224218749999999 21.72258994628264L13.911328125 21.54194245971198L13.911328125 21.18064748657066" stroke-width="0.03" stroke="#000000" fill="none"/>
<path d="M13.911328125 21.54194245971198L12.555468750000001 22.32474823485151" stroke-width="0.03" stroke="#000000" fill="none"/>
<path d="M12.868359374999999 22.50539572142217L14.224218749999999 21.72258994628264" stroke-width="0.03" stroke="#000000" fill="none"/>
<path d="M13.285546875 20.096762567146698L12.868359374999999 19.85589925171915" stroke-width="0.03" stroke="#000000" fill="none"/>
<path d="M12.868359374999999 19.615035936291605L12.659765624999999 19.735467594005378L12.659765624999999 19.976330909432924" stroke-width="0.03" stroke="#000000" fill="none"/>
<path d="M12.346874999999999 20.156978396003588L12.346874999999999 19.554820107434715L12.868359374999999 19.253740963150285" stroke-width="0.03" stroke="#000000" fill="none"/>
<path d="M10.573828124999999 16.72467615116104L9.322265625 17.44726609744368L6.193359375 15.640791231737078L6.193359375 16.0020862048784" stroke-width="0.03" stroke="#000000" fill="none"/>
<path d="M5.88046875 16.18273369144906L5.88046875 18.23007187258321" stroke-width="0.03" stroke="#000000" fill="none"/>
<path d="M5.46328125 18.470935188010756L6.4019531249999995 17.928992728298773L7.4449218749999995 18.531151016867643" stroke-width="0.03" stroke="#000000" fill="none"/>
<path d="M7.4449218749999995 18.290287701440096L7.653515625 18.16985604372632L8.487890625 18.651582674581416L8.487890625 19.13330930543651L8.279296875 19.253740963150285L7.4449218749999995 18.77201433229519L7.4449218749999995 18.290287701440096L8.279296875 18.77201433229519L8.487890625 18.651582674581416" stroke-width="0.03" stroke="#000000" fill="none"/>
<path d="M8.279296875 18.77201433229519L8.279296875 19.253740963150285" stroke-width="0.03" stroke="#000000" fill="none"/>
<path d="M8.487890625 19.13330930543651L9.009374999999999 19.434388449720945" stroke-width="0.03" stroke="#000000" fill="none"/>
<path d="M8.80078125 20.397841711431134L5.46328125 18.470935188010756L5.46328125 21.36129497314132" stroke-width="0.03" stroke="#000000" fill="none"/>
<path d="M5.254687500000001 21.240863315427546L4.941796875 21.42151080199821L4.941796875 22.14410074828085L7.862109374999999 23.830143956273677L8.175 23.649496469703017L8.175 22.926906523420374L5.254687500000001 21.240863315427546" stroke-width="0.03" stroke="#000000" fill="none"/>
<path d="M4.941796875 21.42151080199821L7.862109374999999 23.107554009991038L7.862109374999999 23.830143956273677" stroke-width="0.03" stroke="#000000" fill="none"/>
<path d="M7.862109374999999 23.107554009991038L8.175 22.926906523420374" stroke-width="0.03" stroke="#000000" fill="none"/>
<path d="M5.46328125 22.44517989256528L5.46328125 24.85381304684075L6.819140625 25.636618821980278L6.819140625 27.202230372259333L8.905078125 28.40654694939707" stroke-width="0.03" stroke="#000000" fill="none"/>
<path d="M7.96640625 27.864604489685092L7.7578125 27.985036147398862L6.089062499999999 27.021582885688677L6.089062499999999 26.058129623978488L5.254687500000001 25.576402993123395L5.254687500000001 23.649496469703017L5.46328125 23.529064811989244" stroke-width="0.03" stroke="#000000" fill="none"/>
<path d="M5.254687500000001 23.649496469703017L5.46328125 23.76992812741679" stroke-width="0.03" stroke="#000000" fill="none"/>
<path d="M7.7578125 27.744172831971316L7.7578125 27.985036147398862" stroke-width="0.03" stroke="#000000" fill="none"/>
<path d="M10.05234375 30.273237643960556L11.095312499999999 29.67107935539169" stroke-width="0.03" stroke="#000000" fill="none"/>
<path d="M10.05234375 30.273237643960556L10.05234375 30.754964274815652L13.389843749999999 32.68187079823603L14.85 31.838849194239618L16.31015625 32.68187079823603L19.647656249999997 30.754964274815652L19.647656249999997 30.273237643960556L18.6046875 29.67107935539169" stroke-width="0.03" stroke="#000000" fill="none"/>
<path d="M19.647656249999997 30.273237643960556L16.31015625 32.200144167380934L16.31015625 32.68187079823603" stroke-width="0.03" stroke="#000000" fill="none"/>
<path d="M16.31015625 32.200144167380934L14.85 31.35712256338452L13.389843749999999 32.200144167380934L10.05234375 30.273237643960556" stroke-width="0.03" stroke="#000000" fill="none"/>
<path d="M12.346874999999999 30.393669301674333L12.346874999999999 26.53985625483358" stroke-width="0.03" stroke="#000000" fill="none"/>
<path d="M13.285546875 26.840935399118013L14.537109375 27.563525345400656L14.537109375 31.17647507681386L14.85 30.995827590243202L15.162890625 31.17647507681386L16.9359375 30.152805986246786" stroke-width="0.03" stroke="#000000" fill="none"/>
<path d="M17.353125 30.393669301674333L17.353125 26.53985625483358" stroke-width="0.03" stroke="#000000" fill="none"/>
<path d="M16.414453125 26.840935399118013L15.162890625 27.563525345400656L14.85 27.382877858829996L14.537109375 27.563525345400656" stroke-width="0.03" stroke="#000000" fill="none"/>
<path d="M14.85 27.382877858829996L14.85 30.995827590243202" stroke-width="0.03" stroke="#000000" fill="none"/>
<path d="M15.162890625 31.17647507681386L15.162890625 27.563525345400656" stroke-width="0.03" stroke="#000000" fill="none"/>
<path d="M13.702734374999999 27.68395700311443L13.494140625 27.804388660828202" stroke-width="0.03" stroke="#000000" fill="none"/>
<path d="M12.7640625 30.152805986246786L14.537109375 31.17647507681386" stroke-width="0.03" stroke="#000000" fill="none"/>
<path d="M14.85 31.35712256338452L14.85 31.838849194239618" stroke-width="0.03" stroke="#000000" fill="none"/>
<path d="M13.389843749999999 32.200144167380934L13.389843749999999 32.68187079823603" stroke-width="0.03" stroke="#000000" fill="none"/>
<path d="M13.494140625 23.58928064084613L13.285546875 23.468848983132357" stroke-width="0.03" stroke="#000000" fill="none"/>
<path d="M16.205859375 23.58928064084613L16.414453125 23.468848983132357" stroke-width="0.03" stroke="#000000" fill="none"/>
<path d="M16.414453125 18.531151016867643L16.205859375 18.410719359153866" stroke-width="0.03" stroke="#000000" fill="none"/>
<path d="M11.303906249999999 16.062302033735286L7.96640625 14.13539551031491" stroke-width="0.03" stroke="#000000" fill="none"/>
<path d="M7.96640625 14.617122141170004L6.193359375 15.640791231737078" stroke-width="0.03" stroke="#000000" fill="none"/>
<path d="M5.88046875 16.18273369144906L9.009374999999999 17.989208557155663" stroke-width="0.03" stroke="#000000" fill="none"/>
<path d="M9.322265625 17.808561070585L9.322265625 17.44726609744368" stroke-width="0.03" stroke="#000000" fill="none"/>
<path d="M9.63515625 16.66446032230415L9.63515625 16.423597006876605" stroke-width="0.03" stroke="#000000" fill="none"/>
<path d="M4.4203125 16.66446032230415L4.003124999999999 16.423597006876605" stroke-width="0.03" stroke="#000000" fill="none"/>
<path d="M4.343378874010018 3.383983116796798L4.343378874010018 3.0054372986874878L4.163118960624631 3.257801177427028L4.433508830702711 3.257801177427028" stroke-width="0.03" stroke="#000000" fill="none"/>
<path d="M4.541664778733942 3.383983116796798L4.541664778733942 3.0054372986874878L4.667846718103712 3.0054372986874878L4.7219246921193285 3.023463290026026L4.757976674796406 3.0595152727031034L4.776002666134945 3.0955672553801805L4.794028657473483 3.149645229395796L4.794028657473483 3.2397751860884894L4.776002666134945 3.293853160104105L4.757976674796406 3.3299051427811825L4.7219246921193285 3.3659571254582596L4.667846718103712 3.383983116796798L4.541664778733942 3.383983116796798" stroke-width="0.03" stroke="#000000" fill="none"/>
<path d="M4.920210596843253 3.383983116796798L4.920210596843253 3.0054372986874878L5.154548484244255 3.0054372986874878" stroke-width="0.03" stroke="#000000" fill="none"/>
<path d="M5.064418527551561 3.1856972120728733L4.920210596843253 3.1856972120728733" stroke-width="0.03" stroke="#000000" fill="none"/>
<path d="M5.497042319676488 3.0955672553801805L5.479016328337949 3.0595152727031034L5.442964345660872 3.023463290026026L5.406912362983795 3.0054372986874878L5.33480839762964 3.0054372986874878L5.298756414952564 3.023463290026026L5.262704432275486 3.0595152727031034L5.244678440936948 3.0955672553801805L5.22665244959841 3.149645229395796L5.22665244959841 3.2397751860884894L5.244678440936948 3.293853160104105L5.262704432275486 3.3299051427811825L5.298756414952564 3.3659571254582596L5.33480839762964 3.383983116796798L5.406912362983795 3.383983116796798L5.442964345660872 3.3659571254582596L5.479016328337949 3.3299051427811825L5.497042319676488 3.293853160104105" stroke-width="0.03" stroke="#000000" fill="none"/>
<path d="M5.558333333333334 2.2291666666666665L5.441666666666666 1.8208333333333333" stroke-width="0.03" stroke="#000000" fill="none"/>
<path d="M5.675 1.8208333333333333L5.558333333333334 2.2291666666666665" stroke-width="0.03" stroke="#000000" fill="none"/>
<path d="M5.791666666666666 2.2291666666666665L5.675 1.8208333333333333" stroke-width="0.03" stroke="#000000" fill="none"/>
<path d="M5.908333333333333 1.8208333333333333L5.791666666666666 2.2291666666666665" stroke-width="0.03" stroke="#000000" fill="none"/>
<path d="M6.141666666666667 2.2291666666666665L6.141666666666667 1.7333333333333334L6.1708333333333325 1.6458333333333333L6.229166666666666 1.6166666666666667L6.2875 1.6166666666666667" stroke-width="0.03" stroke="#000000" fill="none"/>
<path d="M6.4624999999999995 1.6166666666666667L6.4624999999999995 2.2291666666666665" stroke-width="0.03" stroke="#000000" fill="none"/>
<path d="M6.258333333333333 1.8208333333333333L6.054166666666666 1.8208333333333333" stroke-width="0.03" stroke="#000000" fill="none"/>
<path d="M7.016666666666666 1.8208333333333333L7.016666666666666 2.2291666666666665" stroke-width="0.03" stroke="#000000" fill="none"/>
<path d="M7.016666666666666 2.1416666666666666L6.958333333333333 2.2L6.8999999999999995 2.2291666666666665L6.812499999999999 2.2291666666666665L6.754166666666666 2.2L6.695833333333333 2.1416666666666666L6.666666666666666 2.0541666666666667L6.666666666666666 1.9958333333333333L6.695833333333333 1.9083333333333332L6.754166666666666 1.85L6.812499999999999 1.8208333333333333L6.8999999999999995 1.8208333333333333L6.958333333333333 1.85L7.016666666666666 1.9083333333333332" stroke-width="0.03" stroke="#000000" fill="none"/>
<path d="M7.249999999999999 2.1125L7.541666666666666 1.8208333333333333" stroke-width="0.03" stroke="#000000" fill="none"/>
<path d="M7.366666666666666 1.9958333333333333L7.570833333333333 2.2291666666666665" stroke-width="0.03" stroke="#000000" fill="none"/>
<path d="M7.716666666666666 1.9958333333333333L8.066666666666666 1.9958333333333333L8.066666666666666 1.9375L8.0375 1.8791666666666667L8.008333333333333 1.85L7.949999999999999 1.8208333333333333L7.8625 1.8208333333333333L7.804166666666666 1.85L7.745833333333333 1.9083333333333332L7.716666666666666 1.9958333333333333L7.716666666666666 2.0541666666666667L7.745833333333333 2.1416666666666666L7.804166666666666 2.2L7.8625 2.2291666666666665L7.949999999999999 2.2291666666666665L8.008333333333333 2.2L8.066666666666666 2.1416666666666666" stroke-width="0.03" stroke="#000000" fill="none"/>
<path d="M8.270833333333332 1.7625L8.270833333333332 1.7333333333333334L8.299999999999999 1.675L8.329166666666666 1.6458333333333333L8.3875 1.6166666666666667L8.504166666666666 1.6166666666666667L8.5625 1.6458333333333333L8.591666666666665 1.675L8.620833333333334 1.7333333333333334L8.620833333333334 1.7916666666666665L8.591666666666665 1.85L8.533333333333331 1.9375L8.241666666666667 2.2291666666666665L8.649999999999999 2.2291666666666665" stroke-width="0.03" stroke="#000000" fill="none"/>
<path d="M9.237499999999999 2.533333333333333L1.5 2.533333333333333" stroke-width="0.03" stroke="#000000" fill="none"/>
<path d="M2.1166666666666667 2.2291666666666665L2.1166666666666667 1.8208333333333333" stroke-width="0.03" stroke="#000000" fill="none"/>
<path d="M2.0875 1.6166666666666667L2.1166666666666667 1.6458333333333333L2.145833333333333 1.6166666666666667L2.1166666666666667 1.5875L2.0875 1.6166666666666667" stroke-width="0.03" stroke="#000000" fill="none"/>
<path d="M2.3208333333333333 2.1416666666666666L2.35 2.2L2.4375 2.2291666666666665L2.525 2.2291666666666665L2.6125 2.2L2.6416666666666666 2.1416666666666666L2.6416666666666666 2.1125L2.6125 2.0541666666666667L2.5541666666666667 2.025L2.408333333333333 1.9958333333333333L2.35 1.9666666666666666L2.3208333333333333 1.9083333333333332L2.35 1.85L2.4375 1.8208333333333333L2.525 1.8208333333333333L2.6125 1.85L2.6416666666666666 1.9083333333333332" stroke-width="0.03" stroke="#000000" fill="none"/>
<path d="M2.9625 1.8208333333333333L2.904166666666667 1.85L2.845833333333333 1.9083333333333332L2.8166666666666664 1.9958333333333333L2.8166666666666664 2.0541666666666667L2.845833333333333 2.1416666666666666L2.904166666666667 2.2L2.9625 2.2291666666666665L3.05 2.2291666666666665L3.1083333333333334 2.2L3.1666666666666665 2.1416666666666666L3.1958333333333333 2.0541666666666667L3.1958333333333333 1.9958333333333333L3.1666666666666665 1.9083333333333332L3.1083333333333334 1.85L3.05 1.8208333333333333L2.9625 1.8208333333333333" stroke-width="0.03" stroke="#000000" fill="none"/>
<path d="M3.283333333333333 2.2874999999999996L3.75 2.2874999999999996" stroke-width="0.03" stroke="#000000" fill="none"/>
<path d="M3.8375 2.1416666666666666L3.8666666666666663 2.2L3.9541666666666666 2.2291666666666665L4.041666666666666 2.2291666666666665L4.129166666666666 2.2L4.158333333333333 2.1416666666666666L4.158333333333333 2.1125L4.129166666666666 2.0541666666666667L4.070833333333333 2.025L3.925 1.9958333333333333L3.8666666666666663 1.9666666666666666L3.8375 1.9083333333333332L3.8666666666666663 1.85L3.9541666666666666 1.8208333333333333L4.041666666666666 1.8208333333333333L4.129166666666666 1.85L4.158333333333333 1.9083333333333332" stroke-width="0.03" stroke="#000000" fill="none"/>
<path d="M4.3625 1.9375L4.449999999999999 1.85L4.508333333333333 1.8208333333333333L4.595833333333333 1.8208333333333333L4.654166666666667 1.85L4.683333333333334 1.9375L4.683333333333334 2.2291666666666665" stroke-width="0.03" stroke="#000000" fill="none"/>
<path d="M4.3625 2.2291666666666665L4.3625 1.8208333333333333" stroke-width="0.03" stroke="#000000" fill="none"/>
<path d="M5.033333333333333 1.8208333333333333L4.975 1.85L4.916666666666666 1.9083333333333332L4.887499999999999 1.9958333333333333L4.887499999999999 2.0541666666666667L4.916666666666666 2.1416666666666666L4.975 2.2L5.033333333333333 2.2291666666666665L5.120833333333334 2.2291666666666665L5.179166666666666 2.2L5.2375 2.1416666666666666L5.266666666666666 2.0541666666666667L5.266666666666666 1.9958333333333333L5.2375 1.9083333333333332L5.179166666666666 1.85L5.120833333333334 1.8208333333333333L5.033333333333333 1.8208333333333333" stroke-width="0.03" stroke="#000000" fill="none"/>
<path d="M4.036937021254861 3.0595152727031034L4.018911029916323 3.023463290026026L3.9648330559007072 3.0054372986874878L3.9287810732236297 3.0054372986874878L3.8747030992080145 3.023463290026026L3.838651116530937 3.077541264041642L3.8206251251923984 3.167671220734335L3.8206251251923984 3.257801177427028L3.838651116530937 3.3299051427811825L3.8747030992080145 3.3659571254582596L3.9287810732236297 3.383983116796798L3.9468070645621687 3.383983116796798L4.000885038577785 3.3659571254582596L4.036937021254861 3.3299051427811825L4.0549630125934 3.2758271687655665L4.0549630125934 3.257801177427028L4.036937021254861 3.2037232034114123L4.000885038577785 3.167671220734335L3.9468070645621687 3.149645229395796L3.9287810732236297 3.149645229395796L3.8747030992080145 3.167671220734335L3.838651116530937 3.2037232034114123L3.8206251251923984 3.257801177427028" stroke-width="0.03" stroke="#000000" fill="none"/>
<path d="M3.6764171944840895 3.1316192380572576L3.658391203145551 3.1856972120728733L3.622339220468474 3.221749194749951L3.568261246452858 3.2397751860884894L3.5502352551143197 3.2397751860884894L3.4961572810987036 3.221749194749951L3.4601052984216265 3.1856972120728733L3.442079307083088 3.1316192380572576L3.442079307083088 3.113593246718719L3.4601052984216265 3.0595152727031034L3.4961572810987036 3.023463290026026L3.5502352551143197 3.0054372986874878L3.568261246452858 3.0054372986874878L3.622339220468474 3.023463290026026L3.658391203145551 3.0595152727031034L3.6764171944840895 3.1316192380572576L3.6764171944840895 3.221749194749951L3.658391203145551 3.3118791514426436L3.622339220468474 3.3659571254582596L3.568261246452858 3.383983116796798L3.5322092637757807 3.383983116796798L3.478131289760165 3.3659571254582596L3.4601052984216265 3.3299051427811825" stroke-width="0.03" stroke="#000000" fill="none"/>
<path d="M3.3158973677133177 3.1316192380572576L3.297871376374779 3.1856972120728733L3.261819393697702 3.221749194749951L3.207741419682086 3.2397751860884894L3.1897154283435474 3.2397751860884894L3.1356374543279317 3.221749194749951L3.0995854716508546 3.1856972120728733L3.0815594803123156 3.1316192380572576L3.0815594803123156 3.113593246718719L3.0995854716508546 3.0595152727031034L3.1356374543279317 3.023463290026026L3.1897154283435474 3.0054372986874878L3.207741419682086 3.0054372986874878L3.261819393697702 3.023463290026026L3.297871376374779 3.0595152727031034L3.3158973677133177 3.1316192380572576L3.3158973677133177 3.221749194749951L3.297871376374779 3.3118791514426436L3.261819393697702 3.3659571254582596L3.207741419682086 3.383983116796798L3.171689437005009 3.383983116796798L3.117611462989393 3.3659571254582596L3.0995854716508546 3.3299051427811825" stroke-width="0.03" stroke="#000000" fill="none"/>
<path d="M2.8652475842498526 3.383983116796798L2.8652475842498526 3.0054372986874878L2.811169610234237 3.0595152727031034L2.77511762755716 3.077541264041642" stroke-width="0.03" stroke="#000000" fill="none"/>
<path d="M2.6128837055103125 3.1316192380572576L2.414597800786388 3.383983116796798" stroke-width="0.03" stroke="#000000" fill="none"/>
<path d="M2.6128837055103125 3.383983116796798L2.414597800786388 3.1316192380572576" stroke-width="0.03" stroke="#000000" fill="none"/>
<path d="M2.1622339220468474 3.0054372986874878L2.1081559480312317 3.023463290026026L2.072103965354154 3.077541264041642L2.0540779740156156 3.167671220734335L2.0540779740156156 3.221749194749951L2.072103965354154 3.3118791514426436L2.1081559480312317 3.3659571254582596L2.1622339220468474 3.383983116796798L2.1982859047239245 3.383983116796798L2.2523638787395406 3.3659571254582596L2.2884158614166177 3.3118791514426436L2.3064418527551562 3.221749194749951L2.3064418527551562 3.167671220734335L2.2884158614166177 3.077541264041642L2.2523638787395406 3.023463290026026L2.1982859047239245 3.0054372986874878L2.1622339220468474 3.0054372986874878" stroke-width="0.03" stroke="#000000" fill="none"/>
<path d="M7.249999999999999 2.2291666666666665L7.249999999999999 1.6166666666666667" stroke-width="0.03" stroke="#000000" fill="none"/>
<path d="M21.9421875 27.744172831971316L21.9421875 27.985036147398862" stroke-width="0.03" stroke="#000000" fill="none"/>
</svg>
