<?xml version="1.0" standalone="no"?>
<svg width="29.7cm" height="42cm" version="1.1" xmlns="http://www.w3.org/2000/svg" viewBox="0.0 0.0 29.700001 42.000001">
<path d="M4.8374999999999995 13.77410053717359L6.297656249999999 12.931078933177174L10.260937499999999 15.21928042973887L10.260937499999999 16.66446032230415L11.303906249999999 16.062302033735286L11.303906249999999 16.66446032230415" stroke-width="0.03" stroke="#000000" fill="none"/>
<path d="M10.991015625000001 16.483812835733495L9.530859375 17.326834439729907" stroke-width="0.03" stroke="#000000" fill="none"/>
<path d="M9.322265625 17.206402782016134L9.009374999999999 17.387050268586794L9.009374999999999 17.62791358401434L8.80078125 17.748345241728117L8.80078125 18.109640214869437L12.346874999999999 20.156978396003588L12.555468750000001 20.03654673828981L12.555468750000001 20.397841711431134L12.7640625 20.518273369144907L12.7640625 22.204316577137735L14.224218749999999 23.047338181134148L14.85 22.686043207992828L15.47578125 23.047338181134148L16.9359375 22.204316577137735L16.9359375 20.518273369144907L17.14453125 20.397841711431134L17.14453125 20.03654673828981L17.353125 20.156978396003588L20.89921875 18.109640214869437L20.89921875 17.748345241728117L20.690625 17.62791358401434L20.690625 17.387050268586794L20.377734375 17.206402782016134L16.831640625 19.253740963150285L16.831640625 19.49460427857783L16.51875 19.31395679200717L16.31015625 19.434388449720945L16.31015625 20.156978396003588L16.9359375 20.518273369144907" stroke-width="0.03" stroke="#000000" fill="none"/>
<path d="M17.14453125 20.397841711431134L16.831640625 20.21719422486047L16.831640625 19.85589925171915L16.51875 19.67525176514849L16.51875 19.31395679200717" stroke-width="0.03" stroke="#000000" fill="none"/>
<path d="M16.31015625 19.434388449720945L14.85 18.59136684572453L13.389843749999999 19.434388449720945L13.389843749999999 20.156978396003588L12.7640625 20.518273369144907" stroke-width="0.03" stroke="#000000" fill="none"/>
<path d="M12.555468750000001 20.397841711431134L12.868359374999999 20.21719422486047L12.868359374999999 19.85589925171915L13.181249999999999 19.67525176514849L13.181249999999999 19.31395679200717L12.868359374999999 19.49460427857783L12.868359374999999 19.253740963150285L9.322265625 17.206402782016134" stroke-width="0.03" stroke="#000000" fill="none"/>
<path d="M9.009374999999999 17.387050268586794L12.555468750000001 19.434388449720945L12.555468750000001 19.67525176514849L12.346874999999999 19.795683422862265L8.80078125 17.748345241728117" stroke-width="0.03" stroke="#000000" fill="none"/>
<path d="M8.80078125 17.50748192630057L7.5492187500000005 18.23007187258321L3.5859375 15.94187037602151L4.8374999999999995 15.21928042973887L4.8374999999999995 13.77410053717359L8.80078125 16.062302033735286L8.80078125 17.50748192630057L4.8374999999999995 15.21928042973887" stroke-width="0.03" stroke="#000000" fill="none"/>
<path d="M3.5859375 15.94187037602151L3.5859375 17.62791358401434L7.5492187500000005 19.916115080576038L8.80078125 19.193525134293395L8.80078125 20.397841711431134L7.7578125 19.795683422862265" stroke-width="0.03" stroke="#000000" fill="none"/>
<path d="M7.653515625 19.85589925171915L9.739453124999999 21.060215828856883" stroke-width="0.03" stroke="#000000" fill="none"/>
<path d="M9.948046875 20.57848919800179L10.05234375 20.518273369144907" stroke-width="0.03" stroke="#000000" fill="none"/>
<path d="M9.948046875 20.57848919800179L9.948046875 22.023669090567072L11.512500000000001 22.926906523420374L11.512500000000001 24.73338138912698L12.7640625 25.45597133540962L12.868359374999999 25.39575550655273" stroke-width="0.03" stroke="#000000" fill="none"/>
<path d="M12.7640625 25.45597133540962L12.7640625 23.649496469703017L12.868359374999999 23.709712298559904L12.868359374999999 26.600072083690467L14.328515625 27.443093687686883" stroke-width="0.03" stroke="#000000" fill="none"/>
<path d="M14.328515625 27.68395700311443L14.328515625 23.58928064084613L14.537109375 23.468848983132357L14.224218749999999 23.288201496561694L14.224218749999999 23.047338181134148" stroke-width="0.03" stroke="#000000" fill="none"/>
<path d="M14.224218749999999 23.288201496561694L14.537109375 23.107554009991038L14.85 23.288201496561694L15.162890625 23.107554009991038L15.47578125 23.288201496561694L15.47578125 23.047338181134148" stroke-width="0.03" stroke="#000000" fill="none"/>
<path d="M15.47578125 23.288201496561694L15.162890625 23.468848983132357L15.371484375 23.58928064084613L15.371484375 27.68395700311443L15.05859375 27.864604489685092L14.85 27.744172831971316L14.85 23.649496469703017L14.64140625 23.76992812741679L14.328515625 23.58928064084613" stroke-width="0.03" stroke="#000000" fill="none"/>
<path d="M14.64140625 23.76992812741679L14.64140625 27.864604489685092L14.328515625 27.68395700311443" stroke-width="0.03" stroke="#000000" fill="none"/>
<path d="M14.64140625 27.864604489685092L14.85 27.744172831971316" stroke-width="0.03" stroke="#000000" fill="none"/>
<path d="M14.85 27.985036147398862L13.598437500000001 28.7076260936815L12.138281249999999 27.864604489685092L12.138281249999999 32.44100748280849L13.598437500000001 33.2840290868049L14.85 32.56143914052225L14.85 27.985036147398862L16.1015625 28.7076260936815L17.56171875 27.864604489685092L17.56171875 32.44100748280849L16.1015625 33.2840290868049L14.85 32.56143914052225" stroke-width="0.03" stroke="#000000" fill="none"/>
<path d="M13.598437500000001 33.2840290868049L13.598437500000001 28.7076260936815" stroke-width="0.03" stroke="#000000" fill="none"/>
<path d="M13.389843749999999 27.142014543402446L12.138281249999999 27.864604489685092" stroke-width="0.03" stroke="#000000" fill="none"/>
<path d="M12.242578125 27.804388660828202L12.242578125 25.39575550655273" stroke-width="0.03" stroke="#000000" fill="none"/>
<path d="M12.868359374999999 25.75705047969405L10.678125 24.492518073699433L10.678125 24.13122310055811" stroke-width="0.03" stroke="#000000" fill="none"/>
<path d="M10.46953125 24.010791442844337L10.46953125 25.817266308550938L10.05234375 25.576402993123395L10.05234375 23.76992812741679L8.487890625 22.866690694563488L8.487890625 22.384964063708395L8.696484375 22.264532405994622L5.88046875 20.63870502685868L5.984765624999999 20.57848919800179L8.80078125 22.204316577137735L9.21796875 21.96345326171019L9.739453124999999 22.264532405994622" stroke-width="0.03" stroke="#000000" fill="none"/>
<path d="M10.05234375 22.08388491942396L10.05234375 23.288201496561694L8.487890625 22.384964063708395" stroke-width="0.03" stroke="#000000" fill="none"/>
<path d="M8.696484375 22.98712235227726L8.696484375 24.191438929414996L5.88046875 22.565611550279055L5.88046875 20.63870502685868" stroke-width="0.03" stroke="#000000" fill="none"/>
<path d="M5.254687500000001 21.481726630855093L4.524609375000001 21.903237432853302L4.524609375000001 25.636618821980278L3.7945312499999995 25.215108019982072L3.7945312499999995 21.481726630855093L4.8374999999999995 20.879568342286227" stroke-width="0.03" stroke="#000000" fill="none"/>
<path d="M4.8374999999999995 21.240863315427546L4.8374999999999995 18.350503530296983" stroke-width="0.03" stroke="#000000" fill="none"/>
<path d="M7.5492187500000005 18.23007187258321L7.5492187500000005 19.916115080576038" stroke-width="0.03" stroke="#000000" fill="none"/>
<path d="M8.80078125 20.397841711431134L9.322265625 20.096762567146698" stroke-width="0.03" stroke="#000000" fill="none"/>
<path d="M9.009374999999999 19.916115080576038L9.009374999999999 18.23007187258321" stroke-width="0.03" stroke="#000000" fill="none"/>
<path d="M9.009374999999999 17.62791358401434L12.555468750000001 19.67525176514849" stroke-width="0.03" stroke="#000000" fill="none"/>
<path d="M12.555468750000001 19.434388449720945L12.868359374999999 19.253740963150285" stroke-width="0.03" stroke="#000000" fill="none"/>
<path d="M13.181249999999999 19.31395679200717L13.389843749999999 19.434388449720945" stroke-width="0.03" stroke="#000000" fill="none"/>
<path d="M12.868359374999999 19.85589925171915L13.389843749999999 20.156978396003588" stroke-width="0.03" stroke="#000000" fill="none"/>
<path d="M13.598437500000001 20.277410053717357L14.85 19.554820107434715L16.1015625 20.277410053717357L16.1015625 21.72258994628264L14.85 22.44517989256528L13.598437500000001 21.72258994628264L13.598437500000001 20.277410053717357" stroke-width="0.03" stroke="#000000" fill="none"/>
<path d="M14.4328125 20.759136684572454L14.85 20.518273369144907L15.267187499999999 20.759136684572454L15.267187499999999 21.240863315427546L14.85 21.481726630855093L14.4328125 21.240863315427546L14.4328125 20.759136684572454" stroke-width="0.03" stroke="#000000" fill="none"/>
<path d="M14.85 21L12.7640625 22.204316577137735" stroke-width="0.03" stroke="#000000" fill="none"/>
<path d="M11.512500000000001 22.926906523420374L10.46953125 23.529064811989244L10.46953125 22.32474823485151" stroke-width="0.03" stroke="#000000" fill="none"/>
<path d="M10.05234375 23.047338181134148L9.739453124999999 22.866690694563488L9.739453124999999 20.337625882574244" stroke-width="0.03" stroke="#000000" fill="none"/>
<path d="M9.948046875 20.57848919800179L11.512500000000001 21.481726630855093L11.512500000000001 21.36129497314132L9.009374999999999 19.916115080576038" stroke-width="0.03" stroke="#000000" fill="none"/>
<path d="M8.80078125 23.047338181134148L8.80078125 24.13122310055811L8.696484375 24.191438929414996" stroke-width="0.03" stroke="#000000" fill="none"/>
<path d="M9.009374999999999 24.73338138912698L9.113671875 24.673165560270093L10.05234375 25.215108019982072" stroke-width="0.03" stroke="#000000" fill="none"/>
<path d="M10.05234375 25.335539677695845L9.009374999999999 24.73338138912698L9.009374999999999 27.985036147398862L10.678125 28.94848940910905L10.782421874999999 28.888273580252164L10.782421874999999 25.636618821980278L11.199609375 25.39575550655273L11.199609375 24.793597217983862" stroke-width="0.03" stroke="#000000" fill="none"/>
<path d="M11.512500000000001 24.612949731413206L10.46953125 24.010791442844337" stroke-width="0.03" stroke="#000000" fill="none"/>
<path d="M10.46953125 23.529064811989244L11.512500000000001 24.13122310055811" stroke-width="0.03" stroke="#000000" fill="none"/>
<path d="M10.05234375 24.37208641598566L9.739453124999999 24.191438929414996L9.739453124999999 23.95057561398745L9.530859375 23.830143956273677L9.530859375 23.468848983132357" stroke-width="0.03" stroke="#000000" fill="none"/>
<path d="M7.4449218749999995 23.468848983132357L7.4449218749999995 25.27532384883896L9.009374999999999 26.17856128169226" stroke-width="0.03" stroke="#000000" fill="none"/>
<path d="M9.009374999999999 26.419424597119807L7.236328125 25.39575550655273L7.236328125 23.348417325418584" stroke-width="0.03" stroke="#000000" fill="none"/>
<path d="M5.88046875 22.204316577137735L5.046093749999999 21.72258994628264L5.046093749999999 25.335539677695845L4.524609375000001 25.636618821980278" stroke-width="0.03" stroke="#000000" fill="none"/>
<path d="M4.107421875 25.39575550655273L4.107421875 26.118345452835374L5.046093749999999 26.660287912547354L5.046093749999999 27.744172831971316L5.671875 28.105467805112635" stroke-width="0.03" stroke="#000000" fill="none"/>
<path d="M5.671875 28.46676277825396L5.671875 27.623741174257542L6.193359375 27.322662029973106L9.322265625 29.12913689567971L9.530859375 29.008705237965938L9.63515625 29.068921066822824L9.63515625 29.550647697677917L12.138281249999999 30.995827590243202" stroke-width="0.03" stroke="#000000" fill="none"/>
<path d="M10.678125 28.94848940910905L10.678125 25.696834650837165L10.46953125 25.817266308550938" stroke-width="0.03" stroke="#000000" fill="none"/>
<path d="M12.346874999999999 26.53985625483358L12.868359374999999 26.238777110549147" stroke-width="0.03" stroke="#000000" fill="none"/>
<path d="M12.346874999999999 26.53985625483358L12.346874999999999 27.744172831971316" stroke-width="0.03" stroke="#000000" fill="none"/>
<path d="M12.346874999999999 26.53985625483358L13.389843749999999 27.142014543402446" stroke-width="0.03" stroke="#000000" fill="none"/>
<path d="M15.05859375 27.864604489685092L15.05859375 23.76992812741679L15.371484375 23.58928064084613" stroke-width="0.03" stroke="#000000" fill="none"/>
<path d="M15.05859375 23.76992812741679L14.85 23.649496469703017" stroke-width="0.03" stroke="#000000" fill="none"/>
<path d="M14.85 23.288201496561694L14.85 22.686043207992828" stroke-width="0.03" stroke="#000000" fill="none"/>
<path d="M14.85 21L14.85 18.59136684572453" stroke-width="0.03" stroke="#000000" fill="none"/>
<path d="M13.598437500000001 17.86877689944189L13.494140625 17.928992728298773L10.991015625000001 16.483812835733495" stroke-width="0.03" stroke="#000000" fill="none"/>
<path d="M11.303906249999999 16.062302033735286L10.260937499999999 15.460143745166418" stroke-width="0.03" stroke="#000000" fill="none"/>
<path d="M10.260937499999999 15.339712087452645L12.346874999999999 16.54402866459038" stroke-width="0.03" stroke="#000000" fill="none"/>
<path d="M12.033984375000001 16.965539466588588L13.285546875 16.24294952030595L14.85 17.146186953159244L16.414453125 16.24294952030595L17.666015625 16.965539466588588L17.666015625 17.08597112430236" stroke-width="0.03" stroke="#000000" fill="none"/>
<path d="M17.666015625 16.965539466588588L16.1015625 17.86877689944189L16.205859375 17.928992728298773L18.708984375 16.483812835733495L20.169140624999997 17.326834439729907" stroke-width="0.03" stroke="#000000" fill="none"/>
<path d="M20.690625 17.387050268586794L17.14453125 19.434388449720945L16.831640625 19.253740963150285" stroke-width="0.03" stroke="#000000" fill="none"/>
<path d="M17.14453125 19.434388449720945L17.14453125 19.67525176514849L17.353125 19.795683422862265L17.353125 20.156978396003588" stroke-width="0.03" stroke="#000000" fill="none"/>
<path d="M17.353125 19.795683422862265L20.89921875 17.748345241728117" stroke-width="0.03" stroke="#000000" fill="none"/>
<path d="M20.89921875 17.50748192630057L24.8625 15.21928042973887L24.8625 13.77410053717359L23.40234375 12.931078933177174L19.439062500000002 15.21928042973887L19.439062500000002 16.66446032230415L18.396093750000002 16.062302033735286L18.396093750000002 16.66446032230415" stroke-width="0.03" stroke="#000000" fill="none"/>
<path d="M17.978906249999998 16.905323637731698L15.788671874999999 15.640791231737078L15.47578125 15.82143871830774" stroke-width="0.03" stroke="#000000" fill="none"/>
<path d="M15.267187499999999 15.701007060593964L16.831640625 14.797769627740664L16.414453125 14.556906312313117L14.85 15.460143745166418L13.285546875 14.556906312313117L12.868359374999999 14.797769627740664L12.868359374999999 15.038632943168212L10.05234375 13.412805564032269L11.72109375 12.44935230232208L14.537109375 14.075179681458023L14.537109375 14.195611339171796L13.598437500000001 14.737553798883777" stroke-width="0.03" stroke="#000000" fill="none"/>
<path d="M13.494140625 14.67733797002689L14.537109375 14.075179681458023" stroke-width="0.03" stroke="#000000" fill="none"/>
<path d="M15.162890625 14.075179681458023L17.978906249999998 12.44935230232208L19.647656249999997 13.412805564032269L19.647656249999997 13.533237221746042L16.831640625 15.159064600881985L16.831640625 15.640791231737078L16.31015625 15.94187037602151" stroke-width="0.03" stroke="#000000" fill="none"/>
<path d="M16.31015625 16.303165349162832L15.267187499999999 15.701007060593964" stroke-width="0.03" stroke="#000000" fill="none"/>
<path d="M14.85 15.94187037602151L13.80703125 16.54402866459038" stroke-width="0.03" stroke="#000000" fill="none"/>
<path d="M13.389843749999999 16.303165349162832L14.4328125 15.701007060593964L12.868359374999999 14.797769627740664" stroke-width="0.03" stroke="#000000" fill="none"/>
<path d="M12.868359374999999 15.159064600881985L12.868359374999999 15.640791231737078L13.389843749999999 15.94187037602151" stroke-width="0.03" stroke="#000000" fill="none"/>
<path d="M13.911328125 15.640791231737078L11.72109375 16.905323637731698" stroke-width="0.03" stroke="#000000" fill="none"/>
<path d="M12.033984375000001 16.965539466588588L12.033984375000001 17.08597112430236" stroke-width="0.03" stroke="#000000" fill="none"/>
<path d="M12.033984375000001 16.965539466588588L13.598437500000001 17.86877689944189" stroke-width="0.03" stroke="#000000" fill="none"/>
<path d="M14.85 17.146186953159244L14.85 15.94187037602151L15.89296875 16.54402866459038" stroke-width="0.03" stroke="#000000" fill="none"/>
<path d="M17.353125 16.54402866459038L19.439062500000002 15.339712087452645" stroke-width="0.03" stroke="#000000" fill="none"/>
<path d="M19.439062500000002 15.460143745166418L18.396093750000002 16.062302033735286" stroke-width="0.03" stroke="#000000" fill="none"/>
<path d="M19.439062500000002 15.21928042973887L20.89921875 16.062302033735286L20.89921875 17.50748192630057L22.150781249999998 18.23007187258321L26.1140625 15.94187037602151L24.8625 15.21928042973887" stroke-width="0.03" stroke="#000000" fill="none"/>
<path d="M24.8625 13.77410053717359L20.89921875 16.062302033735286" stroke-width="0.03" stroke="#000000" fill="none"/>
<path d="M20.690625 17.62791358401434L17.14453125 19.67525176514849" stroke-width="0.03" stroke="#000000" fill="none"/>
<path d="M16.831640625 19.85589925171915L16.31015625 20.156978396003588" stroke-width="0.03" stroke="#000000" fill="none"/>
<path d="M14.85 21L16.9359375 22.204316577137735" stroke-width="0.03" stroke="#000000" fill="none"/>
<path d="M18.1875 22.926906523420374L19.751953125 22.023669090567072L19.751953125 20.57848919800179L19.647656249999997 20.518273369144907" stroke-width="0.03" stroke="#000000" fill="none"/>
<path d="M19.751953125 20.57848919800179L18.1875 21.481726630855093L18.1875 21.36129497314132L20.690625 19.916115080576038L20.690625 18.23007187258321" stroke-width="0.03" stroke="#000000" fill="none"/>
<path d="M20.89921875 19.193525134293395L20.89921875 20.397841711431134L21.9421875 19.795683422862265" stroke-width="0.03" stroke="#000000" fill="none"/>
<path d="M22.046484375000002 19.85589925171915L19.960546875000002 21.060215828856883" stroke-width="0.03" stroke="#000000" fill="none"/>
<path d="M19.960546875000002 20.337625882574244L19.960546875000002 22.866690694563488L19.647656249999997 23.047338181134148" stroke-width="0.03" stroke="#000000" fill="none"/>
<path d="M19.647656249999997 23.288201496561694L21.212109374999997 22.384964063708395L21.003515625000002 22.264532405994622L23.819531249999997 20.63870502685868L23.715234375 20.57848919800179L20.89921875 22.204316577137735L20.482031250000002 21.96345326171019L19.960546875000002 22.264532405994622" stroke-width="0.03" stroke="#000000" fill="none"/>
<path d="M19.647656249999997 22.08388491942396L19.647656249999997 23.288201496561694" stroke-width="0.03" stroke="#000000" fill="none"/>
<path d="M19.23046875 23.529064811989244L18.1875 24.13122310055811" stroke-width="0.03" stroke="#000000" fill="none"/>
<path d="M18.1875 24.612949731413206L19.23046875 24.010791442844337L19.23046875 25.817266308550938L19.021874999999998 25.696834650837165L19.021874999999998 28.94848940910905L20.690625 27.985036147398862L20.690625 24.73338138912698L20.586328125 24.673165560270093L19.647656249999997 25.215108019982072" stroke-width="0.03" stroke="#000000" fill="none"/>
<path d="M19.647656249999997 25.335539677695845L20.690625 24.73338138912698" stroke-width="0.03" stroke="#000000" fill="none"/>
<path d="M21.003515625000002 24.191438929414996L23.819531249999997 22.565611550279055L23.819531249999997 20.63870502685868" stroke-width="0.03" stroke="#000000" fill="none"/>
<path d="M24.4453125 21.481726630855093L24.8625 21.240863315427546L24.8625 18.350503530296983" stroke-width="0.03" stroke="#000000" fill="none"/>
<path d="M26.1140625 17.62791358401434L22.150781249999998 19.916115080576038L20.89921875 19.193525134293395" stroke-width="0.03" stroke="#000000" fill="none"/>
<path d="M20.377734375 20.096762567146698L20.89921875 20.397841711431134" stroke-width="0.03" stroke="#000000" fill="none"/>
<path d="M22.150781249999998 19.916115080576038L22.150781249999998 18.23007187258321" stroke-width="0.03" stroke="#000000" fill="none"/>
<path d="M24.8625 20.879568342286227L25.90546875 21.481726630855093L25.90546875 25.215108019982072L25.175390624999995 25.636618821980278L24.653906250000002 25.335539677695845L24.653906250000002 21.72258994628264L24.4453125 21.602158288568866L23.819531249999997 21.96345326171019" stroke-width="0.03" stroke="#000000" fill="none"/>
<path d="M23.819531249999997 22.204316577137735L24.653906250000002 21.72258994628264" stroke-width="0.03" stroke="#000000" fill="none"/>
<path d="M24.4453125 21.602158288568866L24.4453125 21.481726630855093L25.175390624999995 21.903237432853302L25.175390624999995 25.636618821980278" stroke-width="0.03" stroke="#000000" fill="none"/>
<path d="M25.592578125 25.39575550655273L25.592578125 26.118345452835374L24.653906250000002 26.660287912547354L24.653906250000002 27.744172831971316L24.028125 28.105467805112635" stroke-width="0.03" stroke="#000000" fill="none"/>
<path d="M24.028125 28.46676277825396L20.794921875 30.333453472817446L19.751953125 29.731295184248577" stroke-width="0.03" stroke="#000000" fill="none"/>
<path d="M20.064843749999998 29.550647697677917L17.56171875 30.995827590243202" stroke-width="0.03" stroke="#000000" fill="none"/>
<path d="M18.917578125000002 28.888273580252164L18.917578125000002 25.636618821980278L18.500390624999998 25.39575550655273L18.500390624999998 24.793597217983862" stroke-width="0.03" stroke="#000000" fill="none"/>
<path d="M18.1875 24.73338138912698L16.9359375 25.45597133540962L16.831640625 25.39575550655273" stroke-width="0.03" stroke="#000000" fill="none"/>
<path d="M16.9359375 25.45597133540962L16.9359375 23.649496469703017L16.831640625 23.709712298559904L16.831640625 26.600072083690467L15.371484375 27.443093687686883" stroke-width="0.03" stroke="#000000" fill="none"/>
<path d="M16.31015625 27.142014543402446L17.353125 26.53985625483358L17.353125 27.744172831971316" stroke-width="0.03" stroke="#000000" fill="none"/>
<path d="M17.457421875 27.804388660828202L17.457421875 25.39575550655273" stroke-width="0.03" stroke="#000000" fill="none"/>
<path d="M16.831640625 25.75705047969405L19.021874999999998 24.492518073699433L19.021874999999998 24.13122310055811" stroke-width="0.03" stroke="#000000" fill="none"/>
<path d="M19.23046875 23.529064811989244L19.23046875 22.32474823485151" stroke-width="0.03" stroke="#000000" fill="none"/>
<path d="M18.1875 22.926906523420374L18.1875 24.73338138912698" stroke-width="0.03" stroke="#000000" fill="none"/>
<path d="M19.647656249999997 24.37208641598566L19.960546875000002 24.191438929414996L19.960546875000002 23.95057561398745L20.169140624999997 23.830143956273677L20.169140624999997 23.468848983132357" stroke-width="0.03" stroke="#000000" fill="none"/>
<path d="M19.647656249999997 23.76992812741679L21.212109374999997 22.866690694563488L21.212109374999997 22.384964063708395" stroke-width="0.03" stroke="#000000" fill="none"/>
<path d="M21.003515625000002 22.98712235227726L21.003515625000002 24.191438929414996L20.89921875 24.13122310055811L20.89921875 23.047338181134148" stroke-width="0.03" stroke="#000000" fill="none"/>
<path d="M22.255078124999997 23.468848983132357L22.255078124999997 25.27532384883896L20.690625 26.17856128169226" stroke-width="0.03" stroke="#000000" fill="none"/>
<path d="M20.690625 26.419424597119807L22.463671875 25.39575550655273L22.463671875 23.348417325418584" stroke-width="0.03" stroke="#000000" fill="none"/>
<path d="M22.255078124999997 25.27532384883896L22.463671875 25.39575550655273" stroke-width="0.03" stroke="#000000" fill="none"/>
<path d="M23.506640625 27.322662029973106L20.377734375 29.12913689567971L20.169140624999997 29.008705237965938L20.064843749999998 29.068921066822824L20.064843749999998 29.550647697677917" stroke-width="0.03" stroke="#000000" fill="none"/>
<path d="M20.064843749999998 29.068921066822824L20.794921875 29.490431868821034L20.794921875 30.333453472817446" stroke-width="0.03" stroke="#000000" fill="none"/>
<path d="M20.794921875 29.490431868821034L24.028125 27.623741174257542L23.506640625 27.322662029973106" stroke-width="0.03" stroke="#000000" fill="none"/>
<path d="M24.028125 27.623741174257542L24.028125 28.46676277825396" stroke-width="0.03" stroke="#000000" fill="none"/>
<path d="M20.377734375 28.165683633969522L20.377734375 29.12913689567971" stroke-width="0.03" stroke="#000000" fill="none"/>
<path d="M20.169140624999997 29.008705237965938L20.169140624999997 28.286115291683295" stroke-width="0.03" stroke="#000000" fill="none"/>
<path d="M19.021874999999998 28.94848940910905L18.917578125000002 28.888273580252164" stroke-width="0.03" stroke="#000000" fill="none"/>
<path d="M17.56171875 27.864604489685092L16.31015625 27.142014543402446" stroke-width="0.03" stroke="#000000" fill="none"/>
<path d="M16.831640625 26.238777110549147L17.353125 26.53985625483358" stroke-width="0.03" stroke="#000000" fill="none"/>
<path d="M19.23046875 25.817266308550938L19.647656249999997 25.576402993123395L19.647656249999997 23.76992812741679" stroke-width="0.03" stroke="#000000" fill="none"/>
<path d="M19.23046875 23.529064811989244L18.1875 22.926906523420374" stroke-width="0.03" stroke="#000000" fill="none"/>
<path d="M16.1015625 28.7076260936815L16.1015625 33.2840290868049" stroke-width="0.03" stroke="#000000" fill="none"/>
<path d="M9.948046875 29.731295184248577L8.905078125 30.333453472817446L5.671875 28.46676277825396" stroke-width="0.03" stroke="#000000" fill="none"/>
<path d="M5.671875 27.623741174257542L8.905078125 29.490431868821034L8.905078125 30.333453472817446" stroke-width="0.03" stroke="#000000" fill="none"/>
<path d="M8.905078125 29.490431868821034L9.63515625 29.068921066822824" stroke-width="0.03" stroke="#000000" fill="none"/>
<path d="M9.530859375 29.008705237965938L9.530859375 28.286115291683295" stroke-width="0.03" stroke="#000000" fill="none"/>
<path d="M9.322265625 28.165683633969522L9.322265625 29.12913689567971" stroke-width="0.03" stroke="#000000" fill="none"/>
<path d="M7.236328125 25.39575550655273L7.4449218749999995 25.27532384883896" stroke-width="0.03" stroke="#000000" fill="none"/>
<path d="M5.88046875 21.96345326171019L5.254687500000001 21.602158288568866L5.254687500000001 21.481726630855093L4.8374999999999995 21.240863315427546" stroke-width="0.03" stroke="#000000" fill="none"/>
<path d="M5.046093749999999 21.72258994628264L5.254687500000001 21.602158288568866" stroke-width="0.03" stroke="#000000" fill="none"/>
<path d="M4.524609375000001 21.903237432853302L3.7945312499999995 21.481726630855093" stroke-width="0.03" stroke="#000000" fill="none"/>
<path d="M8.80078125 16.062302033735286L10.260937499999999 15.21928042973887" stroke-width="0.03" stroke="#000000" fill="none"/>
<path d="M10.05234375 13.533237221746042L10.05234375 13.412805564032269" stroke-width="0.03" stroke="#000000" fill="none"/>
<path d="M10.05234375 13.533237221746042L12.868359374999999 15.159064600881985" stroke-width="0.03" stroke="#000000" fill="none"/>
<path d="M13.911328125 15.640791231737078L14.224218749999999 15.82143871830774" stroke-width="0.03" stroke="#000000" fill="none"/>
<path d="M14.328515625 15.159064600881985L14.64140625 14.978417114311325L14.85 15.098848772025098L15.05859375 14.978417114311325L15.371484375 15.159064600881985" stroke-width="0.03" stroke="#000000" fill="none"/>
<path d="M16.1015625 14.737553798883777L15.162890625 14.195611339171796L15.162890625 14.075179681458023L16.205859375 14.67733797002689" stroke-width="0.03" stroke="#000000" fill="none"/>
<path d="M16.831640625 14.797769627740664L16.831640625 15.038632943168212L19.647656249999997 13.412805564032269" stroke-width="0.03" stroke="#000000" fill="none"/>
<path d="M19.23046875 12.44935230232208L19.647656249999997 12.208488986894533L22.150781249999998 13.653668879459815" stroke-width="0.03" stroke="#000000" fill="none"/>
<path d="M19.960546875000002 12.389136473465193L19.960546875000002 11.184819896327458L16.72734375 9.31812920176397L15.997265625 9.739640003762176L15.997265625 10.341798292331045L19.126171875 12.148273158037647L19.126171875 12.389136473465193L19.23046875 12.44935230232208L19.23046875 11.606330698325666L15.997265625 9.739640003762176" stroke-width="0.03" stroke="#000000" fill="none"/>
<path d="M16.414453125 9.49877668833463L15.788671874999999 9.13748171519331L14.85 9.67942417490529L13.911328125 9.13748171519331L13.285546875 9.49877668833463" stroke-width="0.03" stroke="#000000" fill="none"/>
<path d="M12.97265625 9.31812920176397L9.739453124999999 11.184819896327458L9.739453124999999 12.389136473465193" stroke-width="0.03" stroke="#000000" fill="none"/>
<path d="M10.05234375 12.208488986894533L7.5492187500000005 13.653668879459815" stroke-width="0.03" stroke="#000000" fill="none"/>
<path d="M10.05234375 12.208488986894533L10.46953125 12.44935230232208L10.573828124999999 12.389136473465193L10.573828124999999 12.148273158037647L13.702734374999999 10.341798292331045L13.702734374999999 9.739640003762176L12.97265625 9.31812920176397" stroke-width="0.03" stroke="#000000" fill="none"/>
<path d="M13.702734374999999 9.739640003762176L10.46953125 11.606330698325666L10.46953125 12.44935230232208" stroke-width="0.03" stroke="#000000" fill="none"/>
<path d="M10.573828124999999 12.389136473465193L11.199609375 12.750431446606514" stroke-width="0.03" stroke="#000000" fill="none"/>
<path d="M11.408203125 12.629999788892741L10.573828124999999 12.148273158037647" stroke-width="0.03" stroke="#000000" fill="none"/>
<path d="M10.46953125 11.606330698325666L9.739453124999999 11.184819896327458" stroke-width="0.03" stroke="#000000" fill="none"/>
<path d="M13.076953125000001 13.232158077461609L14.85 12.208488986894533L16.623046875 13.232158077461609" stroke-width="0.03" stroke="#000000" fill="none"/>
<path d="M16.414453125 13.352589735175382L14.85 12.44935230232208L14.85 12.208488986894533" stroke-width="0.03" stroke="#000000" fill="none"/>
<path d="M14.85 12.44935230232208L13.285546875 13.352589735175382" stroke-width="0.03" stroke="#000000" fill="none"/>
<path d="M18.291796875 12.629999788892741L19.126171875 12.148273158037647" stroke-width="0.03" stroke="#000000" fill="none"/>
<path d="M19.126171875 12.389136473465193L18.500390624999998 12.750431446606514" stroke-width="0.03" stroke="#000000" fill="none"/>
<path d="M19.23046875 11.606330698325666L19.960546875000002 11.184819896327458" stroke-width="0.03" stroke="#000000" fill="none"/>
<path d="M26.1140625 15.94187037602151L26.1140625 17.62791358401434" stroke-width="0.03" stroke="#000000" fill="none"/>
<path d="M25.90546875 21.481726630855093L25.175390624999995 21.903237432853302" stroke-width="0.03" stroke="#000000" fill="none"/>
<path d="M12.346874999999999 20.156978396003588L12.346874999999999 19.795683422862265" stroke-width="0.03" stroke="#000000" fill="none"/>
<path d="M9.237499999999999 2.533333333333333L1.5 2.533333333333333" stroke-width="0.03" stroke="#000000" fill="none"/>
<path d="M2.1166666666666667 2.2291666666666665L2.1166666666666667 1.8208333333333333" stroke-width="0.03" stroke="#000000" fill="none"/>
<path d="M2.0875 1.6166666666666667L2.1166666666666667 1.6458333333333333L2.145833333333333 1.6166666666666667L2.1166666666666667 1.5875L2.0875 1.6166666666666667" stroke-width="0.03" stroke="#000000" fill="none"/>
<path d="M2.3208333333333333 2.1416666666666666L2.35 2.2L2.4375 2.2291666666666665L2.525 2.2291666666666665L2.6125 2.2L2.6416666666666666 2.1416666666666666L2.6416666666666666 2.1125L2.6125 2.0541666666666667L2.5541666666666667 2.025L2.408333333333333 1.9958333333333333L2.35 1.9666666666666666L2.3208333333333333 1.9083333333333332L2.35 1.85L2.4375 1.8208333333333333L2.525 1.8208333333333333L2.6125 1.85L2.6416666666666666 1.9083333333333332" stroke-width="0.03" stroke="#000000" fill="none"/>
<path d="M2.9625 1.8208333333333333L2.904166666666667 1.85L2.845833333333333 1.9083333333333332L2.8166666666666664 1.9958333333333333L2.8166666666666664 2.0541666666666667L2.845833333333333 2.1416666666666666L2.904166666666667 2.2L2.9625 2.2291666666666665L3.05 2.2291666666666665L3.1083333333333334 2.2L3.1666666666666665 2.1416666666666666L3.1958333333333333 2.0541666666666667L3.1958333333333333 1.9958333333333333L3.1666666666666665 1.9083333333333332L3.1083333333333334 1.85L3.05 1.8208333333333333L2.9625 1.8208333333333333" stroke-width="0.03" stroke="#000000" fill="none"/>
<path d="M3.283333333333333 2.2874999999999996L3.75 2.2874999999999996" stroke-width="0.03" stroke="#000000" fill="none"/>
<path d="M3.8375 2.1416666666666666L3.8666666666666663 2.2L3.9541666666666666 2.2291666666666665L4.041666666666666 2.2291666666666665L4.129166666666666 2.2L4.158333333333333 2.1416666666666666L4.158333333333333 2.1125L4.129166666666666 2.0541666666666667L4.070833333333333 2.025L3.925 1.9958333333333333L3.8666666666666663 1.9666666666666666L3.8375 1.9083333333333332L3.8666666666666663 1.85L3.9541666666666666 1.8208333333333333L4.041666666666666 1.8208333333333333L4.129166666666666 1.85L4.158333333333333 1.9083333333333332" stroke-width="0.03" stroke="#000000" fill="none"/>
<path d="M4.3625 1.9375L4.449999999999999 1.85L4.508333333333333 1.8208333333333333L4.595833333333333 1.8208333333333333L4.654166666666667 1.85L4.683333333333334 1.9375L4.683333333333334 2.2291666666666665" stroke-width="0.03" stroke="#000000" fill="none"/>
<path d="M4.3625 2.2291666666666665L4.3625 1.8208333333333333" stroke-width="0.03" stroke="#000000" fill="none"/>
<path d="M5.033333333333333 1.8208333333333333L4.975 1.85L4.916666666666666 1.9083333333333332L4.887499999999999 1.9958333333333333L4.887499999999999 2.0541666666666667L4.916666666666666 2.1416666666666666L4.975 2.2L5.033333333333333 2.2291666666666665L5.120833333333334 2.2291666666666665L5.179166666666666 2.2L5.2375 2.1416666666666666L5.266666666666666 2.0541666666666667L5.266666666666666 1.9958333333333333L5.2375 1.9083333333333332L5.179166666666666 1.85L5.120833333333334 1.8208333333333333L5.033333333333333 1.8208333333333333" stroke-width="0.03" stroke="#000000" fill="none"/>
<path d="M5.441666666666666 1.8208333333333333L5.558333333333334 2.2291666666666665L5.675 1.8208333333333333L5.791666666666666 2.2291666666666665L5.908333333333333 1.8208333333333333" stroke-width="0.03" stroke="#000000" fill="none"/>
<path d="M6.054166666666666 1.8208333333333333L6.258333333333333 1.8208333333333333" stroke-width="0.03" stroke="#000000" fill="none"/>
<path d="M6.2875 1.6166666666666667L6.229166666666666 1.6166666666666667L6.1708333333333325 1.6458333333333333L6.141666666666667 1.7333333333333334L6.141666666666667 2.2291666666666665" stroke-width="0.03" stroke="#000000" fill="none"/>
<path d="M6.4624999999999995 2.2291666666666665L6.4624999999999995 1.6166666666666667" stroke-width="0.03" stroke="#000000" fill="none"/>
<path d="M7.016666666666666 1.8208333333333333L7.016666666666666 2.2291666666666665" stroke-width="0.03" stroke="#000000" fill="none"/>
<path d="M7.016666666666666 2.1416666666666666L6.958333333333333 2.2L6.8999999999999995 2.2291666666666665L6.812499999999999 2.2291666666666665L6.754166666666666 2.2L6.695833333333333 2.1416666666666666L6.666666666666666 2.0541666666666667L6.666666666666666 1.9958333333333333L6.695833333333333 1.9083333333333332L6.754166666666666 1.85L6.812499999999999 1.8208333333333333L6.8999999999999995 1.8208333333333333L6.958333333333333 1.85L7.016666666666666 1.9083333333333332" stroke-width="0.03" stroke="#000000" fill="none"/>
<path d="M7.249999999999999 2.1125L7.541666666666666 1.8208333333333333" stroke-width="0.03" stroke="#000000" fill="none"/>
<path d="M7.366666666666666 1.9958333333333333L7.570833333333333 2.2291666666666665" stroke-width="0.03" stroke="#000000" fill="none"/>
<path d="M7.716666666666666 1.9958333333333333L8.066666666666666 1.9958333333333333L8.066666666666666 1.9375L8.0375 1.8791666666666667L8.008333333333333 1.85L7.949999999999999 1.8208333333333333L7.8625 1.8208333333333333L7.804166666666666 1.85L7.745833333333333 1.9083333333333332L7.716666666666666 1.9958333333333333L7.716666666666666 2.0541666666666667L7.745833333333333 2.1416666666666666L7.804166666666666 2.2L7.8625 2.2291666666666665L7.949999999999999 2.2291666666666665L8.008333333333333 2.2L8.066666666666666 2.1416666666666666" stroke-width="0.03" stroke="#000000" fill="none"/>
<path d="M8.270833333333332 1.7625L8.270833333333332 1.7333333333333334L8.299999999999999 1.675L8.329166666666666 1.6458333333333333L8.3875 1.6166666666666667L8.504166666666666 1.6166666666666667L8.5625 1.6458333333333333L8.591666666666665 1.675L8.620833333333334 1.7333333333333334L8.620833333333334 1.7916666666666665L8.591666666666665 1.85L8.533333333333331 1.9375L8.241666666666667 2.2291666666666665L8.649999999999999 2.2291666666666665" stroke-width="0.03" stroke="#000000" fill="none"/>
<path d="M7.249999999999999 2.2291666666666665L7.249999999999999 1.6166666666666667" stroke-width="0.03" stroke="#000000" fill="none"/>
<path d="M5.5511202936921045 3.0054372986874878L5.370860380306718 3.383983116796798" stroke-width="0.03" stroke="#000000" fill="none"/>
<path d="M5.0824445188901 3.383983116796798L5.0824445188901 3.0054372986874878L5.028366544874484 3.0595152727031034L4.992314562197407 3.077541264041642" stroke-width="0.03" stroke="#000000" fill="none"/>
<path d="M4.739950683457867 3.1856972120728733L4.794028657473483 3.167671220734335L4.812054648812021 3.149645229395796L4.83008064015056 3.113593246718719L4.83008064015056 3.077541264041642L4.812054648812021 3.041489281364565L4.794028657473483 3.023463290026026L4.739950683457867 3.0054372986874878L4.57771676141102 3.0054372986874878L4.57771676141102 3.383983116796798L4.739950683457867 3.383983116796798L4.794028657473483 3.3659571254582596L4.812054648812021 3.3479311341197207L4.83008064015056 3.3118791514426436L4.83008064015056 3.257801177427028L4.812054648812021 3.221749194749951L4.794028657473483 3.2037232034114123L4.739950683457867 3.1856972120728733L4.57771676141102 3.1856972120728733" stroke-width="0.03" stroke="#000000" fill="none"/>
<path d="M4.45153482204125 3.0054372986874878L4.2712749086558635 3.383983116796798" stroke-width="0.03" stroke="#000000" fill="none"/>
<path d="M4.199170943301709 3.0054372986874878L4.45153482204125 3.0054372986874878" stroke-width="0.03" stroke="#000000" fill="none"/>
<path d="M3.9287810732236297 3.0054372986874878L3.8747030992080145 3.023463290026026L3.8566771078694755 3.0595152727031034L3.8566771078694755 3.0955672553801805L3.8747030992080145 3.1316192380572576L3.9107550818850916 3.149645229395796L3.9828590472392458 3.167671220734335L4.036937021254861 3.1856972120728733L4.072989003931939 3.221749194749951L4.091014995270477 3.257801177427028L4.091014995270477 3.3118791514426436L4.072989003931939 3.3479311341197207L4.0549630125934 3.3659571254582596L4.000885038577785 3.383983116796798L3.9287810732236297 3.383983116796798L3.8747030992080145 3.3659571254582596L3.8566771078694755 3.3479311341197207L3.838651116530937 3.3118791514426436L3.838651116530937 3.257801177427028L3.8566771078694755 3.221749194749951L3.8927290905465526 3.1856972120728733L3.9468070645621687 3.167671220734335L4.018911029916323 3.149645229395796L4.0549630125934 3.1316192380572576L4.072989003931939 3.0955672553801805L4.072989003931939 3.0595152727031034L4.0549630125934 3.023463290026026L4.000885038577785 3.0054372986874878L3.9287810732236297 3.0054372986874878" stroke-width="0.03" stroke="#000000" fill="none"/>
<path d="M3.478131289760165 3.0054372986874878L3.478131289760165 3.383983116796798L3.604313229129935 3.383983116796798L3.658391203145551 3.3659571254582596L3.694443185822628 3.3299051427811825L3.712469177161167 3.293853160104105L3.730495168499705 3.2397751860884894L3.730495168499705 3.149645229395796L3.712469177161167 3.0955672553801805L3.694443185822628 3.0595152727031034L3.658391203145551 3.023463290026026L3.604313229129935 3.0054372986874878L3.478131289760165 3.0054372986874878" stroke-width="0.03" stroke="#000000" fill="none"/>
<path d="M3.3519493503903948 3.0955672553801805L3.333923359051856 3.0595152727031034L3.297871376374779 3.023463290026026L3.261819393697702 3.0054372986874878L3.1897154283435474 3.0054372986874878L3.1536634456664703 3.023463290026026L3.117611462989393 3.0595152727031034L3.0995854716508546 3.0955672553801805L3.0815594803123156 3.149645229395796L3.0815594803123156 3.2397751860884894L3.0995854716508546 3.293853160104105L3.117611462989393 3.3299051427811825L3.1536634456664703 3.3659571254582596L3.1897154283435474 3.383983116796798L3.261819393697702 3.383983116796798L3.297871376374779 3.3659571254582596L3.333923359051856 3.3299051427811825L3.3519493503903948 3.293853160104105" stroke-width="0.03" stroke="#000000" fill="none"/>
<path d="M2.8652475842498526 3.383983116796798L2.8652475842498526 3.0054372986874878L2.811169610234237 3.0595152727031034L2.77511762755716 3.077541264041642" stroke-width="0.03" stroke="#000000" fill="none"/>
<path d="M2.6128837055103125 3.1316192380572576L2.414597800786388 3.383983116796798" stroke-width="0.03" stroke="#000000" fill="none"/>
<path d="M2.6128837055103125 3.383983116796798L2.414597800786388 3.1316192380572576" stroke-width="0.03" stroke="#000000" fill="none"/>
<path d="M2.1622339220468474 3.0054372986874878L2.1081559480312317 3.023463290026026L2.072103965354154 3.077541264041642L2.0540779740156156 3.167671220734335L2.0540779740156156 3.221749194749951L2.072103965354154 3.3118791514426436L2.1081559480312317 3.3659571254582596L2.1622339220468474 3.383983116796798L2.1982859047239245 3.383983116796798L2.2523638787395406 3.3659571254582596L2.2884158614166177 3.3118791514426436L2.3064418527551562 3.221749194749951L2.3064418527551562 3.167671220734335L2.2884158614166177 3.077541264041642L2.2523638787395406 3.023463290026026L2.1982859047239245 3.0054372986874878L2.1622339220468474 3.0054372986874878" stroke-width="0.03" stroke="#000000" fill="none"/>
<path d="M5.298756414952564 3.0054372986874878L5.5511202936921045 3.0054372986874878" stroke-width="0.03" stroke="#000000" fill="none"/>
</svg>
