<?xml version="1.0" standalone="no"?>
<svg width="29.7cm" height="42cm" version="1.1" xmlns="http://www.w3.org/2000/svg" viewBox="0.0 0.0 29.700001 42.000001">
<path d="M7.236328125 10.582661607758592L7.653515625 10.341798292331045L13.285546875 13.593453050602928L13.285546875 13.95474802374425" stroke-width="0.03" stroke="#000000" fill="none"/>
<path d="M13.285546875 13.593453050602928L12.868359374999999 13.834316366030475L7.236328125 10.582661607758592L7.236328125 11.425683211755006L8.175 11.967625671466987" stroke-width="0.03" stroke="#000000" fill="none"/>
<path d="M7.96640625 12.08805732918076L6.5062500000000005 11.245035725184344" stroke-width="0.03" stroke="#000000" fill="none"/>
<path d="M7.236328125 10.823524923186138L2.2300781249999995 13.713884708316701L2.2300781249999995 19.49460427857783" stroke-width="0.03" stroke="#000000" fill="none"/>
<path d="M2.021484375 19.615035936291605L2.7515624999999995 19.193525134293395L3.6902343750000006 19.735467594005378" stroke-width="0.03" stroke="#000000" fill="none"/>
<path d="M3.6902343750000006 19.49460427857783L2.2300781249999995 18.651582674581416" stroke-width="0.03" stroke="#000000" fill="none"/>
<path d="M2.021484375 19.615035936291605L2.021484375 20.096762567146698L7.653515625 23.348417325418584L7.96640625 23.167769838847924" stroke-width="0.03" stroke="#000000" fill="none"/>
<path d="M7.653515625 23.348417325418584L7.653515625 22.866690694563488L2.021484375 19.615035936291605" stroke-width="0.03" stroke="#000000" fill="none"/>
<path d="M2.2300781249999995 20.21719422486047L2.2300781249999995 21.42151080199821L2.3343750000000005 21.481726630855093" stroke-width="0.03" stroke="#000000" fill="none"/>
<path d="M2.3343750000000005 20.63870502685868L2.647265625000001 20.458057540288017" stroke-width="0.03" stroke="#000000" fill="none"/>
<path d="M2.3343750000000005 20.63870502685868L2.3343750000000005 24.85381304684075L2.438671874999999 24.914028875697635L2.438671874999999 26.96136705683179L3.481640624999999 27.563525345400656L3.481640624999999 28.767841922538388L5.254687500000001 29.791511013105463L5.254687500000001 29.91194267081924L8.905078125 32.01949668081028L9.21796875 31.838849194239618" stroke-width="0.03" stroke="#000000" fill="none"/>
<path d="M8.905078125 32.01949668081028L8.905078125 30.45388513053122" stroke-width="0.03" stroke="#000000" fill="none"/>
<path d="M8.80078125 30.152805986246786L8.905078125 30.0925901573899L8.905078125 29.249568553393484L8.487890625 29.008705237965938L8.38359375 29.068921066822824L8.38359375 29.91194267081924L8.80078125 30.152805986246786L8.80078125 29.30978438225037L8.905078125 29.249568553393484" stroke-width="0.03" stroke="#000000" fill="none"/>
<path d="M8.80078125 29.30978438225037L8.38359375 29.068921066822824" stroke-width="0.03" stroke="#000000" fill="none"/>
<path d="M8.175 29.91194267081924L8.175 27.985036147398862L8.279296875 27.92482031854198L9.21796875 28.46676277825396" stroke-width="0.03" stroke="#000000" fill="none"/>
<path d="M9.21796875 28.346331120540185L7.96640625 27.623741174257542L8.070703124999998 27.563525345400656L8.070703124999998 27.081798714545563L6.193359375 25.9979137951216L5.984765624999999 26.118345452835374L5.984765624999999 23.95057561398745L2.8558593750000005 22.14410074828085L3.064453125 22.023669090567072L3.6902343750000006 22.384964063708395" stroke-width="0.03" stroke="#000000" fill="none"/>
<path d="M3.7945312499999995 22.32474823485151L3.7945312499999995 21.120431657713773" stroke-width="0.03" stroke="#000000" fill="none"/>
<path d="M3.6902343750000006 21.060215828856883L3.6902343750000006 22.50539572142217L5.671875 23.649496469703017L5.776171874999998 23.58928064084613L5.776171874999998 22.264532405994622" stroke-width="0.03" stroke="#000000" fill="none"/>
<path d="M5.671875 22.204316577137735L5.671875 23.649496469703017" stroke-width="0.03" stroke="#000000" fill="none"/>
<path d="M5.776171874999998 23.58928064084613L6.193359375 23.830143956273677L6.193359375 25.9979137951216" stroke-width="0.03" stroke="#000000" fill="none"/>
<path d="M5.984765624999999 26.118345452835374L7.862109374999999 27.202230372259333L8.070703124999998 27.081798714545563" stroke-width="0.03" stroke="#000000" fill="none"/>
<path d="M7.862109374999999 27.202230372259333L7.862109374999999 30.815180103672542L4.524609375000001 28.888273580252164L4.524609375000001 26.96136705683179L2.8558593750000005 25.9979137951216L2.8558593750000005 22.14410074828085" stroke-width="0.03" stroke="#000000" fill="none"/>
<path d="M3.7945312499999995 22.32474823485151L5.46328125 23.288201496561694L5.567578125 23.227985667704807L5.567578125 22.14410074828085" stroke-width="0.03" stroke="#000000" fill="none"/>
<path d="M5.46328125 22.08388491942396L5.46328125 23.288201496561694" stroke-width="0.03" stroke="#000000" fill="none"/>
<path d="M5.984765624999999 23.95057561398745L6.193359375 23.830143956273677" stroke-width="0.03" stroke="#000000" fill="none"/>
<path d="M7.653515625 22.866690694563488L7.96640625 22.686043207992828" stroke-width="0.03" stroke="#000000" fill="none"/>
<path d="M7.96640625 22.565611550279055L5.776171874999998 21.301079144284433L5.776171874999998 17.808561070585L5.671875 17.748345241728117L5.567578125 17.808561070585L5.567578125 21.301079144284433L5.46328125 21.36129497314132L3.7945312499999995 20.397841711431134L3.7945312499999995 15.098848772025098L4.211718750000001 14.85798545659755L4.211718750000001 14.376258825742458L8.80078125 11.72676235603944L10.46953125 12.690215617749628L10.46953125 12.8106472754634L10.573828124999999 12.87086310432029L10.573828124999999 12.991294762034062L7.5492187500000005 14.737553798883777L7.4449218749999995 14.67733797002689L7.4449218749999995 14.556906312313117L10.46953125 12.8106472754634" stroke-width="0.03" stroke="#000000" fill="none"/>
<path d="M10.46953125 12.690215617749628L5.88046875 15.339712087452645L5.88046875 15.82143871830774L5.46328125 16.062302033735286L3.7945312499999995 15.098848772025098" stroke-width="0.03" stroke="#000000" fill="none"/>
<path d="M4.211718750000001 14.85798545659755L5.88046875 15.82143871830774" stroke-width="0.03" stroke="#000000" fill="none"/>
<path d="M5.46328125 16.062302033735286L5.46328125 21.36129497314132" stroke-width="0.03" stroke="#000000" fill="none"/>
<path d="M5.567578125 21.301079144284433L5.671875 21.36129497314132L5.776171874999998 21.301079144284433" stroke-width="0.03" stroke="#000000" fill="none"/>
<path d="M5.671875 21.36129497314132L5.671875 17.86877689944189L5.776171874999998 17.808561070585" stroke-width="0.03" stroke="#000000" fill="none"/>
<path d="M5.671875 17.86877689944189L5.567578125 17.808561070585" stroke-width="0.03" stroke="#000000" fill="none"/>
<path d="M5.984765624999999 18.410719359153866L5.776171874999998 18.531151016867643" stroke-width="0.03" stroke="#000000" fill="none"/>
<path d="M5.776171874999998 18.651582674581416L8.38359375 20.156978396003588" stroke-width="0.03" stroke="#000000" fill="none"/>
<path d="M8.38359375 19.795683422862265L5.984765624999999 18.410719359153866L5.984765624999999 16.965539466588588L6.714843749999999 16.54402866459038L6.714843749999999 16.303165349162832L6.9234374999999995 16.18273369144906L8.696484375 17.206402782016134L8.696484375 17.44726609744368L11.095312499999999 18.832230161152076L9.948046875 19.49460427857783L9.948046875 20.458057540288017L10.05234375 20.397841711431134L10.05234375 19.554820107434715L11.199609375 18.892445990008962L12.868359374999999 19.85589925171915L11.72109375 20.518273369144907L11.72109375 22.8064748657066L13.702734374999999 23.95057561398745L13.702734374999999 25.877482137407824L12.97265625 25.45597133540962L12.868359374999999 25.51618716426651L12.868359374999999 26.479640425976694L13.702734374999999 26.96136705683179L14.85 26.29899293940603L15.997265625 26.96136705683179L16.831640625 26.479640425976694L16.831640625 25.51618716426651L16.72734375 25.45597133540962L15.997265625 25.877482137407824L14.85 25.215108019982072L13.702734374999999 25.877482137407824" stroke-width="0.03" stroke="#000000" fill="none"/>
<path d="M13.702734374999999 25.9979137951216L14.85 25.335539677695845L15.997265625 25.9979137951216L15.997265625 27.804388660828202L19.543359374999998 25.75705047969405L19.543359374999998 23.709712298559904L21.31640625 22.686043207992828L21.31640625 18.59136684572453L20.169140624999997 17.928992728298773L20.169140624999997 16.60424449344727L16.623046875 14.556906312313117L14.85 15.580575402880193L13.076953125000001 14.556906312313117L9.530859375 16.60424449344727L9.530859375 17.928992728298773L8.38359375 18.59136684572453L8.38359375 22.686043207992828L10.156640625 23.709712298559904L10.156640625 25.75705047969405L13.702734374999999 27.804388660828202L14.85 27.142014543402446L15.997265625 27.804388660828202" stroke-width="0.03" stroke="#000000" fill="none"/>
<path d="M15.788671874999999 27.68395700311443L15.788671874999999 30.694748445958766L17.040234375 29.972158499676127L17.248828125 30.0925901573899" stroke-width="0.03" stroke="#000000" fill="none"/>
<path d="M17.353125 30.032374328533013L17.353125 27.021582885688677" stroke-width="0.03" stroke="#000000" fill="none"/>
<path d="M17.040234375 27.202230372259333L17.040234375 29.972158499676127" stroke-width="0.03" stroke="#000000" fill="none"/>
<path d="M16.72734375 30.514100959388106L19.751953125 28.767841922538388L19.751953125 28.888273580252164L19.85625 28.94848940910905L19.85625 30.87539593252943L15.267187499999999 33.52489240223244L14.85 33.2840290868049L14.4328125 33.52489240223244L9.84375 30.87539593252943L9.84375 28.94848940910905L9.948046875 28.888273580252164L9.948046875 28.767841922538388L10.05234375 28.7076260936815L13.076953125000001 30.45388513053122L13.076953125000001 30.574316788244992L12.97265625 30.63453261710188L9.948046875 28.888273580252164" stroke-width="0.03" stroke="#000000" fill="none"/>
<path d="M9.84375 28.94848940910905L14.4328125 31.597985878812068L14.85 31.35712256338452L15.267187499999999 31.597985878812068L19.85625 28.94848940910905" stroke-width="0.03" stroke="#000000" fill="none"/>
<path d="M19.751953125 28.888273580252164L16.72734375 30.63453261710188L16.623046875 30.574316788244992L16.623046875 30.45388513053122L19.647656249999997 28.7076260936815L19.751953125 28.767841922538388" stroke-width="0.03" stroke="#000000" fill="none"/>
<path d="M19.647656249999997 28.7076260936815L19.647656249999997 26.17856128169226" stroke-width="0.03" stroke="#000000" fill="none"/>
<path d="M19.751953125 26.118345452835374L20.064843749999998 26.29899293940603L20.482031250000002 26.058129623978488L20.482031250000002 32.56143914052225L20.064843749999998 32.8023024559498L19.334765625 32.3807916539516L19.334765625 31.296906734527635" stroke-width="0.03" stroke="#000000" fill="none"/>
<path d="M19.126171875 31.41733839224141L19.126171875 33.103381600234236" stroke-width="0.03" stroke="#000000" fill="none"/>
<path d="M19.85625 32.68187079823603L14.85 35.57223058336659L9.84375 32.68187079823603" stroke-width="0.03" stroke="#000000" fill="none"/>
<path d="M9.63515625 32.8023024559498L10.365234375 32.3807916539516L10.365234375 31.296906734527635" stroke-width="0.03" stroke="#000000" fill="none"/>
<path d="M10.573828124999999 31.41733839224141L10.573828124999999 33.103381600234236" stroke-width="0.03" stroke="#000000" fill="none"/>
<path d="M9.63515625 32.8023024559498L9.63515625 26.29899293940603L9.21796875 26.058129623978488L9.21796875 32.56143914052225L9.63515625 32.8023024559498" stroke-width="0.03" stroke="#000000" fill="none"/>
<path d="M9.21796875 32.32057582509471L8.175 31.71841753652584L8.175 31.597985878812068" stroke-width="0.03" stroke="#000000" fill="none"/>
<path d="M7.862109374999999 30.815180103672542L8.070703124999998 30.694748445958766L8.070703124999998 29.972158499676127" stroke-width="0.03" stroke="#000000" fill="none"/>
<path d="M7.96640625 29.91194267081924L7.96640625 27.623741174257542" stroke-width="0.03" stroke="#000000" fill="none"/>
<path d="M8.070703124999998 27.563525345400656L9.21796875 28.22589946282641" stroke-width="0.03" stroke="#000000" fill="none"/>
<path d="M9.21796875 28.58719443596773L8.175 27.985036147398862" stroke-width="0.03" stroke="#000000" fill="none"/>
<path d="M8.175 29.91194267081924L9.21796875 30.514100959388106" stroke-width="0.03" stroke="#000000" fill="none"/>
<path d="M9.21796875 30.63453261710188L7.96640625 29.91194267081924" stroke-width="0.03" stroke="#000000" fill="none"/>
<path d="M9.948046875 30.935611761386316L9.948046875 31.056043419100085L14.85 33.886187375373765L14.85 35.57223058336659" stroke-width="0.03" stroke="#000000" fill="none"/>
<path d="M14.85 33.886187375373765L19.751953125 31.056043419100085L19.751953125 30.935611761386316" stroke-width="0.03" stroke="#000000" fill="none"/>
<path d="M20.482031250000002 30.63453261710188L21.733593749999997 29.91194267081924L21.733593749999997 27.623741174257542L21.629296875 27.563525345400656L21.629296875 27.081798714545563L23.506640625 25.9979137951216L23.715234375 26.118345452835374L23.715234375 23.95057561398745L26.844140625 22.14410074828085L26.635546875 22.023669090567072L26.009765625 22.384964063708395" stroke-width="0.03" stroke="#000000" fill="none"/>
<path d="M25.90546875 22.32474823485151L24.23671875 23.288201496561694L24.132421875000002 23.227985667704807L24.132421875000002 22.14410074828085" stroke-width="0.03" stroke="#000000" fill="none"/>
<path d="M24.23671875 22.08388491942396L24.23671875 23.288201496561694" stroke-width="0.03" stroke="#000000" fill="none"/>
<path d="M24.028125 23.649496469703017L26.009765625 22.50539572142217L26.009765625 21.060215828856883" stroke-width="0.03" stroke="#000000" fill="none"/>
<path d="M25.90546875 21.120431657713773L25.90546875 22.32474823485151" stroke-width="0.03" stroke="#000000" fill="none"/>
<path d="M25.801171875 22.14410074828085L25.07109375 22.565611550279055L24.966796875000004 22.50539572142217L24.966796875000004 22.023669090567072L25.696875000000002 21.602158288568866L25.801171875 21.662374117425752L25.801171875 22.14410074828085" stroke-width="0.03" stroke="#000000" fill="none"/>
<path d="M25.801171875 21.662374117425752L25.07109375 22.08388491942396L25.07109375 22.565611550279055" stroke-width="0.03" stroke="#000000" fill="none"/>
<path d="M25.07109375 22.08388491942396L24.966796875000004 22.023669090567072" stroke-width="0.03" stroke="#000000" fill="none"/>
<path d="M24.028125 22.204316577137735L24.028125 23.649496469703017L23.923828125000004 23.58928064084613L23.923828125000004 22.264532405994622" stroke-width="0.03" stroke="#000000" fill="none"/>
<path d="M24.028125 21.36129497314132L24.132421875000002 21.301079144284433L24.23671875 21.36129497314132L25.90546875 20.397841711431134L25.90546875 15.098848772025098L25.48828125 14.85798545659755L25.48828125 14.376258825742458L20.89921875 11.72676235603944L19.23046875 12.690215617749628L19.23046875 12.8106472754634L19.126171875 12.87086310432029L19.126171875 12.991294762034062L22.150781249999998 14.737553798883777L22.255078124999997 14.67733797002689L22.255078124999997 14.556906312313117L19.23046875 12.8106472754634" stroke-width="0.03" stroke="#000000" fill="none"/>
<path d="M19.23046875 12.690215617749628L23.819531249999997 15.339712087452645L25.48828125 14.376258825742458" stroke-width="0.03" stroke="#000000" fill="none"/>
<path d="M25.48828125 14.85798545659755L23.819531249999997 15.82143871830774L23.819531249999997 15.339712087452645" stroke-width="0.03" stroke="#000000" fill="none"/>
<path d="M23.819531249999997 15.82143871830774L24.23671875 16.062302033735286L25.90546875 15.098848772025098" stroke-width="0.03" stroke="#000000" fill="none"/>
<path d="M26.009765625 14.556906312313117L27.469921874999997 13.713884708316701L22.463671875 10.823524923186138" stroke-width="0.03" stroke="#000000" fill="none"/>
<path d="M22.463671875 10.582661607758592L16.831640625 13.834316366030475L16.831640625 14.195611339171796" stroke-width="0.03" stroke="#000000" fill="none"/>
<path d="M16.9359375 14.255827168028683L19.126171875 12.991294762034062" stroke-width="0.03" stroke="#000000" fill="none"/>
<path d="M19.126171875 12.87086310432029L22.150781249999998 14.617122141170004L22.150781249999998 14.737553798883777" stroke-width="0.03" stroke="#000000" fill="none"/>
<path d="M22.150781249999998 14.617122141170004L22.255078124999997 14.556906312313117" stroke-width="0.03" stroke="#000000" fill="none"/>
<path d="M21.525000000000002 14.617122141170004L19.126171875 16.0020862048784" stroke-width="0.03" stroke="#000000" fill="none"/>
<path d="M19.23046875 16.062302033735286L19.647656249999997 15.82143871830774L20.064843749999998 16.062302033735286L20.064843749999998 16.303165349162832L19.85625 16.423597006876605" stroke-width="0.03" stroke="#000000" fill="none"/>
<path d="M19.647656249999997 16.303165349162832L20.064843749999998 16.062302033735286" stroke-width="0.03" stroke="#000000" fill="none"/>
<path d="M20.169140624999997 16.60424449344727L18.6046875 17.50748192630057L18.6046875 18.832230161152076L19.751953125 19.49460427857783L19.751953125 20.458057540288017L19.647656249999997 20.397841711431134L19.647656249999997 19.554820107434715L18.500390624999998 18.892445990008962L16.831640625 19.85589925171915L17.978906249999998 20.518273369144907L17.978906249999998 22.8064748657066L15.997265625 23.95057561398745L15.997265625 25.877482137407824" stroke-width="0.03" stroke="#000000" fill="none"/>
<path d="M15.997265625 25.9979137951216L16.831640625 25.51618716426651" stroke-width="0.03" stroke="#000000" fill="none"/>
<path d="M16.9359375 27.26244620111622L16.9359375 27.744172831971316L16.51875 27.985036147398862L16.31015625 27.864604489685092L16.31015625 27.623741174257542" stroke-width="0.03" stroke="#000000" fill="none"/>
<path d="M16.51875 27.50330951654377L16.51875 27.985036147398862" stroke-width="0.03" stroke="#000000" fill="none"/>
<path d="M15.05859375 28.22589946282641L14.85 28.346331120540185L14.85 30.393669301674333L15.05859375 30.273237643960556L15.05859375 28.22589946282641L14.85 28.105467805112635L14.64140625 28.22589946282641L14.64140625 30.273237643960556L14.85 30.393669301674333" stroke-width="0.03" stroke="#000000" fill="none"/>
<path d="M14.64140625 30.273237643960556L13.911328125 30.694748445958766L12.659765624999999 29.972158499676127L12.451171875 30.0925901573899" stroke-width="0.03" stroke="#000000" fill="none"/>
<path d="M12.346874999999999 30.032374328533013L12.346874999999999 27.021582885688677" stroke-width="0.03" stroke="#000000" fill="none"/>
<path d="M12.659765624999999 27.202230372259333L12.659765624999999 29.972158499676127" stroke-width="0.03" stroke="#000000" fill="none"/>
<path d="M12.97265625 30.514100959388106L13.076953125000001 30.45388513053122" stroke-width="0.03" stroke="#000000" fill="none"/>
<path d="M12.97265625 30.514100959388106L12.97265625 30.63453261710188" stroke-width="0.03" stroke="#000000" fill="none"/>
<path d="M12.97265625 30.514100959388106L9.948046875 28.767841922538388" stroke-width="0.03" stroke="#000000" fill="none"/>
<path d="M10.05234375 28.7076260936815L10.05234375 26.17856128169226" stroke-width="0.03" stroke="#000000" fill="none"/>
<path d="M9.948046875 26.118345452835374L9.63515625 26.29899293940603" stroke-width="0.03" stroke="#000000" fill="none"/>
<path d="M9.530859375 25.877482137407824L9.21796875 26.058129623978488" stroke-width="0.03" stroke="#000000" fill="none"/>
<path d="M9.009374999999999 25.576402993123395L9.009374999999999 24.37208641598566L7.96640625 23.76992812741679L7.96640625 21.843021603996412L8.070703124999998 21.782805775139526L8.38359375 21.96345326171019" stroke-width="0.03" stroke="#000000" fill="none"/>
<path d="M8.38359375 22.08388491942396L7.96640625 21.843021603996412" stroke-width="0.03" stroke="#000000" fill="none"/>
<path d="M9.113671875 19.976330909432924L9.113671875 19.01287764772274L10.260937499999999 18.350503530296983L10.260937499999999 17.025755295445475L11.095312499999999 16.54402866459038L11.9296875 17.025755295445475L11.9296875 17.146186953159244L11.199609375 17.567697755157454L11.199609375 18.892445990008962" stroke-width="0.03" stroke="#000000" fill="none"/>
<path d="M11.095312499999999 18.832230161152076L11.095312499999999 17.50748192630057L11.9296875 17.025755295445475" stroke-width="0.03" stroke="#000000" fill="none"/>
<path d="M11.199609375 17.567697755157454L12.868359374999999 18.531151016867643L12.868359374999999 19.85589925171915" stroke-width="0.03" stroke="#000000" fill="none"/>
<path d="M12.868359374999999 19.976330909432924L12.555468750000001 20.156978396003588L12.555468750000001 20.518273369144907L13.389843749999999 21" stroke-width="0.03" stroke="#000000" fill="none"/>
<path d="M13.181249999999999 21.120431657713773L14.119921875 20.57848919800179L14.119921875 19.49460427857783L14.4328125 19.31395679200717L14.745703124999999 19.49460427857783L14.745703124999999 20.57848919800179L14.85 20.518273369144907L14.954296875 20.57848919800179L14.954296875 19.49460427857783L15.267187499999999 19.31395679200717L15.580078125 19.49460427857783L15.580078125 20.57848919800179L15.267187499999999 20.759136684572454L16.205859375 21.301079144284433L16.51875 21.120431657713773L16.51875 21.481726630855093L16.205859375 21.662374117425752L15.267187499999999 21.120431657713773L15.267187499999999 21.240863315427546L15.162890625 21.301079144284433L16.1015625 21.843021603996412L16.1015625 22.204316577137735L15.788671874999999 22.384964063708395L14.85 21.843021603996412L14.85 21.481726630855093L13.911328125 22.023669090567072L13.598437500000001 21.843021603996412L13.598437500000001 22.204316577137735L13.911328125 22.384964063708395L14.85 21.843021603996412" stroke-width="0.03" stroke="#000000" fill="none"/>
<path d="M14.745703124999999 21.903237432853302L14.745703124999999 23.227985667704807L14.4328125 23.40863315427547L14.119921875 23.227985667704807L14.119921875 22.264532405994622" stroke-width="0.03" stroke="#000000" fill="none"/>
<path d="M13.911328125 22.384964063708395L13.911328125 22.023669090567072" stroke-width="0.03" stroke="#000000" fill="none"/>
<path d="M13.598437500000001 21.843021603996412L14.537109375 21.301079144284433L14.4328125 21.240863315427546L14.4328125 21.120431657713773L13.494140625 21.662374117425752L13.181249999999999 21.481726630855093L13.181249999999999 21.120431657713773L13.494140625 21.301079144284433L14.4328125 20.759136684572454L14.4328125 19.67525176514849L14.745703124999999 19.49460427857783" stroke-width="0.03" stroke="#000000" fill="none"/>
<path d="M14.954296875 19.49460427857783L15.267187499999999 19.67525176514849L15.267187499999999 20.759136684572454" stroke-width="0.03" stroke="#000000" fill="none"/>
<path d="M14.954296875 20.939784171143113L14.954296875 21.060215828856883L14.85 21.120431657713773L14.745703124999999 21.060215828856883L14.745703124999999 20.939784171143113L14.85 20.879568342286227L14.954296875 20.939784171143113" stroke-width="0.03" stroke="#000000" fill="none"/>
<path d="M14.85 21L14.4328125 21.240863315427546" stroke-width="0.03" stroke="#000000" fill="none"/>
<path d="M14.119921875 21.42151080199821L11.72109375 22.8064748657066" stroke-width="0.03" stroke="#000000" fill="none"/>
<path d="M10.156640625 24.071007271701223L9.84375 23.890359785130563L9.63515625 24.010791442844337L10.156640625 24.311870587128773" stroke-width="0.03" stroke="#000000" fill="none"/>
<path d="M9.84375 23.890359785130563L9.84375 23.529064811989244" stroke-width="0.03" stroke="#000000" fill="none"/>
<path d="M9.63515625 23.40863315427547L9.63515625 24.010791442844337" stroke-width="0.03" stroke="#000000" fill="none"/>
<path d="M9.009374999999999 25.576402993123395L10.678125 26.53985625483358L10.782421874999999 26.479640425976694L10.782421874999999 26.118345452835374" stroke-width="0.03" stroke="#000000" fill="none"/>
<path d="M10.678125 26.058129623978488L10.678125 26.53985625483358" stroke-width="0.03" stroke="#000000" fill="none"/>
<path d="M12.7640625 27.26244620111622L12.7640625 27.744172831971316L13.181249999999999 27.985036147398862L13.389843749999999 27.864604489685092L13.389843749999999 27.623741174257542" stroke-width="0.03" stroke="#000000" fill="none"/>
<path d="M13.181249999999999 27.50330951654377L13.181249999999999 27.985036147398862" stroke-width="0.03" stroke="#000000" fill="none"/>
<path d="M13.702734374999999 27.804388660828202L13.702734374999999 25.9979137951216L12.868359374999999 25.51618716426651" stroke-width="0.03" stroke="#000000" fill="none"/>
<path d="M13.702734374999999 23.95057561398745L14.85 23.288201496561694L15.997265625 23.95057561398745" stroke-width="0.03" stroke="#000000" fill="none"/>
<path d="M15.580078125 23.227985667704807L15.267187499999999 23.40863315427547L14.954296875 23.227985667704807L14.954296875 21.903237432853302" stroke-width="0.03" stroke="#000000" fill="none"/>
<path d="M15.267187499999999 22.08388491942396L15.267187499999999 23.40863315427547" stroke-width="0.03" stroke="#000000" fill="none"/>
<path d="M15.580078125 23.227985667704807L15.580078125 22.264532405994622" stroke-width="0.03" stroke="#000000" fill="none"/>
<path d="M15.788671874999999 22.384964063708395L15.788671874999999 22.023669090567072L14.85 21.481726630855093" stroke-width="0.03" stroke="#000000" fill="none"/>
<path d="M14.85 21L14.85 20.518273369144907" stroke-width="0.03" stroke="#000000" fill="none"/>
<path d="M14.85 20.156978396003588L14.954296875 20.096762567146698" stroke-width="0.03" stroke="#000000" fill="none"/>
<path d="M14.85 20.156978396003588L14.85 17.387050268586794L12.868359374999999 18.531151016867643" stroke-width="0.03" stroke="#000000" fill="none"/>
<path d="M13.285546875 19.253740963150285L12.97265625 19.434388449720945L12.97265625 19.795683422862265L14.119921875 20.458057540288017" stroke-width="0.03" stroke="#000000" fill="none"/>
<path d="M14.119921875 20.57848919800179L14.4328125 20.759136684572454" stroke-width="0.03" stroke="#000000" fill="none"/>
<path d="M14.015625 20.63870502685868L12.868359374999999 19.976330909432924" stroke-width="0.03" stroke="#000000" fill="none"/>
<path d="M12.555468750000001 20.156978396003588L13.702734374999999 20.819352513429337" stroke-width="0.03" stroke="#000000" fill="none"/>
<path d="M13.494140625 21.301079144284433L13.494140625 21.662374117425752" stroke-width="0.03" stroke="#000000" fill="none"/>
<path d="M14.015625 21.36129497314132L14.119921875 21.42151080199821L14.119921875 21.54194245971198" stroke-width="0.03" stroke="#000000" fill="none"/>
<path d="M14.4328125 22.08388491942396L14.4328125 23.40863315427547" stroke-width="0.03" stroke="#000000" fill="none"/>
<path d="M14.85 23.288201496561694L14.85 25.215108019982072" stroke-width="0.03" stroke="#000000" fill="none"/>
<path d="M14.85 25.335539677695845L14.85 28.105467805112635" stroke-width="0.03" stroke="#000000" fill="none"/>
<path d="M14.64140625 28.22589946282641L14.85 28.346331120540185" stroke-width="0.03" stroke="#000000" fill="none"/>
<path d="M13.911328125 27.68395700311443L13.911328125 30.694748445958766" stroke-width="0.03" stroke="#000000" fill="none"/>
<path d="M14.4328125 31.597985878812068L14.4328125 33.52489240223244" stroke-width="0.03" stroke="#000000" fill="none"/>
<path d="M14.85 33.2840290868049L14.85 31.35712256338452" stroke-width="0.03" stroke="#000000" fill="none"/>
<path d="M15.267187499999999 31.597985878812068L15.267187499999999 33.52489240223244" stroke-width="0.03" stroke="#000000" fill="none"/>
<path d="M16.623046875 32.74208662709292L16.72734375 32.8023024559498L16.72734375 32.68187079823603" stroke-width="0.03" stroke="#000000" fill="none"/>
<path d="M16.9359375 32.68187079823603L16.9359375 34.00661903308754L17.14453125 34.12705069080131L17.457421875 33.94640320423065L17.457421875 32.3807916539516" stroke-width="0.03" stroke="#000000" fill="none"/>
<path d="M17.56171875 32.32057582509471L17.56171875 34.00661903308754L17.457421875 33.94640320423065" stroke-width="0.03" stroke="#000000" fill="none"/>
<path d="M17.14453125 34.12705069080131L17.14453125 32.56143914052225" stroke-width="0.03" stroke="#000000" fill="none"/>
<path d="M16.72734375 30.63453261710188L16.72734375 30.514100959388106L16.623046875 30.45388513053122" stroke-width="0.03" stroke="#000000" fill="none"/>
<path d="M15.788671874999999 30.694748445958766L15.05859375 30.273237643960556" stroke-width="0.03" stroke="#000000" fill="none"/>
<path d="M13.076953125000001 32.74208662709292L12.97265625 32.8023024559498L12.97265625 32.68187079823603" stroke-width="0.03" stroke="#000000" fill="none"/>
<path d="M12.7640625 32.68187079823603L12.7640625 34.00661903308754L12.555468750000001 34.12705069080131L12.242578125 33.94640320423065L12.242578125 32.3807916539516" stroke-width="0.03" stroke="#000000" fill="none"/>
<path d="M12.138281249999999 32.32057582509471L12.138281249999999 34.00661903308754L12.242578125 33.94640320423065" stroke-width="0.03" stroke="#000000" fill="none"/>
<path d="M12.555468750000001 34.12705069080131L12.555468750000001 32.56143914052225" stroke-width="0.03" stroke="#000000" fill="none"/>
<path d="M20.064843749999998 32.8023024559498L20.064843749999998 26.29899293940603" stroke-width="0.03" stroke="#000000" fill="none"/>
<path d="M20.169140624999997 25.877482137407824L20.482031250000002 26.058129623978488" stroke-width="0.03" stroke="#000000" fill="none"/>
<path d="M20.690625 25.576402993123395L19.021874999999998 26.53985625483358L18.917578125000002 26.479640425976694L18.917578125000002 26.118345452835374" stroke-width="0.03" stroke="#000000" fill="none"/>
<path d="M19.021874999999998 26.058129623978488L19.021874999999998 26.53985625483358" stroke-width="0.03" stroke="#000000" fill="none"/>
<path d="M20.690625 25.576402993123395L20.690625 24.37208641598566L21.733593749999997 23.76992812741679L21.733593749999997 21.843021603996412L21.629296875 21.782805775139526L21.31640625 21.96345326171019" stroke-width="0.03" stroke="#000000" fill="none"/>
<path d="M21.31640625 22.08388491942396L21.733593749999997 21.843021603996412" stroke-width="0.03" stroke="#000000" fill="none"/>
<path d="M21.733593749999997 22.565611550279055L23.923828125000004 21.301079144284433L23.923828125000004 17.808561070585L24.028125 17.748345241728117L24.132421875000002 17.808561070585L24.132421875000002 21.301079144284433" stroke-width="0.03" stroke="#000000" fill="none"/>
<path d="M24.23671875 21.36129497314132L24.23671875 16.062302033735286" stroke-width="0.03" stroke="#000000" fill="none"/>
<path d="M23.715234375 16.965539466588588L21.107812499999998 18.470935188010756" stroke-width="0.03" stroke="#000000" fill="none"/>
<path d="M21.31640625 18.59136684572453L19.751953125 19.49460427857783" stroke-width="0.03" stroke="#000000" fill="none"/>
<path d="M19.647656249999997 19.554820107434715L17.978906249999998 20.518273369144907" stroke-width="0.03" stroke="#000000" fill="none"/>
<path d="M17.14453125 20.518273369144907L16.31015625 21" stroke-width="0.03" stroke="#000000" fill="none"/>
<path d="M16.51875 21.120431657713773L15.580078125 20.57848919800179" stroke-width="0.03" stroke="#000000" fill="none"/>
<path d="M15.580078125 20.458057540288017L16.72734375 19.795683422862265L16.72734375 19.434388449720945L16.414453125 19.253740963150285L15.580078125 19.735467594005378" stroke-width="0.03" stroke="#000000" fill="none"/>
<path d="M15.580078125 19.49460427857783L15.267187499999999 19.67525176514849" stroke-width="0.03" stroke="#000000" fill="none"/>
<path d="M15.580078125 20.096762567146698L16.72734375 19.434388449720945" stroke-width="0.03" stroke="#000000" fill="none"/>
<path d="M16.831640625 19.85589925171915L16.831640625 18.531151016867643L18.500390624999998 17.567697755157454L17.7703125 17.146186953159244L17.7703125 17.025755295445475L18.6046875 16.54402866459038L19.439062500000002 17.025755295445475L19.439062500000002 18.350503530296983L20.586328125 19.01287764772274L20.586328125 19.976330909432924L19.751953125 20.458057540288017" stroke-width="0.03" stroke="#000000" fill="none"/>
<path d="M21.31640625 20.156978396003588L23.923828125000004 18.651582674581416" stroke-width="0.03" stroke="#000000" fill="none"/>
<path d="M23.923828125000004 18.531151016867643L23.715234375 18.410719359153866L23.715234375 16.965539466588588L22.98515625 16.54402866459038L22.98515625 16.303165349162832L22.7765625 16.18273369144906L22.7765625 15.339712087452645L21.525000000000002 14.617122141170004L21.525000000000002 14.376258825742458" stroke-width="0.03" stroke="#000000" fill="none"/>
<path d="M21.420703125 14.31604299688557L18.81328125 15.82143871830774" stroke-width="0.03" stroke="#000000" fill="none"/>
<path d="M17.7703125 17.025755295445475L18.6046875 17.50748192630057" stroke-width="0.03" stroke="#000000" fill="none"/>
<path d="M18.500390624999998 17.567697755157454L18.500390624999998 18.892445990008962" stroke-width="0.03" stroke="#000000" fill="none"/>
<path d="M18.6046875 18.832230161152076L21.003515625000002 17.44726609744368L21.003515625000002 17.206402782016134L22.7765625 16.18273369144906" stroke-width="0.03" stroke="#000000" fill="none"/>
<path d="M22.98515625 16.303165349162832L21.212109374999997 17.326834439729907L21.212109374999997 17.567697755157454L22.98515625 16.54402866459038" stroke-width="0.03" stroke="#000000" fill="none"/>
<path d="M22.7765625 15.339712087452645L20.169140624999997 16.845107808874815" stroke-width="0.03" stroke="#000000" fill="none"/>
<path d="M21.003515625000002 17.206402782016134L21.212109374999997 17.326834439729907" stroke-width="0.03" stroke="#000000" fill="none"/>
<path d="M21.003515625000002 17.44726609744368L21.212109374999997 17.567697755157454" stroke-width="0.03" stroke="#000000" fill="none"/>
<path d="M21.525000000000002 18.832230161152076L21.31640625 18.95266181886585" stroke-width="0.03" stroke="#000000" fill="none"/>
<path d="M21.31640625 19.193525134293395L21.733593749999997 18.95266181886585L21.525000000000002 18.832230161152076" stroke-width="0.03" stroke="#000000" fill="none"/>
<path d="M21.733593749999997 18.95266181886585L21.733593749999997 19.434388449720945L21.31640625 19.67525176514849" stroke-width="0.03" stroke="#000000" fill="none"/>
<path d="M21.31640625 19.795683422862265L23.715234375 18.410719359153866" stroke-width="0.03" stroke="#000000" fill="none"/>
<path d="M24.028125 17.86877689944189L24.132421875000002 17.808561070585" stroke-width="0.03" stroke="#000000" fill="none"/>
<path d="M24.028125 17.86877689944189L24.028125 21.36129497314132L23.923828125000004 21.301079144284433" stroke-width="0.03" stroke="#000000" fill="none"/>
<path d="M26.009765625 21.42151080199821L27.365624999999998 20.63870502685868L27.052734375 20.458057540288017" stroke-width="0.03" stroke="#000000" fill="none"/>
<path d="M27.365624999999998 20.63870502685868L27.365624999999998 24.85381304684075L27.261328125 24.914028875697635L27.261328125 26.96136705683179L26.218359375 27.563525345400656L26.218359375 28.767841922538388L24.4453125 29.791511013105463L24.4453125 29.91194267081924L20.794921875 32.01949668081028L20.482031250000002 31.838849194239618" stroke-width="0.03" stroke="#000000" fill="none"/>
<path d="M20.794921875 32.01949668081028L20.794921875 30.45388513053122" stroke-width="0.03" stroke="#000000" fill="none"/>
<path d="M20.482031250000002 30.514100959388106L21.525000000000002 29.91194267081924L21.525000000000002 27.985036147398862L21.420703125 27.92482031854198L20.482031250000002 28.46676277825396" stroke-width="0.03" stroke="#000000" fill="none"/>
<path d="M20.482031250000002 28.346331120540185L21.733593749999997 27.623741174257542" stroke-width="0.03" stroke="#000000" fill="none"/>
<path d="M21.629296875 27.563525345400656L20.482031250000002 28.22589946282641" stroke-width="0.03" stroke="#000000" fill="none"/>
<path d="M20.482031250000002 28.58719443596773L21.525000000000002 27.985036147398862" stroke-width="0.03" stroke="#000000" fill="none"/>
<path d="M21.837890625 27.202230372259333L23.715234375 26.118345452835374" stroke-width="0.03" stroke="#000000" fill="none"/>
<path d="M23.506640625 25.9979137951216L23.506640625 23.830143956273677L23.923828125000004 23.58928064084613" stroke-width="0.03" stroke="#000000" fill="none"/>
<path d="M23.715234375 23.95057561398745L23.506640625 23.830143956273677" stroke-width="0.03" stroke="#000000" fill="none"/>
<path d="M22.046484375000002 23.348417325418584L27.678515625 20.096762567146698L27.678515625 19.615035936291605L26.9484375 19.193525134293395L26.009765625 19.735467594005378" stroke-width="0.03" stroke="#000000" fill="none"/>
<path d="M26.009765625 19.49460427857783L27.469921874999997 18.651582674581416" stroke-width="0.03" stroke="#000000" fill="none"/>
<path d="M27.469921874999997 19.49460427857783L27.469921874999997 13.713884708316701" stroke-width="0.03" stroke="#000000" fill="none"/>
<path d="M26.009765625 14.556906312313117L26.009765625 20.21719422486047L25.90546875 20.277410053717357" stroke-width="0.03" stroke="#000000" fill="none"/>
<path d="M27.469921874999997 20.21719422486047L27.469921874999997 21.42151080199821L27.365624999999998 21.481726630855093" stroke-width="0.03" stroke="#000000" fill="none"/>
<path d="M26.844140625 22.14410074828085L26.844140625 25.9979137951216L25.175390624999995 26.96136705683179L25.175390624999995 28.888273580252164L21.837890625 30.815180103672542L21.629296875 30.694748445958766L21.629296875 29.972158499676127" stroke-width="0.03" stroke="#000000" fill="none"/>
<path d="M21.31640625 29.91194267081924L20.89921875 30.152805986246786L20.794921875 30.0925901573899L20.794921875 29.249568553393484L21.212109374999997 29.008705237965938L21.31640625 29.068921066822824L21.31640625 29.91194267081924" stroke-width="0.03" stroke="#000000" fill="none"/>
<path d="M20.89921875 30.152805986246786L20.89921875 29.30978438225037L20.794921875 29.249568553393484" stroke-width="0.03" stroke="#000000" fill="none"/>
<path d="M20.89921875 29.30978438225037L21.31640625 29.068921066822824" stroke-width="0.03" stroke="#000000" fill="none"/>
<path d="M21.837890625 30.815180103672542L21.837890625 27.202230372259333L21.629296875 27.081798714545563" stroke-width="0.03" stroke="#000000" fill="none"/>
<path d="M20.064843749999998 24.010791442844337L19.543359374999998 24.311870587128773" stroke-width="0.03" stroke="#000000" fill="none"/>
<path d="M19.543359374999998 24.071007271701223L19.85625 23.890359785130563L20.064843749999998 24.010791442844337L20.064843749999998 23.40863315427547" stroke-width="0.03" stroke="#000000" fill="none"/>
<path d="M19.85625 23.529064811989244L19.85625 23.890359785130563" stroke-width="0.03" stroke="#000000" fill="none"/>
<path d="M21.733593749999997 23.167769838847924L22.046484375000002 23.348417325418584L22.046484375000002 22.866690694563488L27.678515625 19.615035936291605" stroke-width="0.03" stroke="#000000" fill="none"/>
<path d="M26.009765625 17.688129412871227L27.469921874999997 16.845107808874815L27.365624999999998 16.784891980017925L27.365624999999998 16.423597006876605L27.15703125 16.303165349162832L26.009765625 16.965539466588588" stroke-width="0.03" stroke="#000000" fill="none"/>
<path d="M25.90546875 16.784891980017925L26.009765625 16.72467615116104L25.90546875 16.66446032230415" stroke-width="0.03" stroke="#000000" fill="none"/>
<path d="M26.009765625 17.206402782016134L27.365624999999998 16.423597006876605" stroke-width="0.03" stroke="#000000" fill="none"/>
<path d="M27.365624999999998 16.784891980017925L26.009765625 17.567697755157454" stroke-width="0.03" stroke="#000000" fill="none"/>
<path d="M24.028125 17.86877689944189L23.923828125000004 17.808561070585" stroke-width="0.03" stroke="#000000" fill="none"/>
<path d="M26.009765625 14.556906312313117L21.107812499999998 11.72676235603944L21.003515625000002 11.786978184896327" stroke-width="0.03" stroke="#000000" fill="none"/>
<path d="M21.525000000000002 11.967625671466987L22.463671875 11.425683211755006L22.463671875 10.582661607758592L22.046484375000002 10.341798292331045L16.414453125 13.593453050602928L16.414453125 13.95474802374425" stroke-width="0.03" stroke="#000000" fill="none"/>
<path d="M16.414453125 13.593453050602928L16.831640625 13.834316366030475" stroke-width="0.03" stroke="#000000" fill="none"/>
<path d="M15.89296875 13.653668879459815L14.85 14.255827168028683L13.80703125 13.653668879459815L12.138281249999999 14.617122141170004L12.138281249999999 14.737553798883777L12.451171875 14.918201285454437" stroke-width="0.03" stroke="#000000" fill="none"/>
<path d="M12.555468750000001 14.85798545659755L12.138281249999999 14.617122141170004" stroke-width="0.03" stroke="#000000" fill="none"/>
<path d="M12.7640625 14.255827168028683L10.573828124999999 12.991294762034062" stroke-width="0.03" stroke="#000000" fill="none"/>
<path d="M10.573828124999999 12.87086310432029L7.5492187500000005 14.617122141170004L7.4449218749999995 14.556906312313117" stroke-width="0.03" stroke="#000000" fill="none"/>
<path d="M7.5492187500000005 14.617122141170004L7.5492187500000005 14.737553798883777" stroke-width="0.03" stroke="#000000" fill="none"/>
<path d="M8.175 14.617122141170004L6.9234374999999995 15.339712087452645L6.9234374999999995 16.18273369144906" stroke-width="0.03" stroke="#000000" fill="none"/>
<path d="M6.714843749999999 16.303165349162832L8.487890625 17.326834439729907L8.696484375 17.206402782016134" stroke-width="0.03" stroke="#000000" fill="none"/>
<path d="M8.696484375 17.44726609744368L8.487890625 17.567697755157454L6.714843749999999 16.54402866459038" stroke-width="0.03" stroke="#000000" fill="none"/>
<path d="M5.984765624999999 16.965539466588588L8.5921875 18.470935188010756" stroke-width="0.03" stroke="#000000" fill="none"/>
<path d="M8.38359375 18.59136684572453L9.948046875 19.49460427857783" stroke-width="0.03" stroke="#000000" fill="none"/>
<path d="M10.05234375 19.554820107434715L11.72109375 20.518273369144907" stroke-width="0.03" stroke="#000000" fill="none"/>
<path d="M12.97265625 19.434388449720945L14.119921875 20.096762567146698" stroke-width="0.03" stroke="#000000" fill="none"/>
<path d="M14.119921875 19.735467594005378L13.285546875 19.253740963150285" stroke-width="0.03" stroke="#000000" fill="none"/>
<path d="M14.119921875 19.49460427857783L14.4328125 19.67525176514849" stroke-width="0.03" stroke="#000000" fill="none"/>
<path d="M14.745703124999999 20.096762567146698L14.85 20.156978396003588" stroke-width="0.03" stroke="#000000" fill="none"/>
<path d="M14.85 21L15.267187499999999 21.240863315427546" stroke-width="0.03" stroke="#000000" fill="none"/>
<path d="M15.580078125 21.42151080199821L15.684375 21.36129497314132" stroke-width="0.03" stroke="#000000" fill="none"/>
<path d="M15.580078125 21.42151080199821L15.580078125 21.54194245971198" stroke-width="0.03" stroke="#000000" fill="none"/>
<path d="M15.580078125 21.42151080199821L17.978906249999998 22.8064748657066" stroke-width="0.03" stroke="#000000" fill="none"/>
<path d="M16.1015625 21.843021603996412L15.788671874999999 22.023669090567072" stroke-width="0.03" stroke="#000000" fill="none"/>
<path d="M16.205859375 21.662374117425752L16.205859375 21.301079144284433" stroke-width="0.03" stroke="#000000" fill="none"/>
<path d="M15.997265625 20.819352513429337L17.14453125 20.156978396003588L17.14453125 20.518273369144907" stroke-width="0.03" stroke="#000000" fill="none"/>
<path d="M17.14453125 20.156978396003588L16.831640625 19.976330909432924L15.684375 20.63870502685868" stroke-width="0.03" stroke="#000000" fill="none"/>
<path d="M16.831640625 18.531151016867643L14.85 17.387050268586794" stroke-width="0.03" stroke="#000000" fill="none"/>
<path d="M14.537109375 15.399927916309531L14.85 15.21928042973887L14.85 14.978417114311325L14.328515625 15.279496258595758" stroke-width="0.03" stroke="#000000" fill="none"/>
<path d="M14.85 15.21928042973887L15.162890625 15.399927916309531" stroke-width="0.03" stroke="#000000" fill="none"/>
<path d="M15.371484375 15.279496258595758L14.85 14.978417114311325" stroke-width="0.03" stroke="#000000" fill="none"/>
<path d="M15.89296875 13.653668879459815L17.56171875 14.617122141170004L17.56171875 14.737553798883777L17.248828125 14.918201285454437" stroke-width="0.03" stroke="#000000" fill="none"/>
<path d="M17.14453125 14.85798545659755L17.56171875 14.617122141170004" stroke-width="0.03" stroke="#000000" fill="none"/>
<path d="M18.291796875 12.509568131178968L17.14453125 11.847194013753214L16.72734375 12.08805732918076L14.85 11.004172409756798L14.85 10.763309094329252L12.97265625 11.847194013753214L12.97265625 12.08805732918076L12.555468750000001 11.847194013753214L11.408203125 12.509568131178968" stroke-width="0.03" stroke="#000000" fill="none"/>
<path d="M11.303906249999999 12.44935230232208L12.555468750000001 11.72676235603944L12.555468750000001 11.847194013753214" stroke-width="0.03" stroke="#000000" fill="none"/>
<path d="M12.555468750000001 11.72676235603944L10.573828124999999 10.582661607758592L9.322265625 11.305251554041233" stroke-width="0.03" stroke="#000000" fill="none"/>
<path d="M9.4265625 11.365467382898117L10.46953125 10.763309094329252L12.138281249999999 11.72676235603944L12.138281249999999 11.847194013753214L11.199609375 12.389136473465193" stroke-width="0.03" stroke="#000000" fill="none"/>
<path d="M11.095312499999999 12.328920644608306L12.138281249999999 11.72676235603944" stroke-width="0.03" stroke="#000000" fill="none"/>
<path d="M12.97265625 11.847194013753214L9.84375 10.04071914804661L13.181249999999999 8.113812624626235L14.85 9.077265886336422L16.51875 8.113812624626235L19.85625 10.04071914804661L19.85625 10.281582463474159L19.23046875 10.642877436615478" stroke-width="0.03" stroke="#000000" fill="none"/>
<path d="M19.126171875 10.582661607758592L17.14453125 11.72676235603944L17.14453125 11.847194013753214" stroke-width="0.03" stroke="#000000" fill="none"/>
<path d="M17.14453125 11.72676235603944L18.396093750000002 12.44935230232208" stroke-width="0.03" stroke="#000000" fill="none"/>
<path d="M18.500390624999998 12.389136473465193L17.56171875 11.847194013753214L17.56171875 11.72676235603944L19.23046875 10.763309094329252L20.2734375 11.365467382898117" stroke-width="0.03" stroke="#000000" fill="none"/>
<path d="M20.377734375 11.305251554041233L19.126171875 10.582661607758592" stroke-width="0.03" stroke="#000000" fill="none"/>
<path d="M19.334765625 10.943956580899911L18.6046875 11.365467382898117L18.6046875 11.485899040611892L19.021874999999998 11.72676235603944L19.751953125 11.305251554041233L19.751953125 11.184819896327458L19.334765625 10.943956580899911" stroke-width="0.03" stroke="#000000" fill="none"/>
<path d="M19.751953125 11.184819896327458L19.021874999999998 11.606330698325666L19.021874999999998 11.72676235603944" stroke-width="0.03" stroke="#000000" fill="none"/>
<path d="M19.021874999999998 11.606330698325666L18.6046875 11.365467382898117" stroke-width="0.03" stroke="#000000" fill="none"/>
<path d="M18.6046875 12.328920644608306L17.56171875 11.72676235603944" stroke-width="0.03" stroke="#000000" fill="none"/>
<path d="M16.72734375 11.847194013753214L19.85625 10.04071914804661" stroke-width="0.03" stroke="#000000" fill="none"/>
<path d="M20.690625 9.920287490332836L20.794921875 9.86007166147595L21.837890625 10.462229950044819" stroke-width="0.03" stroke="#000000" fill="none"/>
<path d="M21.420703125 10.341798292331045L20.064843749999998 11.124604067470571" stroke-width="0.03" stroke="#000000" fill="none"/>
<path d="M21.420703125 10.703093265472365L21.420703125 10.341798292331045L17.7703125 8.234244282340008L17.666015625 8.294460111196894L15.89296875 7.27079102062982L14.85 7.872949309198687L13.80703125 7.27079102062982L12.033984375000001 8.294460111196894L11.9296875 8.234244282340008L8.279296875 10.341798292331045L8.279296875 10.703093265472365" stroke-width="0.03" stroke="#000000" fill="none"/>
<path d="M8.279296875 10.341798292331045L9.63515625 11.124604067470571" stroke-width="0.03" stroke="#000000" fill="none"/>
<path d="M9.948046875 11.184819896327458L10.365234375 10.943956580899911L11.095312499999999 11.365467382898117L11.095312499999999 11.485899040611892L10.678125 11.72676235603944L9.948046875 11.305251554041233L9.948046875 11.184819896327458L10.678125 11.606330698325666L10.678125 11.72676235603944" stroke-width="0.03" stroke="#000000" fill="none"/>
<path d="M10.678125 11.606330698325666L11.095312499999999 11.365467382898117" stroke-width="0.03" stroke="#000000" fill="none"/>
<path d="M10.46953125 10.642877436615478L9.84375 10.281582463474159L9.84375 10.04071914804661" stroke-width="0.03" stroke="#000000" fill="none"/>
<path d="M9.009374999999999 9.920287490332836L8.905078125 9.86007166147595L7.862109374999999 10.462229950044819" stroke-width="0.03" stroke="#000000" fill="none"/>
<path d="M8.5921875 11.72676235603944L3.6902343750000006 14.556906312313117L3.6902343750000006 20.21719422486047L3.7945312499999995 20.277410053717357" stroke-width="0.03" stroke="#000000" fill="none"/>
<path d="M3.6902343750000006 21.42151080199821L2.3343750000000005 20.63870502685868" stroke-width="0.03" stroke="#000000" fill="none"/>
<path d="M3.898828125 21.662374117425752L4.003124999999999 21.602158288568866L4.733203124999998 22.023669090567072L4.733203124999998 22.50539572142217L4.62890625 22.565611550279055L3.898828125 22.14410074828085L3.898828125 21.662374117425752L4.62890625 22.08388491942396L4.62890625 22.565611550279055" stroke-width="0.03" stroke="#000000" fill="none"/>
<path d="M4.62890625 22.08388491942396L4.733203124999998 22.023669090567072" stroke-width="0.03" stroke="#000000" fill="none"/>
<path d="M7.96640625 19.434388449720945L7.96640625 18.95266181886585L8.175 18.832230161152076L8.38359375 18.95266181886585" stroke-width="0.03" stroke="#000000" fill="none"/>
<path d="M8.38359375 19.193525134293395L7.96640625 18.95266181886585" stroke-width="0.03" stroke="#000000" fill="none"/>
<path d="M7.96640625 19.434388449720945L8.38359375 19.67525176514849" stroke-width="0.03" stroke="#000000" fill="none"/>
<path d="M9.113671875 19.976330909432924L9.948046875 20.458057540288017" stroke-width="0.03" stroke="#000000" fill="none"/>
<path d="M11.095312499999999 17.50748192630057L9.530859375 16.60424449344727" stroke-width="0.03" stroke="#000000" fill="none"/>
<path d="M9.530859375 16.845107808874815L6.9234374999999995 15.339712087452645" stroke-width="0.03" stroke="#000000" fill="none"/>
<path d="M5.88046875 15.339712087452645L4.211718750000001 14.376258825742458" stroke-width="0.03" stroke="#000000" fill="none"/>
<path d="M3.6902343750000006 14.556906312313117L2.2300781249999995 13.713884708316701" stroke-width="0.03" stroke="#000000" fill="none"/>
<path d="M2.54296875 16.303165349162832L2.3343750000000005 16.423597006876605L2.3343750000000005 16.784891980017925L2.2300781249999995 16.845107808874815L3.6902343750000006 17.688129412871227" stroke-width="0.03" stroke="#000000" fill="none"/>
<path d="M3.6902343750000006 17.567697755157454L2.3343750000000005 16.784891980017925" stroke-width="0.03" stroke="#000000" fill="none"/>
<path d="M2.3343750000000005 16.423597006876605L3.6902343750000006 17.206402782016134" stroke-width="0.03" stroke="#000000" fill="none"/>
<path d="M3.6902343750000006 16.965539466588588L2.54296875 16.303165349162832" stroke-width="0.03" stroke="#000000" fill="none"/>
<path d="M3.6902343750000006 16.72467615116104L3.7945312499999995 16.66446032230415" stroke-width="0.03" stroke="#000000" fill="none"/>
<path d="M3.7945312499999995 16.784891980017925L3.6902343750000006 16.72467615116104" stroke-width="0.03" stroke="#000000" fill="none"/>
<path d="M5.567578125 13.593453050602928L5.567578125 13.473021392889155L5.671875 13.533237221746042" stroke-width="0.03" stroke="#000000" fill="none"/>
<path d="M5.776171874999998 13.352589735175382L4.62890625 12.690215617749628L4.62890625 12.44935230232208L4.941796875 12.26870481575142L6.297656249999999 13.051510590890949" stroke-width="0.03" stroke="#000000" fill="none"/>
<path d="M6.4019531249999995 12.991294762034062L4.941796875 12.148273158037647L4.941796875 12.26870481575142" stroke-width="0.03" stroke="#000000" fill="none"/>
<path d="M4.62890625 12.44935230232208L5.984765624999999 13.232158077461609" stroke-width="0.03" stroke="#000000" fill="none"/>
<path d="M8.175 14.376258825742458L8.175 14.617122141170004L10.573828124999999 16.0020862048784" stroke-width="0.03" stroke="#000000" fill="none"/>
<path d="M10.46953125 16.062302033735286L10.05234375 15.82143871830774L9.63515625 16.062302033735286L9.63515625 16.303165349162832L9.84375 16.423597006876605" stroke-width="0.03" stroke="#000000" fill="none"/>
<path d="M10.05234375 16.303165349162832L9.63515625 16.062302033735286" stroke-width="0.03" stroke="#000000" fill="none"/>
<path d="M10.88671875 15.82143871830774L8.279296875 14.31604299688557" stroke-width="0.03" stroke="#000000" fill="none"/>
<path d="M8.696484375 11.786978184896327L8.5921875 11.72676235603944" stroke-width="0.03" stroke="#000000" fill="none"/>
<path d="M12.97265625 12.08805732918076L14.85 11.004172409756798" stroke-width="0.03" stroke="#000000" fill="none"/>
<path d="M14.85 10.763309094329252L16.72734375 11.847194013753214L16.72734375 12.08805732918076" stroke-width="0.03" stroke="#000000" fill="none"/>
<path d="M12.868359374999999 13.834316366030475L12.868359374999999 14.195611339171796" stroke-width="0.03" stroke="#000000" fill="none"/>
<path d="M8.487890625 17.326834439729907L8.487890625 17.567697755157454" stroke-width="0.03" stroke="#000000" fill="none"/>
<path d="M21.733593749999997 22.686043207992828L22.046484375000002 22.866690694563488" stroke-width="0.03" stroke="#000000" fill="none"/>
<path d="M21.525000000000002 31.597985878812068L21.525000000000002 31.71841753652584L20.482031250000002 32.32057582509471" stroke-width="0.03" stroke="#000000" fill="none"/>
<path d="M24.132421875000002 13.593453050602928L24.132421875000002 13.473021392889155L24.028125 13.533237221746042" stroke-width="0.03" stroke="#000000" fill="none"/>
<path d="M23.923828125000004 13.352589735175382L25.07109375 12.690215617749628L25.07109375 12.44935230232208L24.758203125 12.26870481575142L24.758203125 12.148273158037647L23.298046874999997 12.991294762034062" stroke-width="0.03" stroke="#000000" fill="none"/>
<path d="M23.40234375 13.051510590890949L24.758203125 12.26870481575142" stroke-width="0.03" stroke="#000000" fill="none"/>
<path d="M25.07109375 12.44935230232208L23.715234375 13.232158077461609" stroke-width="0.03" stroke="#000000" fill="none"/>
<path d="M23.193749999999998 11.245035725184344L21.733593749999997 12.08805732918076" stroke-width="0.03" stroke="#000000" fill="none"/>
<path d="M9.237499999999999 2.533333333333333L1.5 2.533333333333333" stroke-width="0.03" stroke="#000000" fill="none"/>
<path d="M2.1166666666666667 2.2291666666666665L2.1166666666666667 1.8208333333333333" stroke-width="0.03" stroke="#000000" fill="none"/>
<path d="M2.0875 1.6166666666666667L2.1166666666666667 1.6458333333333333L2.145833333333333 1.6166666666666667L2.1166666666666667 1.5875L2.0875 1.6166666666666667" stroke-width="0.03" stroke="#000000" fill="none"/>
<path d="M2.3208333333333333 2.1416666666666666L2.35 2.2L2.4375 2.2291666666666665L2.525 2.2291666666666665L2.6125 2.2L2.6416666666666666 2.1416666666666666L2.6416666666666666 2.1125L2.6125 2.0541666666666667L2.5541666666666667 2.025L2.408333333333333 1.9958333333333333L2.35 1.9666666666666666L2.3208333333333333 1.9083333333333332L2.35 1.85L2.4375 1.8208333333333333L2.525 1.8208333333333333L2.6125 1.85L2.6416666666666666 1.9083333333333332" stroke-width="0.03" stroke="#000000" fill="none"/>
<path d="M2.9625 1.8208333333333333L2.904166666666667 1.85L2.845833333333333 1.9083333333333332L2.8166666666666664 1.9958333333333333L2.8166666666666664 2.0541666666666667L2.845833333333333 2.1416666666666666L2.904166666666667 2.2L2.9625 2.2291666666666665L3.05 2.2291666666666665L3.1083333333333334 2.2L3.1666666666666665 2.1416666666666666L3.1958333333333333 2.0541666666666667L3.1958333333333333 1.9958333333333333L3.1666666666666665 1.9083333333333332L3.1083333333333334 1.85L3.05 1.8208333333333333L2.9625 1.8208333333333333" stroke-width="0.03" stroke="#000000" fill="none"/>
<path d="M3.283333333333333 2.2874999999999996L3.75 2.2874999999999996" stroke-width="0.03" stroke="#000000" fill="none"/>
<path d="M3.8375 2.1416666666666666L3.8666666666666663 2.2L3.9541666666666666 2.2291666666666665L4.041666666666666 2.2291666666666665L4.129166666666666 2.2L4.158333333333333 2.1416666666666666L4.158333333333333 2.1125L4.129166666666666 2.0541666666666667L4.070833333333333 2.025L3.925 1.9958333333333333L3.8666666666666663 1.9666666666666666L3.8375 1.9083333333333332L3.8666666666666663 1.85L3.9541666666666666 1.8208333333333333L4.041666666666666 1.8208333333333333L4.129166666666666 1.85L4.158333333333333 1.9083333333333332" stroke-width="0.03" stroke="#000000" fill="none"/>
<path d="M4.3625 1.9375L4.449999999999999 1.85L4.508333333333333 1.8208333333333333L4.595833333333333 1.8208333333333333L4.654166666666667 1.85L4.683333333333334 1.9375L4.683333333333334 2.2291666666666665" stroke-width="0.03" stroke="#000000" fill="none"/>
<path d="M4.3625 2.2291666666666665L4.3625 1.8208333333333333" stroke-width="0.03" stroke="#000000" fill="none"/>
<path d="M5.033333333333333 1.8208333333333333L4.975 1.85L4.916666666666666 1.9083333333333332L4.887499999999999 1.9958333333333333L4.887499999999999 2.0541666666666667L4.916666666666666 2.1416666666666666L4.975 2.2L5.033333333333333 2.2291666666666665L5.120833333333334 2.2291666666666665L5.179166666666666 2.2L5.2375 2.1416666666666666L5.266666666666666 2.0541666666666667L5.266666666666666 1.9958333333333333L5.2375 1.9083333333333332L5.179166666666666 1.85L5.120833333333334 1.8208333333333333L5.033333333333333 1.8208333333333333" stroke-width="0.03" stroke="#000000" fill="none"/>
<path d="M5.441666666666666 1.8208333333333333L5.558333333333334 2.2291666666666665L5.675 1.8208333333333333L5.791666666666666 2.2291666666666665L5.908333333333333 1.8208333333333333" stroke-width="0.03" stroke="#000000" fill="none"/>
<path d="M6.054166666666666 1.8208333333333333L6.258333333333333 1.8208333333333333" stroke-width="0.03" stroke="#000000" fill="none"/>
<path d="M6.2875 1.6166666666666667L6.229166666666666 1.6166666666666667L6.1708333333333325 1.6458333333333333L6.141666666666667 1.7333333333333334L6.141666666666667 2.2291666666666665" stroke-width="0.03" stroke="#000000" fill="none"/>
<path d="M6.4624999999999995 2.2291666666666665L6.4624999999999995 1.6166666666666667" stroke-width="0.03" stroke="#000000" fill="none"/>
<path d="M7.016666666666666 1.8208333333333333L7.016666666666666 2.2291666666666665" stroke-width="0.03" stroke="#000000" fill="none"/>
<path d="M7.016666666666666 2.1416666666666666L6.958333333333333 2.2L6.8999999999999995 2.2291666666666665L6.812499999999999 2.2291666666666665L6.754166666666666 2.2L6.695833333333333 2.1416666666666666L6.666666666666666 2.0541666666666667L6.666666666666666 1.9958333333333333L6.695833333333333 1.9083333333333332L6.754166666666666 1.85L6.812499999999999 1.8208333333333333L6.8999999999999995 1.8208333333333333L6.958333333333333 1.85L7.016666666666666 1.9083333333333332" stroke-width="0.03" stroke="#000000" fill="none"/>
<path d="M7.249999999999999 2.1125L7.541666666666666 1.8208333333333333" stroke-width="0.03" stroke="#000000" fill="none"/>
<path d="M7.366666666666666 1.9958333333333333L7.570833333333333 2.2291666666666665" stroke-width="0.03" stroke="#000000" fill="none"/>
<path d="M7.716666666666666 1.9958333333333333L8.066666666666666 1.9958333333333333L8.066666666666666 1.9375L8.0375 1.8791666666666667L8.008333333333333 1.85L7.949999999999999 1.8208333333333333L7.8625 1.8208333333333333L7.804166666666666 1.85L7.745833333333333 1.9083333333333332L7.716666666666666 1.9958333333333333L7.716666666666666 2.0541666666666667L7.745833333333333 2.1416666666666666L7.804166666666666 2.2L7.8625 2.2291666666666665L7.949999999999999 2.2291666666666665L8.008333333333333 2.2L8.066666666666666 2.1416666666666666" stroke-width="0.03" stroke="#000000" fill="none"/>
<path d="M8.270833333333332 1.7625L8.270833333333332 1.7333333333333334L8.299999999999999 1.675L8.329166666666666 1.6458333333333333L8.3875 1.6166666666666667L8.504166666666666 1.6166666666666667L8.5625 1.6458333333333333L8.591666666666665 1.675L8.620833333333334 1.7333333333333334L8.620833333333334 1.7916666666666665L8.591666666666665 1.85L8.533333333333331 1.9375L8.241666666666667 2.2291666666666665L8.649999999999999 2.2291666666666665" stroke-width="0.03" stroke="#000000" fill="none"/>
<path d="M7.249999999999999 2.2291666666666665L7.249999999999999 1.6166666666666667" stroke-width="0.03" stroke="#000000" fill="none"/>
<path d="M5.442964345660872 3.0054372986874878L5.262704432275486 3.257801177427028L5.533094302353565 3.257801177427028" stroke-width="0.03" stroke="#000000" fill="none"/>
<path d="M5.442964345660872 3.383983116796798L5.442964345660872 3.0054372986874878" stroke-width="0.03" stroke="#000000" fill="none"/>
<path d="M4.992314562197407 3.0054372986874878L4.938236588181791 3.023463290026026L4.920210596843253 3.0595152727031034L4.920210596843253 3.0955672553801805L4.938236588181791 3.1316192380572576L4.974288570858869 3.149645229395796L5.046392536213023 3.167671220734335L5.100470510228639 3.1856972120728733L5.136522492905716 3.221749194749951L5.154548484244255 3.257801177427028L5.154548484244255 3.3118791514426436L5.136522492905716 3.3479311341197207L5.1184965015671775 3.3659571254582596L5.064418527551561 3.383983116796798L4.992314562197407 3.383983116796798L4.938236588181791 3.3659571254582596L4.920210596843253 3.3479311341197207L4.902184605504715 3.3118791514426436L4.902184605504715 3.257801177427028L4.920210596843253 3.221749194749951L4.95626257952033 3.1856972120728733L5.010340553535945 3.167671220734335L5.0824445188901 3.149645229395796L5.1184965015671775 3.1316192380572576L5.136522492905716 3.0955672553801805L5.136522492905716 3.0595152727031034L5.1184965015671775 3.023463290026026L5.064418527551561 3.0054372986874878L4.992314562197407 3.0054372986874878" stroke-width="0.03" stroke="#000000" fill="none"/>
<path d="M4.757976674796406 3.0054372986874878L4.57771676141102 3.0054372986874878L4.559690770072481 3.167671220734335L4.57771676141102 3.149645229395796L4.631794735426635 3.1316192380572576L4.6858727094422505 3.1316192380572576L4.739950683457867 3.149645229395796L4.776002666134945 3.1856972120728733L4.794028657473483 3.2397751860884894L4.794028657473483 3.2758271687655665L4.776002666134945 3.3299051427811825L4.739950683457867 3.3659571254582596L4.6858727094422505 3.383983116796798L4.631794735426635 3.383983116796798L4.57771676141102 3.3659571254582596L4.559690770072481 3.3479311341197207L4.541664778733942 3.3118791514426436" stroke-width="0.03" stroke="#000000" fill="none"/>
<path d="M4.397456848025634 3.0054372986874878L4.217196934640247 3.0054372986874878L4.199170943301709 3.167671220734335L4.217196934640247 3.149645229395796L4.2712749086558635 3.1316192380572576L4.3253528826714795 3.1316192380572576L4.379430856687095 3.149645229395796L4.415482839364172 3.1856972120728733L4.433508830702711 3.2397751860884894L4.433508830702711 3.2758271687655665L4.415482839364172 3.3299051427811825L4.379430856687095 3.3659571254582596L4.3253528826714795 3.383983116796798L4.2712749086558635 3.383983116796798L4.217196934640247 3.3659571254582596L4.199170943301709 3.3479311341197207L4.18114495196317 3.3118791514426436" stroke-width="0.03" stroke="#000000" fill="none"/>
<path d="M3.8206251251923984 3.383983116796798L3.8206251251923984 3.0054372986874878L3.9468070645621687 3.0054372986874878L4.000885038577785 3.023463290026026L4.036937021254861 3.0595152727031034L4.0549630125934 3.0955672553801805L4.072989003931939 3.149645229395796L4.072989003931939 3.2397751860884894L4.0549630125934 3.293853160104105L4.036937021254861 3.3299051427811825L4.000885038577785 3.3659571254582596L3.9468070645621687 3.383983116796798L3.8206251251923984 3.383983116796798" stroke-width="0.03" stroke="#000000" fill="none"/>
<path d="M3.5502352551143197 3.0054372986874878L3.4961572810987036 3.023463290026026L3.4601052984216265 3.077541264041642L3.442079307083088 3.167671220734335L3.442079307083088 3.221749194749951L3.4601052984216265 3.3118791514426436L3.4961572810987036 3.3659571254582596L3.5502352551143197 3.383983116796798L3.586287237791397 3.383983116796798L3.6403652118070124 3.3659571254582596L3.6764171944840895 3.3118791514426436L3.694443185822628 3.221749194749951L3.694443185822628 3.167671220734335L3.6764171944840895 3.077541264041642L3.6403652118070124 3.023463290026026L3.586287237791397 3.0054372986874878L3.5502352551143197 3.0054372986874878" stroke-width="0.03" stroke="#000000" fill="none"/>
<path d="M3.1897154283435474 3.0054372986874878L3.1356374543279317 3.023463290026026L3.0995854716508546 3.077541264041642L3.0815594803123156 3.167671220734335L3.0815594803123156 3.221749194749951L3.0995854716508546 3.3118791514426436L3.1356374543279317 3.3659571254582596L3.1897154283435474 3.383983116796798L3.225767411020625 3.383983116796798L3.2798453850362406 3.3659571254582596L3.3158973677133177 3.3118791514426436L3.333923359051856 3.221749194749951L3.333923359051856 3.167671220734335L3.3158973677133177 3.077541264041642L3.2798453850362406 3.023463290026026L3.225767411020625 3.0054372986874878L3.1897154283435474 3.0054372986874878" stroke-width="0.03" stroke="#000000" fill="none"/>
<path d="M2.757091636218621 3.0054372986874878L2.955377540942546 3.0054372986874878L2.847221592911314 3.149645229395796L2.90129956692693 3.149645229395796L2.9373515496040072 3.167671220734335L2.955377540942546 3.1856972120728733L2.9734035322810843 3.2397751860884894L2.9734035322810843 3.2758271687655665L2.955377540942546 3.3299051427811825L2.9193255582654682 3.3659571254582596L2.8652475842498526 3.383983116796798L2.811169610234237 3.383983116796798L2.757091636218621 3.3659571254582596L2.7390656448800828 3.3479311341197207L2.7210396535415438 3.3118791514426436" stroke-width="0.03" stroke="#000000" fill="none"/>
<path d="M2.6128837055103125 3.383983116796798L2.414597800786388 3.1316192380572576" stroke-width="0.03" stroke="#000000" fill="none"/>
<path d="M2.6128837055103125 3.1316192380572576L2.414597800786388 3.383983116796798" stroke-width="0.03" stroke="#000000" fill="none"/>
<path d="M2.1622339220468474 3.0054372986874878L2.1081559480312317 3.023463290026026L2.072103965354154 3.077541264041642L2.0540779740156156 3.167671220734335L2.0540779740156156 3.221749194749951L2.072103965354154 3.3118791514426436L2.1081559480312317 3.3659571254582596L2.1622339220468474 3.383983116796798L2.1982859047239245 3.383983116796798L2.2523638787395406 3.3659571254582596L2.2884158614166177 3.3118791514426436L2.3064418527551562 3.221749194749951L2.3064418527551562 3.167671220734335L2.2884158614166177 3.077541264041642L2.2523638787395406 3.023463290026026L2.1982859047239245 3.0054372986874878L2.1622339220468474 3.0054372986874878" stroke-width="0.03" stroke="#000000" fill="none"/>
</svg>
