<?xml version="1.0" standalone="no"?>
<svg width="29.7cm" height="42cm" version="1.1" xmlns="http://www.w3.org/2000/svg" viewBox="0.0 0.0 29.700001 42.000001">
<path d="M6.819140625 11.064388238613684L10.46953125 8.956834228622649L11.303906249999999 9.438560859477743L11.303906249999999 10.04071914804661" stroke-width="0.03" stroke="#000000" fill="none"/>
<path d="M11.303906249999999 9.438560859477743L7.653515625 11.54611486946878L7.653515625 12.509568131178968" stroke-width="0.03" stroke="#000000" fill="none"/>
<path d="M8.175 12.8106472754634L8.279296875 12.750431446606514L8.5921875 12.931078933177174L8.5921875 14.49669048345623L8.070703124999998 14.797769627740664" stroke-width="0.03" stroke="#000000" fill="none"/>
<path d="M7.862109374999999 14.67733797002689L7.13203125 15.098848772025098L7.13203125 15.339712087452645L8.905078125 16.36338117801972L8.905078125 16.60424449344727L8.696484375 16.72467615116104L6.9234374999999995 15.701007060593964L6.9234374999999995 16.423597006876605L6.297656249999999 16.784891980017925L8.070703124999998 17.808561070585L8.070703124999998 18.049424386012547L7.862109374999999 18.16985604372632L6.089062499999999 17.146186953159244L6.089062499999999 16.905323637731698L7.862109374999999 17.928992728298773L7.862109374999999 18.16985604372632" stroke-width="0.03" stroke="#000000" fill="none"/>
<path d="M7.862109374999999 17.928992728298773L8.070703124999998 17.808561070585" stroke-width="0.03" stroke="#000000" fill="none"/>
<path d="M8.279296875 18.651582674581416L9.530859375 17.928992728298773L9.530859375 16.483812835733495L10.260937499999999 16.062302033735286L7.862109374999999 14.67733797002689" stroke-width="0.03" stroke="#000000" fill="none"/>
<path d="M7.13203125 15.098848772025098L9.530859375 16.483812835733495" stroke-width="0.03" stroke="#000000" fill="none"/>
<path d="M10.156640625 16.483812835733495L10.573828124999999 16.24294952030595L12.7640625 17.50748192630057L12.7640625 18.59136684572453L12.346874999999999 18.832230161152076L10.156640625 17.567697755157454L10.156640625 16.483812835733495L12.346874999999999 17.748345241728117L12.346874999999999 18.832230161152076" stroke-width="0.03" stroke="#000000" fill="none"/>
<path d="M11.825390624999999 18.531151016867643L11.512500000000001 18.711798503438303L10.678125 18.23007187258321L10.678125 18.109640214869437L10.782421874999999 18.049424386012547L11.512500000000001 18.470935188010756L11.616796874999999 18.410719359153866" stroke-width="0.03" stroke="#000000" fill="none"/>
<path d="M11.512500000000001 18.350503530296983L11.512500000000001 18.470935188010756" stroke-width="0.03" stroke="#000000" fill="none"/>
<path d="M11.512500000000001 18.59136684572453L11.72109375 18.470935188010756" stroke-width="0.03" stroke="#000000" fill="none"/>
<path d="M11.512500000000001 18.59136684572453L11.512500000000001 18.711798503438303" stroke-width="0.03" stroke="#000000" fill="none"/>
<path d="M11.512500000000001 18.59136684572453L10.365234375 17.928992728298773L10.156640625 18.049424386012547" stroke-width="0.03" stroke="#000000" fill="none"/>
<path d="M10.05234375 17.989208557155663L9.948046875 18.049424386012547L9.948046875 18.16985604372632L9.84375 18.23007187258321L9.84375 18.350503530296983L12.868359374999999 20.096762567146698L12.97265625 20.03654673828981L12.97265625 22.08388491942396L14.745703124999999 23.107554009991038L14.64140625 23.167769838847924L14.64140625 26.660287912547354L14.745703124999999 26.72050374140424L14.85 26.660287912547354L14.954296875 26.72050374140424L15.05859375 26.660287912547354L15.05859375 23.167769838847924L14.954296875 23.107554009991038L16.72734375 22.08388491942396L16.72734375 20.03654673828981L16.831640625 20.096762567146698L19.85625 18.350503530296983L19.85625 18.23007187258321L19.751953125 18.16985604372632L19.751953125 18.049424386012547L19.647656249999997 17.989208557155663L16.623046875 19.735467594005378L16.623046875 19.85589925171915L14.85 18.832230161152076L13.076953125000001 19.85589925171915L13.076953125000001 19.735467594005378L10.05234375 17.989208557155663" stroke-width="0.03" stroke="#000000" fill="none"/>
<path d="M9.948046875 18.049424386012547L12.97265625 19.795683422862265L13.076953125000001 19.735467594005378" stroke-width="0.03" stroke="#000000" fill="none"/>
<path d="M12.97265625 19.795683422862265L12.97265625 19.916115080576038L12.868359374999999 19.976330909432924L9.84375 18.23007187258321" stroke-width="0.03" stroke="#000000" fill="none"/>
<path d="M9.948046875 18.16985604372632L12.97265625 19.916115080576038" stroke-width="0.03" stroke="#000000" fill="none"/>
<path d="M13.076953125000001 19.976330909432924L14.85 18.95266181886585L16.623046875 19.976330909432924L16.623046875 22.023669090567072L14.85 23.047338181134148L13.076953125000001 22.023669090567072L13.076953125000001 19.976330909432924" stroke-width="0.03" stroke="#000000" fill="none"/>
<path d="M12.868359374999999 19.976330909432924L12.868359374999999 20.096762567146698" stroke-width="0.03" stroke="#000000" fill="none"/>
<path d="M13.076953125000001 20.337625882574244L13.389843749999999 20.156978396003588L14.119921875 20.57848919800179L14.119921875 19.37417262086406" stroke-width="0.03" stroke="#000000" fill="none"/>
<path d="M13.389843749999999 19.795683422862265L13.389843749999999 20.156978396003588" stroke-width="0.03" stroke="#000000" fill="none"/>
<path d="M14.119921875 20.57848919800179L13.076953125000001 21.18064748657066" stroke-width="0.03" stroke="#000000" fill="none"/>
<path d="M12.97265625 22.08388491942396L14.85 21L16.72734375 22.08388491942396" stroke-width="0.03" stroke="#000000" fill="none"/>
<path d="M16.623046875 21.18064748657066L15.580078125 20.57848919800179L15.580078125 19.37417262086406" stroke-width="0.03" stroke="#000000" fill="none"/>
<path d="M16.31015625 19.795683422862265L16.31015625 20.156978396003588L15.580078125 20.57848919800179" stroke-width="0.03" stroke="#000000" fill="none"/>
<path d="M16.31015625 20.156978396003588L16.623046875 20.337625882574244" stroke-width="0.03" stroke="#000000" fill="none"/>
<path d="M16.831640625 20.096762567146698L16.831640625 19.976330909432924L16.72734375 19.916115080576038L16.72734375 19.795683422862265L16.623046875 19.735467594005378" stroke-width="0.03" stroke="#000000" fill="none"/>
<path d="M16.72734375 19.795683422862265L19.751953125 18.049424386012547" stroke-width="0.03" stroke="#000000" fill="none"/>
<path d="M19.751953125 18.16985604372632L16.72734375 19.916115080576038" stroke-width="0.03" stroke="#000000" fill="none"/>
<path d="M16.831640625 19.976330909432924L19.85625 18.23007187258321" stroke-width="0.03" stroke="#000000" fill="none"/>
<path d="M19.751953125 18.410719359153866L19.751953125 18.651582674581416L18.6046875 19.31395679200717L18.500390624999998 19.253740963150285L18.500390624999998 19.615035936291605" stroke-width="0.03" stroke="#000000" fill="none"/>
<path d="M18.6046875 19.554820107434715L18.6046875 19.31395679200717" stroke-width="0.03" stroke="#000000" fill="none"/>
<path d="M18.500390624999998 19.253740963150285L19.334765625 18.77201433229519L19.439062500000002 18.832230161152076L19.439062500000002 18.95266181886585L18.708984375 19.37417262086406L18.708984375 19.49460427857783" stroke-width="0.03" stroke="#000000" fill="none"/>
<path d="M18.81328125 19.434388449720945L18.708984375 19.37417262086406" stroke-width="0.03" stroke="#000000" fill="none"/>
<path d="M18.1875 18.711798503438303L19.021874999999998 18.23007187258321L19.021874999999998 18.109640214869437L18.917578125000002 18.049424386012547L18.1875 18.470935188010756L18.083203125 18.410719359153866" stroke-width="0.03" stroke="#000000" fill="none"/>
<path d="M18.1875 18.350503530296983L18.1875 18.470935188010756" stroke-width="0.03" stroke="#000000" fill="none"/>
<path d="M18.1875 18.59136684572453L19.334765625 17.928992728298773L19.334765625 17.688129412871227" stroke-width="0.03" stroke="#000000" fill="none"/>
<path d="M19.543359374999998 17.567697755157454L17.353125 18.832230161152076L16.9359375 18.59136684572453L16.9359375 17.50748192630057L19.126171875 16.24294952030595L19.543359374999998 16.483812835733495L19.543359374999998 17.567697755157454" stroke-width="0.03" stroke="#000000" fill="none"/>
<path d="M19.334765625 17.928992728298773L19.543359374999998 18.049424386012547" stroke-width="0.03" stroke="#000000" fill="none"/>
<path d="M20.169140624999997 17.928992728298773L22.567968750000002 16.54402866459038L23.193749999999998 16.905323637731698" stroke-width="0.03" stroke="#000000" fill="none"/>
<path d="M23.40234375 16.784891980017925L21.629296875 17.808561070585L21.629296875 18.049424386012547L21.837890625 18.16985604372632L23.610937500000002 17.146186953159244L23.610937500000002 16.905323637731698L21.837890625 17.928992728298773L21.837890625 18.16985604372632" stroke-width="0.03" stroke="#000000" fill="none"/>
<path d="M21.837890625 17.928992728298773L21.629296875 17.808561070585" stroke-width="0.03" stroke="#000000" fill="none"/>
<path d="M21.420703125 18.651582674581416L23.819531249999997 17.26661861087302L23.610937500000002 17.146186953159244" stroke-width="0.03" stroke="#000000" fill="none"/>
<path d="M23.819531249999997 17.26661861087302L23.819531249999997 18.109640214869437L21.420703125 19.49460427857783L21.107812499999998 19.31395679200717" stroke-width="0.03" stroke="#000000" fill="none"/>
<path d="M21.107812499999998 19.193525134293395L18.917578125000002 20.458057540288017L17.978906249999998 19.916115080576038L17.978906249999998 20.397841711431134L18.917578125000002 20.939784171143113L21.107812499999998 19.67525176514849L21.107812499999998 19.193525134293395L20.169140624999997 18.651582674581416L17.978906249999998 19.916115080576038" stroke-width="0.03" stroke="#000000" fill="none"/>
<path d="M18.500390624999998 20.698920855715564L18.500390624999998 21.18064748657066L18.6046875 21.240863315427546L18.708984375 21.18064748657066L18.708984375 20.819352513429337" stroke-width="0.03" stroke="#000000" fill="none"/>
<path d="M18.6046875 20.759136684572454L18.6046875 21.36129497314132L17.7703125 21.843021603996412L17.7703125 22.686043207992828L17.040234375 23.107554009991038L17.040234375 24.071007271701223L16.51875 24.37208641598566" stroke-width="0.03" stroke="#000000" fill="none"/>
<path d="M16.623046875 24.432302244842543L16.9359375 24.251654758271883L16.9359375 24.13122310055811L16.831640625 24.071007271701223L16.414453125 24.311870587128773" stroke-width="0.03" stroke="#000000" fill="none"/>
<path d="M16.414453125 24.793597217983862L17.353125 24.251654758271883L17.040234375 24.071007271701223" stroke-width="0.03" stroke="#000000" fill="none"/>
<path d="M17.353125 24.251654758271883L17.353125 24.612949731413206" stroke-width="0.03" stroke="#000000" fill="none"/>
<path d="M17.14453125 24.73338138912698L19.23046875 23.529064811989244L19.23046875 21.120431657713773L21.629296875 19.735467594005378" stroke-width="0.03" stroke="#000000" fill="none"/>
<path d="M21.420703125 19.49460427857783L21.420703125 18.651582674581416L20.169140624999997 17.928992728298773L20.169140624999997 16.483812835733495L19.439062500000002 16.062302033735286L21.837890625 14.67733797002689L22.567968750000002 15.098848772025098L22.567968750000002 15.339712087452645L22.7765625 15.460143745166418L21.003515625000002 16.483812835733495L21.003515625000002 16.72467615116104L20.794921875 16.60424449344727L20.794921875 16.36338117801972L22.567968750000002 15.339712087452645" stroke-width="0.03" stroke="#000000" fill="none"/>
<path d="M22.7765625 15.460143745166418L22.7765625 14.014963852601136L24.653906250000002 12.931078933177174L24.653906250000002 15.339712087452645L26.73984375 16.54402866459038L24.8625 17.62791358401434L24.8625 19.554820107434715L26.73984375 18.470935188010756L26.73984375 15.339712087452645" stroke-width="0.03" stroke="#000000" fill="none"/>
<path d="M26.844140625 15.399927916309531L27.261328125 15.159064600881985L27.261328125 14.436474654599342L26.73984375 14.13539551031491L26.322656249999998 14.376258825742458L26.322656249999998 13.77410053717359L25.696875000000002 13.412805564032269L26.1140625 13.171942248604722L26.73984375 13.533237221746042L26.73984375 14.13539551031491" stroke-width="0.03" stroke="#000000" fill="none"/>
<path d="M26.322656249999998 14.376258825742458L26.844140625 14.67733797002689L27.261328125 14.436474654599342" stroke-width="0.03" stroke="#000000" fill="none"/>
<path d="M26.844140625 14.67733797002689L26.844140625 15.399927916309531L26.322656249999998 15.098848772025098L26.322656249999998 16.303165349162832" stroke-width="0.03" stroke="#000000" fill="none"/>
<path d="M26.73984375 16.062302033735286L27.052734375 16.24294952030595L27.052734375 17.808561070585L26.73984375 17.62791358401434" stroke-width="0.03" stroke="#000000" fill="none"/>
<path d="M27.052734375 17.808561070585L27.261328125 17.688129412871227L27.261328125 16.122517862592172L26.73984375 15.82143871830774" stroke-width="0.03" stroke="#000000" fill="none"/>
<path d="M27.052734375 16.24294952030595L27.261328125 16.122517862592172" stroke-width="0.03" stroke="#000000" fill="none"/>
<path d="M25.696875000000002 15.94187037602151L25.696875000000002 14.737553798883777L24.653906250000002 14.13539551031491" stroke-width="0.03" stroke="#000000" fill="none"/>
<path d="M24.653906250000002 13.412805564032269L25.696875000000002 14.014963852601136L25.696875000000002 13.412805564032269" stroke-width="0.03" stroke="#000000" fill="none"/>
<path d="M25.696875000000002 13.533237221746042L22.98515625 11.967625671466987L21.107812499999998 13.051510590890949L22.7765625 14.014963852601136" stroke-width="0.03" stroke="#000000" fill="none"/>
<path d="M22.567968750000002 15.098848772025098L20.169140624999997 16.483812835733495" stroke-width="0.03" stroke="#000000" fill="none"/>
<path d="M19.543359374999998 16.483812835733495L17.353125 17.748345241728117L17.353125 18.832230161152076" stroke-width="0.03" stroke="#000000" fill="none"/>
<path d="M17.874609375000002 18.531151016867643L18.1875 18.711798503438303L18.1875 18.59136684572453L17.978906249999998 18.470935188010756" stroke-width="0.03" stroke="#000000" fill="none"/>
<path d="M17.353125 17.748345241728117L16.414453125 17.206402782016134L16.72734375 17.025755295445475" stroke-width="0.03" stroke="#000000" fill="none"/>
<path d="M16.9359375 17.146186953159244L19.334765625 15.761222889450853" stroke-width="0.03" stroke="#000000" fill="none"/>
<path d="M19.439062500000002 16.062302033735286L19.439062500000002 16.423597006876605" stroke-width="0.03" stroke="#000000" fill="none"/>
<path d="M19.647656249999997 15.94187037602151L18.81328125 15.460143745166418L18.81328125 15.21928042973887L19.439062500000002 14.85798545659755L19.439062500000002 14.13539551031491L18.708984375 13.713884708316701L17.666015625 14.31604299688557L16.9359375 13.894532194887363L16.9359375 13.412805564032269L18.917578125000002 12.26870481575142L19.647656249999997 12.690215617749628L19.647656249999997 13.894532194887363L19.334765625 14.075179681458023" stroke-width="0.03" stroke="#000000" fill="none"/>
<path d="M19.439062500000002 14.13539551031491L16.9359375 15.580575402880193L16.9359375 17.146186953159244L14.85 15.94187037602151L12.7640625 17.146186953159244L10.365234375 15.761222889450853" stroke-width="0.03" stroke="#000000" fill="none"/>
<path d="M10.260937499999999 16.062302033735286L10.260937499999999 16.423597006876605" stroke-width="0.03" stroke="#000000" fill="none"/>
<path d="M10.05234375 15.94187037602151L10.88671875 15.460143745166418L10.88671875 15.21928042973887L10.260937499999999 14.85798545659755L10.260937499999999 14.13539551031491L10.991015625000001 13.713884708316701L12.033984375000001 14.31604299688557L12.7640625 13.894532194887363L12.7640625 13.412805564032269L10.782421874999999 12.26870481575142L10.05234375 12.690215617749628L10.05234375 13.894532194887363L10.365234375 14.075179681458023" stroke-width="0.03" stroke="#000000" fill="none"/>
<path d="M10.260937499999999 14.13539551031491L12.7640625 15.580575402880193L12.7640625 17.146186953159244" stroke-width="0.03" stroke="#000000" fill="none"/>
<path d="M12.97265625 17.025755295445475L13.285546875 17.206402782016134L13.285546875 17.567697755157454L12.7640625 17.86877689944189" stroke-width="0.03" stroke="#000000" fill="none"/>
<path d="M12.7640625 17.748345241728117L13.076953125000001 17.567697755157454L13.181249999999999 17.62791358401434L13.181249999999999 17.748345241728117L12.7640625 17.989208557155663" stroke-width="0.03" stroke="#000000" fill="none"/>
<path d="M12.346874999999999 17.748345241728117L13.285546875 17.206402782016134" stroke-width="0.03" stroke="#000000" fill="none"/>
<path d="M13.181249999999999 16.905323637731698L14.119921875 17.44726609744368L14.119921875 18.049424386012547L14.85 17.62791358401434L15.580078125 18.049424386012547L16.414453125 17.567697755157454L16.414453125 17.206402782016134" stroke-width="0.03" stroke="#000000" fill="none"/>
<path d="M16.51875 16.905323637731698L15.580078125 17.44726609744368L15.580078125 18.049424386012547" stroke-width="0.03" stroke="#000000" fill="none"/>
<path d="M15.580078125 17.44726609744368L14.85 17.025755295445475L14.119921875 17.44726609744368" stroke-width="0.03" stroke="#000000" fill="none"/>
<path d="M14.119921875 18.049424386012547L13.285546875 17.567697755157454" stroke-width="0.03" stroke="#000000" fill="none"/>
<path d="M14.85 17.62791358401434L14.85 17.025755295445475" stroke-width="0.03" stroke="#000000" fill="none"/>
<path d="M14.85 15.94187037602151L14.85 14.376258825742458L16.9359375 15.580575402880193" stroke-width="0.03" stroke="#000000" fill="none"/>
<path d="M17.7703125 16.66446032230415L18.083203125 16.845107808874815" stroke-width="0.03" stroke="#000000" fill="none"/>
<path d="M18.1875 16.784891980017925L17.874609375000002 16.60424449344727" stroke-width="0.03" stroke="#000000" fill="none"/>
<path d="M16.9359375 17.748345241728117L16.623046875 17.567697755157454L16.51875 17.62791358401434L16.51875 17.748345241728117L16.9359375 17.989208557155663" stroke-width="0.03" stroke="#000000" fill="none"/>
<path d="M16.9359375 17.86877689944189L16.414453125 17.567697755157454" stroke-width="0.03" stroke="#000000" fill="none"/>
<path d="M14.85 18.832230161152076L14.85 21" stroke-width="0.03" stroke="#000000" fill="none"/>
<path d="M14.85 21.843021603996412L13.80703125 22.44517989256528" stroke-width="0.03" stroke="#000000" fill="none"/>
<path d="M14.537109375 22.866690694563488L14.85 22.686043207992828L15.162890625 22.866690694563488" stroke-width="0.03" stroke="#000000" fill="none"/>
<path d="M15.05859375 23.167769838847924L14.954296875 23.227985667704807L14.85 23.167769838847924L14.745703124999999 23.227985667704807L14.64140625 23.167769838847924" stroke-width="0.03" stroke="#000000" fill="none"/>
<path d="M14.745703124999999 23.227985667704807L14.745703124999999 26.72050374140424" stroke-width="0.03" stroke="#000000" fill="none"/>
<path d="M14.85 26.660287912547354L14.85 23.167769838847924" stroke-width="0.03" stroke="#000000" fill="none"/>
<path d="M14.954296875 23.227985667704807L14.954296875 26.72050374140424" stroke-width="0.03" stroke="#000000" fill="none"/>
<path d="M15.05859375 26.53985625483358L15.267187499999999 26.419424597119807L15.47578125 26.53985625483358" stroke-width="0.03" stroke="#000000" fill="none"/>
<path d="M15.47578125 26.780719570261127L15.47578125 24.251654758271883L15.89296875 24.010791442844337L16.831640625 24.55273390255632L16.831640625 27.081798714545563L16.414453125 27.322662029973106L15.47578125 26.780719570261127" stroke-width="0.03" stroke="#000000" fill="none"/>
<path d="M15.267187499999999 26.419424597119807L15.267187499999999 25.0946763622683L15.162890625 25.034460533411412L15.47578125 24.85381304684075" stroke-width="0.03" stroke="#000000" fill="none"/>
<path d="M15.47578125 24.974244704554525L15.267187499999999 25.0946763622683" stroke-width="0.03" stroke="#000000" fill="none"/>
<path d="M15.162890625 25.034460533411412L15.162890625 25.9979137951216L15.267187499999999 26.058129623978488L15.371484375 25.9979137951216L15.371484375 25.154892191125185L15.47578125 25.0946763622683" stroke-width="0.03" stroke="#000000" fill="none"/>
<path d="M15.47578125 25.215108019982072L15.371484375 25.154892191125185" stroke-width="0.03" stroke="#000000" fill="none"/>
<path d="M14.537109375 25.034460533411412L14.4328125 25.0946763622683L14.224218749999999 24.974244704554525" stroke-width="0.03" stroke="#000000" fill="none"/>
<path d="M14.224218749999999 25.0946763622683L14.328515625 25.154892191125185L14.328515625 25.9979137951216L14.4328125 26.058129623978488L14.537109375 25.9979137951216L14.537109375 25.034460533411412L14.224218749999999 24.85381304684075" stroke-width="0.03" stroke="#000000" fill="none"/>
<path d="M14.328515625 25.154892191125185L14.224218749999999 25.215108019982072" stroke-width="0.03" stroke="#000000" fill="none"/>
<path d="M14.4328125 25.0946763622683L14.4328125 26.419424597119807L14.64140625 26.53985625483358" stroke-width="0.03" stroke="#000000" fill="none"/>
<path d="M14.4328125 26.419424597119807L14.224218749999999 26.53985625483358" stroke-width="0.03" stroke="#000000" fill="none"/>
<path d="M14.224218749999999 26.780719570261127L13.285546875 27.322662029973106L12.868359374999999 27.081798714545563L12.868359374999999 24.55273390255632L13.80703125 24.010791442844337L14.224218749999999 24.251654758271883L14.224218749999999 26.780719570261127" stroke-width="0.03" stroke="#000000" fill="none"/>
<path d="M14.85 27.142014543402446L13.598437500000001 27.864604489685092L13.598437500000001 30.63453261710188L12.868359374999999 30.21302181510367L12.868359374999999 27.443093687686883L13.181249999999999 27.26244620111622" stroke-width="0.03" stroke="#000000" fill="none"/>
<path d="M13.285546875 27.322662029973106L13.285546875 24.793597217983862L14.224218749999999 24.251654758271883" stroke-width="0.03" stroke="#000000" fill="none"/>
<path d="M13.285546875 24.311870587128773L12.868359374999999 24.071007271701223L12.7640625 24.13122310055811L12.7640625 24.251654758271883L13.076953125000001 24.432302244842543" stroke-width="0.03" stroke="#000000" fill="none"/>
<path d="M13.181249999999999 24.37208641598566L12.659765624999999 24.071007271701223L12.659765624999999 23.107554009991038L11.9296875 22.686043207992828L11.9296875 21.843021603996412L11.095312499999999 21.36129497314132L10.782421874999999 21.54194245971198L10.46953125 21.36129497314132" stroke-width="0.03" stroke="#000000" fill="none"/>
<path d="M10.46953125 21.120431657713773L9.113671875 21.903237432853302L9.113671875 24.311870587128773L11.199609375 25.51618716426651L11.199609375 28.40654694939707L10.46953125 27.985036147398862L10.46953125 26.780719570261127L9.739453124999999 26.359208768262917L9.322265625 26.600072083690467L9.322265625 28.888273580252164L10.05234375 29.30978438225037L11.095312499999999 28.7076260936815L11.095312499999999 28.346331120540185" stroke-width="0.03" stroke="#000000" fill="none"/>
<path d="M11.199609375 28.40654694939707L11.825390624999999 28.04525197625575L11.825390624999999 27.322662029973106L12.033984375000001 27.202230372259333L12.868359374999999 27.68395700311443" stroke-width="0.03" stroke="#000000" fill="none"/>
<path d="M12.868359374999999 27.443093687686883L13.598437500000001 27.864604489685092" stroke-width="0.03" stroke="#000000" fill="none"/>
<path d="M13.80703125 28.46676277825396L14.015625 28.346331120540185L14.224218749999999 28.46676277825396L14.224218749999999 30.514100959388106L14.85 30.152805986246786L15.47578125 30.514100959388106L15.47578125 28.46676277825396L15.684375 28.346331120540185L15.89296875 28.46676277825396L15.89296875 30.514100959388106L15.684375 30.63453261710188L15.684375 28.58719443596773L15.47578125 28.46676277825396" stroke-width="0.03" stroke="#000000" fill="none"/>
<path d="M15.684375 28.58719443596773L15.89296875 28.46676277825396" stroke-width="0.03" stroke="#000000" fill="none"/>
<path d="M16.1015625 27.864604489685092L16.831640625 27.443093687686883L16.51875 27.26244620111622" stroke-width="0.03" stroke="#000000" fill="none"/>
<path d="M16.414453125 27.322662029973106L16.414453125 24.793597217983862L15.47578125 24.251654758271883" stroke-width="0.03" stroke="#000000" fill="none"/>
<path d="M14.85 22.686043207992828L14.85 21.843021603996412L15.89296875 22.44517989256528" stroke-width="0.03" stroke="#000000" fill="none"/>
<path d="M17.040234375 23.107554009991038L17.56171875 23.40863315427547L17.56171875 24.492518073699433" stroke-width="0.03" stroke="#000000" fill="none"/>
<path d="M17.14453125 24.73338138912698L17.14453125 27.50330951654377" stroke-width="0.03" stroke="#000000" fill="none"/>
<path d="M16.831640625 27.443093687686883L16.831640625 30.21302181510367L16.1015625 30.63453261710188L15.89296875 30.514100959388106" stroke-width="0.03" stroke="#000000" fill="none"/>
<path d="M16.1015625 30.63453261710188L16.1015625 27.864604489685092L14.85 27.142014543402446L14.85 29.91194267081924L14.224218749999999 30.273237643960556" stroke-width="0.03" stroke="#000000" fill="none"/>
<path d="M14.015625 30.63453261710188L12.7640625 31.35712256338452L12.7640625 33.52489240223244L14.85 32.32057582509471L16.9359375 33.52489240223244L16.9359375 31.35712256338452L18.6046875 30.393669301674333L18.6046875 32.56143914052225L15.89296875 34.12705069080131" stroke-width="0.03" stroke="#000000" fill="none"/>
<path d="M15.997265625 34.187266519658195L15.371484375 34.54856149279952L15.371484375 35.030288123654614L14.85 34.729208979370185L14.328515625 35.030288123654614L13.702734374999999 34.66899315051329L13.702734374999999 34.187266519658195L14.224218749999999 33.886187375373765L13.181249999999999 33.2840290868049" stroke-width="0.03" stroke="#000000" fill="none"/>
<path d="M13.181249999999999 33.76575571765999L12.868359374999999 33.94640320423065L11.512500000000001 33.163597429091126L11.825390624999999 32.98294994252046" stroke-width="0.03" stroke="#000000" fill="none"/>
<path d="M11.512500000000001 33.163597429091126L11.512500000000001 33.40446074451867L12.868359374999999 34.187266519658195L13.389843749999999 33.886187375373765" stroke-width="0.03" stroke="#000000" fill="none"/>
<path d="M13.702734374999999 34.187266519658195L14.328515625 34.54856149279952L14.328515625 35.030288123654614" stroke-width="0.03" stroke="#000000" fill="none"/>
<path d="M14.328515625 34.54856149279952L14.85 34.247482348515085L15.371484375 34.54856149279952" stroke-width="0.03" stroke="#000000" fill="none"/>
<path d="M15.371484375 35.030288123654614L15.997265625 34.66899315051329L15.997265625 34.187266519658195L15.47578125 33.886187375373765L16.51875 33.2840290868049" stroke-width="0.03" stroke="#000000" fill="none"/>
<path d="M16.51875 33.76575571765999L16.831640625 33.94640320423065L18.1875 33.163597429091126L17.874609375000002 32.98294994252046" stroke-width="0.03" stroke="#000000" fill="none"/>
<path d="M18.1875 33.163597429091126L18.1875 33.40446074451867L16.831640625 34.187266519658195L16.31015625 33.886187375373765" stroke-width="0.03" stroke="#000000" fill="none"/>
<path d="M16.831640625 33.94640320423065L16.831640625 34.187266519658195" stroke-width="0.03" stroke="#000000" fill="none"/>
<path d="M15.89296875 32.92273411366358L14.85 33.52489240223244L13.80703125 32.92273411366358" stroke-width="0.03" stroke="#000000" fill="none"/>
<path d="M13.80703125 34.12705069080131L11.095312499999999 32.56143914052225L11.095312499999999 30.393669301674333L12.7640625 31.35712256338452" stroke-width="0.03" stroke="#000000" fill="none"/>
<path d="M13.598437500000001 30.63453261710188L13.80703125 30.514100959388106L13.80703125 28.46676277825396L14.015625 28.58719443596773L14.224218749999999 28.46676277825396" stroke-width="0.03" stroke="#000000" fill="none"/>
<path d="M14.015625 28.58719443596773L14.015625 30.63453261710188L13.80703125 30.514100959388106" stroke-width="0.03" stroke="#000000" fill="none"/>
<path d="M12.868359374999999 29.972158499676127L12.346874999999999 29.67107935539169L10.991015625000001 30.45388513053122L10.991015625000001 30.815180103672542L11.095312499999999 30.87539593252943" stroke-width="0.03" stroke="#000000" fill="none"/>
<path d="M11.095312499999999 30.514100959388106L10.991015625000001 30.45388513053122" stroke-width="0.03" stroke="#000000" fill="none"/>
<path d="M10.782421874999999 30.21302181510367L10.991015625000001 30.0925901573899" stroke-width="0.03" stroke="#000000" fill="none"/>
<path d="M10.782421874999999 30.21302181510367L10.782421874999999 29.972158499676127L11.303906249999999 30.273237643960556" stroke-width="0.03" stroke="#000000" fill="none"/>
<path d="M10.782421874999999 30.21302181510367L9.4265625 29.430216039964147" stroke-width="0.03" stroke="#000000" fill="none"/>
<path d="M9.4265625 28.94848940910905L9.4265625 30.032374328533013L8.696484375 30.45388513053122L5.3589843749999995 28.526978607110845L5.3589843749999995 27.202230372259333" stroke-width="0.03" stroke="#000000" fill="none"/>
<path d="M5.254687500000001 27.142014543402446L5.150390625 27.202230372259333L4.733203124999998 26.96136705683179L4.733203124999998 26.840935399118013L4.62890625 26.780719570261127L4.62890625 26.29899293940603L4.733203124999998 26.238777110549147" stroke-width="0.03" stroke="#000000" fill="none"/>
<path d="M4.733203124999998 26.359208768262917L4.733203124999998 24.191438929414996L5.046093749999999 24.010791442844337L5.46328125 24.251654758271883L5.46328125 26.419424597119807L7.340624999999999 27.50330951654377L7.340624999999999 27.985036147398862L7.027734374999999 28.165683633969522L5.150390625 27.081798714545563L5.150390625 27.202230372259333" stroke-width="0.03" stroke="#000000" fill="none"/>
<path d="M5.150390625 26.600072083690467L5.46328125 26.419424597119807" stroke-width="0.03" stroke="#000000" fill="none"/>
<path d="M5.150390625 26.600072083690467L5.150390625 24.432302244842543L5.46328125 24.251654758271883" stroke-width="0.03" stroke="#000000" fill="none"/>
<path d="M5.150390625 24.432302244842543L4.733203124999998 24.191438929414996" stroke-width="0.03" stroke="#000000" fill="none"/>
<path d="M3.5859375 23.40863315427547L3.064453125 23.709712298559904L2.2300781249999995 23.227985667704807L2.2300781249999995 19.01287764772274L3.064453125 18.531151016867643" stroke-width="0.03" stroke="#000000" fill="none"/>
<path d="M2.960156250000001 18.470935188010756L2.960156250000001 15.339712087452645" stroke-width="0.03" stroke="#000000" fill="none"/>
<path d="M2.8558593750000005 15.399927916309531L3.3773437500000005 15.098848772025098L3.3773437500000005 16.303165349162832" stroke-width="0.03" stroke="#000000" fill="none"/>
<path d="M2.960156250000001 16.062302033735286L2.647265625000001 16.24294952030595L2.647265625000001 17.808561070585L2.438671874999999 17.688129412871227L2.438671874999999 16.122517862592172L2.960156250000001 15.82143871830774" stroke-width="0.03" stroke="#000000" fill="none"/>
<path d="M2.8558593750000005 15.399927916309531L2.8558593750000005 14.67733797002689L2.438671874999999 14.436474654599342L2.438671874999999 15.159064600881985L2.8558593750000005 15.399927916309531" stroke-width="0.03" stroke="#000000" fill="none"/>
<path d="M2.8558593750000005 14.67733797002689L3.3773437500000005 14.376258825742458L3.3773437500000005 13.77410053717359L2.960156250000001 13.533237221746042L3.5859375 13.171942248604722L4.003124999999999 13.412805564032269L4.003124999999999 14.014963852601136L5.046093749999999 13.412805564032269" stroke-width="0.03" stroke="#000000" fill="none"/>
<path d="M4.62890625 13.171942248604722L4.62890625 12.8106472754634L5.984765624999999 12.027841500323873L5.984765624999999 12.389136473465193" stroke-width="0.03" stroke="#000000" fill="none"/>
<path d="M5.984765624999999 12.027841500323873L5.776171874999998 11.9074098426101L4.4203125 12.690215617749628L4.4203125 13.292373906318495" stroke-width="0.03" stroke="#000000" fill="none"/>
<path d="M4.003124999999999 13.412805564032269L3.3773437500000005 13.77410053717359" stroke-width="0.03" stroke="#000000" fill="none"/>
<path d="M2.960156250000001 13.533237221746042L2.960156250000001 14.13539551031491L3.3773437500000005 14.376258825742458" stroke-width="0.03" stroke="#000000" fill="none"/>
<path d="M2.960156250000001 14.13539551031491L2.438671874999999 14.436474654599342" stroke-width="0.03" stroke="#000000" fill="none"/>
<path d="M4.003124999999999 14.737553798883777L5.046093749999999 14.13539551031491" stroke-width="0.03" stroke="#000000" fill="none"/>
<path d="M4.003124999999999 13.533237221746042L6.714843749999999 11.967625671466987L8.5921875 13.051510590890949L6.9234374999999995 14.014963852601136L5.046093749999999 12.931078933177174L5.046093749999999 15.339712087452645L2.960156250000001 16.54402866459038L4.8374999999999995 17.62791358401434L4.8374999999999995 19.554820107434715L2.960156250000001 18.470935188010756" stroke-width="0.03" stroke="#000000" fill="none"/>
<path d="M2.647265625000001 17.808561070585L2.960156250000001 17.62791358401434" stroke-width="0.03" stroke="#000000" fill="none"/>
<path d="M2.647265625000001 16.24294952030595L2.438671874999999 16.122517862592172" stroke-width="0.03" stroke="#000000" fill="none"/>
<path d="M4.003124999999999 15.94187037602151L4.003124999999999 14.737553798883777" stroke-width="0.03" stroke="#000000" fill="none"/>
<path d="M5.046093749999999 15.339712087452645L6.9234374999999995 16.423597006876605" stroke-width="0.03" stroke="#000000" fill="none"/>
<path d="M7.13203125 16.54402866459038L6.5062500000000005 16.905323637731698" stroke-width="0.03" stroke="#000000" fill="none"/>
<path d="M6.089062499999999 16.905323637731698L4.8374999999999995 17.62791358401434" stroke-width="0.03" stroke="#000000" fill="none"/>
<path d="M5.88046875 17.26661861087302L6.089062499999999 17.146186953159244" stroke-width="0.03" stroke="#000000" fill="none"/>
<path d="M5.88046875 17.26661861087302L5.88046875 18.109640214869437L8.279296875 19.49460427857783L8.5921875 19.31395679200717" stroke-width="0.03" stroke="#000000" fill="none"/>
<path d="M8.5921875 19.193525134293395L9.530859375 18.651582674581416L11.72109375 19.916115080576038L11.72109375 20.397841711431134L10.782421874999999 20.939784171143113L8.5921875 19.67525176514849L8.5921875 19.193525134293395L10.782421874999999 20.458057540288017L11.72109375 19.916115080576038" stroke-width="0.03" stroke="#000000" fill="none"/>
<path d="M11.199609375 19.615035936291605L11.199609375 19.253740963150285L10.365234375 18.77201433229519L10.260937499999999 18.832230161152076L10.260937499999999 18.95266181886585L10.991015625000001 19.37417262086406L10.991015625000001 19.49460427857783" stroke-width="0.03" stroke="#000000" fill="none"/>
<path d="M11.095312499999999 19.554820107434715L11.095312499999999 19.31395679200717L9.948046875 18.651582674581416L9.739453124999999 18.77201433229519" stroke-width="0.03" stroke="#000000" fill="none"/>
<path d="M9.948046875 18.651582674581416L9.948046875 18.410719359153866" stroke-width="0.03" stroke="#000000" fill="none"/>
<path d="M9.530859375 17.928992728298773L7.13203125 16.54402866459038L7.13203125 15.82143871830774" stroke-width="0.03" stroke="#000000" fill="none"/>
<path d="M6.9234374999999995 15.460143745166418L7.13203125 15.339712087452645" stroke-width="0.03" stroke="#000000" fill="none"/>
<path d="M6.9234374999999995 15.460143745166418L6.9234374999999995 14.014963852601136" stroke-width="0.03" stroke="#000000" fill="none"/>
<path d="M6.9234374999999995 15.460143745166418L8.696484375 16.483812835733495L8.696484375 16.72467615116104" stroke-width="0.03" stroke="#000000" fill="none"/>
<path d="M8.696484375 16.483812835733495L8.905078125 16.36338117801972" stroke-width="0.03" stroke="#000000" fill="none"/>
<path d="M9.84375 15.82143871830774L10.88671875 15.21928042973887" stroke-width="0.03" stroke="#000000" fill="none"/>
<path d="M12.033984375000001 14.31604299688557L12.033984375000001 13.834316366030475L12.7640625 13.412805564032269" stroke-width="0.03" stroke="#000000" fill="none"/>
<path d="M12.346874999999999 12.931078933177174L12.138281249999999 13.051510590890949" stroke-width="0.03" stroke="#000000" fill="none"/>
<path d="M12.346874999999999 12.931078933177174L13.702734374999999 13.713884708316701L14.224218749999999 13.412805564032269L14.85 13.77410053717359L15.47578125 13.412805564032269L15.997265625 13.713884708316701L17.353125 12.931078933177174L17.56171875 13.051510590890949" stroke-width="0.03" stroke="#000000" fill="none"/>
<path d="M16.9359375 13.412805564032269L17.666015625 13.834316366030475L19.647656249999997 12.690215617749628" stroke-width="0.03" stroke="#000000" fill="none"/>
<path d="M19.439062500000002 12.08805732918076L20.794921875 12.87086310432029L20.794921875 13.111726419747836" stroke-width="0.03" stroke="#000000" fill="none"/>
<path d="M20.586328125 12.991294762034062L20.794921875 12.87086310432029" stroke-width="0.03" stroke="#000000" fill="none"/>
<path d="M20.586328125 12.991294762034062L21.107812499999998 13.292373906318495" stroke-width="0.03" stroke="#000000" fill="none"/>
<path d="M21.212109374999997 12.991294762034062L21.107812499999998 12.931078933177174L21.420703125 12.750431446606514L21.525000000000002 12.8106472754634" stroke-width="0.03" stroke="#000000" fill="none"/>
<path d="M21.107812499999998 12.931078933177174L21.107812499999998 14.49669048345623L21.629296875 14.797769627740664" stroke-width="0.03" stroke="#000000" fill="none"/>
<path d="M21.107812499999998 14.014963852601136L19.85625 13.292373906318495L19.647656249999997 13.412805564032269" stroke-width="0.03" stroke="#000000" fill="none"/>
<path d="M19.021874999999998 12.328920644608306L19.960546875000002 11.786978184896327L19.960546875000002 10.943956580899911L16.623046875 9.017050057479535L15.47578125 9.67942417490529" stroke-width="0.03" stroke="#000000" fill="none"/>
<path d="M15.371484375 9.619208346048403L15.371484375 9.49877668833463L14.954296875 9.257913372907083L14.85 9.31812920176397L14.745703124999999 9.257913372907083L14.328515625 9.49877668833463L14.328515625 9.619208346048403" stroke-width="0.03" stroke="#000000" fill="none"/>
<path d="M14.328515625 9.49877668833463L14.4328125 9.558992517191516L12.555468750000001 10.642877436615478L12.555468750000001 11.004172409756798L12.97265625 11.245035725184344L14.85 10.161150805760384L16.72734375 11.245035725184344L17.14453125 11.004172409756798L17.14453125 10.642877436615478L15.267187499999999 9.558992517191516L15.371484375 9.49877668833463" stroke-width="0.03" stroke="#000000" fill="none"/>
<path d="M14.85 9.799855832619063L12.97265625 10.883740752043025L12.97265625 11.245035725184344" stroke-width="0.03" stroke="#000000" fill="none"/>
<path d="M12.97265625 10.883740752043025L12.555468750000001 10.642877436615478" stroke-width="0.03" stroke="#000000" fill="none"/>
<path d="M13.076953125000001 9.017050057479535L9.739453124999999 10.943956580899911L9.739453124999999 11.786978184896327L10.678125 12.328920644608306" stroke-width="0.03" stroke="#000000" fill="none"/>
<path d="M10.260937499999999 12.08805732918076L8.905078125 12.87086310432029L8.905078125 13.111726419747836" stroke-width="0.03" stroke="#000000" fill="none"/>
<path d="M8.905078125 12.87086310432029L9.113671875 12.991294762034062L8.5921875 13.292373906318495" stroke-width="0.03" stroke="#000000" fill="none"/>
<path d="M8.487890625 12.991294762034062L8.5921875 12.931078933177174" stroke-width="0.03" stroke="#000000" fill="none"/>
<path d="M8.5921875 14.014963852601136L9.84375 13.292373906318495L10.05234375 13.412805564032269" stroke-width="0.03" stroke="#000000" fill="none"/>
<path d="M10.05234375 12.690215617749628L12.033984375000001 13.834316366030475" stroke-width="0.03" stroke="#000000" fill="none"/>
<path d="M13.702734374999999 13.713884708316701L13.702734374999999 13.232158077461609L14.85 12.569783960035853L15.997265625 13.232158077461609L15.997265625 13.713884708316701" stroke-width="0.03" stroke="#000000" fill="none"/>
<path d="M15.997265625 13.232158077461609L19.960546875000002 10.943956580899911" stroke-width="0.03" stroke="#000000" fill="none"/>
<path d="M18.396093750000002 10.04071914804661L18.396093750000002 9.438560859477743L19.23046875 8.956834228622649L22.880859375 11.064388238613684L22.880859375 12.027841500323873" stroke-width="0.03" stroke="#000000" fill="none"/>
<path d="M23.715234375 12.027841500323873L23.923828125000004 11.9074098426101L25.279687499999998 12.690215617749628L25.279687499999998 13.292373906318495" stroke-width="0.03" stroke="#000000" fill="none"/>
<path d="M25.07109375 13.171942248604722L25.07109375 12.8106472754634L25.279687499999998 12.690215617749628" stroke-width="0.03" stroke="#000000" fill="none"/>
<path d="M25.07109375 12.8106472754634L23.715234375 12.027841500323873L23.715234375 12.389136473465193" stroke-width="0.03" stroke="#000000" fill="none"/>
<path d="M22.880859375 11.064388238613684L22.046484375000002 11.54611486946878L22.046484375000002 12.509568131178968" stroke-width="0.03" stroke="#000000" fill="none"/>
<path d="M22.046484375000002 11.54611486946878L18.396093750000002 9.438560859477743" stroke-width="0.03" stroke="#000000" fill="none"/>
<path d="M17.14453125 10.642877436615478L16.72734375 10.883740752043025L14.85 9.799855832619063L14.85 10.161150805760384" stroke-width="0.03" stroke="#000000" fill="none"/>
<path d="M14.224218749999999 9.67942417490529L13.076953125000001 9.017050057479535" stroke-width="0.03" stroke="#000000" fill="none"/>
<path d="M9.739453124999999 10.943956580899911L13.702734374999999 13.232158077461609" stroke-width="0.03" stroke="#000000" fill="none"/>
<path d="M14.537109375 13.593453050602928L14.85 13.412805564032269L15.162890625 13.593453050602928" stroke-width="0.03" stroke="#000000" fill="none"/>
<path d="M14.954296875 13.473021392889155L14.954296875 13.713884708316701" stroke-width="0.03" stroke="#000000" fill="none"/>
<path d="M14.85 13.77410053717359L14.85 12.569783960035853" stroke-width="0.03" stroke="#000000" fill="none"/>
<path d="M14.745703124999999 13.473021392889155L14.745703124999999 13.713884708316701" stroke-width="0.03" stroke="#000000" fill="none"/>
<path d="M14.85 14.376258825742458L12.7640625 15.580575402880193" stroke-width="0.03" stroke="#000000" fill="none"/>
<path d="M11.9296875 16.66446032230415L11.616796874999999 16.845107808874815" stroke-width="0.03" stroke="#000000" fill="none"/>
<path d="M11.512500000000001 16.784891980017925L11.825390624999999 16.60424449344727" stroke-width="0.03" stroke="#000000" fill="none"/>
<path d="M10.365234375 17.688129412871227L10.365234375 17.928992728298773" stroke-width="0.03" stroke="#000000" fill="none"/>
<path d="M11.095312499999999 19.31395679200717L11.199609375 19.253740963150285" stroke-width="0.03" stroke="#000000" fill="none"/>
<path d="M10.991015625000001 19.37417262086406L10.88671875 19.434388449720945" stroke-width="0.03" stroke="#000000" fill="none"/>
<path d="M10.782421874999999 20.458057540288017L10.782421874999999 21.54194245971198" stroke-width="0.03" stroke="#000000" fill="none"/>
<path d="M10.46953125 21.602158288568866L11.408203125 22.14410074828085L11.408203125 22.98712235227726L12.138281249999999 23.40863315427547L12.138281249999999 24.492518073699433" stroke-width="0.03" stroke="#000000" fill="none"/>
<path d="M12.346874999999999 24.612949731413206L12.346874999999999 24.251654758271883L12.659765624999999 24.071007271701223" stroke-width="0.03" stroke="#000000" fill="none"/>
<path d="M12.346874999999999 24.251654758271883L13.285546875 24.793597217983862" stroke-width="0.03" stroke="#000000" fill="none"/>
<path d="M12.555468750000001 24.73338138912698L11.199609375 25.51618716426651" stroke-width="0.03" stroke="#000000" fill="none"/>
<path d="M12.555468750000001 25.696834650837165L12.868359374999999 25.877482137407824" stroke-width="0.03" stroke="#000000" fill="none"/>
<path d="M12.868359374999999 25.9979137951216L12.555468750000001 25.817266308550938" stroke-width="0.03" stroke="#000000" fill="none"/>
<path d="M12.555468750000001 24.73338138912698L12.555468750000001 27.50330951654377" stroke-width="0.03" stroke="#000000" fill="none"/>
<path d="M12.868359374999999 27.92482031854198L11.825390624999999 27.322662029973106" stroke-width="0.03" stroke="#000000" fill="none"/>
<path d="M10.46953125 26.780719570261127L10.05234375 27.021582885688677L10.05234375 29.30978438225037" stroke-width="0.03" stroke="#000000" fill="none"/>
<path d="M10.678125 29.189352724536597L10.678125 28.94848940910905" stroke-width="0.03" stroke="#000000" fill="none"/>
<path d="M10.678125 29.189352724536597L11.9296875 29.91194267081924" stroke-width="0.03" stroke="#000000" fill="none"/>
<path d="M11.095312499999999 31.477554221098295L10.260937499999999 31.959280851953388L6.610546875 29.851726841962353L7.13203125 29.550647697677917" stroke-width="0.03" stroke="#000000" fill="none"/>
<path d="M6.610546875 29.851726841962353L6.610546875 30.815180103672542L10.260937499999999 32.92273411366358L11.095312499999999 32.44100748280849" stroke-width="0.03" stroke="#000000" fill="none"/>
<path d="M10.260937499999999 32.92273411366358L10.260937499999999 31.959280851953388" stroke-width="0.03" stroke="#000000" fill="none"/>
<path d="M8.696484375 30.45388513053122L8.696484375 25.877482137407824L9.113671875 25.636618821980278L9.113671875 27.202230372259333L9.322265625 27.322662029973106" stroke-width="0.03" stroke="#000000" fill="none"/>
<path d="M9.322265625 26.600072083690467L10.05234375 27.021582885688677" stroke-width="0.03" stroke="#000000" fill="none"/>
<path d="M9.113671875 25.636618821980278L8.5921875 25.335539677695845L8.5921875 24.612949731413206L7.96640625 24.251654758271883L7.96640625 23.649496469703017L6.610546875 22.866690694563488L6.610546875 22.62582737913594" stroke-width="0.03" stroke="#000000" fill="none"/>
<path d="M7.236328125 22.98712235227726L7.653515625 22.746259036849715L7.653515625 21.903237432853302L6.610546875 21.301079144284433L6.610546875 20.458057540288017L7.236328125 20.096762567146698L7.862109374999999 20.458057540288017L8.070703124999998 20.337625882574244L8.070703124999998 19.37417262086406" stroke-width="0.03" stroke="#000000" fill="none"/>
<path d="M7.862109374999999 19.253740963150285L7.862109374999999 20.458057540288017" stroke-width="0.03" stroke="#000000" fill="none"/>
<path d="M8.070703124999998 19.735467594005378L10.46953125 21.120431657713773L10.46953125 23.529064811989244L9.113671875 24.311870587128773" stroke-width="0.03" stroke="#000000" fill="none"/>
<path d="M8.5921875 24.612949731413206L7.5492187500000005 25.215108019982072L7.5492187500000005 23.890359785130563L3.5859375 21.602158288568866L3.5859375 25.45597133540962L4.733203124999998 26.118345452835374" stroke-width="0.03" stroke="#000000" fill="none"/>
<path d="M4.62890625 26.29899293940603L4.733203124999998 26.359208768262917" stroke-width="0.03" stroke="#000000" fill="none"/>
<path d="M5.150390625 26.600072083690467L7.027734374999999 27.68395700311443L7.340624999999999 27.50330951654377" stroke-width="0.03" stroke="#000000" fill="none"/>
<path d="M7.027734374999999 27.68395700311443L7.027734374999999 28.165683633969522" stroke-width="0.03" stroke="#000000" fill="none"/>
<path d="M8.696484375 25.877482137407824L7.5492187500000005 25.215108019982072" stroke-width="0.03" stroke="#000000" fill="none"/>
<path d="M8.279296875 24.793597217983862L8.279296875 24.432302244842543" stroke-width="0.03" stroke="#000000" fill="none"/>
<path d="M8.487890625 24.55273390255632L8.279296875 24.673165560270093" stroke-width="0.03" stroke="#000000" fill="none"/>
<path d="M8.279296875 24.793597217983862L8.5921875 24.974244704554525" stroke-width="0.03" stroke="#000000" fill="none"/>
<path d="M8.5921875 24.73338138912698L8.38359375 24.85381304684075" stroke-width="0.03" stroke="#000000" fill="none"/>
<path d="M7.96640625 23.649496469703017L7.5492187500000005 23.890359785130563" stroke-width="0.03" stroke="#000000" fill="none"/>
<path d="M7.236328125 22.98712235227726L7.236328125 22.14410074828085L5.254687500000001 21L6.297656249999999 20.397841711431134L6.610546875 20.57848919800179" stroke-width="0.03" stroke="#000000" fill="none"/>
<path d="M6.610546875 20.458057540288017L9.113671875 21.903237432853302" stroke-width="0.03" stroke="#000000" fill="none"/>
<path d="M9.63515625 20.63870502685868L9.63515625 20.277410053717357" stroke-width="0.03" stroke="#000000" fill="none"/>
<path d="M9.530859375 20.21719422486047L9.530859375 20.57848919800179" stroke-width="0.03" stroke="#000000" fill="none"/>
<path d="M10.991015625000001 20.819352513429337L10.991015625000001 21.18064748657066L11.095312499999999 21.240863315427546L11.199609375 21.18064748657066L11.199609375 20.698920855715564" stroke-width="0.03" stroke="#000000" fill="none"/>
<path d="M11.095312499999999 20.759136684572454L11.095312499999999 21.36129497314132" stroke-width="0.03" stroke="#000000" fill="none"/>
<path d="M11.408203125 22.14410074828085L11.9296875 21.843021603996412" stroke-width="0.03" stroke="#000000" fill="none"/>
<path d="M11.9296875 22.686043207992828L11.408203125 22.98712235227726" stroke-width="0.03" stroke="#000000" fill="none"/>
<path d="M12.138281249999999 23.40863315427547L12.659765624999999 23.107554009991038" stroke-width="0.03" stroke="#000000" fill="none"/>
<path d="M12.555468750000001 24.73338138912698L10.46953125 23.529064811989244" stroke-width="0.03" stroke="#000000" fill="none"/>
<path d="M7.653515625 21.903237432853302L7.236328125 22.14410074828085" stroke-width="0.03" stroke="#000000" fill="none"/>
<path d="M7.236328125 22.98712235227726L5.254687500000001 21.843021603996412L5.254687500000001 21" stroke-width="0.03" stroke="#000000" fill="none"/>
<path d="M5.671875 20.518273369144907L5.671875 19.073093476579622" stroke-width="0.03" stroke="#000000" fill="none"/>
<path d="M6.089062499999999 18.832230161152076L4.733203124999998 19.615035936291605L4.4203125 19.434388449720945L4.4203125 19.31395679200717" stroke-width="0.03" stroke="#000000" fill="none"/>
<path d="M4.733203124999998 19.49460427857783L4.733203124999998 19.615035936291605" stroke-width="0.03" stroke="#000000" fill="none"/>
<path d="M4.8374999999999995 19.916115080576038L5.046093749999999 19.795683422862265" stroke-width="0.03" stroke="#000000" fill="none"/>
<path d="M5.046093749999999 20.03654673828981L5.046093749999999 19.434388449720945" stroke-width="0.03" stroke="#000000" fill="none"/>
<path d="M4.8374999999999995 19.916115080576038L4.8374999999999995 21.481726630855093" stroke-width="0.03" stroke="#000000" fill="none"/>
<path d="M5.254687500000001 21.72258994628264L4.3160156249999995 21.18064748657066L3.5859375 21.602158288568866" stroke-width="0.03" stroke="#000000" fill="none"/>
<path d="M4.8374999999999995 19.916115080576038L5.046093749999999 20.03654673828981" stroke-width="0.03" stroke="#000000" fill="none"/>
<path d="M5.671875 20.518273369144907L5.88046875 20.63870502685868" stroke-width="0.03" stroke="#000000" fill="none"/>
<path d="M6.089062499999999 18.832230161152076L6.089062499999999 18.23007187258321" stroke-width="0.03" stroke="#000000" fill="none"/>
<path d="M5.88046875 17.26661861087302L8.279296875 18.651582674581416L8.279296875 19.49460427857783" stroke-width="0.03" stroke="#000000" fill="none"/>
<path d="M3.898828125 19.01287764772274L3.064453125 19.49460427857783L2.2300781249999995 19.01287764772274" stroke-width="0.03" stroke="#000000" fill="none"/>
<path d="M3.064453125 19.49460427857783L3.064453125 23.709712298559904" stroke-width="0.03" stroke="#000000" fill="none"/>
<path d="M4.62890625 12.8106472754634L4.4203125 12.690215617749628" stroke-width="0.03" stroke="#000000" fill="none"/>
<path d="M6.819140625 12.027841500323873L6.819140625 11.064388238613684L7.653515625 11.54611486946878" stroke-width="0.03" stroke="#000000" fill="none"/>
<path d="M4.992314562197407 3.383983116796798L4.992314562197407 3.0054372986874878L4.938236588181791 3.0595152727031034L4.902184605504715 3.077541264041642" stroke-width="0.03" stroke="#000000" fill="none"/>
<path d="M4.595742752749558 3.0054372986874878L4.541664778733942 3.023463290026026L4.505612796056865 3.077541264041642L4.487586804718326 3.167671220734335L4.487586804718326 3.221749194749951L4.505612796056865 3.3118791514426436L4.541664778733942 3.3659571254582596L4.595742752749558 3.383983116796798L4.631794735426635 3.383983116796798L4.6858727094422505 3.3659571254582596L4.7219246921193285 3.3118791514426436L4.739950683457867 3.221749194749951L4.739950683457867 3.167671220734335L4.7219246921193285 3.077541264041642L4.6858727094422505 3.023463290026026L4.631794735426635 3.0054372986874878L4.595742752749558 3.0054372986874878" stroke-width="0.03" stroke="#000000" fill="none"/>
<path d="M4.415482839364172 3.0054372986874878L4.18114495196317 3.0054372986874878L4.18114495196317 3.383983116796798" stroke-width="0.03" stroke="#000000" fill="none"/>
<path d="M4.18114495196317 3.1856972120728733L4.3253528826714795 3.1856972120728733" stroke-width="0.03" stroke="#000000" fill="none"/>
<path d="M3.8927290905465526 3.0054372986874878L3.838651116530937 3.023463290026026L3.8206251251923984 3.0595152727031034L3.8206251251923984 3.0955672553801805L3.838651116530937 3.1316192380572576L3.8747030992080145 3.149645229395796L3.9468070645621687 3.167671220734335L4.000885038577785 3.1856972120728733L4.036937021254861 3.221749194749951L4.0549630125934 3.257801177427028L4.0549630125934 3.3118791514426436L4.036937021254861 3.3479311341197207L4.018911029916323 3.3659571254582596L3.9648330559007072 3.383983116796798L3.8927290905465526 3.383983116796798L3.838651116530937 3.3659571254582596L3.8206251251923984 3.3479311341197207L3.80259913385386 3.3118791514426436L3.80259913385386 3.257801177427028L3.8206251251923984 3.221749194749951L3.8566771078694755 3.1856972120728733L3.9107550818850916 3.167671220734335L3.9828590472392458 3.149645229395796L4.018911029916323 3.1316192380572576L4.036937021254861 3.0955672553801805L4.036937021254861 3.0595152727031034L4.018911029916323 3.023463290026026L3.9648330559007072 3.0054372986874878L3.8927290905465526 3.0054372986874878" stroke-width="0.03" stroke="#000000" fill="none"/>
<path d="M3.6764171944840895 3.1316192380572576L3.658391203145551 3.1856972120728733L3.622339220468474 3.221749194749951L3.568261246452858 3.2397751860884894L3.5502352551143197 3.2397751860884894L3.4961572810987036 3.221749194749951L3.4601052984216265 3.1856972120728733L3.442079307083088 3.1316192380572576L3.442079307083088 3.113593246718719L3.4601052984216265 3.0595152727031034L3.4961572810987036 3.023463290026026L3.5502352551143197 3.0054372986874878L3.568261246452858 3.0054372986874878L3.622339220468474 3.023463290026026L3.658391203145551 3.0595152727031034L3.6764171944840895 3.1316192380572576L3.6764171944840895 3.221749194749951L3.658391203145551 3.3118791514426436L3.622339220468474 3.3659571254582596L3.568261246452858 3.383983116796798L3.5322092637757807 3.383983116796798L3.478131289760165 3.3659571254582596L3.4601052984216265 3.3299051427811825" stroke-width="0.03" stroke="#000000" fill="none"/>
<path d="M3.0815594803123156 3.3118791514426436L3.0995854716508546 3.3479311341197207L3.117611462989393 3.3659571254582596L3.171689437005009 3.383983116796798L3.225767411020625 3.383983116796798L3.2798453850362406 3.3659571254582596L3.3158973677133177 3.3299051427811825L3.333923359051856 3.2758271687655665L3.333923359051856 3.2397751860884894L3.3158973677133177 3.1856972120728733L3.297871376374779 3.167671220734335L3.261819393697702 3.149645229395796L3.207741419682086 3.149645229395796L3.3158973677133177 3.0054372986874878L3.117611462989393 3.0054372986874878" stroke-width="0.03" stroke="#000000" fill="none"/>
<path d="M2.757091636218621 3.0054372986874878L2.955377540942546 3.0054372986874878L2.847221592911314 3.149645229395796L2.90129956692693 3.149645229395796L2.9373515496040072 3.167671220734335L2.955377540942546 3.1856972120728733L2.9734035322810843 3.2397751860884894L2.9734035322810843 3.2758271687655665L2.955377540942546 3.3299051427811825L2.9193255582654682 3.3659571254582596L2.8652475842498526 3.383983116796798L2.811169610234237 3.383983116796798L2.757091636218621 3.3659571254582596L2.7390656448800828 3.3479311341197207L2.7210396535415438 3.3118791514426436" stroke-width="0.03" stroke="#000000" fill="none"/>
<path d="M2.6128837055103125 3.383983116796798L2.414597800786388 3.1316192380572576" stroke-width="0.03" stroke="#000000" fill="none"/>
<path d="M2.6128837055103125 3.1316192380572576L2.414597800786388 3.383983116796798" stroke-width="0.03" stroke="#000000" fill="none"/>
<path d="M2.1622339220468474 3.0054372986874878L2.1081559480312317 3.023463290026026L2.072103965354154 3.077541264041642L2.0540779740156156 3.167671220734335L2.0540779740156156 3.221749194749951L2.072103965354154 3.3118791514426436L2.1081559480312317 3.3659571254582596L2.1622339220468474 3.383983116796798L2.1982859047239245 3.383983116796798L2.2523638787395406 3.3659571254582596L2.2884158614166177 3.3118791514426436L2.3064418527551562 3.221749194749951L2.3064418527551562 3.167671220734335L2.2884158614166177 3.077541264041642L2.2523638787395406 3.023463290026026L2.1982859047239245 3.0054372986874878L2.1622339220468474 3.0054372986874878" stroke-width="0.03" stroke="#000000" fill="none"/>
<path d="M2.1166666666666667 2.2291666666666665L2.1166666666666667 1.8208333333333333" stroke-width="0.03" stroke="#000000" fill="none"/>
<path d="M2.0875 1.6166666666666667L2.1166666666666667 1.6458333333333333L2.145833333333333 1.6166666666666667L2.1166666666666667 1.5875L2.0875 1.6166666666666667" stroke-width="0.03" stroke="#000000" fill="none"/>
<path d="M2.3208333333333333 2.1416666666666666L2.35 2.2L2.4375 2.2291666666666665L2.525 2.2291666666666665L2.6125 2.2L2.6416666666666666 2.1416666666666666L2.6416666666666666 2.1125L2.6125 2.0541666666666667L2.5541666666666667 2.025L2.408333333333333 1.9958333333333333L2.35 1.9666666666666666L2.3208333333333333 1.9083333333333332L2.35 1.85L2.4375 1.8208333333333333L2.525 1.8208333333333333L2.6125 1.85L2.6416666666666666 1.9083333333333332" stroke-width="0.03" stroke="#000000" fill="none"/>
<path d="M2.9625 1.8208333333333333L2.904166666666667 1.85L2.845833333333333 1.9083333333333332L2.8166666666666664 1.9958333333333333L2.8166666666666664 2.0541666666666667L2.845833333333333 2.1416666666666666L2.904166666666667 2.2L2.9625 2.2291666666666665L3.05 2.2291666666666665L3.1083333333333334 2.2L3.1666666666666665 2.1416666666666666L3.1958333333333333 2.0541666666666667L3.1958333333333333 1.9958333333333333L3.1666666666666665 1.9083333333333332L3.1083333333333334 1.85L3.05 1.8208333333333333L2.9625 1.8208333333333333" stroke-width="0.03" stroke="#000000" fill="none"/>
<path d="M3.283333333333333 2.2874999999999996L3.75 2.2874999999999996" stroke-width="0.03" stroke="#000000" fill="none"/>
<path d="M3.8375 2.1416666666666666L3.8666666666666663 2.2L3.9541666666666666 2.2291666666666665L4.041666666666666 2.2291666666666665L4.129166666666666 2.2L4.158333333333333 2.1416666666666666L4.158333333333333 2.1125L4.129166666666666 2.0541666666666667L4.070833333333333 2.025L3.925 1.9958333333333333L3.8666666666666663 1.9666666666666666L3.8375 1.9083333333333332L3.8666666666666663 1.85L3.9541666666666666 1.8208333333333333L4.041666666666666 1.8208333333333333L4.129166666666666 1.85L4.158333333333333 1.9083333333333332" stroke-width="0.03" stroke="#000000" fill="none"/>
<path d="M4.3625 1.9375L4.449999999999999 1.85L4.508333333333333 1.8208333333333333L4.595833333333333 1.8208333333333333L4.654166666666667 1.85L4.683333333333334 1.9375L4.683333333333334 2.2291666666666665" stroke-width="0.03" stroke="#000000" fill="none"/>
<path d="M4.3625 2.2291666666666665L4.3625 1.8208333333333333" stroke-width="0.03" stroke="#000000" fill="none"/>
<path d="M5.033333333333333 1.8208333333333333L4.975 1.85L4.916666666666666 1.9083333333333332L4.887499999999999 1.9958333333333333L4.887499999999999 2.0541666666666667L4.916666666666666 2.1416666666666666L4.975 2.2L5.033333333333333 2.2291666666666665L5.120833333333334 2.2291666666666665L5.179166666666666 2.2L5.2375 2.1416666666666666L5.266666666666666 2.0541666666666667L5.266666666666666 1.9958333333333333L5.2375 1.9083333333333332L5.179166666666666 1.85L5.120833333333334 1.8208333333333333L5.033333333333333 1.8208333333333333" stroke-width="0.03" stroke="#000000" fill="none"/>
<path d="M5.441666666666666 1.8208333333333333L5.558333333333334 2.2291666666666665L5.675 1.8208333333333333L5.791666666666666 2.2291666666666665L5.908333333333333 1.8208333333333333" stroke-width="0.03" stroke="#000000" fill="none"/>
<path d="M6.054166666666666 1.8208333333333333L6.258333333333333 1.8208333333333333" stroke-width="0.03" stroke="#000000" fill="none"/>
<path d="M6.2875 1.6166666666666667L6.229166666666666 1.6166666666666667L6.1708333333333325 1.6458333333333333L6.141666666666667 1.7333333333333334L6.141666666666667 2.2291666666666665" stroke-width="0.03" stroke="#000000" fill="none"/>
<path d="M6.4624999999999995 2.2291666666666665L6.4624999999999995 1.6166666666666667" stroke-width="0.03" stroke="#000000" fill="none"/>
<path d="M7.016666666666666 1.8208333333333333L7.016666666666666 2.2291666666666665" stroke-width="0.03" stroke="#000000" fill="none"/>
<path d="M7.016666666666666 2.1416666666666666L6.958333333333333 2.2L6.8999999999999995 2.2291666666666665L6.812499999999999 2.2291666666666665L6.754166666666666 2.2L6.695833333333333 2.1416666666666666L6.666666666666666 2.0541666666666667L6.666666666666666 1.9958333333333333L6.695833333333333 1.9083333333333332L6.754166666666666 1.85L6.812499999999999 1.8208333333333333L6.8999999999999995 1.8208333333333333L6.958333333333333 1.85L7.016666666666666 1.9083333333333332" stroke-width="0.03" stroke="#000000" fill="none"/>
<path d="M7.249999999999999 2.1125L7.541666666666666 1.8208333333333333" stroke-width="0.03" stroke="#000000" fill="none"/>
<path d="M7.366666666666666 1.9958333333333333L7.570833333333333 2.2291666666666665" stroke-width="0.03" stroke="#000000" fill="none"/>
<path d="M7.716666666666666 1.9958333333333333L8.066666666666666 1.9958333333333333L8.066666666666666 1.9375L8.0375 1.8791666666666667L8.008333333333333 1.85L7.949999999999999 1.8208333333333333L7.8625 1.8208333333333333L7.804166666666666 1.85L7.745833333333333 1.9083333333333332L7.716666666666666 1.9958333333333333L7.716666666666666 2.0541666666666667L7.745833333333333 2.1416666666666666L7.804166666666666 2.2L7.8625 2.2291666666666665L7.949999999999999 2.2291666666666665L8.008333333333333 2.2L8.066666666666666 2.1416666666666666" stroke-width="0.03" stroke="#000000" fill="none"/>
<path d="M8.270833333333332 1.7625L8.270833333333332 1.7333333333333334L8.299999999999999 1.675L8.329166666666666 1.6458333333333333L8.3875 1.6166666666666667L8.504166666666666 1.6166666666666667L8.5625 1.6458333333333333L8.591666666666665 1.675L8.620833333333334 1.7333333333333334L8.620833333333334 1.7916666666666665L8.591666666666665 1.85L8.533333333333331 1.9375L8.241666666666667 2.2291666666666665L8.649999999999999 2.2291666666666665" stroke-width="0.03" stroke="#000000" fill="none"/>
<path d="M9.237499999999999 2.533333333333333L1.5 2.533333333333333" stroke-width="0.03" stroke="#000000" fill="none"/>
<path d="M5.316782406291102 3.0054372986874878L5.262704432275486 3.023463290026026L5.22665244959841 3.077541264041642L5.20862645825987 3.167671220734335L5.20862645825987 3.221749194749951L5.22665244959841 3.3118791514426436L5.262704432275486 3.3659571254582596L5.316782406291102 3.383983116796798L5.352834388968179 3.383983116796798L5.406912362983795 3.3659571254582596L5.442964345660872 3.3118791514426436L5.46099033699941 3.221749194749951L5.46099033699941 3.167671220734335L5.442964345660872 3.077541264041642L5.406912362983795 3.023463290026026L5.352834388968179 3.0054372986874878L5.316782406291102 3.0054372986874878" stroke-width="0.03" stroke="#000000" fill="none"/>
<path d="M7.249999999999999 2.2291666666666665L7.249999999999999 1.6166666666666667" stroke-width="0.03" stroke="#000000" fill="none"/>
<path d="M16.72734375 10.883740752043025L16.72734375 11.245035725184344" stroke-width="0.03" stroke="#000000" fill="none"/>
<path d="M17.666015625 13.834316366030475L17.666015625 14.31604299688557" stroke-width="0.03" stroke="#000000" fill="none"/>
<path d="M18.81328125 15.21928042973887L19.85625 15.82143871830774" stroke-width="0.03" stroke="#000000" fill="none"/>
<path d="M20.794921875 16.36338117801972L21.003515625000002 16.483812835733495" stroke-width="0.03" stroke="#000000" fill="none"/>
<path d="M21.003515625000002 16.72467615116104L22.7765625 15.701007060593964L22.7765625 16.423597006876605L23.40234375 16.784891980017925" stroke-width="0.03" stroke="#000000" fill="none"/>
<path d="M23.610937500000002 16.905323637731698L24.8625 17.62791358401434" stroke-width="0.03" stroke="#000000" fill="none"/>
<path d="M23.610937500000002 18.23007187258321L23.610937500000002 18.832230161152076L24.966796875000004 19.615035936291605L25.279687499999998 19.434388449720945L25.279687499999998 19.31395679200717" stroke-width="0.03" stroke="#000000" fill="none"/>
<path d="M24.966796875000004 19.49460427857783L24.966796875000004 19.615035936291605" stroke-width="0.03" stroke="#000000" fill="none"/>
<path d="M24.8625 19.916115080576038L24.653906250000002 20.03654673828981L24.653906250000002 19.434388449720945" stroke-width="0.03" stroke="#000000" fill="none"/>
<path d="M24.653906250000002 19.795683422862265L24.8625 19.916115080576038L24.8625 21.481726630855093" stroke-width="0.03" stroke="#000000" fill="none"/>
<path d="M24.4453125 21.72258994628264L25.383984374999997 21.18064748657066L26.1140625 21.602158288568866L26.1140625 25.45597133540962L24.966796875000004 26.118345452835374" stroke-width="0.03" stroke="#000000" fill="none"/>
<path d="M24.966796875000004 26.238777110549147L25.07109375 26.29899293940603L25.07109375 26.780719570261127L24.966796875000004 26.840935399118013L24.966796875000004 26.96136705683179L24.549609375 27.202230372259333L24.4453125 27.142014543402446" stroke-width="0.03" stroke="#000000" fill="none"/>
<path d="M24.549609375 27.081798714545563L22.672265625 28.165683633969522L22.359375 27.985036147398862L22.359375 27.50330951654377L24.23671875 26.419424597119807L24.23671875 24.251654758271883L24.653906250000002 24.010791442844337L24.966796875000004 24.191438929414996L24.966796875000004 26.359208768262917L25.07109375 26.29899293940603" stroke-width="0.03" stroke="#000000" fill="none"/>
<path d="M24.549609375 26.600072083690467L22.672265625 27.68395700311443L22.359375 27.50330951654377" stroke-width="0.03" stroke="#000000" fill="none"/>
<path d="M22.672265625 27.68395700311443L22.672265625 28.165683633969522" stroke-width="0.03" stroke="#000000" fill="none"/>
<path d="M22.567968750000002 29.550647697677917L23.089453125000002 29.851726841962353L23.089453125000002 30.815180103672542L19.439062500000002 32.92273411366358L18.6046875 32.44100748280849" stroke-width="0.03" stroke="#000000" fill="none"/>
<path d="M19.439062500000002 32.92273411366358L19.439062500000002 31.959280851953388L23.089453125000002 29.851726841962353" stroke-width="0.03" stroke="#000000" fill="none"/>
<path d="M24.341015624999997 28.526978607110845L21.003515625000002 30.45388513053122L20.2734375 30.032374328533013L20.2734375 28.94848940910905" stroke-width="0.03" stroke="#000000" fill="none"/>
<path d="M20.377734375 28.888273580252164L19.647656249999997 29.30978438225037L18.6046875 28.7076260936815L18.6046875 28.346331120540185" stroke-width="0.03" stroke="#000000" fill="none"/>
<path d="M18.500390624999998 28.40654694939707L19.23046875 27.985036147398862L19.23046875 26.780719570261127L19.960546875000002 26.359208768262917L20.377734375 26.600072083690467L20.377734375 28.888273580252164" stroke-width="0.03" stroke="#000000" fill="none"/>
<path d="M20.2734375 29.430216039964147L18.917578125000002 30.21302181510367L18.708984375 30.0925901573899" stroke-width="0.03" stroke="#000000" fill="none"/>
<path d="M18.917578125000002 30.21302181510367L18.917578125000002 29.972158499676127L18.396093750000002 30.273237643960556" stroke-width="0.03" stroke="#000000" fill="none"/>
<path d="M18.6046875 30.514100959388106L18.708984375 30.45388513053122L17.353125 29.67107935539169L16.831640625 29.972158499676127" stroke-width="0.03" stroke="#000000" fill="none"/>
<path d="M17.7703125 29.91194267081924L19.021874999999998 29.189352724536597L19.021874999999998 28.94848940910905" stroke-width="0.03" stroke="#000000" fill="none"/>
<path d="M19.647656249999997 29.30978438225037L19.647656249999997 27.021582885688677L19.23046875 26.780719570261127" stroke-width="0.03" stroke="#000000" fill="none"/>
<path d="M19.647656249999997 27.021582885688677L20.377734375 26.600072083690467" stroke-width="0.03" stroke="#000000" fill="none"/>
<path d="M20.586328125 27.202230372259333L20.377734375 27.322662029973106" stroke-width="0.03" stroke="#000000" fill="none"/>
<path d="M20.586328125 27.202230372259333L20.586328125 25.636618821980278L21.107812499999998 25.335539677695845L21.107812499999998 24.612949731413206L21.733593749999997 24.251654758271883L21.733593749999997 23.649496469703017L23.089453125000002 22.866690694563488L23.089453125000002 22.62582737913594" stroke-width="0.03" stroke="#000000" fill="none"/>
<path d="M22.463671875 22.98712235227726L24.4453125 21.843021603996412L24.4453125 21L23.40234375 20.397841711431134L23.089453125000002 20.57848919800179" stroke-width="0.03" stroke="#000000" fill="none"/>
<path d="M23.089453125000002 20.458057540288017L20.586328125 21.903237432853302L20.586328125 24.311870587128773L18.500390624999998 25.51618716426651L18.500390624999998 28.40654694939707L17.874609375000002 28.04525197625575L17.874609375000002 27.322662029973106L17.666015625 27.202230372259333L16.831640625 27.68395700311443" stroke-width="0.03" stroke="#000000" fill="none"/>
<path d="M16.831640625 27.92482031854198L17.874609375000002 27.322662029973106" stroke-width="0.03" stroke="#000000" fill="none"/>
<path d="M17.14453125 25.817266308550938L16.831640625 25.9979137951216" stroke-width="0.03" stroke="#000000" fill="none"/>
<path d="M16.831640625 25.877482137407824L17.14453125 25.696834650837165" stroke-width="0.03" stroke="#000000" fill="none"/>
<path d="M17.14453125 24.73338138912698L18.500390624999998 25.51618716426651" stroke-width="0.03" stroke="#000000" fill="none"/>
<path d="M20.586328125 25.636618821980278L21.003515625000002 25.877482137407824L22.150781249999998 25.215108019982072L22.150781249999998 23.890359785130563L26.1140625 21.602158288568866" stroke-width="0.03" stroke="#000000" fill="none"/>
<path d="M24.4453125 21L22.463671875 22.14410074828085L22.463671875 22.98712235227726L22.046484375000002 22.746259036849715L22.046484375000002 21.903237432853302L23.089453125000002 21.301079144284433L23.089453125000002 20.458057540288017L22.463671875 20.096762567146698L21.837890625 20.458057540288017L21.629296875 20.337625882574244L21.629296875 19.37417262086406" stroke-width="0.03" stroke="#000000" fill="none"/>
<path d="M21.837890625 19.253740963150285L21.837890625 20.458057540288017" stroke-width="0.03" stroke="#000000" fill="none"/>
<path d="M22.046484375000002 21.903237432853302L22.463671875 22.14410074828085" stroke-width="0.03" stroke="#000000" fill="none"/>
<path d="M21.733593749999997 23.649496469703017L22.150781249999998 23.890359785130563" stroke-width="0.03" stroke="#000000" fill="none"/>
<path d="M21.420703125 24.432302244842543L21.420703125 24.793597217983862L21.107812499999998 24.974244704554525" stroke-width="0.03" stroke="#000000" fill="none"/>
<path d="M21.107812499999998 24.73338138912698L21.31640625 24.85381304684075" stroke-width="0.03" stroke="#000000" fill="none"/>
<path d="M21.420703125 24.673165560270093L21.212109374999997 24.55273390255632" stroke-width="0.03" stroke="#000000" fill="none"/>
<path d="M21.107812499999998 24.612949731413206L22.150781249999998 25.215108019982072" stroke-width="0.03" stroke="#000000" fill="none"/>
<path d="M21.003515625000002 25.877482137407824L21.003515625000002 30.45388513053122" stroke-width="0.03" stroke="#000000" fill="none"/>
<path d="M19.439062500000002 31.959280851953388L18.6046875 31.477554221098295" stroke-width="0.03" stroke="#000000" fill="none"/>
<path d="M18.6046875 30.87539593252943L18.708984375 30.815180103672542L18.708984375 30.45388513053122" stroke-width="0.03" stroke="#000000" fill="none"/>
<path d="M16.9359375 31.35712256338452L15.684375 30.63453261710188" stroke-width="0.03" stroke="#000000" fill="none"/>
<path d="M15.47578125 30.273237643960556L14.85 29.91194267081924" stroke-width="0.03" stroke="#000000" fill="none"/>
<path d="M14.85 30.152805986246786L14.85 32.32057582509471" stroke-width="0.03" stroke="#000000" fill="none"/>
<path d="M14.85 34.247482348515085L14.85 34.729208979370185" stroke-width="0.03" stroke="#000000" fill="none"/>
<path d="M12.868359374999999 34.187266519658195L12.868359374999999 33.94640320423065" stroke-width="0.03" stroke="#000000" fill="none"/>
<path d="M17.56171875 23.40863315427547L18.291796875 22.98712235227726L18.291796875 22.14410074828085L17.7703125 21.843021603996412" stroke-width="0.03" stroke="#000000" fill="none"/>
<path d="M18.291796875 22.14410074828085L19.23046875 21.602158288568866" stroke-width="0.03" stroke="#000000" fill="none"/>
<path d="M19.23046875 21.36129497314132L18.917578125000002 21.54194245971198L18.6046875 21.36129497314132" stroke-width="0.03" stroke="#000000" fill="none"/>
<path d="M18.917578125000002 21.54194245971198L18.917578125000002 20.458057540288017" stroke-width="0.03" stroke="#000000" fill="none"/>
<path d="M19.23046875 21.120431657713773L20.586328125 21.903237432853302" stroke-width="0.03" stroke="#000000" fill="none"/>
<path d="M20.064843749999998 20.63870502685868L20.064843749999998 20.277410053717357" stroke-width="0.03" stroke="#000000" fill="none"/>
<path d="M20.169140624999997 20.21719422486047L20.169140624999997 20.57848919800179" stroke-width="0.03" stroke="#000000" fill="none"/>
<path d="M19.960546875000002 18.77201433229519L19.751953125 18.651582674581416" stroke-width="0.03" stroke="#000000" fill="none"/>
<path d="M22.567968750000002 16.54402866459038L22.567968750000002 15.82143871830774" stroke-width="0.03" stroke="#000000" fill="none"/>
<path d="M22.7765625 16.423597006876605L24.653906250000002 15.339712087452645" stroke-width="0.03" stroke="#000000" fill="none"/>
<path d="M26.322656249999998 13.77410053717359L26.73984375 13.533237221746042" stroke-width="0.03" stroke="#000000" fill="none"/>
<path d="M26.635546875 18.531151016867643L27.469921874999997 19.01287764772274L27.469921874999997 23.227985667704807L26.635546875 23.709712298559904L26.1140625 23.40863315427547" stroke-width="0.03" stroke="#000000" fill="none"/>
<path d="M26.635546875 23.709712298559904L26.635546875 19.49460427857783L27.469921874999997 19.01287764772274" stroke-width="0.03" stroke="#000000" fill="none"/>
<path d="M26.635546875 19.49460427857783L25.801171875 19.01287764772274" stroke-width="0.03" stroke="#000000" fill="none"/>
<path d="M24.028125 19.073093476579622L24.028125 20.518273369144907L23.819531249999997 20.63870502685868" stroke-width="0.03" stroke="#000000" fill="none"/>
<path d="M24.23671875 24.251654758271883L24.549609375 24.432302244842543L24.966796875000004 24.191438929414996" stroke-width="0.03" stroke="#000000" fill="none"/>
<path d="M24.549609375 24.432302244842543L24.549609375 26.600072083690467L24.23671875 26.419424597119807" stroke-width="0.03" stroke="#000000" fill="none"/>
<path d="M24.549609375 27.081798714545563L24.549609375 27.202230372259333" stroke-width="0.03" stroke="#000000" fill="none"/>
<path d="M24.341015624999997 27.202230372259333L24.341015624999997 28.526978607110845" stroke-width="0.03" stroke="#000000" fill="none"/>
<path d="M20.586328125 24.311870587128773L19.23046875 23.529064811989244" stroke-width="0.03" stroke="#000000" fill="none"/>
<path d="M18.291796875 22.98712235227726L17.7703125 22.686043207992828" stroke-width="0.03" stroke="#000000" fill="none"/>
</svg>
