<?xml version="1.0" standalone="no"?>
<svg width="29.7cm" height="42cm" version="1.1" xmlns="http://www.w3.org/2000/svg" viewBox="0.0 0.0 29.700001 42.000001">
<path d="M7.13203125 11.004172409756798L7.7578125 10.642877436615478L9.113671875 11.425683211755006L9.948046875 10.943956580899911" stroke-width="0.03" stroke="#000000" fill="none"/>
<path d="M9.84375 10.883740752043025L9.84375 10.642877436615478L10.46953125 10.281582463474159L14.85 12.8106472754634L19.23046875 10.281582463474159L19.85625 10.642877436615478L19.85625 10.883740752043025L19.126171875 11.305251554041233" stroke-width="0.03" stroke="#000000" fill="none"/>
<path d="M19.021874999999998 11.245035725184344L15.580078125 13.232158077461609" stroke-width="0.03" stroke="#000000" fill="none"/>
<path d="M15.47578125 13.171942248604722L19.85625 10.642877436615478" stroke-width="0.03" stroke="#000000" fill="none"/>
<path d="M19.85625 10.763309094329252L20.586328125 10.341798292331045L20.586328125 11.425683211755006L19.751953125 10.943956580899911" stroke-width="0.03" stroke="#000000" fill="none"/>
<path d="M19.647656249999997 11.004172409756798L20.2734375 11.365467382898117L20.2734375 11.967625671466987" stroke-width="0.03" stroke="#000000" fill="none"/>
<path d="M20.169140624999997 11.9074098426101L20.169140624999997 11.666546527182554L20.064843749999998 11.606330698325666L19.85625 11.72676235603944" stroke-width="0.03" stroke="#000000" fill="none"/>
<path d="M19.751953125 11.666546527182554L20.2734375 11.365467382898117" stroke-width="0.03" stroke="#000000" fill="none"/>
<path d="M20.586328125 11.425683211755006L21.9421875 10.642877436615478L22.567968750000002 11.004172409756798L22.567968750000002 12.44935230232208L23.819531249999997 13.171942248604722L23.819531249999997 14.255827168028683" stroke-width="0.03" stroke="#000000" fill="none"/>
<path d="M23.715234375 14.195611339171796L21.31640625 15.580575402880193L21.31640625 16.423597006876605L23.715234375 15.038632943168212" stroke-width="0.03" stroke="#000000" fill="none"/>
<path d="M23.610937500000002 15.339712087452645L23.40234375 15.460143745166418L23.40234375 15.701007060593964L23.715234375 15.881654547164626L23.715234375 16.24294952030595L23.923828125000004 16.36338117801972L24.132421875000002 16.24294952030595L24.132421875000002 16.122517862592172" stroke-width="0.03" stroke="#000000" fill="none"/>
<path d="M23.923828125000004 16.0020862048784L23.923828125000004 16.36338117801972" stroke-width="0.03" stroke="#000000" fill="none"/>
<path d="M23.923828125000004 16.0020862048784L25.175390624999995 16.72467615116104L25.175390624999995 17.567697755157454L22.7765625 18.95266181886585L22.046484375000002 18.531151016867643L22.046484375000002 17.688129412871227L24.4453125 16.303165349162832" stroke-width="0.03" stroke="#000000" fill="none"/>
<path d="M24.341015624999997 15.761222889450853L25.07109375 15.339712087452645L24.8625 15.21928042973887L24.8625 14.978417114311325L24.132421875000002 14.556906312313117" stroke-width="0.03" stroke="#000000" fill="none"/>
<path d="M23.923828125000004 14.436474654599342L24.132421875000002 14.31604299688557L23.923828125000004 14.195611339171796L23.715234375 14.31604299688557L23.923828125000004 14.436474654599342L23.923828125000004 15.761222889450853L25.07109375 16.423597006876605L25.07109375 16.66446032230415L25.279687499999998 16.54402866459038L25.279687499999998 16.303165349162832L24.132421875000002 15.640791231737078L24.132421875000002 14.31604299688557" stroke-width="0.03" stroke="#000000" fill="none"/>
<path d="M23.715234375 14.195611339171796L23.715234375 15.640791231737078L23.40234375 15.460143745166418" stroke-width="0.03" stroke="#000000" fill="none"/>
<path d="M23.610937500000002 15.339712087452645L23.715234375 15.399927916309531" stroke-width="0.03" stroke="#000000" fill="none"/>
<path d="M24.132421875000002 15.399927916309531L24.8625 14.978417114311325" stroke-width="0.03" stroke="#000000" fill="none"/>
<path d="M24.8625 15.21928042973887L23.923828125000004 15.761222889450853" stroke-width="0.03" stroke="#000000" fill="none"/>
<path d="M23.715234375 15.881654547164626L18.396093750000002 18.95266181886585L18.708984375 19.13330930543651L18.708984375 19.615035936291605L18.291796875 19.37417262086406L16.51875 20.397841711431134L16.51875 21.96345326171019L17.353125 22.44517989256528L17.353125 20.879568342286227L20.690625 18.95266181886585L20.690625 20.879568342286227" stroke-width="0.03" stroke="#000000" fill="none"/>
<path d="M21.003515625000002 20.698920855715564L17.978906249999998 22.44517989256528L18.1875 22.565611550279055L21.212109374999997 20.819352513429337L21.212109374999997 19.85589925171915L20.690625 19.554820107434715" stroke-width="0.03" stroke="#000000" fill="none"/>
<path d="M21.212109374999997 19.85589925171915L22.255078124999997 19.253740963150285L21.003515625000002 18.531151016867643L20.482031250000002 18.832230161152076" stroke-width="0.03" stroke="#000000" fill="none"/>
<path d="M20.690625 18.95266181886585L20.2734375 18.711798503438303" stroke-width="0.03" stroke="#000000" fill="none"/>
<path d="M20.482031250000002 18.59136684572453L18.708984375 19.615035936291605" stroke-width="0.03" stroke="#000000" fill="none"/>
<path d="M18.291796875 19.37417262086406L18.291796875 19.13330930543651L18.1875 19.073093476579622L18.1875 18.95266181886585L17.978906249999998 18.832230161152076L16.205859375 19.85589925171915L14.85 19.073093476579622L14.85 18.109640214869437L13.494140625 18.892445990008962L10.156640625 16.965539466588588L11.825390624999999 16.0020862048784" stroke-width="0.03" stroke="#000000" fill="none"/>
<path d="M11.512500000000001 15.82143871830774L11.512500000000001 15.580575402880193L10.678125 16.062302033735286L9.63515625 15.460143745166418L9.739453124999999 15.399927916309531L5.88046875 13.171942248604722L7.13203125 12.44935230232208L7.13203125 11.004172409756798L8.487890625 11.786978184896327L7.236328125 12.509568131178968" stroke-width="0.03" stroke="#000000" fill="none"/>
<path d="M7.13203125 12.44935230232208L7.862109374999999 12.87086310432029L10.678125 11.245035725184344L14.119921875 13.232158077461609" stroke-width="0.03" stroke="#000000" fill="none"/>
<path d="M14.224218749999999 13.171942248604722L13.702734374999999 13.473021392889155L13.702734374999999 13.593453050602928L14.328515625 13.95474802374425L14.85 13.653668879459815L14.85 13.533237221746042L14.328515625 13.834316366030475L13.702734374999999 13.473021392889155" stroke-width="0.03" stroke="#000000" fill="none"/>
<path d="M14.224218749999999 13.171942248604722L9.84375 10.642877436615478" stroke-width="0.03" stroke="#000000" fill="none"/>
<path d="M9.84375 10.763309094329252L9.113671875 10.341798292331045L9.113671875 11.425683211755006" stroke-width="0.03" stroke="#000000" fill="none"/>
<path d="M9.4265625 11.365467382898117L10.05234375 11.004172409756798" stroke-width="0.03" stroke="#000000" fill="none"/>
<path d="M9.84375 10.883740752043025L10.573828124999999 11.305251554041233" stroke-width="0.03" stroke="#000000" fill="none"/>
<path d="M9.948046875 11.666546527182554L9.4265625 11.365467382898117L9.4265625 11.967625671466987" stroke-width="0.03" stroke="#000000" fill="none"/>
<path d="M9.530859375 11.9074098426101L9.530859375 11.666546527182554L9.63515625 11.606330698325666L9.84375 11.72676235603944" stroke-width="0.03" stroke="#000000" fill="none"/>
<path d="M9.739453124999999 11.786978184896327L9.530859375 11.666546527182554" stroke-width="0.03" stroke="#000000" fill="none"/>
<path d="M9.113671875 12.148273158037647L8.696484375 11.9074098426101L8.279296875 12.148273158037647L8.279296875 12.629999788892741" stroke-width="0.03" stroke="#000000" fill="none"/>
<path d="M8.279296875 12.148273158037647L8.696484375 12.389136473465193" stroke-width="0.03" stroke="#000000" fill="none"/>
<path d="M8.070703124999998 12.027841500323873L7.653515625 11.786978184896327L7.236328125 12.027841500323873L7.236328125 12.148273158037647L7.5492187500000005 12.328920644608306" stroke-width="0.03" stroke="#000000" fill="none"/>
<path d="M7.653515625 12.26870481575142L7.236328125 12.027841500323873" stroke-width="0.03" stroke="#000000" fill="none"/>
<path d="M5.88046875 13.171942248604722L5.88046875 14.255827168028683" stroke-width="0.03" stroke="#000000" fill="none"/>
<path d="M5.984765624999999 14.195611339171796L6.714843749999999 13.77410053717359L9.113671875 15.159064600881985L9.113671875 16.0020862048784L8.38359375 16.423597006876605L5.984765624999999 15.038632943168212" stroke-width="0.03" stroke="#000000" fill="none"/>
<path d="M6.089062499999999 15.339712087452645L5.984765624999999 15.399927916309531" stroke-width="0.03" stroke="#000000" fill="none"/>
<path d="M6.089062499999999 15.339712087452645L6.297656249999999 15.460143745166418L6.297656249999999 15.701007060593964L5.984765624999999 15.881654547164626L5.984765624999999 16.24294952030595L5.776171874999998 16.36338117801972L5.567578125 16.24294952030595L5.567578125 16.122517862592172" stroke-width="0.03" stroke="#000000" fill="none"/>
<path d="M5.776171874999998 16.0020862048784L4.524609375000001 16.72467615116104L4.524609375000001 17.567697755157454L6.9234374999999995 18.95266181886585L7.653515625 18.531151016867643L7.653515625 17.688129412871227L5.254687500000001 16.303165349162832" stroke-width="0.03" stroke="#000000" fill="none"/>
<path d="M5.776171874999998 16.36338117801972L5.776171874999998 16.0020862048784" stroke-width="0.03" stroke="#000000" fill="none"/>
<path d="M5.776171874999998 15.761222889450853L4.62890625 16.423597006876605L4.4203125 16.303165349162832L4.4203125 16.54402866459038L4.62890625 16.66446032230415L4.62890625 16.423597006876605" stroke-width="0.03" stroke="#000000" fill="none"/>
<path d="M4.524609375000001 16.60424449344727L3.5859375 17.146186953159244L3.5859375 18.59136684572453L4.3160156249999995 19.01287764772274L4.3160156249999995 22.264532405994622L7.7578125 24.251654758271883" stroke-width="0.03" stroke="#000000" fill="none"/>
<path d="M7.7578125 24.37208641598566L7.7578125 23.76992812741679L7.862109374999999 23.709712298559904L8.487890625 24.071007271701223L8.487890625 24.673165560270093L9.009374999999999 24.974244704554525L9.009374999999999 25.696834650837165L8.905078125 25.75705047969405L8.38359375 25.45597133540962L8.38359375 30.514100959388106L8.5921875 30.393669301674333L8.5921875 29.550647697677917" stroke-width="0.03" stroke="#000000" fill="none"/>
<path d="M8.487890625 29.490431868821034L8.487890625 25.51618716426651" stroke-width="0.03" stroke="#000000" fill="none"/>
<path d="M8.905078125 25.75705047969405L8.905078125 25.034460533411412L9.009374999999999 24.974244704554525" stroke-width="0.03" stroke="#000000" fill="none"/>
<path d="M8.905078125 25.034460533411412L8.38359375 24.73338138912698L8.38359375 24.13122310055811L7.7578125 23.76992812741679" stroke-width="0.03" stroke="#000000" fill="none"/>
<path d="M7.7578125 24.37208641598566L3.3773437500000005 21.843021603996412L3.5859375 21.72258994628264L4.3160156249999995 22.14410074828085" stroke-width="0.03" stroke="#000000" fill="none"/>
<path d="M3.7945312499999995 21.843021603996412L3.7945312499999995 21.120431657713773L4.3160156249999995 20.819352513429337" stroke-width="0.03" stroke="#000000" fill="none"/>
<path d="M4.3160156249999995 20.939784171143113L4.107421875 21.060215828856883L4.107421875 21.18064748657066L4.3160156249999995 21.301079144284433" stroke-width="0.03" stroke="#000000" fill="none"/>
<path d="M4.3160156249999995 21.18064748657066L4.107421875 21.060215828856883" stroke-width="0.03" stroke="#000000" fill="none"/>
<path d="M3.7945312499999995 21.120431657713773L4.3160156249999995 21.42151080199821" stroke-width="0.03" stroke="#000000" fill="none"/>
<path d="M3.6902343750000006 21.782805775139526L3.6902343750000006 20.819352513429337L2.3343750000000005 20.03654673828981L2.3343750000000005 19.31395679200717L3.5859375 18.59136684572453" stroke-width="0.03" stroke="#000000" fill="none"/>
<path d="M3.6902343750000006 18.651582674581416L3.6902343750000006 20.096762567146698L2.3343750000000005 19.31395679200717" stroke-width="0.03" stroke="#000000" fill="none"/>
<path d="M3.2730468750000017 19.37417262086406L3.2730468750000017 18.892445990008962L3.3773437500000005 18.832230161152076L3.6902343750000006 19.01287764772274" stroke-width="0.03" stroke="#000000" fill="none"/>
<path d="M3.6902343750000006 19.13330930543651L3.2730468750000017 18.892445990008962" stroke-width="0.03" stroke="#000000" fill="none"/>
<path d="M3.2730468750000017 19.37417262086406L3.6902343750000006 19.615035936291605" stroke-width="0.03" stroke="#000000" fill="none"/>
<path d="M3.898828125 19.735467594005378L4.3160156249999995 19.49460427857783" stroke-width="0.03" stroke="#000000" fill="none"/>
<path d="M4.3160156249999995 19.976330909432924L3.898828125 19.735467594005378L3.898828125 20.21719422486047L4.3160156249999995 20.458057540288017" stroke-width="0.03" stroke="#000000" fill="none"/>
<path d="M3.6902343750000006 20.819352513429337L2.7515624999999995 21.36129497314132L2.7515624999999995 22.32474823485151L3.6902343750000006 22.866690694563488L3.481640624999999 22.98712235227726L3.3773437500000005 22.926906523420374L2.3343750000000005 23.529064811989244L2.3343750000000005 23.649496469703017L4.524609375000001 24.914028875697635" stroke-width="0.03" stroke="#000000" fill="none"/>
<path d="M4.524609375000001 24.793597217983862L2.3343750000000005 23.529064811989244" stroke-width="0.03" stroke="#000000" fill="none"/>
<path d="M3.3773437500000005 24.251654758271883L3.3773437500000005 26.53985625483358L3.5859375 26.660287912547354L3.5859375 24.37208641598566" stroke-width="0.03" stroke="#000000" fill="none"/>
<path d="M3.6902343750000006 24.432302244842543L3.6902343750000006 24.673165560270093L4.524609375000001 25.154892191125185" stroke-width="0.03" stroke="#000000" fill="none"/>
<path d="M4.524609375000001 24.55273390255632L5.046093749999999 24.251654758271883" stroke-width="0.03" stroke="#000000" fill="none"/>
<path d="M5.046093749999999 23.890359785130563L5.046093749999999 24.73338138912698L5.46328125 24.974244704554525L5.46328125 25.696834650837165L6.089062499999999 26.058129623978488L6.089062499999999 26.780719570261127L6.714843749999999 27.142014543402446L6.714843749999999 27.623741174257542L7.4449218749999995 28.04525197625575L7.4449218749999995 28.888273580252164L7.7578125 29.068921066822824" stroke-width="0.03" stroke="#000000" fill="none"/>
<path d="M7.653515625 29.008705237965938L7.653515625 29.610863526534803L7.7578125 29.67107935539169" stroke-width="0.03" stroke="#000000" fill="none"/>
<path d="M7.7578125 29.791511013105463L7.13203125 29.430216039964147L7.13203125 28.46676277825396L7.4449218749999995 28.286115291683295" stroke-width="0.03" stroke="#000000" fill="none"/>
<path d="M7.13203125 28.46676277825396L7.4449218749999995 28.647410264824618" stroke-width="0.03" stroke="#000000" fill="none"/>
<path d="M7.13203125 27.864604489685092L6.610546875 28.165683633969522L5.567578125 27.563525345400656L5.567578125 26.600072083690467L6.089062499999999 26.29899293940603" stroke-width="0.03" stroke="#000000" fill="none"/>
<path d="M6.089062499999999 26.17856128169226L3.5859375 27.623741174257542L3.481640624999999 27.563525345400656L3.481640624999999 27.443093687686883L5.984765624999999 25.9979137951216" stroke-width="0.03" stroke="#000000" fill="none"/>
<path d="M5.88046875 25.937697966264714L5.3589843749999995 26.238777110549147L4.524609375000001 25.75705047969405L4.524609375000001 24.55273390255632L5.3589843749999995 25.034460533411412L5.46328125 24.974244704554525" stroke-width="0.03" stroke="#000000" fill="none"/>
<path d="M5.3589843749999995 25.034460533411412L5.3589843749999995 26.238777110549147" stroke-width="0.03" stroke="#000000" fill="none"/>
<path d="M5.567578125 26.600072083690467L6.610546875 27.202230372259333L6.714843749999999 27.142014543402446" stroke-width="0.03" stroke="#000000" fill="none"/>
<path d="M6.610546875 27.202230372259333L6.610546875 28.165683633969522" stroke-width="0.03" stroke="#000000" fill="none"/>
<path d="M6.4019531249999995 28.04525197625575L6.4019531249999995 30.574316788244992L6.297656249999999 30.514100959388106L6.297656249999999 27.985036147398862" stroke-width="0.03" stroke="#000000" fill="none"/>
<path d="M6.089062499999999 27.864604489685092L6.089062499999999 28.828057751395274L6.297656249999999 28.94848940910905" stroke-width="0.03" stroke="#000000" fill="none"/>
<path d="M6.297656249999999 29.068921066822824L4.3160156249999995 27.92482031854198L4.3160156249999995 28.165683633969522L6.297656249999999 29.30978438225037" stroke-width="0.03" stroke="#000000" fill="none"/>
<path d="M6.297656249999999 28.7076260936815L6.089062499999999 28.58719443596773" stroke-width="0.03" stroke="#000000" fill="none"/>
<path d="M5.567578125 27.202230372259333L3.481640624999999 28.40654694939707L2.8558593750000005 28.04525197625575L2.8558593750000005 27.92482031854198L2.7515624999999995 27.864604489685092L2.7515624999999995 27.142014543402446L4.8374999999999995 25.937697966264714" stroke-width="0.03" stroke="#000000" fill="none"/>
<path d="M6.089062499999999 26.058129623978488L3.481640624999999 27.563525345400656" stroke-width="0.03" stroke="#000000" fill="none"/>
<path d="M3.481640624999999 27.443093687686883L2.8558593750000005 27.081798714545563L2.8558593750000005 27.202230372259333L2.7515624999999995 27.142014543402446" stroke-width="0.03" stroke="#000000" fill="none"/>
<path d="M3.5859375 27.623741174257542L3.5859375 28.346331120540185L3.481640624999999 28.286115291683295L3.481640624999999 28.40654694939707" stroke-width="0.03" stroke="#000000" fill="none"/>
<path d="M6.4019531249999995 30.574316788244992L7.4449218749999995 29.972158499676127L7.4449218749999995 29.851726841962353L7.653515625 29.731295184248577L7.653515625 30.815180103672542L8.487890625 31.296906734527635L9.4265625 30.754964274815652L8.5921875 30.273237643960556" stroke-width="0.03" stroke="#000000" fill="none"/>
<path d="M8.5921875 30.152805986246786L9.21796875 30.514100959388106L9.739453124999999 30.21302181510367" stroke-width="0.03" stroke="#000000" fill="none"/>
<path d="M9.63515625 30.152805986246786L9.4265625 30.273237643960556L9.322265625 30.21302181510367L9.322265625 29.972158499676127" stroke-width="0.03" stroke="#000000" fill="none"/>
<path d="M9.21796875 29.91194267081924L9.21796875 30.514100959388106" stroke-width="0.03" stroke="#000000" fill="none"/>
<path d="M9.4265625 30.754964274815652L9.4265625 32.32057582509471L10.05234375 32.68187079823603L11.303906249999999 31.959280851953388L12.555468750000001 32.68187079823603L13.494140625 32.139928338524044" stroke-width="0.03" stroke="#000000" fill="none"/>
<path d="M13.494140625 32.01949668081028L13.494140625 32.260359996237824L13.702734374999999 32.3807916539516L14.85 31.71841753652584L15.997265625 32.3807916539516L16.205859375 32.260359996237824L16.205859375 32.01949668081028L15.997265625 32.139928338524044L14.85 31.477554221098295L13.702734374999999 32.139928338524044L13.494140625 32.01949668081028" stroke-width="0.03" stroke="#000000" fill="none"/>
<path d="M13.389843749999999 32.07971250966716L14.64140625 31.35712256338452L14.328515625 31.17647507681386L14.537109375 31.056043419100085L14.85 31.236690905670745L15.162890625 31.056043419100085L15.371484375 31.17647507681386L15.371484375 31.41733839224141L15.267187499999999 31.477554221098295" stroke-width="0.03" stroke="#000000" fill="none"/>
<path d="M15.05859375 31.35712256338452L15.371484375 31.17647507681386" stroke-width="0.03" stroke="#000000" fill="none"/>
<path d="M15.05859375 31.35712256338452L16.31015625 32.07971250966716L17.040234375 31.658201707668955L17.040234375 28.888273580252164L16.31015625 28.46676277825396L15.580078125 28.888273580252164L15.580078125 31.658201707668955" stroke-width="0.03" stroke="#000000" fill="none"/>
<path d="M15.05859375 31.838849194239618L15.05859375 32.68187079823603L15.788671874999999 32.260359996237824" stroke-width="0.03" stroke="#000000" fill="none"/>
<path d="M15.997265625 32.3807916539516L15.997265625 32.139928338524044" stroke-width="0.03" stroke="#000000" fill="none"/>
<path d="M16.205859375 32.139928338524044L17.14453125 32.68187079823603L18.396093750000002 31.959280851953388L19.647656249999997 32.68187079823603L20.2734375 32.32057582509471L20.2734375 30.754964274815652L21.107812499999998 30.273237643960556" stroke-width="0.03" stroke="#000000" fill="none"/>
<path d="M21.107812499999998 30.152805986246786L20.482031250000002 30.514100959388106L19.960546875000002 30.21302181510367" stroke-width="0.03" stroke="#000000" fill="none"/>
<path d="M20.064843749999998 30.152805986246786L20.2734375 30.273237643960556L20.377734375 30.21302181510367L20.377734375 29.972158499676127" stroke-width="0.03" stroke="#000000" fill="none"/>
<path d="M20.2734375 30.032374328533013L20.2734375 30.273237643960556" stroke-width="0.03" stroke="#000000" fill="none"/>
<path d="M20.482031250000002 30.514100959388106L20.482031250000002 29.91194267081924" stroke-width="0.03" stroke="#000000" fill="none"/>
<path d="M21.107812499999998 29.550647697677917L21.107812499999998 30.393669301674333L21.31640625 30.514100959388106L21.9421875 30.152805986246786L21.9421875 25.0946763622683L26.322656249999998 22.565611550279055L26.322656249999998 21.843021603996412L26.1140625 21.72258994628264L25.383984374999997 22.14410074828085" stroke-width="0.03" stroke="#000000" fill="none"/>
<path d="M25.383984374999997 22.264532405994622L21.9421875 24.251654758271883" stroke-width="0.03" stroke="#000000" fill="none"/>
<path d="M21.9421875 24.37208641598566L26.322656249999998 21.843021603996412" stroke-width="0.03" stroke="#000000" fill="none"/>
<path d="M26.218359375 21.782805775139526L26.9484375 21.36129497314132L26.9484375 22.32474823485151L26.009765625 22.866690694563488L26.218359375 22.98712235227726L26.322656249999998 22.926906523420374L27.365624999999998 23.529064811989244L27.365624999999998 23.649496469703017L25.175390624999995 24.914028875697635" stroke-width="0.03" stroke="#000000" fill="none"/>
<path d="M25.175390624999995 24.793597217983862L27.365624999999998 23.529064811989244" stroke-width="0.03" stroke="#000000" fill="none"/>
<path d="M26.322656249999998 24.251654758271883L26.322656249999998 26.53985625483358L26.1140625 26.660287912547354L26.1140625 24.37208641598566" stroke-width="0.03" stroke="#000000" fill="none"/>
<path d="M26.009765625 24.432302244842543L26.009765625 24.673165560270093L25.175390624999995 25.154892191125185" stroke-width="0.03" stroke="#000000" fill="none"/>
<path d="M25.175390624999995 24.55273390255632L24.341015624999997 25.034460533411412L24.341015624999997 26.238777110549147L23.819531249999997 25.937697966264714" stroke-width="0.03" stroke="#000000" fill="none"/>
<path d="M23.715234375 25.9979137951216L26.218359375 27.443093687686883L26.844140625 27.081798714545563L26.844140625 27.202230372259333L26.9484375 27.142014543402446L24.8625 25.937697966264714" stroke-width="0.03" stroke="#000000" fill="none"/>
<path d="M25.175390624999995 25.75705047969405L24.341015624999997 26.238777110549147" stroke-width="0.03" stroke="#000000" fill="none"/>
<path d="M24.132421875000002 26.600072083690467L23.089453125000002 27.202230372259333L22.98515625 27.142014543402446L22.98515625 27.623741174257542L22.255078124999997 28.04525197625575L22.255078124999997 28.888273580252164L21.9421875 29.068921066822824" stroke-width="0.03" stroke="#000000" fill="none"/>
<path d="M22.046484375000002 29.008705237965938L22.046484375000002 29.610863526534803L21.9421875 29.67107935539169" stroke-width="0.03" stroke="#000000" fill="none"/>
<path d="M21.9421875 29.791511013105463L22.567968750000002 29.430216039964147L22.567968750000002 28.46676277825396L22.255078124999997 28.286115291683295" stroke-width="0.03" stroke="#000000" fill="none"/>
<path d="M22.255078124999997 28.647410264824618L22.567968750000002 28.46676277825396" stroke-width="0.03" stroke="#000000" fill="none"/>
<path d="M22.567968750000002 27.864604489685092L23.089453125000002 28.165683633969522L24.132421875000002 27.563525345400656L24.132421875000002 26.600072083690467L23.610937500000002 26.29899293940603" stroke-width="0.03" stroke="#000000" fill="none"/>
<path d="M23.610937500000002 26.17856128169226L26.1140625 27.623741174257542L26.1140625 28.346331120540185L26.218359375 28.286115291683295L26.218359375 28.40654694939707L26.844140625 28.04525197625575L26.844140625 27.92482031854198L26.9484375 27.864604489685092L26.9484375 27.142014543402446" stroke-width="0.03" stroke="#000000" fill="none"/>
<path d="M26.218359375 27.443093687686883L26.218359375 27.563525345400656L26.1140625 27.623741174257542" stroke-width="0.03" stroke="#000000" fill="none"/>
<path d="M26.218359375 27.563525345400656L23.610937500000002 26.058129623978488L24.23671875 25.696834650837165L24.23671875 24.974244704554525L24.653906250000002 24.73338138912698L24.653906250000002 23.890359785130563L25.383984374999997 23.468848983132357L25.383984374999997 23.107554009991038" stroke-width="0.03" stroke="#000000" fill="none"/>
<path d="M25.383984374999997 23.227985667704807L25.90546875 22.926906523420374L25.90546875 22.8064748657066" stroke-width="0.03" stroke="#000000" fill="none"/>
<path d="M26.009765625 22.746259036849715L26.009765625 23.468848983132357L25.175390624999995 23.95057561398745L24.8625 23.76992812741679" stroke-width="0.03" stroke="#000000" fill="none"/>
<path d="M25.175390624999995 23.58928064084613L25.175390624999995 23.95057561398745" stroke-width="0.03" stroke="#000000" fill="none"/>
<path d="M24.653906250000002 24.251654758271883L25.175390624999995 24.55273390255632L25.175390624999995 25.75705047969405" stroke-width="0.03" stroke="#000000" fill="none"/>
<path d="M24.341015624999997 25.034460533411412L24.23671875 24.974244704554525" stroke-width="0.03" stroke="#000000" fill="none"/>
<path d="M23.610937500000002 26.058129623978488L23.610937500000002 26.780719570261127L22.98515625 27.142014543402446" stroke-width="0.03" stroke="#000000" fill="none"/>
<path d="M23.089453125000002 27.202230372259333L23.089453125000002 28.165683633969522" stroke-width="0.03" stroke="#000000" fill="none"/>
<path d="M23.298046874999997 28.04525197625575L23.298046874999997 30.574316788244992L23.40234375 30.514100959388106L23.40234375 27.985036147398862" stroke-width="0.03" stroke="#000000" fill="none"/>
<path d="M23.610937500000002 27.864604489685092L23.610937500000002 28.828057751395274L23.40234375 28.94848940910905" stroke-width="0.03" stroke="#000000" fill="none"/>
<path d="M23.40234375 29.068921066822824L25.383984374999997 27.92482031854198L25.383984374999997 28.165683633969522L23.40234375 29.30978438225037" stroke-width="0.03" stroke="#000000" fill="none"/>
<path d="M23.40234375 28.7076260936815L23.610937500000002 28.58719443596773" stroke-width="0.03" stroke="#000000" fill="none"/>
<path d="M24.132421875000002 27.202230372259333L26.218359375 28.40654694939707" stroke-width="0.03" stroke="#000000" fill="none"/>
<path d="M23.298046874999997 30.574316788244992L22.255078124999997 29.972158499676127L22.255078124999997 29.851726841962353L22.046484375000002 29.731295184248577L22.046484375000002 30.815180103672542L21.212109374999997 31.296906734527635L20.2734375 30.754964274815652" stroke-width="0.03" stroke="#000000" fill="none"/>
<path d="M19.647656249999997 30.87539593252943L19.23046875 31.11625924795697L18.81328125 30.87539593252943" stroke-width="0.03" stroke="#000000" fill="none"/>
<path d="M18.396093750000002 31.11625924795697L21.212109374999997 29.490431868821034L21.212109374999997 25.51618716426651" stroke-width="0.03" stroke="#000000" fill="none"/>
<path d="M21.31640625 25.45597133540962L20.794921875 25.75705047969405L20.690625 25.696834650837165L20.690625 24.974244704554525L21.212109374999997 24.673165560270093L21.31640625 24.73338138912698L21.31640625 24.13122310055811L21.9421875 23.76992812741679L21.837890625 23.709712298559904L21.212109374999997 24.071007271701223L21.212109374999997 24.673165560270093" stroke-width="0.03" stroke="#000000" fill="none"/>
<path d="M21.31640625 24.73338138912698L20.794921875 25.034460533411412L20.690625 24.974244704554525" stroke-width="0.03" stroke="#000000" fill="none"/>
<path d="M20.794921875 25.034460533411412L20.794921875 25.75705047969405" stroke-width="0.03" stroke="#000000" fill="none"/>
<path d="M21.31640625 25.45597133540962L21.31640625 30.514100959388106" stroke-width="0.03" stroke="#000000" fill="none"/>
<path d="M21.212109374999997 30.45388513053122L21.212109374999997 31.296906734527635" stroke-width="0.03" stroke="#000000" fill="none"/>
<path d="M19.647656249999997 31.11625924795697L18.396093750000002 31.838849194239618" stroke-width="0.03" stroke="#000000" fill="none"/>
<path d="M18.396093750000002 31.959280851953388L18.396093750000002 31.11625924795697" stroke-width="0.03" stroke="#000000" fill="none"/>
<path d="M18.708984375 31.658201707668955L18.708984375 32.01949668081028L18.81328125 32.07971250966716L19.23046875 31.838849194239618L19.23046875 31.35712256338452" stroke-width="0.03" stroke="#000000" fill="none"/>
<path d="M19.23046875 31.11625924795697L19.23046875 30.63453261710188" stroke-width="0.03" stroke="#000000" fill="none"/>
<path d="M19.647656249999997 30.393669301674333L19.647656249999997 30.87539593252943" stroke-width="0.03" stroke="#000000" fill="none"/>
<path d="M19.647656249999997 31.11625924795697L19.647656249999997 32.68187079823603" stroke-width="0.03" stroke="#000000" fill="none"/>
<path d="M18.81328125 32.07971250966716L18.81328125 31.597985878812068" stroke-width="0.03" stroke="#000000" fill="none"/>
<path d="M17.14453125 32.68187079823603L17.14453125 28.22589946282641L17.040234375 28.286115291683295L15.788671874999999 27.563525345400656L15.788671874999999 26.96136705683179" stroke-width="0.03" stroke="#000000" fill="none"/>
<path d="M15.580078125 27.081798714545563L15.162890625 27.322662029973106L14.85 27.142014543402446L14.537109375 27.322662029973106L14.119921875 27.081798714545563L14.119921875 25.034460533411412L14.537109375 24.793597217983862L14.537109375 22.746259036849715L13.181249999999999 21.96345326171019L12.346874999999999 22.44517989256528L12.346874999999999 20.879568342286227L9.009374999999999 18.95266181886585L9.009374999999999 20.879568342286227" stroke-width="0.03" stroke="#000000" fill="none"/>
<path d="M8.696484375 20.698920855715564L8.487890625 20.819352513429337L8.487890625 19.85589925171915L9.009374999999999 19.554820107434715" stroke-width="0.03" stroke="#000000" fill="none"/>
<path d="M9.009374999999999 18.95266181886585L9.4265625 18.711798503438303" stroke-width="0.03" stroke="#000000" fill="none"/>
<path d="M9.21796875 18.59136684572453L9.21796875 18.109640214869437L9.530859375 17.928992728298773L9.530859375 17.567697755157454L9.948046875 17.326834439729907L11.72109375 18.350503530296983L11.72109375 18.832230161152076L11.512500000000001 18.95266181886585L11.512500000000001 19.073093476579622L13.911328125 20.458057540288017L13.80703125 20.518273369144907L13.80703125 21.602158288568866L14.745703124999999 22.14410074828085L14.745703124999999 24.914028875697635L14.85 24.85381304684075L14.954296875 24.914028875697635L15.162890625 24.793597217983862L15.162890625 22.746259036849715L16.51875 21.96345326171019" stroke-width="0.03" stroke="#000000" fill="none"/>
<path d="M15.89296875 21.602158288568866L14.954296875 22.14410074828085L14.954296875 24.914028875697635" stroke-width="0.03" stroke="#000000" fill="none"/>
<path d="M14.85 24.85381304684075L14.85 22.08388491942396L14.745703124999999 22.14410074828085" stroke-width="0.03" stroke="#000000" fill="none"/>
<path d="M14.85 22.08388491942396L14.954296875 22.14410074828085" stroke-width="0.03" stroke="#000000" fill="none"/>
<path d="M15.162890625 22.746259036849715L15.997265625 23.227985667704807L17.353125 22.44517989256528" stroke-width="0.03" stroke="#000000" fill="none"/>
<path d="M17.666015625 22.98712235227726L17.666015625 26.479640425976694L17.874609375000002 26.600072083690467L17.874609375000002 23.107554009991038L18.1875 22.926906523420374L18.1875 22.565611550279055" stroke-width="0.03" stroke="#000000" fill="none"/>
<path d="M18.083203125 22.384964063708395L18.083203125 21.42151080199821L17.978906249999998 21.36129497314132L19.543359374999998 20.458057540288017L19.647656249999997 20.518273369144907L19.647656249999997 21.481726630855093" stroke-width="0.03" stroke="#000000" fill="none"/>
<path d="M19.647656249999997 20.518273369144907L18.083203125 21.42151080199821" stroke-width="0.03" stroke="#000000" fill="none"/>
<path d="M17.978906249999998 21.36129497314132L17.978906249999998 22.8064748657066L16.72734375 23.529064811989244L16.72734375 25.335539677695845L16.831640625 25.39575550655273L17.666015625 24.914028875697635" stroke-width="0.03" stroke="#000000" fill="none"/>
<path d="M16.831640625 25.39575550655273L16.831640625 23.58928064084613L16.72734375 23.529064811989244" stroke-width="0.03" stroke="#000000" fill="none"/>
<path d="M16.831640625 23.58928064084613L17.666015625 23.107554009991038" stroke-width="0.03" stroke="#000000" fill="none"/>
<path d="M17.666015625 22.98712235227726L17.874609375000002 23.107554009991038" stroke-width="0.03" stroke="#000000" fill="none"/>
<path d="M17.978906249999998 22.8064748657066L18.1875 22.926906523420374" stroke-width="0.03" stroke="#000000" fill="none"/>
<path d="M17.353125 20.879568342286227L16.51875 20.397841711431134" stroke-width="0.03" stroke="#000000" fill="none"/>
<path d="M16.205859375 19.85589925171915L16.205859375 18.892445990008962L19.543359374999998 16.965539466588588L17.874609375000002 16.0020862048784" stroke-width="0.03" stroke="#000000" fill="none"/>
<path d="M18.1875 15.82143871830774L15.162890625 17.567697755157454L15.162890625 17.326834439729907L14.85 17.146186953159244L14.537109375 17.326834439729907L14.537109375 17.567697755157454L11.512500000000001 15.82143871830774" stroke-width="0.03" stroke="#000000" fill="none"/>
<path d="M11.512500000000001 15.580575402880193L14.537109375 17.326834439729907" stroke-width="0.03" stroke="#000000" fill="none"/>
<path d="M14.4328125 17.50748192630057L13.598437500000001 17.989208557155663L12.033984375000001 17.08597112430236L12.868359374999999 16.60424449344727" stroke-width="0.03" stroke="#000000" fill="none"/>
<path d="M12.033984375000001 17.08597112430236L12.033984375000001 17.206402782016134L13.598437500000001 18.109640214869437L14.85 17.387050268586794L14.85 17.146186953159244" stroke-width="0.03" stroke="#000000" fill="none"/>
<path d="M14.85 17.387050268586794L16.1015625 18.109640214869437L17.666015625 17.206402782016134L17.666015625 17.08597112430236L16.831640625 16.60424449344727" stroke-width="0.03" stroke="#000000" fill="none"/>
<path d="M17.666015625 17.08597112430236L16.1015625 17.989208557155663L15.267187499999999 17.50748192630057" stroke-width="0.03" stroke="#000000" fill="none"/>
<path d="M15.162890625 17.326834439729907L18.1875 15.580575402880193L19.021874999999998 16.062302033735286L20.064843749999998 15.460143745166418L19.960546875000002 15.399927916309531L23.819531249999997 13.171942248604722" stroke-width="0.03" stroke="#000000" fill="none"/>
<path d="M22.98515625 13.77410053717359L20.586328125 15.159064600881985L20.586328125 16.0020862048784L21.31640625 16.423597006876605" stroke-width="0.03" stroke="#000000" fill="none"/>
<path d="M20.794921875 16.36338117801972L20.064843749999998 16.784891980017925" stroke-width="0.03" stroke="#000000" fill="none"/>
<path d="M20.064843749999998 16.905323637731698L19.543359374999998 17.206402782016134" stroke-width="0.03" stroke="#000000" fill="none"/>
<path d="M19.543359374999998 16.965539466588588L19.543359374999998 17.44726609744368" stroke-width="0.03" stroke="#000000" fill="none"/>
<path d="M19.751953125 17.326834439729907L17.978906249999998 18.350503530296983L17.978906249999998 18.832230161152076" stroke-width="0.03" stroke="#000000" fill="none"/>
<path d="M18.1875 18.95266181886585L15.788671874999999 20.337625882574244L14.85 19.795683422862265L13.911328125 20.337625882574244L11.512500000000001 18.95266181886585" stroke-width="0.03" stroke="#000000" fill="none"/>
<path d="M11.512500000000001 19.073093476579622L11.408203125 19.13330930543651L11.408203125 19.37417262086406L13.181249999999999 20.397841711431134L13.181249999999999 21.96345326171019" stroke-width="0.03" stroke="#000000" fill="none"/>
<path d="M13.80703125 21.602158288568866L14.85 21L15.89296875 21.602158288568866L15.89296875 20.518273369144907L15.788671874999999 20.458057540288017L15.788671874999999 20.337625882574244" stroke-width="0.03" stroke="#000000" fill="none"/>
<path d="M15.788671874999999 20.458057540288017L18.1875 19.073093476579622" stroke-width="0.03" stroke="#000000" fill="none"/>
<path d="M18.291796875 19.13330930543651L15.89296875 20.518273369144907" stroke-width="0.03" stroke="#000000" fill="none"/>
<path d="M14.85 21L14.85 19.795683422862265" stroke-width="0.03" stroke="#000000" fill="none"/>
<path d="M14.85 19.073093476579622L13.494140625 19.85589925171915L11.72109375 18.832230161152076" stroke-width="0.03" stroke="#000000" fill="none"/>
<path d="M11.408203125 19.13330930543651L13.80703125 20.518273369144907" stroke-width="0.03" stroke="#000000" fill="none"/>
<path d="M13.911328125 20.458057540288017L13.911328125 20.337625882574244" stroke-width="0.03" stroke="#000000" fill="none"/>
<path d="M13.494140625 19.85589925171915L13.494140625 18.892445990008962" stroke-width="0.03" stroke="#000000" fill="none"/>
<path d="M13.598437500000001 18.109640214869437L13.598437500000001 17.989208557155663" stroke-width="0.03" stroke="#000000" fill="none"/>
<path d="M14.85 18.109640214869437L16.205859375 18.892445990008962" stroke-width="0.03" stroke="#000000" fill="none"/>
<path d="M16.1015625 18.109640214869437L16.1015625 17.989208557155663" stroke-width="0.03" stroke="#000000" fill="none"/>
<path d="M17.978906249999998 18.350503530296983L18.396093750000002 18.59136684572453L20.169140624999997 17.567697755157454L19.751953125 17.326834439729907" stroke-width="0.03" stroke="#000000" fill="none"/>
<path d="M20.169140624999997 17.567697755157454L20.169140624999997 17.928992728298773L20.482031250000002 18.109640214869437L20.482031250000002 18.59136684572453" stroke-width="0.03" stroke="#000000" fill="none"/>
<path d="M20.482031250000002 18.109640214869437L18.708984375 19.13330930543651" stroke-width="0.03" stroke="#000000" fill="none"/>
<path d="M18.396093750000002 18.95266181886585L18.396093750000002 18.59136684572453" stroke-width="0.03" stroke="#000000" fill="none"/>
<path d="M20.169140624999997 17.808561070585L21.733593749999997 16.905323637731698L20.794921875 16.36338117801972" stroke-width="0.03" stroke="#000000" fill="none"/>
<path d="M20.064843749999998 16.905323637731698L20.064843749999998 15.460143745166418" stroke-width="0.03" stroke="#000000" fill="none"/>
<path d="M20.586328125 15.159064600881985L21.31640625 15.580575402880193" stroke-width="0.03" stroke="#000000" fill="none"/>
<path d="M21.733593749999997 16.905323637731698L21.733593749999997 17.025755295445475L21.837890625 17.08597112430236L21.837890625 18.16985604372632L21.107812499999998 18.59136684572453" stroke-width="0.03" stroke="#000000" fill="none"/>
<path d="M20.2734375 17.989208557155663L21.837890625 17.08597112430236" stroke-width="0.03" stroke="#000000" fill="none"/>
<path d="M22.046484375000002 17.688129412871227L22.7765625 18.109640214869437L22.7765625 18.95266181886585" stroke-width="0.03" stroke="#000000" fill="none"/>
<path d="M22.255078124999997 19.253740963150285L22.255078124999997 19.37417262086406L26.1140625 17.146186953159244L26.1140625 18.59136684572453L25.383984374999997 19.01287764772274L25.383984374999997 22.264532405994622" stroke-width="0.03" stroke="#000000" fill="none"/>
<path d="M25.90546875 21.843021603996412L25.90546875 21.120431657713773L25.383984374999997 20.819352513429337" stroke-width="0.03" stroke="#000000" fill="none"/>
<path d="M25.383984374999997 20.939784171143113L25.592578125 21.060215828856883L25.592578125 21.18064748657066L25.383984374999997 21.301079144284433" stroke-width="0.03" stroke="#000000" fill="none"/>
<path d="M25.383984374999997 21.18064748657066L25.592578125 21.060215828856883" stroke-width="0.03" stroke="#000000" fill="none"/>
<path d="M25.90546875 21.120431657713773L25.383984374999997 21.42151080199821" stroke-width="0.03" stroke="#000000" fill="none"/>
<path d="M26.009765625 21.782805775139526L26.009765625 20.819352513429337L27.365624999999998 20.03654673828981L27.365624999999998 19.31395679200717L26.1140625 18.59136684572453" stroke-width="0.03" stroke="#000000" fill="none"/>
<path d="M26.009765625 18.651582674581416L26.009765625 20.096762567146698L27.365624999999998 19.31395679200717" stroke-width="0.03" stroke="#000000" fill="none"/>
<path d="M26.426953124999997 19.37417262086406L26.009765625 19.615035936291605" stroke-width="0.03" stroke="#000000" fill="none"/>
<path d="M25.801171875 19.735467594005378L25.383984374999997 19.976330909432924" stroke-width="0.03" stroke="#000000" fill="none"/>
<path d="M25.383984374999997 20.458057540288017L25.801171875 20.21719422486047L25.801171875 19.735467594005378L25.383984374999997 19.49460427857783" stroke-width="0.03" stroke="#000000" fill="none"/>
<path d="M26.009765625 19.13330930543651L26.426953124999997 18.892445990008962L26.322656249999998 18.832230161152076L26.009765625 19.01287764772274" stroke-width="0.03" stroke="#000000" fill="none"/>
<path d="M26.426953124999997 18.892445990008962L26.426953124999997 19.37417262086406" stroke-width="0.03" stroke="#000000" fill="none"/>
<path d="M26.009765625 20.819352513429337L26.9484375 21.36129497314132" stroke-width="0.03" stroke="#000000" fill="none"/>
<path d="M25.801171875 24.55273390255632L25.801171875 24.793597217983862" stroke-width="0.03" stroke="#000000" fill="none"/>
<path d="M23.40234375 22.565611550279055L22.98515625 22.8064748657066L22.880859375 22.746259036849715L22.880859375 22.264532405994622L23.298046874999997 22.023669090567072L23.40234375 22.08388491942396L23.40234375 22.565611550279055" stroke-width="0.03" stroke="#000000" fill="none"/>
<path d="M22.98515625 22.32474823485151L23.40234375 22.08388491942396" stroke-width="0.03" stroke="#000000" fill="none"/>
<path d="M22.98515625 22.32474823485151L22.98515625 22.8064748657066" stroke-width="0.03" stroke="#000000" fill="none"/>
<path d="M22.98515625 22.32474823485151L22.880859375 22.264532405994622" stroke-width="0.03" stroke="#000000" fill="none"/>
<path d="M21.9421875 23.76992812741679L21.9421875 24.37208641598566" stroke-width="0.03" stroke="#000000" fill="none"/>
<path d="M21.31640625 24.13122310055811L21.212109374999997 24.071007271701223" stroke-width="0.03" stroke="#000000" fill="none"/>
<path d="M20.377734375 27.081798714545563L19.960546875000002 27.322662029973106L19.960546875000002 27.804388660828202L20.064843749999998 27.864604489685092L20.482031250000002 27.623741174257542L20.482031250000002 27.142014543402446L20.377734375 27.081798714545563" stroke-width="0.03" stroke="#000000" fill="none"/>
<path d="M20.482031250000002 27.142014543402446L20.064843749999998 27.382877858829996L20.064843749999998 27.864604489685092" stroke-width="0.03" stroke="#000000" fill="none"/>
<path d="M20.064843749999998 27.382877858829996L19.960546875000002 27.322662029973106" stroke-width="0.03" stroke="#000000" fill="none"/>
<path d="M17.874609375000002 26.600072083690467L17.040234375 27.081798714545563L17.040234375 28.286115291683295" stroke-width="0.03" stroke="#000000" fill="none"/>
<path d="M17.040234375 28.888273580252164L16.31015625 29.30978438225037L15.580078125 28.888273580252164" stroke-width="0.03" stroke="#000000" fill="none"/>
<path d="M15.89296875 28.46676277825396L14.954296875 29.008705237965938L14.85 28.94848940910905L14.745703124999999 29.008705237965938L13.80703125 28.46676277825396L13.80703125 27.623741174257542" stroke-width="0.03" stroke="#000000" fill="none"/>
<path d="M13.911328125 27.563525345400656L12.659765624999999 28.286115291683295L12.555468750000001 28.22589946282641L12.555468750000001 32.68187079823603" stroke-width="0.03" stroke="#000000" fill="none"/>
<path d="M12.659765624999999 31.658201707668955L12.659765624999999 28.888273580252164L13.389843749999999 28.46676277825396L14.119921875 28.888273580252164L14.119921875 31.658201707668955" stroke-width="0.03" stroke="#000000" fill="none"/>
<path d="M14.328515625 31.41733839224141L14.328515625 31.17647507681386" stroke-width="0.03" stroke="#000000" fill="none"/>
<path d="M14.328515625 31.41733839224141L14.4328125 31.477554221098295" stroke-width="0.03" stroke="#000000" fill="none"/>
<path d="M14.85 31.477554221098295L14.85 32.56143914052225L14.64140625 32.68187079823603L13.911328125 32.260359996237824" stroke-width="0.03" stroke="#000000" fill="none"/>
<path d="M13.702734374999999 32.3807916539516L13.702734374999999 32.139928338524044" stroke-width="0.03" stroke="#000000" fill="none"/>
<path d="M13.389843749999999 32.07971250966716L13.389843749999999 29.30978438225037L14.119921875 28.888273580252164" stroke-width="0.03" stroke="#000000" fill="none"/>
<path d="M14.745703124999999 29.008705237965938L14.745703124999999 27.202230372259333" stroke-width="0.03" stroke="#000000" fill="none"/>
<path d="M14.954296875 27.202230372259333L14.954296875 29.008705237965938" stroke-width="0.03" stroke="#000000" fill="none"/>
<path d="M15.89296875 28.46676277825396L15.89296875 27.623741174257542" stroke-width="0.03" stroke="#000000" fill="none"/>
<path d="M15.997265625 27.081798714545563L17.666015625 26.118345452835374" stroke-width="0.03" stroke="#000000" fill="none"/>
<path d="M17.040234375 27.081798714545563L16.51875 26.780719570261127" stroke-width="0.03" stroke="#000000" fill="none"/>
<path d="M15.997265625 27.081798714545563L15.997265625 23.227985667704807" stroke-width="0.03" stroke="#000000" fill="none"/>
<path d="M14.537109375 22.746259036849715L13.702734374999999 23.227985667704807L12.346874999999999 22.44517989256528" stroke-width="0.03" stroke="#000000" fill="none"/>
<path d="M12.033984375000001 22.98712235227726L11.825390624999999 23.107554009991038L11.825390624999999 26.600072083690467L12.659765624999999 27.081798714545563L12.659765624999999 28.286115291683295" stroke-width="0.03" stroke="#000000" fill="none"/>
<path d="M12.659765624999999 28.888273580252164L13.389843749999999 29.30978438225037" stroke-width="0.03" stroke="#000000" fill="none"/>
<path d="M13.911328125 27.563525345400656L13.911328125 26.96136705683179" stroke-width="0.03" stroke="#000000" fill="none"/>
<path d="M14.119921875 26.840935399118013L13.702734374999999 27.081798714545563L12.033984375000001 26.118345452835374" stroke-width="0.03" stroke="#000000" fill="none"/>
<path d="M12.033984375000001 26.479640425976694L11.825390624999999 26.600072083690467" stroke-width="0.03" stroke="#000000" fill="none"/>
<path d="M12.033984375000001 26.479640425976694L12.033984375000001 22.98712235227726" stroke-width="0.03" stroke="#000000" fill="none"/>
<path d="M12.033984375000001 23.107554009991038L12.868359374999999 23.58928064084613L12.97265625 23.529064811989244L12.97265625 25.335539677695845L12.868359374999999 25.39575550655273L12.033984375000001 24.914028875697635" stroke-width="0.03" stroke="#000000" fill="none"/>
<path d="M12.868359374999999 25.39575550655273L12.868359374999999 23.58928064084613" stroke-width="0.03" stroke="#000000" fill="none"/>
<path d="M12.97265625 23.529064811989244L11.72109375 22.8064748657066L11.72109375 21.36129497314132L10.156640625 20.458057540288017L10.05234375 20.518273369144907L10.05234375 21.481726630855093" stroke-width="0.03" stroke="#000000" fill="none"/>
<path d="M10.05234375 20.518273369144907L11.616796874999999 21.42151080199821L11.616796874999999 22.384964063708395" stroke-width="0.03" stroke="#000000" fill="none"/>
<path d="M11.72109375 22.44517989256528L11.512500000000001 22.565611550279055L11.512500000000001 22.926906523420374L11.825390624999999 23.107554009991038" stroke-width="0.03" stroke="#000000" fill="none"/>
<path d="M11.72109375 22.8064748657066L11.512500000000001 22.926906523420374" stroke-width="0.03" stroke="#000000" fill="none"/>
<path d="M11.512500000000001 22.565611550279055L8.487890625 20.819352513429337" stroke-width="0.03" stroke="#000000" fill="none"/>
<path d="M8.696484375 20.698920855715564L11.72109375 22.44517989256528" stroke-width="0.03" stroke="#000000" fill="none"/>
<path d="M11.616796874999999 21.42151080199821L11.72109375 21.36129497314132" stroke-width="0.03" stroke="#000000" fill="none"/>
<path d="M12.346874999999999 20.879568342286227L13.181249999999999 20.397841711431134" stroke-width="0.03" stroke="#000000" fill="none"/>
<path d="M11.408203125 19.37417262086406L10.991015625000001 19.615035936291605L9.21796875 18.59136684572453" stroke-width="0.03" stroke="#000000" fill="none"/>
<path d="M9.21796875 18.832230161152076L8.696484375 18.531151016867643L7.4449218749999995 19.253740963150285L7.4449218749999995 19.37417262086406L3.5859375 17.146186953159244" stroke-width="0.03" stroke="#000000" fill="none"/>
<path d="M4.524609375000001 16.72467615116104L6.9234374999999995 18.109640214869437L6.9234374999999995 18.95266181886585" stroke-width="0.03" stroke="#000000" fill="none"/>
<path d="M7.4449218749999995 19.253740963150285L8.487890625 19.85589925171915" stroke-width="0.03" stroke="#000000" fill="none"/>
<path d="M8.5921875 18.59136684572453L7.862109374999999 18.16985604372632L7.862109374999999 17.08597112430236L7.96640625 17.025755295445475L7.96640625 16.905323637731698L8.905078125 16.36338117801972L9.63515625 16.784891980017925" stroke-width="0.03" stroke="#000000" fill="none"/>
<path d="M9.63515625 16.905323637731698L9.63515625 15.460143745166418" stroke-width="0.03" stroke="#000000" fill="none"/>
<path d="M9.113671875 15.159064600881985L8.38359375 15.580575402880193L8.38359375 16.423597006876605" stroke-width="0.03" stroke="#000000" fill="none"/>
<path d="M7.96640625 16.905323637731698L9.530859375 17.808561070585" stroke-width="0.03" stroke="#000000" fill="none"/>
<path d="M9.4265625 17.989208557155663L7.862109374999999 17.08597112430236" stroke-width="0.03" stroke="#000000" fill="none"/>
<path d="M7.653515625 17.688129412871227L6.9234374999999995 18.109640214869437" stroke-width="0.03" stroke="#000000" fill="none"/>
<path d="M9.21796875 18.109640214869437L10.991015625000001 19.13330930543651L11.303906249999999 18.95266181886585L11.303906249999999 18.59136684572453L9.530859375 17.567697755157454" stroke-width="0.03" stroke="#000000" fill="none"/>
<path d="M10.156640625 17.44726609744368L10.156640625 16.965539466588588" stroke-width="0.03" stroke="#000000" fill="none"/>
<path d="M10.156640625 17.206402782016134L9.63515625 16.905323637731698" stroke-width="0.03" stroke="#000000" fill="none"/>
<path d="M10.678125 16.66446032230415L10.678125 16.062302033735286" stroke-width="0.03" stroke="#000000" fill="none"/>
<path d="M8.38359375 15.580575402880193L5.984765624999999 14.195611339171796L5.984765624999999 15.640791231737078L6.297656249999999 15.460143745166418" stroke-width="0.03" stroke="#000000" fill="none"/>
<path d="M5.984765624999999 15.881654547164626L11.303906249999999 18.95266181886585" stroke-width="0.03" stroke="#000000" fill="none"/>
<path d="M10.991015625000001 19.13330930543651L10.991015625000001 19.615035936291605" stroke-width="0.03" stroke="#000000" fill="none"/>
<path d="M11.303906249999999 18.59136684572453L11.72109375 18.350503530296983" stroke-width="0.03" stroke="#000000" fill="none"/>
<path d="M11.9296875 13.412805564032269L12.346874999999999 13.171942248604722L12.346874999999999 13.051510590890949L11.9296875 12.8106472754634L11.512500000000001 13.051510590890949L11.512500000000001 13.171942248604722L11.9296875 13.412805564032269L11.9296875 13.292373906318495L12.346874999999999 13.051510590890949" stroke-width="0.03" stroke="#000000" fill="none"/>
<path d="M11.9296875 13.292373906318495L11.512500000000001 13.051510590890949" stroke-width="0.03" stroke="#000000" fill="none"/>
<path d="M12.451171875 11.064388238613684L13.181249999999999 10.642877436615478L13.598437500000001 10.883740752043025L14.224218749999999 10.522445778901705L14.85 10.883740752043025L15.47578125 10.522445778901705L16.1015625 10.883740752043025L16.51875 10.642877436615478L17.248828125 11.064388238613684L17.978906249999998 10.642877436615478L18.291796875 10.823524923186138" stroke-width="0.03" stroke="#000000" fill="none"/>
<path d="M18.1875 10.763309094329252L18.708984375 10.462229950044819L18.81328125 10.522445778901705" stroke-width="0.03" stroke="#000000" fill="none"/>
<path d="M18.81328125 10.40201412118793L19.751953125 9.86007166147595L20.586328125 10.341798292331045" stroke-width="0.03" stroke="#000000" fill="none"/>
<path d="M20.169140624999997 11.666546527182554L19.960546875000002 11.786978184896327" stroke-width="0.03" stroke="#000000" fill="none"/>
<path d="M20.586328125 12.148273158037647L21.003515625000002 11.9074098426101L21.420703125 12.148273158037647L21.420703125 12.629999788892741" stroke-width="0.03" stroke="#000000" fill="none"/>
<path d="M21.003515625000002 12.389136473465193L21.420703125 12.148273158037647" stroke-width="0.03" stroke="#000000" fill="none"/>
<path d="M21.629296875 12.027841500323873L22.046484375000002 11.786978184896327L22.463671875 12.027841500323873L22.463671875 12.148273158037647L22.150781249999998 12.328920644608306" stroke-width="0.03" stroke="#000000" fill="none"/>
<path d="M22.046484375000002 12.26870481575142L22.463671875 12.027841500323873" stroke-width="0.03" stroke="#000000" fill="none"/>
<path d="M22.567968750000002 12.44935230232208L21.837890625 12.87086310432029L19.021874999999998 11.245035725184344" stroke-width="0.03" stroke="#000000" fill="none"/>
<path d="M18.917578125000002 10.462229950044819L18.291796875 10.100934976903497L17.457421875 10.582661607758592L17.457421875 10.943956580899911" stroke-width="0.03" stroke="#000000" fill="none"/>
<path d="M17.7703125 10.763309094329252L17.457421875 10.582661607758592" stroke-width="0.03" stroke="#000000" fill="none"/>
<path d="M16.9359375 10.281582463474159L16.1015625 10.763309094329252L15.05859375 10.161150805760384L15.89296875 9.67942417490529L16.9359375 10.281582463474159L16.9359375 10.883740752043025" stroke-width="0.03" stroke="#000000" fill="none"/>
<path d="M16.72734375 10.161150805760384L18.917578125000002 8.896618399765762L18.917578125000002 10.100934976903497L18.81328125 10.161150805760384L18.81328125 10.40201412118793" stroke-width="0.03" stroke="#000000" fill="none"/>
<path d="M17.7703125 9.438560859477743L15.788671874999999 8.294460111196894L15.580078125 8.414891768910667L17.56171875 9.558992517191516" stroke-width="0.03" stroke="#000000" fill="none"/>
<path d="M17.457421875 9.619208346048403L17.248828125 9.49877668833463L16.414453125 9.980503319189724" stroke-width="0.03" stroke="#000000" fill="none"/>
<path d="M16.623046875 10.100934976903497L18.81328125 8.836402570908875L18.917578125000002 8.896618399765762" stroke-width="0.03" stroke="#000000" fill="none"/>
<path d="M17.248828125 9.739640003762176L17.040234375 9.619208346048403" stroke-width="0.03" stroke="#000000" fill="none"/>
<path d="M15.580078125 9.86007166147595L15.580078125 7.45143850720048L14.954296875 7.090143534059159L14.85 7.1503593629160465L14.745703124999999 7.090143534059159L14.119921875 7.45143850720048L14.119921875 9.86007166147595" stroke-width="0.03" stroke="#000000" fill="none"/>
<path d="M13.80703125 9.67942417490529L12.7640625 10.281582463474159L12.7640625 10.883740752043025" stroke-width="0.03" stroke="#000000" fill="none"/>
<path d="M12.451171875 11.064388238613684L11.72109375 10.642877436615478L11.408203125 10.823524923186138" stroke-width="0.03" stroke="#000000" fill="none"/>
<path d="M11.512500000000001 10.763309094329252L10.991015625000001 10.462229950044819L10.88671875 10.522445778901705" stroke-width="0.03" stroke="#000000" fill="none"/>
<path d="M10.782421874999999 10.462229950044819L11.408203125 10.100934976903497L12.242578125 10.582661607758592L12.242578125 10.943956580899911" stroke-width="0.03" stroke="#000000" fill="none"/>
<path d="M12.242578125 10.582661607758592L11.9296875 10.763309094329252" stroke-width="0.03" stroke="#000000" fill="none"/>
<path d="M12.7640625 10.281582463474159L13.598437500000001 10.763309094329252L14.64140625 10.161150805760384L13.80703125 9.67942417490529" stroke-width="0.03" stroke="#000000" fill="none"/>
<path d="M13.285546875 9.980503319189724L12.451171875 9.49877668833463L12.242578125 9.619208346048403" stroke-width="0.03" stroke="#000000" fill="none"/>
<path d="M12.138281249999999 9.558992517191516L14.119921875 8.414891768910667L13.911328125 8.294460111196894L11.9296875 9.438560859477743" stroke-width="0.03" stroke="#000000" fill="none"/>
<path d="M12.451171875 9.739640003762176L12.659765624999999 9.619208346048403" stroke-width="0.03" stroke="#000000" fill="none"/>
<path d="M12.97265625 10.161150805760384L10.782421874999999 8.896618399765762L10.782421874999999 10.100934976903497L10.88671875 10.161150805760384L10.88671875 10.40201412118793L9.948046875 9.86007166147595L9.113671875 10.341798292331045" stroke-width="0.03" stroke="#000000" fill="none"/>
<path d="M10.782421874999999 8.896618399765762L10.88671875 8.836402570908875L13.076953125000001 10.100934976903497" stroke-width="0.03" stroke="#000000" fill="none"/>
<path d="M13.598437500000001 10.763309094329252L13.598437500000001 10.883740752043025" stroke-width="0.03" stroke="#000000" fill="none"/>
<path d="M14.64140625 10.763309094329252L14.64140625 10.161150805760384" stroke-width="0.03" stroke="#000000" fill="none"/>
<path d="M15.05859375 10.161150805760384L15.05859375 10.763309094329252" stroke-width="0.03" stroke="#000000" fill="none"/>
<path d="M14.954296875 10.823524923186138L14.954296875 7.933165138055575L15.580078125 7.5718701649142535L15.47578125 7.511654336057367L15.580078125 7.45143850720048" stroke-width="0.03" stroke="#000000" fill="none"/>
<path d="M14.954296875 7.933165138055575L14.85 7.872949309198687L14.745703124999999 7.933165138055575L14.745703124999999 10.823524923186138" stroke-width="0.03" stroke="#000000" fill="none"/>
<path d="M14.85 10.883740752043025L14.85 7.872949309198687" stroke-width="0.03" stroke="#000000" fill="none"/>
<path d="M14.745703124999999 7.933165138055575L14.119921875 7.5718701649142535L14.224218749999999 7.511654336057367L14.119921875 7.45143850720048" stroke-width="0.03" stroke="#000000" fill="none"/>
<path d="M16.1015625 10.763309094329252L16.1015625 10.883740752043025" stroke-width="0.03" stroke="#000000" fill="none"/>
<path d="M15.47578125 13.171942248604722L15.997265625 13.473021392889155L15.997265625 13.593453050602928L15.371484375 13.95474802374425L14.85 13.653668879459815" stroke-width="0.03" stroke="#000000" fill="none"/>
<path d="M14.85 13.533237221746042L15.371484375 13.834316366030475L15.997265625 13.473021392889155" stroke-width="0.03" stroke="#000000" fill="none"/>
<path d="M15.371484375 13.834316366030475L15.371484375 13.95474802374425" stroke-width="0.03" stroke="#000000" fill="none"/>
<path d="M14.328515625 13.95474802374425L14.328515625 13.834316366030475" stroke-width="0.03" stroke="#000000" fill="none"/>
<path d="M17.353125 13.171942248604722L17.353125 13.051510590890949L17.7703125 12.8106472754634L18.1875 13.051510590890949L18.1875 13.171942248604722L17.7703125 13.412805564032269L17.353125 13.171942248604722" stroke-width="0.03" stroke="#000000" fill="none"/>
<path d="M17.353125 13.051510590890949L17.7703125 13.292373906318495L18.1875 13.051510590890949" stroke-width="0.03" stroke="#000000" fill="none"/>
<path d="M17.7703125 13.292373906318495L17.7703125 13.412805564032269" stroke-width="0.03" stroke="#000000" fill="none"/>
<path d="M18.1875 15.580575402880193L18.1875 15.82143871830774" stroke-width="0.03" stroke="#000000" fill="none"/>
<path d="M19.021874999999998 16.062302033735286L19.021874999999998 16.66446032230415" stroke-width="0.03" stroke="#000000" fill="none"/>
<path d="M22.7765625 18.109640214869437L25.175390624999995 16.72467615116104" stroke-width="0.03" stroke="#000000" fill="none"/>
<path d="M25.175390624999995 16.60424449344727L26.1140625 17.146186953159244" stroke-width="0.03" stroke="#000000" fill="none"/>
<path d="M25.279687499999998 16.303165349162832L25.07109375 16.423597006876605" stroke-width="0.03" stroke="#000000" fill="none"/>
<path d="M25.07109375 16.18273369144906L25.07109375 15.339712087452645" stroke-width="0.03" stroke="#000000" fill="none"/>
<path d="M23.715234375 14.195611339171796L22.98515625 13.77410053717359" stroke-width="0.03" stroke="#000000" fill="none"/>
<path d="M22.463671875 12.509568131178968L21.212109374999997 11.786978184896327L22.567968750000002 11.004172409756798" stroke-width="0.03" stroke="#000000" fill="none"/>
<path d="M21.003515625000002 20.698920855715564L21.212109374999997 20.819352513429337" stroke-width="0.03" stroke="#000000" fill="none"/>
<path d="M15.580078125 25.034460533411412L15.162890625 25.27532384883896L14.85 25.0946763622683L14.537109375 25.27532384883896L14.119921875 25.034460533411412" stroke-width="0.03" stroke="#000000" fill="none"/>
<path d="M14.537109375 25.27532384883896L14.537109375 27.322662029973106" stroke-width="0.03" stroke="#000000" fill="none"/>
<path d="M15.162890625 27.322662029973106L15.162890625 25.27532384883896" stroke-width="0.03" stroke="#000000" fill="none"/>
<path d="M14.85 25.0946763622683L14.85 31.236690905670745" stroke-width="0.03" stroke="#000000" fill="none"/>
<path d="M14.64140625 31.838849194239618L14.64140625 32.68187079823603" stroke-width="0.03" stroke="#000000" fill="none"/>
<path d="M14.85 32.56143914052225L15.05859375 32.68187079823603" stroke-width="0.03" stroke="#000000" fill="none"/>
<path d="M16.31015625 32.07971250966716L16.31015625 29.30978438225037" stroke-width="0.03" stroke="#000000" fill="none"/>
<path d="M15.997265625 27.081798714545563L15.580078125 26.840935399118013" stroke-width="0.03" stroke="#000000" fill="none"/>
<path d="M15.580078125 27.081798714545563L15.580078125 25.034460533411412L15.162890625 24.793597217983862" stroke-width="0.03" stroke="#000000" fill="none"/>
<path d="M14.745703124999999 24.914028875697635L14.537109375 24.793597217983862" stroke-width="0.03" stroke="#000000" fill="none"/>
<path d="M13.702734374999999 23.227985667704807L13.702734374999999 27.081798714545563" stroke-width="0.03" stroke="#000000" fill="none"/>
<path d="M13.181249999999999 26.780719570261127L12.659765624999999 27.081798714545563" stroke-width="0.03" stroke="#000000" fill="none"/>
<path d="M9.739453124999999 27.322662029973106L9.63515625 27.382877858829996L9.63515625 27.864604489685092L9.21796875 27.623741174257542L9.21796875 27.142014543402446L9.322265625 27.081798714545563L9.739453124999999 27.322662029973106L9.739453124999999 27.804388660828202L9.63515625 27.864604489685092" stroke-width="0.03" stroke="#000000" fill="none"/>
<path d="M9.63515625 27.382877858829996L9.21796875 27.142014543402446" stroke-width="0.03" stroke="#000000" fill="none"/>
<path d="M8.487890625 29.490431868821034L11.303906249999999 31.11625924795697L11.303906249999999 31.959280851953388" stroke-width="0.03" stroke="#000000" fill="none"/>
<path d="M11.303906249999999 31.838849194239618L10.05234375 31.11625924795697L10.05234375 32.68187079823603" stroke-width="0.03" stroke="#000000" fill="none"/>
<path d="M10.46953125 31.838849194239618L10.46953125 31.35712256338452" stroke-width="0.03" stroke="#000000" fill="none"/>
<path d="M10.46953125 31.11625924795697L10.88671875 30.87539593252943" stroke-width="0.03" stroke="#000000" fill="none"/>
<path d="M10.46953125 31.11625924795697L10.46953125 30.63453261710188" stroke-width="0.03" stroke="#000000" fill="none"/>
<path d="M10.46953125 31.11625924795697L10.05234375 30.87539593252943L10.05234375 30.393669301674333" stroke-width="0.03" stroke="#000000" fill="none"/>
<path d="M9.4265625 30.273237643960556L9.4265625 30.032374328533013" stroke-width="0.03" stroke="#000000" fill="none"/>
<path d="M8.487890625 30.45388513053122L8.487890625 31.296906734527635" stroke-width="0.03" stroke="#000000" fill="none"/>
<path d="M8.38359375 30.514100959388106L7.7578125 30.152805986246786L7.7578125 25.0946763622683L3.3773437500000005 22.565611550279055L3.3773437500000005 21.843021603996412" stroke-width="0.03" stroke="#000000" fill="none"/>
<path d="M3.481640624999999 21.782805775139526L2.7515624999999995 21.36129497314132" stroke-width="0.03" stroke="#000000" fill="none"/>
<path d="M3.6902343750000006 22.746259036849715L3.6902343750000006 23.468848983132357L4.524609375000001 23.95057561398745L4.8374999999999995 23.76992812741679" stroke-width="0.03" stroke="#000000" fill="none"/>
<path d="M5.046093749999999 23.890359785130563L4.3160156249999995 23.468848983132357L4.3160156249999995 23.107554009991038" stroke-width="0.03" stroke="#000000" fill="none"/>
<path d="M4.3160156249999995 23.227985667704807L3.7945312499999995 22.926906523420374L3.7945312499999995 22.8064748657066" stroke-width="0.03" stroke="#000000" fill="none"/>
<path d="M4.524609375000001 23.58928064084613L4.524609375000001 23.95057561398745" stroke-width="0.03" stroke="#000000" fill="none"/>
<path d="M3.898828125 24.55273390255632L3.898828125 24.793597217983862" stroke-width="0.03" stroke="#000000" fill="none"/>
<path d="M6.297656249999999 22.565611550279055L6.297656249999999 22.08388491942396L6.4019531249999995 22.023669090567072L6.819140625 22.264532405994622L6.819140625 22.746259036849715L6.714843749999999 22.8064748657066L6.297656249999999 22.565611550279055" stroke-width="0.03" stroke="#000000" fill="none"/>
<path d="M6.714843749999999 22.32474823485151L6.819140625 22.264532405994622" stroke-width="0.03" stroke="#000000" fill="none"/>
<path d="M6.714843749999999 22.32474823485151L6.714843749999999 22.8064748657066" stroke-width="0.03" stroke="#000000" fill="none"/>
<path d="M6.714843749999999 22.32474823485151L6.297656249999999 22.08388491942396" stroke-width="0.03" stroke="#000000" fill="none"/>
<path d="M8.38359375 24.13122310055811L8.487890625 24.071007271701223" stroke-width="0.03" stroke="#000000" fill="none"/>
<path d="M8.487890625 24.673165560270093L8.38359375 24.73338138912698" stroke-width="0.03" stroke="#000000" fill="none"/>
<path d="M10.88671875 31.597985878812068L10.88671875 32.07971250966716L10.991015625000001 32.01949668081028L10.991015625000001 31.658201707668955" stroke-width="0.03" stroke="#000000" fill="none"/>
<path d="M10.88671875 32.07971250966716L10.46953125 31.838849194239618" stroke-width="0.03" stroke="#000000" fill="none"/>
<path d="M12.659765624999999 31.658201707668955L13.389843749999999 32.07971250966716" stroke-width="0.03" stroke="#000000" fill="none"/>
<path d="M5.776171874999998 15.761222889450853L5.776171874999998 14.436474654599342L5.567578125 14.31604299688557L5.776171874999998 14.195611339171796L5.984765624999999 14.31604299688557L5.776171874999998 14.436474654599342" stroke-width="0.03" stroke="#000000" fill="none"/>
<path d="M5.567578125 14.31604299688557L5.567578125 15.640791231737078L4.4203125 16.303165349162832" stroke-width="0.03" stroke="#000000" fill="none"/>
<path d="M4.62890625 16.18273369144906L4.62890625 15.339712087452645L4.8374999999999995 15.21928042973887L4.8374999999999995 14.978417114311325L5.567578125 14.556906312313117" stroke-width="0.03" stroke="#000000" fill="none"/>
<path d="M5.567578125 15.399927916309531L4.8374999999999995 14.978417114311325" stroke-width="0.03" stroke="#000000" fill="none"/>
<path d="M4.8374999999999995 15.21928042973887L5.776171874999998 15.761222889450853" stroke-width="0.03" stroke="#000000" fill="none"/>
<path d="M5.3589843749999995 15.761222889450853L4.62890625 15.339712087452645" stroke-width="0.03" stroke="#000000" fill="none"/>
<path d="M4.523638787395404 3.383983116796798L4.523638787395404 3.0054372986874878L4.649820726765174 3.0054372986874878L4.7038987007807895 3.023463290026026L4.739950683457867 3.0595152727031034L4.757976674796406 3.0955672553801805L4.776002666134945 3.149645229395796L4.776002666134945 3.2397751860884894L4.757976674796406 3.293853160104105L4.739950683457867 3.3299051427811825L4.7038987007807895 3.3659571254582596L4.649820726765174 3.383983116796798L4.523638787395404 3.383983116796798" stroke-width="0.03" stroke="#000000" fill="none"/>
<path d="M4.379430856687095 3.0595152727031034L4.361404865348556 3.023463290026026L4.3073268913329406 3.0054372986874878L4.2712749086558635 3.0054372986874878L4.217196934640247 3.023463290026026L4.18114495196317 3.077541264041642L4.163118960624631 3.167671220734335L4.163118960624631 3.257801177427028L4.18114495196317 3.3299051427811825L4.217196934640247 3.3659571254582596L4.2712749086558635 3.383983116796798L4.289300899994402 3.383983116796798L4.343378874010018 3.3659571254582596L4.379430856687095 3.3299051427811825L4.397456848025634 3.2758271687655665L4.397456848025634 3.257801177427028L4.379430856687095 3.2037232034114123L4.343378874010018 3.167671220734335L4.289300899994402 3.149645229395796L4.2712749086558635 3.149645229395796L4.217196934640247 3.167671220734335L4.18114495196317 3.2037232034114123L4.163118960624631 3.257801177427028" stroke-width="0.03" stroke="#000000" fill="none"/>
<path d="M4.0549630125934 3.383983116796798L3.8206251251923984 3.383983116796798L3.8206251251923984 3.0054372986874878L4.0549630125934 3.0054372986874878" stroke-width="0.03" stroke="#000000" fill="none"/>
<path d="M3.9648330559007072 3.1856972120728733L3.8206251251923984 3.1856972120728733" stroke-width="0.03" stroke="#000000" fill="none"/>
<path d="M3.694443185822628 3.383983116796798L3.442079307083088 3.383983116796798L3.622339220468474 3.2037232034114123L3.658391203145551 3.149645229395796L3.6764171944840895 3.113593246718719L3.6764171944840895 3.077541264041642L3.658391203145551 3.041489281364565L3.6403652118070124 3.023463290026026L3.604313229129935 3.0054372986874878L3.5322092637757807 3.0054372986874878L3.4961572810987036 3.023463290026026L3.478131289760165 3.041489281364565L3.4601052984216265 3.077541264041642L3.4601052984216265 3.0955672553801805" stroke-width="0.03" stroke="#000000" fill="none"/>
<path d="M3.3519493503903948 3.257801177427028L3.0815594803123156 3.257801177427028L3.261819393697702 3.0054372986874878L3.261819393697702 3.383983116796798" stroke-width="0.03" stroke="#000000" fill="none"/>
<path d="M2.7210396535415438 3.3118791514426436L2.7390656448800828 3.3479311341197207L2.757091636218621 3.3659571254582596L2.811169610234237 3.383983116796798L2.8652475842498526 3.383983116796798L2.9193255582654682 3.3659571254582596L2.955377540942546 3.3299051427811825L2.9734035322810843 3.2758271687655665L2.9734035322810843 3.2397751860884894L2.955377540942546 3.1856972120728733L2.9373515496040072 3.167671220734335L2.90129956692693 3.149645229395796L2.847221592911314 3.149645229395796L2.955377540942546 3.0054372986874878L2.757091636218621 3.0054372986874878" stroke-width="0.03" stroke="#000000" fill="none"/>
<path d="M2.6128837055103125 3.1316192380572576L2.414597800786388 3.383983116796798" stroke-width="0.03" stroke="#000000" fill="none"/>
<path d="M2.6128837055103125 3.383983116796798L2.414597800786388 3.1316192380572576" stroke-width="0.03" stroke="#000000" fill="none"/>
<path d="M2.1622339220468474 3.0054372986874878L2.1081559480312317 3.023463290026026L2.072103965354154 3.077541264041642L2.0540779740156156 3.167671220734335L2.0540779740156156 3.221749194749951L2.072103965354154 3.3118791514426436L2.1081559480312317 3.3659571254582596L2.1622339220468474 3.383983116796798L2.1982859047239245 3.383983116796798L2.2523638787395406 3.3659571254582596L2.2884158614166177 3.3118791514426436L2.3064418527551562 3.221749194749951L2.3064418527551562 3.167671220734335L2.2884158614166177 3.077541264041642L2.2523638787395406 3.023463290026026L2.1982859047239245 3.0054372986874878L2.1622339220468474 3.0054372986874878" stroke-width="0.03" stroke="#000000" fill="none"/>
<path d="M2.1166666666666667 2.2291666666666665L2.1166666666666667 1.8208333333333333" stroke-width="0.03" stroke="#000000" fill="none"/>
<path d="M2.0875 1.6166666666666667L2.1166666666666667 1.6458333333333333L2.145833333333333 1.6166666666666667L2.1166666666666667 1.5875L2.0875 1.6166666666666667" stroke-width="0.03" stroke="#000000" fill="none"/>
<path d="M2.3208333333333333 2.1416666666666666L2.35 2.2L2.4375 2.2291666666666665L2.525 2.2291666666666665L2.6125 2.2L2.6416666666666666 2.1416666666666666L2.6416666666666666 2.1125L2.6125 2.0541666666666667L2.5541666666666667 2.025L2.408333333333333 1.9958333333333333L2.35 1.9666666666666666L2.3208333333333333 1.9083333333333332L2.35 1.85L2.4375 1.8208333333333333L2.525 1.8208333333333333L2.6125 1.85L2.6416666666666666 1.9083333333333332" stroke-width="0.03" stroke="#000000" fill="none"/>
<path d="M2.9625 1.8208333333333333L2.904166666666667 1.85L2.845833333333333 1.9083333333333332L2.8166666666666664 1.9958333333333333L2.8166666666666664 2.0541666666666667L2.845833333333333 2.1416666666666666L2.904166666666667 2.2L2.9625 2.2291666666666665L3.05 2.2291666666666665L3.1083333333333334 2.2L3.1666666666666665 2.1416666666666666L3.1958333333333333 2.0541666666666667L3.1958333333333333 1.9958333333333333L3.1666666666666665 1.9083333333333332L3.1083333333333334 1.85L3.05 1.8208333333333333L2.9625 1.8208333333333333" stroke-width="0.03" stroke="#000000" fill="none"/>
<path d="M3.283333333333333 2.2874999999999996L3.75 2.2874999999999996" stroke-width="0.03" stroke="#000000" fill="none"/>
<path d="M3.8375 2.1416666666666666L3.8666666666666663 2.2L3.9541666666666666 2.2291666666666665L4.041666666666666 2.2291666666666665L4.129166666666666 2.2L4.158333333333333 2.1416666666666666L4.158333333333333 2.1125L4.129166666666666 2.0541666666666667L4.070833333333333 2.025L3.925 1.9958333333333333L3.8666666666666663 1.9666666666666666L3.8375 1.9083333333333332L3.8666666666666663 1.85L3.9541666666666666 1.8208333333333333L4.041666666666666 1.8208333333333333L4.129166666666666 1.85L4.158333333333333 1.9083333333333332" stroke-width="0.03" stroke="#000000" fill="none"/>
<path d="M4.3625 1.9375L4.449999999999999 1.85L4.508333333333333 1.8208333333333333L4.595833333333333 1.8208333333333333L4.654166666666667 1.85L4.683333333333334 1.9375L4.683333333333334 2.2291666666666665" stroke-width="0.03" stroke="#000000" fill="none"/>
<path d="M4.3625 2.2291666666666665L4.3625 1.8208333333333333" stroke-width="0.03" stroke="#000000" fill="none"/>
<path d="M5.033333333333333 1.8208333333333333L4.975 1.85L4.916666666666666 1.9083333333333332L4.887499999999999 1.9958333333333333L4.887499999999999 2.0541666666666667L4.916666666666666 2.1416666666666666L4.975 2.2L5.033333333333333 2.2291666666666665L5.120833333333334 2.2291666666666665L5.179166666666666 2.2L5.2375 2.1416666666666666L5.266666666666666 2.0541666666666667L5.266666666666666 1.9958333333333333L5.2375 1.9083333333333332L5.179166666666666 1.85L5.120833333333334 1.8208333333333333L5.033333333333333 1.8208333333333333" stroke-width="0.03" stroke="#000000" fill="none"/>
<path d="M5.441666666666666 1.8208333333333333L5.558333333333334 2.2291666666666665L5.675 1.8208333333333333L5.791666666666666 2.2291666666666665L5.908333333333333 1.8208333333333333" stroke-width="0.03" stroke="#000000" fill="none"/>
<path d="M6.054166666666666 1.8208333333333333L6.258333333333333 1.8208333333333333" stroke-width="0.03" stroke="#000000" fill="none"/>
<path d="M6.2875 1.6166666666666667L6.229166666666666 1.6166666666666667L6.1708333333333325 1.6458333333333333L6.141666666666667 1.7333333333333334L6.141666666666667 2.2291666666666665" stroke-width="0.03" stroke="#000000" fill="none"/>
<path d="M6.4624999999999995 2.2291666666666665L6.4624999999999995 1.6166666666666667" stroke-width="0.03" stroke="#000000" fill="none"/>
<path d="M7.016666666666666 1.8208333333333333L7.016666666666666 2.2291666666666665" stroke-width="0.03" stroke="#000000" fill="none"/>
<path d="M7.016666666666666 2.1416666666666666L6.958333333333333 2.2L6.8999999999999995 2.2291666666666665L6.812499999999999 2.2291666666666665L6.754166666666666 2.2L6.695833333333333 2.1416666666666666L6.666666666666666 2.0541666666666667L6.666666666666666 1.9958333333333333L6.695833333333333 1.9083333333333332L6.754166666666666 1.85L6.812499999999999 1.8208333333333333L6.8999999999999995 1.8208333333333333L6.958333333333333 1.85L7.016666666666666 1.9083333333333332" stroke-width="0.03" stroke="#000000" fill="none"/>
<path d="M7.249999999999999 2.1125L7.541666666666666 1.8208333333333333" stroke-width="0.03" stroke="#000000" fill="none"/>
<path d="M7.366666666666666 1.9958333333333333L7.570833333333333 2.2291666666666665" stroke-width="0.03" stroke="#000000" fill="none"/>
<path d="M7.716666666666666 1.9958333333333333L8.066666666666666 1.9958333333333333L8.066666666666666 1.9375L8.0375 1.8791666666666667L8.008333333333333 1.85L7.949999999999999 1.8208333333333333L7.8625 1.8208333333333333L7.804166666666666 1.85L7.745833333333333 1.9083333333333332L7.716666666666666 1.9958333333333333L7.716666666666666 2.0541666666666667L7.745833333333333 2.1416666666666666L7.804166666666666 2.2L7.8625 2.2291666666666665L7.949999999999999 2.2291666666666665L8.008333333333333 2.2L8.066666666666666 2.1416666666666666" stroke-width="0.03" stroke="#000000" fill="none"/>
<path d="M8.270833333333332 1.7625L8.270833333333332 1.7333333333333334L8.299999999999999 1.675L8.329166666666666 1.6458333333333333L8.3875 1.6166666666666667L8.504166666666666 1.6166666666666667L8.5625 1.6458333333333333L8.591666666666665 1.675L8.620833333333334 1.7333333333333334L8.620833333333334 1.7916666666666665L8.591666666666665 1.85L8.533333333333331 1.9375L8.241666666666667 2.2291666666666665L8.649999999999999 2.2291666666666665" stroke-width="0.03" stroke="#000000" fill="none"/>
<path d="M9.237499999999999 2.533333333333333L1.5 2.533333333333333" stroke-width="0.03" stroke="#000000" fill="none"/>
<path d="M4.992314562197407 3.0054372986874878L4.938236588181791 3.023463290026026L4.902184605504715 3.077541264041642L4.884158614166176 3.167671220734335L4.884158614166176 3.221749194749951L4.902184605504715 3.3118791514426436L4.938236588181791 3.3659571254582596L4.992314562197407 3.383983116796798L5.028366544874484 3.383983116796798L5.0824445188901 3.3659571254582596L5.1184965015671775 3.3118791514426436L5.136522492905716 3.221749194749951L5.136522492905716 3.167671220734335L5.1184965015671775 3.077541264041642L5.0824445188901 3.023463290026026L5.028366544874484 3.0054372986874878L4.992314562197407 3.0054372986874878" stroke-width="0.03" stroke="#000000" fill="none"/>
<path d="M5.352834388968179 3.0054372986874878L5.298756414952564 3.023463290026026L5.262704432275486 3.077541264041642L5.244678440936948 3.167671220734335L5.244678440936948 3.221749194749951L5.262704432275486 3.3118791514426436L5.298756414952564 3.3659571254582596L5.352834388968179 3.383983116796798L5.388886371645256 3.383983116796798L5.442964345660872 3.3659571254582596L5.479016328337949 3.3118791514426436L5.497042319676488 3.221749194749951L5.497042319676488 3.167671220734335L5.479016328337949 3.077541264041642L5.442964345660872 3.023463290026026L5.388886371645256 3.0054372986874878L5.352834388968179 3.0054372986874878" stroke-width="0.03" stroke="#000000" fill="none"/>
<path d="M7.249999999999999 2.2291666666666665L7.249999999999999 1.6166666666666667" stroke-width="0.03" stroke="#000000" fill="none"/>
</svg>
