<?xml version="1.0" standalone="no"?>
<svg width="29.7cm" height="42cm" version="1.1" xmlns="http://www.w3.org/2000/svg" viewBox="0.0 0.0 29.700001 42.000001">
<path d="M7.027734374999999 10.703093265472365L9.113671875 9.49877668833463L10.782421874999999 10.462229950044819L10.782421874999999 10.582661607758592L8.696484375 11.786978184896327L7.027734374999999 10.823524923186138L7.027734374999999 10.703093265472365L8.696484375 11.666546527182554L8.696484375 11.786978184896327" stroke-width="0.03" stroke="#000000" fill="none"/>
<path d="M8.696484375 11.666546527182554L10.782421874999999 10.462229950044819" stroke-width="0.03" stroke="#000000" fill="none"/>
<path d="M10.782421874999999 10.582661607758592L11.408203125 10.943956580899911L11.408203125 12.509568131178968L10.260937499999999 13.171942248604722" stroke-width="0.03" stroke="#000000" fill="none"/>
<path d="M10.365234375 13.232158077461609L9.530859375 13.713884708316701" stroke-width="0.03" stroke="#000000" fill="none"/>
<path d="M9.63515625 13.77410053717359L10.365234375 13.352589735175382L10.365234375 13.232158077461609L7.027734374999999 11.305251554041233L4.003124999999999 13.051510590890949L4.003124999999999 13.171942248604722L6.9234374999999995 14.85798545659755" stroke-width="0.03" stroke="#000000" fill="none"/>
<path d="M7.027734374999999 14.797769627740664L4.003124999999999 13.051510590890949" stroke-width="0.03" stroke="#000000" fill="none"/>
<path d="M4.3160156249999995 14.556906312313117L5.3589843749999995 13.95474802374425" stroke-width="0.03" stroke="#000000" fill="none"/>
<path d="M4.3160156249999995 14.556906312313117L4.3160156249999995 14.918201285454437L4.003124999999999 15.098848772025098L4.003124999999999 16.303165349162832" stroke-width="0.03" stroke="#000000" fill="none"/>
<path d="M4.003124999999999 15.098848772025098L5.254687500000001 15.82143871830774L5.254687500000001 17.025755295445475" stroke-width="0.03" stroke="#000000" fill="none"/>
<path d="M5.567578125 17.206402782016134L2.647265625000001 15.520359574023306L2.54296875 15.580575402880193L2.54296875 19.073093476579622L5.88046875 21L5.984765624999999 20.939784171143113L5.984765624999999 20.096762567146698" stroke-width="0.03" stroke="#000000" fill="none"/>
<path d="M5.88046875 20.03654673828981L5.88046875 21" stroke-width="0.03" stroke="#000000" fill="none"/>
<path d="M5.776171874999998 20.939784171143113L5.776171874999998 22.264532405994622L4.4203125 23.047338181134148L3.7945312499999995 22.686043207992828L3.7945312499999995 20.277410053717357L2.125781250000001 19.31395679200717L2.021484375 19.37417262086406L2.021484375 21.782805775139526L3.6902343750000006 22.746259036849715L3.7945312499999995 22.686043207992828" stroke-width="0.03" stroke="#000000" fill="none"/>
<path d="M3.6902343750000006 22.746259036849715L3.6902343750000006 20.337625882574244L3.7945312499999995 20.277410053717357" stroke-width="0.03" stroke="#000000" fill="none"/>
<path d="M3.6902343750000006 20.337625882574244L2.021484375 19.37417262086406" stroke-width="0.03" stroke="#000000" fill="none"/>
<path d="M3.5859375 19.67525176514849L3.5859375 20.156978396003588" stroke-width="0.03" stroke="#000000" fill="none"/>
<path d="M4.4203125 20.156978396003588L4.4203125 23.047338181134148" stroke-width="0.03" stroke="#000000" fill="none"/>
<path d="M3.7945312499999995 24.612949731413206L6.297656249999999 23.167769838847924" stroke-width="0.03" stroke="#000000" fill="none"/>
<path d="M6.5062500000000005 22.565611550279055L7.236328125 22.14410074828085L7.027734374999999 22.023669090567072L6.297656249999999 22.44517989256528L6.297656249999999 24.37208641598566L4.8374999999999995 25.215108019982072L3.7945312499999995 24.612949731413206L3.7945312499999995 26.17856128169226L2.8558593750000005 25.636618821980278L3.7945312499999995 25.0946763622683" stroke-width="0.03" stroke="#000000" fill="none"/>
<path d="M4.8374999999999995 25.215108019982072L4.8374999999999995 26.780719570261127L6.193359375 27.563525345400656L6.193359375 28.767841922538388L4.8374999999999995 27.985036147398862L4.8374999999999995 29.068921066822824L3.7945312499999995 28.46676277825396L3.7945312499999995 27.382877858829996L2.8558593750000005 26.840935399118013L2.8558593750000005 25.636618821980278" stroke-width="0.03" stroke="#000000" fill="none"/>
<path d="M4.8374999999999995 26.780719570261127L6.297656249999999 25.937697966264714L5.776171874999998 25.636618821980278L5.776171874999998 25.39575550655273L5.984765624999999 25.27532384883896L6.4019531249999995 25.51618716426651" stroke-width="0.03" stroke="#000000" fill="none"/>
<path d="M6.297656249999999 25.576402993123395L6.5062500000000005 25.45597133540962L6.714843749999999 25.576402993123395L6.714843749999999 25.696834650837165L6.819140625 25.75705047969405L6.819140625 25.9979137951216L6.610546875 26.118345452835374L6.5062500000000005 26.058129623978488L6.5062500000000005 26.660287912547354L6.297656249999999 26.53985625483358L6.297656249999999 25.937697966264714" stroke-width="0.03" stroke="#000000" fill="none"/>
<path d="M6.5062500000000005 25.817266308550938L7.7578125 25.0946763622683L9.113671875 25.877482137407824L9.113671875 26.479640425976694" stroke-width="0.03" stroke="#000000" fill="none"/>
<path d="M9.113671875 25.9979137951216L9.63515625 25.696834650837165L9.63515625 24.85381304684075L9.21796875 24.612949731413206L8.5921875 24.974244704554525L8.5921875 25.576402993123395" stroke-width="0.03" stroke="#000000" fill="none"/>
<path d="M9.009374999999999 25.817266308550938L9.009374999999999 25.215108019982072L9.63515625 24.85381304684075" stroke-width="0.03" stroke="#000000" fill="none"/>
<path d="M9.009374999999999 25.215108019982072L8.5921875 24.974244704554525" stroke-width="0.03" stroke="#000000" fill="none"/>
<path d="M8.279296875 24.432302244842543L8.905078125 24.071007271701223L8.905078125 23.58928064084613L8.175 23.167769838847924L7.653515625 23.468848983132357" stroke-width="0.03" stroke="#000000" fill="none"/>
<path d="M7.7578125 23.529064811989244L7.236328125 23.830143956273677" stroke-width="0.03" stroke="#000000" fill="none"/>
<path d="M7.236328125 24.071007271701223L6.5062500000000005 24.492518073699433L6.297656249999999 24.37208641598566" stroke-width="0.03" stroke="#000000" fill="none"/>
<path d="M6.5062500000000005 24.492518073699433L6.5062500000000005 22.565611550279055L6.297656249999999 22.44517989256528" stroke-width="0.03" stroke="#000000" fill="none"/>
<path d="M7.236328125 22.14410074828085L7.236328125 24.071007271701223" stroke-width="0.03" stroke="#000000" fill="none"/>
<path d="M7.7578125 24.13122310055811L8.279296875 24.432302244842543L8.279296875 23.95057561398745L8.905078125 23.58928064084613" stroke-width="0.03" stroke="#000000" fill="none"/>
<path d="M8.279296875 23.95057561398745L7.7578125 23.649496469703017" stroke-width="0.03" stroke="#000000" fill="none"/>
<path d="M7.7578125 23.529064811989244L7.7578125 25.0946763622683" stroke-width="0.03" stroke="#000000" fill="none"/>
<path d="M6.819140625 25.75705047969405L6.610546875 25.877482137407824L6.5062500000000005 25.817266308550938L6.5062500000000005 25.696834650837165L6.714843749999999 25.576402993123395" stroke-width="0.03" stroke="#000000" fill="none"/>
<path d="M6.5062500000000005 25.696834650837165L6.297656249999999 25.576402993123395L6.297656249999999 25.696834650837165L5.776171874999998 25.39575550655273" stroke-width="0.03" stroke="#000000" fill="none"/>
<path d="M6.610546875 25.877482137407824L6.610546875 26.118345452835374" stroke-width="0.03" stroke="#000000" fill="none"/>
<path d="M6.714843749999999 26.058129623978488L6.714843749999999 26.53985625483358L6.5062500000000005 26.660287912547354" stroke-width="0.03" stroke="#000000" fill="none"/>
<path d="M6.193359375 27.563525345400656L7.653515625 26.72050374140424L7.653515625 26.479640425976694L8.38359375 26.058129623978488L10.05234375 27.021582885688677L10.05234375 27.26244620111622L9.322265625 27.68395700311443L7.653515625 26.72050374140424" stroke-width="0.03" stroke="#000000" fill="none"/>
<path d="M7.653515625 26.479640425976694L9.322265625 27.443093687686883L10.05234375 27.021582885688677" stroke-width="0.03" stroke="#000000" fill="none"/>
<path d="M9.322265625 27.443093687686883L9.322265625 27.68395700311443" stroke-width="0.03" stroke="#000000" fill="none"/>
<path d="M9.21796875 28.22589946282641L7.862109374999999 29.008705237965938L7.862109374999999 29.731295184248577L7.7578125 29.791511013105463L7.7578125 31.71841753652584L9.84375 32.92273411366358L9.948046875 32.86251828480669L9.948046875 30.935611761386316L7.862109374999999 29.731295184248577" stroke-width="0.03" stroke="#000000" fill="none"/>
<path d="M7.7578125 29.791511013105463L9.84375 30.995827590243202L9.84375 32.92273411366358" stroke-width="0.03" stroke="#000000" fill="none"/>
<path d="M10.365234375 32.621654969379136L10.365234375 28.767841922538388L10.46953125 28.7076260936815L11.199609375 29.12913689567971" stroke-width="0.03" stroke="#000000" fill="none"/>
<path d="M11.199609375 29.249568553393484L10.365234375 28.767841922538388" stroke-width="0.03" stroke="#000000" fill="none"/>
<path d="M10.365234375 28.888273580252164L9.21796875 28.22589946282641" stroke-width="0.03" stroke="#000000" fill="none"/>
<path d="M8.696484375 27.322662029973106L6.193359375 28.767841922538388" stroke-width="0.03" stroke="#000000" fill="none"/>
<path d="M5.776171874999998 28.526978607110845L4.8374999999999995 29.068921066822824" stroke-width="0.03" stroke="#000000" fill="none"/>
<path d="M7.862109374999999 29.008705237965938L10.365234375 30.45388513053122" stroke-width="0.03" stroke="#000000" fill="none"/>
<path d="M9.948046875 30.935611761386316L9.84375 30.995827590243202" stroke-width="0.03" stroke="#000000" fill="none"/>
<path d="M9.948046875 31.17647507681386L10.365234375 31.41733839224141" stroke-width="0.03" stroke="#000000" fill="none"/>
<path d="M10.365234375 32.621654969379136L13.389843749999999 34.36791400622886L13.494140625 34.307698177371975L13.494140625 30.935611761386316" stroke-width="0.03" stroke="#000000" fill="none"/>
<path d="M13.389843749999999 30.87539593252943L13.389843749999999 34.36791400622886" stroke-width="0.03" stroke="#000000" fill="none"/>
<path d="M14.537109375 33.34424491566179L14.85 33.163597429091126L14.85 31.71841753652584L14.537109375 31.8990650230965L13.494140625 31.296906734527635" stroke-width="0.03" stroke="#000000" fill="none"/>
<path d="M13.285546875 30.815180103672542L13.285546875 29.972158499676127L14.119921875 29.490431868821034L13.911328125 29.37000021110726L14.64140625 28.94848940910905L14.85 29.068921066822824L15.05859375 28.94848940910905L15.788671874999999 29.37000021110726L15.788671874999999 29.610863526534803" stroke-width="0.03" stroke="#000000" fill="none"/>
<path d="M15.788671874999999 29.37000021110726L15.580078125 29.490431868821034L16.414453125 29.972158499676127L16.414453125 30.815180103672542L15.684375 31.236690905670745L14.85 30.754964274815652L14.015625 31.236690905670745L13.285546875 30.815180103672542" stroke-width="0.03" stroke="#000000" fill="none"/>
<path d="M13.285546875 30.45388513053122L13.181249999999999 30.393669301674333" stroke-width="0.03" stroke="#000000" fill="none"/>
<path d="M13.285546875 30.333453472817446L12.868359374999999 30.574316788244992L11.199609375 29.610863526534803L11.199609375 28.286115291683295L13.181249999999999 27.142014543402446L11.616796874999999 26.238777110549147L11.616796874999999 27.563525345400656L12.033984375000001 27.804388660828202" stroke-width="0.03" stroke="#000000" fill="none"/>
<path d="M11.199609375 28.286115291683295L12.868359374999999 29.249568553393484L12.868359374999999 30.574316788244992" stroke-width="0.03" stroke="#000000" fill="none"/>
<path d="M13.285546875 29.972158499676127L14.015625 30.393669301674333L14.85 29.91194267081924L15.684375 30.393669301674333L16.414453125 29.972158499676127" stroke-width="0.03" stroke="#000000" fill="none"/>
<path d="M16.414453125 30.333453472817446L16.831640625 30.574316788244992L18.500390624999998 29.610863526534803L18.500390624999998 28.286115291683295L16.51875 27.142014543402446L18.083203125 26.238777110549147L18.083203125 27.563525345400656L17.666015625 27.804388660828202" stroke-width="0.03" stroke="#000000" fill="none"/>
<path d="M18.500390624999998 28.286115291683295L16.831640625 29.249568553393484L16.831640625 30.574316788244992" stroke-width="0.03" stroke="#000000" fill="none"/>
<path d="M16.51875 30.393669301674333L16.414453125 30.45388513053122" stroke-width="0.03" stroke="#000000" fill="none"/>
<path d="M16.31015625 30.87539593252943L16.31015625 34.36791400622886L16.205859375 34.307698177371975L16.205859375 30.935611761386316" stroke-width="0.03" stroke="#000000" fill="none"/>
<path d="M16.205859375 31.296906734527635L15.162890625 31.8990650230965L14.85 31.71841753652584" stroke-width="0.03" stroke="#000000" fill="none"/>
<path d="M14.537109375 31.8990650230965L14.537109375 33.34424491566179L13.494140625 32.74208662709292" stroke-width="0.03" stroke="#000000" fill="none"/>
<path d="M14.85 33.163597429091126L15.162890625 33.34424491566179L16.205859375 32.74208662709292" stroke-width="0.03" stroke="#000000" fill="none"/>
<path d="M15.162890625 33.34424491566179L15.162890625 31.8990650230965" stroke-width="0.03" stroke="#000000" fill="none"/>
<path d="M14.85 31.236690905670745L15.267187499999999 30.995827590243202" stroke-width="0.03" stroke="#000000" fill="none"/>
<path d="M14.85 31.236690905670745L14.4328125 30.995827590243202" stroke-width="0.03" stroke="#000000" fill="none"/>
<path d="M14.015625 31.236690905670745L14.015625 30.393669301674333" stroke-width="0.03" stroke="#000000" fill="none"/>
<path d="M13.911328125 29.610863526534803L13.911328125 29.37000021110726" stroke-width="0.03" stroke="#000000" fill="none"/>
<path d="M14.85 29.068921066822824L14.85 28.105467805112635L12.868359374999999 29.249568553393484" stroke-width="0.03" stroke="#000000" fill="none"/>
<path d="M13.181249999999999 27.26244620111622L13.181249999999999 25.45597133540962" stroke-width="0.03" stroke="#000000" fill="none"/>
<path d="M13.285546875 25.39575550655273L12.7640625 25.696834650837165L11.408203125 24.914028875697635L11.408203125 23.95057561398745L13.181249999999999 22.926906523420374" stroke-width="0.03" stroke="#000000" fill="none"/>
<path d="M13.181249999999999 22.565611550279055L12.659765624999999 22.264532405994622L12.659765624999999 21.662374117425752" stroke-width="0.03" stroke="#000000" fill="none"/>
<path d="M12.346874999999999 21.481726630855093L10.573828124999999 22.50539572142217L9.739453124999999 22.023669090567072L9.739453124999999 20.458057540288017L10.260937499999999 20.156978396003588L11.095312499999999 20.63870502685868L11.095312499999999 20.759136684572454L13.181249999999999 21.96345326171019L13.181249999999999 24.37208641598566L13.285546875 24.432302244842543L13.285546875 25.39575550655273" stroke-width="0.03" stroke="#000000" fill="none"/>
<path d="M12.7640625 25.696834650837165L12.7640625 24.73338138912698L13.285546875 24.432302244842543" stroke-width="0.03" stroke="#000000" fill="none"/>
<path d="M12.7640625 24.73338138912698L11.408203125 23.95057561398745" stroke-width="0.03" stroke="#000000" fill="none"/>
<path d="M11.616796874999999 23.830143956273677L11.616796874999999 22.866690694563488L10.782421874999999 22.384964063708395" stroke-width="0.03" stroke="#000000" fill="none"/>
<path d="M10.573828124999999 22.50539572142217L10.573828124999999 20.939784171143113L9.739453124999999 20.458057540288017" stroke-width="0.03" stroke="#000000" fill="none"/>
<path d="M9.739453124999999 20.57848919800179L8.696484375 21.18064748657066L7.5492187500000005 20.518273369144907L7.5492187500000005 20.03654673828981" stroke-width="0.03" stroke="#000000" fill="none"/>
<path d="M6.714843749999999 20.518273369144907L8.696484375 19.37417262086406L8.696484375 21.18064748657066" stroke-width="0.03" stroke="#000000" fill="none"/>
<path d="M10.156640625 20.21719422486047L8.5921875 19.31395679200717L8.5921875 17.62791358401434L8.80078125 17.50748192630057L13.598437500000001 20.277410053717357L13.389843749999999 20.397841711431134L13.389843749999999 21.843021603996412L14.64140625 22.565611550279055L14.85 22.44517989256528L15.05859375 22.565611550279055L16.31015625 21.843021603996412L16.31015625 20.397841711431134L16.1015625 20.277410053717357L16.1015625 20.03654673828981L14.85 19.31395679200717L13.598437500000001 20.03654673828981L13.598437500000001 20.277410053717357" stroke-width="0.03" stroke="#000000" fill="none"/>
<path d="M13.598437500000001 20.03654673828981L8.80078125 17.26661861087302L10.260937499999999 16.423597006876605L11.825390624999999 17.326834439729907" stroke-width="0.03" stroke="#000000" fill="none"/>
<path d="M11.825390624999999 17.44726609744368L11.825390624999999 16.845107808874815L13.181249999999999 16.062302033735286L14.015625 16.54402866459038L14.015625 18.59136684572453" stroke-width="0.03" stroke="#000000" fill="none"/>
<path d="M14.328515625 18.77201433229519L14.85 18.470935188010756L15.371484375 18.77201433229519" stroke-width="0.03" stroke="#000000" fill="none"/>
<path d="M15.684375 18.59136684572453L15.684375 16.54402866459038L16.51875 16.062302033735286L17.874609375000002 16.845107808874815L17.874609375000002 17.44726609744368L17.040234375 17.928992728298773L16.9359375 17.86877689944189L14.85 19.073093476579622L12.7640625 17.86877689944189L12.659765624999999 17.928992728298773L11.825390624999999 17.44726609744368" stroke-width="0.03" stroke="#000000" fill="none"/>
<path d="M11.825390624999999 16.845107808874815L12.659765624999999 17.326834439729907L14.015625 16.54402866459038" stroke-width="0.03" stroke="#000000" fill="none"/>
<path d="M14.015625 16.784891980017925L14.85 17.26661861087302L15.684375 16.784891980017925" stroke-width="0.03" stroke="#000000" fill="none"/>
<path d="M15.684375 16.54402866459038L17.040234375 17.326834439729907L17.874609375000002 16.845107808874815" stroke-width="0.03" stroke="#000000" fill="none"/>
<path d="M17.7703125 16.784891980017925L17.7703125 15.580575402880193L18.917578125000002 14.918201285454437L19.334765625 15.159064600881985" stroke-width="0.03" stroke="#000000" fill="none"/>
<path d="M19.334765625 14.195611339171796L20.482031250000002 13.533237221746042L22.150781249999998 14.49669048345623L22.150781249999998 14.978417114311325" stroke-width="0.03" stroke="#000000" fill="none"/>
<path d="M22.255078124999997 14.918201285454437L22.150781249999998 14.85798545659755" stroke-width="0.03" stroke="#000000" fill="none"/>
<path d="M22.150781249999998 14.49669048345623L21.003515625000002 15.159064600881985L21.003515625000002 17.44726609744368L22.98515625 18.59136684572453L22.98515625 20.518273369144907L24.132421875000002 19.85589925171915L24.132421875000002 17.928992728298773L23.715234375 17.688129412871227" stroke-width="0.03" stroke="#000000" fill="none"/>
<path d="M23.819531249999997 17.62791358401434L23.819531249999997 17.748345241728117" stroke-width="0.03" stroke="#000000" fill="none"/>
<path d="M24.132421875000002 17.928992728298773L22.98515625 18.59136684572453" stroke-width="0.03" stroke="#000000" fill="none"/>
<path d="M23.40234375 17.86877689944189L24.132421875000002 17.44726609744368L24.132421875000002 16.60424449344727L23.298046874999997 16.122517862592172L23.298046874999997 15.159064600881985L22.567968750000002 14.737553798883777L21.837890625 15.159064600881985L21.837890625 16.122517862592172L21.629296875 16.0020862048784L21.837890625 15.881654547164626" stroke-width="0.03" stroke="#000000" fill="none"/>
<path d="M21.629296875 16.0020862048784L21.629296875 16.845107808874815L21.837890625 16.965539466588588L21.837890625 17.206402782016134L22.567968750000002 17.62791358401434L22.7765625 17.50748192630057" stroke-width="0.03" stroke="#000000" fill="none"/>
<path d="M22.567968750000002 17.62791358401434L22.567968750000002 17.387050268586794L23.40234375 17.86877689944189L23.40234375 17.025755295445475L22.567968750000002 16.54402866459038L22.567968750000002 15.580575402880193L23.298046874999997 15.159064600881985" stroke-width="0.03" stroke="#000000" fill="none"/>
<path d="M23.298046874999997 15.640791231737078L23.715234375 15.881654547164626L23.715234375 16.36338117801972" stroke-width="0.03" stroke="#000000" fill="none"/>
<path d="M24.132421875000002 16.60424449344727L23.40234375 17.025755295445475" stroke-width="0.03" stroke="#000000" fill="none"/>
<path d="M24.132421875000002 17.206402782016134L27.052734375 15.520359574023306L27.15703125 15.580575402880193L27.15703125 19.073093476579622L23.819531249999997 21L23.715234375 20.939784171143113L23.715234375 20.096762567146698" stroke-width="0.03" stroke="#000000" fill="none"/>
<path d="M23.819531249999997 20.03654673828981L23.819531249999997 21" stroke-width="0.03" stroke="#000000" fill="none"/>
<path d="M23.923828125000004 20.939784171143113L23.923828125000004 22.264532405994622L25.279687499999998 23.047338181134148L25.90546875 22.686043207992828L26.009765625 22.746259036849715L27.678515625 21.782805775139526L27.678515625 19.37417262086406L27.57421875 19.31395679200717L25.90546875 20.277410053717357L25.90546875 22.686043207992828" stroke-width="0.03" stroke="#000000" fill="none"/>
<path d="M26.009765625 22.746259036849715L26.009765625 20.337625882574244L25.90546875 20.277410053717357" stroke-width="0.03" stroke="#000000" fill="none"/>
<path d="M26.009765625 20.337625882574244L27.678515625 19.37417262086406" stroke-width="0.03" stroke="#000000" fill="none"/>
<path d="M26.1140625 19.67525176514849L26.1140625 20.156978396003588" stroke-width="0.03" stroke="#000000" fill="none"/>
<path d="M25.279687499999998 20.156978396003588L25.279687499999998 23.047338181134148" stroke-width="0.03" stroke="#000000" fill="none"/>
<path d="M25.90546875 24.612949731413206L24.8625 25.215108019982072L23.40234375 24.37208641598566L23.193749999999998 24.492518073699433L22.463671875 24.071007271701223L22.463671875 22.14410074828085L22.672265625 22.023669090567072L23.40234375 22.44517989256528L23.40234375 24.37208641598566" stroke-width="0.03" stroke="#000000" fill="none"/>
<path d="M23.193749999999998 24.492518073699433L23.193749999999998 22.565611550279055L22.463671875 22.14410074828085" stroke-width="0.03" stroke="#000000" fill="none"/>
<path d="M23.193749999999998 22.565611550279055L23.40234375 22.44517989256528" stroke-width="0.03" stroke="#000000" fill="none"/>
<path d="M23.40234375 23.167769838847924L25.90546875 24.612949731413206L25.90546875 26.17856128169226L26.844140625 25.636618821980278L25.90546875 25.0946763622683" stroke-width="0.03" stroke="#000000" fill="none"/>
<path d="M24.8625 25.215108019982072L24.8625 26.780719570261127L23.506640625 27.563525345400656L23.506640625 28.767841922538388L24.8625 27.985036147398862L24.8625 29.068921066822824L25.90546875 28.46676277825396L25.90546875 27.382877858829996L26.844140625 26.840935399118013L26.844140625 25.636618821980278" stroke-width="0.03" stroke="#000000" fill="none"/>
<path d="M24.8625 26.780719570261127L23.40234375 25.937697966264714L23.40234375 26.53985625483358L23.193749999999998 26.660287912547354L22.98515625 26.53985625483358L22.98515625 26.058129623978488" stroke-width="0.03" stroke="#000000" fill="none"/>
<path d="M22.880859375 25.9979137951216L22.880859375 25.75705047969405L22.98515625 25.696834650837165L22.98515625 25.576402993123395L23.193749999999998 25.45597133540962L23.40234375 25.576402993123395L23.40234375 25.696834650837165L23.923828125000004 25.39575550655273L23.923828125000004 25.636618821980278L23.40234375 25.937697966264714" stroke-width="0.03" stroke="#000000" fill="none"/>
<path d="M23.193749999999998 26.058129623978488L23.089453125000002 26.118345452835374L22.880859375 25.9979137951216" stroke-width="0.03" stroke="#000000" fill="none"/>
<path d="M23.089453125000002 26.118345452835374L23.089453125000002 25.877482137407824L23.193749999999998 25.817266308550938L23.193749999999998 25.696834650837165L22.98515625 25.576402993123395" stroke-width="0.03" stroke="#000000" fill="none"/>
<path d="M22.880859375 25.75705047969405L23.089453125000002 25.877482137407824" stroke-width="0.03" stroke="#000000" fill="none"/>
<path d="M23.193749999999998 25.817266308550938L21.9421875 25.0946763622683L20.586328125 25.877482137407824L20.586328125 26.479640425976694" stroke-width="0.03" stroke="#000000" fill="none"/>
<path d="M20.586328125 25.9979137951216L20.064843749999998 25.696834650837165L20.064843749999998 24.85381304684075L20.482031250000002 24.612949731413206L21.107812499999998 24.974244704554525L21.107812499999998 25.576402993123395" stroke-width="0.03" stroke="#000000" fill="none"/>
<path d="M20.690625 25.817266308550938L20.690625 25.215108019982072L21.107812499999998 24.974244704554525" stroke-width="0.03" stroke="#000000" fill="none"/>
<path d="M20.690625 25.215108019982072L20.064843749999998 24.85381304684075" stroke-width="0.03" stroke="#000000" fill="none"/>
<path d="M20.794921875 24.071007271701223L20.794921875 23.58928064084613L21.525000000000002 23.167769838847924L22.046484375000002 23.468848983132357" stroke-width="0.03" stroke="#000000" fill="none"/>
<path d="M21.9421875 23.529064811989244L22.463671875 23.227985667704807" stroke-width="0.03" stroke="#000000" fill="none"/>
<path d="M21.9421875 23.529064811989244L21.9421875 25.0946763622683" stroke-width="0.03" stroke="#000000" fill="none"/>
<path d="M21.420703125 24.432302244842543L21.9421875 24.13122310055811" stroke-width="0.03" stroke="#000000" fill="none"/>
<path d="M21.9421875 23.649496469703017L21.420703125 23.95057561398745L20.794921875 23.58928064084613" stroke-width="0.03" stroke="#000000" fill="none"/>
<path d="M20.794921875 24.071007271701223L21.420703125 24.432302244842543L21.420703125 23.95057561398745" stroke-width="0.03" stroke="#000000" fill="none"/>
<path d="M21.9421875 23.529064811989244L22.463671875 23.830143956273677" stroke-width="0.03" stroke="#000000" fill="none"/>
<path d="M23.298046874999997 25.51618716426651L23.715234375 25.27532384883896L23.923828125000004 25.39575550655273" stroke-width="0.03" stroke="#000000" fill="none"/>
<path d="M23.40234375 25.576402993123395L23.193749999999998 25.696834650837165" stroke-width="0.03" stroke="#000000" fill="none"/>
<path d="M23.193749999999998 26.058129623978488L23.193749999999998 26.660287912547354" stroke-width="0.03" stroke="#000000" fill="none"/>
<path d="M23.506640625 27.563525345400656L22.046484375000002 26.72050374140424L22.046484375000002 26.479640425976694L21.31640625 26.058129623978488L19.647656249999997 27.021582885688677L19.647656249999997 27.26244620111622L20.377734375 27.68395700311443L22.046484375000002 26.72050374140424" stroke-width="0.03" stroke="#000000" fill="none"/>
<path d="M22.046484375000002 26.479640425976694L20.377734375 27.443093687686883L19.647656249999997 27.021582885688677" stroke-width="0.03" stroke="#000000" fill="none"/>
<path d="M20.377734375 27.443093687686883L20.377734375 27.68395700311443" stroke-width="0.03" stroke="#000000" fill="none"/>
<path d="M20.482031250000002 28.22589946282641L19.334765625 28.888273580252164" stroke-width="0.03" stroke="#000000" fill="none"/>
<path d="M19.334765625 28.767841922538388L18.500390624999998 29.249568553393484" stroke-width="0.03" stroke="#000000" fill="none"/>
<path d="M18.500390624999998 29.12913689567971L19.23046875 28.7076260936815L19.334765625 28.767841922538388L19.334765625 32.621654969379136L16.31015625 34.36791400622886" stroke-width="0.03" stroke="#000000" fill="none"/>
<path d="M15.684375 31.236690905670745L15.684375 30.393669301674333" stroke-width="0.03" stroke="#000000" fill="none"/>
<path d="M14.85 30.754964274815652L14.85 29.91194267081924" stroke-width="0.03" stroke="#000000" fill="none"/>
<path d="M14.85 28.105467805112635L16.831640625 29.249568553393484" stroke-width="0.03" stroke="#000000" fill="none"/>
<path d="M16.51875 27.26244620111622L15.05859375 28.105467805112635L14.85 27.985036147398862L14.64140625 28.105467805112635L13.181249999999999 27.26244620111622" stroke-width="0.03" stroke="#000000" fill="none"/>
<path d="M14.64140625 28.105467805112635L14.64140625 22.565611550279055" stroke-width="0.03" stroke="#000000" fill="none"/>
<path d="M14.85 22.44517989256528L14.85 27.985036147398862" stroke-width="0.03" stroke="#000000" fill="none"/>
<path d="M15.05859375 28.105467805112635L15.05859375 22.565611550279055" stroke-width="0.03" stroke="#000000" fill="none"/>
<path d="M14.85 21.602158288568866L15.371484375 21.301079144284433L15.371484375 20.698920855715564L14.85 20.397841711431134L14.328515625 20.698920855715564L14.328515625 21.301079144284433L14.85 21.602158288568866" stroke-width="0.03" stroke="#000000" fill="none"/>
<path d="M14.85 21.36129497314132L15.162890625 21.18064748657066L15.162890625 20.819352513429337L14.85 20.63870502685868L14.537109375 20.819352513429337L14.537109375 21.18064748657066L14.85 21.36129497314132" stroke-width="0.03" stroke="#000000" fill="none"/>
<path d="M14.85 21.240863315427546L15.05859375 21.120431657713773L16.31015625 21.843021603996412" stroke-width="0.03" stroke="#000000" fill="none"/>
<path d="M16.51875 21.96345326171019L18.6046875 20.759136684572454L18.6046875 20.63870502685868L19.439062500000002 20.156978396003588L19.960546875000002 20.458057540288017L19.960546875000002 22.023669090567072L19.126171875 22.50539572142217L17.353125 21.481726630855093" stroke-width="0.03" stroke="#000000" fill="none"/>
<path d="M17.040234375 21.662374117425752L17.040234375 22.264532405994622L16.51875 22.565611550279055" stroke-width="0.03" stroke="#000000" fill="none"/>
<path d="M16.51875 22.926906523420374L18.291796875 23.95057561398745L18.291796875 24.914028875697635L16.9359375 25.696834650837165L16.414453125 25.39575550655273L16.414453125 24.432302244842543L16.51875 24.37208641598566L16.51875 21.96345326171019L17.040234375 22.264532405994622" stroke-width="0.03" stroke="#000000" fill="none"/>
<path d="M17.874609375000002 22.746259036849715L18.708984375 22.264532405994622" stroke-width="0.03" stroke="#000000" fill="none"/>
<path d="M18.917578125000002 22.384964063708395L18.083203125 22.866690694563488L18.083203125 23.830143956273677" stroke-width="0.03" stroke="#000000" fill="none"/>
<path d="M18.291796875 23.95057561398745L16.9359375 24.73338138912698L16.9359375 25.696834650837165" stroke-width="0.03" stroke="#000000" fill="none"/>
<path d="M17.040234375 25.636618821980278L18.083203125 26.238777110549147" stroke-width="0.03" stroke="#000000" fill="none"/>
<path d="M16.51875 25.45597133540962L16.51875 27.26244620111622" stroke-width="0.03" stroke="#000000" fill="none"/>
<path d="M16.9359375 24.73338138912698L16.414453125 24.432302244842543" stroke-width="0.03" stroke="#000000" fill="none"/>
<path d="M17.874609375000002 23.709712298559904L17.874609375000002 22.746259036849715" stroke-width="0.03" stroke="#000000" fill="none"/>
<path d="M19.126171875 22.50539572142217L19.126171875 20.939784171143113L19.960546875000002 20.458057540288017" stroke-width="0.03" stroke="#000000" fill="none"/>
<path d="M19.960546875000002 20.57848919800179L21.003515625000002 21.18064748657066L22.150781249999998 20.518273369144907L22.150781249999998 20.03654673828981" stroke-width="0.03" stroke="#000000" fill="none"/>
<path d="M22.98515625 20.518273369144907L21.003515625000002 19.37417262086406L21.003515625000002 21.18064748657066" stroke-width="0.03" stroke="#000000" fill="none"/>
<path d="M19.543359374999998 20.21719422486047L21.107812499999998 19.31395679200717L21.107812499999998 17.62791358401434L20.89921875 17.50748192630057L16.1015625 20.277410053717357" stroke-width="0.03" stroke="#000000" fill="none"/>
<path d="M16.1015625 20.03654673828981L20.89921875 17.26661861087302L19.439062500000002 16.423597006876605L17.874609375000002 17.326834439729907" stroke-width="0.03" stroke="#000000" fill="none"/>
<path d="M17.040234375 17.326834439729907L17.040234375 17.928992728298773" stroke-width="0.03" stroke="#000000" fill="none"/>
<path d="M15.684375 17.025755295445475L14.85 17.50748192630057L14.015625 17.025755295445475" stroke-width="0.03" stroke="#000000" fill="none"/>
<path d="M12.659765624999999 17.326834439729907L12.659765624999999 17.928992728298773" stroke-width="0.03" stroke="#000000" fill="none"/>
<path d="M11.9296875 16.784891980017925L11.9296875 15.580575402880193L10.782421874999999 14.918201285454437L10.365234375 15.159064600881985" stroke-width="0.03" stroke="#000000" fill="none"/>
<path d="M10.365234375 14.195611339171796L8.696484375 15.159064600881985L8.696484375 17.44726609744368L6.714843749999999 18.59136684572453L6.714843749999999 20.518273369144907L5.567578125 19.85589925171915L5.567578125 17.928992728298773L5.984765624999999 17.688129412871227" stroke-width="0.03" stroke="#000000" fill="none"/>
<path d="M5.88046875 17.62791358401434L5.88046875 17.748345241728117" stroke-width="0.03" stroke="#000000" fill="none"/>
<path d="M5.567578125 17.928992728298773L6.714843749999999 18.59136684572453" stroke-width="0.03" stroke="#000000" fill="none"/>
<path d="M6.297656249999999 17.86877689944189L7.13203125 17.387050268586794L7.13203125 17.62791358401434L6.9234374999999995 17.50748192630057" stroke-width="0.03" stroke="#000000" fill="none"/>
<path d="M7.13203125 17.62791358401434L7.862109374999999 17.206402782016134L7.862109374999999 16.965539466588588L8.070703124999998 16.845107808874815L8.070703124999998 16.0020862048784L7.862109374999999 15.881654547164626" stroke-width="0.03" stroke="#000000" fill="none"/>
<path d="M8.070703124999998 16.0020862048784L7.862109374999999 16.122517862592172L7.862109374999999 15.159064600881985L7.13203125 14.737553798883777L6.4019531249999995 15.159064600881985L6.4019531249999995 16.122517862592172L5.567578125 16.60424449344727L5.567578125 17.44726609744368L6.297656249999999 17.86877689944189L6.297656249999999 17.025755295445475L7.13203125 16.54402866459038L7.13203125 15.580575402880193L7.862109374999999 15.159064600881985" stroke-width="0.03" stroke="#000000" fill="none"/>
<path d="M7.5492187500000005 14.978417114311325L7.5492187500000005 14.49669048345623L9.21796875 13.533237221746042L10.365234375 14.195611339171796L10.365234375 16.483812835733495L11.9296875 15.580575402880193" stroke-width="0.03" stroke="#000000" fill="none"/>
<path d="M12.033984375000001 13.834316366030475L13.702734374999999 12.87086310432029L13.702734374999999 12.027841500323873L13.494140625 11.9074098426101L13.494140625 10.22136663461727L12.451171875 9.619208346048403L13.80703125 8.836402570908875L12.868359374999999 8.294460111196894L12.868359374999999 9.378345030620856" stroke-width="0.03" stroke="#000000" fill="none"/>
<path d="M12.451171875 9.619208346048403L12.451171875 12.509568131178968" stroke-width="0.03" stroke="#000000" fill="none"/>
<path d="M12.033984375000001 12.991294762034062L13.702734374999999 12.027841500323873" stroke-width="0.03" stroke="#000000" fill="none"/>
<path d="M13.494140625 11.9074098426101L11.825390624999999 12.87086310432029L11.825390624999999 13.713884708316701L12.033984375000001 13.834316366030475L12.033984375000001 12.991294762034062L11.825390624999999 12.87086310432029" stroke-width="0.03" stroke="#000000" fill="none"/>
<path d="M12.97265625 13.292373906318495L13.494140625 13.593453050602928L14.85 12.8106472754634L16.205859375 13.593453050602928L16.72734375 13.292373906318495" stroke-width="0.03" stroke="#000000" fill="none"/>
<path d="M16.31015625 13.533237221746042L16.31015625 14.13539551031491L15.580078125 14.556906312313117L15.162890625 14.31604299688557L15.162890625 13.593453050602928L15.684375 13.292373906318495" stroke-width="0.03" stroke="#000000" fill="none"/>
<path d="M16.1015625 13.533237221746042L15.580078125 13.834316366030475L15.162890625 13.593453050602928" stroke-width="0.03" stroke="#000000" fill="none"/>
<path d="M15.580078125 13.834316366030475L15.580078125 14.556906312313117" stroke-width="0.03" stroke="#000000" fill="none"/>
<path d="M14.537109375 14.31604299688557L14.119921875 14.556906312313117L13.389843749999999 14.13539551031491L13.389843749999999 13.533237221746042" stroke-width="0.03" stroke="#000000" fill="none"/>
<path d="M13.494140625 13.593453050602928L13.494140625 12.991294762034062" stroke-width="0.03" stroke="#000000" fill="none"/>
<path d="M13.598437500000001 13.533237221746042L14.119921875 13.834316366030475L14.537109375 13.593453050602928L14.537109375 14.31604299688557" stroke-width="0.03" stroke="#000000" fill="none"/>
<path d="M14.119921875 14.556906312313117L14.119921875 13.834316366030475" stroke-width="0.03" stroke="#000000" fill="none"/>
<path d="M14.537109375 13.593453050602928L14.015625 13.292373906318495" stroke-width="0.03" stroke="#000000" fill="none"/>
<path d="M14.85 12.8106472754634L14.85 11.365467382898117L14.745703124999999 11.425683211755006L14.745703124999999 11.666546527182554L14.537109375 11.54611486946878L14.537109375 11.305251554041233L14.64140625 11.245035725184344L14.119921875 10.943956580899911L14.119921875 11.184819896327458L14.537109375 11.425683211755006" stroke-width="0.03" stroke="#000000" fill="none"/>
<path d="M14.537109375 11.305251554041233L14.745703124999999 11.425683211755006" stroke-width="0.03" stroke="#000000" fill="none"/>
<path d="M14.85 11.365467382898117L14.954296875 11.425683211755006L14.954296875 11.666546527182554L15.162890625 11.54611486946878L15.162890625 11.305251554041233L15.05859375 11.245035725184344L15.580078125 10.943956580899911L15.580078125 11.184819896327458L15.162890625 11.425683211755006" stroke-width="0.03" stroke="#000000" fill="none"/>
<path d="M15.162890625 11.305251554041233L14.954296875 11.425683211755006" stroke-width="0.03" stroke="#000000" fill="none"/>
<path d="M14.85 11.606330698325666L14.745703124999999 11.666546527182554" stroke-width="0.03" stroke="#000000" fill="none"/>
<path d="M14.85 11.606330698325666L14.954296875 11.666546527182554" stroke-width="0.03" stroke="#000000" fill="none"/>
<path d="M14.85 11.124604067470571L15.371484375 10.823524923186138L15.580078125 10.943956580899911" stroke-width="0.03" stroke="#000000" fill="none"/>
<path d="M14.85 11.124604067470571L14.85 9.438560859477743L13.494140625 10.22136663461727" stroke-width="0.03" stroke="#000000" fill="none"/>
<path d="M14.119921875 10.943956580899911L14.328515625 10.823524923186138L14.85 11.124604067470571" stroke-width="0.03" stroke="#000000" fill="none"/>
<path d="M15.997265625 12.027841500323873L16.205859375 11.9074098426101L16.205859375 10.22136663461727L17.248828125 9.619208346048403L15.89296875 8.836402570908875L16.831640625 8.294460111196894L15.788671874999999 7.692301822628027L14.85 8.234244282340008L13.911328125 7.692301822628027L12.868359374999999 8.294460111196894" stroke-width="0.03" stroke="#000000" fill="none"/>
<path d="M14.85 9.438560859477743L16.205859375 10.22136663461727" stroke-width="0.03" stroke="#000000" fill="none"/>
<path d="M16.831640625 9.378345030620856L16.831640625 8.294460111196894" stroke-width="0.03" stroke="#000000" fill="none"/>
<path d="M17.248828125 9.619208346048403L17.248828125 12.509568131178968" stroke-width="0.03" stroke="#000000" fill="none"/>
<path d="M17.666015625 12.991294762034062L17.874609375000002 12.87086310432029L17.874609375000002 13.713884708316701L17.666015625 13.834316366030475L15.997265625 12.87086310432029L15.997265625 12.027841500323873L17.666015625 12.991294762034062L17.666015625 13.834316366030475" stroke-width="0.03" stroke="#000000" fill="none"/>
<path d="M17.874609375000002 12.87086310432029L16.205859375 11.9074098426101" stroke-width="0.03" stroke="#000000" fill="none"/>
<path d="M16.205859375 12.991294762034062L16.205859375 13.593453050602928" stroke-width="0.03" stroke="#000000" fill="none"/>
<path d="M18.291796875 12.509568131178968L18.291796875 10.943956580899911L18.917578125000002 10.582661607758592L21.003515625000002 11.786978184896327L22.672265625 10.823524923186138L22.672265625 10.703093265472365L20.586328125 9.49877668833463L18.917578125000002 10.462229950044819L18.917578125000002 10.582661607758592" stroke-width="0.03" stroke="#000000" fill="none"/>
<path d="M18.917578125000002 10.462229950044819L21.003515625000002 11.666546527182554L21.003515625000002 11.786978184896327" stroke-width="0.03" stroke="#000000" fill="none"/>
<path d="M21.003515625000002 11.666546527182554L22.672265625 10.703093265472365" stroke-width="0.03" stroke="#000000" fill="none"/>
<path d="M22.672265625 11.305251554041233L19.334765625 13.232158077461609L19.334765625 13.352589735175382L20.064843749999998 13.77410053717359" stroke-width="0.03" stroke="#000000" fill="none"/>
<path d="M20.169140624999997 13.713884708316701L19.334765625 13.232158077461609" stroke-width="0.03" stroke="#000000" fill="none"/>
<path d="M19.439062500000002 13.171942248604722L18.291796875 12.509568131178968" stroke-width="0.03" stroke="#000000" fill="none"/>
<path d="M18.291796875 10.943956580899911L20.794921875 12.389136473465193" stroke-width="0.03" stroke="#000000" fill="none"/>
<path d="M21.212109374999997 11.666546527182554L21.629296875 11.9074098426101" stroke-width="0.03" stroke="#000000" fill="none"/>
<path d="M22.672265625 11.305251554041233L25.696875000000002 13.051510590890949L25.696875000000002 13.171942248604722L22.7765625 14.85798545659755" stroke-width="0.03" stroke="#000000" fill="none"/>
<path d="M22.672265625 14.797769627740664L25.696875000000002 13.051510590890949" stroke-width="0.03" stroke="#000000" fill="none"/>
<path d="M25.383984374999997 14.556906312313117L24.132421875000002 15.279496258595758L24.132421875000002 15.640791231737078L24.4453125 15.82143871830774L24.4453125 17.025755295445475" stroke-width="0.03" stroke="#000000" fill="none"/>
<path d="M24.132421875000002 17.326834439729907L27.15703125 15.580575402880193" stroke-width="0.03" stroke="#000000" fill="none"/>
<path d="M25.696875000000002 15.098848772025098L24.4453125 15.82143871830774" stroke-width="0.03" stroke="#000000" fill="none"/>
<path d="M24.132421875000002 15.640791231737078L25.383984374999997 14.918201285454437L25.696875000000002 15.098848772025098L25.696875000000002 16.303165349162832" stroke-width="0.03" stroke="#000000" fill="none"/>
<path d="M25.383984374999997 14.918201285454437L25.383984374999997 14.556906312313117L24.341015624999997 13.95474802374425" stroke-width="0.03" stroke="#000000" fill="none"/>
<path d="M24.132421875000002 15.279496258595758L23.089453125000002 14.67733797002689" stroke-width="0.03" stroke="#000000" fill="none"/>
<path d="M22.567968750000002 15.580575402880193L21.837890625 15.159064600881985" stroke-width="0.03" stroke="#000000" fill="none"/>
<path d="M21.003515625000002 15.159064600881985L19.334765625 14.195611339171796L19.334765625 16.483812835733495L17.7703125 15.580575402880193" stroke-width="0.03" stroke="#000000" fill="none"/>
<path d="M20.89921875 17.26661861087302L20.89921875 17.50748192630057" stroke-width="0.03" stroke="#000000" fill="none"/>
<path d="M21.003515625000002 17.44726609744368L21.837890625 16.965539466588588" stroke-width="0.03" stroke="#000000" fill="none"/>
<path d="M22.567968750000002 16.54402866459038L23.298046874999997 16.122517862592172" stroke-width="0.03" stroke="#000000" fill="none"/>
<path d="M21.107812499999998 17.62791358401434L16.31015625 20.397841711431134" stroke-width="0.03" stroke="#000000" fill="none"/>
<path d="M15.05859375 20.879568342286227L15.05859375 21.120431657713773" stroke-width="0.03" stroke="#000000" fill="none"/>
<path d="M15.05859375 20.879568342286227L14.85 20.759136684572454L14.64140625 20.879568342286227L14.64140625 21.120431657713773L13.389843749999999 21.843021603996412" stroke-width="0.03" stroke="#000000" fill="none"/>
<path d="M13.181249999999999 21.96345326171019L12.659765624999999 22.264532405994622" stroke-width="0.03" stroke="#000000" fill="none"/>
<path d="M11.825390624999999 22.746259036849715L11.825390624999999 23.709712298559904" stroke-width="0.03" stroke="#000000" fill="none"/>
<path d="M11.825390624999999 22.746259036849715L10.991015625000001 22.264532405994622" stroke-width="0.03" stroke="#000000" fill="none"/>
<path d="M10.573828124999999 20.939784171143113L11.095312499999999 20.63870502685868" stroke-width="0.03" stroke="#000000" fill="none"/>
<path d="M13.389843749999999 20.397841711431134L8.5921875 17.62791358401434" stroke-width="0.03" stroke="#000000" fill="none"/>
<path d="M8.696484375 17.44726609744368L7.862109374999999 16.965539466588588" stroke-width="0.03" stroke="#000000" fill="none"/>
<path d="M7.13203125 16.54402866459038L6.4019531249999995 16.122517862592172" stroke-width="0.03" stroke="#000000" fill="none"/>
<path d="M5.984765624999999 15.881654547164626L6.4019531249999995 15.640791231737078" stroke-width="0.03" stroke="#000000" fill="none"/>
<path d="M6.4019531249999995 15.159064600881985L7.13203125 15.580575402880193" stroke-width="0.03" stroke="#000000" fill="none"/>
<path d="M7.4449218749999995 14.918201285454437L7.5492187500000005 14.85798545659755" stroke-width="0.03" stroke="#000000" fill="none"/>
<path d="M7.5492187500000005 14.49669048345623L8.696484375 15.159064600881985" stroke-width="0.03" stroke="#000000" fill="none"/>
<path d="M8.80078125 17.26661861087302L8.80078125 17.50748192630057" stroke-width="0.03" stroke="#000000" fill="none"/>
<path d="M6.297656249999999 17.025755295445475L5.567578125 16.60424449344727" stroke-width="0.03" stroke="#000000" fill="none"/>
<path d="M5.984765624999999 16.36338117801972L5.984765624999999 15.881654547164626" stroke-width="0.03" stroke="#000000" fill="none"/>
<path d="M5.567578125 15.640791231737078L5.254687500000001 15.82143871830774" stroke-width="0.03" stroke="#000000" fill="none"/>
<path d="M5.567578125 15.640791231737078L5.567578125 15.279496258595758L6.610546875 14.67733797002689" stroke-width="0.03" stroke="#000000" fill="none"/>
<path d="M5.567578125 15.279496258595758L4.3160156249999995 14.556906312313117" stroke-width="0.03" stroke="#000000" fill="none"/>
<path d="M4.3160156249999995 14.918201285454437L5.567578125 15.640791231737078" stroke-width="0.03" stroke="#000000" fill="none"/>
<path d="M5.567578125 17.326834439729907L2.54296875 15.580575402880193" stroke-width="0.03" stroke="#000000" fill="none"/>
<path d="M8.070703124999998 11.9074098426101L8.487890625 11.666546527182554" stroke-width="0.03" stroke="#000000" fill="none"/>
<path d="M8.905078125 12.389136473465193L11.408203125 10.943956580899911" stroke-width="0.03" stroke="#000000" fill="none"/>
<path d="M14.85 18.470935188010756L14.85 19.073093476579622" stroke-width="0.03" stroke="#000000" fill="none"/>
<path d="M14.85 19.31395679200717L14.85 20.759136684572454" stroke-width="0.03" stroke="#000000" fill="none"/>
<path d="M14.64140625 21.120431657713773L14.85 21.240863315427546" stroke-width="0.03" stroke="#000000" fill="none"/>
<path d="M18.6046875 20.63870502685868L19.126171875 20.939784171143113" stroke-width="0.03" stroke="#000000" fill="none"/>
<path d="M20.586328125 25.877482137407824L21.107812499999998 26.17856128169226" stroke-width="0.03" stroke="#000000" fill="none"/>
<path d="M21.003515625000002 27.322662029973106L23.506640625 28.767841922538388" stroke-width="0.03" stroke="#000000" fill="none"/>
<path d="M23.923828125000004 28.526978607110845L24.8625 29.068921066822824" stroke-width="0.03" stroke="#000000" fill="none"/>
<path d="M21.9421875 29.791511013105463L19.85625 30.995827590243202L19.85625 32.92273411366358L21.9421875 31.71841753652584L21.9421875 29.791511013105463L21.837890625 29.731295184248577L21.837890625 29.008705237965938L20.482031250000002 28.22589946282641" stroke-width="0.03" stroke="#000000" fill="none"/>
<path d="M21.837890625 29.008705237965938L19.334765625 30.45388513053122" stroke-width="0.03" stroke="#000000" fill="none"/>
<path d="M19.751953125 30.935611761386316L21.837890625 29.731295184248577" stroke-width="0.03" stroke="#000000" fill="none"/>
<path d="M19.85625 30.995827590243202L19.751953125 30.935611761386316L19.751953125 32.86251828480669L19.85625 32.92273411366358" stroke-width="0.03" stroke="#000000" fill="none"/>
<path d="M19.334765625 31.41733839224141L19.751953125 31.17647507681386" stroke-width="0.03" stroke="#000000" fill="none"/>
<path d="M12.659765624999999 25.636618821980278L11.616796874999999 26.238777110549147" stroke-width="0.03" stroke="#000000" fill="none"/>
<path d="M9.113671875 25.877482137407824L8.5921875 26.17856128169226" stroke-width="0.03" stroke="#000000" fill="none"/>
<path d="M7.7578125 23.529064811989244L7.236328125 23.227985667704807" stroke-width="0.03" stroke="#000000" fill="none"/>
<path d="M5.424938354322334 3.383983116796798L5.424938354322334 3.0054372986874878L5.244678440936948 3.257801177427028L5.5150683110150265 3.257801177427028" stroke-width="0.03" stroke="#000000" fill="none"/>
<path d="M5.1184965015671775 3.0595152727031034L5.100470510228639 3.023463290026026L5.046392536213023 3.0054372986874878L5.010340553535945 3.0054372986874878L4.95626257952033 3.023463290026026L4.920210596843253 3.077541264041642L4.902184605504715 3.167671220734335L4.902184605504715 3.257801177427028L4.920210596843253 3.3299051427811825L4.95626257952033 3.3659571254582596L5.010340553535945 3.383983116796798L5.028366544874484 3.383983116796798L5.0824445188901 3.3659571254582596L5.1184965015671775 3.3299051427811825L5.136522492905716 3.2758271687655665L5.136522492905716 3.257801177427028L5.1184965015671775 3.2037232034114123L5.0824445188901 3.167671220734335L5.028366544874484 3.149645229395796L5.010340553535945 3.149645229395796L4.95626257952033 3.167671220734335L4.920210596843253 3.2037232034114123L4.902184605504715 3.257801177427028" stroke-width="0.03" stroke="#000000" fill="none"/>
<path d="M4.794028657473483 3.257801177427028L4.523638787395404 3.257801177427028L4.7038987007807895 3.0054372986874878L4.7038987007807895 3.383983116796798" stroke-width="0.03" stroke="#000000" fill="none"/>
<path d="M4.253248917317325 3.0054372986874878L4.199170943301709 3.023463290026026L4.18114495196317 3.0595152727031034L4.18114495196317 3.0955672553801805L4.199170943301709 3.1316192380572576L4.235222925978786 3.149645229395796L4.3073268913329406 3.167671220734335L4.361404865348556 3.1856972120728733L4.397456848025634 3.221749194749951L4.415482839364172 3.257801177427028L4.415482839364172 3.3118791514426436L4.397456848025634 3.3479311341197207L4.379430856687095 3.3659571254582596L4.3253528826714795 3.383983116796798L4.253248917317325 3.383983116796798L4.199170943301709 3.3659571254582596L4.18114495196317 3.3479311341197207L4.163118960624631 3.3118791514426436L4.163118960624631 3.257801177427028L4.18114495196317 3.221749194749951L4.217196934640247 3.1856972120728733L4.2712749086558635 3.167671220734335L4.343378874010018 3.149645229395796L4.379430856687095 3.1316192380572576L4.397456848025634 3.0955672553801805L4.397456848025634 3.0595152727031034L4.379430856687095 3.023463290026026L4.3253528826714795 3.0054372986874878L4.253248917317325 3.0054372986874878" stroke-width="0.03" stroke="#000000" fill="none"/>
<path d="M3.8927290905465526 3.0054372986874878L3.838651116530937 3.023463290026026L3.8206251251923984 3.0595152727031034L3.8206251251923984 3.0955672553801805L3.838651116530937 3.1316192380572576L3.8747030992080145 3.149645229395796L3.9468070645621687 3.167671220734335L4.000885038577785 3.1856972120728733L4.036937021254861 3.221749194749951L4.0549630125934 3.257801177427028L4.0549630125934 3.3118791514426436L4.036937021254861 3.3479311341197207L4.018911029916323 3.3659571254582596L3.9648330559007072 3.383983116796798L3.8927290905465526 3.383983116796798L3.838651116530937 3.3659571254582596L3.8206251251923984 3.3479311341197207L3.80259913385386 3.3118791514426436L3.80259913385386 3.257801177427028L3.8206251251923984 3.221749194749951L3.8566771078694755 3.1856972120728733L3.9107550818850916 3.167671220734335L3.9828590472392458 3.149645229395796L4.018911029916323 3.1316192380572576L4.036937021254861 3.0955672553801805L4.036937021254861 3.0595152727031034L4.018911029916323 3.023463290026026L3.9648330559007072 3.0054372986874878L3.8927290905465526 3.0054372986874878" stroke-width="0.03" stroke="#000000" fill="none"/>
<path d="M3.478131289760165 3.0054372986874878L3.6764171944840895 3.0054372986874878L3.568261246452858 3.149645229395796L3.622339220468474 3.149645229395796L3.658391203145551 3.167671220734335L3.6764171944840895 3.1856972120728733L3.694443185822628 3.2397751860884894L3.694443185822628 3.2758271687655665L3.6764171944840895 3.3299051427811825L3.6403652118070124 3.3659571254582596L3.586287237791397 3.383983116796798L3.5322092637757807 3.383983116796798L3.478131289760165 3.3659571254582596L3.4601052984216265 3.3479311341197207L3.442079307083088 3.3118791514426436" stroke-width="0.03" stroke="#000000" fill="none"/>
<path d="M3.1897154283435474 3.0054372986874878L3.1356374543279317 3.023463290026026L3.0995854716508546 3.077541264041642L3.0815594803123156 3.167671220734335L3.0815594803123156 3.221749194749951L3.0995854716508546 3.3118791514426436L3.1356374543279317 3.3659571254582596L3.1897154283435474 3.383983116796798L3.225767411020625 3.383983116796798L3.2798453850362406 3.3659571254582596L3.3158973677133177 3.3118791514426436L3.333923359051856 3.221749194749951L3.333923359051856 3.167671220734335L3.3158973677133177 3.077541264041642L3.2798453850362406 3.023463290026026L3.225767411020625 3.0054372986874878L3.1897154283435474 3.0054372986874878" stroke-width="0.03" stroke="#000000" fill="none"/>
<path d="M2.9373515496040072 3.0054372986874878L2.757091636218621 3.0054372986874878L2.7390656448800828 3.167671220734335L2.757091636218621 3.149645229395796L2.811169610234237 3.1316192380572576L2.8652475842498526 3.1316192380572576L2.9193255582654682 3.149645229395796L2.955377540942546 3.1856972120728733L2.9734035322810843 3.2397751860884894L2.9734035322810843 3.2758271687655665L2.955377540942546 3.3299051427811825L2.9193255582654682 3.3659571254582596L2.8652475842498526 3.383983116796798L2.811169610234237 3.383983116796798L2.757091636218621 3.3659571254582596L2.7390656448800828 3.3479311341197207L2.7210396535415438 3.3118791514426436" stroke-width="0.03" stroke="#000000" fill="none"/>
<path d="M2.6128837055103125 3.383983116796798L2.414597800786388 3.1316192380572576" stroke-width="0.03" stroke="#000000" fill="none"/>
<path d="M2.6128837055103125 3.1316192380572576L2.414597800786388 3.383983116796798" stroke-width="0.03" stroke="#000000" fill="none"/>
<path d="M2.1622339220468474 3.0054372986874878L2.1081559480312317 3.023463290026026L2.072103965354154 3.077541264041642L2.0540779740156156 3.167671220734335L2.0540779740156156 3.221749194749951L2.072103965354154 3.3118791514426436L2.1081559480312317 3.3659571254582596L2.1622339220468474 3.383983116796798L2.1982859047239245 3.383983116796798L2.2523638787395406 3.3659571254582596L2.2884158614166177 3.3118791514426436L2.3064418527551562 3.221749194749951L2.3064418527551562 3.167671220734335L2.2884158614166177 3.077541264041642L2.2523638787395406 3.023463290026026L2.1982859047239245 3.0054372986874878L2.1622339220468474 3.0054372986874878" stroke-width="0.03" stroke="#000000" fill="none"/>
<path d="M2.1166666666666667 2.2291666666666665L2.1166666666666667 1.8208333333333333" stroke-width="0.03" stroke="#000000" fill="none"/>
<path d="M2.0875 1.6166666666666667L2.1166666666666667 1.6458333333333333L2.145833333333333 1.6166666666666667L2.1166666666666667 1.5875L2.0875 1.6166666666666667" stroke-width="0.03" stroke="#000000" fill="none"/>
<path d="M2.3208333333333333 2.1416666666666666L2.35 2.2L2.4375 2.2291666666666665L2.525 2.2291666666666665L2.6125 2.2L2.6416666666666666 2.1416666666666666L2.6416666666666666 2.1125L2.6125 2.0541666666666667L2.5541666666666667 2.025L2.408333333333333 1.9958333333333333L2.35 1.9666666666666666L2.3208333333333333 1.9083333333333332L2.35 1.85L2.4375 1.8208333333333333L2.525 1.8208333333333333L2.6125 1.85L2.6416666666666666 1.9083333333333332" stroke-width="0.03" stroke="#000000" fill="none"/>
<path d="M2.9625 1.8208333333333333L2.904166666666667 1.85L2.845833333333333 1.9083333333333332L2.8166666666666664 1.9958333333333333L2.8166666666666664 2.0541666666666667L2.845833333333333 2.1416666666666666L2.904166666666667 2.2L2.9625 2.2291666666666665L3.05 2.2291666666666665L3.1083333333333334 2.2L3.1666666666666665 2.1416666666666666L3.1958333333333333 2.0541666666666667L3.1958333333333333 1.9958333333333333L3.1666666666666665 1.9083333333333332L3.1083333333333334 1.85L3.05 1.8208333333333333L2.9625 1.8208333333333333" stroke-width="0.03" stroke="#000000" fill="none"/>
<path d="M3.283333333333333 2.2874999999999996L3.75 2.2874999999999996" stroke-width="0.03" stroke="#000000" fill="none"/>
<path d="M3.8375 2.1416666666666666L3.8666666666666663 2.2L3.9541666666666666 2.2291666666666665L4.041666666666666 2.2291666666666665L4.129166666666666 2.2L4.158333333333333 2.1416666666666666L4.158333333333333 2.1125L4.129166666666666 2.0541666666666667L4.070833333333333 2.025L3.925 1.9958333333333333L3.8666666666666663 1.9666666666666666L3.8375 1.9083333333333332L3.8666666666666663 1.85L3.9541666666666666 1.8208333333333333L4.041666666666666 1.8208333333333333L4.129166666666666 1.85L4.158333333333333 1.9083333333333332" stroke-width="0.03" stroke="#000000" fill="none"/>
<path d="M4.3625 1.9375L4.449999999999999 1.85L4.508333333333333 1.8208333333333333L4.595833333333333 1.8208333333333333L4.654166666666667 1.85L4.683333333333334 1.9375L4.683333333333334 2.2291666666666665" stroke-width="0.03" stroke="#000000" fill="none"/>
<path d="M4.3625 2.2291666666666665L4.3625 1.8208333333333333" stroke-width="0.03" stroke="#000000" fill="none"/>
<path d="M5.033333333333333 1.8208333333333333L4.975 1.85L4.916666666666666 1.9083333333333332L4.887499999999999 1.9958333333333333L4.887499999999999 2.0541666666666667L4.916666666666666 2.1416666666666666L4.975 2.2L5.033333333333333 2.2291666666666665L5.120833333333334 2.2291666666666665L5.179166666666666 2.2L5.2375 2.1416666666666666L5.266666666666666 2.0541666666666667L5.266666666666666 1.9958333333333333L5.2375 1.9083333333333332L5.179166666666666 1.85L5.120833333333334 1.8208333333333333L5.033333333333333 1.8208333333333333" stroke-width="0.03" stroke="#000000" fill="none"/>
<path d="M5.441666666666666 1.8208333333333333L5.558333333333334 2.2291666666666665L5.675 1.8208333333333333L5.791666666666666 2.2291666666666665L5.908333333333333 1.8208333333333333" stroke-width="0.03" stroke="#000000" fill="none"/>
<path d="M6.054166666666666 1.8208333333333333L6.258333333333333 1.8208333333333333" stroke-width="0.03" stroke="#000000" fill="none"/>
<path d="M6.2875 1.6166666666666667L6.229166666666666 1.6166666666666667L6.1708333333333325 1.6458333333333333L6.141666666666667 1.7333333333333334L6.141666666666667 2.2291666666666665" stroke-width="0.03" stroke="#000000" fill="none"/>
<path d="M6.4624999999999995 2.2291666666666665L6.4624999999999995 1.6166666666666667" stroke-width="0.03" stroke="#000000" fill="none"/>
<path d="M7.016666666666666 1.8208333333333333L7.016666666666666 2.2291666666666665" stroke-width="0.03" stroke="#000000" fill="none"/>
<path d="M7.016666666666666 2.1416666666666666L6.958333333333333 2.2L6.8999999999999995 2.2291666666666665L6.812499999999999 2.2291666666666665L6.754166666666666 2.2L6.695833333333333 2.1416666666666666L6.666666666666666 2.0541666666666667L6.666666666666666 1.9958333333333333L6.695833333333333 1.9083333333333332L6.754166666666666 1.85L6.812499999999999 1.8208333333333333L6.8999999999999995 1.8208333333333333L6.958333333333333 1.85L7.016666666666666 1.9083333333333332" stroke-width="0.03" stroke="#000000" fill="none"/>
<path d="M7.249999999999999 2.1125L7.541666666666666 1.8208333333333333" stroke-width="0.03" stroke="#000000" fill="none"/>
<path d="M7.366666666666666 1.9958333333333333L7.570833333333333 2.2291666666666665" stroke-width="0.03" stroke="#000000" fill="none"/>
<path d="M7.716666666666666 1.9958333333333333L8.066666666666666 1.9958333333333333L8.066666666666666 1.9375L8.0375 1.8791666666666667L8.008333333333333 1.85L7.949999999999999 1.8208333333333333L7.8625 1.8208333333333333L7.804166666666666 1.85L7.745833333333333 1.9083333333333332L7.716666666666666 1.9958333333333333L7.716666666666666 2.0541666666666667L7.745833333333333 2.1416666666666666L7.804166666666666 2.2L7.8625 2.2291666666666665L7.949999999999999 2.2291666666666665L8.008333333333333 2.2L8.066666666666666 2.1416666666666666" stroke-width="0.03" stroke="#000000" fill="none"/>
<path d="M8.270833333333332 1.7625L8.270833333333332 1.7333333333333334L8.299999999999999 1.675L8.329166666666666 1.6458333333333333L8.3875 1.6166666666666667L8.504166666666666 1.6166666666666667L8.5625 1.6458333333333333L8.591666666666665 1.675L8.620833333333334 1.7333333333333334L8.620833333333334 1.7916666666666665L8.591666666666665 1.85L8.533333333333331 1.9375L8.241666666666667 2.2291666666666665L8.649999999999999 2.2291666666666665" stroke-width="0.03" stroke="#000000" fill="none"/>
<path d="M9.237499999999999 2.533333333333333L1.5 2.533333333333333" stroke-width="0.03" stroke="#000000" fill="none"/>
<path d="M7.249999999999999 2.2291666666666665L7.249999999999999 1.6166666666666667" stroke-width="0.03" stroke="#000000" fill="none"/>
</svg>
