<?xml version="1.0" standalone="no"?>
<svg width="29.7cm" height="42cm" version="1.1" xmlns="http://www.w3.org/2000/svg" viewBox="0.0 0.0 29.700001 42.000001">
<path d="M4.4203125 11.847194013753214L10.05234375 8.595539255481327L11.72109375 9.558992517191516" stroke-width="0.03" stroke="#000000" fill="none"/>
<path d="M12.138281249999999 9.31812920176397L8.80078125 11.245035725184344L8.80078125 11.365467382898117L9.4265625 11.72676235603944L9.4265625 11.967625671466987L8.38359375 12.569783960035853L8.279296875 12.509568131178968L8.279296875 12.629999788892741L6.819140625 13.473021392889155L4.4203125 12.08805732918076L4.4203125 11.847194013753214L6.819140625 13.232158077461609L9.4265625 11.72676235603944" stroke-width="0.03" stroke="#000000" fill="none"/>
<path d="M9.530859375 12.027841500323873L8.905078125 12.389136473465193L8.905078125 12.87086310432029" stroke-width="0.03" stroke="#000000" fill="none"/>
<path d="M9.113671875 12.750431446606514L9.113671875 12.509568131178968L8.80078125 12.328920644608306" stroke-width="0.03" stroke="#000000" fill="none"/>
<path d="M9.113671875 12.509568131178968L9.739453124999999 12.148273158037647L9.530859375 12.027841500323873" stroke-width="0.03" stroke="#000000" fill="none"/>
<path d="M9.739453124999999 12.148273158037647L9.739453124999999 12.389136473465193" stroke-width="0.03" stroke="#000000" fill="none"/>
<path d="M9.948046875 12.26870481575142L9.948046875 12.509568131178968L11.408203125 13.352589735175382L11.408203125 13.473021392889155" stroke-width="0.03" stroke="#000000" fill="none"/>
<path d="M11.408203125 13.352589735175382L11.095312499999999 13.533237221746042L11.199609375 13.593453050602928" stroke-width="0.03" stroke="#000000" fill="none"/>
<path d="M11.095312499999999 13.653668879459815L11.72109375 13.292373906318495L9.948046875 12.26870481575142" stroke-width="0.03" stroke="#000000" fill="none"/>
<path d="M10.260937499999999 12.08805732918076L6.9234374999999995 14.014963852601136L6.9234374999999995 15.21928042973887L7.236328125 15.399927916309531" stroke-width="0.03" stroke="#000000" fill="none"/>
<path d="M7.027734374999999 15.520359574023306L8.487890625 14.67733797002689L10.365234375 15.761222889450853L10.365234375 16.0020862048784L8.905078125 16.845107808874815L7.027734374999999 15.761222889450853L7.027734374999999 15.520359574023306" stroke-width="0.03" stroke="#000000" fill="none"/>
<path d="M7.13203125 15.82143871830774L7.13203125 16.062302033735286L7.653515625 16.36338117801972L7.653515625 16.845107808874815L7.236328125 17.08597112430236L6.714843749999999 16.784891980017925L6.5062500000000005 16.905323637731698" stroke-width="0.03" stroke="#000000" fill="none"/>
<path d="M6.4019531249999995 16.845107808874815L6.193359375 16.965539466588588L6.193359375 18.651582674581416L8.070703124999998 19.735467594005378L8.279296875 19.615035936291605L8.279296875 17.928992728298773L6.4019531249999995 16.845107808874815" stroke-width="0.03" stroke="#000000" fill="none"/>
<path d="M6.193359375 17.206402782016134L5.88046875 17.025755295445475L4.8374999999999995 17.62791358401434L4.8374999999999995 21.481726630855093L3.3773437500000005 20.63870502685868L3.481640624999999 20.57848919800179L4.107421875 20.939784171143113L4.3160156249999995 20.819352513429337L4.3160156249999995 19.615035936291605L4.211718750000001 19.554820107434715L4.3160156249999995 19.49460427857783L4.3160156249999995 17.808561070585L1.9171874999999992 16.423597006876605L1.7085937499999995 16.54402866459038L1.7085937499999995 23.047338181134148L3.3773437500000005 24.010791442844337" stroke-width="0.03" stroke="#000000" fill="none"/>
<path d="M3.3773437500000005 24.492518073699433L3.3773437500000005 20.63870502685868" stroke-width="0.03" stroke="#000000" fill="none"/>
<path d="M4.107421875 20.939784171143113L4.107421875 17.928992728298773L4.3160156249999995 17.808561070585" stroke-width="0.03" stroke="#000000" fill="none"/>
<path d="M4.3160156249999995 17.928992728298773L4.8374999999999995 18.23007187258321" stroke-width="0.03" stroke="#000000" fill="none"/>
<path d="M4.8374999999999995 17.989208557155663L4.107421875 17.567697755157454L4.107421875 16.72467615116104L4.524609375000001 16.483812835733495L4.8374999999999995 16.66446032230415" stroke-width="0.03" stroke="#000000" fill="none"/>
<path d="M4.4203125 16.905323637731698L4.107421875 16.72467615116104" stroke-width="0.03" stroke="#000000" fill="none"/>
<path d="M4.211718750000001 16.66446032230415L3.898828125 16.483812835733495" stroke-width="0.03" stroke="#000000" fill="none"/>
<path d="M3.7945312499999995 16.54402866459038L3.7945312499999995 17.025755295445475" stroke-width="0.03" stroke="#000000" fill="none"/>
<path d="M4.107421875 17.08597112430236L5.254687500000001 16.423597006876605L8.070703124999998 18.049424386012547L8.279296875 17.928992728298773" stroke-width="0.03" stroke="#000000" fill="none"/>
<path d="M8.279296875 18.16985604372632L8.5921875 18.350503530296983L8.279296875 18.531151016867643" stroke-width="0.03" stroke="#000000" fill="none"/>
<path d="M8.5921875 18.350503530296983L8.5921875 17.989208557155663L9.113671875 17.688129412871227L9.113671875 17.08597112430236L9.4265625 16.905323637731698L9.4265625 16.54402866459038" stroke-width="0.03" stroke="#000000" fill="none"/>
<path d="M9.4265625 16.905323637731698L9.113671875 16.72467615116104" stroke-width="0.03" stroke="#000000" fill="none"/>
<path d="M8.905078125 16.60424449344727L10.365234375 15.761222889450853" stroke-width="0.03" stroke="#000000" fill="none"/>
<path d="M10.156640625 15.640791231737078L10.156640625 15.038632943168212L8.905078125 14.31604299688557L9.739453124999999 13.834316366030475L10.991015625000001 14.556906312313117L10.991015625000001 15.159064600881985L10.573828124999999 15.399927916309531L10.573828124999999 16.122517862592172L10.260937499999999 16.303165349162832L10.260937499999999 16.423597006876605L10.573828124999999 16.60424449344727L10.88671875 16.423597006876605L10.88671875 16.303165349162832L10.573828124999999 16.122517862592172" stroke-width="0.03" stroke="#000000" fill="none"/>
<path d="M10.260937499999999 16.303165349162832L10.573828124999999 16.483812835733495L10.573828124999999 16.60424449344727" stroke-width="0.03" stroke="#000000" fill="none"/>
<path d="M10.573828124999999 16.483812835733495L10.88671875 16.303165349162832" stroke-width="0.03" stroke="#000000" fill="none"/>
<path d="M10.782421874999999 16.483812835733495L10.782421874999999 16.72467615116104" stroke-width="0.03" stroke="#000000" fill="none"/>
<path d="M10.88671875 16.66446032230415L10.88671875 16.54402866459038" stroke-width="0.03" stroke="#000000" fill="none"/>
<path d="M10.782421874999999 16.483812835733495L10.991015625000001 16.60424449344727" stroke-width="0.03" stroke="#000000" fill="none"/>
<path d="M11.616796874999999 16.24294952030595L9.739453124999999 17.326834439729907" stroke-width="0.03" stroke="#000000" fill="none"/>
<path d="M9.63515625 17.26661861087302L9.84375 17.146186953159244L9.84375 16.303165349162832" stroke-width="0.03" stroke="#000000" fill="none"/>
<path d="M10.156640625 16.122517862592172L10.156640625 17.08597112430236" stroke-width="0.03" stroke="#000000" fill="none"/>
<path d="M9.948046875 17.206402782016134L9.84375 17.146186953159244" stroke-width="0.03" stroke="#000000" fill="none"/>
<path d="M10.05234375 17.50748192630057L9.948046875 17.567697755157454L8.070703124999998 16.483812835733495L8.175 16.423597006876605" stroke-width="0.03" stroke="#000000" fill="none"/>
<path d="M8.070703124999998 16.483812835733495L8.070703124999998 17.08597112430236L7.5492187500000005 17.387050268586794L7.5492187500000005 17.50748192630057" stroke-width="0.03" stroke="#000000" fill="none"/>
<path d="M7.5492187500000005 17.387050268586794L9.4265625 18.470935188010756L9.4265625 18.59136684572453L9.948046875 18.290287701440096L9.948046875 22.023669090567072L10.05234375 21.96345326171019L10.05234375 18.23007187258321L13.285546875 16.36338117801972L13.285546875 16.24294952030595L12.659765624999999 15.881654547164626L12.659765624999999 15.640791231737078L10.991015625000001 14.67733797002689" stroke-width="0.03" stroke="#000000" fill="none"/>
<path d="M10.991015625000001 14.556906312313117L10.156640625 15.038632943168212" stroke-width="0.03" stroke="#000000" fill="none"/>
<path d="M9.84375 15.339712087452645L9.739453124999999 15.399927916309531" stroke-width="0.03" stroke="#000000" fill="none"/>
<path d="M9.84375 15.339712087452645L9.84375 15.460143745166418" stroke-width="0.03" stroke="#000000" fill="none"/>
<path d="M9.84375 15.339712087452645L9.113671875 14.918201285454437L9.113671875 14.67733797002689L8.905078125 14.556906312313117L8.905078125 14.31604299688557" stroke-width="0.03" stroke="#000000" fill="none"/>
<path d="M9.113671875 14.67733797002689L8.80078125 14.85798545659755" stroke-width="0.03" stroke="#000000" fill="none"/>
<path d="M9.009374999999999 14.978417114311325L9.113671875 14.918201285454437" stroke-width="0.03" stroke="#000000" fill="none"/>
<path d="M8.279296875 14.797769627740664L6.9234374999999995 14.014963852601136" stroke-width="0.03" stroke="#000000" fill="none"/>
<path d="M6.9234374999999995 14.13539551031491L6.089062499999999 13.653668879459815L6.089062499999999 14.978417114311325L8.905078125 16.60424449344727L8.905078125 16.845107808874815" stroke-width="0.03" stroke="#000000" fill="none"/>
<path d="M9.21796875 17.025755295445475L10.05234375 17.50748192630057L10.05234375 18.109640214869437L13.285546875 16.24294952030595" stroke-width="0.03" stroke="#000000" fill="none"/>
<path d="M12.868359374999999 16.60424449344727L13.80703125 17.146186953159244" stroke-width="0.03" stroke="#000000" fill="none"/>
<path d="M13.80703125 17.025755295445475L14.537109375 16.60424449344727L14.745703124999999 16.72467615116104L14.85 16.66446032230415L14.85 16.423597006876605L14.745703124999999 16.483812835733495L14.745703124999999 16.72467615116104" stroke-width="0.03" stroke="#000000" fill="none"/>
<path d="M14.85 16.66446032230415L14.954296875 16.72467615116104L15.162890625 16.60424449344727L15.89296875 17.025755295445475L15.89296875 17.26661861087302" stroke-width="0.03" stroke="#000000" fill="none"/>
<path d="M15.89296875 17.146186953159244L16.831640625 16.60424449344727" stroke-width="0.03" stroke="#000000" fill="none"/>
<path d="M16.414453125 16.36338117801972L16.414453125 16.24294952030595L17.040234375 15.881654547164626L17.040234375 15.640791231737078L18.708984375 14.67733797002689" stroke-width="0.03" stroke="#000000" fill="none"/>
<path d="M18.708984375 14.556906312313117L19.960546875000002 13.834316366030475L20.794921875 14.31604299688557L20.794921875 14.556906312313117L20.586328125 14.67733797002689L20.586328125 14.918201285454437L20.690625 14.978417114311325" stroke-width="0.03" stroke="#000000" fill="none"/>
<path d="M20.586328125 14.918201285454437L19.85625 15.339712087452645L19.85625 15.460143745166418" stroke-width="0.03" stroke="#000000" fill="none"/>
<path d="M19.85625 15.339712087452645L19.960546875000002 15.399927916309531" stroke-width="0.03" stroke="#000000" fill="none"/>
<path d="M19.543359374999998 15.640791231737078L19.543359374999998 15.038632943168212L18.708984375 14.556906312313117L18.708984375 15.159064600881985L19.126171875 15.399927916309531L19.126171875 16.122517862592172L18.81328125 16.303165349162832L18.81328125 16.423597006876605L19.126171875 16.60424449344727L19.439062500000002 16.423597006876605L19.439062500000002 16.303165349162832L19.126171875 16.122517862592172" stroke-width="0.03" stroke="#000000" fill="none"/>
<path d="M19.334765625 16.0020862048784L19.334765625 15.761222889450853L21.212109374999997 14.67733797002689L22.672265625 15.520359574023306L22.672265625 15.761222889450853L20.794921875 16.845107808874815L19.334765625 16.0020862048784" stroke-width="0.03" stroke="#000000" fill="none"/>
<path d="M19.543359374999998 16.122517862592172L19.543359374999998 17.08597112430236" stroke-width="0.03" stroke="#000000" fill="none"/>
<path d="M19.751953125 17.206402782016134L19.85625 17.146186953159244L19.85625 16.303165349162832" stroke-width="0.03" stroke="#000000" fill="none"/>
<path d="M19.439062500000002 16.303165349162832L19.126171875 16.483812835733495L19.126171875 16.60424449344727" stroke-width="0.03" stroke="#000000" fill="none"/>
<path d="M19.126171875 16.483812835733495L18.81328125 16.303165349162832" stroke-width="0.03" stroke="#000000" fill="none"/>
<path d="M18.917578125000002 16.483812835733495L18.708984375 16.60424449344727" stroke-width="0.03" stroke="#000000" fill="none"/>
<path d="M18.81328125 16.66446032230415L18.81328125 16.54402866459038" stroke-width="0.03" stroke="#000000" fill="none"/>
<path d="M18.917578125000002 16.483812835733495L18.917578125000002 16.72467615116104" stroke-width="0.03" stroke="#000000" fill="none"/>
<path d="M18.083203125 16.24294952030595L17.874609375000002 16.36338117801972L17.040234375 15.881654547164626" stroke-width="0.03" stroke="#000000" fill="none"/>
<path d="M17.040234375 15.640791231737078L17.874609375000002 16.122517862592172L19.126171875 15.399927916309531" stroke-width="0.03" stroke="#000000" fill="none"/>
<path d="M19.334765625 15.761222889450853L20.794921875 16.60424449344727L20.794921875 16.845107808874815" stroke-width="0.03" stroke="#000000" fill="none"/>
<path d="M20.586328125 16.72467615116104L20.2734375 16.905323637731698L20.2734375 16.54402866459038" stroke-width="0.03" stroke="#000000" fill="none"/>
<path d="M20.2734375 16.905323637731698L20.586328125 17.08597112430236L20.586328125 17.688129412871227L21.107812499999998 17.989208557155663L21.107812499999998 18.350503530296983L21.420703125 18.531151016867643" stroke-width="0.03" stroke="#000000" fill="none"/>
<path d="M21.107812499999998 18.350503530296983L21.420703125 18.16985604372632" stroke-width="0.03" stroke="#000000" fill="none"/>
<path d="M21.420703125 17.928992728298773L23.298046874999997 16.845107808874815L23.506640625 16.965539466588588L23.506640625 18.651582674581416L21.629296875 19.735467594005378L21.420703125 19.615035936291605L21.420703125 17.928992728298773L21.629296875 18.049424386012547L24.4453125 16.423597006876605L25.592578125 17.08597112430236L24.758203125 17.567697755157454" stroke-width="0.03" stroke="#000000" fill="none"/>
<path d="M24.8625 17.62791358401434L23.506640625 18.410719359153866" stroke-width="0.03" stroke="#000000" fill="none"/>
<path d="M23.193749999999998 18.832230161152076L23.193749999999998 19.193525134293395L23.40234375 19.073093476579622L23.610937500000002 19.193525134293395L23.610937500000002 20.156978396003588L22.359375 20.879568342286227L21.837890625 20.57848919800179L21.837890625 20.096762567146698L21.212109374999997 19.735467594005378L20.89921875 19.916115080576038L20.794921875 19.85589925171915L20.794921875 19.49460427857783L21.107812499999998 19.31395679200717L21.212109374999997 19.37417262086406L21.212109374999997 19.735467594005378" stroke-width="0.03" stroke="#000000" fill="none"/>
<path d="M20.89921875 19.916115080576038L20.89921875 19.554820107434715L21.212109374999997 19.37417262086406" stroke-width="0.03" stroke="#000000" fill="none"/>
<path d="M21.420703125 19.37417262086406L20.586328125 18.892445990008962" stroke-width="0.03" stroke="#000000" fill="none"/>
<path d="M20.586328125 18.651582674581416L20.690625 18.59136684572453L20.690625 18.350503530296983" stroke-width="0.03" stroke="#000000" fill="none"/>
<path d="M20.586328125 18.410719359153866L20.586328125 20.57848919800179L20.377734375 20.698920855715564L20.377734375 21.662374117425752L19.751953125 22.023669090567072L19.647656249999997 21.96345326171019L19.647656249999997 18.23007187258321L16.414453125 16.36338117801972" stroke-width="0.03" stroke="#000000" fill="none"/>
<path d="M16.414453125 16.24294952030595L19.647656249999997 18.109640214869437L19.647656249999997 17.50748192630057L20.482031250000002 17.025755295445475" stroke-width="0.03" stroke="#000000" fill="none"/>
<path d="M20.064843749999998 17.26661861087302L19.85625 17.146186953159244" stroke-width="0.03" stroke="#000000" fill="none"/>
<path d="M19.960546875000002 17.326834439729907L18.083203125 16.24294952030595" stroke-width="0.03" stroke="#000000" fill="none"/>
<path d="M17.874609375000002 16.36338117801972L17.874609375000002 16.122517862592172" stroke-width="0.03" stroke="#000000" fill="none"/>
<path d="M19.543359374999998 15.038632943168212L20.794921875 14.31604299688557" stroke-width="0.03" stroke="#000000" fill="none"/>
<path d="M20.586328125 14.67733797002689L20.89921875 14.85798545659755" stroke-width="0.03" stroke="#000000" fill="none"/>
<path d="M21.420703125 14.797769627740664L22.7765625 14.014963852601136L22.7765625 15.21928042973887L22.463671875 15.399927916309531" stroke-width="0.03" stroke="#000000" fill="none"/>
<path d="M22.567968750000002 15.82143871830774L22.567968750000002 16.062302033735286L22.046484375000002 16.36338117801972L22.046484375000002 16.845107808874815L22.463671875 17.08597112430236L22.98515625 16.784891980017925L23.193749999999998 16.905323637731698" stroke-width="0.03" stroke="#000000" fill="none"/>
<path d="M23.506640625 17.206402782016134L23.819531249999997 17.025755295445475L24.8625 17.62791358401434L24.8625 21.481726630855093L26.322656249999998 20.63870502685868L26.218359375 20.57848919800179L25.592578125 20.939784171143113L25.383984374999997 20.819352513429337L25.383984374999997 19.615035936291605L25.48828125 19.554820107434715L25.48828125 19.67525176514849L25.383984374999997 19.735467594005378L24.8625 19.434388449720945" stroke-width="0.03" stroke="#000000" fill="none"/>
<path d="M24.8625 19.31395679200717L25.383984374999997 19.615035936291605" stroke-width="0.03" stroke="#000000" fill="none"/>
<path d="M25.383984374999997 19.49460427857783L25.383984374999997 17.808561070585L27.7828125 16.423597006876605L27.99140625 16.54402866459038L27.99140625 23.047338181134148L26.322656249999998 24.010791442844337" stroke-width="0.03" stroke="#000000" fill="none"/>
<path d="M26.322656249999998 24.492518073699433L26.9484375 24.13122310055811L26.844140625 24.071007271701223L27.678515625 23.58928064084613L27.678515625 24.432302244842543L26.9484375 24.85381304684075" stroke-width="0.03" stroke="#000000" fill="none"/>
<path d="M26.9484375 24.974244704554525L27.15703125 25.0946763622683L27.15703125 25.937697966264714L26.9484375 26.058129623978488" stroke-width="0.03" stroke="#000000" fill="none"/>
<path d="M26.9484375 25.215108019982072L27.15703125 25.0946763622683" stroke-width="0.03" stroke="#000000" fill="none"/>
<path d="M26.9484375 24.13122310055811L26.9484375 27.26244620111622L26.322656249999998 27.623741174257542L26.322656249999998 28.346331120540185L23.610937500000002 29.91194267081924L23.506640625 29.851726841962353L23.506640625 30.815180103672542L24.23671875 30.393669301674333L24.23671875 29.550647697677917" stroke-width="0.03" stroke="#000000" fill="none"/>
<path d="M24.341015624999997 29.490431868821034L24.549609375 29.610863526534803L25.279687499999998 29.189352724536597L25.279687499999998 28.94848940910905" stroke-width="0.03" stroke="#000000" fill="none"/>
<path d="M24.549609375 29.37000021110726L24.549609375 29.610863526534803" stroke-width="0.03" stroke="#000000" fill="none"/>
<path d="M23.610937500000002 29.91194267081924L23.610937500000002 29.189352724536597L20.2734375 31.11625924795697L20.169140624999997 31.056043419100085L20.169140624999997 30.333453472817446L19.960546875000002 30.21302181510367L18.917578125000002 30.815180103672542L18.917578125000002 30.935611761386316L18.81328125 30.87539593252943L17.353125 31.71841753652584L17.353125 34.48834566394263L17.56171875 34.608777321656405L23.193749999999998 31.35712256338452L23.193749999999998 29.430216039964147" stroke-width="0.03" stroke="#000000" fill="none"/>
<path d="M23.193749999999998 30.63453261710188L23.506640625 30.815180103672542" stroke-width="0.03" stroke="#000000" fill="none"/>
<path d="M20.2734375 31.11625924795697L20.2734375 29.430216039964147L16.9359375 31.35712256338452L15.89296875 30.754964274815652L15.89296875 30.393669301674333" stroke-width="0.03" stroke="#000000" fill="none"/>
<path d="M15.684375 30.514100959388106L17.14453125 29.67107935539169L17.14453125 27.50330951654377L16.9359375 27.382877858829996L15.47578125 28.22589946282641L15.47578125 30.393669301674333L15.684375 30.514100959388106" stroke-width="0.03" stroke="#000000" fill="none"/>
<path d="M15.47578125 30.273237643960556L15.267187499999999 30.152805986246786L15.267187499999999 29.550647697677917L14.85 29.30978438225037L14.4328125 29.550647697677917L14.4328125 30.152805986246786L14.224218749999999 30.273237643960556" stroke-width="0.03" stroke="#000000" fill="none"/>
<path d="M14.224218749999999 30.393669301674333L14.015625 30.514100959388106L12.555468750000001 29.67107935539169L12.555468750000001 27.50330951654377L12.7640625 27.382877858829996L14.224218749999999 28.22589946282641L14.224218749999999 30.393669301674333" stroke-width="0.03" stroke="#000000" fill="none"/>
<path d="M13.80703125 30.393669301674333L13.80703125 30.754964274815652L12.7640625 31.35712256338452L9.4265625 29.430216039964147L9.4265625 31.11625924795697L9.530859375 31.056043419100085L9.530859375 30.333453472817446L9.739453124999999 30.21302181510367L10.782421874999999 30.815180103672542L10.782421874999999 30.935611761386316L10.88671875 30.87539593252943L12.346874999999999 31.71841753652584L12.346874999999999 34.48834566394263L12.138281249999999 34.608777321656405L6.5062500000000005 31.35712256338452L6.5062500000000005 29.430216039964147" stroke-width="0.03" stroke="#000000" fill="none"/>
<path d="M6.089062499999999 29.189352724536597L6.089062499999999 29.91194267081924L6.193359375 29.851726841962353L6.193359375 30.815180103672542L5.46328125 30.393669301674333L5.46328125 29.550647697677917" stroke-width="0.03" stroke="#000000" fill="none"/>
<path d="M5.3589843749999995 29.490431868821034L5.150390625 29.610863526534803L4.4203125 29.189352724536597L4.4203125 28.94848940910905" stroke-width="0.03" stroke="#000000" fill="none"/>
<path d="M5.150390625 29.37000021110726L5.150390625 29.610863526534803" stroke-width="0.03" stroke="#000000" fill="none"/>
<path d="M6.089062499999999 29.91194267081924L3.3773437500000005 28.346331120540185L3.3773437500000005 27.623741174257542L2.7515624999999995 27.26244620111622L2.7515624999999995 24.13122310055811L2.8558593750000005 24.071007271701223L2.021484375 23.58928064084613L2.021484375 24.432302244842543L2.7515624999999995 24.85381304684075" stroke-width="0.03" stroke="#000000" fill="none"/>
<path d="M2.7515624999999995 24.974244704554525L2.54296875 25.0946763622683L2.54296875 25.937697966264714L2.7515624999999995 26.058129623978488" stroke-width="0.03" stroke="#000000" fill="none"/>
<path d="M2.7515624999999995 25.215108019982072L2.54296875 25.0946763622683" stroke-width="0.03" stroke="#000000" fill="none"/>
<path d="M2.7515624999999995 24.13122310055811L3.3773437500000005 24.492518073699433" stroke-width="0.03" stroke="#000000" fill="none"/>
<path d="M2.3343750000000005 23.40863315427547L2.021484375 23.58928064084613" stroke-width="0.03" stroke="#000000" fill="none"/>
<path d="M4.4203125 20.879568342286227L4.4203125 20.156978396003588L4.8374999999999995 19.916115080576038" stroke-width="0.03" stroke="#000000" fill="none"/>
<path d="M4.8374999999999995 20.156978396003588L4.62890625 20.277410053717357L4.3160156249999995 20.096762567146698" stroke-width="0.03" stroke="#000000" fill="none"/>
<path d="M4.3160156249999995 19.735467594005378L4.8374999999999995 19.434388449720945" stroke-width="0.03" stroke="#000000" fill="none"/>
<path d="M4.8374999999999995 19.31395679200717L4.3160156249999995 19.615035936291605" stroke-width="0.03" stroke="#000000" fill="none"/>
<path d="M4.211718750000001 19.67525176514849L4.211718750000001 19.554820107434715" stroke-width="0.03" stroke="#000000" fill="none"/>
<path d="M4.211718750000001 19.67525176514849L4.3160156249999995 19.735467594005378" stroke-width="0.03" stroke="#000000" fill="none"/>
<path d="M4.62890625 20.277410053717357L4.62890625 21L4.4203125 20.879568342286227" stroke-width="0.03" stroke="#000000" fill="none"/>
<path d="M4.62890625 21L4.8374999999999995 20.879568342286227" stroke-width="0.03" stroke="#000000" fill="none"/>
<path d="M4.8374999999999995 21.120431657713773L5.046093749999999 21L6.5062500000000005 21.843021603996412L6.610546875 21.782805775139526" stroke-width="0.03" stroke="#000000" fill="none"/>
<path d="M6.5062500000000005 21.843021603996412L6.5062500000000005 21.481726630855093L6.610546875 21.54194245971198" stroke-width="0.03" stroke="#000000" fill="none"/>
<path d="M6.610546875 21.42151080199821L6.819140625 21.301079144284433L9.948046875 23.107554009991038L9.948046875 23.468848983132357L10.260937499999999 23.649496469703017L10.260937499999999 24.010791442844337L10.573828124999999 24.191438929414996L10.573828124999999 27.804388660828202L10.365234375 27.92482031854198L9.739453124999999 27.563525345400656L9.739453124999999 29.610863526534803L9.948046875 29.490431868821034L9.948046875 27.804388660828202L10.05234375 27.744172831971316" stroke-width="0.03" stroke="#000000" fill="none"/>
<path d="M9.948046875 27.804388660828202L10.260937499999999 27.985036147398862L10.260937499999999 27.864604489685092" stroke-width="0.03" stroke="#000000" fill="none"/>
<path d="M10.365234375 27.92482031854198L10.365234375 24.311870587128773L10.573828124999999 24.191438929414996" stroke-width="0.03" stroke="#000000" fill="none"/>
<path d="M10.365234375 24.311870587128773L9.739453124999999 23.95057561398745L9.739453124999999 23.227985667704807L6.610546875 21.42151080199821L6.610546875 22.14410074828085L4.8374999999999995 21.120431657713773" stroke-width="0.03" stroke="#000000" fill="none"/>
<path d="M6.089062499999999 20.156978396003588L6.089062499999999 19.193525134293395L6.297656249999999 19.073093476579622L6.5062500000000005 19.193525134293395L6.714843749999999 19.073093476579622L6.714843749999999 18.95266181886585" stroke-width="0.03" stroke="#000000" fill="none"/>
<path d="M6.714843749999999 19.073093476579622L7.4449218749999995 19.49460427857783L7.5492187500000005 19.434388449720945" stroke-width="0.03" stroke="#000000" fill="none"/>
<path d="M7.4449218749999995 19.37417262086406L7.4449218749999995 19.49460427857783" stroke-width="0.03" stroke="#000000" fill="none"/>
<path d="M7.340624999999999 19.916115080576038L7.862109374999999 19.615035936291605" stroke-width="0.03" stroke="#000000" fill="none"/>
<path d="M8.070703124999998 19.735467594005378L8.070703124999998 18.049424386012547" stroke-width="0.03" stroke="#000000" fill="none"/>
<path d="M8.5921875 18.109640214869437L9.4265625 18.59136684572453" stroke-width="0.03" stroke="#000000" fill="none"/>
<path d="M9.4265625 18.470935188010756L9.948046875 18.16985604372632L9.948046875 17.567697755157454" stroke-width="0.03" stroke="#000000" fill="none"/>
<path d="M9.948046875 18.16985604372632L8.070703124999998 17.08597112430236" stroke-width="0.03" stroke="#000000" fill="none"/>
<path d="M7.96640625 17.025755295445475L7.340624999999999 17.387050268586794" stroke-width="0.03" stroke="#000000" fill="none"/>
<path d="M7.236328125 17.08597112430236L7.236328125 16.72467615116104L7.340624999999999 16.66446032230415L7.340624999999999 16.54402866459038L4.4203125 14.85798545659755L4.4203125 14.978417114311325L4.3160156249999995 15.038632943168212L4.3160156249999995 16.60424449344727" stroke-width="0.03" stroke="#000000" fill="none"/>
<path d="M4.3160156249999995 16.24294952030595L3.5859375 16.66446032230415L3.1687499999999984 16.423597006876605L3.1687499999999984 15.94187037602151" stroke-width="0.03" stroke="#000000" fill="none"/>
<path d="M2.7515624999999995 16.18273369144906L4.3160156249999995 15.279496258595758" stroke-width="0.03" stroke="#000000" fill="none"/>
<path d="M4.3160156249999995 15.038632943168212L7.236328125 16.72467615116104" stroke-width="0.03" stroke="#000000" fill="none"/>
<path d="M7.340624999999999 16.66446032230415L4.211718750000001 14.85798545659755L4.211718750000001 14.617122141170004" stroke-width="0.03" stroke="#000000" fill="none"/>
<path d="M4.211718750000001 14.85798545659755L4.003124999999999 14.978417114311325" stroke-width="0.03" stroke="#000000" fill="none"/>
<path d="M4.003124999999999 14.737553798883777L4.62890625 14.376258825742458" stroke-width="0.03" stroke="#000000" fill="none"/>
<path d="M4.62890625 14.737553798883777L4.62890625 12.931078933177174L4.4203125 12.8106472754634L2.7515624999999995 13.77410053717359L2.7515624999999995 14.014963852601136L2.54296875 14.13539551031491L2.54296875 16.062302033735286L2.7515624999999995 16.18273369144906L2.7515624999999995 14.255827168028683L2.54296875 14.13539551031491" stroke-width="0.03" stroke="#000000" fill="none"/>
<path d="M2.7515624999999995 14.255827168028683L2.960156250000001 14.13539551031491L2.960156250000001 13.894532194887363L4.62890625 12.931078933177174" stroke-width="0.03" stroke="#000000" fill="none"/>
<path d="M5.046093749999999 13.171942248604722L4.62890625 13.412805564032269" stroke-width="0.03" stroke="#000000" fill="none"/>
<path d="M5.046093749999999 13.171942248604722L5.46328125 13.412805564032269L5.46328125 14.255827168028683" stroke-width="0.03" stroke="#000000" fill="none"/>
<path d="M5.776171874999998 14.31604299688557L5.776171874999998 13.834316366030475L6.5062500000000005 13.412805564032269L7.236328125 13.834316366030475" stroke-width="0.03" stroke="#000000" fill="none"/>
<path d="M7.4449218749999995 13.713884708316701L6.9234374999999995 13.412805564032269" stroke-width="0.03" stroke="#000000" fill="none"/>
<path d="M6.819140625 13.473021392889155L6.819140625 13.232158077461609" stroke-width="0.03" stroke="#000000" fill="none"/>
<path d="M7.340624999999999 13.171942248604722L7.862109374999999 13.473021392889155" stroke-width="0.03" stroke="#000000" fill="none"/>
<path d="M8.38359375 13.171942248604722L8.38359375 12.569783960035853" stroke-width="0.03" stroke="#000000" fill="none"/>
<path d="M8.279296875 12.509568131178968L8.38359375 12.44935230232208L8.487890625 12.509568131178968L8.487890625 13.111726419747836" stroke-width="0.03" stroke="#000000" fill="none"/>
<path d="M8.80078125 11.245035725184344L10.260937499999999 12.08805732918076" stroke-width="0.03" stroke="#000000" fill="none"/>
<path d="M11.095312499999999 13.653668879459815L11.095312499999999 13.894532194887363L14.224218749999999 15.701007060593964L14.537109375 15.520359574023306L14.85 15.701007060593964L15.162890625 15.520359574023306L15.47578125 15.701007060593964L18.6046875 13.894532194887363L18.6046875 13.653668879459815L17.978906249999998 13.292373906318495L19.751953125 12.26870481575142L19.751953125 12.509568131178968L18.291796875 13.352589735175382L18.291796875 13.473021392889155" stroke-width="0.03" stroke="#000000" fill="none"/>
<path d="M18.291796875 13.352589735175382L18.6046875 13.533237221746042L18.500390624999998 13.593453050602928" stroke-width="0.03" stroke="#000000" fill="none"/>
<path d="M18.6046875 13.653668879459815L15.47578125 15.460143745166418L14.85 15.098848772025098L14.224218749999999 15.460143745166418L11.095312499999999 13.653668879459815" stroke-width="0.03" stroke="#000000" fill="none"/>
<path d="M10.365234375 13.95474802374425L10.156640625 14.075179681458023" stroke-width="0.03" stroke="#000000" fill="none"/>
<path d="M10.365234375 13.95474802374425L10.365234375 14.195611339171796" stroke-width="0.03" stroke="#000000" fill="none"/>
<path d="M10.365234375 13.95474802374425L14.745703124999999 16.483812835733495" stroke-width="0.03" stroke="#000000" fill="none"/>
<path d="M14.85 16.423597006876605L14.954296875 16.483812835733495L14.954296875 16.72467615116104" stroke-width="0.03" stroke="#000000" fill="none"/>
<path d="M14.954296875 16.483812835733495L19.334765625 13.95474802374425L19.543359374999998 14.075179681458023" stroke-width="0.03" stroke="#000000" fill="none"/>
<path d="M19.334765625 13.95474802374425L19.334765625 14.195611339171796" stroke-width="0.03" stroke="#000000" fill="none"/>
<path d="M20.586328125 12.750431446606514L20.586328125 12.509568131178968L20.89921875 12.328920644608306" stroke-width="0.03" stroke="#000000" fill="none"/>
<path d="M20.794921875 12.389136473465193L20.794921875 12.87086310432029" stroke-width="0.03" stroke="#000000" fill="none"/>
<path d="M20.586328125 12.509568131178968L19.960546875000002 12.148273158037647L20.169140624999997 12.027841500323873L20.794921875 12.389136473465193" stroke-width="0.03" stroke="#000000" fill="none"/>
<path d="M21.212109374999997 12.509568131178968L21.31640625 12.44935230232208L21.420703125 12.509568131178968L21.420703125 12.629999788892741L22.880859375 13.473021392889155L25.279687499999998 12.08805732918076L25.279687499999998 11.847194013753214L19.647656249999997 8.595539255481327L17.978906249999998 9.558992517191516" stroke-width="0.03" stroke="#000000" fill="none"/>
<path d="M17.56171875 9.31812920176397L18.1875 8.956834228622649L15.47578125 7.391222678343594L14.85 7.752517651484913L14.224218749999999 7.391222678343594L11.512500000000001 8.956834228622649L11.512500000000001 9.077265886336422L10.678125 8.595539255481327L10.678125 8.956834228622649" stroke-width="0.03" stroke="#000000" fill="none"/>
<path d="M10.678125 8.595539255481327L11.408203125 8.174028453483121L12.138281249999999 8.595539255481327" stroke-width="0.03" stroke="#000000" fill="none"/>
<path d="M12.242578125 8.53532342662444L12.242578125 8.294460111196894L12.97265625 7.872949309198687L13.181249999999999 7.9933809669124605" stroke-width="0.03" stroke="#000000" fill="none"/>
<path d="M12.451171875 8.414891768910667L12.242578125 8.294460111196894" stroke-width="0.03" stroke="#000000" fill="none"/>
<path d="M11.512500000000001 8.956834228622649L12.138281249999999 9.31812920176397" stroke-width="0.03" stroke="#000000" fill="none"/>
<path d="M14.328515625 11.184819896327458L14.85 10.883740752043025L15.371484375 11.184819896327458L15.267187499999999 11.245035725184344L14.85 11.004172409756798L14.4328125 11.245035725184344L14.328515625 11.184819896327458" stroke-width="0.03" stroke="#000000" fill="none"/>
<path d="M14.85 11.004172409756798L14.85 10.883740752043025" stroke-width="0.03" stroke="#000000" fill="none"/>
<path d="M17.56171875 9.31812920176397L20.89921875 11.245035725184344L20.89921875 11.365467382898117L20.2734375 11.72676235603944L20.2734375 11.967625671466987L21.31640625 12.569783960035853L21.420703125 12.509568131178968" stroke-width="0.03" stroke="#000000" fill="none"/>
<path d="M21.31640625 12.569783960035853L21.31640625 13.171942248604722" stroke-width="0.03" stroke="#000000" fill="none"/>
<path d="M21.212109374999997 13.111726419747836L21.212109374999997 12.509568131178968" stroke-width="0.03" stroke="#000000" fill="none"/>
<path d="M21.837890625 13.473021392889155L22.359375 13.171942248604722" stroke-width="0.03" stroke="#000000" fill="none"/>
<path d="M22.7765625 13.412805564032269L22.255078124999997 13.713884708316701" stroke-width="0.03" stroke="#000000" fill="none"/>
<path d="M22.463671875 13.834316366030475L23.193749999999998 13.412805564032269L23.923828125000004 13.834316366030475L23.923828125000004 14.31604299688557L23.610937500000002 14.49669048345623" stroke-width="0.03" stroke="#000000" fill="none"/>
<path d="M23.610937500000002 14.014963852601136L23.923828125000004 13.834316366030475" stroke-width="0.03" stroke="#000000" fill="none"/>
<path d="M23.923828125000004 13.95474802374425L24.23671875 13.77410053717359" stroke-width="0.03" stroke="#000000" fill="none"/>
<path d="M24.23671875 13.653668879459815L23.819531249999997 13.412805564032269" stroke-width="0.03" stroke="#000000" fill="none"/>
<path d="M23.610937500000002 13.653668879459815L22.7765625 14.13539551031491" stroke-width="0.03" stroke="#000000" fill="none"/>
<path d="M22.7765625 14.014963852601136L19.439062500000002 12.08805732918076L20.89921875 11.245035725184344" stroke-width="0.03" stroke="#000000" fill="none"/>
<path d="M20.2734375 11.72676235603944L22.880859375 13.232158077461609L22.880859375 13.473021392889155" stroke-width="0.03" stroke="#000000" fill="none"/>
<path d="M22.880859375 13.232158077461609L25.279687499999998 11.847194013753214" stroke-width="0.03" stroke="#000000" fill="none"/>
<path d="M25.279687499999998 12.8106472754634L25.07109375 12.931078933177174L25.07109375 14.737553798883777" stroke-width="0.03" stroke="#000000" fill="none"/>
<path d="M25.279687499999998 14.85798545659755L22.359375 16.54402866459038L22.359375 16.66446032230415L22.463671875 16.72467615116104L22.463671875 17.08597112430236" stroke-width="0.03" stroke="#000000" fill="none"/>
<path d="M22.359375 17.387050268586794L21.733593749999997 17.025755295445475L21.733593749999997 16.303165349162832" stroke-width="0.03" stroke="#000000" fill="none"/>
<path d="M21.629296875 16.483812835733495L19.751953125 17.567697755157454L19.647656249999997 17.50748192630057" stroke-width="0.03" stroke="#000000" fill="none"/>
<path d="M19.751953125 17.567697755157454L19.751953125 18.16985604372632L20.2734375 18.470935188010756L20.2734375 18.59136684572453L19.751953125 18.290287701440096L19.751953125 22.023669090567072" stroke-width="0.03" stroke="#000000" fill="none"/>
<path d="M19.647656249999997 21.481726630855093L18.708984375 22.023669090567072" stroke-width="0.03" stroke="#000000" fill="none"/>
<path d="M18.6046875 21.96345326171019L18.81328125 22.08388491942396L18.81328125 22.926906523420374L18.6046875 23.047338181134148L18.6046875 23.167769838847924L18.81328125 23.288201496561694L18.708984375 23.348417325418584L18.708984375 28.40654694939707L18.500390624999998 28.526978607110845" stroke-width="0.03" stroke="#000000" fill="none"/>
<path d="M18.708984375 28.40654694939707L18.500390624999998 28.286115291683295" stroke-width="0.03" stroke="#000000" fill="none"/>
<path d="M18.500390624999998 27.563525345400656L17.666015625 28.04525197625575L17.14453125 27.744172831971316" stroke-width="0.03" stroke="#000000" fill="none"/>
<path d="M17.14453125 27.50330951654377L15.684375 28.346331120540185L15.684375 31.597985878812068L16.831640625 32.260359996237824L16.831640625 31.296906734527635" stroke-width="0.03" stroke="#000000" fill="none"/>
<path d="M16.9359375 31.35712256338452L16.9359375 29.791511013105463" stroke-width="0.03" stroke="#000000" fill="none"/>
<path d="M17.14453125 29.30978438225037L17.457421875 29.12913689567971L17.457421875 29.37000021110726L17.666015625 29.490431868821034L18.500390624999998 29.008705237965938L18.500390624999998 27.563525345400656L17.978906249999998 27.26244620111622L17.56171875 27.50330951654377L16.9359375 27.142014543402446L16.9359375 26.780719570261127L16.831640625 26.72050374140424L16.51875 26.901151227974903L16.51875 27.26244620111622L16.623046875 27.322662029973106L16.9359375 27.142014543402446" stroke-width="0.03" stroke="#000000" fill="none"/>
<path d="M16.9359375 26.780719570261127L16.623046875 26.96136705683179L16.623046875 27.322662029973106" stroke-width="0.03" stroke="#000000" fill="none"/>
<path d="M16.72734375 27.50330951654377L15.89296875 27.021582885688677" stroke-width="0.03" stroke="#000000" fill="none"/>
<path d="M15.684375 27.142014543402446L15.684375 27.26244620111622L15.47578125 27.382877858829996" stroke-width="0.03" stroke="#000000" fill="none"/>
<path d="M15.47578125 27.26244620111622L17.353125 26.17856128169226L17.353125 25.937697966264714L18.1875 25.45597133540962L18.396093750000002 25.576402993123395L18.396093750000002 27.50330951654377" stroke-width="0.03" stroke="#000000" fill="none"/>
<path d="M19.126171875 27.804388660828202L19.126171875 24.191438929414996L19.439062500000002 24.010791442844337L19.439062500000002 23.649496469703017L19.751953125 23.468848983132357L19.751953125 23.107554009991038L22.880859375 21.301079144284433L23.089453125000002 21.42151080199821L23.089453125000002 22.14410074828085L24.8625 21.120431657713773L24.653906250000002 21L23.193749999999998 21.843021603996412L23.089453125000002 21.782805775139526" stroke-width="0.03" stroke="#000000" fill="none"/>
<path d="M23.193749999999998 21.843021603996412L23.193749999999998 21.481726630855093L23.089453125000002 21.54194245971198" stroke-width="0.03" stroke="#000000" fill="none"/>
<path d="M23.089453125000002 21.42151080199821L19.960546875000002 23.227985667704807L19.751953125 23.107554009991038" stroke-width="0.03" stroke="#000000" fill="none"/>
<path d="M19.960546875000002 23.227985667704807L19.960546875000002 23.95057561398745L19.334765625 24.311870587128773L19.334765625 27.92482031854198L19.960546875000002 27.563525345400656L19.960546875000002 29.610863526534803L19.751953125 29.490431868821034L19.751953125 27.804388660828202L19.647656249999997 27.744172831971316" stroke-width="0.03" stroke="#000000" fill="none"/>
<path d="M19.751953125 27.804388660828202L19.439062500000002 27.985036147398862L19.439062500000002 27.864604489685092" stroke-width="0.03" stroke="#000000" fill="none"/>
<path d="M19.334765625 27.92482031854198L19.126171875 27.804388660828202" stroke-width="0.03" stroke="#000000" fill="none"/>
<path d="M17.666015625 28.04525197625575L17.666015625 29.490431868821034" stroke-width="0.03" stroke="#000000" fill="none"/>
<path d="M17.457421875 29.12913689567971L17.248828125 29.008705237965938L17.14453125 29.068921066822824" stroke-width="0.03" stroke="#000000" fill="none"/>
<path d="M17.248828125 29.008705237965938L17.248828125 28.165683633969522L17.14453125 28.105467805112635" stroke-width="0.03" stroke="#000000" fill="none"/>
<path d="M17.248828125 28.165683633969522L17.14453125 28.22589946282641" stroke-width="0.03" stroke="#000000" fill="none"/>
<path d="M17.56171875 27.50330951654377L17.56171875 26.058129623978488L18.396093750000002 25.576402993123395" stroke-width="0.03" stroke="#000000" fill="none"/>
<path d="M18.1875 25.45597133540962L18.1875 24.73338138912698L18.083203125 24.673165560270093L14.85 26.53985625483358L11.616796874999999 24.673165560270093L11.512500000000001 24.73338138912698L11.512500000000001 25.45597133540962L12.346874999999999 25.937697966264714L12.346874999999999 26.17856128169226L14.224218749999999 27.26244620111622" stroke-width="0.03" stroke="#000000" fill="none"/>
<path d="M14.224218749999999 27.382877858829996L14.015625 27.26244620111622L14.015625 27.142014543402446" stroke-width="0.03" stroke="#000000" fill="none"/>
<path d="M14.015625 27.26244620111622L13.285546875 27.68395700311443" stroke-width="0.03" stroke="#000000" fill="none"/>
<path d="M12.97265625 27.50330951654377L13.80703125 27.021582885688677" stroke-width="0.03" stroke="#000000" fill="none"/>
<path d="M14.224218749999999 26.901151227974903L14.745703124999999 26.600072083690467L11.512500000000001 24.73338138912698" stroke-width="0.03" stroke="#000000" fill="none"/>
<path d="M12.033984375000001 24.914028875697635L12.033984375000001 23.830143956273677" stroke-width="0.03" stroke="#000000" fill="none"/>
<path d="M12.138281249999999 23.76992812741679L11.9296875 23.890359785130563L11.199609375 23.468848983132357L11.199609375 23.227985667704807L11.095312499999999 23.167769838847924L10.88671875 23.288201496561694L10.88671875 23.167769838847924L11.095312499999999 23.047338181134148L10.88671875 22.926906523420374L10.88671875 22.08388491942396L11.095312499999999 21.96345326171019" stroke-width="0.03" stroke="#000000" fill="none"/>
<path d="M10.991015625000001 22.023669090567072L10.05234375 21.481726630855093" stroke-width="0.03" stroke="#000000" fill="none"/>
<path d="M9.948046875 22.023669090567072L9.322265625 21.662374117425752L9.113671875 21.782805775139526L7.4449218749999995 20.819352513429337" stroke-width="0.03" stroke="#000000" fill="none"/>
<path d="M7.340624999999999 20.879568342286227L7.862109374999999 20.57848919800179L7.862109374999999 20.096762567146698L8.487890625 19.735467594005378L8.80078125 19.916115080576038L8.905078125 19.85589925171915L8.905078125 19.49460427857783L8.5921875 19.31395679200717L8.487890625 19.37417262086406L8.487890625 19.735467594005378" stroke-width="0.03" stroke="#000000" fill="none"/>
<path d="M8.487890625 19.37417262086406L8.80078125 19.554820107434715L8.905078125 19.49460427857783" stroke-width="0.03" stroke="#000000" fill="none"/>
<path d="M8.80078125 19.554820107434715L8.80078125 19.916115080576038" stroke-width="0.03" stroke="#000000" fill="none"/>
<path d="M8.905078125 19.735467594005378L9.113671875 19.615035936291605" stroke-width="0.03" stroke="#000000" fill="none"/>
<path d="M9.113671875 19.735467594005378L9.009374999999999 19.795683422862265" stroke-width="0.03" stroke="#000000" fill="none"/>
<path d="M8.905078125 19.735467594005378L9.113671875 19.85589925171915" stroke-width="0.03" stroke="#000000" fill="none"/>
<path d="M9.113671875 20.57848919800179L9.113671875 18.410719359153866" stroke-width="0.03" stroke="#000000" fill="none"/>
<path d="M9.009374999999999 18.350503530296983L9.009374999999999 18.59136684572453L8.279296875 19.01287764772274" stroke-width="0.03" stroke="#000000" fill="none"/>
<path d="M8.279296875 19.37417262086406L9.113671875 18.892445990008962" stroke-width="0.03" stroke="#000000" fill="none"/>
<path d="M9.113671875 18.651582674581416L9.009374999999999 18.59136684572453" stroke-width="0.03" stroke="#000000" fill="none"/>
<path d="M10.05234375 18.59136684572453L12.242578125 19.85589925171915L12.555468750000001 19.67525176514849L12.555468750000001 19.31395679200717L10.365234375 18.049424386012547" stroke-width="0.03" stroke="#000000" fill="none"/>
<path d="M10.05234375 18.23007187258321L12.555468750000001 19.67525176514849" stroke-width="0.03" stroke="#000000" fill="none"/>
<path d="M12.242578125 19.85589925171915L12.242578125 22.50539572142217L14.537109375 23.830143956273677L14.85 23.649496469703017L15.162890625 23.830143956273677L17.457421875 22.50539572142217L17.457421875 19.85589925171915L19.647656249999997 18.59136684572453" stroke-width="0.03" stroke="#000000" fill="none"/>
<path d="M19.647656249999997 18.23007187258321L17.14453125 19.67525176514849L17.14453125 19.31395679200717L19.334765625 18.049424386012547" stroke-width="0.03" stroke="#000000" fill="none"/>
<path d="M19.751953125 18.16985604372632L21.629296875 17.08597112430236L22.150781249999998 17.387050268586794L22.150781249999998 17.50748192630057" stroke-width="0.03" stroke="#000000" fill="none"/>
<path d="M22.150781249999998 17.387050268586794L20.2734375 18.470935188010756" stroke-width="0.03" stroke="#000000" fill="none"/>
<path d="M20.2734375 18.59136684572453L21.107812499999998 18.109640214869437" stroke-width="0.03" stroke="#000000" fill="none"/>
<path d="M21.629296875 18.049424386012547L21.629296875 19.735467594005378" stroke-width="0.03" stroke="#000000" fill="none"/>
<path d="M21.837890625 19.615035936291605L22.359375 19.916115080576038L23.610937500000002 19.193525134293395" stroke-width="0.03" stroke="#000000" fill="none"/>
<path d="M23.193749999999998 19.193525134293395L22.98515625 19.073093476579622L22.98515625 18.95266181886585" stroke-width="0.03" stroke="#000000" fill="none"/>
<path d="M22.98515625 19.073093476579622L22.255078124999997 19.49460427857783L22.150781249999998 19.434388449720945" stroke-width="0.03" stroke="#000000" fill="none"/>
<path d="M22.255078124999997 19.37417262086406L22.255078124999997 19.49460427857783" stroke-width="0.03" stroke="#000000" fill="none"/>
<path d="M22.359375 19.916115080576038L22.359375 20.879568342286227" stroke-width="0.03" stroke="#000000" fill="none"/>
<path d="M22.255078124999997 20.819352513429337L20.586328125 21.782805775139526L20.377734375 21.662374117425752" stroke-width="0.03" stroke="#000000" fill="none"/>
<path d="M20.586328125 21.782805775139526L20.586328125 20.819352513429337L21.837890625 20.096762567146698" stroke-width="0.03" stroke="#000000" fill="none"/>
<path d="M20.89921875 19.554820107434715L20.794921875 19.49460427857783" stroke-width="0.03" stroke="#000000" fill="none"/>
<path d="M20.586328125 19.615035936291605L20.794921875 19.735467594005378L20.586328125 19.85589925171915" stroke-width="0.03" stroke="#000000" fill="none"/>
<path d="M20.690625 19.795683422862265L20.586328125 19.735467594005378" stroke-width="0.03" stroke="#000000" fill="none"/>
<path d="M20.377734375 20.698920855715564L20.586328125 20.819352513429337" stroke-width="0.03" stroke="#000000" fill="none"/>
<path d="M21.420703125 19.01287764772274L20.690625 18.59136684572453" stroke-width="0.03" stroke="#000000" fill="none"/>
<path d="M21.629296875 17.08597112430236L21.629296875 16.483812835733495L21.525000000000002 16.423597006876605" stroke-width="0.03" stroke="#000000" fill="none"/>
<path d="M22.046484375000002 16.36338117801972L22.359375 16.54402866459038" stroke-width="0.03" stroke="#000000" fill="none"/>
<path d="M22.359375 16.66446032230415L25.48828125 14.85798545659755L25.48828125 14.617122141170004" stroke-width="0.03" stroke="#000000" fill="none"/>
<path d="M25.48828125 14.85798545659755L25.696875000000002 14.978417114311325" stroke-width="0.03" stroke="#000000" fill="none"/>
<path d="M25.696875000000002 14.737553798883777L25.696875000000002 15.460143745166418" stroke-width="0.03" stroke="#000000" fill="none"/>
<path d="M25.383984374999997 15.279496258595758L26.9484375 16.18273369144906L27.15703125 16.062302033735286L27.15703125 14.13539551031491L26.9484375 14.014963852601136L26.73984375 14.13539551031491L26.73984375 13.894532194887363L25.07109375 12.931078933177174" stroke-width="0.03" stroke="#000000" fill="none"/>
<path d="M25.279687499999998 12.8106472754634L26.9484375 13.77410053717359L26.9484375 14.014963852601136" stroke-width="0.03" stroke="#000000" fill="none"/>
<path d="M27.15703125 14.13539551031491L26.9484375 14.255827168028683L26.73984375 14.13539551031491" stroke-width="0.03" stroke="#000000" fill="none"/>
<path d="M26.73984375 13.894532194887363L26.9484375 13.77410053717359" stroke-width="0.03" stroke="#000000" fill="none"/>
<path d="M26.9484375 14.255827168028683L26.9484375 16.18273369144906" stroke-width="0.03" stroke="#000000" fill="none"/>
<path d="M26.53125 16.423597006876605L26.1140625 16.66446032230415L25.383984374999997 16.24294952030595" stroke-width="0.03" stroke="#000000" fill="none"/>
<path d="M25.175390624999995 16.483812835733495L24.8625 16.66446032230415" stroke-width="0.03" stroke="#000000" fill="none"/>
<path d="M25.175390624999995 16.483812835733495L25.592578125 16.72467615116104L25.592578125 17.567697755157454L24.8625 17.989208557155663" stroke-width="0.03" stroke="#000000" fill="none"/>
<path d="M24.8625 18.23007187258321L25.383984374999997 17.928992728298773" stroke-width="0.03" stroke="#000000" fill="none"/>
<path d="M25.383984374999997 17.808561070585L25.592578125 17.928992728298773L27.99140625 16.54402866459038" stroke-width="0.03" stroke="#000000" fill="none"/>
<path d="M26.844140625 16.965539466588588L26.426953124999997 16.72467615116104L25.592578125 17.206402782016134" stroke-width="0.03" stroke="#000000" fill="none"/>
<path d="M25.90546875 17.025755295445475L25.90546875 16.54402866459038" stroke-width="0.03" stroke="#000000" fill="none"/>
<path d="M25.801171875 16.483812835733495L25.48828125 16.66446032230415" stroke-width="0.03" stroke="#000000" fill="none"/>
<path d="M25.383984374999997 16.60424449344727L25.383984374999997 15.038632943168212L25.279687499999998 14.978417114311325L25.279687499999998 14.85798545659755L23.923828125000004 14.075179681458023" stroke-width="0.03" stroke="#000000" fill="none"/>
<path d="M24.23671875 14.255827168028683L24.23671875 13.412805564032269L24.653906250000002 13.171942248604722L25.07109375 13.412805564032269" stroke-width="0.03" stroke="#000000" fill="none"/>
<path d="M25.07109375 13.894532194887363L24.23671875 13.412805564032269" stroke-width="0.03" stroke="#000000" fill="none"/>
<path d="M24.341015624999997 13.111726419747836L23.506640625 13.593453050602928" stroke-width="0.03" stroke="#000000" fill="none"/>
<path d="M23.610937500000002 13.653668879459815L23.610937500000002 14.978417114311325L20.794921875 16.60424449344727" stroke-width="0.03" stroke="#000000" fill="none"/>
<path d="M21.733593749999997 17.025755295445475L22.046484375000002 16.845107808874815" stroke-width="0.03" stroke="#000000" fill="none"/>
<path d="M22.463671875 16.72467615116104L25.383984374999997 15.038632943168212" stroke-width="0.03" stroke="#000000" fill="none"/>
<path d="M25.696875000000002 14.737553798883777L25.07109375 14.376258825742458" stroke-width="0.03" stroke="#000000" fill="none"/>
<path d="M24.341015624999997 13.111726419747836L24.341015624999997 12.629999788892741" stroke-width="0.03" stroke="#000000" fill="none"/>
<path d="M26.1140625 15.701007060593964L26.1140625 16.66446032230415" stroke-width="0.03" stroke="#000000" fill="none"/>
<path d="M26.53125 16.423597006876605L26.53125 15.94187037602151" stroke-width="0.03" stroke="#000000" fill="none"/>
<path d="M25.592578125 16.72467615116104L25.279687499999998 16.905323637731698" stroke-width="0.03" stroke="#000000" fill="none"/>
<path d="M25.592578125 17.928992728298773L25.592578125 20.939784171143113" stroke-width="0.03" stroke="#000000" fill="none"/>
<path d="M25.279687499999998 20.879568342286227L25.07109375 21L24.8625 20.879568342286227" stroke-width="0.03" stroke="#000000" fill="none"/>
<path d="M25.07109375 21L25.07109375 20.277410053717357L25.383984374999997 20.096762567146698" stroke-width="0.03" stroke="#000000" fill="none"/>
<path d="M25.279687499999998 20.156978396003588L25.279687499999998 20.879568342286227" stroke-width="0.03" stroke="#000000" fill="none"/>
<path d="M25.07109375 20.277410053717357L24.8625 20.156978396003588" stroke-width="0.03" stroke="#000000" fill="none"/>
<path d="M24.8625 19.916115080576038L25.279687499999998 20.156978396003588" stroke-width="0.03" stroke="#000000" fill="none"/>
<path d="M25.48828125 19.554820107434715L25.383984374999997 19.49460427857783" stroke-width="0.03" stroke="#000000" fill="none"/>
<path d="M24.8625 18.711798503438303L25.383984374999997 18.410719359153866" stroke-width="0.03" stroke="#000000" fill="none"/>
<path d="M26.322656249999998 20.63870502685868L26.322656249999998 24.492518073699433" stroke-width="0.03" stroke="#000000" fill="none"/>
<path d="M27.365624999999998 23.40863315427547L27.678515625 23.58928064084613" stroke-width="0.03" stroke="#000000" fill="none"/>
<path d="M26.73984375 27.382877858829996L26.73984375 27.50330951654377L26.426953124999997 27.68395700311443L26.426953124999997 28.04525197625575L26.322656249999998 28.105467805112635" stroke-width="0.03" stroke="#000000" fill="none"/>
<path d="M23.610937500000002 26.058129623978488L23.089453125000002 26.359208768262917L23.089453125000002 26.238777110549147L23.506640625 25.9979137951216L23.610937500000002 26.058129623978488L23.610937500000002 25.45597133540962L23.506640625 25.51618716426651L23.506640625 25.9979137951216" stroke-width="0.03" stroke="#000000" fill="none"/>
<path d="M19.960546875000002 23.95057561398745L19.439062500000002 23.649496469703017" stroke-width="0.03" stroke="#000000" fill="none"/>
<path d="M19.126171875 24.191438929414996L19.334765625 24.311870587128773" stroke-width="0.03" stroke="#000000" fill="none"/>
<path d="M18.708984375 23.348417325418584L18.500390624999998 23.227985667704807L18.500390624999998 23.468848983132357L17.7703125 23.890359785130563L17.56171875 23.76992812741679" stroke-width="0.03" stroke="#000000" fill="none"/>
<path d="M17.666015625 23.830143956273677L17.666015625 24.914028875697635" stroke-width="0.03" stroke="#000000" fill="none"/>
<path d="M18.1875 24.73338138912698L14.954296875 26.600072083690467L15.47578125 26.901151227974903L15.47578125 27.864604489685092" stroke-width="0.03" stroke="#000000" fill="none"/>
<path d="M15.371484375 27.92482031854198L15.684375 27.744172831971316L15.997265625 27.92482031854198" stroke-width="0.03" stroke="#000000" fill="none"/>
<path d="M15.684375 28.105467805112635L15.684375 27.744172831971316" stroke-width="0.03" stroke="#000000" fill="none"/>
<path d="M15.371484375 27.92482031854198L14.85 27.623741174257542L14.328515625 27.92482031854198L14.015625 27.744172831971316L13.702734374999999 27.92482031854198" stroke-width="0.03" stroke="#000000" fill="none"/>
<path d="M14.015625 28.105467805112635L14.015625 27.744172831971316" stroke-width="0.03" stroke="#000000" fill="none"/>
<path d="M14.224218749999999 27.864604489685092L14.224218749999999 26.901151227974903L14.328515625 26.96136705683179L14.85 26.660287912547354L15.371484375 26.96136705683179L15.371484375 29.12913689567971L15.47578125 29.068921066822824" stroke-width="0.03" stroke="#000000" fill="none"/>
<path d="M15.371484375 29.12913689567971L14.85 28.828057751395274L14.85 26.660287912547354" stroke-width="0.03" stroke="#000000" fill="none"/>
<path d="M14.85 26.53985625483358L14.85 23.649496469703017" stroke-width="0.03" stroke="#000000" fill="none"/>
<path d="M14.537109375 23.830143956273677L14.537109375 26.359208768262917" stroke-width="0.03" stroke="#000000" fill="none"/>
<path d="M15.162890625 26.359208768262917L15.162890625 23.830143956273677" stroke-width="0.03" stroke="#000000" fill="none"/>
<path d="M15.997265625 22.866690694563488L15.997265625 21.903237432853302L16.205859375 21.782805775139526L16.205859375 21.54194245971198L17.040234375 21.060215828856883L17.457421875 21.301079144284433L16.623046875 21.782805775139526L16.205859375 21.54194245971198" stroke-width="0.03" stroke="#000000" fill="none"/>
<path d="M15.788671874999999 21.54194245971198L14.85 22.08388491942396L13.911328125 21.54194245971198L13.911328125 20.458057540288017L14.85 19.916115080576038L15.788671874999999 20.458057540288017L15.788671874999999 21.54194245971198" stroke-width="0.03" stroke="#000000" fill="none"/>
<path d="M15.684375 21.481726630855093L14.85 21.96345326171019L14.015625 21.481726630855093L14.015625 20.518273369144907L14.85 20.03654673828981L15.684375 20.518273369144907L15.684375 21.481726630855093" stroke-width="0.03" stroke="#000000" fill="none"/>
<path d="M15.997265625 21.903237432853302L16.414453125 22.14410074828085L16.414453125 23.107554009991038L15.997265625 22.866690694563488" stroke-width="0.03" stroke="#000000" fill="none"/>
<path d="M16.831640625 22.866690694563488L16.831640625 22.14410074828085L17.457421875 21.782805775139526" stroke-width="0.03" stroke="#000000" fill="none"/>
<path d="M17.56171875 21.843021603996412L18.396093750000002 21.36129497314132L18.6046875 21.481726630855093L18.6046875 22.204316577137735L18.81328125 22.08388491942396" stroke-width="0.03" stroke="#000000" fill="none"/>
<path d="M18.6046875 21.481726630855093L17.7703125 21.96345326171019L17.7703125 22.686043207992828L17.14453125 23.047338181134148L17.14453125 24.010791442844337L17.7703125 23.649496469703017L17.7703125 23.890359785130563" stroke-width="0.03" stroke="#000000" fill="none"/>
<path d="M17.14453125 24.010791442844337L16.9359375 23.890359785130563L16.9359375 22.926906523420374L17.56171875 22.565611550279055L17.56171875 21.843021603996412L17.7703125 21.96345326171019" stroke-width="0.03" stroke="#000000" fill="none"/>
<path d="M17.457421875 22.50539572142217L16.831640625 22.14410074828085" stroke-width="0.03" stroke="#000000" fill="none"/>
<path d="M16.623046875 22.023669090567072L16.414453125 22.14410074828085" stroke-width="0.03" stroke="#000000" fill="none"/>
<path d="M16.623046875 22.023669090567072L16.623046875 21.782805775139526" stroke-width="0.03" stroke="#000000" fill="none"/>
<path d="M16.623046875 22.023669090567072L14.85 21L13.076953125000001 22.023669090567072L13.285546875 22.14410074828085L13.285546875 23.107554009991038L13.702734374999999 22.866690694563488L13.702734374999999 21.903237432853302L13.494140625 21.782805775139526L13.494140625 21.54194245971198L12.659765624999999 21.060215828856883L12.242578125 21.301079144284433L13.076953125000001 21.782805775139526L13.494140625 21.54194245971198" stroke-width="0.03" stroke="#000000" fill="none"/>
<path d="M13.702734374999999 21.903237432853302L13.285546875 22.14410074828085" stroke-width="0.03" stroke="#000000" fill="none"/>
<path d="M13.076953125000001 22.023669090567072L13.076953125000001 21.782805775139526" stroke-width="0.03" stroke="#000000" fill="none"/>
<path d="M12.868359374999999 22.14410074828085L12.242578125 22.50539572142217" stroke-width="0.03" stroke="#000000" fill="none"/>
<path d="M12.138281249999999 22.565611550279055L11.9296875 22.686043207992828L12.555468750000001 23.047338181134148L12.7640625 22.926906523420374L12.138281249999999 22.565611550279055L12.138281249999999 21.843021603996412L11.303906249999999 21.36129497314132L11.095312499999999 21.481726630855093L11.095312499999999 22.204316577137735L10.88671875 22.08388491942396" stroke-width="0.03" stroke="#000000" fill="none"/>
<path d="M11.095312499999999 21.481726630855093L11.9296875 21.96345326171019L11.9296875 22.686043207992828" stroke-width="0.03" stroke="#000000" fill="none"/>
<path d="M11.9296875 21.96345326171019L12.138281249999999 21.843021603996412" stroke-width="0.03" stroke="#000000" fill="none"/>
<path d="M12.242578125 21.782805775139526L12.868359374999999 22.14410074828085L12.868359374999999 22.866690694563488" stroke-width="0.03" stroke="#000000" fill="none"/>
<path d="M12.7640625 22.926906523420374L12.7640625 23.890359785130563L12.555468750000001 24.010791442844337L11.9296875 23.649496469703017L11.9296875 23.890359785130563" stroke-width="0.03" stroke="#000000" fill="none"/>
<path d="M12.555468750000001 24.010791442844337L12.555468750000001 23.047338181134148" stroke-width="0.03" stroke="#000000" fill="none"/>
<path d="M11.199609375 23.227985667704807L10.991015625000001 23.348417325418584L10.991015625000001 28.40654694939707L11.199609375 28.526978607110845" stroke-width="0.03" stroke="#000000" fill="none"/>
<path d="M10.991015625000001 28.40654694939707L11.199609375 28.286115291683295" stroke-width="0.03" stroke="#000000" fill="none"/>
<path d="M11.199609375 27.563525345400656L11.72109375 27.26244620111622L12.138281249999999 27.50330951654377L12.7640625 27.142014543402446L12.7640625 26.780719570261127L12.868359374999999 26.72050374140424L13.181249999999999 26.901151227974903L13.181249999999999 27.26244620111622L13.076953125000001 27.322662029973106L12.7640625 27.142014543402446" stroke-width="0.03" stroke="#000000" fill="none"/>
<path d="M12.7640625 26.780719570261127L13.076953125000001 26.96136705683179L13.076953125000001 27.322662029973106" stroke-width="0.03" stroke="#000000" fill="none"/>
<path d="M13.076953125000001 26.96136705683179L13.181249999999999 26.901151227974903" stroke-width="0.03" stroke="#000000" fill="none"/>
<path d="M12.97265625 26.780719570261127L13.181249999999999 26.660287912547354" stroke-width="0.03" stroke="#000000" fill="none"/>
<path d="M13.076953125000001 26.600072083690467L12.97265625 26.660287912547354" stroke-width="0.03" stroke="#000000" fill="none"/>
<path d="M12.97265625 26.53985625483358L12.97265625 26.780719570261127" stroke-width="0.03" stroke="#000000" fill="none"/>
<path d="M12.555468750000001 27.50330951654377L14.015625 28.346331120540185L14.015625 31.597985878812068L12.868359374999999 32.260359996237824L12.868359374999999 31.296906734527635" stroke-width="0.03" stroke="#000000" fill="none"/>
<path d="M12.7640625 31.35712256338452L12.7640625 29.791511013105463" stroke-width="0.03" stroke="#000000" fill="none"/>
<path d="M12.555468750000001 29.30978438225037L12.242578125 29.12913689567971L12.242578125 29.37000021110726L12.033984375000001 29.490431868821034L11.199609375 29.008705237965938L11.199609375 27.563525345400656L12.033984375000001 28.04525197625575L12.555468750000001 27.744172831971316" stroke-width="0.03" stroke="#000000" fill="none"/>
<path d="M12.555468750000001 28.105467805112635L12.451171875 28.165683633969522L12.451171875 29.008705237965938L12.242578125 29.12913689567971" stroke-width="0.03" stroke="#000000" fill="none"/>
<path d="M12.451171875 29.008705237965938L12.555468750000001 29.068921066822824" stroke-width="0.03" stroke="#000000" fill="none"/>
<path d="M12.033984375000001 29.490431868821034L12.033984375000001 28.04525197625575" stroke-width="0.03" stroke="#000000" fill="none"/>
<path d="M12.451171875 28.165683633969522L12.555468750000001 28.22589946282641" stroke-width="0.03" stroke="#000000" fill="none"/>
<path d="M12.138281249999999 27.50330951654377L12.138281249999999 26.058129623978488L11.303906249999999 25.576402993123395L11.303906249999999 27.50330951654377" stroke-width="0.03" stroke="#000000" fill="none"/>
<path d="M12.138281249999999 26.058129623978488L12.346874999999999 25.937697966264714" stroke-width="0.03" stroke="#000000" fill="none"/>
<path d="M11.512500000000001 25.45597133540962L11.303906249999999 25.576402993123395" stroke-width="0.03" stroke="#000000" fill="none"/>
<path d="M10.260937499999999 23.649496469703017L9.739453124999999 23.95057561398745" stroke-width="0.03" stroke="#000000" fill="none"/>
<path d="M9.739453124999999 23.227985667704807L9.948046875 23.107554009991038" stroke-width="0.03" stroke="#000000" fill="none"/>
<path d="M10.88671875 23.167769838847924L6.5062500000000005 20.63870502685868L6.5062500000000005 20.397841711431134" stroke-width="0.03" stroke="#000000" fill="none"/>
<path d="M6.714843749999999 20.518273369144907L6.5062500000000005 20.63870502685868" stroke-width="0.03" stroke="#000000" fill="none"/>
<path d="M6.089062499999999 20.156978396003588L7.340624999999999 20.879568342286227L7.340624999999999 19.916115080576038L6.089062499999999 19.193525134293395" stroke-width="0.03" stroke="#000000" fill="none"/>
<path d="M6.5062500000000005 19.193525134293395L6.5062500000000005 18.832230161152076" stroke-width="0.03" stroke="#000000" fill="none"/>
<path d="M6.193359375 18.410719359153866L4.8374999999999995 17.62791358401434" stroke-width="0.03" stroke="#000000" fill="none"/>
<path d="M4.941796875 17.567697755157454L4.107421875 17.08597112430236" stroke-width="0.03" stroke="#000000" fill="none"/>
<path d="M4.107421875 17.206402782016134L3.2730468750000017 16.72467615116104L2.8558593750000005 16.965539466588588" stroke-width="0.03" stroke="#000000" fill="none"/>
<path d="M3.5859375 16.66446032230415L3.5859375 15.701007060593964" stroke-width="0.03" stroke="#000000" fill="none"/>
<path d="M4.003124999999999 15.460143745166418L4.003124999999999 14.737553798883777" stroke-width="0.03" stroke="#000000" fill="none"/>
<path d="M4.4203125 14.85798545659755L5.776171874999998 14.075179681458023" stroke-width="0.03" stroke="#000000" fill="none"/>
<path d="M5.776171874999998 13.95474802374425L5.46328125 13.77410053717359" stroke-width="0.03" stroke="#000000" fill="none"/>
<path d="M5.46328125 13.653668879459815L5.88046875 13.412805564032269" stroke-width="0.03" stroke="#000000" fill="none"/>
<path d="M6.193359375 13.593453050602928L5.3589843749999995 13.111726419747836L5.3589843749999995 12.629999788892741" stroke-width="0.03" stroke="#000000" fill="none"/>
<path d="M5.46328125 13.412805564032269L4.62890625 13.894532194887363" stroke-width="0.03" stroke="#000000" fill="none"/>
<path d="M5.776171874999998 13.834316366030475L6.089062499999999 14.014963852601136" stroke-width="0.03" stroke="#000000" fill="none"/>
<path d="M5.776171874999998 14.31604299688557L6.089062499999999 14.49669048345623" stroke-width="0.03" stroke="#000000" fill="none"/>
<path d="M7.340624999999999 16.54402866459038L7.653515625 16.36338117801972" stroke-width="0.03" stroke="#000000" fill="none"/>
<path d="M7.96640625 16.303165349162832L7.96640625 17.025755295445475L7.653515625 16.845107808874815" stroke-width="0.03" stroke="#000000" fill="none"/>
<path d="M7.862109374999999 20.096762567146698L9.113671875 20.819352513429337L9.322265625 20.698920855715564L9.322265625 21.662374117425752" stroke-width="0.03" stroke="#000000" fill="none"/>
<path d="M9.113671875 21.782805775139526L9.113671875 20.819352513429337" stroke-width="0.03" stroke="#000000" fill="none"/>
<path d="M9.113671875 20.57848919800179L9.322265625 20.698920855715564" stroke-width="0.03" stroke="#000000" fill="none"/>
<path d="M11.095312499999999 23.047338181134148L11.095312499999999 23.167769838847924" stroke-width="0.03" stroke="#000000" fill="none"/>
<path d="M10.991015625000001 23.348417325418584L10.88671875 23.288201496561694" stroke-width="0.03" stroke="#000000" fill="none"/>
<path d="M12.555468750000001 19.31395679200717L14.85 17.989208557155663L17.14453125 19.31395679200717" stroke-width="0.03" stroke="#000000" fill="none"/>
<path d="M17.14453125 19.67525176514849L17.457421875 19.85589925171915" stroke-width="0.03" stroke="#000000" fill="none"/>
<path d="M15.89296875 19.073093476579622L15.05859375 19.554820107434715L14.85 19.434388449720945L14.64140625 19.554820107434715L13.80703125 19.073093476579622L13.80703125 18.59136684572453L14.64140625 19.073093476579622L14.85 18.95266181886585L15.05859375 19.073093476579622L15.89296875 18.59136684572453L15.89296875 19.073093476579622" stroke-width="0.03" stroke="#000000" fill="none"/>
<path d="M15.47578125 18.350503530296983L14.85 18.711798503438303L14.224218749999999 18.350503530296983" stroke-width="0.03" stroke="#000000" fill="none"/>
<path d="M14.224218749999999 18.23007187258321L14.85 17.86877689944189L15.47578125 18.23007187258321L16.31015625 17.748345241728117L16.31015625 17.50748192630057L15.684375 17.146186953159244L15.89296875 17.025755295445475" stroke-width="0.03" stroke="#000000" fill="none"/>
<path d="M16.31015625 17.50748192630057L15.47578125 17.989208557155663L15.47578125 18.23007187258321" stroke-width="0.03" stroke="#000000" fill="none"/>
<path d="M15.47578125 17.989208557155663L14.85 17.62791358401434L14.224218749999999 17.989208557155663L14.224218749999999 18.23007187258321L13.389843749999999 17.748345241728117L13.389843749999999 17.50748192630057L14.015625 17.146186953159244L13.80703125 17.025755295445475L13.80703125 17.26661861087302" stroke-width="0.03" stroke="#000000" fill="none"/>
<path d="M13.389843749999999 17.50748192630057L14.224218749999999 17.989208557155663" stroke-width="0.03" stroke="#000000" fill="none"/>
<path d="M14.85 17.989208557155663L14.85 18.711798503438303" stroke-width="0.03" stroke="#000000" fill="none"/>
<path d="M14.85 18.95266181886585L14.85 21" stroke-width="0.03" stroke="#000000" fill="none"/>
<path d="M14.954296875 21.060215828856883L14.85 21.120431657713773L14.745703124999999 21.060215828856883L14.745703124999999 20.939784171143113L14.85 20.879568342286227L14.954296875 20.939784171143113L14.954296875 21.060215828856883" stroke-width="0.03" stroke="#000000" fill="none"/>
<path d="M15.05859375 19.554820107434715L15.05859375 19.073093476579622" stroke-width="0.03" stroke="#000000" fill="none"/>
<path d="M14.64140625 19.073093476579622L14.64140625 19.554820107434715" stroke-width="0.03" stroke="#000000" fill="none"/>
<path d="M14.85 17.86877689944189L14.85 17.62791358401434" stroke-width="0.03" stroke="#000000" fill="none"/>
<path d="M14.85 15.701007060593964L14.85 15.098848772025098" stroke-width="0.03" stroke="#000000" fill="none"/>
<path d="M14.224218749999999 15.460143745166418L14.224218749999999 15.701007060593964" stroke-width="0.03" stroke="#000000" fill="none"/>
<path d="M15.47578125 15.701007060593964L15.47578125 15.460143745166418" stroke-width="0.03" stroke="#000000" fill="none"/>
<path d="M12.659765624999999 15.640791231737078L11.825390624999999 16.122517862592172L11.825390624999999 16.36338117801972L11.616796874999999 16.24294952030595" stroke-width="0.03" stroke="#000000" fill="none"/>
<path d="M11.825390624999999 16.36338117801972L12.659765624999999 15.881654547164626" stroke-width="0.03" stroke="#000000" fill="none"/>
<path d="M11.825390624999999 16.122517862592172L10.573828124999999 15.399927916309531" stroke-width="0.03" stroke="#000000" fill="none"/>
<path d="M4.8374999999999995 18.711798503438303L4.3160156249999995 18.410719359153866" stroke-width="0.03" stroke="#000000" fill="none"/>
<path d="M4.107421875 17.928992728298773L1.7085937499999995 16.54402866459038" stroke-width="0.03" stroke="#000000" fill="none"/>
<path d="M2.960156250000001 14.13539551031491L2.7515624999999995 14.014963852601136" stroke-width="0.03" stroke="#000000" fill="none"/>
<path d="M2.7515624999999995 13.77410053717359L2.960156250000001 13.894532194887363" stroke-width="0.03" stroke="#000000" fill="none"/>
<path d="M3.0995854716508546 3.383983116796798L3.0995854716508546 3.0054372986874878L3.261819393697702 3.0054372986874878L3.3158973677133177 3.023463290026026L3.333923359051856 3.041489281364565L3.3519493503903948 3.077541264041642L3.3519493503903948 3.113593246718719L3.333923359051856 3.149645229395796L3.3158973677133177 3.167671220734335L3.261819393697702 3.1856972120728733" stroke-width="0.03" stroke="#000000" fill="none"/>
<path d="M3.0995854716508546 3.1856972120728733L3.261819393697702 3.1856972120728733L3.3158973677133177 3.2037232034114123L3.333923359051856 3.221749194749951L3.3519493503903948 3.257801177427028L3.3519493503903948 3.3118791514426436L3.333923359051856 3.3479311341197207L3.3158973677133177 3.3659571254582596L3.261819393697702 3.383983116796798L3.0995854716508546 3.383983116796798" stroke-width="0.03" stroke="#000000" fill="none"/>
<path d="M3.478131289760165 3.3299051427811825L3.4961572810987036 3.3659571254582596L3.5502352551143197 3.383983116796798L3.586287237791397 3.383983116796798L3.6403652118070124 3.3659571254582596L3.6764171944840895 3.3118791514426436L3.694443185822628 3.221749194749951L3.694443185822628 3.1316192380572576L3.6764171944840895 3.0595152727031034L3.6403652118070124 3.023463290026026L3.586287237791397 3.0054372986874878L3.568261246452858 3.0054372986874878L3.514183272437242 3.023463290026026L3.478131289760165 3.0595152727031034L3.4601052984216265 3.113593246718719L3.4601052984216265 3.1316192380572576L3.478131289760165 3.1856972120728733L3.514183272437242 3.221749194749951L3.568261246452858 3.2397751860884894L3.586287237791397 3.2397751860884894L3.6403652118070124 3.221749194749951L3.6764171944840895 3.1856972120728733L3.694443185822628 3.1316192380572576" stroke-width="0.03" stroke="#000000" fill="none"/>
<path d="M4.091014995270477 3.0955672553801805L4.072989003931939 3.0595152727031034L4.036937021254861 3.023463290026026L4.000885038577785 3.0054372986874878L3.9287810732236297 3.0054372986874878L3.8927290905465526 3.023463290026026L3.8566771078694755 3.0595152727031034L3.838651116530937 3.0955672553801805L3.8206251251923984 3.149645229395796L3.8206251251923984 3.2397751860884894L3.838651116530937 3.293853160104105L3.8566771078694755 3.3299051427811825L3.8927290905465526 3.3659571254582596L3.9287810732236297 3.383983116796798L4.000885038577785 3.383983116796798L4.036937021254861 3.3659571254582596L4.072989003931939 3.3299051427811825L4.091014995270477 3.293853160104105" stroke-width="0.03" stroke="#000000" fill="none"/>
<path d="M4.217196934640247 3.383983116796798L4.217196934640247 3.0054372986874878L4.45153482204125 3.0054372986874878" stroke-width="0.03" stroke="#000000" fill="none"/>
<path d="M4.631794735426635 3.0054372986874878L4.487586804718326 3.383983116796798" stroke-width="0.03" stroke="#000000" fill="none"/>
<path d="M4.541664778733942 3.257801177427028L4.7219246921193285 3.257801177427028" stroke-width="0.03" stroke="#000000" fill="none"/>
<path d="M4.776002666134945 3.383983116796798L4.631794735426635 3.0054372986874878" stroke-width="0.03" stroke="#000000" fill="none"/>
<path d="M4.361404865348556 3.1856972120728733L4.217196934640247 3.1856972120728733" stroke-width="0.03" stroke="#000000" fill="none"/>
<path d="M4.866132622827637 3.3299051427811825L4.884158614166176 3.3659571254582596L4.938236588181791 3.383983116796798L4.974288570858869 3.383983116796798L5.028366544874484 3.3659571254582596L5.064418527551561 3.3118791514426436L5.0824445188901 3.221749194749951L5.0824445188901 3.1316192380572576L5.064418527551561 3.0595152727031034L5.028366544874484 3.023463290026026L4.974288570858869 3.0054372986874878L4.95626257952033 3.0054372986874878L4.902184605504715 3.023463290026026L4.866132622827637 3.0595152727031034L4.848106631489099 3.113593246718719L4.848106631489099 3.1316192380572576L4.866132622827637 3.1856972120728733L4.902184605504715 3.221749194749951L4.95626257952033 3.2397751860884894L4.974288570858869 3.2397751860884894L5.028366544874484 3.221749194749951L5.064418527551561 3.1856972120728733L5.0824445188901 3.1316192380572576" stroke-width="0.03" stroke="#000000" fill="none"/>
<path d="M5.22665244959841 3.257801177427028L5.406912362983795 3.257801177427028" stroke-width="0.03" stroke="#000000" fill="none"/>
<path d="M5.46099033699941 3.383983116796798L5.316782406291102 3.0054372986874878L5.172574475582794 3.383983116796798" stroke-width="0.03" stroke="#000000" fill="none"/>
<path d="M5.558333333333334 2.2291666666666665L5.441666666666666 1.8208333333333333" stroke-width="0.03" stroke="#000000" fill="none"/>
<path d="M5.675 1.8208333333333333L5.558333333333334 2.2291666666666665" stroke-width="0.03" stroke="#000000" fill="none"/>
<path d="M5.791666666666666 2.2291666666666665L5.675 1.8208333333333333" stroke-width="0.03" stroke="#000000" fill="none"/>
<path d="M5.908333333333333 1.8208333333333333L5.791666666666666 2.2291666666666665" stroke-width="0.03" stroke="#000000" fill="none"/>
<path d="M6.141666666666667 2.2291666666666665L6.141666666666667 1.7333333333333334L6.1708333333333325 1.6458333333333333L6.229166666666666 1.6166666666666667L6.2875 1.6166666666666667" stroke-width="0.03" stroke="#000000" fill="none"/>
<path d="M6.4624999999999995 1.6166666666666667L6.4624999999999995 2.2291666666666665" stroke-width="0.03" stroke="#000000" fill="none"/>
<path d="M6.258333333333333 1.8208333333333333L6.054166666666666 1.8208333333333333" stroke-width="0.03" stroke="#000000" fill="none"/>
<path d="M7.016666666666666 1.8208333333333333L7.016666666666666 2.2291666666666665" stroke-width="0.03" stroke="#000000" fill="none"/>
<path d="M7.016666666666666 2.1416666666666666L6.958333333333333 2.2L6.8999999999999995 2.2291666666666665L6.812499999999999 2.2291666666666665L6.754166666666666 2.2L6.695833333333333 2.1416666666666666L6.666666666666666 2.0541666666666667L6.666666666666666 1.9958333333333333L6.695833333333333 1.9083333333333332L6.754166666666666 1.85L6.812499999999999 1.8208333333333333L6.8999999999999995 1.8208333333333333L6.958333333333333 1.85L7.016666666666666 1.9083333333333332" stroke-width="0.03" stroke="#000000" fill="none"/>
<path d="M7.249999999999999 2.1125L7.541666666666666 1.8208333333333333" stroke-width="0.03" stroke="#000000" fill="none"/>
<path d="M7.366666666666666 1.9958333333333333L7.570833333333333 2.2291666666666665" stroke-width="0.03" stroke="#000000" fill="none"/>
<path d="M7.716666666666666 1.9958333333333333L8.066666666666666 1.9958333333333333L8.066666666666666 1.9375L8.0375 1.8791666666666667L8.008333333333333 1.85L7.949999999999999 1.8208333333333333L7.8625 1.8208333333333333L7.804166666666666 1.85L7.745833333333333 1.9083333333333332L7.716666666666666 1.9958333333333333L7.716666666666666 2.0541666666666667L7.745833333333333 2.1416666666666666L7.804166666666666 2.2L7.8625 2.2291666666666665L7.949999999999999 2.2291666666666665L8.008333333333333 2.2L8.066666666666666 2.1416666666666666" stroke-width="0.03" stroke="#000000" fill="none"/>
<path d="M8.270833333333332 1.7625L8.270833333333332 1.7333333333333334L8.299999999999999 1.675L8.329166666666666 1.6458333333333333L8.3875 1.6166666666666667L8.504166666666666 1.6166666666666667L8.5625 1.6458333333333333L8.591666666666665 1.675L8.620833333333334 1.7333333333333334L8.620833333333334 1.7916666666666665L8.591666666666665 1.85L8.533333333333331 1.9375L8.241666666666667 2.2291666666666665L8.649999999999999 2.2291666666666665" stroke-width="0.03" stroke="#000000" fill="none"/>
<path d="M9.237499999999999 2.533333333333333L1.5 2.533333333333333" stroke-width="0.03" stroke="#000000" fill="none"/>
<path d="M2.1166666666666667 2.2291666666666665L2.1166666666666667 1.8208333333333333" stroke-width="0.03" stroke="#000000" fill="none"/>
<path d="M2.0875 1.6166666666666667L2.1166666666666667 1.6458333333333333L2.145833333333333 1.6166666666666667L2.1166666666666667 1.5875L2.0875 1.6166666666666667" stroke-width="0.03" stroke="#000000" fill="none"/>
<path d="M2.3208333333333333 2.1416666666666666L2.35 2.2L2.4375 2.2291666666666665L2.525 2.2291666666666665L2.6125 2.2L2.6416666666666666 2.1416666666666666L2.6416666666666666 2.1125L2.6125 2.0541666666666667L2.5541666666666667 2.025L2.408333333333333 1.9958333333333333L2.35 1.9666666666666666L2.3208333333333333 1.9083333333333332L2.35 1.85L2.4375 1.8208333333333333L2.525 1.8208333333333333L2.6125 1.85L2.6416666666666666 1.9083333333333332" stroke-width="0.03" stroke="#000000" fill="none"/>
<path d="M2.9625 1.8208333333333333L2.904166666666667 1.85L2.845833333333333 1.9083333333333332L2.8166666666666664 1.9958333333333333L2.8166666666666664 2.0541666666666667L2.845833333333333 2.1416666666666666L2.904166666666667 2.2L2.9625 2.2291666666666665L3.05 2.2291666666666665L3.1083333333333334 2.2L3.1666666666666665 2.1416666666666666L3.1958333333333333 2.0541666666666667L3.1958333333333333 1.9958333333333333L3.1666666666666665 1.9083333333333332L3.1083333333333334 1.85L3.05 1.8208333333333333L2.9625 1.8208333333333333" stroke-width="0.03" stroke="#000000" fill="none"/>
<path d="M3.283333333333333 2.2874999999999996L3.75 2.2874999999999996" stroke-width="0.03" stroke="#000000" fill="none"/>
<path d="M3.8375 2.1416666666666666L3.8666666666666663 2.2L3.9541666666666666 2.2291666666666665L4.041666666666666 2.2291666666666665L4.129166666666666 2.2L4.158333333333333 2.1416666666666666L4.158333333333333 2.1125L4.129166666666666 2.0541666666666667L4.070833333333333 2.025L3.925 1.9958333333333333L3.8666666666666663 1.9666666666666666L3.8375 1.9083333333333332L3.8666666666666663 1.85L3.9541666666666666 1.8208333333333333L4.041666666666666 1.8208333333333333L4.129166666666666 1.85L4.158333333333333 1.9083333333333332" stroke-width="0.03" stroke="#000000" fill="none"/>
<path d="M4.3625 1.9375L4.449999999999999 1.85L4.508333333333333 1.8208333333333333L4.595833333333333 1.8208333333333333L4.654166666666667 1.85L4.683333333333334 1.9375L4.683333333333334 2.2291666666666665" stroke-width="0.03" stroke="#000000" fill="none"/>
<path d="M4.3625 2.2291666666666665L4.3625 1.8208333333333333" stroke-width="0.03" stroke="#000000" fill="none"/>
<path d="M5.033333333333333 1.8208333333333333L4.975 1.85L4.916666666666666 1.9083333333333332L4.887499999999999 1.9958333333333333L4.887499999999999 2.0541666666666667L4.916666666666666 2.1416666666666666L4.975 2.2L5.033333333333333 2.2291666666666665L5.120833333333334 2.2291666666666665L5.179166666666666 2.2L5.2375 2.1416666666666666L5.266666666666666 2.0541666666666667L5.266666666666666 1.9958333333333333L5.2375 1.9083333333333332L5.179166666666666 1.85L5.120833333333334 1.8208333333333333L5.033333333333333 1.8208333333333333" stroke-width="0.03" stroke="#000000" fill="none"/>
<path d="M7.249999999999999 1.6166666666666667L7.249999999999999 2.2291666666666665" stroke-width="0.03" stroke="#000000" fill="none"/>
<path d="M2.9373515496040072 3.0054372986874878L2.757091636218621 3.0054372986874878L2.7390656448800828 3.167671220734335L2.757091636218621 3.149645229395796L2.811169610234237 3.1316192380572576L2.8652475842498526 3.1316192380572576L2.9193255582654682 3.149645229395796L2.955377540942546 3.1856972120728733L2.9734035322810843 3.2397751860884894L2.9734035322810843 3.2758271687655665L2.955377540942546 3.3299051427811825L2.9193255582654682 3.3659571254582596L2.8652475842498526 3.383983116796798L2.811169610234237 3.383983116796798L2.757091636218621 3.3659571254582596L2.7390656448800828 3.3479311341197207L2.7210396535415438 3.3118791514426436" stroke-width="0.03" stroke="#000000" fill="none"/>
<path d="M2.6128837055103125 3.383983116796798L2.414597800786388 3.1316192380572576" stroke-width="0.03" stroke="#000000" fill="none"/>
<path d="M2.6128837055103125 3.1316192380572576L2.414597800786388 3.383983116796798" stroke-width="0.03" stroke="#000000" fill="none"/>
<path d="M2.1622339220468474 3.0054372986874878L2.1081559480312317 3.023463290026026L2.072103965354154 3.077541264041642L2.0540779740156156 3.167671220734335L2.0540779740156156 3.221749194749951L2.072103965354154 3.3118791514426436L2.1081559480312317 3.3659571254582596L2.1622339220468474 3.383983116796798L2.1982859047239245 3.383983116796798L2.2523638787395406 3.3659571254582596L2.2884158614166177 3.3118791514426436L2.3064418527551562 3.221749194749951L2.3064418527551562 3.167671220734335L2.2884158614166177 3.077541264041642L2.2523638787395406 3.023463290026026L2.1982859047239245 3.0054372986874878L2.1622339220468474 3.0054372986874878" stroke-width="0.03" stroke="#000000" fill="none"/>
<path d="M14.4328125 7.511654336057367L14.537109375 7.45143850720048L14.85 7.63208599377114L15.162890625 7.45143850720048L15.267187499999999 7.511654336057367" stroke-width="0.03" stroke="#000000" fill="none"/>
<path d="M16.51875 7.9933809669124605L16.72734375 7.872949309198687L17.457421875 8.294460111196894L17.457421875 8.53532342662444" stroke-width="0.03" stroke="#000000" fill="none"/>
<path d="M17.56171875 8.595539255481327L18.291796875 8.174028453483121L19.021874999999998 8.595539255481327L19.021874999999998 8.956834228622649" stroke-width="0.03" stroke="#000000" fill="none"/>
<path d="M19.021874999999998 8.595539255481327L18.1875 9.077265886336422L18.1875 8.956834228622649" stroke-width="0.03" stroke="#000000" fill="none"/>
<path d="M17.457421875 8.294460111196894L17.248828125 8.414891768910667" stroke-width="0.03" stroke="#000000" fill="none"/>
<path d="M19.960546875000002 12.148273158037647L19.960546875000002 12.389136473465193" stroke-width="0.03" stroke="#000000" fill="none"/>
<path d="M23.193749999999998 20.397841711431134L23.193749999999998 20.63870502685868L18.81328125 23.167769838847924L18.81328125 23.288201496561694" stroke-width="0.03" stroke="#000000" fill="none"/>
<path d="M18.81328125 23.167769838847924L18.6046875 23.047338181134148" stroke-width="0.03" stroke="#000000" fill="none"/>
<path d="M18.6046875 23.167769838847924L18.500390624999998 23.227985667704807" stroke-width="0.03" stroke="#000000" fill="none"/>
<path d="M17.7703125 22.686043207992828L17.56171875 22.565611550279055" stroke-width="0.03" stroke="#000000" fill="none"/>
<path d="M17.14453125 23.047338181134148L16.9359375 22.926906523420374" stroke-width="0.03" stroke="#000000" fill="none"/>
<path d="M17.353125 25.937697966264714L17.56171875 26.058129623978488" stroke-width="0.03" stroke="#000000" fill="none"/>
<path d="M16.72734375 26.53985625483358L16.72734375 26.780719570261127L16.51875 26.660287912547354" stroke-width="0.03" stroke="#000000" fill="none"/>
<path d="M16.623046875 26.600072083690467L16.72734375 26.660287912547354" stroke-width="0.03" stroke="#000000" fill="none"/>
<path d="M16.51875 26.901151227974903L16.623046875 26.96136705683179" stroke-width="0.03" stroke="#000000" fill="none"/>
<path d="M16.414453125 27.68395700311443L15.684375 27.26244620111622" stroke-width="0.03" stroke="#000000" fill="none"/>
<path d="M15.47578125 26.901151227974903L15.371484375 26.96136705683179" stroke-width="0.03" stroke="#000000" fill="none"/>
<path d="M14.328515625 26.96136705683179L14.328515625 29.12913689567971L14.224218749999999 29.068921066822824" stroke-width="0.03" stroke="#000000" fill="none"/>
<path d="M14.328515625 29.12913689567971L14.85 28.828057751395274" stroke-width="0.03" stroke="#000000" fill="none"/>
<path d="M14.85 28.94848940910905L14.224218749999999 29.30978438225037" stroke-width="0.03" stroke="#000000" fill="none"/>
<path d="M14.4328125 29.550647697677917L14.745703124999999 29.731295184248577L14.85 29.67107935539169L14.954296875 29.731295184248577L15.267187499999999 29.550647697677917" stroke-width="0.03" stroke="#000000" fill="none"/>
<path d="M15.47578125 29.30978438225037L14.85 28.94848940910905L14.85 29.30978438225037" stroke-width="0.03" stroke="#000000" fill="none"/>
<path d="M14.85 29.67107935539169L14.85 33.2840290868049L14.64140625 33.40446074451867" stroke-width="0.03" stroke="#000000" fill="none"/>
<path d="M14.85 33.52489240223244L15.47578125 33.163597429091126" stroke-width="0.03" stroke="#000000" fill="none"/>
<path d="M15.162890625 32.98294994252046L16.72734375 33.886187375373765L16.72734375 34.12705069080131L15.05859375 35.0905039525115L14.85 34.970072294797724L14.64140625 35.0905039525115L12.97265625 34.12705069080131L12.97265625 33.886187375373765L14.537109375 32.98294994252046" stroke-width="0.03" stroke="#000000" fill="none"/>
<path d="M14.745703124999999 33.103381600234236L14.85 33.043165771377346L14.954296875 33.103381600234236L16.31015625 32.32057582509471" stroke-width="0.03" stroke="#000000" fill="none"/>
<path d="M16.414453125 32.3807916539516L16.414453125 32.74208662709292" stroke-width="0.03" stroke="#000000" fill="none"/>
<path d="M16.51875 32.8023024559498L16.9359375 32.56143914052225" stroke-width="0.03" stroke="#000000" fill="none"/>
<path d="M16.9359375 32.200144167380934L16.9359375 33.163597429091126L17.353125 33.40446074451867" stroke-width="0.03" stroke="#000000" fill="none"/>
<path d="M16.72734375 33.40446074451867L16.31015625 33.64532405994622" stroke-width="0.03" stroke="#000000" fill="none"/>
<path d="M15.89296875 33.40446074451867L16.72734375 32.92273411366358L15.997265625 32.50122331166537" stroke-width="0.03" stroke="#000000" fill="none"/>
<path d="M16.1015625 32.200144167380934L16.1015625 31.838849194239618" stroke-width="0.03" stroke="#000000" fill="none"/>
<path d="M16.1015625 32.200144167380934L16.51875 32.44100748280849L17.248828125 32.01949668081028L17.248828125 31.17647507681386" stroke-width="0.03" stroke="#000000" fill="none"/>
<path d="M17.457421875 31.056043419100085L17.457421875 31.658201707668955" stroke-width="0.03" stroke="#000000" fill="none"/>
<path d="M17.353125 31.71841753652584L17.56171875 31.838849194239618L17.56171875 34.608777321656405" stroke-width="0.03" stroke="#000000" fill="none"/>
<path d="M16.72734375 33.886187375373765L15.05859375 34.84964063708395L14.85 34.729208979370185L14.64140625 34.84964063708395L12.97265625 33.886187375373765" stroke-width="0.03" stroke="#000000" fill="none"/>
<path d="M12.97265625 33.40446074451867L12.97265625 32.92273411366358L13.702734374999999 32.50122331166537" stroke-width="0.03" stroke="#000000" fill="none"/>
<path d="M13.598437500000001 32.200144167380934L13.181249999999999 32.44100748280849L12.451171875 32.01949668081028L12.451171875 31.17647507681386" stroke-width="0.03" stroke="#000000" fill="none"/>
<path d="M12.242578125 31.056043419100085L12.242578125 31.658201707668955" stroke-width="0.03" stroke="#000000" fill="none"/>
<path d="M12.346874999999999 31.71841753652584L12.138281249999999 31.838849194239618L12.138281249999999 34.608777321656405" stroke-width="0.03" stroke="#000000" fill="none"/>
<path d="M12.346874999999999 33.40446074451867L12.7640625 33.163597429091126L12.7640625 32.200144167380934" stroke-width="0.03" stroke="#000000" fill="none"/>
<path d="M12.7640625 32.56143914052225L13.181249999999999 32.8023024559498" stroke-width="0.03" stroke="#000000" fill="none"/>
<path d="M13.285546875 32.74208662709292L13.285546875 32.3807916539516" stroke-width="0.03" stroke="#000000" fill="none"/>
<path d="M13.389843749999999 32.32057582509471L14.745703124999999 33.103381600234236L14.745703124999999 29.731295184248577" stroke-width="0.03" stroke="#000000" fill="none"/>
<path d="M14.954296875 29.731295184248577L14.954296875 33.103381600234236" stroke-width="0.03" stroke="#000000" fill="none"/>
<path d="M14.85 33.2840290868049L15.05859375 33.40446074451867" stroke-width="0.03" stroke="#000000" fill="none"/>
<path d="M14.85 33.52489240223244L14.224218749999999 33.163597429091126" stroke-width="0.03" stroke="#000000" fill="none"/>
<path d="M13.80703125 33.40446074451867L12.97265625 32.92273411366358" stroke-width="0.03" stroke="#000000" fill="none"/>
<path d="M12.97265625 33.40446074451867L13.389843749999999 33.64532405994622" stroke-width="0.03" stroke="#000000" fill="none"/>
<path d="M13.181249999999999 32.44100748280849L13.181249999999999 32.07971250966716" stroke-width="0.03" stroke="#000000" fill="none"/>
<path d="M13.598437500000001 32.200144167380934L13.598437500000001 31.838849194239618" stroke-width="0.03" stroke="#000000" fill="none"/>
<path d="M12.138281249999999 31.838849194239618L9.530859375 30.333453472817446" stroke-width="0.03" stroke="#000000" fill="none"/>
<path d="M9.739453124999999 30.0925901573899L9.739453124999999 29.851726841962353L9.948046875 29.731295184248577" stroke-width="0.03" stroke="#000000" fill="none"/>
<path d="M9.739453124999999 29.851726841962353L10.365234375 30.21302181510367L10.573828124999999 30.0925901573899" stroke-width="0.03" stroke="#000000" fill="none"/>
<path d="M10.365234375 30.21302181510367L10.365234375 30.574316788244992" stroke-width="0.03" stroke="#000000" fill="none"/>
<path d="M10.365234375 30.45388513053122L10.782421874999999 30.21302181510367" stroke-width="0.03" stroke="#000000" fill="none"/>
<path d="M10.365234375 30.45388513053122L9.739453124999999 30.0925901573899" stroke-width="0.03" stroke="#000000" fill="none"/>
<path d="M9.4265625 31.11625924795697L6.089062499999999 29.189352724536597" stroke-width="0.03" stroke="#000000" fill="none"/>
<path d="M6.5062500000000005 30.63453261710188L6.193359375 30.815180103672542" stroke-width="0.03" stroke="#000000" fill="none"/>
<path d="M3.3773437500000005 28.105467805112635L3.2730468750000017 28.04525197625575L3.2730468750000017 27.68395700311443L2.960156250000001 27.50330951654377L2.960156250000001 27.382877858829996" stroke-width="0.03" stroke="#000000" fill="none"/>
<path d="M6.089062499999999 26.058129623978488L6.193359375 25.9979137951216L6.610546875 26.238777110549147L6.610546875 26.359208768262917L6.089062499999999 26.058129623978488L6.089062499999999 25.45597133540962L6.193359375 25.51618716426651L6.193359375 25.9979137951216" stroke-width="0.03" stroke="#000000" fill="none"/>
<path d="M10.678125 30.754964274815652L11.199609375 30.45388513053122" stroke-width="0.03" stroke="#000000" fill="none"/>
<path d="M11.303906249999999 30.514100959388106L10.782421874999999 30.815180103672542" stroke-width="0.03" stroke="#000000" fill="none"/>
<path d="M10.678125 30.87539593252943L10.678125 30.754964274815652" stroke-width="0.03" stroke="#000000" fill="none"/>
<path d="M10.678125 30.87539593252943L10.782421874999999 30.935611761386316" stroke-width="0.03" stroke="#000000" fill="none"/>
<path d="M11.825390624999999 30.815180103672542L11.825390624999999 31.41733839224141" stroke-width="0.03" stroke="#000000" fill="none"/>
<path d="M14.015625 28.346331120540185L14.224218749999999 28.22589946282641" stroke-width="0.03" stroke="#000000" fill="none"/>
<path d="M15.47578125 28.22589946282641L15.684375 28.346331120540185" stroke-width="0.03" stroke="#000000" fill="none"/>
<path d="M17.874609375000002 30.815180103672542L17.874609375000002 31.41733839224141" stroke-width="0.03" stroke="#000000" fill="none"/>
<path d="M17.56171875 31.838849194239618L20.169140624999997 30.333453472817446" stroke-width="0.03" stroke="#000000" fill="none"/>
<path d="M19.960546875000002 30.0925901573899L19.334765625 30.45388513053122L18.917578125000002 30.21302181510367" stroke-width="0.03" stroke="#000000" fill="none"/>
<path d="M19.126171875 30.0925901573899L19.334765625 30.21302181510367L19.960546875000002 29.851726841962353L19.960546875000002 30.0925901573899" stroke-width="0.03" stroke="#000000" fill="none"/>
<path d="M19.960546875000002 29.851726841962353L19.751953125 29.731295184248577" stroke-width="0.03" stroke="#000000" fill="none"/>
<path d="M19.334765625 30.21302181510367L19.334765625 30.574316788244992" stroke-width="0.03" stroke="#000000" fill="none"/>
<path d="M19.021874999999998 30.754964274815652L19.021874999999998 30.87539593252943L18.917578125000002 30.935611761386316" stroke-width="0.03" stroke="#000000" fill="none"/>
<path d="M18.917578125000002 30.815180103672542L18.396093750000002 30.514100959388106" stroke-width="0.03" stroke="#000000" fill="none"/>
<path d="M18.500390624999998 30.45388513053122L19.021874999999998 30.754964274815652" stroke-width="0.03" stroke="#000000" fill="none"/>
<path d="M16.51875 32.07971250966716L16.51875 32.44100748280849" stroke-width="0.03" stroke="#000000" fill="none"/>
<path d="M16.72734375 32.92273411366358L16.72734375 33.40446074451867" stroke-width="0.03" stroke="#000000" fill="none"/>
<path d="M15.05859375 34.84964063708395L15.05859375 35.0905039525115" stroke-width="0.03" stroke="#000000" fill="none"/>
<path d="M14.85 34.970072294797724L14.85 34.729208979370185" stroke-width="0.03" stroke="#000000" fill="none"/>
<path d="M14.64140625 34.84964063708395L14.64140625 35.0905039525115" stroke-width="0.03" stroke="#000000" fill="none"/>
<path d="M22.98515625 20.518273369144907L23.193749999999998 20.63870502685868" stroke-width="0.03" stroke="#000000" fill="none"/>
</svg>
