<?xml version="1.0" standalone="no"?>
<svg width="29.7cm" height="42cm" version="1.1" xmlns="http://www.w3.org/2000/svg" viewBox="0.0 0.0 29.700001 42.000001">
<path d="M8.070703124999998 9.980503319189724L9.530859375 9.13748171519331L10.365234375 9.619208346048403L10.365234375 10.703093265472365L10.05234375 10.883740752043025L10.05234375 11.124604067470571" stroke-width="0.03" stroke="#000000" fill="none"/>
<path d="M10.260937499999999 11.004172409756798L10.05234375 10.883740752043025" stroke-width="0.03" stroke="#000000" fill="none"/>
<path d="M9.739453124999999 11.305251554041233L11.408203125 10.341798292331045L14.745703124999999 12.26870481575142L14.745703124999999 12.509568131178968L13.076953125000001 13.473021392889155L12.451171875 13.111726419747836L11.408203125 13.713884708316701" stroke-width="0.03" stroke="#000000" fill="none"/>
<path d="M11.616796874999999 13.593453050602928L11.616796874999999 13.473021392889155L11.72109375 13.412805564032269L11.825390624999999 13.473021392889155" stroke-width="0.03" stroke="#000000" fill="none"/>
<path d="M11.72109375 13.533237221746042L9.739453124999999 12.389136473465193L9.739453124999999 11.305251554041233L13.076953125000001 13.232158077461609L13.076953125000001 13.473021392889155" stroke-width="0.03" stroke="#000000" fill="none"/>
<path d="M13.076953125000001 13.232158077461609L14.745703124999999 12.26870481575142" stroke-width="0.03" stroke="#000000" fill="none"/>
<path d="M14.954296875 12.26870481575142L18.291796875 10.341798292331045L19.960546875000002 11.305251554041233L19.960546875000002 12.389136473465193L17.978906249999998 13.533237221746042" stroke-width="0.03" stroke="#000000" fill="none"/>
<path d="M17.874609375000002 13.473021392889155L17.978906249999998 13.412805564032269L18.083203125 13.473021392889155L18.083203125 13.593453050602928" stroke-width="0.03" stroke="#000000" fill="none"/>
<path d="M18.291796875 13.713884708316701L17.248828125 13.111726419747836L16.623046875 13.473021392889155L14.954296875 12.509568131178968L14.954296875 12.26870481575142L16.623046875 13.232158077461609L16.623046875 13.473021392889155" stroke-width="0.03" stroke="#000000" fill="none"/>
<path d="M16.623046875 13.232158077461609L19.960546875000002 11.305251554041233" stroke-width="0.03" stroke="#000000" fill="none"/>
<path d="M19.960546875000002 11.54611486946878L23.40234375 13.533237221746042L23.40234375 14.617122141170004" stroke-width="0.03" stroke="#000000" fill="none"/>
<path d="M23.193749999999998 14.737553798883777L23.193749999999998 13.653668879459815L21.837890625 12.87086310432029L20.89921875 13.412805564032269L20.794921875 13.352589735175382L20.89921875 13.292373906318495L20.89921875 12.690215617749628L20.482031250000002 12.44935230232208L17.353125 14.255827168028683L17.353125 14.49669048345623L17.7703125 14.737553798883777L18.917578125000002 14.075179681458023L19.126171875 14.195611339171796L19.126171875 14.918201285454437" stroke-width="0.03" stroke="#000000" fill="none"/>
<path d="M19.126171875 14.797769627740664L20.794921875 13.834316366030475L20.794921875 13.352589735175382" stroke-width="0.03" stroke="#000000" fill="none"/>
<path d="M20.89921875 13.412805564032269L20.89921875 13.894532194887363L21.837890625 13.352589735175382L22.672265625 13.834316366030475L22.672265625 15.038632943168212" stroke-width="0.03" stroke="#000000" fill="none"/>
<path d="M23.089453125000002 15.881654547164626L23.089453125000002 16.24294952030595L18.396093750000002 18.95266181886585L17.14453125 18.23007187258321L17.14453125 18.470935188010756L15.371484375 19.49460427857783L15.371484375 20.096762567146698L15.89296875 20.397841711431134L15.89296875 21L16.414453125 21.301079144284433L18.1875 20.277410053717357L18.1875 19.434388449720945L17.874609375000002 19.253740963150285L17.874609375000002 18.892445990008962L17.14453125 18.470935188010756" stroke-width="0.03" stroke="#000000" fill="none"/>
<path d="M17.14453125 18.23007187258321L17.874609375000002 17.808561070585" stroke-width="0.03" stroke="#000000" fill="none"/>
<path d="M17.874609375000002 17.567697755157454L14.954296875 19.253740963150285L14.954296875 20.939784171143113L16.414453125 21.782805775139526L19.334765625 20.096762567146698L19.334765625 20.337625882574244L16.51875 21.96345326171019L16.51875 25.215108019982072L16.31015625 25.335539677695845L16.31015625 21.96345326171019L14.85 21.120431657713773L13.389843749999999 21.96345326171019L13.389843749999999 25.335539677695845L13.181249999999999 25.215108019982072L13.181249999999999 21.96345326171019L10.365234375 20.337625882574244L10.365234375 20.096762567146698L13.285546875 21.782805775139526L14.745703124999999 20.939784171143113L14.745703124999999 19.253740963150285L14.85 19.193525134293395L14.954296875 19.253740963150285" stroke-width="0.03" stroke="#000000" fill="none"/>
<path d="M14.85 19.193525134293395L14.85 21L13.285546875 21.903237432853302L13.389843749999999 21.96345326171019" stroke-width="0.03" stroke="#000000" fill="none"/>
<path d="M13.285546875 21.903237432853302L13.285546875 21.782805775139526" stroke-width="0.03" stroke="#000000" fill="none"/>
<path d="M13.285546875 21.301079144284433L13.80703125 21L13.80703125 20.397841711431134L14.328515625 20.096762567146698L14.328515625 19.49460427857783L12.555468750000001 18.470935188010756L11.825390624999999 18.892445990008962L11.825390624999999 19.253740963150285L11.512500000000001 19.434388449720945L11.512500000000001 20.277410053717357L11.303906249999999 20.397841711431134L10.573828124999999 19.976330909432924" stroke-width="0.03" stroke="#000000" fill="none"/>
<path d="M10.260937499999999 19.795683422862265L10.88671875 19.434388449720945L10.88671875 19.795683422862265L10.260937499999999 20.156978396003588L9.948046875 19.976330909432924L9.948046875 22.746259036849715L10.573828124999999 22.384964063708395L10.573828124999999 20.458057540288017" stroke-width="0.03" stroke="#000000" fill="none"/>
<path d="M10.260937499999999 20.156978396003588L10.260937499999999 19.795683422862265L9.948046875 19.615035936291605L9.948046875 18.892445990008962L11.199609375 18.16985604372632L11.199609375 17.44726609744368L11.512500000000001 17.62791358401434L11.825390624999999 17.44726609744368L11.512500000000001 17.26661861087302L13.911328125 15.881654547164626L13.911328125 16.60424449344727L12.242578125 17.567697755157454" stroke-width="0.03" stroke="#000000" fill="none"/>
<path d="M12.033984375000001 17.44726609744368L11.825390624999999 17.567697755157454L14.745703124999999 19.253740963150285" stroke-width="0.03" stroke="#000000" fill="none"/>
<path d="M14.85 19.073093476579622L17.666015625 17.44726609744368L17.874609375000002 17.567697755157454" stroke-width="0.03" stroke="#000000" fill="none"/>
<path d="M17.874609375000002 17.44726609744368L18.1875 17.26661861087302L15.788671874999999 15.881654547164626L15.788671874999999 16.60424449344727L17.457421875 17.567697755157454" stroke-width="0.03" stroke="#000000" fill="none"/>
<path d="M17.874609375000002 17.44726609744368L17.874609375000002 18.16985604372632L18.1875 18.350503530296983L18.500390624999998 18.16985604372632L18.500390624999998 17.44726609744368L19.126171875 17.808561070585L20.89921875 16.784891980017925L21.525000000000002 17.146186953159244L21.525000000000002 17.86877689944189L22.150781249999998 18.23007187258321L22.150781249999998 18.59136684572453L20.482031250000002 19.554820107434715L20.482031250000002 22.32474823485151L19.751953125 22.746259036849715L19.126171875 22.384964063708395L19.126171875 20.458057540288017" stroke-width="0.03" stroke="#000000" fill="none"/>
<path d="M19.439062500000002 20.156978396003588L19.751953125 19.976330909432924L19.751953125 22.746259036849715" stroke-width="0.03" stroke="#000000" fill="none"/>
<path d="M18.396093750000002 23.047338181134148L16.72734375 24.010791442844337L16.72734375 23.649496469703017L16.51875 23.529064811989244" stroke-width="0.03" stroke="#000000" fill="none"/>
<path d="M16.72734375 23.649496469703017L16.51875 23.76992812741679" stroke-width="0.03" stroke="#000000" fill="none"/>
<path d="M16.72734375 23.76992812741679L18.1875 22.926906523420374L18.396093750000002 23.047338181134148L18.396093750000002 21.120431657713773L18.083203125 21.301079144284433L17.874609375000002 21.18064748657066" stroke-width="0.03" stroke="#000000" fill="none"/>
<path d="M18.083203125 21.301079144284433L18.083203125 21.060215828856883" stroke-width="0.03" stroke="#000000" fill="none"/>
<path d="M18.1875 21.240863315427546L18.1875 22.926906523420374" stroke-width="0.03" stroke="#000000" fill="none"/>
<path d="M18.1875 24.010791442844337L16.51875 24.974244704554525" stroke-width="0.03" stroke="#000000" fill="none"/>
<path d="M16.414453125 25.39575550655273L16.1015625 25.576402993123395L16.1015625 25.937697966264714L15.47578125 26.29899293940603L14.224218749999999 25.576402993123395L13.598437500000001 25.937697966264714L13.598437500000001 25.576402993123395L13.285546875 25.39575550655273L13.911328125 25.034460533411412L14.224218749999999 25.215108019982072L14.224218749999999 25.576402993123395" stroke-width="0.03" stroke="#000000" fill="none"/>
<path d="M14.224218749999999 25.215108019982072L13.598437500000001 25.576402993123395" stroke-width="0.03" stroke="#000000" fill="none"/>
<path d="M13.598437500000001 25.937697966264714L14.224218749999999 26.29899293940603L15.47578125 25.576402993123395L16.1015625 25.937697966264714" stroke-width="0.03" stroke="#000000" fill="none"/>
<path d="M16.1015625 25.576402993123395L15.47578125 25.215108019982072L15.788671874999999 25.034460533411412L16.414453125 25.39575550655273L16.414453125 25.75705047969405L18.81328125 24.37208641598566L18.1875 24.010791442844337" stroke-width="0.03" stroke="#000000" fill="none"/>
<path d="M18.81328125 24.37208641598566L18.81328125 25.215108019982072L16.414453125 26.600072083690467L16.414453125 28.526978607110845L16.1015625 28.7076260936815L15.47578125 28.346331120540185L14.85 28.7076260936815L14.224218749999999 28.346331120540185L13.598437500000001 28.7076260936815L13.285546875 28.526978607110845L13.285546875 26.600072083690467L10.88671875 25.215108019982072L10.88671875 24.37208641598566L11.512500000000001 24.010791442844337L13.181249999999999 24.974244704554525" stroke-width="0.03" stroke="#000000" fill="none"/>
<path d="M13.285546875 25.39575550655273L13.285546875 25.75705047969405L10.88671875 24.37208641598566" stroke-width="0.03" stroke="#000000" fill="none"/>
<path d="M11.303906249999999 23.047338181134148L11.512500000000001 22.926906523420374L12.97265625 23.76992812741679" stroke-width="0.03" stroke="#000000" fill="none"/>
<path d="M12.97265625 23.649496469703017L13.181249999999999 23.529064811989244" stroke-width="0.03" stroke="#000000" fill="none"/>
<path d="M12.97265625 23.649496469703017L12.97265625 24.010791442844337L11.303906249999999 23.047338181134148L11.303906249999999 21.120431657713773L11.616796874999999 21.301079144284433L11.825390624999999 21.18064748657066" stroke-width="0.03" stroke="#000000" fill="none"/>
<path d="M11.616796874999999 21.301079144284433L11.616796874999999 21.060215828856883" stroke-width="0.03" stroke="#000000" fill="none"/>
<path d="M11.512500000000001 21.240863315427546L11.512500000000001 22.926906523420374" stroke-width="0.03" stroke="#000000" fill="none"/>
<path d="M9.948046875 22.746259036849715L9.21796875 22.32474823485151L9.21796875 19.554820107434715L7.5492187500000005 18.59136684572453L7.5492187500000005 18.23007187258321L8.175 17.86877689944189L9.948046875 18.892445990008962" stroke-width="0.03" stroke="#000000" fill="none"/>
<path d="M10.573828124999999 19.253740963150285L9.948046875 19.615035936291605" stroke-width="0.03" stroke="#000000" fill="none"/>
<path d="M10.573828124999999 19.253740963150285L10.573828124999999 17.808561070585L8.80078125 16.784891980017925L8.80078125 16.062302033735286L9.113671875 15.881654547164626L10.782421874999999 16.845107808874815L13.181249999999999 15.460143745166418L13.911328125 15.881654547164626" stroke-width="0.03" stroke="#000000" fill="none"/>
<path d="M14.85 16.905323637731698L13.181249999999999 17.86877689944189L13.494140625 18.049424386012547L13.494140625 18.290287701440096" stroke-width="0.03" stroke="#000000" fill="none"/>
<path d="M13.285546875 18.16985604372632L13.494140625 18.049424386012547" stroke-width="0.03" stroke="#000000" fill="none"/>
<path d="M13.389843749999999 17.989208557155663L14.85 17.146186953159244L14.85 16.905323637731698L16.51875 17.86877689944189L16.205859375 18.049424386012547L16.205859375 18.290287701440096" stroke-width="0.03" stroke="#000000" fill="none"/>
<path d="M16.205859375 18.049424386012547L16.414453125 18.16985604372632" stroke-width="0.03" stroke="#000000" fill="none"/>
<path d="M16.31015625 17.989208557155663L14.85 17.146186953159244" stroke-width="0.03" stroke="#000000" fill="none"/>
<path d="M15.788671874999999 15.881654547164626L16.51875 15.460143745166418L18.917578125000002 16.845107808874815L20.586328125 15.881654547164626L20.89921875 16.062302033735286L20.89921875 16.784891980017925" stroke-width="0.03" stroke="#000000" fill="none"/>
<path d="M21.212109374999997 16.965539466588588L25.07109375 14.737553798883777L25.07109375 14.376258825742458L24.4453125 14.014963852601136L21.733593749999997 15.580575402880193L20.690625 14.978417114311325L22.672265625 13.834316366030475" stroke-width="0.03" stroke="#000000" fill="none"/>
<path d="M23.193749999999998 13.653668879459815L23.40234375 13.533237221746042" stroke-width="0.03" stroke="#000000" fill="none"/>
<path d="M21.837890625 13.352589735175382L21.837890625 12.87086310432029" stroke-width="0.03" stroke="#000000" fill="none"/>
<path d="M21.629296875 12.750431446606514L20.89921875 13.171942248604722" stroke-width="0.03" stroke="#000000" fill="none"/>
<path d="M21.212109374999997 12.991294762034062L20.89921875 12.8106472754634" stroke-width="0.03" stroke="#000000" fill="none"/>
<path d="M20.89921875 12.690215617749628L17.7703125 14.49669048345623L17.7703125 14.737553798883777" stroke-width="0.03" stroke="#000000" fill="none"/>
<path d="M17.7703125 14.49669048345623L17.353125 14.255827168028683" stroke-width="0.03" stroke="#000000" fill="none"/>
<path d="M17.457421875 15.159064600881985L19.126171875 14.195611339171796" stroke-width="0.03" stroke="#000000" fill="none"/>
<path d="M19.751953125 14.556906312313117L18.917578125000002 15.038632943168212L18.917578125000002 15.159064600881985L17.457421875 16.0020862048784" stroke-width="0.03" stroke="#000000" fill="none"/>
<path d="M17.56171875 15.94187037602151L17.56171875 15.339712087452645L18.396093750000002 14.85798545659755L18.500390624999998 14.918201285454437L18.500390624999998 15.399927916309531" stroke-width="0.03" stroke="#000000" fill="none"/>
<path d="M18.6046875 15.339712087452645L19.334765625 15.761222889450853L19.334765625 15.881654547164626L18.291796875 16.483812835733495" stroke-width="0.03" stroke="#000000" fill="none"/>
<path d="M18.1875 16.423597006876605L19.334765625 15.761222889450853" stroke-width="0.03" stroke="#000000" fill="none"/>
<path d="M19.334765625 15.881654547164626L19.960546875000002 16.24294952030595" stroke-width="0.03" stroke="#000000" fill="none"/>
<path d="M19.85625 16.303165349162832L19.85625 16.18273369144906L21.31640625 15.339712087452645" stroke-width="0.03" stroke="#000000" fill="none"/>
<path d="M21.212109374999997 15.399927916309531L19.751953125 14.556906312313117" stroke-width="0.03" stroke="#000000" fill="none"/>
<path d="M18.917578125000002 15.038632943168212L20.377734375 15.881654547164626" stroke-width="0.03" stroke="#000000" fill="none"/>
<path d="M20.2734375 15.94187037602151L18.917578125000002 15.159064600881985" stroke-width="0.03" stroke="#000000" fill="none"/>
<path d="M18.500390624999998 14.918201285454437L17.666015625 15.399927916309531L17.666015625 15.881654547164626" stroke-width="0.03" stroke="#000000" fill="none"/>
<path d="M17.56171875 15.701007060593964L17.457421875 15.761222889450853L14.85 14.255827168028683L14.85 13.653668879459815L17.457421875 15.159064600881985L17.457421875 15.761222889450853" stroke-width="0.03" stroke="#000000" fill="none"/>
<path d="M17.666015625 15.399927916309531L17.56171875 15.339712087452645" stroke-width="0.03" stroke="#000000" fill="none"/>
<path d="M17.874609375000002 17.44726609744368L18.1875 17.62791358401434L18.1875 18.350503530296983" stroke-width="0.03" stroke="#000000" fill="none"/>
<path d="M18.500390624999998 18.16985604372632L19.751953125 18.892445990008962L21.525000000000002 17.86877689944189" stroke-width="0.03" stroke="#000000" fill="none"/>
<path d="M21.525000000000002 17.50748192630057L25.383984374999997 15.279496258595758L25.696875000000002 15.460143745166418L25.696875000000002 16.18273369144906L22.98515625 17.748345241728117L22.98515625 18.95266181886585L24.966796875000004 17.808561070585L24.966796875000004 18.77201433229519L25.383984374999997 19.01287764772274L24.4453125 19.554820107434715L24.028125 19.31395679200717L24.028125 19.434388449720945L22.359375 20.397841711431134" stroke-width="0.03" stroke="#000000" fill="none"/>
<path d="M22.255078124999997 20.337625882574244L22.880859375 20.698920855715564L22.880859375 20.939784171143113L21.733593749999997 21.602158288568866L21.733593749999997 22.08388491942396L21.9421875 22.204316577137735L25.07109375 20.397841711431134L25.07109375 19.916115080576038L24.549609375 19.615035936291605L24.4453125 19.67525176514849L24.028125 19.434388449720945" stroke-width="0.03" stroke="#000000" fill="none"/>
<path d="M24.028125 19.31395679200717L24.966796875000004 18.77201433229519" stroke-width="0.03" stroke="#000000" fill="none"/>
<path d="M25.383984374999997 19.01287764772274L25.383984374999997 17.44726609744368L24.4453125 16.905323637731698" stroke-width="0.03" stroke="#000000" fill="none"/>
<path d="M24.653906250000002 16.784891980017925L25.592578125 17.326834439729907L25.592578125 21.301079144284433" stroke-width="0.03" stroke="#000000" fill="none"/>
<path d="M25.383984374999997 21.18064748657066L25.383984374999997 19.253740963150285L24.653906250000002 19.67525176514849" stroke-width="0.03" stroke="#000000" fill="none"/>
<path d="M24.4453125 19.67525176514849L24.4453125 19.554820107434715" stroke-width="0.03" stroke="#000000" fill="none"/>
<path d="M24.966796875000004 19.49460427857783L24.966796875000004 19.85589925171915" stroke-width="0.03" stroke="#000000" fill="none"/>
<path d="M25.07109375 19.916115080576038L21.9421875 21.72258994628264L21.733593749999997 21.602158288568866" stroke-width="0.03" stroke="#000000" fill="none"/>
<path d="M21.9421875 21.72258994628264L21.9421875 22.204316577137735" stroke-width="0.03" stroke="#000000" fill="none"/>
<path d="M21.212109374999997 21.662374117425752L22.880859375 20.698920855715564" stroke-width="0.03" stroke="#000000" fill="none"/>
<path d="M22.880859375 19.976330909432924L22.046484375000002 20.458057540288017L21.9421875 20.397841711431134L20.482031250000002 21.240863315427546" stroke-width="0.03" stroke="#000000" fill="none"/>
<path d="M20.586328125 21.18064748657066L21.107812499999998 21.481726630855093L21.9421875 21L21.9421875 20.879568342286227L21.525000000000002 20.63870502685868" stroke-width="0.03" stroke="#000000" fill="none"/>
<path d="M21.629296875 20.57848919800179L21.629296875 19.735467594005378L21.525000000000002 19.67525176514849L21.525000000000002 18.95266181886585" stroke-width="0.03" stroke="#000000" fill="none"/>
<path d="M21.525000000000002 19.073093476579622L22.98515625 18.23007187258321" stroke-width="0.03" stroke="#000000" fill="none"/>
<path d="M22.880859375 18.290287701440096L22.880859375 19.976330909432924" stroke-width="0.03" stroke="#000000" fill="none"/>
<path d="M22.046484375000002 20.458057540288017L22.046484375000002 18.77201433229519" stroke-width="0.03" stroke="#000000" fill="none"/>
<path d="M21.9421875 18.832230161152076L21.9421875 20.397841711431134" stroke-width="0.03" stroke="#000000" fill="none"/>
<path d="M21.9421875 20.879568342286227L21.107812499999998 21.36129497314132L20.690625 21.120431657713773" stroke-width="0.03" stroke="#000000" fill="none"/>
<path d="M20.794921875 21.301079144284433L20.690625 21.36129497314132L20.690625 24.37208641598566L21.212109374999997 24.673165560270093L18.6046875 26.17856128169226L18.6046875 28.105467805112635L17.978906249999998 27.744172831971316" stroke-width="0.03" stroke="#000000" fill="none"/>
<path d="M18.083203125 27.804388660828202L18.083203125 29.731295184248577L18.500390624999998 29.972158499676127L18.500390624999998 30.0925901573899L19.021874999999998 30.393669301674333L19.439062500000002 30.152805986246786L19.439062500000002 26.53985625483358L19.23046875 26.419424597119807L18.81328125 26.660287912547354L18.81328125 27.985036147398862L18.6046875 28.105467805112635" stroke-width="0.03" stroke="#000000" fill="none"/>
<path d="M17.978906249999998 28.46676277825396L16.51875 29.30978438225037" stroke-width="0.03" stroke="#000000" fill="none"/>
<path d="M16.51875 29.430216039964147L16.51875 27.744172831971316L16.414453125 27.68395700311443" stroke-width="0.03" stroke="#000000" fill="none"/>
<path d="M16.414453125 27.804388660828202L17.040234375 27.443093687686883L17.040234375 26.238777110549147" stroke-width="0.03" stroke="#000000" fill="none"/>
<path d="M17.14453125 26.17856128169226L17.14453125 27.50330951654377L17.874609375000002 27.081798714545563" stroke-width="0.03" stroke="#000000" fill="none"/>
<path d="M17.874609375000002 26.96136705683179L18.291796875 27.202230372259333L18.396093750000002 27.142014543402446L18.396093750000002 26.17856128169226L17.874609375000002 25.877482137407824" stroke-width="0.03" stroke="#000000" fill="none"/>
<path d="M17.874609375000002 25.75705047969405L17.874609375000002 27.443093687686883L17.978906249999998 27.50330951654377L17.978906249999998 28.46676277825396" stroke-width="0.03" stroke="#000000" fill="none"/>
<path d="M17.978906249999998 27.50330951654377L16.51875 28.346331120540185" stroke-width="0.03" stroke="#000000" fill="none"/>
<path d="M16.51875 28.22589946282641L17.874609375000002 27.443093687686883" stroke-width="0.03" stroke="#000000" fill="none"/>
<path d="M18.291796875 27.202230372259333L18.291796875 26.238777110549147L17.874609375000002 25.9979137951216" stroke-width="0.03" stroke="#000000" fill="none"/>
<path d="M18.083203125 25.9979137951216L18.083203125 25.877482137407824L20.690625 24.37208641598566" stroke-width="0.03" stroke="#000000" fill="none"/>
<path d="M21.212109374999997 24.673165560270093L21.212109374999997 21.662374117425752L20.690625 21.36129497314132" stroke-width="0.03" stroke="#000000" fill="none"/>
<path d="M21.107812499999998 21.36129497314132L21.107812499999998 21.481726630855093" stroke-width="0.03" stroke="#000000" fill="none"/>
<path d="M20.482031250000002 20.397841711431134L21.629296875 19.735467594005378" stroke-width="0.03" stroke="#000000" fill="none"/>
<path d="M21.525000000000002 19.67525176514849L20.482031250000002 20.277410053717357" stroke-width="0.03" stroke="#000000" fill="none"/>
<path d="M19.751953125 19.615035936291605L19.439062500000002 19.795683422862265L19.439062500000002 20.156978396003588L18.81328125 19.795683422862265L18.81328125 19.434388449720945L19.126171875 19.253740963150285L19.751953125 19.615035936291605L19.751953125 18.892445990008962" stroke-width="0.03" stroke="#000000" fill="none"/>
<path d="M19.126171875 19.253740963150285L19.126171875 17.808561070585" stroke-width="0.03" stroke="#000000" fill="none"/>
<path d="M18.500390624999998 17.44726609744368L18.1875 17.62791358401434" stroke-width="0.03" stroke="#000000" fill="none"/>
<path d="M19.23046875 17.025755295445475L20.89921875 16.062302033735286" stroke-width="0.03" stroke="#000000" fill="none"/>
<path d="M20.89921875 16.303165349162832L21.525000000000002 15.94187037602151L21.525000000000002 15.460143745166418L20.690625 15.94187037602151" stroke-width="0.03" stroke="#000000" fill="none"/>
<path d="M22.359375 15.94187037602151L25.07109375 14.376258825742458" stroke-width="0.03" stroke="#000000" fill="none"/>
<path d="M25.696875000000002 15.460143745166418L22.98515625 17.025755295445475L22.98515625 16.66446032230415L22.672265625 16.483812835733495L22.672265625 16.122517862592172L22.359375 15.94187037602151" stroke-width="0.03" stroke="#000000" fill="none"/>
<path d="M23.089453125000002 16.24294952030595L23.40234375 16.423597006876605" stroke-width="0.03" stroke="#000000" fill="none"/>
<path d="M23.506640625 16.0020862048784L23.923828125000004 15.761222889450853L24.23671875 15.94187037602151" stroke-width="0.03" stroke="#000000" fill="none"/>
<path d="M23.923828125000004 15.761222889450853L23.923828125000004 15.399927916309531" stroke-width="0.03" stroke="#000000" fill="none"/>
<path d="M23.506640625 15.640791231737078L23.506640625 16.0020862048784L23.819531249999997 16.18273369144906" stroke-width="0.03" stroke="#000000" fill="none"/>
<path d="M23.923828125000004 17.206402782016134L24.966796875000004 17.808561070585" stroke-width="0.03" stroke="#000000" fill="none"/>
<path d="M25.383984374999997 17.44726609744368L25.592578125 17.326834439729907" stroke-width="0.03" stroke="#000000" fill="none"/>
<path d="M26.009765625 19.615035936291605L25.592578125 19.85589925171915" stroke-width="0.03" stroke="#000000" fill="none"/>
<path d="M25.592578125 20.337625882574244L26.9484375 21.120431657713773L26.9484375 24.13122310055811L27.052734375 24.071007271701223L26.9484375 24.010791442844337" stroke-width="0.03" stroke="#000000" fill="none"/>
<path d="M27.052734375 24.071007271701223L27.052734375 27.92482031854198L26.9484375 27.985036147398862L26.9484375 28.105467805112635L23.610937500000002 30.032374328533013L23.506640625 29.972158499676127" stroke-width="0.03" stroke="#000000" fill="none"/>
<path d="M23.610937500000002 29.91194267081924L21.003515625000002 31.41733839224141L19.647656249999997 30.63453261710188" stroke-width="0.03" stroke="#000000" fill="none"/>
<path d="M19.23046875 30.87539593252943L19.23046875 31.35712256338452L21.003515625000002 32.3807916539516L22.463671875 31.53777004995518L22.463671875 30.574316788244992L21.525000000000002 30.032374328533013L21.212109374999997 30.21302181510367L21.003515625000002 30.0925901573899" stroke-width="0.03" stroke="#000000" fill="none"/>
<path d="M21.212109374999997 30.21302181510367L21.212109374999997 29.972158499676127" stroke-width="0.03" stroke="#000000" fill="none"/>
<path d="M20.690625 30.273237643960556L22.359375 29.30978438225037L22.359375 25.45597133540962L22.150781249999998 25.335539677695845L20.482031250000002 26.29899293940603L20.482031250000002 27.021582885688677L19.439062500000002 27.623741174257542" stroke-width="0.03" stroke="#000000" fill="none"/>
<path d="M19.647656249999997 27.50330951654377L19.751953125 27.563525345400656L19.85625 27.50330951654377L19.85625 27.382877858829996" stroke-width="0.03" stroke="#000000" fill="none"/>
<path d="M19.751953125 27.443093687686883L19.751953125 29.731295184248577L20.690625 30.273237643960556L20.690625 26.419424597119807L20.482031250000002 26.29899293940603" stroke-width="0.03" stroke="#000000" fill="none"/>
<path d="M20.690625 26.419424597119807L22.359375 25.45597133540962" stroke-width="0.03" stroke="#000000" fill="none"/>
<path d="M22.463671875 25.27532384883896L25.801171875 23.348417325418584L25.801171875 21.42151080199821L24.8625 20.879568342286227L22.880859375 22.023669090567072" stroke-width="0.03" stroke="#000000" fill="none"/>
<path d="M22.880859375 21.903237432853302L22.98515625 21.96345326171019L22.98515625 22.08388491942396L22.880859375 22.14410074828085" stroke-width="0.03" stroke="#000000" fill="none"/>
<path d="M22.880859375 21.662374117425752L22.880859375 22.866690694563488L22.255078124999997 23.227985667704807L22.255078124999997 25.154892191125185L22.463671875 25.27532384883896L22.463671875 23.348417325418584L22.255078124999997 23.227985667704807" stroke-width="0.03" stroke="#000000" fill="none"/>
<path d="M22.463671875 23.348417325418584L25.801171875 21.42151080199821" stroke-width="0.03" stroke="#000000" fill="none"/>
<path d="M25.801171875 21.782805775139526L26.009765625 21.903237432853302L26.009765625 22.264532405994622L26.9484375 22.8064748657066L27.7828125 22.32474823485151L27.7828125 20.63870502685868L26.009765625 19.615035936291605" stroke-width="0.03" stroke="#000000" fill="none"/>
<path d="M24.966796875000004 20.458057540288017L24.966796875000004 20.939784171143113" stroke-width="0.03" stroke="#000000" fill="none"/>
<path d="M25.801171875 22.023669090567072L26.009765625 21.903237432853302" stroke-width="0.03" stroke="#000000" fill="none"/>
<path d="M26.9484375 21.120431657713773L27.7828125 20.63870502685868" stroke-width="0.03" stroke="#000000" fill="none"/>
<path d="M25.592578125 23.468848983132357L25.592578125 24.071007271701223L25.383984374999997 24.191438929414996L25.279687499999998 24.13122310055811" stroke-width="0.03" stroke="#000000" fill="none"/>
<path d="M25.383984374999997 24.191438929414996L25.383984374999997 23.58928064084613" stroke-width="0.03" stroke="#000000" fill="none"/>
<path d="M25.279687499999998 23.649496469703017L25.279687499999998 24.251654758271883L22.880859375 25.636618821980278L22.880859375 28.40654694939707L22.359375 28.7076260936815" stroke-width="0.03" stroke="#000000" fill="none"/>
<path d="M22.359375 28.828057751395274L22.880859375 28.526978607110845L22.880859375 28.767841922538388L22.359375 29.068921066822824" stroke-width="0.03" stroke="#000000" fill="none"/>
<path d="M22.7765625 28.46676277825396L22.880859375 28.526978607110845" stroke-width="0.03" stroke="#000000" fill="none"/>
<path d="M23.610937500000002 29.91194267081924L23.610937500000002 30.032374328533013" stroke-width="0.03" stroke="#000000" fill="none"/>
<path d="M21.003515625000002 31.41733839224141L21.003515625000002 32.3807916539516" stroke-width="0.03" stroke="#000000" fill="none"/>
<path d="M20.482031250000002 30.152805986246786L17.040234375 32.139928338524044L16.1015625 31.597985878812068" stroke-width="0.03" stroke="#000000" fill="none"/>
<path d="M16.1015625 31.35712256338452L17.040234375 31.8990650230965L18.396093750000002 31.11625924795697L18.396093750000002 30.032374328533013L18.500390624999998 29.972158499676127" stroke-width="0.03" stroke="#000000" fill="none"/>
<path d="M18.396093750000002 30.032374328533013L17.978906249999998 29.791511013105463L17.978906249999998 30.87539593252943L17.14453125 31.35712256338452L16.1015625 30.754964274815652" stroke-width="0.03" stroke="#000000" fill="none"/>
<path d="M15.162890625 30.694748445958766L14.85 30.514100959388106L14.537109375 30.694748445958766" stroke-width="0.03" stroke="#000000" fill="none"/>
<path d="M14.85 30.514100959388106L14.85 25.0946763622683L13.598437500000001 24.37208641598566L13.80703125 24.251654758271883L13.80703125 22.204316577137735L14.328515625 21.903237432853302L14.85 22.204316577137735L15.371484375 21.903237432853302L15.89296875 22.204316577137735L15.89296875 24.251654758271883L16.1015625 24.37208641598566L16.1015625 25.215108019982072" stroke-width="0.03" stroke="#000000" fill="none"/>
<path d="M15.47578125 25.215108019982072L15.47578125 25.576402993123395" stroke-width="0.03" stroke="#000000" fill="none"/>
<path d="M15.47578125 26.29899293940603L15.47578125 28.346331120540185" stroke-width="0.03" stroke="#000000" fill="none"/>
<path d="M15.162890625 28.526978607110845L15.162890625 32.98294994252046L15.47578125 33.163597429091126L16.1015625 32.8023024559498L16.1015625 29.67107935539169L17.14453125 29.068921066822824L17.14453125 31.35712256338452" stroke-width="0.03" stroke="#000000" fill="none"/>
<path d="M17.040234375 31.8990650230965L17.040234375 32.139928338524044" stroke-width="0.03" stroke="#000000" fill="none"/>
<path d="M17.978906249999998 30.87539593252943L18.396093750000002 31.11625924795697" stroke-width="0.03" stroke="#000000" fill="none"/>
<path d="M18.6046875 30.995827590243202L20.2734375 30.032374328533013" stroke-width="0.03" stroke="#000000" fill="none"/>
<path d="M19.85625 29.791511013105463L19.439062500000002 30.032374328533013" stroke-width="0.03" stroke="#000000" fill="none"/>
<path d="M19.021874999999998 30.393669301674333L19.021874999999998 26.780719570261127L18.81328125 26.660287912547354" stroke-width="0.03" stroke="#000000" fill="none"/>
<path d="M19.021874999999998 26.780719570261127L19.439062500000002 26.53985625483358" stroke-width="0.03" stroke="#000000" fill="none"/>
<path d="M18.6046875 26.17856128169226L18.083203125 25.877482137407824" stroke-width="0.03" stroke="#000000" fill="none"/>
<path d="M18.291796875 26.238777110549147L18.396093750000002 26.17856128169226" stroke-width="0.03" stroke="#000000" fill="none"/>
<path d="M17.14453125 27.50330951654377L17.040234375 27.443093687686883" stroke-width="0.03" stroke="#000000" fill="none"/>
<path d="M16.1015625 26.780719570261127L15.47578125 27.142014543402446L14.85 26.780719570261127L14.224218749999999 27.142014543402446L13.598437500000001 26.780719570261127L13.598437500000001 28.7076260936815" stroke-width="0.03" stroke="#000000" fill="none"/>
<path d="M13.80703125 28.58719443596773L13.80703125 29.30978438225037L13.389843749999999 29.550647697677917L13.389843749999999 28.58719443596773" stroke-width="0.03" stroke="#000000" fill="none"/>
<path d="M13.181249999999999 28.346331120540185L11.72109375 27.50330951654377L11.825390624999999 27.443093687686883L11.825390624999999 25.75705047969405" stroke-width="0.03" stroke="#000000" fill="none"/>
<path d="M11.825390624999999 25.877482137407824L11.303906249999999 26.17856128169226L11.303906249999999 27.142014543402446L11.408203125 27.202230372259333L11.825390624999999 26.96136705683179" stroke-width="0.03" stroke="#000000" fill="none"/>
<path d="M11.825390624999999 27.081798714545563L12.555468750000001 27.50330951654377L12.659765624999999 27.443093687686883L12.659765624999999 26.238777110549147" stroke-width="0.03" stroke="#000000" fill="none"/>
<path d="M12.555468750000001 26.17856128169226L12.555468750000001 27.50330951654377" stroke-width="0.03" stroke="#000000" fill="none"/>
<path d="M12.659765624999999 27.443093687686883L13.285546875 27.804388660828202" stroke-width="0.03" stroke="#000000" fill="none"/>
<path d="M13.285546875 27.68395700311443L13.181249999999999 27.744172831971316L13.181249999999999 29.430216039964147" stroke-width="0.03" stroke="#000000" fill="none"/>
<path d="M13.181249999999999 29.30978438225037L11.72109375 28.46676277825396L11.72109375 27.50330951654377" stroke-width="0.03" stroke="#000000" fill="none"/>
<path d="M11.825390624999999 27.443093687686883L13.181249999999999 28.22589946282641" stroke-width="0.03" stroke="#000000" fill="none"/>
<path d="M12.555468750000001 29.068921066822824L12.555468750000001 31.35712256338452L11.72109375 30.87539593252943L11.303906249999999 31.11625924795697L11.303906249999999 30.032374328533013L11.72109375 29.791511013105463L11.616796874999999 29.731295184248577L11.199609375 29.972158499676127L11.199609375 30.0925901573899L10.678125 30.393669301674333L10.260937499999999 30.152805986246786L10.260937499999999 26.53985625483358L10.46953125 26.419424597119807L10.88671875 26.660287912547354L10.88671875 27.985036147398862L11.095312499999999 28.105467805112635L11.72109375 27.744172831971316" stroke-width="0.03" stroke="#000000" fill="none"/>
<path d="M11.616796874999999 27.804388660828202L11.616796874999999 29.731295184248577" stroke-width="0.03" stroke="#000000" fill="none"/>
<path d="M11.72109375 29.791511013105463L11.72109375 30.87539593252943" stroke-width="0.03" stroke="#000000" fill="none"/>
<path d="M11.303906249999999 31.11625924795697L12.659765624999999 31.8990650230965L13.598437500000001 31.35712256338452" stroke-width="0.03" stroke="#000000" fill="none"/>
<path d="M13.598437500000001 31.597985878812068L12.659765624999999 32.139928338524044L9.21796875 30.152805986246786" stroke-width="0.03" stroke="#000000" fill="none"/>
<path d="M9.4265625 30.032374328533013L11.095312499999999 30.995827590243202L11.095312499999999 30.152805986246786" stroke-width="0.03" stroke="#000000" fill="none"/>
<path d="M11.199609375 29.972158499676127L11.303906249999999 30.032374328533013" stroke-width="0.03" stroke="#000000" fill="none"/>
<path d="M11.095312499999999 30.514100959388106L10.782421874999999 30.333453472817446" stroke-width="0.03" stroke="#000000" fill="none"/>
<path d="M10.678125 30.393669301674333L10.678125 26.780719570261127L10.88671875 26.660287912547354" stroke-width="0.03" stroke="#000000" fill="none"/>
<path d="M10.678125 26.780719570261127L10.260937499999999 26.53985625483358" stroke-width="0.03" stroke="#000000" fill="none"/>
<path d="M11.095312499999999 26.17856128169226L11.616796874999999 25.877482137407824L9.009374999999999 24.37208641598566L8.487890625 24.673165560270093L11.095312499999999 26.17856128169226L11.095312499999999 28.105467805112635" stroke-width="0.03" stroke="#000000" fill="none"/>
<path d="M11.408203125 27.202230372259333L11.408203125 26.238777110549147L11.825390624999999 25.9979137951216" stroke-width="0.03" stroke="#000000" fill="none"/>
<path d="M11.616796874999999 25.9979137951216L11.616796874999999 25.877482137407824" stroke-width="0.03" stroke="#000000" fill="none"/>
<path d="M11.408203125 26.238777110549147L11.303906249999999 26.17856128169226" stroke-width="0.03" stroke="#000000" fill="none"/>
<path d="M10.260937499999999 27.623741174257542L9.21796875 27.021582885688677L9.21796875 26.29899293940603L7.5492187500000005 25.335539677695845L7.340624999999999 25.45597133540962L7.340624999999999 29.30978438225037L9.009374999999999 30.273237643960556L9.948046875 29.731295184248577L9.948046875 27.443093687686883" stroke-width="0.03" stroke="#000000" fill="none"/>
<path d="M9.84375 27.382877858829996L9.84375 27.50330951654377L9.948046875 27.563525345400656L10.05234375 27.50330951654377" stroke-width="0.03" stroke="#000000" fill="none"/>
<path d="M9.21796875 26.29899293940603L9.009374999999999 26.419424597119807L9.009374999999999 30.273237643960556" stroke-width="0.03" stroke="#000000" fill="none"/>
<path d="M8.696484375 30.0925901573899L8.487890625 30.21302181510367L8.175 30.032374328533013L7.236328125 30.574316788244992L7.236328125 31.53777004995518L8.696484375 32.3807916539516L10.46953125 31.35712256338452L10.46953125 30.87539593252943" stroke-width="0.03" stroke="#000000" fill="none"/>
<path d="M10.05234375 30.63453261710188L8.696484375 31.41733839224141L8.696484375 32.3807916539516" stroke-width="0.03" stroke="#000000" fill="none"/>
<path d="M8.696484375 31.41733839224141L6.089062499999999 29.91194267081924L6.089062499999999 30.032374328533013L6.193359375 29.972158499676127" stroke-width="0.03" stroke="#000000" fill="none"/>
<path d="M6.089062499999999 30.032374328533013L2.7515624999999995 28.105467805112635L2.7515624999999995 27.985036147398862L2.647265625000001 27.92482031854198L2.647265625000001 24.071007271701223L2.7515624999999995 24.010791442844337" stroke-width="0.03" stroke="#000000" fill="none"/>
<path d="M2.647265625000001 24.071007271701223L2.7515624999999995 24.13122310055811L2.7515624999999995 21.120431657713773L4.107421875 20.337625882574244" stroke-width="0.03" stroke="#000000" fill="none"/>
<path d="M4.107421875 19.85589925171915L3.6902343750000006 19.615035936291605L1.9171874999999992 20.63870502685868L1.9171874999999992 22.32474823485151L2.7515624999999995 22.8064748657066L3.6902343750000006 22.264532405994622L3.6902343750000006 21.903237432853302L3.898828125 21.782805775139526" stroke-width="0.03" stroke="#000000" fill="none"/>
<path d="M3.898828125 22.023669090567072L3.6902343750000006 21.903237432853302" stroke-width="0.03" stroke="#000000" fill="none"/>
<path d="M3.898828125 21.42151080199821L4.8374999999999995 20.879568342286227L6.819140625 22.023669090567072" stroke-width="0.03" stroke="#000000" fill="none"/>
<path d="M6.819140625 21.903237432853302L6.714843749999999 21.96345326171019L6.714843749999999 22.08388491942396L6.819140625 22.14410074828085" stroke-width="0.03" stroke="#000000" fill="none"/>
<path d="M6.819140625 21.662374117425752L6.819140625 22.866690694563488L7.4449218749999995 23.227985667704807L7.4449218749999995 25.154892191125185L7.236328125 25.27532384883896L3.898828125 23.348417325418584L3.898828125 21.42151080199821L7.236328125 23.348417325418584L7.236328125 25.27532384883896" stroke-width="0.03" stroke="#000000" fill="none"/>
<path d="M7.340624999999999 25.45597133540962L9.009374999999999 26.419424597119807" stroke-width="0.03" stroke="#000000" fill="none"/>
<path d="M8.487890625 24.673165560270093L8.487890625 21.662374117425752L6.819140625 20.698920855715564L7.4449218749999995 20.337625882574244" stroke-width="0.03" stroke="#000000" fill="none"/>
<path d="M7.340624999999999 20.397841711431134L5.671875 19.434388449720945L5.671875 19.31395679200717L4.733203124999998 18.77201433229519L4.733203124999998 17.808561070585L5.776171874999998 17.206402782016134" stroke-width="0.03" stroke="#000000" fill="none"/>
<path d="M5.254687500000001 16.905323637731698L4.3160156249999995 17.44726609744368L4.3160156249999995 19.01287764772274L5.254687500000001 19.554820107434715L5.671875 19.31395679200717" stroke-width="0.03" stroke="#000000" fill="none"/>
<path d="M5.671875 19.434388449720945L5.254687500000001 19.67525176514849L5.150390625 19.615035936291605L4.62890625 19.916115080576038L4.62890625 20.397841711431134L7.7578125 22.204316577137735L7.96640625 22.08388491942396L7.96640625 21.602158288568866L6.819140625 20.939784171143113L6.819140625 20.698920855715564" stroke-width="0.03" stroke="#000000" fill="none"/>
<path d="M6.819140625 19.976330909432924L6.819140625 18.290287701440096" stroke-width="0.03" stroke="#000000" fill="none"/>
<path d="M6.714843749999999 18.23007187258321L8.175 19.073093476579622L8.279296875 19.01287764772274" stroke-width="0.03" stroke="#000000" fill="none"/>
<path d="M8.175 18.95266181886585L8.175 19.67525176514849L9.21796875 20.277410053717357" stroke-width="0.03" stroke="#000000" fill="none"/>
<path d="M9.21796875 20.397841711431134L8.070703124999998 19.735467594005378L8.070703124999998 20.57848919800179" stroke-width="0.03" stroke="#000000" fill="none"/>
<path d="M8.175 20.63870502685868L7.7578125 20.879568342286227L7.7578125 21L8.5921875 21.481726630855093L9.113671875 21.18064748657066" stroke-width="0.03" stroke="#000000" fill="none"/>
<path d="M9.009374999999999 21.120431657713773L8.5921875 21.36129497314132L7.7578125 20.879568342286227" stroke-width="0.03" stroke="#000000" fill="none"/>
<path d="M7.653515625 20.458057540288017L7.7578125 20.397841711431134L9.21796875 21.240863315427546" stroke-width="0.03" stroke="#000000" fill="none"/>
<path d="M9.009374999999999 21.36129497314132L8.487890625 21.662374117425752" stroke-width="0.03" stroke="#000000" fill="none"/>
<path d="M8.5921875 21.481726630855093L8.5921875 21.36129497314132" stroke-width="0.03" stroke="#000000" fill="none"/>
<path d="M8.905078125 21.301079144284433L9.009374999999999 21.36129497314132L9.009374999999999 24.37208641598566" stroke-width="0.03" stroke="#000000" fill="none"/>
<path d="M7.4449218749999995 23.227985667704807L7.236328125 23.348417325418584" stroke-width="0.03" stroke="#000000" fill="none"/>
<path d="M7.7578125 22.204316577137735L7.7578125 21.72258994628264L4.62890625 19.916115080576038" stroke-width="0.03" stroke="#000000" fill="none"/>
<path d="M4.733203124999998 19.85589925171915L4.733203124999998 19.49460427857783" stroke-width="0.03" stroke="#000000" fill="none"/>
<path d="M5.046093749999999 19.67525176514849L4.3160156249999995 19.253740963150285L4.3160156249999995 21.18064748657066" stroke-width="0.03" stroke="#000000" fill="none"/>
<path d="M4.107421875 21.301079144284433L4.107421875 17.326834439729907L5.046093749999999 16.784891980017925" stroke-width="0.03" stroke="#000000" fill="none"/>
<path d="M5.46328125 15.94187037602151L5.776171874999998 15.761222889450853L6.193359375 16.0020862048784L6.193359375 15.640791231737078" stroke-width="0.03" stroke="#000000" fill="none"/>
<path d="M6.193359375 16.0020862048784L5.88046875 16.18273369144906" stroke-width="0.03" stroke="#000000" fill="none"/>
<path d="M5.776171874999998 15.761222889450853L5.776171874999998 15.399927916309531" stroke-width="0.03" stroke="#000000" fill="none"/>
<path d="M6.297656249999999 14.617122141170004L6.297656249999999 13.533237221746042L9.739453124999999 11.54611486946878" stroke-width="0.03" stroke="#000000" fill="none"/>
<path d="M9.739453124999999 11.786978184896327L8.070703124999998 12.750431446606514L8.80078125 13.171942248604722" stroke-width="0.03" stroke="#000000" fill="none"/>
<path d="M8.80078125 13.292373906318495L8.80078125 12.690215617749628L9.21796875 12.44935230232208L12.346874999999999 14.255827168028683L12.346874999999999 14.49669048345623L11.9296875 14.737553798883777L10.782421874999999 14.075179681458023L10.573828124999999 14.195611339171796L10.573828124999999 14.918201285454437" stroke-width="0.03" stroke="#000000" fill="none"/>
<path d="M10.573828124999999 14.797769627740664L8.905078125 13.834316366030475L8.905078125 13.352589735175382L8.80078125 13.292373906318495" stroke-width="0.03" stroke="#000000" fill="none"/>
<path d="M8.905078125 13.352589735175382L8.80078125 13.412805564032269L8.80078125 13.894532194887363L7.862109374999999 13.352589735175382L7.027734374999999 13.834316366030475L7.027734374999999 15.038632943168212" stroke-width="0.03" stroke="#000000" fill="none"/>
<path d="M6.5062500000000005 14.737553798883777L6.5062500000000005 13.653668879459815L7.862109374999999 12.87086310432029L8.80078125 13.412805564032269" stroke-width="0.03" stroke="#000000" fill="none"/>
<path d="M8.905078125 13.834316366030475L8.80078125 13.894532194887363" stroke-width="0.03" stroke="#000000" fill="none"/>
<path d="M8.487890625 12.991294762034062L8.80078125 12.8106472754634" stroke-width="0.03" stroke="#000000" fill="none"/>
<path d="M8.80078125 12.690215617749628L11.9296875 14.49669048345623L11.9296875 14.737553798883777" stroke-width="0.03" stroke="#000000" fill="none"/>
<path d="M11.9296875 14.49669048345623L12.346874999999999 14.255827168028683" stroke-width="0.03" stroke="#000000" fill="none"/>
<path d="M12.242578125 15.159064600881985L14.85 13.653668879459815" stroke-width="0.03" stroke="#000000" fill="none"/>
<path d="M14.85 14.255827168028683L12.242578125 15.761222889450853L12.138281249999999 15.701007060593964" stroke-width="0.03" stroke="#000000" fill="none"/>
<path d="M12.242578125 15.761222889450853L12.242578125 15.159064600881985L10.573828124999999 14.195611339171796" stroke-width="0.03" stroke="#000000" fill="none"/>
<path d="M9.948046875 14.556906312313117L8.487890625 15.399927916309531" stroke-width="0.03" stroke="#000000" fill="none"/>
<path d="M8.38359375 15.339712087452645L9.84375 16.18273369144906L9.84375 16.303165349162832" stroke-width="0.03" stroke="#000000" fill="none"/>
<path d="M9.739453124999999 16.24294952030595L10.365234375 15.881654547164626L10.365234375 15.761222889450853L11.095312499999999 15.339712087452645" stroke-width="0.03" stroke="#000000" fill="none"/>
<path d="M11.199609375 15.399927916309531L11.199609375 14.918201285454437L11.303906249999999 14.85798545659755L12.138281249999999 15.339712087452645L12.138281249999999 15.94187037602151" stroke-width="0.03" stroke="#000000" fill="none"/>
<path d="M12.033984375000001 15.881654547164626L12.033984375000001 15.399927916309531L12.138281249999999 15.339712087452645" stroke-width="0.03" stroke="#000000" fill="none"/>
<path d="M12.033984375000001 15.399927916309531L11.199609375 14.918201285454437" stroke-width="0.03" stroke="#000000" fill="none"/>
<path d="M10.782421874999999 15.038632943168212L9.322265625 15.881654547164626" stroke-width="0.03" stroke="#000000" fill="none"/>
<path d="M9.4265625 15.94187037602151L10.782421874999999 15.159064600881985L12.242578125 16.0020862048784" stroke-width="0.03" stroke="#000000" fill="none"/>
<path d="M11.512500000000001 16.423597006876605L10.365234375 15.761222889450853" stroke-width="0.03" stroke="#000000" fill="none"/>
<path d="M10.365234375 15.881654547164626L11.408203125 16.483812835733495" stroke-width="0.03" stroke="#000000" fill="none"/>
<path d="M11.199609375 17.44726609744368L10.573828124999999 17.808561070585" stroke-width="0.03" stroke="#000000" fill="none"/>
<path d="M11.199609375 18.16985604372632L11.512500000000001 18.350503530296983L11.825390624999999 18.16985604372632L11.825390624999999 17.44726609744368" stroke-width="0.03" stroke="#000000" fill="none"/>
<path d="M12.033984375000001 17.44726609744368L14.85 19.073093476579622" stroke-width="0.03" stroke="#000000" fill="none"/>
<path d="M14.328515625 19.49460427857783L13.598437500000001 19.916115080576038L11.825390624999999 18.892445990008962" stroke-width="0.03" stroke="#000000" fill="none"/>
<path d="M11.825390624999999 19.253740963150285L13.598437500000001 20.277410053717357L13.598437500000001 19.916115080576038" stroke-width="0.03" stroke="#000000" fill="none"/>
<path d="M13.598437500000001 20.277410053717357L13.285546875 20.458057540288017L11.512500000000001 19.434388449720945" stroke-width="0.03" stroke="#000000" fill="none"/>
<path d="M11.303906249999999 18.95266181886585L12.555468750000001 18.23007187258321L12.555468750000001 18.470935188010756" stroke-width="0.03" stroke="#000000" fill="none"/>
<path d="M12.555468750000001 18.23007187258321L11.825390624999999 17.808561070585" stroke-width="0.03" stroke="#000000" fill="none"/>
<path d="M11.512500000000001 17.62791358401434L11.512500000000001 18.350503530296983" stroke-width="0.03" stroke="#000000" fill="none"/>
<path d="M11.303906249999999 18.95266181886585L11.303906249999999 20.397841711431134" stroke-width="0.03" stroke="#000000" fill="none"/>
<path d="M11.512500000000001 20.277410053717357L13.285546875 21.301079144284433L13.285546875 20.458057540288017" stroke-width="0.03" stroke="#000000" fill="none"/>
<path d="M13.80703125 20.397841711431134L14.745703124999999 20.939784171143113" stroke-width="0.03" stroke="#000000" fill="none"/>
<path d="M14.85 21L16.414453125 21.903237432853302L16.414453125 21.782805775139526" stroke-width="0.03" stroke="#000000" fill="none"/>
<path d="M16.414453125 21.903237432853302L16.31015625 21.96345326171019" stroke-width="0.03" stroke="#000000" fill="none"/>
<path d="M15.89296875 22.204316577137735L15.162890625 22.62582737913594L14.85 22.44517989256528L14.537109375 22.62582737913594L13.80703125 22.204316577137735" stroke-width="0.03" stroke="#000000" fill="none"/>
<path d="M14.537109375 22.62582737913594L14.537109375 24.673165560270093L14.85 24.492518073699433L15.162890625 24.673165560270093L15.89296875 24.251654758271883" stroke-width="0.03" stroke="#000000" fill="none"/>
<path d="M16.1015625 24.37208641598566L14.85 25.0946763622683" stroke-width="0.03" stroke="#000000" fill="none"/>
<path d="M15.162890625 24.673165560270093L15.162890625 22.62582737913594" stroke-width="0.03" stroke="#000000" fill="none"/>
<path d="M14.85 22.44517989256528L14.85 24.492518073699433" stroke-width="0.03" stroke="#000000" fill="none"/>
<path d="M14.537109375 24.673165560270093L13.80703125 24.251654758271883" stroke-width="0.03" stroke="#000000" fill="none"/>
<path d="M13.598437500000001 24.37208641598566L13.598437500000001 25.215108019982072" stroke-width="0.03" stroke="#000000" fill="none"/>
<path d="M14.224218749999999 26.29899293940603L14.224218749999999 28.346331120540185" stroke-width="0.03" stroke="#000000" fill="none"/>
<path d="M14.537109375 28.526978607110845L14.537109375 32.98294994252046L14.224218749999999 33.163597429091126L13.598437500000001 32.8023024559498L13.598437500000001 29.67107935539169L12.555468750000001 29.068921066822824" stroke-width="0.03" stroke="#000000" fill="none"/>
<path d="M14.224218749999999 30.032374328533013L14.224218749999999 33.163597429091126" stroke-width="0.03" stroke="#000000" fill="none"/>
<path d="M15.47578125 33.163597429091126L15.47578125 30.032374328533013L15.162890625 30.21302181510367L14.85 30.032374328533013L14.537109375 30.21302181510367L14.224218749999999 30.032374328533013" stroke-width="0.03" stroke="#000000" fill="none"/>
<path d="M13.598437500000001 30.754964274815652L12.555468750000001 31.35712256338452" stroke-width="0.03" stroke="#000000" fill="none"/>
<path d="M12.659765624999999 31.8990650230965L12.659765624999999 32.139928338524044" stroke-width="0.03" stroke="#000000" fill="none"/>
<path d="M14.537109375 31.658201707668955L14.85 31.477554221098295L15.162890625 31.658201707668955" stroke-width="0.03" stroke="#000000" fill="none"/>
<path d="M14.85 31.477554221098295L14.85 30.995827590243202L14.537109375 31.17647507681386" stroke-width="0.03" stroke="#000000" fill="none"/>
<path d="M14.85 30.995827590243202L15.162890625 31.17647507681386" stroke-width="0.03" stroke="#000000" fill="none"/>
<path d="M16.31015625 29.550647697677917L16.31015625 28.58719443596773" stroke-width="0.03" stroke="#000000" fill="none"/>
<path d="M16.1015625 28.7076260936815L16.1015625 26.780719570261127" stroke-width="0.03" stroke="#000000" fill="none"/>
<path d="M15.89296875 28.58719443596773L15.89296875 29.30978438225037L16.31015625 29.550647697677917" stroke-width="0.03" stroke="#000000" fill="none"/>
<path d="M17.978906249999998 29.791511013105463L18.083203125 29.731295184248577" stroke-width="0.03" stroke="#000000" fill="none"/>
<path d="M18.6046875 30.152805986246786L18.6046875 30.995827590243202" stroke-width="0.03" stroke="#000000" fill="none"/>
<path d="M18.6046875 30.514100959388106L18.917578125000002 30.333453472817446" stroke-width="0.03" stroke="#000000" fill="none"/>
<path d="M22.880859375 26.479640425976694L23.610937500000002 26.058129623978488L23.610937500000002 25.215108019982072" stroke-width="0.03" stroke="#000000" fill="none"/>
<path d="M23.40234375 25.335539677695845L23.40234375 25.937697966264714L22.880859375 26.238777110549147" stroke-width="0.03" stroke="#000000" fill="none"/>
<path d="M22.880859375 25.9979137951216L23.193749999999998 25.817266308550938L23.193749999999998 25.45597133540962" stroke-width="0.03" stroke="#000000" fill="none"/>
<path d="M23.193749999999998 25.817266308550938L22.880859375 25.636618821980278" stroke-width="0.03" stroke="#000000" fill="none"/>
<path d="M23.40234375 25.937697966264714L23.610937500000002 26.058129623978488" stroke-width="0.03" stroke="#000000" fill="none"/>
<path d="M21.525000000000002 19.073093476579622L21.420703125 19.01287764772274" stroke-width="0.03" stroke="#000000" fill="none"/>
<path d="M22.150781249999998 18.470935188010756L22.98515625 17.989208557155663L22.567968750000002 17.748345241728117L21.9421875 18.109640214869437" stroke-width="0.03" stroke="#000000" fill="none"/>
<path d="M22.150781249999998 18.23007187258321L20.482031250000002 19.193525134293395L20.482031250000002 18.470935188010756L19.85625 18.109640214869437L19.85625 17.387050268586794L19.23046875 17.025755295445475" stroke-width="0.03" stroke="#000000" fill="none"/>
<path d="M18.396093750000002 18.95266181886585L18.396093750000002 20.397841711431134L19.126171875 19.976330909432924" stroke-width="0.03" stroke="#000000" fill="none"/>
<path d="M19.439062500000002 19.795683422862265L18.81328125 19.434388449720945" stroke-width="0.03" stroke="#000000" fill="none"/>
<path d="M18.1875 19.434388449720945L16.414453125 20.458057540288017L16.1015625 20.277410053717357L16.1015625 19.916115080576038L17.874609375000002 18.892445990008962" stroke-width="0.03" stroke="#000000" fill="none"/>
<path d="M17.874609375000002 19.253740963150285L16.1015625 20.277410053717357" stroke-width="0.03" stroke="#000000" fill="none"/>
<path d="M15.89296875 20.397841711431134L14.954296875 20.939784171143113" stroke-width="0.03" stroke="#000000" fill="none"/>
<path d="M14.85 21.120431657713773L14.85 22.204316577137735" stroke-width="0.03" stroke="#000000" fill="none"/>
<path d="M16.414453125 21.301079144284433L16.414453125 20.458057540288017" stroke-width="0.03" stroke="#000000" fill="none"/>
<path d="M16.1015625 19.916115080576038L15.371484375 19.49460427857783" stroke-width="0.03" stroke="#000000" fill="none"/>
<path d="M18.1875 20.277410053717357L18.396093750000002 20.397841711431134" stroke-width="0.03" stroke="#000000" fill="none"/>
<path d="M13.181249999999999 23.76992812741679L12.97265625 23.649496469703017" stroke-width="0.03" stroke="#000000" fill="none"/>
<path d="M10.88671875 19.434388449720945L10.573828124999999 19.253740963150285" stroke-width="0.03" stroke="#000000" fill="none"/>
<path d="M11.303906249999999 18.95266181886585L6.610546875 16.24294952030595L6.297656249999999 16.423597006876605" stroke-width="0.03" stroke="#000000" fill="none"/>
<path d="M6.610546875 16.24294952030595L6.610546875 15.881654547164626" stroke-width="0.03" stroke="#000000" fill="none"/>
<path d="M7.027734374999999 16.122517862592172L7.340624999999999 15.94187037602151L4.62890625 14.376258825742458L4.62890625 14.737553798883777L8.487890625 16.965539466588588" stroke-width="0.03" stroke="#000000" fill="none"/>
<path d="M8.175 17.146186953159244L8.80078125 16.784891980017925" stroke-width="0.03" stroke="#000000" fill="none"/>
<path d="M8.80078125 16.303165349162832L8.175 15.94187037602151L8.175 15.460143745166418L9.009374999999999 15.94187037602151" stroke-width="0.03" stroke="#000000" fill="none"/>
<path d="M8.80078125 16.062302033735286L10.46953125 17.025755295445475L9.84375 17.387050268586794L9.84375 18.109640214869437L9.21796875 18.470935188010756L9.21796875 19.193525134293395L7.5492187500000005 18.23007187258321" stroke-width="0.03" stroke="#000000" fill="none"/>
<path d="M7.5492187500000005 18.470935188010756L6.714843749999999 17.989208557155663L7.13203125 17.748345241728117L7.7578125 18.109640214869437" stroke-width="0.03" stroke="#000000" fill="none"/>
<path d="M8.175 17.86877689944189L8.175 17.146186953159244" stroke-width="0.03" stroke="#000000" fill="none"/>
<path d="M8.175 17.50748192630057L4.3160156249999995 15.279496258595758L4.003124999999999 15.460143745166418L4.003124999999999 16.18273369144906L6.714843749999999 17.748345241728117L6.714843749999999 18.95266181886585L4.733203124999998 17.808561070585" stroke-width="0.03" stroke="#000000" fill="none"/>
<path d="M4.3160156249999995 17.44726609744368L4.107421875 17.326834439729907" stroke-width="0.03" stroke="#000000" fill="none"/>
<path d="M4.733203124999998 18.77201433229519L4.3160156249999995 19.01287764772274" stroke-width="0.03" stroke="#000000" fill="none"/>
<path d="M5.254687500000001 19.554820107434715L5.254687500000001 19.67525176514849" stroke-width="0.03" stroke="#000000" fill="none"/>
<path d="M4.733203124999998 20.458057540288017L4.733203124999998 20.939784171143113" stroke-width="0.03" stroke="#000000" fill="none"/>
<path d="M2.7515624999999995 21.120431657713773L1.9171874999999992 20.63870502685868" stroke-width="0.03" stroke="#000000" fill="none"/>
<path d="M4.107421875 23.468848983132357L4.107421875 24.071007271701223L4.3160156249999995 24.191438929414996L4.4203125 24.13122310055811" stroke-width="0.03" stroke="#000000" fill="none"/>
<path d="M4.4203125 24.251654758271883L4.4203125 23.649496469703017" stroke-width="0.03" stroke="#000000" fill="none"/>
<path d="M4.3160156249999995 23.58928064084613L4.3160156249999995 24.191438929414996" stroke-width="0.03" stroke="#000000" fill="none"/>
<path d="M4.4203125 24.251654758271883L6.819140625 25.636618821980278L6.819140625 28.40654694939707L7.340624999999999 28.7076260936815" stroke-width="0.03" stroke="#000000" fill="none"/>
<path d="M7.340624999999999 28.828057751395274L6.819140625 28.526978607110845L6.819140625 28.767841922538388L7.340624999999999 29.068921066822824" stroke-width="0.03" stroke="#000000" fill="none"/>
<path d="M6.9234374999999995 28.46676277825396L6.819140625 28.526978607110845" stroke-width="0.03" stroke="#000000" fill="none"/>
<path d="M6.819140625 26.479640425976694L6.089062499999999 26.058129623978488L6.089062499999999 25.215108019982072" stroke-width="0.03" stroke="#000000" fill="none"/>
<path d="M6.297656249999999 25.335539677695845L6.297656249999999 25.937697966264714L6.089062499999999 26.058129623978488" stroke-width="0.03" stroke="#000000" fill="none"/>
<path d="M6.297656249999999 25.937697966264714L6.819140625 26.238777110549147" stroke-width="0.03" stroke="#000000" fill="none"/>
<path d="M6.819140625 25.9979137951216L6.5062500000000005 25.817266308550938L6.5062500000000005 25.45597133540962" stroke-width="0.03" stroke="#000000" fill="none"/>
<path d="M6.5062500000000005 25.817266308550938L6.819140625 25.636618821980278" stroke-width="0.03" stroke="#000000" fill="none"/>
<path d="M7.7578125 21.72258994628264L7.96640625 21.602158288568866" stroke-width="0.03" stroke="#000000" fill="none"/>
<path d="M7.653515625 20.458057540288017L7.653515625 18.77201433229519" stroke-width="0.03" stroke="#000000" fill="none"/>
<path d="M7.7578125 18.832230161152076L7.7578125 20.397841711431134" stroke-width="0.03" stroke="#000000" fill="none"/>
<path d="M7.653515625 20.458057540288017L6.819140625 19.976330909432924" stroke-width="0.03" stroke="#000000" fill="none"/>
<path d="M8.070703124999998 19.735467594005378L8.175 19.67525176514849" stroke-width="0.03" stroke="#000000" fill="none"/>
<path d="M6.714843749999999 17.025755295445475L6.714843749999999 16.66446032230415L7.027734374999999 16.483812835733495L7.027734374999999 16.122517862592172" stroke-width="0.03" stroke="#000000" fill="none"/>
<path d="M6.714843749999999 17.025755295445475L4.003124999999999 15.460143745166418" stroke-width="0.03" stroke="#000000" fill="none"/>
<path d="M4.62890625 14.376258825742458L5.254687500000001 14.014963852601136L7.96640625 15.580575402880193L9.009374999999999 14.978417114311325L7.027734374999999 13.834316366030475" stroke-width="0.03" stroke="#000000" fill="none"/>
<path d="M6.5062500000000005 13.653668879459815L6.297656249999999 13.533237221746042" stroke-width="0.03" stroke="#000000" fill="none"/>
<path d="M7.862109374999999 13.352589735175382L7.862109374999999 12.87086310432029" stroke-width="0.03" stroke="#000000" fill="none"/>
<path d="M8.070703124999998 12.027841500323873L8.070703124999998 9.980503319189724L8.905078125 10.462229950044819L11.512500000000001 8.956834228622649L11.408203125 8.896618399765762L11.408203125 9.017050057479535" stroke-width="0.03" stroke="#000000" fill="none"/>
<path d="M11.408203125 8.896618399765762L14.745703124999999 6.969711876345386L14.85 7.029927705202272L14.954296875 6.969711876345386L18.291796875 8.896618399765762L18.291796875 9.017050057479535" stroke-width="0.03" stroke="#000000" fill="none"/>
<path d="M18.1875 8.956834228622649L18.291796875 8.896618399765762" stroke-width="0.03" stroke="#000000" fill="none"/>
<path d="M18.1875 8.956834228622649L20.794921875 10.462229950044819L20.794921875 12.027841500323873" stroke-width="0.03" stroke="#000000" fill="none"/>
<path d="M21.212109374999997 12.26870481575142L21.629296875 12.027841500323873L21.629296875 9.980503319189724L20.169140624999997 9.13748171519331L19.334765625 9.619208346048403L19.334765625 10.703093265472365L19.647656249999997 10.883740752043025L19.647656249999997 11.124604067470571" stroke-width="0.03" stroke="#000000" fill="none"/>
<path d="M19.439062500000002 11.004172409756798L19.647656249999997 10.883740752043025" stroke-width="0.03" stroke="#000000" fill="none"/>
<path d="M19.960546875000002 11.786978184896327L21.629296875 12.750431446606514" stroke-width="0.03" stroke="#000000" fill="none"/>
<path d="M20.377734375 12.509568131178968L19.960546875000002 12.26870481575142" stroke-width="0.03" stroke="#000000" fill="none"/>
<path d="M20.794921875 13.834316366030475L20.89921875 13.894532194887363" stroke-width="0.03" stroke="#000000" fill="none"/>
<path d="M20.794921875 10.462229950044819L21.629296875 9.980503319189724" stroke-width="0.03" stroke="#000000" fill="none"/>
<path d="M18.083203125 10.462229950044819L17.56171875 10.161150805760384L17.353125 10.281582463474159L17.353125 10.40201412118793" stroke-width="0.03" stroke="#000000" fill="none"/>
<path d="M17.353125 10.281582463474159L17.874609375000002 10.582661607758592" stroke-width="0.03" stroke="#000000" fill="none"/>
<path d="M17.7703125 10.642877436615478L17.248828125 10.341798292331045L14.85 11.72676235603944L12.451171875 10.341798292331045L11.9296875 10.642877436615478" stroke-width="0.03" stroke="#000000" fill="none"/>
<path d="M11.825390624999999 10.582661607758592L12.346874999999999 10.281582463474159L12.138281249999999 10.161150805760384L11.616796874999999 10.462229950044819" stroke-width="0.03" stroke="#000000" fill="none"/>
<path d="M12.346874999999999 10.40201412118793L12.346874999999999 10.281582463474159" stroke-width="0.03" stroke="#000000" fill="none"/>
<path d="M14.119921875 11.305251554041233L14.85 10.883740752043025L15.580078125 11.305251554041233" stroke-width="0.03" stroke="#000000" fill="none"/>
<path d="M15.371484375 11.425683211755006L14.85 11.124604067470571L14.85 10.883740752043025" stroke-width="0.03" stroke="#000000" fill="none"/>
<path d="M14.85 11.124604067470571L14.328515625 11.425683211755006" stroke-width="0.03" stroke="#000000" fill="none"/>
<path d="M14.537109375 11.54611486946878L14.85 11.365467382898117L15.162890625 11.54611486946878" stroke-width="0.03" stroke="#000000" fill="none"/>
<path d="M14.85 11.72676235603944L14.85 11.365467382898117" stroke-width="0.03" stroke="#000000" fill="none"/>
<path d="M9.739453124999999 12.26870481575142L9.322265625 12.509568131178968" stroke-width="0.03" stroke="#000000" fill="none"/>
<path d="M8.905078125 12.027841500323873L8.905078125 10.462229950044819" stroke-width="0.03" stroke="#000000" fill="none"/>
<path d="M8.070703124999998 12.027841500323873L8.487890625 12.26870481575142" stroke-width="0.03" stroke="#000000" fill="none"/>
<path d="M9.948046875 14.556906312313117L10.782421874999999 15.038632943168212L10.782421874999999 15.159064600881985" stroke-width="0.03" stroke="#000000" fill="none"/>
<path d="M9.237499999999999 2.533333333333333L1.5 2.533333333333333" stroke-width="0.03" stroke="#000000" fill="none"/>
<path d="M2.1166666666666667 2.2291666666666665L2.1166666666666667 1.8208333333333333" stroke-width="0.03" stroke="#000000" fill="none"/>
<path d="M2.0875 1.6166666666666667L2.1166666666666667 1.6458333333333333L2.145833333333333 1.6166666666666667L2.1166666666666667 1.5875L2.0875 1.6166666666666667" stroke-width="0.03" stroke="#000000" fill="none"/>
<path d="M2.3208333333333333 2.1416666666666666L2.35 2.2L2.4375 2.2291666666666665L2.525 2.2291666666666665L2.6125 2.2L2.6416666666666666 2.1416666666666666L2.6416666666666666 2.1125L2.6125 2.0541666666666667L2.5541666666666667 2.025L2.408333333333333 1.9958333333333333L2.35 1.9666666666666666L2.3208333333333333 1.9083333333333332L2.35 1.85L2.4375 1.8208333333333333L2.525 1.8208333333333333L2.6125 1.85L2.6416666666666666 1.9083333333333332" stroke-width="0.03" stroke="#000000" fill="none"/>
<path d="M2.9625 1.8208333333333333L2.904166666666667 1.85L2.845833333333333 1.9083333333333332L2.8166666666666664 1.9958333333333333L2.8166666666666664 2.0541666666666667L2.845833333333333 2.1416666666666666L2.904166666666667 2.2L2.9625 2.2291666666666665L3.05 2.2291666666666665L3.1083333333333334 2.2L3.1666666666666665 2.1416666666666666L3.1958333333333333 2.0541666666666667L3.1958333333333333 1.9958333333333333L3.1666666666666665 1.9083333333333332L3.1083333333333334 1.85L3.05 1.8208333333333333L2.9625 1.8208333333333333" stroke-width="0.03" stroke="#000000" fill="none"/>
<path d="M3.283333333333333 2.2874999999999996L3.75 2.2874999999999996" stroke-width="0.03" stroke="#000000" fill="none"/>
<path d="M3.8375 2.1416666666666666L3.8666666666666663 2.2L3.9541666666666666 2.2291666666666665L4.041666666666666 2.2291666666666665L4.129166666666666 2.2L4.158333333333333 2.1416666666666666L4.158333333333333 2.1125L4.129166666666666 2.0541666666666667L4.070833333333333 2.025L3.925 1.9958333333333333L3.8666666666666663 1.9666666666666666L3.8375 1.9083333333333332L3.8666666666666663 1.85L3.9541666666666666 1.8208333333333333L4.041666666666666 1.8208333333333333L4.129166666666666 1.85L4.158333333333333 1.9083333333333332" stroke-width="0.03" stroke="#000000" fill="none"/>
<path d="M4.3625 1.9375L4.449999999999999 1.85L4.508333333333333 1.8208333333333333L4.595833333333333 1.8208333333333333L4.654166666666667 1.85L4.683333333333334 1.9375L4.683333333333334 2.2291666666666665" stroke-width="0.03" stroke="#000000" fill="none"/>
<path d="M4.3625 2.2291666666666665L4.3625 1.8208333333333333" stroke-width="0.03" stroke="#000000" fill="none"/>
<path d="M5.033333333333333 1.8208333333333333L4.975 1.85L4.916666666666666 1.9083333333333332L4.887499999999999 1.9958333333333333L4.887499999999999 2.0541666666666667L4.916666666666666 2.1416666666666666L4.975 2.2L5.033333333333333 2.2291666666666665L5.120833333333334 2.2291666666666665L5.179166666666666 2.2L5.2375 2.1416666666666666L5.266666666666666 2.0541666666666667L5.266666666666666 1.9958333333333333L5.2375 1.9083333333333332L5.179166666666666 1.85L5.120833333333334 1.8208333333333333L5.033333333333333 1.8208333333333333" stroke-width="0.03" stroke="#000000" fill="none"/>
<path d="M5.441666666666666 1.8208333333333333L5.558333333333334 2.2291666666666665L5.675 1.8208333333333333L5.791666666666666 2.2291666666666665L5.908333333333333 1.8208333333333333" stroke-width="0.03" stroke="#000000" fill="none"/>
<path d="M6.054166666666666 1.8208333333333333L6.258333333333333 1.8208333333333333" stroke-width="0.03" stroke="#000000" fill="none"/>
<path d="M6.2875 1.6166666666666667L6.229166666666666 1.6166666666666667L6.1708333333333325 1.6458333333333333L6.141666666666667 1.7333333333333334L6.141666666666667 2.2291666666666665" stroke-width="0.03" stroke="#000000" fill="none"/>
<path d="M6.4624999999999995 2.2291666666666665L6.4624999999999995 1.6166666666666667" stroke-width="0.03" stroke="#000000" fill="none"/>
<path d="M7.016666666666666 1.8208333333333333L7.016666666666666 2.2291666666666665" stroke-width="0.03" stroke="#000000" fill="none"/>
<path d="M7.016666666666666 2.1416666666666666L6.958333333333333 2.2L6.8999999999999995 2.2291666666666665L6.812499999999999 2.2291666666666665L6.754166666666666 2.2L6.695833333333333 2.1416666666666666L6.666666666666666 2.0541666666666667L6.666666666666666 1.9958333333333333L6.695833333333333 1.9083333333333332L6.754166666666666 1.85L6.812499999999999 1.8208333333333333L6.8999999999999995 1.8208333333333333L6.958333333333333 1.85L7.016666666666666 1.9083333333333332" stroke-width="0.03" stroke="#000000" fill="none"/>
<path d="M7.249999999999999 2.1125L7.541666666666666 1.8208333333333333" stroke-width="0.03" stroke="#000000" fill="none"/>
<path d="M7.366666666666666 1.9958333333333333L7.570833333333333 2.2291666666666665" stroke-width="0.03" stroke="#000000" fill="none"/>
<path d="M7.716666666666666 1.9958333333333333L8.066666666666666 1.9958333333333333L8.066666666666666 1.9375L8.0375 1.8791666666666667L8.008333333333333 1.85L7.949999999999999 1.8208333333333333L7.8625 1.8208333333333333L7.804166666666666 1.85L7.745833333333333 1.9083333333333332L7.716666666666666 1.9958333333333333L7.716666666666666 2.0541666666666667L7.745833333333333 2.1416666666666666L7.804166666666666 2.2L7.8625 2.2291666666666665L7.949999999999999 2.2291666666666665L8.008333333333333 2.2L8.066666666666666 2.1416666666666666" stroke-width="0.03" stroke="#000000" fill="none"/>
<path d="M8.270833333333332 1.7625L8.270833333333332 1.7333333333333334L8.299999999999999 1.675L8.329166666666666 1.6458333333333333L8.3875 1.6166666666666667L8.504166666666666 1.6166666666666667L8.5625 1.6458333333333333L8.591666666666665 1.675L8.620833333333334 1.7333333333333334L8.620833333333334 1.7916666666666665L8.591666666666665 1.85L8.533333333333331 1.9375L8.241666666666667 2.2291666666666665L8.649999999999999 2.2291666666666665" stroke-width="0.03" stroke="#000000" fill="none"/>
<path d="M7.249999999999999 2.2291666666666665L7.249999999999999 1.6166666666666667" stroke-width="0.03" stroke="#000000" fill="none"/>
<path d="M5.406912362983795 3.0054372986874878L5.22665244959841 3.257801177427028L5.497042319676488 3.257801177427028" stroke-width="0.03" stroke="#000000" fill="none"/>
<path d="M5.406912362983795 3.383983116796798L5.406912362983795 3.0054372986874878" stroke-width="0.03" stroke="#000000" fill="none"/>
<path d="M4.866132622827637 3.0054372986874878L4.866132622827637 3.383983116796798L4.992314562197407 3.383983116796798L5.046392536213023 3.3659571254582596L5.0824445188901 3.3299051427811825L5.100470510228639 3.293853160104105L5.1184965015671775 3.2397751860884894L5.1184965015671775 3.149645229395796L5.100470510228639 3.0955672553801805L5.0824445188901 3.0595152727031034L5.046392536213023 3.023463290026026L4.992314562197407 3.0054372986874878L4.866132622827637 3.0054372986874878" stroke-width="0.03" stroke="#000000" fill="none"/>
<path d="M4.57771676141102 3.0054372986874878L4.523638787395404 3.023463290026026L4.505612796056865 3.0595152727031034L4.505612796056865 3.0955672553801805L4.523638787395404 3.1316192380572576L4.559690770072481 3.149645229395796L4.631794735426635 3.167671220734335L4.6858727094422505 3.1856972120728733L4.7219246921193285 3.221749194749951L4.739950683457867 3.257801177427028L4.739950683457867 3.3118791514426436L4.7219246921193285 3.3479311341197207L4.7038987007807895 3.3659571254582596L4.649820726765174 3.383983116796798L4.57771676141102 3.383983116796798L4.523638787395404 3.3659571254582596L4.505612796056865 3.3479311341197207L4.487586804718326 3.3118791514426436L4.487586804718326 3.257801177427028L4.505612796056865 3.221749194749951L4.541664778733942 3.1856972120728733L4.595742752749558 3.167671220734335L4.667846718103712 3.149645229395796L4.7038987007807895 3.1316192380572576L4.7219246921193285 3.0955672553801805L4.7219246921193285 3.0595152727031034L4.7038987007807895 3.023463290026026L4.649820726765174 3.0054372986874878L4.57771676141102 3.0054372986874878" stroke-width="0.03" stroke="#000000" fill="none"/>
<path d="M4.127066977947555 3.0054372986874878L4.127066977947555 3.383983116796798L4.253248917317325 3.383983116796798L4.3073268913329406 3.3659571254582596L4.343378874010018 3.3299051427811825L4.361404865348556 3.293853160104105L4.379430856687095 3.2397751860884894L4.379430856687095 3.149645229395796L4.361404865348556 3.0955672553801805L4.343378874010018 3.0595152727031034L4.3073268913329406 3.023463290026026L4.253248917317325 3.0054372986874878L4.127066977947555 3.0054372986874878" stroke-width="0.03" stroke="#000000" fill="none"/>
<path d="M3.8927290905465526 3.0054372986874878L3.748521159838244 3.383983116796798" stroke-width="0.03" stroke="#000000" fill="none"/>
<path d="M3.80259913385386 3.257801177427028L3.9828590472392458 3.257801177427028" stroke-width="0.03" stroke="#000000" fill="none"/>
<path d="M4.036937021254861 3.383983116796798L3.8927290905465526 3.0054372986874878" stroke-width="0.03" stroke="#000000" fill="none"/>
<path d="M3.712469177161167 3.0054372986874878L3.478131289760165 3.0054372986874878L3.478131289760165 3.383983116796798" stroke-width="0.03" stroke="#000000" fill="none"/>
<path d="M3.478131289760165 3.1856972120728733L3.622339220468474 3.1856972120728733" stroke-width="0.03" stroke="#000000" fill="none"/>
<path d="M3.261819393697702 3.1856972120728733L3.3158973677133177 3.167671220734335L3.333923359051856 3.149645229395796L3.3519493503903948 3.113593246718719L3.3519493503903948 3.077541264041642L3.333923359051856 3.041489281364565L3.3158973677133177 3.023463290026026L3.261819393697702 3.0054372986874878L3.0995854716508546 3.0054372986874878L3.0995854716508546 3.383983116796798L3.261819393697702 3.383983116796798L3.3158973677133177 3.3659571254582596L3.333923359051856 3.3479311341197207L3.3519493503903948 3.3118791514426436L3.3519493503903948 3.257801177427028L3.333923359051856 3.221749194749951L3.3158973677133177 3.2037232034114123L3.261819393697702 3.1856972120728733L3.0995854716508546 3.1856972120728733" stroke-width="0.03" stroke="#000000" fill="none"/>
<path d="M2.955377540942546 3.0595152727031034L2.9373515496040072 3.023463290026026L2.883273575588391 3.0054372986874878L2.847221592911314 3.0054372986874878L2.7931436188956984 3.023463290026026L2.757091636218621 3.077541264041642L2.7390656448800828 3.167671220734335L2.7390656448800828 3.257801177427028L2.757091636218621 3.3299051427811825L2.7931436188956984 3.3659571254582596L2.847221592911314 3.383983116796798L2.8652475842498526 3.383983116796798L2.9193255582654682 3.3659571254582596L2.955377540942546 3.3299051427811825L2.9734035322810843 3.2758271687655665L2.9734035322810843 3.257801177427028L2.955377540942546 3.2037232034114123L2.9193255582654682 3.167671220734335L2.8652475842498526 3.149645229395796L2.847221592911314 3.149645229395796L2.7931436188956984 3.167671220734335L2.757091636218621 3.2037232034114123L2.7390656448800828 3.257801177427028" stroke-width="0.03" stroke="#000000" fill="none"/>
<path d="M2.6128837055103125 3.383983116796798L2.414597800786388 3.1316192380572576" stroke-width="0.03" stroke="#000000" fill="none"/>
<path d="M2.6128837055103125 3.1316192380572576L2.414597800786388 3.383983116796798" stroke-width="0.03" stroke="#000000" fill="none"/>
<path d="M2.1622339220468474 3.0054372986874878L2.1081559480312317 3.023463290026026L2.072103965354154 3.077541264041642L2.0540779740156156 3.167671220734335L2.0540779740156156 3.221749194749951L2.072103965354154 3.3118791514426436L2.1081559480312317 3.3659571254582596L2.1622339220468474 3.383983116796798L2.1982859047239245 3.383983116796798L2.2523638787395406 3.3659571254582596L2.2884158614166177 3.3118791514426436L2.3064418527551562 3.221749194749951L2.3064418527551562 3.167671220734335L2.2884158614166177 3.077541264041642L2.2523638787395406 3.023463290026026L2.1982859047239245 3.0054372986874878L2.1622339220468474 3.0054372986874878" stroke-width="0.03" stroke="#000000" fill="none"/>
<path d="M8.487890625 29.972158499676127L8.487890625 30.21302181510367" stroke-width="0.03" stroke="#000000" fill="none"/>
<path d="M9.84375 29.791511013105463L10.260937499999999 30.032374328533013" stroke-width="0.03" stroke="#000000" fill="none"/>
</svg>
