<?xml version="1.0" standalone="no"?>
<svg width="29.7cm" height="42cm" version="1.1" xmlns="http://www.w3.org/2000/svg" viewBox="0.0 0.0 29.700001 42.000001">
<path d="M10.05234375 8.475107597767554L10.46953125 8.234244282340008L10.678125 8.354675940053781L10.678125 8.475107597767554" stroke-width="0.03" stroke="#000000" fill="none"/>
<path d="M10.782421874999999 8.414891768910667L7.4449218749999995 10.341798292331045L7.4449218749999995 10.823524923186138" stroke-width="0.03" stroke="#000000" fill="none"/>
<path d="M7.340624999999999 10.763309094329252L4.003124999999999 12.690215617749628L4.003124999999999 13.653668879459815L4.107421875 13.713884708316701" stroke-width="0.03" stroke="#000000" fill="none"/>
<path d="M4.4203125 13.533237221746042L3.5859375 14.014963852601136L3.5859375 14.49669048345623L8.279296875 17.206402782016134L8.279296875 16.965539466588588L10.365234375 15.761222889450853L12.138281249999999 16.784891980017925L13.80703125 15.82143871830774L13.80703125 15.94187037602151L12.138281249999999 16.905323637731698L10.365234375 15.881654547164626L9.948046875 16.122517862592172L9.948046875 18.16985604372632L14.015625 20.518273369144907L12.242578125 21.54194245971198L8.175 19.193525134293395L9.948046875 18.16985604372632" stroke-width="0.03" stroke="#000000" fill="none"/>
<path d="M8.279296875 17.206402782016134L8.070703124999998 17.326834439729907L4.733203124999998 15.399927916309531L4.733203124999998 16.845107808874815L4.107421875 16.483812835733495L4.211718750000001 16.423597006876605L4.733203124999998 16.72467615116104" stroke-width="0.03" stroke="#000000" fill="none"/>
<path d="M4.733203124999998 16.60424449344727L3.1687499999999984 15.701007060593964L3.1687499999999984 14.737553798883777L3.5859375 14.49669048345623" stroke-width="0.03" stroke="#000000" fill="none"/>
<path d="M3.5859375 14.014963852601136L5.150390625 14.918201285454437" stroke-width="0.03" stroke="#000000" fill="none"/>
<path d="M4.941796875 15.038632943168212L6.193359375 14.31604299688557L5.567578125 13.95474802374425L5.567578125 14.075179681458023L6.089062499999999 14.376258825742458" stroke-width="0.03" stroke="#000000" fill="none"/>
<path d="M5.984765624999999 14.436474654599342L4.4203125 13.533237221746042" stroke-width="0.03" stroke="#000000" fill="none"/>
<path d="M4.003124999999999 12.690215617749628L5.88046875 13.77410053717359L5.567578125 13.95474802374425" stroke-width="0.03" stroke="#000000" fill="none"/>
<path d="M4.941796875 15.038632943168212L4.941796875 15.279496258595758L4.733203124999998 15.399927916309531" stroke-width="0.03" stroke="#000000" fill="none"/>
<path d="M4.733203124999998 15.640791231737078L3.1687499999999984 14.737553798883777" stroke-width="0.03" stroke="#000000" fill="none"/>
<path d="M3.064453125 15.279496258595758L2.2300781249999995 15.761222889450853L2.2300781249999995 19.615035936291605L4.107421875 20.698920855715564L4.107421875 21.18064748657066L1.9171874999999992 19.916115080576038L1.9171874999999992 23.76992812741679L2.7515624999999995 24.251654758271883" stroke-width="0.03" stroke="#000000" fill="none"/>
<path d="M2.7515624999999995 23.649496469703017L2.8558593750000005 23.58928064084613L6.193359375 25.51618716426651L6.193359375 25.9979137951216L6.610546875 26.238777110549147L6.610546875 30.0925901573899L6.5062500000000005 30.152805986246786L4.62890625 29.068921066822824L4.62890625 26.901151227974903L2.7515624999999995 25.817266308550938L2.7515624999999995 23.649496469703017L6.089062499999999 25.576402993123395L6.193359375 25.51618716426651" stroke-width="0.03" stroke="#000000" fill="none"/>
<path d="M6.089062499999999 25.576402993123395L6.089062499999999 26.058129623978488L6.5062500000000005 26.29899293940603L6.610546875 26.238777110549147" stroke-width="0.03" stroke="#000000" fill="none"/>
<path d="M6.5062500000000005 26.29899293940603L6.5062500000000005 30.152805986246786" stroke-width="0.03" stroke="#000000" fill="none"/>
<path d="M5.984765624999999 29.851726841962353L5.984765624999999 30.815180103672542L9.322265625 32.74208662709292L9.739453124999999 32.50122331166537" stroke-width="0.03" stroke="#000000" fill="none"/>
<path d="M9.739453124999999 32.621654969379136L9.739453124999999 30.45388513053122L9.322265625 30.21302181510367L9.322265625 32.74208662709292" stroke-width="0.03" stroke="#000000" fill="none"/>
<path d="M9.739453124999999 32.621654969379136L13.076953125000001 34.54856149279952L13.911328125 34.06683486194443L13.911328125 33.94640320423065" stroke-width="0.03" stroke="#000000" fill="none"/>
<path d="M13.598437500000001 33.76575571765999L13.598437500000001 31.959280851953388" stroke-width="0.03" stroke="#000000" fill="none"/>
<path d="M13.494140625 31.8990650230965L13.494140625 32.50122331166537L13.389843749999999 32.56143914052225L13.076953125000001 32.3807916539516L13.076953125000001 34.54856149279952" stroke-width="0.03" stroke="#000000" fill="none"/>
<path d="M13.598437500000001 33.76575571765999L14.4328125 34.247482348515085L14.85 34.00661903308754L15.267187499999999 34.247482348515085L16.1015625 33.76575571765999L16.1015625 31.959280851953388" stroke-width="0.03" stroke="#000000" fill="none"/>
<path d="M16.205859375 31.8990650230965L16.205859375 32.50122331166537L16.31015625 32.56143914052225L16.623046875 32.3807916539516L16.623046875 34.54856149279952L15.788671874999999 34.06683486194443L15.788671874999999 33.94640320423065" stroke-width="0.03" stroke="#000000" fill="none"/>
<path d="M15.267187499999999 34.247482348515085L15.267187499999999 32.44100748280849" stroke-width="0.03" stroke="#000000" fill="none"/>
<path d="M15.05859375 32.56143914052225L16.31015625 31.838849194239618L16.31015625 32.56143914052225" stroke-width="0.03" stroke="#000000" fill="none"/>
<path d="M15.05859375 32.56143914052225L15.05859375 28.7076260936815L17.14453125 27.50330951654377L17.14453125 25.45597133540962L17.040234375 25.39575550655273L18.708984375 24.432302244842543L18.81328125 24.492518073699433L18.81328125 26.53985625483358L19.126171875 26.359208768262917L19.126171875 28.888273580252164L19.23046875 28.94848940910905L19.439062500000002 28.828057751395274L19.439062500000002 29.430216039964147L19.334765625 29.37000021110726L19.334765625 28.888273580252164" stroke-width="0.03" stroke="#000000" fill="none"/>
<path d="M19.23046875 28.94848940910905L19.23046875 24.010791442844337L19.647656249999997 23.76992812741679L19.647656249999997 23.288201496561694L23.923828125000004 20.819352513429337L23.923828125000004 21.060215828856883L24.4453125 20.759136684572454L24.341015624999997 20.698920855715564L23.923828125000004 20.939784171143113" stroke-width="0.03" stroke="#000000" fill="none"/>
<path d="M23.923828125000004 20.819352513429337L23.819531249999997 20.759136684572454L21.629296875 22.023669090567072L21.525000000000002 21.96345326171019L19.439062500000002 23.167769838847924L19.439062500000002 23.649496469703017L19.647656249999997 23.76992812741679" stroke-width="0.03" stroke="#000000" fill="none"/>
<path d="M19.439062500000002 23.649496469703017L19.021874999999998 23.890359785130563L19.021874999999998 26.29899293940603L18.81328125 26.419424597119807" stroke-width="0.03" stroke="#000000" fill="none"/>
<path d="M19.021874999999998 26.29899293940603L19.126171875 26.359208768262917" stroke-width="0.03" stroke="#000000" fill="none"/>
<path d="M18.81328125 24.492518073699433L17.14453125 25.45597133540962" stroke-width="0.03" stroke="#000000" fill="none"/>
<path d="M17.040234375 25.39575550655273L17.040234375 27.443093687686883L17.14453125 27.50330951654377" stroke-width="0.03" stroke="#000000" fill="none"/>
<path d="M17.040234375 27.443093687686883L16.623046875 27.68395700311443L14.85 26.660287912547354L14.85 21.96345326171019L16.623046875 22.98712235227726L17.457421875 22.50539572142217L17.457421875 21.54194245971198L21.525000000000002 19.193525134293395L21.525000000000002 19.67525176514849L21.629296875 19.735467594005378L19.85625 20.759136684572454L19.85625 22.686043207992828L21.629296875 21.662374117425752L21.629296875 22.023669090567072" stroke-width="0.03" stroke="#000000" fill="none"/>
<path d="M21.525000000000002 21.96345326171019L21.525000000000002 21.72258994628264" stroke-width="0.03" stroke="#000000" fill="none"/>
<path d="M19.85625 20.759136684572454L19.751953125 20.698920855715564L21.525000000000002 19.67525176514849" stroke-width="0.03" stroke="#000000" fill="none"/>
<path d="M21.629296875 19.735467594005378L21.629296875 17.326834439729907L24.966796875000004 15.399927916309531L24.966796875000004 16.845107808874815L25.592578125 16.483812835733495L25.48828125 16.423597006876605L24.966796875000004 16.72467615116104" stroke-width="0.03" stroke="#000000" fill="none"/>
<path d="M24.966796875000004 16.60424449344727L26.53125 15.701007060593964L26.53125 14.737553798883777L26.1140625 14.49669048345623L21.420703125 17.206402782016134L21.420703125 16.965539466588588L19.334765625 15.761222889450853L17.56171875 16.784891980017925L15.89296875 15.82143871830774L15.89296875 15.94187037602151L17.56171875 16.905323637731698L19.334765625 15.881654547164626L19.751953125 16.122517862592172L19.751953125 18.16985604372632L15.684375 20.518273369144907L15.684375 18.470935188010756L19.751953125 16.122517862592172" stroke-width="0.03" stroke="#000000" fill="none"/>
<path d="M19.334765625 15.881654547164626L19.334765625 15.761222889450853" stroke-width="0.03" stroke="#000000" fill="none"/>
<path d="M17.666015625 14.797769627740664L15.89296875 15.82143871830774" stroke-width="0.03" stroke="#000000" fill="none"/>
<path d="M15.267187499999999 15.94187037602151L17.353125 14.737553798883777L17.56171875 14.85798545659755" stroke-width="0.03" stroke="#000000" fill="none"/>
<path d="M17.666015625 14.797769627740664L17.353125 14.617122141170004L17.353125 14.737553798883777" stroke-width="0.03" stroke="#000000" fill="none"/>
<path d="M17.353125 14.617122141170004L19.543359374999998 13.352589735175382L19.543359374999998 13.232158077461609L19.334765625 13.111726419747836L19.85625 12.8106472754634L19.85625 12.931078933177174L19.439062500000002 13.171942248604722" stroke-width="0.03" stroke="#000000" fill="none"/>
<path d="M19.543359374999998 13.232158077461609L15.267187499999999 15.701007060593964L14.85 15.460143745166418L14.4328125 15.701007060593964L10.156640625 13.232158077461609L10.156640625 13.352589735175382L12.346874999999999 14.617122141170004L12.346874999999999 14.737553798883777L14.4328125 15.94187037602151L14.85 15.701007060593964L15.267187499999999 15.94187037602151L15.267187499999999 15.701007060593964" stroke-width="0.03" stroke="#000000" fill="none"/>
<path d="M14.85 15.701007060593964L14.85 15.460143745166418" stroke-width="0.03" stroke="#000000" fill="none"/>
<path d="M14.4328125 15.701007060593964L14.4328125 15.94187037602151" stroke-width="0.03" stroke="#000000" fill="none"/>
<path d="M13.80703125 15.82143871830774L12.033984375000001 14.797769627740664L12.346874999999999 14.617122141170004" stroke-width="0.03" stroke="#000000" fill="none"/>
<path d="M12.346874999999999 14.737553798883777L12.138281249999999 14.85798545659755" stroke-width="0.03" stroke="#000000" fill="none"/>
<path d="M12.138281249999999 16.784891980017925L12.138281249999999 16.905323637731698" stroke-width="0.03" stroke="#000000" fill="none"/>
<path d="M10.365234375 15.881654547164626L10.365234375 15.761222889450853" stroke-width="0.03" stroke="#000000" fill="none"/>
<path d="M9.948046875 16.122517862592172L14.015625 18.470935188010756L14.85 17.989208557155663L15.684375 18.470935188010756" stroke-width="0.03" stroke="#000000" fill="none"/>
<path d="M14.85 17.989208557155663L14.85 21L12.242578125 22.50539572142217L12.242578125 21.54194245971198" stroke-width="0.03" stroke="#000000" fill="none"/>
<path d="M12.242578125 22.50539572142217L13.076953125000001 22.98712235227726L14.85 21.96345326171019" stroke-width="0.03" stroke="#000000" fill="none"/>
<path d="M14.85 21L17.457421875 22.50539572142217" stroke-width="0.03" stroke="#000000" fill="none"/>
<path d="M16.623046875 22.98712235227726L16.623046875 27.68395700311443" stroke-width="0.03" stroke="#000000" fill="none"/>
<path d="M15.05859375 28.7076260936815L14.85 28.58719443596773L14.64140625 28.7076260936815L12.555468750000001 27.50330951654377L12.555468750000001 25.45597133540962L12.659765624999999 25.39575550655273L10.991015625000001 24.432302244842543L10.88671875 24.492518073699433L10.88671875 26.53985625483358L10.573828124999999 26.359208768262917L10.678125 26.29899293940603L10.88671875 26.419424597119807" stroke-width="0.03" stroke="#000000" fill="none"/>
<path d="M10.678125 26.29899293940603L10.678125 23.890359785130563L10.260937499999999 23.649496469703017L10.05234375 23.76992812741679L10.46953125 24.010791442844337L10.678125 23.890359785130563" stroke-width="0.03" stroke="#000000" fill="none"/>
<path d="M10.46953125 24.010791442844337L10.46953125 28.94848940910905L10.573828124999999 28.888273580252164L10.573828124999999 26.359208768262917" stroke-width="0.03" stroke="#000000" fill="none"/>
<path d="M10.88671875 24.492518073699433L12.555468750000001 25.45597133540962" stroke-width="0.03" stroke="#000000" fill="none"/>
<path d="M12.659765624999999 25.39575550655273L12.659765624999999 27.443093687686883L12.555468750000001 27.50330951654377" stroke-width="0.03" stroke="#000000" fill="none"/>
<path d="M12.659765624999999 27.443093687686883L13.076953125000001 27.68395700311443L14.85 26.660287912547354" stroke-width="0.03" stroke="#000000" fill="none"/>
<path d="M14.85 28.58719443596773L14.85 34.00661903308754" stroke-width="0.03" stroke="#000000" fill="none"/>
<path d="M14.4328125 34.247482348515085L14.4328125 32.44100748280849" stroke-width="0.03" stroke="#000000" fill="none"/>
<path d="M14.64140625 32.56143914052225L14.85 32.44100748280849L15.05859375 32.56143914052225" stroke-width="0.03" stroke="#000000" fill="none"/>
<path d="M14.64140625 32.56143914052225L14.64140625 28.7076260936815" stroke-width="0.03" stroke="#000000" fill="none"/>
<path d="M13.076953125000001 27.68395700311443L13.076953125000001 22.98712235227726" stroke-width="0.03" stroke="#000000" fill="none"/>
<path d="M14.015625 20.518273369144907L14.015625 18.470935188010756" stroke-width="0.03" stroke="#000000" fill="none"/>
<path d="M15.684375 20.518273369144907L17.457421875 21.54194245971198" stroke-width="0.03" stroke="#000000" fill="none"/>
<path d="M19.751953125 20.698920855715564L19.751953125 22.62582737913594L19.85625 22.686043207992828" stroke-width="0.03" stroke="#000000" fill="none"/>
<path d="M19.647656249999997 23.288201496561694L19.439062500000002 23.167769838847924" stroke-width="0.03" stroke="#000000" fill="none"/>
<path d="M19.021874999999998 23.890359785130563L19.23046875 24.010791442844337" stroke-width="0.03" stroke="#000000" fill="none"/>
<path d="M22.567968750000002 25.45597133540962L23.923828125000004 24.673165560270093L23.923828125000004 21.301079144284433L24.4453125 21L24.4453125 20.759136684572454" stroke-width="0.03" stroke="#000000" fill="none"/>
<path d="M24.132421875000002 21.18064748657066L24.132421875000002 21.54194245971198L23.923828125000004 21.42151080199821" stroke-width="0.03" stroke="#000000" fill="none"/>
<path d="M24.028125 21.481726630855093L23.923828125000004 21.54194245971198" stroke-width="0.03" stroke="#000000" fill="none"/>
<path d="M24.132421875000002 21.54194245971198L24.549609375 21.301079144284433L24.549609375 21.782805775139526L23.923828125000004 22.14410074828085" stroke-width="0.03" stroke="#000000" fill="none"/>
<path d="M24.4453125 21.72258994628264L24.4453125 21.36129497314132" stroke-width="0.03" stroke="#000000" fill="none"/>
<path d="M24.4453125 21.72258994628264L24.549609375 21.782805775139526" stroke-width="0.03" stroke="#000000" fill="none"/>
<path d="M25.592578125 21.18064748657066L27.7828125 19.916115080576038L27.7828125 23.76992812741679L26.9484375 24.251654758271883" stroke-width="0.03" stroke="#000000" fill="none"/>
<path d="M26.9484375 23.649496469703017L23.610937500000002 25.576402993123395L23.506640625 25.51618716426651L23.506640625 25.9979137951216L23.089453125000002 26.238777110549147L23.089453125000002 30.0925901573899L23.193749999999998 30.152805986246786L25.07109375 29.068921066822824L25.07109375 26.901151227974903L26.9484375 25.817266308550938L26.9484375 23.649496469703017L26.844140625 23.58928064084613L23.506640625 25.51618716426651" stroke-width="0.03" stroke="#000000" fill="none"/>
<path d="M23.610937500000002 25.576402993123395L23.610937500000002 26.058129623978488L23.193749999999998 26.29899293940603L23.089453125000002 26.238777110549147" stroke-width="0.03" stroke="#000000" fill="none"/>
<path d="M23.193749999999998 26.29899293940603L23.193749999999998 30.152805986246786" stroke-width="0.03" stroke="#000000" fill="none"/>
<path d="M23.715234375 29.851726841962353L23.715234375 30.815180103672542L20.377734375 32.74208662709292L19.960546875000002 32.50122331166537" stroke-width="0.03" stroke="#000000" fill="none"/>
<path d="M19.960546875000002 32.621654969379136L16.623046875 34.54856149279952" stroke-width="0.03" stroke="#000000" fill="none"/>
<path d="M14.64140625 32.56143914052225L13.389843749999999 31.838849194239618L13.389843749999999 32.56143914052225" stroke-width="0.03" stroke="#000000" fill="none"/>
<path d="M10.156640625 32.86251828480669L10.05234375 32.92273411366358L9.948046875 32.86251828480669L9.948046875 32.74208662709292" stroke-width="0.03" stroke="#000000" fill="none"/>
<path d="M10.05234375 32.8023024559498L10.05234375 32.92273411366358" stroke-width="0.03" stroke="#000000" fill="none"/>
<path d="M10.260937499999999 29.430216039964147L10.365234375 29.37000021110726L10.365234375 28.888273580252164" stroke-width="0.03" stroke="#000000" fill="none"/>
<path d="M10.46953125 28.94848940910905L10.260937499999999 28.828057751395274L10.260937499999999 29.430216039964147L10.05234375 29.30978438225037L10.05234375 28.7076260936815L7.13203125 27.021582885688677L7.13203125 25.45597133540962L5.776171874999998 24.673165560270093L5.776171874999998 21.301079144284433L5.254687500000001 21L5.254687500000001 20.759136684572454L5.3589843749999995 20.698920855715564L5.776171874999998 20.939784171143113" stroke-width="0.03" stroke="#000000" fill="none"/>
<path d="M5.776171874999998 21.060215828856883L5.776171874999998 20.819352513429337L5.88046875 20.759136684572454L8.070703124999998 22.023669090567072L8.175 21.96345326171019L10.260937499999999 23.167769838847924L10.260937499999999 23.649496469703017" stroke-width="0.03" stroke="#000000" fill="none"/>
<path d="M10.05234375 23.76992812741679L10.05234375 23.288201496561694L5.776171874999998 20.819352513429337" stroke-width="0.03" stroke="#000000" fill="none"/>
<path d="M5.776171874999998 21.060215828856883L5.254687500000001 20.759136684572454" stroke-width="0.03" stroke="#000000" fill="none"/>
<path d="M5.567578125 21.18064748657066L5.567578125 21.54194245971198L5.776171874999998 21.42151080199821" stroke-width="0.03" stroke="#000000" fill="none"/>
<path d="M5.776171874999998 21.54194245971198L5.671875 21.481726630855093" stroke-width="0.03" stroke="#000000" fill="none"/>
<path d="M5.567578125 21.54194245971198L5.150390625 21.301079144284433L5.150390625 21.782805775139526L5.776171874999998 22.14410074828085" stroke-width="0.03" stroke="#000000" fill="none"/>
<path d="M5.254687500000001 21.72258994628264L5.150390625 21.782805775139526" stroke-width="0.03" stroke="#000000" fill="none"/>
<path d="M5.254687500000001 21.72258994628264L5.254687500000001 21.36129497314132" stroke-width="0.03" stroke="#000000" fill="none"/>
<path d="M8.070703124999998 21.662374117425752L8.070703124999998 22.023669090567072" stroke-width="0.03" stroke="#000000" fill="none"/>
<path d="M8.175 21.96345326171019L8.175 21.72258994628264" stroke-width="0.03" stroke="#000000" fill="none"/>
<path d="M8.070703124999998 21.662374117425752L9.84375 22.686043207992828L9.948046875 22.62582737913594L9.948046875 20.698920855715564L8.175 19.67525176514849L8.070703124999998 19.735467594005378L8.070703124999998 17.326834439729907" stroke-width="0.03" stroke="#000000" fill="none"/>
<path d="M8.279296875 16.965539466588588L4.941796875 15.038632943168212" stroke-width="0.03" stroke="#000000" fill="none"/>
<path d="M4.107421875 16.483812835733495L4.107421875 16.845107808874815L2.2300781249999995 15.761222889450853" stroke-width="0.03" stroke="#000000" fill="none"/>
<path d="M3.064453125 15.279496258595758L3.1687499999999984 15.339712087452645" stroke-width="0.03" stroke="#000000" fill="none"/>
<path d="M2.2300781249999995 19.13330930543651L2.125781250000001 19.193525134293395L2.125781250000001 19.31395679200717L2.2300781249999995 19.37417262086406" stroke-width="0.03" stroke="#000000" fill="none"/>
<path d="M2.2300781249999995 19.253740963150285L2.125781250000001 19.193525134293395" stroke-width="0.03" stroke="#000000" fill="none"/>
<path d="M2.3343750000000005 19.67525176514849L1.9171874999999992 19.916115080576038" stroke-width="0.03" stroke="#000000" fill="none"/>
<path d="M1.7085937499999995 23.047338181134148L1.6042968749999988 23.107554009991038L1.6042968749999988 23.58928064084613L1.8128906250000005 23.709712298559904L1.9171874999999992 23.649496469703017" stroke-width="0.03" stroke="#000000" fill="none"/>
<path d="M1.8128906250000005 23.709712298559904L1.8128906250000005 23.227985667704807L1.6042968749999988 23.107554009991038" stroke-width="0.03" stroke="#000000" fill="none"/>
<path d="M1.7085937499999995 23.047338181134148L1.9171874999999992 23.167769838847924L1.8128906250000005 23.227985667704807" stroke-width="0.03" stroke="#000000" fill="none"/>
<path d="M6.089062499999999 26.058129623978488L6.193359375 25.9979137951216" stroke-width="0.03" stroke="#000000" fill="none"/>
<path d="M9.322265625 28.286115291683295L9.322265625 29.008705237965938L9.739453124999999 29.249568553393484L9.739453124999999 28.767841922538388L9.948046875 28.647410264824618" stroke-width="0.03" stroke="#000000" fill="none"/>
<path d="M9.84375 28.7076260936815L9.84375 28.58719443596773" stroke-width="0.03" stroke="#000000" fill="none"/>
<path d="M9.739453124999999 28.767841922538388L10.05234375 28.94848940910905" stroke-width="0.03" stroke="#000000" fill="none"/>
<path d="M9.739453124999999 29.12913689567971L9.4265625 28.94848940910905L9.322265625 29.008705237965938" stroke-width="0.03" stroke="#000000" fill="none"/>
<path d="M6.5062500000000005 31.11625924795697L6.4019531249999995 31.17647507681386L5.984765624999999 30.935611761386316L5.984765624999999 31.17647507681386L6.4019531249999995 31.41733839224141L6.5062500000000005 31.35712256338452L6.5062500000000005 31.11625924795697" stroke-width="0.03" stroke="#000000" fill="none"/>
<path d="M6.4019531249999995 31.17647507681386L6.4019531249999995 31.41733839224141" stroke-width="0.03" stroke="#000000" fill="none"/>
<path d="M6.089062499999999 30.87539593252943L5.984765624999999 30.935611761386316" stroke-width="0.03" stroke="#000000" fill="none"/>
<path d="M10.05234375 23.288201496561694L10.260937499999999 23.167769838847924" stroke-width="0.03" stroke="#000000" fill="none"/>
<path d="M9.84375 22.686043207992828L9.84375 20.759136684572454L9.948046875 20.698920855715564" stroke-width="0.03" stroke="#000000" fill="none"/>
<path d="M9.84375 20.759136684572454L8.070703124999998 19.735467594005378" stroke-width="0.03" stroke="#000000" fill="none"/>
<path d="M8.175 19.67525176514849L8.175 19.193525134293395" stroke-width="0.03" stroke="#000000" fill="none"/>
<path d="M10.156640625 13.232158077461609L10.365234375 13.111726419747836L9.84375 12.8106472754634L10.05234375 12.690215617749628L10.573828124999999 12.991294762034062L13.494140625 11.305251554041233L14.85 12.08805732918076L16.205859375 11.305251554041233L19.126171875 12.991294762034062L19.647656249999997 12.690215617749628L19.85625 12.8106472754634" stroke-width="0.03" stroke="#000000" fill="none"/>
<path d="M19.334765625 12.87086310432029L19.021874999999998 12.690215617749628L19.021874999999998 12.931078933177174" stroke-width="0.03" stroke="#000000" fill="none"/>
<path d="M18.917578125000002 12.87086310432029L19.021874999999998 12.8106472754634" stroke-width="0.03" stroke="#000000" fill="none"/>
<path d="M19.021874999999998 12.690215617749628L19.439062500000002 12.44935230232208L19.021874999999998 12.208488986894533L18.396093750000002 12.569783960035853" stroke-width="0.03" stroke="#000000" fill="none"/>
<path d="M19.021874999999998 12.328920644608306L19.021874999999998 12.208488986894533" stroke-width="0.03" stroke="#000000" fill="none"/>
<path d="M19.021874999999998 12.328920644608306L19.334765625 12.509568131178968" stroke-width="0.03" stroke="#000000" fill="none"/>
<path d="M20.064843749999998 11.606330698325666L22.255078124999997 10.341798292331045L18.917578125000002 8.414891768910667L18.083203125 8.896618399765762" stroke-width="0.03" stroke="#000000" fill="none"/>
<path d="M18.6046875 9.197697544050197L15.267187499999999 11.124604067470571L14.85 10.883740752043025L14.4328125 11.124604067470571L11.095312499999999 9.197697544050197L11.095312499999999 9.31812920176397L14.4328125 11.245035725184344L14.85 11.004172409756798L15.267187499999999 11.245035725184344L18.6046875 9.31812920176397L18.6046875 9.197697544050197L16.72734375 8.113812624626235L14.85 9.197697544050197L12.97265625 8.113812624626235L11.095312499999999 9.197697544050197" stroke-width="0.03" stroke="#000000" fill="none"/>
<path d="M11.616796874999999 8.896618399765762L10.782421874999999 8.414891768910667" stroke-width="0.03" stroke="#000000" fill="none"/>
<path d="M10.678125 8.354675940053781L10.260937499999999 8.595539255481327L10.05234375 8.475107597767554L10.05234375 8.595539255481327L10.260937499999999 8.715970913195102L10.260937499999999 8.595539255481327" stroke-width="0.03" stroke="#000000" fill="none"/>
<path d="M9.63515625 11.606330698325666L9.21796875 11.847194013753214L7.340624999999999 10.763309094329252" stroke-width="0.03" stroke="#000000" fill="none"/>
<path d="M7.13203125 10.883740752043025L7.027734374999999 10.823524923186138L6.9234374999999995 10.883740752043025L6.9234374999999995 11.004172409756798" stroke-width="0.03" stroke="#000000" fill="none"/>
<path d="M7.027734374999999 10.943956580899911L6.9234374999999995 10.883740752043025" stroke-width="0.03" stroke="#000000" fill="none"/>
<path d="M7.4449218749999995 10.341798292331045L9.63515625 11.606330698325666" stroke-width="0.03" stroke="#000000" fill="none"/>
<path d="M10.260937499999999 12.44935230232208L10.678125 12.208488986894533L11.303906249999999 12.569783960035853" stroke-width="0.03" stroke="#000000" fill="none"/>
<path d="M10.782421874999999 12.87086310432029L10.678125 12.8106472754634" stroke-width="0.03" stroke="#000000" fill="none"/>
<path d="M10.678125 12.690215617749628L10.365234375 12.87086310432029" stroke-width="0.03" stroke="#000000" fill="none"/>
<path d="M10.678125 12.931078933177174L10.678125 12.690215617749628L10.260937499999999 12.44935230232208" stroke-width="0.03" stroke="#000000" fill="none"/>
<path d="M10.365234375 12.509568131178968L10.678125 12.328920644608306L10.678125 12.208488986894533" stroke-width="0.03" stroke="#000000" fill="none"/>
<path d="M9.84375 12.8106472754634L9.84375 12.931078933177174L10.260937499999999 13.171942248604722" stroke-width="0.03" stroke="#000000" fill="none"/>
<path d="M14.4328125 11.245035725184344L14.4328125 11.124604067470571" stroke-width="0.03" stroke="#000000" fill="none"/>
<path d="M14.85 11.004172409756798L14.85 10.883740752043025" stroke-width="0.03" stroke="#000000" fill="none"/>
<path d="M15.267187499999999 11.124604067470571L15.267187499999999 11.245035725184344" stroke-width="0.03" stroke="#000000" fill="none"/>
<path d="M19.021874999999998 8.475107597767554L19.021874999999998 8.354675940053781L19.23046875 8.234244282340008L19.647656249999997 8.475107597767554L19.647656249999997 8.595539255481327L19.439062500000002 8.715970913195102L19.439062500000002 8.595539255481327L19.647656249999997 8.475107597767554" stroke-width="0.03" stroke="#000000" fill="none"/>
<path d="M19.439062500000002 8.595539255481327L19.021874999999998 8.354675940053781" stroke-width="0.03" stroke="#000000" fill="none"/>
<path d="M20.064843749999998 11.606330698325666L20.482031250000002 11.847194013753214L22.359375 10.763309094329252L25.696875000000002 12.690215617749628L25.696875000000002 13.653668879459815L25.592578125 13.713884708316701" stroke-width="0.03" stroke="#000000" fill="none"/>
<path d="M25.279687499999998 13.533237221746042L23.715234375 14.436474654599342" stroke-width="0.03" stroke="#000000" fill="none"/>
<path d="M23.610937500000002 14.376258825742458L24.132421875000002 14.075179681458023L24.132421875000002 13.95474802374425L23.819531249999997 13.77410053717359L25.696875000000002 12.690215617749628" stroke-width="0.03" stroke="#000000" fill="none"/>
<path d="M25.279687499999998 13.533237221746042L26.1140625 14.014963852601136L26.1140625 14.49669048345623" stroke-width="0.03" stroke="#000000" fill="none"/>
<path d="M26.53125 14.737553798883777L24.966796875000004 15.640791231737078" stroke-width="0.03" stroke="#000000" fill="none"/>
<path d="M24.966796875000004 15.399927916309531L24.758203125 15.279496258595758L24.758203125 15.038632943168212L23.506640625 14.31604299688557L24.132421875000002 13.95474802374425" stroke-width="0.03" stroke="#000000" fill="none"/>
<path d="M24.549609375 14.918201285454437L26.1140625 14.014963852601136" stroke-width="0.03" stroke="#000000" fill="none"/>
<path d="M26.635546875 15.279496258595758L26.53125 15.339712087452645" stroke-width="0.03" stroke="#000000" fill="none"/>
<path d="M26.635546875 15.279496258595758L27.469921874999997 15.761222889450853L27.469921874999997 19.615035936291605L25.592578125 20.698920855715564L25.592578125 21.18064748657066" stroke-width="0.03" stroke="#000000" fill="none"/>
<path d="M27.365624999999998 19.67525176514849L27.7828125 19.916115080576038" stroke-width="0.03" stroke="#000000" fill="none"/>
<path d="M27.469921874999997 19.37417262086406L27.57421875 19.31395679200717L27.57421875 19.193525134293395L27.469921874999997 19.13330930543651" stroke-width="0.03" stroke="#000000" fill="none"/>
<path d="M27.57421875 19.193525134293395L27.469921874999997 19.253740963150285" stroke-width="0.03" stroke="#000000" fill="none"/>
<path d="M25.592578125 16.845107808874815L27.469921874999997 15.761222889450853" stroke-width="0.03" stroke="#000000" fill="none"/>
<path d="M25.592578125 16.483812835733495L25.592578125 16.845107808874815" stroke-width="0.03" stroke="#000000" fill="none"/>
<path d="M24.758203125 15.038632943168212L21.420703125 16.965539466588588" stroke-width="0.03" stroke="#000000" fill="none"/>
<path d="M21.420703125 17.206402782016134L21.629296875 17.326834439729907" stroke-width="0.03" stroke="#000000" fill="none"/>
<path d="M21.525000000000002 19.193525134293395L19.751953125 18.16985604372632" stroke-width="0.03" stroke="#000000" fill="none"/>
<path d="M17.56171875 16.905323637731698L17.56171875 16.784891980017925" stroke-width="0.03" stroke="#000000" fill="none"/>
<path d="M22.255078124999997 10.823524923186138L22.255078124999997 10.341798292331045" stroke-width="0.03" stroke="#000000" fill="none"/>
<path d="M22.567968750000002 10.883740752043025L22.672265625 10.823524923186138L22.7765625 10.883740752043025L22.7765625 11.004172409756798" stroke-width="0.03" stroke="#000000" fill="none"/>
<path d="M22.672265625 10.943956580899911L22.7765625 10.883740752043025" stroke-width="0.03" stroke="#000000" fill="none"/>
<path d="M27.99140625 23.047338181134148L27.7828125 23.167769838847924L27.887109375 23.227985667704807L28.095703125000004 23.107554009991038L28.095703125000004 23.58928064084613L27.887109375 23.709712298559904L27.7828125 23.649496469703017" stroke-width="0.03" stroke="#000000" fill="none"/>
<path d="M27.887109375 23.709712298559904L27.887109375 23.227985667704807" stroke-width="0.03" stroke="#000000" fill="none"/>
<path d="M27.99140625 23.047338181134148L28.095703125000004 23.107554009991038" stroke-width="0.03" stroke="#000000" fill="none"/>
<path d="M23.610937500000002 26.058129623978488L23.506640625 25.9979137951216" stroke-width="0.03" stroke="#000000" fill="none"/>
<path d="M22.567968750000002 25.45597133540962L22.567968750000002 27.021582885688677L19.647656249999997 28.7076260936815L19.647656249999997 29.30978438225037L19.439062500000002 29.430216039964147" stroke-width="0.03" stroke="#000000" fill="none"/>
<path d="M19.647656249999997 28.94848940910905L19.960546875000002 28.767841922538388L19.960546875000002 29.249568553393484L20.377734375 29.008705237965938L20.377734375 28.286115291683295" stroke-width="0.03" stroke="#000000" fill="none"/>
<path d="M19.85625 28.58719443596773L19.85625 28.7076260936815" stroke-width="0.03" stroke="#000000" fill="none"/>
<path d="M19.751953125 28.647410264824618L19.960546875000002 28.767841922538388" stroke-width="0.03" stroke="#000000" fill="none"/>
<path d="M20.2734375 28.94848940910905L19.960546875000002 29.12913689567971" stroke-width="0.03" stroke="#000000" fill="none"/>
<path d="M20.2734375 28.94848940910905L20.377734375 29.008705237965938" stroke-width="0.03" stroke="#000000" fill="none"/>
<path d="M20.377734375 30.21302181510367L19.960546875000002 30.45388513053122L19.960546875000002 32.621654969379136" stroke-width="0.03" stroke="#000000" fill="none"/>
<path d="M19.751953125 32.74208662709292L19.751953125 32.86251828480669L19.647656249999997 32.92273411366358L19.543359374999998 32.86251828480669" stroke-width="0.03" stroke="#000000" fill="none"/>
<path d="M19.647656249999997 32.8023024559498L19.647656249999997 32.92273411366358" stroke-width="0.03" stroke="#000000" fill="none"/>
<path d="M20.377734375 32.74208662709292L20.377734375 30.21302181510367" stroke-width="0.03" stroke="#000000" fill="none"/>
<path d="M23.193749999999998 31.11625924795697L23.193749999999998 31.35712256338452L23.298046874999997 31.41733839224141L23.715234375 31.17647507681386L23.715234375 30.935611761386316L23.610937500000002 30.87539593252943" stroke-width="0.03" stroke="#000000" fill="none"/>
<path d="M23.715234375 30.935611761386316L23.298046874999997 31.17647507681386L23.193749999999998 31.11625924795697" stroke-width="0.03" stroke="#000000" fill="none"/>
<path d="M23.298046874999997 31.17647507681386L23.298046874999997 31.41733839224141" stroke-width="0.03" stroke="#000000" fill="none"/>
<path d="M9.237499999999999 2.533333333333333L1.5 2.533333333333333" stroke-width="0.03" stroke="#000000" fill="none"/>
<path d="M2.1166666666666667 2.2291666666666665L2.1166666666666667 1.8208333333333333" stroke-width="0.03" stroke="#000000" fill="none"/>
<path d="M2.0875 1.6166666666666667L2.1166666666666667 1.6458333333333333L2.145833333333333 1.6166666666666667L2.1166666666666667 1.5875L2.0875 1.6166666666666667" stroke-width="0.03" stroke="#000000" fill="none"/>
<path d="M2.3208333333333333 2.1416666666666666L2.35 2.2L2.4375 2.2291666666666665L2.525 2.2291666666666665L2.6125 2.2L2.6416666666666666 2.1416666666666666L2.6416666666666666 2.1125L2.6125 2.0541666666666667L2.5541666666666667 2.025L2.408333333333333 1.9958333333333333L2.35 1.9666666666666666L2.3208333333333333 1.9083333333333332L2.35 1.85L2.4375 1.8208333333333333L2.525 1.8208333333333333L2.6125 1.85L2.6416666666666666 1.9083333333333332" stroke-width="0.03" stroke="#000000" fill="none"/>
<path d="M2.9625 1.8208333333333333L2.904166666666667 1.85L2.845833333333333 1.9083333333333332L2.8166666666666664 1.9958333333333333L2.8166666666666664 2.0541666666666667L2.845833333333333 2.1416666666666666L2.904166666666667 2.2L2.9625 2.2291666666666665L3.05 2.2291666666666665L3.1083333333333334 2.2L3.1666666666666665 2.1416666666666666L3.1958333333333333 2.0541666666666667L3.1958333333333333 1.9958333333333333L3.1666666666666665 1.9083333333333332L3.1083333333333334 1.85L3.05 1.8208333333333333L2.9625 1.8208333333333333" stroke-width="0.03" stroke="#000000" fill="none"/>
<path d="M3.283333333333333 2.2874999999999996L3.75 2.2874999999999996" stroke-width="0.03" stroke="#000000" fill="none"/>
<path d="M3.8375 2.1416666666666666L3.8666666666666663 2.2L3.9541666666666666 2.2291666666666665L4.041666666666666 2.2291666666666665L4.129166666666666 2.2L4.158333333333333 2.1416666666666666L4.158333333333333 2.1125L4.129166666666666 2.0541666666666667L4.070833333333333 2.025L3.925 1.9958333333333333L3.8666666666666663 1.9666666666666666L3.8375 1.9083333333333332L3.8666666666666663 1.85L3.9541666666666666 1.8208333333333333L4.041666666666666 1.8208333333333333L4.129166666666666 1.85L4.158333333333333 1.9083333333333332" stroke-width="0.03" stroke="#000000" fill="none"/>
<path d="M4.3625 1.9375L4.449999999999999 1.85L4.508333333333333 1.8208333333333333L4.595833333333333 1.8208333333333333L4.654166666666667 1.85L4.683333333333334 1.9375L4.683333333333334 2.2291666666666665" stroke-width="0.03" stroke="#000000" fill="none"/>
<path d="M4.3625 2.2291666666666665L4.3625 1.8208333333333333" stroke-width="0.03" stroke="#000000" fill="none"/>
<path d="M5.033333333333333 1.8208333333333333L4.975 1.85L4.916666666666666 1.9083333333333332L4.887499999999999 1.9958333333333333L4.887499999999999 2.0541666666666667L4.916666666666666 2.1416666666666666L4.975 2.2L5.033333333333333 2.2291666666666665L5.120833333333334 2.2291666666666665L5.179166666666666 2.2L5.2375 2.1416666666666666L5.266666666666666 2.0541666666666667L5.266666666666666 1.9958333333333333L5.2375 1.9083333333333332L5.179166666666666 1.85L5.120833333333334 1.8208333333333333L5.033333333333333 1.8208333333333333" stroke-width="0.03" stroke="#000000" fill="none"/>
<path d="M5.441666666666666 1.8208333333333333L5.558333333333334 2.2291666666666665L5.675 1.8208333333333333L5.791666666666666 2.2291666666666665L5.908333333333333 1.8208333333333333" stroke-width="0.03" stroke="#000000" fill="none"/>
<path d="M6.054166666666666 1.8208333333333333L6.258333333333333 1.8208333333333333" stroke-width="0.03" stroke="#000000" fill="none"/>
<path d="M6.2875 1.6166666666666667L6.229166666666666 1.6166666666666667L6.1708333333333325 1.6458333333333333L6.141666666666667 1.7333333333333334L6.141666666666667 2.2291666666666665" stroke-width="0.03" stroke="#000000" fill="none"/>
<path d="M6.4624999999999995 2.2291666666666665L6.4624999999999995 1.6166666666666667" stroke-width="0.03" stroke="#000000" fill="none"/>
<path d="M7.016666666666666 1.8208333333333333L7.016666666666666 2.2291666666666665" stroke-width="0.03" stroke="#000000" fill="none"/>
<path d="M7.016666666666666 2.1416666666666666L6.958333333333333 2.2L6.8999999999999995 2.2291666666666665L6.812499999999999 2.2291666666666665L6.754166666666666 2.2L6.695833333333333 2.1416666666666666L6.666666666666666 2.0541666666666667L6.666666666666666 1.9958333333333333L6.695833333333333 1.9083333333333332L6.754166666666666 1.85L6.812499999999999 1.8208333333333333L6.8999999999999995 1.8208333333333333L6.958333333333333 1.85L7.016666666666666 1.9083333333333332" stroke-width="0.03" stroke="#000000" fill="none"/>
<path d="M7.249999999999999 2.1125L7.541666666666666 1.8208333333333333" stroke-width="0.03" stroke="#000000" fill="none"/>
<path d="M7.366666666666666 1.9958333333333333L7.570833333333333 2.2291666666666665" stroke-width="0.03" stroke="#000000" fill="none"/>
<path d="M7.716666666666666 1.9958333333333333L8.066666666666666 1.9958333333333333L8.066666666666666 1.9375L8.0375 1.8791666666666667L8.008333333333333 1.85L7.949999999999999 1.8208333333333333L7.8625 1.8208333333333333L7.804166666666666 1.85L7.745833333333333 1.9083333333333332L7.716666666666666 1.9958333333333333L7.716666666666666 2.0541666666666667L7.745833333333333 2.1416666666666666L7.804166666666666 2.2L7.8625 2.2291666666666665L7.949999999999999 2.2291666666666665L8.008333333333333 2.2L8.066666666666666 2.1416666666666666" stroke-width="0.03" stroke="#000000" fill="none"/>
<path d="M8.270833333333332 1.7625L8.270833333333332 1.7333333333333334L8.299999999999999 1.675L8.329166666666666 1.6458333333333333L8.3875 1.6166666666666667L8.504166666666666 1.6166666666666667L8.5625 1.6458333333333333L8.591666666666665 1.675L8.620833333333334 1.7333333333333334L8.620833333333334 1.7916666666666665L8.591666666666665 1.85L8.533333333333331 1.9375L8.241666666666667 2.2291666666666665L8.649999999999999 2.2291666666666665" stroke-width="0.03" stroke="#000000" fill="none"/>
<path d="M7.249999999999999 2.2291666666666665L7.249999999999999 1.6166666666666667" stroke-width="0.03" stroke="#000000" fill="none"/>
<path d="M5.20862645825987 3.077541264041642L5.244678440936948 3.0595152727031034L5.298756414952564 3.0054372986874878L5.298756414952564 3.383983116796798" stroke-width="0.03" stroke="#000000" fill="none"/>
<path d="M5.028366544874484 3.0595152727031034L5.010340553535945 3.023463290026026L4.95626257952033 3.0054372986874878L4.920210596843253 3.0054372986874878L4.866132622827637 3.023463290026026L4.83008064015056 3.077541264041642L4.812054648812021 3.167671220734335L4.812054648812021 3.257801177427028L4.83008064015056 3.3299051427811825L4.866132622827637 3.3659571254582596L4.920210596843253 3.383983116796798L4.938236588181791 3.383983116796798L4.992314562197407 3.3659571254582596L5.028366544874484 3.3299051427811825L5.046392536213023 3.2758271687655665L5.046392536213023 3.257801177427028L5.028366544874484 3.2037232034114123L4.992314562197407 3.167671220734335L4.938236588181791 3.149645229395796L4.920210596843253 3.149645229395796L4.866132622827637 3.167671220734335L4.83008064015056 3.2037232034114123L4.812054648812021 3.257801177427028" stroke-width="0.03" stroke="#000000" fill="none"/>
<path d="M4.667846718103712 3.257801177427028L4.487586804718326 3.257801177427028" stroke-width="0.03" stroke="#000000" fill="none"/>
<path d="M4.433508830702711 3.383983116796798L4.57771676141102 3.0054372986874878L4.7219246921193285 3.383983116796798" stroke-width="0.03" stroke="#000000" fill="none"/>
<path d="M4.397456848025634 3.383983116796798L4.253248917317325 3.0054372986874878L4.109040986609016 3.383983116796798" stroke-width="0.03" stroke="#000000" fill="none"/>
<path d="M4.163118960624631 3.257801177427028L4.343378874010018 3.257801177427028" stroke-width="0.03" stroke="#000000" fill="none"/>
<path d="M3.7845731425153213 3.383983116796798L3.7845731425153213 3.0054372986874878L3.9107550818850916 3.0054372986874878L3.9648330559007072 3.023463290026026L4.000885038577785 3.0595152727031034L4.018911029916323 3.0955672553801805L4.036937021254861 3.149645229395796L4.036937021254861 3.2397751860884894L4.018911029916323 3.293853160104105L4.000885038577785 3.3299051427811825L3.9648330559007072 3.3659571254582596L3.9107550818850916 3.383983116796798L3.7845731425153213 3.383983116796798" stroke-width="0.03" stroke="#000000" fill="none"/>
<path d="M3.4060273244060104 3.3118791514426436L3.4240533157445494 3.3479311341197207L3.442079307083088 3.3659571254582596L3.4961572810987036 3.383983116796798L3.5502352551143197 3.383983116796798L3.604313229129935 3.3659571254582596L3.6403652118070124 3.3299051427811825L3.658391203145551 3.2758271687655665L3.658391203145551 3.2397751860884894L3.6403652118070124 3.1856972120728733L3.604313229129935 3.149645229395796L3.5502352551143197 3.1316192380572576L3.4961572810987036 3.1316192380572576L3.442079307083088 3.149645229395796L3.4240533157445494 3.167671220734335L3.442079307083088 3.0054372986874878L3.622339220468474 3.0054372986874878" stroke-width="0.03" stroke="#000000" fill="none"/>
<path d="M3.0815594803123156 3.0054372986874878L3.2798453850362406 3.0054372986874878L3.171689437005009 3.149645229395796L3.225767411020625 3.149645229395796L3.261819393697702 3.167671220734335L3.2798453850362406 3.1856972120728733L3.297871376374779 3.2397751860884894L3.297871376374779 3.2758271687655665L3.2798453850362406 3.3299051427811825L3.243793402359163 3.3659571254582596L3.1897154283435474 3.383983116796798L3.1356374543279317 3.383983116796798L3.0815594803123156 3.3659571254582596L3.0635334889737775 3.3479311341197207L3.0455074976352385 3.3118791514426436" stroke-width="0.03" stroke="#000000" fill="none"/>
<path d="M2.9734035322810843 3.383983116796798L2.8291956015727755 3.0054372986874878L2.6849876708644667 3.383983116796798" stroke-width="0.03" stroke="#000000" fill="none"/>
<path d="M2.6128837055103125 3.383983116796798L2.414597800786388 3.1316192380572576" stroke-width="0.03" stroke="#000000" fill="none"/>
<path d="M2.6128837055103125 3.1316192380572576L2.414597800786388 3.383983116796798" stroke-width="0.03" stroke="#000000" fill="none"/>
<path d="M2.7390656448800828 3.257801177427028L2.9193255582654682 3.257801177427028" stroke-width="0.03" stroke="#000000" fill="none"/>
<path d="M2.1622339220468474 3.0054372986874878L2.1081559480312317 3.023463290026026L2.072103965354154 3.077541264041642L2.0540779740156156 3.167671220734335L2.0540779740156156 3.221749194749951L2.072103965354154 3.3118791514426436L2.1081559480312317 3.3659571254582596L2.1622339220468474 3.383983116796798L2.1982859047239245 3.383983116796798L2.2523638787395406 3.3659571254582596L2.2884158614166177 3.3118791514426436L2.3064418527551562 3.221749194749951L2.3064418527551562 3.167671220734335L2.2884158614166177 3.077541264041642L2.2523638787395406 3.023463290026026L2.1982859047239245 3.0054372986874878L2.1622339220468474 3.0054372986874878" stroke-width="0.03" stroke="#000000" fill="none"/>
</svg>
