<?xml version="1.0" standalone="no"?>
<svg width="29.7cm" height="42cm" version="1.1" xmlns="http://www.w3.org/2000/svg" viewBox="0.0 0.0 29.700001 42.000001">
<path d="M4.107421875 12.509568131178968L6.610546875 11.064388238613684L7.7578125 11.72676235603944L7.7578125 12.569783960035853L5.88046875 13.653668879459815L5.88046875 14.13539551031491L5.254687500000001 14.49669048345623L4.107421875 13.834316366030475L4.107421875 12.509568131178968L5.254687500000001 13.171942248604722L7.7578125 11.72676235603944" stroke-width="0.03" stroke="#000000" fill="none"/>
<path d="M7.5492187500000005 11.606330698325666L9.113671875 10.703093265472365L10.05234375 11.245035725184344" stroke-width="0.03" stroke="#000000" fill="none"/>
<path d="M9.739453124999999 11.064388238613684L10.260937499999999 10.763309094329252L10.46953125 10.883740752043025" stroke-width="0.03" stroke="#000000" fill="none"/>
<path d="M10.46953125 10.763309094329252L12.138281249999999 9.799855832619063L12.346874999999999 9.920287490332836" stroke-width="0.03" stroke="#000000" fill="none"/>
<path d="M12.659765624999999 9.739640003762176L12.659765624999999 8.776186742051989L12.868359374999999 8.655755084338216L12.97265625 8.715970913195102L12.97265625 9.558992517191516L8.5921875 12.08805732918076L8.5921875 12.328920644608306L10.156640625 13.232158077461609" stroke-width="0.03" stroke="#000000" fill="none"/>
<path d="M10.365234375 13.111726419747836L8.38359375 14.255827168028683L8.38359375 14.49669048345623" stroke-width="0.03" stroke="#000000" fill="none"/>
<path d="M8.5921875 14.376258825742458L8.38359375 14.255827168028683" stroke-width="0.03" stroke="#000000" fill="none"/>
<path d="M7.862109374999999 14.797769627740664L5.88046875 13.653668879459815" stroke-width="0.03" stroke="#000000" fill="none"/>
<path d="M5.88046875 14.13539551031491L7.4449218749999995 15.038632943168212" stroke-width="0.03" stroke="#000000" fill="none"/>
<path d="M7.653515625 14.918201285454437L6.193359375 14.075179681458023L5.984765624999999 14.195611339171796L5.984765624999999 15.159064600881985L7.027734374999999 15.761222889450853L6.819140625 15.881654547164626L6.819140625 16.36338117801972L6.4019531249999995 16.60424449344727L6.4019531249999995 16.845107808874815L5.3589843749999995 16.24294952030595L4.524609375000001 16.72467615116104L4.524609375000001 16.965539466588588L5.984765624999999 17.808561070585" stroke-width="0.03" stroke="#000000" fill="none"/>
<path d="M5.984765624999999 17.567697755157454L4.4203125 16.66446032230415L4.003124999999999 16.905323637731698L4.003124999999999 19.073093476579622L3.2730468750000017 19.49460427857783L2.125781250000001 18.832230161152076L2.125781250000001 15.94187037602151L3.2730468750000017 15.279496258595758L4.4203125 15.94187037602151L4.4203125 16.66446032230415" stroke-width="0.03" stroke="#000000" fill="none"/>
<path d="M4.003124999999999 16.905323637731698L5.984765624999999 18.049424386012547" stroke-width="0.03" stroke="#000000" fill="none"/>
<path d="M5.984765624999999 18.651582674581416L5.776171874999998 18.77201433229519L5.776171874999998 21.060215828856883L4.003124999999999 20.03654673828981L4.003124999999999 25.0946763622683L3.2730468750000017 25.51618716426651L3.1687499999999984 25.45597133540962L3.1687499999999984 25.215108019982072L4.003124999999999 24.73338138912698" stroke-width="0.03" stroke="#000000" fill="none"/>
<path d="M4.003124999999999 24.85381304684075L3.2730468750000017 25.27532384883896L3.1687499999999984 25.215108019982072" stroke-width="0.03" stroke="#000000" fill="none"/>
<path d="M3.2730468750000017 25.27532384883896L3.2730468750000017 25.51618716426651" stroke-width="0.03" stroke="#000000" fill="none"/>
<path d="M3.481640624999999 25.034460533411412L3.481640624999999 21.42151080199821" stroke-width="0.03" stroke="#000000" fill="none"/>
<path d="M3.6902343750000006 21.54194245971198L3.6902343750000006 22.14410074828085L3.898828125 22.264532405994622" stroke-width="0.03" stroke="#000000" fill="none"/>
<path d="M4.003124999999999 22.204316577137735L3.7945312499999995 22.32474823485151L3.7945312499999995 24.251654758271883L4.003124999999999 24.37208641598566" stroke-width="0.03" stroke="#000000" fill="none"/>
<path d="M4.4203125 24.612949731413206L4.733203124999998 24.432302244842543L5.150390625 24.673165560270093L5.150390625 25.75705047969405L5.88046875 26.17856128169226L5.88046875 27.021582885688677L6.819140625 27.563525345400656L6.819140625 28.04525197625575L6.5062500000000005 28.22589946282641L5.984765624999999 27.92482031854198" stroke-width="0.03" stroke="#000000" fill="none"/>
<path d="M5.88046875 27.985036147398862L5.88046875 28.346331120540185L10.260937499999999 30.87539593252943L10.46953125 30.754964274815652L10.46953125 28.94848940910905" stroke-width="0.03" stroke="#000000" fill="none"/>
<path d="M10.260937499999999 28.828057751395274L10.260937499999999 30.87539593252943" stroke-width="0.03" stroke="#000000" fill="none"/>
<path d="M10.05234375 30.754964274815652L10.05234375 31.11625924795697L10.782421874999999 31.53777004995518" stroke-width="0.03" stroke="#000000" fill="none"/>
<path d="M11.095312499999999 31.35712256338452L10.365234375 31.77863336538273L10.365234375 33.103381600234236L12.868359374999999 34.54856149279952L14.015625 33.886187375373765L14.015625 32.56143914052225L13.389843749999999 32.200144167380934L13.389843749999999 30.393669301674333" stroke-width="0.03" stroke="#000000" fill="none"/>
<path d="M13.181249999999999 30.273237643960556L13.181249999999999 31.959280851953388L13.389843749999999 32.07971250966716L14.224218749999999 31.597985878812068L14.224218749999999 30.393669301674333L14.4328125 30.514100959388106L14.85 30.273237643960556L15.267187499999999 30.514100959388106L15.267187499999999 34.36791400622886L15.89296875 34.00661903308754" stroke-width="0.03" stroke="#000000" fill="none"/>
<path d="M15.684375 33.886187375373765L15.684375 32.56143914052225L16.31015625 32.200144167380934L16.31015625 30.393669301674333" stroke-width="0.03" stroke="#000000" fill="none"/>
<path d="M16.51875 30.273237643960556L16.51875 31.959280851953388L16.31015625 32.07971250966716L15.47578125 31.597985878812068L15.47578125 30.393669301674333L15.267187499999999 30.514100959388106" stroke-width="0.03" stroke="#000000" fill="none"/>
<path d="M14.85 30.273237643960556L14.85 34.12705069080131L14.4328125 34.36791400622886L13.80703125 34.00661903308754" stroke-width="0.03" stroke="#000000" fill="none"/>
<path d="M14.4328125 34.36791400622886L14.4328125 30.514100959388106" stroke-width="0.03" stroke="#000000" fill="none"/>
<path d="M14.85 30.032374328533013L13.80703125 30.63453261710188L7.13203125 26.780719570261127L7.13203125 25.45597133540962L5.984765624999999 24.793597217983862L5.984765624999999 17.08597112430236L7.027734374999999 16.483812835733495L7.5492187500000005 16.784891980017925L7.5492187500000005 16.062302033735286L7.653515625 16.0020862048784L7.5492187500000005 15.94187037602151L7.4449218749999995 16.0020862048784L7.4449218749999995 16.72467615116104L6.819140625 17.08597112430236L6.819140625 17.206402782016134L6.9234374999999995 17.26661861087302L7.653515625 16.845107808874815L9.948046875 18.16985604372632L9.739453124999999 18.290287701440096L9.739453124999999 19.13330930543651L10.678125 18.59136684572453L12.97265625 19.916115080576038L11.9296875 20.518273369144907L11.9296875 22.686043207992828L13.80703125 23.76992812741679L14.85 23.167769838847924L15.89296875 23.76992812741679L17.7703125 22.686043207992828L17.7703125 20.518273369144907L16.72734375 19.916115080576038L16.72734375 18.711798503438303L14.85 17.62791358401434L12.97265625 18.711798503438303L12.97265625 19.916115080576038" stroke-width="0.03" stroke="#000000" fill="none"/>
<path d="M12.97265625 20.03654673828981L12.7640625 20.156978396003588L12.7640625 22.204316577137735L11.9296875 22.686043207992828" stroke-width="0.03" stroke="#000000" fill="none"/>
<path d="M12.7640625 22.204316577137735L14.537109375 23.227985667704807L14.745703124999999 23.107554009991038L14.745703124999999 21.301079144284433L14.537109375 21.18064748657066L14.537109375 20.939784171143113L12.97265625 20.03654673828981" stroke-width="0.03" stroke="#000000" fill="none"/>
<path d="M13.076953125000001 19.85589925171915L13.076953125000001 19.615035936291605L14.85 18.59136684572453L14.85 17.62791358401434" stroke-width="0.03" stroke="#000000" fill="none"/>
<path d="M14.85 18.59136684572453L16.623046875 19.615035936291605L16.623046875 19.85589925171915L15.05859375 20.759136684572454L14.85 20.63870502685868L14.64140625 20.759136684572454L13.076953125000001 19.85589925171915" stroke-width="0.03" stroke="#000000" fill="none"/>
<path d="M13.076953125000001 19.615035936291605L14.64140625 20.518273369144907L14.64140625 20.759136684572454" stroke-width="0.03" stroke="#000000" fill="none"/>
<path d="M14.745703124999999 20.698920855715564L14.745703124999999 20.939784171143113L14.537109375 21.060215828856883" stroke-width="0.03" stroke="#000000" fill="none"/>
<path d="M14.537109375 20.939784171143113L14.328515625 21.060215828856883L12.7640625 20.156978396003588" stroke-width="0.03" stroke="#000000" fill="none"/>
<path d="M13.389843749999999 20.156978396003588L13.494140625 20.096762567146698" stroke-width="0.03" stroke="#000000" fill="none"/>
<path d="M13.389843749999999 20.156978396003588L13.389843749999999 20.277410053717357" stroke-width="0.03" stroke="#000000" fill="none"/>
<path d="M13.389843749999999 20.156978396003588L14.119921875 20.57848919800179L14.015625 20.63870502685868" stroke-width="0.03" stroke="#000000" fill="none"/>
<path d="M14.119921875 20.57848919800179L14.119921875 20.458057540288017" stroke-width="0.03" stroke="#000000" fill="none"/>
<path d="M14.328515625 20.57848919800179L14.328515625 20.698920855715564L14.224218749999999 20.759136684572454" stroke-width="0.03" stroke="#000000" fill="none"/>
<path d="M14.328515625 20.698920855715564L14.745703124999999 20.939784171143113" stroke-width="0.03" stroke="#000000" fill="none"/>
<path d="M14.85 21L14.328515625 21.301079144284433L14.537109375 21.42151080199821L14.537109375 23.227985667704807" stroke-width="0.03" stroke="#000000" fill="none"/>
<path d="M14.85 23.167769838847924L14.85 25.817266308550938L13.911328125 26.359208768262917L13.911328125 26.840935399118013L14.64140625 27.26244620111622L14.85 27.142014543402446L15.05859375 27.26244620111622L15.788671874999999 26.840935399118013L15.788671874999999 26.359208768262917L14.85 25.817266308550938" stroke-width="0.03" stroke="#000000" fill="none"/>
<path d="M14.85 26.660287912547354L14.64140625 26.780719570261127L13.911328125 26.359208768262917" stroke-width="0.03" stroke="#000000" fill="none"/>
<path d="M14.64140625 26.780719570261127L14.64140625 27.26244620111622" stroke-width="0.03" stroke="#000000" fill="none"/>
<path d="M15.05859375 27.26244620111622L15.05859375 26.780719570261127L15.788671874999999 26.359208768262917" stroke-width="0.03" stroke="#000000" fill="none"/>
<path d="M15.05859375 26.780719570261127L14.85 26.660287912547354L14.85 29.30978438225037L14.119921875 29.731295184248577L14.119921875 29.851726841962353L14.224218749999999 29.91194267081924L14.85 29.550647697677917L15.47578125 29.91194267081924L15.580078125 29.851726841962353L15.580078125 29.731295184248577L14.85 29.30978438225037" stroke-width="0.03" stroke="#000000" fill="none"/>
<path d="M14.85 29.430216039964147L14.224218749999999 29.791511013105463L14.119921875 29.731295184248577" stroke-width="0.03" stroke="#000000" fill="none"/>
<path d="M14.224218749999999 29.791511013105463L14.224218749999999 29.91194267081924" stroke-width="0.03" stroke="#000000" fill="none"/>
<path d="M14.85 30.032374328533013L14.85 29.430216039964147L15.47578125 29.791511013105463L15.580078125 29.731295184248577" stroke-width="0.03" stroke="#000000" fill="none"/>
<path d="M15.47578125 29.791511013105463L15.47578125 29.91194267081924" stroke-width="0.03" stroke="#000000" fill="none"/>
<path d="M14.85 30.032374328533013L15.89296875 30.63453261710188L22.567968750000002 26.780719570261127L22.567968750000002 25.45597133540962L23.715234375 24.793597217983862L23.715234375 17.08597112430236L22.672265625 16.483812835733495L22.150781249999998 16.784891980017925L22.150781249999998 16.062302033735286L22.046484375000002 16.0020862048784L22.150781249999998 15.94187037602151L22.255078124999997 16.0020862048784L22.255078124999997 16.72467615116104L22.880859375 17.08597112430236L22.880859375 17.206402782016134L22.7765625 17.26661861087302L22.046484375000002 16.845107808874815L19.751953125 18.16985604372632L19.960546875000002 18.290287701440096L19.960546875000002 19.13330930543651L19.021874999999998 18.59136684572453L16.72734375 19.916115080576038" stroke-width="0.03" stroke="#000000" fill="none"/>
<path d="M16.72734375 20.03654673828981L15.162890625 20.939784171143113L15.162890625 21.18064748657066L14.954296875 21.301079144284433L14.954296875 23.107554009991038L15.162890625 23.227985667704807L16.9359375 22.204316577137735L17.7703125 22.686043207992828" stroke-width="0.03" stroke="#000000" fill="none"/>
<path d="M16.9359375 22.204316577137735L16.9359375 20.156978396003588L16.72734375 20.03654673828981" stroke-width="0.03" stroke="#000000" fill="none"/>
<path d="M16.9359375 20.156978396003588L15.371484375 21.060215828856883L15.162890625 20.939784171143113" stroke-width="0.03" stroke="#000000" fill="none"/>
<path d="M15.162890625 21.060215828856883L14.954296875 20.939784171143113L14.954296875 20.698920855715564" stroke-width="0.03" stroke="#000000" fill="none"/>
<path d="M15.05859375 20.759136684572454L15.05859375 20.518273369144907L16.623046875 19.615035936291605" stroke-width="0.03" stroke="#000000" fill="none"/>
<path d="M16.31015625 20.156978396003588L15.580078125 20.57848919800179L15.684375 20.63870502685868" stroke-width="0.03" stroke="#000000" fill="none"/>
<path d="M15.580078125 20.57848919800179L15.580078125 20.458057540288017" stroke-width="0.03" stroke="#000000" fill="none"/>
<path d="M15.371484375 20.57848919800179L15.371484375 20.698920855715564L15.47578125 20.759136684572454" stroke-width="0.03" stroke="#000000" fill="none"/>
<path d="M15.371484375 20.698920855715564L14.954296875 20.939784171143113" stroke-width="0.03" stroke="#000000" fill="none"/>
<path d="M14.85 21L14.85 20.397841711431134L14.64140625 20.518273369144907" stroke-width="0.03" stroke="#000000" fill="none"/>
<path d="M14.85 20.397841711431134L15.05859375 20.518273369144907" stroke-width="0.03" stroke="#000000" fill="none"/>
<path d="M14.85 21L15.371484375 21.301079144284433L15.162890625 21.42151080199821L15.162890625 23.227985667704807" stroke-width="0.03" stroke="#000000" fill="none"/>
<path d="M14.85 22.686043207992828L14.954296875 22.62582737913594" stroke-width="0.03" stroke="#000000" fill="none"/>
<path d="M14.85 22.686043207992828L14.85 21.843021603996412L14.745703124999999 21.903237432853302" stroke-width="0.03" stroke="#000000" fill="none"/>
<path d="M14.85 21.843021603996412L14.954296875 21.903237432853302" stroke-width="0.03" stroke="#000000" fill="none"/>
<path d="M14.954296875 21.662374117425752L14.85 21.602158288568866L14.745703124999999 21.662374117425752" stroke-width="0.03" stroke="#000000" fill="none"/>
<path d="M14.85 21.602158288568866L14.85 21.120431657713773L14.64140625 21.240863315427546" stroke-width="0.03" stroke="#000000" fill="none"/>
<path d="M14.745703124999999 21.301079144284433L14.537109375 21.42151080199821" stroke-width="0.03" stroke="#000000" fill="none"/>
<path d="M14.328515625 21.301079144284433L14.328515625 21.060215828856883" stroke-width="0.03" stroke="#000000" fill="none"/>
<path d="M14.85 21.120431657713773L15.05859375 21.240863315427546" stroke-width="0.03" stroke="#000000" fill="none"/>
<path d="M14.954296875 21.301079144284433L15.162890625 21.42151080199821" stroke-width="0.03" stroke="#000000" fill="none"/>
<path d="M15.371484375 21.301079144284433L15.371484375 21.060215828856883" stroke-width="0.03" stroke="#000000" fill="none"/>
<path d="M16.31015625 20.277410053717357L16.31015625 20.156978396003588L16.205859375 20.096762567146698" stroke-width="0.03" stroke="#000000" fill="none"/>
<path d="M16.72734375 18.711798503438303L22.672265625 15.279496258595758L22.672265625 16.483812835733495" stroke-width="0.03" stroke="#000000" fill="none"/>
<path d="M22.880859375 16.36338117801972L26.218359375 14.436474654599342L26.218359375 13.95474802374425L25.592578125 13.593453050602928" stroke-width="0.03" stroke="#000000" fill="none"/>
<path d="M25.592578125 13.834316366030475L24.4453125 14.49669048345623L23.819531249999997 14.13539551031491L22.255078124999997 15.038632943168212" stroke-width="0.03" stroke="#000000" fill="none"/>
<path d="M22.046484375000002 14.918201285454437L23.506640625 14.075179681458023L23.715234375 14.195611339171796L23.715234375 15.159064600881985L22.672265625 15.761222889450853L22.880859375 15.881654547164626L22.880859375 16.36338117801972L23.298046874999997 16.60424449344727L23.298046874999997 16.845107808874815L24.341015624999997 16.24294952030595L25.175390624999995 16.72467615116104L25.175390624999995 16.965539466588588L23.715234375 17.808561070585" stroke-width="0.03" stroke="#000000" fill="none"/>
<path d="M23.715234375 17.567697755157454L25.279687499999998 16.66446032230415L25.696875000000002 16.905323637731698L25.696875000000002 19.073093476579622L26.426953124999997 19.49460427857783L27.57421875 18.832230161152076L27.57421875 15.94187037602151L26.426953124999997 15.279496258595758L25.279687499999998 15.94187037602151L25.279687499999998 16.66446032230415" stroke-width="0.03" stroke="#000000" fill="none"/>
<path d="M25.696875000000002 16.905323637731698L23.715234375 18.049424386012547" stroke-width="0.03" stroke="#000000" fill="none"/>
<path d="M23.715234375 18.651582674581416L23.923828125000004 18.77201433229519L23.923828125000004 21.060215828856883L25.696875000000002 20.03654673828981L25.696875000000002 25.0946763622683L26.426953124999997 25.51618716426651L26.53125 25.45597133540962L26.53125 25.215108019982072L25.696875000000002 24.73338138912698" stroke-width="0.03" stroke="#000000" fill="none"/>
<path d="M25.696875000000002 24.85381304684075L26.426953124999997 25.27532384883896L26.53125 25.215108019982072" stroke-width="0.03" stroke="#000000" fill="none"/>
<path d="M26.426953124999997 25.27532384883896L26.426953124999997 25.51618716426651" stroke-width="0.03" stroke="#000000" fill="none"/>
<path d="M26.218359375 25.034460533411412L26.53125 24.85381304684075L27.365624999999998 25.335539677695845L27.365624999999998 25.817266308550938L25.279687499999998 27.021582885688677L25.279687499999998 29.430216039964147L24.8625 29.67107935539169L24.028125 29.189352724536597L24.028125 28.828057751395274L20.89921875 30.63453261710188" stroke-width="0.03" stroke="#000000" fill="none"/>
<path d="M20.89921875 30.393669301674333L21.420703125 30.0925901573899L21.420703125 29.851726841962353" stroke-width="0.03" stroke="#000000" fill="none"/>
<path d="M21.31640625 29.791511013105463L21.525000000000002 29.91194267081924L23.193749999999998 28.94848940910905L23.193749999999998 28.7076260936815" stroke-width="0.03" stroke="#000000" fill="none"/>
<path d="M23.506640625 28.526978607110845L24.341015624999997 29.008705237965938L24.549609375 28.888273580252164L24.549609375 28.767841922538388L23.819531249999997 28.346331120540185L19.439062500000002 30.87539593252943L19.23046875 30.754964274815652L19.23046875 28.94848940910905" stroke-width="0.03" stroke="#000000" fill="none"/>
<path d="M19.439062500000002 28.828057751395274L17.457421875 29.972158499676127L17.248828125 29.851726841962353" stroke-width="0.03" stroke="#000000" fill="none"/>
<path d="M17.457421875 29.972158499676127L17.457421875 29.731295184248577" stroke-width="0.03" stroke="#000000" fill="none"/>
<path d="M16.72734375 30.152805986246786L16.72734375 32.44100748280849L18.6046875 31.35712256338452L19.334765625 31.77863336538273L19.334765625 33.103381600234236L16.831640625 34.54856149279952L15.684375 33.886187375373765" stroke-width="0.03" stroke="#000000" fill="none"/>
<path d="M15.267187499999999 34.36791400622886L14.85 34.12705069080131" stroke-width="0.03" stroke="#000000" fill="none"/>
<path d="M14.015625 32.56143914052225L12.868359374999999 33.22381325794801L12.868359374999999 34.54856149279952" stroke-width="0.03" stroke="#000000" fill="none"/>
<path d="M12.868359374999999 33.22381325794801L10.365234375 31.77863336538273" stroke-width="0.03" stroke="#000000" fill="none"/>
<path d="M10.365234375 32.01949668081028L8.80078125 31.11625924795697L8.80078125 30.032374328533013" stroke-width="0.03" stroke="#000000" fill="none"/>
<path d="M8.80078125 30.393669301674333L8.279296875 30.0925901573899L8.279296875 29.851726841962353" stroke-width="0.03" stroke="#000000" fill="none"/>
<path d="M8.175 29.91194267081924L8.38359375 29.791511013105463" stroke-width="0.03" stroke="#000000" fill="none"/>
<path d="M8.175 29.67107935539169L8.175 29.91194267081924L6.5062500000000005 28.94848940910905L6.5062500000000005 28.7076260936815" stroke-width="0.03" stroke="#000000" fill="none"/>
<path d="M6.193359375 28.526978607110845L5.3589843749999995 29.008705237965938L5.150390625 28.888273580252164L5.150390625 28.767841922538388L5.88046875 28.346331120540185" stroke-width="0.03" stroke="#000000" fill="none"/>
<path d="M6.089062499999999 28.46676277825396L5.3589843749999995 28.888273580252164L5.3589843749999995 29.008705237965938" stroke-width="0.03" stroke="#000000" fill="none"/>
<path d="M5.3589843749999995 28.888273580252164L5.150390625 28.767841922538388" stroke-width="0.03" stroke="#000000" fill="none"/>
<path d="M5.671875 28.828057751395274L5.671875 29.189352724536597L4.8374999999999995 29.67107935539169L4.4203125 29.430216039964147L4.4203125 27.021582885688677L2.3343750000000005 25.817266308550938L2.3343750000000005 25.335539677695845L3.1687499999999984 24.85381304684075L3.481640624999999 25.034460533411412" stroke-width="0.03" stroke="#000000" fill="none"/>
<path d="M3.7945312499999995 25.215108019982072L4.3160156249999995 25.51618716426651L4.3160156249999995 26.238777110549147L4.8374999999999995 25.937697966264714L4.8374999999999995 26.780719570261127L5.567578125 27.202230372259333L5.046093749999999 27.50330951654377L5.046093749999999 27.744172831971316L5.671875 28.105467805112635L6.193359375 27.804388660828202L6.193359375 27.563525345400656L6.5062500000000005 27.744172831971316L6.819140625 27.563525345400656" stroke-width="0.03" stroke="#000000" fill="none"/>
<path d="M6.5062500000000005 27.744172831971316L6.5062500000000005 28.22589946282641" stroke-width="0.03" stroke="#000000" fill="none"/>
<path d="M6.193359375 27.563525345400656L5.671875 27.864604489685092L5.671875 28.46676277825396" stroke-width="0.03" stroke="#000000" fill="none"/>
<path d="M5.671875 28.828057751395274L8.80078125 30.63453261710188" stroke-width="0.03" stroke="#000000" fill="none"/>
<path d="M8.070703124999998 29.490431868821034L8.279296875 29.37000021110726L8.279296875 28.647410264824618L7.862109374999999 28.40654694939707L7.653515625 28.526978607110845L7.653515625 29.249568553393484L8.070703124999998 29.490431868821034L8.070703124999998 28.767841922538388L7.653515625 28.526978607110845" stroke-width="0.03" stroke="#000000" fill="none"/>
<path d="M8.070703124999998 28.767841922538388L8.279296875 28.647410264824618" stroke-width="0.03" stroke="#000000" fill="none"/>
<path d="M9.009374999999999 27.744172831971316L9.009374999999999 24.492518073699433L9.113671875 24.432302244842543L10.782421874999999 25.39575550655273L10.782421874999999 28.647410264824618L10.678125 28.7076260936815L9.009374999999999 27.744172831971316" stroke-width="0.03" stroke="#000000" fill="none"/>
<path d="M10.260937499999999 28.828057751395274L12.242578125 29.972158499676127L12.451171875 29.851726841962353" stroke-width="0.03" stroke="#000000" fill="none"/>
<path d="M12.242578125 29.972158499676127L12.242578125 29.731295184248577" stroke-width="0.03" stroke="#000000" fill="none"/>
<path d="M12.97265625 30.152805986246786L12.97265625 32.44100748280849L11.095312499999999 31.35712256338452" stroke-width="0.03" stroke="#000000" fill="none"/>
<path d="M12.97265625 32.44100748280849L13.389843749999999 32.200144167380934" stroke-width="0.03" stroke="#000000" fill="none"/>
<path d="M13.80703125 30.63453261710188L13.80703125 23.76992812741679" stroke-width="0.03" stroke="#000000" fill="none"/>
<path d="M14.745703124999999 22.62582737913594L14.85 22.686043207992828" stroke-width="0.03" stroke="#000000" fill="none"/>
<path d="M15.89296875 23.76992812741679L15.89296875 30.63453261710188" stroke-width="0.03" stroke="#000000" fill="none"/>
<path d="M16.31015625 32.200144167380934L16.72734375 32.44100748280849" stroke-width="0.03" stroke="#000000" fill="none"/>
<path d="M16.831640625 33.22381325794801L19.334765625 31.77863336538273" stroke-width="0.03" stroke="#000000" fill="none"/>
<path d="M19.334765625 32.01949668081028L20.89921875 31.11625924795697L20.89921875 30.032374328533013" stroke-width="0.03" stroke="#000000" fill="none"/>
<path d="M21.525000000000002 29.91194267081924L21.525000000000002 29.67107935539169" stroke-width="0.03" stroke="#000000" fill="none"/>
<path d="M21.629296875 29.490431868821034L22.046484375000002 29.249568553393484L22.046484375000002 28.526978607110845L21.837890625 28.40654694939707L21.420703125 28.647410264824618L21.420703125 29.37000021110726L21.629296875 29.490431868821034L21.629296875 28.767841922538388L22.046484375000002 28.526978607110845" stroke-width="0.03" stroke="#000000" fill="none"/>
<path d="M21.629296875 28.767841922538388L21.420703125 28.647410264824618" stroke-width="0.03" stroke="#000000" fill="none"/>
<path d="M20.690625 27.744172831971316L19.021874999999998 28.7076260936815L18.917578125000002 28.647410264824618L18.917578125000002 25.39575550655273L20.586328125 24.432302244842543L20.690625 24.492518073699433L20.690625 27.744172831971316" stroke-width="0.03" stroke="#000000" fill="none"/>
<path d="M19.439062500000002 28.828057751395274L19.439062500000002 30.87539593252943" stroke-width="0.03" stroke="#000000" fill="none"/>
<path d="M19.647656249999997 30.754964274815652L19.647656249999997 31.11625924795697L18.917578125000002 31.53777004995518" stroke-width="0.03" stroke="#000000" fill="none"/>
<path d="M16.831640625 33.22381325794801L16.831640625 34.54856149279952" stroke-width="0.03" stroke="#000000" fill="none"/>
<path d="M16.831640625 33.22381325794801L15.684375 32.56143914052225" stroke-width="0.03" stroke="#000000" fill="none"/>
<path d="M19.021874999999998 28.7076260936815L19.021874999999998 25.45597133540962L18.917578125000002 25.39575550655273" stroke-width="0.03" stroke="#000000" fill="none"/>
<path d="M19.021874999999998 25.45597133540962L20.690625 24.492518073699433" stroke-width="0.03" stroke="#000000" fill="none"/>
<path d="M20.794921875 24.311870587128773L23.610937500000002 22.686043207992828L23.610937500000002 20.759136684572454L23.506640625 20.698920855715564L20.690625 22.32474823485151L20.690625 24.251654758271883L20.794921875 24.311870587128773L20.794921875 22.384964063708395L20.690625 22.32474823485151" stroke-width="0.03" stroke="#000000" fill="none"/>
<path d="M20.794921875 22.384964063708395L23.610937500000002 20.759136684572454" stroke-width="0.03" stroke="#000000" fill="none"/>
<path d="M23.923828125000004 20.819352513429337L25.48828125 19.916115080576038L25.696875000000002 20.03654673828981" stroke-width="0.03" stroke="#000000" fill="none"/>
<path d="M25.696875000000002 20.277410053717357L26.009765625 20.096762567146698L26.009765625 19.253740963150285" stroke-width="0.03" stroke="#000000" fill="none"/>
<path d="M26.426953124999997 19.49460427857783L26.426953124999997 16.60424449344727L25.279687499999998 15.94187037602151" stroke-width="0.03" stroke="#000000" fill="none"/>
<path d="M26.426953124999997 16.60424449344727L27.57421875 15.94187037602151" stroke-width="0.03" stroke="#000000" fill="none"/>
<path d="M26.635546875 15.399927916309531L26.635546875 14.67733797002689L26.218359375 14.436474654599342" stroke-width="0.03" stroke="#000000" fill="none"/>
<path d="M26.218359375 13.95474802374425L22.880859375 15.881654547164626" stroke-width="0.03" stroke="#000000" fill="none"/>
<path d="M22.672265625 15.279496258595758L15.997265625 11.425683211755006L14.85 12.08805732918076L13.702734374999999 11.425683211755006L7.027734374999999 15.279496258595758L7.027734374999999 16.483812835733495" stroke-width="0.03" stroke="#000000" fill="none"/>
<path d="M6.819140625 16.36338117801972L3.481640624999999 14.436474654599342L3.481640624999999 13.95474802374425L4.107421875 13.593453050602928" stroke-width="0.03" stroke="#000000" fill="none"/>
<path d="M3.481640624999999 13.95474802374425L6.819140625 15.881654547164626" stroke-width="0.03" stroke="#000000" fill="none"/>
<path d="M7.4449218749999995 16.0020862048784L7.5492187500000005 16.062302033735286" stroke-width="0.03" stroke="#000000" fill="none"/>
<path d="M7.653515625 16.0020862048784L7.653515625 16.845107808874815" stroke-width="0.03" stroke="#000000" fill="none"/>
<path d="M7.5492187500000005 16.784891980017925L6.9234374999999995 17.146186953159244L6.819140625 17.08597112430236" stroke-width="0.03" stroke="#000000" fill="none"/>
<path d="M6.9234374999999995 17.146186953159244L6.9234374999999995 17.26661861087302" stroke-width="0.03" stroke="#000000" fill="none"/>
<path d="M6.4019531249999995 16.60424449344727L3.064453125 14.67733797002689L3.481640624999999 14.436474654599342" stroke-width="0.03" stroke="#000000" fill="none"/>
<path d="M3.064453125 14.67733797002689L3.064453125 15.399927916309531" stroke-width="0.03" stroke="#000000" fill="none"/>
<path d="M2.125781250000001 15.94187037602151L3.2730468750000017 16.60424449344727L3.2730468750000017 19.49460427857783" stroke-width="0.03" stroke="#000000" fill="none"/>
<path d="M3.064453125 19.37417262086406L3.064453125 21.18064748657066L4.003124999999999 21.72258994628264" stroke-width="0.03" stroke="#000000" fill="none"/>
<path d="M3.7945312499999995 22.32474823485151L4.003124999999999 22.44517989256528" stroke-width="0.03" stroke="#000000" fill="none"/>
<path d="M4.107421875 22.62582737913594L4.3160156249999995 22.50539572142217L4.941796875 22.866690694563488L4.941796875 23.348417325418584L4.733203124999998 23.468848983132357L4.107421875 23.107554009991038L4.107421875 22.62582737913594L4.733203124999998 22.98712235227726L4.941796875 22.866690694563488" stroke-width="0.03" stroke="#000000" fill="none"/>
<path d="M4.733203124999998 22.98712235227726L4.733203124999998 23.468848983132357" stroke-width="0.03" stroke="#000000" fill="none"/>
<path d="M4.4203125 24.612949731413206L4.4203125 25.215108019982072" stroke-width="0.03" stroke="#000000" fill="none"/>
<path d="M4.3160156249999995 25.27532384883896L4.003124999999999 25.0946763622683" stroke-width="0.03" stroke="#000000" fill="none"/>
<path d="M4.107421875 25.39575550655273L4.62890625 25.0946763622683L4.8374999999999995 25.215108019982072L4.3160156249999995 25.51618716426651" stroke-width="0.03" stroke="#000000" fill="none"/>
<path d="M4.107421875 25.39575550655273L4.107421875 26.118345452835374L4.3160156249999995 26.238777110549147" stroke-width="0.03" stroke="#000000" fill="none"/>
<path d="M4.4203125 26.17856128169226L4.4203125 26.53985625483358L2.3343750000000005 25.335539677695845" stroke-width="0.03" stroke="#000000" fill="none"/>
<path d="M3.481640624999999 26.479640425976694L3.481640624999999 27.563525345400656L4.4203125 28.105467805112635" stroke-width="0.03" stroke="#000000" fill="none"/>
<path d="M5.046093749999999 27.50330951654377L5.671875 27.864604489685092" stroke-width="0.03" stroke="#000000" fill="none"/>
<path d="M5.150390625 27.443093687686883L4.8374999999999995 27.26244620111622L4.8374999999999995 29.67107935539169" stroke-width="0.03" stroke="#000000" fill="none"/>
<path d="M4.8374999999999995 26.780719570261127L5.671875 26.29899293940603L5.671875 26.058129623978488" stroke-width="0.03" stroke="#000000" fill="none"/>
<path d="M5.671875 26.29899293940603L5.88046875 26.419424597119807" stroke-width="0.03" stroke="#000000" fill="none"/>
<path d="M4.8374999999999995 25.215108019982072L4.8374999999999995 24.85381304684075L4.4203125 24.612949731413206" stroke-width="0.03" stroke="#000000" fill="none"/>
<path d="M4.8374999999999995 24.85381304684075L5.150390625 24.673165560270093" stroke-width="0.03" stroke="#000000" fill="none"/>
<path d="M6.089062499999999 22.686043207992828L6.089062499999999 20.759136684572454L6.193359375 20.698920855715564L9.009374999999999 22.32474823485151L9.009374999999999 24.251654758271883L8.905078125 24.311870587128773L6.089062499999999 22.686043207992828" stroke-width="0.03" stroke="#000000" fill="none"/>
<path d="M5.776171874999998 20.819352513429337L4.211718750000001 19.916115080576038L4.003124999999999 20.03654673828981" stroke-width="0.03" stroke="#000000" fill="none"/>
<path d="M4.003124999999999 20.277410053717357L3.6902343750000006 20.096762567146698L3.6902343750000006 19.253740963150285" stroke-width="0.03" stroke="#000000" fill="none"/>
<path d="M5.776171874999998 18.77201433229519L5.984765624999999 18.892445990008962" stroke-width="0.03" stroke="#000000" fill="none"/>
<path d="M5.984765624999999 17.08597112430236L11.9296875 20.518273369144907" stroke-width="0.03" stroke="#000000" fill="none"/>
<path d="M12.97265625 18.711798503438303L7.027734374999999 15.279496258595758" stroke-width="0.03" stroke="#000000" fill="none"/>
<path d="M5.254687500000001 14.49669048345623L5.254687500000001 13.171942248604722" stroke-width="0.03" stroke="#000000" fill="none"/>
<path d="M7.7578125 12.208488986894533L8.487890625 11.786978184896327L8.80078125 11.967625671466987" stroke-width="0.03" stroke="#000000" fill="none"/>
<path d="M8.5921875 12.08805732918076L10.365234375 13.111726419747836" stroke-width="0.03" stroke="#000000" fill="none"/>
<path d="M10.260937499999999 13.533237221746042L11.9296875 12.569783960035853L14.745703124999999 14.195611339171796L14.745703124999999 14.31604299688557L13.076953125000001 15.279496258595758L10.260937499999999 13.653668879459815L10.260937499999999 13.533237221746042L13.076953125000001 15.159064600881985L13.076953125000001 15.279496258595758" stroke-width="0.03" stroke="#000000" fill="none"/>
<path d="M13.076953125000001 15.159064600881985L14.745703124999999 14.195611339171796" stroke-width="0.03" stroke="#000000" fill="none"/>
<path d="M14.954296875 14.195611339171796L17.7703125 12.569783960035853L19.439062500000002 13.533237221746042L19.439062500000002 13.653668879459815L16.623046875 15.279496258595758L14.954296875 14.31604299688557L14.954296875 14.195611339171796L16.623046875 15.159064600881985L16.623046875 15.279496258595758" stroke-width="0.03" stroke="#000000" fill="none"/>
<path d="M16.623046875 15.159064600881985L19.439062500000002 13.533237221746042" stroke-width="0.03" stroke="#000000" fill="none"/>
<path d="M19.543359374999998 13.232158077461609L21.107812499999998 12.328920644608306L21.107812499999998 12.08805732918076L16.72734375 9.558992517191516L16.72734375 8.715970913195102L16.831640625 8.655755084338216L17.040234375 8.776186742051989L17.040234375 9.739640003762176" stroke-width="0.03" stroke="#000000" fill="none"/>
<path d="M16.9359375 9.67942417490529L16.9359375 8.836402570908875L17.040234375 8.776186742051989" stroke-width="0.03" stroke="#000000" fill="none"/>
<path d="M16.9359375 8.836402570908875L16.72734375 8.715970913195102" stroke-width="0.03" stroke="#000000" fill="none"/>
<path d="M17.040234375 9.13748171519331L17.353125 8.956834228622649L17.353125 7.9933809669124605L16.9359375 7.752517651484913L14.85 8.956834228622649L12.7640625 7.752517651484913L12.346874999999999 7.9933809669124605L12.346874999999999 8.956834228622649L12.659765624999999 9.13748171519331L9.530859375 10.943956580899911" stroke-width="0.03" stroke="#000000" fill="none"/>
<path d="M10.46953125 11.004172409756798L10.46953125 10.763309094329252L10.678125 10.883740752043025" stroke-width="0.03" stroke="#000000" fill="none"/>
<path d="M10.88671875 10.883740752043025L11.303906249999999 10.642877436615478L11.9296875 11.004172409756798L11.9296875 11.245035725184344L11.512500000000001 11.485899040611892L10.88671875 11.124604067470571L10.88671875 10.883740752043025L11.512500000000001 11.245035725184344L11.9296875 11.004172409756798" stroke-width="0.03" stroke="#000000" fill="none"/>
<path d="M11.512500000000001 11.245035725184344L11.512500000000001 11.485899040611892" stroke-width="0.03" stroke="#000000" fill="none"/>
<path d="M12.7640625 10.522445778901705L12.7640625 10.161150805760384L13.285546875 9.86007166147595" stroke-width="0.03" stroke="#000000" fill="none"/>
<path d="M13.285546875 9.739640003762176L12.97265625 9.558992517191516" stroke-width="0.03" stroke="#000000" fill="none"/>
<path d="M12.97265625 9.31812920176397L13.494140625 9.619208346048403L14.119921875 9.257913372907083L13.911328125 9.13748171519331L13.285546875 9.49877668833463L13.285546875 10.100934976903497L13.494140625 10.22136663461727L13.494140625 9.619208346048403" stroke-width="0.03" stroke="#000000" fill="none"/>
<path d="M13.494140625 10.22136663461727L13.181249999999999 10.40201412118793L12.7640625 10.161150805760384" stroke-width="0.03" stroke="#000000" fill="none"/>
<path d="M12.7640625 10.522445778901705L13.181249999999999 10.763309094329252L14.119921875 10.22136663461727L14.85 10.642877436615478L15.580078125 10.22136663461727L16.51875 10.763309094329252L16.9359375 10.522445778901705L16.9359375 10.161150805760384L16.414453125 9.86007166147595" stroke-width="0.03" stroke="#000000" fill="none"/>
<path d="M16.414453125 9.739640003762176L16.72734375 9.558992517191516" stroke-width="0.03" stroke="#000000" fill="none"/>
<path d="M16.72734375 9.31812920176397L16.205859375 9.619208346048403L15.580078125 9.257913372907083L15.788671874999999 9.13748171519331L16.414453125 9.49877668833463L16.414453125 10.100934976903497L16.205859375 10.22136663461727L16.205859375 9.619208346048403" stroke-width="0.03" stroke="#000000" fill="none"/>
<path d="M16.205859375 10.22136663461727L16.51875 10.40201412118793L16.9359375 10.161150805760384" stroke-width="0.03" stroke="#000000" fill="none"/>
<path d="M17.353125 9.920287490332836L17.56171875 9.799855832619063L19.23046875 10.763309094329252L19.23046875 11.004172409756798" stroke-width="0.03" stroke="#000000" fill="none"/>
<path d="M19.23046875 10.883740752043025L19.439062500000002 10.763309094329252L19.960546875000002 11.064388238613684" stroke-width="0.03" stroke="#000000" fill="none"/>
<path d="M20.169140624999997 10.943956580899911L17.040234375 9.13748171519331" stroke-width="0.03" stroke="#000000" fill="none"/>
<path d="M17.353125 7.9933809669124605L15.267187499999999 9.197697544050197L15.580078125 9.378345030620856" stroke-width="0.03" stroke="#000000" fill="none"/>
<path d="M15.580078125 9.257913372907083L15.580078125 9.86007166147595L14.85 9.438560859477743L14.119921875 9.86007166147595L14.119921875 9.257913372907083" stroke-width="0.03" stroke="#000000" fill="none"/>
<path d="M14.119921875 9.378345030620856L14.4328125 9.197697544050197L12.346874999999999 7.9933809669124605" stroke-width="0.03" stroke="#000000" fill="none"/>
<path d="M12.659765624999999 8.776186742051989L12.7640625 8.836402570908875L12.97265625 8.715970913195102" stroke-width="0.03" stroke="#000000" fill="none"/>
<path d="M12.7640625 8.836402570908875L12.7640625 9.67942417490529" stroke-width="0.03" stroke="#000000" fill="none"/>
<path d="M13.181249999999999 10.40201412118793L13.181249999999999 10.763309094329252" stroke-width="0.03" stroke="#000000" fill="none"/>
<path d="M14.64140625 10.522445778901705L14.85 10.40201412118793L14.85 9.438560859477743" stroke-width="0.03" stroke="#000000" fill="none"/>
<path d="M14.85 10.40201412118793L15.05859375 10.522445778901705" stroke-width="0.03" stroke="#000000" fill="none"/>
<path d="M16.51875 10.40201412118793L16.51875 10.763309094329252" stroke-width="0.03" stroke="#000000" fill="none"/>
<path d="M17.7703125 11.004172409756798L18.396093750000002 10.642877436615478L18.81328125 10.883740752043025L18.81328125 11.124604067470571L18.1875 11.485899040611892L17.7703125 11.245035725184344L17.7703125 11.004172409756798L18.1875 11.245035725184344L18.81328125 10.883740752043025" stroke-width="0.03" stroke="#000000" fill="none"/>
<path d="M19.021874999999998 10.883740752043025L19.23046875 10.763309094329252" stroke-width="0.03" stroke="#000000" fill="none"/>
<path d="M19.647656249999997 11.245035725184344L20.586328125 10.703093265472365L22.150781249999998 11.606330698325666" stroke-width="0.03" stroke="#000000" fill="none"/>
<path d="M21.9421875 11.72676235603944L23.089453125000002 11.064388238613684L25.592578125 12.509568131178968L25.592578125 13.834316366030475" stroke-width="0.03" stroke="#000000" fill="none"/>
<path d="M25.592578125 12.509568131178968L24.4453125 13.171942248604722L24.4453125 14.49669048345623" stroke-width="0.03" stroke="#000000" fill="none"/>
<path d="M23.819531249999997 14.13539551031491L23.819531249999997 13.653668879459815L21.9421875 12.569783960035853L21.9421875 11.72676235603944L24.4453125 13.171942248604722" stroke-width="0.03" stroke="#000000" fill="none"/>
<path d="M23.819531249999997 13.653668879459815L21.837890625 14.797769627740664" stroke-width="0.03" stroke="#000000" fill="none"/>
<path d="M21.31640625 14.49669048345623L21.31640625 14.255827168028683L19.334765625 13.111726419747836L21.107812499999998 12.08805732918076" stroke-width="0.03" stroke="#000000" fill="none"/>
<path d="M20.89921875 11.967625671466987L21.212109374999997 11.786978184896327L21.9421875 12.208488986894533" stroke-width="0.03" stroke="#000000" fill="none"/>
<path d="M21.31640625 14.255827168028683L21.107812499999998 14.376258825742458" stroke-width="0.03" stroke="#000000" fill="none"/>
<path d="M22.046484375000002 16.0020862048784L22.046484375000002 16.845107808874815" stroke-width="0.03" stroke="#000000" fill="none"/>
<path d="M22.150781249999998 16.784891980017925L22.7765625 17.146186953159244L22.880859375 17.08597112430236" stroke-width="0.03" stroke="#000000" fill="none"/>
<path d="M22.7765625 17.146186953159244L22.7765625 17.26661861087302" stroke-width="0.03" stroke="#000000" fill="none"/>
<path d="M23.298046874999997 16.60424449344727L26.635546875 14.67733797002689" stroke-width="0.03" stroke="#000000" fill="none"/>
<path d="M23.715234375 17.08597112430236L17.7703125 20.518273369144907" stroke-width="0.03" stroke="#000000" fill="none"/>
<path d="M19.021874999999998 18.59136684572453L19.021874999999998 17.50748192630057L19.439062500000002 17.26661861087302L20.169140624999997 17.688129412871227L20.169140624999997 17.928992728298773L20.377734375 18.049424386012547L20.377734375 18.892445990008962L19.960546875000002 19.13330930543651" stroke-width="0.03" stroke="#000000" fill="none"/>
<path d="M19.960546875000002 18.290287701440096L20.377734375 18.049424386012547" stroke-width="0.03" stroke="#000000" fill="none"/>
<path d="M20.169140624999997 17.688129412871227L19.751953125 17.928992728298773L19.021874999999998 17.50748192630057" stroke-width="0.03" stroke="#000000" fill="none"/>
<path d="M19.751953125 17.928992728298773L19.751953125 18.16985604372632" stroke-width="0.03" stroke="#000000" fill="none"/>
<path d="M22.150781249999998 16.062302033735286L22.255078124999997 16.0020862048784" stroke-width="0.03" stroke="#000000" fill="none"/>
<path d="M23.923828125000004 18.77201433229519L23.715234375 18.892445990008962" stroke-width="0.03" stroke="#000000" fill="none"/>
<path d="M26.635546875 19.37417262086406L26.635546875 21.18064748657066L25.696875000000002 21.72258994628264" stroke-width="0.03" stroke="#000000" fill="none"/>
<path d="M26.009765625 21.54194245971198L26.009765625 22.14410074828085L25.801171875 22.264532405994622" stroke-width="0.03" stroke="#000000" fill="none"/>
<path d="M25.90546875 22.32474823485151L25.696875000000002 22.44517989256528" stroke-width="0.03" stroke="#000000" fill="none"/>
<path d="M25.592578125 22.62582737913594L24.966796875000004 22.98712235227726L24.758203125 22.866690694563488L24.758203125 23.348417325418584L24.966796875000004 23.468848983132357L25.592578125 23.107554009991038L25.592578125 22.62582737913594L25.383984374999997 22.50539572142217L24.758203125 22.866690694563488" stroke-width="0.03" stroke="#000000" fill="none"/>
<path d="M24.966796875000004 22.98712235227726L24.966796875000004 23.468848983132357" stroke-width="0.03" stroke="#000000" fill="none"/>
<path d="M24.966796875000004 24.432302244842543L24.549609375 24.673165560270093L24.549609375 25.75705047969405L23.819531249999997 26.17856128169226L23.819531249999997 27.021582885688677L22.880859375 27.563525345400656L22.880859375 28.04525197625575L23.193749999999998 28.22589946282641L23.715234375 27.92482031854198" stroke-width="0.03" stroke="#000000" fill="none"/>
<path d="M23.819531249999997 27.985036147398862L23.819531249999997 28.346331120540185" stroke-width="0.03" stroke="#000000" fill="none"/>
<path d="M23.610937500000002 28.46676277825396L24.341015624999997 28.888273580252164L24.341015624999997 29.008705237965938" stroke-width="0.03" stroke="#000000" fill="none"/>
<path d="M24.341015624999997 28.888273580252164L24.549609375 28.767841922538388" stroke-width="0.03" stroke="#000000" fill="none"/>
<path d="M24.028125 28.46676277825396L24.028125 27.864604489685092L23.506640625 27.563525345400656L23.193749999999998 27.744172831971316L22.880859375 27.563525345400656" stroke-width="0.03" stroke="#000000" fill="none"/>
<path d="M23.193749999999998 27.744172831971316L23.193749999999998 28.22589946282641" stroke-width="0.03" stroke="#000000" fill="none"/>
<path d="M23.506640625 27.804388660828202L23.506640625 27.563525345400656" stroke-width="0.03" stroke="#000000" fill="none"/>
<path d="M23.506640625 27.804388660828202L24.028125 28.105467805112635L24.653906250000002 27.744172831971316L24.653906250000002 27.50330951654377L24.132421875000002 27.202230372259333L24.8625 26.780719570261127L24.8625 25.937697966264714L25.383984374999997 26.238777110549147L25.592578125 26.118345452835374L25.592578125 25.39575550655273L25.07109375 25.0946763622683L24.8625 25.215108019982072L25.383984374999997 25.51618716426651L25.383984374999997 26.238777110549147" stroke-width="0.03" stroke="#000000" fill="none"/>
<path d="M25.279687499999998 26.17856128169226L25.279687499999998 26.53985625483358L27.365624999999998 25.335539677695845" stroke-width="0.03" stroke="#000000" fill="none"/>
<path d="M26.218359375 25.034460533411412L26.218359375 21.42151080199821" stroke-width="0.03" stroke="#000000" fill="none"/>
<path d="M25.696875000000002 22.204316577137735L25.90546875 22.32474823485151L25.90546875 24.251654758271883L25.696875000000002 24.37208641598566" stroke-width="0.03" stroke="#000000" fill="none"/>
<path d="M25.279687499999998 24.612949731413206L24.8625 24.85381304684075L24.549609375 24.673165560270093" stroke-width="0.03" stroke="#000000" fill="none"/>
<path d="M24.8625 24.85381304684075L24.8625 25.215108019982072" stroke-width="0.03" stroke="#000000" fill="none"/>
<path d="M25.279687499999998 25.215108019982072L25.279687499999998 24.612949731413206L24.966796875000004 24.432302244842543" stroke-width="0.03" stroke="#000000" fill="none"/>
<path d="M25.383984374999997 25.27532384883896L25.696875000000002 25.0946763622683" stroke-width="0.03" stroke="#000000" fill="none"/>
<path d="M25.90546875 25.215108019982072L25.383984374999997 25.51618716426651" stroke-width="0.03" stroke="#000000" fill="none"/>
<path d="M26.218359375 26.479640425976694L26.218359375 27.563525345400656L25.279687499999998 28.105467805112635" stroke-width="0.03" stroke="#000000" fill="none"/>
<path d="M24.653906250000002 27.50330951654377L24.028125 27.864604489685092" stroke-width="0.03" stroke="#000000" fill="none"/>
<path d="M24.549609375 27.443093687686883L24.8625 27.26244620111622L24.8625 29.67107935539169" stroke-width="0.03" stroke="#000000" fill="none"/>
<path d="M24.8625 26.780719570261127L24.028125 26.29899293940603L24.028125 26.058129623978488" stroke-width="0.03" stroke="#000000" fill="none"/>
<path d="M24.028125 26.29899293940603L23.819531249999997 26.419424597119807" stroke-width="0.03" stroke="#000000" fill="none"/>
<path d="M10.782421874999999 25.39575550655273L10.678125 25.45597133540962L10.678125 28.7076260936815" stroke-width="0.03" stroke="#000000" fill="none"/>
<path d="M10.678125 25.45597133540962L9.009374999999999 24.492518073699433" stroke-width="0.03" stroke="#000000" fill="none"/>
<path d="M8.905078125 24.311870587128773L8.905078125 22.384964063708395L9.009374999999999 22.32474823485151" stroke-width="0.03" stroke="#000000" fill="none"/>
<path d="M8.905078125 22.384964063708395L6.089062499999999 20.759136684572454" stroke-width="0.03" stroke="#000000" fill="none"/>
<path d="M9.322265625 18.892445990008962L9.322265625 18.049424386012547L9.530859375 17.928992728298773L9.530859375 17.688129412871227L10.260937499999999 17.26661861087302L10.678125 17.50748192630057L10.678125 18.59136684572453" stroke-width="0.03" stroke="#000000" fill="none"/>
<path d="M9.948046875 18.16985604372632L9.948046875 17.928992728298773L9.530859375 17.688129412871227" stroke-width="0.03" stroke="#000000" fill="none"/>
<path d="M9.322265625 18.049424386012547L9.739453124999999 18.290287701440096" stroke-width="0.03" stroke="#000000" fill="none"/>
<path d="M9.948046875 17.928992728298773L10.678125 17.50748192630057" stroke-width="0.03" stroke="#000000" fill="none"/>
<path d="M9.739453124999999 19.13330930543651L9.322265625 18.892445990008962" stroke-width="0.03" stroke="#000000" fill="none"/>
<path d="M4.4203125 15.94187037602151L3.2730468750000017 16.60424449344727" stroke-width="0.03" stroke="#000000" fill="none"/>
<path d="M3.297871376374779 3.383983116796798L3.1536634456664703 3.0054372986874878L3.0094555149581614 3.383983116796798" stroke-width="0.03" stroke="#000000" fill="none"/>
<path d="M2.9734035322810843 3.383983116796798L2.8291956015727755 3.0054372986874878L2.6849876708644667 3.383983116796798" stroke-width="0.03" stroke="#000000" fill="none"/>
<path d="M2.6128837055103125 3.383983116796798L2.414597800786388 3.1316192380572576" stroke-width="0.03" stroke="#000000" fill="none"/>
<path d="M2.6128837055103125 3.1316192380572576L2.414597800786388 3.383983116796798" stroke-width="0.03" stroke="#000000" fill="none"/>
<path d="M2.7390656448800828 3.257801177427028L2.9193255582654682 3.257801177427028" stroke-width="0.03" stroke="#000000" fill="none"/>
<path d="M3.0635334889737775 3.257801177427028L3.243793402359163 3.257801177427028" stroke-width="0.03" stroke="#000000" fill="none"/>
<path d="M3.3880013330674723 3.1856972120728733L3.5322092637757807 3.1856972120728733" stroke-width="0.03" stroke="#000000" fill="none"/>
<path d="M3.622339220468474 3.0054372986874878L3.3880013330674723 3.0054372986874878L3.3880013330674723 3.383983116796798" stroke-width="0.03" stroke="#000000" fill="none"/>
<path d="M3.712469177161167 3.3299051427811825L3.730495168499705 3.3659571254582596L3.7845731425153213 3.383983116796798L3.8206251251923984 3.383983116796798L3.8747030992080145 3.3659571254582596L3.9107550818850916 3.3118791514426436L3.9287810732236297 3.221749194749951L3.9287810732236297 3.1316192380572576L3.9107550818850916 3.0595152727031034L3.8747030992080145 3.023463290026026L3.8206251251923984 3.0054372986874878L3.80259913385386 3.0054372986874878L3.748521159838244 3.023463290026026L3.712469177161167 3.0595152727031034L3.694443185822628 3.113593246718719L3.694443185822628 3.1316192380572576L3.712469177161167 3.1856972120728733L3.748521159838244 3.221749194749951L3.80259913385386 3.2397751860884894L3.8206251251923984 3.2397751860884894L3.8747030992080145 3.221749194749951L3.9107550818850916 3.1856972120728733L3.9287810732236297 3.1316192380572576" stroke-width="0.03" stroke="#000000" fill="none"/>
<path d="M4.109040986609016 3.077541264041642L4.145092969286093 3.0595152727031034L4.199170943301709 3.0054372986874878L4.199170943301709 3.383983116796798" stroke-width="0.03" stroke="#000000" fill="none"/>
<path d="M4.595742752749558 3.383983116796798L4.595742752749558 3.0054372986874878L4.415482839364172 3.257801177427028L4.6858727094422505 3.257801177427028" stroke-width="0.03" stroke="#000000" fill="none"/>
<path d="M4.794028657473483 3.3299051427811825L4.812054648812021 3.3659571254582596L4.866132622827637 3.383983116796798L4.902184605504715 3.383983116796798L4.95626257952033 3.3659571254582596L4.992314562197407 3.3118791514426436L5.010340553535945 3.221749194749951L5.010340553535945 3.1316192380572576L4.992314562197407 3.0595152727031034L4.95626257952033 3.023463290026026L4.902184605504715 3.0054372986874878L4.884158614166176 3.0054372986874878L4.83008064015056 3.023463290026026L4.794028657473483 3.0595152727031034L4.776002666134945 3.113593246718719L4.776002666134945 3.1316192380572576L4.794028657473483 3.1856972120728733L4.83008064015056 3.221749194749951L4.884158614166176 3.2397751860884894L4.902184605504715 3.2397751860884894L4.95626257952033 3.221749194749951L4.992314562197407 3.1856972120728733L5.010340553535945 3.1316192380572576" stroke-width="0.03" stroke="#000000" fill="none"/>
<path d="M5.172574475582794 3.0054372986874878L5.370860380306718 3.0054372986874878L5.262704432275486 3.149645229395796L5.316782406291102 3.149645229395796L5.352834388968179 3.167671220734335L5.370860380306718 3.1856972120728733L5.388886371645256 3.2397751860884894L5.388886371645256 3.2758271687655665L5.370860380306718 3.3299051427811825L5.33480839762964 3.3659571254582596L5.280730423614025 3.383983116796798L5.22665244959841 3.383983116796798L5.172574475582794 3.3659571254582596L5.154548484244255 3.3479311341197207L5.136522492905716 3.3118791514426436" stroke-width="0.03" stroke="#000000" fill="none"/>
<path d="M5.558333333333334 2.2291666666666665L5.441666666666666 1.8208333333333333" stroke-width="0.03" stroke="#000000" fill="none"/>
<path d="M5.675 1.8208333333333333L5.558333333333334 2.2291666666666665" stroke-width="0.03" stroke="#000000" fill="none"/>
<path d="M5.791666666666666 2.2291666666666665L5.675 1.8208333333333333" stroke-width="0.03" stroke="#000000" fill="none"/>
<path d="M5.908333333333333 1.8208333333333333L5.791666666666666 2.2291666666666665" stroke-width="0.03" stroke="#000000" fill="none"/>
<path d="M6.141666666666667 2.2291666666666665L6.141666666666667 1.7333333333333334L6.1708333333333325 1.6458333333333333L6.229166666666666 1.6166666666666667L6.2875 1.6166666666666667" stroke-width="0.03" stroke="#000000" fill="none"/>
<path d="M6.4624999999999995 1.6166666666666667L6.4624999999999995 2.2291666666666665" stroke-width="0.03" stroke="#000000" fill="none"/>
<path d="M6.258333333333333 1.8208333333333333L6.054166666666666 1.8208333333333333" stroke-width="0.03" stroke="#000000" fill="none"/>
<path d="M7.016666666666666 1.8208333333333333L7.016666666666666 2.2291666666666665" stroke-width="0.03" stroke="#000000" fill="none"/>
<path d="M7.016666666666666 2.1416666666666666L6.958333333333333 2.2L6.8999999999999995 2.2291666666666665L6.812499999999999 2.2291666666666665L6.754166666666666 2.2L6.695833333333333 2.1416666666666666L6.666666666666666 2.0541666666666667L6.666666666666666 1.9958333333333333L6.695833333333333 1.9083333333333332L6.754166666666666 1.85L6.812499999999999 1.8208333333333333L6.8999999999999995 1.8208333333333333L6.958333333333333 1.85L7.016666666666666 1.9083333333333332" stroke-width="0.03" stroke="#000000" fill="none"/>
<path d="M7.249999999999999 2.1125L7.541666666666666 1.8208333333333333" stroke-width="0.03" stroke="#000000" fill="none"/>
<path d="M7.366666666666666 1.9958333333333333L7.570833333333333 2.2291666666666665" stroke-width="0.03" stroke="#000000" fill="none"/>
<path d="M7.716666666666666 1.9958333333333333L8.066666666666666 1.9958333333333333L8.066666666666666 1.9375L8.0375 1.8791666666666667L8.008333333333333 1.85L7.949999999999999 1.8208333333333333L7.8625 1.8208333333333333L7.804166666666666 1.85L7.745833333333333 1.9083333333333332L7.716666666666666 1.9958333333333333L7.716666666666666 2.0541666666666667L7.745833333333333 2.1416666666666666L7.804166666666666 2.2L7.8625 2.2291666666666665L7.949999999999999 2.2291666666666665L8.008333333333333 2.2L8.066666666666666 2.1416666666666666" stroke-width="0.03" stroke="#000000" fill="none"/>
<path d="M8.270833333333332 1.7625L8.270833333333332 1.7333333333333334L8.299999999999999 1.675L8.329166666666666 1.6458333333333333L8.3875 1.6166666666666667L8.504166666666666 1.6166666666666667L8.5625 1.6458333333333333L8.591666666666665 1.675L8.620833333333334 1.7333333333333334L8.620833333333334 1.7916666666666665L8.591666666666665 1.85L8.533333333333331 1.9375L8.241666666666667 2.2291666666666665L8.649999999999999 2.2291666666666665" stroke-width="0.03" stroke="#000000" fill="none"/>
<path d="M9.237499999999999 2.533333333333333L1.5 2.533333333333333" stroke-width="0.03" stroke="#000000" fill="none"/>
<path d="M2.1166666666666667 2.2291666666666665L2.1166666666666667 1.8208333333333333" stroke-width="0.03" stroke="#000000" fill="none"/>
<path d="M2.0875 1.6166666666666667L2.1166666666666667 1.6458333333333333L2.145833333333333 1.6166666666666667L2.1166666666666667 1.5875L2.0875 1.6166666666666667" stroke-width="0.03" stroke="#000000" fill="none"/>
<path d="M2.3208333333333333 2.1416666666666666L2.35 2.2L2.4375 2.2291666666666665L2.525 2.2291666666666665L2.6125 2.2L2.6416666666666666 2.1416666666666666L2.6416666666666666 2.1125L2.6125 2.0541666666666667L2.5541666666666667 2.025L2.408333333333333 1.9958333333333333L2.35 1.9666666666666666L2.3208333333333333 1.9083333333333332L2.35 1.85L2.4375 1.8208333333333333L2.525 1.8208333333333333L2.6125 1.85L2.6416666666666666 1.9083333333333332" stroke-width="0.03" stroke="#000000" fill="none"/>
<path d="M2.9625 1.8208333333333333L2.904166666666667 1.85L2.845833333333333 1.9083333333333332L2.8166666666666664 1.9958333333333333L2.8166666666666664 2.0541666666666667L2.845833333333333 2.1416666666666666L2.904166666666667 2.2L2.9625 2.2291666666666665L3.05 2.2291666666666665L3.1083333333333334 2.2L3.1666666666666665 2.1416666666666666L3.1958333333333333 2.0541666666666667L3.1958333333333333 1.9958333333333333L3.1666666666666665 1.9083333333333332L3.1083333333333334 1.85L3.05 1.8208333333333333L2.9625 1.8208333333333333" stroke-width="0.03" stroke="#000000" fill="none"/>
<path d="M3.283333333333333 2.2874999999999996L3.75 2.2874999999999996" stroke-width="0.03" stroke="#000000" fill="none"/>
<path d="M3.8375 2.1416666666666666L3.8666666666666663 2.2L3.9541666666666666 2.2291666666666665L4.041666666666666 2.2291666666666665L4.129166666666666 2.2L4.158333333333333 2.1416666666666666L4.158333333333333 2.1125L4.129166666666666 2.0541666666666667L4.070833333333333 2.025L3.925 1.9958333333333333L3.8666666666666663 1.9666666666666666L3.8375 1.9083333333333332L3.8666666666666663 1.85L3.9541666666666666 1.8208333333333333L4.041666666666666 1.8208333333333333L4.129166666666666 1.85L4.158333333333333 1.9083333333333332" stroke-width="0.03" stroke="#000000" fill="none"/>
<path d="M4.3625 1.9375L4.449999999999999 1.85L4.508333333333333 1.8208333333333333L4.595833333333333 1.8208333333333333L4.654166666666667 1.85L4.683333333333334 1.9375L4.683333333333334 2.2291666666666665" stroke-width="0.03" stroke="#000000" fill="none"/>
<path d="M4.3625 2.2291666666666665L4.3625 1.8208333333333333" stroke-width="0.03" stroke="#000000" fill="none"/>
<path d="M5.033333333333333 1.8208333333333333L4.975 1.85L4.916666666666666 1.9083333333333332L4.887499999999999 1.9958333333333333L4.887499999999999 2.0541666666666667L4.916666666666666 2.1416666666666666L4.975 2.2L5.033333333333333 2.2291666666666665L5.120833333333334 2.2291666666666665L5.179166666666666 2.2L5.2375 2.1416666666666666L5.266666666666666 2.0541666666666667L5.266666666666666 1.9958333333333333L5.2375 1.9083333333333332L5.179166666666666 1.85L5.120833333333334 1.8208333333333333L5.033333333333333 1.8208333333333333" stroke-width="0.03" stroke="#000000" fill="none"/>
<path d="M7.249999999999999 1.6166666666666667L7.249999999999999 2.2291666666666665" stroke-width="0.03" stroke="#000000" fill="none"/>
<path d="M2.1622339220468474 3.0054372986874878L2.1081559480312317 3.023463290026026L2.072103965354154 3.077541264041642L2.0540779740156156 3.167671220734335L2.0540779740156156 3.221749194749951L2.072103965354154 3.3118791514426436L2.1081559480312317 3.3659571254582596L2.1622339220468474 3.383983116796798L2.1982859047239245 3.383983116796798L2.2523638787395406 3.3659571254582596L2.2884158614166177 3.3118791514426436L2.3064418527551562 3.221749194749951L2.3064418527551562 3.167671220734335L2.2884158614166177 3.077541264041642L2.2523638787395406 3.023463290026026L2.1982859047239245 3.0054372986874878L2.1622339220468474 3.0054372986874878" stroke-width="0.03" stroke="#000000" fill="none"/>
<path d="M13.911328125 8.414891768910667L14.85 7.872949309198687L15.788671874999999 8.414891768910667" stroke-width="0.03" stroke="#000000" fill="none"/>
<path d="M18.1875 11.245035725184344L18.1875 11.485899040611892" stroke-width="0.03" stroke="#000000" fill="none"/>
</svg>
