<?xml version="1.0" standalone="no"?>
<svg width="29.7cm" height="42cm" version="1.1" xmlns="http://www.w3.org/2000/svg" viewBox="0.0 0.0 29.700001 42.000001">
<path d="M12.97265625 7.9933809669124605L14.64140625 7.029927705202272L14.85 7.1503593629160465L15.05859375 7.029927705202272L16.72734375 7.9933809669124605L16.72734375 9.197697544050197" stroke-width="0.03" stroke="#000000" fill="none"/>
<path d="M17.353125 9.67942417490529L14.85 11.124604067470571L12.346874999999999 9.67942417490529L11.72109375 10.04071914804661L11.72109375 10.40201412118793L11.512500000000001 10.281582463474159" stroke-width="0.03" stroke="#000000" fill="none"/>
<path d="M11.72109375 10.161150805760384L10.05234375 11.124604067470571" stroke-width="0.03" stroke="#000000" fill="none"/>
<path d="M10.260937499999999 11.245035725184344L4.62890625 14.49669048345623L4.62890625 15.098848772025098L4.107421875 15.399927916309531L3.2730468750000017 14.918201285454437L3.7945312499999995 14.617122141170004L3.7945312499999995 14.014963852601136L9.4265625 10.763309094329252L10.260937499999999 11.245035725184344L10.260937499999999 12.931078933177174L9.948046875 13.111726419747836" stroke-width="0.03" stroke="#000000" fill="none"/>
<path d="M10.365234375 13.352589735175382L11.72109375 12.569783960035853L10.46953125 11.847194013753214L10.260937499999999 11.967625671466987" stroke-width="0.03" stroke="#000000" fill="none"/>
<path d="M10.260937499999999 11.847194013753214L10.365234375 11.9074098426101" stroke-width="0.03" stroke="#000000" fill="none"/>
<path d="M10.260937499999999 11.606330698325666L10.46953125 11.485899040611892L11.199609375 11.9074098426101" stroke-width="0.03" stroke="#000000" fill="none"/>
<path d="M11.303906249999999 11.847194013753214L10.88671875 12.08805732918076" stroke-width="0.03" stroke="#000000" fill="none"/>
<path d="M11.303906249999999 12.08805732918076L11.303906249999999 10.40201412118793" stroke-width="0.03" stroke="#000000" fill="none"/>
<path d="M11.72109375 10.04071914804661L14.328515625 11.54611486946878L14.328515625 13.473021392889155L14.4328125 13.412805564032269L14.85 13.653668879459815L15.267187499999999 13.412805564032269L15.371484375 13.473021392889155L15.788671874999999 13.232158077461609L16.51875 13.653668879459815" stroke-width="0.03" stroke="#000000" fill="none"/>
<path d="M16.623046875 13.593453050602928L15.788671874999999 13.111726419747836L15.788671874999999 13.232158077461609" stroke-width="0.03" stroke="#000000" fill="none"/>
<path d="M15.788671874999999 13.111726419747836L16.1015625 12.931078933177174" stroke-width="0.03" stroke="#000000" fill="none"/>
<path d="M15.684375 12.690215617749628L15.684375 12.208488986894533L16.1015625 11.967625671466987L17.457421875 12.750431446606514L17.457421875 13.232158077461609L17.040234375 13.473021392889155L15.684375 12.690215617749628" stroke-width="0.03" stroke="#000000" fill="none"/>
<path d="M15.684375 12.208488986894533L17.040234375 12.991294762034062L17.040234375 13.473021392889155" stroke-width="0.03" stroke="#000000" fill="none"/>
<path d="M16.9359375 13.412805564032269L14.85 14.617122141170004L12.7640625 13.412805564032269" stroke-width="0.03" stroke="#000000" fill="none"/>
<path d="M12.659765624999999 13.473021392889155L14.015625 12.690215617749628L14.015625 12.208488986894533L13.598437500000001 11.967625671466987L12.242578125 12.750431446606514L12.242578125 13.232158077461609L12.659765624999999 13.473021392889155L12.659765624999999 12.991294762034062L12.242578125 12.750431446606514" stroke-width="0.03" stroke="#000000" fill="none"/>
<path d="M12.242578125 13.111726419747836L11.616796874999999 12.750431446606514L10.46953125 13.412805564032269" stroke-width="0.03" stroke="#000000" fill="none"/>
<path d="M9.322265625 13.473021392889155L6.193359375 15.279496258595758" stroke-width="0.03" stroke="#000000" fill="none"/>
<path d="M6.193359375 15.159064600881985L5.88046875 15.339712087452645L5.88046875 15.21928042973887L5.150390625 14.797769627740664L4.733203124999998 15.038632943168212L4.733203124999998 15.159064600881985L5.46328125 15.580575402880193L5.46328125 15.460143745166418L5.88046875 15.21928042973887" stroke-width="0.03" stroke="#000000" fill="none"/>
<path d="M6.089062499999999 15.098848772025098L9.322265625 13.232158077461609L8.80078125 12.931078933177174L5.567578125 14.797769627740664" stroke-width="0.03" stroke="#000000" fill="none"/>
<path d="M5.46328125 14.737553798883777L5.254687500000001 14.85798545659755" stroke-width="0.03" stroke="#000000" fill="none"/>
<path d="M5.46328125 14.737553798883777L6.193359375 15.159064600881985L6.193359375 15.640791231737078L5.88046875 15.82143871830774L5.88046875 16.18273369144906L5.46328125 16.423597006876605L4.733203124999998 16.0020862048784L4.733203124999998 15.761222889450853" stroke-width="0.03" stroke="#000000" fill="none"/>
<path d="M4.62890625 15.701007060593964L4.62890625 15.21928042973887L4.733203124999998 15.159064600881985" stroke-width="0.03" stroke="#000000" fill="none"/>
<path d="M4.62890625 15.21928042973887L5.3589843749999995 15.640791231737078L5.46328125 15.580575402880193" stroke-width="0.03" stroke="#000000" fill="none"/>
<path d="M5.3589843749999995 15.640791231737078L5.3589843749999995 16.122517862592172L5.46328125 16.062302033735286L5.46328125 16.423597006876605" stroke-width="0.03" stroke="#000000" fill="none"/>
<path d="M5.3589843749999995 16.36338117801972L5.3589843749999995 20.096762567146698L5.567578125 19.976330909432924L5.567578125 16.36338117801972" stroke-width="0.03" stroke="#000000" fill="none"/>
<path d="M5.3589843749999995 16.122517862592172L4.62890625 15.701007060593964" stroke-width="0.03" stroke="#000000" fill="none"/>
<path d="M4.8374999999999995 16.062302033735286L4.8374999999999995 19.795683422862265L5.3589843749999995 20.096762567146698" stroke-width="0.03" stroke="#000000" fill="none"/>
<path d="M4.941796875 19.85589925171915L4.941796875 20.337625882574244L10.46953125 23.529064811989244L10.46953125 29.91194267081924L10.88671875 30.152805986246786" stroke-width="0.03" stroke="#000000" fill="none"/>
<path d="M10.88671875 30.273237643960556L10.88671875 29.67107935539169L11.095312499999999 29.550647697677917L14.224218749999999 31.35712256338452" stroke-width="0.03" stroke="#000000" fill="none"/>
<path d="M14.119921875 31.41733839224141L14.537109375 31.17647507681386L14.85 31.35712256338452L15.162890625 31.17647507681386L15.580078125 31.41733839224141L15.580078125 32.260359996237824L15.371484375 32.3807916539516" stroke-width="0.03" stroke="#000000" fill="none"/>
<path d="M15.371484375 32.50122331166537L14.954296875 32.74208662709292L14.85 32.68187079823603L14.85 31.838849194239618L14.745703124999999 31.8990650230965L14.328515625 31.658201707668955L14.328515625 32.50122331166537L14.745703124999999 32.74208662709292L14.85 32.68187079823603" stroke-width="0.03" stroke="#000000" fill="none"/>
<path d="M14.85 32.8023024559498L14.328515625 33.103381600234236L14.328515625 34.06683486194443L8.696484375 30.815180103672542L8.696484375 29.851726841962353L10.156640625 29.008705237965938L10.46953125 29.189352724536597" stroke-width="0.03" stroke="#000000" fill="none"/>
<path d="M10.46953125 28.7076260936815L9.113671875 27.92482031854198L9.322265625 27.804388660828202" stroke-width="0.03" stroke="#000000" fill="none"/>
<path d="M9.322265625 27.68395700311443L8.487890625 27.202230372259333L8.487890625 27.081798714545563" stroke-width="0.03" stroke="#000000" fill="none"/>
<path d="M8.5921875 27.26244620111622L8.5921875 28.105467805112635L9.113671875 28.40654694939707" stroke-width="0.03" stroke="#000000" fill="none"/>
<path d="M8.905078125 28.526978607110845L7.4449218749999995 29.37000021110726" stroke-width="0.03" stroke="#000000" fill="none"/>
<path d="M7.236328125 29.249568553393484L7.236328125 29.008705237965938L6.9234374999999995 29.189352724536597L6.297656249999999 28.828057751395274L6.297656249999999 25.937697966264714L3.7945312499999995 24.492518073699433L3.7945312499999995 23.76992812741679L4.107421875 23.58928064084613L3.898828125 23.468848983132357" stroke-width="0.03" stroke="#000000" fill="none"/>
<path d="M3.898828125 23.709712298559904L3.898828125 21.782805775139526" stroke-width="0.03" stroke="#000000" fill="none"/>
<path d="M3.6902343750000006 21.662374117425752L3.6902343750000006 27.322662029973106L3.7945312499999995 27.382877858829996L3.7945312499999995 27.50330951654377L8.696484375 30.333453472817446" stroke-width="0.03" stroke="#000000" fill="none"/>
<path d="M8.696484375 30.0925901573899L7.027734374999999 29.12913689567971" stroke-width="0.03" stroke="#000000" fill="none"/>
<path d="M6.9234374999999995 29.189352724536597L6.9234374999999995 26.17856128169226L6.4019531249999995 25.877482137407824L6.4019531249999995 25.27532384883896L3.7945312499999995 23.76992812741679" stroke-width="0.03" stroke="#000000" fill="none"/>
<path d="M3.898828125 23.227985667704807L5.3589843749999995 22.384964063708395L5.567578125 22.50539572142217" stroke-width="0.03" stroke="#000000" fill="none"/>
<path d="M5.567578125 22.264532405994622L5.567578125 22.866690694563488L6.297656249999999 23.288201496561694" stroke-width="0.03" stroke="#000000" fill="none"/>
<path d="M6.297656249999999 23.40863315427547L6.297656249999999 22.44517989256528" stroke-width="0.03" stroke="#000000" fill="none"/>
<path d="M6.193359375 22.384964063708395L5.984765624999999 22.50539572142217L4.733203124999998 21.782805775139526L4.733203124999998 21.54194245971198" stroke-width="0.03" stroke="#000000" fill="none"/>
<path d="M4.62890625 21.602158288568866L4.733203124999998 21.662374117425752" stroke-width="0.03" stroke="#000000" fill="none"/>
<path d="M4.4203125 21.72258994628264L4.4203125 21.96345326171019L5.150390625 22.384964063708395" stroke-width="0.03" stroke="#000000" fill="none"/>
<path d="M5.150390625 22.50539572142217L5.150390625 22.023669090567072" stroke-width="0.03" stroke="#000000" fill="none"/>
<path d="M5.984765624999999 22.50539572142217L5.984765624999999 20.939784171143113" stroke-width="0.03" stroke="#000000" fill="none"/>
<path d="M6.089062499999999 21L6.089062499999999 22.32474823485151L6.714843749999999 22.686043207992828" stroke-width="0.03" stroke="#000000" fill="none"/>
<path d="M6.819140625 22.62582737913594L6.4019531249999995 22.866690694563488L6.4019531249999995 24.432302244842543L6.819140625 24.673165560270093L7.236328125 24.432302244842543L7.236328125 22.866690694563488L6.819140625 22.62582737913594" stroke-width="0.03" stroke="#000000" fill="none"/>
<path d="M7.236328125 22.866690694563488L6.819140625 23.107554009991038L6.819140625 24.673165560270093" stroke-width="0.03" stroke="#000000" fill="none"/>
<path d="M6.4019531249999995 25.27532384883896L8.070703124999998 24.311870587128773L7.653515625 24.071007271701223L7.653515625 23.227985667704807" stroke-width="0.03" stroke="#000000" fill="none"/>
<path d="M7.5492187500000005 23.167769838847924L7.5492187500000005 24.13122310055811L7.236328125 23.95057561398745" stroke-width="0.03" stroke="#000000" fill="none"/>
<path d="M7.5492187500000005 24.13122310055811L7.653515625 24.071007271701223" stroke-width="0.03" stroke="#000000" fill="none"/>
<path d="M8.070703124999998 24.311870587128773L8.070703124999998 24.432302244842543L8.487890625 24.673165560270093L8.487890625 25.154892191125185L8.5921875 25.215108019982072L8.5921875 25.696834650837165L9.322265625 26.118345452835374" stroke-width="0.03" stroke="#000000" fill="none"/>
<path d="M9.322265625 26.238777110549147L8.487890625 25.75705047969405L8.5921875 25.696834650837165" stroke-width="0.03" stroke="#000000" fill="none"/>
<path d="M8.487890625 25.75705047969405L8.487890625 26.118345452835374" stroke-width="0.03" stroke="#000000" fill="none"/>
<path d="M8.070703124999998 25.877482137407824L7.653515625 26.118345452835374L7.653515625 26.600072083690467L9.009374999999999 27.382877858829996L9.4265625 27.142014543402446L9.4265625 26.660287912547354L8.070703124999998 25.877482137407824" stroke-width="0.03" stroke="#000000" fill="none"/>
<path d="M7.653515625 26.118345452835374L9.009374999999999 26.901151227974903L9.009374999999999 27.382877858829996" stroke-width="0.03" stroke="#000000" fill="none"/>
<path d="M9.322265625 27.202230372259333L9.322265625 27.92482031854198L10.46953125 28.58719443596773" stroke-width="0.03" stroke="#000000" fill="none"/>
<path d="M10.88671875 29.67107935539169L14.119921875 31.53777004995518" stroke-width="0.03" stroke="#000000" fill="none"/>
<path d="M14.119921875 31.41733839224141L14.119921875 32.260359996237824L14.328515625 32.3807916539516" stroke-width="0.03" stroke="#000000" fill="none"/>
<path d="M14.119921875 32.139928338524044L10.88671875 30.273237643960556" stroke-width="0.03" stroke="#000000" fill="none"/>
<path d="M12.033984375000001 30.0925901573899L12.033984375000001 23.95057561398745" stroke-width="0.03" stroke="#000000" fill="none"/>
<path d="M12.033984375000001 24.071007271701223L10.782421874999999 23.348417325418584L10.782421874999999 21.903237432853302" stroke-width="0.03" stroke="#000000" fill="none"/>
<path d="M10.88671875 21.96345326171019L5.567578125 18.892445990008962" stroke-width="0.03" stroke="#000000" fill="none"/>
<path d="M5.567578125 18.531151016867643L6.089062499999999 18.832230161152076" stroke-width="0.03" stroke="#000000" fill="none"/>
<path d="M6.089062499999999 18.95266181886585L6.089062499999999 18.470935188010756L6.193359375 18.410719359153866L6.819140625 18.77201433229519L7.236328125 18.531151016867643L7.96640625 18.95266181886585" stroke-width="0.03" stroke="#000000" fill="none"/>
<path d="M7.96640625 19.31395679200717L6.9234374999999995 18.711798503438303L6.9234374999999995 19.434388449720945" stroke-width="0.03" stroke="#000000" fill="none"/>
<path d="M7.13203125 19.554820107434715L7.13203125 19.67525176514849L7.96640625 20.156978396003588" stroke-width="0.03" stroke="#000000" fill="none"/>
<path d="M7.96640625 20.277410053717357L7.96640625 18.23007187258321" stroke-width="0.03" stroke="#000000" fill="none"/>
<path d="M7.96640625 17.62791358401434L7.96640625 17.50748192630057L8.38359375 17.26661861087302L8.38359375 16.784891980017925L8.487890625 16.72467615116104L10.46953125 17.86877689944189L10.88671875 17.62791358401434L10.88671875 17.50748192630057L7.5492187500000005 15.580575402880193L7.13203125 15.82143871830774L7.13203125 16.54402866459038L6.5062500000000005 16.905323637731698L6.5062500000000005 17.387050268586794L9.84375 19.31395679200717L9.948046875 19.253740963150285L9.948046875 18.77201433229519L7.96640625 17.62791358401434" stroke-width="0.03" stroke="#000000" fill="none"/>
<path d="M7.96640625 17.50748192630057L11.512500000000001 19.554820107434715" stroke-width="0.03" stroke="#000000" fill="none"/>
<path d="M11.512500000000001 19.31395679200717L11.616796874999999 19.253740963150285L12.659765624999999 19.85589925171915L12.659765624999999 22.264532405994622L14.745703124999999 23.468848983132357L14.745703124999999 24.673165560270093L14.64140625 24.73338138912698L12.555468750000001 23.529064811989244L12.555468750000001 24.251654758271883L11.512500000000001 23.649496469703017L11.512500000000001 22.926906523420374L10.88671875 22.565611550279055L10.88671875 21.36129497314132L10.991015625000001 21.301079144284433L11.512500000000001 21.602158288568866" stroke-width="0.03" stroke="#000000" fill="none"/>
<path d="M11.512500000000001 21.72258994628264L11.512500000000001 19.31395679200717L12.555468750000001 19.916115080576038L12.555468750000001 22.32474823485151L14.64140625 23.529064811989244L14.64140625 24.73338138912698" stroke-width="0.03" stroke="#000000" fill="none"/>
<path d="M14.4328125 24.612949731413206L14.4328125 28.7076260936815L14.328515625 28.647410264824618L14.328515625 26.359208768262917L13.911328125 26.118345452835374L13.80703125 26.17856128169226L13.80703125 30.032374328533013L14.224218749999999 30.273237643960556L14.85 29.91194267081924L15.47578125 30.273237643960556L15.89296875 30.032374328533013L15.89296875 26.17856128169226L15.788671874999999 26.118345452835374L15.371484375 26.359208768262917L15.371484375 28.647410264824618L15.267187499999999 28.7076260936815L14.85 28.46676277825396L14.4328125 28.7076260936815" stroke-width="0.03" stroke="#000000" fill="none"/>
<path d="M13.80703125 28.346331120540185L12.033984375000001 27.322662029973106" stroke-width="0.03" stroke="#000000" fill="none"/>
<path d="M12.138281249999999 27.382877858829996L12.138281249999999 28.346331120540185L12.242578125 28.40654694939707" stroke-width="0.03" stroke="#000000" fill="none"/>
<path d="M12.242578125 28.647410264824618L12.868359374999999 29.008705237965938L12.868359374999999 27.804388660828202" stroke-width="0.03" stroke="#000000" fill="none"/>
<path d="M13.181249999999999 27.985036147398862L13.181249999999999 28.828057751395274L12.7640625 29.068921066822824L12.7640625 29.791511013105463L12.659765624999999 29.851726841962353L12.242578125 29.610863526534803L12.242578125 27.443093687686883" stroke-width="0.03" stroke="#000000" fill="none"/>
<path d="M12.033984375000001 27.202230372259333L11.9296875 27.26244620111622L10.46953125 26.419424597119807" stroke-width="0.03" stroke="#000000" fill="none"/>
<path d="M9.4265625 26.660287912547354L9.009374999999999 26.901151227974903" stroke-width="0.03" stroke="#000000" fill="none"/>
<path d="M9.322265625 26.600072083690467L9.322265625 24.191438929414996L7.236328125 22.98712235227726" stroke-width="0.03" stroke="#000000" fill="none"/>
<path d="M6.819140625 23.107554009991038L6.4019531249999995 22.866690694563488" stroke-width="0.03" stroke="#000000" fill="none"/>
<path d="M6.297656249999999 23.40863315427547L6.4019531249999995 23.468848983132357" stroke-width="0.03" stroke="#000000" fill="none"/>
<path d="M7.96640625 22.08388491942396L7.96640625 20.397841711431134L8.070703124999998 20.337625882574244" stroke-width="0.03" stroke="#000000" fill="none"/>
<path d="M7.96640625 20.397841711431134L9.739453124999999 21.42151080199821L9.739453124999999 23.107554009991038L10.46953125 22.686043207992828" stroke-width="0.03" stroke="#000000" fill="none"/>
<path d="M10.46953125 22.926906523420374L10.260937499999999 22.8064748657066" stroke-width="0.03" stroke="#000000" fill="none"/>
<path d="M10.05234375 22.926906523420374L10.46953125 23.167769838847924L10.46953125 21.72258994628264" stroke-width="0.03" stroke="#000000" fill="none"/>
<path d="M10.88671875 21.36129497314132L11.512500000000001 21.72258994628264" stroke-width="0.03" stroke="#000000" fill="none"/>
<path d="M10.991015625000001 22.62582737913594L10.991015625000001 23.227985667704807L10.782421874999999 23.348417325418584" stroke-width="0.03" stroke="#000000" fill="none"/>
<path d="M10.991015625000001 23.227985667704807L11.512500000000001 23.529064811989244" stroke-width="0.03" stroke="#000000" fill="none"/>
<path d="M11.199609375 23.95057561398745L10.46953125 24.37208641598566L11.9296875 25.215108019982072L12.033984375000001 25.154892191125185" stroke-width="0.03" stroke="#000000" fill="none"/>
<path d="M11.9296875 25.215108019982072L11.9296875 27.26244620111622" stroke-width="0.03" stroke="#000000" fill="none"/>
<path d="M12.659765624999999 28.888273580252164L12.659765624999999 29.851726841962353" stroke-width="0.03" stroke="#000000" fill="none"/>
<path d="M12.346874999999999 29.67107935539169L12.346874999999999 30.273237643960556" stroke-width="0.03" stroke="#000000" fill="none"/>
<path d="M12.7640625 29.068921066822824L13.598437500000001 29.550647697677917L13.80703125 29.430216039964147" stroke-width="0.03" stroke="#000000" fill="none"/>
<path d="M13.80703125 29.30978438225037L13.076953125000001 28.888273580252164" stroke-width="0.03" stroke="#000000" fill="none"/>
<path d="M13.598437500000001 29.550647697677917L13.598437500000001 30.995827590243202L14.119921875 30.694748445958766L14.119921875 30.21302181510367" stroke-width="0.03" stroke="#000000" fill="none"/>
<path d="M14.224218749999999 30.273237643960556L14.224218749999999 26.419424597119807L14.328515625 26.359208768262917" stroke-width="0.03" stroke="#000000" fill="none"/>
<path d="M14.224218749999999 26.419424597119807L13.80703125 26.17856128169226" stroke-width="0.03" stroke="#000000" fill="none"/>
<path d="M15.371484375 26.359208768262917L15.47578125 26.419424597119807L15.47578125 30.273237643960556" stroke-width="0.03" stroke="#000000" fill="none"/>
<path d="M15.580078125 30.21302181510367L15.580078125 30.694748445958766L16.1015625 30.995827590243202L16.1015625 29.550647697677917L16.9359375 29.068921066822824L16.51875 28.828057751395274L16.51875 27.985036147398862" stroke-width="0.03" stroke="#000000" fill="none"/>
<path d="M16.831640625 27.804388660828202L16.831640625 29.008705237965938L17.457421875 28.647410264824618" stroke-width="0.03" stroke="#000000" fill="none"/>
<path d="M17.457421875 28.40654694939707L17.56171875 28.346331120540185L17.56171875 27.382877858829996" stroke-width="0.03" stroke="#000000" fill="none"/>
<path d="M17.457421875 27.443093687686883L17.457421875 29.610863526534803L17.040234375 29.851726841962353L16.9359375 29.791511013105463L16.9359375 29.068921066822824" stroke-width="0.03" stroke="#000000" fill="none"/>
<path d="M17.040234375 28.888273580252164L17.040234375 29.851726841962353" stroke-width="0.03" stroke="#000000" fill="none"/>
<path d="M17.353125 29.67107935539169L17.353125 30.273237643960556" stroke-width="0.03" stroke="#000000" fill="none"/>
<path d="M17.666015625 30.0925901573899L17.666015625 23.95057561398745" stroke-width="0.03" stroke="#000000" fill="none"/>
<path d="M17.666015625 24.071007271701223L18.917578125000002 23.348417325418584L18.917578125000002 21.903237432853302" stroke-width="0.03" stroke="#000000" fill="none"/>
<path d="M18.81328125 21.96345326171019L24.132421875000002 18.892445990008962" stroke-width="0.03" stroke="#000000" fill="none"/>
<path d="M24.132421875000002 18.531151016867643L23.610937500000002 18.832230161152076" stroke-width="0.03" stroke="#000000" fill="none"/>
<path d="M23.610937500000002 18.95266181886585L21.733593749999997 20.03654673828981" stroke-width="0.03" stroke="#000000" fill="none"/>
<path d="M21.733593749999997 20.156978396003588L22.567968750000002 19.67525176514849L22.567968750000002 19.554820107434715" stroke-width="0.03" stroke="#000000" fill="none"/>
<path d="M22.7765625 19.434388449720945L22.7765625 18.711798503438303L21.733593749999997 19.31395679200717" stroke-width="0.03" stroke="#000000" fill="none"/>
<path d="M21.733593749999997 18.95266181886585L22.463671875 18.531151016867643L22.880859375 18.77201433229519L23.506640625 18.410719359153866L23.610937500000002 18.470935188010756L23.610937500000002 18.95266181886585" stroke-width="0.03" stroke="#000000" fill="none"/>
<path d="M23.610937500000002 18.470935188010756L22.7765625 18.95266181886585" stroke-width="0.03" stroke="#000000" fill="none"/>
<path d="M22.880859375 18.77201433229519L22.880859375 17.808561070585L22.672265625 17.688129412871227" stroke-width="0.03" stroke="#000000" fill="none"/>
<path d="M22.567968750000002 17.748345241728117L22.567968750000002 18.59136684572453" stroke-width="0.03" stroke="#000000" fill="none"/>
<path d="M22.880859375 17.808561070585L24.132421875000002 17.08597112430236L23.610937500000002 16.784891980017925L23.610937500000002 16.062302033735286L23.506640625 16.0020862048784L16.72734375 19.916115080576038L16.72734375 19.554820107434715" stroke-width="0.03" stroke="#000000" fill="none"/>
<path d="M16.9359375 19.554820107434715L17.978906249999998 18.95266181886585L17.978906249999998 19.073093476579622L16.9359375 19.67525176514849L14.85 18.470935188010756L12.7640625 19.67525176514849L11.72109375 19.073093476579622L11.72109375 18.95266181886585L13.80703125 17.748345241728117L13.181249999999999 17.387050268586794L14.224218749999999 16.784891980017925L14.85 17.146186953159244L15.47578125 16.784891980017925L16.51875 17.387050268586794L16.51875 17.50748192630057L15.997265625 17.808561070585" stroke-width="0.03" stroke="#000000" fill="none"/>
<path d="M15.89296875 17.748345241728117L16.51875 17.387050268586794" stroke-width="0.03" stroke="#000000" fill="none"/>
<path d="M16.414453125 16.845107808874815L15.162890625 16.122517862592172L15.580078125 15.881654547164626" stroke-width="0.03" stroke="#000000" fill="none"/>
<path d="M15.580078125 16.122517862592172L15.371484375 16.24294952030595" stroke-width="0.03" stroke="#000000" fill="none"/>
<path d="M15.580078125 16.36338117801972L15.580078125 15.520359574023306L17.040234375 16.36338117801972L18.81328125 15.339712087452645L18.81328125 15.460143745166418" stroke-width="0.03" stroke="#000000" fill="none"/>
<path d="M18.81328125 15.339712087452645L17.353125 14.49669048345623" stroke-width="0.03" stroke="#000000" fill="none"/>
<path d="M17.457421875 13.111726419747836L18.083203125 12.750431446606514L19.23046875 13.412805564032269" stroke-width="0.03" stroke="#000000" fill="none"/>
<path d="M19.334765625 13.352589735175382L17.978906249999998 12.569783960035853L17.978906249999998 12.8106472754634" stroke-width="0.03" stroke="#000000" fill="none"/>
<path d="M17.874609375000002 12.87086310432029L17.040234375 12.389136473465193L16.9359375 12.44935230232208" stroke-width="0.03" stroke="#000000" fill="none"/>
<path d="M17.14453125 12.44935230232208L17.874609375000002 12.027841500323873L18.396093750000002 12.328920644608306" stroke-width="0.03" stroke="#000000" fill="none"/>
<path d="M18.396093750000002 12.08805732918076L18.1875 12.208488986894533" stroke-width="0.03" stroke="#000000" fill="none"/>
<path d="M18.396093750000002 12.08805732918076L18.396093750000002 10.40201412118793" stroke-width="0.03" stroke="#000000" fill="none"/>
<path d="M18.1875 10.281582463474159L17.978906249999998 10.40201412118793L17.978906249999998 10.04071914804661L17.353125 9.67942417490529" stroke-width="0.03" stroke="#000000" fill="none"/>
<path d="M17.457421875 9.619208346048403L18.291796875 9.13748171519331L22.672265625 11.666546527182554L22.672265625 11.9074098426101L22.463671875 12.027841500323873" stroke-width="0.03" stroke="#000000" fill="none"/>
<path d="M22.567968750000002 11.967625671466987L23.610937500000002 12.569783960035853L23.610937500000002 12.690215617749628" stroke-width="0.03" stroke="#000000" fill="none"/>
<path d="M23.610937500000002 12.569783960035853L23.506640625 12.629999788892741" stroke-width="0.03" stroke="#000000" fill="none"/>
<path d="M22.672265625 11.666546527182554L22.255078124999997 11.9074098426101" stroke-width="0.03" stroke="#000000" fill="none"/>
<path d="M22.463671875 11.54611486946878L22.463671875 11.425683211755006L22.255078124999997 11.305251554041233L22.150781249999998 11.365467382898117" stroke-width="0.03" stroke="#000000" fill="none"/>
<path d="M22.359375 11.485899040611892L22.463671875 11.425683211755006" stroke-width="0.03" stroke="#000000" fill="none"/>
<path d="M20.89921875 12.931078933177174L20.377734375 13.232158077461609L20.377734375 13.473021392889155L23.506640625 15.279496258595758" stroke-width="0.03" stroke="#000000" fill="none"/>
<path d="M23.506640625 15.159064600881985L24.23671875 14.737553798883777L24.4453125 14.85798545659755" stroke-width="0.03" stroke="#000000" fill="none"/>
<path d="M24.549609375 14.797769627740664L23.819531249999997 15.21928042973887L23.819531249999997 15.339712087452645L23.506640625 15.159064600881985L23.506640625 15.640791231737078L23.819531249999997 15.82143871830774L23.819531249999997 16.18273369144906L24.23671875 16.423597006876605L24.966796875000004 16.0020862048784L24.966796875000004 15.761222889450853" stroke-width="0.03" stroke="#000000" fill="none"/>
<path d="M25.07109375 15.701007060593964L24.341015624999997 16.122517862592172L24.23671875 16.062302033735286L24.23671875 16.423597006876605" stroke-width="0.03" stroke="#000000" fill="none"/>
<path d="M24.341015624999997 16.36338117801972L24.341015624999997 20.096762567146698L24.8625 19.795683422862265L24.8625 16.062302033735286" stroke-width="0.03" stroke="#000000" fill="none"/>
<path d="M25.07109375 15.701007060593964L25.07109375 15.21928042973887L24.966796875000004 15.159064600881985L24.966796875000004 15.038632943168212L24.549609375 14.797769627740664" stroke-width="0.03" stroke="#000000" fill="none"/>
<path d="M24.132421875000002 14.797769627740664L20.89921875 12.931078933177174" stroke-width="0.03" stroke="#000000" fill="none"/>
<path d="M20.794921875 12.991294762034062L20.377734375 12.750431446606514L14.85 15.94187037602151L9.322265625 12.750431446606514L8.905078125 12.991294762034062" stroke-width="0.03" stroke="#000000" fill="none"/>
<path d="M9.322265625 13.232158077461609L9.322265625 13.473021392889155" stroke-width="0.03" stroke="#000000" fill="none"/>
<path d="M8.38359375 14.014963852601136L13.702734374999999 17.08597112430236" stroke-width="0.03" stroke="#000000" fill="none"/>
<path d="M13.598437500000001 17.025755295445475L14.85 16.303165349162832L16.1015625 17.025755295445475" stroke-width="0.03" stroke="#000000" fill="none"/>
<path d="M15.997265625 17.08597112430236L21.31640625 14.014963852601136" stroke-width="0.03" stroke="#000000" fill="none"/>
<path d="M21.629296875 14.195611339171796L21.107812499999998 14.49669048345623" stroke-width="0.03" stroke="#000000" fill="none"/>
<path d="M21.003515625000002 14.436474654599342L19.126171875 15.520359574023306" stroke-width="0.03" stroke="#000000" fill="none"/>
<path d="M19.021874999999998 15.460143745166418L19.85625 14.978417114311325L19.960546875000002 15.038632943168212" stroke-width="0.03" stroke="#000000" fill="none"/>
<path d="M20.169140624999997 14.918201285454437L20.794921875 15.279496258595758L19.751953125 15.881654547164626" stroke-width="0.03" stroke="#000000" fill="none"/>
<path d="M20.064843749999998 16.062302033735286L20.794921875 15.640791231737078L20.794921875 15.159064600881985L21.420703125 14.797769627740664L21.420703125 14.67733797002689L21.003515625000002 14.436474654599342" stroke-width="0.03" stroke="#000000" fill="none"/>
<path d="M21.420703125 14.67733797002689L20.586328125 15.159064600881985" stroke-width="0.03" stroke="#000000" fill="none"/>
<path d="M20.794921875 15.159064600881985L21.629296875 15.640791231737078L22.880859375 14.918201285454437L22.880859375 15.520359574023306L23.506640625 15.881654547164626L23.506640625 16.0020862048784" stroke-width="0.03" stroke="#000000" fill="none"/>
<path d="M23.506640625 15.881654547164626L22.567968750000002 16.423597006876605" stroke-width="0.03" stroke="#000000" fill="none"/>
<path d="M22.567968750000002 16.54402866459038L22.567968750000002 15.82143871830774L22.150781249999998 15.580575402880193L18.81328125 17.50748192630057L18.81328125 17.62791358401434L19.23046875 17.86877689944189L21.212109374999997 16.72467615116104L21.31640625 16.784891980017925L21.31640625 17.26661861087302L21.733593749999997 17.50748192630057L21.733593749999997 17.62791358401434L19.751953125 18.77201433229519L19.751953125 19.253740963150285L19.85625 19.31395679200717L23.193749999999998 17.387050268586794L23.193749999999998 16.905323637731698L22.567968750000002 16.54402866459038" stroke-width="0.03" stroke="#000000" fill="none"/>
<path d="M22.672265625 16.60424449344727L23.610937500000002 16.062302033735286" stroke-width="0.03" stroke="#000000" fill="none"/>
<path d="M23.715234375 15.881654547164626L23.819531249999997 15.82143871830774" stroke-width="0.03" stroke="#000000" fill="none"/>
<path d="M23.715234375 15.761222889450853L23.715234375 15.881654547164626L23.819531249999997 15.94187037602151" stroke-width="0.03" stroke="#000000" fill="none"/>
<path d="M24.132421875000002 16.36338117801972L24.132421875000002 19.976330909432924L24.341015624999997 20.096762567146698" stroke-width="0.03" stroke="#000000" fill="none"/>
<path d="M24.758203125 20.337625882574244L19.23046875 23.529064811989244L19.23046875 29.91194267081924L18.81328125 30.152805986246786" stroke-width="0.03" stroke="#000000" fill="none"/>
<path d="M18.81328125 30.273237643960556L15.580078125 32.139928338524044" stroke-width="0.03" stroke="#000000" fill="none"/>
<path d="M15.371484375 32.50122331166537L15.371484375 31.658201707668955L15.267187499999999 31.597985878812068L15.580078125 31.41733839224141" stroke-width="0.03" stroke="#000000" fill="none"/>
<path d="M15.47578125 31.35712256338452L18.6046875 29.550647697677917L18.81328125 29.67107935539169L18.81328125 30.273237643960556" stroke-width="0.03" stroke="#000000" fill="none"/>
<path d="M18.81328125 29.67107935539169L15.580078125 31.53777004995518" stroke-width="0.03" stroke="#000000" fill="none"/>
<path d="M15.371484375 31.658201707668955L14.954296875 31.8990650230965L14.85 31.838849194239618" stroke-width="0.03" stroke="#000000" fill="none"/>
<path d="M14.745703124999999 31.8990650230965L14.745703124999999 32.74208662709292" stroke-width="0.03" stroke="#000000" fill="none"/>
<path d="M14.85 32.8023024559498L14.85 33.76575571765999L14.328515625 34.06683486194443" stroke-width="0.03" stroke="#000000" fill="none"/>
<path d="M14.85 33.76575571765999L15.371484375 34.06683486194443L21.003515625000002 30.815180103672542L21.003515625000002 29.851726841962353L19.543359374999998 29.008705237965938L19.23046875 29.189352724536597" stroke-width="0.03" stroke="#000000" fill="none"/>
<path d="M19.23046875 28.7076260936815L20.586328125 27.92482031854198L20.377734375 27.804388660828202" stroke-width="0.03" stroke="#000000" fill="none"/>
<path d="M20.377734375 27.68395700311443L21.212109374999997 27.202230372259333L21.212109374999997 27.081798714545563" stroke-width="0.03" stroke="#000000" fill="none"/>
<path d="M21.107812499999998 27.26244620111622L21.107812499999998 28.105467805112635L20.586328125 28.40654694939707" stroke-width="0.03" stroke="#000000" fill="none"/>
<path d="M20.794921875 28.526978607110845L20.794921875 28.286115291683295" stroke-width="0.03" stroke="#000000" fill="none"/>
<path d="M20.794921875 28.526978607110845L22.255078124999997 29.37000021110726" stroke-width="0.03" stroke="#000000" fill="none"/>
<path d="M22.463671875 29.249568553393484L22.463671875 29.008705237965938L22.7765625 29.189352724536597L23.40234375 28.828057751395274L23.40234375 25.937697966264714L25.90546875 24.492518073699433L25.90546875 23.76992812741679L25.592578125 23.58928064084613L25.801171875 23.468848983132357" stroke-width="0.03" stroke="#000000" fill="none"/>
<path d="M25.801171875 23.709712298559904L25.801171875 21.782805775139526" stroke-width="0.03" stroke="#000000" fill="none"/>
<path d="M26.009765625 21.662374117425752L26.009765625 27.322662029973106L25.90546875 27.382877858829996L25.90546875 27.50330951654377L21.003515625000002 30.333453472817446" stroke-width="0.03" stroke="#000000" fill="none"/>
<path d="M21.003515625000002 30.0925901573899L22.672265625 29.12913689567971" stroke-width="0.03" stroke="#000000" fill="none"/>
<path d="M22.7765625 29.189352724536597L22.7765625 26.17856128169226L23.298046874999997 25.877482137407824L23.298046874999997 25.27532384883896L21.629296875 24.311870587128773L22.046484375000002 24.071007271701223L22.046484375000002 23.227985667704807" stroke-width="0.03" stroke="#000000" fill="none"/>
<path d="M22.150781249999998 23.167769838847924L22.150781249999998 24.13122310055811L22.463671875 23.95057561398745" stroke-width="0.03" stroke="#000000" fill="none"/>
<path d="M22.150781249999998 24.13122310055811L22.046484375000002 24.071007271701223" stroke-width="0.03" stroke="#000000" fill="none"/>
<path d="M21.629296875 24.311870587128773L21.629296875 24.432302244842543L21.212109374999997 24.673165560270093L21.212109374999997 25.154892191125185L21.107812499999998 25.215108019982072L21.107812499999998 25.696834650837165L20.377734375 26.118345452835374" stroke-width="0.03" stroke="#000000" fill="none"/>
<path d="M20.377734375 26.238777110549147L21.212109374999997 25.75705047969405L21.107812499999998 25.696834650837165" stroke-width="0.03" stroke="#000000" fill="none"/>
<path d="M21.212109374999997 25.75705047969405L21.212109374999997 26.118345452835374" stroke-width="0.03" stroke="#000000" fill="none"/>
<path d="M21.629296875 25.877482137407824L20.2734375 26.660287912547354L20.2734375 27.142014543402446L20.690625 27.382877858829996L22.046484375000002 26.600072083690467L22.046484375000002 26.118345452835374L21.629296875 25.877482137407824" stroke-width="0.03" stroke="#000000" fill="none"/>
<path d="M22.046484375000002 26.118345452835374L20.690625 26.901151227974903L20.690625 27.382877858829996" stroke-width="0.03" stroke="#000000" fill="none"/>
<path d="M20.377734375 27.202230372259333L20.377734375 27.92482031854198L19.23046875 28.58719443596773" stroke-width="0.03" stroke="#000000" fill="none"/>
<path d="M20.586328125 28.888273580252164L21.003515625000002 28.647410264824618" stroke-width="0.03" stroke="#000000" fill="none"/>
<path d="M20.89921875 28.7076260936815L20.89921875 29.550647697677917L20.690625 29.67107935539169" stroke-width="0.03" stroke="#000000" fill="none"/>
<path d="M20.482031250000002 29.550647697677917L20.482031250000002 29.430216039964147" stroke-width="0.03" stroke="#000000" fill="none"/>
<path d="M20.586328125 29.37000021110726L20.377734375 29.490431868821034" stroke-width="0.03" stroke="#000000" fill="none"/>
<path d="M20.586328125 29.37000021110726L20.586328125 27.92482031854198" stroke-width="0.03" stroke="#000000" fill="none"/>
<path d="M20.690625 26.901151227974903L20.2734375 26.660287912547354" stroke-width="0.03" stroke="#000000" fill="none"/>
<path d="M20.377734375 26.600072083690467L20.377734375 24.191438929414996L22.463671875 22.98712235227726" stroke-width="0.03" stroke="#000000" fill="none"/>
<path d="M22.463671875 22.866690694563488L22.880859375 22.62582737913594L23.298046874999997 22.866690694563488L23.298046874999997 24.432302244842543L22.880859375 24.673165560270093L22.463671875 24.432302244842543L22.463671875 22.866690694563488L22.880859375 23.107554009991038L22.880859375 24.673165560270093" stroke-width="0.03" stroke="#000000" fill="none"/>
<path d="M23.298046874999997 25.27532384883896L25.90546875 23.76992812741679" stroke-width="0.03" stroke="#000000" fill="none"/>
<path d="M25.801171875 23.227985667704807L24.341015624999997 22.384964063708395L24.132421875000002 22.50539572142217" stroke-width="0.03" stroke="#000000" fill="none"/>
<path d="M24.132421875000002 22.264532405994622L24.132421875000002 22.866690694563488L23.40234375 23.288201496561694" stroke-width="0.03" stroke="#000000" fill="none"/>
<path d="M23.40234375 23.40863315427547L23.298046874999997 23.468848983132357" stroke-width="0.03" stroke="#000000" fill="none"/>
<path d="M23.40234375 23.40863315427547L23.40234375 22.44517989256528" stroke-width="0.03" stroke="#000000" fill="none"/>
<path d="M23.506640625 22.384964063708395L23.715234375 22.50539572142217L24.966796875000004 21.782805775139526L24.966796875000004 21.54194245971198" stroke-width="0.03" stroke="#000000" fill="none"/>
<path d="M25.07109375 21.602158288568866L24.966796875000004 21.662374117425752" stroke-width="0.03" stroke="#000000" fill="none"/>
<path d="M25.279687499999998 21.72258994628264L25.279687499999998 21.96345326171019L24.549609375 22.384964063708395" stroke-width="0.03" stroke="#000000" fill="none"/>
<path d="M24.549609375 22.50539572142217L24.549609375 22.023669090567072" stroke-width="0.03" stroke="#000000" fill="none"/>
<path d="M23.715234375 22.50539572142217L23.715234375 20.939784171143113" stroke-width="0.03" stroke="#000000" fill="none"/>
<path d="M23.610937500000002 21L23.610937500000002 22.32474823485151L22.98515625 22.686043207992828" stroke-width="0.03" stroke="#000000" fill="none"/>
<path d="M23.298046874999997 22.866690694563488L22.880859375 23.107554009991038" stroke-width="0.03" stroke="#000000" fill="none"/>
<path d="M21.733593749999997 22.08388491942396L21.733593749999997 20.397841711431134L21.629296875 20.337625882574244" stroke-width="0.03" stroke="#000000" fill="none"/>
<path d="M21.733593749999997 20.277410053717357L21.733593749999997 18.23007187258321" stroke-width="0.03" stroke="#000000" fill="none"/>
<path d="M21.733593749999997 17.50748192630057L18.1875 19.554820107434715" stroke-width="0.03" stroke="#000000" fill="none"/>
<path d="M18.1875 19.31395679200717L17.14453125 19.916115080576038L17.14453125 22.32474823485151L15.05859375 23.529064811989244L15.05859375 24.73338138912698L17.14453125 23.529064811989244L17.14453125 24.251654758271883L18.1875 23.649496469703017L18.1875 22.926906523420374L18.81328125 22.565611550279055L18.81328125 21.36129497314132L18.708984375 21.301079144284433L18.1875 21.602158288568866" stroke-width="0.03" stroke="#000000" fill="none"/>
<path d="M18.1875 21.72258994628264L18.81328125 21.36129497314132" stroke-width="0.03" stroke="#000000" fill="none"/>
<path d="M19.23046875 21.72258994628264L19.23046875 23.167769838847924L19.647656249999997 22.926906523420374" stroke-width="0.03" stroke="#000000" fill="none"/>
<path d="M19.439062500000002 22.8064748657066L19.23046875 22.926906523420374" stroke-width="0.03" stroke="#000000" fill="none"/>
<path d="M19.23046875 22.686043207992828L19.960546875000002 23.107554009991038L19.960546875000002 21.42151080199821L19.85625 21.36129497314132" stroke-width="0.03" stroke="#000000" fill="none"/>
<path d="M19.960546875000002 21.42151080199821L21.733593749999997 20.397841711431134" stroke-width="0.03" stroke="#000000" fill="none"/>
<path d="M19.85625 19.31395679200717L19.85625 18.832230161152076L19.751953125 18.77201433229519" stroke-width="0.03" stroke="#000000" fill="none"/>
<path d="M19.85625 18.832230161152076L23.193749999999998 16.905323637731698" stroke-width="0.03" stroke="#000000" fill="none"/>
<path d="M23.193749999999998 17.025755295445475L23.610937500000002 16.784891980017925" stroke-width="0.03" stroke="#000000" fill="none"/>
<path d="M24.341015624999997 16.122517862592172L24.341015624999997 15.640791231737078L24.23671875 15.580575402880193L24.23671875 15.460143745166418L23.819531249999997 15.21928042973887" stroke-width="0.03" stroke="#000000" fill="none"/>
<path d="M23.610937500000002 15.098848772025098L20.377734375 13.232158077461609" stroke-width="0.03" stroke="#000000" fill="none"/>
<path d="M19.751953125 13.111726419747836L19.439062500000002 12.931078933177174L19.439062500000002 11.245035725184344L20.2734375 10.763309094329252L25.90546875 14.014963852601136L25.90546875 14.617122141170004L26.426953124999997 14.918201285454437L26.426953124999997 21.42151080199821L25.592578125 21.903237432853302L24.132421875000002 21.060215828856883L24.132421875000002 20.698920855715564" stroke-width="0.03" stroke="#000000" fill="none"/>
<path d="M24.758203125 20.337625882574244L24.758203125 19.85589925171915" stroke-width="0.03" stroke="#000000" fill="none"/>
<path d="M26.426953124999997 19.13330930543651L26.844140625 18.892445990008962L26.844140625 23.95057561398745L26.009765625 24.432302244842543L25.90546875 24.37208641598566" stroke-width="0.03" stroke="#000000" fill="none"/>
<path d="M26.009765625 25.27532384883896L27.052734375 25.877482137407824L27.052734375 27.804388660828202L26.844140625 27.92482031854198L26.844140625 28.165683633969522L25.175390624999995 29.12913689567971L24.132421875000002 28.526978607110845" stroke-width="0.03" stroke="#000000" fill="none"/>
<path d="M24.8625 28.105467805112635L25.175390624999995 28.286115291683295L25.175390624999995 29.12913689567971" stroke-width="0.03" stroke="#000000" fill="none"/>
<path d="M25.175390624999995 28.286115291683295L26.322656249999998 27.623741174257542L26.322656249999998 26.29899293940603L27.052734375 25.877482137407824" stroke-width="0.03" stroke="#000000" fill="none"/>
<path d="M26.322656249999998 26.29899293940603L26.009765625 26.118345452835374" stroke-width="0.03" stroke="#000000" fill="none"/>
<path d="M25.90546875 27.382877858829996L26.322656249999998 27.623741174257542" stroke-width="0.03" stroke="#000000" fill="none"/>
<path d="M23.40234375 28.94848940910905L23.40234375 29.91194267081924L19.021874999999998 32.44100748280849L18.81328125 32.32057582509471L18.81328125 32.07971250966716" stroke-width="0.03" stroke="#000000" fill="none"/>
<path d="M18.81328125 32.200144167380934L17.7703125 32.8023024559498L17.666015625 32.74208662709292" stroke-width="0.03" stroke="#000000" fill="none"/>
<path d="M17.7703125 32.8023024559498L17.7703125 32.68187079823603" stroke-width="0.03" stroke="#000000" fill="none"/>
<path d="M19.021874999999998 32.44100748280849L19.021874999999998 31.959280851953388" stroke-width="0.03" stroke="#000000" fill="none"/>
<path d="M19.23046875 32.32057582509471L19.334765625 32.3807916539516L19.543359374999998 32.260359996237824L19.543359374999998 32.139928338524044" stroke-width="0.03" stroke="#000000" fill="none"/>
<path d="M19.334765625 32.260359996237824L19.334765625 32.3807916539516" stroke-width="0.03" stroke="#000000" fill="none"/>
<path d="M21.003515625000002 29.851726841962353L15.371484375 33.103381600234236L15.371484375 34.06683486194443" stroke-width="0.03" stroke="#000000" fill="none"/>
<path d="M15.371484375 33.103381600234236L14.85 32.8023024559498" stroke-width="0.03" stroke="#000000" fill="none"/>
<path d="M14.954296875 32.74208662709292L14.954296875 31.8990650230965" stroke-width="0.03" stroke="#000000" fill="none"/>
<path d="M14.85 31.35712256338452L14.85 31.236690905670745L14.745703124999999 31.296906734527635" stroke-width="0.03" stroke="#000000" fill="none"/>
<path d="M14.85 31.236690905670745L14.954296875 31.296906734527635" stroke-width="0.03" stroke="#000000" fill="none"/>
<path d="M14.954296875 31.056043419100085L15.580078125 30.694748445958766" stroke-width="0.03" stroke="#000000" fill="none"/>
<path d="M14.954296875 31.056043419100085L14.954296875 29.972158499676127" stroke-width="0.03" stroke="#000000" fill="none"/>
<path d="M14.745703124999999 29.972158499676127L14.745703124999999 31.056043419100085L14.85 30.995827590243202L14.954296875 31.056043419100085" stroke-width="0.03" stroke="#000000" fill="none"/>
<path d="M14.85 30.995827590243202L14.85 23.167769838847924L14.537109375 23.348417325418584" stroke-width="0.03" stroke="#000000" fill="none"/>
<path d="M14.64140625 23.529064811989244L14.745703124999999 23.468848983132357" stroke-width="0.03" stroke="#000000" fill="none"/>
<path d="M14.954296875 23.468848983132357L17.040234375 22.264532405994622L17.040234375 19.85589925171915L18.083203125 19.253740963150285L18.1875 19.31395679200717L18.1875 21.72258994628264" stroke-width="0.03" stroke="#000000" fill="none"/>
<path d="M18.708984375 22.62582737913594L18.708984375 23.227985667704807L18.917578125000002 23.348417325418584" stroke-width="0.03" stroke="#000000" fill="none"/>
<path d="M18.708984375 23.227985667704807L18.1875 23.529064811989244" stroke-width="0.03" stroke="#000000" fill="none"/>
<path d="M18.500390624999998 23.95057561398745L19.23046875 24.37208641598566L17.7703125 25.215108019982072L17.666015625 25.154892191125185" stroke-width="0.03" stroke="#000000" fill="none"/>
<path d="M17.7703125 25.215108019982072L17.7703125 27.26244620111622L19.23046875 26.419424597119807" stroke-width="0.03" stroke="#000000" fill="none"/>
<path d="M17.7703125 27.26244620111622L17.666015625 27.202230372259333" stroke-width="0.03" stroke="#000000" fill="none"/>
<path d="M17.666015625 27.322662029973106L15.89296875 28.346331120540185" stroke-width="0.03" stroke="#000000" fill="none"/>
<path d="M15.267187499999999 28.7076260936815L15.267187499999999 24.612949731413206" stroke-width="0.03" stroke="#000000" fill="none"/>
<path d="M15.05859375 24.73338138912698L14.954296875 24.673165560270093L14.954296875 23.468848983132357L15.05859375 23.529064811989244" stroke-width="0.03" stroke="#000000" fill="none"/>
<path d="M15.162890625 23.348417325418584L14.85 23.167769838847924" stroke-width="0.03" stroke="#000000" fill="none"/>
<path d="M14.85 21L12.555468750000001 22.32474823485151" stroke-width="0.03" stroke="#000000" fill="none"/>
<path d="M12.659765624999999 23.58928064084613L12.659765624999999 24.191438929414996L12.555468750000001 24.251654758271883" stroke-width="0.03" stroke="#000000" fill="none"/>
<path d="M12.033984375000001 24.432302244842543L10.782421874999999 23.709712298559904L10.782421874999999 24.191438929414996" stroke-width="0.03" stroke="#000000" fill="none"/>
<path d="M10.991015625000001 24.071007271701223L10.991015625000001 23.830143956273677" stroke-width="0.03" stroke="#000000" fill="none"/>
<path d="M9.322265625 24.432302244842543L9.113671875 24.311870587128773L8.80078125 24.492518073699433L8.80078125 23.890359785130563" stroke-width="0.03" stroke="#000000" fill="none"/>
<path d="M9.113671875 24.071007271701223L9.113671875 24.311870587128773" stroke-width="0.03" stroke="#000000" fill="none"/>
<path d="M8.80078125 24.492518073699433L9.322265625 24.793597217983862" stroke-width="0.03" stroke="#000000" fill="none"/>
<path d="M8.487890625 24.673165560270093L6.4019531249999995 25.877482137407824" stroke-width="0.03" stroke="#000000" fill="none"/>
<path d="M6.9234374999999995 26.17856128169226L8.5921875 25.215108019982072" stroke-width="0.03" stroke="#000000" fill="none"/>
<path d="M9.113671875 27.92482031854198L9.113671875 29.37000021110726L9.322265625 29.490431868821034" stroke-width="0.03" stroke="#000000" fill="none"/>
<path d="M9.21796875 29.550647697677917L9.21796875 29.430216039964147" stroke-width="0.03" stroke="#000000" fill="none"/>
<path d="M9.009374999999999 29.67107935539169L8.80078125 29.550647697677917L8.80078125 28.7076260936815" stroke-width="0.03" stroke="#000000" fill="none"/>
<path d="M8.696484375 28.647410264824618L9.113671875 28.888273580252164" stroke-width="0.03" stroke="#000000" fill="none"/>
<path d="M8.905078125 28.526978607110845L8.905078125 28.286115291683295" stroke-width="0.03" stroke="#000000" fill="none"/>
<path d="M8.696484375 29.851726841962353L14.328515625 33.103381600234236" stroke-width="0.03" stroke="#000000" fill="none"/>
<path d="M14.328515625 31.658201707668955L14.4328125 31.597985878812068L14.119921875 31.41733839224141" stroke-width="0.03" stroke="#000000" fill="none"/>
<path d="M14.745703124999999 31.056043419100085L14.119921875 30.694748445958766" stroke-width="0.03" stroke="#000000" fill="none"/>
<path d="M15.89296875 29.430216039964147L16.1015625 29.550647697677917" stroke-width="0.03" stroke="#000000" fill="none"/>
<path d="M15.89296875 29.30978438225037L16.623046875 28.888273580252164" stroke-width="0.03" stroke="#000000" fill="none"/>
<path d="M15.47578125 26.419424597119807L15.89296875 26.17856128169226" stroke-width="0.03" stroke="#000000" fill="none"/>
<path d="M17.040234375 24.191438929414996L17.040234375 23.58928064084613" stroke-width="0.03" stroke="#000000" fill="none"/>
<path d="M17.040234375 24.191438929414996L17.14453125 24.251654758271883" stroke-width="0.03" stroke="#000000" fill="none"/>
<path d="M17.666015625 24.432302244842543L18.917578125000002 23.709712298559904L18.917578125000002 24.191438929414996" stroke-width="0.03" stroke="#000000" fill="none"/>
<path d="M18.708984375 24.071007271701223L18.708984375 23.830143956273677" stroke-width="0.03" stroke="#000000" fill="none"/>
<path d="M20.377734375 24.432302244842543L20.586328125 24.311870587128773L20.89921875 24.492518073699433L20.89921875 23.890359785130563" stroke-width="0.03" stroke="#000000" fill="none"/>
<path d="M20.586328125 24.071007271701223L20.586328125 24.311870587128773" stroke-width="0.03" stroke="#000000" fill="none"/>
<path d="M20.89921875 24.492518073699433L20.377734375 24.793597217983862" stroke-width="0.03" stroke="#000000" fill="none"/>
<path d="M21.212109374999997 24.673165560270093L23.298046874999997 25.877482137407824" stroke-width="0.03" stroke="#000000" fill="none"/>
<path d="M22.7765625 26.17856128169226L21.107812499999998 25.215108019982072" stroke-width="0.03" stroke="#000000" fill="none"/>
<path d="M23.298046874999997 28.888273580252164L23.40234375 28.94848940910905" stroke-width="0.03" stroke="#000000" fill="none"/>
<path d="M25.592578125 21.903237432853302L25.592578125 15.399927916309531L26.426953124999997 14.918201285454437" stroke-width="0.03" stroke="#000000" fill="none"/>
<path d="M25.90546875 14.617122141170004L25.07109375 15.098848772025098L25.07109375 14.49669048345623L19.439062500000002 11.245035725184344" stroke-width="0.03" stroke="#000000" fill="none"/>
<path d="M19.647656249999997 11.124604067470571L17.978906249999998 10.161150805760384" stroke-width="0.03" stroke="#000000" fill="none"/>
<path d="M17.978906249999998 10.04071914804661L15.371484375 11.54611486946878L15.371484375 13.473021392889155" stroke-width="0.03" stroke="#000000" fill="none"/>
<path d="M14.85 13.653668879459815L14.85 11.245035725184344L14.328515625 11.54611486946878" stroke-width="0.03" stroke="#000000" fill="none"/>
<path d="M14.85 11.245035725184344L15.371484375 11.54611486946878" stroke-width="0.03" stroke="#000000" fill="none"/>
<path d="M14.015625 12.208488986894533L12.659765624999999 12.991294762034062" stroke-width="0.03" stroke="#000000" fill="none"/>
<path d="M12.555468750000001 12.44935230232208L11.825390624999999 12.027841500323873L11.303906249999999 12.328920644608306" stroke-width="0.03" stroke="#000000" fill="none"/>
<path d="M11.303906249999999 12.08805732918076L11.512500000000001 12.208488986894533" stroke-width="0.03" stroke="#000000" fill="none"/>
<path d="M11.72109375 12.569783960035853L11.72109375 12.8106472754634" stroke-width="0.03" stroke="#000000" fill="none"/>
<path d="M11.825390624999999 12.87086310432029L12.659765624999999 12.389136473465193L12.7640625 12.44935230232208" stroke-width="0.03" stroke="#000000" fill="none"/>
<path d="M13.598437500000001 12.931078933177174L13.911328125 13.111726419747836L13.911328125 13.232158077461609L14.328515625 13.473021392889155" stroke-width="0.03" stroke="#000000" fill="none"/>
<path d="M13.911328125 13.232158077461609L13.181249999999999 13.653668879459815" stroke-width="0.03" stroke="#000000" fill="none"/>
<path d="M13.076953125000001 13.593453050602928L13.911328125 13.111726419747836" stroke-width="0.03" stroke="#000000" fill="none"/>
<path d="M14.328515625 14.31604299688557L14.85 14.014963852601136L15.371484375 14.31604299688557" stroke-width="0.03" stroke="#000000" fill="none"/>
<path d="M15.05859375 14.49669048345623L14.85 14.376258825742458L14.64140625 14.49669048345623" stroke-width="0.03" stroke="#000000" fill="none"/>
<path d="M14.85 14.376258825742458L14.85 14.014963852601136" stroke-width="0.03" stroke="#000000" fill="none"/>
<path d="M14.119921875 15.520359574023306L12.659765624999999 16.36338117801972L10.88671875 15.339712087452645L12.346874999999999 14.49669048345623" stroke-width="0.03" stroke="#000000" fill="none"/>
<path d="M10.88671875 15.339712087452645L10.88671875 15.460143745166418" stroke-width="0.03" stroke="#000000" fill="none"/>
<path d="M10.782421874999999 15.399927916309531L9.009374999999999 16.423597006876605" stroke-width="0.03" stroke="#000000" fill="none"/>
<path d="M8.38359375 16.784891980017925L11.9296875 18.832230161152076" stroke-width="0.03" stroke="#000000" fill="none"/>
<path d="M11.72109375 18.95266181886585L12.7640625 19.554820107434715L14.85 18.350503530296983L16.9359375 19.554820107434715L16.9359375 19.67525176514849" stroke-width="0.03" stroke="#000000" fill="none"/>
<path d="M17.040234375 19.85589925171915L17.14453125 19.916115080576038" stroke-width="0.03" stroke="#000000" fill="none"/>
<path d="M17.040234375 20.096762567146698L16.72734375 19.916115080576038" stroke-width="0.03" stroke="#000000" fill="none"/>
<path d="M17.7703125 18.832230161152076L21.31640625 16.784891980017925" stroke-width="0.03" stroke="#000000" fill="none"/>
<path d="M20.690625 16.423597006876605L18.917578125000002 15.399927916309531" stroke-width="0.03" stroke="#000000" fill="none"/>
<path d="M20.794921875 15.520359574023306L21.525000000000002 15.94187037602151" stroke-width="0.03" stroke="#000000" fill="none"/>
<path d="M21.629296875 15.881654547164626L21.629296875 15.640791231737078" stroke-width="0.03" stroke="#000000" fill="none"/>
<path d="M22.463671875 15.761222889450853L22.880859375 15.520359574023306" stroke-width="0.03" stroke="#000000" fill="none"/>
<path d="M22.567968750000002 15.82143871830774L19.23046875 17.748345241728117L18.81328125 17.50748192630057" stroke-width="0.03" stroke="#000000" fill="none"/>
<path d="M19.23046875 17.748345241728117L19.23046875 17.86877689944189" stroke-width="0.03" stroke="#000000" fill="none"/>
<path d="M17.978906249999998 18.95266181886585L15.89296875 17.748345241728117" stroke-width="0.03" stroke="#000000" fill="none"/>
<path d="M15.371484375 16.845107808874815L14.85 16.54402866459038L14.85 16.303165349162832" stroke-width="0.03" stroke="#000000" fill="none"/>
<path d="M14.85 16.54402866459038L14.328515625 16.845107808874815" stroke-width="0.03" stroke="#000000" fill="none"/>
<path d="M14.119921875 16.36338117801972L14.119921875 15.520359574023306" stroke-width="0.03" stroke="#000000" fill="none"/>
<path d="M14.119921875 15.881654547164626L14.537109375 16.122517862592172L13.285546875 16.845107808874815" stroke-width="0.03" stroke="#000000" fill="none"/>
<path d="M13.181249999999999 17.387050268586794L13.181249999999999 17.50748192630057L13.702734374999999 17.808561070585" stroke-width="0.03" stroke="#000000" fill="none"/>
<path d="M14.85 18.350503530296983L14.85 21L17.14453125 22.32474823485151" stroke-width="0.03" stroke="#000000" fill="none"/>
<path d="M12.97265625 19.916115080576038L12.659765624999999 20.096762567146698" stroke-width="0.03" stroke="#000000" fill="none"/>
<path d="M12.555468750000001 19.916115080576038L12.659765624999999 19.85589925171915" stroke-width="0.03" stroke="#000000" fill="none"/>
<path d="M12.7640625 19.67525176514849L12.7640625 19.554820107434715" stroke-width="0.03" stroke="#000000" fill="none"/>
<path d="M12.97265625 19.554820107434715L12.97265625 19.916115080576038L6.193359375 16.0020862048784L6.089062499999999 16.062302033735286L6.089062499999999 16.784891980017925L5.567578125 17.08597112430236L6.819140625 17.808561070585L7.027734374999999 17.688129412871227" stroke-width="0.03" stroke="#000000" fill="none"/>
<path d="M7.13203125 17.748345241728117L7.13203125 18.59136684572453" stroke-width="0.03" stroke="#000000" fill="none"/>
<path d="M6.819140625 18.77201433229519L6.819140625 17.808561070585" stroke-width="0.03" stroke="#000000" fill="none"/>
<path d="M6.5062500000000005 17.025755295445475L6.089062499999999 16.784891980017925" stroke-width="0.03" stroke="#000000" fill="none"/>
<path d="M6.5062500000000005 16.905323637731698L9.84375 18.832230161152076L9.84375 19.31395679200717" stroke-width="0.03" stroke="#000000" fill="none"/>
<path d="M9.84375 18.832230161152076L9.948046875 18.77201433229519" stroke-width="0.03" stroke="#000000" fill="none"/>
<path d="M10.46953125 17.86877689944189L10.46953125 17.748345241728117L7.13203125 15.82143871830774" stroke-width="0.03" stroke="#000000" fill="none"/>
<path d="M7.236328125 15.761222889450853L6.819140625 15.520359574023306L6.193359375 15.881654547164626L6.193359375 16.0020862048784" stroke-width="0.03" stroke="#000000" fill="none"/>
<path d="M6.193359375 15.881654547164626L7.13203125 16.423597006876605" stroke-width="0.03" stroke="#000000" fill="none"/>
<path d="M7.027734374999999 16.60424449344727L6.089062499999999 16.062302033735286" stroke-width="0.03" stroke="#000000" fill="none"/>
<path d="M5.984765624999999 15.881654547164626L5.88046875 15.94187037602151" stroke-width="0.03" stroke="#000000" fill="none"/>
<path d="M5.984765624999999 15.881654547164626L5.984765624999999 15.761222889450853" stroke-width="0.03" stroke="#000000" fill="none"/>
<path d="M5.88046875 15.82143871830774L5.984765624999999 15.881654547164626" stroke-width="0.03" stroke="#000000" fill="none"/>
<path d="M5.46328125 15.460143745166418L4.733203124999998 15.038632943168212" stroke-width="0.03" stroke="#000000" fill="none"/>
<path d="M4.62890625 15.098848772025098L3.7945312499999995 14.617122141170004" stroke-width="0.03" stroke="#000000" fill="none"/>
<path d="M3.2730468750000017 14.918201285454437L3.2730468750000017 21.42151080199821L4.107421875 21.903237432853302L5.567578125 21.060215828856883L5.567578125 20.698920855715564" stroke-width="0.03" stroke="#000000" fill="none"/>
<path d="M6.089062499999999 18.95266181886585L7.96640625 20.03654673828981" stroke-width="0.03" stroke="#000000" fill="none"/>
<path d="M6.9234374999999995 18.95266181886585L6.089062499999999 18.470935188010756" stroke-width="0.03" stroke="#000000" fill="none"/>
<path d="M3.2730468750000017 18.892445990008962L3.064453125 18.77201433229519L2.8558593750000005 18.892445990008962L2.8558593750000005 23.95057561398745L3.6902343750000006 24.432302244842543L3.7945312499999995 24.37208641598566" stroke-width="0.03" stroke="#000000" fill="none"/>
<path d="M3.6902343750000006 25.27532384883896L2.647265625000001 25.877482137407824L2.647265625000001 27.804388660828202L2.8558593750000005 27.92482031854198L2.8558593750000005 28.165683633969522L4.524609375000001 29.12913689567971L5.567578125 28.526978607110845" stroke-width="0.03" stroke="#000000" fill="none"/>
<path d="M6.297656249999999 28.94848940910905L6.4019531249999995 28.888273580252164" stroke-width="0.03" stroke="#000000" fill="none"/>
<path d="M6.297656249999999 28.94848940910905L6.297656249999999 29.91194267081924L10.678125 32.44100748280849L10.88671875 32.32057582509471L10.88671875 32.07971250966716" stroke-width="0.03" stroke="#000000" fill="none"/>
<path d="M10.88671875 32.200144167380934L11.9296875 32.8023024559498L12.033984375000001 32.74208662709292" stroke-width="0.03" stroke="#000000" fill="none"/>
<path d="M11.9296875 32.8023024559498L11.9296875 32.68187079823603" stroke-width="0.03" stroke="#000000" fill="none"/>
<path d="M10.678125 32.44100748280849L10.678125 31.959280851953388" stroke-width="0.03" stroke="#000000" fill="none"/>
<path d="M10.46953125 32.32057582509471L10.365234375 32.3807916539516L10.156640625 32.260359996237824L10.156640625 32.139928338524044" stroke-width="0.03" stroke="#000000" fill="none"/>
<path d="M10.365234375 32.260359996237824L10.365234375 32.3807916539516" stroke-width="0.03" stroke="#000000" fill="none"/>
<path d="M4.524609375000001 29.12913689567971L4.524609375000001 28.286115291683295L4.8374999999999995 28.105467805112635" stroke-width="0.03" stroke="#000000" fill="none"/>
<path d="M4.524609375000001 28.286115291683295L3.3773437500000005 27.623741174257542L3.3773437500000005 26.29899293940603L2.647265625000001 25.877482137407824" stroke-width="0.03" stroke="#000000" fill="none"/>
<path d="M3.3773437500000005 26.29899293940603L3.6902343750000006 26.118345452835374" stroke-width="0.03" stroke="#000000" fill="none"/>
<path d="M3.7945312499999995 27.382877858829996L3.3773437500000005 27.623741174257542" stroke-width="0.03" stroke="#000000" fill="none"/>
<path d="M4.107421875 21.903237432853302L4.107421875 15.399927916309531" stroke-width="0.03" stroke="#000000" fill="none"/>
<path d="M4.62890625 14.49669048345623L3.7945312499999995 14.014963852601136" stroke-width="0.03" stroke="#000000" fill="none"/>
<path d="M6.089062499999999 12.690215617749628L6.089062499999999 12.569783960035853L7.13203125 11.967625671466987" stroke-width="0.03" stroke="#000000" fill="none"/>
<path d="M7.236328125 12.027841500323873L7.027734374999999 11.9074098426101L7.027734374999999 11.666546527182554L11.408203125 9.13748171519331L12.242578125 9.619208346048403L12.242578125 9.739640003762176" stroke-width="0.03" stroke="#000000" fill="none"/>
<path d="M12.97265625 9.197697544050197L12.97265625 7.9933809669124605L13.702734374999999 8.414891768910667L13.702734374999999 8.776186742051989" stroke-width="0.03" stroke="#000000" fill="none"/>
<path d="M13.702734374999999 8.414891768910667L14.85 7.752517651484913L15.997265625 8.414891768910667L16.72734375 7.9933809669124605" stroke-width="0.03" stroke="#000000" fill="none"/>
<path d="M15.997265625 8.414891768910667L15.997265625 8.776186742051989" stroke-width="0.03" stroke="#000000" fill="none"/>
<path d="M14.954296875 8.174028453483121L14.85 8.234244282340008L14.745703124999999 8.174028453483121L9.84375 11.004172409756798" stroke-width="0.03" stroke="#000000" fill="none"/>
<path d="M7.5492187500000005 11.365467382898117L7.4449218749999995 11.305251554041233L7.236328125 11.425683211755006L7.236328125 11.54611486946878" stroke-width="0.03" stroke="#000000" fill="none"/>
<path d="M7.340624999999999 11.485899040611892L7.236328125 11.425683211755006" stroke-width="0.03" stroke="#000000" fill="none"/>
<path d="M7.027734374999999 11.666546527182554L7.4449218749999995 11.9074098426101" stroke-width="0.03" stroke="#000000" fill="none"/>
<path d="M6.193359375 12.629999788892741L6.089062499999999 12.569783960035853" stroke-width="0.03" stroke="#000000" fill="none"/>
<path d="M6.819140625 14.918201285454437L6.819140625 15.520359574023306" stroke-width="0.03" stroke="#000000" fill="none"/>
<path d="M6.819140625 14.918201285454437L8.070703124999998 15.640791231737078L8.905078125 15.159064600881985L8.905078125 15.640791231737078L9.63515625 16.062302033735286" stroke-width="0.03" stroke="#000000" fill="none"/>
<path d="M9.948046875 15.881654547164626L8.905078125 15.279496258595758L9.530859375 14.918201285454437" stroke-width="0.03" stroke="#000000" fill="none"/>
<path d="M9.739453124999999 15.038632943168212L9.84375 14.978417114311325L10.678125 15.460143745166418" stroke-width="0.03" stroke="#000000" fill="none"/>
<path d="M10.573828124999999 15.520359574023306L8.696484375 14.436474654599342L8.279296875 14.67733797002689L8.279296875 14.797769627740664L8.905078125 15.159064600881985" stroke-width="0.03" stroke="#000000" fill="none"/>
<path d="M9.113671875 15.159064600881985L8.279296875 14.67733797002689" stroke-width="0.03" stroke="#000000" fill="none"/>
<path d="M8.5921875 14.49669048345623L8.070703124999998 14.195611339171796" stroke-width="0.03" stroke="#000000" fill="none"/>
<path d="M8.070703124999998 15.640791231737078L8.070703124999998 15.881654547164626" stroke-width="0.03" stroke="#000000" fill="none"/>
<path d="M8.175 15.94187037602151L8.905078125 15.520359574023306" stroke-width="0.03" stroke="#000000" fill="none"/>
<path d="M10.46953125 17.748345241728117L10.88671875 17.50748192630057" stroke-width="0.03" stroke="#000000" fill="none"/>
<path d="M12.659765624999999 16.483812835733495L12.659765624999999 16.36338117801972" stroke-width="0.03" stroke="#000000" fill="none"/>
<path d="M14.119921875 16.122517862592172L14.328515625 16.24294952030595" stroke-width="0.03" stroke="#000000" fill="none"/>
<path d="M17.040234375 16.36338117801972L17.040234375 16.483812835733495" stroke-width="0.03" stroke="#000000" fill="none"/>
<path d="M17.040234375 12.991294762034062L17.457421875 12.750431446606514" stroke-width="0.03" stroke="#000000" fill="none"/>
<path d="M17.978906249999998 12.569783960035853L19.23046875 11.847194013753214L19.439062500000002 11.967625671466987" stroke-width="0.03" stroke="#000000" fill="none"/>
<path d="M19.439062500000002 11.847194013753214L19.334765625 11.9074098426101" stroke-width="0.03" stroke="#000000" fill="none"/>
<path d="M19.439062500000002 11.606330698325666L19.23046875 11.485899040611892L18.500390624999998 11.9074098426101" stroke-width="0.03" stroke="#000000" fill="none"/>
<path d="M18.396093750000002 11.847194013753214L18.81328125 12.08805732918076" stroke-width="0.03" stroke="#000000" fill="none"/>
<path d="M19.85625 11.004172409756798L14.954296875 8.174028453483121" stroke-width="0.03" stroke="#000000" fill="none"/>
<path d="M14.85 8.234244282340008L14.85 7.752517651484913" stroke-width="0.03" stroke="#000000" fill="none"/>
<path d="M17.457421875 9.619208346048403L17.457421875 9.739640003762176" stroke-width="0.03" stroke="#000000" fill="none"/>
<path d="M24.23671875 15.460143745166418L24.966796875000004 15.038632943168212" stroke-width="0.03" stroke="#000000" fill="none"/>
<path d="M25.07109375 15.098848772025098L25.592578125 15.399927916309531" stroke-width="0.03" stroke="#000000" fill="none"/>
<path d="M25.07109375 15.21928042973887L24.341015624999997 15.640791231737078" stroke-width="0.03" stroke="#000000" fill="none"/>
<path d="M24.23671875 15.580575402880193L24.966796875000004 15.159064600881985" stroke-width="0.03" stroke="#000000" fill="none"/>
<path d="M25.07109375 14.49669048345623L25.90546875 14.014963852601136" stroke-width="0.03" stroke="#000000" fill="none"/>
<path d="M26.426953124999997 17.567697755157454L26.53125 17.62791358401434L26.53125 18.832230161152076" stroke-width="0.03" stroke="#000000" fill="none"/>
<path d="M26.635546875 18.77201433229519L26.426953124999997 18.892445990008962" stroke-width="0.03" stroke="#000000" fill="none"/>
<path d="M26.635546875 18.77201433229519L26.844140625 18.892445990008962" stroke-width="0.03" stroke="#000000" fill="none"/>
<path d="M26.844140625 19.13330930543651L26.9484375 19.193525134293395L26.9484375 19.434388449720945L26.844140625 19.49460427857783" stroke-width="0.03" stroke="#000000" fill="none"/>
<path d="M26.844140625 19.253740963150285L26.9484375 19.193525134293395" stroke-width="0.03" stroke="#000000" fill="none"/>
<path d="M26.426953124999997 17.688129412871227L26.53125 17.62791358401434" stroke-width="0.03" stroke="#000000" fill="none"/>
<path d="M9.84375 21.36129497314132L9.739453124999999 21.42151080199821" stroke-width="0.03" stroke="#000000" fill="none"/>
<path d="M3.2730468750000017 19.13330930543651L2.8558593750000005 18.892445990008962" stroke-width="0.03" stroke="#000000" fill="none"/>
<path d="M2.8558593750000005 19.13330930543651L2.7515624999999995 19.193525134293395L2.7515624999999995 19.434388449720945L2.8558593750000005 19.49460427857783" stroke-width="0.03" stroke="#000000" fill="none"/>
<path d="M2.8558593750000005 19.253740963150285L2.7515624999999995 19.193525134293395" stroke-width="0.03" stroke="#000000" fill="none"/>
<path d="M3.1687499999999984 18.832230161152076L3.1687499999999984 17.62791358401434L3.2730468750000017 17.567697755157454" stroke-width="0.03" stroke="#000000" fill="none"/>
<path d="M3.2730468750000017 17.688129412871227L3.1687499999999984 17.62791358401434" stroke-width="0.03" stroke="#000000" fill="none"/>
<path d="M3.0635334889737775 3.383983116796798L3.0635334889737775 3.0054372986874878L3.1897154283435474 3.0054372986874878L3.243793402359163 3.023463290026026L3.2798453850362406 3.0595152727031034L3.297871376374779 3.0955672553801805L3.3158973677133177 3.149645229395796L3.3158973677133177 3.2397751860884894L3.297871376374779 3.293853160104105L3.2798453850362406 3.3299051427811825L3.243793402359163 3.3659571254582596L3.1897154283435474 3.383983116796798L3.0635334889737775 3.383983116796798" stroke-width="0.03" stroke="#000000" fill="none"/>
<path d="M2.9734035322810843 3.383983116796798L2.8291956015727755 3.0054372986874878L2.6849876708644667 3.383983116796798" stroke-width="0.03" stroke="#000000" fill="none"/>
<path d="M2.6128837055103125 3.383983116796798L2.414597800786388 3.1316192380572576" stroke-width="0.03" stroke="#000000" fill="none"/>
<path d="M2.6128837055103125 3.1316192380572576L2.414597800786388 3.383983116796798" stroke-width="0.03" stroke="#000000" fill="none"/>
<path d="M2.7390656448800828 3.257801177427028L2.9193255582654682 3.257801177427028" stroke-width="0.03" stroke="#000000" fill="none"/>
<path d="M3.478131289760165 3.077541264041642L3.514183272437242 3.0595152727031034L3.568261246452858 3.0054372986874878L3.568261246452858 3.383983116796798" stroke-width="0.03" stroke="#000000" fill="none"/>
<path d="M3.80259913385386 3.257801177427028L3.8206251251923984 3.2037232034114123L3.8566771078694755 3.167671220734335L3.9107550818850916 3.149645229395796L3.9287810732236297 3.149645229395796L3.9828590472392458 3.167671220734335L4.018911029916323 3.2037232034114123L4.036937021254861 3.257801177427028L4.036937021254861 3.2758271687655665L4.018911029916323 3.3299051427811825L3.9828590472392458 3.3659571254582596L3.9287810732236297 3.383983116796798L3.9107550818850916 3.383983116796798L3.8566771078694755 3.3659571254582596L3.8206251251923984 3.3299051427811825L3.80259913385386 3.257801177427028L3.80259913385386 3.167671220734335L3.8206251251923984 3.077541264041642L3.8566771078694755 3.023463290026026L3.9107550818850916 3.0054372986874878L3.9468070645621687 3.0054372986874878L4.000885038577785 3.023463290026026L4.018911029916323 3.0595152727031034" stroke-width="0.03" stroke="#000000" fill="none"/>
<path d="M4.18114495196317 3.0054372986874878L4.379430856687095 3.0054372986874878L4.2712749086558635 3.149645229395796L4.3253528826714795 3.149645229395796L4.361404865348556 3.167671220734335L4.379430856687095 3.1856972120728733L4.397456848025634 3.2397751860884894L4.397456848025634 3.2758271687655665L4.379430856687095 3.3299051427811825L4.343378874010018 3.3659571254582596L4.289300899994402 3.383983116796798L4.235222925978786 3.383983116796798L4.18114495196317 3.3659571254582596L4.163118960624631 3.3479311341197207L4.145092969286093 3.3118791514426436" stroke-width="0.03" stroke="#000000" fill="none"/>
<path d="M4.523638787395404 3.383983116796798L4.523638787395404 3.0054372986874878L4.6858727094422505 3.0054372986874878L4.739950683457867 3.023463290026026L4.757976674796406 3.041489281364565L4.776002666134945 3.077541264041642L4.776002666134945 3.113593246718719L4.757976674796406 3.149645229395796L4.739950683457867 3.167671220734335L4.6858727094422505 3.1856972120728733" stroke-width="0.03" stroke="#000000" fill="none"/>
<path d="M4.523638787395404 3.1856972120728733L4.6858727094422505 3.1856972120728733L4.739950683457867 3.2037232034114123L4.757976674796406 3.221749194749951L4.776002666134945 3.257801177427028L4.776002666134945 3.3118791514426436L4.757976674796406 3.3479311341197207L4.739950683457867 3.3659571254582596L4.6858727094422505 3.383983116796798L4.523638787395404 3.383983116796798" stroke-width="0.03" stroke="#000000" fill="none"/>
<path d="M4.992314562197407 3.0054372986874878L4.938236588181791 3.023463290026026L4.902184605504715 3.077541264041642L4.884158614166176 3.167671220734335L4.884158614166176 3.221749194749951L4.902184605504715 3.3118791514426436L4.938236588181791 3.3659571254582596L4.992314562197407 3.383983116796798L5.028366544874484 3.383983116796798L5.0824445188901 3.3659571254582596L5.1184965015671775 3.3118791514426436L5.136522492905716 3.221749194749951L5.136522492905716 3.167671220734335L5.1184965015671775 3.077541264041642L5.0824445188901 3.023463290026026L5.028366544874484 3.0054372986874878L4.992314562197407 3.0054372986874878" stroke-width="0.03" stroke="#000000" fill="none"/>
<path d="M5.262704432275486 3.0054372986874878L5.262704432275486 3.383983116796798" stroke-width="0.03" stroke="#000000" fill="none"/>
<path d="M5.262704432275486 3.1856972120728733L5.406912362983795 3.1856972120728733" stroke-width="0.03" stroke="#000000" fill="none"/>
<path d="M5.497042319676488 3.0054372986874878L5.262704432275486 3.0054372986874878" stroke-width="0.03" stroke="#000000" fill="none"/>
<path d="M5.558333333333334 2.2291666666666665L5.441666666666666 1.8208333333333333" stroke-width="0.03" stroke="#000000" fill="none"/>
<path d="M5.675 1.8208333333333333L5.558333333333334 2.2291666666666665" stroke-width="0.03" stroke="#000000" fill="none"/>
<path d="M5.791666666666666 2.2291666666666665L5.675 1.8208333333333333" stroke-width="0.03" stroke="#000000" fill="none"/>
<path d="M5.908333333333333 1.8208333333333333L5.791666666666666 2.2291666666666665" stroke-width="0.03" stroke="#000000" fill="none"/>
<path d="M6.141666666666667 2.2291666666666665L6.141666666666667 1.7333333333333334L6.1708333333333325 1.6458333333333333L6.229166666666666 1.6166666666666667L6.2875 1.6166666666666667" stroke-width="0.03" stroke="#000000" fill="none"/>
<path d="M6.4624999999999995 1.6166666666666667L6.4624999999999995 2.2291666666666665" stroke-width="0.03" stroke="#000000" fill="none"/>
<path d="M6.258333333333333 1.8208333333333333L6.054166666666666 1.8208333333333333" stroke-width="0.03" stroke="#000000" fill="none"/>
<path d="M7.016666666666666 1.8208333333333333L7.016666666666666 2.2291666666666665" stroke-width="0.03" stroke="#000000" fill="none"/>
<path d="M7.016666666666666 2.1416666666666666L6.958333333333333 2.2L6.8999999999999995 2.2291666666666665L6.812499999999999 2.2291666666666665L6.754166666666666 2.2L6.695833333333333 2.1416666666666666L6.666666666666666 2.0541666666666667L6.666666666666666 1.9958333333333333L6.695833333333333 1.9083333333333332L6.754166666666666 1.85L6.812499999999999 1.8208333333333333L6.8999999999999995 1.8208333333333333L6.958333333333333 1.85L7.016666666666666 1.9083333333333332" stroke-width="0.03" stroke="#000000" fill="none"/>
<path d="M7.249999999999999 2.1125L7.541666666666666 1.8208333333333333" stroke-width="0.03" stroke="#000000" fill="none"/>
<path d="M7.366666666666666 1.9958333333333333L7.570833333333333 2.2291666666666665" stroke-width="0.03" stroke="#000000" fill="none"/>
<path d="M7.716666666666666 1.9958333333333333L8.066666666666666 1.9958333333333333L8.066666666666666 1.9375L8.0375 1.8791666666666667L8.008333333333333 1.85L7.949999999999999 1.8208333333333333L7.8625 1.8208333333333333L7.804166666666666 1.85L7.745833333333333 1.9083333333333332L7.716666666666666 1.9958333333333333L7.716666666666666 2.0541666666666667L7.745833333333333 2.1416666666666666L7.804166666666666 2.2L7.8625 2.2291666666666665L7.949999999999999 2.2291666666666665L8.008333333333333 2.2L8.066666666666666 2.1416666666666666" stroke-width="0.03" stroke="#000000" fill="none"/>
<path d="M8.270833333333332 1.7625L8.270833333333332 1.7333333333333334L8.299999999999999 1.675L8.329166666666666 1.6458333333333333L8.3875 1.6166666666666667L8.504166666666666 1.6166666666666667L8.5625 1.6458333333333333L8.591666666666665 1.675L8.620833333333334 1.7333333333333334L8.620833333333334 1.7916666666666665L8.591666666666665 1.85L8.533333333333331 1.9375L8.241666666666667 2.2291666666666665L8.649999999999999 2.2291666666666665" stroke-width="0.03" stroke="#000000" fill="none"/>
<path d="M9.237499999999999 2.533333333333333L1.5 2.533333333333333" stroke-width="0.03" stroke="#000000" fill="none"/>
<path d="M2.1166666666666667 2.2291666666666665L2.1166666666666667 1.8208333333333333" stroke-width="0.03" stroke="#000000" fill="none"/>
<path d="M2.0875 1.6166666666666667L2.1166666666666667 1.6458333333333333L2.145833333333333 1.6166666666666667L2.1166666666666667 1.5875L2.0875 1.6166666666666667" stroke-width="0.03" stroke="#000000" fill="none"/>
<path d="M2.3208333333333333 2.1416666666666666L2.35 2.2L2.4375 2.2291666666666665L2.525 2.2291666666666665L2.6125 2.2L2.6416666666666666 2.1416666666666666L2.6416666666666666 2.1125L2.6125 2.0541666666666667L2.5541666666666667 2.025L2.408333333333333 1.9958333333333333L2.35 1.9666666666666666L2.3208333333333333 1.9083333333333332L2.35 1.85L2.4375 1.8208333333333333L2.525 1.8208333333333333L2.6125 1.85L2.6416666666666666 1.9083333333333332" stroke-width="0.03" stroke="#000000" fill="none"/>
<path d="M2.9625 1.8208333333333333L2.904166666666667 1.85L2.845833333333333 1.9083333333333332L2.8166666666666664 1.9958333333333333L2.8166666666666664 2.0541666666666667L2.845833333333333 2.1416666666666666L2.904166666666667 2.2L2.9625 2.2291666666666665L3.05 2.2291666666666665L3.1083333333333334 2.2L3.1666666666666665 2.1416666666666666L3.1958333333333333 2.0541666666666667L3.1958333333333333 1.9958333333333333L3.1666666666666665 1.9083333333333332L3.1083333333333334 1.85L3.05 1.8208333333333333L2.9625 1.8208333333333333" stroke-width="0.03" stroke="#000000" fill="none"/>
<path d="M3.283333333333333 2.2874999999999996L3.75 2.2874999999999996" stroke-width="0.03" stroke="#000000" fill="none"/>
<path d="M3.8375 2.1416666666666666L3.8666666666666663 2.2L3.9541666666666666 2.2291666666666665L4.041666666666666 2.2291666666666665L4.129166666666666 2.2L4.158333333333333 2.1416666666666666L4.158333333333333 2.1125L4.129166666666666 2.0541666666666667L4.070833333333333 2.025L3.925 1.9958333333333333L3.8666666666666663 1.9666666666666666L3.8375 1.9083333333333332L3.8666666666666663 1.85L3.9541666666666666 1.8208333333333333L4.041666666666666 1.8208333333333333L4.129166666666666 1.85L4.158333333333333 1.9083333333333332" stroke-width="0.03" stroke="#000000" fill="none"/>
<path d="M4.3625 1.9375L4.449999999999999 1.85L4.508333333333333 1.8208333333333333L4.595833333333333 1.8208333333333333L4.654166666666667 1.85L4.683333333333334 1.9375L4.683333333333334 2.2291666666666665" stroke-width="0.03" stroke="#000000" fill="none"/>
<path d="M4.3625 2.2291666666666665L4.3625 1.8208333333333333" stroke-width="0.03" stroke="#000000" fill="none"/>
<path d="M5.033333333333333 1.8208333333333333L4.975 1.85L4.916666666666666 1.9083333333333332L4.887499999999999 1.9958333333333333L4.887499999999999 2.0541666666666667L4.916666666666666 2.1416666666666666L4.975 2.2L5.033333333333333 2.2291666666666665L5.120833333333334 2.2291666666666665L5.179166666666666 2.2L5.2375 2.1416666666666666L5.266666666666666 2.0541666666666667L5.266666666666666 1.9958333333333333L5.2375 1.9083333333333332L5.179166666666666 1.85L5.120833333333334 1.8208333333333333L5.033333333333333 1.8208333333333333" stroke-width="0.03" stroke="#000000" fill="none"/>
<path d="M7.249999999999999 1.6166666666666667L7.249999999999999 2.2291666666666665" stroke-width="0.03" stroke="#000000" fill="none"/>
<path d="M2.1622339220468474 3.0054372986874878L2.1081559480312317 3.023463290026026L2.072103965354154 3.077541264041642L2.0540779740156156 3.167671220734335L2.0540779740156156 3.221749194749951L2.072103965354154 3.3118791514426436L2.1081559480312317 3.3659571254582596L2.1622339220468474 3.383983116796798L2.1982859047239245 3.383983116796798L2.2523638787395406 3.3659571254582596L2.2884158614166177 3.3118791514426436L2.3064418527551562 3.221749194749951L2.3064418527551562 3.167671220734335L2.2884158614166177 3.077541264041642L2.2523638787395406 3.023463290026026L2.1982859047239245 3.0054372986874878L2.1622339220468474 3.0054372986874878" stroke-width="0.03" stroke="#000000" fill="none"/>
</svg>
