<?xml version="1.0" standalone="no"?>
<svg width="29.7cm" height="42cm" version="1.1" xmlns="http://www.w3.org/2000/svg" viewBox="0.0 0.0 29.700001 42.000001">
<path d="M3.898828125 12.027841500323873L8.5921875 9.31812920176397L9.113671875 9.619208346048403L9.113671875 10.823524923186138L8.5921875 11.124604067470571L8.5921875 12.44935230232208L8.905078125 12.629999788892741L8.905078125 12.87086310432029L7.96640625 13.412805564032269" stroke-width="0.03" stroke="#000000" fill="none"/>
<path d="M7.7578125 13.292373906318495L8.905078125 12.629999788892741" stroke-width="0.03" stroke="#000000" fill="none"/>
<path d="M8.905078125 12.87086310432029L9.322265625 13.111726419747836" stroke-width="0.03" stroke="#000000" fill="none"/>
<path d="M10.156640625 13.473021392889155L10.156640625 14.436474654599342L11.408203125 15.159064600881985L11.408203125 15.399927916309531" stroke-width="0.03" stroke="#000000" fill="none"/>
<path d="M11.303906249999999 15.460143745166418L8.487890625 17.08597112430236L8.487890625 17.326834439729907L8.279296875 17.44726609744368L2.3343750000000005 14.014963852601136L2.54296875 13.894532194887363L8.487890625 17.326834439729907" stroke-width="0.03" stroke="#000000" fill="none"/>
<path d="M8.487890625 17.08597112430236L2.54296875 13.653668879459815L5.3589843749999995 12.027841500323873L11.303906249999999 15.460143745166418L11.303906249999999 15.701007060593964L11.616796874999999 15.520359574023306L11.616796874999999 17.808561070585" stroke-width="0.03" stroke="#000000" fill="none"/>
<path d="M12.138281249999999 17.50748192630057L12.138281249999999 16.423597006876605L11.9296875 16.303165349162832L11.9296875 14.737553798883777L12.033984375000001 14.67733797002689L14.224218749999999 15.94187037602151L14.224218749999999 16.66446032230415" stroke-width="0.03" stroke="#000000" fill="none"/>
<path d="M14.119921875 16.60424449344727L14.119921875 16.0020862048784L14.224218749999999 15.94187037602151" stroke-width="0.03" stroke="#000000" fill="none"/>
<path d="M14.119921875 16.0020862048784L11.9296875 14.737553798883777" stroke-width="0.03" stroke="#000000" fill="none"/>
<path d="M11.408203125 15.159064600881985L11.199609375 15.279496258595758" stroke-width="0.03" stroke="#000000" fill="none"/>
<path d="M11.616796874999999 15.520359574023306L5.671875 12.08805732918076L5.567578125 12.148273158037647" stroke-width="0.03" stroke="#000000" fill="none"/>
<path d="M4.4203125 12.328920644608306L9.113671875 9.619208346048403" stroke-width="0.03" stroke="#000000" fill="none"/>
<path d="M9.113671875 9.739640003762176L10.678125 8.836402570908875L11.616796874999999 9.378345030620856L11.616796874999999 9.739640003762176L9.948046875 10.703093265472365L9.322265625 10.341798292331045L9.113671875 10.462229950044819" stroke-width="0.03" stroke="#000000" fill="none"/>
<path d="M9.113671875 9.86007166147595L9.948046875 10.341798292331045L9.948046875 10.703093265472365" stroke-width="0.03" stroke="#000000" fill="none"/>
<path d="M9.948046875 10.341798292331045L11.616796874999999 9.378345030620856" stroke-width="0.03" stroke="#000000" fill="none"/>
<path d="M11.303906249999999 9.197697544050197L12.555468750000001 8.475107597767554L14.85 9.799855832619063L17.14453125 8.475107597767554L18.396093750000002 9.197697544050197" stroke-width="0.03" stroke="#000000" fill="none"/>
<path d="M18.083203125 9.378345030620856L19.021874999999998 8.836402570908875L20.586328125 9.739640003762176" stroke-width="0.03" stroke="#000000" fill="none"/>
<path d="M20.586328125 9.619208346048403L21.107812499999998 9.31812920176397L25.801171875 12.027841500323873L25.801171875 12.87086310432029" stroke-width="0.03" stroke="#000000" fill="none"/>
<path d="M25.279687499999998 12.569783960035853L25.279687499999998 12.328920644608306L20.586328125 9.619208346048403L20.586328125 10.823524923186138L21.107812499999998 11.124604067470571L21.107812499999998 12.44935230232208L20.794921875 12.629999788892741L20.794921875 12.87086310432029L21.733593749999997 13.412805564032269" stroke-width="0.03" stroke="#000000" fill="none"/>
<path d="M21.9421875 13.292373906318495L20.794921875 12.629999788892741" stroke-width="0.03" stroke="#000000" fill="none"/>
<path d="M20.794921875 12.87086310432029L20.377734375 13.111726419747836" stroke-width="0.03" stroke="#000000" fill="none"/>
<path d="M19.543359374999998 13.473021392889155L14.85 16.18273369144906L14.85 17.025755295445475L15.788671874999999 16.483812835733495L19.126171875 18.410719359153866L19.126171875 18.531151016867643L19.23046875 18.59136684572453L19.23046875 22.44517989256528L18.291796875 22.98712235227726L18.291796875 24.071007271701223L14.954296875 25.9979137951216L14.85 25.937697966264714L14.745703124999999 25.9979137951216L11.408203125 24.071007271701223L11.408203125 22.98712235227726L10.46953125 22.44517989256528L10.46953125 18.59136684572453L10.573828124999999 18.531151016867643L10.573828124999999 18.410719359153866L13.911328125 16.483812835733495L14.85 17.025755295445475" stroke-width="0.03" stroke="#000000" fill="none"/>
<path d="M15.47578125 16.66446032230415L15.47578125 15.94187037602151L17.666015625 14.67733797002689L17.7703125 14.737553798883777L17.7703125 16.303165349162832L17.56171875 16.423597006876605L17.56171875 17.50748192630057" stroke-width="0.03" stroke="#000000" fill="none"/>
<path d="M18.083203125 17.808561070585L18.083203125 15.520359574023306L24.028125 12.08805732918076L24.132421875000002 12.148273158037647" stroke-width="0.03" stroke="#000000" fill="none"/>
<path d="M24.341015624999997 12.027841500323873L18.396093750000002 15.460143745166418L18.396093750000002 15.701007060593964L18.083203125 15.520359574023306" stroke-width="0.03" stroke="#000000" fill="none"/>
<path d="M18.083203125 15.640791231737078L17.7703125 15.82143871830774L18.083203125 16.0020862048784" stroke-width="0.03" stroke="#000000" fill="none"/>
<path d="M18.083203125 16.36338117801972L17.7703125 16.18273369144906" stroke-width="0.03" stroke="#000000" fill="none"/>
<path d="M17.56171875 16.423597006876605L18.083203125 16.72467615116104" stroke-width="0.03" stroke="#000000" fill="none"/>
<path d="M18.396093750000002 15.460143745166418L21.212109374999997 17.08597112430236L21.212109374999997 17.326834439729907L21.420703125 17.44726609744368L27.365624999999998 14.014963852601136L27.15703125 13.894532194887363L27.15703125 13.653668879459815L24.341015624999997 12.027841500323873" stroke-width="0.03" stroke="#000000" fill="none"/>
<path d="M25.279687499999998 12.328920644608306L25.801171875 12.027841500323873" stroke-width="0.03" stroke="#000000" fill="none"/>
<path d="M27.15703125 13.653668879459815L21.212109374999997 17.08597112430236" stroke-width="0.03" stroke="#000000" fill="none"/>
<path d="M21.212109374999997 17.326834439729907L27.15703125 13.894532194887363" stroke-width="0.03" stroke="#000000" fill="none"/>
<path d="M27.365624999999998 14.014963852601136L27.365624999999998 17.26661861087302L21.420703125 20.698920855715564L21.212109374999997 20.57848919800179L21.212109374999997 20.939784171143113L27.15703125 17.50748192630057L27.15703125 17.387050268586794" stroke-width="0.03" stroke="#000000" fill="none"/>
<path d="M27.57421875 16.303165349162832L28.095703125000004 16.0020862048784L28.095703125000004 21.42151080199821L27.57421875 21.72258994628264L26.53125 21.120431657713773L26.53125 20.518273369144907L25.383984374999997 19.85589925171915L25.383984374999997 18.531151016867643" stroke-width="0.03" stroke="#000000" fill="none"/>
<path d="M25.279687499999998 18.59136684572453L25.383984374999997 18.651582674581416L25.48828125 18.59136684572453L25.48828125 18.470935188010756" stroke-width="0.03" stroke="#000000" fill="none"/>
<path d="M25.07109375 18.711798503438303L25.07109375 20.03654673828981L25.383984374999997 19.85589925171915" stroke-width="0.03" stroke="#000000" fill="none"/>
<path d="M25.07109375 20.03654673828981L24.8625 19.916115080576038L24.8625 18.832230161152076" stroke-width="0.03" stroke="#000000" fill="none"/>
<path d="M24.4453125 19.073093476579622L24.4453125 22.686043207992828L24.132421875000002 22.866690694563488L24.132421875000002 24.191438929414996L23.715234375 24.432302244842543L23.298046874999997 24.191438929414996L23.298046874999997 22.384964063708395L23.193749999999998 22.32474823485151" stroke-width="0.03" stroke="#000000" fill="none"/>
<path d="M23.298046874999997 22.384964063708395L22.880859375 22.62582737913594" stroke-width="0.03" stroke="#000000" fill="none"/>
<path d="M22.880859375 22.50539572142217L22.880859375 24.311870587128773L21.733593749999997 24.974244704554525L21.733593749999997 26.29899293940603L20.169140624999997 27.202230372259333" stroke-width="0.03" stroke="#000000" fill="none"/>
<path d="M20.2734375 27.142014543402446L20.2734375 27.623741174257542L20.169140624999997 27.563525345400656" stroke-width="0.03" stroke="#000000" fill="none"/>
<path d="M20.2734375 27.623741174257542L21.837890625 26.72050374140424L22.255078124999997 26.96136705683179L22.255078124999997 27.443093687686883L21.107812499999998 28.105467805112635L21.107812499999998 28.46676277825396L17.978906249999998 30.273237643960556" stroke-width="0.03" stroke="#000000" fill="none"/>
<path d="M17.978906249999998 30.754964274815652L18.917578125000002 30.21302181510367L18.917578125000002 29.731295184248577" stroke-width="0.03" stroke="#000000" fill="none"/>
<path d="M18.917578125000002 30.21302181510367L19.126171875 30.333453472817446L19.126171875 30.694748445958766L20.2734375 31.35712256338452L20.794921875 31.056043419100085L21.837890625 31.658201707668955L21.837890625 32.260359996237824L17.14453125 34.970072294797724L16.414453125 34.54856149279952" stroke-width="0.03" stroke="#000000" fill="none"/>
<path d="M16.9359375 34.247482348515085L17.14453125 34.36791400622886L17.14453125 34.970072294797724" stroke-width="0.03" stroke="#000000" fill="none"/>
<path d="M17.14453125 34.36791400622886L21.837890625 31.658201707668955" stroke-width="0.03" stroke="#000000" fill="none"/>
<path d="M21.733593749999997 31.597985878812068L23.298046874999997 30.694748445958766L23.298046874999997 29.610863526534803L22.98515625 29.430216039964147L21.31640625 30.393669301674333L21.31640625 31.11625924795697L21.107812499999998 31.236690905670745" stroke-width="0.03" stroke="#000000" fill="none"/>
<path d="M21.629296875 31.53777004995518L21.629296875 30.574316788244992L23.298046874999997 29.610863526534803" stroke-width="0.03" stroke="#000000" fill="none"/>
<path d="M23.298046874999997 29.972158499676127L24.549609375 29.249568553393484L24.549609375 26.600072083690467L26.844140625 25.27532384883896L26.844140625 23.830143956273677" stroke-width="0.03" stroke="#000000" fill="none"/>
<path d="M26.53125 24.010791442844337L27.469921874999997 23.468848983132357L27.469921874999997 21.662374117425752" stroke-width="0.03" stroke="#000000" fill="none"/>
<path d="M27.365624999999998 21.602158288568866L26.53125 22.08388491942396L26.218359375 21.903237432853302L26.218359375 23.830143956273677L26.53125 24.010791442844337L26.53125 22.08388491942396" stroke-width="0.03" stroke="#000000" fill="none"/>
<path d="M26.218359375 21.903237432853302L26.844140625 21.54194245971198L26.844140625 21.301079144284433" stroke-width="0.03" stroke="#000000" fill="none"/>
<path d="M27.57421875 21.72258994628264L27.57421875 16.303165349162832L27.365624999999998 16.18273369144906" stroke-width="0.03" stroke="#000000" fill="none"/>
<path d="M27.365624999999998 15.580575402880193L28.095703125000004 16.0020862048784" stroke-width="0.03" stroke="#000000" fill="none"/>
<path d="M26.53125 20.518273369144907L24.4453125 21.72258994628264" stroke-width="0.03" stroke="#000000" fill="none"/>
<path d="M24.4453125 22.32474823485151L24.8625 22.565611550279055L24.8625 26.419424597119807" stroke-width="0.03" stroke="#000000" fill="none"/>
<path d="M24.8625 26.058129623978488L25.592578125 25.636618821980278L25.592578125 23.58928064084613L25.383984374999997 23.468848983132357L24.8625 23.76992812741679" stroke-width="0.03" stroke="#000000" fill="none"/>
<path d="M24.8625 24.010791442844337L25.592578125 23.58928064084613" stroke-width="0.03" stroke="#000000" fill="none"/>
<path d="M24.8625 22.565611550279055L24.23671875 22.926906523420374L24.23671875 26.419424597119807L21.212109374999997 28.165683633969522L21.107812499999998 28.105467805112635" stroke-width="0.03" stroke="#000000" fill="none"/>
<path d="M21.212109374999997 28.165683633969522L21.212109374999997 28.888273580252164L24.549609375 26.96136705683179" stroke-width="0.03" stroke="#000000" fill="none"/>
<path d="M24.23671875 27.142014543402446L24.23671875 27.985036147398862L22.463671875 29.008705237965938L22.255078124999997 28.888273580252164L22.255078124999997 28.286115291683295" stroke-width="0.03" stroke="#000000" fill="none"/>
<path d="M22.463671875 28.165683633969522L22.463671875 29.008705237965938" stroke-width="0.03" stroke="#000000" fill="none"/>
<path d="M21.212109374999997 28.888273580252164L20.794921875 28.647410264824618" stroke-width="0.03" stroke="#000000" fill="none"/>
<path d="M20.2734375 28.94848940910905L20.2734375 31.35712256338452" stroke-width="0.03" stroke="#000000" fill="none"/>
<path d="M19.126171875 30.694748445958766L17.978906249999998 31.35712256338452" stroke-width="0.03" stroke="#000000" fill="none"/>
<path d="M17.978906249999998 31.477554221098295L18.083203125 31.41733839224141L18.083203125 31.296906734527635L17.978906249999998 31.236690905670745" stroke-width="0.03" stroke="#000000" fill="none"/>
<path d="M17.978906249999998 30.995827590243202L19.126171875 30.333453472817446" stroke-width="0.03" stroke="#000000" fill="none"/>
<path d="M17.978906249999998 29.430216039964147L23.715234375 26.118345452835374L24.23671875 26.419424597119807" stroke-width="0.03" stroke="#000000" fill="none"/>
<path d="M23.715234375 26.118345452835374L23.715234375 19.49460427857783" stroke-width="0.03" stroke="#000000" fill="none"/>
<path d="M23.298046874999997 19.735467594005378L23.298046874999997 20.458057540288017" stroke-width="0.03" stroke="#000000" fill="none"/>
<path d="M22.880859375 20.21719422486047L21.629296875 20.939784171143113L21.420703125 20.819352513429337" stroke-width="0.03" stroke="#000000" fill="none"/>
<path d="M21.420703125 20.698920855715564L21.420703125 17.44726609744368" stroke-width="0.03" stroke="#000000" fill="none"/>
<path d="M19.23046875 18.59136684572453L18.81328125 18.832230161152076" stroke-width="0.03" stroke="#000000" fill="none"/>
<path d="M18.708984375 18.77201433229519L18.708984375 18.290287701440096L16.205859375 16.845107808874815L15.788671874999999 17.08597112430236L15.788671874999999 17.688129412871227L18.083203125 19.01287764772274L18.083203125 19.13330930543651L18.1875 19.193525134293395L18.1875 21.843021603996412L18.708984375 22.14410074828085L19.126171875 21.903237432853302L19.126171875 19.01287764772274L18.708984375 18.77201433229519" stroke-width="0.03" stroke="#000000" fill="none"/>
<path d="M18.708984375 18.651582674581416L19.126171875 18.410719359153866" stroke-width="0.03" stroke="#000000" fill="none"/>
<path d="M19.126171875 18.531151016867643L18.291796875 19.01287764772274L18.708984375 19.253740963150285L19.126171875 19.01287764772274" stroke-width="0.03" stroke="#000000" fill="none"/>
<path d="M18.708984375 19.253740963150285L18.708984375 22.14410074828085" stroke-width="0.03" stroke="#000000" fill="none"/>
<path d="M19.021874999999998 22.565611550279055L19.543359374999998 22.866690694563488L21.733593749999997 21.602158288568866L20.377734375 20.819352513429337L20.169140624999997 20.939784171143113L19.23046875 20.397841711431134" stroke-width="0.03" stroke="#000000" fill="none"/>
<path d="M19.23046875 19.795683422862265L21.212109374999997 20.939784171143113" stroke-width="0.03" stroke="#000000" fill="none"/>
<path d="M21.107812499999998 20.879568342286227L20.794921875 21.060215828856883L20.794921875 20.698920855715564" stroke-width="0.03" stroke="#000000" fill="none"/>
<path d="M20.482031250000002 20.518273369144907L20.482031250000002 20.879568342286227" stroke-width="0.03" stroke="#000000" fill="none"/>
<path d="M20.169140624999997 20.939784171143113L20.169140624999997 20.337625882574244" stroke-width="0.03" stroke="#000000" fill="none"/>
<path d="M21.629296875 20.698920855715564L21.629296875 20.939784171143113" stroke-width="0.03" stroke="#000000" fill="none"/>
<path d="M21.733593749999997 21.602158288568866L21.733593749999997 21.72258994628264L19.543359374999998 22.98712235227726L18.917578125000002 22.62582737913594" stroke-width="0.03" stroke="#000000" fill="none"/>
<path d="M19.543359374999998 22.866690694563488L19.543359374999998 22.98712235227726" stroke-width="0.03" stroke="#000000" fill="none"/>
<path d="M19.021874999999998 23.40863315427547L23.715234375 20.698920855715564L22.880859375 20.21719422486047" stroke-width="0.03" stroke="#000000" fill="none"/>
<path d="M24.4453125 20.156978396003588L24.8625 19.916115080576038" stroke-width="0.03" stroke="#000000" fill="none"/>
<path d="M23.715234375 22.023669090567072L20.169140624999997 24.071007271701223L20.169140624999997 28.165683633969522" stroke-width="0.03" stroke="#000000" fill="none"/>
<path d="M19.021874999999998 28.828057751395274L19.021874999999998 23.40863315427547L18.291796875 22.98712235227726" stroke-width="0.03" stroke="#000000" fill="none"/>
<path d="M18.291796875 23.709712298559904L18.917578125000002 24.071007271701223L18.917578125000002 26.600072083690467L18.81328125 26.660287912547354L17.457421875 25.877482137407824L17.457421875 25.636618821980278L16.51875 25.0946763622683" stroke-width="0.03" stroke="#000000" fill="none"/>
<path d="M15.997265625 25.39575550655273L17.978906249999998 26.53985625483358L17.978906249999998 33.40446074451867L17.874609375000002 33.464676573375556" stroke-width="0.03" stroke="#000000" fill="none"/>
<path d="M17.874609375000002 33.7055398888031L15.05859375 35.331367267939044L14.85 35.21093561022528L14.64140625 35.331367267939044L11.825390624999999 33.7055398888031L11.825390624999999 26.840935399118013L12.033984375000001 26.72050374140424L11.72109375 26.53985625483358L11.72109375 33.40446074451867L11.825390624999999 33.464676573375556" stroke-width="0.03" stroke="#000000" fill="none"/>
<path d="M12.555468750000001 34.36791400622886L12.7640625 34.247482348515085" stroke-width="0.03" stroke="#000000" fill="none"/>
<path d="M12.555468750000001 34.36791400622886L12.555468750000001 34.970072294797724L13.285546875 34.54856149279952" stroke-width="0.03" stroke="#000000" fill="none"/>
<path d="M12.555468750000001 34.36791400622886L7.862109374999999 31.658201707668955L8.905078125 31.056043419100085L9.4265625 31.35712256338452L10.573828124999999 30.694748445958766L10.573828124999999 30.333453472817446L10.782421874999999 30.21302181510367L10.782421874999999 29.731295184248577" stroke-width="0.03" stroke="#000000" fill="none"/>
<path d="M10.782421874999999 30.21302181510367L11.72109375 30.754964274815652" stroke-width="0.03" stroke="#000000" fill="none"/>
<path d="M11.72109375 30.995827590243202L10.573828124999999 30.333453472817446" stroke-width="0.03" stroke="#000000" fill="none"/>
<path d="M10.573828124999999 30.694748445958766L11.72109375 31.35712256338452" stroke-width="0.03" stroke="#000000" fill="none"/>
<path d="M11.72109375 31.477554221098295L11.616796874999999 31.41733839224141L11.616796874999999 31.296906734527635L11.72109375 31.236690905670745" stroke-width="0.03" stroke="#000000" fill="none"/>
<path d="M11.72109375 30.273237643960556L8.5921875 28.46676277825396L8.5921875 28.105467805112635L7.4449218749999995 27.443093687686883L7.4449218749999995 26.96136705683179L7.862109374999999 26.72050374140424L9.4265625 27.623741174257542L9.530859375 27.563525345400656" stroke-width="0.03" stroke="#000000" fill="none"/>
<path d="M9.4265625 27.623741174257542L9.4265625 27.142014543402446" stroke-width="0.03" stroke="#000000" fill="none"/>
<path d="M9.530859375 27.202230372259333L7.96640625 26.29899293940603L7.96640625 24.974244704554525L6.819140625 24.311870587128773L6.819140625 22.50539572142217" stroke-width="0.03" stroke="#000000" fill="none"/>
<path d="M6.819140625 22.62582737913594L6.4019531249999995 22.384964063708395L6.4019531249999995 24.191438929414996L5.984765624999999 24.432302244842543L5.567578125 24.191438929414996L5.567578125 22.866690694563488L5.254687500000001 22.686043207992828L5.254687500000001 19.073093476579622" stroke-width="0.03" stroke="#000000" fill="none"/>
<path d="M4.8374999999999995 18.832230161152076L4.8374999999999995 19.916115080576038L5.254687500000001 20.156978396003588" stroke-width="0.03" stroke="#000000" fill="none"/>
<path d="M4.8374999999999995 19.916115080576038L4.62890625 20.03654673828981L4.3160156249999995 19.85589925171915L3.1687499999999984 20.518273369144907L3.1687499999999984 21.120431657713773L2.125781250000001 21.72258994628264L1.6042968749999988 21.42151080199821L1.6042968749999988 16.0020862048784L2.3343750000000005 15.580575402880193" stroke-width="0.03" stroke="#000000" fill="none"/>
<path d="M2.3343750000000005 16.18273369144906L2.125781250000001 16.303165349162832L1.6042968749999988 16.0020862048784" stroke-width="0.03" stroke="#000000" fill="none"/>
<path d="M2.125781250000001 16.303165349162832L2.125781250000001 21.72258994628264" stroke-width="0.03" stroke="#000000" fill="none"/>
<path d="M2.2300781249999995 21.662374117425752L2.2300781249999995 23.468848983132357L3.1687499999999984 24.010791442844337L3.481640624999999 23.830143956273677L3.481640624999999 21.903237432853302L2.8558593750000005 21.54194245971198L2.8558593750000005 21.301079144284433" stroke-width="0.03" stroke="#000000" fill="none"/>
<path d="M2.3343750000000005 21.602158288568866L3.1687499999999984 22.08388491942396L3.481640624999999 21.903237432853302" stroke-width="0.03" stroke="#000000" fill="none"/>
<path d="M3.1687499999999984 22.08388491942396L3.1687499999999984 24.010791442844337" stroke-width="0.03" stroke="#000000" fill="none"/>
<path d="M2.8558593750000005 23.830143956273677L2.8558593750000005 25.27532384883896L5.150390625 26.600072083690467L5.150390625 29.249568553393484L6.4019531249999995 29.972158499676127" stroke-width="0.03" stroke="#000000" fill="none"/>
<path d="M6.4019531249999995 29.610863526534803L6.714843749999999 29.430216039964147L8.38359375 30.393669301674333L8.38359375 31.11625924795697L8.5921875 31.236690905670745" stroke-width="0.03" stroke="#000000" fill="none"/>
<path d="M8.070703124999998 31.53777004995518L8.070703124999998 30.574316788244992L6.4019531249999995 29.610863526534803L6.4019531249999995 30.694748445958766L7.96640625 31.597985878812068" stroke-width="0.03" stroke="#000000" fill="none"/>
<path d="M7.862109374999999 31.658201707668955L7.862109374999999 32.260359996237824L12.555468750000001 34.970072294797724" stroke-width="0.03" stroke="#000000" fill="none"/>
<path d="M14.64140625 35.331367267939044L14.64140625 28.46676277825396L11.825390624999999 26.840935399118013" stroke-width="0.03" stroke="#000000" fill="none"/>
<path d="M11.72109375 26.780719570261127L11.512500000000001 26.901151227974903L11.512500000000001 28.346331120540185L10.678125 28.828057751395274L10.678125 23.40863315427547L11.408203125 22.98712235227726" stroke-width="0.03" stroke="#000000" fill="none"/>
<path d="M10.782421874999999 22.62582737913594L10.156640625 22.98712235227726L7.96640625 21.72258994628264L7.96640625 21.602158288568866L9.322265625 20.819352513429337L9.530859375 20.939784171143113L10.46953125 20.397841711431134" stroke-width="0.03" stroke="#000000" fill="none"/>
<path d="M10.46953125 19.795683422862265L8.487890625 20.939784171143113L2.54296875 17.50748192630057L2.54296875 17.387050268586794" stroke-width="0.03" stroke="#000000" fill="none"/>
<path d="M2.3343750000000005 17.26661861087302L2.3343750000000005 14.014963852601136" stroke-width="0.03" stroke="#000000" fill="none"/>
<path d="M2.54296875 13.894532194887363L2.54296875 13.653668879459815" stroke-width="0.03" stroke="#000000" fill="none"/>
<path d="M3.898828125 12.87086310432029L3.898828125 12.027841500323873L4.4203125 12.328920644608306L4.4203125 12.569783960035853" stroke-width="0.03" stroke="#000000" fill="none"/>
<path d="M7.340624999999999 13.051510590890949L7.4449218749999995 12.991294762034062L7.5492187500000005 13.051510590890949L7.5492187500000005 13.171942248604722" stroke-width="0.03" stroke="#000000" fill="none"/>
<path d="M7.4449218749999995 13.111726419747836L8.5921875 12.44935230232208" stroke-width="0.03" stroke="#000000" fill="none"/>
<path d="M8.38359375 13.653668879459815L11.512500000000001 11.847194013753214L11.825390624999999 12.027841500323873L12.97265625 11.365467382898117L13.389843749999999 11.606330698325666L13.389843749999999 12.08805732918076L11.825390624999999 12.991294762034062L11.825390624999999 13.111726419747836" stroke-width="0.03" stroke="#000000" fill="none"/>
<path d="M11.825390624999999 12.991294762034062L12.242578125 13.232158077461609" stroke-width="0.03" stroke="#000000" fill="none"/>
<path d="M12.138281249999999 13.292373906318495L13.702734374999999 12.389136473465193L14.85 13.051510590890949L15.997265625 12.389136473465193L17.56171875 13.292373906318495" stroke-width="0.03" stroke="#000000" fill="none"/>
<path d="M17.457421875 13.232158077461609L17.874609375000002 12.991294762034062L17.874609375000002 13.111726419747836" stroke-width="0.03" stroke="#000000" fill="none"/>
<path d="M17.874609375000002 12.991294762034062L16.31015625 12.08805732918076L16.31015625 11.606330698325666L16.72734375 11.365467382898117L17.874609375000002 12.027841500323873L18.1875 11.847194013753214L21.31640625 13.653668879459815" stroke-width="0.03" stroke="#000000" fill="none"/>
<path d="M20.586328125 14.075179681458023L14.85 10.763309094329252L9.113671875 14.075179681458023" stroke-width="0.03" stroke="#000000" fill="none"/>
<path d="M9.530859375 14.31604299688557L10.156640625 13.95474802374425" stroke-width="0.03" stroke="#000000" fill="none"/>
<path d="M10.156640625 13.473021392889155L14.85 16.18273369144906" stroke-width="0.03" stroke="#000000" fill="none"/>
<path d="M15.47578125 15.94187037602151L15.580078125 16.0020862048784L15.580078125 16.60424449344727" stroke-width="0.03" stroke="#000000" fill="none"/>
<path d="M15.788671874999999 17.08597112430236L18.291796875 18.531151016867643L18.708984375 18.290287701440096" stroke-width="0.03" stroke="#000000" fill="none"/>
<path d="M18.291796875 18.531151016867643L18.291796875 19.01287764772274" stroke-width="0.03" stroke="#000000" fill="none"/>
<path d="M18.1875 19.193525134293395L17.353125 19.67525176514849L17.353125 22.44517989256528L14.954296875 23.830143956273677L14.85 23.76992812741679L14.745703124999999 23.830143956273677L12.346874999999999 22.44517989256528L12.346874999999999 19.67525176514849L11.512500000000001 19.193525134293395L11.616796874999999 19.13330930543651L11.616796874999999 19.01287764772274L13.911328125 17.688129412871227L13.911328125 17.08597112430236L13.494140625 16.845107808874815L10.991015625000001 18.290287701440096L10.991015625000001 18.77201433229519L10.573828124999999 19.01287764772274L10.573828124999999 21.903237432853302L10.991015625000001 22.14410074828085L11.512500000000001 21.843021603996412L11.512500000000001 19.193525134293395" stroke-width="0.03" stroke="#000000" fill="none"/>
<path d="M11.616796874999999 19.13330930543651L12.451171875 19.615035936291605L12.451171875 19.49460427857783L14.85 18.109640214869437L17.248828125 19.49460427857783L18.083203125 19.01287764772274" stroke-width="0.03" stroke="#000000" fill="none"/>
<path d="M18.083203125 19.13330930543651L17.248828125 19.615035936291605L17.353125 19.67525176514849" stroke-width="0.03" stroke="#000000" fill="none"/>
<path d="M17.248828125 19.615035936291605L17.248828125 19.49460427857783" stroke-width="0.03" stroke="#000000" fill="none"/>
<path d="M14.85 18.109640214869437L14.85 21L17.353125 22.44517989256528" stroke-width="0.03" stroke="#000000" fill="none"/>
<path d="M17.248828125 23.468848983132357L14.954296875 24.793597217983862L14.85 24.73338138912698L14.745703124999999 24.793597217983862L12.451171875 23.468848983132357L11.9296875 23.76992812741679L11.9296875 24.251654758271883L14.4328125 25.696834650837165L14.85 25.45597133540962L15.267187499999999 25.696834650837165L17.7703125 24.251654758271883L17.7703125 23.76992812741679L17.248828125 23.468848983132357" stroke-width="0.03" stroke="#000000" fill="none"/>
<path d="M17.7703125 23.76992812741679L15.267187499999999 25.215108019982072L14.85 24.974244704554525L14.4328125 25.215108019982072L11.9296875 23.76992812741679" stroke-width="0.03" stroke="#000000" fill="none"/>
<path d="M11.408203125 23.709712298559904L10.782421874999999 24.071007271701223L10.782421874999999 26.600072083690467L10.88671875 26.660287912547354L12.242578125 25.877482137407824L12.242578125 25.636618821980278L13.181249999999999 25.0946763622683" stroke-width="0.03" stroke="#000000" fill="none"/>
<path d="M13.702734374999999 25.39575550655273L11.72109375 26.53985625483358" stroke-width="0.03" stroke="#000000" fill="none"/>
<path d="M11.825390624999999 26.479640425976694L11.825390624999999 26.118345452835374L12.138281249999999 26.29899293940603" stroke-width="0.03" stroke="#000000" fill="none"/>
<path d="M12.138281249999999 25.937697966264714L12.451171875 26.118345452835374" stroke-width="0.03" stroke="#000000" fill="none"/>
<path d="M12.7640625 25.937697966264714L12.242578125 25.636618821980278" stroke-width="0.03" stroke="#000000" fill="none"/>
<path d="M11.512500000000001 26.901151227974903L11.72109375 27.021582885688677" stroke-width="0.03" stroke="#000000" fill="none"/>
<path d="M10.88671875 26.660287912547354L10.88671875 24.13122310055811L11.408203125 23.830143956273677" stroke-width="0.03" stroke="#000000" fill="none"/>
<path d="M10.88671875 24.13122310055811L10.782421874999999 24.071007271701223" stroke-width="0.03" stroke="#000000" fill="none"/>
<path d="M10.678125 23.40863315427547L5.984765624999999 20.698920855715564L6.819140625 20.21719422486047L8.070703124999998 20.939784171143113L8.279296875 20.819352513429337" stroke-width="0.03" stroke="#000000" fill="none"/>
<path d="M8.279296875 20.698920855715564L8.487890625 20.57848919800179L8.487890625 20.939784171143113" stroke-width="0.03" stroke="#000000" fill="none"/>
<path d="M8.5921875 20.879568342286227L8.905078125 21.060215828856883L8.905078125 20.698920855715564" stroke-width="0.03" stroke="#000000" fill="none"/>
<path d="M9.21796875 20.518273369144907L9.21796875 20.879568342286227" stroke-width="0.03" stroke="#000000" fill="none"/>
<path d="M9.530859375 20.939784171143113L9.530859375 20.337625882574244" stroke-width="0.03" stroke="#000000" fill="none"/>
<path d="M8.279296875 20.698920855715564L8.279296875 17.44726609744368" stroke-width="0.03" stroke="#000000" fill="none"/>
<path d="M10.46953125 18.59136684572453L10.88671875 18.832230161152076" stroke-width="0.03" stroke="#000000" fill="none"/>
<path d="M10.991015625000001 18.651582674581416L10.573828124999999 18.410719359153866" stroke-width="0.03" stroke="#000000" fill="none"/>
<path d="M10.573828124999999 18.531151016867643L11.408203125 19.01287764772274L10.991015625000001 19.253740963150285L10.573828124999999 19.01287764772274" stroke-width="0.03" stroke="#000000" fill="none"/>
<path d="M10.991015625000001 19.253740963150285L10.991015625000001 22.14410074828085" stroke-width="0.03" stroke="#000000" fill="none"/>
<path d="M10.678125 22.565611550279055L10.156640625 22.866690694563488L7.96640625 21.602158288568866" stroke-width="0.03" stroke="#000000" fill="none"/>
<path d="M8.070703124999998 20.939784171143113L8.070703124999998 20.698920855715564" stroke-width="0.03" stroke="#000000" fill="none"/>
<path d="M8.279296875 20.698920855715564L2.3343750000000005 17.26661861087302" stroke-width="0.03" stroke="#000000" fill="none"/>
<path d="M4.211718750000001 18.470935188010756L4.211718750000001 18.59136684572453L4.3160156249999995 18.651582674581416L4.4203125 18.59136684572453" stroke-width="0.03" stroke="#000000" fill="none"/>
<path d="M4.3160156249999995 18.531151016867643L4.3160156249999995 19.85589925171915" stroke-width="0.03" stroke="#000000" fill="none"/>
<path d="M4.62890625 20.03654673828981L4.62890625 18.711798503438303" stroke-width="0.03" stroke="#000000" fill="none"/>
<path d="M5.984765624999999 19.49460427857783L5.984765624999999 26.118345452835374L11.72109375 29.430216039964147" stroke-width="0.03" stroke="#000000" fill="none"/>
<path d="M11.72109375 28.94848940910905L11.095312499999999 28.58719443596773" stroke-width="0.03" stroke="#000000" fill="none"/>
<path d="M9.530859375 28.165683633969522L9.530859375 24.071007271701223L5.984765624999999 22.023669090567072" stroke-width="0.03" stroke="#000000" fill="none"/>
<path d="M6.4019531249999995 22.384964063708395L6.5062500000000005 22.32474823485151" stroke-width="0.03" stroke="#000000" fill="none"/>
<path d="M5.567578125 22.866690694563488L5.46328125 22.926906523420374L4.8374999999999995 22.565611550279055L4.8374999999999995 26.419424597119807" stroke-width="0.03" stroke="#000000" fill="none"/>
<path d="M4.8374999999999995 26.058129623978488L4.107421875 25.636618821980278L4.107421875 23.58928064084613L4.3160156249999995 23.468848983132357L4.8374999999999995 23.76992812741679" stroke-width="0.03" stroke="#000000" fill="none"/>
<path d="M4.8374999999999995 24.010791442844337L4.107421875 23.58928064084613" stroke-width="0.03" stroke="#000000" fill="none"/>
<path d="M4.8374999999999995 22.565611550279055L5.254687500000001 22.32474823485151" stroke-width="0.03" stroke="#000000" fill="none"/>
<path d="M5.254687500000001 21.72258994628264L3.1687499999999984 20.518273369144907" stroke-width="0.03" stroke="#000000" fill="none"/>
<path d="M6.4019531249999995 20.458057540288017L6.4019531249999995 19.735467594005378" stroke-width="0.03" stroke="#000000" fill="none"/>
<path d="M5.46328125 22.926906523420374L5.46328125 26.419424597119807L8.487890625 28.165683633969522L8.487890625 28.888273580252164L5.150390625 26.96136705683179" stroke-width="0.03" stroke="#000000" fill="none"/>
<path d="M5.46328125 27.142014543402446L5.46328125 27.985036147398862L7.236328125 29.008705237965938L7.4449218749999995 28.888273580252164L7.4449218749999995 28.286115291683295" stroke-width="0.03" stroke="#000000" fill="none"/>
<path d="M7.236328125 28.165683633969522L7.236328125 29.008705237965938" stroke-width="0.03" stroke="#000000" fill="none"/>
<path d="M8.487890625 28.888273580252164L8.905078125 28.647410264824618" stroke-width="0.03" stroke="#000000" fill="none"/>
<path d="M9.4265625 28.94848940910905L9.4265625 31.35712256338452" stroke-width="0.03" stroke="#000000" fill="none"/>
<path d="M8.38359375 30.393669301674333L8.070703124999998 30.574316788244992" stroke-width="0.03" stroke="#000000" fill="none"/>
<path d="M8.487890625 28.165683633969522L8.5921875 28.105467805112635" stroke-width="0.03" stroke="#000000" fill="none"/>
<path d="M7.96640625 25.937697966264714L7.13203125 25.45597133540962L7.13203125 24.492518073699433" stroke-width="0.03" stroke="#000000" fill="none"/>
<path d="M7.340624999999999 24.612949731413206L7.340624999999999 25.335539677695845L7.13203125 25.45597133540962" stroke-width="0.03" stroke="#000000" fill="none"/>
<path d="M7.340624999999999 25.335539677695845L7.96640625 25.696834650837165" stroke-width="0.03" stroke="#000000" fill="none"/>
<path d="M5.984765624999999 26.118345452835374L5.46328125 26.419424597119807" stroke-width="0.03" stroke="#000000" fill="none"/>
<path d="M10.156640625 22.98712235227726L10.156640625 22.866690694563488" stroke-width="0.03" stroke="#000000" fill="none"/>
<path d="M12.346874999999999 22.44517989256528L14.85 21" stroke-width="0.03" stroke="#000000" fill="none"/>
<path d="M12.451171875 19.615035936291605L12.346874999999999 19.67525176514849" stroke-width="0.03" stroke="#000000" fill="none"/>
<path d="M12.451171875 19.49460427857783L11.616796874999999 19.01287764772274" stroke-width="0.03" stroke="#000000" fill="none"/>
<path d="M11.408203125 19.01287764772274L11.408203125 18.531151016867643L10.991015625000001 18.290287701440096" stroke-width="0.03" stroke="#000000" fill="none"/>
<path d="M11.408203125 18.531151016867643L13.911328125 17.08597112430236" stroke-width="0.03" stroke="#000000" fill="none"/>
<path d="M12.138281249999999 16.423597006876605L11.616796874999999 16.72467615116104" stroke-width="0.03" stroke="#000000" fill="none"/>
<path d="M11.616796874999999 16.36338117801972L11.9296875 16.18273369144906" stroke-width="0.03" stroke="#000000" fill="none"/>
<path d="M11.9296875 15.82143871830774L11.616796874999999 16.0020862048784" stroke-width="0.03" stroke="#000000" fill="none"/>
<path d="M11.616796874999999 15.640791231737078L11.9296875 15.82143871830774" stroke-width="0.03" stroke="#000000" fill="none"/>
<path d="M14.85 14.85798545659755L18.396093750000002 12.8106472754634" stroke-width="0.03" stroke="#000000" fill="none"/>
<path d="M19.021874999999998 12.328920644608306L21.107812499999998 11.124604067470571" stroke-width="0.03" stroke="#000000" fill="none"/>
<path d="M20.586328125 10.462229950044819L20.377734375 10.341798292331045L19.751953125 10.703093265472365L18.083203125 9.739640003762176L18.083203125 9.378345030620856L19.751953125 10.341798292331045L19.751953125 10.703093265472365" stroke-width="0.03" stroke="#000000" fill="none"/>
<path d="M19.751953125 10.341798292331045L20.586328125 9.86007166147595" stroke-width="0.03" stroke="#000000" fill="none"/>
<path d="M21.107812499999998 12.44935230232208L22.255078124999997 13.111726419747836" stroke-width="0.03" stroke="#000000" fill="none"/>
<path d="M22.150781249999998 13.051510590890949L22.255078124999997 12.991294762034062L22.359375 13.051510590890949" stroke-width="0.03" stroke="#000000" fill="none"/>
<path d="M22.150781249999998 13.051510590890949L22.150781249999998 13.171942248604722" stroke-width="0.03" stroke="#000000" fill="none"/>
<path d="M20.169140624999997 14.31604299688557L19.543359374999998 13.95474802374425" stroke-width="0.03" stroke="#000000" fill="none"/>
<path d="M19.543359374999998 14.436474654599342L18.291796875 15.159064600881985L18.291796875 15.399927916309531" stroke-width="0.03" stroke="#000000" fill="none"/>
<path d="M18.500390624999998 15.279496258595758L18.291796875 15.159064600881985" stroke-width="0.03" stroke="#000000" fill="none"/>
<path d="M17.7703125 14.737553798883777L15.580078125 16.0020862048784" stroke-width="0.03" stroke="#000000" fill="none"/>
<path d="M14.85 14.85798545659755L11.303906249999999 12.8106472754634" stroke-width="0.03" stroke="#000000" fill="none"/>
<path d="M11.199609375 12.027841500323873L11.199609375 11.54611486946878L14.537109375 9.619208346048403" stroke-width="0.03" stroke="#000000" fill="none"/>
<path d="M14.224218749999999 9.799855832619063L13.494140625 9.378345030620856L11.72109375 10.40201412118793L11.72109375 10.642877436615478L12.242578125 10.943956580899911" stroke-width="0.03" stroke="#000000" fill="none"/>
<path d="M12.451171875 10.823524923186138L11.72109375 10.40201412118793" stroke-width="0.03" stroke="#000000" fill="none"/>
<path d="M11.199609375 11.54611486946878L11.825390624999999 11.9074098426101L14.85 10.161150805760384L17.874609375000002 11.9074098426101L17.874609375000002 12.027841500323873" stroke-width="0.03" stroke="#000000" fill="none"/>
<path d="M17.874609375000002 11.9074098426101L18.500390624999998 11.54611486946878L15.162890625 9.619208346048403" stroke-width="0.03" stroke="#000000" fill="none"/>
<path d="M15.47578125 9.799855832619063L16.205859375 9.378345030620856L17.978906249999998 10.40201412118793L17.978906249999998 10.642877436615478L17.457421875 10.943956580899911" stroke-width="0.03" stroke="#000000" fill="none"/>
<path d="M17.248828125 10.823524923186138L17.978906249999998 10.40201412118793" stroke-width="0.03" stroke="#000000" fill="none"/>
<path d="M18.500390624999998 11.54611486946878L18.500390624999998 12.027841500323873" stroke-width="0.03" stroke="#000000" fill="none"/>
<path d="M19.543359374999998 13.473021392889155L19.543359374999998 14.436474654599342" stroke-width="0.03" stroke="#000000" fill="none"/>
<path d="M15.684375 12.569783960035853L14.85 12.08805732918076L14.015625 12.569783960035853" stroke-width="0.03" stroke="#000000" fill="none"/>
<path d="M14.224218749999999 12.690215617749628L14.85 12.328920644608306L14.85 12.08805732918076" stroke-width="0.03" stroke="#000000" fill="none"/>
<path d="M14.85 12.328920644608306L15.47578125 12.690215617749628" stroke-width="0.03" stroke="#000000" fill="none"/>
<path d="M14.85 10.763309094329252L14.85 10.161150805760384" stroke-width="0.03" stroke="#000000" fill="none"/>
<path d="M11.825390624999999 11.9074098426101L11.825390624999999 12.027841500323873" stroke-width="0.03" stroke="#000000" fill="none"/>
<path d="M10.678125 12.328920644608306L8.5921875 11.124604067470571" stroke-width="0.03" stroke="#000000" fill="none"/>
<path d="M5.20862645825987 3.383983116796798L5.20862645825987 3.0054372986874878L5.442964345660872 3.0054372986874878" stroke-width="0.03" stroke="#000000" fill="none"/>
<path d="M5.352834388968179 3.1856972120728733L5.20862645825987 3.1856972120728733" stroke-width="0.03" stroke="#000000" fill="none"/>
<path d="M5.0824445188901 3.0955672553801805L5.064418527551561 3.0595152727031034L5.028366544874484 3.023463290026026L4.992314562197407 3.0054372986874878L4.920210596843253 3.0054372986874878L4.884158614166176 3.023463290026026L4.848106631489099 3.0595152727031034L4.83008064015056 3.0955672553801805L4.812054648812021 3.149645229395796L4.812054648812021 3.2397751860884894L4.83008064015056 3.293853160104105L4.848106631489099 3.3299051427811825L4.884158614166176 3.3659571254582596L4.920210596843253 3.383983116796798L4.992314562197407 3.383983116796798L5.028366544874484 3.3659571254582596L5.064418527551561 3.3299051427811825L5.0824445188901 3.293853160104105" stroke-width="0.03" stroke="#000000" fill="none"/>
<path d="M4.45153482204125 3.383983116796798L4.45153482204125 3.0054372986874878L4.57771676141102 3.0054372986874878L4.631794735426635 3.023463290026026L4.667846718103712 3.0595152727031034L4.6858727094422505 3.0955672553801805L4.7038987007807895 3.149645229395796L4.7038987007807895 3.2397751860884894L4.6858727094422505 3.293853160104105L4.667846718103712 3.3299051427811825L4.631794735426635 3.3659571254582596L4.57771676141102 3.383983116796798L4.45153482204125 3.383983116796798" stroke-width="0.03" stroke="#000000" fill="none"/>
<path d="M4.3073268913329406 3.0595152727031034L4.289300899994402 3.023463290026026L4.235222925978786 3.0054372986874878L4.199170943301709 3.0054372986874878L4.145092969286093 3.023463290026026L4.109040986609016 3.077541264041642L4.091014995270477 3.167671220734335L4.091014995270477 3.257801177427028L4.109040986609016 3.3299051427811825L4.145092969286093 3.3659571254582596L4.199170943301709 3.383983116796798L4.217196934640247 3.383983116796798L4.2712749086558635 3.3659571254582596L4.3073268913329406 3.3299051427811825L4.3253528826714795 3.2758271687655665L4.3253528826714795 3.257801177427028L4.3073268913329406 3.2037232034114123L4.2712749086558635 3.167671220734335L4.217196934640247 3.149645229395796L4.199170943301709 3.149645229395796L4.145092969286093 3.167671220734335L4.109040986609016 3.2037232034114123L4.091014995270477 3.257801177427028" stroke-width="0.03" stroke="#000000" fill="none"/>
<path d="M3.9107550818850916 3.1856972120728733L3.7665471511767823 3.1856972120728733" stroke-width="0.03" stroke="#000000" fill="none"/>
<path d="M3.7665471511767823 3.0054372986874878L3.7665471511767823 3.383983116796798" stroke-width="0.03" stroke="#000000" fill="none"/>
<path d="M3.4601052984216265 3.383983116796798L3.6403652118070124 3.0054372986874878L3.3880013330674723 3.0054372986874878" stroke-width="0.03" stroke="#000000" fill="none"/>
<path d="M3.297871376374779 3.0054372986874878L3.0635334889737775 3.0054372986874878L3.0635334889737775 3.383983116796798L3.297871376374779 3.383983116796798" stroke-width="0.03" stroke="#000000" fill="none"/>
<path d="M3.207741419682086 3.1856972120728733L3.0635334889737775 3.1856972120728733" stroke-width="0.03" stroke="#000000" fill="none"/>
<path d="M2.9193255582654682 3.257801177427028L2.7390656448800828 3.257801177427028" stroke-width="0.03" stroke="#000000" fill="none"/>
<path d="M2.6849876708644667 3.383983116796798L2.8291956015727755 3.0054372986874878L2.9734035322810843 3.383983116796798" stroke-width="0.03" stroke="#000000" fill="none"/>
<path d="M2.6128837055103125 3.383983116796798L2.414597800786388 3.1316192380572576" stroke-width="0.03" stroke="#000000" fill="none"/>
<path d="M2.6128837055103125 3.1316192380572576L2.414597800786388 3.383983116796798" stroke-width="0.03" stroke="#000000" fill="none"/>
<path d="M2.1622339220468474 3.0054372986874878L2.1081559480312317 3.023463290026026L2.072103965354154 3.077541264041642L2.0540779740156156 3.167671220734335L2.0540779740156156 3.221749194749951L2.072103965354154 3.3118791514426436L2.1081559480312317 3.3659571254582596L2.1622339220468474 3.383983116796798L2.1982859047239245 3.383983116796798L2.2523638787395406 3.3659571254582596L2.2884158614166177 3.3118791514426436L2.3064418527551562 3.221749194749951L2.3064418527551562 3.167671220734335L2.2884158614166177 3.077541264041642L2.2523638787395406 3.023463290026026L2.1982859047239245 3.0054372986874878L2.1622339220468474 3.0054372986874878" stroke-width="0.03" stroke="#000000" fill="none"/>
<path d="M2.1166666666666667 2.2291666666666665L2.1166666666666667 1.8208333333333333" stroke-width="0.03" stroke="#000000" fill="none"/>
<path d="M2.0875 1.6166666666666667L2.1166666666666667 1.6458333333333333L2.145833333333333 1.6166666666666667L2.1166666666666667 1.5875L2.0875 1.6166666666666667" stroke-width="0.03" stroke="#000000" fill="none"/>
<path d="M2.3208333333333333 2.1416666666666666L2.35 2.2L2.4375 2.2291666666666665L2.525 2.2291666666666665L2.6125 2.2L2.6416666666666666 2.1416666666666666L2.6416666666666666 2.1125L2.6125 2.0541666666666667L2.5541666666666667 2.025L2.408333333333333 1.9958333333333333L2.35 1.9666666666666666L2.3208333333333333 1.9083333333333332L2.35 1.85L2.4375 1.8208333333333333L2.525 1.8208333333333333L2.6125 1.85L2.6416666666666666 1.9083333333333332" stroke-width="0.03" stroke="#000000" fill="none"/>
<path d="M2.9625 1.8208333333333333L2.904166666666667 1.85L2.845833333333333 1.9083333333333332L2.8166666666666664 1.9958333333333333L2.8166666666666664 2.0541666666666667L2.845833333333333 2.1416666666666666L2.904166666666667 2.2L2.9625 2.2291666666666665L3.05 2.2291666666666665L3.1083333333333334 2.2L3.1666666666666665 2.1416666666666666L3.1958333333333333 2.0541666666666667L3.1958333333333333 1.9958333333333333L3.1666666666666665 1.9083333333333332L3.1083333333333334 1.85L3.05 1.8208333333333333L2.9625 1.8208333333333333" stroke-width="0.03" stroke="#000000" fill="none"/>
<path d="M3.283333333333333 2.2874999999999996L3.75 2.2874999999999996" stroke-width="0.03" stroke="#000000" fill="none"/>
<path d="M3.8375 2.1416666666666666L3.8666666666666663 2.2L3.9541666666666666 2.2291666666666665L4.041666666666666 2.2291666666666665L4.129166666666666 2.2L4.158333333333333 2.1416666666666666L4.158333333333333 2.1125L4.129166666666666 2.0541666666666667L4.070833333333333 2.025L3.925 1.9958333333333333L3.8666666666666663 1.9666666666666666L3.8375 1.9083333333333332L3.8666666666666663 1.85L3.9541666666666666 1.8208333333333333L4.041666666666666 1.8208333333333333L4.129166666666666 1.85L4.158333333333333 1.9083333333333332" stroke-width="0.03" stroke="#000000" fill="none"/>
<path d="M4.3625 1.9375L4.449999999999999 1.85L4.508333333333333 1.8208333333333333L4.595833333333333 1.8208333333333333L4.654166666666667 1.85L4.683333333333334 1.9375L4.683333333333334 2.2291666666666665" stroke-width="0.03" stroke="#000000" fill="none"/>
<path d="M4.3625 2.2291666666666665L4.3625 1.8208333333333333" stroke-width="0.03" stroke="#000000" fill="none"/>
<path d="M5.033333333333333 1.8208333333333333L4.975 1.85L4.916666666666666 1.9083333333333332L4.887499999999999 1.9958333333333333L4.887499999999999 2.0541666666666667L4.916666666666666 2.1416666666666666L4.975 2.2L5.033333333333333 2.2291666666666665L5.120833333333334 2.2291666666666665L5.179166666666666 2.2L5.2375 2.1416666666666666L5.266666666666666 2.0541666666666667L5.266666666666666 1.9958333333333333L5.2375 1.9083333333333332L5.179166666666666 1.85L5.120833333333334 1.8208333333333333L5.033333333333333 1.8208333333333333" stroke-width="0.03" stroke="#000000" fill="none"/>
<path d="M5.441666666666666 1.8208333333333333L5.558333333333334 2.2291666666666665L5.675 1.8208333333333333L5.791666666666666 2.2291666666666665L5.908333333333333 1.8208333333333333" stroke-width="0.03" stroke="#000000" fill="none"/>
<path d="M6.054166666666666 1.8208333333333333L6.258333333333333 1.8208333333333333" stroke-width="0.03" stroke="#000000" fill="none"/>
<path d="M6.2875 1.6166666666666667L6.229166666666666 1.6166666666666667L6.1708333333333325 1.6458333333333333L6.141666666666667 1.7333333333333334L6.141666666666667 2.2291666666666665" stroke-width="0.03" stroke="#000000" fill="none"/>
<path d="M6.4624999999999995 2.2291666666666665L6.4624999999999995 1.6166666666666667" stroke-width="0.03" stroke="#000000" fill="none"/>
<path d="M7.016666666666666 1.8208333333333333L7.016666666666666 2.2291666666666665" stroke-width="0.03" stroke="#000000" fill="none"/>
<path d="M7.016666666666666 2.1416666666666666L6.958333333333333 2.2L6.8999999999999995 2.2291666666666665L6.812499999999999 2.2291666666666665L6.754166666666666 2.2L6.695833333333333 2.1416666666666666L6.666666666666666 2.0541666666666667L6.666666666666666 1.9958333333333333L6.695833333333333 1.9083333333333332L6.754166666666666 1.85L6.812499999999999 1.8208333333333333L6.8999999999999995 1.8208333333333333L6.958333333333333 1.85L7.016666666666666 1.9083333333333332" stroke-width="0.03" stroke="#000000" fill="none"/>
<path d="M7.249999999999999 2.1125L7.541666666666666 1.8208333333333333" stroke-width="0.03" stroke="#000000" fill="none"/>
<path d="M7.366666666666666 1.9958333333333333L7.570833333333333 2.2291666666666665" stroke-width="0.03" stroke="#000000" fill="none"/>
<path d="M7.716666666666666 1.9958333333333333L8.066666666666666 1.9958333333333333L8.066666666666666 1.9375L8.0375 1.8791666666666667L8.008333333333333 1.85L7.949999999999999 1.8208333333333333L7.8625 1.8208333333333333L7.804166666666666 1.85L7.745833333333333 1.9083333333333332L7.716666666666666 1.9958333333333333L7.716666666666666 2.0541666666666667L7.745833333333333 2.1416666666666666L7.804166666666666 2.2L7.8625 2.2291666666666665L7.949999999999999 2.2291666666666665L8.008333333333333 2.2L8.066666666666666 2.1416666666666666" stroke-width="0.03" stroke="#000000" fill="none"/>
<path d="M8.270833333333332 1.7625L8.270833333333332 1.7333333333333334L8.299999999999999 1.675L8.329166666666666 1.6458333333333333L8.3875 1.6166666666666667L8.504166666666666 1.6166666666666667L8.5625 1.6458333333333333L8.591666666666665 1.675L8.620833333333334 1.7333333333333334L8.620833333333334 1.7916666666666665L8.591666666666665 1.85L8.533333333333331 1.9375L8.241666666666667 2.2291666666666665L8.649999999999999 2.2291666666666665" stroke-width="0.03" stroke="#000000" fill="none"/>
<path d="M9.237499999999999 2.533333333333333L1.5 2.533333333333333" stroke-width="0.03" stroke="#000000" fill="none"/>
<path d="M3.7665471511767823 3.0054372986874878L4.000885038577785 3.0054372986874878" stroke-width="0.03" stroke="#000000" fill="none"/>
<path d="M7.249999999999999 2.2291666666666665L7.249999999999999 1.6166666666666667" stroke-width="0.03" stroke="#000000" fill="none"/>
<path d="M14.85 23.76992812741679L14.85 24.73338138912698" stroke-width="0.03" stroke="#000000" fill="none"/>
<path d="M14.745703124999999 24.793597217983862L14.745703124999999 23.830143956273677" stroke-width="0.03" stroke="#000000" fill="none"/>
<path d="M14.954296875 23.830143956273677L14.954296875 24.793597217983862" stroke-width="0.03" stroke="#000000" fill="none"/>
<path d="M14.85 24.974244704554525L14.85 25.937697966264714" stroke-width="0.03" stroke="#000000" fill="none"/>
<path d="M14.745703124999999 25.9979137951216L14.745703124999999 25.51618716426651" stroke-width="0.03" stroke="#000000" fill="none"/>
<path d="M14.954296875 25.51618716426651L14.954296875 25.9979137951216" stroke-width="0.03" stroke="#000000" fill="none"/>
<path d="M15.267187499999999 25.696834650837165L15.267187499999999 25.215108019982072" stroke-width="0.03" stroke="#000000" fill="none"/>
<path d="M14.4328125 25.215108019982072L14.4328125 25.696834650837165" stroke-width="0.03" stroke="#000000" fill="none"/>
<path d="M16.9359375 25.937697966264714L17.457421875 25.636618821980278" stroke-width="0.03" stroke="#000000" fill="none"/>
<path d="M17.56171875 25.937697966264714L17.248828125 26.118345452835374" stroke-width="0.03" stroke="#000000" fill="none"/>
<path d="M17.56171875 26.29899293940603L17.874609375000002 26.118345452835374L17.874609375000002 26.479640425976694" stroke-width="0.03" stroke="#000000" fill="none"/>
<path d="M17.978906249999998 26.53985625483358L17.666015625 26.72050374140424L17.874609375000002 26.840935399118013L17.874609375000002 33.7055398888031" stroke-width="0.03" stroke="#000000" fill="none"/>
<path d="M15.05859375 35.331367267939044L15.05859375 28.46676277825396L17.874609375000002 26.840935399118013" stroke-width="0.03" stroke="#000000" fill="none"/>
<path d="M17.978906249999998 26.780719570261127L18.1875 26.901151227974903L18.1875 28.346331120540185L19.021874999999998 28.828057751395274" stroke-width="0.03" stroke="#000000" fill="none"/>
<path d="M18.6046875 28.58719443596773L17.978906249999998 28.94848940910905" stroke-width="0.03" stroke="#000000" fill="none"/>
<path d="M17.978906249999998 27.021582885688677L18.1875 26.901151227974903" stroke-width="0.03" stroke="#000000" fill="none"/>
<path d="M18.81328125 26.660287912547354L18.81328125 24.13122310055811L18.291796875 23.830143956273677" stroke-width="0.03" stroke="#000000" fill="none"/>
<path d="M18.81328125 24.13122310055811L18.917578125000002 24.071007271701223" stroke-width="0.03" stroke="#000000" fill="none"/>
<path d="M21.733593749999997 25.696834650837165L22.359375 25.335539677695845L22.359375 24.612949731413206" stroke-width="0.03" stroke="#000000" fill="none"/>
<path d="M22.567968750000002 24.492518073699433L22.567968750000002 25.45597133540962L21.733593749999997 25.937697966264714" stroke-width="0.03" stroke="#000000" fill="none"/>
<path d="M22.359375 25.335539677695845L22.567968750000002 25.45597133540962" stroke-width="0.03" stroke="#000000" fill="none"/>
<path d="M24.132421875000002 22.866690694563488L24.23671875 22.926906523420374" stroke-width="0.03" stroke="#000000" fill="none"/>
<path d="M21.31640625 30.393669301674333L21.629296875 30.574316788244992" stroke-width="0.03" stroke="#000000" fill="none"/>
<path d="M15.05859375 28.46676277825396L14.85 28.346331120540185L14.64140625 28.46676277825396" stroke-width="0.03" stroke="#000000" fill="none"/>
<path d="M14.85 28.346331120540185L14.85 35.21093561022528" stroke-width="0.03" stroke="#000000" fill="none"/>
</svg>
