<?xml version="1.0" standalone="no"?>
<svg width="29.7cm" height="42cm" version="1.1" xmlns="http://www.w3.org/2000/svg" viewBox="0.0 0.0 29.700001 42.000001">
<path d="M3.6902343750000006 13.111726419747836L7.7578125 10.763309094329252L10.573828124999999 12.389136473465193L10.573828124999999 13.473021392889155" stroke-width="0.03" stroke="#000000" fill="none"/>
<path d="M10.782421874999999 13.352589735175382L9.322265625 14.195611339171796L9.322265625 14.436474654599342L10.05234375 14.85798545659755" stroke-width="0.03" stroke="#000000" fill="none"/>
<path d="M10.260937499999999 14.737553798883777L7.4449218749999995 16.36338117801972L7.4449218749999995 16.72467615116104L12.451171875 19.615035936291605L12.451171875 19.253740963150285L7.4449218749999995 16.36338117801972" stroke-width="0.03" stroke="#000000" fill="none"/>
<path d="M7.653515625 16.24294952030595L7.236328125 16.0020862048784" stroke-width="0.03" stroke="#000000" fill="none"/>
<path d="M7.653515625 15.761222889450853L8.070703124999998 16.0020862048784" stroke-width="0.03" stroke="#000000" fill="none"/>
<path d="M7.4449218749999995 16.72467615116104L7.13203125 16.905323637731698L7.13203125 20.156978396003588L6.193359375 19.615035936291605L6.4019531249999995 19.49460427857783L7.13203125 19.916115080576038" stroke-width="0.03" stroke="#000000" fill="none"/>
<path d="M7.7578125 20.518273369144907L7.236328125 20.819352513429337L7.236328125 21.18064748657066L7.653515625 21.42151080199821L8.175 21.120431657713773L8.175 20.759136684572454L7.7578125 20.518273369144907" stroke-width="0.03" stroke="#000000" fill="none"/>
<path d="M8.175 20.759136684572454L7.653515625 21.060215828856883L7.236328125 20.819352513429337" stroke-width="0.03" stroke="#000000" fill="none"/>
<path d="M7.653515625 21.060215828856883L7.653515625 21.42151080199821" stroke-width="0.03" stroke="#000000" fill="none"/>
<path d="M7.236328125 21.42151080199821L6.610546875 21.782805775139526L5.984765624999999 21.42151080199821L5.984765624999999 25.39575550655273L4.107421875 24.311870587128773L4.941796875 23.830143956273677" stroke-width="0.03" stroke="#000000" fill="none"/>
<path d="M5.567578125 24.191438929414996L5.984765624999999 23.95057561398745" stroke-width="0.03" stroke="#000000" fill="none"/>
<path d="M5.567578125 24.191438929414996L5.567578125 22.98712235227726L3.898828125 22.023669090567072L4.8374999999999995 21.481726630855093L5.984765624999999 22.14410074828085" stroke-width="0.03" stroke="#000000" fill="none"/>
<path d="M5.984765624999999 22.746259036849715L5.567578125 22.98712235227726" stroke-width="0.03" stroke="#000000" fill="none"/>
<path d="M5.567578125 24.191438929414996L3.898828125 23.227985667704807L3.898828125 22.023669090567072" stroke-width="0.03" stroke="#000000" fill="none"/>
<path d="M4.4203125 21.72258994628264L4.4203125 21.120431657713773" stroke-width="0.03" stroke="#000000" fill="none"/>
<path d="M5.254687500000001 21.602158288568866L6.193359375 21.060215828856883" stroke-width="0.03" stroke="#000000" fill="none"/>
<path d="M6.193359375 21.301079144284433L6.193359375 19.615035936291605" stroke-width="0.03" stroke="#000000" fill="none"/>
<path d="M6.5062500000000005 19.073093476579622L6.714843749999999 18.95266181886585L6.714843749999999 16.062302033735286L3.5859375 14.255827168028683L3.5859375 14.49669048345623L3.3773437500000005 14.617122141170004L3.3773437500000005 15.580575402880193L5.46328125 16.784891980017925L5.46328125 18.470935188010756L6.5062500000000005 19.073093476579622L6.5062500000000005 16.423597006876605L9.009374999999999 14.978417114311325L9.009374999999999 14.737553798883777L7.96640625 14.13539551031491L6.5062500000000005 14.978417114311325L4.4203125 13.77410053717359L3.5859375 14.255827168028683" stroke-width="0.03" stroke="#000000" fill="none"/>
<path d="M3.6902343750000006 14.195611339171796L3.6902343750000006 13.111726419747836L6.5062500000000005 14.737553798883777L6.5062500000000005 14.978417114311325" stroke-width="0.03" stroke="#000000" fill="none"/>
<path d="M6.5062500000000005 14.737553798883777L10.573828124999999 12.389136473465193" stroke-width="0.03" stroke="#000000" fill="none"/>
<path d="M10.260937499999999 12.08805732918076L10.260937499999999 11.004172409756798L11.303906249999999 10.40201412118793L12.97265625 11.365467382898117L12.97265625 11.847194013753214" stroke-width="0.03" stroke="#000000" fill="none"/>
<path d="M12.97265625 11.365467382898117L11.9296875 11.967625671466987L11.9296875 12.44935230232208" stroke-width="0.03" stroke="#000000" fill="none"/>
<path d="M11.9296875 11.967625671466987L10.260937499999999 11.004172409756798" stroke-width="0.03" stroke="#000000" fill="none"/>
<path d="M10.260937499999999 11.606330698325666L9.739453124999999 11.9074098426101" stroke-width="0.03" stroke="#000000" fill="none"/>
<path d="M10.260937499999999 12.08805732918076L11.408203125 12.750431446606514" stroke-width="0.03" stroke="#000000" fill="none"/>
<path d="M11.408203125 13.473021392889155L14.85 11.485899040611892L18.291796875 13.473021392889155L18.917578125000002 13.111726419747836L18.917578125000002 13.834316366030475L18.291796875 14.195611339171796L15.997265625 12.87086310432029L14.85 13.533237221746042L13.702734374999999 12.87086310432029L11.408203125 14.195611339171796L10.782421874999999 13.834316366030475L10.782421874999999 13.111726419747836L14.224218749999999 11.124604067470571L12.346874999999999 10.04071914804661L12.346874999999999 11.004172409756798" stroke-width="0.03" stroke="#000000" fill="none"/>
<path d="M12.346874999999999 10.04071914804661L12.97265625 9.67942417490529L14.85 10.763309094329252L16.72734375 9.67942417490529L17.353125 10.04071914804661L17.353125 11.004172409756798" stroke-width="0.03" stroke="#000000" fill="none"/>
<path d="M16.72734375 11.365467382898117L18.396093750000002 10.40201412118793L19.439062500000002 11.004172409756798L19.439062500000002 12.08805732918076L18.291796875 12.750431446606514" stroke-width="0.03" stroke="#000000" fill="none"/>
<path d="M17.7703125 12.44935230232208L17.7703125 11.967625671466987L16.72734375 11.365467382898117L16.72734375 11.847194013753214" stroke-width="0.03" stroke="#000000" fill="none"/>
<path d="M17.7703125 11.967625671466987L19.439062500000002 11.004172409756798" stroke-width="0.03" stroke="#000000" fill="none"/>
<path d="M19.439062500000002 11.606330698325666L19.960546875000002 11.9074098426101" stroke-width="0.03" stroke="#000000" fill="none"/>
<path d="M19.126171875 12.389136473465193L21.9421875 10.763309094329252L26.009765625 13.111726419747836L26.009765625 14.195611339171796" stroke-width="0.03" stroke="#000000" fill="none"/>
<path d="M26.1140625 14.255827168028683L22.98515625 16.062302033735286L22.98515625 18.95266181886585L23.193749999999998 19.073093476579622L24.23671875 18.470935188010756L24.23671875 16.784891980017925L26.322656249999998 15.580575402880193L26.322656249999998 14.617122141170004L26.1140625 14.49669048345623L26.1140625 14.255827168028683L25.279687499999998 13.77410053717359L23.193749999999998 14.978417114311325L21.733593749999997 14.13539551031491L20.690625 14.737553798883777L20.690625 14.978417114311325L23.193749999999998 16.423597006876605L26.322656249999998 14.617122141170004" stroke-width="0.03" stroke="#000000" fill="none"/>
<path d="M26.322656249999998 14.737553798883777L27.261328125 15.279496258595758L27.261328125 19.976330909432924L24.4453125 21.602158288568866L23.506640625 21.060215828856883" stroke-width="0.03" stroke="#000000" fill="none"/>
<path d="M23.506640625 21.301079144284433L23.506640625 19.615035936291605L23.298046874999997 19.49460427857783L22.567968750000002 19.916115080576038" stroke-width="0.03" stroke="#000000" fill="none"/>
<path d="M22.567968750000002 20.156978396003588L23.506640625 19.615035936291605" stroke-width="0.03" stroke="#000000" fill="none"/>
<path d="M23.193749999999998 19.073093476579622L23.193749999999998 16.423597006876605" stroke-width="0.03" stroke="#000000" fill="none"/>
<path d="M22.98515625 16.303165349162832L26.1140625 14.49669048345623" stroke-width="0.03" stroke="#000000" fill="none"/>
<path d="M27.261328125 15.279496258595758L24.4453125 16.905323637731698L24.4453125 21.602158288568866" stroke-width="0.03" stroke="#000000" fill="none"/>
<path d="M24.8625 21.481726630855093L23.715234375 22.14410074828085" stroke-width="0.03" stroke="#000000" fill="none"/>
<path d="M23.715234375 22.746259036849715L24.132421875000002 22.98712235227726L25.801171875 22.023669090567072L25.801171875 23.227985667704807L24.132421875000002 24.191438929414996L23.715234375 23.95057561398745" stroke-width="0.03" stroke="#000000" fill="none"/>
<path d="M24.132421875000002 24.191438929414996L24.132421875000002 22.98712235227726" stroke-width="0.03" stroke="#000000" fill="none"/>
<path d="M24.758203125 23.830143956273677L25.592578125 24.311870587128773L25.592578125 25.034460533411412L23.715234375 26.118345452835374L23.715234375 28.286115291683295L23.089453125000002 28.647410264824618L22.255078124999997 28.165683633969522" stroke-width="0.03" stroke="#000000" fill="none"/>
<path d="M22.255078124999997 27.443093687686883L21.212109374999997 28.04525197625575L20.794921875 27.804388660828202" stroke-width="0.03" stroke="#000000" fill="none"/>
<path d="M21.212109374999997 28.04525197625575L21.212109374999997 29.972158499676127L22.255078124999997 29.37000021110726L22.255078124999997 27.443093687686883L21.837890625 27.202230372259333" stroke-width="0.03" stroke="#000000" fill="none"/>
<path d="M21.31640625 26.058129623978488L19.021874999999998 27.382877858829996L19.021874999999998 28.105467805112635L19.647656249999997 28.46676277825396L23.089453125000002 26.479640425976694L23.089453125000002 28.647410264824618" stroke-width="0.03" stroke="#000000" fill="none"/>
<path d="M21.212109374999997 29.972158499676127L20.2734375 29.430216039964147L20.2734375 28.105467805112635" stroke-width="0.03" stroke="#000000" fill="none"/>
<path d="M19.647656249999997 27.744172831971316L23.089453125000002 25.75705047969405L23.089453125000002 21.782805775139526L23.715234375 21.42151080199821L23.715234375 25.39575550655273L25.592578125 24.311870587128773" stroke-width="0.03" stroke="#000000" fill="none"/>
<path d="M25.801171875 22.023669090567072L24.8625 21.481726630855093" stroke-width="0.03" stroke="#000000" fill="none"/>
<path d="M25.279687499999998 21.72258994628264L25.279687499999998 21.120431657713773" stroke-width="0.03" stroke="#000000" fill="none"/>
<path d="M23.715234375 21.42151080199821L23.089453125000002 21.060215828856883L22.463671875 21.42151080199821L22.463671875 24.071007271701223L21.31640625 24.73338138912698L21.31640625 26.058129623978488" stroke-width="0.03" stroke="#000000" fill="none"/>
<path d="M21.31640625 25.215108019982072L21.733593749999997 24.974244704554525L21.733593749999997 24.492518073699433" stroke-width="0.03" stroke="#000000" fill="none"/>
<path d="M21.733593749999997 24.974244704554525L23.089453125000002 25.75705047969405" stroke-width="0.03" stroke="#000000" fill="none"/>
<path d="M23.089453125000002 21.782805775139526L22.463671875 21.42151080199821" stroke-width="0.03" stroke="#000000" fill="none"/>
<path d="M22.463671875 21.18064748657066L22.046484375000002 21.42151080199821L21.525000000000002 21.120431657713773L21.525000000000002 20.759136684572454L21.9421875 20.518273369144907L22.463671875 20.819352513429337L22.463671875 21.18064748657066" stroke-width="0.03" stroke="#000000" fill="none"/>
<path d="M22.463671875 20.819352513429337L22.046484375000002 21.060215828856883L21.525000000000002 20.759136684572454" stroke-width="0.03" stroke="#000000" fill="none"/>
<path d="M22.046484375000002 21.060215828856883L22.046484375000002 21.42151080199821" stroke-width="0.03" stroke="#000000" fill="none"/>
<path d="M22.567968750000002 20.156978396003588L22.567968750000002 16.905323637731698L22.255078124999997 16.72467615116104L17.248828125 19.615035936291605L17.248828125 19.253740963150285L22.255078124999997 16.36338117801972L19.439062500000002 14.737553798883777L20.377734375 14.195611339171796L18.917578125000002 13.352589735175382" stroke-width="0.03" stroke="#000000" fill="none"/>
<path d="M19.126171875 13.473021392889155L19.126171875 12.389136473465193L23.193749999999998 14.737553798883777L23.193749999999998 14.978417114311325" stroke-width="0.03" stroke="#000000" fill="none"/>
<path d="M23.193749999999998 14.737553798883777L26.009765625 13.111726419747836" stroke-width="0.03" stroke="#000000" fill="none"/>
<path d="M24.23671875 16.784891980017925L24.4453125 16.905323637731698" stroke-width="0.03" stroke="#000000" fill="none"/>
<path d="M22.98515625 16.905323637731698L22.567968750000002 17.146186953159244" stroke-width="0.03" stroke="#000000" fill="none"/>
<path d="M22.567968750000002 16.905323637731698L17.56171875 19.795683422862265L17.248828125 19.615035936291605" stroke-width="0.03" stroke="#000000" fill="none"/>
<path d="M17.248828125 19.253740963150285L14.85 17.86877689944189L12.451171875 19.253740963150285" stroke-width="0.03" stroke="#000000" fill="none"/>
<path d="M12.451171875 19.615035936291605L12.138281249999999 19.795683422862265L7.13203125 16.905323637731698" stroke-width="0.03" stroke="#000000" fill="none"/>
<path d="M7.13203125 17.146186953159244L6.714843749999999 16.905323637731698" stroke-width="0.03" stroke="#000000" fill="none"/>
<path d="M6.714843749999999 17.387050268586794L7.13203125 17.62791358401434" stroke-width="0.03" stroke="#000000" fill="none"/>
<path d="M6.5062500000000005 16.423597006876605L3.3773437500000005 14.617122141170004" stroke-width="0.03" stroke="#000000" fill="none"/>
<path d="M3.3773437500000005 14.737553798883777L2.438671874999999 15.279496258595758L2.438671874999999 19.976330909432924L5.254687500000001 21.602158288568866L5.254687500000001 16.905323637731698L5.46328125 16.784891980017925" stroke-width="0.03" stroke="#000000" fill="none"/>
<path d="M5.254687500000001 16.905323637731698L2.438671874999999 15.279496258595758" stroke-width="0.03" stroke="#000000" fill="none"/>
<path d="M3.5859375 14.49669048345623L6.714843749999999 16.303165349162832" stroke-width="0.03" stroke="#000000" fill="none"/>
<path d="M6.714843749999999 16.062302033735286L9.009374999999999 14.737553798883777" stroke-width="0.03" stroke="#000000" fill="none"/>
<path d="M8.5921875 14.49669048345623L9.948046875 13.713884708316701L10.05234375 13.77410053717359" stroke-width="0.03" stroke="#000000" fill="none"/>
<path d="M9.322265625 14.195611339171796L10.260937499999999 14.737553798883777" stroke-width="0.03" stroke="#000000" fill="none"/>
<path d="M10.88671875 14.49669048345623L11.199609375 14.31604299688557L11.616796874999999 14.556906312313117L11.616796874999999 15.159064600881985L11.303906249999999 15.339712087452645L10.88671875 15.098848772025098L10.88671875 14.49669048345623L11.303906249999999 14.737553798883777L11.616796874999999 14.556906312313117" stroke-width="0.03" stroke="#000000" fill="none"/>
<path d="M11.303906249999999 14.737553798883777L11.303906249999999 15.339712087452645" stroke-width="0.03" stroke="#000000" fill="none"/>
<path d="M11.408203125 14.195611339171796L11.408203125 13.473021392889155L10.782421874999999 13.111726419747836" stroke-width="0.03" stroke="#000000" fill="none"/>
<path d="M14.4328125 13.292373906318495L14.85 13.051510590890949L15.267187499999999 13.292373906318495" stroke-width="0.03" stroke="#000000" fill="none"/>
<path d="M14.85 13.051510590890949L14.85 11.485899040611892" stroke-width="0.03" stroke="#000000" fill="none"/>
<path d="M15.47578125 11.124604067470571L17.353125 10.04071914804661" stroke-width="0.03" stroke="#000000" fill="none"/>
<path d="M15.47578125 11.124604067470571L18.917578125000002 13.111726419747836" stroke-width="0.03" stroke="#000000" fill="none"/>
<path d="M18.291796875 13.473021392889155L18.291796875 14.195611339171796" stroke-width="0.03" stroke="#000000" fill="none"/>
<path d="M18.500390624999998 14.31604299688557L18.083203125 14.556906312313117L18.083203125 15.159064600881985L18.396093750000002 15.339712087452645L18.81328125 15.098848772025098L18.81328125 14.49669048345623L18.500390624999998 14.31604299688557" stroke-width="0.03" stroke="#000000" fill="none"/>
<path d="M18.81328125 14.49669048345623L18.396093750000002 14.737553798883777L18.396093750000002 15.339712087452645" stroke-width="0.03" stroke="#000000" fill="none"/>
<path d="M18.396093750000002 14.737553798883777L18.083203125 14.556906312313117" stroke-width="0.03" stroke="#000000" fill="none"/>
<path d="M19.647656249999997 14.85798545659755L20.377734375 14.436474654599342L20.377734375 14.195611339171796" stroke-width="0.03" stroke="#000000" fill="none"/>
<path d="M20.690625 14.737553798883777L22.98515625 16.062302033735286" stroke-width="0.03" stroke="#000000" fill="none"/>
<path d="M22.463671875 16.0020862048784L22.046484375000002 16.24294952030595" stroke-width="0.03" stroke="#000000" fill="none"/>
<path d="M22.255078124999997 16.36338117801972L22.255078124999997 16.72467615116104" stroke-width="0.03" stroke="#000000" fill="none"/>
<path d="M21.629296875 16.0020862048784L22.046484375000002 15.761222889450853" stroke-width="0.03" stroke="#000000" fill="none"/>
<path d="M21.107812499999998 14.49669048345623L19.751953125 13.713884708316701L19.647656249999997 13.77410053717359" stroke-width="0.03" stroke="#000000" fill="none"/>
<path d="M22.567968750000002 17.62791358401434L22.98515625 17.387050268586794" stroke-width="0.03" stroke="#000000" fill="none"/>
<path d="M23.610937500000002 18.832230161152076L23.610937500000002 20.397841711431134L23.506640625 20.458057540288017" stroke-width="0.03" stroke="#000000" fill="none"/>
<path d="M17.56171875 19.795683422862265L17.56171875 22.565611550279055L15.162890625 23.95057561398745L14.85 23.76992812741679L14.537109375 23.95057561398745L12.138281249999999 22.565611550279055L12.138281249999999 19.795683422862265" stroke-width="0.03" stroke="#000000" fill="none"/>
<path d="M12.138281249999999 22.565611550279055L14.85 21L17.56171875 22.565611550279055" stroke-width="0.03" stroke="#000000" fill="none"/>
<path d="M15.162890625 23.95057561398745L15.162890625 29.731295184248577L14.85 29.550647697677917L14.537109375 29.731295184248577L11.72109375 28.105467805112635L11.72109375 29.189352724536597L11.9296875 29.068921066822824L11.9296875 28.22589946282641" stroke-width="0.03" stroke="#000000" fill="none"/>
<path d="M11.72109375 27.382877858829996L11.199609375 27.68395700311443L10.88671875 27.50330951654377L10.88671875 27.021582885688677L11.408203125 26.72050374140424L11.72109375 26.901151227974903L11.72109375 27.382877858829996" stroke-width="0.03" stroke="#000000" fill="none"/>
<path d="M11.72109375 26.901151227974903L11.199609375 27.202230372259333L10.88671875 27.021582885688677" stroke-width="0.03" stroke="#000000" fill="none"/>
<path d="M11.199609375 27.202230372259333L11.199609375 27.68395700311443" stroke-width="0.03" stroke="#000000" fill="none"/>
<path d="M10.678125 27.382877858829996L10.05234375 27.744172831971316L6.610546875 25.75705047969405L6.610546875 21.782805775139526" stroke-width="0.03" stroke="#000000" fill="none"/>
<path d="M7.236328125 21.42151080199821L7.236328125 24.071007271701223L8.38359375 24.73338138912698L8.38359375 26.058129623978488L10.678125 27.382877858829996L10.678125 28.105467805112635L10.05234375 28.46676277825396L6.610546875 26.479640425976694L6.610546875 28.647410264824618L7.4449218749999995 28.165683633969522" stroke-width="0.03" stroke="#000000" fill="none"/>
<path d="M7.4449218749999995 27.443093687686883L7.862109374999999 27.202230372259333" stroke-width="0.03" stroke="#000000" fill="none"/>
<path d="M7.4449218749999995 27.443093687686883L7.4449218749999995 29.37000021110726L8.487890625 29.972158499676127L9.4265625 29.430216039964147L9.4265625 28.105467805112635" stroke-width="0.03" stroke="#000000" fill="none"/>
<path d="M8.905078125 27.804388660828202L8.487890625 28.04525197625575L7.4449218749999995 27.443093687686883" stroke-width="0.03" stroke="#000000" fill="none"/>
<path d="M8.487890625 28.04525197625575L8.487890625 29.972158499676127" stroke-width="0.03" stroke="#000000" fill="none"/>
<path d="M9.009374999999999 29.67107935539169L9.530859375 29.972158499676127" stroke-width="0.03" stroke="#000000" fill="none"/>
<path d="M9.530859375 29.008705237965938L10.46953125 28.46676277825396" stroke-width="0.03" stroke="#000000" fill="none"/>
<path d="M10.260937499999999 28.346331120540185L11.72109375 29.189352724536597" stroke-width="0.03" stroke="#000000" fill="none"/>
<path d="M12.346874999999999 29.189352724536597L12.555468750000001 29.068921066822824L15.05859375 30.514100959388106L15.05859375 34.12705069080131L14.85 34.00661903308754L14.64140625 34.12705069080131L13.80703125 33.64532405994622L13.80703125 31.236690905670745L12.346874999999999 30.393669301674333L12.346874999999999 29.189352724536597L14.64140625 30.514100959388106L17.14453125 29.068921066822824L17.353125 29.189352724536597L17.353125 30.393669301674333L15.89296875 31.236690905670745L15.89296875 33.64532405994622L15.05859375 34.12705069080131" stroke-width="0.03" stroke="#000000" fill="none"/>
<path d="M15.162890625 34.06683486194443L16.1015625 34.608777321656405L20.169140624999997 32.260359996237824L20.169140624999997 29.008705237965938L19.23046875 28.46676277825396" stroke-width="0.03" stroke="#000000" fill="none"/>
<path d="M19.439062500000002 28.346331120540185L17.978906249999998 29.189352724536597L17.7703125 29.068921066822824L17.7703125 28.22589946282641" stroke-width="0.03" stroke="#000000" fill="none"/>
<path d="M17.978906249999998 28.105467805112635L15.162890625 29.731295184248577" stroke-width="0.03" stroke="#000000" fill="none"/>
<path d="M15.371484375 29.610863526534803L15.371484375 30.0925901573899" stroke-width="0.03" stroke="#000000" fill="none"/>
<path d="M15.788671874999999 29.851726841962353L15.788671874999999 29.37000021110726" stroke-width="0.03" stroke="#000000" fill="none"/>
<path d="M14.85 29.550647697677917L14.85 23.76992812741679" stroke-width="0.03" stroke="#000000" fill="none"/>
<path d="M14.537109375 23.95057561398745L14.537109375 29.731295184248577" stroke-width="0.03" stroke="#000000" fill="none"/>
<path d="M14.328515625 29.610863526534803L14.328515625 30.0925901573899" stroke-width="0.03" stroke="#000000" fill="none"/>
<path d="M13.911328125 29.851726841962353L13.911328125 29.37000021110726" stroke-width="0.03" stroke="#000000" fill="none"/>
<path d="M14.64140625 30.514100959388106L14.64140625 34.12705069080131" stroke-width="0.03" stroke="#000000" fill="none"/>
<path d="M14.537109375 34.06683486194443L13.598437500000001 34.608777321656405L9.530859375 32.260359996237824L9.530859375 29.008705237965938L13.598437500000001 31.35712256338452L13.598437500000001 34.608777321656405" stroke-width="0.03" stroke="#000000" fill="none"/>
<path d="M14.85 34.00661903308754L14.85 30.393669301674333" stroke-width="0.03" stroke="#000000" fill="none"/>
<path d="M15.05859375 30.514100959388106L17.353125 29.189352724536597" stroke-width="0.03" stroke="#000000" fill="none"/>
<path d="M17.353125 29.67107935539169L18.708984375 28.888273580252164L18.708984375 28.767841922538388" stroke-width="0.03" stroke="#000000" fill="none"/>
<path d="M17.978906249999998 29.189352724536597L17.978906249999998 28.105467805112635" stroke-width="0.03" stroke="#000000" fill="none"/>
<path d="M18.500390624999998 27.68395700311443L18.81328125 27.50330951654377L18.81328125 27.021582885688677L18.291796875 26.72050374140424L17.978906249999998 26.901151227974903L17.978906249999998 27.382877858829996L18.500390624999998 27.68395700311443L18.500390624999998 27.202230372259333L17.978906249999998 26.901151227974903" stroke-width="0.03" stroke="#000000" fill="none"/>
<path d="M18.500390624999998 27.202230372259333L18.81328125 27.021582885688677" stroke-width="0.03" stroke="#000000" fill="none"/>
<path d="M19.021874999999998 27.382877858829996L19.647656249999997 27.744172831971316L19.647656249999997 28.46676277825396" stroke-width="0.03" stroke="#000000" fill="none"/>
<path d="M20.169140624999997 29.008705237965938L16.1015625 31.35712256338452L16.1015625 34.608777321656405" stroke-width="0.03" stroke="#000000" fill="none"/>
<path d="M16.1015625 31.35712256338452L15.89296875 31.236690905670745" stroke-width="0.03" stroke="#000000" fill="none"/>
<path d="M13.80703125 31.236690905670745L13.598437500000001 31.35712256338452" stroke-width="0.03" stroke="#000000" fill="none"/>
<path d="M12.346874999999999 29.67107935539169L10.991015625000001 28.888273580252164L10.991015625000001 28.767841922538388" stroke-width="0.03" stroke="#000000" fill="none"/>
<path d="M10.05234375 28.46676277825396L10.05234375 27.744172831971316" stroke-width="0.03" stroke="#000000" fill="none"/>
<path d="M8.38359375 25.215108019982072L7.96640625 24.974244704554525L6.610546875 25.75705047969405" stroke-width="0.03" stroke="#000000" fill="none"/>
<path d="M5.984765624999999 26.118345452835374L5.984765624999999 28.286115291683295L6.610546875 28.647410264824618" stroke-width="0.03" stroke="#000000" fill="none"/>
<path d="M5.984765624999999 26.118345452835374L4.107421875 25.034460533411412L4.107421875 24.311870587128773" stroke-width="0.03" stroke="#000000" fill="none"/>
<path d="M5.984765624999999 21.42151080199821L6.610546875 21.060215828856883L7.236328125 21.42151080199821" stroke-width="0.03" stroke="#000000" fill="none"/>
<path d="M6.193359375 20.458057540288017L6.089062499999999 20.397841711431134L6.089062499999999 18.832230161152076" stroke-width="0.03" stroke="#000000" fill="none"/>
<path d="M7.96640625 24.492518073699433L7.96640625 24.974244704554525" stroke-width="0.03" stroke="#000000" fill="none"/>
<path d="M14.85 21L14.85 17.86877689944189" stroke-width="0.03" stroke="#000000" fill="none"/>
<path d="M20.690625 29.67107935539169L20.169140624999997 29.972158499676127" stroke-width="0.03" stroke="#000000" fill="none"/>
<path d="M9.237499999999999 2.533333333333333L1.5 2.533333333333333" stroke-width="0.03" stroke="#000000" fill="none"/>
<path d="M2.1166666666666667 2.2291666666666665L2.1166666666666667 1.8208333333333333" stroke-width="0.03" stroke="#000000" fill="none"/>
<path d="M2.0875 1.6166666666666667L2.1166666666666667 1.6458333333333333L2.145833333333333 1.6166666666666667L2.1166666666666667 1.5875L2.0875 1.6166666666666667" stroke-width="0.03" stroke="#000000" fill="none"/>
<path d="M2.3208333333333333 2.1416666666666666L2.35 2.2L2.4375 2.2291666666666665L2.525 2.2291666666666665L2.6125 2.2L2.6416666666666666 2.1416666666666666L2.6416666666666666 2.1125L2.6125 2.0541666666666667L2.5541666666666667 2.025L2.408333333333333 1.9958333333333333L2.35 1.9666666666666666L2.3208333333333333 1.9083333333333332L2.35 1.85L2.4375 1.8208333333333333L2.525 1.8208333333333333L2.6125 1.85L2.6416666666666666 1.9083333333333332" stroke-width="0.03" stroke="#000000" fill="none"/>
<path d="M2.9625 1.8208333333333333L2.904166666666667 1.85L2.845833333333333 1.9083333333333332L2.8166666666666664 1.9958333333333333L2.8166666666666664 2.0541666666666667L2.845833333333333 2.1416666666666666L2.904166666666667 2.2L2.9625 2.2291666666666665L3.05 2.2291666666666665L3.1083333333333334 2.2L3.1666666666666665 2.1416666666666666L3.1958333333333333 2.0541666666666667L3.1958333333333333 1.9958333333333333L3.1666666666666665 1.9083333333333332L3.1083333333333334 1.85L3.05 1.8208333333333333L2.9625 1.8208333333333333" stroke-width="0.03" stroke="#000000" fill="none"/>
<path d="M3.283333333333333 2.2874999999999996L3.75 2.2874999999999996" stroke-width="0.03" stroke="#000000" fill="none"/>
<path d="M3.8375 2.1416666666666666L3.8666666666666663 2.2L3.9541666666666666 2.2291666666666665L4.041666666666666 2.2291666666666665L4.129166666666666 2.2L4.158333333333333 2.1416666666666666L4.158333333333333 2.1125L4.129166666666666 2.0541666666666667L4.070833333333333 2.025L3.925 1.9958333333333333L3.8666666666666663 1.9666666666666666L3.8375 1.9083333333333332L3.8666666666666663 1.85L3.9541666666666666 1.8208333333333333L4.041666666666666 1.8208333333333333L4.129166666666666 1.85L4.158333333333333 1.9083333333333332" stroke-width="0.03" stroke="#000000" fill="none"/>
<path d="M4.3625 1.9375L4.449999999999999 1.85L4.508333333333333 1.8208333333333333L4.595833333333333 1.8208333333333333L4.654166666666667 1.85L4.683333333333334 1.9375L4.683333333333334 2.2291666666666665" stroke-width="0.03" stroke="#000000" fill="none"/>
<path d="M4.3625 2.2291666666666665L4.3625 1.8208333333333333" stroke-width="0.03" stroke="#000000" fill="none"/>
<path d="M5.033333333333333 1.8208333333333333L4.975 1.85L4.916666666666666 1.9083333333333332L4.887499999999999 1.9958333333333333L4.887499999999999 2.0541666666666667L4.916666666666666 2.1416666666666666L4.975 2.2L5.033333333333333 2.2291666666666665L5.120833333333334 2.2291666666666665L5.179166666666666 2.2L5.2375 2.1416666666666666L5.266666666666666 2.0541666666666667L5.266666666666666 1.9958333333333333L5.2375 1.9083333333333332L5.179166666666666 1.85L5.120833333333334 1.8208333333333333L5.033333333333333 1.8208333333333333" stroke-width="0.03" stroke="#000000" fill="none"/>
<path d="M5.441666666666666 1.8208333333333333L5.558333333333334 2.2291666666666665L5.675 1.8208333333333333L5.791666666666666 2.2291666666666665L5.908333333333333 1.8208333333333333" stroke-width="0.03" stroke="#000000" fill="none"/>
<path d="M6.054166666666666 1.8208333333333333L6.258333333333333 1.8208333333333333" stroke-width="0.03" stroke="#000000" fill="none"/>
<path d="M6.2875 1.6166666666666667L6.229166666666666 1.6166666666666667L6.1708333333333325 1.6458333333333333L6.141666666666667 1.7333333333333334L6.141666666666667 2.2291666666666665" stroke-width="0.03" stroke="#000000" fill="none"/>
<path d="M6.4624999999999995 2.2291666666666665L6.4624999999999995 1.6166666666666667" stroke-width="0.03" stroke="#000000" fill="none"/>
<path d="M7.016666666666666 1.8208333333333333L7.016666666666666 2.2291666666666665" stroke-width="0.03" stroke="#000000" fill="none"/>
<path d="M7.016666666666666 2.1416666666666666L6.958333333333333 2.2L6.8999999999999995 2.2291666666666665L6.812499999999999 2.2291666666666665L6.754166666666666 2.2L6.695833333333333 2.1416666666666666L6.666666666666666 2.0541666666666667L6.666666666666666 1.9958333333333333L6.695833333333333 1.9083333333333332L6.754166666666666 1.85L6.812499999999999 1.8208333333333333L6.8999999999999995 1.8208333333333333L6.958333333333333 1.85L7.016666666666666 1.9083333333333332" stroke-width="0.03" stroke="#000000" fill="none"/>
<path d="M7.249999999999999 2.1125L7.541666666666666 1.8208333333333333" stroke-width="0.03" stroke="#000000" fill="none"/>
<path d="M7.366666666666666 1.9958333333333333L7.570833333333333 2.2291666666666665" stroke-width="0.03" stroke="#000000" fill="none"/>
<path d="M7.716666666666666 1.9958333333333333L8.066666666666666 1.9958333333333333L8.066666666666666 1.9375L8.0375 1.8791666666666667L8.008333333333333 1.85L7.949999999999999 1.8208333333333333L7.8625 1.8208333333333333L7.804166666666666 1.85L7.745833333333333 1.9083333333333332L7.716666666666666 1.9958333333333333L7.716666666666666 2.0541666666666667L7.745833333333333 2.1416666666666666L7.804166666666666 2.2L7.8625 2.2291666666666665L7.949999999999999 2.2291666666666665L8.008333333333333 2.2L8.066666666666666 2.1416666666666666" stroke-width="0.03" stroke="#000000" fill="none"/>
<path d="M8.270833333333332 1.7625L8.270833333333332 1.7333333333333334L8.299999999999999 1.675L8.329166666666666 1.6458333333333333L8.3875 1.6166666666666667L8.504166666666666 1.6166666666666667L8.5625 1.6458333333333333L8.591666666666665 1.675L8.620833333333334 1.7333333333333334L8.620833333333334 1.7916666666666665L8.591666666666665 1.85L8.533333333333331 1.9375L8.241666666666667 2.2291666666666665L8.649999999999999 2.2291666666666665" stroke-width="0.03" stroke="#000000" fill="none"/>
<path d="M7.249999999999999 2.2291666666666665L7.249999999999999 1.6166666666666667" stroke-width="0.03" stroke="#000000" fill="none"/>
<path d="M5.60519826770772 3.0955672553801805L5.587172276369181 3.0595152727031034L5.5511202936921045 3.023463290026026L5.5150683110150265 3.0054372986874878L5.442964345660872 3.0054372986874878L5.406912362983795 3.023463290026026L5.370860380306718 3.0595152727031034L5.352834388968179 3.0955672553801805L5.33480839762964 3.149645229395796L5.33480839762964 3.2397751860884894L5.352834388968179 3.293853160104105L5.370860380306718 3.3299051427811825L5.406912362983795 3.3659571254582596L5.442964345660872 3.383983116796798L5.5150683110150265 3.383983116796798L5.5511202936921045 3.3659571254582596L5.587172276369181 3.3299051427811825L5.60519826770772 3.293853160104105" stroke-width="0.03" stroke="#000000" fill="none"/>
<path d="M5.064418527551561 3.0054372986874878L5.010340553535945 3.023463290026026L4.992314562197407 3.0595152727031034L4.992314562197407 3.0955672553801805L5.010340553535945 3.1316192380572576L5.046392536213023 3.149645229395796L5.1184965015671775 3.167671220734335L5.172574475582794 3.1856972120728733L5.20862645825987 3.221749194749951L5.22665244959841 3.257801177427028L5.22665244959841 3.3118791514426436L5.20862645825987 3.3479311341197207L5.190600466921332 3.3659571254582596L5.136522492905716 3.383983116796798L5.064418527551561 3.383983116796798L5.010340553535945 3.3659571254582596L4.992314562197407 3.3479311341197207L4.974288570858869 3.3118791514426436L4.974288570858869 3.257801177427028L4.992314562197407 3.221749194749951L5.028366544874484 3.1856972120728733L5.0824445188901 3.167671220734335L5.154548484244255 3.149645229395796L5.190600466921332 3.1316192380572576L5.20862645825987 3.0955672553801805L5.20862645825987 3.0595152727031034L5.190600466921332 3.023463290026026L5.136522492905716 3.0054372986874878L5.064418527551561 3.0054372986874878" stroke-width="0.03" stroke="#000000" fill="none"/>
<path d="M4.776002666134945 3.1856972120728733L4.83008064015056 3.167671220734335L4.848106631489099 3.149645229395796L4.866132622827637 3.113593246718719L4.866132622827637 3.077541264041642L4.848106631489099 3.041489281364565L4.83008064015056 3.023463290026026L4.776002666134945 3.0054372986874878L4.613768744088096 3.0054372986874878L4.613768744088096 3.383983116796798L4.776002666134945 3.383983116796798L4.83008064015056 3.3659571254582596L4.848106631489099 3.3479311341197207L4.866132622827637 3.3118791514426436L4.866132622827637 3.257801177427028L4.848106631489099 3.221749194749951L4.83008064015056 3.2037232034114123L4.776002666134945 3.1856972120728733L4.613768744088096 3.1856972120728733" stroke-width="0.03" stroke="#000000" fill="none"/>
<path d="M4.235222925978786 3.0054372986874878L4.235222925978786 3.383983116796798L4.361404865348556 3.383983116796798L4.415482839364172 3.3659571254582596L4.45153482204125 3.3299051427811825L4.469560813379788 3.293853160104105L4.487586804718326 3.2397751860884894L4.487586804718326 3.149645229395796L4.469560813379788 3.0955672553801805L4.45153482204125 3.0595152727031034L4.415482839364172 3.023463290026026L4.361404865348556 3.0054372986874878L4.235222925978786 3.0054372986874878" stroke-width="0.03" stroke="#000000" fill="none"/>
<path d="M4.109040986609016 3.0955672553801805L4.091014995270477 3.0595152727031034L4.0549630125934 3.023463290026026L4.018911029916323 3.0054372986874878L3.9468070645621687 3.0054372986874878L3.9107550818850916 3.023463290026026L3.8747030992080145 3.0595152727031034L3.8566771078694755 3.0955672553801805L3.838651116530937 3.149645229395796L3.838651116530937 3.2397751860884894L3.8566771078694755 3.293853160104105L3.8747030992080145 3.3299051427811825L3.9107550818850916 3.3659571254582596L3.9468070645621687 3.383983116796798L4.018911029916323 3.383983116796798L4.0549630125934 3.3659571254582596L4.091014995270477 3.3299051427811825L4.109040986609016 3.293853160104105" stroke-width="0.03" stroke="#000000" fill="none"/>
<path d="M3.694443185822628 3.0054372986874878L3.514183272437242 3.0054372986874878L3.4961572810987036 3.167671220734335L3.514183272437242 3.149645229395796L3.568261246452858 3.1316192380572576L3.622339220468474 3.1316192380572576L3.6764171944840895 3.149645229395796L3.712469177161167 3.1856972120728733L3.730495168499705 3.2397751860884894L3.730495168499705 3.2758271687655665L3.712469177161167 3.3299051427811825L3.6764171944840895 3.3659571254582596L3.622339220468474 3.383983116796798L3.568261246452858 3.383983116796798L3.514183272437242 3.3659571254582596L3.4961572810987036 3.3479311341197207L3.478131289760165 3.3118791514426436" stroke-width="0.03" stroke="#000000" fill="none"/>
<path d="M3.3699753417289333 3.293853160104105L3.3519493503903948 3.3299051427811825L3.3158973677133177 3.3659571254582596L3.2798453850362406 3.383983116796798L3.207741419682086 3.383983116796798L3.171689437005009 3.3659571254582596L3.1356374543279317 3.3299051427811825L3.117611462989393 3.293853160104105L3.0995854716508546 3.2397751860884894L3.0995854716508546 3.149645229395796L3.117611462989393 3.0955672553801805L3.1356374543279317 3.0595152727031034L3.171689437005009 3.023463290026026L3.207741419682086 3.0054372986874878L3.2798453850362406 3.0054372986874878L3.3158973677133177 3.023463290026026L3.3519493503903948 3.0595152727031034L3.3699753417289333 3.0955672553801805" stroke-width="0.03" stroke="#000000" fill="none"/>
<path d="M2.90129956692693 3.1856972120728733L2.955377540942546 3.167671220734335L2.9734035322810843 3.149645229395796L2.991429523619623 3.113593246718719L2.991429523619623 3.077541264041642L2.9734035322810843 3.041489281364565L2.955377540942546 3.023463290026026L2.90129956692693 3.0054372986874878L2.7390656448800828 3.0054372986874878L2.7390656448800828 3.383983116796798L2.90129956692693 3.383983116796798L2.955377540942546 3.3659571254582596L2.9734035322810843 3.3479311341197207L2.991429523619623 3.3118791514426436L2.991429523619623 3.257801177427028L2.9734035322810843 3.221749194749951L2.955377540942546 3.2037232034114123L2.90129956692693 3.1856972120728733L2.7390656448800828 3.1856972120728733" stroke-width="0.03" stroke="#000000" fill="none"/>
<path d="M2.6128837055103125 3.1316192380572576L2.414597800786388 3.383983116796798" stroke-width="0.03" stroke="#000000" fill="none"/>
<path d="M2.6128837055103125 3.383983116796798L2.414597800786388 3.1316192380572576" stroke-width="0.03" stroke="#000000" fill="none"/>
<path d="M2.1622339220468474 3.0054372986874878L2.1081559480312317 3.023463290026026L2.072103965354154 3.077541264041642L2.0540779740156156 3.167671220734335L2.0540779740156156 3.221749194749951L2.072103965354154 3.3118791514426436L2.1081559480312317 3.3659571254582596L2.1622339220468474 3.383983116796798L2.1982859047239245 3.383983116796798L2.2523638787395406 3.3659571254582596L2.2884158614166177 3.3118791514426436L2.3064418527551562 3.221749194749951L2.3064418527551562 3.167671220734335L2.2884158614166177 3.077541264041642L2.2523638787395406 3.023463290026026L2.1982859047239245 3.0054372986874878L2.1622339220468474 3.0054372986874878" stroke-width="0.03" stroke="#000000" fill="none"/>
</svg>
