<?xml version="1.0" standalone="no"?>
<svg width="29.7cm" height="42cm" version="1.1" xmlns="http://www.w3.org/2000/svg" viewBox="0.0 0.0 29.700001 42.000001">
<path d="M6.610546875 10.823524923186138L9.4265625 9.197697544050197L10.88671875 10.04071914804661L10.88671875 11.365467382898117L10.05234375 11.847194013753214" stroke-width="0.03" stroke="#000000" fill="none"/>
<path d="M9.4265625 11.485899040611892L8.070703124999998 12.26870481575142L8.070703124999998 11.666546527182554L6.610546875 10.823524923186138L6.610546875 11.425683211755006L6.4019531249999995 11.305251554041233L6.610546875 11.184819896327458" stroke-width="0.03" stroke="#000000" fill="none"/>
<path d="M6.4019531249999995 11.305251554041233L6.4019531249999995 15.761222889450853L6.9234374999999995 16.062302033735286" stroke-width="0.03" stroke="#000000" fill="none"/>
<path d="M7.027734374999999 15.881654547164626L7.236328125 15.761222889450853L7.13203125 15.701007060593964L6.9234374999999995 15.82143871830774L6.9234374999999995 16.423597006876605L7.027734374999999 16.483812835733495L6.5062500000000005 16.784891980017925L6.4019531249999995 16.72467615116104L6.4019531249999995 16.965539466588588L6.5062500000000005 17.025755295445475L7.236328125 16.60424449344727L7.236328125 15.761222889450853" stroke-width="0.03" stroke="#000000" fill="none"/>
<path d="M7.027734374999999 15.881654547164626L7.027734374999999 16.483812835733495" stroke-width="0.03" stroke="#000000" fill="none"/>
<path d="M6.9234374999999995 16.423597006876605L6.4019531249999995 16.72467615116104" stroke-width="0.03" stroke="#000000" fill="none"/>
<path d="M6.5062500000000005 16.784891980017925L6.5062500000000005 17.025755295445475" stroke-width="0.03" stroke="#000000" fill="none"/>
<path d="M6.610546875 16.60424449344727L6.089062499999999 16.303165349162832L2.2300781249999995 18.531151016867643L2.2300781249999995 18.77201433229519" stroke-width="0.03" stroke="#000000" fill="none"/>
<path d="M2.2300781249999995 18.531151016867643L2.438671874999999 18.651582674581416L1.9171874999999992 18.95266181886585L1.9171874999999992 22.204316577137735L3.3773437500000005 23.047338181134148L4.524609375000001 22.384964063708395L4.524609375000001 21.42151080199821" stroke-width="0.03" stroke="#000000" fill="none"/>
<path d="M3.898828125 21.060215828856883L3.898828125 19.49460427857783L5.567578125 20.458057540288017L6.4019531249999995 19.976330909432924" stroke-width="0.03" stroke="#000000" fill="none"/>
<path d="M5.567578125 20.458057540288017L5.567578125 22.023669090567072L5.776171874999998 21.903237432853302" stroke-width="0.03" stroke="#000000" fill="none"/>
<path d="M5.776171874999998 21.782805775139526L6.4019531249999995 21.42151080199821" stroke-width="0.03" stroke="#000000" fill="none"/>
<path d="M6.4019531249999995 21.54194245971198L6.4019531249999995 17.808561070585L7.862109374999999 16.965539466588588L8.80078125 17.50748192630057L7.340624999999999 18.350503530296983L6.4019531249999995 17.808561070585" stroke-width="0.03" stroke="#000000" fill="none"/>
<path d="M7.340624999999999 18.350503530296983L7.340624999999999 22.08388491942396L7.5492187500000005 21.96345326171019L9.009374999999999 22.8064748657066" stroke-width="0.03" stroke="#000000" fill="none"/>
<path d="M9.009374999999999 23.167769838847924L9.009374999999999 22.204316577137735L9.322265625 22.023669090567072L7.5492187500000005 21L7.5492187500000005 21.96345326171019" stroke-width="0.03" stroke="#000000" fill="none"/>
<path d="M7.340624999999999 22.08388491942396L6.4019531249999995 21.54194245971198" stroke-width="0.03" stroke="#000000" fill="none"/>
<path d="M5.776171874999998 21.782805775139526L5.776171874999998 22.14410074828085L9.322265625 24.191438929414996L9.322265625 28.286115291683295L9.63515625 28.46676277825396L10.260937499999999 28.105467805112635" stroke-width="0.03" stroke="#000000" fill="none"/>
<path d="M10.156640625 28.04525197625575L10.156640625 26.96136705683179L10.365234375 26.840935399118013L10.365234375 25.154892191125185" stroke-width="0.03" stroke="#000000" fill="none"/>
<path d="M10.05234375 24.974244704554525L10.05234375 24.85381304684075L10.365234375 24.673165560270093L11.199609375 25.154892191125185L11.199609375 23.830143956273677L12.451171875 23.107554009991038L12.451171875 24.432302244842543L12.555468750000001 24.37208641598566L12.555468750000001 22.565611550279055L14.85 21.240863315427546L17.14453125 22.565611550279055L17.14453125 24.37208641598566L17.248828125 24.432302244842543L17.248828125 23.107554009991038L17.874609375000002 22.746259036849715L17.874609375000002 22.023669090567072L19.021874999999998 21.36129497314132L18.917578125000002 21.301079144284433L17.353125 22.204316577137735L15.05859375 20.879568342286227L15.05859375 18.23007187258321L16.623046875 17.326834439729907L16.623046875 17.206402782016134L15.47578125 17.86877689944189L14.85 17.50748192630057L14.224218749999999 17.86877689944189L13.076953125000001 17.206402782016134L13.076953125000001 17.326834439729907L14.64140625 18.23007187258321L14.64140625 20.879568342286227L12.346874999999999 22.204316577137735L12.346874999999999 22.44517989256528L12.555468750000001 22.565611550279055" stroke-width="0.03" stroke="#000000" fill="none"/>
<path d="M12.346874999999999 22.44517989256528L14.85 21L17.353125 22.44517989256528L17.14453125 22.565611550279055" stroke-width="0.03" stroke="#000000" fill="none"/>
<path d="M17.353125 22.44517989256528L17.353125 22.204316577137735" stroke-width="0.03" stroke="#000000" fill="none"/>
<path d="M17.874609375000002 22.023669090567072L19.126171875 22.746259036849715L19.126171875 23.468848983132357L18.500390624999998 23.830143956273677L17.248828125 23.107554009991038" stroke-width="0.03" stroke="#000000" fill="none"/>
<path d="M17.874609375000002 22.746259036849715L19.126171875 23.468848983132357" stroke-width="0.03" stroke="#000000" fill="none"/>
<path d="M19.334765625 23.58928064084613L18.81328125 23.890359785130563L18.81328125 24.251654758271883L19.543359374999998 24.673165560270093L20.064843749999998 24.37208641598566L20.064843749999998 28.46676277825396L20.377734375 28.286115291683295L20.377734375 24.191438929414996L23.923828125000004 22.14410074828085L23.923828125000004 21.782805775139526L23.298046874999997 21.42151080199821" stroke-width="0.03" stroke="#000000" fill="none"/>
<path d="M23.298046874999997 21.54194245971198L22.359375 22.08388491942396L22.150781249999998 21.96345326171019L20.690625 22.8064748657066" stroke-width="0.03" stroke="#000000" fill="none"/>
<path d="M20.690625 23.167769838847924L20.586328125 23.227985667704807L20.2734375 23.047338181134148L20.2734375 22.08388491942396L19.126171875 22.746259036849715" stroke-width="0.03" stroke="#000000" fill="none"/>
<path d="M19.334765625 22.98712235227726L19.647656249999997 22.8064748657066L20.377734375 23.227985667704807L20.377734375 23.830143956273677L23.923828125000004 21.782805775139526" stroke-width="0.03" stroke="#000000" fill="none"/>
<path d="M23.923828125000004 21.903237432853302L24.132421875000002 22.023669090567072L25.801171875 21.060215828856883L25.801171875 19.49460427857783L24.132421875000002 20.458057540288017L23.298046874999997 19.976330909432924" stroke-width="0.03" stroke="#000000" fill="none"/>
<path d="M24.132421875000002 20.458057540288017L24.132421875000002 22.023669090567072" stroke-width="0.03" stroke="#000000" fill="none"/>
<path d="M23.819531249999997 22.204316577137735L25.592578125 23.227985667704807L25.592578125 25.154892191125185L25.175390624999995 25.39575550655273L23.923828125000004 24.673165560270093" stroke-width="0.03" stroke="#000000" fill="none"/>
<path d="M24.341015624999997 24.914028875697635L24.341015624999997 25.9979137951216L25.175390624999995 25.51618716426651L25.175390624999995 23.468848983132357L23.40234375 22.44517989256528" stroke-width="0.03" stroke="#000000" fill="none"/>
<path d="M23.193749999999998 22.565611550279055L23.193749999999998 23.890359785130563L23.923828125000004 23.468848983132357L23.923828125000004 25.39575550655273L23.193749999999998 25.817266308550938L23.193749999999998 26.660287912547354L21.525000000000002 27.623741174257542L20.794921875 27.202230372259333" stroke-width="0.03" stroke="#000000" fill="none"/>
<path d="M20.586328125 27.322662029973106L20.586328125 25.39575550655273L21.525000000000002 24.85381304684075L21.525000000000002 23.76992812741679L23.193749999999998 22.8064748657066L22.98515625 22.686043207992828" stroke-width="0.03" stroke="#000000" fill="none"/>
<path d="M23.089453125000002 22.62582737913594L23.089453125000002 22.746259036849715" stroke-width="0.03" stroke="#000000" fill="none"/>
<path d="M23.193749999999998 23.047338181134148L23.923828125000004 23.468848983132357" stroke-width="0.03" stroke="#000000" fill="none"/>
<path d="M25.175390624999995 23.468848983132357L25.592578125 23.227985667704807" stroke-width="0.03" stroke="#000000" fill="none"/>
<path d="M26.322656249999998 23.047338181134148L27.7828125 22.204316577137735L27.7828125 18.95266181886585L27.261328125 18.651582674581416L27.469921874999997 18.531151016867643L23.610937500000002 16.303165349162832L23.089453125000002 16.60424449344727" stroke-width="0.03" stroke="#000000" fill="none"/>
<path d="M23.193749999999998 16.784891980017925L23.298046874999997 16.72467615116104L23.298046874999997 16.965539466588588L23.193749999999998 17.025755295445475L22.463671875 16.60424449344727L22.463671875 15.761222889450853L22.567968750000002 15.701007060593964L22.7765625 15.82143871830774L22.7765625 16.423597006876605L22.672265625 16.483812835733495L23.193749999999998 16.784891980017925L23.193749999999998 17.025755295445475" stroke-width="0.03" stroke="#000000" fill="none"/>
<path d="M23.298046874999997 16.72467615116104L22.7765625 16.423597006876605" stroke-width="0.03" stroke="#000000" fill="none"/>
<path d="M22.672265625 16.483812835733495L22.672265625 15.881654547164626L22.7765625 15.82143871830774" stroke-width="0.03" stroke="#000000" fill="none"/>
<path d="M22.672265625 15.881654547164626L22.463671875 15.761222889450853" stroke-width="0.03" stroke="#000000" fill="none"/>
<path d="M22.7765625 16.062302033735286L23.298046874999997 15.761222889450853L23.298046874999997 11.305251554041233L23.089453125000002 11.184819896327458" stroke-width="0.03" stroke="#000000" fill="none"/>
<path d="M23.298046874999997 11.305251554041233L23.089453125000002 11.425683211755006L23.089453125000002 10.823524923186138L20.2734375 9.197697544050197L18.81328125 10.04071914804661L18.81328125 11.365467382898117L19.647656249999997 11.847194013753214" stroke-width="0.03" stroke="#000000" fill="none"/>
<path d="M20.2734375 11.485899040611892L18.6046875 12.44935230232208L18.6046875 12.690215617749628" stroke-width="0.03" stroke="#000000" fill="none"/>
<path d="M18.708984375 12.750431446606514L15.162890625 14.797769627740664L15.684375 15.098848772025098L15.684375 15.94187037602151L15.371484375 16.122517862592172L14.85 15.82143871830774L14.328515625 16.122517862592172L14.015625 15.94187037602151L14.015625 15.098848772025098L14.537109375 14.797769627740664L10.991015625000001 12.750431446606514L11.303906249999999 12.569783960035853L14.85 14.617122141170004L18.396093750000002 12.569783960035853L18.708984375 12.750431446606514L18.708984375 13.473021392889155" stroke-width="0.03" stroke="#000000" fill="none"/>
<path d="M18.6046875 13.412805564032269L17.666015625 13.95474802374425L17.666015625 14.195611339171796L18.500390624999998 14.67733797002689L18.500390624999998 16.122517862592172L16.72734375 17.146186953159244L16.72734375 17.26661861087302L18.500390624999998 16.24294952030595L18.396093750000002 16.18273369144906" stroke-width="0.03" stroke="#000000" fill="none"/>
<path d="M18.500390624999998 16.24294952030595L18.500390624999998 18.892445990008962L15.05859375 20.879568342286227" stroke-width="0.03" stroke="#000000" fill="none"/>
<path d="M14.85 21L14.85 18.109640214869437L14.64140625 18.23007187258321" stroke-width="0.03" stroke="#000000" fill="none"/>
<path d="M14.85 18.109640214869437L15.05859375 18.23007187258321" stroke-width="0.03" stroke="#000000" fill="none"/>
<path d="M15.47578125 17.86877689944189L15.47578125 16.423597006876605L16.623046875 15.761222889450853L16.623046875 15.399927916309531L16.72734375 15.339712087452645L15.89296875 14.85798545659755L15.788671874999999 14.918201285454437L15.788671874999999 15.279496258595758L15.684375 15.339712087452645" stroke-width="0.03" stroke="#000000" fill="none"/>
<path d="M15.788671874999999 15.279496258595758L16.623046875 15.761222889450853" stroke-width="0.03" stroke="#000000" fill="none"/>
<path d="M16.72734375 15.701007060593964L18.500390624999998 14.67733797002689" stroke-width="0.03" stroke="#000000" fill="none"/>
<path d="M17.666015625 14.195611339171796L16.205859375 15.038632943168212" stroke-width="0.03" stroke="#000000" fill="none"/>
<path d="M15.788671874999999 14.918201285454437L16.623046875 15.399927916309531" stroke-width="0.03" stroke="#000000" fill="none"/>
<path d="M16.72734375 15.339712087452645L16.72734375 15.701007060593964" stroke-width="0.03" stroke="#000000" fill="none"/>
<path d="M15.684375 15.098848772025098L15.371484375 15.279496258595758L14.85 14.978417114311325L14.328515625 15.279496258595758L14.015625 15.098848772025098" stroke-width="0.03" stroke="#000000" fill="none"/>
<path d="M13.911328125 15.279496258595758L13.076953125000001 15.761222889450853L14.224218749999999 16.423597006876605L14.85 16.062302033735286L15.47578125 16.423597006876605" stroke-width="0.03" stroke="#000000" fill="none"/>
<path d="M15.371484375 16.122517862592172L15.371484375 15.279496258595758" stroke-width="0.03" stroke="#000000" fill="none"/>
<path d="M14.85 14.978417114311325L14.85 15.82143871830774" stroke-width="0.03" stroke="#000000" fill="none"/>
<path d="M14.85 16.062302033735286L14.85 17.50748192630057" stroke-width="0.03" stroke="#000000" fill="none"/>
<path d="M14.224218749999999 17.86877689944189L14.224218749999999 16.423597006876605" stroke-width="0.03" stroke="#000000" fill="none"/>
<path d="M14.328515625 16.122517862592172L14.328515625 15.279496258595758" stroke-width="0.03" stroke="#000000" fill="none"/>
<path d="M14.015625 15.339712087452645L13.911328125 15.279496258595758L13.911328125 14.918201285454437L13.80703125 14.85798545659755L12.97265625 15.339712087452645L12.97265625 15.701007060593964L11.199609375 14.67733797002689L11.199609375 16.122517862592172L12.97265625 17.146186953159244L12.97265625 17.26661861087302L11.199609375 16.24294952030595L11.303906249999999 16.18273369144906" stroke-width="0.03" stroke="#000000" fill="none"/>
<path d="M11.199609375 16.24294952030595L11.199609375 18.892445990008962L14.64140625 20.879568342286227" stroke-width="0.03" stroke="#000000" fill="none"/>
<path d="M14.85 21.240863315427546L14.85 25.215108019982072L12.555468750000001 26.53985625483358L12.451171875 26.479640425976694" stroke-width="0.03" stroke="#000000" fill="none"/>
<path d="M12.451171875 26.600072083690467L11.199609375 27.322662029973106L10.365234375 26.840935399118013" stroke-width="0.03" stroke="#000000" fill="none"/>
<path d="M10.156640625 26.96136705683179L13.389843749999999 28.828057751395274L14.85 27.985036147398862L16.31015625 28.828057751395274L19.543359374999998 26.96136705683179L19.334765625 26.840935399118013L19.334765625 25.154892191125185" stroke-width="0.03" stroke="#000000" fill="none"/>
<path d="M19.647656249999997 24.974244704554525L18.81328125 25.45597133540962L18.500390624999998 25.27532384883896L18.500390624999998 27.322662029973106L19.334765625 26.840935399118013" stroke-width="0.03" stroke="#000000" fill="none"/>
<path d="M19.543359374999998 26.96136705683179L19.543359374999998 28.04525197625575L16.31015625 29.91194267081924L14.85 29.068921066822824L14.85 27.985036147398862" stroke-width="0.03" stroke="#000000" fill="none"/>
<path d="M14.85 29.068921066822824L13.389843749999999 29.91194267081924L10.156640625 28.04525197625575" stroke-width="0.03" stroke="#000000" fill="none"/>
<path d="M9.63515625 28.46676277825396L9.63515625 24.37208641598566L10.156640625 24.673165560270093L10.88671875 24.251654758271883L10.88671875 23.890359785130563L10.365234375 23.58928064084613L9.63515625 24.010791442844337L10.156640625 24.311870587128773L10.156640625 24.673165560270093" stroke-width="0.03" stroke="#000000" fill="none"/>
<path d="M10.05234375 24.85381304684075L10.88671875 25.335539677695845L10.88671875 25.45597133540962L10.05234375 24.974244704554525" stroke-width="0.03" stroke="#000000" fill="none"/>
<path d="M10.365234375 24.673165560270093L10.365234375 24.55273390255632" stroke-width="0.03" stroke="#000000" fill="none"/>
<path d="M10.156640625 24.311870587128773L10.88671875 23.890359785130563" stroke-width="0.03" stroke="#000000" fill="none"/>
<path d="M11.199609375 23.830143956273677L10.573828124999999 23.468848983132357L10.573828124999999 22.746259036849715L9.4265625 22.08388491942396L9.113671875 22.264532405994622L9.113671875 23.227985667704807L9.009374999999999 23.167769838847924" stroke-width="0.03" stroke="#000000" fill="none"/>
<path d="M9.113671875 23.227985667704807L9.4265625 23.047338181134148L9.4265625 22.08388491942396" stroke-width="0.03" stroke="#000000" fill="none"/>
<path d="M9.113671875 22.264532405994622L9.009374999999999 22.204316577137735" stroke-width="0.03" stroke="#000000" fill="none"/>
<path d="M9.4265625 23.047338181134148L9.530859375 23.107554009991038" stroke-width="0.03" stroke="#000000" fill="none"/>
<path d="M9.322265625 23.227985667704807L10.05234375 22.8064748657066L10.365234375 22.98712235227726L10.365234375 23.58928064084613" stroke-width="0.03" stroke="#000000" fill="none"/>
<path d="M10.573828124999999 23.468848983132357L11.825390624999999 22.746259036849715L11.825390624999999 22.023669090567072L10.678125 21.36129497314132L10.782421874999999 21.301079144284433L12.346874999999999 22.204316577137735" stroke-width="0.03" stroke="#000000" fill="none"/>
<path d="M11.825390624999999 22.023669090567072L10.573828124999999 22.746259036849715" stroke-width="0.03" stroke="#000000" fill="none"/>
<path d="M10.365234375 22.98712235227726L9.63515625 23.40863315427547L9.63515625 24.010791442844337" stroke-width="0.03" stroke="#000000" fill="none"/>
<path d="M9.322265625 23.830143956273677L9.322265625 23.227985667704807L9.63515625 23.40863315427547" stroke-width="0.03" stroke="#000000" fill="none"/>
<path d="M9.322265625 23.830143956273677L5.776171874999998 21.782805775139526" stroke-width="0.03" stroke="#000000" fill="none"/>
<path d="M5.567578125 22.023669090567072L3.898828125 21.060215828856883" stroke-width="0.03" stroke="#000000" fill="none"/>
<path d="M3.3773437500000005 19.795683422862265L3.898828125 19.49460427857783" stroke-width="0.03" stroke="#000000" fill="none"/>
<path d="M3.3773437500000005 19.795683422862265L3.3773437500000005 23.047338181134148" stroke-width="0.03" stroke="#000000" fill="none"/>
<path d="M4.107421875 23.227985667704807L5.88046875 22.204316577137735" stroke-width="0.03" stroke="#000000" fill="none"/>
<path d="M6.297656249999999 22.44517989256528L4.524609375000001 23.468848983132357L4.524609375000001 25.51618716426651L5.3589843749999995 25.9979137951216L6.089062499999999 25.576402993123395" stroke-width="0.03" stroke="#000000" fill="none"/>
<path d="M6.4019531249999995 25.75705047969405L6.4019531249999995 25.877482137407824L6.5062500000000005 25.937697966264714" stroke-width="0.03" stroke="#000000" fill="none"/>
<path d="M6.4019531249999995 25.877482137407824L5.671875 26.29899293940603" stroke-width="0.03" stroke="#000000" fill="none"/>
<path d="M5.567578125 26.238777110549147L5.567578125 25.877482137407824" stroke-width="0.03" stroke="#000000" fill="none"/>
<path d="M5.671875 25.817266308550938L5.671875 26.419424597119807L5.984765624999999 26.600072083690467" stroke-width="0.03" stroke="#000000" fill="none"/>
<path d="M6.089062499999999 26.53985625483358L5.567578125 26.238777110549147" stroke-width="0.03" stroke="#000000" fill="none"/>
<path d="M5.3589843749999995 25.9979137951216L5.3589843749999995 24.914028875697635" stroke-width="0.03" stroke="#000000" fill="none"/>
<path d="M5.776171874999998 24.673165560270093L4.524609375000001 25.39575550655273L4.107421875 25.154892191125185L4.107421875 23.227985667704807L4.524609375000001 23.468848983132357" stroke-width="0.03" stroke="#000000" fill="none"/>
<path d="M5.776171874999998 23.468848983132357L6.5062500000000005 23.047338181134148" stroke-width="0.03" stroke="#000000" fill="none"/>
<path d="M6.5062500000000005 22.8064748657066L6.714843749999999 22.686043207992828" stroke-width="0.03" stroke="#000000" fill="none"/>
<path d="M6.610546875 22.62582737913594L6.610546875 22.746259036849715" stroke-width="0.03" stroke="#000000" fill="none"/>
<path d="M6.5062500000000005 22.8064748657066L8.175 23.76992812741679L8.175 24.85381304684075L9.113671875 25.39575550655273L9.113671875 27.322662029973106L9.322265625 27.202230372259333" stroke-width="0.03" stroke="#000000" fill="none"/>
<path d="M9.21796875 27.26244620111622L9.322265625 27.322662029973106" stroke-width="0.03" stroke="#000000" fill="none"/>
<path d="M9.322265625 27.443093687686883L8.175 26.780719570261127L8.175 27.623741174257542L6.5062500000000005 26.660287912547354L6.5062500000000005 25.817266308550938L5.776171874999998 25.39575550655273L5.776171874999998 23.468848983132357L6.5062500000000005 23.890359785130563L6.5062500000000005 22.565611550279055" stroke-width="0.03" stroke="#000000" fill="none"/>
<path d="M7.5492187500000005 21L8.80078125 20.277410053717357L10.573828124999999 21.301079144284433L10.678125 21.240863315427546L8.905078125 20.21719422486047L11.199609375 18.892445990008962" stroke-width="0.03" stroke="#000000" fill="none"/>
<path d="M13.076953125000001 17.326834439729907L13.181249999999999 17.26661861087302" stroke-width="0.03" stroke="#000000" fill="none"/>
<path d="M13.076953125000001 15.761222889450853L13.076953125000001 15.399927916309531L13.911328125 14.918201285454437" stroke-width="0.03" stroke="#000000" fill="none"/>
<path d="M13.494140625 15.038632943168212L12.033984375000001 14.195611339171796L12.033984375000001 13.95474802374425L11.095312499999999 13.412805564032269L7.862109374999999 15.279496258595758L7.862109374999999 16.965539466588588" stroke-width="0.03" stroke="#000000" fill="none"/>
<path d="M7.5492187500000005 17.146186953159244L6.9234374999999995 16.784891980017925" stroke-width="0.03" stroke="#000000" fill="none"/>
<path d="M7.236328125 16.24294952030595L7.862109374999999 16.60424449344727" stroke-width="0.03" stroke="#000000" fill="none"/>
<path d="M7.027734374999999 15.881654547164626L6.9234374999999995 15.82143871830774" stroke-width="0.03" stroke="#000000" fill="none"/>
<path d="M7.862109374999999 15.279496258595758L8.80078125 15.82143871830774L12.033984375000001 13.95474802374425" stroke-width="0.03" stroke="#000000" fill="none"/>
<path d="M12.033984375000001 14.195611339171796L11.199609375 14.67733797002689" stroke-width="0.03" stroke="#000000" fill="none"/>
<path d="M10.991015625000001 13.473021392889155L10.991015625000001 12.750431446606514" stroke-width="0.03" stroke="#000000" fill="none"/>
<path d="M11.095312499999999 12.690215617749628L11.095312499999999 12.44935230232208L9.4265625 11.485899040611892" stroke-width="0.03" stroke="#000000" fill="none"/>
<path d="M8.070703124999998 11.666546527182554L10.88671875 10.04071914804661" stroke-width="0.03" stroke="#000000" fill="none"/>
<path d="M11.408203125 10.582661607758592L13.076953125000001 9.619208346048403L13.494140625 9.86007166147595L13.494140625 11.305251554041233" stroke-width="0.03" stroke="#000000" fill="none"/>
<path d="M13.494140625 10.823524923186138L14.4328125 10.281582463474159L14.4328125 11.124604067470571" stroke-width="0.03" stroke="#000000" fill="none"/>
<path d="M14.745703124999999 11.305251554041233L14.85 11.245035725184344L14.85 10.40201412118793" stroke-width="0.03" stroke="#000000" fill="none"/>
<path d="M14.745703124999999 10.341798292331045L14.4328125 10.522445778901705" stroke-width="0.03" stroke="#000000" fill="none"/>
<path d="M14.4328125 10.642877436615478L14.954296875 10.341798292331045L15.267187499999999 10.522445778901705" stroke-width="0.03" stroke="#000000" fill="none"/>
<path d="M15.267187499999999 10.642877436615478L14.745703124999999 10.341798292331045" stroke-width="0.03" stroke="#000000" fill="none"/>
<path d="M14.4328125 10.281582463474159L13.598437500000001 9.799855832619063L11.825390624999999 10.823524923186138L11.408203125 10.582661607758592L11.408203125 12.629999788892741" stroke-width="0.03" stroke="#000000" fill="none"/>
<path d="M11.095312499999999 12.44935230232208L9.739453124999999 13.232158077461609L9.739453124999999 14.195611339171796" stroke-width="0.03" stroke="#000000" fill="none"/>
<path d="M9.739453124999999 13.232158077461609L8.070703124999998 12.26870481575142" stroke-width="0.03" stroke="#000000" fill="none"/>
<path d="M8.80078125 15.82143871830774L8.80078125 17.50748192630057" stroke-width="0.03" stroke="#000000" fill="none"/>
<path d="M8.905078125 20.21719422486047L8.905078125 20.337625882574244" stroke-width="0.03" stroke="#000000" fill="none"/>
<path d="M10.782421874999999 21.301079144284433L10.782421874999999 21.42151080199821" stroke-width="0.03" stroke="#000000" fill="none"/>
<path d="M11.825390624999999 22.746259036849715L12.451171875 23.107554009991038" stroke-width="0.03" stroke="#000000" fill="none"/>
<path d="M12.451171875 24.311870587128773L12.555468750000001 24.37208641598566" stroke-width="0.03" stroke="#000000" fill="none"/>
<path d="M12.555468750000001 24.492518073699433L12.451171875 24.55273390255632L12.451171875 26.600072083690467" stroke-width="0.03" stroke="#000000" fill="none"/>
<path d="M12.555468750000001 26.53985625483358L12.555468750000001 24.492518073699433" stroke-width="0.03" stroke="#000000" fill="none"/>
<path d="M11.199609375 25.154892191125185L10.88671875 25.335539677695845" stroke-width="0.03" stroke="#000000" fill="none"/>
<path d="M10.88671875 25.45597133540962L11.199609375 25.27532384883896L11.199609375 27.322662029973106" stroke-width="0.03" stroke="#000000" fill="none"/>
<path d="M11.512500000000001 28.828057751395274L10.678125 29.30978438225037L10.678125 31.236690905670745L10.156640625 31.53777004995518L10.156640625 33.22381325794801L10.678125 32.92273411366358L10.678125 33.163597429091126L14.537109375 30.935611761386316L14.537109375 30.333453472817446" stroke-width="0.03" stroke="#000000" fill="none"/>
<path d="M14.328515625 30.333453472817446L14.85 30.032374328533013L15.371484375 30.333453472817446L15.371484375 30.45388513053122L15.580078125 30.333453472817446L15.580078125 30.21302181510367L14.85 29.791511013105463L14.119921875 30.21302181510367L14.119921875 30.333453472817446L14.328515625 30.45388513053122L14.85 30.152805986246786L15.371484375 30.45388513053122" stroke-width="0.03" stroke="#000000" fill="none"/>
<path d="M15.371484375 30.333453472817446L15.580078125 30.21302181510367" stroke-width="0.03" stroke="#000000" fill="none"/>
<path d="M15.162890625 30.333453472817446L15.162890625 30.935611761386316L19.021874999999998 33.163597429091126L19.23046875 33.043165771377346" stroke-width="0.03" stroke="#000000" fill="none"/>
<path d="M19.021874999999998 32.92273411366358L19.021874999999998 33.163597429091126" stroke-width="0.03" stroke="#000000" fill="none"/>
<path d="M19.021874999999998 32.92273411366358L19.543359374999998 33.22381325794801L22.359375 31.597985878812068L22.359375 29.91194267081924L21.212109374999997 29.249568553393484L20.377734375 29.731295184248577" stroke-width="0.03" stroke="#000000" fill="none"/>
<path d="M20.377734375 30.45388513053122L19.021874999999998 31.236690905670745L19.543359374999998 31.53777004995518L19.543359374999998 33.22381325794801" stroke-width="0.03" stroke="#000000" fill="none"/>
<path d="M19.543359374999998 31.53777004995518L22.359375 29.91194267081924" stroke-width="0.03" stroke="#000000" fill="none"/>
<path d="M22.150781249999998 29.189352724536597L23.819531249999997 28.22589946282641L23.819531249999997 27.744172831971316L22.567968750000002 27.021582885688677" stroke-width="0.03" stroke="#000000" fill="none"/>
<path d="M22.98515625 27.26244620111622L23.923828125000004 26.72050374140424L23.923828125000004 27.68395700311443L22.150781249999998 28.7076260936815L20.377734375 27.68395700311443" stroke-width="0.03" stroke="#000000" fill="none"/>
<path d="M20.377734375 27.443093687686883L21.525000000000002 26.780719570261127L21.525000000000002 27.623741174257542" stroke-width="0.03" stroke="#000000" fill="none"/>
<path d="M20.586328125 27.322662029973106L20.377734375 27.202230372259333" stroke-width="0.03" stroke="#000000" fill="none"/>
<path d="M20.377734375 27.322662029973106L20.482031250000002 27.26244620111622" stroke-width="0.03" stroke="#000000" fill="none"/>
<path d="M20.377734375 28.165683633969522L22.150781249999998 29.189352724536597L22.150781249999998 28.7076260936815" stroke-width="0.03" stroke="#000000" fill="none"/>
<path d="M20.377734375 28.526978607110845L19.021874999999998 29.30978438225037L18.1875 28.828057751395274" stroke-width="0.03" stroke="#000000" fill="none"/>
<path d="M19.021874999999998 29.30978438225037L19.021874999999998 31.236690905670745" stroke-width="0.03" stroke="#000000" fill="none"/>
<path d="M20.377734375 30.45388513053122L20.377734375 28.526978607110845L20.169140624999997 28.40654694939707" stroke-width="0.03" stroke="#000000" fill="none"/>
<path d="M20.064843749999998 28.46676277825396L19.439062500000002 28.105467805112635" stroke-width="0.03" stroke="#000000" fill="none"/>
<path d="M18.500390624999998 27.322662029973106L17.248828125 26.600072083690467L17.248828125 24.55273390255632L17.14453125 24.492518073699433L17.14453125 26.53985625483358L14.85 25.215108019982072" stroke-width="0.03" stroke="#000000" fill="none"/>
<path d="M17.14453125 24.37208641598566L17.248828125 24.311870587128773" stroke-width="0.03" stroke="#000000" fill="none"/>
<path d="M18.500390624999998 23.830143956273677L18.500390624999998 25.154892191125185L18.81328125 25.335539677695845L19.647656249999997 24.85381304684075L19.647656249999997 24.974244704554525" stroke-width="0.03" stroke="#000000" fill="none"/>
<path d="M19.647656249999997 24.85381304684075L19.334765625 24.673165560270093L18.500390624999998 25.154892191125185" stroke-width="0.03" stroke="#000000" fill="none"/>
<path d="M18.81328125 25.335539677695845L18.81328125 25.45597133540962" stroke-width="0.03" stroke="#000000" fill="none"/>
<path d="M19.334765625 24.673165560270093L19.334765625 24.55273390255632" stroke-width="0.03" stroke="#000000" fill="none"/>
<path d="M19.543359374999998 24.673165560270093L19.543359374999998 24.311870587128773L20.064843749999998 24.010791442844337L20.064843749999998 23.40863315427547L20.377734375 23.227985667704807" stroke-width="0.03" stroke="#000000" fill="none"/>
<path d="M20.2734375 23.047338181134148L20.169140624999997 23.107554009991038" stroke-width="0.03" stroke="#000000" fill="none"/>
<path d="M20.064843749999998 23.40863315427547L19.334765625 22.98712235227726L19.334765625 23.58928064084613L20.064843749999998 24.010791442844337" stroke-width="0.03" stroke="#000000" fill="none"/>
<path d="M19.543359374999998 24.311870587128773L18.81328125 23.890359785130563" stroke-width="0.03" stroke="#000000" fill="none"/>
<path d="M20.377734375 24.55273390255632L20.690625 24.37208641598566L21.525000000000002 24.85381304684075" stroke-width="0.03" stroke="#000000" fill="none"/>
<path d="M20.690625 24.37208641598566L20.690625 24.010791442844337" stroke-width="0.03" stroke="#000000" fill="none"/>
<path d="M21.31640625 23.649496469703017L21.525000000000002 23.76992812741679" stroke-width="0.03" stroke="#000000" fill="none"/>
<path d="M20.690625 23.167769838847924L20.690625 22.204316577137735L20.377734375 22.023669090567072L22.150781249999998 21L22.150781249999998 21.96345326171019" stroke-width="0.03" stroke="#000000" fill="none"/>
<path d="M22.359375 22.08388491942396L22.359375 18.350503530296983L23.298046874999997 17.808561070585L21.837890625 16.965539466588588L21.837890625 15.279496258595758L18.6046875 13.412805564032269" stroke-width="0.03" stroke="#000000" fill="none"/>
<path d="M18.291796875 12.629999788892741L18.291796875 10.582661607758592L16.623046875 9.619208346048403L16.205859375 9.86007166147595L16.205859375 11.305251554041233" stroke-width="0.03" stroke="#000000" fill="none"/>
<path d="M16.205859375 10.823524923186138L15.267187499999999 10.281582463474159L15.267187499999999 11.124604067470571" stroke-width="0.03" stroke="#000000" fill="none"/>
<path d="M14.954296875 11.305251554041233L14.85 11.245035725184344" stroke-width="0.03" stroke="#000000" fill="none"/>
<path d="M14.85 11.365467382898117L15.580078125 10.943956580899911L17.248828125 11.9074098426101L17.248828125 12.750431446606514" stroke-width="0.03" stroke="#000000" fill="none"/>
<path d="M17.457421875 12.87086310432029L15.788671874999999 13.834316366030475L14.85 13.292373906318495L13.911328125 13.834316366030475L12.242578125 12.87086310432029L12.242578125 13.111726419747836" stroke-width="0.03" stroke="#000000" fill="none"/>
<path d="M12.242578125 12.991294762034062L12.138281249999999 13.051510590890949" stroke-width="0.03" stroke="#000000" fill="none"/>
<path d="M12.033984375000001 12.991294762034062L13.181249999999999 12.328920644608306L12.451171875 11.9074098426101L14.119921875 10.943956580899911L14.85 11.365467382898117" stroke-width="0.03" stroke="#000000" fill="none"/>
<path d="M15.267187499999999 10.281582463474159L16.1015625 9.799855832619063L17.874609375000002 10.823524923186138L17.874609375000002 12.87086310432029" stroke-width="0.03" stroke="#000000" fill="none"/>
<path d="M17.666015625 12.991294762034062L16.51875 12.328920644608306L17.248828125 11.9074098426101" stroke-width="0.03" stroke="#000000" fill="none"/>
<path d="M17.457421875 12.87086310432029L17.457421875 13.111726419747836" stroke-width="0.03" stroke="#000000" fill="none"/>
<path d="M17.56171875 13.051510590890949L17.457421875 12.991294762034062" stroke-width="0.03" stroke="#000000" fill="none"/>
<path d="M17.666015625 13.95474802374425L20.89921875 15.82143871830774L20.89921875 17.50748192630057L22.359375 18.350503530296983" stroke-width="0.03" stroke="#000000" fill="none"/>
<path d="M23.298046874999997 17.808561070585L23.298046874999997 21.54194245971198" stroke-width="0.03" stroke="#000000" fill="none"/>
<path d="M22.150781249999998 21L20.89921875 20.277410053717357L19.126171875 21.301079144284433L19.021874999999998 21.240863315427546L20.794921875 20.21719422486047L20.794921875 20.337625882574244" stroke-width="0.03" stroke="#000000" fill="none"/>
<path d="M20.794921875 20.21719422486047L18.500390624999998 18.892445990008962" stroke-width="0.03" stroke="#000000" fill="none"/>
<path d="M16.623046875 17.326834439729907L16.51875 17.26661861087302" stroke-width="0.03" stroke="#000000" fill="none"/>
<path d="M15.162890625 14.436474654599342L14.85 14.255827168028683L14.537109375 14.436474654599342" stroke-width="0.03" stroke="#000000" fill="none"/>
<path d="M14.85 14.255827168028683L14.85 13.292373906318495" stroke-width="0.03" stroke="#000000" fill="none"/>
<path d="M13.911328125 13.834316366030475L13.911328125 14.075179681458023" stroke-width="0.03" stroke="#000000" fill="none"/>
<path d="M13.076953125000001 15.399927916309531L12.97265625 15.339712087452645" stroke-width="0.03" stroke="#000000" fill="none"/>
<path d="M12.451171875 12.750431446606514L12.451171875 11.9074098426101" stroke-width="0.03" stroke="#000000" fill="none"/>
<path d="M11.825390624999999 12.87086310432029L11.825390624999999 10.823524923186138" stroke-width="0.03" stroke="#000000" fill="none"/>
<path d="M15.788671874999999 13.834316366030475L15.788671874999999 14.075179681458023" stroke-width="0.03" stroke="#000000" fill="none"/>
<path d="M18.6046875 12.44935230232208L19.960546875000002 13.232158077461609L19.960546875000002 14.195611339171796" stroke-width="0.03" stroke="#000000" fill="none"/>
<path d="M19.960546875000002 13.232158077461609L21.629296875 12.26870481575142L21.629296875 11.666546527182554L23.089453125000002 10.823524923186138" stroke-width="0.03" stroke="#000000" fill="none"/>
<path d="M21.629296875 11.666546527182554L18.81328125 10.04071914804661" stroke-width="0.03" stroke="#000000" fill="none"/>
<path d="M18.291796875 10.582661607758592L17.874609375000002 10.823524923186138" stroke-width="0.03" stroke="#000000" fill="none"/>
<path d="M20.2734375 11.485899040611892L21.629296875 12.26870481575142" stroke-width="0.03" stroke="#000000" fill="none"/>
<path d="M21.837890625 15.279496258595758L20.89921875 15.82143871830774" stroke-width="0.03" stroke="#000000" fill="none"/>
<path d="M21.837890625 16.60424449344727L22.463671875 16.24294952030595" stroke-width="0.03" stroke="#000000" fill="none"/>
<path d="M22.7765625 16.784891980017925L22.150781249999998 17.146186953159244" stroke-width="0.03" stroke="#000000" fill="none"/>
<path d="M21.837890625 16.965539466588588L20.89921875 17.50748192630057" stroke-width="0.03" stroke="#000000" fill="none"/>
<path d="M18.917578125000002 21.301079144284433L18.917578125000002 21.42151080199821" stroke-width="0.03" stroke="#000000" fill="none"/>
<path d="M20.2734375 22.08388491942396L20.586328125 22.264532405994622L20.586328125 23.227985667704807" stroke-width="0.03" stroke="#000000" fill="none"/>
<path d="M20.586328125 22.264532405994622L20.690625 22.204316577137735" stroke-width="0.03" stroke="#000000" fill="none"/>
<path d="M20.377734375 25.27532384883896L20.586328125 25.39575550655273" stroke-width="0.03" stroke="#000000" fill="none"/>
<path d="M23.193749999999998 25.937697966264714L23.298046874999997 25.877482137407824L23.298046874999997 25.75705047969405" stroke-width="0.03" stroke="#000000" fill="none"/>
<path d="M23.298046874999997 25.877482137407824L24.028125 26.29899293940603" stroke-width="0.03" stroke="#000000" fill="none"/>
<path d="M24.132421875000002 26.238777110549147L23.610937500000002 26.53985625483358" stroke-width="0.03" stroke="#000000" fill="none"/>
<path d="M23.715234375 26.600072083690467L24.028125 26.419424597119807L24.028125 25.817266308550938" stroke-width="0.03" stroke="#000000" fill="none"/>
<path d="M24.132421875000002 25.877482137407824L24.132421875000002 26.238777110549147" stroke-width="0.03" stroke="#000000" fill="none"/>
<path d="M24.341015624999997 25.9979137951216L23.610937500000002 25.576402993123395" stroke-width="0.03" stroke="#000000" fill="none"/>
<path d="M23.193749999999998 26.29899293940603L23.923828125000004 26.72050374140424" stroke-width="0.03" stroke="#000000" fill="none"/>
<path d="M26.322656249999998 23.047338181134148L26.322656249999998 19.795683422862265L25.801171875 19.49460427857783" stroke-width="0.03" stroke="#000000" fill="none"/>
<path d="M26.322656249999998 19.795683422862265L27.7828125 18.95266181886585" stroke-width="0.03" stroke="#000000" fill="none"/>
<path d="M27.469921874999997 18.77201433229519L27.469921874999997 18.531151016867643" stroke-width="0.03" stroke="#000000" fill="none"/>
<path d="M25.175390624999995 21.42151080199821L25.175390624999995 22.384964063708395L26.322656249999998 23.047338181134148" stroke-width="0.03" stroke="#000000" fill="none"/>
<path d="M17.248828125 26.479640425976694L17.14453125 26.53985625483358" stroke-width="0.03" stroke="#000000" fill="none"/>
<path d="M16.31015625 28.828057751395274L16.31015625 29.91194267081924" stroke-width="0.03" stroke="#000000" fill="none"/>
<path d="M15.162890625 29.972158499676127L15.162890625 29.249568553393484" stroke-width="0.03" stroke="#000000" fill="none"/>
<path d="M14.537109375 29.249568553393484L14.537109375 29.972158499676127" stroke-width="0.03" stroke="#000000" fill="none"/>
<path d="M14.85 30.032374328533013L14.85 30.152805986246786" stroke-width="0.03" stroke="#000000" fill="none"/>
<path d="M14.328515625 30.333453472817446L14.328515625 30.45388513053122" stroke-width="0.03" stroke="#000000" fill="none"/>
<path d="M14.328515625 30.333453472817446L14.119921875 30.21302181510367" stroke-width="0.03" stroke="#000000" fill="none"/>
<path d="M13.389843749999999 29.91194267081924L13.389843749999999 28.828057751395274" stroke-width="0.03" stroke="#000000" fill="none"/>
<path d="M10.678125 29.30978438225037L9.322265625 28.526978607110845L9.322265625 30.45388513053122L10.678125 31.236690905670745" stroke-width="0.03" stroke="#000000" fill="none"/>
<path d="M10.156640625 31.53777004995518L7.340624999999999 29.91194267081924L8.487890625 29.249568553393484L9.322265625 29.731295184248577" stroke-width="0.03" stroke="#000000" fill="none"/>
<path d="M9.322265625 28.526978607110845L9.530859375 28.40654694939707" stroke-width="0.03" stroke="#000000" fill="none"/>
<path d="M9.322265625 28.165683633969522L7.5492187500000005 29.189352724536597L5.88046875 28.22589946282641L5.88046875 27.744172831971316L7.13203125 27.021582885688677" stroke-width="0.03" stroke="#000000" fill="none"/>
<path d="M6.714843749999999 27.26244620111622L5.776171874999998 26.72050374140424L5.776171874999998 27.68395700311443L7.5492187500000005 28.7076260936815L9.322265625 27.68395700311443" stroke-width="0.03" stroke="#000000" fill="none"/>
<path d="M8.905078125 27.202230372259333L8.175 27.623741174257542" stroke-width="0.03" stroke="#000000" fill="none"/>
<path d="M7.5492187500000005 28.7076260936815L7.5492187500000005 29.189352724536597" stroke-width="0.03" stroke="#000000" fill="none"/>
<path d="M7.340624999999999 29.91194267081924L7.340624999999999 31.597985878812068L10.156640625 33.22381325794801" stroke-width="0.03" stroke="#000000" fill="none"/>
<path d="M10.46953125 33.043165771377346L10.678125 33.163597429091126" stroke-width="0.03" stroke="#000000" fill="none"/>
<path d="M9.113671875 25.39575550655273L9.322265625 25.27532384883896" stroke-width="0.03" stroke="#000000" fill="none"/>
<path d="M9.322265625 24.55273390255632L9.009374999999999 24.37208641598566L8.175 24.85381304684075" stroke-width="0.03" stroke="#000000" fill="none"/>
<path d="M9.009374999999999 24.37208641598566L9.009374999999999 24.010791442844337" stroke-width="0.03" stroke="#000000" fill="none"/>
<path d="M8.38359375 23.649496469703017L8.175 23.76992812741679" stroke-width="0.03" stroke="#000000" fill="none"/>
<path d="M6.5062500000000005 26.29899293940603L5.776171874999998 26.72050374140424" stroke-width="0.03" stroke="#000000" fill="none"/>
<path d="M3.3773437500000005 19.795683422862265L1.9171874999999992 18.95266181886585" stroke-width="0.03" stroke="#000000" fill="none"/>
<path d="M2.414597800786388 3.383983116796798L2.6128837055103125 3.1316192380572576" stroke-width="0.03" stroke="#000000" fill="none"/>
<path d="M2.7390656448800828 3.0054372986874878L2.7390656448800828 3.383983116796798L2.8652475842498526 3.383983116796798L2.9193255582654682 3.3659571254582596L2.955377540942546 3.3299051427811825L2.9734035322810843 3.293853160104105L2.991429523619623 3.2397751860884894L2.991429523619623 3.149645229395796L2.9734035322810843 3.0955672553801805L2.955377540942546 3.0595152727031034L2.9193255582654682 3.023463290026026L2.8652475842498526 3.0054372986874878L2.7390656448800828 3.0054372986874878" stroke-width="0.03" stroke="#000000" fill="none"/>
<path d="M2.414597800786388 3.1316192380572576L2.6128837055103125 3.383983116796798" stroke-width="0.03" stroke="#000000" fill="none"/>
<path d="M3.0995854716508546 3.3118791514426436L3.117611462989393 3.3479311341197207L3.1356374543279317 3.3659571254582596L3.1897154283435474 3.383983116796798L3.243793402359163 3.383983116796798L3.297871376374779 3.3659571254582596L3.333923359051856 3.3299051427811825L3.3519493503903948 3.2758271687655665L3.3519493503903948 3.2397751860884894L3.333923359051856 3.1856972120728733L3.3158973677133177 3.167671220734335L3.2798453850362406 3.149645229395796L3.225767411020625 3.149645229395796L3.333923359051856 3.0054372986874878L3.1356374543279317 3.0054372986874878" stroke-width="0.03" stroke="#000000" fill="none"/>
<path d="M3.6403652118070124 3.0054372986874878L3.4601052984216265 3.257801177427028L3.730495168499705 3.257801177427028" stroke-width="0.03" stroke="#000000" fill="none"/>
<path d="M3.6403652118070124 3.383983116796798L3.6403652118070124 3.0054372986874878" stroke-width="0.03" stroke="#000000" fill="none"/>
<path d="M3.8206251251923984 3.0054372986874878L4.072989003931939 3.0054372986874878L3.8927290905465526 3.383983116796798" stroke-width="0.03" stroke="#000000" fill="none"/>
<path d="M4.199170943301709 3.3299051427811825L4.217196934640247 3.3659571254582596L4.2712749086558635 3.383983116796798L4.3073268913329406 3.383983116796798L4.361404865348556 3.3659571254582596L4.397456848025634 3.3118791514426436L4.415482839364172 3.221749194749951L4.415482839364172 3.1316192380572576L4.397456848025634 3.0595152727031034L4.361404865348556 3.023463290026026L4.3073268913329406 3.0054372986874878L4.289300899994402 3.0054372986874878L4.235222925978786 3.023463290026026L4.199170943301709 3.0595152727031034L4.18114495196317 3.113593246718719L4.18114495196317 3.1316192380572576L4.199170943301709 3.1856972120728733L4.235222925978786 3.221749194749951L4.289300899994402 3.2397751860884894L4.3073268913329406 3.2397751860884894L4.361404865348556 3.221749194749951L4.397456848025634 3.1856972120728733L4.415482839364172 3.1316192380572576" stroke-width="0.03" stroke="#000000" fill="none"/>
<path d="M4.812054648812021 3.0955672553801805L4.794028657473483 3.0595152727031034L4.757976674796406 3.023463290026026L4.7219246921193285 3.0054372986874878L4.649820726765174 3.0054372986874878L4.613768744088096 3.023463290026026L4.57771676141102 3.0595152727031034L4.559690770072481 3.0955672553801805L4.541664778733942 3.149645229395796L4.541664778733942 3.2397751860884894L4.559690770072481 3.293853160104105L4.57771676141102 3.3299051427811825L4.613768744088096 3.3659571254582596L4.649820726765174 3.383983116796798L4.7219246921193285 3.383983116796798L4.757976674796406 3.3659571254582596L4.794028657473483 3.3299051427811825L4.812054648812021 3.293853160104105" stroke-width="0.03" stroke="#000000" fill="none"/>
<path d="M5.100470510228639 3.383983116796798L5.100470510228639 3.0054372986874878L4.920210596843253 3.257801177427028L5.190600466921332 3.257801177427028" stroke-width="0.03" stroke="#000000" fill="none"/>
<path d="M5.388886371645256 3.0054372986874878L5.33480839762964 3.023463290026026L5.298756414952564 3.077541264041642L5.280730423614025 3.167671220734335L5.280730423614025 3.221749194749951L5.298756414952564 3.3118791514426436L5.33480839762964 3.3659571254582596L5.388886371645256 3.383983116796798L5.424938354322334 3.383983116796798L5.479016328337949 3.3659571254582596L5.5150683110150265 3.3118791514426436L5.533094302353565 3.221749194749951L5.533094302353565 3.167671220734335L5.5150683110150265 3.077541264041642L5.479016328337949 3.023463290026026L5.424938354322334 3.0054372986874878L5.388886371645256 3.0054372986874878" stroke-width="0.03" stroke="#000000" fill="none"/>
<path d="M5.558333333333334 2.2291666666666665L5.441666666666666 1.8208333333333333" stroke-width="0.03" stroke="#000000" fill="none"/>
<path d="M5.675 1.8208333333333333L5.558333333333334 2.2291666666666665" stroke-width="0.03" stroke="#000000" fill="none"/>
<path d="M5.791666666666666 2.2291666666666665L5.675 1.8208333333333333" stroke-width="0.03" stroke="#000000" fill="none"/>
<path d="M5.908333333333333 1.8208333333333333L5.791666666666666 2.2291666666666665" stroke-width="0.03" stroke="#000000" fill="none"/>
<path d="M6.141666666666667 2.2291666666666665L6.141666666666667 1.7333333333333334L6.1708333333333325 1.6458333333333333L6.229166666666666 1.6166666666666667L6.2875 1.6166666666666667" stroke-width="0.03" stroke="#000000" fill="none"/>
<path d="M6.4624999999999995 1.6166666666666667L6.4624999999999995 2.2291666666666665" stroke-width="0.03" stroke="#000000" fill="none"/>
<path d="M6.258333333333333 1.8208333333333333L6.054166666666666 1.8208333333333333" stroke-width="0.03" stroke="#000000" fill="none"/>
<path d="M7.016666666666666 1.8208333333333333L7.016666666666666 2.2291666666666665" stroke-width="0.03" stroke="#000000" fill="none"/>
<path d="M7.016666666666666 2.1416666666666666L6.958333333333333 2.2L6.8999999999999995 2.2291666666666665L6.812499999999999 2.2291666666666665L6.754166666666666 2.2L6.695833333333333 2.1416666666666666L6.666666666666666 2.0541666666666667L6.666666666666666 1.9958333333333333L6.695833333333333 1.9083333333333332L6.754166666666666 1.85L6.812499999999999 1.8208333333333333L6.8999999999999995 1.8208333333333333L6.958333333333333 1.85L7.016666666666666 1.9083333333333332" stroke-width="0.03" stroke="#000000" fill="none"/>
<path d="M7.249999999999999 2.1125L7.541666666666666 1.8208333333333333" stroke-width="0.03" stroke="#000000" fill="none"/>
<path d="M7.366666666666666 1.9958333333333333L7.570833333333333 2.2291666666666665" stroke-width="0.03" stroke="#000000" fill="none"/>
<path d="M7.716666666666666 1.9958333333333333L8.066666666666666 1.9958333333333333L8.066666666666666 1.9375L8.0375 1.8791666666666667L8.008333333333333 1.85L7.949999999999999 1.8208333333333333L7.8625 1.8208333333333333L7.804166666666666 1.85L7.745833333333333 1.9083333333333332L7.716666666666666 1.9958333333333333L7.716666666666666 2.0541666666666667L7.745833333333333 2.1416666666666666L7.804166666666666 2.2L7.8625 2.2291666666666665L7.949999999999999 2.2291666666666665L8.008333333333333 2.2L8.066666666666666 2.1416666666666666" stroke-width="0.03" stroke="#000000" fill="none"/>
<path d="M8.270833333333332 1.7625L8.270833333333332 1.7333333333333334L8.299999999999999 1.675L8.329166666666666 1.6458333333333333L8.3875 1.6166666666666667L8.504166666666666 1.6166666666666667L8.5625 1.6458333333333333L8.591666666666665 1.675L8.620833333333334 1.7333333333333334L8.620833333333334 1.7916666666666665L8.591666666666665 1.85L8.533333333333331 1.9375L8.241666666666667 2.2291666666666665L8.649999999999999 2.2291666666666665" stroke-width="0.03" stroke="#000000" fill="none"/>
<path d="M9.237499999999999 2.533333333333333L1.5 2.533333333333333" stroke-width="0.03" stroke="#000000" fill="none"/>
<path d="M2.1166666666666667 2.2291666666666665L2.1166666666666667 1.8208333333333333" stroke-width="0.03" stroke="#000000" fill="none"/>
<path d="M2.0875 1.6166666666666667L2.1166666666666667 1.6458333333333333L2.145833333333333 1.6166666666666667L2.1166666666666667 1.5875L2.0875 1.6166666666666667" stroke-width="0.03" stroke="#000000" fill="none"/>
<path d="M2.3208333333333333 2.1416666666666666L2.35 2.2L2.4375 2.2291666666666665L2.525 2.2291666666666665L2.6125 2.2L2.6416666666666666 2.1416666666666666L2.6416666666666666 2.1125L2.6125 2.0541666666666667L2.5541666666666667 2.025L2.408333333333333 1.9958333333333333L2.35 1.9666666666666666L2.3208333333333333 1.9083333333333332L2.35 1.85L2.4375 1.8208333333333333L2.525 1.8208333333333333L2.6125 1.85L2.6416666666666666 1.9083333333333332" stroke-width="0.03" stroke="#000000" fill="none"/>
<path d="M2.9625 1.8208333333333333L2.904166666666667 1.85L2.845833333333333 1.9083333333333332L2.8166666666666664 1.9958333333333333L2.8166666666666664 2.0541666666666667L2.845833333333333 2.1416666666666666L2.904166666666667 2.2L2.9625 2.2291666666666665L3.05 2.2291666666666665L3.1083333333333334 2.2L3.1666666666666665 2.1416666666666666L3.1958333333333333 2.0541666666666667L3.1958333333333333 1.9958333333333333L3.1666666666666665 1.9083333333333332L3.1083333333333334 1.85L3.05 1.8208333333333333L2.9625 1.8208333333333333" stroke-width="0.03" stroke="#000000" fill="none"/>
<path d="M3.283333333333333 2.2874999999999996L3.75 2.2874999999999996" stroke-width="0.03" stroke="#000000" fill="none"/>
<path d="M3.8375 2.1416666666666666L3.8666666666666663 2.2L3.9541666666666666 2.2291666666666665L4.041666666666666 2.2291666666666665L4.129166666666666 2.2L4.158333333333333 2.1416666666666666L4.158333333333333 2.1125L4.129166666666666 2.0541666666666667L4.070833333333333 2.025L3.925 1.9958333333333333L3.8666666666666663 1.9666666666666666L3.8375 1.9083333333333332L3.8666666666666663 1.85L3.9541666666666666 1.8208333333333333L4.041666666666666 1.8208333333333333L4.129166666666666 1.85L4.158333333333333 1.9083333333333332" stroke-width="0.03" stroke="#000000" fill="none"/>
<path d="M4.3625 1.9375L4.449999999999999 1.85L4.508333333333333 1.8208333333333333L4.595833333333333 1.8208333333333333L4.654166666666667 1.85L4.683333333333334 1.9375L4.683333333333334 2.2291666666666665" stroke-width="0.03" stroke="#000000" fill="none"/>
<path d="M4.3625 2.2291666666666665L4.3625 1.8208333333333333" stroke-width="0.03" stroke="#000000" fill="none"/>
<path d="M5.033333333333333 1.8208333333333333L4.975 1.85L4.916666666666666 1.9083333333333332L4.887499999999999 1.9958333333333333L4.887499999999999 2.0541666666666667L4.916666666666666 2.1416666666666666L4.975 2.2L5.033333333333333 2.2291666666666665L5.120833333333334 2.2291666666666665L5.179166666666666 2.2L5.2375 2.1416666666666666L5.266666666666666 2.0541666666666667L5.266666666666666 1.9958333333333333L5.2375 1.9083333333333332L5.179166666666666 1.85L5.120833333333334 1.8208333333333333L5.033333333333333 1.8208333333333333" stroke-width="0.03" stroke="#000000" fill="none"/>
<path d="M7.249999999999999 1.6166666666666667L7.249999999999999 2.2291666666666665" stroke-width="0.03" stroke="#000000" fill="none"/>
<path d="M2.1622339220468474 3.0054372986874878L2.1081559480312317 3.023463290026026L2.072103965354154 3.077541264041642L2.0540779740156156 3.167671220734335L2.0540779740156156 3.221749194749951L2.072103965354154 3.3118791514426436L2.1081559480312317 3.3659571254582596L2.1622339220468474 3.383983116796798L2.1982859047239245 3.383983116796798L2.2523638787395406 3.3659571254582596L2.2884158614166177 3.3118791514426436L2.3064418527551562 3.221749194749951L2.3064418527551562 3.167671220734335L2.2884158614166177 3.077541264041642L2.2523638787395406 3.023463290026026L2.1982859047239245 3.0054372986874878L2.1622339220468474 3.0054372986874878" stroke-width="0.03" stroke="#000000" fill="none"/>
</svg>
