<?xml version="1.0" standalone="no"?>
<svg width="29.7cm" height="42cm" version="1.1" xmlns="http://www.w3.org/2000/svg" viewBox="0.0 0.0 29.700001 42.000001">
<path d="M11.616796874999999 8.414891768910667L12.033984375000001 8.174028453483121L13.389843749999999 8.956834228622649L13.389843749999999 9.077265886336422L12.97265625 9.31812920176397L12.451171875 9.017050057479535L9.21796875 10.883740752043025L9.21796875 11.004172409756798L9.322265625 11.064388238613684" stroke-width="0.03" stroke="#000000" fill="none"/>
<path d="M9.322265625 11.184819896327458L9.322265625 10.823524923186138L10.991015625000001 11.786978184896327L10.991015625000001 12.027841500323873L10.46953125 11.72676235603944L10.365234375 11.786978184896327" stroke-width="0.03" stroke="#000000" fill="none"/>
<path d="M10.991015625000001 11.786978184896327L14.85 9.558992517191516L18.708984375 11.786978184896327L18.708984375 12.027841500323873L19.23046875 11.72676235603944L19.334765625 11.786978184896327" stroke-width="0.03" stroke="#000000" fill="none"/>
<path d="M18.708984375 11.786978184896327L20.377734375 10.823524923186138L20.377734375 11.184819896327458" stroke-width="0.03" stroke="#000000" fill="none"/>
<path d="M20.377734375 11.064388238613684L20.482031250000002 11.004172409756798L20.482031250000002 10.883740752043025L17.248828125 9.017050057479535L16.72734375 9.31812920176397L16.31015625 9.077265886336422L16.31015625 8.956834228622649L17.666015625 8.174028453483121L18.083203125 8.414891768910667L18.083203125 9.49877668833463" stroke-width="0.03" stroke="#000000" fill="none"/>
<path d="M18.083203125 8.414891768910667L16.72734375 9.197697544050197L16.72734375 9.31812920176397" stroke-width="0.03" stroke="#000000" fill="none"/>
<path d="M16.72734375 9.197697544050197L16.31015625 8.956834228622649" stroke-width="0.03" stroke="#000000" fill="none"/>
<path d="M15.997265625 8.655755084338216L15.89296875 8.595539255481327L14.85 9.197697544050197L13.80703125 8.595539255481327L13.702734374999999 8.655755084338216" stroke-width="0.03" stroke="#000000" fill="none"/>
<path d="M13.389843749999999 8.475107597767554L12.97265625 8.715970913195102" stroke-width="0.03" stroke="#000000" fill="none"/>
<path d="M13.389843749999999 8.956834228622649L12.97265625 9.197697544050197L12.97265625 9.31812920176397" stroke-width="0.03" stroke="#000000" fill="none"/>
<path d="M12.97265625 9.197697544050197L11.616796874999999 8.414891768910667L11.616796874999999 9.49877668833463" stroke-width="0.03" stroke="#000000" fill="none"/>
<path d="M12.033984375000001 11.425683211755006L10.991015625000001 12.027841500323873" stroke-width="0.03" stroke="#000000" fill="none"/>
<path d="M11.303906249999999 12.328920644608306L9.63515625 13.292373906318495L9.63515625 13.653668879459815L8.279296875 12.87086310432029L7.4449218749999995 13.352589735175382" stroke-width="0.03" stroke="#000000" fill="none"/>
<path d="M6.714843749999999 12.931078933177174L6.714843749999999 11.606330698325666L8.38359375 10.642877436615478L11.303906249999999 12.328920644608306L11.303906249999999 12.569783960035853L10.991015625000001 12.750431446606514L10.991015625000001 13.352589735175382" stroke-width="0.03" stroke="#000000" fill="none"/>
<path d="M11.199609375 13.473021392889155L11.303906249999999 13.412805564032269L12.7640625 14.255827168028683" stroke-width="0.03" stroke="#000000" fill="none"/>
<path d="M12.555468750000001 14.255827168028683L11.616796874999999 14.797769627740664" stroke-width="0.03" stroke="#000000" fill="none"/>
<path d="M11.825390624999999 14.918201285454437L12.242578125 14.67733797002689" stroke-width="0.03" stroke="#000000" fill="none"/>
<path d="M12.242578125 14.556906312313117L13.181249999999999 14.014963852601136L10.991015625000001 12.750431446606514" stroke-width="0.03" stroke="#000000" fill="none"/>
<path d="M10.573828124999999 13.111726419747836L9.63515625 13.653668879459815" stroke-width="0.03" stroke="#000000" fill="none"/>
<path d="M9.63515625 13.292373906318495L6.714843749999999 11.606330698325666" stroke-width="0.03" stroke="#000000" fill="none"/>
<path d="M6.193359375 12.629999788892741L4.62890625 13.533237221746042L4.62890625 15.098848772025098L3.2730468750000017 15.881654547164626L3.2730468750000017 17.688129412871227L6.9234374999999995 19.795683422862265L7.027734374999999 19.735467594005378" stroke-width="0.03" stroke="#000000" fill="none"/>
<path d="M6.9234374999999995 19.795683422862265L6.9234374999999995 17.989208557155663L7.027734374999999 17.928992728298773L6.193359375 17.44726609744368L6.193359375 16.36338117801972L6.5062500000000005 16.18273369144906L6.5062500000000005 15.82143871830774L7.4449218749999995 15.279496258595758L8.279296875 15.761222889450853L8.279296875 15.640791231737078L4.62890625 13.533237221746042" stroke-width="0.03" stroke="#000000" fill="none"/>
<path d="M4.62890625 15.098848772025098L9.63515625 17.989208557155663L9.63515625 17.62791358401434L6.5062500000000005 15.82143871830774" stroke-width="0.03" stroke="#000000" fill="none"/>
<path d="M6.193359375 16.36338117801972L9.322265625 18.16985604372632L9.63515625 17.989208557155663" stroke-width="0.03" stroke="#000000" fill="none"/>
<path d="M9.739453124999999 18.16985604372632L9.84375 18.109640214869437L14.745703124999999 20.939784171143113L14.745703124999999 20.337625882574244" stroke-width="0.03" stroke="#000000" fill="none"/>
<path d="M14.85 20.277410053717357L14.119921875 20.698920855715564L9.739453124999999 18.16985604372632L9.739453124999999 19.13330930543651" stroke-width="0.03" stroke="#000000" fill="none"/>
<path d="M9.322265625 18.892445990008962L9.322265625 18.16985604372632" stroke-width="0.03" stroke="#000000" fill="none"/>
<path d="M9.84375 18.109640214869437L9.84375 17.989208557155663L10.678125 17.50748192630057" stroke-width="0.03" stroke="#000000" fill="none"/>
<path d="M10.260937499999999 17.26661861087302L9.63515625 17.62791358401434" stroke-width="0.03" stroke="#000000" fill="none"/>
<path d="M9.84375 17.989208557155663L14.224218749999999 20.518273369144907L14.85 20.156978396003588L15.47578125 20.518273369144907L19.85625 17.989208557155663L19.85625 18.109640214869437L14.954296875 20.939784171143113L14.954296875 20.337625882574244" stroke-width="0.03" stroke="#000000" fill="none"/>
<path d="M14.85 20.277410053717357L15.580078125 20.698920855715564L19.960546875000002 18.16985604372632L19.960546875000002 19.13330930543651" stroke-width="0.03" stroke="#000000" fill="none"/>
<path d="M20.377734375 18.892445990008962L20.377734375 18.16985604372632L23.506640625 16.36338117801972L23.506640625 17.44726609744368L22.672265625 17.928992728298773L22.7765625 17.989208557155663L22.7765625 19.795683422862265L26.426953124999997 17.688129412871227L26.426953124999997 15.881654547164626L25.07109375 15.098848772025098L25.07109375 13.533237221746042L23.506640625 12.629999788892741L19.85625 14.737553798883777L19.85625 14.85798545659755" stroke-width="0.03" stroke="#000000" fill="none"/>
<path d="M19.85625 14.737553798883777L21.420703125 15.640791231737078L25.07109375 13.533237221746042" stroke-width="0.03" stroke="#000000" fill="none"/>
<path d="M25.07109375 15.098848772025098L20.064843749999998 17.989208557155663L20.064843749999998 17.62791358401434L19.439062500000002 17.26661861087302" stroke-width="0.03" stroke="#000000" fill="none"/>
<path d="M19.021874999999998 17.50748192630057L19.85625 17.989208557155663" stroke-width="0.03" stroke="#000000" fill="none"/>
<path d="M19.85625 18.109640214869437L19.960546875000002 18.16985604372632" stroke-width="0.03" stroke="#000000" fill="none"/>
<path d="M20.064843749999998 17.989208557155663L20.377734375 18.16985604372632" stroke-width="0.03" stroke="#000000" fill="none"/>
<path d="M20.064843749999998 17.62791358401434L23.193749999999998 15.82143871830774L23.193749999999998 16.18273369144906L23.506640625 16.36338117801972" stroke-width="0.03" stroke="#000000" fill="none"/>
<path d="M23.193749999999998 15.82143871830774L22.255078124999997 15.279496258595758L21.420703125 15.761222889450853L21.420703125 15.640791231737078" stroke-width="0.03" stroke="#000000" fill="none"/>
<path d="M21.629296875 15.881654547164626L15.89296875 19.193525134293395L14.85 18.59136684572453L13.80703125 19.193525134293395L8.070703124999998 15.881654547164626L8.070703124999998 16.0020862048784L13.80703125 19.31395679200717L14.328515625 19.01287764772274L14.328515625 19.615035936291605L14.119921875 19.49460427857783L14.119921875 19.13330930543651" stroke-width="0.03" stroke="#000000" fill="none"/>
<path d="M13.80703125 19.193525134293395L13.80703125 19.31395679200717" stroke-width="0.03" stroke="#000000" fill="none"/>
<path d="M14.328515625 19.615035936291605L14.85 19.31395679200717L14.85 18.59136684572453" stroke-width="0.03" stroke="#000000" fill="none"/>
<path d="M15.371484375 19.01287764772274L15.371484375 19.615035936291605L15.580078125 19.49460427857783L15.580078125 19.13330930543651" stroke-width="0.03" stroke="#000000" fill="none"/>
<path d="M15.371484375 19.01287764772274L15.89296875 19.31395679200717L21.629296875 16.0020862048784L21.629296875 15.881654547164626L18.917578125000002 14.31604299688557L14.85 16.66446032230415L10.782421874999999 14.31604299688557L8.070703124999998 15.881654547164626" stroke-width="0.03" stroke="#000000" fill="none"/>
<path d="M8.279296875 15.640791231737078L9.84375 14.737553798883777L9.84375 14.85798545659755" stroke-width="0.03" stroke="#000000" fill="none"/>
<path d="M9.84375 14.737553798883777L6.193359375 12.629999788892741" stroke-width="0.03" stroke="#000000" fill="none"/>
<path d="M9.21796875 10.883740752043025L9.322265625 10.943956580899911" stroke-width="0.03" stroke="#000000" fill="none"/>
<path d="M10.573828124999999 13.111726419747836L12.555468750000001 14.255827168028683L12.555468750000001 14.376258825742458" stroke-width="0.03" stroke="#000000" fill="none"/>
<path d="M12.242578125 14.556906312313117L12.242578125 15.038632943168212L13.494140625 15.761222889450853L13.494140625 15.881654547164626" stroke-width="0.03" stroke="#000000" fill="none"/>
<path d="M13.494140625 15.761222889450853L13.389843749999999 15.82143871830774" stroke-width="0.03" stroke="#000000" fill="none"/>
<path d="M13.911328125 15.520359574023306L14.85 14.978417114311325L15.788671874999999 15.520359574023306L15.788671874999999 16.122517862592172" stroke-width="0.03" stroke="#000000" fill="none"/>
<path d="M16.205859375 15.881654547164626L16.205859375 15.761222889450853L17.457421875 15.038632943168212L17.457421875 14.556906312313117L16.51875 14.014963852601136L18.708984375 12.750431446606514L18.396093750000002 12.569783960035853L18.396093750000002 12.328920644608306L21.31640625 10.642877436615478L22.98515625 11.606330698325666L22.98515625 12.931078933177174" stroke-width="0.03" stroke="#000000" fill="none"/>
<path d="M22.255078124999997 13.352589735175382L21.420703125 12.87086310432029L20.064843749999998 13.653668879459815L19.126171875 13.111726419747836L17.14453125 14.255827168028683L17.14453125 14.376258825742458" stroke-width="0.03" stroke="#000000" fill="none"/>
<path d="M17.14453125 14.255827168028683L18.083203125 14.797769627740664" stroke-width="0.03" stroke="#000000" fill="none"/>
<path d="M17.874609375000002 14.918201285454437L17.457421875 14.67733797002689" stroke-width="0.03" stroke="#000000" fill="none"/>
<path d="M17.457421875 14.556906312313117L15.788671874999999 15.520359574023306" stroke-width="0.03" stroke="#000000" fill="none"/>
<path d="M16.205859375 15.761222889450853L16.31015625 15.82143871830774" stroke-width="0.03" stroke="#000000" fill="none"/>
<path d="M14.85 16.66446032230415L14.85 14.978417114311325" stroke-width="0.03" stroke="#000000" fill="none"/>
<path d="M13.911328125 15.520359574023306L13.911328125 16.122517862592172" stroke-width="0.03" stroke="#000000" fill="none"/>
<path d="M13.911328125 15.520359574023306L12.242578125 14.556906312313117" stroke-width="0.03" stroke="#000000" fill="none"/>
<path d="M12.555468750000001 11.72676235603944L12.868359374999999 11.54611486946878L14.85 12.690215617749628L16.831640625 11.54611486946878L17.14453125 11.72676235603944" stroke-width="0.03" stroke="#000000" fill="none"/>
<path d="M17.666015625 11.425683211755006L14.85 13.051510590890949L12.033984375000001 11.425683211755006" stroke-width="0.03" stroke="#000000" fill="none"/>
<path d="M13.80703125 11.004172409756798L14.85 10.40201412118793L14.85 9.558992517191516" stroke-width="0.03" stroke="#000000" fill="none"/>
<path d="M14.85 9.31812920176397L16.31015625 8.475107597767554L16.72734375 8.715970913195102" stroke-width="0.03" stroke="#000000" fill="none"/>
<path d="M14.85 9.31812920176397L13.389843749999999 8.475107597767554" stroke-width="0.03" stroke="#000000" fill="none"/>
<path d="M14.85 10.40201412118793L15.89296875 11.004172409756798L15.89296875 12.08805732918076" stroke-width="0.03" stroke="#000000" fill="none"/>
<path d="M15.05859375 12.569783960035853L15.05859375 11.485899040611892L14.85 11.365467382898117L14.64140625 11.485899040611892L14.64140625 12.569783960035853" stroke-width="0.03" stroke="#000000" fill="none"/>
<path d="M14.85 12.690215617749628L14.85 11.365467382898117" stroke-width="0.03" stroke="#000000" fill="none"/>
<path d="M15.05859375 11.485899040611892L15.89296875 11.004172409756798" stroke-width="0.03" stroke="#000000" fill="none"/>
<path d="M14.64140625 11.485899040611892L13.80703125 11.004172409756798L13.80703125 12.08805732918076" stroke-width="0.03" stroke="#000000" fill="none"/>
<path d="M16.9359375 14.255827168028683L18.396093750000002 13.412805564032269L18.500390624999998 13.473021392889155" stroke-width="0.03" stroke="#000000" fill="none"/>
<path d="M18.708984375 13.352589735175382L18.708984375 12.750431446606514" stroke-width="0.03" stroke="#000000" fill="none"/>
<path d="M18.396093750000002 12.328920644608306L20.064843749999998 13.292373906318495L20.064843749999998 13.653668879459815" stroke-width="0.03" stroke="#000000" fill="none"/>
<path d="M20.064843749999998 13.292373906318495L22.98515625 11.606330698325666" stroke-width="0.03" stroke="#000000" fill="none"/>
<path d="M20.482031250000002 10.883740752043025L20.377734375 10.943956580899911" stroke-width="0.03" stroke="#000000" fill="none"/>
<path d="M18.708984375 12.027841500323873L17.666015625 11.425683211755006" stroke-width="0.03" stroke="#000000" fill="none"/>
<path d="M22.567968750000002 17.62791358401434L16.831640625 20.939784171143113L16.831640625 21.54194245971198L16.31015625 21.240863315427546L16.31015625 21.843021603996412L15.788671874999999 22.14410074828085L15.788671874999999 22.384964063708395L16.1015625 22.565611550279055" stroke-width="0.03" stroke="#000000" fill="none"/>
<path d="M16.31015625 22.44517989256528L15.788671874999999 22.746259036849715L15.788671874999999 29.37000021110726L15.89296875 29.430216039964147L18.6046875 27.864604489685092L18.6046875 23.167769838847924L22.672265625 20.819352513429337L22.672265625 17.688129412871227L22.567968750000002 17.62791358401434" stroke-width="0.03" stroke="#000000" fill="none"/>
<path d="M22.672265625 17.688129412871227L16.9359375 21L16.831640625 20.939784171143113" stroke-width="0.03" stroke="#000000" fill="none"/>
<path d="M16.9359375 21L16.9359375 22.204316577137735L15.89296875 22.8064748657066L15.788671874999999 22.746259036849715" stroke-width="0.03" stroke="#000000" fill="none"/>
<path d="M15.89296875 22.8064748657066L15.89296875 29.430216039964147" stroke-width="0.03" stroke="#000000" fill="none"/>
<path d="M16.1015625 29.30978438225037L16.1015625 30.273237643960556L15.162890625 30.815180103672542L14.85 30.63453261710188L14.537109375 30.815180103672542L13.598437500000001 30.273237643960556L13.598437500000001 29.30978438225037L13.494140625 29.37000021110726L13.494140625 33.58510823108933L11.9296875 32.68187079823603L11.9296875 28.46676277825396L12.033984375000001 28.40654694939707" stroke-width="0.03" stroke="#000000" fill="none"/>
<path d="M11.9296875 28.46676277825396L13.494140625 29.37000021110726" stroke-width="0.03" stroke="#000000" fill="none"/>
<path d="M13.80703125 29.430216039964147L13.911328125 29.37000021110726L13.911328125 22.746259036849715L13.389843749999999 22.44517989256528L13.911328125 22.14410074828085L13.911328125 22.384964063708395L13.598437500000001 22.565611550279055" stroke-width="0.03" stroke="#000000" fill="none"/>
<path d="M13.80703125 22.8064748657066L13.911328125 22.746259036849715" stroke-width="0.03" stroke="#000000" fill="none"/>
<path d="M13.80703125 22.8064748657066L13.80703125 29.430216039964147L11.095312499999999 27.864604489685092L11.095312499999999 23.167769838847924L7.027734374999999 20.819352513429337L7.027734374999999 17.688129412871227L7.13203125 17.62791358401434L12.868359374999999 20.939784171143113L12.868359374999999 21.54194245971198L13.389843749999999 21.240863315427546L13.389843749999999 21.843021603996412L12.7640625 22.204316577137735L13.80703125 22.8064748657066" stroke-width="0.03" stroke="#000000" fill="none"/>
<path d="M13.911328125 22.14410074828085L13.389843749999999 21.843021603996412" stroke-width="0.03" stroke="#000000" fill="none"/>
<path d="M13.389843749999999 21.240863315427546L13.181249999999999 21.120431657713773L12.868359374999999 21.301079144284433" stroke-width="0.03" stroke="#000000" fill="none"/>
<path d="M12.7640625 21L12.868359374999999 20.939784171143113" stroke-width="0.03" stroke="#000000" fill="none"/>
<path d="M12.7640625 21L12.7640625 22.204316577137735" stroke-width="0.03" stroke="#000000" fill="none"/>
<path d="M12.7640625 21L7.027734374999999 17.688129412871227" stroke-width="0.03" stroke="#000000" fill="none"/>
<path d="M6.9234374999999995 17.989208557155663L3.2730468750000017 15.881654547164626" stroke-width="0.03" stroke="#000000" fill="none"/>
<path d="M3.7945312499999995 17.989208557155663L2.647265625000001 18.651582674581416L2.647265625000001 20.57848919800179L5.567578125 22.264532405994622L5.776171874999998 22.14410074828085L5.776171874999998 21.782805775139526L6.297656249999999 21.481726630855093" stroke-width="0.03" stroke="#000000" fill="none"/>
<path d="M6.5062500000000005 21.602158288568866L6.5062500000000005 21.72258994628264L7.96640625 22.565611550279055" stroke-width="0.03" stroke="#000000" fill="none"/>
<path d="M7.862109374999999 22.384964063708395L7.96640625 22.32474823485151" stroke-width="0.03" stroke="#000000" fill="none"/>
<path d="M7.862109374999999 22.384964063708395L7.862109374999999 21.301079144284433" stroke-width="0.03" stroke="#000000" fill="none"/>
<path d="M8.070703124999998 21.42151080199821L8.070703124999998 21.903237432853302" stroke-width="0.03" stroke="#000000" fill="none"/>
<path d="M7.96640625 21.96345326171019L8.38359375 21.72258994628264L9.63515625 22.44517989256528L9.739453124999999 22.384964063708395" stroke-width="0.03" stroke="#000000" fill="none"/>
<path d="M9.63515625 22.32474823485151L9.63515625 22.44517989256528" stroke-width="0.03" stroke="#000000" fill="none"/>
<path d="M9.63515625 22.926906523420374L10.156640625 22.62582737913594" stroke-width="0.03" stroke="#000000" fill="none"/>
<path d="M9.63515625 22.926906523420374L9.63515625 24.010791442844337L10.573828124999999 24.55273390255632L10.573828124999999 26.479640425976694L10.991015625000001 26.238777110549147L10.991015625000001 24.793597217983862L11.095312499999999 24.73338138912698" stroke-width="0.03" stroke="#000000" fill="none"/>
<path d="M10.991015625000001 24.793597217983862L11.095312499999999 24.85381304684075" stroke-width="0.03" stroke="#000000" fill="none"/>
<path d="M10.573828124999999 24.55273390255632L11.095312499999999 24.251654758271883" stroke-width="0.03" stroke="#000000" fill="none"/>
<path d="M11.095312499999999 23.167769838847924L9.63515625 24.010791442844337" stroke-width="0.03" stroke="#000000" fill="none"/>
<path d="M9.63515625 22.926906523420374L7.96640625 21.96345326171019L7.96640625 23.047338181134148L5.776171874999998 21.782805775139526" stroke-width="0.03" stroke="#000000" fill="none"/>
<path d="M5.567578125 22.264532405994622L5.567578125 20.337625882574244L2.647265625000001 18.651582674581416" stroke-width="0.03" stroke="#000000" fill="none"/>
<path d="M4.524609375000001 18.410719359153866L4.524609375000001 19.37417262086406L5.88046875 20.156978396003588L5.88046875 21.240863315427546L7.862109374999999 22.384964063708395" stroke-width="0.03" stroke="#000000" fill="none"/>
<path d="M6.610546875 24.55273390255632L5.671875 25.0946763622683L5.671875 26.29899293940603L6.714843749999999 26.901151227974903L7.653515625 26.359208768262917" stroke-width="0.03" stroke="#000000" fill="none"/>
<path d="M7.653515625 25.39575550655273L6.714843749999999 25.937697966264714L6.714843749999999 26.901151227974903" stroke-width="0.03" stroke="#000000" fill="none"/>
<path d="M6.714843749999999 25.937697966264714L6.5062500000000005 25.817266308550938L6.5062500000000005 25.576402993123395L7.4449218749999995 25.034460533411412" stroke-width="0.03" stroke="#000000" fill="none"/>
<path d="M7.653515625 25.154892191125185L6.5062500000000005 25.817266308550938" stroke-width="0.03" stroke="#000000" fill="none"/>
<path d="M6.5062500000000005 25.576402993123395L5.671875 25.0946763622683" stroke-width="0.03" stroke="#000000" fill="none"/>
<path d="M5.671875 24.010791442844337L5.671875 23.649496469703017" stroke-width="0.03" stroke="#000000" fill="none"/>
<path d="M5.671875 24.010791442844337L7.653515625 25.154892191125185L7.653515625 27.443093687686883L7.96640625 27.623741174257542" stroke-width="0.03" stroke="#000000" fill="none"/>
<path d="M7.96640625 28.22589946282641L7.96640625 24.974244704554525L5.150390625 23.348417325418584L5.150390625 22.14410074828085L4.62890625 21.843021603996412L4.62890625 21.72258994628264" stroke-width="0.03" stroke="#000000" fill="none"/>
<path d="M4.941796875 22.264532405994622L5.150390625 22.14410074828085" stroke-width="0.03" stroke="#000000" fill="none"/>
<path d="M4.941796875 22.264532405994622L4.941796875 26.72050374140424L8.80078125 28.94848940910905L8.80078125 30.87539593252943L9.113671875 30.694748445958766" stroke-width="0.03" stroke="#000000" fill="none"/>
<path d="M9.009374999999999 30.754964274815652L9.009374999999999 30.87539593252943L8.905078125 30.935611761386316L5.671875 29.068921066822824L5.671875 28.46676277825396L5.254687500000001 28.22589946282641L5.150390625 28.286115291683295L5.150390625 29.851726841962353L5.567578125 30.0925901573899L6.5062500000000005 29.550647697677917" stroke-width="0.03" stroke="#000000" fill="none"/>
<path d="M5.567578125 30.0925901573899L5.567578125 28.526978607110845L5.150390625 28.286115291683295" stroke-width="0.03" stroke="#000000" fill="none"/>
<path d="M4.733203124999998 28.165683633969522L4.62890625 28.105467805112635L4.62890625 26.901151227974903L3.5859375 26.29899293940603L3.5859375 26.17856128169226" stroke-width="0.03" stroke="#000000" fill="none"/>
<path d="M3.2730468750000017 25.9979137951216L3.2730468750000017 25.51618716426651" stroke-width="0.03" stroke="#000000" fill="none"/>
<path d="M3.6902343750000006 25.75705047969405L3.7945312499999995 25.696834650837165L3.7945312499999995 25.215108019982072L3.2730468750000017 24.914028875697635L3.2730468750000017 21.18064748657066L3.3773437500000005 21.120431657713773L3.481640624999999 21.18064748657066" stroke-width="0.03" stroke="#000000" fill="none"/>
<path d="M3.3773437500000005 21.240863315427546L3.2730468750000017 21.18064748657066" stroke-width="0.03" stroke="#000000" fill="none"/>
<path d="M3.2730468750000017 21.301079144284433L3.5859375 21.120431657713773" stroke-width="0.03" stroke="#000000" fill="none"/>
<path d="M3.2730468750000017 21.301079144284433L4.941796875 22.264532405994622" stroke-width="0.03" stroke="#000000" fill="none"/>
<path d="M5.567578125 20.337625882574244L5.88046875 20.156978396003588" stroke-width="0.03" stroke="#000000" fill="none"/>
<path d="M3.2730468750000017 23.95057561398745L2.3343750000000005 24.492518073699433L2.3343750000000005 24.974244704554525L3.6902343750000006 25.75705047969405L3.6902343750000006 25.27532384883896L3.7945312499999995 25.215108019982072" stroke-width="0.03" stroke="#000000" fill="none"/>
<path d="M3.6902343750000006 25.27532384883896L2.3343750000000005 24.492518073699433" stroke-width="0.03" stroke="#000000" fill="none"/>
<path d="M3.2730468750000017 25.9979137951216L4.733203124999998 26.840935399118013L4.733203124999998 28.526978607110845L5.150390625 28.767841922538388" stroke-width="0.03" stroke="#000000" fill="none"/>
<path d="M5.567578125 28.526978607110845L5.671875 28.46676277825396" stroke-width="0.03" stroke="#000000" fill="none"/>
<path d="M4.941796875 26.72050374140424L5.671875 26.29899293940603" stroke-width="0.03" stroke="#000000" fill="none"/>
<path d="M7.96640625 28.22589946282641L9.009374999999999 28.828057751395274L9.009374999999999 29.430216039964147L9.113671875 29.490431868821034" stroke-width="0.03" stroke="#000000" fill="none"/>
<path d="M8.80078125 28.94848940910905L9.009374999999999 28.828057751395274" stroke-width="0.03" stroke="#000000" fill="none"/>
<path d="M9.113671875 28.40654694939707L9.322265625 28.286115291683295L9.63515625 28.46676277825396L10.156640625 28.165683633969522" stroke-width="0.03" stroke="#000000" fill="none"/>
<path d="M10.156640625 27.92482031854198L10.05234375 27.864604489685092L10.05234375 26.17856128169226" stroke-width="0.03" stroke="#000000" fill="none"/>
<path d="M10.156640625 26.359208768262917L10.260937499999999 26.29899293940603" stroke-width="0.03" stroke="#000000" fill="none"/>
<path d="M10.156640625 26.359208768262917L10.156640625 28.647410264824618L11.095312499999999 29.189352724536597L11.095312499999999 30.754964274815652L11.9296875 31.236690905670745" stroke-width="0.03" stroke="#000000" fill="none"/>
<path d="M11.9296875 32.07971250966716L10.782421874999999 32.74208662709292L9.113671875 31.77863336538273L9.113671875 28.40654694939707L10.782421874999999 29.37000021110726L10.782421874999999 32.74208662709292" stroke-width="0.03" stroke="#000000" fill="none"/>
<path d="M8.905078125 30.935611761386316L8.905078125 30.815180103672542" stroke-width="0.03" stroke="#000000" fill="none"/>
<path d="M10.782421874999999 29.37000021110726L11.095312499999999 29.189352724536597" stroke-width="0.03" stroke="#000000" fill="none"/>
<path d="M9.63515625 28.46676277825396L9.63515625 25.937697966264714L10.573828124999999 26.479640425976694" stroke-width="0.03" stroke="#000000" fill="none"/>
<path d="M10.678125 26.419424597119807L11.095312499999999 26.660287912547354" stroke-width="0.03" stroke="#000000" fill="none"/>
<path d="M11.095312499999999 26.901151227974903L10.156640625 26.359208768262917" stroke-width="0.03" stroke="#000000" fill="none"/>
<path d="M13.911328125 26.359208768262917L14.745703124999999 26.840935399118013L14.85 26.780719570261127L14.954296875 26.840935399118013L15.788671874999999 26.359208768262917" stroke-width="0.03" stroke="#000000" fill="none"/>
<path d="M15.788671874999999 26.840935399118013L15.162890625 27.202230372259333L14.85 27.021582885688677L14.537109375 27.202230372259333L13.911328125 26.840935399118013" stroke-width="0.03" stroke="#000000" fill="none"/>
<path d="M14.537109375 27.202230372259333L14.537109375 30.815180103672542" stroke-width="0.03" stroke="#000000" fill="none"/>
<path d="M15.162890625 30.815180103672542L15.162890625 27.202230372259333" stroke-width="0.03" stroke="#000000" fill="none"/>
<path d="M14.85 27.021582885688677L14.85 32.8023024559498L13.494140625 33.58510823108933" stroke-width="0.03" stroke="#000000" fill="none"/>
<path d="M14.85 32.8023024559498L16.205859375 33.58510823108933L17.7703125 32.68187079823603L17.7703125 28.46676277825396L17.666015625 28.40654694939707" stroke-width="0.03" stroke="#000000" fill="none"/>
<path d="M17.7703125 28.46676277825396L16.205859375 29.37000021110726L16.205859375 33.58510823108933" stroke-width="0.03" stroke="#000000" fill="none"/>
<path d="M17.7703125 32.07971250966716L18.917578125000002 32.74208662709292L20.586328125 31.77863336538273L20.586328125 28.40654694939707L20.377734375 28.286115291683295L20.064843749999998 28.46676277825396L19.543359374999998 28.165683633969522" stroke-width="0.03" stroke="#000000" fill="none"/>
<path d="M19.543359374999998 27.92482031854198L19.647656249999997 27.864604489685092L19.647656249999997 26.17856128169226" stroke-width="0.03" stroke="#000000" fill="none"/>
<path d="M19.543359374999998 26.359208768262917L18.6046875 26.901151227974903" stroke-width="0.03" stroke="#000000" fill="none"/>
<path d="M18.6046875 26.660287912547354L19.021874999999998 26.419424597119807" stroke-width="0.03" stroke="#000000" fill="none"/>
<path d="M19.126171875 26.479640425976694L20.064843749999998 25.937697966264714L20.064843749999998 28.46676277825396" stroke-width="0.03" stroke="#000000" fill="none"/>
<path d="M20.586328125 28.40654694939707L18.917578125000002 29.37000021110726L18.917578125000002 32.74208662709292" stroke-width="0.03" stroke="#000000" fill="none"/>
<path d="M17.7703125 31.236690905670745L18.6046875 30.754964274815652L18.6046875 29.189352724536597L19.543359374999998 28.647410264824618L19.543359374999998 26.359208768262917L19.439062500000002 26.29899293940603" stroke-width="0.03" stroke="#000000" fill="none"/>
<path d="M19.126171875 26.479640425976694L19.126171875 24.55273390255632L18.6046875 24.251654758271883" stroke-width="0.03" stroke="#000000" fill="none"/>
<path d="M18.6046875 24.73338138912698L18.708984375 24.793597217983862L18.708984375 26.238777110549147L19.126171875 26.479640425976694" stroke-width="0.03" stroke="#000000" fill="none"/>
<path d="M18.6046875 24.85381304684075L18.708984375 24.793597217983862" stroke-width="0.03" stroke="#000000" fill="none"/>
<path d="M19.126171875 24.55273390255632L20.064843749999998 24.010791442844337L20.064843749999998 22.926906523420374L21.733593749999997 21.96345326171019L21.31640625 21.72258994628264L20.064843749999998 22.44517989256528L19.960546875000002 22.384964063708395" stroke-width="0.03" stroke="#000000" fill="none"/>
<path d="M20.064843749999998 22.32474823485151L20.064843749999998 22.44517989256528" stroke-width="0.03" stroke="#000000" fill="none"/>
<path d="M20.064843749999998 22.926906523420374L19.543359374999998 22.62582737913594" stroke-width="0.03" stroke="#000000" fill="none"/>
<path d="M18.6046875 23.167769838847924L20.064843749999998 24.010791442844337" stroke-width="0.03" stroke="#000000" fill="none"/>
<path d="M21.733593749999997 23.047338181134148L23.923828125000004 21.782805775139526L23.923828125000004 22.14410074828085L24.132421875000002 22.264532405994622L27.052734375 20.57848919800179L27.052734375 18.651582674581416L25.90546875 17.989208557155663" stroke-width="0.03" stroke="#000000" fill="none"/>
<path d="M25.175390624999995 18.410719359153866L25.175390624999995 19.37417262086406L23.819531249999997 20.156978396003588L23.819531249999997 21.240863315427546L21.837890625 22.384964063708395L21.733593749999997 22.32474823485151" stroke-width="0.03" stroke="#000000" fill="none"/>
<path d="M21.837890625 22.384964063708395L21.837890625 21.301079144284433" stroke-width="0.03" stroke="#000000" fill="none"/>
<path d="M21.629296875 21.42151080199821L21.629296875 21.903237432853302" stroke-width="0.03" stroke="#000000" fill="none"/>
<path d="M21.733593749999997 21.96345326171019L21.733593749999997 23.047338181134148" stroke-width="0.03" stroke="#000000" fill="none"/>
<path d="M21.733593749999997 22.565611550279055L23.193749999999998 21.72258994628264L23.193749999999998 21.602158288568866" stroke-width="0.03" stroke="#000000" fill="none"/>
<path d="M23.40234375 21.481726630855093L23.923828125000004 21.782805775139526" stroke-width="0.03" stroke="#000000" fill="none"/>
<path d="M24.132421875000002 22.264532405994622L24.132421875000002 20.337625882574244L27.052734375 18.651582674581416" stroke-width="0.03" stroke="#000000" fill="none"/>
<path d="M26.322656249999998 21.120431657713773L26.218359375 21.18064748657066" stroke-width="0.03" stroke="#000000" fill="none"/>
<path d="M26.322656249999998 21.240863315427546L26.426953124999997 21.18064748657066L26.322656249999998 21.120431657713773" stroke-width="0.03" stroke="#000000" fill="none"/>
<path d="M26.426953124999997 21.18064748657066L26.426953124999997 24.914028875697635L25.90546875 25.215108019982072L25.90546875 25.696834650837165L26.009765625 25.75705047969405L27.365624999999998 24.974244704554525L27.365624999999998 24.492518073699433L26.426953124999997 23.95057561398745" stroke-width="0.03" stroke="#000000" fill="none"/>
<path d="M27.365624999999998 24.492518073699433L26.009765625 25.27532384883896L26.009765625 25.75705047969405" stroke-width="0.03" stroke="#000000" fill="none"/>
<path d="M26.1140625 26.17856128169226L26.1140625 26.29899293940603L25.07109375 26.901151227974903L25.07109375 28.105467805112635L24.966796875000004 28.165683633969522" stroke-width="0.03" stroke="#000000" fill="none"/>
<path d="M24.966796875000004 28.526978607110845L24.549609375 28.767841922538388" stroke-width="0.03" stroke="#000000" fill="none"/>
<path d="M24.132421875000002 28.526978607110845L24.549609375 28.286115291683295L24.4453125 28.22589946282641L24.028125 28.46676277825396L24.028125 29.068921066822824L20.794921875 30.935611761386316L20.690625 30.87539593252943L20.690625 30.754964274815652" stroke-width="0.03" stroke="#000000" fill="none"/>
<path d="M20.586328125 30.694748445958766L20.89921875 30.87539593252943L20.89921875 28.94848940910905L20.690625 28.828057751395274L21.733593749999997 28.22589946282641L21.733593749999997 24.974244704554525L24.549609375 23.348417325418584L24.549609375 22.14410074828085L25.07109375 21.843021603996412L25.07109375 21.72258994628264" stroke-width="0.03" stroke="#000000" fill="none"/>
<path d="M24.758203125 22.264532405994622L26.426953124999997 21.301079144284433L26.1140625 21.120431657713773" stroke-width="0.03" stroke="#000000" fill="none"/>
<path d="M24.758203125 22.264532405994622L24.758203125 26.72050374140424L20.89921875 28.94848940910905" stroke-width="0.03" stroke="#000000" fill="none"/>
<path d="M20.690625 28.828057751395274L20.690625 29.430216039964147L20.586328125 29.490431868821034" stroke-width="0.03" stroke="#000000" fill="none"/>
<path d="M20.794921875 30.815180103672542L20.794921875 30.935611761386316" stroke-width="0.03" stroke="#000000" fill="none"/>
<path d="M18.917578125000002 29.37000021110726L18.6046875 29.189352724536597" stroke-width="0.03" stroke="#000000" fill="none"/>
<path d="M16.205859375 29.37000021110726L16.1015625 29.30978438225037" stroke-width="0.03" stroke="#000000" fill="none"/>
<path d="M14.954296875 26.840935399118013L14.954296875 21.782805775139526L14.224218749999999 21.36129497314132L14.224218749999999 20.518273369144907" stroke-width="0.03" stroke="#000000" fill="none"/>
<path d="M14.119921875 20.698920855715564L14.119921875 21.42151080199821L14.745703124999999 21.782805775139526L15.47578125 21.36129497314132L15.47578125 20.518273369144907" stroke-width="0.03" stroke="#000000" fill="none"/>
<path d="M15.580078125 20.698920855715564L15.580078125 21.42151080199821L14.954296875 21.782805775139526" stroke-width="0.03" stroke="#000000" fill="none"/>
<path d="M14.745703124999999 21.782805775139526L14.745703124999999 26.840935399118013" stroke-width="0.03" stroke="#000000" fill="none"/>
<path d="M14.85 26.780719570261127L14.85 21.120431657713773L14.328515625 21.42151080199821" stroke-width="0.03" stroke="#000000" fill="none"/>
<path d="M14.119921875 21.42151080199821L14.85 21L14.85 20.156978396003588" stroke-width="0.03" stroke="#000000" fill="none"/>
<path d="M15.371484375 19.615035936291605L14.85 19.31395679200717" stroke-width="0.03" stroke="#000000" fill="none"/>
<path d="M15.89296875 19.31395679200717L15.89296875 19.193525134293395" stroke-width="0.03" stroke="#000000" fill="none"/>
<path d="M14.954296875 20.939784171143113L15.47578125 21.240863315427546" stroke-width="0.03" stroke="#000000" fill="none"/>
<path d="M15.580078125 21.42151080199821L14.85 21" stroke-width="0.03" stroke="#000000" fill="none"/>
<path d="M14.85 21.120431657713773L15.371484375 21.42151080199821" stroke-width="0.03" stroke="#000000" fill="none"/>
<path d="M14.745703124999999 20.939784171143113L14.224218749999999 21.240863315427546" stroke-width="0.03" stroke="#000000" fill="none"/>
<path d="M15.788671874999999 22.14410074828085L16.31015625 22.44517989256528" stroke-width="0.03" stroke="#000000" fill="none"/>
<path d="M16.31015625 21.843021603996412L16.9359375 22.204316577137735" stroke-width="0.03" stroke="#000000" fill="none"/>
<path d="M16.831640625 21.301079144284433L16.51875 21.120431657713773L16.31015625 21.240863315427546" stroke-width="0.03" stroke="#000000" fill="none"/>
<path d="M22.672265625 19.735467594005378L22.7765625 19.795683422862265" stroke-width="0.03" stroke="#000000" fill="none"/>
<path d="M23.819531249999997 20.156978396003588L24.132421875000002 20.337625882574244" stroke-width="0.03" stroke="#000000" fill="none"/>
<path d="M24.549609375 22.14410074828085L24.758203125 22.264532405994622" stroke-width="0.03" stroke="#000000" fill="none"/>
<path d="M24.028125 23.649496469703017L24.028125 24.010791442844337L22.046484375000002 25.154892191125185L22.046484375000002 27.443093687686883L21.733593749999997 27.623741174257542" stroke-width="0.03" stroke="#000000" fill="none"/>
<path d="M22.046484375000002 26.359208768262917L22.98515625 26.901151227974903L24.028125 26.29899293940603L24.028125 25.0946763622683L23.089453125000002 24.55273390255632" stroke-width="0.03" stroke="#000000" fill="none"/>
<path d="M22.255078124999997 25.034460533411412L23.193749999999998 25.576402993123395L23.193749999999998 25.817266308550938L22.98515625 25.937697966264714L22.98515625 26.901151227974903" stroke-width="0.03" stroke="#000000" fill="none"/>
<path d="M22.98515625 25.937697966264714L22.046484375000002 25.39575550655273" stroke-width="0.03" stroke="#000000" fill="none"/>
<path d="M22.046484375000002 25.154892191125185L23.193749999999998 25.817266308550938" stroke-width="0.03" stroke="#000000" fill="none"/>
<path d="M23.193749999999998 25.576402993123395L24.028125 25.0946763622683" stroke-width="0.03" stroke="#000000" fill="none"/>
<path d="M24.028125 26.29899293940603L24.758203125 26.72050374140424" stroke-width="0.03" stroke="#000000" fill="none"/>
<path d="M24.966796875000004 26.840935399118013L26.426953124999997 25.9979137951216L26.426953124999997 25.51618716426651" stroke-width="0.03" stroke="#000000" fill="none"/>
<path d="M26.009765625 25.27532384883896L25.90546875 25.215108019982072" stroke-width="0.03" stroke="#000000" fill="none"/>
<path d="M24.966796875000004 26.840935399118013L24.966796875000004 28.526978607110845" stroke-width="0.03" stroke="#000000" fill="none"/>
<path d="M24.549609375 28.286115291683295L24.549609375 29.851726841962353L24.132421875000002 30.0925901573899L23.193749999999998 29.550647697677917" stroke-width="0.03" stroke="#000000" fill="none"/>
<path d="M24.132421875000002 30.0925901573899L24.132421875000002 28.526978607110845L24.028125 28.46676277825396" stroke-width="0.03" stroke="#000000" fill="none"/>
<path d="M22.7765625 17.989208557155663L26.426953124999997 15.881654547164626" stroke-width="0.03" stroke="#000000" fill="none"/>
<path d="M9.237499999999999 2.533333333333333L1.5 2.533333333333333" stroke-width="0.03" stroke="#000000" fill="none"/>
<path d="M2.1166666666666667 2.2291666666666665L2.1166666666666667 1.8208333333333333" stroke-width="0.03" stroke="#000000" fill="none"/>
<path d="M2.0875 1.6166666666666667L2.1166666666666667 1.6458333333333333L2.145833333333333 1.6166666666666667L2.1166666666666667 1.5875L2.0875 1.6166666666666667" stroke-width="0.03" stroke="#000000" fill="none"/>
<path d="M2.3208333333333333 2.1416666666666666L2.35 2.2L2.4375 2.2291666666666665L2.525 2.2291666666666665L2.6125 2.2L2.6416666666666666 2.1416666666666666L2.6416666666666666 2.1125L2.6125 2.0541666666666667L2.5541666666666667 2.025L2.408333333333333 1.9958333333333333L2.35 1.9666666666666666L2.3208333333333333 1.9083333333333332L2.35 1.85L2.4375 1.8208333333333333L2.525 1.8208333333333333L2.6125 1.85L2.6416666666666666 1.9083333333333332" stroke-width="0.03" stroke="#000000" fill="none"/>
<path d="M2.9625 1.8208333333333333L2.904166666666667 1.85L2.845833333333333 1.9083333333333332L2.8166666666666664 1.9958333333333333L2.8166666666666664 2.0541666666666667L2.845833333333333 2.1416666666666666L2.904166666666667 2.2L2.9625 2.2291666666666665L3.05 2.2291666666666665L3.1083333333333334 2.2L3.1666666666666665 2.1416666666666666L3.1958333333333333 2.0541666666666667L3.1958333333333333 1.9958333333333333L3.1666666666666665 1.9083333333333332L3.1083333333333334 1.85L3.05 1.8208333333333333L2.9625 1.8208333333333333" stroke-width="0.03" stroke="#000000" fill="none"/>
<path d="M3.283333333333333 2.2874999999999996L3.75 2.2874999999999996" stroke-width="0.03" stroke="#000000" fill="none"/>
<path d="M3.8375 2.1416666666666666L3.8666666666666663 2.2L3.9541666666666666 2.2291666666666665L4.041666666666666 2.2291666666666665L4.129166666666666 2.2L4.158333333333333 2.1416666666666666L4.158333333333333 2.1125L4.129166666666666 2.0541666666666667L4.070833333333333 2.025L3.925 1.9958333333333333L3.8666666666666663 1.9666666666666666L3.8375 1.9083333333333332L3.8666666666666663 1.85L3.9541666666666666 1.8208333333333333L4.041666666666666 1.8208333333333333L4.129166666666666 1.85L4.158333333333333 1.9083333333333332" stroke-width="0.03" stroke="#000000" fill="none"/>
<path d="M4.3625 1.9375L4.449999999999999 1.85L4.508333333333333 1.8208333333333333L4.595833333333333 1.8208333333333333L4.654166666666667 1.85L4.683333333333334 1.9375L4.683333333333334 2.2291666666666665" stroke-width="0.03" stroke="#000000" fill="none"/>
<path d="M4.3625 2.2291666666666665L4.3625 1.8208333333333333" stroke-width="0.03" stroke="#000000" fill="none"/>
<path d="M5.033333333333333 1.8208333333333333L4.975 1.85L4.916666666666666 1.9083333333333332L4.887499999999999 1.9958333333333333L4.887499999999999 2.0541666666666667L4.916666666666666 2.1416666666666666L4.975 2.2L5.033333333333333 2.2291666666666665L5.120833333333334 2.2291666666666665L5.179166666666666 2.2L5.2375 2.1416666666666666L5.266666666666666 2.0541666666666667L5.266666666666666 1.9958333333333333L5.2375 1.9083333333333332L5.179166666666666 1.85L5.120833333333334 1.8208333333333333L5.033333333333333 1.8208333333333333" stroke-width="0.03" stroke="#000000" fill="none"/>
<path d="M5.441666666666666 1.8208333333333333L5.558333333333334 2.2291666666666665L5.675 1.8208333333333333L5.791666666666666 2.2291666666666665L5.908333333333333 1.8208333333333333" stroke-width="0.03" stroke="#000000" fill="none"/>
<path d="M6.054166666666666 1.8208333333333333L6.258333333333333 1.8208333333333333" stroke-width="0.03" stroke="#000000" fill="none"/>
<path d="M6.2875 1.6166666666666667L6.229166666666666 1.6166666666666667L6.1708333333333325 1.6458333333333333L6.141666666666667 1.7333333333333334L6.141666666666667 2.2291666666666665" stroke-width="0.03" stroke="#000000" fill="none"/>
<path d="M6.4624999999999995 2.2291666666666665L6.4624999999999995 1.6166666666666667" stroke-width="0.03" stroke="#000000" fill="none"/>
<path d="M7.016666666666666 1.8208333333333333L7.016666666666666 2.2291666666666665" stroke-width="0.03" stroke="#000000" fill="none"/>
<path d="M7.016666666666666 2.1416666666666666L6.958333333333333 2.2L6.8999999999999995 2.2291666666666665L6.812499999999999 2.2291666666666665L6.754166666666666 2.2L6.695833333333333 2.1416666666666666L6.666666666666666 2.0541666666666667L6.666666666666666 1.9958333333333333L6.695833333333333 1.9083333333333332L6.754166666666666 1.85L6.812499999999999 1.8208333333333333L6.8999999999999995 1.8208333333333333L6.958333333333333 1.85L7.016666666666666 1.9083333333333332" stroke-width="0.03" stroke="#000000" fill="none"/>
<path d="M7.249999999999999 2.1125L7.541666666666666 1.8208333333333333" stroke-width="0.03" stroke="#000000" fill="none"/>
<path d="M7.366666666666666 1.9958333333333333L7.570833333333333 2.2291666666666665" stroke-width="0.03" stroke="#000000" fill="none"/>
<path d="M7.716666666666666 1.9958333333333333L8.066666666666666 1.9958333333333333L8.066666666666666 1.9375L8.0375 1.8791666666666667L8.008333333333333 1.85L7.949999999999999 1.8208333333333333L7.8625 1.8208333333333333L7.804166666666666 1.85L7.745833333333333 1.9083333333333332L7.716666666666666 1.9958333333333333L7.716666666666666 2.0541666666666667L7.745833333333333 2.1416666666666666L7.804166666666666 2.2L7.8625 2.2291666666666665L7.949999999999999 2.2291666666666665L8.008333333333333 2.2L8.066666666666666 2.1416666666666666" stroke-width="0.03" stroke="#000000" fill="none"/>
<path d="M8.270833333333332 1.7625L8.270833333333332 1.7333333333333334L8.299999999999999 1.675L8.329166666666666 1.6458333333333333L8.3875 1.6166666666666667L8.504166666666666 1.6166666666666667L8.5625 1.6458333333333333L8.591666666666665 1.675L8.620833333333334 1.7333333333333334L8.620833333333334 1.7916666666666665L8.591666666666665 1.85L8.533333333333331 1.9375L8.241666666666667 2.2291666666666665L8.649999999999999 2.2291666666666665" stroke-width="0.03" stroke="#000000" fill="none"/>
<path d="M7.249999999999999 2.2291666666666665L7.249999999999999 1.6166666666666667" stroke-width="0.03" stroke="#000000" fill="none"/>
<path d="M5.533094302353565 3.0955672553801805L5.5150683110150265 3.0595152727031034L5.479016328337949 3.023463290026026L5.442964345660872 3.0054372986874878L5.370860380306718 3.0054372986874878L5.33480839762964 3.023463290026026L5.298756414952564 3.0595152727031034L5.280730423614025 3.0955672553801805L5.262704432275486 3.149645229395796L5.262704432275486 3.2397751860884894L5.280730423614025 3.293853160104105L5.298756414952564 3.3299051427811825L5.33480839762964 3.3659571254582596L5.370860380306718 3.383983116796798L5.442964345660872 3.383983116796798L5.479016328337949 3.3659571254582596L5.5150683110150265 3.3299051427811825L5.533094302353565 3.293853160104105" stroke-width="0.03" stroke="#000000" fill="none"/>
<path d="M5.172574475582794 3.383983116796798L4.938236588181791 3.383983116796798L4.938236588181791 3.0054372986874878L5.172574475582794 3.0054372986874878" stroke-width="0.03" stroke="#000000" fill="none"/>
<path d="M5.0824445188901 3.1856972120728733L4.938236588181791 3.1856972120728733" stroke-width="0.03" stroke="#000000" fill="none"/>
<path d="M4.667846718103712 3.0054372986874878L4.613768744088096 3.023463290026026L4.57771676141102 3.077541264041642L4.559690770072481 3.167671220734335L4.559690770072481 3.221749194749951L4.57771676141102 3.3118791514426436L4.613768744088096 3.3659571254582596L4.667846718103712 3.383983116796798L4.7038987007807895 3.383983116796798L4.757976674796406 3.3659571254582596L4.794028657473483 3.3118791514426436L4.812054648812021 3.221749194749951L4.812054648812021 3.167671220734335L4.794028657473483 3.077541264041642L4.757976674796406 3.023463290026026L4.7038987007807895 3.0054372986874878L4.667846718103712 3.0054372986874878" stroke-width="0.03" stroke="#000000" fill="none"/>
<path d="M4.45153482204125 3.0054372986874878L4.2712749086558635 3.383983116796798" stroke-width="0.03" stroke="#000000" fill="none"/>
<path d="M4.109040986609016 3.257801177427028L3.838651116530937 3.257801177427028L4.018911029916323 3.0054372986874878L4.018911029916323 3.383983116796798" stroke-width="0.03" stroke="#000000" fill="none"/>
<path d="M3.712469177161167 3.1316192380572576L3.694443185822628 3.1856972120728733L3.658391203145551 3.221749194749951L3.604313229129935 3.2397751860884894L3.586287237791397 3.2397751860884894L3.5322092637757807 3.221749194749951L3.4961572810987036 3.1856972120728733L3.478131289760165 3.1316192380572576L3.478131289760165 3.113593246718719L3.4961572810987036 3.0595152727031034L3.5322092637757807 3.023463290026026L3.586287237791397 3.0054372986874878L3.604313229129935 3.0054372986874878L3.658391203145551 3.023463290026026L3.694443185822628 3.0595152727031034L3.712469177161167 3.1316192380572576L3.712469177161167 3.221749194749951L3.694443185822628 3.3118791514426436L3.658391203145551 3.3659571254582596L3.604313229129935 3.383983116796798L3.568261246452858 3.383983116796798L3.514183272437242 3.3659571254582596L3.4961572810987036 3.3299051427811825" stroke-width="0.03" stroke="#000000" fill="none"/>
<path d="M3.2798453850362406 3.1856972120728733L3.333923359051856 3.167671220734335L3.3519493503903948 3.149645229395796L3.3699753417289333 3.113593246718719L3.3699753417289333 3.077541264041642L3.3519493503903948 3.041489281364565L3.333923359051856 3.023463290026026L3.2798453850362406 3.0054372986874878L3.117611462989393 3.0054372986874878L3.117611462989393 3.383983116796798L3.2798453850362406 3.383983116796798L3.333923359051856 3.3659571254582596L3.3519493503903948 3.3479311341197207L3.3699753417289333 3.3118791514426436L3.3699753417289333 3.257801177427028L3.3519493503903948 3.221749194749951L3.333923359051856 3.2037232034114123L3.2798453850362406 3.1856972120728733L3.117611462989393 3.1856972120728733" stroke-width="0.03" stroke="#000000" fill="none"/>
<path d="M2.7390656448800828 3.0054372986874878L2.7390656448800828 3.383983116796798L2.8652475842498526 3.383983116796798L2.9193255582654682 3.3659571254582596L2.955377540942546 3.3299051427811825L2.9734035322810843 3.293853160104105L2.991429523619623 3.2397751860884894L2.991429523619623 3.149645229395796L2.9734035322810843 3.0955672553801805L2.955377540942546 3.0595152727031034L2.9193255582654682 3.023463290026026L2.8652475842498526 3.0054372986874878L2.7390656448800828 3.0054372986874878" stroke-width="0.03" stroke="#000000" fill="none"/>
<path d="M2.6128837055103125 3.1316192380572576L2.414597800786388 3.383983116796798" stroke-width="0.03" stroke="#000000" fill="none"/>
<path d="M2.6128837055103125 3.383983116796798L2.414597800786388 3.1316192380572576" stroke-width="0.03" stroke="#000000" fill="none"/>
<path d="M2.1622339220468474 3.0054372986874878L2.1081559480312317 3.023463290026026L2.072103965354154 3.077541264041642L2.0540779740156156 3.167671220734335L2.0540779740156156 3.221749194749951L2.072103965354154 3.3118791514426436L2.1081559480312317 3.3659571254582596L2.1622339220468474 3.383983116796798L2.1982859047239245 3.383983116796798L2.2523638787395406 3.3659571254582596L2.2884158614166177 3.3118791514426436L2.3064418527551562 3.221749194749951L2.3064418527551562 3.167671220734335L2.2884158614166177 3.077541264041642L2.2523638787395406 3.023463290026026L2.1982859047239245 3.0054372986874878L2.1622339220468474 3.0054372986874878" stroke-width="0.03" stroke="#000000" fill="none"/>
<path d="M4.199170943301709 3.0054372986874878L4.45153482204125 3.0054372986874878" stroke-width="0.03" stroke="#000000" fill="none"/>
</svg>
