<?xml version="1.0" standalone="no"?>
<svg width="29.7cm" height="42cm" version="1.1" xmlns="http://www.w3.org/2000/svg" viewBox="0.0 0.0 29.700001 42.000001">
<path d="M9.113671875 9.49877668833463L10.88671875 8.475107597767554L14.85 10.763309094329252L18.81328125 8.475107597767554L20.586328125 9.49877668833463L20.586328125 9.980503319189724L19.23046875 10.763309094329252" stroke-width="0.03" stroke="#000000" fill="none"/>
<path d="M19.126171875 10.703093265472365L18.81328125 10.883740752043025L18.81328125 11.004172409756798L17.874609375000002 11.54611486946878" stroke-width="0.03" stroke="#000000" fill="none"/>
<path d="M17.7703125 11.485899040611892L16.9359375 11.967625671466987" stroke-width="0.03" stroke="#000000" fill="none"/>
<path d="M17.248828125 12.148273158037647L15.47578125 13.171942248604722L15.47578125 13.894532194887363L14.954296875 13.593453050602928L14.85 13.653668879459815L14.745703124999999 13.593453050602928L14.224218749999999 13.894532194887363L13.911328125 13.713884708316701L13.911328125 13.473021392889155L12.451171875 12.629999788892741L12.451171875 12.148273158037647L13.076953125000001 11.786978184896327L9.113671875 9.49877668833463L9.113671875 9.980503319189724L10.46953125 10.763309094329252" stroke-width="0.03" stroke="#000000" fill="none"/>
<path d="M10.573828124999999 10.703093265472365L5.776171874999998 13.473021392889155L5.776171874999998 13.713884708316701" stroke-width="0.03" stroke="#000000" fill="none"/>
<path d="M5.776171874999998 13.473021392889155L5.984765624999999 13.593453050602928" stroke-width="0.03" stroke="#000000" fill="none"/>
<path d="M6.610546875 13.95474802374425L9.113671875 15.399927916309531L12.451171875 13.473021392889155L12.451171875 14.075179681458023" stroke-width="0.03" stroke="#000000" fill="none"/>
<path d="M12.451171875 13.473021392889155L9.4265625 11.72676235603944L10.88671875 10.883740752043025L10.88671875 11.004172409756798L11.825390624999999 11.54611486946878" stroke-width="0.03" stroke="#000000" fill="none"/>
<path d="M11.9296875 11.485899040611892L11.408203125 11.786978184896327L11.408203125 11.9074098426101L12.451171875 12.509568131178968" stroke-width="0.03" stroke="#000000" fill="none"/>
<path d="M12.451171875 12.389136473465193L11.408203125 11.786978184896327" stroke-width="0.03" stroke="#000000" fill="none"/>
<path d="M11.9296875 11.485899040611892L12.7640625 11.967625671466987" stroke-width="0.03" stroke="#000000" fill="none"/>
<path d="M12.451171875 12.148273158037647L14.224218749999999 13.171942248604722L14.224218749999999 13.894532194887363" stroke-width="0.03" stroke="#000000" fill="none"/>
<path d="M13.911328125 13.713884708316701L13.494140625 13.95474802374425L13.076953125000001 13.713884708316701L10.365234375 15.279496258595758L10.365234375 15.520359574023306L13.80703125 17.50748192630057L13.494140625 17.688129412871227L13.181249999999999 17.50748192630057L11.72109375 18.350503530296983L11.72109375 19.193525134293395L10.991015625000001 19.615035936291605L10.991015625000001 21.301079144284433L11.303906249999999 21.481726630855093L11.303906249999999 21.843021603996412L7.862109374999999 19.85589925171915L7.653515625 19.976330909432924L7.653515625 23.107554009991038L8.070703124999998 23.348417325418584L8.070703124999998 23.830143956273677L7.862109374999999 23.95057561398745L6.4019531249999995 23.107554009991038L5.984765624999999 23.348417325418584L5.984765624999999 24.071007271701223L2.021484375 21.782805775139526L2.438671874999999 21.54194245971198L3.7945312499999995 22.32474823485151" stroke-width="0.03" stroke="#000000" fill="none"/>
<path d="M3.7945312499999995 22.44517989256528L3.7945312499999995 16.905323637731698L4.003124999999999 16.784891980017925" stroke-width="0.03" stroke="#000000" fill="none"/>
<path d="M3.7945312499999995 16.905323637731698L4.003124999999999 17.025755295445475" stroke-width="0.03" stroke="#000000" fill="none"/>
<path d="M4.62890625 17.387050268586794L7.13203125 18.832230161152076L7.653515625 18.531151016867643L7.653515625 19.85589925171915L7.7578125 19.916115080576038" stroke-width="0.03" stroke="#000000" fill="none"/>
<path d="M7.653515625 19.976330909432924L10.991015625000001 21.903237432853302L10.991015625000001 23.227985667704807L12.138281249999999 23.890359785130563L12.138281249999999 27.744172831971316L12.346874999999999 27.623741174257542L12.346874999999999 23.649496469703017L12.659765624999999 23.830143956273677L12.659765624999999 24.191438929414996L14.119921875 25.034460533411412L14.85 24.612949731413206L15.580078125 25.034460533411412L17.040234375 24.191438929414996L17.040234375 23.830143956273677L17.353125 23.649496469703017L17.353125 27.623741174257542L17.56171875 27.744172831971316L20.2734375 26.17856128169226L20.2734375 25.696834650837165L20.690625 25.45597133540962L20.89921875 25.576402993123395L20.89921875 27.26244620111622L21.31640625 27.50330951654377L21.9421875 27.142014543402446L21.9421875 31.71841753652584L23.715234375 30.694748445958766L23.715234375 26.118345452835374L27.678515625 23.830143956273677L27.678515625 21.782805775139526L27.261328125 21.54194245971198L25.90546875 22.32474823485151" stroke-width="0.03" stroke="#000000" fill="none"/>
<path d="M25.90546875 22.44517989256528L25.592578125 22.62582737913594L25.48828125 22.565611550279055L25.48828125 21.36129497314132L25.175390624999995 21.18064748657066" stroke-width="0.03" stroke="#000000" fill="none"/>
<path d="M25.48828125 21.36129497314132L21.837890625 23.468848983132357L21.837890625 23.95057561398745L23.298046874999997 23.107554009991038L23.715234375 23.348417325418584L23.715234375 24.071007271701223L27.678515625 21.782805775139526" stroke-width="0.03" stroke="#000000" fill="none"/>
<path d="M27.57421875 21.72258994628264L27.57421875 20.156978396003588L25.90546875 19.193525134293395" stroke-width="0.03" stroke="#000000" fill="none"/>
<path d="M25.696875000000002 18.95266181886585L25.279687499999998 19.193525134293395L25.07109375 19.073093476579622L25.07109375 16.062302033735286" stroke-width="0.03" stroke="#000000" fill="none"/>
<path d="M25.175390624999995 16.0020862048784L21.31640625 18.23007187258321L20.586328125 17.808561070585L20.586328125 19.13330930543651L19.85625 19.554820107434715L20.377734375 19.85589925171915L20.377734375 20.337625882574244L19.85625 20.63870502685868L19.334765625 20.337625882574244L19.334765625 19.85589925171915L19.23046875 19.916115080576038L19.23046875 19.31395679200717L18.500390624999998 18.892445990008962L18.500390624999998 18.049424386012547L17.978906249999998 17.748345241728117L18.083203125 17.688129412871227L18.083203125 17.08597112430236L18.6046875 16.784891980017925L18.1875 16.54402866459038L17.666015625 16.845107808874815L17.666015625 17.44726609744368L18.083203125 17.688129412871227" stroke-width="0.03" stroke="#000000" fill="none"/>
<path d="M18.291796875 17.928992728298773L18.708984375 17.688129412871227L18.81328125 17.748345241728117L18.81328125 18.711798503438303L19.647656249999997 19.193525134293395L19.647656249999997 19.31395679200717L19.23046875 19.554820107434715" stroke-width="0.03" stroke="#000000" fill="none"/>
<path d="M19.23046875 19.434388449720945L19.647656249999997 19.193525134293395" stroke-width="0.03" stroke="#000000" fill="none"/>
<path d="M19.23046875 19.31395679200717L18.291796875 19.85589925171915L18.291796875 20.096762567146698L17.353125 20.63870502685868L17.353125 22.44517989256528L15.788671874999999 23.348417325418584L15.788671874999999 24.432302244842543L15.580078125 24.55273390255632L15.580078125 25.636618821980278L14.85 25.215108019982072L14.119921875 25.636618821980278L13.598437500000001 25.335539677695845L13.598437500000001 25.45597133540962L13.076953125000001 25.75705047969405L12.659765624999999 25.51618716426651L12.659765624999999 26.118345452835374L13.076953125000001 26.359208768262917L13.598437500000001 26.058129623978488L13.598437500000001 26.901151227974903L14.745703124999999 27.563525345400656L14.015625 27.985036147398862L14.015625 32.44100748280849L14.119921875 32.50122331166537L14.224218749999999 32.44100748280849L14.537109375 32.621654969379136L14.537109375 33.103381600234236L14.328515625 33.22381325794801L11.199609375 31.41733839224141L11.199609375 30.935611761386316L11.408203125 30.815180103672542L14.015625 32.32057582509471" stroke-width="0.03" stroke="#000000" fill="none"/>
<path d="M14.015625 32.200144167380934L13.389843749999999 31.838849194239618L13.389843749999999 28.46676277825396L12.242578125 27.804388660828202L12.242578125 27.68395700311443" stroke-width="0.03" stroke="#000000" fill="none"/>
<path d="M12.138281249999999 27.744172831971316L9.4265625 26.17856128169226L9.4265625 25.696834650837165L9.009374999999999 25.45597133540962L8.80078125 25.576402993123395L8.80078125 27.26244620111622L8.38359375 27.50330951654377L7.7578125 27.142014543402446L7.7578125 31.71841753652584L8.175 31.477554221098295L8.175 29.91194267081924" stroke-width="0.03" stroke="#000000" fill="none"/>
<path d="M8.070703124999998 29.851726841962353L8.070703124999998 29.490431868821034L8.175 29.430216039964147L9.21796875 30.032374328533013L9.530859375 29.851726841962353" stroke-width="0.03" stroke="#000000" fill="none"/>
<path d="M9.21796875 30.032374328533013L9.21796875 25.817266308550938L9.4265625 25.696834650837165" stroke-width="0.03" stroke="#000000" fill="none"/>
<path d="M9.21796875 25.817266308550938L8.80078125 25.576402993123395" stroke-width="0.03" stroke="#000000" fill="none"/>
<path d="M9.009374999999999 25.45597133540962L9.009374999999999 25.0946763622683L8.487890625 24.793597217983862L8.487890625 24.673165560270093L8.38359375 24.612949731413206L8.38359375 24.010791442844337L8.070703124999998 23.830143956273677" stroke-width="0.03" stroke="#000000" fill="none"/>
<path d="M7.862109374999999 23.95057561398745L7.862109374999999 23.468848983132357L8.070703124999998 23.348417325418584" stroke-width="0.03" stroke="#000000" fill="none"/>
<path d="M7.862109374999999 23.468848983132357L4.211718750000001 21.36129497314132L4.524609375000001 21.18064748657066" stroke-width="0.03" stroke="#000000" fill="none"/>
<path d="M4.211718750000001 21.36129497314132L4.211718750000001 22.565611550279055L5.150390625 23.107554009991038" stroke-width="0.03" stroke="#000000" fill="none"/>
<path d="M5.150390625 23.227985667704807L5.150390625 22.62582737913594L5.254687500000001 22.565611550279055L6.297656249999999 23.167769838847924" stroke-width="0.03" stroke="#000000" fill="none"/>
<path d="M6.193359375 23.227985667704807L5.150390625 22.62582737913594" stroke-width="0.03" stroke="#000000" fill="none"/>
<path d="M5.150390625 23.227985667704807L5.984765624999999 23.709712298559904" stroke-width="0.03" stroke="#000000" fill="none"/>
<path d="M5.984765624999999 23.348417325418584L7.7578125 24.37208641598566L7.7578125 25.0946763622683L8.38359375 25.45597133540962L8.38359375 27.50330951654377" stroke-width="0.03" stroke="#000000" fill="none"/>
<path d="M8.5921875 27.382877858829996L8.5921875 28.58719443596773L8.696484375 28.526978607110845L8.696484375 27.322662029973106" stroke-width="0.03" stroke="#000000" fill="none"/>
<path d="M8.070703124999998 27.322662029973106L8.070703124999998 28.286115291683295L8.5921875 28.58719443596773" stroke-width="0.03" stroke="#000000" fill="none"/>
<path d="M8.175 28.346331120540185L8.175 29.430216039964147" stroke-width="0.03" stroke="#000000" fill="none"/>
<path d="M8.070703124999998 29.490431868821034L9.530859375 30.333453472817446L9.530859375 26.840935399118013L10.05234375 26.53985625483358" stroke-width="0.03" stroke="#000000" fill="none"/>
<path d="M9.530859375 26.840935399118013L12.868359374999999 28.767841922538388L13.389843749999999 28.46676277825396" stroke-width="0.03" stroke="#000000" fill="none"/>
<path d="M12.868359374999999 28.767841922538388L12.868359374999999 31.658201707668955" stroke-width="0.03" stroke="#000000" fill="none"/>
<path d="M12.868359374999999 32.3807916539516L12.868359374999999 32.621654969379136L13.076953125000001 32.50122331166537" stroke-width="0.03" stroke="#000000" fill="none"/>
<path d="M12.868359374999999 32.621654969379136L8.070703124999998 29.851726841962353" stroke-width="0.03" stroke="#000000" fill="none"/>
<path d="M9.21796875 30.514100959388106L9.21796875 32.44100748280849L10.88671875 31.477554221098295" stroke-width="0.03" stroke="#000000" fill="none"/>
<path d="M11.199609375 30.935611761386316L14.328515625 32.74208662709292L14.328515625 33.22381325794801" stroke-width="0.03" stroke="#000000" fill="none"/>
<path d="M14.537109375 32.86251828480669L14.85 32.68187079823603L14.85 27.623741174257542L14.119921875 28.04525197625575L14.015625 27.985036147398862" stroke-width="0.03" stroke="#000000" fill="none"/>
<path d="M14.119921875 28.04525197625575L14.119921875 32.50122331166537" stroke-width="0.03" stroke="#000000" fill="none"/>
<path d="M14.328515625 32.74208662709292L14.537109375 32.621654969379136" stroke-width="0.03" stroke="#000000" fill="none"/>
<path d="M14.85 32.68187079823603L15.162890625 32.86251828480669" stroke-width="0.03" stroke="#000000" fill="none"/>
<path d="M15.162890625 33.103381600234236L15.162890625 32.621654969379136L15.47578125 32.44100748280849L15.580078125 32.50122331166537L15.684375 32.44100748280849L15.684375 27.985036147398862L14.954296875 27.563525345400656L16.1015625 26.901151227974903L16.1015625 26.058129623978488L16.623046875 26.359208768262917L17.040234375 26.118345452835374L17.040234375 25.51618716426651L16.51875 25.215108019982072L16.1015625 25.45597133540962L16.623046875 25.75705047969405L17.040234375 25.51618716426651" stroke-width="0.03" stroke="#000000" fill="none"/>
<path d="M16.623046875 25.75705047969405L16.623046875 26.359208768262917" stroke-width="0.03" stroke="#000000" fill="none"/>
<path d="M16.1015625 26.901151227974903L15.997265625 26.840935399118013L14.85 27.50330951654377L13.702734374999999 26.840935399118013L13.598437500000001 26.901151227974903" stroke-width="0.03" stroke="#000000" fill="none"/>
<path d="M13.076953125000001 26.359208768262917L13.076953125000001 25.75705047969405" stroke-width="0.03" stroke="#000000" fill="none"/>
<path d="M12.659765624999999 25.51618716426651L13.181249999999999 25.215108019982072L13.598437500000001 25.45597133540962" stroke-width="0.03" stroke="#000000" fill="none"/>
<path d="M13.911328125 25.51618716426651L13.911328125 25.9979137951216L14.015625 26.058129623978488L14.85 25.576402993123395L15.684375 26.058129623978488L15.788671874999999 25.9979137951216L15.788671874999999 25.51618716426651" stroke-width="0.03" stroke="#000000" fill="none"/>
<path d="M15.684375 25.576402993123395L15.684375 26.058129623978488" stroke-width="0.03" stroke="#000000" fill="none"/>
<path d="M15.580078125 25.636618821980278L16.1015625 25.335539677695845L16.1015625 25.45597133540962" stroke-width="0.03" stroke="#000000" fill="none"/>
<path d="M15.580078125 24.55273390255632L14.85 24.13122310055811L14.119921875 24.55273390255632L14.119921875 25.636618821980278" stroke-width="0.03" stroke="#000000" fill="none"/>
<path d="M14.015625 25.576402993123395L14.015625 26.058129623978488" stroke-width="0.03" stroke="#000000" fill="none"/>
<path d="M14.4328125 27.26244620111622L14.85 27.021582885688677L15.267187499999999 27.26244620111622" stroke-width="0.03" stroke="#000000" fill="none"/>
<path d="M14.85 27.50330951654377L14.85 24.13122310055811" stroke-width="0.03" stroke="#000000" fill="none"/>
<path d="M14.85 23.890359785130563L13.911328125 24.432302244842543L14.119921875 24.55273390255632" stroke-width="0.03" stroke="#000000" fill="none"/>
<path d="M13.911328125 24.432302244842543L13.911328125 23.348417325418584L14.85 22.8064748657066L15.788671874999999 23.348417325418584" stroke-width="0.03" stroke="#000000" fill="none"/>
<path d="M15.580078125 23.107554009991038L17.040234375 22.264532405994622L17.040234375 20.57848919800179L16.31015625 20.156978396003588L15.371484375 20.698920855715564L15.371484375 19.85589925171915L14.85 19.554820107434715L14.328515625 19.85589925171915L14.328515625 20.698920855715564L13.598437500000001 21.120431657713773L13.598437500000001 21.72258994628264L14.119921875 22.023669090567072L14.85 21.602158288568866L15.580078125 22.023669090567072L16.1015625 21.72258994628264L16.1015625 21.120431657713773L15.371484375 20.698920855715564" stroke-width="0.03" stroke="#000000" fill="none"/>
<path d="M14.85 21L13.598437500000001 21.72258994628264" stroke-width="0.03" stroke="#000000" fill="none"/>
<path d="M14.119921875 22.023669090567072L14.119921875 23.107554009991038L12.659765624999999 22.264532405994622L12.659765624999999 20.57848919800179L13.389843749999999 20.156978396003588L14.328515625 20.698920855715564" stroke-width="0.03" stroke="#000000" fill="none"/>
<path d="M14.85 21L14.85 19.554820107434715" stroke-width="0.03" stroke="#000000" fill="none"/>
<path d="M15.371484375 19.85589925171915L16.31015625 19.31395679200717L14.85 18.470935188010756L13.389843749999999 19.31395679200717L13.389843749999999 20.156978396003588" stroke-width="0.03" stroke="#000000" fill="none"/>
<path d="M13.285546875 20.096762567146698L12.346874999999999 20.63870502685868L12.346874999999999 22.44517989256528L13.911328125 23.348417325418584" stroke-width="0.03" stroke="#000000" fill="none"/>
<path d="M14.119921875 23.107554009991038L14.85 22.686043207992828L14.85 21.602158288568866" stroke-width="0.03" stroke="#000000" fill="none"/>
<path d="M14.85 21L16.1015625 21.72258994628264" stroke-width="0.03" stroke="#000000" fill="none"/>
<path d="M16.1015625 21.120431657713773L17.040234375 20.57848919800179" stroke-width="0.03" stroke="#000000" fill="none"/>
<path d="M17.353125 20.63870502685868L16.414453125 20.096762567146698L16.414453125 19.01287764772274L17.353125 18.470935188010756L17.56171875 18.59136684572453L18.500390624999998 18.049424386012547" stroke-width="0.03" stroke="#000000" fill="none"/>
<path d="M18.396093750000002 17.989208557155663L18.81328125 17.748345241728117" stroke-width="0.03" stroke="#000000" fill="none"/>
<path d="M18.6046875 17.387050268586794L19.334765625 16.965539466588588L20.482031250000002 17.62791358401434L20.482031250000002 16.784891980017925L24.341015624999997 14.556906312313117L24.4453125 14.617122141170004L24.4453125 14.737553798883777L24.758203125 14.918201285454437L25.175390624999995 14.67733797002689L25.175390624999995 14.436474654599342L22.046484375000002 12.629999788892741L21.629296875 12.87086310432029L21.629296875 13.111726419747836L24.23671875 14.617122141170004" stroke-width="0.03" stroke="#000000" fill="none"/>
<path d="M24.132421875000002 14.67733797002689L23.506640625 14.31604299688557L20.586328125 16.0020862048784L19.439062500000002 15.339712087452645L19.334765625 15.399927916309531" stroke-width="0.03" stroke="#000000" fill="none"/>
<path d="M19.334765625 15.279496258595758L15.997265625 17.206402782016134L15.997265625 17.567697755157454" stroke-width="0.03" stroke="#000000" fill="none"/>
<path d="M15.89296875 17.50748192630057L19.334765625 15.520359574023306L19.334765625 15.279496258595758L16.623046875 13.713884708316701L16.205859375 13.95474802374425L15.788671874999999 13.713884708316701L15.788671874999999 13.473021392889155L17.248828125 12.629999788892741L17.248828125 12.148273158037647L16.623046875 11.786978184896327L20.586328125 9.49877668833463" stroke-width="0.03" stroke="#000000" fill="none"/>
<path d="M20.586328125 9.619208346048403L21.9421875 10.40201412118793L21.9421875 12.328920644608306" stroke-width="0.03" stroke="#000000" fill="none"/>
<path d="M21.629296875 12.87086310432029L24.758203125 14.67733797002689L24.758203125 14.918201285454437" stroke-width="0.03" stroke="#000000" fill="none"/>
<path d="M24.758203125 14.67733797002689L25.175390624999995 14.436474654599342" stroke-width="0.03" stroke="#000000" fill="none"/>
<path d="M24.966796875000004 14.797769627740664L24.966796875000004 15.159064600881985L25.279687499999998 15.339712087452645" stroke-width="0.03" stroke="#000000" fill="none"/>
<path d="M25.07109375 15.460143745166418L25.48828125 15.21928042973887L25.696875000000002 15.339712087452645L25.696875000000002 18.95266181886585" stroke-width="0.03" stroke="#000000" fill="none"/>
<path d="M25.279687499999998 19.193525134293395L25.279687499999998 15.580575402880193L25.07109375 15.460143745166418L25.07109375 15.82143871830774L25.175390624999995 15.881654547164626L25.175390624999995 16.0020862048784" stroke-width="0.03" stroke="#000000" fill="none"/>
<path d="M25.175390624999995 15.881654547164626L21.31640625 18.109640214869437L21.31640625 18.23007187258321" stroke-width="0.03" stroke="#000000" fill="none"/>
<path d="M21.31640625 18.109640214869437L20.586328125 17.688129412871227L20.586328125 16.845107808874815L20.482031250000002 16.784891980017925" stroke-width="0.03" stroke="#000000" fill="none"/>
<path d="M20.586328125 16.845107808874815L24.4453125 14.617122141170004" stroke-width="0.03" stroke="#000000" fill="none"/>
<path d="M23.923828125000004 14.436474654599342L23.819531249999997 14.49669048345623" stroke-width="0.03" stroke="#000000" fill="none"/>
<path d="M23.923828125000004 13.713884708316701L23.923828125000004 13.473021392889155L19.126171875 10.703093265472365" stroke-width="0.03" stroke="#000000" fill="none"/>
<path d="M18.81328125 10.883740752043025L20.2734375 11.72676235603944L17.248828125 13.473021392889155L17.248828125 14.075179681458023" stroke-width="0.03" stroke="#000000" fill="none"/>
<path d="M17.248828125 13.473021392889155L20.586328125 15.399927916309531L23.089453125000002 13.95474802374425" stroke-width="0.03" stroke="#000000" fill="none"/>
<path d="M23.715234375 13.593453050602928L23.923828125000004 13.473021392889155" stroke-width="0.03" stroke="#000000" fill="none"/>
<path d="M24.966796875000004 15.159064600881985L20.586328125 17.688129412871227" stroke-width="0.03" stroke="#000000" fill="none"/>
<path d="M20.482031250000002 17.748345241728117L17.56171875 19.434388449720945L17.56171875 18.59136684572453" stroke-width="0.03" stroke="#000000" fill="none"/>
<path d="M17.353125 18.470935188010756L17.353125 19.554820107434715L16.414453125 20.096762567146698" stroke-width="0.03" stroke="#000000" fill="none"/>
<path d="M16.31015625 20.156978396003588L16.31015625 19.31395679200717" stroke-width="0.03" stroke="#000000" fill="none"/>
<path d="M16.414453125 19.01287764772274L14.85 18.109640214869437L13.285546875 19.01287764772274L13.285546875 20.096762567146698L12.346874999999999 19.554820107434715L12.346874999999999 18.470935188010756L12.138281249999999 18.59136684572453L11.199609375 18.049424386012547L11.199609375 18.892445990008962L10.46953125 19.31395679200717L10.46953125 19.916115080576038L10.365234375 19.85589925171915L9.84375 20.156978396003588L9.84375 20.63870502685868L10.365234375 20.337625882574244L10.365234375 19.85589925171915" stroke-width="0.03" stroke="#000000" fill="none"/>
<path d="M10.46953125 19.554820107434715L10.05234375 19.31395679200717L10.05234375 19.193525134293395L10.88671875 18.711798503438303L10.88671875 17.748345241728117L10.991015625000001 17.688129412871227L11.408203125 17.928992728298773" stroke-width="0.03" stroke="#000000" fill="none"/>
<path d="M11.303906249999999 17.989208557155663L10.88671875 17.748345241728117" stroke-width="0.03" stroke="#000000" fill="none"/>
<path d="M11.095312499999999 17.387050268586794L11.095312499999999 16.784891980017925L11.512500000000001 16.54402866459038L12.033984375000001 16.845107808874815L12.033984375000001 17.44726609744368L11.616796874999999 17.688129412871227L11.72109375 17.748345241728117L11.199609375 18.049424386012547" stroke-width="0.03" stroke="#000000" fill="none"/>
<path d="M11.616796874999999 17.688129412871227L11.616796874999999 17.08597112430236L11.095312499999999 16.784891980017925" stroke-width="0.03" stroke="#000000" fill="none"/>
<path d="M11.616796874999999 17.08597112430236L12.033984375000001 16.845107808874815" stroke-width="0.03" stroke="#000000" fill="none"/>
<path d="M12.7640625 16.18273369144906L12.868359374999999 16.122517862592172L12.868359374999999 15.640791231737078L12.242578125 15.279496258595758L12.138281249999999 15.339712087452645L12.138281249999999 15.82143871830774L12.7640625 16.18273369144906L12.7640625 15.701007060593964L12.868359374999999 15.640791231737078" stroke-width="0.03" stroke="#000000" fill="none"/>
<path d="M12.7640625 15.701007060593964L12.138281249999999 15.339712087452645" stroke-width="0.03" stroke="#000000" fill="none"/>
<path d="M10.365234375 15.399927916309531L10.260937499999999 15.339712087452645L9.113671875 16.0020862048784L6.193359375 14.31604299688557L5.567578125 14.67733797002689" stroke-width="0.03" stroke="#000000" fill="none"/>
<path d="M5.46328125 14.617122141170004L8.070703124999998 13.111726419747836L8.070703124999998 12.87086310432029L7.653515625 12.629999788892741L4.524609375000001 14.436474654599342L4.524609375000001 14.67733797002689L4.941796875 14.918201285454437L5.254687500000001 14.737553798883777L5.254687500000001 14.617122141170004L5.3589843749999995 14.556906312313117L9.21796875 16.784891980017925L9.21796875 17.62791358401434L10.365234375 16.965539466588588L11.095312499999999 17.387050268586794" stroke-width="0.03" stroke="#000000" fill="none"/>
<path d="M10.365234375 17.08597112430236L9.21796875 17.748345241728117L9.21796875 19.073093476579622L9.113671875 19.13330930543651L9.113671875 17.808561070585L8.38359375 18.23007187258321L4.524609375000001 16.0020862048784L4.524609375000001 15.881654547164626L4.62890625 15.82143871830774L4.62890625 15.460143745166418L4.211718750000001 15.21928042973887L4.003124999999999 15.339712087452645L4.003124999999999 18.95266181886585L4.4203125 19.193525134293395L4.62890625 19.073093476579622L4.62890625 16.062302033735286" stroke-width="0.03" stroke="#000000" fill="none"/>
<path d="M4.733203124999998 16.122517862592172L4.733203124999998 16.845107808874815L7.653515625 18.531151016867643" stroke-width="0.03" stroke="#000000" fill="none"/>
<path d="M7.13203125 18.832230161152076L7.13203125 22.686043207992828L7.653515625 22.384964063708395" stroke-width="0.03" stroke="#000000" fill="none"/>
<path d="M7.13203125 22.686043207992828L4.107421875 20.939784171143113L4.107421875 22.62582737913594L4.211718750000001 22.565611550279055" stroke-width="0.03" stroke="#000000" fill="none"/>
<path d="M4.107421875 22.62582737913594L3.7945312499999995 22.44517989256528" stroke-width="0.03" stroke="#000000" fill="none"/>
<path d="M3.7945312499999995 21.120431657713773L2.125781250000001 20.156978396003588L3.7945312499999995 19.193525134293395" stroke-width="0.03" stroke="#000000" fill="none"/>
<path d="M4.4203125 19.193525134293395L4.4203125 15.580575402880193L4.62890625 15.460143745166418" stroke-width="0.03" stroke="#000000" fill="none"/>
<path d="M4.4203125 15.339712087452645L4.733203124999998 15.159064600881985L4.733203124999998 14.797769627740664" stroke-width="0.03" stroke="#000000" fill="none"/>
<path d="M4.941796875 14.67733797002689L8.070703124999998 12.87086310432029" stroke-width="0.03" stroke="#000000" fill="none"/>
<path d="M7.7578125 12.328920644608306L7.7578125 10.40201412118793L9.113671875 9.619208346048403" stroke-width="0.03" stroke="#000000" fill="none"/>
<path d="M7.7578125 10.40201412118793L9.4265625 11.365467382898117" stroke-width="0.03" stroke="#000000" fill="none"/>
<path d="M9.84375 11.606330698325666L10.88671875 11.004172409756798" stroke-width="0.03" stroke="#000000" fill="none"/>
<path d="M10.88671875 10.883740752043025L10.573828124999999 10.703093265472365" stroke-width="0.03" stroke="#000000" fill="none"/>
<path d="M9.84375 11.606330698325666L9.84375 11.967625671466987" stroke-width="0.03" stroke="#000000" fill="none"/>
<path d="M9.84375 11.606330698325666L13.494140625 13.713884708316701L13.911328125 13.473021392889155" stroke-width="0.03" stroke="#000000" fill="none"/>
<path d="M14.224218749999999 13.171942248604722L14.85 12.8106472754634L15.47578125 13.171942248604722" stroke-width="0.03" stroke="#000000" fill="none"/>
<path d="M15.788671874999999 13.473021392889155L16.205859375 13.713884708316701L19.85625 11.606330698325666L19.85625 11.967625671466987" stroke-width="0.03" stroke="#000000" fill="none"/>
<path d="M19.85625 11.606330698325666L18.81328125 11.004172409756798" stroke-width="0.03" stroke="#000000" fill="none"/>
<path d="M18.291796875 11.786978184896327L17.248828125 12.389136473465193" stroke-width="0.03" stroke="#000000" fill="none"/>
<path d="M17.248828125 12.509568131178968L18.291796875 11.9074098426101L18.291796875 11.786978184896327L17.7703125 11.485899040611892" stroke-width="0.03" stroke="#000000" fill="none"/>
<path d="M19.126171875 13.111726419747836L19.960546875000002 12.629999788892741L20.169140624999997 12.750431446606514L20.169140624999997 12.991294762034062L19.334765625 13.473021392889155L19.126171875 13.352589735175382L19.126171875 13.111726419747836L19.334765625 13.232158077461609L19.334765625 13.473021392889155" stroke-width="0.03" stroke="#000000" fill="none"/>
<path d="M19.334765625 13.232158077461609L20.169140624999997 12.750431446606514" stroke-width="0.03" stroke="#000000" fill="none"/>
<path d="M20.2734375 11.365467382898117L21.9421875 10.40201412118793" stroke-width="0.03" stroke="#000000" fill="none"/>
<path d="M18.708984375 8.53532342662444L15.997265625 6.969711876345386L14.85 7.63208599377114L13.702734374999999 6.969711876345386L10.991015625000001 8.53532342662444" stroke-width="0.03" stroke="#000000" fill="none"/>
<path d="M9.739453124999999 12.629999788892741L9.530859375 12.750431446606514L9.530859375 12.991294762034062L10.365234375 13.473021392889155L10.573828124999999 13.352589735175382L10.573828124999999 13.111726419747836L9.739453124999999 12.629999788892741" stroke-width="0.03" stroke="#000000" fill="none"/>
<path d="M9.530859375 12.750431446606514L10.365234375 13.232158077461609L10.365234375 13.473021392889155" stroke-width="0.03" stroke="#000000" fill="none"/>
<path d="M10.365234375 13.232158077461609L10.573828124999999 13.111726419747836" stroke-width="0.03" stroke="#000000" fill="none"/>
<path d="M10.365234375 15.279496258595758L13.702734374999999 17.206402782016134L13.702734374999999 17.567697755157454" stroke-width="0.03" stroke="#000000" fill="none"/>
<path d="M13.702734374999999 17.44726609744368L14.85 16.784891980017925L14.85 16.54402866459038L13.702734374999999 17.206402782016134" stroke-width="0.03" stroke="#000000" fill="none"/>
<path d="M14.745703124999999 16.845107808874815L14.85 16.905323637731698L14.954296875 16.845107808874815" stroke-width="0.03" stroke="#000000" fill="none"/>
<path d="M14.85 16.784891980017925L15.997265625 17.44726609744368" stroke-width="0.03" stroke="#000000" fill="none"/>
<path d="M15.89296875 17.50748192630057L16.205859375 17.688129412871227L16.51875 17.50748192630057L17.978906249999998 18.350503530296983L17.978906249999998 19.193525134293395L18.708984375 19.615035936291605L18.708984375 21.301079144284433L18.396093750000002 21.481726630855093L18.396093750000002 21.843021603996412L21.837890625 19.85589925171915L22.046484375000002 19.976330909432924L22.046484375000002 23.107554009991038L21.629296875 23.348417325418584L21.629296875 23.830143956273677L21.837890625 23.95057561398745" stroke-width="0.03" stroke="#000000" fill="none"/>
<path d="M21.629296875 23.830143956273677L21.31640625 24.010791442844337L21.31640625 24.612949731413206L21.212109374999997 24.673165560270093L21.212109374999997 24.793597217983862L20.690625 25.0946763622683L20.690625 25.45597133540962" stroke-width="0.03" stroke="#000000" fill="none"/>
<path d="M20.89921875 25.576402993123395L20.482031250000002 25.817266308550938L20.2734375 25.696834650837165" stroke-width="0.03" stroke="#000000" fill="none"/>
<path d="M20.482031250000002 25.817266308550938L20.482031250000002 30.032374328533013L20.169140624999997 29.851726841962353" stroke-width="0.03" stroke="#000000" fill="none"/>
<path d="M20.482031250000002 30.032374328533013L21.525000000000002 29.430216039964147L21.629296875 29.490431868821034L21.629296875 29.851726841962353L16.831640625 32.621654969379136L16.623046875 32.50122331166537" stroke-width="0.03" stroke="#000000" fill="none"/>
<path d="M16.831640625 32.621654969379136L16.831640625 32.3807916539516" stroke-width="0.03" stroke="#000000" fill="none"/>
<path d="M16.831640625 31.658201707668955L16.831640625 28.767841922538388L20.169140624999997 26.840935399118013L20.169140624999997 30.333453472817446L21.629296875 29.490431868821034" stroke-width="0.03" stroke="#000000" fill="none"/>
<path d="M21.525000000000002 29.430216039964147L21.525000000000002 28.346331120540185" stroke-width="0.03" stroke="#000000" fill="none"/>
<path d="M21.629296875 28.286115291683295L21.107812499999998 28.58719443596773L21.003515625000002 28.526978607110845L21.003515625000002 27.322662029973106" stroke-width="0.03" stroke="#000000" fill="none"/>
<path d="M21.107812499999998 27.382877858829996L21.107812499999998 28.58719443596773" stroke-width="0.03" stroke="#000000" fill="none"/>
<path d="M21.629296875 28.286115291683295L21.629296875 27.322662029973106" stroke-width="0.03" stroke="#000000" fill="none"/>
<path d="M21.31640625 27.50330951654377L21.31640625 25.45597133540962L21.9421875 25.0946763622683L21.9421875 24.37208641598566L21.31640625 24.010791442844337" stroke-width="0.03" stroke="#000000" fill="none"/>
<path d="M21.212109374999997 24.673165560270093L21.9421875 25.0946763622683" stroke-width="0.03" stroke="#000000" fill="none"/>
<path d="M21.9421875 24.37208641598566L23.715234375 23.348417325418584" stroke-width="0.03" stroke="#000000" fill="none"/>
<path d="M23.506640625 23.227985667704807L24.549609375 22.62582737913594L24.549609375 23.227985667704807L23.715234375 23.709712298559904" stroke-width="0.03" stroke="#000000" fill="none"/>
<path d="M23.40234375 23.167769838847924L24.4453125 22.565611550279055L24.549609375 22.62582737913594" stroke-width="0.03" stroke="#000000" fill="none"/>
<path d="M24.549609375 23.107554009991038L25.48828125 22.565611550279055" stroke-width="0.03" stroke="#000000" fill="none"/>
<path d="M25.592578125 22.62582737913594L25.592578125 20.939784171143113L22.567968750000002 22.686043207992828L22.046484375000002 22.384964063708395" stroke-width="0.03" stroke="#000000" fill="none"/>
<path d="M22.567968750000002 22.686043207992828L22.567968750000002 18.832230161152076L25.07109375 17.387050268586794" stroke-width="0.03" stroke="#000000" fill="none"/>
<path d="M24.966796875000004 16.845107808874815L22.046484375000002 18.531151016867643L22.046484375000002 19.85589925171915L21.9421875 19.916115080576038" stroke-width="0.03" stroke="#000000" fill="none"/>
<path d="M22.046484375000002 19.976330909432924L18.708984375 21.903237432853302L18.708984375 23.227985667704807L17.56171875 23.890359785130563L17.248828125 23.709712298559904" stroke-width="0.03" stroke="#000000" fill="none"/>
<path d="M17.353125 23.76992812741679L18.500390624999998 23.107554009991038L18.708984375 23.227985667704807" stroke-width="0.03" stroke="#000000" fill="none"/>
<path d="M18.500390624999998 23.107554009991038L18.500390624999998 21.782805775139526" stroke-width="0.03" stroke="#000000" fill="none"/>
<path d="M18.396093750000002 21.72258994628264L18.708984375 21.903237432853302" stroke-width="0.03" stroke="#000000" fill="none"/>
<path d="M18.500390624999998 22.98712235227726L18.396093750000002 23.047338181134148L18.396093750000002 23.167769838847924" stroke-width="0.03" stroke="#000000" fill="none"/>
<path d="M17.56171875 23.890359785130563L17.56171875 27.744172831971316" stroke-width="0.03" stroke="#000000" fill="none"/>
<path d="M17.457421875 27.804388660828202L16.31015625 28.46676277825396L16.31015625 31.838849194239618L15.684375 32.200144167380934" stroke-width="0.03" stroke="#000000" fill="none"/>
<path d="M15.684375 32.32057582509471L18.291796875 30.815180103672542L18.500390624999998 30.935611761386316L18.500390624999998 31.41733839224141L15.371484375 33.22381325794801L15.162890625 33.103381600234236" stroke-width="0.03" stroke="#000000" fill="none"/>
<path d="M15.371484375 33.22381325794801L15.371484375 32.74208662709292L15.162890625 32.621654969379136" stroke-width="0.03" stroke="#000000" fill="none"/>
<path d="M15.371484375 32.74208662709292L18.500390624999998 30.935611761386316" stroke-width="0.03" stroke="#000000" fill="none"/>
<path d="M18.81328125 31.477554221098295L20.482031250000002 32.44100748280849L21.837890625 31.658201707668955" stroke-width="0.03" stroke="#000000" fill="none"/>
<path d="M21.9421875 31.71841753652584L21.525000000000002 31.477554221098295L21.525000000000002 29.91194267081924" stroke-width="0.03" stroke="#000000" fill="none"/>
<path d="M20.482031250000002 30.514100959388106L20.482031250000002 32.44100748280849" stroke-width="0.03" stroke="#000000" fill="none"/>
<path d="M19.334765625 29.731295184248577L19.543359374999998 29.610863526534803L19.543359374999998 28.647410264824618L19.334765625 28.526978607110845L19.126171875 28.647410264824618L19.126171875 29.610863526534803L19.334765625 29.731295184248577L19.334765625 28.767841922538388L19.543359374999998 28.647410264824618" stroke-width="0.03" stroke="#000000" fill="none"/>
<path d="M19.334765625 28.767841922538388L19.126171875 28.647410264824618" stroke-width="0.03" stroke="#000000" fill="none"/>
<path d="M17.457421875 27.804388660828202L17.457421875 27.68395700311443" stroke-width="0.03" stroke="#000000" fill="none"/>
<path d="M16.831640625 28.767841922538388L16.31015625 28.46676277825396" stroke-width="0.03" stroke="#000000" fill="none"/>
<path d="M15.684375 27.985036147398862L15.580078125 28.04525197625575L15.580078125 32.50122331166537" stroke-width="0.03" stroke="#000000" fill="none"/>
<path d="M15.997265625 32.139928338524044L15.997265625 32.01949668081028" stroke-width="0.03" stroke="#000000" fill="none"/>
<path d="M13.702734374999999 32.01949668081028L13.702734374999999 32.139928338524044" stroke-width="0.03" stroke="#000000" fill="none"/>
<path d="M10.573828124999999 29.610863526534803L10.365234375 29.731295184248577L10.156640625 29.610863526534803L10.156640625 28.647410264824618L10.365234375 28.526978607110845L10.573828124999999 28.647410264824618L10.573828124999999 29.610863526534803" stroke-width="0.03" stroke="#000000" fill="none"/>
<path d="M10.365234375 29.731295184248577L10.365234375 28.767841922538388L10.573828124999999 28.647410264824618" stroke-width="0.03" stroke="#000000" fill="none"/>
<path d="M10.365234375 28.767841922538388L10.156640625 28.647410264824618" stroke-width="0.03" stroke="#000000" fill="none"/>
<path d="M11.303906249999999 26.17856128169226L11.72109375 25.937697966264714L11.72109375 25.215108019982072L11.616796874999999 25.154892191125185L11.199609375 25.39575550655273L11.199609375 26.118345452835374L11.303906249999999 26.17856128169226L11.303906249999999 25.45597133540962L11.199609375 25.39575550655273" stroke-width="0.03" stroke="#000000" fill="none"/>
<path d="M11.303906249999999 25.45597133540962L11.72109375 25.215108019982072" stroke-width="0.03" stroke="#000000" fill="none"/>
<path d="M12.138281249999999 23.890359785130563L12.451171875 23.709712298559904" stroke-width="0.03" stroke="#000000" fill="none"/>
<path d="M12.346874999999999 23.76992812741679L11.199609375 23.107554009991038L10.991015625000001 23.227985667704807" stroke-width="0.03" stroke="#000000" fill="none"/>
<path d="M11.199609375 23.107554009991038L11.199609375 21.782805775139526" stroke-width="0.03" stroke="#000000" fill="none"/>
<path d="M11.303906249999999 21.72258994628264L10.991015625000001 21.903237432853302" stroke-width="0.03" stroke="#000000" fill="none"/>
<path d="M11.199609375 22.98712235227726L11.303906249999999 23.047338181134148L11.303906249999999 23.167769838847924" stroke-width="0.03" stroke="#000000" fill="none"/>
<path d="M12.346874999999999 22.44517989256528L12.659765624999999 22.264532405994622" stroke-width="0.03" stroke="#000000" fill="none"/>
<path d="M13.598437500000001 21.120431657713773L12.659765624999999 20.57848919800179" stroke-width="0.03" stroke="#000000" fill="none"/>
<path d="M12.346874999999999 20.63870502685868L11.408203125 20.096762567146698L11.408203125 19.85589925171915L10.46953125 19.31395679200717" stroke-width="0.03" stroke="#000000" fill="none"/>
<path d="M10.46953125 19.434388449720945L10.05234375 19.193525134293395" stroke-width="0.03" stroke="#000000" fill="none"/>
<path d="M9.84375 19.554820107434715L9.322265625 19.85589925171915L9.322265625 20.337625882574244L9.84375 20.63870502685868" stroke-width="0.03" stroke="#000000" fill="none"/>
<path d="M9.84375 20.156978396003588L9.322265625 19.85589925171915" stroke-width="0.03" stroke="#000000" fill="none"/>
<path d="M9.84375 19.554820107434715L9.113671875 19.13330930543651" stroke-width="0.03" stroke="#000000" fill="none"/>
<path d="M9.21796875 18.23007187258321L9.63515625 17.989208557155663L9.63515625 17.50748192630057" stroke-width="0.03" stroke="#000000" fill="none"/>
<path d="M9.21796875 17.748345241728117L12.138281249999999 19.434388449720945L12.138281249999999 18.59136684572453" stroke-width="0.03" stroke="#000000" fill="none"/>
<path d="M12.346874999999999 18.470935188010756L13.285546875 19.01287764772274" stroke-width="0.03" stroke="#000000" fill="none"/>
<path d="M13.389843749999999 19.31395679200717L14.328515625 19.85589925171915" stroke-width="0.03" stroke="#000000" fill="none"/>
<path d="M14.85 18.470935188010756L14.85 18.109640214869437" stroke-width="0.03" stroke="#000000" fill="none"/>
<path d="M15.997265625 17.206402782016134L14.85 16.54402866459038" stroke-width="0.03" stroke="#000000" fill="none"/>
<path d="M16.831640625 16.122517862592172L16.831640625 15.640791231737078L17.457421875 15.279496258595758L17.56171875 15.339712087452645L17.56171875 15.82143871830774L16.9359375 16.18273369144906L16.831640625 16.122517862592172" stroke-width="0.03" stroke="#000000" fill="none"/>
<path d="M16.9359375 16.18273369144906L16.9359375 15.701007060593964L17.56171875 15.339712087452645" stroke-width="0.03" stroke="#000000" fill="none"/>
<path d="M16.9359375 15.701007060593964L16.831640625 15.640791231737078" stroke-width="0.03" stroke="#000000" fill="none"/>
<path d="M17.666015625 16.845107808874815L18.083203125 17.08597112430236" stroke-width="0.03" stroke="#000000" fill="none"/>
<path d="M18.6046875 17.387050268586794L18.6046875 16.784891980017925" stroke-width="0.03" stroke="#000000" fill="none"/>
<path d="M19.334765625 16.965539466588588L19.334765625 17.08597112430236L20.482031250000002 17.748345241728117L20.482031250000002 19.073093476579622L20.586328125 19.13330930543651" stroke-width="0.03" stroke="#000000" fill="none"/>
<path d="M20.377734375 19.85589925171915L19.85625 20.156978396003588L19.85625 20.63870502685868" stroke-width="0.03" stroke="#000000" fill="none"/>
<path d="M19.85625 20.156978396003588L19.334765625 19.85589925171915" stroke-width="0.03" stroke="#000000" fill="none"/>
<path d="M18.291796875 19.85589925171915L17.56171875 19.434388449720945" stroke-width="0.03" stroke="#000000" fill="none"/>
<path d="M17.353125 19.554820107434715L18.291796875 20.096762567146698" stroke-width="0.03" stroke="#000000" fill="none"/>
<path d="M20.064843749999998 21.602158288568866L20.690625 21.240863315427546L21.107812499999998 21.481726630855093L21.107812499999998 21.602158288568866L20.482031250000002 21.96345326171019L20.064843749999998 21.72258994628264L20.064843749999998 21.602158288568866L20.482031250000002 21.843021603996412L21.107812499999998 21.481726630855093" stroke-width="0.03" stroke="#000000" fill="none"/>
<path d="M20.482031250000002 21.843021603996412L20.482031250000002 21.96345326171019" stroke-width="0.03" stroke="#000000" fill="none"/>
<path d="M21.629296875 23.348417325418584L21.837890625 23.468848983132357" stroke-width="0.03" stroke="#000000" fill="none"/>
<path d="M20.690625 25.0946763622683L21.31640625 25.45597133540962" stroke-width="0.03" stroke="#000000" fill="none"/>
<path d="M20.169140624999997 26.840935399118013L19.647656249999997 26.53985625483358" stroke-width="0.03" stroke="#000000" fill="none"/>
<path d="M18.500390624999998 26.118345452835374L18.396093750000002 26.17856128169226L17.978906249999998 25.937697966264714L17.978906249999998 25.215108019982072L18.083203125 25.154892191125185L18.500390624999998 25.39575550655273L18.500390624999998 26.118345452835374" stroke-width="0.03" stroke="#000000" fill="none"/>
<path d="M18.396093750000002 26.17856128169226L18.396093750000002 25.45597133540962L18.500390624999998 25.39575550655273" stroke-width="0.03" stroke="#000000" fill="none"/>
<path d="M18.396093750000002 25.45597133540962L17.978906249999998 25.215108019982072" stroke-width="0.03" stroke="#000000" fill="none"/>
<path d="M15.788671874999999 24.432302244842543L14.85 23.890359785130563L14.85 22.8064748657066" stroke-width="0.03" stroke="#000000" fill="none"/>
<path d="M14.85 22.686043207992828L15.580078125 23.107554009991038L15.580078125 22.023669090567072" stroke-width="0.03" stroke="#000000" fill="none"/>
<path d="M17.040234375 22.264532405994622L17.353125 22.44517989256528" stroke-width="0.03" stroke="#000000" fill="none"/>
<path d="M20.064843749999998 17.989208557155663L20.064843749999998 17.50748192630057" stroke-width="0.03" stroke="#000000" fill="none"/>
<path d="M20.064843749999998 17.989208557155663L20.482031250000002 18.23007187258321" stroke-width="0.03" stroke="#000000" fill="none"/>
<path d="M22.046484375000002 18.531151016867643L22.567968750000002 18.832230161152076" stroke-width="0.03" stroke="#000000" fill="none"/>
<path d="M23.610937500000002 20.879568342286227L24.4453125 20.397841711431134L24.653906250000002 20.518273369144907L24.653906250000002 20.759136684572454L23.819531249999997 21.240863315427546L23.610937500000002 21.120431657713773L23.610937500000002 20.879568342286227L23.819531249999997 21L23.819531249999997 21.240863315427546" stroke-width="0.03" stroke="#000000" fill="none"/>
<path d="M23.819531249999997 21L24.653906250000002 20.518273369144907" stroke-width="0.03" stroke="#000000" fill="none"/>
<path d="M25.90546875 21.120431657713773L27.57421875 20.156978396003588" stroke-width="0.03" stroke="#000000" fill="none"/>
<path d="M25.90546875 22.44517989256528L25.90546875 16.905323637731698L25.696875000000002 16.784891980017925" stroke-width="0.03" stroke="#000000" fill="none"/>
<path d="M25.90546875 16.905323637731698L25.696875000000002 17.025755295445475" stroke-width="0.03" stroke="#000000" fill="none"/>
<path d="M24.966796875000004 16.845107808874815L24.966796875000004 16.122517862592172" stroke-width="0.03" stroke="#000000" fill="none"/>
<path d="M25.07109375 16.423597006876605L24.966796875000004 16.483812835733495" stroke-width="0.03" stroke="#000000" fill="none"/>
<path d="M25.279687499999998 15.580575402880193L25.696875000000002 15.339712087452645" stroke-width="0.03" stroke="#000000" fill="none"/>
<path d="M20.586328125 15.399927916309531L20.586328125 16.0020862048784" stroke-width="0.03" stroke="#000000" fill="none"/>
<path d="M16.205859375 13.95474802374425L16.205859375 13.713884708316701" stroke-width="0.03" stroke="#000000" fill="none"/>
<path d="M15.788671874999999 13.713884708316701L15.47578125 13.894532194887363" stroke-width="0.03" stroke="#000000" fill="none"/>
<path d="M14.85 13.653668879459815L14.85 12.8106472754634" stroke-width="0.03" stroke="#000000" fill="none"/>
<path d="M13.494140625 13.713884708316701L13.494140625 13.95474802374425" stroke-width="0.03" stroke="#000000" fill="none"/>
<path d="M10.365234375 16.965539466588588L10.365234375 17.08597112430236" stroke-width="0.03" stroke="#000000" fill="none"/>
<path d="M9.21796875 16.784891980017925L9.113671875 16.845107808874815L9.113671875 17.688129412871227L8.38359375 18.109640214869437L8.38359375 18.23007187258321" stroke-width="0.03" stroke="#000000" fill="none"/>
<path d="M8.38359375 18.109640214869437L4.524609375000001 15.881654547164626" stroke-width="0.03" stroke="#000000" fill="none"/>
<path d="M4.4203125 15.580575402880193L4.003124999999999 15.339712087452645" stroke-width="0.03" stroke="#000000" fill="none"/>
<path d="M4.733203124999998 15.159064600881985L9.113671875 17.688129412871227" stroke-width="0.03" stroke="#000000" fill="none"/>
<path d="M9.113671875 16.845107808874815L5.254687500000001 14.617122141170004" stroke-width="0.03" stroke="#000000" fill="none"/>
<path d="M4.941796875 14.67733797002689L4.941796875 14.918201285454437" stroke-width="0.03" stroke="#000000" fill="none"/>
<path d="M4.941796875 14.67733797002689L4.524609375000001 14.436474654599342" stroke-width="0.03" stroke="#000000" fill="none"/>
<path d="M5.776171874999998 14.436474654599342L5.88046875 14.49669048345623" stroke-width="0.03" stroke="#000000" fill="none"/>
<path d="M4.733203124999998 16.483812835733495L4.62890625 16.423597006876605" stroke-width="0.03" stroke="#000000" fill="none"/>
<path d="M5.254687500000001 20.397841711431134L5.046093749999999 20.518273369144907L5.046093749999999 20.759136684572454L5.88046875 21.240863315427546L6.089062499999999 21.120431657713773L6.089062499999999 20.879568342286227L5.254687500000001 20.397841711431134" stroke-width="0.03" stroke="#000000" fill="none"/>
<path d="M5.046093749999999 20.518273369144907L5.88046875 21L6.089062499999999 20.879568342286227" stroke-width="0.03" stroke="#000000" fill="none"/>
<path d="M5.88046875 21L5.88046875 21.240863315427546" stroke-width="0.03" stroke="#000000" fill="none"/>
<path d="M8.5921875 21.481726630855093L9.009374999999999 21.240863315427546L9.63515625 21.602158288568866L9.63515625 21.72258994628264L9.21796875 21.96345326171019L8.5921875 21.602158288568866L8.5921875 21.481726630855093L9.21796875 21.843021603996412L9.63515625 21.602158288568866" stroke-width="0.03" stroke="#000000" fill="none"/>
<path d="M9.21796875 21.843021603996412L9.21796875 21.96345326171019" stroke-width="0.03" stroke="#000000" fill="none"/>
<path d="M8.38359375 24.010791442844337L7.7578125 24.37208641598566" stroke-width="0.03" stroke="#000000" fill="none"/>
<path d="M7.7578125 25.0946763622683L8.487890625 24.673165560270093" stroke-width="0.03" stroke="#000000" fill="none"/>
<path d="M9.009374999999999 25.0946763622683L8.38359375 25.45597133540962" stroke-width="0.03" stroke="#000000" fill="none"/>
<path d="M5.984765624999999 26.118345452835374L5.984765624999999 30.694748445958766L7.7578125 31.71841753652584" stroke-width="0.03" stroke="#000000" fill="none"/>
<path d="M7.862109374999999 31.658201707668955L9.21796875 32.44100748280849" stroke-width="0.03" stroke="#000000" fill="none"/>
<path d="M5.984765624999999 30.574316788244992L3.2730468750000017 29.008705237965938L3.2730468750000017 27.68395700311443L2.125781250000001 27.021582885688677L2.125781250000001 23.890359785130563" stroke-width="0.03" stroke="#000000" fill="none"/>
<path d="M2.021484375 23.830143956273677L2.021484375 21.782805775139526" stroke-width="0.03" stroke="#000000" fill="none"/>
<path d="M2.125781250000001 21.72258994628264L2.125781250000001 20.156978396003588" stroke-width="0.03" stroke="#000000" fill="none"/>
<path d="M2.021484375 23.830143956273677L5.984765624999999 26.118345452835374" stroke-width="0.03" stroke="#000000" fill="none"/>
<path d="M11.408203125 20.096762567146698L12.346874999999999 19.554820107434715" stroke-width="0.03" stroke="#000000" fill="none"/>
<path d="M12.138281249999999 19.434388449720945L11.408203125 19.85589925171915" stroke-width="0.03" stroke="#000000" fill="none"/>
<path d="M9.113671875 16.0020862048784L9.113671875 15.399927916309531" stroke-width="0.03" stroke="#000000" fill="none"/>
<path d="M5.20862645825987 3.383983116796798L5.20862645825987 3.0054372986874878L5.370860380306718 3.0054372986874878L5.424938354322334 3.023463290026026L5.442964345660872 3.041489281364565L5.46099033699941 3.077541264041642L5.46099033699941 3.113593246718719L5.442964345660872 3.149645229395796L5.424938354322334 3.167671220734335L5.370860380306718 3.1856972120728733" stroke-width="0.03" stroke="#000000" fill="none"/>
<path d="M5.20862645825987 3.1856972120728733L5.370860380306718 3.1856972120728733L5.424938354322334 3.2037232034114123L5.442964345660872 3.221749194749951L5.46099033699941 3.257801177427028L5.46099033699941 3.3118791514426436L5.442964345660872 3.3479311341197207L5.424938354322334 3.3659571254582596L5.370860380306718 3.383983116796798L5.20862645825987 3.383983116796798" stroke-width="0.03" stroke="#000000" fill="none"/>
<path d="M4.920210596843253 3.0054372986874878L4.866132622827637 3.023463290026026L4.848106631489099 3.0595152727031034L4.848106631489099 3.0955672553801805L4.866132622827637 3.1316192380572576L4.902184605504715 3.149645229395796L4.974288570858869 3.167671220734335L5.028366544874484 3.1856972120728733L5.064418527551561 3.221749194749951L5.0824445188901 3.257801177427028L5.0824445188901 3.3118791514426436L5.064418527551561 3.3479311341197207L5.046392536213023 3.3659571254582596L4.992314562197407 3.383983116796798L4.920210596843253 3.383983116796798L4.866132622827637 3.3659571254582596L4.848106631489099 3.3479311341197207L4.83008064015056 3.3118791514426436L4.83008064015056 3.257801177427028L4.848106631489099 3.221749194749951L4.884158614166176 3.1856972120728733L4.938236588181791 3.167671220734335L5.010340553535945 3.149645229395796L5.046392536213023 3.1316192380572576L5.064418527551561 3.0955672553801805L5.064418527551561 3.0595152727031034L5.046392536213023 3.023463290026026L4.992314562197407 3.0054372986874878L4.920210596843253 3.0054372986874878" stroke-width="0.03" stroke="#000000" fill="none"/>
<path d="M4.7219246921193285 3.0955672553801805L4.7038987007807895 3.0595152727031034L4.667846718103712 3.023463290026026L4.631794735426635 3.0054372986874878L4.559690770072481 3.0054372986874878L4.523638787395404 3.023463290026026L4.487586804718326 3.0595152727031034L4.469560813379788 3.0955672553801805L4.45153482204125 3.149645229395796L4.45153482204125 3.2397751860884894L4.469560813379788 3.293853160104105L4.487586804718326 3.3299051427811825L4.523638787395404 3.3659571254582596L4.559690770072481 3.383983116796798L4.631794735426635 3.383983116796798L4.667846718103712 3.3659571254582596L4.7038987007807895 3.3299051427811825L4.7219246921193285 3.293853160104105" stroke-width="0.03" stroke="#000000" fill="none"/>
<path d="M4.379430856687095 3.383983116796798L4.235222925978786 3.0054372986874878L4.091014995270477 3.383983116796798" stroke-width="0.03" stroke="#000000" fill="none"/>
<path d="M4.145092969286093 3.257801177427028L4.3253528826714795 3.257801177427028" stroke-width="0.03" stroke="#000000" fill="none"/>
<path d="M3.9828590472392458 3.0054372986874878L3.80259913385386 3.0054372986874878L3.7845731425153213 3.167671220734335L3.80259913385386 3.149645229395796L3.8566771078694755 3.1316192380572576L3.9107550818850916 3.1316192380572576L3.9648330559007072 3.149645229395796L4.000885038577785 3.1856972120728733L4.018911029916323 3.2397751860884894L4.018911029916323 3.2758271687655665L4.000885038577785 3.3299051427811825L3.9648330559007072 3.3659571254582596L3.9107550818850916 3.383983116796798L3.8566771078694755 3.383983116796798L3.80259913385386 3.3659571254582596L3.7845731425153213 3.3479311341197207L3.7665471511767823 3.3118791514426436" stroke-width="0.03" stroke="#000000" fill="none"/>
<path d="M3.5502352551143197 3.383983116796798L3.5502352551143197 3.0054372986874878L3.4961572810987036 3.0595152727031034L3.4601052984216265 3.077541264041642" stroke-width="0.03" stroke="#000000" fill="none"/>
<path d="M3.297871376374779 3.383983116796798L3.0455074976352385 3.383983116796798L3.225767411020625 3.2037232034114123L3.261819393697702 3.149645229395796L3.2798453850362406 3.113593246718719L3.2798453850362406 3.077541264041642L3.261819393697702 3.041489281364565L3.243793402359163 3.023463290026026L3.207741419682086 3.0054372986874878L3.1356374543279317 3.0054372986874878L3.0995854716508546 3.023463290026026L3.0815594803123156 3.041489281364565L3.0635334889737775 3.077541264041642L3.0635334889737775 3.0955672553801805" stroke-width="0.03" stroke="#000000" fill="none"/>
<path d="M2.9734035322810843 3.0054372986874878L2.7390656448800828 3.0054372986874878L2.7390656448800828 3.383983116796798" stroke-width="0.03" stroke="#000000" fill="none"/>
<path d="M2.6128837055103125 3.383983116796798L2.414597800786388 3.1316192380572576" stroke-width="0.03" stroke="#000000" fill="none"/>
<path d="M2.6128837055103125 3.1316192380572576L2.414597800786388 3.383983116796798" stroke-width="0.03" stroke="#000000" fill="none"/>
<path d="M2.7390656448800828 3.1856972120728733L2.883273575588391 3.1856972120728733" stroke-width="0.03" stroke="#000000" fill="none"/>
<path d="M2.1622339220468474 3.0054372986874878L2.1081559480312317 3.023463290026026L2.072103965354154 3.077541264041642L2.0540779740156156 3.167671220734335L2.0540779740156156 3.221749194749951L2.072103965354154 3.3118791514426436L2.1081559480312317 3.3659571254582596L2.1622339220468474 3.383983116796798L2.1982859047239245 3.383983116796798L2.2523638787395406 3.3659571254582596L2.2884158614166177 3.3118791514426436L2.3064418527551562 3.221749194749951L2.3064418527551562 3.167671220734335L2.2884158614166177 3.077541264041642L2.2523638787395406 3.023463290026026L2.1982859047239245 3.0054372986874878L2.1622339220468474 3.0054372986874878" stroke-width="0.03" stroke="#000000" fill="none"/>
<path d="M2.1166666666666667 2.2291666666666665L2.1166666666666667 1.8208333333333333" stroke-width="0.03" stroke="#000000" fill="none"/>
<path d="M2.0875 1.6166666666666667L2.1166666666666667 1.6458333333333333L2.145833333333333 1.6166666666666667L2.1166666666666667 1.5875L2.0875 1.6166666666666667" stroke-width="0.03" stroke="#000000" fill="none"/>
<path d="M2.3208333333333333 2.1416666666666666L2.35 2.2L2.4375 2.2291666666666665L2.525 2.2291666666666665L2.6125 2.2L2.6416666666666666 2.1416666666666666L2.6416666666666666 2.1125L2.6125 2.0541666666666667L2.5541666666666667 2.025L2.408333333333333 1.9958333333333333L2.35 1.9666666666666666L2.3208333333333333 1.9083333333333332L2.35 1.85L2.4375 1.8208333333333333L2.525 1.8208333333333333L2.6125 1.85L2.6416666666666666 1.9083333333333332" stroke-width="0.03" stroke="#000000" fill="none"/>
<path d="M2.9625 1.8208333333333333L2.904166666666667 1.85L2.845833333333333 1.9083333333333332L2.8166666666666664 1.9958333333333333L2.8166666666666664 2.0541666666666667L2.845833333333333 2.1416666666666666L2.904166666666667 2.2L2.9625 2.2291666666666665L3.05 2.2291666666666665L3.1083333333333334 2.2L3.1666666666666665 2.1416666666666666L3.1958333333333333 2.0541666666666667L3.1958333333333333 1.9958333333333333L3.1666666666666665 1.9083333333333332L3.1083333333333334 1.85L3.05 1.8208333333333333L2.9625 1.8208333333333333" stroke-width="0.03" stroke="#000000" fill="none"/>
<path d="M3.283333333333333 2.2874999999999996L3.75 2.2874999999999996" stroke-width="0.03" stroke="#000000" fill="none"/>
<path d="M3.8375 2.1416666666666666L3.8666666666666663 2.2L3.9541666666666666 2.2291666666666665L4.041666666666666 2.2291666666666665L4.129166666666666 2.2L4.158333333333333 2.1416666666666666L4.158333333333333 2.1125L4.129166666666666 2.0541666666666667L4.070833333333333 2.025L3.925 1.9958333333333333L3.8666666666666663 1.9666666666666666L3.8375 1.9083333333333332L3.8666666666666663 1.85L3.9541666666666666 1.8208333333333333L4.041666666666666 1.8208333333333333L4.129166666666666 1.85L4.158333333333333 1.9083333333333332" stroke-width="0.03" stroke="#000000" fill="none"/>
<path d="M4.3625 1.9375L4.449999999999999 1.85L4.508333333333333 1.8208333333333333L4.595833333333333 1.8208333333333333L4.654166666666667 1.85L4.683333333333334 1.9375L4.683333333333334 2.2291666666666665" stroke-width="0.03" stroke="#000000" fill="none"/>
<path d="M4.3625 2.2291666666666665L4.3625 1.8208333333333333" stroke-width="0.03" stroke="#000000" fill="none"/>
<path d="M5.033333333333333 1.8208333333333333L4.975 1.85L4.916666666666666 1.9083333333333332L4.887499999999999 1.9958333333333333L4.887499999999999 2.0541666666666667L4.916666666666666 2.1416666666666666L4.975 2.2L5.033333333333333 2.2291666666666665L5.120833333333334 2.2291666666666665L5.179166666666666 2.2L5.2375 2.1416666666666666L5.266666666666666 2.0541666666666667L5.266666666666666 1.9958333333333333L5.2375 1.9083333333333332L5.179166666666666 1.85L5.120833333333334 1.8208333333333333L5.033333333333333 1.8208333333333333" stroke-width="0.03" stroke="#000000" fill="none"/>
<path d="M5.441666666666666 1.8208333333333333L5.558333333333334 2.2291666666666665L5.675 1.8208333333333333L5.791666666666666 2.2291666666666665L5.908333333333333 1.8208333333333333" stroke-width="0.03" stroke="#000000" fill="none"/>
<path d="M6.054166666666666 1.8208333333333333L6.258333333333333 1.8208333333333333" stroke-width="0.03" stroke="#000000" fill="none"/>
<path d="M6.2875 1.6166666666666667L6.229166666666666 1.6166666666666667L6.1708333333333325 1.6458333333333333L6.141666666666667 1.7333333333333334L6.141666666666667 2.2291666666666665" stroke-width="0.03" stroke="#000000" fill="none"/>
<path d="M6.4624999999999995 2.2291666666666665L6.4624999999999995 1.6166666666666667" stroke-width="0.03" stroke="#000000" fill="none"/>
<path d="M7.016666666666666 1.8208333333333333L7.016666666666666 2.2291666666666665" stroke-width="0.03" stroke="#000000" fill="none"/>
<path d="M7.016666666666666 2.1416666666666666L6.958333333333333 2.2L6.8999999999999995 2.2291666666666665L6.812499999999999 2.2291666666666665L6.754166666666666 2.2L6.695833333333333 2.1416666666666666L6.666666666666666 2.0541666666666667L6.666666666666666 1.9958333333333333L6.695833333333333 1.9083333333333332L6.754166666666666 1.85L6.812499999999999 1.8208333333333333L6.8999999999999995 1.8208333333333333L6.958333333333333 1.85L7.016666666666666 1.9083333333333332" stroke-width="0.03" stroke="#000000" fill="none"/>
<path d="M7.249999999999999 2.1125L7.541666666666666 1.8208333333333333" stroke-width="0.03" stroke="#000000" fill="none"/>
<path d="M7.366666666666666 1.9958333333333333L7.570833333333333 2.2291666666666665" stroke-width="0.03" stroke="#000000" fill="none"/>
<path d="M7.716666666666666 1.9958333333333333L8.066666666666666 1.9958333333333333L8.066666666666666 1.9375L8.0375 1.8791666666666667L8.008333333333333 1.85L7.949999999999999 1.8208333333333333L7.8625 1.8208333333333333L7.804166666666666 1.85L7.745833333333333 1.9083333333333332L7.716666666666666 1.9958333333333333L7.716666666666666 2.0541666666666667L7.745833333333333 2.1416666666666666L7.804166666666666 2.2L7.8625 2.2291666666666665L7.949999999999999 2.2291666666666665L8.008333333333333 2.2L8.066666666666666 2.1416666666666666" stroke-width="0.03" stroke="#000000" fill="none"/>
<path d="M8.270833333333332 1.7625L8.270833333333332 1.7333333333333334L8.299999999999999 1.675L8.329166666666666 1.6458333333333333L8.3875 1.6166666666666667L8.504166666666666 1.6166666666666667L8.5625 1.6458333333333333L8.591666666666665 1.675L8.620833333333334 1.7333333333333334L8.620833333333334 1.7916666666666665L8.591666666666665 1.85L8.533333333333331 1.9375L8.241666666666667 2.2291666666666665L8.649999999999999 2.2291666666666665" stroke-width="0.03" stroke="#000000" fill="none"/>
<path d="M9.237499999999999 2.533333333333333L1.5 2.533333333333333" stroke-width="0.03" stroke="#000000" fill="none"/>
<path d="M7.249999999999999 2.2291666666666665L7.249999999999999 1.6166666666666667" stroke-width="0.03" stroke="#000000" fill="none"/>
<path d="M14.85 27.623741174257542L15.580078125 28.04525197625575" stroke-width="0.03" stroke="#000000" fill="none"/>
<path d="M23.715234375 30.574316788244992L26.426953124999997 29.008705237965938L26.426953124999997 27.68395700311443L27.57421875 27.021582885688677L27.57421875 23.890359785130563" stroke-width="0.03" stroke="#000000" fill="none"/>
</svg>
