<?xml version="1.0" standalone="no"?>
<svg width="29.7cm" height="42cm" version="1.1" xmlns="http://www.w3.org/2000/svg" viewBox="0.0 0.0 29.700001 42.000001">
<path d="M10.678125 8.956834228622649L11.095312499999999 8.715970913195102L12.7640625 9.67942417490529L12.7640625 9.799855832619063L12.346874999999999 10.04071914804661L10.88671875 9.197697544050197L10.573828124999999 9.378345030620856L10.573828124999999 10.943956580899911" stroke-width="0.03" stroke="#000000" fill="none"/>
<path d="M9.948046875 10.582661607758592L7.862109374999999 11.786978184896327L7.862109374999999 12.389136473465193L9.948046875 13.593453050602928" stroke-width="0.03" stroke="#000000" fill="none"/>
<path d="M10.46953125 13.292373906318495L7.862109374999999 11.786978184896327" stroke-width="0.03" stroke="#000000" fill="none"/>
<path d="M8.175 12.569783960035853L6.714843749999999 13.412805564032269L6.714843749999999 13.77410053717359L7.236328125 14.075179681458023" stroke-width="0.03" stroke="#000000" fill="none"/>
<path d="M7.027734374999999 13.95474802374425L7.027734374999999 14.195611339171796" stroke-width="0.03" stroke="#000000" fill="none"/>
<path d="M6.9234374999999995 14.376258825742458L7.7578125 13.894532194887363L7.653515625 13.834316366030475L6.819140625 14.31604299688557L6.819140625 16.36338117801972L6.9234374999999995 16.423597006876605L5.150390625 17.44726609744368L5.046093749999999 17.387050268586794L5.046093749999999 18.350503530296983L5.150390625 18.410719359153866L6.819140625 17.44726609744368L6.819140625 16.60424449344727L7.027734374999999 16.483812835733495L7.340624999999999 16.66446032230415" stroke-width="0.03" stroke="#000000" fill="none"/>
<path d="M7.340624999999999 16.423597006876605L8.487890625 15.761222889450853" stroke-width="0.03" stroke="#000000" fill="none"/>
<path d="M8.487890625 15.881654547164626L8.487890625 14.436474654599342L13.389843749999999 11.606330698325666L14.015625 11.967625671466987L14.015625 13.292373906318495L12.242578125 14.31604299688557L12.242578125 14.436474654599342L9.113671875 16.24294952030595L8.487890625 15.881654547164626" stroke-width="0.03" stroke="#000000" fill="none"/>
<path d="M8.5921875 15.94187037602151L7.13203125 16.784891980017925L6.819140625 16.60424449344727" stroke-width="0.03" stroke="#000000" fill="none"/>
<path d="M6.9234374999999995 16.423597006876605L6.9234374999999995 14.376258825742458L6.819140625 14.31604299688557" stroke-width="0.03" stroke="#000000" fill="none"/>
<path d="M7.5492187500000005 13.894532194887363L6.714843749999999 13.412805564032269" stroke-width="0.03" stroke="#000000" fill="none"/>
<path d="M7.7578125 13.894532194887363L7.7578125 15.82143871830774L7.027734374999999 16.24294952030595L7.027734374999999 16.483812835733495" stroke-width="0.03" stroke="#000000" fill="none"/>
<path d="M7.027734374999999 16.24294952030595L7.340624999999999 16.423597006876605L7.340624999999999 18.109640214869437" stroke-width="0.03" stroke="#000000" fill="none"/>
<path d="M7.236328125 18.049424386012547L5.984765624999999 18.77201433229519L5.984765624999999 24.432302244842543L6.610546875 24.793597217983862L7.7578125 24.13122310055811L7.7578125 22.08388491942396L7.862109374999999 22.023669090567072L7.862109374999999 18.410719359153866L7.236328125 18.049424386012547" stroke-width="0.03" stroke="#000000" fill="none"/>
<path d="M7.13203125 18.109640214869437L7.13203125 16.784891980017925" stroke-width="0.03" stroke="#000000" fill="none"/>
<path d="M6.819140625 16.36338117801972L5.046093749999999 17.387050268586794" stroke-width="0.03" stroke="#000000" fill="none"/>
<path d="M5.150390625 17.44726609744368L5.150390625 18.410719359153866" stroke-width="0.03" stroke="#000000" fill="none"/>
<path d="M5.254687500000001 18.350503530296983L6.610546875 19.13330930543651L7.862109374999999 18.410719359153866" stroke-width="0.03" stroke="#000000" fill="none"/>
<path d="M7.7578125 18.350503530296983L7.7578125 16.905323637731698L9.009374999999999 16.18273369144906" stroke-width="0.03" stroke="#000000" fill="none"/>
<path d="M9.113671875 16.24294952030595L9.113671875 14.797769627740664L7.7578125 14.014963852601136" stroke-width="0.03" stroke="#000000" fill="none"/>
<path d="M7.7578125 14.376258825742458L8.487890625 14.797769627740664" stroke-width="0.03" stroke="#000000" fill="none"/>
<path d="M8.175 14.617122141170004L7.96640625 14.737553798883777L7.7578125 14.617122141170004" stroke-width="0.03" stroke="#000000" fill="none"/>
<path d="M7.96640625 14.49669048345623L7.96640625 14.737553798883777" stroke-width="0.03" stroke="#000000" fill="none"/>
<path d="M8.487890625 15.279496258595758L7.7578125 15.701007060593964" stroke-width="0.03" stroke="#000000" fill="none"/>
<path d="M7.96640625 17.025755295445475L10.156640625 15.761222889450853" stroke-width="0.03" stroke="#000000" fill="none"/>
<path d="M10.05234375 15.701007060593964L12.659765624999999 17.206402782016134L12.868359374999999 17.08597112430236L12.868359374999999 19.615035936291605L14.85 18.470935188010756L16.831640625 19.615035936291605L16.831640625 17.08597112430236L18.917578125000002 15.881654547164626L19.126171875 16.0020862048784L19.126171875 18.531151016867643L21.31640625 19.795683422862265L21.31640625 20.03654673828981L19.23046875 21.240863315427546L17.040234375 19.976330909432924L17.040234375 22.264532405994622L15.05859375 23.40863315427547L17.248828125 24.673165560270093L17.248828125 27.081798714545563L17.040234375 27.202230372259333L14.85 25.937697966264714L12.659765624999999 27.202230372259333L12.451171875 27.081798714545563L12.451171875 24.673165560270093L14.64140625 23.40863315427547L12.659765624999999 22.264532405994622L12.659765624999999 19.976330909432924L10.46953125 21.240863315427546L8.38359375 20.03654673828981L8.38359375 19.795683422862265L10.573828124999999 18.531151016867643L10.573828124999999 16.0020862048784L10.782421874999999 15.881654547164626L12.868359374999999 17.08597112430236" stroke-width="0.03" stroke="#000000" fill="none"/>
<path d="M12.659765624999999 17.206402782016134L12.659765624999999 19.735467594005378L10.46953125 21L10.46953125 21.240863315427546" stroke-width="0.03" stroke="#000000" fill="none"/>
<path d="M10.46953125 21L7.862109374999999 19.49460427857783" stroke-width="0.03" stroke="#000000" fill="none"/>
<path d="M7.96640625 19.554820107434715L7.96640625 17.025755295445475L8.487890625 17.326834439729907L10.573828124999999 16.122517862592172" stroke-width="0.03" stroke="#000000" fill="none"/>
<path d="M10.573828124999999 16.24294952030595L8.80078125 17.26661861087302L8.80078125 17.50748192630057L12.659765624999999 19.735467594005378" stroke-width="0.03" stroke="#000000" fill="none"/>
<path d="M12.868359374999999 19.85589925171915L14.85 18.711798503438303L16.831640625 19.85589925171915L16.831640625 22.14410074828085L14.85 23.288201496561694L12.868359374999999 22.14410074828085L12.868359374999999 19.85589925171915" stroke-width="0.03" stroke="#000000" fill="none"/>
<path d="M12.868359374999999 19.37417262086406L14.85 18.23007187258321L14.85 17.748345241728117L12.868359374999999 18.892445990008962" stroke-width="0.03" stroke="#000000" fill="none"/>
<path d="M12.451171875 20.096762567146698L12.451171875 22.384964063708395L14.4328125 23.529064811989244" stroke-width="0.03" stroke="#000000" fill="none"/>
<path d="M14.85 23.529064811989244L12.659765624999999 24.793597217983862L12.451171875 24.673165560270093" stroke-width="0.03" stroke="#000000" fill="none"/>
<path d="M12.659765624999999 24.793597217983862L12.659765624999999 27.804388660828202" stroke-width="0.03" stroke="#000000" fill="none"/>
<path d="M12.659765624999999 27.68395700311443L14.85 28.94848940910905L17.040234375 27.68395700311443" stroke-width="0.03" stroke="#000000" fill="none"/>
<path d="M17.040234375 27.804388660828202L17.040234375 24.793597217983862L14.85 23.529064811989244L14.85 27.985036147398862L14.64140625 28.105467805112635L12.868359374999999 27.081798714545563" stroke-width="0.03" stroke="#000000" fill="none"/>
<path d="M12.7640625 27.142014543402446L14.85 28.346331120540185L14.85 28.94848940910905" stroke-width="0.03" stroke="#000000" fill="none"/>
<path d="M14.85 29.189352724536597L16.1015625 28.46676277825396" stroke-width="0.03" stroke="#000000" fill="none"/>
<path d="M16.1015625 28.346331120540185L19.23046875 26.53985625483358L19.334765625 26.600072083690467L21.107812499999998 25.576402993123395L22.255078124999997 26.238777110549147L22.255078124999997 26.96136705683179L17.353125 29.791511013105463L16.1015625 29.068921066822824L16.1015625 28.346331120540185L17.353125 29.068921066822824L22.255078124999997 26.238777110549147" stroke-width="0.03" stroke="#000000" fill="none"/>
<path d="M22.255078124999997 26.359208768262917L22.7765625 26.660287912547354L22.7765625 30.514100959388106L23.089453125000002 30.333453472817446L23.089453125000002 28.647410264824618L23.506640625 28.40654694939707L23.610937500000002 28.46676277825396L23.610937500000002 30.393669301674333L23.193749999999998 30.63453261710188L22.880859375 30.45388513053122" stroke-width="0.03" stroke="#000000" fill="none"/>
<path d="M22.7765625 30.514100959388106L21.420703125 29.731295184248577" stroke-width="0.03" stroke="#000000" fill="none"/>
<path d="M21.420703125 30.45388513053122L19.334765625 31.658201707668955L18.81328125 31.35712256338452L18.81328125 28.94848940910905" stroke-width="0.03" stroke="#000000" fill="none"/>
<path d="M19.334765625 28.647410264824618L19.334765625 31.658201707668955" stroke-width="0.03" stroke="#000000" fill="none"/>
<path d="M18.81328125 30.995827590243202L17.353125 31.838849194239618L17.040234375 31.658201707668955L17.040234375 31.056043419100085" stroke-width="0.03" stroke="#000000" fill="none"/>
<path d="M16.831640625 31.17647507681386L17.040234375 31.296906734527635" stroke-width="0.03" stroke="#000000" fill="none"/>
<path d="M16.623046875 31.296906734527635L17.457421875 30.815180103672542L17.457421875 30.694748445958766L15.788671874999999 29.731295184248577L15.05859375 30.152805986246786L14.85 30.032374328533013L14.64140625 30.152805986246786L13.911328125 29.731295184248577L12.242578125 30.694748445958766L12.242578125 30.815180103672542L13.076953125000001 31.296906734527635L14.85 30.273237643960556L14.85 30.152805986246786L16.623046875 31.17647507681386L17.457421875 30.694748445958766" stroke-width="0.03" stroke="#000000" fill="none"/>
<path d="M17.353125 30.63453261710188L17.353125 29.068921066822824" stroke-width="0.03" stroke="#000000" fill="none"/>
<path d="M17.040234375 29.610863526534803L17.040234375 30.45388513053122" stroke-width="0.03" stroke="#000000" fill="none"/>
<path d="M16.831640625 30.333453472817446L16.831640625 30.0925901573899L17.040234375 29.972158499676127" stroke-width="0.03" stroke="#000000" fill="none"/>
<path d="M17.040234375 30.21302181510367L16.831640625 30.0925901573899" stroke-width="0.03" stroke="#000000" fill="none"/>
<path d="M16.623046875 29.37000021110726L15.89296875 29.791511013105463" stroke-width="0.03" stroke="#000000" fill="none"/>
<path d="M16.205859375 29.12913689567971L15.05859375 29.791511013105463L13.598437500000001 28.94848940910905" stroke-width="0.03" stroke="#000000" fill="none"/>
<path d="M13.598437500000001 29.068921066822824L12.346874999999999 29.791511013105463L7.4449218749999995 26.96136705683179L7.4449218749999995 26.238777110549147L8.5921875 25.576402993123395L10.365234375 26.600072083690467L10.46953125 26.53985625483358L13.598437500000001 28.346331120540185L13.598437500000001 29.068921066822824" stroke-width="0.03" stroke="#000000" fill="none"/>
<path d="M13.494140625 29.12913689567971L14.64140625 29.791511013105463L16.1015625 28.94848940910905" stroke-width="0.03" stroke="#000000" fill="none"/>
<path d="M14.85 29.189352724536597L13.598437500000001 28.46676277825396" stroke-width="0.03" stroke="#000000" fill="none"/>
<path d="M13.598437500000001 28.346331120540185L12.346874999999999 29.068921066822824L7.4449218749999995 26.238777110549147" stroke-width="0.03" stroke="#000000" fill="none"/>
<path d="M7.4449218749999995 26.359208768262917L6.9234374999999995 26.660287912547354L6.9234374999999995 30.514100959388106L6.610546875 30.333453472817446L6.610546875 28.647410264824618L6.193359375 28.40654694939707L6.089062499999999 28.46676277825396L6.089062499999999 30.393669301674333L6.5062500000000005 30.63453261710188L6.819140625 30.45388513053122" stroke-width="0.03" stroke="#000000" fill="none"/>
<path d="M6.9234374999999995 30.514100959388106L8.279296875 29.731295184248577" stroke-width="0.03" stroke="#000000" fill="none"/>
<path d="M8.279296875 30.45388513053122L8.279296875 27.443093687686883" stroke-width="0.03" stroke="#000000" fill="none"/>
<path d="M6.9234374999999995 26.660287912547354L5.984765624999999 26.118345452835374L5.984765624999999 25.034460533411412L2.647265625000001 23.107554009991038L4.003124999999999 22.32474823485151" stroke-width="0.03" stroke="#000000" fill="none"/>
<path d="M3.3773437500000005 21.96345326171019L3.3773437500000005 19.554820107434715L3.898828125 19.253740963150285L5.984765624999999 20.458057540288017" stroke-width="0.03" stroke="#000000" fill="none"/>
<path d="M5.984765624999999 21.060215828856883L3.3773437500000005 19.554820107434715" stroke-width="0.03" stroke="#000000" fill="none"/>
<path d="M4.211718750000001 19.434388449720945L4.211718750000001 17.748345241728117L4.524609375000001 17.567697755157454L5.046093749999999 17.86877689944189" stroke-width="0.03" stroke="#000000" fill="none"/>
<path d="M4.8374999999999995 17.748345241728117L5.046093749999999 17.62791358401434" stroke-width="0.03" stroke="#000000" fill="none"/>
<path d="M5.046093749999999 18.23007187258321L4.211718750000001 17.748345241728117" stroke-width="0.03" stroke="#000000" fill="none"/>
<path d="M5.567578125 18.16985604372632L6.297656249999999 18.59136684572453" stroke-width="0.03" stroke="#000000" fill="none"/>
<path d="M5.984765624999999 18.410719359153866L5.984765624999999 18.16985604372632L5.776171874999998 18.049424386012547" stroke-width="0.03" stroke="#000000" fill="none"/>
<path d="M5.984765624999999 18.16985604372632L5.776171874999998 18.290287701440096" stroke-width="0.03" stroke="#000000" fill="none"/>
<path d="M6.714843749999999 18.350503530296983L6.714843749999999 17.50748192630057" stroke-width="0.03" stroke="#000000" fill="none"/>
<path d="M6.610546875 19.13330930543651L6.610546875 24.793597217983862" stroke-width="0.03" stroke="#000000" fill="none"/>
<path d="M6.5062500000000005 24.73338138912698L5.984765624999999 25.034460533411412" stroke-width="0.03" stroke="#000000" fill="none"/>
<path d="M5.984765624999999 26.118345452835374L7.4449218749999995 25.27532384883896L8.279296875 25.75705047969405L8.279296875 24.793597217983862L7.4449218749999995 24.311870587128773L7.4449218749999995 25.27532384883896" stroke-width="0.03" stroke="#000000" fill="none"/>
<path d="M9.113671875 24.311870587128773L9.739453124999999 23.95057561398745L9.739453124999999 23.830143956273677L9.63515625 23.76992812741679" stroke-width="0.03" stroke="#000000" fill="none"/>
<path d="M9.739453124999999 23.830143956273677L9.63515625 23.890359785130563" stroke-width="0.03" stroke="#000000" fill="none"/>
<path d="M9.739453124999999 23.95057561398745L9.84375 24.010791442844337L9.84375 24.13122310055811" stroke-width="0.03" stroke="#000000" fill="none"/>
<path d="M9.84375 24.010791442844337L9.739453124999999 24.071007271701223" stroke-width="0.03" stroke="#000000" fill="none"/>
<path d="M9.63515625 24.010791442844337L9.63515625 22.565611550279055L7.862109374999999 21.54194245971198" stroke-width="0.03" stroke="#000000" fill="none"/>
<path d="M7.7578125 22.08388491942396L9.113671875 22.866690694563488L9.113671875 24.311870587128773L10.365234375 25.034460533411412L10.88671875 24.73338138912698L10.88671875 26.780719570261127" stroke-width="0.03" stroke="#000000" fill="none"/>
<path d="M10.365234375 26.600072083690467L10.365234375 25.034460533411412" stroke-width="0.03" stroke="#000000" fill="none"/>
<path d="M10.88671875 24.73338138912698L9.63515625 24.010791442844337" stroke-width="0.03" stroke="#000000" fill="none"/>
<path d="M9.113671875 22.866690694563488L9.63515625 22.565611550279055" stroke-width="0.03" stroke="#000000" fill="none"/>
<path d="M9.113671875 22.264532405994622L9.113671875 20.458057540288017" stroke-width="0.03" stroke="#000000" fill="none"/>
<path d="M9.113671875 20.57848919800179L7.862109374999999 19.85589925171915" stroke-width="0.03" stroke="#000000" fill="none"/>
<path d="M8.487890625 19.735467594005378L8.487890625 17.326834439729907" stroke-width="0.03" stroke="#000000" fill="none"/>
<path d="M8.5921875 17.62791358401434L8.80078125 17.50748192630057" stroke-width="0.03" stroke="#000000" fill="none"/>
<path d="M8.5921875 17.62791358401434L8.5921875 19.67525176514849" stroke-width="0.03" stroke="#000000" fill="none"/>
<path d="M9.113671875 19.37417262086406L9.113671875 18.531151016867643L9.84375 18.109640214869437L9.84375 17.26661861087302L10.573828124999999 16.845107808874815" stroke-width="0.03" stroke="#000000" fill="none"/>
<path d="M10.573828124999999 17.688129412871227L9.84375 17.26661861087302" stroke-width="0.03" stroke="#000000" fill="none"/>
<path d="M9.84375 17.86877689944189L8.80078125 17.26661861087302" stroke-width="0.03" stroke="#000000" fill="none"/>
<path d="M8.5921875 17.62791358401434L9.63515625 18.23007187258321" stroke-width="0.03" stroke="#000000" fill="none"/>
<path d="M9.113671875 18.531151016867643L9.84375 18.95266181886585" stroke-width="0.03" stroke="#000000" fill="none"/>
<path d="M12.033984375000001 20.337625882574244L12.033984375000001 22.62582737913594L14.015625 23.76992812741679" stroke-width="0.03" stroke="#000000" fill="none"/>
<path d="M15.267187499999999 23.529064811989244L17.248828125 22.384964063708395L17.666015625 22.62582737913594L17.666015625 20.337625882574244" stroke-width="0.03" stroke="#000000" fill="none"/>
<path d="M17.248828125 20.096762567146698L17.248828125 22.384964063708395" stroke-width="0.03" stroke="#000000" fill="none"/>
<path d="M17.040234375 22.264532405994622L16.205859375 21.782805775139526L16.205859375 20.57848919800179L15.89296875 20.397841711431134L15.684375 20.518273369144907" stroke-width="0.03" stroke="#000000" fill="none"/>
<path d="M15.89296875 20.397841711431134L15.89296875 20.03654673828981L14.85 19.434388449720945L13.80703125 20.03654673828981L13.80703125 20.397841711431134L14.015625 20.518273369144907" stroke-width="0.03" stroke="#000000" fill="none"/>
<path d="M13.80703125 20.397841711431134L13.494140625 20.57848919800179L13.494140625 21.782805775139526L14.537109375 22.384964063708395L14.85 22.204316577137735L15.162890625 22.384964063708395L16.205859375 21.782805775139526" stroke-width="0.03" stroke="#000000" fill="none"/>
<path d="M15.997265625 21.662374117425752L15.162890625 22.14410074828085L15.162890625 22.384964063708395" stroke-width="0.03" stroke="#000000" fill="none"/>
<path d="M15.162890625 22.14410074828085L14.015625 21.481726630855093L14.015625 20.156978396003588L13.80703125 20.03654673828981" stroke-width="0.03" stroke="#000000" fill="none"/>
<path d="M14.015625 20.156978396003588L14.85 19.67525176514849L15.684375 20.156978396003588L15.684375 21.481726630855093L14.537109375 22.14410074828085L14.537109375 22.384964063708395" stroke-width="0.03" stroke="#000000" fill="none"/>
<path d="M14.537109375 22.14410074828085L13.702734374999999 21.662374117425752L13.702734374999999 20.698920855715564L13.494140625 20.57848919800179" stroke-width="0.03" stroke="#000000" fill="none"/>
<path d="M13.702734374999999 20.698920855715564L14.85 20.03654673828981L15.997265625 20.698920855715564L16.205859375 20.57848919800179" stroke-width="0.03" stroke="#000000" fill="none"/>
<path d="M15.997265625 20.698920855715564L15.997265625 21.662374117425752L14.85 21L13.702734374999999 21.662374117425752" stroke-width="0.03" stroke="#000000" fill="none"/>
<path d="M13.494140625 21.782805775139526L12.659765624999999 22.264532405994622" stroke-width="0.03" stroke="#000000" fill="none"/>
<path d="M12.451171875 22.384964063708395L12.033984375000001 22.62582737913594" stroke-width="0.03" stroke="#000000" fill="none"/>
<path d="M14.85 22.204316577137735L14.85 21.96345326171019" stroke-width="0.03" stroke="#000000" fill="none"/>
<path d="M14.85 21L14.85 19.67525176514849" stroke-width="0.03" stroke="#000000" fill="none"/>
<path d="M14.85 19.434388449720945L14.85 18.470935188010756" stroke-width="0.03" stroke="#000000" fill="none"/>
<path d="M14.85 18.23007187258321L16.831640625 19.37417262086406" stroke-width="0.03" stroke="#000000" fill="none"/>
<path d="M17.040234375 19.735467594005378L20.89921875 17.50748192630057L21.107812499999998 17.62791358401434L21.107812499999998 19.67525176514849" stroke-width="0.03" stroke="#000000" fill="none"/>
<path d="M21.212109374999997 19.735467594005378L21.212109374999997 17.326834439729907L19.126171875 16.122517862592172" stroke-width="0.03" stroke="#000000" fill="none"/>
<path d="M19.126171875 16.24294952030595L20.89921875 17.26661861087302L20.89921875 17.50748192630057" stroke-width="0.03" stroke="#000000" fill="none"/>
<path d="M21.107812499999998 17.62791358401434L20.064843749999998 18.23007187258321" stroke-width="0.03" stroke="#000000" fill="none"/>
<path d="M19.85625 18.109640214869437L19.85625 17.26661861087302L19.126171875 16.845107808874815" stroke-width="0.03" stroke="#000000" fill="none"/>
<path d="M19.126171875 17.688129412871227L19.85625 17.26661861087302" stroke-width="0.03" stroke="#000000" fill="none"/>
<path d="M19.85625 17.86877689944189L20.89921875 17.26661861087302" stroke-width="0.03" stroke="#000000" fill="none"/>
<path d="M21.212109374999997 17.326834439729907L21.733593749999997 17.025755295445475L21.733593749999997 19.554820107434715" stroke-width="0.03" stroke="#000000" fill="none"/>
<path d="M21.837890625 19.49460427857783L19.23046875 21L17.040234375 19.735467594005378L17.040234375 17.206402782016134L19.647656249999997 15.701007060593964" stroke-width="0.03" stroke="#000000" fill="none"/>
<path d="M19.543359374999998 15.761222889450853L21.733593749999997 17.025755295445475" stroke-width="0.03" stroke="#000000" fill="none"/>
<path d="M21.9421875 16.905323637731698L21.9421875 18.350503530296983" stroke-width="0.03" stroke="#000000" fill="none"/>
<path d="M21.837890625 18.410719359153866L22.463671875 18.049424386012547L23.715234375 18.77201433229519L23.715234375 24.432302244842543L23.089453125000002 24.793597217983862L21.9421875 24.13122310055811L21.9421875 22.08388491942396L21.837890625 22.023669090567072L21.837890625 18.410719359153866L23.089453125000002 19.13330930543651L24.4453125 18.350503530296983" stroke-width="0.03" stroke="#000000" fill="none"/>
<path d="M24.549609375 18.410719359153866L24.653906250000002 18.350503530296983L24.653906250000002 17.387050268586794L22.880859375 16.36338117801972L22.880859375 14.31604299688557L22.046484375000002 13.834316366030475L21.9421875 13.894532194887363L21.9421875 15.82143871830774L22.672265625 16.24294952030595L22.672265625 16.483812835733495L22.880859375 16.60424449344727L22.880859375 17.44726609744368L24.549609375 18.410719359153866L24.549609375 17.44726609744368L22.7765625 16.423597006876605L22.7765625 14.376258825742458L22.880859375 14.31604299688557" stroke-width="0.03" stroke="#000000" fill="none"/>
<path d="M22.7765625 14.376258825742458L21.9421875 13.894532194887363" stroke-width="0.03" stroke="#000000" fill="none"/>
<path d="M21.9421875 14.014963852601136L20.586328125 14.797769627740664L20.586328125 16.24294952030595L17.457421875 14.436474654599342L17.457421875 14.31604299688557L15.684375 13.292373906318495L15.684375 11.967625671466987L16.31015625 11.606330698325666L21.212109374999997 14.436474654599342L21.212109374999997 15.881654547164626L20.586328125 16.24294952030595" stroke-width="0.03" stroke="#000000" fill="none"/>
<path d="M20.690625 16.18273369144906L21.9421875 16.905323637731698" stroke-width="0.03" stroke="#000000" fill="none"/>
<path d="M22.359375 16.66446032230415L22.672265625 16.483812835733495" stroke-width="0.03" stroke="#000000" fill="none"/>
<path d="M22.7765625 16.423597006876605L22.880859375 16.36338117801972" stroke-width="0.03" stroke="#000000" fill="none"/>
<path d="M22.672265625 16.24294952030595L22.359375 16.423597006876605L21.212109374999997 15.761222889450853" stroke-width="0.03" stroke="#000000" fill="none"/>
<path d="M21.107812499999998 15.94187037602151L22.567968750000002 16.784891980017925L22.880859375 16.60424449344727" stroke-width="0.03" stroke="#000000" fill="none"/>
<path d="M22.567968750000002 16.784891980017925L22.567968750000002 18.109640214869437" stroke-width="0.03" stroke="#000000" fill="none"/>
<path d="M22.359375 18.109640214869437L22.359375 16.423597006876605" stroke-width="0.03" stroke="#000000" fill="none"/>
<path d="M21.9421875 15.701007060593964L21.212109374999997 15.279496258595758" stroke-width="0.03" stroke="#000000" fill="none"/>
<path d="M21.212109374999997 14.797769627740664L21.9421875 14.376258825742458" stroke-width="0.03" stroke="#000000" fill="none"/>
<path d="M21.9421875 14.617122141170004L21.733593749999997 14.737553798883777L21.525000000000002 14.617122141170004" stroke-width="0.03" stroke="#000000" fill="none"/>
<path d="M21.733593749999997 14.49669048345623L21.733593749999997 14.737553798883777" stroke-width="0.03" stroke="#000000" fill="none"/>
<path d="M22.150781249999998 13.894532194887363L22.98515625 13.412805564032269L21.525000000000002 12.569783960035853" stroke-width="0.03" stroke="#000000" fill="none"/>
<path d="M21.837890625 12.389136473465193L19.751953125 13.593453050602928" stroke-width="0.03" stroke="#000000" fill="none"/>
<path d="M19.23046875 13.292373906318495L21.837890625 11.786978184896327L21.837890625 12.389136473465193" stroke-width="0.03" stroke="#000000" fill="none"/>
<path d="M21.837890625 11.786978184896327L19.751953125 10.582661607758592L17.14453125 12.08805732918076" stroke-width="0.03" stroke="#000000" fill="none"/>
<path d="M15.788671874999999 11.9074098426101L15.788671874999999 11.305251554041233L14.85 10.763309094329252L13.911328125 11.305251554041233L13.911328125 11.9074098426101" stroke-width="0.03" stroke="#000000" fill="none"/>
<path d="M14.015625 11.967625671466987L9.113671875 14.797769627740664" stroke-width="0.03" stroke="#000000" fill="none"/>
<path d="M10.365234375 15.520359574023306L11.616796874999999 16.24294952030595" stroke-width="0.03" stroke="#000000" fill="none"/>
<path d="M11.512500000000001 16.303165349162832L13.076953125000001 15.399927916309531" stroke-width="0.03" stroke="#000000" fill="none"/>
<path d="M13.598437500000001 15.098848772025098L14.85 14.376258825742458L16.1015625 15.098848772025098L17.457421875 14.31604299688557" stroke-width="0.03" stroke="#000000" fill="none"/>
<path d="M17.874609375000002 14.67733797002689L16.1015625 15.701007060593964L14.85 14.978417114311325L13.598437500000001 15.701007060593964L11.825390624999999 14.67733797002689" stroke-width="0.03" stroke="#000000" fill="none"/>
<path d="M12.242578125 14.31604299688557L13.598437500000001 15.098848772025098L13.598437500000001 15.701007060593964" stroke-width="0.03" stroke="#000000" fill="none"/>
<path d="M14.64140625 15.098848772025098L14.745703124999999 15.159064600881985L14.85 15.098848772025098L14.954296875 15.159064600881985L15.05859375 15.098848772025098" stroke-width="0.03" stroke="#000000" fill="none"/>
<path d="M14.954296875 15.038632943168212L14.954296875 15.159064600881985" stroke-width="0.03" stroke="#000000" fill="none"/>
<path d="M14.85 15.098848772025098L14.85 14.376258825742458" stroke-width="0.03" stroke="#000000" fill="none"/>
<path d="M14.745703124999999 15.038632943168212L14.745703124999999 15.159064600881985" stroke-width="0.03" stroke="#000000" fill="none"/>
<path d="M16.1015625 15.098848772025098L16.1015625 15.701007060593964" stroke-width="0.03" stroke="#000000" fill="none"/>
<path d="M16.623046875 15.399927916309531L18.1875 16.303165349162832" stroke-width="0.03" stroke="#000000" fill="none"/>
<path d="M18.083203125 16.24294952030595L19.334765625 15.520359574023306" stroke-width="0.03" stroke="#000000" fill="none"/>
<path d="M20.586328125 14.797769627740664L15.684375 11.967625671466987" stroke-width="0.03" stroke="#000000" fill="none"/>
<path d="M15.788671874999999 11.305251554041233L19.126171875 9.378345030620856L19.126171875 10.943956580899911" stroke-width="0.03" stroke="#000000" fill="none"/>
<path d="M19.126171875 9.378345030620856L18.81328125 9.197697544050197L17.353125 10.04071914804661L16.9359375 9.799855832619063L16.9359375 9.67942417490529L18.6046875 8.715970913195102L19.021874999999998 8.956834228622649L19.021874999999998 9.31812920176397" stroke-width="0.03" stroke="#000000" fill="none"/>
<path d="M19.021874999999998 8.956834228622649L17.353125 9.920287490332836L17.353125 10.04071914804661" stroke-width="0.03" stroke="#000000" fill="none"/>
<path d="M17.353125 9.920287490332836L16.9359375 9.67942417490529" stroke-width="0.03" stroke="#000000" fill="none"/>
<path d="M15.89296875 9.31812920176397L15.162890625 8.896618399765762L14.85 9.077265886336422L14.537109375 8.896618399765762L13.80703125 9.31812920176397" stroke-width="0.03" stroke="#000000" fill="none"/>
<path d="M13.911328125 9.49877668833463L14.4328125 9.197697544050197L14.85 9.438560859477743L15.267187499999999 9.197697544050197L15.788671874999999 9.49877668833463L15.788671874999999 9.86007166147595L14.954296875 10.341798292331045L14.85 10.281582463474159L14.745703124999999 10.341798292331045L13.911328125 9.86007166147595L13.911328125 9.49877668833463L14.745703124999999 9.980503319189724L14.745703124999999 10.341798292331045" stroke-width="0.03" stroke="#000000" fill="none"/>
<path d="M14.85 10.281582463474159L14.85 9.920287490332836L14.745703124999999 9.980503319189724" stroke-width="0.03" stroke="#000000" fill="none"/>
<path d="M14.85 9.920287490332836L14.954296875 9.980503319189724L14.954296875 10.341798292331045" stroke-width="0.03" stroke="#000000" fill="none"/>
<path d="M14.954296875 9.980503319189724L15.788671874999999 9.49877668833463" stroke-width="0.03" stroke="#000000" fill="none"/>
<path d="M15.684375 9.438560859477743L17.457421875 8.414891768910667L18.291796875 8.896618399765762" stroke-width="0.03" stroke="#000000" fill="none"/>
<path d="M14.85 10.763309094329252L14.85 12.44935230232208L14.015625 12.931078933177174L14.85 13.412805564032269L15.684375 12.931078933177174L14.85 12.44935230232208" stroke-width="0.03" stroke="#000000" fill="none"/>
<path d="M13.911328125 11.305251554041233L10.573828124999999 9.378345030620856" stroke-width="0.03" stroke="#000000" fill="none"/>
<path d="M10.678125 9.31812920176397L10.678125 8.956834228622649L12.346874999999999 9.920287490332836L12.7640625 9.67942417490529" stroke-width="0.03" stroke="#000000" fill="none"/>
<path d="M12.346874999999999 9.920287490332836L12.346874999999999 10.04071914804661" stroke-width="0.03" stroke="#000000" fill="none"/>
<path d="M11.408203125 8.896618399765762L12.242578125 8.414891768910667L14.015625 9.438560859477743" stroke-width="0.03" stroke="#000000" fill="none"/>
<path d="M12.555468750000001 12.08805732918076L9.948046875 10.582661607758592" stroke-width="0.03" stroke="#000000" fill="none"/>
<path d="M9.237499999999999 2.533333333333333L1.5 2.533333333333333" stroke-width="0.03" stroke="#000000" fill="none"/>
<path d="M2.1166666666666667 2.2291666666666665L2.1166666666666667 1.8208333333333333" stroke-width="0.03" stroke="#000000" fill="none"/>
<path d="M2.0875 1.6166666666666667L2.1166666666666667 1.6458333333333333L2.145833333333333 1.6166666666666667L2.1166666666666667 1.5875L2.0875 1.6166666666666667" stroke-width="0.03" stroke="#000000" fill="none"/>
<path d="M2.3208333333333333 2.1416666666666666L2.35 2.2L2.4375 2.2291666666666665L2.525 2.2291666666666665L2.6125 2.2L2.6416666666666666 2.1416666666666666L2.6416666666666666 2.1125L2.6125 2.0541666666666667L2.5541666666666667 2.025L2.408333333333333 1.9958333333333333L2.35 1.9666666666666666L2.3208333333333333 1.9083333333333332L2.35 1.85L2.4375 1.8208333333333333L2.525 1.8208333333333333L2.6125 1.85L2.6416666666666666 1.9083333333333332" stroke-width="0.03" stroke="#000000" fill="none"/>
<path d="M2.9625 1.8208333333333333L2.904166666666667 1.85L2.845833333333333 1.9083333333333332L2.8166666666666664 1.9958333333333333L2.8166666666666664 2.0541666666666667L2.845833333333333 2.1416666666666666L2.904166666666667 2.2L2.9625 2.2291666666666665L3.05 2.2291666666666665L3.1083333333333334 2.2L3.1666666666666665 2.1416666666666666L3.1958333333333333 2.0541666666666667L3.1958333333333333 1.9958333333333333L3.1666666666666665 1.9083333333333332L3.1083333333333334 1.85L3.05 1.8208333333333333L2.9625 1.8208333333333333" stroke-width="0.03" stroke="#000000" fill="none"/>
<path d="M3.283333333333333 2.2874999999999996L3.75 2.2874999999999996" stroke-width="0.03" stroke="#000000" fill="none"/>
<path d="M3.8375 2.1416666666666666L3.8666666666666663 2.2L3.9541666666666666 2.2291666666666665L4.041666666666666 2.2291666666666665L4.129166666666666 2.2L4.158333333333333 2.1416666666666666L4.158333333333333 2.1125L4.129166666666666 2.0541666666666667L4.070833333333333 2.025L3.925 1.9958333333333333L3.8666666666666663 1.9666666666666666L3.8375 1.9083333333333332L3.8666666666666663 1.85L3.9541666666666666 1.8208333333333333L4.041666666666666 1.8208333333333333L4.129166666666666 1.85L4.158333333333333 1.9083333333333332" stroke-width="0.03" stroke="#000000" fill="none"/>
<path d="M4.3625 1.9375L4.449999999999999 1.85L4.508333333333333 1.8208333333333333L4.595833333333333 1.8208333333333333L4.654166666666667 1.85L4.683333333333334 1.9375L4.683333333333334 2.2291666666666665" stroke-width="0.03" stroke="#000000" fill="none"/>
<path d="M4.3625 2.2291666666666665L4.3625 1.8208333333333333" stroke-width="0.03" stroke="#000000" fill="none"/>
<path d="M5.033333333333333 1.8208333333333333L4.975 1.85L4.916666666666666 1.9083333333333332L4.887499999999999 1.9958333333333333L4.887499999999999 2.0541666666666667L4.916666666666666 2.1416666666666666L4.975 2.2L5.033333333333333 2.2291666666666665L5.120833333333334 2.2291666666666665L5.179166666666666 2.2L5.2375 2.1416666666666666L5.266666666666666 2.0541666666666667L5.266666666666666 1.9958333333333333L5.2375 1.9083333333333332L5.179166666666666 1.85L5.120833333333334 1.8208333333333333L5.033333333333333 1.8208333333333333" stroke-width="0.03" stroke="#000000" fill="none"/>
<path d="M5.441666666666666 1.8208333333333333L5.558333333333334 2.2291666666666665L5.675 1.8208333333333333L5.791666666666666 2.2291666666666665L5.908333333333333 1.8208333333333333" stroke-width="0.03" stroke="#000000" fill="none"/>
<path d="M6.054166666666666 1.8208333333333333L6.258333333333333 1.8208333333333333" stroke-width="0.03" stroke="#000000" fill="none"/>
<path d="M6.2875 1.6166666666666667L6.229166666666666 1.6166666666666667L6.1708333333333325 1.6458333333333333L6.141666666666667 1.7333333333333334L6.141666666666667 2.2291666666666665" stroke-width="0.03" stroke="#000000" fill="none"/>
<path d="M6.4624999999999995 2.2291666666666665L6.4624999999999995 1.6166666666666667" stroke-width="0.03" stroke="#000000" fill="none"/>
<path d="M7.016666666666666 1.8208333333333333L7.016666666666666 2.2291666666666665" stroke-width="0.03" stroke="#000000" fill="none"/>
<path d="M7.016666666666666 2.1416666666666666L6.958333333333333 2.2L6.8999999999999995 2.2291666666666665L6.812499999999999 2.2291666666666665L6.754166666666666 2.2L6.695833333333333 2.1416666666666666L6.666666666666666 2.0541666666666667L6.666666666666666 1.9958333333333333L6.695833333333333 1.9083333333333332L6.754166666666666 1.85L6.812499999999999 1.8208333333333333L6.8999999999999995 1.8208333333333333L6.958333333333333 1.85L7.016666666666666 1.9083333333333332" stroke-width="0.03" stroke="#000000" fill="none"/>
<path d="M7.249999999999999 2.1125L7.541666666666666 1.8208333333333333" stroke-width="0.03" stroke="#000000" fill="none"/>
<path d="M7.366666666666666 1.9958333333333333L7.570833333333333 2.2291666666666665" stroke-width="0.03" stroke="#000000" fill="none"/>
<path d="M7.716666666666666 1.9958333333333333L8.066666666666666 1.9958333333333333L8.066666666666666 1.9375L8.0375 1.8791666666666667L8.008333333333333 1.85L7.949999999999999 1.8208333333333333L7.8625 1.8208333333333333L7.804166666666666 1.85L7.745833333333333 1.9083333333333332L7.716666666666666 1.9958333333333333L7.716666666666666 2.0541666666666667L7.745833333333333 2.1416666666666666L7.804166666666666 2.2L7.8625 2.2291666666666665L7.949999999999999 2.2291666666666665L8.008333333333333 2.2L8.066666666666666 2.1416666666666666" stroke-width="0.03" stroke="#000000" fill="none"/>
<path d="M8.270833333333332 1.7625L8.270833333333332 1.7333333333333334L8.299999999999999 1.675L8.329166666666666 1.6458333333333333L8.3875 1.6166666666666667L8.504166666666666 1.6166666666666667L8.5625 1.6458333333333333L8.591666666666665 1.675L8.620833333333334 1.7333333333333334L8.620833333333334 1.7916666666666665L8.591666666666665 1.85L8.533333333333331 1.9375L8.241666666666667 2.2291666666666665L8.649999999999999 2.2291666666666665" stroke-width="0.03" stroke="#000000" fill="none"/>
<path d="M7.249999999999999 2.2291666666666665L7.249999999999999 1.6166666666666667" stroke-width="0.03" stroke="#000000" fill="none"/>
<path d="M5.424938354322334 3.0054372986874878L5.190600466921332 3.0054372986874878L5.190600466921332 3.383983116796798L5.424938354322334 3.383983116796798" stroke-width="0.03" stroke="#000000" fill="none"/>
<path d="M5.33480839762964 3.1856972120728733L5.190600466921332 3.1856972120728733" stroke-width="0.03" stroke="#000000" fill="none"/>
<path d="M4.95626257952033 3.383983116796798L4.95626257952033 3.0054372986874878L4.902184605504715 3.0595152727031034L4.866132622827637 3.077541264041642" stroke-width="0.03" stroke="#000000" fill="none"/>
<path d="M4.487586804718326 3.0054372986874878L4.6858727094422505 3.0054372986874878L4.57771676141102 3.149645229395796L4.631794735426635 3.149645229395796L4.667846718103712 3.167671220734335L4.6858727094422505 3.1856972120728733L4.7038987007807895 3.2397751860884894L4.7038987007807895 3.2758271687655665L4.6858727094422505 3.3299051427811825L4.649820726765174 3.3659571254582596L4.595742752749558 3.383983116796798L4.541664778733942 3.383983116796798L4.487586804718326 3.3659571254582596L4.469560813379788 3.3479311341197207L4.45153482204125 3.3118791514426436" stroke-width="0.03" stroke="#000000" fill="none"/>
<path d="M4.3073268913329406 3.0054372986874878L4.127066977947555 3.0054372986874878L4.109040986609016 3.167671220734335L4.127066977947555 3.149645229395796L4.18114495196317 3.1316192380572576L4.235222925978786 3.1316192380572576L4.289300899994402 3.149645229395796L4.3253528826714795 3.1856972120728733L4.343378874010018 3.2397751860884894L4.343378874010018 3.2758271687655665L4.3253528826714795 3.3299051427811825L4.289300899994402 3.3659571254582596L4.235222925978786 3.383983116796798L4.18114495196317 3.383983116796798L4.127066977947555 3.3659571254582596L4.109040986609016 3.3479311341197207L4.091014995270477 3.3118791514426436" stroke-width="0.03" stroke="#000000" fill="none"/>
<path d="M3.9468070645621687 3.0054372986874878L3.7665471511767823 3.0054372986874878L3.748521159838244 3.167671220734335L3.7665471511767823 3.149645229395796L3.8206251251923984 3.1316192380572576L3.8747030992080145 3.1316192380572576L3.9287810732236297 3.149645229395796L3.9648330559007072 3.1856972120728733L3.9828590472392458 3.2397751860884894L3.9828590472392458 3.2758271687655665L3.9648330559007072 3.3299051427811825L3.9287810732236297 3.3659571254582596L3.8747030992080145 3.383983116796798L3.8206251251923984 3.383983116796798L3.7665471511767823 3.3659571254582596L3.748521159838244 3.3479311341197207L3.730495168499705 3.3118791514426436" stroke-width="0.03" stroke="#000000" fill="none"/>
<path d="M3.658391203145551 3.383983116796798L3.514183272437242 3.0054372986874878L3.3699753417289333 3.383983116796798" stroke-width="0.03" stroke="#000000" fill="none"/>
<path d="M3.4240533157445494 3.257801177427028L3.604313229129935 3.257801177427028" stroke-width="0.03" stroke="#000000" fill="none"/>
<path d="M3.0455074976352385 3.3118791514426436L3.0635334889737775 3.3479311341197207L3.0815594803123156 3.3659571254582596L3.1356374543279317 3.383983116796798L3.1897154283435474 3.383983116796798L3.243793402359163 3.3659571254582596L3.2798453850362406 3.3299051427811825L3.297871376374779 3.2758271687655665L3.297871376374779 3.2397751860884894L3.2798453850362406 3.1856972120728733L3.261819393697702 3.167671220734335L3.225767411020625 3.149645229395796L3.171689437005009 3.149645229395796L3.2798453850362406 3.0054372986874878L3.0815594803123156 3.0054372986874878" stroke-width="0.03" stroke="#000000" fill="none"/>
<path d="M2.9734035322810843 3.0054372986874878L2.7390656448800828 3.0054372986874878L2.7390656448800828 3.383983116796798" stroke-width="0.03" stroke="#000000" fill="none"/>
<path d="M2.6128837055103125 3.383983116796798L2.414597800786388 3.1316192380572576" stroke-width="0.03" stroke="#000000" fill="none"/>
<path d="M2.6128837055103125 3.1316192380572576L2.414597800786388 3.383983116796798" stroke-width="0.03" stroke="#000000" fill="none"/>
<path d="M2.7390656448800828 3.1856972120728733L2.883273575588391 3.1856972120728733" stroke-width="0.03" stroke="#000000" fill="none"/>
<path d="M2.1622339220468474 3.0054372986874878L2.1081559480312317 3.023463290026026L2.072103965354154 3.077541264041642L2.0540779740156156 3.167671220734335L2.0540779740156156 3.221749194749951L2.072103965354154 3.3118791514426436L2.1081559480312317 3.3659571254582596L2.1622339220468474 3.383983116796798L2.1982859047239245 3.383983116796798L2.2523638787395406 3.3659571254582596L2.2884158614166177 3.3118791514426436L2.3064418527551562 3.221749194749951L2.3064418527551562 3.167671220734335L2.2884158614166177 3.077541264041642L2.2523638787395406 3.023463290026026L2.1982859047239245 3.0054372986874878L2.1622339220468474 3.0054372986874878" stroke-width="0.03" stroke="#000000" fill="none"/>
<path d="M3.3773437500000005 21.96345326171019L5.984765624999999 23.468848983132357" stroke-width="0.03" stroke="#000000" fill="none"/>
<path d="M4.107421875 24.311870587128773L4.003124999999999 24.37208641598566L2.3343750000000005 23.40863315427547L2.647265625000001 23.227985667704807" stroke-width="0.03" stroke="#000000" fill="none"/>
<path d="M2.647265625000001 23.107554009991038L2.647265625000001 23.468848983132357L4.107421875 24.311870587128773L4.107421875 24.793597217983862L4.003124999999999 24.85381304684075L2.3343750000000005 23.890359785130563L2.3343750000000005 23.40863315427547" stroke-width="0.03" stroke="#000000" fill="none"/>
<path d="M2.647265625000001 24.071007271701223L2.647265625000001 25.034460533411412L4.4203125 26.058129623978488" stroke-width="0.03" stroke="#000000" fill="none"/>
<path d="M4.4203125 25.937697966264714L4.733203124999998 25.75705047969405L5.567578125 26.238777110549147L5.567578125 26.359208768262917L5.671875 26.419424597119807L5.671875 27.382877858829996L5.3589843749999995 27.563525345400656L4.8374999999999995 27.26244620111622L4.8374999999999995 26.780719570261127L4.4203125 26.53985625483358L4.4203125 25.937697966264714L5.254687500000001 26.419424597119807L5.567578125 26.238777110549147" stroke-width="0.03" stroke="#000000" fill="none"/>
<path d="M5.567578125 26.359208768262917L5.254687500000001 26.53985625483358L5.3589843749999995 26.600072083690467L5.3589843749999995 27.563525345400656" stroke-width="0.03" stroke="#000000" fill="none"/>
<path d="M5.254687500000001 27.50330951654377L5.254687500000001 29.550647697677917L6.089062499999999 30.032374328533013" stroke-width="0.03" stroke="#000000" fill="none"/>
<path d="M6.5062500000000005 30.63453261710188L6.5062500000000005 28.7076260936815L6.089062499999999 28.46676277825396" stroke-width="0.03" stroke="#000000" fill="none"/>
<path d="M6.5062500000000005 28.7076260936815L6.610546875 28.647410264824618" stroke-width="0.03" stroke="#000000" fill="none"/>
<path d="M5.254687500000001 27.744172831971316L4.524609375000001 27.322662029973106L4.524609375000001 26.96136705683179L4.211718750000001 26.780719570261127L4.211718750000001 25.937697966264714" stroke-width="0.03" stroke="#000000" fill="none"/>
<path d="M4.003124999999999 24.85381304684075L4.003124999999999 24.37208641598566" stroke-width="0.03" stroke="#000000" fill="none"/>
<path d="M5.254687500000001 26.419424597119807L5.254687500000001 26.53985625483358" stroke-width="0.03" stroke="#000000" fill="none"/>
<path d="M5.3589843749999995 26.600072083690467L5.671875 26.419424597119807" stroke-width="0.03" stroke="#000000" fill="none"/>
<path d="M8.279296875 30.45388513053122L10.365234375 31.658201707668955L10.88671875 31.35712256338452L10.88671875 28.94848940910905" stroke-width="0.03" stroke="#000000" fill="none"/>
<path d="M10.365234375 28.647410264824618L10.365234375 31.658201707668955" stroke-width="0.03" stroke="#000000" fill="none"/>
<path d="M10.88671875 30.995827590243202L12.346874999999999 31.838849194239618L12.659765624999999 31.658201707668955L12.659765624999999 31.056043419100085" stroke-width="0.03" stroke="#000000" fill="none"/>
<path d="M12.868359374999999 31.17647507681386L12.659765624999999 31.296906734527635" stroke-width="0.03" stroke="#000000" fill="none"/>
<path d="M13.076953125000001 31.296906734527635L13.076953125000001 31.17647507681386L14.85 30.152805986246786" stroke-width="0.03" stroke="#000000" fill="none"/>
<path d="M14.85 30.273237643960556L16.623046875 31.296906734527635L16.623046875 31.17647507681386" stroke-width="0.03" stroke="#000000" fill="none"/>
<path d="M17.353125 30.87539593252943L17.353125 31.838849194239618" stroke-width="0.03" stroke="#000000" fill="none"/>
<path d="M15.05859375 30.152805986246786L15.05859375 29.791511013105463" stroke-width="0.03" stroke="#000000" fill="none"/>
<path d="M14.85 29.67107935539169L14.85 30.032374328533013" stroke-width="0.03" stroke="#000000" fill="none"/>
<path d="M14.64140625 30.152805986246786L14.64140625 29.791511013105463" stroke-width="0.03" stroke="#000000" fill="none"/>
<path d="M13.80703125 29.791511013105463L13.076953125000001 29.37000021110726" stroke-width="0.03" stroke="#000000" fill="none"/>
<path d="M12.659765624999999 29.610863526534803L12.659765624999999 30.45388513053122" stroke-width="0.03" stroke="#000000" fill="none"/>
<path d="M12.868359374999999 30.333453472817446L12.868359374999999 30.0925901573899L12.659765624999999 29.972158499676127" stroke-width="0.03" stroke="#000000" fill="none"/>
<path d="M12.659765624999999 30.21302181510367L12.868359374999999 30.0925901573899" stroke-width="0.03" stroke="#000000" fill="none"/>
<path d="M12.346874999999999 30.63453261710188L12.346874999999999 29.068921066822824" stroke-width="0.03" stroke="#000000" fill="none"/>
<path d="M12.346874999999999 27.623741174257542L12.346874999999999 26.17856128169226" stroke-width="0.03" stroke="#000000" fill="none"/>
<path d="M12.451171875 26.238777110549147L10.88671875 25.335539677695845" stroke-width="0.03" stroke="#000000" fill="none"/>
<path d="M13.389843749999999 26.780719570261127L14.119921875 27.202230372259333L14.85 26.780719570261127L15.580078125 27.202230372259333L16.31015625 26.780719570261127" stroke-width="0.03" stroke="#000000" fill="none"/>
<path d="M16.831640625 27.081798714545563L15.05859375 28.105467805112635L14.85 27.985036147398862" stroke-width="0.03" stroke="#000000" fill="none"/>
<path d="M14.64140625 28.105467805112635L14.64140625 26.901151227974903" stroke-width="0.03" stroke="#000000" fill="none"/>
<path d="M15.05859375 26.901151227974903L15.05859375 28.105467805112635" stroke-width="0.03" stroke="#000000" fill="none"/>
<path d="M14.85 28.346331120540185L16.9359375 27.142014543402446" stroke-width="0.03" stroke="#000000" fill="none"/>
<path d="M17.353125 27.623741174257542L17.353125 26.17856128169226" stroke-width="0.03" stroke="#000000" fill="none"/>
<path d="M17.248828125 26.238777110549147L18.81328125 25.335539677695845" stroke-width="0.03" stroke="#000000" fill="none"/>
<path d="M18.81328125 24.73338138912698L20.064843749999998 24.010791442844337L20.064843749999998 22.565611550279055L21.837890625 21.54194245971198" stroke-width="0.03" stroke="#000000" fill="none"/>
<path d="M21.9421875 22.08388491942396L20.586328125 22.866690694563488L20.064843749999998 22.565611550279055" stroke-width="0.03" stroke="#000000" fill="none"/>
<path d="M20.586328125 22.264532405994622L20.586328125 20.458057540288017" stroke-width="0.03" stroke="#000000" fill="none"/>
<path d="M20.586328125 20.57848919800179L21.837890625 19.85589925171915" stroke-width="0.03" stroke="#000000" fill="none"/>
<path d="M20.586328125 19.37417262086406L20.586328125 18.531151016867643L19.85625 18.109640214869437" stroke-width="0.03" stroke="#000000" fill="none"/>
<path d="M19.85625 18.95266181886585L20.586328125 18.531151016867643" stroke-width="0.03" stroke="#000000" fill="none"/>
<path d="M22.98515625 18.350503530296983L22.98515625 17.50748192630057" stroke-width="0.03" stroke="#000000" fill="none"/>
<path d="M23.715234375 18.16985604372632L23.923828125000004 18.049424386012547" stroke-width="0.03" stroke="#000000" fill="none"/>
<path d="M24.132421875000002 18.16985604372632L23.40234375 18.59136684572453" stroke-width="0.03" stroke="#000000" fill="none"/>
<path d="M23.715234375 18.410719359153866L23.715234375 18.16985604372632L23.923828125000004 18.290287701440096" stroke-width="0.03" stroke="#000000" fill="none"/>
<path d="M24.653906250000002 18.23007187258321L25.48828125 17.748345241728117L25.175390624999995 17.567697755157454L24.653906250000002 17.86877689944189" stroke-width="0.03" stroke="#000000" fill="none"/>
<path d="M24.8625 17.748345241728117L24.653906250000002 17.62791358401434" stroke-width="0.03" stroke="#000000" fill="none"/>
<path d="M24.549609375 17.44726609744368L24.653906250000002 17.387050268586794" stroke-width="0.03" stroke="#000000" fill="none"/>
<path d="M25.48828125 17.748345241728117L25.48828125 19.434388449720945" stroke-width="0.03" stroke="#000000" fill="none"/>
<path d="M25.801171875 19.253740963150285L23.715234375 20.458057540288017" stroke-width="0.03" stroke="#000000" fill="none"/>
<path d="M23.715234375 21.060215828856883L26.322656249999998 19.554820107434715L26.322656249999998 21.96345326171019L23.715234375 23.468848983132357" stroke-width="0.03" stroke="#000000" fill="none"/>
<path d="M23.193749999999998 24.73338138912698L23.715234375 25.034460533411412L27.052734375 23.107554009991038L25.696875000000002 22.32474823485151" stroke-width="0.03" stroke="#000000" fill="none"/>
<path d="M27.052734375 23.107554009991038L27.052734375 23.468848983132357L25.592578125 24.311870587128773L25.592578125 24.793597217983862L25.696875000000002 24.85381304684075L27.365624999999998 23.890359785130563L27.365624999999998 23.40863315427547L27.052734375 23.227985667704807" stroke-width="0.03" stroke="#000000" fill="none"/>
<path d="M27.365624999999998 23.40863315427547L25.696875000000002 24.37208641598566L25.592578125 24.311870587128773" stroke-width="0.03" stroke="#000000" fill="none"/>
<path d="M25.696875000000002 24.37208641598566L25.696875000000002 24.85381304684075" stroke-width="0.03" stroke="#000000" fill="none"/>
<path d="M25.48828125 25.937697966264714L25.48828125 26.780719570261127L25.175390624999995 26.96136705683179L25.175390624999995 27.322662029973106L24.4453125 27.744172831971316" stroke-width="0.03" stroke="#000000" fill="none"/>
<path d="M24.341015624999997 27.563525345400656L24.8625 27.26244620111622L24.8625 26.780719570261127L25.279687499999998 26.53985625483358L25.279687499999998 25.937697966264714L24.966796875000004 25.75705047969405L24.132421875000002 26.238777110549147L24.132421875000002 26.359208768262917L24.028125 26.419424597119807L24.028125 27.382877858829996L24.341015624999997 27.563525345400656L24.341015624999997 26.600072083690467L24.028125 26.419424597119807" stroke-width="0.03" stroke="#000000" fill="none"/>
<path d="M24.132421875000002 26.359208768262917L24.4453125 26.53985625483358L24.341015624999997 26.600072083690467" stroke-width="0.03" stroke="#000000" fill="none"/>
<path d="M24.4453125 26.53985625483358L24.4453125 26.419424597119807L24.132421875000002 26.238777110549147" stroke-width="0.03" stroke="#000000" fill="none"/>
<path d="M24.4453125 26.419424597119807L25.279687499999998 25.937697966264714" stroke-width="0.03" stroke="#000000" fill="none"/>
<path d="M25.279687499999998 26.058129623978488L27.052734375 25.034460533411412L27.052734375 24.071007271701223" stroke-width="0.03" stroke="#000000" fill="none"/>
<path d="M23.715234375 25.034460533411412L23.715234375 26.118345452835374L22.7765625 26.660287912547354" stroke-width="0.03" stroke="#000000" fill="none"/>
<path d="M23.715234375 26.118345452835374L22.255078124999997 25.27532384883896L21.420703125 25.75705047969405L21.420703125 24.793597217983862L22.255078124999997 24.311870587128773L22.255078124999997 25.27532384883896" stroke-width="0.03" stroke="#000000" fill="none"/>
<path d="M23.089453125000002 24.793597217983862L23.089453125000002 19.13330930543651" stroke-width="0.03" stroke="#000000" fill="none"/>
<path d="M25.801171875 19.253740963150285L26.322656249999998 19.554820107434715" stroke-width="0.03" stroke="#000000" fill="none"/>
<path d="M22.672265625 14.195611339171796L22.672265625 13.95474802374425" stroke-width="0.03" stroke="#000000" fill="none"/>
<path d="M22.463671875 14.075179681458023L22.98515625 13.77410053717359L22.98515625 13.412805564032269" stroke-width="0.03" stroke="#000000" fill="none"/>
<path d="M17.040234375 17.206402782016134L16.831640625 17.08597112430236" stroke-width="0.03" stroke="#000000" fill="none"/>
<path d="M16.831640625 18.892445990008962L14.85 17.748345241728117" stroke-width="0.03" stroke="#000000" fill="none"/>
<path d="M15.89296875 20.03654673828981L15.684375 20.156978396003588" stroke-width="0.03" stroke="#000000" fill="none"/>
<path d="M17.666015625 22.62582737913594L15.684375 23.76992812741679" stroke-width="0.03" stroke="#000000" fill="none"/>
<path d="M17.040234375 24.793597217983862L17.248828125 24.673165560270093" stroke-width="0.03" stroke="#000000" fill="none"/>
<path d="M18.81328125 24.73338138912698L18.81328125 26.780719570261127" stroke-width="0.03" stroke="#000000" fill="none"/>
<path d="M19.334765625 26.600072083690467L19.334765625 25.034460533411412L18.81328125 24.73338138912698" stroke-width="0.03" stroke="#000000" fill="none"/>
<path d="M19.334765625 25.034460533411412L20.586328125 24.311870587128773L20.586328125 22.866690694563488" stroke-width="0.03" stroke="#000000" fill="none"/>
<path d="M20.064843749999998 23.76992812741679L19.960546875000002 23.830143956273677L19.960546875000002 23.95057561398745L20.586328125 24.311870587128773" stroke-width="0.03" stroke="#000000" fill="none"/>
<path d="M19.960546875000002 24.071007271701223L19.85625 24.010791442844337L19.85625 24.13122310055811" stroke-width="0.03" stroke="#000000" fill="none"/>
<path d="M19.85625 24.010791442844337L19.960546875000002 23.95057561398745" stroke-width="0.03" stroke="#000000" fill="none"/>
<path d="M20.064843749999998 23.890359785130563L19.960546875000002 23.830143956273677" stroke-width="0.03" stroke="#000000" fill="none"/>
<path d="M19.23046875 21.240863315427546L19.23046875 21" stroke-width="0.03" stroke="#000000" fill="none"/>
<path d="M15.580078125 26.359208768262917L15.580078125 27.202230372259333" stroke-width="0.03" stroke="#000000" fill="none"/>
<path d="M14.119921875 27.202230372259333L14.119921875 26.359208768262917" stroke-width="0.03" stroke="#000000" fill="none"/>
<path d="M12.242578125 30.694748445958766L13.076953125000001 31.17647507681386" stroke-width="0.03" stroke="#000000" fill="none"/>
<path d="M12.346874999999999 30.87539593252943L12.346874999999999 31.838849194239618" stroke-width="0.03" stroke="#000000" fill="none"/>
<path d="M21.420703125 30.45388513053122L21.420703125 27.443093687686883" stroke-width="0.03" stroke="#000000" fill="none"/>
<path d="M23.089453125000002 28.647410264824618L23.193749999999998 28.7076260936815L23.610937500000002 28.46676277825396" stroke-width="0.03" stroke="#000000" fill="none"/>
<path d="M23.193749999999998 28.7076260936815L23.193749999999998 30.63453261710188" stroke-width="0.03" stroke="#000000" fill="none"/>
<path d="M23.610937500000002 30.032374328533013L24.4453125 29.550647697677917L24.4453125 27.50330951654377" stroke-width="0.03" stroke="#000000" fill="none"/>
</svg>
