<?xml version="1.0" standalone="no"?>
<svg width="21cm" height="29.7cm" version="1.1" xmlns="http://www.w3.org/2000/svg" viewBox="0.0 0.0 21.000001 29.700001">
<path d="M2.4140625000000004 9.856822281305345L2.695312500000001 9.694442518095762L4.9453125 10.99348062377242L4.6640625 11.155860386982003L4.6640625 11.480619913401167L4.382812499999999 11.64299967661075L2.1328124999999996 10.343961570934091L2.1328124999999996 10.668721097353256L4.382812499999999 11.967759203029914L4.382812499999999 11.64299967661075" stroke-width="0.03" stroke="#000000" fill="none"/>
<path d="M4.5234375 11.886569321425123L4.5234375 13.266797308706572L4.1015625 13.510366953520945L3.3984375 13.10441754549699L3.3984375 11.72418955821554L3.679687499999999 11.561809795005958" stroke-width="0.03" stroke="#000000" fill="none"/>
<path d="M3.3984375 11.72418955821554L4.1015625 12.130138966239496L4.1015625 13.510366953520945" stroke-width="0.03" stroke="#000000" fill="none"/>
<path d="M3.8203125000000004 13.023227663892198L3.539062500000001 13.18560742710178L3.539062500000001 13.023227663892198L3.8203125000000004 12.860847900682616L3.8203125000000004 13.023227663892198" stroke-width="0.03" stroke="#000000" fill="none"/>
<path d="M3.8203125000000004 12.860847900682616L3.679687499999999 12.779658019077825L3.3984375 12.942037782287407L3.539062500000001 13.023227663892198" stroke-width="0.03" stroke="#000000" fill="none"/>
<path d="M4.1015625 12.130138966239496L4.734375 11.764784499017935L4.734375 11.521214854203564L4.9453125 11.399430031796376L4.9453125 10.668721097353256L4.2421875 10.262771689329298L5.4375 9.572657695688576L6.140625 9.97860710371253L6.140625 10.465746393341277L4.9453125 11.155860386982003" stroke-width="0.03" stroke="#000000" fill="none"/>
<path d="M4.6640625 11.155860386982003L2.4140625000000004 9.856822281305345L2.4140625000000004 10.181581807724509L4.6640625 11.480619913401167" stroke-width="0.03" stroke="#000000" fill="none"/>
<path d="M5.2265625 11.64299967661075L5.7890625 11.318240150191585" stroke-width="0.03" stroke="#000000" fill="none"/>
<path d="M5.71875 11.358835090993981L5.2265625 11.074670505377211L7.6875 9.653847577293366" stroke-width="0.03" stroke="#000000" fill="none"/>
<path d="M7.828125 9.735037458898159L7.3359375 9.450872873281389L7.3359375 8.395404412419104" stroke-width="0.03" stroke="#000000" fill="none"/>
<path d="M6.6328125 7.989455004395149L6.6328125 7.827075241185566L8.6015625 6.69041689871849L10.5 7.78648030038317L12.3984375 6.69041689871849L14.367187500000002 7.827075241185566L14.367187500000002 7.989455004395149L12.1171875 9.288493110071807L12.1171875 9.126113346862224L10.5 8.192429708407126L8.8828125 9.126113346862224L8.8828125 9.288493110071807L6.6328125 7.989455004395149" stroke-width="0.03" stroke="#000000" fill="none"/>
<path d="M6.6328125 7.827075241185566L8.8828125 9.126113346862224" stroke-width="0.03" stroke="#000000" fill="none"/>
<path d="M8.53125 9.085518406059828L8.25 9.24789816926941L8.25 9.653847577293366" stroke-width="0.03" stroke="#000000" fill="none"/>
<path d="M8.25 9.491467814083784L7.1953125 10.100391926119716L7.1953125 10.506341334143674" stroke-width="0.03" stroke="#000000" fill="none"/>
<path d="M7.3359375 10.42515145253888L7.3359375 10.181581807724509L7.1953125 10.100391926119716" stroke-width="0.03" stroke="#000000" fill="none"/>
<path d="M7.3359375 10.181581807724509L9.867187500000002 8.720163938838269L9.867187500000002 8.638974057233478L10.0078125 8.557784175628687L10.078125 8.598379116431081L10.078125 8.679568998035872L9.9375 8.760758879640663L9.9375 8.679568998035872L9.867187500000002 8.638974057233478" stroke-width="0.03" stroke="#000000" fill="none"/>
<path d="M9.9375 8.679568998035872L10.5 8.354809471616708L10.5 8.192429708407126" stroke-width="0.03" stroke="#000000" fill="none"/>
<path d="M10.5 8.354809471616708L11.0625 8.679568998035872L11.1328125 8.638974057233478L11.1328125 8.720163938838269L10.8515625 8.882543702047851L10.8515625 9.207303228467016L11.835937500000002 9.775632399700552L11.835937500000002 10.262771689329298" stroke-width="0.03" stroke="#000000" fill="none"/>
<path d="M11.90625 10.303366630131695L11.5546875 10.506341334143674" stroke-width="0.03" stroke="#000000" fill="none"/>
<path d="M11.4140625 10.42515145253888L10.5 10.952885682970024L9.5859375 10.42515145253888L8.953125 10.790505919760442" stroke-width="0.03" stroke="#000000" fill="none"/>
<path d="M8.953125 10.709316038155652L9.09375 10.62812615655086" stroke-width="0.03" stroke="#000000" fill="none"/>
<path d="M9.09375 10.709316038155652L9.09375 10.303366630131695L9.375 10.140986866922113L10.0078125 10.506341334143674L10.359375 10.303366630131695L10.5 10.384556511736488L10.640625 10.303366630131695L10.9921875 10.506341334143674L11.625000000000002 10.140986866922113L11.90625 10.303366630131695L11.90625 10.709316038155652" stroke-width="0.03" stroke="#000000" fill="none"/>
<path d="M11.90625 10.62812615655086L12.046875 10.709316038155652" stroke-width="0.03" stroke="#000000" fill="none"/>
<path d="M12.046875 10.790505919760442L11.4140625 10.42515145253888" stroke-width="0.03" stroke="#000000" fill="none"/>
<path d="M10.9921875 10.506341334143674L10.9921875 10.262771689329298L11.835937500000002 9.775632399700552" stroke-width="0.03" stroke="#000000" fill="none"/>
<path d="M12.046875 10.140986866922113L12.609375 9.816227340502948L14.859375 11.115265446179606L14.859375 12.333113670251475L15.9140625 12.942037782287407L15.9140625 15.540113993640723L15.351562500000002 15.864873520059888L14.718749999999998 15.499519052838329" stroke-width="0.03" stroke="#000000" fill="none"/>
<path d="M14.7890625 15.540113993640723L14.7890625 16.270822928083845L13.875 16.79855715851499L13.875 17.85402561937727L13.242187500000002 18.219380086598832" stroke-width="0.03" stroke="#000000" fill="none"/>
<path d="M13.3125 18.259975027401225L13.453125 18.178785145796436" stroke-width="0.03" stroke="#000000" fill="none"/>
<path d="M13.382812500000002 18.13819020499404L13.734375 18.341164909006018L14.015625 18.178785145796436L14.015625 17.448076211353314L14.367187500000002 17.24510150734134L14.367187500000002 17.082721744131756L14.5078125 17.001531862526964L14.5078125 16.59558245450301L15.140625 16.230227987281445L15.140625 15.905468460862282L14.7890625 15.702493756850306" stroke-width="0.03" stroke="#000000" fill="none"/>
<path d="M14.859375 15.7430886976527L14.859375 15.580708934443118" stroke-width="0.03" stroke="#000000" fill="none"/>
<path d="M15.000000000000002 15.337139289628746L14.0859375 15.864873520059888L13.945312500000002 15.783683638455097L13.945312500000002 15.540113993640723L14.859375 15.012379763209582L15.000000000000002 15.093569644814371L15.000000000000002 15.337139289628746" stroke-width="0.03" stroke="#000000" fill="none"/>
<path d="M15.000000000000002 15.093569644814371L14.0859375 15.621303875245514L14.0859375 15.864873520059888" stroke-width="0.03" stroke="#000000" fill="none"/>
<path d="M14.0859375 15.621303875245514L13.945312500000002 15.540113993640723" stroke-width="0.03" stroke="#000000" fill="none"/>
<path d="M13.734375 15.174759526419164L14.367187500000002 14.809405059197603L14.648437500000002 14.971784822407185L14.648437500000002 15.134164585616768" stroke-width="0.03" stroke="#000000" fill="none"/>
<path d="M14.648437500000002 14.971784822407185L13.5234375 15.621303875245514L13.1015625 15.377734230431141" stroke-width="0.03" stroke="#000000" fill="none"/>
<path d="M13.5234375 15.621303875245514L13.5234375 16.59558245450301L12.679687500000002 17.082721744131756L12.679687500000002 18.38175984980841L12.3984375 18.219380086598832L12.2578125 18.30056996820362" stroke-width="0.03" stroke="#000000" fill="none"/>
<path d="M12.3984375 18.219380086598832L12.3984375 17.48867115215571L12.2578125 17.407481270550917" stroke-width="0.03" stroke="#000000" fill="none"/>
<path d="M12.3984375 17.48867115215571L12.2578125 17.569861033760503" stroke-width="0.03" stroke="#000000" fill="none"/>
<path d="M12.8203125 17.48867115215571L13.031250000000002 17.366886329748525L13.171875 17.448076211353314L13.171875 18.5035446722156L12.9609375 18.625329494622786L12.8203125 18.544139613017997L12.8203125 17.48867115215571L12.9609375 17.569861033760503L12.9609375 18.625329494622786" stroke-width="0.03" stroke="#000000" fill="none"/>
<path d="M12.8203125 18.30056996820362L12.679687500000002 18.38175984980841" stroke-width="0.03" stroke="#000000" fill="none"/>
<path d="M13.171875 18.178785145796436L13.8046875 18.544139613017997L13.8046875 19.193658665856326L11.5546875 20.492696771532984L10.5 19.883772659497048L9.4453125 20.492696771532984L7.1953125 19.193658665856326L7.1953125 18.544139613017997L7.828125 18.178785145796436" stroke-width="0.03" stroke="#000000" fill="none"/>
<path d="M7.757812499999999 18.219380086598832L7.125 17.85402561937727L7.125 16.79855715851499L6.210937500000001 16.270822928083845L6.210937500000001 15.540113993640723" stroke-width="0.03" stroke="#000000" fill="none"/>
<path d="M6.28125 15.499519052838329L5.6484375 15.864873520059888L5.0859375 15.540113993640723L5.0859375 12.942037782287407L6.140625 12.333113670251475L6.140625 11.115265446179606L8.390625 9.816227340502948L8.953125 10.140986866922113L8.953125 10.871695801365235" stroke-width="0.03" stroke="#000000" fill="none"/>
<path d="M8.671875 10.709316038155652L8.4609375 10.831100860562838L8.4609375 10.99348062377242L9.375 11.521214854203564L9.5859375 11.399430031796376L9.5859375 11.237050268586794L8.671875 10.709316038155652" stroke-width="0.03" stroke="#000000" fill="none"/>
<path d="M8.4609375 10.831100860562838L9.375 11.358835090993981L9.375 11.521214854203564" stroke-width="0.03" stroke="#000000" fill="none"/>
<path d="M9.375 11.358835090993981L9.5859375 11.237050268586794" stroke-width="0.03" stroke="#000000" fill="none"/>
<path d="M9.65625 11.845974380622728L10.5 11.358835090993981L11.34375 11.845974380622728L11.34375 12.333113670251475" stroke-width="0.03" stroke="#000000" fill="none"/>
<path d="M11.34375 11.845974380622728L12.46875 11.196455327784399L12.328125000000002 11.115265446179606" stroke-width="0.03" stroke="#000000" fill="none"/>
<path d="M12.46875 11.196455327784399L12.46875 11.521214854203564L11.835937500000002 11.886569321425123L11.835937500000002 12.048949084634705" stroke-width="0.03" stroke="#000000" fill="none"/>
<path d="M11.835937500000002 11.886569321425123L11.976562500000002 11.967759203029914" stroke-width="0.03" stroke="#000000" fill="none"/>
<path d="M11.625000000000002 11.521214854203564L12.539062500000002 10.99348062377242L12.539062500000002 10.831100860562838L12.328125000000002 10.709316038155652L11.4140625 11.237050268586794L11.4140625 11.399430031796376L11.625000000000002 11.521214854203564L11.625000000000002 11.358835090993981L12.539062500000002 10.831100860562838" stroke-width="0.03" stroke="#000000" fill="none"/>
<path d="M12.046875 10.871695801365235L12.046875 10.140986866922113L14.296875000000002 11.44002497259877L14.296875000000002 12.65787319667064L15.351562500000002 13.266797308706572L15.351562500000002 15.864873520059888" stroke-width="0.03" stroke="#000000" fill="none"/>
<path d="M15.140625 15.905468460862282L14.7890625 16.10844316487426" stroke-width="0.03" stroke="#000000" fill="none"/>
<path d="M15.140625 15.986658342467075L15.5625 16.230227987281445L15.5625 17.366886329748525L15.843750000000002 17.529266092958107L16.125 17.366886329748525L16.1953125 17.407481270550917L16.1953125 17.569861033760503L16.125 17.610455974562896L16.0546875 17.569861033760503L16.0546875 17.407481270550917L16.125 17.448076211353314L16.125 18.097595264191643L16.265625 18.178785145796436L14.648437500000002 19.112468784251533L14.648437500000002 21.71054499560485L14.5078125 21.62935511400006L14.5078125 19.03127890264674L14.648437500000002 19.112468784251533" stroke-width="0.03" stroke="#000000" fill="none"/>
<path d="M14.5078125 19.437228310670697L14.2265625 19.59960807388028L13.875 19.3966333698683" stroke-width="0.03" stroke="#000000" fill="none"/>
<path d="M14.015625 19.477823251473097L12.9609375 20.086747363509026L12.609375 19.883772659497048" stroke-width="0.03" stroke="#000000" fill="none"/>
<path d="M12.75 19.802582777892262L12.9609375 19.924367600299444L15.4921875 18.462949731413204L15.4921875 18.13819020499404L15.2109375 17.975810441784457L14.2265625 18.544139613017997L13.8046875 18.30056996820362" stroke-width="0.03" stroke="#000000" fill="none"/>
<path d="M13.734375 18.341164909006018L13.734375 17.93521550098206" stroke-width="0.03" stroke="#000000" fill="none"/>
<path d="M14.015625 17.448076211353314L14.2265625 17.569861033760503L14.2265625 18.544139613017997" stroke-width="0.03" stroke="#000000" fill="none"/>
<path d="M13.8046875 18.544139613017997L11.5546875 19.843177718694655L11.5546875 20.492696771532984" stroke-width="0.03" stroke="#000000" fill="none"/>
<path d="M11.484375000000002 20.452101830730584L11.484375000000002 20.858051238754545L10.5 20.289722067521005L9.515625 20.858051238754545L8.7421875 20.41150688992819L8.7421875 20.086747363509026" stroke-width="0.03" stroke="#000000" fill="none"/>
<path d="M8.390625 19.883772659497048L8.0390625 20.086747363509026L6.984375 19.477823251473097" stroke-width="0.03" stroke="#000000" fill="none"/>
<path d="M7.125 19.3966333698683L6.7734375 19.59960807388028L6.492187500000001 19.437228310670697" stroke-width="0.03" stroke="#000000" fill="none"/>
<path d="M6.7734375 19.59960807388028L6.7734375 19.193658665856326" stroke-width="0.03" stroke="#000000" fill="none"/>
<path d="M6.492187500000001 19.03127890264674L6.3515625 19.112468784251533L6.3515625 21.71054499560485L6.492187500000001 21.62935511400006L6.492187500000001 19.03127890264674" stroke-width="0.03" stroke="#000000" fill="none"/>
<path d="M6.3515625 19.112468784251533L4.734375 18.178785145796436L4.734375 16.311417868886238L4.875 16.230227987281445L2.624999999999999 14.931189881604789L2.484375000000001 15.012379763209582L2.484375000000001 17.28569644814373L4.382812499999999 18.38175984980841L4.382812499999999 20.573886653137773L6.3515625 21.71054499560485" stroke-width="0.03" stroke="#000000" fill="none"/>
<path d="M6.492187500000001 20.81745629795215L7.40625 20.289722067521005L7.40625 19.721392896287465" stroke-width="0.03" stroke="#000000" fill="none"/>
<path d="M7.40625 19.883772659497048L9.867187500000002 21.304595587580895L10.5 20.939241120359334L10.5 20.12734230431142L10.359375 20.208532185916212L10.359375 20.289722067521005L10.5 20.208532185916212L10.640625 20.289722067521005L10.78125 20.208532185916212L10.78125 20.12734230431142L10.640625 20.04615242270663L10.7109375 20.005557481904233L10.7109375 20.086747363509026" stroke-width="0.03" stroke="#000000" fill="none"/>
<path d="M10.78125 20.12734230431142L10.640625 20.208532185916212L10.640625 20.289722067521005" stroke-width="0.03" stroke="#000000" fill="none"/>
<path d="M10.640625 20.370911949125794L10.640625 21.020431001964123L11.203125 20.69567147554496" stroke-width="0.03" stroke="#000000" fill="none"/>
<path d="M11.1328125 20.736266416347355L11.1328125 21.304595587580895L13.593750000000002 19.883772659497048" stroke-width="0.03" stroke="#000000" fill="none"/>
<path d="M13.593750000000002 19.721392896287465L13.593750000000002 20.289722067521005L14.5078125 20.81745629795215" stroke-width="0.03" stroke="#000000" fill="none"/>
<path d="M14.648437500000002 21.71054499560485L16.617187500000004 20.573886653137773L16.617187500000004 18.38175984980841L18.515625 17.28569644814373L18.515625 15.012379763209582L18.375 14.931189881604789L16.125 16.230227987281445L16.265625 16.311417868886238L16.265625 18.178785145796436" stroke-width="0.03" stroke="#000000" fill="none"/>
<path d="M16.125 18.097595264191643L15.5625 18.422354790610807L15.5625 18.5035446722156L15.703125000000002 18.422354790610807L15.703125000000002 18.341164909006018L15.6328125 18.30056996820362L15.4921875 18.38175984980841L15.5625 18.422354790610807" stroke-width="0.03" stroke="#000000" fill="none"/>
<path d="M15.4921875 18.462949731413204L15.5625 18.5035446722156" stroke-width="0.03" stroke="#000000" fill="none"/>
<path d="M15.4921875 18.13819020499404L13.8046875 19.112468784251533" stroke-width="0.03" stroke="#000000" fill="none"/>
<path d="M14.2265625 19.193658665856326L14.2265625 19.59960807388028" stroke-width="0.03" stroke="#000000" fill="none"/>
<path d="M13.242187500000002 19.51841819227549L13.242187500000002 19.761987837089862L13.031250000000002 19.640203014682676" stroke-width="0.03" stroke="#000000" fill="none"/>
<path d="M12.9609375 19.924367600299444L12.9609375 20.086747363509026" stroke-width="0.03" stroke="#000000" fill="none"/>
<path d="M12.2578125 20.086747363509026L12.2578125 20.41150688992819L11.484375000000002 20.858051238754545" stroke-width="0.03" stroke="#000000" fill="none"/>
<path d="M11.835937500000002 20.655076534742566L12.046875 20.776861357149752L12.046875 20.53329171233538" stroke-width="0.03" stroke="#000000" fill="none"/>
<path d="M12.1171875 20.81745629795215L10.921875000000002 21.507570291592874" stroke-width="0.03" stroke="#000000" fill="none"/>
<path d="M11.0625 21.588760173197663L10.78125 21.751139936407245L10.78125 24.34921614776056L11.0625 24.18683638455098L11.0625 21.588760173197663" stroke-width="0.03" stroke="#000000" fill="none"/>
<path d="M11.1328125 21.304595587580895L10.5 20.939241120359334" stroke-width="0.03" stroke="#000000" fill="none"/>
<path d="M10.359375 21.020431001964123L10.359375 20.370911949125794" stroke-width="0.03" stroke="#000000" fill="none"/>
<path d="M10.359375 20.289722067521005L10.218750000000002 20.208532185916212L10.218750000000002 20.12734230431142L10.359375 20.04615242270663L10.2890625 20.005557481904233L10.2890625 20.086747363509026" stroke-width="0.03" stroke="#000000" fill="none"/>
<path d="M10.218750000000002 20.12734230431142L10.359375 20.208532185916212" stroke-width="0.03" stroke="#000000" fill="none"/>
<path d="M10.5 20.12734230431142L10.640625 20.208532185916212" stroke-width="0.03" stroke="#000000" fill="none"/>
<path d="M10.5 19.96496254110184L10.570312500000002 19.924367600299444" stroke-width="0.03" stroke="#000000" fill="none"/>
<path d="M10.5 19.96496254110184L10.5 19.23425360665872L9.4453125 19.843177718694655L9.4453125 20.492696771532984" stroke-width="0.03" stroke="#000000" fill="none"/>
<path d="M9.515625 20.452101830730584L9.515625 20.858051238754545" stroke-width="0.03" stroke="#000000" fill="none"/>
<path d="M9.796875 20.69567147554496L10.359375 21.020431001964123" stroke-width="0.03" stroke="#000000" fill="none"/>
<path d="M10.2890625 21.385785469185684L9.65625 21.751139936407245L9.65625 22.563038752455157L9.9375 22.400658989245574" stroke-width="0.03" stroke="#000000" fill="none"/>
<path d="M9.65625 22.563038752455157L8.4609375 21.87292475881443L8.4609375 21.06102594276652L8.8828125 20.81745629795215L10.078125 21.507570291592874" stroke-width="0.03" stroke="#000000" fill="none"/>
<path d="M9.9375 21.588760173197663L9.9375 24.18683638455098L10.218750000000002 24.34921614776056L10.5 24.18683638455098L10.5 21.588760173197663L10.78125 21.751139936407245" stroke-width="0.03" stroke="#000000" fill="none"/>
<path d="M10.5 21.588760173197663L10.218750000000002 21.751139936407245L10.218750000000002 24.34921614776056" stroke-width="0.03" stroke="#000000" fill="none"/>
<path d="M10.5 24.18683638455098L10.78125 24.34921614776056" stroke-width="0.03" stroke="#000000" fill="none"/>
<path d="M11.34375 22.563038752455157L12.539062500000002 21.87292475881443L12.539062500000002 21.06102594276652L12.1171875 20.81745629795215" stroke-width="0.03" stroke="#000000" fill="none"/>
<path d="M12.539062500000002 21.06102594276652L11.34375 21.751139936407245L11.34375 22.563038752455157L11.0625 22.400658989245574" stroke-width="0.03" stroke="#000000" fill="none"/>
<path d="M11.34375 21.751139936407245L10.7109375 21.385785469185684L10.5 21.507570291592874L10.2890625 21.385785469185684" stroke-width="0.03" stroke="#000000" fill="none"/>
<path d="M10.218750000000002 21.751139936407245L9.9375 21.588760173197663" stroke-width="0.03" stroke="#000000" fill="none"/>
<path d="M9.867187500000002 21.304595587580895L9.867187500000002 20.736266416347355" stroke-width="0.03" stroke="#000000" fill="none"/>
<path d="M9.1640625 20.655076534742566L8.953125 20.776861357149752L8.953125 20.53329171233538" stroke-width="0.03" stroke="#000000" fill="none"/>
<path d="M8.4609375 21.06102594276652L9.65625 21.751139936407245" stroke-width="0.03" stroke="#000000" fill="none"/>
<path d="M8.8828125 21.79173487720964L8.6015625 21.954114640419224L8.6015625 21.79173487720964L8.4609375 21.71054499560485L8.7421875 21.548165232395267L8.8828125 21.62935511400006L8.8828125 21.79173487720964" stroke-width="0.03" stroke="#000000" fill="none"/>
<path d="M8.8828125 21.62935511400006L8.6015625 21.79173487720964" stroke-width="0.03" stroke="#000000" fill="none"/>
<path d="M8.0390625 20.086747363509026L8.0390625 19.924367600299444L5.5078125 18.462949731413204L5.5078125 18.13819020499404L5.7890625 17.975810441784457L6.7734375 18.544139613017997L7.1953125 18.30056996820362" stroke-width="0.03" stroke="#000000" fill="none"/>
<path d="M7.265625000000001 18.341164909006018L7.6171875 18.13819020499404" stroke-width="0.03" stroke="#000000" fill="none"/>
<path d="M7.546875 18.178785145796436L7.6875 18.259975027401225" stroke-width="0.03" stroke="#000000" fill="none"/>
<path d="M7.828125 18.5035446722156L7.828125 17.448076211353314L7.96875 17.366886329748525L8.1796875 17.48867115215571L8.1796875 18.544139613017997L8.0390625 18.625329494622786L7.828125 18.5035446722156" stroke-width="0.03" stroke="#000000" fill="none"/>
<path d="M8.0390625 18.625329494622786L8.0390625 17.569861033760503L8.1796875 17.48867115215571" stroke-width="0.03" stroke="#000000" fill="none"/>
<path d="M8.0390625 17.569861033760503L7.828125 17.448076211353314" stroke-width="0.03" stroke="#000000" fill="none"/>
<path d="M8.3203125 17.082721744131756L8.7421875 16.83915209931738" stroke-width="0.03" stroke="#000000" fill="none"/>
<path d="M8.3203125 17.082721744131756L8.3203125 18.38175984980841L8.6015625 18.219380086598832L8.7421875 18.30056996820362" stroke-width="0.03" stroke="#000000" fill="none"/>
<path d="M8.6015625 18.219380086598832L8.6015625 17.48867115215571L8.7421875 17.407481270550917" stroke-width="0.03" stroke="#000000" fill="none"/>
<path d="M8.6015625 17.48867115215571L8.7421875 17.569861033760503" stroke-width="0.03" stroke="#000000" fill="none"/>
<path d="M8.3203125 17.082721744131756L7.4765625 16.59558245450301L7.4765625 15.621303875245514L6.3515625 14.971784822407185L6.6328125 14.809405059197603L6.6328125 14.647025295988021" stroke-width="0.03" stroke="#000000" fill="none"/>
<path d="M6.6328125 14.809405059197603L7.265625000000001 15.174759526419164L7.40625 15.093569644814371" stroke-width="0.03" stroke="#000000" fill="none"/>
<path d="M7.265625000000001 15.012379763209582L7.265625000000001 15.174759526419164" stroke-width="0.03" stroke="#000000" fill="none"/>
<path d="M7.0546875 15.540113993640723L6.914062500000001 15.621303875245514L6.914062500000001 15.864873520059888L6 15.337139289628746L6 15.093569644814371L6.140625 15.012379763209582L7.0546875 15.540113993640723L7.0546875 15.783683638455097L6.914062500000001 15.864873520059888" stroke-width="0.03" stroke="#000000" fill="none"/>
<path d="M6.914062500000001 15.621303875245514L6 15.093569644814371" stroke-width="0.03" stroke="#000000" fill="none"/>
<path d="M6.3515625 15.134164585616768L6.3515625 14.971784822407185" stroke-width="0.03" stroke="#000000" fill="none"/>
<path d="M6.140625 15.580708934443118L6.140625 15.7430886976527" stroke-width="0.03" stroke="#000000" fill="none"/>
<path d="M6.210937500000001 15.702493756850306L5.859375000000001 15.905468460862282L5.859375000000001 16.230227987281445L6.492187500000001 16.59558245450301L6.492187500000001 17.001531862526964L6.6328125 17.082721744131756L6.6328125 17.24510150734134L6.984375 17.448076211353314L6.984375 18.178785145796436L7.265625000000001 18.341164909006018L7.265625000000001 17.93521550098206" stroke-width="0.03" stroke="#000000" fill="none"/>
<path d="M6.984375 17.448076211353314L6.7734375 17.569861033760503L6.7734375 18.544139613017997" stroke-width="0.03" stroke="#000000" fill="none"/>
<path d="M7.1953125 18.544139613017997L9.4453125 19.843177718694655" stroke-width="0.03" stroke="#000000" fill="none"/>
<path d="M9.515625 19.3966333698683L10.078125 19.071873843449136L10.078125 18.341164909006018L10.5 18.097595264191643L10.5 15.661898816047911L9.234375 16.39260775049103L8.8125 16.14903810567666L8.8125 19.071873843449136L9.234375 19.31544348826351L9.796875 18.990683961844347L9.796875 16.067848224071867L9.375 15.824278579257493L8.8125 16.14903810567666" stroke-width="0.03" stroke="#000000" fill="none"/>
<path d="M8.7421875 16.10844316487426L8.53125 15.986658342467075L7.4765625 16.59558245450301" stroke-width="0.03" stroke="#000000" fill="none"/>
<path d="M6.6328125 17.082721744131756L6.28125 17.28569644814373L6.28125 16.717367276910196L5.4375 16.230227987281445L5.4375 17.366886329748525L5.15625 17.529266092958107L4.875 17.366886329748525L4.8046875 17.407481270550917L4.8046875 17.569861033760503L4.875 17.610455974562896L4.9453125 17.569861033760503L4.9453125 17.407481270550917L4.875 17.448076211353314L4.875 18.097595264191643L4.734375 18.178785145796436" stroke-width="0.03" stroke="#000000" fill="none"/>
<path d="M4.875 18.097595264191643L5.4375 18.422354790610807L5.4375 18.5035446722156L5.5078125 18.462949731413204" stroke-width="0.03" stroke="#000000" fill="none"/>
<path d="M5.4375 18.422354790610807L5.5078125 18.38175984980841L5.3671875 18.30056996820362L5.296875 18.341164909006018L5.296875 18.422354790610807L5.4375 18.5035446722156" stroke-width="0.03" stroke="#000000" fill="none"/>
<path d="M5.5078125 18.13819020499404L7.1953125 19.112468784251533" stroke-width="0.03" stroke="#000000" fill="none"/>
<path d="M7.757812499999999 19.51841819227549L7.757812499999999 19.761987837089862L7.96875 19.640203014682676" stroke-width="0.03" stroke="#000000" fill="none"/>
<path d="M8.0390625 19.924367600299444L8.25 19.802582777892262" stroke-width="0.03" stroke="#000000" fill="none"/>
<path d="M8.7421875 18.95008902104195L8.7421875 15.864873520059888L6.0703125 14.322265769568856L6.0703125 14.241075887964065" stroke-width="0.03" stroke="#000000" fill="none"/>
<path d="M6 14.200480947161669L6 13.713341657532922L6.5625 13.388582131113758L9.09375 14.85L9.09375 15.337139289628746L8.53125 15.661898816047911L6 14.200480947161669" stroke-width="0.03" stroke="#000000" fill="none"/>
<path d="M6 13.713341657532922L8.53125 15.174759526419164L8.53125 15.661898816047911" stroke-width="0.03" stroke="#000000" fill="none"/>
<path d="M8.53125 15.7430886976527L8.53125 15.986658342467075" stroke-width="0.03" stroke="#000000" fill="none"/>
<path d="M8.390625 16.067848224071867L8.390625 15.661898816047911" stroke-width="0.03" stroke="#000000" fill="none"/>
<path d="M8.390625 16.067848224071867L8.7421875 16.270822928083845" stroke-width="0.03" stroke="#000000" fill="none"/>
<path d="M9.09375 15.986658342467075L8.8125 15.824278579257493L8.8125 15.499519052838329" stroke-width="0.03" stroke="#000000" fill="none"/>
<path d="M8.8125 15.824278579257493L10.5 14.85L12.187500000000002 15.824278579257493L12.187500000000002 15.499519052838329" stroke-width="0.03" stroke="#000000" fill="none"/>
<path d="M12.46875 15.661898816047911L15.000000000000002 14.200480947161669L15.000000000000002 13.713341657532922L14.437500000000002 13.388582131113758L11.90625 14.85L11.90625 15.337139289628746L12.46875 15.661898816047911L12.46875 15.174759526419164L15.000000000000002 13.713341657532922" stroke-width="0.03" stroke="#000000" fill="none"/>
<path d="M14.9296875 13.672746716730527L14.9296875 13.429177071916154L14.367187500000002 13.10441754549699L14.367187500000002 13.023227663892198L14.015625 12.820252959880222L14.015625 12.414303551856264L13.945312500000002 12.37370861105387L13.945312500000002 11.72418955821554L13.734375 11.602404735808353" stroke-width="0.03" stroke="#000000" fill="none"/>
<path d="M13.734375 11.521214854203564L11.203125 12.982632723089804L11.203125 14.444050591976044L12.46875 15.174759526419164" stroke-width="0.03" stroke="#000000" fill="none"/>
<path d="M12.609375 15.661898816047911L12.609375 16.067848224071867L12.2578125 16.270822928083845" stroke-width="0.03" stroke="#000000" fill="none"/>
<path d="M12.187500000000002 16.14903810567666L11.765625 16.39260775049103L10.5 15.661898816047911" stroke-width="0.03" stroke="#000000" fill="none"/>
<path d="M11.203125 16.067848224071867L11.625000000000002 15.824278579257493L12.187500000000002 16.14903810567666L12.187500000000002 19.071873843449136L11.765625 19.31544348826351L11.203125 18.990683961844347L11.203125 16.067848224071867" stroke-width="0.03" stroke="#000000" fill="none"/>
<path d="M11.765625 16.39260775049103L11.765625 19.31544348826351" stroke-width="0.03" stroke="#000000" fill="none"/>
<path d="M11.6953125 19.274848547461115L11.484375000000002 19.3966333698683L10.921875000000002 19.071873843449136L10.8515625 19.112468784251533L10.5 18.909494080239554L10.1484375 19.112468784251533L10.078125 19.071873843449136" stroke-width="0.03" stroke="#000000" fill="none"/>
<path d="M10.1484375 19.112468784251533L10.1484375 18.38175984980841L10.5 18.178785145796436L10.8515625 18.38175984980841L10.921875000000002 18.341164909006018L10.921875000000002 19.071873843449136" stroke-width="0.03" stroke="#000000" fill="none"/>
<path d="M10.8515625 19.112468784251533L10.8515625 18.38175984980841" stroke-width="0.03" stroke="#000000" fill="none"/>
<path d="M10.921875000000002 18.341164909006018L10.5 18.097595264191643" stroke-width="0.03" stroke="#000000" fill="none"/>
<path d="M10.5 18.178785145796436L10.5 19.15306372505393L10.7109375 19.03127890264674" stroke-width="0.03" stroke="#000000" fill="none"/>
<path d="M10.5 19.15306372505393L10.2890625 19.03127890264674" stroke-width="0.03" stroke="#000000" fill="none"/>
<path d="M10.5 19.23425360665872L11.5546875 19.843177718694655" stroke-width="0.03" stroke="#000000" fill="none"/>
<path d="M11.484375000000002 19.3966333698683L11.484375000000002 19.15306372505393" stroke-width="0.03" stroke="#000000" fill="none"/>
<path d="M12.187500000000002 18.990683961844347L12.2578125 18.95008902104195L12.2578125 15.864873520059888L14.9296875 14.322265769568856L14.9296875 14.241075887964065" stroke-width="0.03" stroke="#000000" fill="none"/>
<path d="M14.367187500000002 14.647025295988021L14.367187500000002 14.809405059197603" stroke-width="0.03" stroke="#000000" fill="none"/>
<path d="M13.734375 15.012379763209582L13.734375 15.174759526419164L13.593750000000002 15.093569644814371" stroke-width="0.03" stroke="#000000" fill="none"/>
<path d="M12.46875 15.7430886976527L12.46875 15.986658342467075L13.5234375 16.59558245450301" stroke-width="0.03" stroke="#000000" fill="none"/>
<path d="M13.171875 17.448076211353314L12.9609375 17.569861033760503" stroke-width="0.03" stroke="#000000" fill="none"/>
<path d="M12.679687500000002 17.082721744131756L12.2578125 16.83915209931738" stroke-width="0.03" stroke="#000000" fill="none"/>
<path d="M12.2578125 16.10844316487426L12.46875 15.986658342467075" stroke-width="0.03" stroke="#000000" fill="none"/>
<path d="M12.187500000000002 15.824278579257493L11.90625 15.986658342467075" stroke-width="0.03" stroke="#000000" fill="none"/>
<path d="M11.203125 14.444050591976044L13.3125 13.226202367904175L13.3125 12.739063078275429L13.945312500000002 12.37370861105387" stroke-width="0.03" stroke="#000000" fill="none"/>
<path d="M14.015625 12.414303551856264L13.382812500000002 12.779658019077825L13.382812500000002 13.18560742710178L13.734375 13.388582131113758L14.367187500000002 13.023227663892198" stroke-width="0.03" stroke="#000000" fill="none"/>
<path d="M14.367187500000002 13.10441754549699L13.734375 13.46977201271855L13.3125 13.226202367904175" stroke-width="0.03" stroke="#000000" fill="none"/>
<path d="M13.382812500000002 13.18560742710178L14.2265625 12.698468137473034L14.015625 12.576683315065846" stroke-width="0.03" stroke="#000000" fill="none"/>
<path d="M14.2265625 12.698468137473034L14.2265625 12.942037782287407" stroke-width="0.03" stroke="#000000" fill="none"/>
<path d="M14.296875000000002 12.65787319667064L14.9296875 12.292518729449078L14.859375 12.251923788646682" stroke-width="0.03" stroke="#000000" fill="none"/>
<path d="M14.9296875 12.292518729449078L14.9296875 12.37370861105387" stroke-width="0.03" stroke="#000000" fill="none"/>
<path d="M15.070312500000002 12.37370861105387L15.070312500000002 12.45489849265866L15.140625 12.414303551856264" stroke-width="0.03" stroke="#000000" fill="none"/>
<path d="M15.070312500000002 12.37370861105387L15.2109375 12.45489849265866L15.28125 12.414303551856264L15.28125 12.251923788646682L15.140625 12.170733907041893L15.140625 12.00835414383231L15.000000000000002 11.927164262227517L14.9296875 11.967759203029914L14.9296875 12.130138966239496L14.859375 12.0895440254371L14.9296875 12.048949084634705" stroke-width="0.03" stroke="#000000" fill="none"/>
<path d="M14.9296875 11.967759203029914L15.070312500000002 12.048949084634705L15.140625 12.00835414383231" stroke-width="0.03" stroke="#000000" fill="none"/>
<path d="M15.070312500000002 12.048949084634705L15.070312500000002 12.211328847844287L15.2109375 12.292518729449078L15.2109375 12.45489849265866" stroke-width="0.03" stroke="#000000" fill="none"/>
<path d="M15.2109375 12.292518729449078L15.28125 12.251923788646682" stroke-width="0.03" stroke="#000000" fill="none"/>
<path d="M15.351562500000002 12.211328847844287L15.9140625 11.886569321425123L15.9140625 12.536088374263452" stroke-width="0.03" stroke="#000000" fill="none"/>
<path d="M15.9140625 12.45489849265866L16.40625 12.170733907041893L16.40625 15.012379763209582" stroke-width="0.03" stroke="#000000" fill="none"/>
<path d="M16.265625 15.093569644814371L16.7578125 14.809405059197603L17.671875 15.337139289628746" stroke-width="0.03" stroke="#000000" fill="none"/>
<path d="M18.515625 15.012379763209582L16.265625 16.311417868886238" stroke-width="0.03" stroke="#000000" fill="none"/>
<path d="M16.4765625 16.02725328326947L16.4765625 15.702493756850306L16.125 15.499519052838329" stroke-width="0.03" stroke="#000000" fill="none"/>
<path d="M16.265625 15.580708934443118L16.265625 14.362860710371251L15.9140625 14.159886006359274" stroke-width="0.03" stroke="#000000" fill="none"/>
<path d="M15.9140625 14.322265769568856L16.125 14.444050591976044L16.125 17.366886329748525" stroke-width="0.03" stroke="#000000" fill="none"/>
<path d="M16.125 17.448076211353314L16.1953125 17.407481270550917" stroke-width="0.03" stroke="#000000" fill="none"/>
<path d="M15.843750000000002 17.529266092958107L15.843750000000002 15.580708934443118" stroke-width="0.03" stroke="#000000" fill="none"/>
<path d="M16.125 15.905468460862282L16.4765625 15.702493756850306" stroke-width="0.03" stroke="#000000" fill="none"/>
<path d="M15.9140625 14.890594940802394L16.125 14.768810118395209L15.9140625 14.647025295988021" stroke-width="0.03" stroke="#000000" fill="none"/>
<path d="M16.125 14.444050591976044L16.265625 14.362860710371251" stroke-width="0.03" stroke="#000000" fill="none"/>
<path d="M15.9140625 13.753936598335319L16.1953125 13.591556835125736L16.1953125 12.698468137473034L15.2109375 12.130138966239496L15.2109375 10.99348062377242L14.437500000000002 10.54693627494607L14.15625 10.709316038155652" stroke-width="0.03" stroke="#000000" fill="none"/>
<path d="M13.8046875 10.506341334143674L13.8046875 10.100391926119716L12.75 9.491467814083784" stroke-width="0.03" stroke="#000000" fill="none"/>
<path d="M12.75 9.653847577293366L12.75 9.24789816926941L12.46875 9.085518406059828" stroke-width="0.03" stroke="#000000" fill="none"/>
<path d="M12.75 9.24789816926941L12.3984375 9.450872873281389" stroke-width="0.03" stroke="#000000" fill="none"/>
<path d="M12.1171875 9.126113346862224L14.367187500000002 7.827075241185566" stroke-width="0.03" stroke="#000000" fill="none"/>
<path d="M13.6640625 8.395404412419104L13.6640625 9.450872873281389L13.171875 9.735037458898159" stroke-width="0.03" stroke="#000000" fill="none"/>
<path d="M13.3125 9.653847577293366L15.773437500000002 11.074670505377211L15.773437500000002 11.805379439820332L16.40625 12.170733907041893" stroke-width="0.03" stroke="#000000" fill="none"/>
<path d="M16.4765625 11.886569321425123L16.4765625 13.266797308706572L16.8984375 13.510366953520945L17.6015625 13.10441754549699L17.6015625 11.72418955821554L17.320312500000004 11.561809795005958" stroke-width="0.03" stroke="#000000" fill="none"/>
<path d="M17.6015625 11.72418955821554L16.8984375 12.130138966239496L16.8984375 13.510366953520945" stroke-width="0.03" stroke="#000000" fill="none"/>
<path d="M17.1796875 13.023227663892198L17.1796875 12.860847900682616L17.320312500000004 12.779658019077825L17.6015625 12.942037782287407L17.4609375 13.023227663892198L17.4609375 13.18560742710178L17.1796875 13.023227663892198" stroke-width="0.03" stroke="#000000" fill="none"/>
<path d="M17.1796875 12.860847900682616L17.4609375 13.023227663892198" stroke-width="0.03" stroke="#000000" fill="none"/>
<path d="M16.8984375 12.130138966239496L16.265625 11.764784499017935L16.265625 11.521214854203564L16.0546875 11.399430031796376L16.0546875 10.668721097353256L16.7578125 10.262771689329298L15.5625 9.572657695688576L14.859375 9.97860710371253L14.859375 10.465746393341277L16.0546875 11.155860386982003" stroke-width="0.03" stroke="#000000" fill="none"/>
<path d="M16.0546875 10.99348062377242L18.3046875 9.694442518095762L18.585937500000004 9.856822281305345L18.585937500000004 10.181581807724509L18.8671875 10.343961570934091L18.8671875 10.668721097353256L16.617187500000004 11.967759203029914L16.617187500000004 11.64299967661075L18.8671875 10.343961570934091" stroke-width="0.03" stroke="#000000" fill="none"/>
<path d="M18.585937500000004 10.181581807724509L16.3359375 11.480619913401167L16.3359375 11.155860386982003L16.0546875 10.99348062377242" stroke-width="0.03" stroke="#000000" fill="none"/>
<path d="M15.773437500000002 11.074670505377211L15.28125 11.358835090993981" stroke-width="0.03" stroke="#000000" fill="none"/>
<path d="M15.2109375 11.318240150191585L15.773437500000002 11.64299967661075L15.2109375 11.967759203029914" stroke-width="0.03" stroke="#000000" fill="none"/>
<path d="M15.070312500000002 12.211328847844287L15.773437500000002 11.805379439820332" stroke-width="0.03" stroke="#000000" fill="none"/>
<path d="M16.3359375 11.480619913401167L16.617187500000004 11.64299967661075" stroke-width="0.03" stroke="#000000" fill="none"/>
<path d="M16.3359375 11.155860386982003L18.585937500000004 9.856822281305345" stroke-width="0.03" stroke="#000000" fill="none"/>
<path d="M16.7578125 10.262771689329298L16.7578125 10.587531215748463" stroke-width="0.03" stroke="#000000" fill="none"/>
<path d="M16.0546875 10.668721097353256L14.859375 9.97860710371253" stroke-width="0.03" stroke="#000000" fill="none"/>
<path d="M15.421875 9.97860710371253L15.421875 9.653847577293366L15.5625 9.735037458898159L15.5625 10.059796985317323L15.703125000000002 9.97860710371253L15.703125000000002 9.653847577293366L15.5625 9.735037458898159" stroke-width="0.03" stroke="#000000" fill="none"/>
<path d="M15.421875 9.97860710371253L15.5625 10.059796985317323" stroke-width="0.03" stroke="#000000" fill="none"/>
<path d="M14.859375 10.54693627494607L14.648437500000002 10.668721097353256" stroke-width="0.03" stroke="#000000" fill="none"/>
<path d="M14.859375 10.54693627494607L14.859375 10.790505919760442" stroke-width="0.03" stroke="#000000" fill="none"/>
<path d="M14.859375 11.115265446179606L14.296875000000002 11.44002497259877" stroke-width="0.03" stroke="#000000" fill="none"/>
<path d="M13.945312500000002 11.72418955821554L13.734375 11.845974380622728" stroke-width="0.03" stroke="#000000" fill="none"/>
<path d="M13.734375 12.170733907041893L11.203125 13.632151775928133L10.78125 13.388582131113758L10.78125 12.739063078275429L13.3125 11.277645209389188L13.734375 11.521214854203564L13.734375 12.170733907041893" stroke-width="0.03" stroke="#000000" fill="none"/>
<path d="M13.382812500000002 12.779658019077825L13.3125 12.739063078275429" stroke-width="0.03" stroke="#000000" fill="none"/>
<path d="M13.734375 13.388582131113758L13.734375 13.46977201271855" stroke-width="0.03" stroke="#000000" fill="none"/>
<path d="M14.718749999999998 13.55096189432334L14.9296875 13.429177071916154" stroke-width="0.03" stroke="#000000" fill="none"/>
<path d="M15.351562500000002 13.266797308706572L15.9140625 12.942037782287407" stroke-width="0.03" stroke="#000000" fill="none"/>
<path d="M15.843750000000002 12.90144284148501L16.1953125 12.698468137473034" stroke-width="0.03" stroke="#000000" fill="none"/>
<path d="M16.1953125 13.10441754549699L16.40625 13.226202367904175L16.1953125 13.347987190311363" stroke-width="0.03" stroke="#000000" fill="none"/>
<path d="M14.859375 11.196455327784399L15.2109375 10.99348062377242" stroke-width="0.03" stroke="#000000" fill="none"/>
<path d="M13.6640625 10.42515145253888L13.6640625 10.181581807724509L13.8046875 10.100391926119716" stroke-width="0.03" stroke="#000000" fill="none"/>
<path d="M13.6640625 10.181581807724509L11.1328125 8.720163938838269" stroke-width="0.03" stroke="#000000" fill="none"/>
<path d="M11.0625 8.760758879640663L11.0625 8.679568998035872" stroke-width="0.03" stroke="#000000" fill="none"/>
<path d="M11.1328125 8.638974057233478L10.9921875 8.557784175628687L10.921875000000002 8.598379116431081L10.921875000000002 8.679568998035872L11.0625 8.760758879640663" stroke-width="0.03" stroke="#000000" fill="none"/>
<path d="M10.8515625 8.882543702047851L12.539062500000002 9.856822281305345" stroke-width="0.03" stroke="#000000" fill="none"/>
<path d="M13.171875 10.140986866922113L13.382812500000002 10.019202044514927L13.382812500000002 10.262771689329298" stroke-width="0.03" stroke="#000000" fill="none"/>
<path d="M13.171875 11.277645209389188L10.5 12.820252959880222L7.828125 11.277645209389188L7.757812499999999 11.318240150191585" stroke-width="0.03" stroke="#000000" fill="none"/>
<path d="M7.6875 11.277645209389188L7.265625000000001 11.521214854203564L7.265625000000001 12.170733907041893L9.796875 13.632151775928133L10.218750000000002 13.388582131113758L10.218750000000002 12.739063078275429L7.6875 11.277645209389188" stroke-width="0.03" stroke="#000000" fill="none"/>
<path d="M7.265625000000001 11.521214854203564L9.796875 12.982632723089804L9.796875 14.444050591976044L8.53125 15.174759526419164" stroke-width="0.03" stroke="#000000" fill="none"/>
<path d="M7.898437500000001 15.377734230431141L7.4765625 15.621303875245514" stroke-width="0.03" stroke="#000000" fill="none"/>
<path d="M6.210937500000001 16.10844316487426L5.859375000000001 15.905468460862282" stroke-width="0.03" stroke="#000000" fill="none"/>
<path d="M5.859375000000001 15.986658342467075L5.4375 16.230227987281445" stroke-width="0.03" stroke="#000000" fill="none"/>
<path d="M5.6484375 15.864873520059888L5.6484375 13.266797308706572L5.0859375 12.942037782287407" stroke-width="0.03" stroke="#000000" fill="none"/>
<path d="M5.15625 12.90144284148501L4.8046875 12.698468137473034L4.8046875 13.591556835125736L5.0859375 13.753936598335319" stroke-width="0.03" stroke="#000000" fill="none"/>
<path d="M5.0859375 14.159886006359274L4.734375 14.362860710371251L4.734375 15.580708934443118" stroke-width="0.03" stroke="#000000" fill="none"/>
<path d="M4.875 15.499519052838329L4.5234375 15.702493756850306L4.5234375 16.02725328326947" stroke-width="0.03" stroke="#000000" fill="none"/>
<path d="M4.5234375 15.702493756850306L4.875 15.905468460862282" stroke-width="0.03" stroke="#000000" fill="none"/>
<path d="M5.15625 15.580708934443118L5.15625 17.529266092958107" stroke-width="0.03" stroke="#000000" fill="none"/>
<path d="M4.875 17.448076211353314L4.8046875 17.407481270550917" stroke-width="0.03" stroke="#000000" fill="none"/>
<path d="M4.875 17.366886329748525L4.875 14.444050591976044L4.734375 14.362860710371251" stroke-width="0.03" stroke="#000000" fill="none"/>
<path d="M4.875 14.444050591976044L5.0859375 14.322265769568856" stroke-width="0.03" stroke="#000000" fill="none"/>
<path d="M5.0859375 14.647025295988021L4.875 14.768810118395209L5.0859375 14.890594940802394" stroke-width="0.03" stroke="#000000" fill="none"/>
<path d="M4.734375 15.093569644814371L4.2421875 14.809405059197603L3.328125000000001 15.337139289628746" stroke-width="0.03" stroke="#000000" fill="none"/>
<path d="M2.484375000000001 15.012379763209582L4.734375 16.311417868886238" stroke-width="0.03" stroke="#000000" fill="none"/>
<path d="M4.59375 15.012379763209582L4.59375 12.170733907041893L5.2265625 11.805379439820332L5.2265625 11.074670505377211" stroke-width="0.03" stroke="#000000" fill="none"/>
<path d="M4.9453125 10.668721097353256L6.140625 9.97860710371253" stroke-width="0.03" stroke="#000000" fill="none"/>
<path d="M5.578125 9.97860710371253L5.4375 10.059796985317323L5.296875 9.97860710371253L5.296875 9.653847577293366L5.4375 9.735037458898159L5.4375 10.059796985317323" stroke-width="0.03" stroke="#000000" fill="none"/>
<path d="M5.578125 9.97860710371253L5.578125 9.653847577293366L5.4375 9.735037458898159" stroke-width="0.03" stroke="#000000" fill="none"/>
<path d="M6.140625 10.54693627494607L6.140625 10.790505919760442" stroke-width="0.03" stroke="#000000" fill="none"/>
<path d="M6.140625 10.54693627494607L6.3515625 10.668721097353256" stroke-width="0.03" stroke="#000000" fill="none"/>
<path d="M6.5625 10.54693627494607L5.7890625 10.99348062377242L5.7890625 12.130138966239496L4.8046875 12.698468137473034" stroke-width="0.03" stroke="#000000" fill="none"/>
<path d="M5.0859375 12.536088374263452L5.0859375 11.886569321425123L5.6484375 12.211328847844287" stroke-width="0.03" stroke="#000000" fill="none"/>
<path d="M5.71875 12.251923788646682L5.859375000000001 12.170733907041893L5.859375000000001 12.00835414383231L6 11.927164262227517L6.0703125 11.967759203029914L6.0703125 12.130138966239496L6.140625 12.0895440254371L6.0703125 12.048949084634705" stroke-width="0.03" stroke="#000000" fill="none"/>
<path d="M6.0703125 11.967759203029914L5.9296875 12.048949084634705L5.859375000000001 12.00835414383231" stroke-width="0.03" stroke="#000000" fill="none"/>
<path d="M5.9296875 12.048949084634705L5.9296875 12.211328847844287L5.7890625 12.292518729449078L5.7890625 12.45489849265866L5.9296875 12.37370861105387L5.9296875 12.45489849265866L5.859375000000001 12.414303551856264" stroke-width="0.03" stroke="#000000" fill="none"/>
<path d="M5.7890625 12.45489849265866L5.71875 12.414303551856264L5.71875 12.251923788646682L5.7890625 12.292518729449078" stroke-width="0.03" stroke="#000000" fill="none"/>
<path d="M5.9296875 12.211328847844287L5.2265625 11.805379439820332" stroke-width="0.03" stroke="#000000" fill="none"/>
<path d="M5.2265625 11.64299967661075L5.7890625 11.967759203029914" stroke-width="0.03" stroke="#000000" fill="none"/>
<path d="M6.0703125 12.292518729449078L6.140625 12.251923788646682" stroke-width="0.03" stroke="#000000" fill="none"/>
<path d="M6.0703125 12.292518729449078L6.0703125 12.37370861105387" stroke-width="0.03" stroke="#000000" fill="none"/>
<path d="M6.0703125 12.292518729449078L6.703125 12.65787319667064L5.6484375 13.266797308706572" stroke-width="0.03" stroke="#000000" fill="none"/>
<path d="M6.0703125 13.429177071916154L6.6328125 13.10441754549699L6.6328125 13.023227663892198L6.984375 12.820252959880222L6.984375 12.414303551856264L7.0546875 12.37370861105387L7.6875 12.739063078275429L7.6875 13.226202367904175L7.265625000000001 13.46977201271855L6.6328125 13.10441754549699" stroke-width="0.03" stroke="#000000" fill="none"/>
<path d="M6.6328125 13.023227663892198L7.265625000000001 13.388582131113758L7.6171875 13.18560742710178L7.6171875 12.779658019077825L7.6875 12.739063078275429" stroke-width="0.03" stroke="#000000" fill="none"/>
<path d="M7.6171875 12.779658019077825L6.984375 12.414303551856264" stroke-width="0.03" stroke="#000000" fill="none"/>
<path d="M7.0546875 12.37370861105387L7.0546875 11.72418955821554L7.265625000000001 11.602404735808353" stroke-width="0.03" stroke="#000000" fill="none"/>
<path d="M7.0546875 11.72418955821554L7.265625000000001 11.845974380622728" stroke-width="0.03" stroke="#000000" fill="none"/>
<path d="M6.703125 11.44002497259877L8.953125 10.140986866922113" stroke-width="0.03" stroke="#000000" fill="none"/>
<path d="M9.09375 10.303366630131695L9.4453125 10.506341334143674" stroke-width="0.03" stroke="#000000" fill="none"/>
<path d="M9.1640625 10.262771689329298L9.1640625 9.775632399700552L10.1484375 9.207303228467016L10.1484375 8.882543702047851L9.867187500000002 8.720163938838269" stroke-width="0.03" stroke="#000000" fill="none"/>
<path d="M10.1484375 8.882543702047851L8.4609375 9.856822281305345" stroke-width="0.03" stroke="#000000" fill="none"/>
<path d="M8.6015625 9.450872873281389L8.25 9.24789816926941" stroke-width="0.03" stroke="#000000" fill="none"/>
<path d="M7.828125 10.140986866922113L7.6171875 10.019202044514927L7.6171875 10.262771689329298" stroke-width="0.03" stroke="#000000" fill="none"/>
<path d="M6.84375 10.709316038155652L6.5625 10.54693627494607" stroke-width="0.03" stroke="#000000" fill="none"/>
<path d="M6.140625 11.115265446179606L6.703125 11.44002497259877L6.703125 12.65787319667064" stroke-width="0.03" stroke="#000000" fill="none"/>
<path d="M6.7734375 12.698468137473034L6.984375 12.576683315065846" stroke-width="0.03" stroke="#000000" fill="none"/>
<path d="M6.7734375 12.698468137473034L6.7734375 12.942037782287407" stroke-width="0.03" stroke="#000000" fill="none"/>
<path d="M6.7734375 12.698468137473034L7.6171875 13.18560742710178" stroke-width="0.03" stroke="#000000" fill="none"/>
<path d="M7.6875 13.226202367904175L9.796875 14.444050591976044" stroke-width="0.03" stroke="#000000" fill="none"/>
<path d="M10.5 14.85L10.5 12.90144284148501L10.78125 13.063822604694593" stroke-width="0.03" stroke="#000000" fill="none"/>
<path d="M10.5 12.90144284148501L10.218750000000002 13.063822604694593" stroke-width="0.03" stroke="#000000" fill="none"/>
<path d="M10.218750000000002 12.739063078275429L9.796875 12.982632723089804" stroke-width="0.03" stroke="#000000" fill="none"/>
<path d="M10.1484375 12.617278255868243L10.5 12.414303551856264L10.8515625 12.617278255868243" stroke-width="0.03" stroke="#000000" fill="none"/>
<path d="M10.78125 12.739063078275429L11.203125 12.982632723089804" stroke-width="0.03" stroke="#000000" fill="none"/>
<path d="M10.7109375 12.698468137473034L10.5 12.576683315065846L10.5 11.358835090993981" stroke-width="0.03" stroke="#000000" fill="none"/>
<path d="M11.4140625 11.237050268586794L11.625000000000002 11.358835090993981" stroke-width="0.03" stroke="#000000" fill="none"/>
<path d="M12.46875 11.521214854203564L12.609375 11.602404735808353" stroke-width="0.03" stroke="#000000" fill="none"/>
<path d="M13.171875 11.277645209389188L13.242187500000002 11.318240150191585" stroke-width="0.03" stroke="#000000" fill="none"/>
<path d="M10.9921875 10.262771689329298L10.5 9.97860710371253L10.0078125 10.262771689329298L9.1640625 9.775632399700552" stroke-width="0.03" stroke="#000000" fill="none"/>
<path d="M10.0078125 10.262771689329298L10.0078125 10.506341334143674" stroke-width="0.03" stroke="#000000" fill="none"/>
<path d="M10.5 10.384556511736488L10.5 9.97860710371253" stroke-width="0.03" stroke="#000000" fill="none"/>
<path d="M9.65625 11.845974380622728L9.65625 12.333113670251475" stroke-width="0.03" stroke="#000000" fill="none"/>
<path d="M9.65625 11.845974380622728L8.53125 11.196455327784399L8.671875 11.115265446179606" stroke-width="0.03" stroke="#000000" fill="none"/>
<path d="M8.53125 11.196455327784399L8.53125 11.521214854203564L9.1640625 11.886569321425123L9.1640625 12.048949084634705" stroke-width="0.03" stroke="#000000" fill="none"/>
<path d="M9.0234375 11.967759203029914L9.1640625 11.886569321425123" stroke-width="0.03" stroke="#000000" fill="none"/>
<path d="M8.53125 11.521214854203564L8.390625 11.602404735808353" stroke-width="0.03" stroke="#000000" fill="none"/>
<path d="M7.265625000000001 13.388582131113758L7.265625000000001 13.46977201271855" stroke-width="0.03" stroke="#000000" fill="none"/>
<path d="M6.28125 13.55096189432334L6.0703125 13.429177071916154L6.0703125 13.672746716730527" stroke-width="0.03" stroke="#000000" fill="none"/>
<path d="M4.8046875 13.347987190311363L4.59375 13.226202367904175L4.8046875 13.10441754549699" stroke-width="0.03" stroke="#000000" fill="none"/>
<path d="M5.0859375 12.45489849265866L4.59375 12.170733907041893" stroke-width="0.03" stroke="#000000" fill="none"/>
<path d="M4.2421875 10.587531215748463L4.2421875 10.262771689329298" stroke-width="0.03" stroke="#000000" fill="none"/>
<path d="M5.7890625 10.99348062377242L6.140625 11.196455327784399" stroke-width="0.03" stroke="#000000" fill="none"/>
<path d="M2.4140625000000004 10.181581807724509L2.1328124999999996 10.343961570934091" stroke-width="0.03" stroke="#000000" fill="none"/>
<path d="M2.293164916401084 2.9786238469347097L2.433374224245081 2.8001756369514412" stroke-width="0.03" stroke="#000000" fill="none"/>
<path d="M2.5480909306628963 2.761936734812169L2.5735835320890774 2.7491904340990785L2.6118224342283494 2.7109515319598065L2.6118224342283494 2.9786238469347097" stroke-width="0.03" stroke="#000000" fill="none"/>
<path d="M2.777524343498527 2.9786238469347097L2.777524343498527 2.7109515319598065L2.943226252768705 2.7109515319598065" stroke-width="0.03" stroke="#000000" fill="none"/>
<path d="M3.0451966584734302 2.761936734812169L3.0706892598996114 2.7491904340990785L3.1089281620388833 2.7109515319598065L3.1089281620388833 2.9786238469347097" stroke-width="0.03" stroke="#000000" fill="none"/>
<path d="M3.2618837705959702 2.927638644082347L3.274630071309061 2.953131245508528L3.287376372022152 2.965877546221619L3.3256152741614233 2.9786238469347097L3.3638541763006957 2.9786238469347097L3.402093078439967 2.965877546221619L3.4275856798661484 2.9403849447954378L3.440331980579239 2.902146042656166L3.440331980579239 2.8766534412299847L3.4275856798661484 2.8384145390907127L3.402093078439967 2.8129219376645316L3.3638541763006957 2.8001756369514412L3.3256152741614233 2.8001756369514412L3.287376372022152 2.8129219376645316L3.274630071309061 2.825668238377622L3.287376372022152 2.7109515319598065L3.414839379153058 2.7109515319598065" stroke-width="0.03" stroke="#000000" fill="none"/>
<path d="M3.542302386283964 2.7109515319598065L3.6825116941279608 2.7109515319598065L3.6060338898494173 2.8129219376645316L3.644272791988689 2.8129219376645316L3.66976539341487 2.825668238377622L3.6825116941279608 2.8384145390907127L3.695257994841051 2.8766534412299847L3.695257994841051 2.902146042656166L3.6825116941279608 2.9403849447954378L3.6570190927017796 2.965877546221619L3.6187801905625077 2.9786238469347097L3.5805412884232357 2.9786238469347097L3.542302386283964 2.965877546221619L3.5295560855708734 2.953131245508528L3.5168097848577826 2.927638644082347" stroke-width="0.03" stroke="#000000" fill="none"/>
<path d="M3.784482099832686 2.9786238469347097L3.784482099832686 2.7109515319598065L3.8737062048243196 2.7109515319598065L3.911945106963592 2.7236978326728973L3.9374377083897727 2.7491904340990785L3.9501840091028635 2.7746830355252596L3.9629303098159543 2.8129219376645316L3.9629303098159543 2.8766534412299847L3.9501840091028635 2.9148923433692566L3.9374377083897727 2.9403849447954378L3.911945106963592 2.965877546221619L3.8737062048243196 2.9786238469347097L3.784482099832686 2.9786238469347097" stroke-width="0.03" stroke="#000000" fill="none"/>
<path d="M4.052154414807589 2.9786238469347097L4.052154414807589 2.7109515319598065L4.217856324077767 2.7109515319598065" stroke-width="0.03" stroke="#000000" fill="none"/>
<path d="M4.28158782764322 2.7109515319598065L4.28158782764322 2.9786238469347097" stroke-width="0.03" stroke="#000000" fill="none"/>
<path d="M4.28158782764322 2.8384145390907127L4.383558233347944 2.8384145390907127" stroke-width="0.03" stroke="#000000" fill="none"/>
<path d="M4.4472897369133975 2.7109515319598065L4.28158782764322 2.7109515319598065" stroke-width="0.03" stroke="#000000" fill="none"/>
<path d="M4.154124820512314 2.8384145390907127L4.052154414807589 2.8384145390907127" stroke-width="0.03" stroke="#000000" fill="none"/>
<path d="M3.897403196183902 2.015598694615191L3.897403196183902 1.8093592167691144L3.8767792483992944 1.7474873734152916L3.8355313528300794 1.7268634256306838L3.773659509476256 1.7268634256306838L3.732411613907041 1.7474873734152916L3.6705397705532183 1.8093592167691144" stroke-width="0.03" stroke="#000000" fill="none"/>
<path d="M3.6705397705532183 1.7268634256306838L3.6705397705532183 2.015598694615191" stroke-width="0.03" stroke="#000000" fill="none"/>
<path d="M3.526172136060965 1.7887352689845069L3.5055481882763573 1.7474873734152916L3.443676344922534 1.7268634256306838L3.3818045015687113 1.7268634256306838L3.3199326582148885 1.7474873734152916L3.2993087104302807 1.7887352689845069L3.3199326582148885 1.8299831645537221L3.361180553784104 1.8506071123383299L3.464300292707142 1.8712310601229374L3.5055481882763573 1.891855007907545L3.526172136060965 1.9331029034767604L3.526172136060965 1.953726851261368L3.5055481882763573 1.9949747468305832L3.443676344922534 2.015598694615191L3.3818045015687113 2.015598694615191L3.3199326582148885 1.9949747468305832L3.2993087104302807 1.953726851261368" stroke-width="0.03" stroke="#000000" fill="none"/>
<path d="M3.237436867076458 2.056846590184406L2.907453702522736 2.056846590184406" stroke-width="0.03" stroke="#000000" fill="none"/>
<path d="M2.680590276892052 1.7268634256306838L2.6393423813228365 1.7474873734152916L2.5980944857536215 1.7887352689845069L2.5774705379690137 1.8506071123383299L2.5774705379690137 1.891855007907545L2.5980944857536215 1.953726851261368L2.6393423813228365 1.9949747468305832L2.680590276892052 2.015598694615191L2.7424621202458748 2.015598694615191L2.78371001581509 1.9949747468305832L2.8249579113843053 1.953726851261368L2.845581859168913 1.891855007907545L2.845581859168913 1.8506071123383299L2.8249579113843053 1.7887352689845069L2.78371001581509 1.7474873734152916L2.7424621202458748 1.7268634256306838L2.680590276892052 1.7268634256306838" stroke-width="0.03" stroke="#000000" fill="none"/>
<path d="M2.4537268512613677 1.7887352689845069L2.4331029034767604 1.7474873734152916L2.3712310601229376 1.7268634256306838L2.3093592167691144 1.7268634256306838L2.2474873734152916 1.7474873734152916L2.226863425630684 1.7887352689845069L2.2474873734152916 1.8299831645537221L2.2887352689845066 1.8506071123383299L2.391855007907545 1.8712310601229374L2.4331029034767604 1.891855007907545L2.4537268512613677 1.9331029034767604L2.4537268512613677 1.953726851261368L2.4331029034767604 1.9949747468305832L2.3712310601229376 2.015598694615191L2.3093592167691144 2.015598694615191L2.2474873734152916 1.9949747468305832L2.226863425630684 1.953726851261368" stroke-width="0.03" stroke="#000000" fill="none"/>
<path d="M2.0824957911384305 2.015598694615191L2.0824957911384305 1.7268634256306838" stroke-width="0.03" stroke="#000000" fill="none"/>
<path d="M2.061871843353823 1.5824957911384305L2.0824957911384305 1.6031197389230383L2.1031197389230383 1.5824957911384305L2.0824957911384305 1.5618718433538228L2.061871843353823 1.5824957911384305" stroke-width="0.03" stroke="#000000" fill="none"/>
<path d="M1.5 2.2599663291074443L7.264131938244363 2.2599663291074443" stroke-width="0.03" stroke="#000000" fill="none"/>
<path d="M6.578516408182894 2.015598694615191L6.578516408182894 1.5824957911384305L6.516644564829072 1.6443676344922533L6.475396669259856 1.664991582276861" stroke-width="0.03" stroke="#000000" fill="none"/>
<path d="M6.2897811391983875 1.953726851261368L6.248533243629172 1.9949747468305832L6.207285348059957 2.015598694615191L6.145413504706134 2.015598694615191L6.104165609136919 1.9949747468305832L6.062917713567703 1.953726851261368L6.042293765783096 1.891855007907545L6.042293765783096 1.8506071123383299L6.062917713567703 1.7887352689845069L6.104165609136919 1.7474873734152916L6.145413504706134 1.7268634256306838L6.207285348059957 1.7268634256306838L6.248533243629172 1.7474873734152916L6.26915719141378 1.7681113211998993L6.2897811391983875 1.8093592167691144L6.2897811391983875 1.8506071123383299L6.042293765783096 1.8506071123383299" stroke-width="0.03" stroke="#000000" fill="none"/>
<path d="M5.91855007907545 1.7268634256306838L5.712310601229374 1.9331029034767604" stroke-width="0.03" stroke="#000000" fill="none"/>
<path d="M5.712310601229374 2.015598694615191L5.712310601229374 1.5824957911384305" stroke-width="0.03" stroke="#000000" fill="none"/>
<path d="M5.547319018952512 1.7268634256306838L5.547319018952512 2.015598694615191" stroke-width="0.03" stroke="#000000" fill="none"/>
<path d="M5.547319018952512 1.953726851261368L5.506071123383298 1.9949747468305832L5.464823227814082 2.015598694615191L5.402951384460259 2.015598694615191L5.3617034888910435 1.9949747468305832L5.320455593321829 1.953726851261368L5.299831645537221 1.891855007907545L5.299831645537221 1.8506071123383299L5.320455593321829 1.7887352689845069L5.3617034888910435 1.7474873734152916L5.402951384460259 1.7268634256306838L5.464823227814082 1.7268634256306838L5.506071123383298 1.7474873734152916L5.547319018952512 1.7887352689845069" stroke-width="0.03" stroke="#000000" fill="none"/>
<path d="M5.794806392367804 1.8506071123383299L5.939174026860058 2.015598694615191" stroke-width="0.03" stroke="#000000" fill="none"/>
<path d="M5.155464011044968 2.015598694615191L5.155464011044968 1.5824957911384305" stroke-width="0.03" stroke="#000000" fill="none"/>
<path d="M5.031720324337321 1.5824957911384305L4.990472428768107 1.5824957911384305L4.949224533198891 1.6031197389230383L4.928600585414284 1.664991582276861L4.928600585414284 2.015598694615191" stroke-width="0.03" stroke="#000000" fill="none"/>
<path d="M4.681113211998992 2.015598694615191L4.5986174208605615 1.7268634256306838L4.516121629722131 2.015598694615191L4.4336258385837 1.7268634256306838" stroke-width="0.03" stroke="#000000" fill="none"/>
<path d="M4.144890569599194 1.7268634256306838L4.103642674029978 1.7474873734152916L4.062394778460764 1.7887352689845069L4.041770830676155 1.8506071123383299L4.041770830676155 1.891855007907545L4.062394778460764 1.953726851261368L4.103642674029978 1.9949747468305832L4.144890569599194 2.015598694615191L4.206762412953017 2.015598694615191L4.2480103085222325 1.9949747468305832L4.289258204091447 1.953726851261368L4.309882151876055 1.891855007907545L4.309882151876055 1.8506071123383299L4.289258204091447 1.7887352689845069L4.2480103085222325 1.7474873734152916L4.206762412953017 1.7268634256306838L4.144890569599194 1.7268634256306838" stroke-width="0.03" stroke="#000000" fill="none"/>
<path d="M4.681113211998992 2.015598694615191L4.7636090031374225 1.7268634256306838" stroke-width="0.03" stroke="#000000" fill="none"/>
<path d="M4.866728742060461 1.7268634256306838L5.011096376552715 1.7268634256306838" stroke-width="0.03" stroke="#000000" fill="none"/>
<path d="M2.879494749203252 2.8384145390907127L2.777524343498527 2.8384145390907127" stroke-width="0.03" stroke="#000000" fill="none"/>
<path d="M2.777524343498527 2.9786238469347097L2.943226252768705 2.9786238469347097" stroke-width="0.03" stroke="#000000" fill="none"/>
<path d="M2.433374224245081 2.9786238469347097L2.293164916401084 2.8001756369514412" stroke-width="0.03" stroke="#000000" fill="none"/>
<path d="M2.1147167064178154 2.7109515319598065L2.076477804278544 2.7236978326728973L2.0509852028523623 2.761936734812169L2.038238902139272 2.825668238377622L2.038238902139272 2.8639071405168943L2.0509852028523623 2.927638644082347L2.076477804278544 2.965877546221619L2.1147167064178154 2.9786238469347097L2.140209307843997 2.9786238469347097L2.1784482099832685 2.965877546221619L2.2039408114094496 2.927638644082347L2.2166871121225404 2.8639071405168943L2.2166871121225404 2.825668238377622L2.2039408114094496 2.761936734812169L2.1784482099832685 2.7236978326728973L2.140209307843997 2.7109515319598065L2.1147167064178154 2.7109515319598065" stroke-width="0.03" stroke="#000000" fill="none"/>
<path d="M10.2890625 12.698468137473034L10.5 12.576683315065846" stroke-width="0.03" stroke="#000000" fill="none"/>
<path d="M9.234375 16.39260775049103L9.234375 19.31544348826351" stroke-width="0.03" stroke="#000000" fill="none"/>
<path d="M9.3046875 19.274848547461115L9.515625 19.3966333698683L9.515625 19.15306372505393" stroke-width="0.03" stroke="#000000" fill="none"/>
<path d="M8.8125 18.990683961844347L8.7421875 18.95008902104195" stroke-width="0.03" stroke="#000000" fill="none"/>
<path d="M8.3203125 18.38175984980841L8.1796875 18.30056996820362" stroke-width="0.03" stroke="#000000" fill="none"/>
<path d="M6.7734375 17.569861033760503L6.28125 17.28569644814373" stroke-width="0.03" stroke="#000000" fill="none"/>
<path d="M6.28125 16.717367276910196L6.492187500000001 16.59558245450301" stroke-width="0.03" stroke="#000000" fill="none"/>
<path d="M10.078125 18.341164909006018L10.1484375 18.38175984980841" stroke-width="0.03" stroke="#000000" fill="none"/>
<path d="M10.4296875 19.924367600299444L10.5 19.96496254110184" stroke-width="0.03" stroke="#000000" fill="none"/>
<path d="M12.1171875 21.62935511400006L12.2578125 21.548165232395267L12.539062500000002 21.71054499560485L12.3984375 21.79173487720964L12.3984375 21.954114640419224L12.1171875 21.79173487720964L12.1171875 21.62935511400006L12.3984375 21.79173487720964" stroke-width="0.03" stroke="#000000" fill="none"/>
<path d="M14.2265625 17.569861033760503L14.718749999999998 17.28569644814373L14.718749999999998 16.717367276910196L15.5625 16.230227987281445" stroke-width="0.03" stroke="#000000" fill="none"/>
<path d="M14.718749999999998 16.717367276910196L14.5078125 16.59558245450301" stroke-width="0.03" stroke="#000000" fill="none"/>
<path d="M14.367187500000002 17.082721744131756L14.718749999999998 17.28569644814373" stroke-width="0.03" stroke="#000000" fill="none"/>
</svg>
