<?xml version="1.0" standalone="no"?>
<svg width="21cm" height="29.7cm" version="1.1" xmlns="http://www.w3.org/2000/svg" viewBox="0.0 0.0 21.000001 29.700001">
<path d="M6.210937500000001 7.177556188347237L6.7734375 6.852796661928072L6.984375 6.974581484335259L6.984375 7.05577136594005" stroke-width="0.03" stroke="#000000" fill="none"/>
<path d="M6.914062500000001 7.015176425137655L6.984375 6.974581484335259" stroke-width="0.03" stroke="#000000" fill="none"/>
<path d="M6.914062500000001 7.015176425137655L8.0390625 7.664695477975984" stroke-width="0.03" stroke="#000000" fill="none"/>
<path d="M8.1796875 7.583505596371193L8.1796875 7.2587460699520285L9.09375 6.731011839520885" stroke-width="0.03" stroke="#000000" fill="none"/>
<path d="M9.09375 6.8122017211256765L9.09375 6.1626826682873475L9.515625 5.919113023472974L10.5 6.487442194706512L11.484375000000002 5.919113023472974L11.90625 6.1626826682873475L11.90625 6.8122017211256765L11.484375000000002 7.05577136594005" stroke-width="0.03" stroke="#000000" fill="none"/>
<path d="M11.835937500000002 7.2587460699520285L10.921875000000002 6.731011839520885L11.90625 6.1626826682873475" stroke-width="0.03" stroke="#000000" fill="none"/>
<path d="M11.90625 6.731011839520885L12.8203125 7.2587460699520285L12.8203125 7.583505596371193" stroke-width="0.03" stroke="#000000" fill="none"/>
<path d="M12.9609375 7.664695477975984L14.0859375 7.015176425137655L14.015625 6.974581484335259L14.2265625 6.852796661928072L14.7890625 7.177556188347237L14.7890625 7.421125833161611" stroke-width="0.03" stroke="#000000" fill="none"/>
<path d="M14.648437500000002 7.583505596371193L12.3984375 8.882543702047851L12.3984375 9.044923465257433L12.609375 8.923138642850246L12.609375 8.841948761245455L13.8046875 8.151834767604731L14.0859375 8.314214530814313L14.0859375 8.395404412419104L13.3125 8.841948761245455" stroke-width="0.03" stroke="#000000" fill="none"/>
<path d="M13.242187500000002 8.80135382044306L14.0859375 8.314214530814313" stroke-width="0.03" stroke="#000000" fill="none"/>
<path d="M13.875 8.192429708407126L14.648437500000002 7.745885359580775L14.648437500000002 7.583505596371193L14.437500000000002 7.4617207739640055L12.187500000000002 8.760758879640663L12.187500000000002 8.923138642850246L12.3984375 9.044923465257433" stroke-width="0.03" stroke="#000000" fill="none"/>
<path d="M12.3984375 8.882543702047851L12.187500000000002 8.760758879640663" stroke-width="0.03" stroke="#000000" fill="none"/>
<path d="M12.2578125 8.720163938838269L12.2578125 8.638974057233478L12.539062500000002 8.476594294023895L11.1328125 7.664695477975984L11.1328125 7.827075241185566" stroke-width="0.03" stroke="#000000" fill="none"/>
<path d="M11.203125 7.867670181987961L10.9921875 7.989455004395149L10.9921875 8.07064488599994L11.1328125 8.151834767604731L11.34375 8.030049945197543L11.34375 7.948860063592752L11.203125 7.867670181987961" stroke-width="0.03" stroke="#000000" fill="none"/>
<path d="M11.203125 7.78648030038317L10.5 8.192429708407126L9.796875 7.78648030038317L8.53125 8.51718923482629" stroke-width="0.03" stroke="#000000" fill="none"/>
<path d="M8.4609375 8.476594294023895L9.867187500000002 7.664695477975984L9.867187500000002 7.827075241185566" stroke-width="0.03" stroke="#000000" fill="none"/>
<path d="M9.9375 7.867670181987961L10.5 7.542910655568797L10.5 7.380530892359214L11.1328125 7.745885359580775" stroke-width="0.03" stroke="#000000" fill="none"/>
<path d="M11.203125 7.78648030038317L12.46875 8.51718923482629" stroke-width="0.03" stroke="#000000" fill="none"/>
<path d="M12.328125000000002 8.679568998035872L12.2578125 8.638974057233478" stroke-width="0.03" stroke="#000000" fill="none"/>
<path d="M12.609375 8.841948761245455L15.9140625 10.749910978958045L16.265625 10.54693627494607L16.265625 10.709316038155652L15.9140625 10.912290742167627L15.28125 10.54693627494607" stroke-width="0.03" stroke="#000000" fill="none"/>
<path d="M15.28125 10.62812615655086L15.140625 10.709316038155652L15.070312500000002 10.668721097353256L15.070312500000002 10.587531215748463L13.8046875 9.856822281305345L13.8046875 9.694442518095762L13.945312500000002 9.613252636490971" stroke-width="0.03" stroke="#000000" fill="none"/>
<path d="M13.875 9.653847577293366L12.609375 8.923138642850246" stroke-width="0.03" stroke="#000000" fill="none"/>
<path d="M13.242187500000002 8.80135382044306L16.265625 10.54693627494607" stroke-width="0.03" stroke="#000000" fill="none"/>
<path d="M15.9140625 10.749910978958045L15.9140625 10.912290742167627" stroke-width="0.03" stroke="#000000" fill="none"/>
<path d="M15.843750000000002 11.358835090993981L14.859375 10.790505919760442L14.859375 10.952885682970024L13.945312500000002 11.480619913401167L13.6640625 11.318240150191585L13.031250000000002 11.683594617413146" stroke-width="0.03" stroke="#000000" fill="none"/>
<path d="M13.1015625 11.561809795005958L13.6640625 11.237050268586794L13.171875 10.952885682970024L13.171875 10.790505919760442L13.945312500000002 10.343961570934091L13.945312500000002 10.181581807724509L11.4140625 8.720163938838269L10.5 9.24789816926941L9.5859375 8.720163938838269L7.0546875 10.181581807724509L7.0546875 10.343961570934091L7.828125 10.790505919760442L7.828125 10.952885682970024L7.3359375 11.237050268586794L7.3359375 11.318240150191585L7.96875 11.683594617413146" stroke-width="0.03" stroke="#000000" fill="none"/>
<path d="M7.898437500000001 11.561809795005958L7.898437500000001 11.237050268586794L8.390625 10.952885682970024L7.0546875 10.181581807724509" stroke-width="0.03" stroke="#000000" fill="none"/>
<path d="M7.1953125 9.856822281305345L5.9296875 10.587531215748463L5.9296875 10.668721097353256L5.859375000000001 10.709316038155652L5.71875 10.62812615655086L5.71875 10.384556511736488L5.859375000000001 10.465746393341277L7.1953125 9.694442518095762L7.1953125 9.856822281305345" stroke-width="0.03" stroke="#000000" fill="none"/>
<path d="M7.1953125 9.694442518095762L7.0546875 9.613252636490971" stroke-width="0.03" stroke="#000000" fill="none"/>
<path d="M7.125 9.653847577293366L8.390625 8.923138642850246L8.390625 8.841948761245455L7.1953125 8.151834767604731L6.914062500000001 8.314214530814313L6.914062500000001 8.395404412419104L7.6875 8.841948761245455" stroke-width="0.03" stroke="#000000" fill="none"/>
<path d="M7.757812499999999 8.80135382044306L4.734375 10.54693627494607L4.734375 10.709316038155652L5.0859375 10.912290742167627L5.71875 10.54693627494607" stroke-width="0.03" stroke="#000000" fill="none"/>
<path d="M5.859375000000001 10.465746393341277L5.859375000000001 10.709316038155652" stroke-width="0.03" stroke="#000000" fill="none"/>
<path d="M5.9296875 10.668721097353256L6.140625 10.790505919760442L6.140625 10.952885682970024L7.0546875 11.480619913401167L7.3359375 11.318240150191585" stroke-width="0.03" stroke="#000000" fill="none"/>
<path d="M7.3359375 11.237050268586794L7.898437500000001 11.561809795005958" stroke-width="0.03" stroke="#000000" fill="none"/>
<path d="M7.898437500000001 11.237050268586794L8.3203125 11.480619913401167L7.265625000000001 12.0895440254371L7.265625000000001 12.982632723089804L6.492187500000001 13.429177071916154L6.492187500000001 14.647025295988021L6.0703125 14.403455651173648L6.0703125 14.971784822407185L4.734375 14.200480947161669L4.734375 17.123316684934153L5.6484375 17.651050915365293L5.6484375 18.706519376227575L8.1796875 20.16793724511382L8.3203125 20.086747363509026L8.3203125 19.193658665856326L8.4609375 19.112468784251533L8.4609375 18.78770925783237" stroke-width="0.03" stroke="#000000" fill="none"/>
<path d="M8.671875 18.909494080239554L8.953125 18.747114317029972L8.953125 19.3966333698683L8.4609375 19.112468784251533" stroke-width="0.03" stroke="#000000" fill="none"/>
<path d="M8.3203125 19.193658665856326L9.09375 19.640203014682676L9.3046875 19.51841819227549L9.0234375 19.356038429065904L9.0234375 18.625329494622786" stroke-width="0.03" stroke="#000000" fill="none"/>
<path d="M8.671875 18.422354790610807L8.671875 18.909494080239554L8.1796875 18.625329494622786L8.1796875 20.16793724511382" stroke-width="0.03" stroke="#000000" fill="none"/>
<path d="M7.828125 20.208532185916212L7.6875 20.289722067521005L7.6875 20.452101830730584" stroke-width="0.03" stroke="#000000" fill="none"/>
<path d="M7.6875 20.370911949125794L6.421875 19.640203014682676L6.3515625 19.68079795548507L6.3515625 21.06102594276652L6.6328125 21.223405705976102L6.703125 21.18281076517371L6.703125 20.289722067521005" stroke-width="0.03" stroke="#000000" fill="none"/>
<path d="M6.6328125 20.249127126718612L6.6328125 21.223405705976102" stroke-width="0.03" stroke="#000000" fill="none"/>
<path d="M6.421875 21.101620883568916L6.421875 21.994709581221617L6.28125 22.07589946282641L6.0703125 21.954114640419224L6.0703125 19.356038429065904L6.210937500000001 19.274848547461115L6.421875 19.3966333698683L6.421875 19.640203014682676" stroke-width="0.03" stroke="#000000" fill="none"/>
<path d="M6.3515625 19.68079795548507L9.65625 21.588760173197663L9.796875 21.507570291592874L9.796875 21.913519699616828L9.65625 21.994709581221617L6.6328125 20.249127126718612" stroke-width="0.03" stroke="#000000" fill="none"/>
<path d="M6 19.802582777892262L6 19.477823251473097L6.0703125 19.437228310670697" stroke-width="0.03" stroke="#000000" fill="none"/>
<path d="M6.0703125 19.356038429065904L6.28125 19.477823251473097L6.28125 22.07589946282641" stroke-width="0.03" stroke="#000000" fill="none"/>
<path d="M6.210937500000001 22.27887416683839L6 22.400658989245574L5.4375 22.07589946282641L5.4375 21.832329818012038L5.5078125 21.79173487720964" stroke-width="0.03" stroke="#000000" fill="none"/>
<path d="M5.5078125 21.87292475881443L5.5078125 20.573886653137773" stroke-width="0.03" stroke="#000000" fill="none"/>
<path d="M5.3671875 20.492696771532984L5.0859375 20.655076534742566L4.171875 20.12734230431142" stroke-width="0.03" stroke="#000000" fill="none"/>
<path d="M4.2421875 20.086747363509026L3.679687499999999 20.41150688992819L3.2578125 20.16793724511382L3.2578125 19.03127890264674L2.2734375000000004 18.462949731413204L2.2734375000000004 17.975810441784457L2.8359374999999996 17.651050915365293L3.2578125 17.894620560179668" stroke-width="0.03" stroke="#000000" fill="none"/>
<path d="M3.2578125 17.48867115215571L3.2578125 18.544139613017997L2.2734375000000004 17.975810441784457" stroke-width="0.03" stroke="#000000" fill="none"/>
<path d="M2.765625 17.69164585616769L2.765625 16.636177395305403L3.046875 16.473797632095824" stroke-width="0.03" stroke="#000000" fill="none"/>
<path d="M3.046875 16.311417868886238L1.9218750000000004 15.661898816047911L1.9218750000000004 15.7430886976527L1.9921874999999998 15.702493756850306" stroke-width="0.03" stroke="#000000" fill="none"/>
<path d="M1.9218750000000004 15.7430886976527L1.7109375000000002 15.621303875245514L1.7109375000000002 14.971784822407185L1.9218750000000004 14.85" stroke-width="0.03" stroke="#000000" fill="none"/>
<path d="M2.1328124999999996 14.890594940802394L2.2734375000000004 14.809405059197603L3.046875 15.255949408023953" stroke-width="0.03" stroke="#000000" fill="none"/>
<path d="M3.046875 15.337139289628746L3.046875 15.012379763209582L3.1171875 14.971784822407185L3.8906249999999996 15.418329171233536" stroke-width="0.03" stroke="#000000" fill="none"/>
<path d="M3.8906249999999996 15.499519052838329L3.8906249999999996 12.00835414383231L4.03125 11.927164262227517L4.382812499999999 12.130138966239496L4.382812499999999 12.860847900682616" stroke-width="0.03" stroke="#000000" fill="none"/>
<path d="M4.453125 12.820252959880222L4.2421875 12.942037782287407L4.382812499999999 13.023227663892198L4.382812499999999 14.56583541438323L4.5234375 14.484645532778439L4.5234375 13.023227663892198L4.59375 12.982632723089804L4.8046875 13.10441754549699L4.9453125 13.023227663892198L5.859375000000001 13.55096189432334L5.859375000000001 13.875721420742504L5.7890625 13.9163163615449L5.7890625 14.484645532778439L5.6484375 14.56583541438323L4.875 14.11929106555688L4.734375 14.200480947161669" stroke-width="0.03" stroke="#000000" fill="none"/>
<path d="M4.382812499999999 14.56583541438323L4.2421875 14.484645532778439" stroke-width="0.03" stroke="#000000" fill="none"/>
<path d="M4.3125 14.525240473580833L4.3125 15.986658342467075L4.2421875 16.02725328326947L3.046875 15.337139289628746" stroke-width="0.03" stroke="#000000" fill="none"/>
<path d="M3.046875 15.661898816047911L3.046875 17.366886329748525L3.9609375 17.894620560179668L4.1015625 17.813430678574875" stroke-width="0.03" stroke="#000000" fill="none"/>
<path d="M4.03125 17.77283573777248L4.03125 16.311417868886238" stroke-width="0.03" stroke="#000000" fill="none"/>
<path d="M3.9609375 16.270822928083845L3.9609375 17.894620560179668" stroke-width="0.03" stroke="#000000" fill="none"/>
<path d="M4.03125 17.85402561937727L4.03125 18.58473455382039L4.6640625 18.95008902104195" stroke-width="0.03" stroke="#000000" fill="none"/>
<path d="M4.59375 18.990683961844347L4.734375 18.909494080239554" stroke-width="0.03" stroke="#000000" fill="none"/>
<path d="M4.734375 18.828304198634765L4.171875 18.5035446722156L4.03125 18.58473455382039" stroke-width="0.03" stroke="#000000" fill="none"/>
<path d="M4.171875 18.5035446722156L4.171875 17.85402561937727" stroke-width="0.03" stroke="#000000" fill="none"/>
<path d="M4.3125 17.85402561937727L4.382812499999999 17.813430678574875L4.382812499999999 17.651050915365293L4.171875 17.529266092958107L4.1015625 17.569861033760503L4.1015625 17.732240796970082L4.3125 17.85402561937727L4.3125 17.69164585616769L4.382812499999999 17.651050915365293" stroke-width="0.03" stroke="#000000" fill="none"/>
<path d="M4.3125 17.69164585616769L4.1015625 17.569861033760503" stroke-width="0.03" stroke="#000000" fill="none"/>
<path d="M4.03125 17.77283573777248L4.734375 18.178785145796436L4.734375 18.990683961844347L6 19.721392896287465" stroke-width="0.03" stroke="#000000" fill="none"/>
<path d="M6 19.802582777892262L4.59375 18.990683961844347L4.59375 20.04615242270663L6.0703125 20.898646179556938" stroke-width="0.03" stroke="#000000" fill="none"/>
<path d="M5.0859375 20.655076534742566L5.0859375 20.330317008323398" stroke-width="0.03" stroke="#000000" fill="none"/>
<path d="M4.59375 19.802582777892262L3.679687499999999 19.274848547461115L3.679687499999999 20.41150688992819" stroke-width="0.03" stroke="#000000" fill="none"/>
<path d="M4.2421875 20.086747363509026L4.2421875 19.59960807388028" stroke-width="0.03" stroke="#000000" fill="none"/>
<path d="M4.59375 19.31544348826351L3.679687499999999 18.78770925783237L3.679687499999999 17.732240796970082" stroke-width="0.03" stroke="#000000" fill="none"/>
<path d="M3.8203125000000004 17.813430678574875L3.8203125000000004 18.462949731413204L3.7499999999999996 18.422354790610807L3.8203125000000004 18.38175984980841" stroke-width="0.03" stroke="#000000" fill="none"/>
<path d="M3.7499999999999996 18.422354790610807L3.7499999999999996 18.665924435425183L3.8203125000000004 18.706519376227575L3.8203125000000004 18.78770925783237L4.03125 18.909494080239554L4.1015625 18.86889913943716" stroke-width="0.03" stroke="#000000" fill="none"/>
<path d="M4.03125 18.909494080239554L4.03125 18.828304198634765L4.59375 19.15306372505393" stroke-width="0.03" stroke="#000000" fill="none"/>
<path d="M4.8046875 18.95008902104195L4.8046875 18.706519376227575L4.875 18.665924435425183L5.015625 18.747114317029972L5.015625 18.990683961844347L4.9453125 19.03127890264674L4.8046875 18.95008902104195" stroke-width="0.03" stroke="#000000" fill="none"/>
<path d="M4.9453125 19.03127890264674L4.9453125 18.78770925783237L5.015625 18.747114317029972" stroke-width="0.03" stroke="#000000" fill="none"/>
<path d="M4.9453125 18.78770925783237L4.8046875 18.706519376227575" stroke-width="0.03" stroke="#000000" fill="none"/>
<path d="M3.8203125000000004 18.706519376227575L3.679687499999999 18.78770925783237" stroke-width="0.03" stroke="#000000" fill="none"/>
<path d="M3.046875 16.79855715851499L2.765625 16.636177395305403" stroke-width="0.03" stroke="#000000" fill="none"/>
<path d="M3.9609375 16.270822928083845L4.2421875 16.433202691293424L4.3125 16.39260775049103" stroke-width="0.03" stroke="#000000" fill="none"/>
<path d="M4.382812499999999 16.433202691293424L4.5234375 16.352012809688635L4.5234375 16.10844316487426L4.3125 15.986658342467075" stroke-width="0.03" stroke="#000000" fill="none"/>
<path d="M4.2421875 16.02725328326947L4.2421875 12.211328847844287L4.382812499999999 12.130138966239496" stroke-width="0.03" stroke="#000000" fill="none"/>
<path d="M4.2421875 12.211328847844287L3.8906249999999996 12.00835414383231" stroke-width="0.03" stroke="#000000" fill="none"/>
<path d="M3.8906249999999996 12.576683315065846L1.9921874999999998 11.480619913401167L1.9218750000000004 11.521214854203564L1.9218750000000004 15.093569644814371L1.7109375000000002 14.971784822407185" stroke-width="0.03" stroke="#000000" fill="none"/>
<path d="M2.1328124999999996 14.890594940802394L2.1328124999999996 15.134164585616768L4.382812499999999 16.433202691293424L4.382812499999999 16.189633046479052L4.5234375 16.10844316487426" stroke-width="0.03" stroke="#000000" fill="none"/>
<path d="M4.382812499999999 16.189633046479052L2.1328124999999996 14.890594940802394" stroke-width="0.03" stroke="#000000" fill="none"/>
<path d="M3.046875 15.012379763209582L3.8906249999999996 15.499519052838329" stroke-width="0.03" stroke="#000000" fill="none"/>
<path d="M4.2421875 16.352012809688635L4.2421875 16.433202691293424" stroke-width="0.03" stroke="#000000" fill="none"/>
<path d="M5.6484375 14.56583541438323L5.6484375 13.672746716730527L5.859375000000001 13.55096189432334" stroke-width="0.03" stroke="#000000" fill="none"/>
<path d="M5.6484375 13.672746716730527L4.5234375 13.023227663892198" stroke-width="0.03" stroke="#000000" fill="none"/>
<path d="M4.59375 12.982632723089804L4.59375 12.90144284148501L4.453125 12.820252959880222" stroke-width="0.03" stroke="#000000" fill="none"/>
<path d="M4.59375 12.90144284148501L4.382812499999999 13.023227663892198" stroke-width="0.03" stroke="#000000" fill="none"/>
<path d="M4.8046875 13.10441754549699L4.8046875 11.967759203029914" stroke-width="0.03" stroke="#000000" fill="none"/>
<path d="M4.9453125 12.048949084634705L4.9453125 13.023227663892198" stroke-width="0.03" stroke="#000000" fill="none"/>
<path d="M3.8906249999999996 12.65787319667064L1.9218750000000004 11.521214854203564" stroke-width="0.03" stroke="#000000" fill="none"/>
<path d="M1.7812499999999996 11.845974380622728L1.7812499999999996 10.140986866922113L2.0625000000000004 9.97860710371253L6.7734375 12.698468137473034L6.5625 12.820252959880222L6.5625 12.982632723089804L3.046875 10.952885682970024L3.046875 10.790505919760442L6.5625 12.820252959880222" stroke-width="0.03" stroke="#000000" fill="none"/>
<path d="M6.5625 12.982632723089804L6.7734375 12.860847900682616L6.7734375 13.266797308706572" stroke-width="0.03" stroke="#000000" fill="none"/>
<path d="M6.914062500000001 13.18560742710178L6.914062500000001 12.779658019077825L7.265625000000001 12.576683315065846" stroke-width="0.03" stroke="#000000" fill="none"/>
<path d="M7.1953125 12.617278255868243L7.265625000000001 12.65787319667064" stroke-width="0.03" stroke="#000000" fill="none"/>
<path d="M7.125 12.65787319667064L7.125 12.739063078275429L7.0546875 12.779658019077825L6.984375 12.739063078275429" stroke-width="0.03" stroke="#000000" fill="none"/>
<path d="M7.0546875 12.698468137473034L7.0546875 12.779658019077825" stroke-width="0.03" stroke="#000000" fill="none"/>
<path d="M7.125 12.739063078275429L7.265625000000001 12.820252959880222" stroke-width="0.03" stroke="#000000" fill="none"/>
<path d="M7.125 13.063822604694593L6.984375 12.982632723089804L6.914062500000001 13.023227663892198" stroke-width="0.03" stroke="#000000" fill="none"/>
<path d="M6.984375 12.982632723089804L6.984375 12.90144284148501L6.914062500000001 12.860847900682616" stroke-width="0.03" stroke="#000000" fill="none"/>
<path d="M6.984375 12.90144284148501L6.914062500000001 12.942037782287407" stroke-width="0.03" stroke="#000000" fill="none"/>
<path d="M6.914062500000001 12.779658019077825L7.828125 13.307392249508968L7.4765625 13.510366953520945L7.1953125 13.347987190311363L7.1953125 13.753936598335319L7.4765625 13.9163163615449L8.1796875 13.510366953520945L8.1796875 12.698468137473034L7.898437500000001 12.536088374263452L7.546875 12.739063078275429L7.546875 13.145012486299386L7.1953125 13.347987190311363" stroke-width="0.03" stroke="#000000" fill="none"/>
<path d="M6.984375 13.145012486299386L6.914062500000001 13.10441754549699" stroke-width="0.03" stroke="#000000" fill="none"/>
<path d="M6.7734375 12.698468137473034L6.7734375 12.45489849265866L3.2578125 10.42515145253888L3.2578125 10.343961570934091L2.976562500000001 10.181581807724509L3.8203125000000004 9.694442518095762L4.1015625 9.856822281305345L4.1015625 10.019202044514927L3.46875 10.384556511736488" stroke-width="0.03" stroke="#000000" fill="none"/>
<path d="M3.3984375 10.343961570934091L3.2578125 10.42515145253888" stroke-width="0.03" stroke="#000000" fill="none"/>
<path d="M3.2578125 10.343961570934091L4.1015625 9.856822281305345" stroke-width="0.03" stroke="#000000" fill="none"/>
<path d="M3.3984375 10.343961570934091L6.914062500000001 12.37370861105387L6.914062500000001 12.617278255868243L7.265625000000001 12.414303551856264" stroke-width="0.03" stroke="#000000" fill="none"/>
<path d="M7.265625000000001 12.0895440254371L9.4453125 13.347987190311363L9.4453125 14.403455651173648L8.953125 14.687620236790417L8.953125 15.337139289628746L9.3046875 15.540113993640723L9.3046875 15.946063401664679L9.867187500000002 16.270822928083845L10.359375 15.986658342467075L11.273437500000002 16.514392572898217L12.328125000000002 15.905468460862282L12.328125000000002 14.687620236790417L14.5078125 13.429177071916154L13.734375 12.982632723089804L13.734375 12.0895440254371L12.679687500000002 11.480619913401167L13.1015625 11.237050268586794L12.609375 10.952885682970024L13.945312500000002 10.181581807724509" stroke-width="0.03" stroke="#000000" fill="none"/>
<path d="M13.8046875 9.694442518095762L15.140625 10.465746393341277L15.28125 10.384556511736488L15.28125 10.62812615655086" stroke-width="0.03" stroke="#000000" fill="none"/>
<path d="M15.140625 10.709316038155652L15.140625 10.465746393341277" stroke-width="0.03" stroke="#000000" fill="none"/>
<path d="M15.070312500000002 10.587531215748463L13.945312500000002 11.237050268586794L13.945312500000002 11.480619913401167" stroke-width="0.03" stroke="#000000" fill="none"/>
<path d="M13.945312500000002 11.237050268586794L13.171875 10.790505919760442" stroke-width="0.03" stroke="#000000" fill="none"/>
<path d="M13.171875 10.952885682970024L12.890625000000002 11.115265446179606" stroke-width="0.03" stroke="#000000" fill="none"/>
<path d="M13.1015625 11.237050268586794L13.1015625 11.561809795005958" stroke-width="0.03" stroke="#000000" fill="none"/>
<path d="M13.6640625 11.318240150191585L13.6640625 11.237050268586794" stroke-width="0.03" stroke="#000000" fill="none"/>
<path d="M13.734375 12.0895440254371L11.5546875 13.347987190311363L11.5546875 14.403455651173648L12.046875 14.687620236790417L12.046875 15.337139289628746L11.6953125 15.540113993640723L11.6953125 15.946063401664679L11.1328125 16.270822928083845L10.640625 15.986658342467075L9.7265625 16.514392572898217L8.671875 15.905468460862282L8.671875 14.687620236790417L9.5859375 14.159886006359274L9.5859375 13.591556835125736L10.1484375 13.266797308706572L10.5 13.46977201271855L10.8515625 13.266797308706572L11.4140625 13.591556835125736L11.4140625 14.159886006359274L12.328125000000002 14.687620236790417" stroke-width="0.03" stroke="#000000" fill="none"/>
<path d="M12.046875 14.687620236790417L11.34375 15.093569644814371L10.7109375 14.728215177592812L10.7109375 13.997506243149692L10.5 13.875721420742504L10.2890625 13.997506243149692L10.2890625 14.728215177592812L9.65625 15.093569644814371L8.953125 14.687620236790417" stroke-width="0.03" stroke="#000000" fill="none"/>
<path d="M8.671875 14.687620236790417L6.492187500000001 13.429177071916154" stroke-width="0.03" stroke="#000000" fill="none"/>
<path d="M5.859375000000001 13.875721420742504L6.492187500000001 14.241075887964065" stroke-width="0.03" stroke="#000000" fill="none"/>
<path d="M6.3515625 14.241075887964065L6.0703125 14.403455651173648" stroke-width="0.03" stroke="#000000" fill="none"/>
<path d="M6.0703125 14.647025295988021L5.7890625 14.484645532778439" stroke-width="0.03" stroke="#000000" fill="none"/>
<path d="M5.7890625 13.9163163615449L6.3515625 14.241075887964065" stroke-width="0.03" stroke="#000000" fill="none"/>
<path d="M7.4765625 13.9163163615449L7.4765625 13.510366953520945" stroke-width="0.03" stroke="#000000" fill="none"/>
<path d="M7.828125 13.307392249508968L7.828125 12.90144284148501L7.546875 12.739063078275429" stroke-width="0.03" stroke="#000000" fill="none"/>
<path d="M7.828125 12.90144284148501L8.1796875 12.698468137473034" stroke-width="0.03" stroke="#000000" fill="none"/>
<path d="M8.1796875 13.510366953520945L10.2890625 14.728215177592812" stroke-width="0.03" stroke="#000000" fill="none"/>
<path d="M10.5 14.85L9.65625 15.337139289628746L9.65625 15.093569644814371" stroke-width="0.03" stroke="#000000" fill="none"/>
<path d="M9.65625 15.337139289628746L9.867187500000002 15.458924112035932L10.5 15.093569644814371L11.1328125 15.458924112035932L11.34375 15.337139289628746L11.34375 15.093569644814371" stroke-width="0.03" stroke="#000000" fill="none"/>
<path d="M11.34375 15.337139289628746L10.5 14.85L10.5 13.875721420742504" stroke-width="0.03" stroke="#000000" fill="none"/>
<path d="M10.7109375 13.997506243149692L11.4140625 13.591556835125736" stroke-width="0.03" stroke="#000000" fill="none"/>
<path d="M11.5546875 13.347987190311363L10.5 12.739063078275429L9.4453125 13.347987190311363" stroke-width="0.03" stroke="#000000" fill="none"/>
<path d="M9.5859375 13.591556835125736L10.2890625 13.997506243149692" stroke-width="0.03" stroke="#000000" fill="none"/>
<path d="M10.5 13.46977201271855L10.5 12.739063078275429" stroke-width="0.03" stroke="#000000" fill="none"/>
<path d="M10.7109375 14.728215177592812L12.8203125 13.510366953520945L12.8203125 12.698468137473034L13.1015625 12.536088374263452L13.453125 12.739063078275429L13.453125 13.145012486299386L13.8046875 13.347987190311363L13.8046875 13.753936598335319L13.5234375 13.9163163615449L12.8203125 13.510366953520945" stroke-width="0.03" stroke="#000000" fill="none"/>
<path d="M13.171875 13.307392249508968L14.0859375 12.779658019077825L13.734375 12.576683315065846" stroke-width="0.03" stroke="#000000" fill="none"/>
<path d="M13.8046875 12.617278255868243L13.734375 12.65787319667064" stroke-width="0.03" stroke="#000000" fill="none"/>
<path d="M13.875 12.65787319667064L13.875 12.739063078275429L13.734375 12.820252959880222" stroke-width="0.03" stroke="#000000" fill="none"/>
<path d="M13.875 12.739063078275429L13.945312500000002 12.779658019077825L14.015625 12.739063078275429" stroke-width="0.03" stroke="#000000" fill="none"/>
<path d="M13.945312500000002 12.698468137473034L13.945312500000002 12.779658019077825" stroke-width="0.03" stroke="#000000" fill="none"/>
<path d="M14.0859375 12.779658019077825L14.0859375 13.18560742710178" stroke-width="0.03" stroke="#000000" fill="none"/>
<path d="M14.015625 13.145012486299386L14.0859375 13.10441754549699" stroke-width="0.03" stroke="#000000" fill="none"/>
<path d="M14.0859375 13.023227663892198L14.015625 12.982632723089804L13.875 13.063822604694593" stroke-width="0.03" stroke="#000000" fill="none"/>
<path d="M14.015625 12.982632723089804L14.015625 12.90144284148501L14.0859375 12.860847900682616" stroke-width="0.03" stroke="#000000" fill="none"/>
<path d="M14.015625 12.90144284148501L14.0859375 12.942037782287407" stroke-width="0.03" stroke="#000000" fill="none"/>
<path d="M14.2265625 12.860847900682616L14.2265625 13.266797308706572" stroke-width="0.03" stroke="#000000" fill="none"/>
<path d="M14.5078125 13.429177071916154L14.5078125 14.647025295988021L14.9296875 14.403455651173648L14.648437500000002 14.241075887964065L15.2109375 13.9163163615449L15.140625 13.875721420742504L15.140625 13.55096189432334L16.0546875 13.023227663892198L16.1953125 13.10441754549699L16.40625 12.982632723089804L16.4765625 13.023227663892198L16.4765625 14.484645532778439L16.617187500000004 14.56583541438323L16.7578125 14.484645532778439" stroke-width="0.03" stroke="#000000" fill="none"/>
<path d="M16.6875 14.525240473580833L16.6875 15.986658342467075L16.4765625 16.10844316487426L16.4765625 16.352012809688635L16.617187500000004 16.433202691293424L18.8671875 15.134164585616768L18.8671875 14.890594940802394L18.7265625 14.809405059197603L17.953125000000004 15.255949408023953" stroke-width="0.03" stroke="#000000" fill="none"/>
<path d="M17.953125000000004 15.337139289628746L16.7578125 16.02725328326947L16.6875 15.986658342467075" stroke-width="0.03" stroke="#000000" fill="none"/>
<path d="M16.7578125 16.02725328326947L16.7578125 12.211328847844287L16.617187500000004 12.130138966239496L16.96875 11.927164262227517L17.109375 12.00835414383231L17.109375 15.499519052838329L17.953125000000004 15.012379763209582L17.882812500000004 14.971784822407185L17.109375 15.418329171233536" stroke-width="0.03" stroke="#000000" fill="none"/>
<path d="M17.953125000000004 15.337139289628746L17.953125000000004 15.012379763209582" stroke-width="0.03" stroke="#000000" fill="none"/>
<path d="M17.953125000000004 15.661898816047911L17.953125000000004 17.366886329748525L17.0390625 17.894620560179668L16.8984375 17.813430678574875" stroke-width="0.03" stroke="#000000" fill="none"/>
<path d="M16.96875 17.77283573777248L16.265625 18.178785145796436L16.265625 18.990683961844347L15.000000000000002 19.721392896287465" stroke-width="0.03" stroke="#000000" fill="none"/>
<path d="M15.000000000000002 19.802582777892262L16.40625 18.990683961844347L16.265625 18.909494080239554" stroke-width="0.03" stroke="#000000" fill="none"/>
<path d="M16.265625 18.828304198634765L16.828125 18.5035446722156L16.96875 18.58473455382039L16.96875 17.85402561937727" stroke-width="0.03" stroke="#000000" fill="none"/>
<path d="M17.0390625 17.894620560179668L17.0390625 16.270822928083845L16.7578125 16.433202691293424L16.6875 16.39260775049103" stroke-width="0.03" stroke="#000000" fill="none"/>
<path d="M16.617187500000004 16.433202691293424L16.617187500000004 16.189633046479052L18.8671875 14.890594940802394" stroke-width="0.03" stroke="#000000" fill="none"/>
<path d="M19.078125 14.85L19.289062500000004 14.971784822407185L19.289062500000004 15.621303875245514L19.078125 15.7430886976527L19.0078125 15.702493756850306" stroke-width="0.03" stroke="#000000" fill="none"/>
<path d="M19.078125 15.661898816047911L17.953125000000004 16.311417868886238" stroke-width="0.03" stroke="#000000" fill="none"/>
<path d="M17.953125000000004 16.473797632095824L18.234375 16.636177395305403L18.234375 17.69164585616769" stroke-width="0.03" stroke="#000000" fill="none"/>
<path d="M18.1640625 17.651050915365293L17.7421875 17.894620560179668" stroke-width="0.03" stroke="#000000" fill="none"/>
<path d="M17.7421875 17.48867115215571L17.7421875 18.544139613017997L18.7265625 17.975810441784457L18.1640625 17.651050915365293" stroke-width="0.03" stroke="#000000" fill="none"/>
<path d="M18.7265625 17.975810441784457L18.7265625 18.462949731413204L17.7421875 19.03127890264674L17.7421875 20.16793724511382L17.320312500000004 20.41150688992819L16.7578125 20.086747363509026L16.7578125 19.59960807388028" stroke-width="0.03" stroke="#000000" fill="none"/>
<path d="M16.40625 19.802582777892262L17.320312500000004 19.274848547461115L17.320312500000004 20.41150688992819" stroke-width="0.03" stroke="#000000" fill="none"/>
<path d="M16.828125 20.12734230431142L15.9140625 20.655076534742566L15.6328125 20.492696771532984" stroke-width="0.03" stroke="#000000" fill="none"/>
<path d="M15.4921875 20.573886653137773L15.4921875 21.87292475881443L15.5625 21.832329818012038L15.5625 22.07589946282641L15.000000000000002 22.400658989245574L14.7890625 22.27887416683839" stroke-width="0.03" stroke="#000000" fill="none"/>
<path d="M14.718749999999998 22.07589946282641L14.9296875 21.954114640419224L14.9296875 19.356038429065904L14.7890625 19.274848547461115L14.578125 19.3966333698683L14.578125 19.640203014682676L13.3125 20.370911949125794" stroke-width="0.03" stroke="#000000" fill="none"/>
<path d="M13.3125 20.289722067521005L11.976562500000002 21.06102594276652L11.765625 20.939241120359334L11.765625 21.101620883568916L11.976562500000002 21.223405705976102L11.976562500000002 21.06102594276652" stroke-width="0.03" stroke="#000000" fill="none"/>
<path d="M11.90625 20.939241120359334L13.171875 20.208532185916212L13.3125 20.289722067521005L13.3125 20.452101830730584" stroke-width="0.03" stroke="#000000" fill="none"/>
<path d="M12.8203125 20.16793724511382L15.351562500000002 18.706519376227575L15.351562500000002 17.651050915365293L16.265625 17.123316684934153L16.265625 14.200480947161669L16.125 14.11929106555688L15.351562500000002 14.56583541438323L15.2109375 14.484645532778439L14.9296875 14.647025295988021" stroke-width="0.03" stroke="#000000" fill="none"/>
<path d="M14.9296875 14.403455651173648L14.9296875 14.971784822407185L16.265625 14.200480947161669" stroke-width="0.03" stroke="#000000" fill="none"/>
<path d="M16.617187500000004 14.56583541438323L16.617187500000004 13.023227663892198L16.7578125 12.942037782287407L16.546875 12.820252959880222L16.40625 12.90144284148501L16.40625 12.982632723089804" stroke-width="0.03" stroke="#000000" fill="none"/>
<path d="M16.4765625 13.023227663892198L15.351562500000002 13.672746716730527L15.351562500000002 14.56583541438323" stroke-width="0.03" stroke="#000000" fill="none"/>
<path d="M15.2109375 14.484645532778439L15.2109375 13.9163163615449" stroke-width="0.03" stroke="#000000" fill="none"/>
<path d="M15.140625 13.875721420742504L14.5078125 14.241075887964065" stroke-width="0.03" stroke="#000000" fill="none"/>
<path d="M15.140625 13.55096189432334L15.351562500000002 13.672746716730527" stroke-width="0.03" stroke="#000000" fill="none"/>
<path d="M16.0546875 13.023227663892198L16.0546875 12.048949084634705" stroke-width="0.03" stroke="#000000" fill="none"/>
<path d="M16.1953125 11.967759203029914L16.1953125 13.10441754549699" stroke-width="0.03" stroke="#000000" fill="none"/>
<path d="M16.40625 12.90144284148501L16.617187500000004 13.023227663892198" stroke-width="0.03" stroke="#000000" fill="none"/>
<path d="M16.617187500000004 12.860847900682616L16.617187500000004 12.130138966239496" stroke-width="0.03" stroke="#000000" fill="none"/>
<path d="M16.7578125 12.211328847844287L17.109375 12.00835414383231" stroke-width="0.03" stroke="#000000" fill="none"/>
<path d="M17.109375 12.576683315065846L19.0078125 11.480619913401167L19.078125 11.521214854203564L19.078125 15.093569644814371L19.289062500000004 14.971784822407185" stroke-width="0.03" stroke="#000000" fill="none"/>
<path d="M19.078125 15.661898816047911L19.078125 15.7430886976527" stroke-width="0.03" stroke="#000000" fill="none"/>
<path d="M18.234375 16.636177395305403L17.953125000000004 16.79855715851499" stroke-width="0.03" stroke="#000000" fill="none"/>
<path d="M16.96875 16.311417868886238L16.96875 17.77283573777248" stroke-width="0.03" stroke="#000000" fill="none"/>
<path d="M16.8984375 17.732240796970082L16.6875 17.85402561937727L16.617187500000004 17.813430678574875L16.617187500000004 17.651050915365293L16.828125 17.529266092958107L16.8984375 17.569861033760503L16.8984375 17.732240796970082" stroke-width="0.03" stroke="#000000" fill="none"/>
<path d="M16.828125 17.85402561937727L16.828125 18.5035446722156" stroke-width="0.03" stroke="#000000" fill="none"/>
<path d="M16.96875 18.58473455382039L16.3359375 18.95008902104195" stroke-width="0.03" stroke="#000000" fill="none"/>
<path d="M16.40625 18.990683961844347L16.40625 20.04615242270663L14.9296875 20.898646179556938" stroke-width="0.03" stroke="#000000" fill="none"/>
<path d="M14.648437500000002 21.06102594276652L14.367187500000002 21.223405705976102L14.296875000000002 21.18281076517371L14.296875000000002 20.289722067521005" stroke-width="0.03" stroke="#000000" fill="none"/>
<path d="M14.367187500000002 20.249127126718612L11.34375 21.994709581221617L11.203125 21.913519699616828L11.203125 21.507570291592874L11.835937500000002 21.142215824371313" stroke-width="0.03" stroke="#000000" fill="none"/>
<path d="M11.90625 20.939241120359334L11.90625 19.640203014682676L12.679687500000002 19.193658665856326L12.539062500000002 19.112468784251533L12.539062500000002 18.78770925783237" stroke-width="0.03" stroke="#000000" fill="none"/>
<path d="M12.328125000000002 18.909494080239554L12.8203125 18.625329494622786L12.8203125 20.16793724511382L12.679687500000002 20.086747363509026L12.679687500000002 19.193658665856326" stroke-width="0.03" stroke="#000000" fill="none"/>
<path d="M12.539062500000002 19.112468784251533L12.046875 19.3966333698683L11.976562500000002 19.356038429065904L11.976562500000002 18.625329494622786" stroke-width="0.03" stroke="#000000" fill="none"/>
<path d="M12.046875 18.747114317029972L12.046875 19.3966333698683" stroke-width="0.03" stroke="#000000" fill="none"/>
<path d="M11.976562500000002 19.356038429065904L11.6953125 19.51841819227549L11.6953125 20.573886653137773L11.835937500000002 20.655076534742566L11.835937500000002 20.898646179556938L11.90625 20.939241120359334" stroke-width="0.03" stroke="#000000" fill="none"/>
<path d="M11.835937500000002 20.898646179556938L11.765625 20.939241120359334" stroke-width="0.03" stroke="#000000" fill="none"/>
<path d="M11.835937500000002 20.655076534742566L10.8515625 21.223405705976102" stroke-width="0.03" stroke="#000000" fill="none"/>
<path d="M10.8515625 21.06102594276652L11.6953125 20.573886653137773" stroke-width="0.03" stroke="#000000" fill="none"/>
<path d="M11.90625 19.640203014682676L11.6953125 19.51841819227549" stroke-width="0.03" stroke="#000000" fill="none"/>
<path d="M11.273437500000002 19.03127890264674L12.328125000000002 18.422354790610807L12.328125000000002 18.909494080239554L12.046875 18.747114317029972" stroke-width="0.03" stroke="#000000" fill="none"/>
<path d="M11.273437500000002 19.03127890264674L11.273437500000002 16.514392572898217" stroke-width="0.03" stroke="#000000" fill="none"/>
<path d="M11.1328125 16.270822928083845L11.1328125 15.458924112035932" stroke-width="0.03" stroke="#000000" fill="none"/>
<path d="M11.6953125 15.540113993640723L12.328125000000002 15.905468460862282" stroke-width="0.03" stroke="#000000" fill="none"/>
<path d="M10.5 15.093569644814371L10.5 17.529266092958107L9.796875 17.93521550098206L9.796875 18.259975027401225L10.1484375 18.462949731413204L10.5 18.259975027401225L10.8515625 18.462949731413204L11.203125 18.259975027401225L11.203125 17.93521550098206L10.5 17.529266092958107" stroke-width="0.03" stroke="#000000" fill="none"/>
<path d="M10.5 17.93521550098206L10.1484375 18.13819020499404L10.1484375 18.462949731413204" stroke-width="0.03" stroke="#000000" fill="none"/>
<path d="M10.218750000000002 18.747114317029972L10.218750000000002 18.828304198634765" stroke-width="0.03" stroke="#000000" fill="none"/>
<path d="M10.2890625 18.86889913943716L10.359375 18.828304198634765L10.359375 18.665924435425183" stroke-width="0.03" stroke="#000000" fill="none"/>
<path d="M10.359375 18.828304198634765L10.4296875 18.86889913943716L10.4296875 18.95008902104195" stroke-width="0.03" stroke="#000000" fill="none"/>
<path d="M10.4296875 18.86889913943716L10.359375 18.909494080239554" stroke-width="0.03" stroke="#000000" fill="none"/>
<path d="M10.359375 19.071873843449136L10.1484375 19.193658665856326L10.1484375 23.253152746095882L10.2890625 23.33434262770067L10.218750000000002 23.374937568503068L10.218750000000002 23.699697094922232L9.375 23.212557805293486L9.375 22.88779827887432L9.515625 22.80660839726953L10.1484375 23.17196286449109" stroke-width="0.03" stroke="#000000" fill="none"/>
<path d="M10.2890625 23.33434262770067L10.2890625 19.274848547461115L10.5 19.15306372505393L10.7109375 19.274848547461115L10.8515625 19.193658665856326L10.8515625 23.253152746095882L10.7109375 23.33434262770067L10.7109375 19.274848547461115" stroke-width="0.03" stroke="#000000" fill="none"/>
<path d="M10.8515625 19.193658665856326L10.640625 19.071873843449136L10.9921875 18.86889913943716" stroke-width="0.03" stroke="#000000" fill="none"/>
<path d="M10.8515625 18.78770925783237L10.5 18.990683961844347L10.1484375 18.78770925783237" stroke-width="0.03" stroke="#000000" fill="none"/>
<path d="M10.0078125 18.86889913943716L10.359375 19.071873843449136" stroke-width="0.03" stroke="#000000" fill="none"/>
<path d="M10.5 18.990683961844347L10.5 17.93521550098206L10.8515625 18.13819020499404L10.8515625 18.462949731413204" stroke-width="0.03" stroke="#000000" fill="none"/>
<path d="M10.78125 18.747114317029972L10.78125 18.828304198634765" stroke-width="0.03" stroke="#000000" fill="none"/>
<path d="M10.7109375 18.86889913943716L10.640625 18.828304198634765L10.640625 18.665924435425183" stroke-width="0.03" stroke="#000000" fill="none"/>
<path d="M10.640625 18.828304198634765L10.570312500000002 18.86889913943716L10.570312500000002 18.95008902104195" stroke-width="0.03" stroke="#000000" fill="none"/>
<path d="M10.570312500000002 18.86889913943716L10.640625 18.909494080239554" stroke-width="0.03" stroke="#000000" fill="none"/>
<path d="M10.5 19.15306372505393L10.5 24.592785792574933L10.218750000000002 24.75516555578452L8.7421875 23.90267179893421L8.7421875 23.740292035724625" stroke-width="0.03" stroke="#000000" fill="none"/>
<path d="M9.09375 23.943266739736604L9.1640625 23.90267179893421L9.1640625 21.71054499560485" stroke-width="0.03" stroke="#000000" fill="none"/>
<path d="M9.09375 21.669950054802452L9.09375 23.943266739736604L6 22.157089344431203L6 22.400658989245574" stroke-width="0.03" stroke="#000000" fill="none"/>
<path d="M5.5078125 21.87292475881443L5.4375 21.832329818012038" stroke-width="0.03" stroke="#000000" fill="none"/>
<path d="M6.0703125 19.51841819227549L6 19.477823251473097" stroke-width="0.03" stroke="#000000" fill="none"/>
<path d="M6.28125 19.477823251473097L6.421875 19.3966333698683" stroke-width="0.03" stroke="#000000" fill="none"/>
<path d="M7.6875 20.289722067521005L9.0234375 21.06102594276652L9.234375 20.939241120359334L9.1640625 20.898646179556938L9.1640625 20.655076534742566L9.3046875 20.573886653137773L9.3046875 19.51841819227549" stroke-width="0.03" stroke="#000000" fill="none"/>
<path d="M9.09375 19.640203014682676L9.09375 20.939241120359334L7.828125 20.208532185916212" stroke-width="0.03" stroke="#000000" fill="none"/>
<path d="M8.953125 19.3966333698683L9.0234375 19.356038429065904" stroke-width="0.03" stroke="#000000" fill="none"/>
<path d="M9.7265625 19.03127890264674L10.5 18.58473455382039L11.273437500000002 19.03127890264674" stroke-width="0.03" stroke="#000000" fill="none"/>
<path d="M10.8515625 18.13819020499404L11.203125 17.93521550098206" stroke-width="0.03" stroke="#000000" fill="none"/>
<path d="M10.1484375 18.13819020499404L9.796875 17.93521550098206" stroke-width="0.03" stroke="#000000" fill="none"/>
<path d="M9.7265625 19.03127890264674L9.7265625 16.514392572898217" stroke-width="0.03" stroke="#000000" fill="none"/>
<path d="M9.867187500000002 16.270822928083845L9.867187500000002 15.458924112035932" stroke-width="0.03" stroke="#000000" fill="none"/>
<path d="M9.3046875 15.540113993640723L8.671875 15.905468460862282" stroke-width="0.03" stroke="#000000" fill="none"/>
<path d="M8.671875 18.422354790610807L9.7265625 19.03127890264674" stroke-width="0.03" stroke="#000000" fill="none"/>
<path d="M10.1484375 19.193658665856326L10.2890625 19.274848547461115" stroke-width="0.03" stroke="#000000" fill="none"/>
<path d="M9.3046875 20.573886653137773L10.1484375 21.06102594276652" stroke-width="0.03" stroke="#000000" fill="none"/>
<path d="M10.1484375 21.223405705976102L9.1640625 20.655076534742566" stroke-width="0.03" stroke="#000000" fill="none"/>
<path d="M9.1640625 20.898646179556938L9.09375 20.939241120359334" stroke-width="0.03" stroke="#000000" fill="none"/>
<path d="M9.0234375 21.06102594276652L9.0234375 21.223405705976102L9.234375 21.101620883568916L9.234375 20.939241120359334" stroke-width="0.03" stroke="#000000" fill="none"/>
<path d="M9.1640625 21.142215824371313L9.796875 21.507570291592874" stroke-width="0.03" stroke="#000000" fill="none"/>
<path d="M9.65625 21.588760173197663L9.65625 21.994709581221617" stroke-width="0.03" stroke="#000000" fill="none"/>
<path d="M9.375 22.88779827887432L10.218750000000002 23.374937568503068" stroke-width="0.03" stroke="#000000" fill="none"/>
<path d="M10.2890625 23.659102154119836L10.218750000000002 23.699697094922232" stroke-width="0.03" stroke="#000000" fill="none"/>
<path d="M10.2890625 23.659102154119836L10.2890625 23.821481917329418L10.5 23.699697094922232L10.7109375 23.821481917329418L10.8515625 23.740292035724625L10.8515625 23.659102154119836" stroke-width="0.03" stroke="#000000" fill="none"/>
<path d="M10.78125 23.699697094922232L11.625000000000002 23.212557805293486L11.625000000000002 22.88779827887432L11.484375000000002 22.80660839726953L10.8515625 23.17196286449109" stroke-width="0.03" stroke="#000000" fill="none"/>
<path d="M10.7109375 23.33434262770067L10.78125 23.374937568503068L10.78125 23.699697094922232L10.7109375 23.659102154119836L10.7109375 23.821481917329418" stroke-width="0.03" stroke="#000000" fill="none"/>
<path d="M10.78125 23.780886976527025L10.78125 24.75516555578452L12.2578125 23.90267179893421L12.2578125 23.740292035724625" stroke-width="0.03" stroke="#000000" fill="none"/>
<path d="M11.90625 23.943266739736604L15.000000000000002 22.157089344431203L15.000000000000002 22.400658989245574" stroke-width="0.03" stroke="#000000" fill="none"/>
<path d="M14.718749999999998 22.07589946282641L14.718749999999998 19.477823251473097L14.578125 19.3966333698683" stroke-width="0.03" stroke="#000000" fill="none"/>
<path d="M14.718749999999998 19.477823251473097L14.9296875 19.356038429065904" stroke-width="0.03" stroke="#000000" fill="none"/>
<path d="M14.9296875 19.437228310670697L15.000000000000002 19.477823251473097L15.000000000000002 19.802582777892262" stroke-width="0.03" stroke="#000000" fill="none"/>
<path d="M14.9296875 19.51841819227549L15.000000000000002 19.477823251473097" stroke-width="0.03" stroke="#000000" fill="none"/>
<path d="M14.648437500000002 19.68079795548507L11.34375 21.588760173197663L11.203125 21.507570291592874" stroke-width="0.03" stroke="#000000" fill="none"/>
<path d="M11.34375 21.588760173197663L11.34375 21.994709581221617" stroke-width="0.03" stroke="#000000" fill="none"/>
<path d="M11.835937500000002 21.71054499560485L11.835937500000002 23.90267179893421L11.90625 23.943266739736604L11.90625 21.669950054802452" stroke-width="0.03" stroke="#000000" fill="none"/>
<path d="M11.625000000000002 22.88779827887432L10.78125 23.374937568503068" stroke-width="0.03" stroke="#000000" fill="none"/>
<path d="M10.2890625 23.821481917329418L10.1484375 23.740292035724625L10.1484375 23.659102154119836" stroke-width="0.03" stroke="#000000" fill="none"/>
<path d="M10.218750000000002 23.780886976527025L10.218750000000002 24.75516555578452" stroke-width="0.03" stroke="#000000" fill="none"/>
<path d="M10.5 24.592785792574933L10.78125 24.75516555578452" stroke-width="0.03" stroke="#000000" fill="none"/>
<path d="M14.578125 21.994709581221617L14.578125 21.101620883568916" stroke-width="0.03" stroke="#000000" fill="none"/>
<path d="M14.648437500000002 21.06102594276652L14.648437500000002 19.68079795548507L14.578125 19.640203014682676" stroke-width="0.03" stroke="#000000" fill="none"/>
<path d="M14.367187500000002 20.249127126718612L14.367187500000002 21.223405705976102" stroke-width="0.03" stroke="#000000" fill="none"/>
<path d="M14.578125 21.994709581221617L14.718749999999998 22.07589946282641" stroke-width="0.03" stroke="#000000" fill="none"/>
<path d="M15.4921875 21.79173487720964L15.5625 21.832329818012038" stroke-width="0.03" stroke="#000000" fill="none"/>
<path d="M15.9140625 20.655076534742566L15.9140625 20.330317008323398" stroke-width="0.03" stroke="#000000" fill="none"/>
<path d="M16.40625 19.31544348826351L17.320312500000004 18.78770925783237L17.320312500000004 17.732240796970082" stroke-width="0.03" stroke="#000000" fill="none"/>
<path d="M17.1796875 17.813430678574875L17.1796875 18.462949731413204L17.25 18.422354790610807L17.1796875 18.38175984980841" stroke-width="0.03" stroke="#000000" fill="none"/>
<path d="M17.25 18.422354790610807L17.25 18.665924435425183L17.1796875 18.706519376227575L17.1796875 18.78770925783237L16.96875 18.909494080239554L16.8984375 18.86889913943716" stroke-width="0.03" stroke="#000000" fill="none"/>
<path d="M16.96875 18.909494080239554L16.96875 18.828304198634765L16.40625 19.15306372505393" stroke-width="0.03" stroke="#000000" fill="none"/>
<path d="M16.1953125 18.95008902104195L16.0546875 19.03127890264674L15.984375 18.990683961844347L15.984375 18.747114317029972L16.125 18.665924435425183L16.1953125 18.706519376227575L16.1953125 18.95008902104195" stroke-width="0.03" stroke="#000000" fill="none"/>
<path d="M16.0546875 19.03127890264674L16.0546875 18.78770925783237L16.1953125 18.706519376227575" stroke-width="0.03" stroke="#000000" fill="none"/>
<path d="M16.0546875 18.78770925783237L15.984375 18.747114317029972" stroke-width="0.03" stroke="#000000" fill="none"/>
<path d="M16.6875 17.85402561937727L16.6875 17.69164585616769L16.617187500000004 17.651050915365293" stroke-width="0.03" stroke="#000000" fill="none"/>
<path d="M16.6875 17.69164585616769L16.8984375 17.569861033760503" stroke-width="0.03" stroke="#000000" fill="none"/>
<path d="M16.7578125 16.433202691293424L16.7578125 16.352012809688635" stroke-width="0.03" stroke="#000000" fill="none"/>
<path d="M16.617187500000004 16.189633046479052L16.4765625 16.10844316487426" stroke-width="0.03" stroke="#000000" fill="none"/>
<path d="M17.1796875 18.706519376227575L17.320312500000004 18.78770925783237" stroke-width="0.03" stroke="#000000" fill="none"/>
<path d="M17.109375 12.65787319667064L19.078125 11.521214854203564" stroke-width="0.03" stroke="#000000" fill="none"/>
<path d="M19.21875 11.845974380622728L19.078125 11.927164262227517" stroke-width="0.03" stroke="#000000" fill="none"/>
<path d="M19.21875 11.845974380622728L19.21875 10.140986866922113L18.9375 9.97860710371253L18.9375 9.653847577293366L17.4609375 8.80135382044306L17.320312500000004 8.882543702047851" stroke-width="0.03" stroke="#000000" fill="none"/>
<path d="M17.671875 9.085518406059828L15.703125000000002 10.222176748526905" stroke-width="0.03" stroke="#000000" fill="none"/>
<path d="M15.773437500000002 10.262771689329298L17.671875 9.166708287664619L17.671875 9.085518406059828L14.578125 7.299341010754423L14.7890625 7.177556188347237" stroke-width="0.03" stroke="#000000" fill="none"/>
<path d="M14.015625 7.05577136594005L14.015625 6.974581484335259" stroke-width="0.03" stroke="#000000" fill="none"/>
<path d="M13.5234375 7.989455004395149L12.046875 7.136961247544841L11.1328125 7.664695477975984" stroke-width="0.03" stroke="#000000" fill="none"/>
<path d="M11.273437500000002 7.583505596371193L10.7109375 7.2587460699520285L10.78125 7.218151129149632L10.570312500000002 7.096366306742446L10.5 7.136961247544841L10.4296875 7.096366306742446L10.218750000000002 7.218151129149632L10.218750000000002 7.299341010754423" stroke-width="0.03" stroke="#000000" fill="none"/>
<path d="M10.2890625 7.2587460699520285L9.7265625 7.583505596371193" stroke-width="0.03" stroke="#000000" fill="none"/>
<path d="M9.5859375 7.502315714766402L10.5 6.974581484335259L11.4140625 7.502315714766402" stroke-width="0.03" stroke="#000000" fill="none"/>
<path d="M11.34375 7.948860063592752L11.1328125 8.07064488599994L11.1328125 8.151834767604731" stroke-width="0.03" stroke="#000000" fill="none"/>
<path d="M11.1328125 8.07064488599994L10.9921875 7.989455004395149" stroke-width="0.03" stroke="#000000" fill="none"/>
<path d="M11.0625 7.867670181987961L10.5 7.542910655568797" stroke-width="0.03" stroke="#000000" fill="none"/>
<path d="M10.5 7.380530892359214L9.867187500000002 7.745885359580775" stroke-width="0.03" stroke="#000000" fill="none"/>
<path d="M9.867187500000002 7.664695477975984L8.953125 7.136961247544841L7.4765625 7.989455004395149" stroke-width="0.03" stroke="#000000" fill="none"/>
<path d="M7.125 8.192429708407126L6.3515625 7.745885359580775L6.3515625 7.583505596371193L6.5625 7.4617207739640055L8.8125 8.760758879640663L8.8125 8.923138642850246L8.6015625 9.044923465257433L8.390625 8.923138642850246" stroke-width="0.03" stroke="#000000" fill="none"/>
<path d="M8.390625 8.841948761245455L5.0859375 10.749910978958045L4.734375 10.54693627494607" stroke-width="0.03" stroke="#000000" fill="none"/>
<path d="M5.0859375 10.749910978958045L5.0859375 10.912290742167627" stroke-width="0.03" stroke="#000000" fill="none"/>
<path d="M5.15625 11.358835090993981L6.140625 10.790505919760442" stroke-width="0.03" stroke="#000000" fill="none"/>
<path d="M6.140625 10.952885682970024L5.296875 11.44002497259877" stroke-width="0.03" stroke="#000000" fill="none"/>
<path d="M5.9296875 10.587531215748463L7.0546875 11.237050268586794L7.0546875 11.480619913401167" stroke-width="0.03" stroke="#000000" fill="none"/>
<path d="M7.0546875 11.237050268586794L7.828125 10.790505919760442" stroke-width="0.03" stroke="#000000" fill="none"/>
<path d="M7.828125 10.952885682970024L8.109375 11.115265446179606" stroke-width="0.03" stroke="#000000" fill="none"/>
<path d="M6.914062500000001 12.37370861105387L6.7734375 12.45489849265866" stroke-width="0.03" stroke="#000000" fill="none"/>
<path d="M5.296875 10.222176748526905L3.328125000000001 9.085518406059828L6.421875 7.299341010754423L6.210937500000001 7.177556188347237L6.210937500000001 7.421125833161611" stroke-width="0.03" stroke="#000000" fill="none"/>
<path d="M6.3515625 7.583505596371193L8.6015625 8.882543702047851L8.6015625 9.044923465257433" stroke-width="0.03" stroke="#000000" fill="none"/>
<path d="M8.6015625 8.882543702047851L8.8125 8.760758879640663" stroke-width="0.03" stroke="#000000" fill="none"/>
<path d="M8.7421875 8.720163938838269L8.7421875 8.638974057233478L8.4609375 8.476594294023895" stroke-width="0.03" stroke="#000000" fill="none"/>
<path d="M8.671875 8.679568998035872L8.7421875 8.638974057233478" stroke-width="0.03" stroke="#000000" fill="none"/>
<path d="M7.757812499999999 8.80135382044306L6.914062500000001 8.314214530814313" stroke-width="0.03" stroke="#000000" fill="none"/>
<path d="M8.1796875 7.2587460699520285L8.4609375 7.421125833161611" stroke-width="0.03" stroke="#000000" fill="none"/>
<path d="M9.1640625 7.2587460699520285L10.078125 6.731011839520885L9.09375 6.1626826682873475" stroke-width="0.03" stroke="#000000" fill="none"/>
<path d="M9.09375 6.8122017211256765L9.515625 7.05577136594005" stroke-width="0.03" stroke="#000000" fill="none"/>
<path d="M10.218750000000002 7.218151129149632L10.2890625 7.2587460699520285" stroke-width="0.03" stroke="#000000" fill="none"/>
<path d="M10.5 7.136961247544841L10.5 6.974581484335259" stroke-width="0.03" stroke="#000000" fill="none"/>
<path d="M10.78125 7.218151129149632L10.78125 7.299341010754423" stroke-width="0.03" stroke="#000000" fill="none"/>
<path d="M10.0078125 7.989455004395149L9.867187500000002 8.07064488599994L9.867187500000002 8.151834767604731L9.65625 8.030049945197543L9.65625 7.948860063592752L9.796875 7.867670181987961L10.0078125 7.989455004395149L10.0078125 8.07064488599994L9.867187500000002 8.151834767604731" stroke-width="0.03" stroke="#000000" fill="none"/>
<path d="M9.867187500000002 8.07064488599994L9.65625 7.948860063592752" stroke-width="0.03" stroke="#000000" fill="none"/>
<path d="M12.539062500000002 7.421125833161611L12.8203125 7.2587460699520285" stroke-width="0.03" stroke="#000000" fill="none"/>
<path d="M14.859375 10.790505919760442L15.070312500000002 10.668721097353256" stroke-width="0.03" stroke="#000000" fill="none"/>
<path d="M14.859375 10.952885682970024L15.703125000000002 11.44002497259877" stroke-width="0.03" stroke="#000000" fill="none"/>
<path d="M14.2265625 12.45489849265866L17.7421875 10.42515145253888L17.7421875 10.343961570934091L18.0234375 10.181581807724509L17.1796875 9.694442518095762L16.8984375 9.856822281305345L16.8984375 10.019202044514927L17.53125 10.384556511736488" stroke-width="0.03" stroke="#000000" fill="none"/>
<path d="M17.6015625 10.343961570934091L14.0859375 12.37370861105387L14.0859375 12.617278255868243L13.734375 12.414303551856264" stroke-width="0.03" stroke="#000000" fill="none"/>
<path d="M14.0859375 12.37370861105387L14.2265625 12.45489849265866L14.2265625 12.698468137473034L14.437500000000002 12.820252959880222L17.953125000000004 10.790505919760442L18.0234375 10.831100860562838L18.0234375 11.805379439820332L18.3046875 11.64299967661075L18.3046875 10.668721097353256L18.234375 10.62812615655086L18.375 10.54693627494607L18.375 10.709316038155652L18.3046875 10.749910978958045" stroke-width="0.03" stroke="#000000" fill="none"/>
<path d="M18.3046875 10.668721097353256L18.0234375 10.831100860562838" stroke-width="0.03" stroke="#000000" fill="none"/>
<path d="M17.953125000000004 10.790505919760442L17.953125000000004 10.952885682970024L14.437500000000002 12.982632723089804L14.2265625 12.860847900682616" stroke-width="0.03" stroke="#000000" fill="none"/>
<path d="M14.2265625 12.698468137473034L18.9375 9.97860710371253" stroke-width="0.03" stroke="#000000" fill="none"/>
<path d="M18.9375 9.653847577293366L18.09375 10.140986866922113" stroke-width="0.03" stroke="#000000" fill="none"/>
<path d="M18.0234375 10.100391926119716L17.953125000000004 10.140986866922113" stroke-width="0.03" stroke="#000000" fill="none"/>
<path d="M18.0234375 10.181581807724509L18.0234375 10.262771689329298L18.1640625 10.181581807724509L18.1640625 10.42515145253888L18.375 10.54693627494607" stroke-width="0.03" stroke="#000000" fill="none"/>
<path d="M18.375 10.62812615655086L19.21875 10.140986866922113" stroke-width="0.03" stroke="#000000" fill="none"/>
<path d="M18.1640625 10.181581807724509L18.0234375 10.100391926119716" stroke-width="0.03" stroke="#000000" fill="none"/>
<path d="M17.7421875 10.343961570934091L16.8984375 9.856822281305345" stroke-width="0.03" stroke="#000000" fill="none"/>
<path d="M17.6015625 10.343961570934091L17.7421875 10.42515145253888" stroke-width="0.03" stroke="#000000" fill="none"/>
<path d="M17.882812500000004 10.99348062377242L17.882812500000004 11.72418955821554L18.0234375 11.805379439820332" stroke-width="0.03" stroke="#000000" fill="none"/>
<path d="M14.437500000000002 12.820252959880222L14.437500000000002 12.982632723089804" stroke-width="0.03" stroke="#000000" fill="none"/>
<path d="M13.8046875 13.347987190311363L13.5234375 13.510366953520945L13.171875 13.307392249508968L13.171875 12.90144284148501L13.453125 12.739063078275429" stroke-width="0.03" stroke="#000000" fill="none"/>
<path d="M13.171875 12.90144284148501L12.8203125 12.698468137473034" stroke-width="0.03" stroke="#000000" fill="none"/>
<path d="M13.5234375 13.510366953520945L13.5234375 13.9163163615449" stroke-width="0.03" stroke="#000000" fill="none"/>
<path d="M5.2265625 10.262771689329298L3.328125000000001 9.166708287664619L3.328125000000001 9.085518406059828" stroke-width="0.03" stroke="#000000" fill="none"/>
<path d="M3.539062500000001 8.80135382044306L2.0625000000000004 9.653847577293366L2.0625000000000004 9.97860710371253" stroke-width="0.03" stroke="#000000" fill="none"/>
<path d="M2.0625000000000004 9.653847577293366L2.90625 10.140986866922113" stroke-width="0.03" stroke="#000000" fill="none"/>
<path d="M2.8359374999999996 10.181581807724509L2.976562500000001 10.100391926119716L3.046875 10.140986866922113" stroke-width="0.03" stroke="#000000" fill="none"/>
<path d="M2.976562500000001 10.181581807724509L2.976562500000001 10.262771689329298L2.8359374999999996 10.181581807724509L2.8359374999999996 10.42515145253888L2.624999999999999 10.54693627494607L2.624999999999999 10.709316038155652L2.695312500000001 10.749910978958045" stroke-width="0.03" stroke="#000000" fill="none"/>
<path d="M2.695312500000001 10.668721097353256L2.765625 10.62812615655086L2.624999999999999 10.54693627494607" stroke-width="0.03" stroke="#000000" fill="none"/>
<path d="M2.624999999999999 10.62812615655086L1.7812499999999996 10.140986866922113" stroke-width="0.03" stroke="#000000" fill="none"/>
<path d="M2.695312500000001 10.668721097353256L2.695312500000001 11.64299967661075L2.976562500000001 11.805379439820332L3.1171875 11.72418955821554L3.1171875 10.99348062377242" stroke-width="0.03" stroke="#000000" fill="none"/>
<path d="M2.976562500000001 10.831100860562838L3.046875 10.790505919760442" stroke-width="0.03" stroke="#000000" fill="none"/>
<path d="M2.976562500000001 10.831100860562838L2.976562500000001 11.805379439820332" stroke-width="0.03" stroke="#000000" fill="none"/>
<path d="M2.976562500000001 10.831100860562838L2.695312500000001 10.668721097353256" stroke-width="0.03" stroke="#000000" fill="none"/>
<path d="M1.9218750000000004 11.927164262227517L1.7812499999999996 11.845974380622728" stroke-width="0.03" stroke="#000000" fill="none"/>
<path d="M3.539062500000001 8.80135382044306L3.679687499999999 8.882543702047851" stroke-width="0.03" stroke="#000000" fill="none"/>
<path d="M3.797228400545776 2.9786238469347097L3.797228400545776 2.7109515319598065L3.9629303098159543 2.7109515319598065" stroke-width="0.03" stroke="#000000" fill="none"/>
<path d="M4.10313961765995 2.7109515319598065L4.064900715520679 2.7236978326728973L4.039408114094497 2.761936734812169L4.026661813381407 2.825668238377622L4.026661813381407 2.8639071405168943L4.039408114094497 2.927638644082347L4.064900715520679 2.965877546221619L4.10313961765995 2.9786238469347097L4.128632219086132 2.9786238469347097L4.1668711212254035 2.965877546221619L4.192363722651585 2.927638644082347L4.205110023364676 2.8639071405168943L4.205110023364676 2.825668238377622L4.192363722651585 2.761936734812169L4.1668711212254035 2.7236978326728973L4.128632219086132 2.7109515319598065L4.10313961765995 2.7109515319598065" stroke-width="0.03" stroke="#000000" fill="none"/>
<path d="M3.899198806250501 2.8384145390907127L3.797228400545776 2.8384145390907127" stroke-width="0.03" stroke="#000000" fill="none"/>
<path d="M3.797228400545776 2.9786238469347097L3.9629303098159543 2.9786238469347097" stroke-width="0.03" stroke="#000000" fill="none"/>
<path d="M4.29433412835631 2.9403849447954378L4.3070804290694005 2.965877546221619L4.345319331208673 2.9786238469347097L4.370811932634854 2.9786238469347097L4.409050834774126 2.965877546221619L4.434543436200307 2.927638644082347L4.4472897369133975 2.8639071405168943L4.4472897369133975 2.8001756369514412L4.434543436200307 2.7491904340990785L4.409050834774126 2.7236978326728973L4.370811932634854 2.7109515319598065L4.358065631921763 2.7109515319598065L4.319826729782491 2.7236978326728973L4.29433412835631 2.7491904340990785L4.28158782764322 2.7874293362383504L4.28158782764322 2.8001756369514412L4.29433412835631 2.8384145390907127L4.319826729782491 2.8639071405168943L4.358065631921763 2.8766534412299847L4.370811932634854 2.8766534412299847L4.409050834774126 2.8639071405168943L4.434543436200307 2.8384145390907127L4.4472897369133975 2.8001756369514412" stroke-width="0.03" stroke="#000000" fill="none"/>
<path d="M4.516121629722131 2.015598694615191L4.4336258385837 1.7268634256306838" stroke-width="0.03" stroke="#000000" fill="none"/>
<path d="M4.5986174208605615 1.7268634256306838L4.516121629722131 2.015598694615191" stroke-width="0.03" stroke="#000000" fill="none"/>
<path d="M4.681113211998992 2.015598694615191L4.5986174208605615 1.7268634256306838" stroke-width="0.03" stroke="#000000" fill="none"/>
<path d="M4.7636090031374225 1.7268634256306838L4.681113211998992 2.015598694615191" stroke-width="0.03" stroke="#000000" fill="none"/>
<path d="M4.928600585414284 2.015598694615191L4.928600585414284 1.664991582276861L4.949224533198891 1.6031197389230383L4.990472428768107 1.5824957911384305L5.031720324337321 1.5824957911384305" stroke-width="0.03" stroke="#000000" fill="none"/>
<path d="M5.155464011044968 1.5824957911384305L5.155464011044968 2.015598694615191" stroke-width="0.03" stroke="#000000" fill="none"/>
<path d="M5.011096376552715 1.7268634256306838L4.866728742060461 1.7268634256306838" stroke-width="0.03" stroke="#000000" fill="none"/>
<path d="M5.547319018952512 1.7268634256306838L5.547319018952512 2.015598694615191" stroke-width="0.03" stroke="#000000" fill="none"/>
<path d="M5.547319018952512 1.953726851261368L5.506071123383298 1.9949747468305832L5.464823227814082 2.015598694615191L5.402951384460259 2.015598694615191L5.3617034888910435 1.9949747468305832L5.320455593321829 1.953726851261368L5.299831645537221 1.891855007907545L5.299831645537221 1.8506071123383299L5.320455593321829 1.7887352689845069L5.3617034888910435 1.7474873734152916L5.402951384460259 1.7268634256306838L5.464823227814082 1.7268634256306838L5.506071123383298 1.7474873734152916L5.547319018952512 1.7887352689845069" stroke-width="0.03" stroke="#000000" fill="none"/>
<path d="M5.712310601229374 1.9331029034767604L5.91855007907545 1.7268634256306838" stroke-width="0.03" stroke="#000000" fill="none"/>
<path d="M5.794806392367804 1.8506071123383299L5.939174026860058 2.015598694615191" stroke-width="0.03" stroke="#000000" fill="none"/>
<path d="M6.042293765783096 1.8506071123383299L6.2897811391983875 1.8506071123383299L6.2897811391983875 1.8093592167691144L6.26915719141378 1.7681113211998993L6.248533243629172 1.7474873734152916L6.207285348059957 1.7268634256306838L6.145413504706134 1.7268634256306838L6.104165609136919 1.7474873734152916L6.062917713567703 1.7887352689845069L6.042293765783096 1.8506071123383299L6.042293765783096 1.891855007907545L6.062917713567703 1.953726851261368L6.104165609136919 1.9949747468305832L6.145413504706134 2.015598694615191L6.207285348059957 2.015598694615191L6.248533243629172 1.9949747468305832L6.2897811391983875 1.953726851261368" stroke-width="0.03" stroke="#000000" fill="none"/>
<path d="M6.578516408182894 2.015598694615191L6.578516408182894 1.5824957911384305L6.516644564829072 1.6443676344922533L6.475396669259856 1.664991582276861" stroke-width="0.03" stroke="#000000" fill="none"/>
<path d="M5.712310601229374 1.5824957911384305L5.712310601229374 2.015598694615191" stroke-width="0.03" stroke="#000000" fill="none"/>
<path d="M7.264131938244363 2.2599663291074443L1.5 2.2599663291074443" stroke-width="0.03" stroke="#000000" fill="none"/>
<path d="M2.0824957911384305 2.015598694615191L2.0824957911384305 1.7268634256306838" stroke-width="0.03" stroke="#000000" fill="none"/>
<path d="M2.061871843353823 1.5824957911384305L2.0824957911384305 1.6031197389230383L2.1031197389230383 1.5824957911384305L2.0824957911384305 1.5618718433538228L2.061871843353823 1.5824957911384305" stroke-width="0.03" stroke="#000000" fill="none"/>
<path d="M2.226863425630684 1.953726851261368L2.2474873734152916 1.9949747468305832L2.3093592167691144 2.015598694615191L2.3712310601229376 2.015598694615191L2.4331029034767604 1.9949747468305832L2.4537268512613677 1.953726851261368L2.4537268512613677 1.9331029034767604L2.4331029034767604 1.891855007907545L2.391855007907545 1.8712310601229374L2.2887352689845066 1.8506071123383299L2.2474873734152916 1.8299831645537221L2.226863425630684 1.7887352689845069L2.2474873734152916 1.7474873734152916L2.3093592167691144 1.7268634256306838L2.3712310601229376 1.7268634256306838L2.4331029034767604 1.7474873734152916L2.4537268512613677 1.7887352689845069" stroke-width="0.03" stroke="#000000" fill="none"/>
<path d="M2.680590276892052 1.7268634256306838L2.6393423813228365 1.7474873734152916L2.5980944857536215 1.7887352689845069L2.5774705379690137 1.8506071123383299L2.5774705379690137 1.891855007907545L2.5980944857536215 1.953726851261368L2.6393423813228365 1.9949747468305832L2.680590276892052 2.015598694615191L2.7424621202458748 2.015598694615191L2.78371001581509 1.9949747468305832L2.8249579113843053 1.953726851261368L2.845581859168913 1.891855007907545L2.845581859168913 1.8506071123383299L2.8249579113843053 1.7887352689845069L2.78371001581509 1.7474873734152916L2.7424621202458748 1.7268634256306838L2.680590276892052 1.7268634256306838" stroke-width="0.03" stroke="#000000" fill="none"/>
<path d="M2.907453702522736 2.056846590184406L3.237436867076458 2.056846590184406" stroke-width="0.03" stroke="#000000" fill="none"/>
<path d="M3.2993087104302807 1.953726851261368L3.3199326582148885 1.9949747468305832L3.3818045015687113 2.015598694615191L3.443676344922534 2.015598694615191L3.5055481882763573 1.9949747468305832L3.526172136060965 1.953726851261368L3.526172136060965 1.9331029034767604L3.5055481882763573 1.891855007907545L3.464300292707142 1.8712310601229374L3.361180553784104 1.8506071123383299L3.3199326582148885 1.8299831645537221L3.2993087104302807 1.7887352689845069L3.3199326582148885 1.7474873734152916L3.3818045015687113 1.7268634256306838L3.443676344922534 1.7268634256306838L3.5055481882763573 1.7474873734152916L3.526172136060965 1.7887352689845069" stroke-width="0.03" stroke="#000000" fill="none"/>
<path d="M3.6705397705532183 1.8093592167691144L3.732411613907041 1.7474873734152916L3.773659509476256 1.7268634256306838L3.8355313528300794 1.7268634256306838L3.8767792483992944 1.7474873734152916L3.897403196183902 1.8093592167691144L3.897403196183902 2.015598694615191" stroke-width="0.03" stroke="#000000" fill="none"/>
<path d="M3.6705397705532183 2.015598694615191L3.6705397705532183 1.7268634256306838" stroke-width="0.03" stroke="#000000" fill="none"/>
<path d="M4.144890569599194 1.7268634256306838L4.103642674029978 1.7474873734152916L4.062394778460764 1.7887352689845069L4.041770830676155 1.8506071123383299L4.041770830676155 1.891855007907545L4.062394778460764 1.953726851261368L4.103642674029978 1.9949747468305832L4.144890569599194 2.015598694615191L4.206762412953017 2.015598694615191L4.2480103085222325 1.9949747468305832L4.289258204091447 1.953726851261368L4.309882151876055 1.891855007907545L4.309882151876055 1.8506071123383299L4.289258204091447 1.7887352689845069L4.2480103085222325 1.7474873734152916L4.206762412953017 1.7268634256306838L4.144890569599194 1.7268634256306838" stroke-width="0.03" stroke="#000000" fill="none"/>
<path d="M3.5550486869970546 2.7109515319598065L3.695257994841051 2.7109515319598065L3.6187801905625077 2.8129219376645316L3.6570190927017796 2.8129219376645316L3.6825116941279608 2.825668238377622L3.695257994841051 2.8384145390907127L3.708004295554142 2.8766534412299847L3.708004295554142 2.902146042656166L3.695257994841051 2.9403849447954378L3.66976539341487 2.965877546221619L3.631526491275598 2.9786238469347097L3.5932875891363265 2.9786238469347097L3.5550486869970546 2.965877546221619L3.542302386283964 2.953131245508528L3.5295560855708734 2.927638644082347" stroke-width="0.03" stroke="#000000" fill="none"/>
<path d="M3.440331980579239 2.8001756369514412L3.4275856798661484 2.8384145390907127L3.402093078439967 2.8639071405168943L3.3638541763006957 2.8766534412299847L3.351107875587605 2.8766534412299847L3.312868973448333 2.8639071405168943L3.287376372022152 2.8384145390907127L3.274630071309061 2.8001756369514412L3.274630071309061 2.7874293362383504L3.287376372022152 2.7491904340990785L3.312868973448333 2.7236978326728973L3.351107875587605 2.7109515319598065L3.3638541763006957 2.7109515319598065L3.402093078439967 2.7236978326728973L3.4275856798661484 2.7491904340990785L3.440331980579239 2.8001756369514412L3.440331980579239 2.8639071405168943L3.4275856798661484 2.927638644082347L3.402093078439967 2.965877546221619L3.3638541763006957 2.9786238469347097L3.338361574874514 2.9786238469347097L3.3001226727352426 2.965877546221619L3.287376372022152 2.9403849447954378" stroke-width="0.03" stroke="#000000" fill="none"/>
<path d="M3.1216744627519737 2.9786238469347097L3.1216744627519737 2.7109515319598065L3.0834355606127017 2.7491904340990785L3.057942959186521 2.761936734812169" stroke-width="0.03" stroke="#000000" fill="none"/>
<path d="M2.790270644211618 2.7109515319598065L2.930479952055615 2.7109515319598065L2.854002147777071 2.8129219376645316L2.892241049916343 2.8129219376645316L2.917733651342524 2.825668238377622L2.930479952055615 2.8384145390907127L2.943226252768705 2.8766534412299847L2.943226252768705 2.902146042656166L2.930479952055615 2.9403849447954378L2.9049873506294333 2.965877546221619L2.8667484484901617 2.9786238469347097L2.82850954635089 2.9786238469347097L2.790270644211618 2.965877546221619L2.777524343498527 2.953131245508528L2.7647780427854367 2.927638644082347" stroke-width="0.03" stroke="#000000" fill="none"/>
<path d="M2.6883002385068933 2.9786238469347097L2.5098520285236243 2.9786238469347097L2.6373150356545305 2.8511608398038035L2.6628076370807117 2.8129219376645316L2.6755539377938025 2.7874293362383504L2.6755539377938025 2.761936734812169L2.6628076370807117 2.736444133385988L2.6500613363676213 2.7236978326728973L2.62456873494144 2.7109515319598065L2.5735835320890774 2.7109515319598065L2.5480909306628963 2.7236978326728973L2.5353446299498055 2.736444133385988L2.522598329236715 2.761936734812169L2.522598329236715 2.7746830355252596" stroke-width="0.03" stroke="#000000" fill="none"/>
<path d="M2.433374224245081 2.8001756369514412L2.293164916401084 2.9786238469347097" stroke-width="0.03" stroke="#000000" fill="none"/>
<path d="M2.433374224245081 2.9786238469347097L2.293164916401084 2.8001756369514412" stroke-width="0.03" stroke="#000000" fill="none"/>
<path d="M2.1147167064178154 2.7109515319598065L2.076477804278544 2.7236978326728973L2.0509852028523623 2.761936734812169L2.038238902139272 2.825668238377622L2.038238902139272 2.8639071405168943L2.0509852028523623 2.927638644082347L2.076477804278544 2.965877546221619L2.1147167064178154 2.9786238469347097L2.140209307843997 2.9786238469347097L2.1784482099832685 2.965877546221619L2.2039408114094496 2.927638644082347L2.2166871121225404 2.8639071405168943L2.2166871121225404 2.825668238377622L2.2039408114094496 2.761936734812169L2.1784482099832685 2.7236978326728973L2.140209307843997 2.7109515319598065L2.1147167064178154 2.7109515319598065" stroke-width="0.03" stroke="#000000" fill="none"/>
</svg>
