<?xml version="1.0" standalone="no"?>
<svg width="21cm" height="29.7cm" version="1.1" xmlns="http://www.w3.org/2000/svg" viewBox="0.0 0.0 21.000001 29.700001">
<path d="M5.7890625 7.989455004395149L6.140625 7.78648030038317L9.234375 9.572657695688576L9.234375 10.222176748526905L8.953125 10.384556511736488L8.953125 12.170733907041893L8.8828125 12.211328847844287L8.7421875 12.130138966239496L8.7421875 10.587531215748463L7.757812499999999 10.019202044514927L6 11.034075564574817L6 12.251923788646682L4.9453125 12.860847900682616L4.9453125 14.890594940802394L5.9296875 15.458924112035932L7.265625000000001 14.687620236790417L7.40625 14.768810118395209L7.40625 14.85L5.859375000000001 15.7430886976527L5.859375000000001 16.067848224071867L5.296875 16.39260775049103L2.203125 14.606430355185626L2.203125 14.200480947161669L3.609375 13.388582131113758" stroke-width="0.03" stroke="#000000" fill="none"/>
<path d="M3.46875 13.307392249508968L3.46875 13.145012486299386L5.5078125 11.967759203029914L5.5078125 9.613252636490971L5.6484375 9.53206275488618L6.28125 9.897417222107741L6.28125 10.871695801365235" stroke-width="0.03" stroke="#000000" fill="none"/>
<path d="M6.140625 10.952885682970024L6.140625 9.97860710371253L5.5078125 9.613252636490971" stroke-width="0.03" stroke="#000000" fill="none"/>
<path d="M5.7890625 9.613252636490971L5.7890625 7.989455004395149L8.8828125 9.775632399700552L9.234375 9.572657695688576" stroke-width="0.03" stroke="#000000" fill="none"/>
<path d="M8.8828125 9.775632399700552L8.8828125 12.211328847844287" stroke-width="0.03" stroke="#000000" fill="none"/>
<path d="M8.8125 12.170733907041893L8.8125 12.333113670251475L7.4765625 13.10441754549699L7.4765625 14.647025295988021L7.3359375 14.728215177592812" stroke-width="0.03" stroke="#000000" fill="none"/>
<path d="M7.40625 14.768810118395209L5.296875 15.986658342467075L5.296875 16.39260775049103" stroke-width="0.03" stroke="#000000" fill="none"/>
<path d="M5.296875 15.986658342467075L2.203125 14.200480947161669" stroke-width="0.03" stroke="#000000" fill="none"/>
<path d="M3.1874999999999996 15.174759526419164L3.1874999999999996 17.204506566538942L4.8046875 18.13819020499404L4.8046875 20.005557481904233L6.5625 21.020431001964123" stroke-width="0.03" stroke="#000000" fill="none"/>
<path d="M6.5625 22.157089344431203L6.5625 18.58473455382039L7.125 18.259975027401225L7.40625 18.422354790610807L8.953125 17.529266092958107L9.0234375 17.569861033760503L9.0234375 17.732240796970082L7.6875 18.5035446722156L7.6875 19.640203014682676L9.4453125 20.655076534742566L10.5 20.04615242270663L11.5546875 20.655076534742566L13.3125 19.640203014682676L13.3125 18.5035446722156L11.976562500000002 17.732240796970082L11.976562500000002 17.569861033760503L12.046875 17.529266092958107L13.593750000000002 18.422354790610807L13.875 18.259975027401225L14.437500000000002 18.58473455382039L14.437500000000002 22.157089344431203L14.0859375 22.360064048443178L12.679687500000002 21.548165232395267" stroke-width="0.03" stroke="#000000" fill="none"/>
<path d="M12.679687500000002 21.71054499560485L12.539062500000002 21.79173487720964L10.5 20.61448159394017L10.5 18.909494080239554L9.4453125 19.51841819227549L9.4453125 20.655076534742566" stroke-width="0.03" stroke="#000000" fill="none"/>
<path d="M9.3046875 20.573886653137773L8.4609375 21.06102594276652L8.3203125 20.97983606116173L8.3203125 21.71054499560485L8.4609375 21.79173487720964L10.5 20.61448159394017" stroke-width="0.03" stroke="#000000" fill="none"/>
<path d="M11.5546875 20.655076534742566L11.5546875 19.51841819227549L10.5 18.909494080239554" stroke-width="0.03" stroke="#000000" fill="none"/>
<path d="M10.5 18.341164909006018L11.835937500000002 17.569861033760503L11.976562500000002 17.651050915365293" stroke-width="0.03" stroke="#000000" fill="none"/>
<path d="M11.976562500000002 17.569861033760503L14.0859375 18.78770925783237L14.437500000000002 18.58473455382039" stroke-width="0.03" stroke="#000000" fill="none"/>
<path d="M14.0859375 18.78770925783237L14.0859375 22.360064048443178" stroke-width="0.03" stroke="#000000" fill="none"/>
<path d="M14.437500000000002 21.020431001964123L16.1953125 20.005557481904233L16.1953125 18.13819020499404L17.8125 17.204506566538942L17.8125 15.174759526419164" stroke-width="0.03" stroke="#000000" fill="none"/>
<path d="M18.796875 14.606430355185626L15.703125000000002 16.39260775049103L15.140625 16.067848224071867L15.140625 15.7430886976527L13.593750000000002 14.85L13.593750000000002 14.768810118395209L13.734375 14.687620236790417L15.070312500000002 15.458924112035932L16.0546875 14.890594940802394L16.0546875 12.860847900682616L15.000000000000002 12.251923788646682L15.000000000000002 11.034075564574817L13.242187500000002 10.019202044514927L12.2578125 10.587531215748463L12.2578125 12.130138966239496L12.1171875 12.211328847844287L12.046875 12.170733907041893L12.046875 10.384556511736488L11.765625 10.222176748526905L11.765625 9.572657695688576L14.859375 7.78648030038317L15.2109375 7.989455004395149L15.2109375 9.613252636490971" stroke-width="0.03" stroke="#000000" fill="none"/>
<path d="M15.351562500000002 9.53206275488618L14.718749999999998 9.897417222107741L14.718749999999998 10.871695801365235" stroke-width="0.03" stroke="#000000" fill="none"/>
<path d="M14.578125 10.790505919760442L14.718749999999998 10.709316038155652" stroke-width="0.03" stroke="#000000" fill="none"/>
<path d="M14.859375 10.952885682970024L14.859375 9.97860710371253L15.4921875 9.613252636490971L15.351562500000002 9.53206275488618" stroke-width="0.03" stroke="#000000" fill="none"/>
<path d="M15.4921875 9.613252636490971L15.4921875 11.967759203029914L14.015625 12.820252959880222L14.015625 11.602404735808353L12.2578125 10.587531215748463" stroke-width="0.03" stroke="#000000" fill="none"/>
<path d="M12.046875 10.384556511736488L10.8515625 11.074670505377211L10.5 10.871695801365235L10.1484375 11.074670505377211L8.953125 10.384556511736488" stroke-width="0.03" stroke="#000000" fill="none"/>
<path d="M8.7421875 10.587531215748463L6.984375 11.602404735808353L6 11.034075564574817" stroke-width="0.03" stroke="#000000" fill="none"/>
<path d="M6.28125 10.709316038155652L6.421875 10.790505919760442" stroke-width="0.03" stroke="#000000" fill="none"/>
<path d="M6.140625 9.97860710371253L6.28125 9.897417222107741" stroke-width="0.03" stroke="#000000" fill="none"/>
<path d="M7.125 8.354809471616708L8.8828125 7.33993595155682L10.5 8.273619590011917L12.1171875 7.33993595155682L13.875 8.354809471616708" stroke-width="0.03" stroke="#000000" fill="none"/>
<path d="M13.5234375 7.177556188347237L12.679687500000002 7.664695477975984" stroke-width="0.03" stroke="#000000" fill="none"/>
<path d="M12.609375 7.624100537173588L13.5234375 7.096366306742446L13.382812500000002 7.015176425137655L12.46875 7.542910655568797" stroke-width="0.03" stroke="#000000" fill="none"/>
<path d="M11.625000000000002 7.624100537173588L11.484375000000002 7.542910655568797L10.921875000000002 7.867670181987961L10.921875000000002 8.030049945197543" stroke-width="0.03" stroke="#000000" fill="none"/>
<path d="M11.0625 7.948860063592752L10.921875000000002 7.867670181987961" stroke-width="0.03" stroke="#000000" fill="none"/>
<path d="M10.078125 7.867670181987961L9.9375 7.948860063592752" stroke-width="0.03" stroke="#000000" fill="none"/>
<path d="M10.078125 7.867670181987961L10.078125 8.030049945197543" stroke-width="0.03" stroke="#000000" fill="none"/>
<path d="M10.078125 7.867670181987961L9.515625 7.542910655568797L9.375 7.624100537173588" stroke-width="0.03" stroke="#000000" fill="none"/>
<path d="M8.53125 7.542910655568797L7.6171875 7.015176425137655L7.4765625 7.096366306742446L7.4765625 7.177556188347237L8.3203125 7.664695477975984" stroke-width="0.03" stroke="#000000" fill="none"/>
<path d="M8.390625 7.624100537173588L7.4765625 7.096366306742446" stroke-width="0.03" stroke="#000000" fill="none"/>
<path d="M6.984375 11.602404735808353L6.984375 12.820252959880222L5.9296875 13.429177071916154L4.9453125 12.860847900682616" stroke-width="0.03" stroke="#000000" fill="none"/>
<path d="M4.9453125 13.023227663892198L4.1015625 13.510366953520945L3.46875 13.145012486299386" stroke-width="0.03" stroke="#000000" fill="none"/>
<path d="M3.46875 13.307392249508968L4.1015625 13.672746716730527L4.9453125 13.18560742710178" stroke-width="0.03" stroke="#000000" fill="none"/>
<path d="M4.8046875 13.266797308706572L4.9453125 13.347987190311363" stroke-width="0.03" stroke="#000000" fill="none"/>
<path d="M4.1015625 13.510366953520945L4.1015625 13.672746716730527" stroke-width="0.03" stroke="#000000" fill="none"/>
<path d="M5.9296875 13.429177071916154L5.9296875 15.458924112035932" stroke-width="0.03" stroke="#000000" fill="none"/>
<path d="M5.859375000000001 15.7430886976527L7.0546875 16.433202691293424L8.4609375 15.621303875245514" stroke-width="0.03" stroke="#000000" fill="none"/>
<path d="M8.671875 15.499519052838329L9.3046875 15.134164585616768L9.4453125 15.215354467221559L9.4453125 15.458924112035932L9.65625 15.580708934443118L9.65625 15.7430886976527L9.0234375 16.10844316487426L8.8125 15.986658342467075L8.8125 16.636177395305403L9.0234375 16.75796221771259L9.0234375 16.10844316487426" stroke-width="0.03" stroke="#000000" fill="none"/>
<path d="M9.0234375 15.864873520059888L8.8828125 15.783683638455097L8.8828125 15.621303875245514" stroke-width="0.03" stroke="#000000" fill="none"/>
<path d="M8.671875 15.7430886976527L9.234375 15.418329171233536L9.234375 15.174759526419164L8.671875 14.85" stroke-width="0.03" stroke="#000000" fill="none"/>
<path d="M8.4609375 14.647025295988021L7.757812499999999 14.241075887964065" stroke-width="0.03" stroke="#000000" fill="none"/>
<path d="M7.4765625 14.403455651173648L8.0390625 14.078696124754483L8.0390625 14.403455651173648" stroke-width="0.03" stroke="#000000" fill="none"/>
<path d="M8.390625 14.606430355185626L8.6015625 14.484645532778439L8.6015625 13.753936598335319L9.234375 13.388582131113758L9.234375 13.145012486299386" stroke-width="0.03" stroke="#000000" fill="none"/>
<path d="M9.3046875 13.18560742710178L8.6015625 12.779658019077825" stroke-width="0.03" stroke="#000000" fill="none"/>
<path d="M8.6015625 13.10441754549699L8.8828125 12.942037782287407" stroke-width="0.03" stroke="#000000" fill="none"/>
<path d="M8.6015625 13.10441754549699L8.6015625 12.45489849265866" stroke-width="0.03" stroke="#000000" fill="none"/>
<path d="M8.7421875 12.37370861105387L9.3046875 12.698468137473034" stroke-width="0.03" stroke="#000000" fill="none"/>
<path d="M9.5859375 12.617278255868243L9.796875 12.495493433461057L10.359375 12.820252959880222L10.359375 13.46977201271855L10.1484375 13.591556835125736L9.5859375 13.266797308706572" stroke-width="0.03" stroke="#000000" fill="none"/>
<path d="M9.3046875 13.510366953520945L9.1640625 13.591556835125736L9.1640625 14.078696124754483L8.7421875 14.322265769568856L8.7421875 14.484645532778439" stroke-width="0.03" stroke="#000000" fill="none"/>
<path d="M8.7421875 14.322265769568856L8.8828125 14.403455651173648" stroke-width="0.03" stroke="#000000" fill="none"/>
<path d="M9.3046875 14.159886006359274L7.125 15.418329171233536L7.125 15.499519052838329L7.40625 15.661898816047911L8.109375 15.255949408023953" stroke-width="0.03" stroke="#000000" fill="none"/>
<path d="M8.109375 15.174759526419164L8.109375 15.418329171233536L8.671875 15.7430886976527L8.671875 15.499519052838329L8.109375 15.174759526419164" stroke-width="0.03" stroke="#000000" fill="none"/>
<path d="M8.0390625 14.890594940802394L7.4765625 14.56583541438323" stroke-width="0.03" stroke="#000000" fill="none"/>
<path d="M7.4765625 13.753936598335319L8.0390625 13.429177071916154L8.0390625 12.779658019077825" stroke-width="0.03" stroke="#000000" fill="none"/>
<path d="M7.4765625 13.10441754549699L8.0390625 13.429177071916154" stroke-width="0.03" stroke="#000000" fill="none"/>
<path d="M8.6015625 13.753936598335319L9.5859375 14.322265769568856L9.5859375 11.805379439820332L9.65625 11.764784499017935L9.375 11.602404735808353L9.3046875 11.64299967661075L9.3046875 14.159886006359274" stroke-width="0.03" stroke="#000000" fill="none"/>
<path d="M9.5859375 14.322265769568856L7.40625 15.580708934443118L7.125 15.418329171233536" stroke-width="0.03" stroke="#000000" fill="none"/>
<path d="M7.40625 15.580708934443118L7.40625 15.661898816047911" stroke-width="0.03" stroke="#000000" fill="none"/>
<path d="M7.0546875 16.433202691293424L7.0546875 16.83915209931738L7.40625 17.04212680332936L7.40625 18.422354790610807" stroke-width="0.03" stroke="#000000" fill="none"/>
<path d="M7.6875 18.5035446722156L9.4453125 19.51841819227549" stroke-width="0.03" stroke="#000000" fill="none"/>
<path d="M9.0234375 20.41150688992819L9.0234375 20.573886653137773" stroke-width="0.03" stroke="#000000" fill="none"/>
<path d="M9.1640625 20.492696771532984L8.3203125 20.97983606116173" stroke-width="0.03" stroke="#000000" fill="none"/>
<path d="M8.4609375 21.06102594276652L8.4609375 21.79173487720964" stroke-width="0.03" stroke="#000000" fill="none"/>
<path d="M8.3203125 21.548165232395267L6.914062500000001 22.360064048443178L6.5625 22.157089344431203" stroke-width="0.03" stroke="#000000" fill="none"/>
<path d="M6.914062500000001 22.360064048443178L6.914062500000001 18.78770925783237L6.5625 18.58473455382039" stroke-width="0.03" stroke="#000000" fill="none"/>
<path d="M6.914062500000001 18.78770925783237L9.0234375 17.569861033760503" stroke-width="0.03" stroke="#000000" fill="none"/>
<path d="M9.0234375 17.651050915365293L9.1640625 17.569861033760503L10.5 18.341164909006018L10.5 17.69164585616769L9.9375 18.016405382586854" stroke-width="0.03" stroke="#000000" fill="none"/>
<path d="M9.65625 17.529266092958107L9.65625 16.717367276910196" stroke-width="0.03" stroke="#000000" fill="none"/>
<path d="M9.65625 16.79855715851499L9.867187500000002 16.6767723361078L10.5 17.04212680332936L11.1328125 16.6767723361078L11.34375 16.79855715851499" stroke-width="0.03" stroke="#000000" fill="none"/>
<path d="M11.34375 16.717367276910196L11.34375 17.529266092958107" stroke-width="0.03" stroke="#000000" fill="none"/>
<path d="M11.0625 17.366886329748525L11.34375 17.204506566538942" stroke-width="0.03" stroke="#000000" fill="none"/>
<path d="M11.0625 17.366886329748525L11.625000000000002 17.69164585616769" stroke-width="0.03" stroke="#000000" fill="none"/>
<path d="M11.765625 17.610455974562896L11.765625 16.960936921724567" stroke-width="0.03" stroke="#000000" fill="none"/>
<path d="M11.976562500000002 16.75796221771259L12.187500000000002 16.636177395305403L12.187500000000002 15.986658342467075L11.625000000000002 15.661898816047911L11.4140625 15.783683638455097L11.4140625 16.433202691293424" stroke-width="0.03" stroke="#000000" fill="none"/>
<path d="M11.0625 16.55498751370061L10.921875000000002 16.636177395305403L10.5 16.39260775049103L10.078125 16.636177395305403L9.9375 16.55498751370061" stroke-width="0.03" stroke="#000000" fill="none"/>
<path d="M10.078125 16.473797632095824L10.078125 16.636177395305403" stroke-width="0.03" stroke="#000000" fill="none"/>
<path d="M9.5859375 16.433202691293424L9.5859375 15.783683638455097L9.375 15.661898816047911L8.8125 15.986658342467075" stroke-width="0.03" stroke="#000000" fill="none"/>
<path d="M8.8125 16.230227987281445L7.40625 17.04212680332936" stroke-width="0.03" stroke="#000000" fill="none"/>
<path d="M7.0546875 16.83915209931738L10.5 14.85L13.945312500000002 16.83915209931738L13.593750000000002 17.04212680332936L13.593750000000002 18.422354790610807" stroke-width="0.03" stroke="#000000" fill="none"/>
<path d="M13.3125 18.5035446722156L11.5546875 19.51841819227549" stroke-width="0.03" stroke="#000000" fill="none"/>
<path d="M11.976562500000002 20.41150688992819L11.976562500000002 20.573886653137773" stroke-width="0.03" stroke="#000000" fill="none"/>
<path d="M11.835937500000002 20.492696771532984L12.679687500000002 20.97983606116173L12.679687500000002 21.71054499560485" stroke-width="0.03" stroke="#000000" fill="none"/>
<path d="M12.539062500000002 21.79173487720964L12.539062500000002 21.06102594276652L11.6953125 20.573886653137773" stroke-width="0.03" stroke="#000000" fill="none"/>
<path d="M12.539062500000002 21.06102594276652L12.679687500000002 20.97983606116173" stroke-width="0.03" stroke="#000000" fill="none"/>
<path d="M15.6328125 21.304595587580895L15.6328125 20.330317008323398" stroke-width="0.03" stroke="#000000" fill="none"/>
<path d="M15.703125000000002 20.289722067521005L15.703125000000002 21.345190528383288L15.6328125 21.304595587580895" stroke-width="0.03" stroke="#000000" fill="none"/>
<path d="M15.703125000000002 21.345190528383288L15.843750000000002 21.2640006467785L15.843750000000002 20.208532185916212" stroke-width="0.03" stroke="#000000" fill="none"/>
<path d="M16.1953125 19.437228310670697L16.3359375 19.356038429065904L16.3359375 18.706519376227575L16.1953125 18.625329494622786" stroke-width="0.03" stroke="#000000" fill="none"/>
<path d="M16.3359375 18.706519376227575L16.1953125 18.78770925783237" stroke-width="0.03" stroke="#000000" fill="none"/>
<path d="M16.617187500000004 17.894620560179668L16.7578125 17.975810441784457L17.320312500000004 17.651050915365293L17.320312500000004 17.48867115215571" stroke-width="0.03" stroke="#000000" fill="none"/>
<path d="M16.7578125 17.813430678574875L16.7578125 17.975810441784457" stroke-width="0.03" stroke="#000000" fill="none"/>
<path d="M17.8125 16.79855715851499L18.7265625 16.270822928083845L18.7265625 16.10844316487426L18.656250000000004 16.067848224071867L17.8125 16.55498751370061" stroke-width="0.03" stroke="#000000" fill="none"/>
<path d="M17.8125 16.636177395305403L18.7265625 16.10844316487426" stroke-width="0.03" stroke="#000000" fill="none"/>
<path d="M18.796875 14.606430355185626L18.796875 14.200480947161669L17.390625 13.388582131113758" stroke-width="0.03" stroke="#000000" fill="none"/>
<path d="M17.53125 13.307392249508968L16.8984375 13.672746716730527L16.0546875 13.18560742710178" stroke-width="0.03" stroke="#000000" fill="none"/>
<path d="M16.0546875 13.347987190311363L16.1953125 13.266797308706572" stroke-width="0.03" stroke="#000000" fill="none"/>
<path d="M16.0546875 13.023227663892198L16.8984375 13.510366953520945L17.53125 13.145012486299386L17.53125 13.307392249508968" stroke-width="0.03" stroke="#000000" fill="none"/>
<path d="M17.53125 13.145012486299386L15.4921875 11.967759203029914" stroke-width="0.03" stroke="#000000" fill="none"/>
<path d="M15.000000000000002 11.034075564574817L14.015625 11.602404735808353" stroke-width="0.03" stroke="#000000" fill="none"/>
<path d="M14.015625 12.820252959880222L15.070312500000002 13.429177071916154L16.0546875 12.860847900682616" stroke-width="0.03" stroke="#000000" fill="none"/>
<path d="M16.8984375 13.510366953520945L16.8984375 13.672746716730527" stroke-width="0.03" stroke="#000000" fill="none"/>
<path d="M15.070312500000002 13.429177071916154L15.070312500000002 15.458924112035932" stroke-width="0.03" stroke="#000000" fill="none"/>
<path d="M15.140625 15.7430886976527L13.945312500000002 16.433202691293424L12.539062500000002 15.621303875245514" stroke-width="0.03" stroke="#000000" fill="none"/>
<path d="M12.328125000000002 15.499519052838329L12.890625000000002 15.174759526419164L12.890625000000002 15.418329171233536L12.328125000000002 15.7430886976527L11.765625 15.418329171233536L11.765625 15.174759526419164L12.328125000000002 14.85" stroke-width="0.03" stroke="#000000" fill="none"/>
<path d="M12.539062500000002 14.647025295988021L13.242187500000002 14.241075887964065" stroke-width="0.03" stroke="#000000" fill="none"/>
<path d="M13.5234375 14.403455651173648L12.9609375 14.078696124754483L12.9609375 14.403455651173648" stroke-width="0.03" stroke="#000000" fill="none"/>
<path d="M12.609375 14.606430355185626L12.3984375 14.484645532778439L12.3984375 13.753936598335319L11.765625 13.388582131113758L11.765625 13.145012486299386" stroke-width="0.03" stroke="#000000" fill="none"/>
<path d="M11.6953125 13.18560742710178L12.3984375 12.779658019077825" stroke-width="0.03" stroke="#000000" fill="none"/>
<path d="M12.3984375 12.45489849265866L12.3984375 13.10441754549699L12.1171875 12.942037782287407" stroke-width="0.03" stroke="#000000" fill="none"/>
<path d="M11.6953125 12.698468137473034L12.2578125 12.37370861105387" stroke-width="0.03" stroke="#000000" fill="none"/>
<path d="M12.187500000000002 12.333113670251475L12.187500000000002 12.170733907041893" stroke-width="0.03" stroke="#000000" fill="none"/>
<path d="M12.1171875 12.211328847844287L12.1171875 9.775632399700552L15.2109375 7.989455004395149" stroke-width="0.03" stroke="#000000" fill="none"/>
<path d="M13.5234375 7.177556188347237L13.5234375 7.096366306742446" stroke-width="0.03" stroke="#000000" fill="none"/>
<path d="M12.1171875 9.775632399700552L11.765625 9.572657695688576" stroke-width="0.03" stroke="#000000" fill="none"/>
<path d="M10.8515625 11.074670505377211L10.8515625 12.698468137473034" stroke-width="0.03" stroke="#000000" fill="none"/>
<path d="M10.8515625 12.942037782287407L11.4140625 12.617278255868243L11.203125 12.495493433461057L10.640625 12.820252959880222L10.640625 13.46977201271855L10.8515625 13.591556835125736L11.4140625 13.266797308706572" stroke-width="0.03" stroke="#000000" fill="none"/>
<path d="M11.6953125 13.510366953520945L11.835937500000002 13.591556835125736L11.835937500000002 14.078696124754483L12.2578125 14.322265769568856L12.2578125 14.484645532778439" stroke-width="0.03" stroke="#000000" fill="none"/>
<path d="M12.1171875 14.403455651173648L12.2578125 14.322265769568856" stroke-width="0.03" stroke="#000000" fill="none"/>
<path d="M12.3984375 13.753936598335319L11.4140625 14.322265769568856L11.4140625 11.805379439820332L11.34375 11.764784499017935L11.625000000000002 11.602404735808353L11.6953125 11.64299967661075L11.6953125 14.159886006359274L13.875 15.418329171233536L13.875 15.499519052838329L13.593750000000002 15.661898816047911L12.890625000000002 15.255949408023953" stroke-width="0.03" stroke="#000000" fill="none"/>
<path d="M12.9609375 14.890594940802394L13.5234375 14.56583541438323" stroke-width="0.03" stroke="#000000" fill="none"/>
<path d="M13.5234375 14.647025295988021L13.5234375 13.10441754549699L12.187500000000002 12.333113670251475" stroke-width="0.03" stroke="#000000" fill="none"/>
<path d="M11.6953125 11.64299967661075L11.4140625 11.805379439820332" stroke-width="0.03" stroke="#000000" fill="none"/>
<path d="M11.34375 11.764784499017935L11.34375 12.576683315065846" stroke-width="0.03" stroke="#000000" fill="none"/>
<path d="M10.8515625 12.942037782287407L10.8515625 13.672746716730527L10.7109375 13.753936598335319L10.5 13.632151775928133L10.2890625 13.753936598335319L10.1484375 13.672746716730527L10.1484375 12.942037782287407L9.5859375 12.617278255868243" stroke-width="0.03" stroke="#000000" fill="none"/>
<path d="M9.65625 12.576683315065846L9.65625 11.764784499017935" stroke-width="0.03" stroke="#000000" fill="none"/>
<path d="M9.5859375 11.805379439820332L9.3046875 11.64299967661075" stroke-width="0.03" stroke="#000000" fill="none"/>
<path d="M10.1484375 11.074670505377211L10.1484375 12.698468137473034" stroke-width="0.03" stroke="#000000" fill="none"/>
<path d="M10.1484375 12.942037782287407L10.359375 12.820252959880222" stroke-width="0.03" stroke="#000000" fill="none"/>
<path d="M10.5 12.982632723089804L10.359375 13.063822604694593" stroke-width="0.03" stroke="#000000" fill="none"/>
<path d="M10.5 12.982632723089804L10.640625 13.063822604694593" stroke-width="0.03" stroke="#000000" fill="none"/>
<path d="M10.640625 12.820252959880222L10.8515625 12.942037782287407" stroke-width="0.03" stroke="#000000" fill="none"/>
<path d="M10.7109375 13.510366953520945L10.7109375 13.753936598335319" stroke-width="0.03" stroke="#000000" fill="none"/>
<path d="M10.2890625 13.753936598335319L10.2890625 13.510366953520945" stroke-width="0.03" stroke="#000000" fill="none"/>
<path d="M9.3046875 13.672746716730527L9.1640625 13.591556835125736" stroke-width="0.03" stroke="#000000" fill="none"/>
<path d="M9.4453125 15.215354467221559L9.234375 15.337139289628746" stroke-width="0.03" stroke="#000000" fill="none"/>
<path d="M9.4453125 15.702493756850306L9.65625 15.580708934443118" stroke-width="0.03" stroke="#000000" fill="none"/>
<path d="M10.5 15.905468460862282L8.3203125 17.163911625736546L8.25 17.123316684934153L8.25 17.448076211353314L8.3203125 17.48867115215571L10.5 16.230227987281445L12.679687500000002 17.48867115215571L12.75 17.448076211353314L12.75 17.123316684934153L12.046875 16.717367276910196" stroke-width="0.03" stroke="#000000" fill="none"/>
<path d="M11.976562500000002 16.75796221771259L11.976562500000002 16.10844316487426L11.34375 15.7430886976527L11.34375 15.580708934443118L11.5546875 15.458924112035932L11.5546875 15.215354467221559L11.6953125 15.134164585616768L12.328125000000002 15.499519052838329L12.328125000000002 15.7430886976527" stroke-width="0.03" stroke="#000000" fill="none"/>
<path d="M12.1171875 15.783683638455097L11.976562500000002 15.864873520059888" stroke-width="0.03" stroke="#000000" fill="none"/>
<path d="M12.1171875 15.783683638455097L12.1171875 15.621303875245514" stroke-width="0.03" stroke="#000000" fill="none"/>
<path d="M12.187500000000002 15.986658342467075L11.976562500000002 16.10844316487426" stroke-width="0.03" stroke="#000000" fill="none"/>
<path d="M12.187500000000002 16.230227987281445L13.593750000000002 17.04212680332936" stroke-width="0.03" stroke="#000000" fill="none"/>
<path d="M13.945312500000002 16.83915209931738L13.945312500000002 16.433202691293424" stroke-width="0.03" stroke="#000000" fill="none"/>
<path d="M13.593750000000002 15.661898816047911L13.593750000000002 15.580708934443118L13.875 15.418329171233536" stroke-width="0.03" stroke="#000000" fill="none"/>
<path d="M13.593750000000002 15.580708934443118L11.4140625 14.322265769568856" stroke-width="0.03" stroke="#000000" fill="none"/>
<path d="M11.6953125 13.672746716730527L11.835937500000002 13.591556835125736" stroke-width="0.03" stroke="#000000" fill="none"/>
<path d="M12.9609375 13.429177071916154L13.5234375 13.10441754549699" stroke-width="0.03" stroke="#000000" fill="none"/>
<path d="M12.9609375 12.779658019077825L12.9609375 13.429177071916154L13.5234375 13.753936598335319" stroke-width="0.03" stroke="#000000" fill="none"/>
<path d="M13.5234375 14.647025295988021L13.6640625 14.728215177592812" stroke-width="0.03" stroke="#000000" fill="none"/>
<path d="M13.593750000000002 14.768810118395209L15.703125000000002 15.986658342467075L15.703125000000002 16.39260775049103" stroke-width="0.03" stroke="#000000" fill="none"/>
<path d="M15.703125000000002 15.986658342467075L18.796875 14.200480947161669" stroke-width="0.03" stroke="#000000" fill="none"/>
<path d="M14.859375 9.97860710371253L14.718749999999998 9.897417222107741" stroke-width="0.03" stroke="#000000" fill="none"/>
<path d="M10.5 10.871695801365235L10.5 14.85" stroke-width="0.03" stroke="#000000" fill="none"/>
<path d="M10.5 15.905468460862282L10.5 17.04212680332936" stroke-width="0.03" stroke="#000000" fill="none"/>
<path d="M10.921875000000002 16.636177395305403L10.921875000000002 16.473797632095824" stroke-width="0.03" stroke="#000000" fill="none"/>
<path d="M10.5 15.905468460862282L12.679687500000002 17.163911625736546L12.75 17.123316684934153" stroke-width="0.03" stroke="#000000" fill="none"/>
<path d="M12.679687500000002 17.163911625736546L12.679687500000002 17.48867115215571" stroke-width="0.03" stroke="#000000" fill="none"/>
<path d="M11.0625 18.016405382586854L10.5 17.69164585616769" stroke-width="0.03" stroke="#000000" fill="none"/>
<path d="M9.9375 17.366886329748525L9.375 17.69164585616769" stroke-width="0.03" stroke="#000000" fill="none"/>
<path d="M9.234375 17.610455974562896L9.234375 16.960936921724567" stroke-width="0.03" stroke="#000000" fill="none"/>
<path d="M8.953125 16.717367276910196L8.25 17.123316684934153" stroke-width="0.03" stroke="#000000" fill="none"/>
<path d="M8.3203125 17.163911625736546L8.3203125 17.48867115215571" stroke-width="0.03" stroke="#000000" fill="none"/>
<path d="M9.65625 17.204506566538942L9.9375 17.366886329748525" stroke-width="0.03" stroke="#000000" fill="none"/>
<path d="M11.34375 15.580708934443118L11.5546875 15.702493756850306" stroke-width="0.03" stroke="#000000" fill="none"/>
<path d="M11.765625 15.337139289628746L11.5546875 15.215354467221559" stroke-width="0.03" stroke="#000000" fill="none"/>
<path d="M6.984375 12.820252959880222L5.5078125 11.967759203029914" stroke-width="0.03" stroke="#000000" fill="none"/>
<path d="M3.1874999999999996 16.55498751370061L2.34375 16.067848224071867L2.2734375000000004 16.10844316487426L2.2734375000000004 16.270822928083845L3.1874999999999996 16.79855715851499" stroke-width="0.03" stroke="#000000" fill="none"/>
<path d="M3.1874999999999996 16.636177395305403L2.2734375000000004 16.10844316487426" stroke-width="0.03" stroke="#000000" fill="none"/>
<path d="M3.679687499999999 17.48867115215571L3.679687499999999 17.651050915365293L4.2421875 17.975810441784457L4.382812499999999 17.894620560179668" stroke-width="0.03" stroke="#000000" fill="none"/>
<path d="M4.2421875 17.975810441784457L4.2421875 17.813430678574875" stroke-width="0.03" stroke="#000000" fill="none"/>
<path d="M4.6640625 18.706519376227575L4.8046875 18.625329494622786" stroke-width="0.03" stroke="#000000" fill="none"/>
<path d="M4.6640625 18.706519376227575L4.6640625 19.356038429065904L4.8046875 19.437228310670697" stroke-width="0.03" stroke="#000000" fill="none"/>
<path d="M4.8046875 18.78770925783237L4.6640625 18.706519376227575" stroke-width="0.03" stroke="#000000" fill="none"/>
<path d="M5.15625 20.208532185916212L5.15625 21.2640006467785L5.296875 21.345190528383288L5.3671875 21.304595587580895L5.3671875 20.330317008323398" stroke-width="0.03" stroke="#000000" fill="none"/>
<path d="M5.296875 20.289722067521005L5.296875 21.345190528383288" stroke-width="0.03" stroke="#000000" fill="none"/>
<path d="M4.3070804290694005 2.9786238469347097L4.3070804290694005 2.7109515319598065L4.421797135487216 2.7109515319598065L4.460036037626487 2.7236978326728973L4.472782338339579 2.736444133385988L4.485528639052669 2.761936734812169L4.485528639052669 2.7874293362383504L4.472782338339579 2.8129219376645316L4.460036037626487 2.825668238377622L4.421797135487216 2.8384145390907127" stroke-width="0.03" stroke="#000000" fill="none"/>
<path d="M4.3070804290694005 2.8384145390907127L4.421797135487216 2.8384145390907127L4.460036037626487 2.8511608398038035L4.472782338339579 2.8639071405168943L4.485528639052669 2.889399741943075L4.485528639052669 2.927638644082347L4.472782338339579 2.953131245508528L4.460036037626487 2.965877546221619L4.421797135487216 2.9786238469347097L4.3070804290694005 2.9786238469347097" stroke-width="0.03" stroke="#000000" fill="none"/>
<path d="M4.0903933169468605 2.9786238469347097L4.217856324077767 2.7109515319598065L4.039408114094497 2.7109515319598065" stroke-width="0.03" stroke="#000000" fill="none"/>
<path d="M3.9756766105290446 2.7109515319598065L3.8099747012588665 2.7109515319598065L3.8099747012588665 2.9786238469347097L3.9756766105290446 2.9786238469347097" stroke-width="0.03" stroke="#000000" fill="none"/>
<path d="M3.911945106963592 2.8384145390907127L3.8099747012588665 2.8384145390907127" stroke-width="0.03" stroke="#000000" fill="none"/>
<path d="M3.708004295554142 2.8001756369514412L3.695257994841051 2.8384145390907127L3.66976539341487 2.8639071405168943L3.631526491275598 2.8766534412299847L3.6187801905625077 2.8766534412299847L3.5805412884232357 2.8639071405168943L3.5550486869970546 2.8384145390907127L3.542302386283964 2.8001756369514412L3.542302386283964 2.7874293362383504L3.5550486869970546 2.7491904340990785L3.5805412884232357 2.7236978326728973L3.6187801905625077 2.7109515319598065L3.631526491275598 2.7109515319598065L3.66976539341487 2.7236978326728973L3.695257994841051 2.7491904340990785L3.708004295554142 2.8001756369514412L3.708004295554142 2.8639071405168943L3.695257994841051 2.927638644082347L3.66976539341487 2.965877546221619L3.631526491275598 2.9786238469347097L3.6060338898494173 2.9786238469347097L3.567794987710145 2.965877546221619L3.5550486869970546 2.9403849447954378" stroke-width="0.03" stroke="#000000" fill="none"/>
<path d="M3.402093078439967 2.8384145390907127L3.440331980579239 2.825668238377622L3.4530782812923295 2.8129219376645316L3.4658245820054203 2.7874293362383504L3.4658245820054203 2.761936734812169L3.4530782812923295 2.736444133385988L3.440331980579239 2.7236978326728973L3.402093078439967 2.7109515319598065L3.287376372022152 2.7109515319598065L3.287376372022152 2.9786238469347097L3.402093078439967 2.9786238469347097L3.440331980579239 2.965877546221619L3.4530782812923295 2.953131245508528L3.4658245820054203 2.927638644082347L3.4658245820054203 2.889399741943075L3.4530782812923295 2.8639071405168943L3.440331980579239 2.8511608398038035L3.402093078439967 2.8384145390907127L3.287376372022152 2.8384145390907127" stroke-width="0.03" stroke="#000000" fill="none"/>
<path d="M3.185405966317427 2.7491904340990785L3.1726596656043364 2.7236978326728973L3.1344207634650645 2.7109515319598065L3.1089281620388833 2.7109515319598065L3.0706892598996114 2.7236978326728973L3.0451966584734302 2.761936734812169L3.0324503577603394 2.825668238377622L3.0324503577603394 2.889399741943075L3.0451966584734302 2.9403849447954378L3.0706892598996114 2.965877546221619L3.1089281620388833 2.9786238469347097L3.1216744627519737 2.9786238469347097L3.1599133648912456 2.965877546221619L3.185405966317427 2.9403849447954378L3.198152267030517 2.902146042656166L3.198152267030517 2.889399741943075L3.185405966317427 2.8511608398038035L3.1599133648912456 2.825668238377622L3.1216744627519737 2.8129219376645316L3.1089281620388833 2.8129219376645316L3.0706892598996114 2.825668238377622L3.0451966584734302 2.8511608398038035L3.0324503577603394 2.889399741943075" stroke-width="0.03" stroke="#000000" fill="none"/>
<path d="M2.930479952055615 2.8001756369514412L2.917733651342524 2.8384145390907127L2.892241049916343 2.8639071405168943L2.854002147777071 2.8766534412299847L2.84125584706398 2.8766534412299847L2.8030169449247087 2.8639071405168943L2.777524343498527 2.8384145390907127L2.7647780427854367 2.8001756369514412L2.7647780427854367 2.7874293362383504L2.777524343498527 2.7491904340990785L2.8030169449247087 2.7236978326728973L2.84125584706398 2.7109515319598065L2.854002147777071 2.7109515319598065L2.892241049916343 2.7236978326728973L2.917733651342524 2.7491904340990785L2.930479952055615 2.8001756369514412L2.930479952055615 2.8639071405168943L2.917733651342524 2.927638644082347L2.892241049916343 2.965877546221619L2.854002147777071 2.9786238469347097L2.82850954635089 2.9786238469347097L2.790270644211618 2.965877546221619L2.777524343498527 2.9403849447954378" stroke-width="0.03" stroke="#000000" fill="none"/>
<path d="M2.6883002385068933 2.9786238469347097L2.5098520285236243 2.9786238469347097L2.6373150356545305 2.8511608398038035L2.6628076370807117 2.8129219376645316L2.6755539377938025 2.7874293362383504L2.6755539377938025 2.761936734812169L2.6628076370807117 2.736444133385988L2.6500613363676213 2.7236978326728973L2.62456873494144 2.7109515319598065L2.5735835320890774 2.7109515319598065L2.5480909306628963 2.7236978326728973L2.5353446299498055 2.736444133385988L2.522598329236715 2.761936734812169L2.522598329236715 2.7746830355252596" stroke-width="0.03" stroke="#000000" fill="none"/>
<path d="M2.433374224245081 2.8001756369514412L2.293164916401084 2.9786238469347097" stroke-width="0.03" stroke="#000000" fill="none"/>
<path d="M2.433374224245081 2.9786238469347097L2.293164916401084 2.8001756369514412" stroke-width="0.03" stroke="#000000" fill="none"/>
<path d="M2.1147167064178154 2.7109515319598065L2.076477804278544 2.7236978326728973L2.0509852028523623 2.761936734812169L2.038238902139272 2.825668238377622L2.038238902139272 2.8639071405168943L2.0509852028523623 2.927638644082347L2.076477804278544 2.965877546221619L2.1147167064178154 2.9786238469347097L2.140209307843997 2.9786238469347097L2.1784482099832685 2.965877546221619L2.2039408114094496 2.927638644082347L2.2166871121225404 2.8639071405168943L2.2166871121225404 2.825668238377622L2.2039408114094496 2.761936734812169L2.1784482099832685 2.7236978326728973L2.140209307843997 2.7109515319598065L2.1147167064178154 2.7109515319598065" stroke-width="0.03" stroke="#000000" fill="none"/>
<path d="M2.0824957911384305 2.015598694615191L2.0824957911384305 1.7268634256306838" stroke-width="0.03" stroke="#000000" fill="none"/>
<path d="M2.061871843353823 1.5824957911384305L2.0824957911384305 1.6031197389230383L2.1031197389230383 1.5824957911384305L2.0824957911384305 1.5618718433538228L2.061871843353823 1.5824957911384305" stroke-width="0.03" stroke="#000000" fill="none"/>
<path d="M2.226863425630684 1.953726851261368L2.2474873734152916 1.9949747468305832L2.3093592167691144 2.015598694615191L2.3712310601229376 2.015598694615191L2.4331029034767604 1.9949747468305832L2.4537268512613677 1.953726851261368L2.4537268512613677 1.9331029034767604L2.4331029034767604 1.891855007907545L2.391855007907545 1.8712310601229374L2.2887352689845066 1.8506071123383299L2.2474873734152916 1.8299831645537221L2.226863425630684 1.7887352689845069L2.2474873734152916 1.7474873734152916L2.3093592167691144 1.7268634256306838L2.3712310601229376 1.7268634256306838L2.4331029034767604 1.7474873734152916L2.4537268512613677 1.7887352689845069" stroke-width="0.03" stroke="#000000" fill="none"/>
<path d="M2.680590276892052 1.7268634256306838L2.6393423813228365 1.7474873734152916L2.5980944857536215 1.7887352689845069L2.5774705379690137 1.8506071123383299L2.5774705379690137 1.891855007907545L2.5980944857536215 1.953726851261368L2.6393423813228365 1.9949747468305832L2.680590276892052 2.015598694615191L2.7424621202458748 2.015598694615191L2.78371001581509 1.9949747468305832L2.8249579113843053 1.953726851261368L2.845581859168913 1.891855007907545L2.845581859168913 1.8506071123383299L2.8249579113843053 1.7887352689845069L2.78371001581509 1.7474873734152916L2.7424621202458748 1.7268634256306838L2.680590276892052 1.7268634256306838" stroke-width="0.03" stroke="#000000" fill="none"/>
<path d="M2.907453702522736 2.056846590184406L3.237436867076458 2.056846590184406" stroke-width="0.03" stroke="#000000" fill="none"/>
<path d="M3.2993087104302807 1.953726851261368L3.3199326582148885 1.9949747468305832L3.3818045015687113 2.015598694615191L3.443676344922534 2.015598694615191L3.5055481882763573 1.9949747468305832L3.526172136060965 1.953726851261368L3.526172136060965 1.9331029034767604L3.5055481882763573 1.891855007907545L3.464300292707142 1.8712310601229374L3.361180553784104 1.8506071123383299L3.3199326582148885 1.8299831645537221L3.2993087104302807 1.7887352689845069L3.3199326582148885 1.7474873734152916L3.3818045015687113 1.7268634256306838L3.443676344922534 1.7268634256306838L3.5055481882763573 1.7474873734152916L3.526172136060965 1.7887352689845069" stroke-width="0.03" stroke="#000000" fill="none"/>
<path d="M3.6705397705532183 1.8093592167691144L3.732411613907041 1.7474873734152916L3.773659509476256 1.7268634256306838L3.8355313528300794 1.7268634256306838L3.8767792483992944 1.7474873734152916L3.897403196183902 1.8093592167691144L3.897403196183902 2.015598694615191" stroke-width="0.03" stroke="#000000" fill="none"/>
<path d="M3.6705397705532183 2.015598694615191L3.6705397705532183 1.7268634256306838" stroke-width="0.03" stroke="#000000" fill="none"/>
<path d="M4.144890569599194 1.7268634256306838L4.103642674029978 1.7474873734152916L4.062394778460764 1.7887352689845069L4.041770830676155 1.8506071123383299L4.041770830676155 1.891855007907545L4.062394778460764 1.953726851261368L4.103642674029978 1.9949747468305832L4.144890569599194 2.015598694615191L4.206762412953017 2.015598694615191L4.2480103085222325 1.9949747468305832L4.289258204091447 1.953726851261368L4.309882151876055 1.891855007907545L4.309882151876055 1.8506071123383299L4.289258204091447 1.7887352689845069L4.2480103085222325 1.7474873734152916L4.206762412953017 1.7268634256306838L4.144890569599194 1.7268634256306838" stroke-width="0.03" stroke="#000000" fill="none"/>
<path d="M4.4336258385837 1.7268634256306838L4.516121629722131 2.015598694615191L4.5986174208605615 1.7268634256306838L4.681113211998992 2.015598694615191L4.7636090031374225 1.7268634256306838" stroke-width="0.03" stroke="#000000" fill="none"/>
<path d="M4.866728742060461 1.7268634256306838L5.011096376552715 1.7268634256306838" stroke-width="0.03" stroke="#000000" fill="none"/>
<path d="M5.031720324337321 1.5824957911384305L4.990472428768107 1.5824957911384305L4.949224533198891 1.6031197389230383L4.928600585414284 1.664991582276861L4.928600585414284 2.015598694615191" stroke-width="0.03" stroke="#000000" fill="none"/>
<path d="M5.155464011044968 2.015598694615191L5.155464011044968 1.5824957911384305" stroke-width="0.03" stroke="#000000" fill="none"/>
<path d="M5.547319018952512 1.7268634256306838L5.547319018952512 2.015598694615191" stroke-width="0.03" stroke="#000000" fill="none"/>
<path d="M5.547319018952512 1.953726851261368L5.506071123383298 1.9949747468305832L5.464823227814082 2.015598694615191L5.402951384460259 2.015598694615191L5.3617034888910435 1.9949747468305832L5.320455593321829 1.953726851261368L5.299831645537221 1.891855007907545L5.299831645537221 1.8506071123383299L5.320455593321829 1.7887352689845069L5.3617034888910435 1.7474873734152916L5.402951384460259 1.7268634256306838L5.464823227814082 1.7268634256306838L5.506071123383298 1.7474873734152916L5.547319018952512 1.7887352689845069" stroke-width="0.03" stroke="#000000" fill="none"/>
<path d="M5.712310601229374 1.9331029034767604L5.91855007907545 1.7268634256306838" stroke-width="0.03" stroke="#000000" fill="none"/>
<path d="M5.794806392367804 1.8506071123383299L5.939174026860058 2.015598694615191" stroke-width="0.03" stroke="#000000" fill="none"/>
<path d="M6.042293765783096 1.8506071123383299L6.2897811391983875 1.8506071123383299L6.2897811391983875 1.8093592167691144L6.26915719141378 1.7681113211998993L6.248533243629172 1.7474873734152916L6.207285348059957 1.7268634256306838L6.145413504706134 1.7268634256306838L6.104165609136919 1.7474873734152916L6.062917713567703 1.7887352689845069L6.042293765783096 1.8506071123383299L6.042293765783096 1.891855007907545L6.062917713567703 1.953726851261368L6.104165609136919 1.9949747468305832L6.145413504706134 2.015598694615191L6.207285348059957 2.015598694615191L6.248533243629172 1.9949747468305832L6.2897811391983875 1.953726851261368" stroke-width="0.03" stroke="#000000" fill="none"/>
<path d="M6.578516408182894 2.015598694615191L6.578516408182894 1.5824957911384305L6.516644564829072 1.6443676344922533L6.475396669259856 1.664991582276861" stroke-width="0.03" stroke="#000000" fill="none"/>
<path d="M5.712310601229374 1.5824957911384305L5.712310601229374 2.015598694615191" stroke-width="0.03" stroke="#000000" fill="none"/>
<path d="M7.264131938244363 2.2599663291074443L1.5 2.2599663291074443" stroke-width="0.03" stroke="#000000" fill="none"/>
</svg>
