<?xml version="1.0" standalone="no"?>
<svg width="21cm" height="29.7cm" version="1.1" xmlns="http://www.w3.org/2000/svg" viewBox="0.0 0.0 21.000001 29.700001">
<path d="M9.375 6.1626826682873475L9.65625 6.000302905077765L10.078125 6.243872549892139" stroke-width="0.03" stroke="#000000" fill="none"/>
<path d="M9.796875 6.406252313101721L9.375 6.1626826682873475L9.375 6.487442194706512L9.515625 6.568632076311303" stroke-width="0.03" stroke="#000000" fill="none"/>
<path d="M8.8125 6.974581484335259L10.5 6.000302905077765L12.187500000000002 6.974581484335259" stroke-width="0.03" stroke="#000000" fill="none"/>
<path d="M12.46875 6.8122017211256765L10.5 7.948860063592752L8.53125 6.8122017211256765L5.71875 8.435999353221499L5.71875 8.51718923482629L8.25 9.97860710371253L8.25 10.62812615655086L7.6875 10.952885682970024L8.109375 11.196455327784399" stroke-width="0.03" stroke="#000000" fill="none"/>
<path d="M7.96875 11.358835090993981L10.218750000000002 10.059796985317323L9.9375 9.897417222107741L9.09375 10.384556511736488L9.09375 10.465746393341277L9.3046875 10.587531215748463" stroke-width="0.03" stroke="#000000" fill="none"/>
<path d="M9.09375 10.465746393341277L9.9375 9.97860710371253L10.1484375 10.100391926119716" stroke-width="0.03" stroke="#000000" fill="none"/>
<path d="M9.9375 9.97860710371253L9.9375 9.897417222107741" stroke-width="0.03" stroke="#000000" fill="none"/>
<path d="M10.218750000000002 9.735037458898159L10.5 9.572657695688576L10.78125 9.735037458898159L10.5 9.897417222107741L10.218750000000002 9.735037458898159" stroke-width="0.03" stroke="#000000" fill="none"/>
<path d="M10.2890625 9.775632399700552L10.5 9.653847577293366L10.7109375 9.775632399700552" stroke-width="0.03" stroke="#000000" fill="none"/>
<path d="M10.5 9.653847577293366L10.5 9.572657695688576" stroke-width="0.03" stroke="#000000" fill="none"/>
<path d="M10.78125 10.059796985317323L11.0625 9.897417222107741L11.90625 10.384556511736488L11.90625 10.465746393341277L11.6953125 10.587531215748463" stroke-width="0.03" stroke="#000000" fill="none"/>
<path d="M11.90625 10.465746393341277L11.0625 9.97860710371253L10.8515625 10.100391926119716" stroke-width="0.03" stroke="#000000" fill="none"/>
<path d="M10.78125 10.059796985317323L13.031250000000002 11.358835090993981L13.031250000000002 11.683594617413146L12.890625000000002 11.764784499017935L12.890625000000002 13.46977201271855L14.367187500000002 14.322265769568856L14.5078125 14.241075887964065L14.7890625 14.403455651173648L14.7890625 17.001531862526964L15.070312500000002 16.83915209931738L15.070312500000002 15.864873520059888L18.4453125 13.9163163615449L18.375 13.875721420742504L15.843750000000002 15.337139289628746L15.28125 15.012379763209582L14.7890625 15.29654434882635" stroke-width="0.03" stroke="#000000" fill="none"/>
<path d="M14.7890625 15.134164585616768L14.859375 15.093569644814371L14.859375 12.495493433461057L14.718749999999998 12.414303551856264L14.718749999999998 12.251923788646682L12.46875 10.952885682970024L12.3984375 10.99348062377242" stroke-width="0.03" stroke="#000000" fill="none"/>
<path d="M12.2578125 10.912290742167627L12.75 10.62812615655086L13.3125 10.952885682970024L12.890625000000002 11.196455327784399" stroke-width="0.03" stroke="#000000" fill="none"/>
<path d="M13.031250000000002 11.358835090993981L12.75 11.521214854203564L10.5 10.222176748526905L8.25 11.521214854203564L8.25 13.55096189432334L6.492187500000001 14.56583541438323L6.492187500000001 17.163911625736546L8.7421875 18.462949731413204L8.7421875 18.78770925783237L9.0234375 18.625329494622786L9.0234375 18.462949731413204L10.5 17.610455974562896L10.5 17.448076211353314L8.7421875 18.462949731413204" stroke-width="0.03" stroke="#000000" fill="none"/>
<path d="M9.0234375 18.462949731413204L10.359375 19.23425360665872L10.5 19.15306372505393L10.640625 19.23425360665872L11.976562500000002 18.462949731413204L11.976562500000002 18.625329494622786L12.2578125 18.78770925783237L14.5078125 17.48867115215571L14.5078125 17.813430678574875L13.6640625 18.30056996820362L13.6640625 22.197684285233596L13.593750000000002 22.157089344431203L13.593750000000002 19.23425360665872L13.031250000000002 18.909494080239554L12.46875 19.23425360665872L12.46875 18.747114317029972" stroke-width="0.03" stroke="#000000" fill="none"/>
<path d="M12.2578125 18.78770925783237L12.2578125 18.462949731413204L10.5 17.448076211353314" stroke-width="0.03" stroke="#000000" fill="none"/>
<path d="M10.5 17.610455974562896L11.976562500000002 18.462949731413204" stroke-width="0.03" stroke="#000000" fill="none"/>
<path d="M12.2578125 18.462949731413204L14.5078125 17.163911625736546L14.5078125 14.56583541438323L12.75 13.55096189432334L12.75 11.521214854203564" stroke-width="0.03" stroke="#000000" fill="none"/>
<path d="M12.890625000000002 11.764784499017935L14.2265625 12.536088374263452L14.2265625 12.698468137473034L14.367187500000002 12.779658019077825L14.859375 12.495493433461057" stroke-width="0.03" stroke="#000000" fill="none"/>
<path d="M14.718749999999998 12.414303551856264L14.2265625 12.698468137473034" stroke-width="0.03" stroke="#000000" fill="none"/>
<path d="M14.2265625 12.536088374263452L14.718749999999998 12.251923788646682" stroke-width="0.03" stroke="#000000" fill="none"/>
<path d="M14.367187500000002 12.779658019077825L14.367187500000002 14.322265769568856" stroke-width="0.03" stroke="#000000" fill="none"/>
<path d="M14.5078125 14.56583541438323L14.7890625 14.403455651173648" stroke-width="0.03" stroke="#000000" fill="none"/>
<path d="M14.859375 14.606430355185626L15.28125 14.362860710371251L15.28125 15.012379763209582" stroke-width="0.03" stroke="#000000" fill="none"/>
<path d="M15.28125 14.85L15.843750000000002 14.525240473580833L15.843750000000002 14.281670828766462L15.703125000000002 14.200480947161669" stroke-width="0.03" stroke="#000000" fill="none"/>
<path d="M15.843750000000002 14.281670828766462L15.28125 14.606430355185626" stroke-width="0.03" stroke="#000000" fill="none"/>
<path d="M15.351562500000002 14.403455651173648L16.4765625 13.753936598335319L16.4765625 13.023227663892198L15.9140625 12.698468137473034L14.859375 13.307392249508968" stroke-width="0.03" stroke="#000000" fill="none"/>
<path d="M14.859375 13.388582131113758L15.351562500000002 13.672746716730527L15.351562500000002 14.403455651173648L14.859375 14.11929106555688" stroke-width="0.03" stroke="#000000" fill="none"/>
<path d="M15.351562500000002 13.672746716730527L16.4765625 13.023227663892198" stroke-width="0.03" stroke="#000000" fill="none"/>
<path d="M16.8984375 13.510366953520945L17.4609375 13.83512647994011L17.4609375 14.403455651173648" stroke-width="0.03" stroke="#000000" fill="none"/>
<path d="M17.390625 14.444050591976044L17.390625 13.875721420742504L16.8984375 13.591556835125736" stroke-width="0.03" stroke="#000000" fill="none"/>
<path d="M17.390625 13.875721420742504L17.4609375 13.83512647994011" stroke-width="0.03" stroke="#000000" fill="none"/>
<path d="M17.1796875 14.56583541438323L16.8984375 14.403455651173648" stroke-width="0.03" stroke="#000000" fill="none"/>
<path d="M16.8984375 14.728215177592812L16.8984375 11.967759203029914L16.1953125 11.561809795005958L16.1953125 10.749910978958045L13.8046875 9.369682991676598" stroke-width="0.03" stroke="#000000" fill="none"/>
<path d="M13.593750000000002 9.491467814083784L15.984375 10.871695801365235L15.984375 11.683594617413146L16.6875 12.0895440254371L16.8984375 11.967759203029914" stroke-width="0.03" stroke="#000000" fill="none"/>
<path d="M17.109375 11.927164262227517L17.109375 11.683594617413146L17.1796875 11.64299967661075L17.7421875 11.967759203029914L17.7421875 12.211328847844287L17.671875 12.251923788646682L17.109375 11.927164262227517" stroke-width="0.03" stroke="#000000" fill="none"/>
<path d="M17.109375 11.683594617413146L17.671875 12.00835414383231L17.671875 12.251923788646682" stroke-width="0.03" stroke="#000000" fill="none"/>
<path d="M17.671875 12.00835414383231L17.7421875 11.967759203029914" stroke-width="0.03" stroke="#000000" fill="none"/>
<path d="M16.6875 12.0895440254371L16.6875 14.85" stroke-width="0.03" stroke="#000000" fill="none"/>
<path d="M15.070312500000002 15.864873520059888L15.000000000000002 15.824278579257493L14.7890625 15.946063401664679" stroke-width="0.03" stroke="#000000" fill="none"/>
<path d="M15.000000000000002 15.824278579257493L15.000000000000002 16.79855715851499L14.7890625 16.920341980922174" stroke-width="0.03" stroke="#000000" fill="none"/>
<path d="M15.000000000000002 16.79855715851499L15.070312500000002 16.83915209931738" stroke-width="0.03" stroke="#000000" fill="none"/>
<path d="M15.070312500000002 17.163911625736546L14.7890625 17.326291388946128L14.7890625 17.651050915365293L15.070312500000002 17.48867115215571L15.070312500000002 17.163911625736546" stroke-width="0.03" stroke="#000000" fill="none"/>
<path d="M15.000000000000002 17.204506566538942L15.000000000000002 17.448076211353314L15.070312500000002 17.48867115215571" stroke-width="0.03" stroke="#000000" fill="none"/>
<path d="M15.000000000000002 17.448076211353314L14.7890625 17.569861033760503" stroke-width="0.03" stroke="#000000" fill="none"/>
<path d="M14.437500000000002 17.529266092958107L14.437500000000002 17.77283573777248L14.5078125 17.813430678574875" stroke-width="0.03" stroke="#000000" fill="none"/>
<path d="M14.437500000000002 17.77283573777248L13.593750000000002 18.259975027401225L13.6640625 18.30056996820362" stroke-width="0.03" stroke="#000000" fill="none"/>
<path d="M13.593750000000002 18.259975027401225L13.593750000000002 18.016405382586854" stroke-width="0.03" stroke="#000000" fill="none"/>
<path d="M13.593750000000002 17.610455974562896L14.437500000000002 17.123316684934153L14.5078125 17.163911625736546" stroke-width="0.03" stroke="#000000" fill="none"/>
<path d="M14.437500000000002 17.123316684934153L14.437500000000002 16.14903810567666L13.875 15.824278579257493L13.242187500000002 16.189633046479052L13.242187500000002 16.433202691293424L13.031250000000002 16.55498751370061L13.031250000000002 17.28569644814373L13.593750000000002 17.610455974562896L13.593750000000002 16.879747040119774L13.8046875 16.75796221771259L13.8046875 16.514392572898217L13.242187500000002 16.189633046479052" stroke-width="0.03" stroke="#000000" fill="none"/>
<path d="M13.382812500000002 16.10844316487426L13.382812500000002 15.540113993640723" stroke-width="0.03" stroke="#000000" fill="none"/>
<path d="M13.8046875 15.29654434882635L13.8046875 15.864873520059888" stroke-width="0.03" stroke="#000000" fill="none"/>
<path d="M13.8046875 16.514392572898217L14.437500000000002 16.14903810567666" stroke-width="0.03" stroke="#000000" fill="none"/>
<path d="M13.8046875 16.75796221771259L12.539062500000002 16.02725328326947L12.539062500000002 17.651050915365293L12.046875 17.93521550098206L11.6953125 17.732240796970082L11.6953125 16.189633046479052" stroke-width="0.03" stroke="#000000" fill="none"/>
<path d="M11.625000000000002 16.14903810567666L11.625000000000002 15.580708934443118L11.6953125 15.540113993640723L11.6953125 15.458924112035932L12.187500000000002 15.174759526419164L12.539062500000002 15.377734230431141L12.539062500000002 15.458924112035932L13.945312500000002 14.647025295988021L13.945312500000002 15.215354467221559L12.539062500000002 16.02725328326947" stroke-width="0.03" stroke="#000000" fill="none"/>
<path d="M12.046875 16.311417868886238L11.976562500000002 16.352012809688635L11.625000000000002 16.14903810567666" stroke-width="0.03" stroke="#000000" fill="none"/>
<path d="M11.625000000000002 15.986658342467075L10.8515625 16.433202691293424L10.5 16.230227987281445L10.1484375 16.433202691293424L9.375 15.986658342467075" stroke-width="0.03" stroke="#000000" fill="none"/>
<path d="M9.375 15.824278579257493L10.1484375 16.270822928083845L10.1484375 16.433202691293424" stroke-width="0.03" stroke="#000000" fill="none"/>
<path d="M10.1484375 16.270822928083845L10.5 16.067848224071867L10.8515625 16.270822928083845L10.8515625 16.433202691293424" stroke-width="0.03" stroke="#000000" fill="none"/>
<path d="M10.8515625 16.270822928083845L11.625000000000002 15.824278579257493" stroke-width="0.03" stroke="#000000" fill="none"/>
<path d="M11.976562500000002 15.783683638455097L12.046875 15.7430886976527L12.046875 15.661898816047911L10.7109375 14.890594940802394L10.7109375 14.728215177592812L10.570312500000002 14.647025295988021L10.570312500000002 13.10441754549699L11.0625 12.820252959880222L10.9921875 12.779658019077825L12.3984375 11.967759203029914L12.3984375 12.37370861105387L11.0625 13.145012486299386" stroke-width="0.03" stroke="#000000" fill="none"/>
<path d="M11.0625 13.226202367904175L10.570312500000002 13.510366953520945L10.5 13.46977201271855L10.4296875 13.510366953520945L9.9375 13.226202367904175L9.9375 12.820252959880222L10.0078125 12.779658019077825L8.6015625 11.967759203029914L8.6015625 12.37370861105387L9.9375 13.145012486299386" stroke-width="0.03" stroke="#000000" fill="none"/>
<path d="M10.078125 13.307392249508968L9.3046875 13.753936598335319L9.3046875 14.159886006359274L8.953125 14.362860710371251L8.953125 15.255949408023953" stroke-width="0.03" stroke="#000000" fill="none"/>
<path d="M8.8125 15.174759526419164L8.4609375 15.377734230431141L8.4609375 15.458924112035932L7.0546875 14.647025295988021L7.0546875 15.215354467221559L8.4609375 16.02725328326947L8.4609375 17.651050915365293L8.953125 17.93521550098206L9.3046875 17.732240796970082L9.3046875 16.189633046479052" stroke-width="0.03" stroke="#000000" fill="none"/>
<path d="M9.375 16.14903810567666L9.0234375 16.352012809688635L8.953125 16.311417868886238L8.953125 17.93521550098206" stroke-width="0.03" stroke="#000000" fill="none"/>
<path d="M8.4609375 17.48867115215571L7.96875 17.204506566538942" stroke-width="0.03" stroke="#000000" fill="none"/>
<path d="M7.96875 17.28569644814373L7.40625 17.610455974562896L6.5625 17.123316684934153L6.492187500000001 17.163911625736546" stroke-width="0.03" stroke="#000000" fill="none"/>
<path d="M6.5625 17.123316684934153L6.5625 16.14903810567666L7.125 15.824278579257493L7.757812499999999 16.189633046479052L7.757812499999999 16.433202691293424L7.96875 16.55498751370061L7.96875 17.28569644814373" stroke-width="0.03" stroke="#000000" fill="none"/>
<path d="M7.96875 16.717367276910196L8.4609375 17.001531862526964" stroke-width="0.03" stroke="#000000" fill="none"/>
<path d="M7.96875 16.55498751370061L7.40625 16.879747040119774L7.1953125 16.75796221771259L7.1953125 16.514392572898217L7.757812499999999 16.189633046479052" stroke-width="0.03" stroke="#000000" fill="none"/>
<path d="M7.6171875 16.10844316487426L7.6171875 15.540113993640723" stroke-width="0.03" stroke="#000000" fill="none"/>
<path d="M7.1953125 15.29654434882635L7.1953125 15.864873520059888" stroke-width="0.03" stroke="#000000" fill="none"/>
<path d="M7.1953125 16.514392572898217L6.5625 16.14903810567666" stroke-width="0.03" stroke="#000000" fill="none"/>
<path d="M6.210937500000001 15.946063401664679L6 15.824278579257493L5.9296875 15.864873520059888L2.5546875 13.9163163615449L2.624999999999999 13.875721420742504L5.15625 15.337139289628746L5.71875 15.012379763209582L6.210937500000001 15.29654434882635" stroke-width="0.03" stroke="#000000" fill="none"/>
<path d="M6.210937500000001 15.134164585616768L6.140625 15.093569644814371L6.140625 12.495493433461057L6.28125 12.414303551856264L6.28125 12.251923788646682L8.53125 10.952885682970024L8.6015625 10.99348062377242" stroke-width="0.03" stroke="#000000" fill="none"/>
<path d="M8.7421875 10.912290742167627L8.25 10.62812615655086" stroke-width="0.03" stroke="#000000" fill="none"/>
<path d="M8.109375 10.709316038155652L7.546875 10.384556511736488L7.3359375 10.506341334143674L7.3359375 10.668721097353256" stroke-width="0.03" stroke="#000000" fill="none"/>
<path d="M7.3359375 10.506341334143674L7.898437500000001 10.831100860562838" stroke-width="0.03" stroke="#000000" fill="none"/>
<path d="M7.6875 10.871695801365235L7.0546875 11.237050268586794L5.9296875 10.587531215748463L5.9296875 11.237050268586794L6.984375 11.845974380622728" stroke-width="0.03" stroke="#000000" fill="none"/>
<path d="M7.0546875 11.805379439820332L7.0546875 11.237050268586794" stroke-width="0.03" stroke="#000000" fill="none"/>
<path d="M7.6875 11.44002497259877L7.6875 10.871695801365235L6.5625 10.222176748526905L5.9296875 10.587531215748463" stroke-width="0.03" stroke="#000000" fill="none"/>
<path d="M6.140625 9.97860710371253L6.140625 9.329088050874201L6.6328125 9.044923465257433" stroke-width="0.03" stroke="#000000" fill="none"/>
<path d="M6.703125 9.085518406059828L6.210937500000001 9.369682991676598L6.210937500000001 9.938012162910134" stroke-width="0.03" stroke="#000000" fill="none"/>
<path d="M6.210937500000001 9.369682991676598L6.140625 9.329088050874201" stroke-width="0.03" stroke="#000000" fill="none"/>
<path d="M6.914062500000001 9.207303228467016L6.914062500000001 9.53206275488618" stroke-width="0.03" stroke="#000000" fill="none"/>
<path d="M7.1953125 9.369682991676598L4.8046875 10.749910978958045L4.8046875 11.561809795005958L5.015625 11.683594617413146L4.3125 12.0895440254371L4.1015625 11.967759203029914L4.1015625 14.728215177592812" stroke-width="0.03" stroke="#000000" fill="none"/>
<path d="M4.3125 14.85L4.3125 12.0895440254371" stroke-width="0.03" stroke="#000000" fill="none"/>
<path d="M4.1015625 11.967759203029914L4.8046875 11.561809795005958" stroke-width="0.03" stroke="#000000" fill="none"/>
<path d="M5.015625 11.683594617413146L5.015625 10.871695801365235L4.8046875 10.749910978958045" stroke-width="0.03" stroke="#000000" fill="none"/>
<path d="M4.6640625 10.587531215748463L4.453125 10.709316038155652L4.382812499999999 10.668721097353256L4.382812499999999 10.019202044514927L4.59375 9.897417222107741L4.6640625 9.938012162910134L4.6640625 10.587531215748463" stroke-width="0.03" stroke="#000000" fill="none"/>
<path d="M4.453125 10.709316038155652L4.453125 10.059796985317323L4.6640625 9.938012162910134" stroke-width="0.03" stroke="#000000" fill="none"/>
<path d="M4.453125 10.059796985317323L4.382812499999999 10.019202044514927" stroke-width="0.03" stroke="#000000" fill="none"/>
<path d="M5.015625 10.871695801365235L7.40625 9.491467814083784" stroke-width="0.03" stroke="#000000" fill="none"/>
<path d="M9.09375 10.384556511736488L5.71875 8.435999353221499" stroke-width="0.03" stroke="#000000" fill="none"/>
<path d="M7.96875 11.358835090993981L7.96875 11.683594617413146L8.109375 11.764784499017935L8.109375 13.46977201271855L6.6328125 14.322265769568856L6.492187500000001 14.241075887964065L6.210937500000001 14.403455651173648L6.210937500000001 17.001531862526964L5.9296875 16.83915209931738L5.9296875 15.864873520059888" stroke-width="0.03" stroke="#000000" fill="none"/>
<path d="M6 15.824278579257493L6 16.79855715851499L6.210937500000001 16.920341980922174" stroke-width="0.03" stroke="#000000" fill="none"/>
<path d="M6 16.79855715851499L5.9296875 16.83915209931738" stroke-width="0.03" stroke="#000000" fill="none"/>
<path d="M5.9296875 17.163911625736546L5.9296875 17.48867115215571L6.210937500000001 17.651050915365293L6.210937500000001 17.326291388946128L5.9296875 17.163911625736546" stroke-width="0.03" stroke="#000000" fill="none"/>
<path d="M6 17.204506566538942L6 17.448076211353314L5.9296875 17.48867115215571" stroke-width="0.03" stroke="#000000" fill="none"/>
<path d="M6 17.448076211353314L6.210937500000001 17.569861033760503" stroke-width="0.03" stroke="#000000" fill="none"/>
<path d="M6.492187500000001 17.48867115215571L6.492187500000001 17.813430678574875L7.3359375 18.30056996820362L7.3359375 22.197684285233596L7.40625 22.157089344431203L7.40625 19.23425360665872L7.96875 18.909494080239554L7.96875 18.341164909006018" stroke-width="0.03" stroke="#000000" fill="none"/>
<path d="M8.109375 18.422354790610807L8.109375 18.5035446722156L10.359375 19.802582777892262L10.5 19.721392896287465L10.5 19.15306372505393" stroke-width="0.03" stroke="#000000" fill="none"/>
<path d="M10.359375 19.23425360665872L10.359375 19.802582777892262" stroke-width="0.03" stroke="#000000" fill="none"/>
<path d="M10.5 19.721392896287465L10.640625 19.802582777892262L12.890625000000002 18.5035446722156L12.890625000000002 18.422354790610807" stroke-width="0.03" stroke="#000000" fill="none"/>
<path d="M13.031250000000002 18.341164909006018L13.031250000000002 18.909494080239554" stroke-width="0.03" stroke="#000000" fill="none"/>
<path d="M12.890625000000002 18.990683961844347L12.890625000000002 19.640203014682676L12.679687500000002 19.761987837089862L12.539062500000002 19.68079795548507" stroke-width="0.03" stroke="#000000" fill="none"/>
<path d="M12.679687500000002 19.761987837089862L12.679687500000002 19.112468784251533" stroke-width="0.03" stroke="#000000" fill="none"/>
<path d="M12.539062500000002 19.274848547461115L11.90625 19.640203014682676L11.90625 20.939241120359334L12.539062500000002 20.573886653137773L12.539062500000002 19.274848547461115L12.046875 18.990683961844347" stroke-width="0.03" stroke="#000000" fill="none"/>
<path d="M11.90625 19.640203014682676L11.4140625 19.356038429065904" stroke-width="0.03" stroke="#000000" fill="none"/>
<path d="M11.34375 19.3966333698683L11.34375 20.61448159394017L11.90625 20.939241120359334" stroke-width="0.03" stroke="#000000" fill="none"/>
<path d="M12.539062500000002 21.06102594276652L13.1015625 21.385785469185684L13.593750000000002 21.101620883568916" stroke-width="0.03" stroke="#000000" fill="none"/>
<path d="M13.593750000000002 21.020431001964123L13.1015625 21.304595587580895L13.1015625 21.385785469185684" stroke-width="0.03" stroke="#000000" fill="none"/>
<path d="M13.1015625 21.304595587580895L12.609375 21.020431001964123" stroke-width="0.03" stroke="#000000" fill="none"/>
<path d="M13.3125 20.61448159394017L13.593750000000002 20.776861357149752" stroke-width="0.03" stroke="#000000" fill="none"/>
<path d="M13.593750000000002 20.452101830730584L11.203125 21.832329818012038L10.5 21.42638040998808L10.5 21.18281076517371L9.796875 21.588760173197663L7.40625 20.208532185916212" stroke-width="0.03" stroke="#000000" fill="none"/>
<path d="M7.40625 20.452101830730584L9.796875 21.832329818012038L10.5 21.42638040998808" stroke-width="0.03" stroke="#000000" fill="none"/>
<path d="M10.5 21.18281076517371L11.203125 21.588760173197663L13.593750000000002 20.208532185916212" stroke-width="0.03" stroke="#000000" fill="none"/>
<path d="M13.6640625 22.197684285233596L16.4765625 20.573886653137773L16.4765625 18.30056996820362L18.4453125 17.163911625736546L18.4453125 13.9163163615449" stroke-width="0.03" stroke="#000000" fill="none"/>
<path d="M16.1953125 11.561809795005958L15.984375 11.683594617413146" stroke-width="0.03" stroke="#000000" fill="none"/>
<path d="M15.984375 10.871695801365235L16.1953125 10.749910978958045" stroke-width="0.03" stroke="#000000" fill="none"/>
<path d="M16.3359375 10.587531215748463L16.3359375 9.938012162910134L16.40625 9.897417222107741L16.617187500000004 10.019202044514927L16.617187500000004 10.668721097353256L16.546875 10.709316038155652L16.3359375 10.587531215748463" stroke-width="0.03" stroke="#000000" fill="none"/>
<path d="M16.546875 10.709316038155652L16.546875 10.059796985317323L16.3359375 9.938012162910134" stroke-width="0.03" stroke="#000000" fill="none"/>
<path d="M16.546875 10.059796985317323L16.617187500000004 10.019202044514927" stroke-width="0.03" stroke="#000000" fill="none"/>
<path d="M15.070312500000002 10.587531215748463L13.945312500000002 11.237050268586794L13.945312500000002 11.805379439820332" stroke-width="0.03" stroke="#000000" fill="none"/>
<path d="M14.015625 11.845974380622728L15.070312500000002 11.237050268586794L15.070312500000002 10.587531215748463L14.437500000000002 10.222176748526905L13.3125 10.871695801365235L13.3125 11.44002497259877" stroke-width="0.03" stroke="#000000" fill="none"/>
<path d="M13.3125 10.871695801365235L13.945312500000002 11.237050268586794" stroke-width="0.03" stroke="#000000" fill="none"/>
<path d="M13.6640625 10.668721097353256L13.6640625 10.506341334143674L13.453125 10.384556511736488L12.890625000000002 10.709316038155652" stroke-width="0.03" stroke="#000000" fill="none"/>
<path d="M12.75 10.62812615655086L12.75 9.97860710371253L15.28125 8.51718923482629L15.28125 8.435999353221499L12.46875 6.8122017211256765" stroke-width="0.03" stroke="#000000" fill="none"/>
<path d="M11.625000000000002 6.487442194706512L11.484375000000002 6.568632076311303" stroke-width="0.03" stroke="#000000" fill="none"/>
<path d="M11.625000000000002 6.487442194706512L11.625000000000002 6.1626826682873475L11.34375 6.000302905077765L10.921875000000002 6.243872549892139" stroke-width="0.03" stroke="#000000" fill="none"/>
<path d="M11.203125 6.406252313101721L11.625000000000002 6.1626826682873475" stroke-width="0.03" stroke="#000000" fill="none"/>
<path d="M11.273437500000002 7.502315714766402L10.5 7.05577136594005L9.7265625 7.502315714766402" stroke-width="0.03" stroke="#000000" fill="none"/>
<path d="M10.5 7.948860063592752L10.5 7.05577136594005" stroke-width="0.03" stroke="#000000" fill="none"/>
<path d="M11.0625 9.897417222107741L11.0625 9.97860710371253" stroke-width="0.03" stroke="#000000" fill="none"/>
<path d="M10.5 10.222176748526905L10.5 10.303366630131695L9.65625 10.790505919760442L9.65625 11.44002497259877L10.2890625 11.805379439820332L10.5 11.683594617413146L10.7109375 11.805379439820332L11.34375 11.44002497259877L11.34375 10.790505919760442L10.5 10.303366630131695" stroke-width="0.03" stroke="#000000" fill="none"/>
<path d="M10.5 11.034075564574817L10.2890625 11.155860386982003L9.65625 10.790505919760442" stroke-width="0.03" stroke="#000000" fill="none"/>
<path d="M9.7265625 11.480619913401167L9.234375 11.764784499017935" stroke-width="0.03" stroke="#000000" fill="none"/>
<path d="M9.09375 11.683594617413146L8.6015625 11.967759203029914" stroke-width="0.03" stroke="#000000" fill="none"/>
<path d="M8.109375 11.764784499017935L6.7734375 12.536088374263452L6.7734375 12.698468137473034L6.6328125 12.779658019077825L6.140625 12.495493433461057" stroke-width="0.03" stroke="#000000" fill="none"/>
<path d="M6.28125 12.414303551856264L6.7734375 12.698468137473034" stroke-width="0.03" stroke="#000000" fill="none"/>
<path d="M6.6328125 12.779658019077825L6.6328125 14.322265769568856" stroke-width="0.03" stroke="#000000" fill="none"/>
<path d="M6.492187500000001 14.56583541438323L6.210937500000001 14.403455651173648" stroke-width="0.03" stroke="#000000" fill="none"/>
<path d="M6.140625 14.606430355185626L5.71875 14.362860710371251L5.71875 15.012379763209582" stroke-width="0.03" stroke="#000000" fill="none"/>
<path d="M5.71875 14.85L5.15625 14.525240473580833L5.15625 14.281670828766462L5.296875 14.200480947161669" stroke-width="0.03" stroke="#000000" fill="none"/>
<path d="M5.15625 14.281670828766462L5.71875 14.606430355185626" stroke-width="0.03" stroke="#000000" fill="none"/>
<path d="M5.6484375 14.403455651173648L6.140625 14.11929106555688" stroke-width="0.03" stroke="#000000" fill="none"/>
<path d="M5.6484375 14.403455651173648L5.6484375 13.672746716730527L6.140625 13.388582131113758" stroke-width="0.03" stroke="#000000" fill="none"/>
<path d="M6.140625 13.307392249508968L5.0859375 12.698468137473034L4.5234375 13.023227663892198L4.5234375 13.753936598335319L5.6484375 14.403455651173648" stroke-width="0.03" stroke="#000000" fill="none"/>
<path d="M5.6484375 13.672746716730527L4.5234375 13.023227663892198" stroke-width="0.03" stroke="#000000" fill="none"/>
<path d="M4.1015625 13.510366953520945L3.539062500000001 13.83512647994011L3.539062500000001 14.403455651173648" stroke-width="0.03" stroke="#000000" fill="none"/>
<path d="M3.609375 14.444050591976044L3.609375 13.875721420742504L4.1015625 13.591556835125736" stroke-width="0.03" stroke="#000000" fill="none"/>
<path d="M3.609375 13.875721420742504L3.539062500000001 13.83512647994011" stroke-width="0.03" stroke="#000000" fill="none"/>
<path d="M3.8203125000000004 14.56583541438323L4.1015625 14.403455651173648" stroke-width="0.03" stroke="#000000" fill="none"/>
<path d="M2.5546875 13.9163163615449L2.5546875 17.163911625736546L4.5234375 18.30056996820362L4.5234375 20.573886653137773L7.3359375 22.197684285233596" stroke-width="0.03" stroke="#000000" fill="none"/>
<path d="M7.898437500000001 21.385785469185684L8.4609375 21.06102594276652" stroke-width="0.03" stroke="#000000" fill="none"/>
<path d="M8.390625 21.020431001964123L7.898437500000001 21.304595587580895L7.898437500000001 21.385785469185684L7.40625 21.101620883568916" stroke-width="0.03" stroke="#000000" fill="none"/>
<path d="M7.40625 21.020431001964123L7.898437500000001 21.304595587580895" stroke-width="0.03" stroke="#000000" fill="none"/>
<path d="M7.6875 20.61448159394017L7.40625 20.776861357149752" stroke-width="0.03" stroke="#000000" fill="none"/>
<path d="M8.4609375 20.573886653137773L8.4609375 19.274848547461115L8.953125 18.990683961844347" stroke-width="0.03" stroke="#000000" fill="none"/>
<path d="M8.7421875 18.78770925783237L6.492187500000001 17.48867115215571" stroke-width="0.03" stroke="#000000" fill="none"/>
<path d="M6.5625 17.529266092958107L6.5625 17.77283573777248L6.492187500000001 17.813430678574875" stroke-width="0.03" stroke="#000000" fill="none"/>
<path d="M6.5625 17.77283573777248L7.40625 18.259975027401225L7.3359375 18.30056996820362" stroke-width="0.03" stroke="#000000" fill="none"/>
<path d="M7.40625 18.259975027401225L7.40625 18.016405382586854" stroke-width="0.03" stroke="#000000" fill="none"/>
<path d="M7.40625 17.610455974562896L7.40625 16.879747040119774" stroke-width="0.03" stroke="#000000" fill="none"/>
<path d="M7.1953125 16.75796221771259L8.4609375 16.02725328326947" stroke-width="0.03" stroke="#000000" fill="none"/>
<path d="M8.953125 15.7430886976527L10.218750000000002 15.012379763209582L10.2890625 15.052974704011977" stroke-width="0.03" stroke="#000000" fill="none"/>
<path d="M10.218750000000002 15.012379763209582L10.218750000000002 14.931189881604789" stroke-width="0.03" stroke="#000000" fill="none"/>
<path d="M10.2890625 14.890594940802394L8.953125 15.661898816047911L8.953125 15.7430886976527L9.0234375 15.783683638455097L9.0234375 16.352012809688635" stroke-width="0.03" stroke="#000000" fill="none"/>
<path d="M9.3046875 16.59558245450301L9.867187500000002 16.270822928083845" stroke-width="0.03" stroke="#000000" fill="none"/>
<path d="M10.078125 16.636177395305403L9.3046875 17.082721744131756" stroke-width="0.03" stroke="#000000" fill="none"/>
<path d="M10.078125 16.636177395305403L10.218750000000002 16.717367276910196" stroke-width="0.03" stroke="#000000" fill="none"/>
<path d="M10.2890625 16.6767723361078L10.5 16.55498751370061L10.7109375 16.6767723361078L10.7109375 16.83915209931738L10.78125 16.79855715851499L10.78125 16.636177395305403L10.5 16.473797632095824L10.218750000000002 16.636177395305403L10.218750000000002 16.79855715851499L10.2890625 16.83915209931738L10.359375 16.79855715851499L10.5 16.879747040119774L10.640625 16.79855715851499L10.7109375 16.83915209931738" stroke-width="0.03" stroke="#000000" fill="none"/>
<path d="M10.78125 16.717367276910196L10.921875000000002 16.636177395305403L11.6953125 17.082721744131756" stroke-width="0.03" stroke="#000000" fill="none"/>
<path d="M11.6953125 16.59558245450301L11.1328125 16.270822928083845" stroke-width="0.03" stroke="#000000" fill="none"/>
<path d="M10.78125 16.636177395305403L10.7109375 16.6767723361078" stroke-width="0.03" stroke="#000000" fill="none"/>
<path d="M10.5 16.55498751370061L10.5 16.879747040119774" stroke-width="0.03" stroke="#000000" fill="none"/>
<path d="M10.2890625 16.83915209931738L10.2890625 16.6767723361078L10.218750000000002 16.636177395305403" stroke-width="0.03" stroke="#000000" fill="none"/>
<path d="M10.5 16.473797632095824L10.5 16.067848224071867" stroke-width="0.03" stroke="#000000" fill="none"/>
<path d="M10.5 15.093569644814371L10.640625 15.012379763209582L11.976562500000002 15.783683638455097L11.976562500000002 16.352012809688635" stroke-width="0.03" stroke="#000000" fill="none"/>
<path d="M12.046875 16.311417868886238L12.046875 17.93521550098206" stroke-width="0.03" stroke="#000000" fill="none"/>
<path d="M12.539062500000002 17.48867115215571L13.031250000000002 17.204506566538942" stroke-width="0.03" stroke="#000000" fill="none"/>
<path d="M13.031250000000002 16.717367276910196L12.539062500000002 17.001531862526964" stroke-width="0.03" stroke="#000000" fill="none"/>
<path d="M13.031250000000002 16.55498751370061L13.593750000000002 16.879747040119774" stroke-width="0.03" stroke="#000000" fill="none"/>
<path d="M12.539062500000002 15.377734230431141L12.046875 15.661898816047911" stroke-width="0.03" stroke="#000000" fill="none"/>
<path d="M12.046875 15.7430886976527L10.78125 15.012379763209582L10.7109375 15.052974704011977" stroke-width="0.03" stroke="#000000" fill="none"/>
<path d="M10.78125 15.012379763209582L10.78125 14.931189881604789" stroke-width="0.03" stroke="#000000" fill="none"/>
<path d="M10.9921875 15.052974704011977L10.9921875 15.134164585616768L10.921875000000002 15.174759526419164" stroke-width="0.03" stroke="#000000" fill="none"/>
<path d="M11.273437500000002 15.377734230431141L11.34375 15.337139289628746L11.34375 15.255949408023953" stroke-width="0.03" stroke="#000000" fill="none"/>
<path d="M11.90625 15.337139289628746L11.90625 14.444050591976044L12.046875 14.362860710371251L11.6953125 14.159886006359274L11.6953125 13.753936598335319L10.921875000000002 13.307392249508968" stroke-width="0.03" stroke="#000000" fill="none"/>
<path d="M11.0625 13.226202367904175L11.0625 12.820252959880222" stroke-width="0.03" stroke="#000000" fill="none"/>
<path d="M11.4140625 12.942037782287407L11.4140625 13.591556835125736" stroke-width="0.03" stroke="#000000" fill="none"/>
<path d="M11.5546875 13.83512647994011L11.6953125 13.753936598335319" stroke-width="0.03" stroke="#000000" fill="none"/>
<path d="M11.5546875 13.83512647994011L11.5546875 14.241075887964065L11.90625 14.444050591976044" stroke-width="0.03" stroke="#000000" fill="none"/>
<path d="M12.046875 14.362860710371251L12.046875 15.255949408023953" stroke-width="0.03" stroke="#000000" fill="none"/>
<path d="M12.2578125 15.215354467221559L13.593750000000002 14.444050591976044L13.945312500000002 14.647025295988021" stroke-width="0.03" stroke="#000000" fill="none"/>
<path d="M13.031250000000002 14.768810118395209L12.2578125 14.322265769568856L12.2578125 14.159886006359274" stroke-width="0.03" stroke="#000000" fill="none"/>
<path d="M12.187500000000002 14.11929106555688L12.328125000000002 14.038101183952087L12.328125000000002 14.11929106555688L12.187500000000002 14.200480947161669L11.90625 14.038101183952087L11.5546875 14.241075887964065" stroke-width="0.03" stroke="#000000" fill="none"/>
<path d="M11.5546875 13.83512647994011L10.78125 13.388582131113758" stroke-width="0.03" stroke="#000000" fill="none"/>
<path d="M10.570312500000002 13.10441754549699L10.5 13.063822604694593L10.4296875 13.10441754549699L10.4296875 14.647025295988021L10.2890625 14.728215177592812L10.2890625 14.890594940802394" stroke-width="0.03" stroke="#000000" fill="none"/>
<path d="M10.359375 15.012379763209582L9.0234375 15.783683638455097" stroke-width="0.03" stroke="#000000" fill="none"/>
<path d="M8.953125 15.661898816047911L8.4609375 15.377734230431141" stroke-width="0.03" stroke="#000000" fill="none"/>
<path d="M8.7421875 15.215354467221559L7.40625 14.444050591976044L7.0546875 14.647025295988021" stroke-width="0.03" stroke="#000000" fill="none"/>
<path d="M7.96875 14.768810118395209L8.7421875 14.322265769568856L8.7421875 14.159886006359274" stroke-width="0.03" stroke="#000000" fill="none"/>
<path d="M8.8125 14.11929106555688L9.0234375 13.997506243149692L9.0234375 13.753936598335319L9.09375 13.713341657532922L8.953125 13.632151775928133L8.8828125 13.672746716730527L8.8828125 13.753936598335319L8.7421875 13.83512647994011L8.7421875 13.997506243149692L8.671875 14.038101183952087L8.671875 14.11929106555688L8.8125 14.200480947161669L9.09375 14.038101183952087L9.09375 13.713341657532922" stroke-width="0.03" stroke="#000000" fill="none"/>
<path d="M9.0234375 13.672746716730527L9.1640625 13.591556835125736L9.1640625 12.698468137473034" stroke-width="0.03" stroke="#000000" fill="none"/>
<path d="M9.5859375 12.942037782287407L9.5859375 13.591556835125736" stroke-width="0.03" stroke="#000000" fill="none"/>
<path d="M9.4453125 13.83512647994011L10.218750000000002 13.388582131113758" stroke-width="0.03" stroke="#000000" fill="none"/>
<path d="M10.4296875 13.10441754549699L9.9375 12.820252959880222" stroke-width="0.03" stroke="#000000" fill="none"/>
<path d="M10.5 13.063822604694593L10.5 14.525240473580833L10.4296875 14.56583541438323" stroke-width="0.03" stroke="#000000" fill="none"/>
<path d="M10.5 14.525240473580833L10.570312500000002 14.56583541438323" stroke-width="0.03" stroke="#000000" fill="none"/>
<path d="M10.570312500000002 14.322265769568856L10.5 14.281670828766462L10.4296875 14.322265769568856" stroke-width="0.03" stroke="#000000" fill="none"/>
<path d="M10.4296875 13.9163163615449L10.5 13.875721420742504L10.570312500000002 13.9163163615449" stroke-width="0.03" stroke="#000000" fill="none"/>
<path d="M10.359375 15.012379763209582L10.5 15.093569644814371" stroke-width="0.03" stroke="#000000" fill="none"/>
<path d="M10.078125 15.174759526419164L10.0078125 15.134164585616768L10.0078125 15.052974704011977" stroke-width="0.03" stroke="#000000" fill="none"/>
<path d="M9.65625 15.255949408023953L9.65625 15.337139289628746L9.7265625 15.377734230431141" stroke-width="0.03" stroke="#000000" fill="none"/>
<path d="M9.375 15.580708934443118L9.375 16.14903810567666" stroke-width="0.03" stroke="#000000" fill="none"/>
<path d="M9.375 15.580708934443118L9.3046875 15.540113993640723L9.3046875 15.458924112035932L8.8125 15.174759526419164" stroke-width="0.03" stroke="#000000" fill="none"/>
<path d="M9.09375 15.337139289628746L9.09375 14.444050591976044L8.953125 14.362860710371251" stroke-width="0.03" stroke="#000000" fill="none"/>
<path d="M9.09375 14.444050591976044L9.4453125 14.241075887964065L9.4453125 13.83512647994011L9.3046875 13.753936598335319" stroke-width="0.03" stroke="#000000" fill="none"/>
<path d="M9.0234375 13.753936598335319L8.8828125 13.672746716730527" stroke-width="0.03" stroke="#000000" fill="none"/>
<path d="M8.7421875 13.83512647994011L9.0234375 13.997506243149692" stroke-width="0.03" stroke="#000000" fill="none"/>
<path d="M9.09375 14.038101183952087L9.4453125 14.241075887964065" stroke-width="0.03" stroke="#000000" fill="none"/>
<path d="M8.8125 14.200480947161669L8.8125 14.11929106555688L8.671875 14.038101183952087" stroke-width="0.03" stroke="#000000" fill="none"/>
<path d="M8.25 13.55096189432334L8.109375 13.46977201271855" stroke-width="0.03" stroke="#000000" fill="none"/>
<path d="M8.953125 14.687620236790417L8.390625 15.012379763209582" stroke-width="0.03" stroke="#000000" fill="none"/>
<path d="M6.7734375 12.536088374263452L6.28125 12.251923788646682" stroke-width="0.03" stroke="#000000" fill="none"/>
<path d="M7.96875 11.358835090993981L8.25 11.521214854203564" stroke-width="0.03" stroke="#000000" fill="none"/>
<path d="M9.09375 11.683594617413146L10.5 12.495493433461057L11.90625 11.683594617413146L12.3984375 11.967759203029914" stroke-width="0.03" stroke="#000000" fill="none"/>
<path d="M11.765625 11.764784499017935L11.273437500000002 11.480619913401167" stroke-width="0.03" stroke="#000000" fill="none"/>
<path d="M10.8515625 11.72418955821554L11.34375 12.00835414383231" stroke-width="0.03" stroke="#000000" fill="none"/>
<path d="M10.7109375 11.805379439820332L10.7109375 11.155860386982003L11.34375 10.790505919760442" stroke-width="0.03" stroke="#000000" fill="none"/>
<path d="M11.90625 10.384556511736488L15.28125 8.435999353221499" stroke-width="0.03" stroke="#000000" fill="none"/>
<path d="M14.859375 9.329088050874201L14.7890625 9.369682991676598L14.7890625 9.938012162910134" stroke-width="0.03" stroke="#000000" fill="none"/>
<path d="M14.859375 9.97860710371253L14.859375 9.329088050874201L14.367187500000002 9.044923465257433" stroke-width="0.03" stroke="#000000" fill="none"/>
<path d="M14.296875000000002 9.085518406059828L14.7890625 9.369682991676598" stroke-width="0.03" stroke="#000000" fill="none"/>
<path d="M14.0859375 9.207303228467016L14.0859375 9.53206275488618" stroke-width="0.03" stroke="#000000" fill="none"/>
<path d="M13.6640625 10.506341334143674L13.1015625 10.831100860562838" stroke-width="0.03" stroke="#000000" fill="none"/>
<path d="M11.835937500000002 12.698468137473034L11.835937500000002 13.591556835125736L11.976562500000002 13.672746716730527" stroke-width="0.03" stroke="#000000" fill="none"/>
<path d="M12.046875 13.632151775928133L11.90625 13.713341657532922L11.90625 14.038101183952087" stroke-width="0.03" stroke="#000000" fill="none"/>
<path d="M11.976562500000002 13.997506243149692L12.2578125 13.83512647994011L12.1171875 13.753936598335319L12.1171875 13.672746716730527L12.046875 13.632151775928133" stroke-width="0.03" stroke="#000000" fill="none"/>
<path d="M12.1171875 13.672746716730527L11.976562500000002 13.753936598335319L11.976562500000002 13.997506243149692L12.187500000000002 14.11929106555688L12.187500000000002 14.200480947161669" stroke-width="0.03" stroke="#000000" fill="none"/>
<path d="M12.2578125 13.997506243149692L12.2578125 13.83512647994011" stroke-width="0.03" stroke="#000000" fill="none"/>
<path d="M12.2578125 13.997506243149692L12.328125000000002 14.038101183952087" stroke-width="0.03" stroke="#000000" fill="none"/>
<path d="M11.976562500000002 13.753936598335319L11.90625 13.713341657532922" stroke-width="0.03" stroke="#000000" fill="none"/>
<path d="M12.75 13.55096189432334L12.890625000000002 13.46977201271855" stroke-width="0.03" stroke="#000000" fill="none"/>
<path d="M12.046875 14.687620236790417L12.609375 15.012379763209582" stroke-width="0.03" stroke="#000000" fill="none"/>
<path d="M10.5 12.495493433461057L10.5 11.034075564574817L10.7109375 11.155860386982003" stroke-width="0.03" stroke="#000000" fill="none"/>
<path d="M10.2890625 11.155860386982003L10.2890625 11.805379439820332" stroke-width="0.03" stroke="#000000" fill="none"/>
<path d="M10.1484375 11.72418955821554L9.65625 12.00835414383231" stroke-width="0.03" stroke="#000000" fill="none"/>
<path d="M3.8906249999999996 11.927164262227517L3.328125000000001 12.251923788646682L3.2578125 12.211328847844287L3.2578125 11.967759203029914L3.8203125000000004 11.64299967661075L3.8906249999999996 11.683594617413146L3.8906249999999996 11.927164262227517" stroke-width="0.03" stroke="#000000" fill="none"/>
<path d="M3.8906249999999996 11.683594617413146L3.328125000000001 12.00835414383231L3.328125000000001 12.251923788646682" stroke-width="0.03" stroke="#000000" fill="none"/>
<path d="M3.328125000000001 12.00835414383231L3.2578125 11.967759203029914" stroke-width="0.03" stroke="#000000" fill="none"/>
<path d="M2.8359374999999996 17.326291388946128L2.8359374999999996 19.274848547461115L4.5234375 20.249127126718612" stroke-width="0.03" stroke="#000000" fill="none"/>
<path d="M3.8203125000000004 20.005557481904233L3.539062500000001 20.16793724511382L3.2578125 20.005557481904233L3.2578125 19.51841819227549" stroke-width="0.03" stroke="#000000" fill="none"/>
<path d="M3.539062500000001 19.68079795548507L3.539062500000001 20.16793724511382" stroke-width="0.03" stroke="#000000" fill="none"/>
<path d="M3.8203125000000004 20.005557481904233L3.8203125000000004 19.843177718694655" stroke-width="0.03" stroke="#000000" fill="none"/>
<path d="M4.5234375 19.193658665856326L3.7499999999999996 18.747114317029972L3.7499999999999996 17.85402561937727" stroke-width="0.03" stroke="#000000" fill="none"/>
<path d="M3.7499999999999996 18.747114317029972L4.5234375 18.30056996820362" stroke-width="0.03" stroke="#000000" fill="none"/>
<path d="M2.8359374999999996 18.13819020499404L2.695312500000001 18.057000323389246L2.4140625000000004 18.219380086598832L2.4140625000000004 18.544139613017997L2.8359374999999996 18.78770925783237" stroke-width="0.03" stroke="#000000" fill="none"/>
<path d="M2.8359374999999996 18.462949731413204L2.4140625000000004 18.219380086598832" stroke-width="0.03" stroke="#000000" fill="none"/>
<path d="M7.96875 18.909494080239554L8.53125 19.23425360665872L8.53125 18.747114317029972" stroke-width="0.03" stroke="#000000" fill="none"/>
<path d="M8.3203125 19.112468784251533L8.3203125 19.761987837089862L8.109375 19.640203014682676L8.109375 18.990683961844347" stroke-width="0.03" stroke="#000000" fill="none"/>
<path d="M8.4609375 19.274848547461115L9.09375 19.640203014682676L9.09375 20.939241120359334L9.65625 20.61448159394017L9.65625 19.3966333698683" stroke-width="0.03" stroke="#000000" fill="none"/>
<path d="M9.5859375 19.356038429065904L9.09375 19.640203014682676" stroke-width="0.03" stroke="#000000" fill="none"/>
<path d="M8.4609375 19.68079795548507L8.3203125 19.761987837089862" stroke-width="0.03" stroke="#000000" fill="none"/>
<path d="M8.4609375 20.573886653137773L9.09375 20.939241120359334" stroke-width="0.03" stroke="#000000" fill="none"/>
<path d="M9.796875 21.588760173197663L9.796875 21.832329818012038" stroke-width="0.03" stroke="#000000" fill="none"/>
<path d="M9.7265625 22.035304522024013L9.1640625 22.360064048443178L9.1640625 22.44125393004797L9.375 22.563038752455157L9.9375 22.238279226035992L9.9375 22.157089344431203L9.7265625 22.035304522024013" stroke-width="0.03" stroke="#000000" fill="none"/>
<path d="M9.9375 22.157089344431203L9.375 22.481848870850367L9.375 22.563038752455157" stroke-width="0.03" stroke="#000000" fill="none"/>
<path d="M9.375 22.481848870850367L9.1640625 22.360064048443178" stroke-width="0.03" stroke="#000000" fill="none"/>
<path d="M11.0625 22.238279226035992L11.0625 22.157089344431203L11.273437500000002 22.035304522024013L11.835937500000002 22.360064048443178L11.835937500000002 22.44125393004797L11.625000000000002 22.563038752455157L11.0625 22.238279226035992" stroke-width="0.03" stroke="#000000" fill="none"/>
<path d="M11.0625 22.157089344431203L11.625000000000002 22.481848870850367L11.625000000000002 22.563038752455157" stroke-width="0.03" stroke="#000000" fill="none"/>
<path d="M11.625000000000002 22.481848870850367L11.835937500000002 22.360064048443178" stroke-width="0.03" stroke="#000000" fill="none"/>
<path d="M11.203125 21.832329818012038L11.203125 21.588760173197663" stroke-width="0.03" stroke="#000000" fill="none"/>
<path d="M10.640625 19.802582777892262L10.640625 19.23425360665872" stroke-width="0.03" stroke="#000000" fill="none"/>
<path d="M16.4765625 19.193658665856326L17.25 18.747114317029972L17.25 17.85402561937727" stroke-width="0.03" stroke="#000000" fill="none"/>
<path d="M17.25 18.747114317029972L16.4765625 18.30056996820362" stroke-width="0.03" stroke="#000000" fill="none"/>
<path d="M17.4609375 19.68079795548507L17.4609375 20.16793724511382L17.7421875 20.005557481904233L17.7421875 19.51841819227549" stroke-width="0.03" stroke="#000000" fill="none"/>
<path d="M18.1640625 19.274848547461115L16.4765625 20.249127126718612" stroke-width="0.03" stroke="#000000" fill="none"/>
<path d="M17.1796875 20.005557481904233L17.1796875 19.843177718694655" stroke-width="0.03" stroke="#000000" fill="none"/>
<path d="M17.1796875 20.005557481904233L17.4609375 20.16793724511382" stroke-width="0.03" stroke="#000000" fill="none"/>
<path d="M18.1640625 19.274848547461115L18.1640625 17.326291388946128" stroke-width="0.03" stroke="#000000" fill="none"/>
<path d="M18.3046875 18.057000323389246L18.1640625 18.13819020499404" stroke-width="0.03" stroke="#000000" fill="none"/>
<path d="M18.3046875 18.057000323389246L18.585937500000004 18.219380086598832L18.585937500000004 18.544139613017997L18.1640625 18.78770925783237" stroke-width="0.03" stroke="#000000" fill="none"/>
<path d="M18.1640625 18.462949731413204L18.585937500000004 18.219380086598832" stroke-width="0.03" stroke="#000000" fill="none"/>
<path d="M7.264131938244363 2.2599663291074443L1.5 2.2599663291074443" stroke-width="0.03" stroke="#000000" fill="none"/>
<path d="M2.0824957911384305 2.015598694615191L2.0824957911384305 1.7268634256306838" stroke-width="0.03" stroke="#000000" fill="none"/>
<path d="M2.061871843353823 1.5824957911384305L2.0824957911384305 1.6031197389230383L2.1031197389230383 1.5824957911384305L2.0824957911384305 1.5618718433538228L2.061871843353823 1.5824957911384305" stroke-width="0.03" stroke="#000000" fill="none"/>
<path d="M2.226863425630684 1.953726851261368L2.2474873734152916 1.9949747468305832L2.3093592167691144 2.015598694615191L2.3712310601229376 2.015598694615191L2.4331029034767604 1.9949747468305832L2.4537268512613677 1.953726851261368L2.4537268512613677 1.9331029034767604L2.4331029034767604 1.891855007907545L2.391855007907545 1.8712310601229374L2.2887352689845066 1.8506071123383299L2.2474873734152916 1.8299831645537221L2.226863425630684 1.7887352689845069L2.2474873734152916 1.7474873734152916L2.3093592167691144 1.7268634256306838L2.3712310601229376 1.7268634256306838L2.4331029034767604 1.7474873734152916L2.4537268512613677 1.7887352689845069" stroke-width="0.03" stroke="#000000" fill="none"/>
<path d="M2.680590276892052 1.7268634256306838L2.6393423813228365 1.7474873734152916L2.5980944857536215 1.7887352689845069L2.5774705379690137 1.8506071123383299L2.5774705379690137 1.891855007907545L2.5980944857536215 1.953726851261368L2.6393423813228365 1.9949747468305832L2.680590276892052 2.015598694615191L2.7424621202458748 2.015598694615191L2.78371001581509 1.9949747468305832L2.8249579113843053 1.953726851261368L2.845581859168913 1.891855007907545L2.845581859168913 1.8506071123383299L2.8249579113843053 1.7887352689845069L2.78371001581509 1.7474873734152916L2.7424621202458748 1.7268634256306838L2.680590276892052 1.7268634256306838" stroke-width="0.03" stroke="#000000" fill="none"/>
<path d="M2.907453702522736 2.056846590184406L3.237436867076458 2.056846590184406" stroke-width="0.03" stroke="#000000" fill="none"/>
<path d="M3.2993087104302807 1.953726851261368L3.3199326582148885 1.9949747468305832L3.3818045015687113 2.015598694615191L3.443676344922534 2.015598694615191L3.5055481882763573 1.9949747468305832L3.526172136060965 1.953726851261368L3.526172136060965 1.9331029034767604L3.5055481882763573 1.891855007907545L3.464300292707142 1.8712310601229374L3.361180553784104 1.8506071123383299L3.3199326582148885 1.8299831645537221L3.2993087104302807 1.7887352689845069L3.3199326582148885 1.7474873734152916L3.3818045015687113 1.7268634256306838L3.443676344922534 1.7268634256306838L3.5055481882763573 1.7474873734152916L3.526172136060965 1.7887352689845069" stroke-width="0.03" stroke="#000000" fill="none"/>
<path d="M3.6705397705532183 1.8093592167691144L3.732411613907041 1.7474873734152916L3.773659509476256 1.7268634256306838L3.8355313528300794 1.7268634256306838L3.8767792483992944 1.7474873734152916L3.897403196183902 1.8093592167691144L3.897403196183902 2.015598694615191" stroke-width="0.03" stroke="#000000" fill="none"/>
<path d="M3.6705397705532183 2.015598694615191L3.6705397705532183 1.7268634256306838" stroke-width="0.03" stroke="#000000" fill="none"/>
<path d="M4.144890569599194 1.7268634256306838L4.103642674029978 1.7474873734152916L4.062394778460764 1.7887352689845069L4.041770830676155 1.8506071123383299L4.041770830676155 1.891855007907545L4.062394778460764 1.953726851261368L4.103642674029978 1.9949747468305832L4.144890569599194 2.015598694615191L4.206762412953017 2.015598694615191L4.2480103085222325 1.9949747468305832L4.289258204091447 1.953726851261368L4.309882151876055 1.891855007907545L4.309882151876055 1.8506071123383299L4.289258204091447 1.7887352689845069L4.2480103085222325 1.7474873734152916L4.206762412953017 1.7268634256306838L4.144890569599194 1.7268634256306838" stroke-width="0.03" stroke="#000000" fill="none"/>
<path d="M4.4336258385837 1.7268634256306838L4.516121629722131 2.015598694615191L4.5986174208605615 1.7268634256306838L4.681113211998992 2.015598694615191L4.7636090031374225 1.7268634256306838" stroke-width="0.03" stroke="#000000" fill="none"/>
<path d="M4.866728742060461 1.7268634256306838L5.011096376552715 1.7268634256306838" stroke-width="0.03" stroke="#000000" fill="none"/>
<path d="M5.031720324337321 1.5824957911384305L4.990472428768107 1.5824957911384305L4.949224533198891 1.6031197389230383L4.928600585414284 1.664991582276861L4.928600585414284 2.015598694615191" stroke-width="0.03" stroke="#000000" fill="none"/>
<path d="M5.155464011044968 2.015598694615191L5.155464011044968 1.5824957911384305" stroke-width="0.03" stroke="#000000" fill="none"/>
<path d="M5.547319018952512 1.7268634256306838L5.547319018952512 2.015598694615191" stroke-width="0.03" stroke="#000000" fill="none"/>
<path d="M5.547319018952512 1.953726851261368L5.506071123383298 1.9949747468305832L5.464823227814082 2.015598694615191L5.402951384460259 2.015598694615191L5.3617034888910435 1.9949747468305832L5.320455593321829 1.953726851261368L5.299831645537221 1.891855007907545L5.299831645537221 1.8506071123383299L5.320455593321829 1.7887352689845069L5.3617034888910435 1.7474873734152916L5.402951384460259 1.7268634256306838L5.464823227814082 1.7268634256306838L5.506071123383298 1.7474873734152916L5.547319018952512 1.7887352689845069" stroke-width="0.03" stroke="#000000" fill="none"/>
<path d="M5.712310601229374 1.9331029034767604L5.91855007907545 1.7268634256306838" stroke-width="0.03" stroke="#000000" fill="none"/>
<path d="M5.794806392367804 1.8506071123383299L5.939174026860058 2.015598694615191" stroke-width="0.03" stroke="#000000" fill="none"/>
<path d="M6.042293765783096 1.8506071123383299L6.2897811391983875 1.8506071123383299L6.2897811391983875 1.8093592167691144L6.26915719141378 1.7681113211998993L6.248533243629172 1.7474873734152916L6.207285348059957 1.7268634256306838L6.145413504706134 1.7268634256306838L6.104165609136919 1.7474873734152916L6.062917713567703 1.7887352689845069L6.042293765783096 1.8506071123383299L6.042293765783096 1.891855007907545L6.062917713567703 1.953726851261368L6.104165609136919 1.9949747468305832L6.145413504706134 2.015598694615191L6.207285348059957 2.015598694615191L6.248533243629172 1.9949747468305832L6.2897811391983875 1.953726851261368" stroke-width="0.03" stroke="#000000" fill="none"/>
<path d="M6.578516408182894 2.015598694615191L6.578516408182894 1.5824957911384305L6.516644564829072 1.6443676344922533L6.475396669259856 1.664991582276861" stroke-width="0.03" stroke="#000000" fill="none"/>
<path d="M5.712310601229374 1.5824957911384305L5.712310601229374 2.015598694615191" stroke-width="0.03" stroke="#000000" fill="none"/>
<path d="M4.434543436200307 2.7109515319598065L4.3070804290694005 2.889399741943075L4.49827493976576 2.889399741943075" stroke-width="0.03" stroke="#000000" fill="none"/>
<path d="M4.434543436200307 2.9786238469347097L4.434543436200307 2.7109515319598065" stroke-width="0.03" stroke="#000000" fill="none"/>
<path d="M4.230602624790857 2.7746830355252596L4.217856324077767 2.7491904340990785L4.192363722651585 2.7236978326728973L4.1668711212254035 2.7109515319598065L4.115885918373042 2.7109515319598065L4.0903933169468605 2.7236978326728973L4.064900715520679 2.7491904340990785L4.052154414807589 2.7746830355252596L4.039408114094497 2.8129219376645316L4.039408114094497 2.8766534412299847L4.052154414807589 2.9148923433692566L4.064900715520679 2.9403849447954378L4.0903933169468605 2.965877546221619L4.115885918373042 2.9786238469347097L4.1668711212254035 2.9786238469347097L4.192363722651585 2.965877546221619L4.217856324077767 2.9403849447954378L4.230602624790857 2.9148923433692566" stroke-width="0.03" stroke="#000000" fill="none"/>
<path d="M3.9629303098159543 2.9148923433692566L3.9501840091028635 2.9403849447954378L3.9246914076766823 2.965877546221619L3.899198806250501 2.9786238469347097L3.848213603398139 2.9786238469347097L3.8227210019719573 2.965877546221619L3.797228400545776 2.9403849447954378L3.784482099832686 2.9148923433692566L3.771735799119595 2.8766534412299847L3.771735799119595 2.8129219376645316L3.784482099832686 2.7746830355252596L3.797228400545776 2.7491904340990785L3.8227210019719573 2.7236978326728973L3.848213603398139 2.7109515319598065L3.899198806250501 2.7109515319598065L3.9246914076766823 2.7236978326728973L3.9501840091028635 2.7491904340990785L3.9629303098159543 2.7746830355252596" stroke-width="0.03" stroke="#000000" fill="none"/>
<path d="M3.6825116941279608 2.889399741943075L3.5550486869970546 2.889399741943075" stroke-width="0.03" stroke="#000000" fill="none"/>
<path d="M3.5168097848577826 2.9786238469347097L3.6187801905625077 2.7109515319598065L3.7207505962672327 2.9786238469347097" stroke-width="0.03" stroke="#000000" fill="none"/>
<path d="M3.402093078439967 2.8384145390907127L3.440331980579239 2.825668238377622L3.4530782812923295 2.8129219376645316L3.4658245820054203 2.7874293362383504L3.4658245820054203 2.761936734812169L3.4530782812923295 2.736444133385988L3.440331980579239 2.7236978326728973L3.402093078439967 2.7109515319598065L3.287376372022152 2.7109515319598065L3.287376372022152 2.9786238469347097L3.402093078439967 2.9786238469347097L3.440331980579239 2.965877546221619L3.4530782812923295 2.953131245508528L3.4658245820054203 2.927638644082347L3.4658245820054203 2.889399741943075L3.4530782812923295 2.8639071405168943L3.440331980579239 2.8511608398038035L3.402093078439967 2.8384145390907127L3.287376372022152 2.8384145390907127" stroke-width="0.03" stroke="#000000" fill="none"/>
<path d="M3.0451966584734302 2.7109515319598065L3.185405966317427 2.7109515319598065L3.1089281620388833 2.8129219376645316L3.147167064178155 2.8129219376645316L3.1726596656043364 2.825668238377622L3.185405966317427 2.8384145390907127L3.198152267030517 2.8766534412299847L3.198152267030517 2.902146042656166L3.185405966317427 2.9403849447954378L3.1599133648912456 2.965877546221619L3.1216744627519737 2.9786238469347097L3.0834355606127017 2.9786238469347097L3.0451966584734302 2.965877546221619L3.0324503577603394 2.953131245508528L3.0197040570472486 2.927638644082347" stroke-width="0.03" stroke="#000000" fill="none"/>
<path d="M2.943226252768705 2.9786238469347097L2.7647780427854367 2.9786238469347097L2.892241049916343 2.8511608398038035L2.917733651342524 2.8129219376645316L2.930479952055615 2.7874293362383504L2.930479952055615 2.761936734812169L2.917733651342524 2.736444133385988L2.9049873506294333 2.7236978326728973L2.879494749203252 2.7109515319598065L2.82850954635089 2.7109515319598065L2.8030169449247087 2.7236978326728973L2.790270644211618 2.736444133385988L2.777524343498527 2.761936734812169L2.777524343498527 2.7746830355252596" stroke-width="0.03" stroke="#000000" fill="none"/>
<path d="M2.5353446299498055 2.7109515319598065L2.6755539377938025 2.7109515319598065L2.5990761335152586 2.8129219376645316L2.6373150356545305 2.8129219376645316L2.6628076370807117 2.825668238377622L2.6755539377938025 2.8384145390907127L2.6883002385068933 2.8766534412299847L2.6883002385068933 2.902146042656166L2.6755539377938025 2.9403849447954378L2.6500613363676213 2.965877546221619L2.6118224342283494 2.9786238469347097L2.5735835320890774 2.9786238469347097L2.5353446299498055 2.965877546221619L2.522598329236715 2.953131245508528L2.5098520285236243 2.927638644082347" stroke-width="0.03" stroke="#000000" fill="none"/>
<path d="M2.433374224245081 2.9786238469347097L2.293164916401084 2.8001756369514412" stroke-width="0.03" stroke="#000000" fill="none"/>
<path d="M2.433374224245081 2.8001756369514412L2.293164916401084 2.9786238469347097" stroke-width="0.03" stroke="#000000" fill="none"/>
<path d="M2.1147167064178154 2.7109515319598065L2.076477804278544 2.7236978326728973L2.0509852028523623 2.761936734812169L2.038238902139272 2.825668238377622L2.038238902139272 2.8639071405168943L2.0509852028523623 2.927638644082347L2.076477804278544 2.965877546221619L2.1147167064178154 2.9786238469347097L2.140209307843997 2.9786238469347097L2.1784482099832685 2.965877546221619L2.2039408114094496 2.927638644082347L2.2166871121225404 2.8639071405168943L2.2166871121225404 2.825668238377622L2.2039408114094496 2.761936734812169L2.1784482099832685 2.7236978326728973L2.140209307843997 2.7109515319598065L2.1147167064178154 2.7109515319598065" stroke-width="0.03" stroke="#000000" fill="none"/>
</svg>
