<?xml version="1.0" standalone="no"?>
<svg width="21cm" height="29.7cm" version="1.1" xmlns="http://www.w3.org/2000/svg" viewBox="0.0 0.0 21.000001 29.700001">
<path d="M2.0625000000000004 9.816227340502948L2.624999999999999 9.491467814083784L2.8359374999999996 9.613252636490971L2.8359374999999996 9.775632399700552" stroke-width="0.03" stroke="#000000" fill="none"/>
<path d="M2.8359374999999996 9.613252636490971L2.2734375000000004 9.938012162910134L2.0625000000000004 9.816227340502948L2.0625000000000004 9.97860710371253L1.9218750000000004 10.059796985317323L1.9218750000000004 10.709316038155652L2.1328124999999996 10.831100860562838L2.2734375000000004 10.749910978958045" stroke-width="0.03" stroke="#000000" fill="none"/>
<path d="M2.1328124999999996 10.831100860562838L2.1328124999999996 10.181581807724509L2.2734375000000004 10.100391926119716L2.2734375000000004 9.938012162910134" stroke-width="0.03" stroke="#000000" fill="none"/>
<path d="M2.34375 10.059796985317323L6.6328125 7.583505596371193L6.421875 7.4617207739640055L4.03125 8.841948761245455" stroke-width="0.03" stroke="#000000" fill="none"/>
<path d="M4.03125 8.760758879640663L2.90625 9.410277932478992L2.8359374999999996 9.369682991676598L2.8359374999999996 9.53206275488618L2.765625 9.572657695688576" stroke-width="0.03" stroke="#000000" fill="none"/>
<path d="M2.8359374999999996 9.53206275488618L2.90625 9.572657695688576L4.03125 8.923138642850246L4.03125 8.760758879640663L3.9609375 8.720163938838269L2.8359374999999996 9.369682991676598" stroke-width="0.03" stroke="#000000" fill="none"/>
<path d="M2.90625 9.410277932478992L2.90625 9.572657695688576" stroke-width="0.03" stroke="#000000" fill="none"/>
<path d="M2.34375 10.059796985317323L2.34375 10.140986866922113L2.2734375000000004 10.181581807724509L2.2734375000000004 15.134164585616768L2.0625000000000004 15.012379763209582L2.0625000000000004 12.251923788646682" stroke-width="0.03" stroke="#000000" fill="none"/>
<path d="M2.1328124999999996 12.211328847844287L1.9921874999999998 12.292518729449078L1.9218750000000004 12.251923788646682L1.9218750000000004 10.952885682970024L2.0625000000000004 10.871695801365235L2.1328124999999996 10.912290742167627L2.1328124999999996 12.211328847844287" stroke-width="0.03" stroke="#000000" fill="none"/>
<path d="M2.2734375000000004 12.211328847844287L3.1171875 12.698468137473034L3.1874999999999996 12.65787319667064L3.1874999999999996 11.927164262227517L3.609375 11.683594617413146" stroke-width="0.03" stroke="#000000" fill="none"/>
<path d="M3.609375 11.845974380622728L3.328125000000001 12.00835414383231L3.328125000000001 13.55096189432334L3.46875 13.46977201271855" stroke-width="0.03" stroke="#000000" fill="none"/>
<path d="M3.328125000000001 13.55096189432334L3.046875 13.388582131113758L3.046875 12.65787319667064" stroke-width="0.03" stroke="#000000" fill="none"/>
<path d="M3.1171875 12.698468137473034L3.1171875 10.668721097353256L3.1874999999999996 10.62812615655086L3.1874999999999996 10.54693627494607L4.9453125 9.53206275488618L4.1015625 9.044923465257433" stroke-width="0.03" stroke="#000000" fill="none"/>
<path d="M4.6640625 9.207303228467016L6.84375 7.948860063592752L7.125 8.111239826802334" stroke-width="0.03" stroke="#000000" fill="none"/>
<path d="M7.40625 8.030049945197543L7.40625 7.4617207739640055L9.796875 6.081492786682556L9.4453125 5.8785180826705785L10.1484375 5.472568674646623L10.5 5.675543378658601L10.8515625 5.472568674646623L11.5546875 5.8785180826705785L11.5546875 6.284467490694534" stroke-width="0.03" stroke="#000000" fill="none"/>
<path d="M11.203125 6.081492786682556L11.5546875 5.8785180826705785" stroke-width="0.03" stroke="#000000" fill="none"/>
<path d="M11.203125 6.081492786682556L13.593750000000002 7.4617207739640055L13.593750000000002 8.030049945197543" stroke-width="0.03" stroke="#000000" fill="none"/>
<path d="M13.593750000000002 7.948860063592752L14.437500000000002 8.435999353221499L14.437500000000002 8.51718923482629" stroke-width="0.03" stroke="#000000" fill="none"/>
<path d="M14.367187500000002 8.476594294023895L14.437500000000002 8.435999353221499" stroke-width="0.03" stroke="#000000" fill="none"/>
<path d="M14.367187500000002 8.07064488599994L14.367187500000002 7.583505596371193L14.578125 7.4617207739640055L16.96875 8.841948761245455" stroke-width="0.03" stroke="#000000" fill="none"/>
<path d="M16.96875 8.760758879640663L17.0390625 8.720163938838269L18.1640625 9.369682991676598L18.1640625 9.53206275488618L18.09375 9.572657695688576L16.96875 8.923138642850246L16.96875 8.760758879640663L18.09375 9.410277932478992L18.1640625 9.369682991676598" stroke-width="0.03" stroke="#000000" fill="none"/>
<path d="M18.09375 9.410277932478992L18.09375 9.572657695688576" stroke-width="0.03" stroke="#000000" fill="none"/>
<path d="M18.1640625 9.613252636490971L18.375 9.491467814083784L18.9375 9.816227340502948L18.9375 9.97860710371253L19.078125 10.059796985317323L19.078125 10.709316038155652L18.8671875 10.831100860562838L18.7265625 10.749910978958045" stroke-width="0.03" stroke="#000000" fill="none"/>
<path d="M18.8671875 10.831100860562838L18.8671875 10.181581807724509L18.7265625 10.100391926119716L18.7265625 9.938012162910134L18.1640625 9.613252636490971L18.1640625 9.775632399700552" stroke-width="0.03" stroke="#000000" fill="none"/>
<path d="M18.234375 9.572657695688576L18.1640625 9.53206275488618" stroke-width="0.03" stroke="#000000" fill="none"/>
<path d="M18.7265625 9.938012162910134L18.9375 9.816227340502948" stroke-width="0.03" stroke="#000000" fill="none"/>
<path d="M18.9375 9.97860710371253L18.7265625 10.100391926119716" stroke-width="0.03" stroke="#000000" fill="none"/>
<path d="M18.656250000000004 10.059796985317323L17.8125 10.54693627494607L16.0546875 9.53206275488618L16.8984375 9.044923465257433" stroke-width="0.03" stroke="#000000" fill="none"/>
<path d="M16.3359375 9.207303228467016L16.1953125 9.288493110071807L16.3359375 9.369682991676598L16.3359375 9.207303228467016L14.15625 7.948860063592752L13.875 8.111239826802334" stroke-width="0.03" stroke="#000000" fill="none"/>
<path d="M13.242187500000002 7.827075241185566L12.890625000000002 8.030049945197543L10.9921875 6.933986543532863L10.5 7.218151129149632L10.0078125 6.933986543532863L8.109375 8.030049945197543L7.757812499999999 7.827075241185566L5.71875 9.004328524455037L5.71875 9.085518406059828L6.0703125 9.288493110071807" stroke-width="0.03" stroke="#000000" fill="none"/>
<path d="M6.140625 9.24789816926941L5.71875 9.004328524455037" stroke-width="0.03" stroke="#000000" fill="none"/>
<path d="M5.71875 9.085518406059828L5.578125 9.166708287664619" stroke-width="0.03" stroke="#000000" fill="none"/>
<path d="M5.5078125 9.126113346862224L4.875 9.491467814083784" stroke-width="0.03" stroke="#000000" fill="none"/>
<path d="M4.9453125 9.53206275488618L4.9453125 9.613252636490971L4.3125 9.97860710371253L4.3125 10.465746393341277" stroke-width="0.03" stroke="#000000" fill="none"/>
<path d="M4.453125 10.384556511736488L4.453125 10.059796985317323L4.3125 9.97860710371253" stroke-width="0.03" stroke="#000000" fill="none"/>
<path d="M4.453125 10.059796985317323L5.7890625 9.288493110071807L5.5078125 9.126113346862224" stroke-width="0.03" stroke="#000000" fill="none"/>
<path d="M5.7890625 9.288493110071807L5.7890625 9.450872873281389" stroke-width="0.03" stroke="#000000" fill="none"/>
<path d="M4.8046875 9.288493110071807L4.6640625 9.369682991676598L4.6640625 9.207303228467016L4.8046875 9.288493110071807" stroke-width="0.03" stroke="#000000" fill="none"/>
<path d="M4.5234375 10.181581807724509L7.898437500000001 8.233024649209522L8.8125 8.760758879640663L8.8125 8.841948761245455L7.125 9.816227340502948L7.125 9.897417222107741L5.6484375 10.749910978958045L5.6484375 12.048949084634705L4.5234375 12.698468137473034L4.5234375 14.403455651173648L4.453125 14.444050591976044L4.453125 16.39260775049103L4.382812499999999 16.433202691293424L3.46875 15.905468460862282L3.46875 12.00835414383231L3.7499999999999996 11.845974380622728L4.171875 12.0895440254371L4.9453125 11.64299967661075L5.4375 11.927164262227517L5.4375 10.709316038155652L4.5234375 10.181581807724509L4.5234375 10.506341334143674L4.9453125 10.749910978958045L4.9453125 11.64299967661075" stroke-width="0.03" stroke="#000000" fill="none"/>
<path d="M4.59375 11.44002497259877L4.171875 11.683594617413146L4.171875 12.0895440254371" stroke-width="0.03" stroke="#000000" fill="none"/>
<path d="M4.171875 11.683594617413146L3.609375 11.358835090993981L4.03125 11.115265446179606L4.03125 10.62812615655086L4.5234375 10.343961570934091" stroke-width="0.03" stroke="#000000" fill="none"/>
<path d="M4.03125 10.62812615655086L4.59375 10.952885682970024L4.59375 11.44002497259877L4.03125 11.115265446179606" stroke-width="0.03" stroke="#000000" fill="none"/>
<path d="M3.609375 11.358835090993981L3.609375 11.927164262227517" stroke-width="0.03" stroke="#000000" fill="none"/>
<path d="M3.46875 12.00835414383231L4.382812499999999 12.536088374263452L5.4375 11.927164262227517" stroke-width="0.03" stroke="#000000" fill="none"/>
<path d="M5.6484375 12.048949084634705L9.65625 14.362860710371251L9.65625 14.038101183952087L10.5 13.55096189432334L11.34375 14.038101183952087L15.140625 11.845974380622728L14.9296875 11.72418955821554L14.9296875 10.99348062377242L15.351562500000002 10.749910978958045L13.875 9.897417222107741L13.8046875 9.938012162910134" stroke-width="0.03" stroke="#000000" fill="none"/>
<path d="M13.734375 9.897417222107741L13.875 9.816227340502948L12.187500000000002 8.841948761245455L12.187500000000002 8.760758879640663L13.1015625 8.233024649209522L16.4765625 10.181581807724509L16.4765625 10.506341334143674L16.0546875 10.749910978958045L16.0546875 11.64299967661075L16.828125 12.0895440254371L17.25 11.845974380622728L17.53125 12.00835414383231L17.53125 15.905468460862282L16.617187500000004 16.433202691293424L16.546875 16.39260775049103L16.546875 14.444050591976044L16.4765625 14.403455651173648L16.4765625 12.698468137473034L15.351562500000002 12.048949084634705L15.351562500000002 10.749910978958045" stroke-width="0.03" stroke="#000000" fill="none"/>
<path d="M15.5625 10.709316038155652L16.4765625 10.181581807724509" stroke-width="0.03" stroke="#000000" fill="none"/>
<path d="M16.546875 10.059796985317323L16.6875 9.97860710371253L16.0546875 9.613252636490971L16.0546875 9.53206275488618" stroke-width="0.03" stroke="#000000" fill="none"/>
<path d="M16.125 9.491467814083784L15.4921875 9.126113346862224L15.2109375 9.288493110071807L15.2109375 9.450872873281389" stroke-width="0.03" stroke="#000000" fill="none"/>
<path d="M15.2109375 9.288493110071807L16.546875 10.059796985317323L16.546875 10.384556511736488" stroke-width="0.03" stroke="#000000" fill="none"/>
<path d="M16.4765625 10.343961570934091L16.96875 10.62812615655086L16.96875 11.115265446179606L17.390625 11.358835090993981L17.390625 11.927164262227517" stroke-width="0.03" stroke="#000000" fill="none"/>
<path d="M17.390625 11.845974380622728L17.671875 12.00835414383231L17.671875 13.55096189432334L17.53125 13.46977201271855" stroke-width="0.03" stroke="#000000" fill="none"/>
<path d="M17.671875 13.55096189432334L17.953125000000004 13.388582131113758L17.953125000000004 12.65787319667064" stroke-width="0.03" stroke="#000000" fill="none"/>
<path d="M17.882812500000004 12.698468137473034L18.7265625 12.211328847844287" stroke-width="0.03" stroke="#000000" fill="none"/>
<path d="M18.8671875 12.211328847844287L18.8671875 10.912290742167627L18.9375 10.871695801365235L19.078125 10.952885682970024L19.078125 12.251923788646682L19.0078125 12.292518729449078L18.8671875 12.211328847844287" stroke-width="0.03" stroke="#000000" fill="none"/>
<path d="M18.9375 12.251923788646682L18.9375 15.012379763209582L18.7265625 15.134164585616768L18.3046875 14.890594940802394" stroke-width="0.03" stroke="#000000" fill="none"/>
<path d="M18.3046875 15.134164585616768L18.0234375 15.29654434882635" stroke-width="0.03" stroke="#000000" fill="none"/>
<path d="M17.953125000000004 15.580708934443118L18.4453125 15.864873520059888L18.4453125 18.625329494622786L18.796875 18.422354790610807L18.796875 19.23425360665872L18.4453125 19.437228310670697L18.4453125 19.843177718694655L17.7421875 20.249127126718612L17.390625 20.04615242270663" stroke-width="0.03" stroke="#000000" fill="none"/>
<path d="M17.7421875 19.843177718694655L15.351562500000002 21.223405705976102L14.859375 20.939241120359334" stroke-width="0.03" stroke="#000000" fill="none"/>
<path d="M14.9296875 20.97983606116173L14.0859375 21.466975350790477L14.015625 21.42638040998808" stroke-width="0.03" stroke="#000000" fill="none"/>
<path d="M14.0859375 21.385785469185684L14.0859375 21.466975350790477" stroke-width="0.03" stroke="#000000" fill="none"/>
<path d="M14.437500000000002 21.588760173197663L14.859375 21.832329818012038L14.859375 22.07589946282641L12.46875 23.45612745010786" stroke-width="0.03" stroke="#000000" fill="none"/>
<path d="M12.539062500000002 23.496722390910254L11.4140625 24.146241443748586L11.4140625 24.227431325353376L11.273437500000002 24.146241443748586L11.203125 24.18683638455098" stroke-width="0.03" stroke="#000000" fill="none"/>
<path d="M11.203125 24.10564650294619L10.640625 24.430406029365354L10.640625 24.673975674179726L11.203125 24.34921614776056L11.203125 24.10564650294619L11.0625 24.024456621341397" stroke-width="0.03" stroke="#000000" fill="none"/>
<path d="M11.273437500000002 24.06505156214379L12.3984375 23.41553250930546L12.539062500000002 23.496722390910254L12.539062500000002 23.577912272515047L11.4140625 24.227431325353376" stroke-width="0.03" stroke="#000000" fill="none"/>
<path d="M11.4140625 24.146241443748586L11.273437500000002 24.06505156214379L11.273437500000002 24.146241443748586" stroke-width="0.03" stroke="#000000" fill="none"/>
<path d="M10.640625 24.430406029365354L10.5 24.34921614776056L10.359375 24.430406029365354L10.359375 24.673975674179726L9.796875 24.34921614776056L9.796875 24.10564650294619L9.9375 24.024456621341397" stroke-width="0.03" stroke="#000000" fill="none"/>
<path d="M9.796875 24.10564650294619L10.359375 24.430406029365354" stroke-width="0.03" stroke="#000000" fill="none"/>
<path d="M10.4296875 24.308621206958165L10.5 24.26802626615577L10.5 23.293747686898275L10.570312500000002 23.33434262770067L12.328125000000002 22.31946910764078L12.328125000000002 23.293747686898275" stroke-width="0.03" stroke="#000000" fill="none"/>
<path d="M12.46875 22.72541851566474L14.648437500000002 21.466975350790477L14.648437500000002 21.142215824371313" stroke-width="0.03" stroke="#000000" fill="none"/>
<path d="M15.2109375 20.736266416347355L13.171875 21.913519699616828L13.1015625 21.87292475881443L13.1015625 21.466975350790477" stroke-width="0.03" stroke="#000000" fill="none"/>
<path d="M13.171875 21.42638040998808L13.171875 21.913519699616828" stroke-width="0.03" stroke="#000000" fill="none"/>
<path d="M13.1015625 21.87292475881443L12.9609375 21.954114640419224" stroke-width="0.03" stroke="#000000" fill="none"/>
<path d="M12.9609375 22.035304522024013L12.328125000000002 22.400658989245574" stroke-width="0.03" stroke="#000000" fill="none"/>
<path d="M12.328125000000002 22.31946910764078L12.2578125 22.27887416683839L11.625000000000002 22.644228634059946L11.203125 22.400658989245574" stroke-width="0.03" stroke="#000000" fill="none"/>
<path d="M11.34375 22.31946910764078L11.625000000000002 22.481848870850367L11.625000000000002 22.644228634059946" stroke-width="0.03" stroke="#000000" fill="none"/>
<path d="M11.625000000000002 22.481848870850367L12.9609375 21.71054499560485L12.9609375 22.035304522024013" stroke-width="0.03" stroke="#000000" fill="none"/>
<path d="M12.9609375 21.71054499560485L12.8203125 21.62935511400006" stroke-width="0.03" stroke="#000000" fill="none"/>
<path d="M12.46875 22.563038752455157L12.328125000000002 22.644228634059946L12.46875 22.72541851566474L12.46875 22.563038752455157" stroke-width="0.03" stroke="#000000" fill="none"/>
<path d="M11.5546875 22.360064048443178L14.9296875 20.41150688992819L14.9296875 19.356038429065904L14.859375 19.31544348826351L13.171875 20.289722067521005L13.1015625 20.249127126718612L11.625000000000002 21.101620883568916L10.5 20.452101830730584L10.5 15.824278579257493L10.78125 15.986658342467075L11.625000000000002 15.499519052838329L11.625000000000002 14.525240473580833L15.421875 12.333113670251475L15.421875 12.576683315065846L16.0546875 12.942037782287407L16.0546875 14.322265769568856L16.1953125 14.241075887964065L16.40625 14.362860710371251L16.40625 16.960936921724567L15.28125 17.610455974562896L15.28125 18.909494080239554L13.031250000000002 20.208532185916212L12.8203125 20.086747363509026L12.8203125 19.924367600299444L12.679687500000002 19.843177718694655L12.2578125 20.086747363509026L12.187500000000002 20.04615242270663L12.187500000000002 19.721392896287465" stroke-width="0.03" stroke="#000000" fill="none"/>
<path d="M12.2578125 19.68079795548507L12.2578125 20.086747363509026" stroke-width="0.03" stroke="#000000" fill="none"/>
<path d="M12.187500000000002 20.04615242270663L12.1171875 20.086747363509026L11.835937500000002 19.924367600299444" stroke-width="0.03" stroke="#000000" fill="none"/>
<path d="M12.1171875 19.761987837089862L12.1171875 20.086747363509026" stroke-width="0.03" stroke="#000000" fill="none"/>
<path d="M12.679687500000002 19.843177718694655L12.679687500000002 19.437228310670697" stroke-width="0.03" stroke="#000000" fill="none"/>
<path d="M13.031250000000002 19.23425360665872L13.031250000000002 20.208532185916212" stroke-width="0.03" stroke="#000000" fill="none"/>
<path d="M13.1015625 20.16793724511382L13.1015625 20.249127126718612" stroke-width="0.03" stroke="#000000" fill="none"/>
<path d="M13.171875 20.289722067521005L13.171875 20.12734230431142" stroke-width="0.03" stroke="#000000" fill="none"/>
<path d="M12.8203125 19.924367600299444L11.625000000000002 20.61448159394017L10.9921875 20.249127126718612L10.78125 20.370911949125794L10.5 20.208532185916212L10.218750000000002 20.370911949125794L10.0078125 20.249127126718612L9.375 20.61448159394017L8.1796875 19.924367600299444L8.1796875 20.086747363509026L7.96875 20.208532185916212L5.71875 18.909494080239554L5.71875 17.610455974562896L4.59375 16.960936921724567L4.59375 14.362860710371251L4.8046875 14.241075887964065L4.9453125 14.322265769568856L5.0859375 14.241075887964065L5.0859375 13.753936598335319L5.15625 13.713341657532922L5.15625 13.632151775928133L5.4375 13.46977201271855" stroke-width="0.03" stroke="#000000" fill="none"/>
<path d="M5.15625 13.632151775928133L5.4375 13.794531539137715" stroke-width="0.03" stroke="#000000" fill="none"/>
<path d="M5.4375 13.875721420742504L5.15625 13.713341657532922" stroke-width="0.03" stroke="#000000" fill="none"/>
<path d="M5.0859375 13.753936598335319L5.4375 13.956911302347297" stroke-width="0.03" stroke="#000000" fill="none"/>
<path d="M5.0859375 14.241075887964065L5.4375 14.444050591976044" stroke-width="0.03" stroke="#000000" fill="none"/>
<path d="M5.4375 14.85L4.59375 14.362860710371251" stroke-width="0.03" stroke="#000000" fill="none"/>
<path d="M4.5234375 14.403455651173648L4.59375 14.444050591976044" stroke-width="0.03" stroke="#000000" fill="none"/>
<path d="M4.59375 14.525240473580833L4.453125 14.444050591976044" stroke-width="0.03" stroke="#000000" fill="none"/>
<path d="M4.9453125 14.322265769568856L4.9453125 12.942037782287407L5.578125 12.576683315065846L5.578125 12.333113670251475L5.859375000000001 12.170733907041893L5.859375000000001 11.845974380622728L6.0703125 11.72418955821554L6.0703125 10.99348062377242L5.6484375 10.749910978958045" stroke-width="0.03" stroke="#000000" fill="none"/>
<path d="M5.4375 10.709316038155652L8.8125 8.760758879640663" stroke-width="0.03" stroke="#000000" fill="none"/>
<path d="M9.375 8.679568998035872L7.125 9.97860710371253L7.125 10.222176748526905L7.265625000000001 10.303366630131695L7.265625000000001 10.465746393341277L7.6171875 10.668721097353256" stroke-width="0.03" stroke="#000000" fill="none"/>
<path d="M7.265625000000001 10.465746393341277L6.84375 10.709316038155652L6.84375 10.790505919760442L6.7734375 10.831100860562838L6.7734375 11.155860386982003" stroke-width="0.03" stroke="#000000" fill="none"/>
<path d="M6.7734375 10.831100860562838L7.0546875 10.99348062377242" stroke-width="0.03" stroke="#000000" fill="none"/>
<path d="M7.125 10.952885682970024L6.84375 10.790505919760442" stroke-width="0.03" stroke="#000000" fill="none"/>
<path d="M6.84375 10.709316038155652L7.1953125 10.912290742167627" stroke-width="0.03" stroke="#000000" fill="none"/>
<path d="M7.265625000000001 10.303366630131695L6.0703125 10.99348062377242" stroke-width="0.03" stroke="#000000" fill="none"/>
<path d="M6.0703125 11.561809795005958L8.0390625 10.42515145253888L10.2890625 11.72418955821554L10.2890625 11.886569321425123" stroke-width="0.03" stroke="#000000" fill="none"/>
<path d="M10.218750000000002 11.845974380622728L10.078125 11.927164262227517L10.078125 12.00835414383231L9.65625 12.251923788646682" stroke-width="0.03" stroke="#000000" fill="none"/>
<path d="M9.7265625 12.292518729449078L9.515625 12.414303551856264L9.3046875 12.292518729449078L8.3203125 12.860847900682616L8.3203125 13.023227663892198L8.6015625 12.860847900682616L8.6015625 12.779658019077825L8.7421875 12.698468137473034L9.1640625 12.942037782287407L9.1640625 13.023227663892198L9.0234375 13.10441754549699L8.6015625 12.860847900682616" stroke-width="0.03" stroke="#000000" fill="none"/>
<path d="M8.6015625 12.779658019077825L9.0234375 13.023227663892198L9.0234375 13.10441754549699" stroke-width="0.03" stroke="#000000" fill="none"/>
<path d="M9.0234375 13.023227663892198L9.1640625 12.942037782287407" stroke-width="0.03" stroke="#000000" fill="none"/>
<path d="M8.8125 12.739063078275429L9.3046875 12.45489849265866L9.515625 12.576683315065846L9.7265625 12.45489849265866L9.7265625 12.292518729449078L9.515625 12.170733907041893L10.2890625 11.72418955821554" stroke-width="0.03" stroke="#000000" fill="none"/>
<path d="M10.218750000000002 11.683594617413146L10.4296875 11.561809795005958L10.4296875 11.480619913401167L10.078125 11.277645209389188L9.796875 11.44002497259877" stroke-width="0.03" stroke="#000000" fill="none"/>
<path d="M10.1484375 11.64299967661075L10.4296875 11.480619913401167" stroke-width="0.03" stroke="#000000" fill="none"/>
<path d="M10.570312500000002 11.480619913401167L10.921875000000002 11.277645209389188L11.203125 11.44002497259877" stroke-width="0.03" stroke="#000000" fill="none"/>
<path d="M10.8515625 11.64299967661075L10.570312500000002 11.480619913401167L10.570312500000002 11.561809795005958L10.78125 11.683594617413146" stroke-width="0.03" stroke="#000000" fill="none"/>
<path d="M10.7109375 11.72418955821554L12.9609375 10.42515145253888L14.9296875 11.561809795005958L12.679687500000002 12.860847900682616L11.6953125 12.292518729449078L11.484375000000002 12.414303551856264L11.273437500000002 12.292518729449078L11.273437500000002 12.45489849265866L11.484375000000002 12.576683315065846L11.6953125 12.45489849265866L12.187500000000002 12.739063078275429" stroke-width="0.03" stroke="#000000" fill="none"/>
<path d="M12.2578125 12.698468137473034L11.835937500000002 12.942037782287407L11.835937500000002 13.023227663892198L11.976562500000002 13.10441754549699L12.3984375 12.860847900682616L12.3984375 12.779658019077825L12.2578125 12.698468137473034" stroke-width="0.03" stroke="#000000" fill="none"/>
<path d="M12.3984375 12.779658019077825L11.976562500000002 13.023227663892198L11.976562500000002 13.10441754549699" stroke-width="0.03" stroke="#000000" fill="none"/>
<path d="M11.976562500000002 13.023227663892198L11.835937500000002 12.942037782287407" stroke-width="0.03" stroke="#000000" fill="none"/>
<path d="M11.6953125 12.45489849265866L11.6953125 12.292518729449078" stroke-width="0.03" stroke="#000000" fill="none"/>
<path d="M11.484375000000002 12.170733907041893L11.273437500000002 12.292518729449078" stroke-width="0.03" stroke="#000000" fill="none"/>
<path d="M11.34375 12.251923788646682L10.921875000000002 12.00835414383231L10.7109375 12.130138966239496" stroke-width="0.03" stroke="#000000" fill="none"/>
<path d="M10.640625 12.0895440254371L10.921875000000002 11.927164262227517L10.921875000000002 12.00835414383231" stroke-width="0.03" stroke="#000000" fill="none"/>
<path d="M10.921875000000002 11.927164262227517L10.78125 11.845974380622728L10.5 12.00835414383231L10.218750000000002 11.845974380622728" stroke-width="0.03" stroke="#000000" fill="none"/>
<path d="M10.078125 11.927164262227517L10.359375 12.0895440254371L10.1484375 12.211328847844287L10.1484375 12.292518729449078L10.2890625 12.37370861105387L10.5 12.251923788646682L10.5 12.170733907041893L10.2890625 12.292518729449078L10.1484375 12.211328847844287" stroke-width="0.03" stroke="#000000" fill="none"/>
<path d="M10.2890625 12.292518729449078L10.2890625 12.37370861105387" stroke-width="0.03" stroke="#000000" fill="none"/>
<path d="M10.2890625 12.130138966239496L10.078125 12.00835414383231" stroke-width="0.03" stroke="#000000" fill="none"/>
<path d="M10.5 12.170733907041893L10.7109375 12.292518729449078L10.8515625 12.211328847844287L10.640625 12.0895440254371" stroke-width="0.03" stroke="#000000" fill="none"/>
<path d="M10.7109375 11.886569321425123L10.7109375 11.72418955821554L11.484375000000002 12.170733907041893" stroke-width="0.03" stroke="#000000" fill="none"/>
<path d="M11.484375000000002 12.414303551856264L11.484375000000002 12.576683315065846" stroke-width="0.03" stroke="#000000" fill="none"/>
<path d="M10.8515625 12.292518729449078L10.7109375 12.37370861105387L10.5 12.251923788646682" stroke-width="0.03" stroke="#000000" fill="none"/>
<path d="M10.7109375 12.292518729449078L10.7109375 12.37370861105387" stroke-width="0.03" stroke="#000000" fill="none"/>
<path d="M10.8515625 12.292518729449078L10.8515625 12.211328847844287" stroke-width="0.03" stroke="#000000" fill="none"/>
<path d="M9.515625 12.414303551856264L9.515625 12.576683315065846" stroke-width="0.03" stroke="#000000" fill="none"/>
<path d="M9.3046875 12.45489849265866L9.3046875 12.292518729449078" stroke-width="0.03" stroke="#000000" fill="none"/>
<path d="M8.3203125 12.860847900682616L6.0703125 11.561809795005958" stroke-width="0.03" stroke="#000000" fill="none"/>
<path d="M6.0703125 11.72418955821554L8.3203125 13.023227663892198" stroke-width="0.03" stroke="#000000" fill="none"/>
<path d="M7.828125 13.875721420742504L7.6875 13.956911302347297L7.6875 15.093569644814371L7.898437500000001 15.215354467221559L7.898437500000001 15.458924112035932L7.6875 15.337139289628746L7.6875 16.230227987281445L7.828125 16.14903810567666" stroke-width="0.03" stroke="#000000" fill="none"/>
<path d="M7.757812499999999 16.10844316487426L7.757812499999999 15.946063401664679L7.828125 15.905468460862282L7.828125 15.418329171233536" stroke-width="0.03" stroke="#000000" fill="none"/>
<path d="M7.898437500000001 15.458924112035932L8.0390625 15.377734230431141L8.0390625 15.134164585616768L7.828125 15.012379763209582L7.6875 15.093569644814371" stroke-width="0.03" stroke="#000000" fill="none"/>
<path d="M7.828125 15.012379763209582L7.828125 14.444050591976044" stroke-width="0.03" stroke="#000000" fill="none"/>
<path d="M7.757812499999999 14.403455651173648L7.757812499999999 14.241075887964065L7.828125 14.200480947161669L7.828125 13.875721420742504L5.578125 12.576683315065846" stroke-width="0.03" stroke="#000000" fill="none"/>
<path d="M5.4375 12.65787319667064L5.4375 14.931189881604789L7.6875 16.230227987281445" stroke-width="0.03" stroke="#000000" fill="none"/>
<path d="M7.6171875 16.189633046479052L7.6171875 16.433202691293424L7.546875 16.473797632095824L7.1953125 16.270822928083845L7.1953125 15.946063401664679" stroke-width="0.03" stroke="#000000" fill="none"/>
<path d="M7.546875 16.14903810567666L7.546875 16.473797632095824" stroke-width="0.03" stroke="#000000" fill="none"/>
<path d="M7.6171875 16.59558245450301L7.6875 16.55498751370061L7.898437500000001 16.6767723361078" stroke-width="0.03" stroke="#000000" fill="none"/>
<path d="M7.898437500000001 16.59558245450301L8.0390625 16.514392572898217" stroke-width="0.03" stroke="#000000" fill="none"/>
<path d="M8.0390625 16.59558245450301L8.0390625 16.270822928083845L7.757812499999999 16.10844316487426" stroke-width="0.03" stroke="#000000" fill="none"/>
<path d="M7.757812499999999 15.946063401664679L8.0390625 16.10844316487426L8.0390625 15.864873520059888L8.109375 15.824278579257493L8.25 15.905468460862282L8.25 16.14903810567666L8.4609375 16.270822928083845L8.4609375 16.433202691293424L8.390625 16.473797632095824L8.1796875 16.352012809688635L8.1796875 16.6767723361078L8.0390625 16.59558245450301" stroke-width="0.03" stroke="#000000" fill="none"/>
<path d="M7.898437500000001 16.59558245450301L7.898437500000001 19.193658665856326L9.867187500000002 20.330317008323398L9.867187500000002 17.732240796970082L8.8828125 17.163911625736546L8.8828125 16.920341980922174L9.0234375 16.83915209931738L8.8125 16.717367276910196L8.671875 16.79855715851499L8.671875 17.04212680332936L7.898437500000001 16.59558245450301" stroke-width="0.03" stroke="#000000" fill="none"/>
<path d="M7.898437500000001 16.75796221771259L7.6171875 16.59558245450301L7.6171875 17.001531862526964L7.898437500000001 17.163911625736546" stroke-width="0.03" stroke="#000000" fill="none"/>
<path d="M8.1796875 16.6767723361078L8.25 16.636177395305403L8.25 16.39260775049103" stroke-width="0.03" stroke="#000000" fill="none"/>
<path d="M8.390625 16.311417868886238L8.4609375 16.270822928083845" stroke-width="0.03" stroke="#000000" fill="none"/>
<path d="M8.390625 16.311417868886238L8.390625 16.473797632095824" stroke-width="0.03" stroke="#000000" fill="none"/>
<path d="M8.390625 16.311417868886238L8.1796875 16.189633046479052L8.1796875 15.946063401664679L8.25 15.905468460862282" stroke-width="0.03" stroke="#000000" fill="none"/>
<path d="M8.1796875 15.946063401664679L8.0390625 15.864873520059888" stroke-width="0.03" stroke="#000000" fill="none"/>
<path d="M8.0390625 16.02725328326947L7.828125 15.905468460862282" stroke-width="0.03" stroke="#000000" fill="none"/>
<path d="M8.1796875 16.189633046479052L8.25 16.14903810567666" stroke-width="0.03" stroke="#000000" fill="none"/>
<path d="M8.25 16.636177395305403L8.671875 16.879747040119774" stroke-width="0.03" stroke="#000000" fill="none"/>
<path d="M8.671875 16.79855715851499L8.8828125 16.920341980922174" stroke-width="0.03" stroke="#000000" fill="none"/>
<path d="M9.0234375 16.83915209931738L9.0234375 17.082721744131756L9.515625 17.366886329748525" stroke-width="0.03" stroke="#000000" fill="none"/>
<path d="M9.515625 17.448076211353314L9.515625 16.960936921724567L9.5859375 16.920341980922174L9.7265625 17.001531862526964L9.7265625 17.48867115215571L9.65625 17.529266092958107L9.515625 17.448076211353314" stroke-width="0.03" stroke="#000000" fill="none"/>
<path d="M9.65625 17.529266092958107L9.65625 17.04212680332936L9.7265625 17.001531862526964" stroke-width="0.03" stroke="#000000" fill="none"/>
<path d="M9.65625 17.04212680332936L9.515625 16.960936921724567" stroke-width="0.03" stroke="#000000" fill="none"/>
<path d="M9.0234375 17.082721744131756L8.8828125 17.163911625736546" stroke-width="0.03" stroke="#000000" fill="none"/>
<path d="M9.7265625 17.48867115215571L10.0078125 17.651050915365293L10.0078125 20.249127126718612" stroke-width="0.03" stroke="#000000" fill="none"/>
<path d="M10.218750000000002 20.370911949125794L10.218750000000002 15.986658342467075L10.5 15.824278579257493" stroke-width="0.03" stroke="#000000" fill="none"/>
<path d="M10.218750000000002 15.986658342467075L9.375 15.499519052838329L9.375 14.525240473580833L9.65625 14.362860710371251" stroke-width="0.03" stroke="#000000" fill="none"/>
<path d="M9.375 14.525240473580833L5.578125 12.333113670251475" stroke-width="0.03" stroke="#000000" fill="none"/>
<path d="M5.4375 12.65787319667064L7.6875 13.956911302347297" stroke-width="0.03" stroke="#000000" fill="none"/>
<path d="M7.828125 14.200480947161669L8.25 14.444050591976044L8.25 14.606430355185626L8.1796875 14.647025295988021L7.757812499999999 14.403455651173648" stroke-width="0.03" stroke="#000000" fill="none"/>
<path d="M7.757812499999999 14.241075887964065L8.1796875 14.484645532778439L8.25 14.444050591976044" stroke-width="0.03" stroke="#000000" fill="none"/>
<path d="M8.1796875 14.484645532778439L8.1796875 14.647025295988021" stroke-width="0.03" stroke="#000000" fill="none"/>
<path d="M8.0390625 15.134164585616768L7.898437500000001 15.215354467221559" stroke-width="0.03" stroke="#000000" fill="none"/>
<path d="M9.375 15.499519052838329L10.078125 15.093569644814371L10.078125 14.931189881604789L10.2890625 14.809405059197603L10.4296875 14.890594940802394L10.4296875 15.052974704011977L10.218750000000002 15.174759526419164L10.078125 15.093569644814371" stroke-width="0.03" stroke="#000000" fill="none"/>
<path d="M10.078125 14.931189881604789L10.218750000000002 15.012379763209582L10.218750000000002 15.174759526419164" stroke-width="0.03" stroke="#000000" fill="none"/>
<path d="M10.218750000000002 15.012379763209582L10.5 14.85L10.5 14.525240473580833L10.640625 14.444050591976044L10.640625 14.687620236790417L10.5 14.768810118395209L10.359375 14.687620236790417L10.359375 14.444050591976044L10.5 14.362860710371251L10.5 13.55096189432334" stroke-width="0.03" stroke="#000000" fill="none"/>
<path d="M10.5 14.362860710371251L10.640625 14.444050591976044" stroke-width="0.03" stroke="#000000" fill="none"/>
<path d="M10.5 14.525240473580833L10.359375 14.444050591976044" stroke-width="0.03" stroke="#000000" fill="none"/>
<path d="M10.5 14.85L10.78125 15.012379763209582L10.78125 15.174759526419164L10.921875000000002 15.093569644814371L10.921875000000002 14.931189881604789L10.7109375 14.809405059197603L10.570312500000002 14.890594940802394L10.570312500000002 15.052974704011977L10.78125 15.174759526419164" stroke-width="0.03" stroke="#000000" fill="none"/>
<path d="M10.78125 15.012379763209582L10.921875000000002 14.931189881604789" stroke-width="0.03" stroke="#000000" fill="none"/>
<path d="M10.921875000000002 15.093569644814371L11.625000000000002 15.499519052838329" stroke-width="0.03" stroke="#000000" fill="none"/>
<path d="M10.78125 15.986658342467075L10.78125 20.370911949125794" stroke-width="0.03" stroke="#000000" fill="none"/>
<path d="M10.9921875 20.249127126718612L10.9921875 17.651050915365293L11.273437500000002 17.48867115215571L11.273437500000002 17.001531862526964L11.4140625 16.920341980922174L11.484375000000002 16.960936921724567L11.484375000000002 17.448076211353314L11.34375 17.529266092958107L11.273437500000002 17.48867115215571" stroke-width="0.03" stroke="#000000" fill="none"/>
<path d="M11.34375 17.529266092958107L11.34375 17.04212680332936L11.273437500000002 17.001531862526964" stroke-width="0.03" stroke="#000000" fill="none"/>
<path d="M11.34375 17.04212680332936L11.484375000000002 16.960936921724567" stroke-width="0.03" stroke="#000000" fill="none"/>
<path d="M11.484375000000002 17.366886329748525L11.976562500000002 17.082721744131756L12.1171875 17.163911625736546L12.1171875 16.920341980922174L11.976562500000002 16.83915209931738L12.187500000000002 16.717367276910196L12.328125000000002 16.79855715851499L12.328125000000002 17.04212680332936L13.1015625 16.59558245450301L12.9609375 16.514392572898217" stroke-width="0.03" stroke="#000000" fill="none"/>
<path d="M12.9609375 16.59558245450301L12.8203125 16.6767723361078L12.75 16.636177395305403L12.75 16.39260775049103" stroke-width="0.03" stroke="#000000" fill="none"/>
<path d="M12.8203125 16.352012809688635L12.609375 16.473797632095824L12.539062500000002 16.433202691293424L12.539062500000002 16.270822928083845L12.75 16.14903810567666L12.8203125 16.189633046479052L12.8203125 15.946063401664679L12.75 15.905468460862282L12.890625000000002 15.824278579257493L12.9609375 15.864873520059888L12.9609375 16.10844316487426L13.242187500000002 15.946063401664679L13.242187500000002 16.10844316487426L12.9609375 16.270822928083845L12.9609375 16.59558245450301" stroke-width="0.03" stroke="#000000" fill="none"/>
<path d="M13.1015625 16.59558245450301L13.1015625 19.193658665856326L11.1328125 20.330317008323398L11.1328125 17.732240796970082L12.1171875 17.163911625736546" stroke-width="0.03" stroke="#000000" fill="none"/>
<path d="M11.976562500000002 17.082721744131756L11.976562500000002 16.83915209931738" stroke-width="0.03" stroke="#000000" fill="none"/>
<path d="M12.1171875 16.920341980922174L12.328125000000002 16.79855715851499" stroke-width="0.03" stroke="#000000" fill="none"/>
<path d="M12.328125000000002 16.879747040119774L12.75 16.636177395305403" stroke-width="0.03" stroke="#000000" fill="none"/>
<path d="M12.8203125 16.6767723361078L12.8203125 16.352012809688635" stroke-width="0.03" stroke="#000000" fill="none"/>
<path d="M12.8203125 16.189633046479052L12.609375 16.311417868886238L12.539062500000002 16.270822928083845" stroke-width="0.03" stroke="#000000" fill="none"/>
<path d="M12.609375 16.311417868886238L12.609375 16.473797632095824" stroke-width="0.03" stroke="#000000" fill="none"/>
<path d="M12.75 16.14903810567666L12.75 15.905468460862282" stroke-width="0.03" stroke="#000000" fill="none"/>
<path d="M12.8203125 15.946063401664679L12.9609375 15.864873520059888" stroke-width="0.03" stroke="#000000" fill="none"/>
<path d="M12.9609375 16.02725328326947L13.171875 15.905468460862282L13.171875 15.418329171233536" stroke-width="0.03" stroke="#000000" fill="none"/>
<path d="M13.1015625 15.458924112035932L13.3125 15.337139289628746L13.3125 16.230227987281445L13.171875 16.14903810567666" stroke-width="0.03" stroke="#000000" fill="none"/>
<path d="M13.3125 16.230227987281445L15.5625 14.931189881604789L15.5625 12.65787319667064L13.3125 13.956911302347297L13.3125 15.093569644814371L13.1015625 15.215354467221559L13.1015625 15.458924112035932L12.9609375 15.377734230431141L12.9609375 15.134164585616768L13.171875 15.012379763209582L13.3125 15.093569644814371" stroke-width="0.03" stroke="#000000" fill="none"/>
<path d="M13.171875 15.012379763209582L13.171875 14.444050591976044" stroke-width="0.03" stroke="#000000" fill="none"/>
<path d="M13.242187500000002 14.403455651173648L12.8203125 14.647025295988021L12.75 14.606430355185626L12.75 14.444050591976044L13.171875 14.200480947161669L13.171875 13.875721420742504L15.421875 12.576683315065846" stroke-width="0.03" stroke="#000000" fill="none"/>
<path d="M15.421875 12.333113670251475L15.140625 12.170733907041893L15.140625 11.845974380622728" stroke-width="0.03" stroke="#000000" fill="none"/>
<path d="M14.9296875 11.72418955821554L12.679687500000002 13.023227663892198L12.3984375 12.860847900682616" stroke-width="0.03" stroke="#000000" fill="none"/>
<path d="M12.679687500000002 12.860847900682616L12.679687500000002 13.023227663892198" stroke-width="0.03" stroke="#000000" fill="none"/>
<path d="M13.171875 13.875721420742504L13.3125 13.956911302347297" stroke-width="0.03" stroke="#000000" fill="none"/>
<path d="M13.171875 14.200480947161669L13.242187500000002 14.241075887964065L13.242187500000002 14.403455651173648" stroke-width="0.03" stroke="#000000" fill="none"/>
<path d="M13.242187500000002 14.241075887964065L12.8203125 14.484645532778439L12.75 14.444050591976044" stroke-width="0.03" stroke="#000000" fill="none"/>
<path d="M12.8203125 14.484645532778439L12.8203125 14.647025295988021" stroke-width="0.03" stroke="#000000" fill="none"/>
<path d="M12.9609375 15.134164585616768L13.1015625 15.215354467221559" stroke-width="0.03" stroke="#000000" fill="none"/>
<path d="M13.171875 15.905468460862282L13.242187500000002 15.946063401664679" stroke-width="0.03" stroke="#000000" fill="none"/>
<path d="M13.382812500000002 16.189633046479052L13.382812500000002 16.433202691293424L13.453125 16.473797632095824L13.8046875 16.270822928083845L13.8046875 15.946063401664679" stroke-width="0.03" stroke="#000000" fill="none"/>
<path d="M13.453125 16.14903810567666L13.453125 16.473797632095824" stroke-width="0.03" stroke="#000000" fill="none"/>
<path d="M13.382812500000002 16.59558245450301L13.1015625 16.75796221771259" stroke-width="0.03" stroke="#000000" fill="none"/>
<path d="M13.1015625 16.6767723361078L13.3125 16.55498751370061L13.382812500000002 16.59558245450301L13.382812500000002 17.001531862526964L13.1015625 17.163911625736546" stroke-width="0.03" stroke="#000000" fill="none"/>
<path d="M11.1328125 17.732240796970082L10.9921875 17.651050915365293" stroke-width="0.03" stroke="#000000" fill="none"/>
<path d="M10.0078125 17.651050915365293L9.867187500000002 17.732240796970082" stroke-width="0.03" stroke="#000000" fill="none"/>
<path d="M8.7421875 19.68079795548507L8.7421875 20.086747363509026L8.3203125 19.843177718694655L8.1796875 19.924367600299444" stroke-width="0.03" stroke="#000000" fill="none"/>
<path d="M8.3203125 19.843177718694655L8.3203125 19.437228310670697" stroke-width="0.03" stroke="#000000" fill="none"/>
<path d="M7.96875 19.23425360665872L7.96875 20.208532185916212" stroke-width="0.03" stroke="#000000" fill="none"/>
<path d="M7.898437500000001 20.16793724511382L7.898437500000001 20.249127126718612L9.375 21.101620883568916L10.5 20.452101830730584" stroke-width="0.03" stroke="#000000" fill="none"/>
<path d="M10.5 20.69567147554496L9.4453125 21.304595587580895L9.4453125 22.360064048443178L9.7265625 22.197684285233596L9.7265625 21.71054499560485L10.5 21.2640006467785L11.273437500000002 21.71054499560485L11.273437500000002 22.197684285233596L11.5546875 22.360064048443178L11.5546875 21.304595587580895L10.5 20.69567147554496L10.5 21.2640006467785" stroke-width="0.03" stroke="#000000" fill="none"/>
<path d="M10.5 21.669950054802452L10.078125 21.913519699616828L10.078125 22.563038752455157L9.5859375 22.27887416683839" stroke-width="0.03" stroke="#000000" fill="none"/>
<path d="M9.65625 22.31946910764078L9.375 22.481848870850367L9.375 22.644228634059946L9.796875 22.400658989245574" stroke-width="0.03" stroke="#000000" fill="none"/>
<path d="M10.078125 22.563038752455157L10.5 22.31946910764078L10.5 21.669950054802452L10.921875000000002 21.913519699616828L10.921875000000002 22.563038752455157L11.4140625 22.27887416683839" stroke-width="0.03" stroke="#000000" fill="none"/>
<path d="M10.921875000000002 22.563038752455157L10.5 22.31946910764078" stroke-width="0.03" stroke="#000000" fill="none"/>
<path d="M10.078125 21.913519699616828L9.7265625 21.71054499560485" stroke-width="0.03" stroke="#000000" fill="none"/>
<path d="M9.4453125 21.304595587580895L6.0703125 19.356038429065904L6.0703125 20.41150688992819L9.4453125 22.360064048443178" stroke-width="0.03" stroke="#000000" fill="none"/>
<path d="M9.375 22.481848870850367L8.0390625 21.71054499560485L8.0390625 22.035304522024013L8.671875 22.400658989245574" stroke-width="0.03" stroke="#000000" fill="none"/>
<path d="M8.671875 22.31946910764078L8.7421875 22.27887416683839L9.375 22.644228634059946" stroke-width="0.03" stroke="#000000" fill="none"/>
<path d="M8.671875 22.644228634059946L8.53125 22.72541851566474L6.3515625 21.466975350790477L6.3515625 21.142215824371313" stroke-width="0.03" stroke="#000000" fill="none"/>
<path d="M6.140625 20.939241120359334L5.6484375 21.223405705976102L3.2578125 19.843177718694655L3.2578125 20.249127126718612L2.5546875 19.843177718694655L2.5546875 19.437228310670697L2.203125 19.23425360665872L2.203125 18.422354790610807L2.5546875 18.219380086598832" stroke-width="0.03" stroke="#000000" fill="none"/>
<path d="M2.5546875 18.625329494622786L2.5546875 15.864873520059888L3.046875 15.580708934443118" stroke-width="0.03" stroke="#000000" fill="none"/>
<path d="M2.976562500000001 15.621303875245514L2.976562500000001 14.647025295988021L3.046875 14.606430355185626" stroke-width="0.03" stroke="#000000" fill="none"/>
<path d="M2.976562500000001 14.647025295988021L3.046875 14.687620236790417" stroke-width="0.03" stroke="#000000" fill="none"/>
<path d="M2.695312500000001 14.890594940802394L2.2734375000000004 15.134164585616768" stroke-width="0.03" stroke="#000000" fill="none"/>
<path d="M2.695312500000001 15.134164585616768L2.695312500000001 12.617278255868243L2.8359374999999996 12.536088374263452L2.8359374999999996 12.698468137473034L2.695312500000001 12.617278255868243" stroke-width="0.03" stroke="#000000" fill="none"/>
<path d="M1.9921874999999998 12.292518729449078L1.9921874999999998 10.99348062377242L1.9218750000000004 10.952885682970024" stroke-width="0.03" stroke="#000000" fill="none"/>
<path d="M1.9921874999999998 10.99348062377242L2.1328124999999996 10.912290742167627" stroke-width="0.03" stroke="#000000" fill="none"/>
<path d="M2.0625000000000004 10.871695801365235L2.0625000000000004 10.790505919760442" stroke-width="0.03" stroke="#000000" fill="none"/>
<path d="M2.1328124999999996 10.181581807724509L1.9218750000000004 10.059796985317323" stroke-width="0.03" stroke="#000000" fill="none"/>
<path d="M2.0625000000000004 9.97860710371253L2.2734375000000004 10.100391926119716" stroke-width="0.03" stroke="#000000" fill="none"/>
<path d="M2.34375 10.059796985317323L3.1874999999999996 10.54693627494607" stroke-width="0.03" stroke="#000000" fill="none"/>
<path d="M3.1874999999999996 10.62812615655086L2.34375 10.140986866922113" stroke-width="0.03" stroke="#000000" fill="none"/>
<path d="M2.2734375000000004 10.181581807724509L3.1171875 10.668721097353256" stroke-width="0.03" stroke="#000000" fill="none"/>
<path d="M3.1874999999999996 11.927164262227517L3.328125000000001 12.00835414383231" stroke-width="0.03" stroke="#000000" fill="none"/>
<path d="M4.382812499999999 12.536088374263452L4.382812499999999 16.433202691293424" stroke-width="0.03" stroke="#000000" fill="none"/>
<path d="M3.3984375 16.189633046479052L3.2578125 16.270822928083845L3.2578125 19.03127890264674L5.6484375 20.41150688992819L5.6484375 21.223405705976102" stroke-width="0.03" stroke="#000000" fill="none"/>
<path d="M6.0703125 20.97983606116173L6.914062500000001 21.466975350790477L6.984375 21.42638040998808" stroke-width="0.03" stroke="#000000" fill="none"/>
<path d="M6.914062500000001 21.385785469185684L6.914062500000001 21.466975350790477" stroke-width="0.03" stroke="#000000" fill="none"/>
<path d="M6.5625 21.588760173197663L6.140625 21.832329818012038L6.140625 22.07589946282641L8.53125 23.45612745010786" stroke-width="0.03" stroke="#000000" fill="none"/>
<path d="M8.4609375 23.496722390910254L8.6015625 23.41553250930546L9.7265625 24.06505156214379L9.7265625 24.146241443748586L9.5859375 24.227431325353376L8.4609375 23.577912272515047L8.4609375 23.496722390910254L9.5859375 24.146241443748586L9.5859375 24.227431325353376" stroke-width="0.03" stroke="#000000" fill="none"/>
<path d="M9.5859375 24.146241443748586L9.7265625 24.06505156214379" stroke-width="0.03" stroke="#000000" fill="none"/>
<path d="M9.7265625 24.146241443748586L9.796875 24.18683638455098" stroke-width="0.03" stroke="#000000" fill="none"/>
<path d="M10.4296875 24.308621206958165L10.4296875 23.33434262770067L10.5 23.293747686898275" stroke-width="0.03" stroke="#000000" fill="none"/>
<path d="M10.4296875 23.33434262770067L8.671875 22.31946910764078L8.671875 23.293747686898275" stroke-width="0.03" stroke="#000000" fill="none"/>
<path d="M8.53125 22.72541851566474L8.53125 22.563038752455157L8.671875 22.644228634059946" stroke-width="0.03" stroke="#000000" fill="none"/>
<path d="M8.0390625 21.954114640419224L7.898437500000001 21.87292475881443L7.898437500000001 21.466975350790477" stroke-width="0.03" stroke="#000000" fill="none"/>
<path d="M7.828125 21.42638040998808L7.828125 21.913519699616828L5.7890625 20.736266416347355L5.7890625 20.330317008323398L3.8906249999999996 19.23425360665872L3.8906249999999996 18.665924435425183L3.3984375 18.38175984980841L3.3984375 16.189633046479052L3.046875 15.986658342467075L3.046875 13.632151775928133L3.1171875 13.591556835125736L3.1171875 13.429177071916154" stroke-width="0.03" stroke="#000000" fill="none"/>
<path d="M3.1171875 13.591556835125736L3.46875 13.794531539137715" stroke-width="0.03" stroke="#000000" fill="none"/>
<path d="M3.46875 13.875721420742504L3.046875 13.632151775928133" stroke-width="0.03" stroke="#000000" fill="none"/>
<path d="M2.695312500000001 15.134164585616768L2.976562500000001 15.29654434882635" stroke-width="0.03" stroke="#000000" fill="none"/>
<path d="M2.5546875 15.864873520059888L3.2578125 16.270822928083845" stroke-width="0.03" stroke="#000000" fill="none"/>
<path d="M5.296875 17.366886329748525L5.296875 17.85402561937727L5.71875 18.097595264191643" stroke-width="0.03" stroke="#000000" fill="none"/>
<path d="M5.71875 17.93521550098206L5.4375 17.77283573777248L5.4375 17.448076211353314" stroke-width="0.03" stroke="#000000" fill="none"/>
<path d="M5.4375 17.77283573777248L5.296875 17.85402561937727" stroke-width="0.03" stroke="#000000" fill="none"/>
<path d="M3.8906249999999996 18.665924435425183L3.2578125 19.03127890264674" stroke-width="0.03" stroke="#000000" fill="none"/>
<path d="M2.5546875 18.625329494622786L2.203125 18.422354790610807" stroke-width="0.03" stroke="#000000" fill="none"/>
<path d="M3.2578125 20.249127126718612L3.609375 20.04615242270663" stroke-width="0.03" stroke="#000000" fill="none"/>
<path d="M5.6484375 20.41150688992819L5.7890625 20.330317008323398" stroke-width="0.03" stroke="#000000" fill="none"/>
<path d="M6.0703125 19.356038429065904L6.140625 19.31544348826351L7.828125 20.289722067521005L7.898437500000001 20.249127126718612" stroke-width="0.03" stroke="#000000" fill="none"/>
<path d="M7.828125 20.289722067521005L7.828125 20.12734230431142" stroke-width="0.03" stroke="#000000" fill="none"/>
<path d="M8.7421875 20.086747363509026L8.8125 20.04615242270663L8.8125 19.721392896287465" stroke-width="0.03" stroke="#000000" fill="none"/>
<path d="M8.8828125 19.761987837089862L8.8828125 20.086747363509026L9.1640625 19.924367600299444" stroke-width="0.03" stroke="#000000" fill="none"/>
<path d="M8.8828125 20.086747363509026L8.8125 20.04615242270663" stroke-width="0.03" stroke="#000000" fill="none"/>
<path d="M9.375 20.61448159394017L9.375 21.101620883568916" stroke-width="0.03" stroke="#000000" fill="none"/>
<path d="M8.1796875 21.62935511400006L8.0390625 21.71054499560485" stroke-width="0.03" stroke="#000000" fill="none"/>
<path d="M7.898437500000001 21.87292475881443L7.828125 21.913519699616828" stroke-width="0.03" stroke="#000000" fill="none"/>
<path d="M6.140625 21.832329818012038L10.4296875 24.308621206958165" stroke-width="0.03" stroke="#000000" fill="none"/>
<path d="M10.5 24.34921614776056L10.5 24.592785792574933L10.359375 24.673975674179726" stroke-width="0.03" stroke="#000000" fill="none"/>
<path d="M10.5 24.592785792574933L10.640625 24.673975674179726" stroke-width="0.03" stroke="#000000" fill="none"/>
<path d="M10.570312500000002 24.308621206958165L14.859375 21.832329818012038" stroke-width="0.03" stroke="#000000" fill="none"/>
<path d="M15.351562500000002 21.223405705976102L15.351562500000002 20.41150688992819L15.2109375 20.330317008323398L17.109375 19.23425360665872L17.109375 18.665924435425183L17.6015625 18.38175984980841L17.6015625 16.189633046479052L17.953125000000004 15.986658342467075L17.953125000000004 13.632151775928133L17.882812500000004 13.591556835125736L17.882812500000004 13.429177071916154" stroke-width="0.03" stroke="#000000" fill="none"/>
<path d="M17.882812500000004 13.591556835125736L17.53125 13.794531539137715" stroke-width="0.03" stroke="#000000" fill="none"/>
<path d="M17.53125 13.875721420742504L17.953125000000004 13.632151775928133" stroke-width="0.03" stroke="#000000" fill="none"/>
<path d="M17.882812500000004 12.698468137473034L17.882812500000004 10.668721097353256L18.7265625 10.181581807724509L18.656250000000004 10.140986866922113L18.656250000000004 10.059796985317323L14.367187500000002 7.583505596371193" stroke-width="0.03" stroke="#000000" fill="none"/>
<path d="M13.593750000000002 7.4617207739640055L12.890625000000002 7.867670181987961L10.5 6.487442194706512L8.109375 7.867670181987961L8.109375 8.030049945197543" stroke-width="0.03" stroke="#000000" fill="none"/>
<path d="M8.109375 7.867670181987961L7.40625 7.4617207739640055" stroke-width="0.03" stroke="#000000" fill="none"/>
<path d="M7.40625 7.948860063592752L6.5625 8.435999353221499L6.5625 8.51718923482629" stroke-width="0.03" stroke="#000000" fill="none"/>
<path d="M6.6328125 8.476594294023895L6.5625 8.435999353221499" stroke-width="0.03" stroke="#000000" fill="none"/>
<path d="M6.6328125 8.07064488599994L6.6328125 7.583505596371193" stroke-width="0.03" stroke="#000000" fill="none"/>
<path d="M7.125 9.816227340502948L7.265625000000001 9.897417222107741" stroke-width="0.03" stroke="#000000" fill="none"/>
<path d="M7.1953125 9.938012162910134L7.125 9.897417222107741" stroke-width="0.03" stroke="#000000" fill="none"/>
<path d="M7.125 9.97860710371253L7.96875 10.465746393341277" stroke-width="0.03" stroke="#000000" fill="none"/>
<path d="M9.375 8.679568998035872L10.5 9.329088050874201L11.625000000000002 8.679568998035872L13.875 9.97860710371253L13.875 10.222176748526905L13.734375 10.303366630131695L13.734375 10.465746393341277L13.382812500000002 10.668721097353256" stroke-width="0.03" stroke="#000000" fill="none"/>
<path d="M13.734375 10.465746393341277L14.15625 10.709316038155652L14.15625 10.790505919760442L14.2265625 10.831100860562838L14.2265625 11.155860386982003" stroke-width="0.03" stroke="#000000" fill="none"/>
<path d="M13.945312500000002 10.99348062377242L14.2265625 10.831100860562838" stroke-width="0.03" stroke="#000000" fill="none"/>
<path d="M14.15625 10.790505919760442L13.875 10.952885682970024" stroke-width="0.03" stroke="#000000" fill="none"/>
<path d="M13.8046875 10.912290742167627L14.15625 10.709316038155652" stroke-width="0.03" stroke="#000000" fill="none"/>
<path d="M13.734375 10.303366630131695L14.9296875 10.99348062377242" stroke-width="0.03" stroke="#000000" fill="none"/>
<path d="M15.5625 10.709316038155652L15.5625 11.927164262227517L16.617187500000004 12.536088374263452L17.53125 12.00835414383231" stroke-width="0.03" stroke="#000000" fill="none"/>
<path d="M17.671875 12.00835414383231L17.8125 11.927164262227517L17.390625 11.683594617413146" stroke-width="0.03" stroke="#000000" fill="none"/>
<path d="M17.390625 11.358835090993981L16.828125 11.683594617413146L16.828125 12.0895440254371" stroke-width="0.03" stroke="#000000" fill="none"/>
<path d="M16.828125 11.683594617413146L16.40625 11.44002497259877L16.40625 10.952885682970024L16.0546875 10.749910978958045" stroke-width="0.03" stroke="#000000" fill="none"/>
<path d="M16.40625 10.952885682970024L16.96875 10.62812615655086" stroke-width="0.03" stroke="#000000" fill="none"/>
<path d="M16.6875 10.465746393341277L16.6875 9.97860710371253" stroke-width="0.03" stroke="#000000" fill="none"/>
<path d="M16.96875 11.115265446179606L16.40625 11.44002497259877" stroke-width="0.03" stroke="#000000" fill="none"/>
<path d="M16.0546875 11.64299967661075L15.5625 11.927164262227517" stroke-width="0.03" stroke="#000000" fill="none"/>
<path d="M15.351562500000002 12.048949084634705L11.34375 14.362860710371251L11.34375 14.038101183952087" stroke-width="0.03" stroke="#000000" fill="none"/>
<path d="M11.34375 14.362860710371251L11.625000000000002 14.525240473580833" stroke-width="0.03" stroke="#000000" fill="none"/>
<path d="M9.65625 14.038101183952087L5.859375000000001 11.845974380622728" stroke-width="0.03" stroke="#000000" fill="none"/>
<path d="M4.9453125 12.942037782287407L4.5234375 12.698468137473034" stroke-width="0.03" stroke="#000000" fill="none"/>
<path d="M4.59375 10.952885682970024L4.9453125 10.749910978958045" stroke-width="0.03" stroke="#000000" fill="none"/>
<path d="M10.078125 9.085518406059828L10.5 8.841948761245455L10.921875000000002 9.085518406059828" stroke-width="0.03" stroke="#000000" fill="none"/>
<path d="M10.78125 9.166708287664619L10.5 9.004328524455037L10.5 8.841948761245455" stroke-width="0.03" stroke="#000000" fill="none"/>
<path d="M10.5 9.004328524455037L10.218750000000002 9.166708287664619" stroke-width="0.03" stroke="#000000" fill="none"/>
<path d="M10.5 7.218151129149632L10.5 6.487442194706512" stroke-width="0.03" stroke="#000000" fill="none"/>
<path d="M9.4453125 6.284467490694534L9.4453125 5.8785180826705785" stroke-width="0.03" stroke="#000000" fill="none"/>
<path d="M12.187500000000002 8.760758879640663L15.5625 10.709316038155652" stroke-width="0.03" stroke="#000000" fill="none"/>
<path d="M15.421875 9.166708287664619L15.28125 9.085518406059828L15.28125 9.004328524455037L13.242187500000002 7.827075241185566" stroke-width="0.03" stroke="#000000" fill="none"/>
<path d="M12.890625000000002 7.867670181987961L12.890625000000002 8.030049945197543" stroke-width="0.03" stroke="#000000" fill="none"/>
<path d="M13.875 9.816227340502948L13.875 9.897417222107741" stroke-width="0.03" stroke="#000000" fill="none"/>
<path d="M13.875 9.97860710371253L13.031250000000002 10.465746393341277" stroke-width="0.03" stroke="#000000" fill="none"/>
<path d="M14.859375 9.24789816926941L15.28125 9.004328524455037" stroke-width="0.03" stroke="#000000" fill="none"/>
<path d="M15.28125 9.085518406059828L14.9296875 9.288493110071807" stroke-width="0.03" stroke="#000000" fill="none"/>
<path d="M17.8125 10.54693627494607L17.8125 10.62812615655086L17.882812500000004 10.668721097353256" stroke-width="0.03" stroke="#000000" fill="none"/>
<path d="M17.8125 10.62812615655086L18.656250000000004 10.140986866922113" stroke-width="0.03" stroke="#000000" fill="none"/>
<path d="M18.7265625 10.181581807724509L18.7265625 15.134164585616768" stroke-width="0.03" stroke="#000000" fill="none"/>
<path d="M18.3046875 15.134164585616768L18.3046875 12.617278255868243L18.1640625 12.536088374263452L18.1640625 12.698468137473034L18.3046875 12.617278255868243" stroke-width="0.03" stroke="#000000" fill="none"/>
<path d="M17.882812500000004 12.698468137473034L17.8125 12.65787319667064L17.8125 11.927164262227517" stroke-width="0.03" stroke="#000000" fill="none"/>
<path d="M19.0078125 12.292518729449078L19.0078125 10.99348062377242L19.078125 10.952885682970024" stroke-width="0.03" stroke="#000000" fill="none"/>
<path d="M19.0078125 10.99348062377242L18.8671875 10.912290742167627" stroke-width="0.03" stroke="#000000" fill="none"/>
<path d="M18.9375 10.871695801365235L18.9375 10.790505919760442" stroke-width="0.03" stroke="#000000" fill="none"/>
<path d="M18.8671875 10.181581807724509L19.078125 10.059796985317323" stroke-width="0.03" stroke="#000000" fill="none"/>
<path d="M16.617187500000004 12.536088374263452L16.617187500000004 16.433202691293424" stroke-width="0.03" stroke="#000000" fill="none"/>
<path d="M17.6015625 16.189633046479052L17.7421875 16.270822928083845L17.7421875 19.03127890264674L15.351562500000002 20.41150688992819" stroke-width="0.03" stroke="#000000" fill="none"/>
<path d="M15.2109375 20.330317008323398L15.2109375 20.736266416347355" stroke-width="0.03" stroke="#000000" fill="none"/>
<path d="M14.9296875 19.356038429065904L11.5546875 21.304595587580895" stroke-width="0.03" stroke="#000000" fill="none"/>
<path d="M11.625000000000002 21.101620883568916L11.625000000000002 20.61448159394017" stroke-width="0.03" stroke="#000000" fill="none"/>
<path d="M11.273437500000002 21.71054499560485L10.921875000000002 21.913519699616828" stroke-width="0.03" stroke="#000000" fill="none"/>
<path d="M10.570312500000002 23.33434262770067L10.570312500000002 24.308621206958165L10.5 24.26802626615577" stroke-width="0.03" stroke="#000000" fill="none"/>
<path d="M15.28125 18.097595264191643L15.703125000000002 17.85402561937727L15.703125000000002 17.366886329748525" stroke-width="0.03" stroke="#000000" fill="none"/>
<path d="M15.5625 17.448076211353314L15.5625 17.77283573777248L15.703125000000002 17.85402561937727" stroke-width="0.03" stroke="#000000" fill="none"/>
<path d="M15.5625 17.77283573777248L15.28125 17.93521550098206" stroke-width="0.03" stroke="#000000" fill="none"/>
<path d="M17.109375 18.665924435425183L17.7421875 19.03127890264674" stroke-width="0.03" stroke="#000000" fill="none"/>
<path d="M17.7421875 19.843177718694655L17.7421875 20.249127126718612" stroke-width="0.03" stroke="#000000" fill="none"/>
<path d="M18.796875 18.422354790610807L18.4453125 18.219380086598832" stroke-width="0.03" stroke="#000000" fill="none"/>
<path d="M17.7421875 16.270822928083845L18.4453125 15.864873520059888" stroke-width="0.03" stroke="#000000" fill="none"/>
<path d="M18.0234375 15.621303875245514L18.0234375 14.647025295988021L17.953125000000004 14.606430355185626" stroke-width="0.03" stroke="#000000" fill="none"/>
<path d="M18.0234375 14.647025295988021L17.953125000000004 14.687620236790417" stroke-width="0.03" stroke="#000000" fill="none"/>
<path d="M16.546875 14.444050591976044L16.40625 14.525240473580833" stroke-width="0.03" stroke="#000000" fill="none"/>
<path d="M16.40625 14.444050591976044L16.4765625 14.403455651173648" stroke-width="0.03" stroke="#000000" fill="none"/>
<path d="M16.40625 14.362860710371251L15.5625 14.85" stroke-width="0.03" stroke="#000000" fill="none"/>
<path d="M15.5625 14.444050591976044L15.9140625 14.241075887964065L15.9140625 13.753936598335319L15.843750000000002 13.713341657532922L15.843750000000002 13.632151775928133L15.5625 13.46977201271855" stroke-width="0.03" stroke="#000000" fill="none"/>
<path d="M15.5625 13.794531539137715L15.843750000000002 13.632151775928133" stroke-width="0.03" stroke="#000000" fill="none"/>
<path d="M15.843750000000002 13.713341657532922L15.5625 13.875721420742504" stroke-width="0.03" stroke="#000000" fill="none"/>
<path d="M15.5625 13.956911302347297L15.9140625 13.753936598335319" stroke-width="0.03" stroke="#000000" fill="none"/>
<path d="M15.9140625 14.241075887964065L16.0546875 14.322265769568856" stroke-width="0.03" stroke="#000000" fill="none"/>
<path d="M16.0546875 12.942037782287407L16.4765625 12.698468137473034" stroke-width="0.03" stroke="#000000" fill="none"/>
<path d="M7.264131938244363 2.2599663291074443L1.5 2.2599663291074443" stroke-width="0.03" stroke="#000000" fill="none"/>
<path d="M2.0824957911384305 2.015598694615191L2.0824957911384305 1.7268634256306838" stroke-width="0.03" stroke="#000000" fill="none"/>
<path d="M2.061871843353823 1.5824957911384305L2.0824957911384305 1.6031197389230383L2.1031197389230383 1.5824957911384305L2.0824957911384305 1.5618718433538228L2.061871843353823 1.5824957911384305" stroke-width="0.03" stroke="#000000" fill="none"/>
<path d="M2.226863425630684 1.953726851261368L2.2474873734152916 1.9949747468305832L2.3093592167691144 2.015598694615191L2.3712310601229376 2.015598694615191L2.4331029034767604 1.9949747468305832L2.4537268512613677 1.953726851261368L2.4537268512613677 1.9331029034767604L2.4331029034767604 1.891855007907545L2.391855007907545 1.8712310601229374L2.2887352689845066 1.8506071123383299L2.2474873734152916 1.8299831645537221L2.226863425630684 1.7887352689845069L2.2474873734152916 1.7474873734152916L2.3093592167691144 1.7268634256306838L2.3712310601229376 1.7268634256306838L2.4331029034767604 1.7474873734152916L2.4537268512613677 1.7887352689845069" stroke-width="0.03" stroke="#000000" fill="none"/>
<path d="M2.680590276892052 1.7268634256306838L2.6393423813228365 1.7474873734152916L2.5980944857536215 1.7887352689845069L2.5774705379690137 1.8506071123383299L2.5774705379690137 1.891855007907545L2.5980944857536215 1.953726851261368L2.6393423813228365 1.9949747468305832L2.680590276892052 2.015598694615191L2.7424621202458748 2.015598694615191L2.78371001581509 1.9949747468305832L2.8249579113843053 1.953726851261368L2.845581859168913 1.891855007907545L2.845581859168913 1.8506071123383299L2.8249579113843053 1.7887352689845069L2.78371001581509 1.7474873734152916L2.7424621202458748 1.7268634256306838L2.680590276892052 1.7268634256306838" stroke-width="0.03" stroke="#000000" fill="none"/>
<path d="M2.907453702522736 2.056846590184406L3.237436867076458 2.056846590184406" stroke-width="0.03" stroke="#000000" fill="none"/>
<path d="M3.2993087104302807 1.953726851261368L3.3199326582148885 1.9949747468305832L3.3818045015687113 2.015598694615191L3.443676344922534 2.015598694615191L3.5055481882763573 1.9949747468305832L3.526172136060965 1.953726851261368L3.526172136060965 1.9331029034767604L3.5055481882763573 1.891855007907545L3.464300292707142 1.8712310601229374L3.361180553784104 1.8506071123383299L3.3199326582148885 1.8299831645537221L3.2993087104302807 1.7887352689845069L3.3199326582148885 1.7474873734152916L3.3818045015687113 1.7268634256306838L3.443676344922534 1.7268634256306838L3.5055481882763573 1.7474873734152916L3.526172136060965 1.7887352689845069" stroke-width="0.03" stroke="#000000" fill="none"/>
<path d="M3.6705397705532183 1.8093592167691144L3.732411613907041 1.7474873734152916L3.773659509476256 1.7268634256306838L3.8355313528300794 1.7268634256306838L3.8767792483992944 1.7474873734152916L3.897403196183902 1.8093592167691144L3.897403196183902 2.015598694615191" stroke-width="0.03" stroke="#000000" fill="none"/>
<path d="M3.6705397705532183 2.015598694615191L3.6705397705532183 1.7268634256306838" stroke-width="0.03" stroke="#000000" fill="none"/>
<path d="M4.144890569599194 1.7268634256306838L4.103642674029978 1.7474873734152916L4.062394778460764 1.7887352689845069L4.041770830676155 1.8506071123383299L4.041770830676155 1.891855007907545L4.062394778460764 1.953726851261368L4.103642674029978 1.9949747468305832L4.144890569599194 2.015598694615191L4.206762412953017 2.015598694615191L4.2480103085222325 1.9949747468305832L4.289258204091447 1.953726851261368L4.309882151876055 1.891855007907545L4.309882151876055 1.8506071123383299L4.289258204091447 1.7887352689845069L4.2480103085222325 1.7474873734152916L4.206762412953017 1.7268634256306838L4.144890569599194 1.7268634256306838" stroke-width="0.03" stroke="#000000" fill="none"/>
<path d="M4.4336258385837 1.7268634256306838L4.516121629722131 2.015598694615191L4.5986174208605615 1.7268634256306838L4.681113211998992 2.015598694615191L4.7636090031374225 1.7268634256306838" stroke-width="0.03" stroke="#000000" fill="none"/>
<path d="M4.866728742060461 1.7268634256306838L5.011096376552715 1.7268634256306838" stroke-width="0.03" stroke="#000000" fill="none"/>
<path d="M5.031720324337321 1.5824957911384305L4.990472428768107 1.5824957911384305L4.949224533198891 1.6031197389230383L4.928600585414284 1.664991582276861L4.928600585414284 2.015598694615191" stroke-width="0.03" stroke="#000000" fill="none"/>
<path d="M5.155464011044968 2.015598694615191L5.155464011044968 1.5824957911384305" stroke-width="0.03" stroke="#000000" fill="none"/>
<path d="M5.547319018952512 1.7268634256306838L5.547319018952512 2.015598694615191" stroke-width="0.03" stroke="#000000" fill="none"/>
<path d="M5.547319018952512 1.953726851261368L5.506071123383298 1.9949747468305832L5.464823227814082 2.015598694615191L5.402951384460259 2.015598694615191L5.3617034888910435 1.9949747468305832L5.320455593321829 1.953726851261368L5.299831645537221 1.891855007907545L5.299831645537221 1.8506071123383299L5.320455593321829 1.7887352689845069L5.3617034888910435 1.7474873734152916L5.402951384460259 1.7268634256306838L5.464823227814082 1.7268634256306838L5.506071123383298 1.7474873734152916L5.547319018952512 1.7887352689845069" stroke-width="0.03" stroke="#000000" fill="none"/>
<path d="M5.712310601229374 1.9331029034767604L5.91855007907545 1.7268634256306838" stroke-width="0.03" stroke="#000000" fill="none"/>
<path d="M5.794806392367804 1.8506071123383299L5.939174026860058 2.015598694615191" stroke-width="0.03" stroke="#000000" fill="none"/>
<path d="M6.042293765783096 1.8506071123383299L6.2897811391983875 1.8506071123383299L6.2897811391983875 1.8093592167691144L6.26915719141378 1.7681113211998993L6.248533243629172 1.7474873734152916L6.207285348059957 1.7268634256306838L6.145413504706134 1.7268634256306838L6.104165609136919 1.7474873734152916L6.062917713567703 1.7887352689845069L6.042293765783096 1.8506071123383299L6.042293765783096 1.891855007907545L6.062917713567703 1.953726851261368L6.104165609136919 1.9949747468305832L6.145413504706134 2.015598694615191L6.207285348059957 2.015598694615191L6.248533243629172 1.9949747468305832L6.2897811391983875 1.953726851261368" stroke-width="0.03" stroke="#000000" fill="none"/>
<path d="M6.578516408182894 2.015598694615191L6.578516408182894 1.5824957911384305L6.516644564829072 1.6443676344922533L6.475396669259856 1.664991582276861" stroke-width="0.03" stroke="#000000" fill="none"/>
<path d="M5.712310601229374 1.5824957911384305L5.712310601229374 2.015598694615191" stroke-width="0.03" stroke="#000000" fill="none"/>
<path d="M4.3070804290694005 2.761936734812169L4.332573030495582 2.7491904340990785L4.370811932634854 2.7109515319598065L4.370811932634854 2.9786238469347097" stroke-width="0.03" stroke="#000000" fill="none"/>
<path d="M4.192363722651585 2.9148923433692566L4.179617421938495 2.9403849447954378L4.154124820512314 2.965877546221619L4.128632219086132 2.9786238469347097L4.07764701623377 2.9786238469347097L4.052154414807589 2.965877546221619L4.026661813381407 2.9403849447954378L4.013915512668317 2.9148923433692566L4.001169211955226 2.8766534412299847L4.001169211955226 2.8129219376645316L4.013915512668317 2.7746830355252596L4.026661813381407 2.7491904340990785L4.052154414807589 2.7236978326728973L4.07764701623377 2.7109515319598065L4.128632219086132 2.7109515319598065L4.154124820512314 2.7236978326728973L4.179617421938495 2.7491904340990785L4.192363722651585 2.7746830355252596" stroke-width="0.03" stroke="#000000" fill="none"/>
<path d="M3.911945106963592 2.7491904340990785L3.899198806250501 2.7236978326728973L3.8609599041112292 2.7109515319598065L3.835467302685048 2.7109515319598065L3.797228400545776 2.7236978326728973L3.771735799119595 2.761936734812169L3.758989498406504 2.825668238377622L3.758989498406504 2.889399741943075L3.771735799119595 2.9403849447954378L3.797228400545776 2.965877546221619L3.835467302685048 2.9786238469347097L3.848213603398139 2.9786238469347097L3.8864525055374104 2.965877546221619L3.911945106963592 2.9403849447954378L3.9246914076766823 2.902146042656166L3.9246914076766823 2.889399741943075L3.911945106963592 2.8511608398038035L3.8864525055374104 2.825668238377622L3.848213603398139 2.8129219376645316L3.835467302685048 2.8129219376645316L3.797228400545776 2.825668238377622L3.771735799119595 2.8511608398038035L3.758989498406504 2.889399741943075" stroke-width="0.03" stroke="#000000" fill="none"/>
<path d="M3.631526491275598 2.8384145390907127L3.5295560855708734 2.8384145390907127" stroke-width="0.03" stroke="#000000" fill="none"/>
<path d="M3.402093078439967 2.8384145390907127L3.3001226727352426 2.8384145390907127" stroke-width="0.03" stroke="#000000" fill="none"/>
<path d="M3.210898567743608 2.7746830355252596L3.198152267030517 2.7491904340990785L3.1726596656043364 2.7236978326728973L3.147167064178155 2.7109515319598065L3.0961818613257925 2.7109515319598065L3.0706892598996114 2.7236978326728973L3.0451966584734302 2.7491904340990785L3.0324503577603394 2.7746830355252596L3.0197040570472486 2.8129219376645316L3.0197040570472486 2.8766534412299847L3.0324503577603394 2.9148923433692566L3.0451966584734302 2.9403849447954378L3.0706892598996114 2.965877546221619L3.0961818613257925 2.9786238469347097L3.147167064178155 2.9786238469347097L3.1726596656043364 2.965877546221619L3.198152267030517 2.9403849447954378L3.210898567743608 2.9148923433692566" stroke-width="0.03" stroke="#000000" fill="none"/>
<path d="M3.3001226727352426 2.9786238469347097L3.3001226727352426 2.7109515319598065L3.4658245820054203 2.7109515319598065" stroke-width="0.03" stroke="#000000" fill="none"/>
<path d="M3.5295560855708734 2.7109515319598065L3.5295560855708734 2.9786238469347097" stroke-width="0.03" stroke="#000000" fill="none"/>
<path d="M3.5295560855708734 2.7109515319598065L3.695257994841051 2.7109515319598065" stroke-width="0.03" stroke="#000000" fill="none"/>
<path d="M2.917733651342524 2.7109515319598065L2.790270644211618 2.7109515319598065L2.777524343498527 2.825668238377622L2.790270644211618 2.8129219376645316L2.82850954635089 2.8001756369514412L2.8667484484901617 2.8001756369514412L2.9049873506294333 2.8129219376645316L2.930479952055615 2.8384145390907127L2.943226252768705 2.8766534412299847L2.943226252768705 2.902146042656166L2.930479952055615 2.9403849447954378L2.9049873506294333 2.965877546221619L2.8667484484901617 2.9786238469347097L2.82850954635089 2.9786238469347097L2.790270644211618 2.965877546221619L2.777524343498527 2.953131245508528L2.7647780427854367 2.927638644082347" stroke-width="0.03" stroke="#000000" fill="none"/>
<path d="M2.5098520285236243 2.927638644082347L2.522598329236715 2.953131245508528L2.5353446299498055 2.965877546221619L2.5735835320890774 2.9786238469347097L2.6118224342283494 2.9786238469347097L2.6500613363676213 2.965877546221619L2.6755539377938025 2.9403849447954378L2.6883002385068933 2.902146042656166L2.6883002385068933 2.8766534412299847L2.6755539377938025 2.8384145390907127L2.6628076370807117 2.825668238377622L2.6373150356545305 2.8129219376645316L2.5990761335152586 2.8129219376645316L2.6755539377938025 2.7109515319598065L2.5353446299498055 2.7109515319598065" stroke-width="0.03" stroke="#000000" fill="none"/>
<path d="M2.433374224245081 2.8001756369514412L2.293164916401084 2.9786238469347097" stroke-width="0.03" stroke="#000000" fill="none"/>
<path d="M2.433374224245081 2.9786238469347097L2.293164916401084 2.8001756369514412" stroke-width="0.03" stroke="#000000" fill="none"/>
<path d="M2.1147167064178154 2.7109515319598065L2.076477804278544 2.7236978326728973L2.0509852028523623 2.761936734812169L2.038238902139272 2.825668238377622L2.038238902139272 2.8639071405168943L2.0509852028523623 2.927638644082347L2.076477804278544 2.965877546221619L2.1147167064178154 2.9786238469347097L2.140209307843997 2.9786238469347097L2.1784482099832685 2.965877546221619L2.2039408114094496 2.927638644082347L2.2166871121225404 2.8639071405168943L2.2166871121225404 2.825668238377622L2.2039408114094496 2.761936734812169L2.1784482099832685 2.7236978326728973L2.140209307843997 2.7109515319598065L2.1147167064178154 2.7109515319598065" stroke-width="0.03" stroke="#000000" fill="none"/>
</svg>
