<?xml version="1.0" standalone="no"?>
<svg width="21cm" height="29.7cm" version="1.1" xmlns="http://www.w3.org/2000/svg" viewBox="0.0 0.0 21.000001 29.700001">
<path d="M5.6484375 7.421125833161611L6.914062500000001 6.69041689871849L9.1640625 7.989455004395149L9.1640625 8.07064488599994" stroke-width="0.03" stroke="#000000" fill="none"/>
<path d="M9.1640625 7.989455004395149L7.898437500000001 8.720163938838269L7.898437500000001 8.80135382044306" stroke-width="0.03" stroke="#000000" fill="none"/>
<path d="M7.96875 8.841948761245455L8.25 8.679568998035872L8.53125 8.841948761245455" stroke-width="0.03" stroke="#000000" fill="none"/>
<path d="M8.4609375 8.80135382044306L8.4609375 8.476594294023895L9.9375 7.624100537173588L10.5 7.948860063592752L11.0625 7.624100537173588L12.539062500000002 8.476594294023895L12.539062500000002 8.80135382044306" stroke-width="0.03" stroke="#000000" fill="none"/>
<path d="M12.46875 8.841948761245455L12.75 8.679568998035872L13.031250000000002 8.841948761245455" stroke-width="0.03" stroke="#000000" fill="none"/>
<path d="M13.1015625 8.80135382044306L13.1015625 8.720163938838269L11.835937500000002 7.989455004395149L14.0859375 6.69041689871849L15.351562500000002 7.421125833161611L15.351562500000002 8.07064488599994" stroke-width="0.03" stroke="#000000" fill="none"/>
<path d="M15.000000000000002 7.867670181987961L14.015625 8.435999353221499L14.015625 8.923138642850246" stroke-width="0.03" stroke="#000000" fill="none"/>
<path d="M13.875 8.841948761245455L14.015625 8.760758879640663L13.734375 8.598379116431081L13.593750000000002 8.679568998035872L13.5234375 8.638974057233478L13.382812500000002 8.720163938838269" stroke-width="0.03" stroke="#000000" fill="none"/>
<path d="M13.3125 8.679568998035872L11.484375000000002 9.735037458898159L11.484375000000002 9.816227340502948L12.890625000000002 10.62812615655086L12.890625000000002 10.709316038155652L12.539062500000002 10.912290742167627L10.7109375 9.856822281305345L10.5 9.97860710371253L10.2890625 9.856822281305345L8.4609375 10.912290742167627L8.109375 10.709316038155652L7.757812499999999 10.912290742167627" stroke-width="0.03" stroke="#000000" fill="none"/>
<path d="M7.6875 10.871695801365235L7.3359375 11.074670505377211L7.3359375 11.155860386982003L5.859375000000001 12.00835414383231L5.859375000000001 12.170733907041893L7.3359375 13.023227663892198L7.3359375 12.860847900682616L10.5 11.034075564574817L13.6640625 12.860847900682616L15.140625 12.00835414383231L15.140625 12.170733907041893L13.6640625 13.023227663892198L13.6640625 12.860847900682616" stroke-width="0.03" stroke="#000000" fill="none"/>
<path d="M13.6640625 13.023227663892198L13.8046875 13.10441754549699L13.8046875 16.75796221771259L10.640625 18.58473455382039L10.5 18.5035446722156L10.359375 18.58473455382039L7.1953125 16.75796221771259L7.1953125 13.10441754549699L5.71875 12.251923788646682L5.71875 13.956911302347297L6.84375 14.606430355185626L6.84375 15.012379763209582L6.7734375 15.052974704011977L5.6484375 14.403455651173648L5.6484375 13.997506243149692L5.71875 13.956911302347297" stroke-width="0.03" stroke="#000000" fill="none"/>
<path d="M5.6484375 13.997506243149692L6.7734375 14.647025295988021L6.84375 14.606430355185626" stroke-width="0.03" stroke="#000000" fill="none"/>
<path d="M6.7734375 14.647025295988021L6.7734375 15.052974704011977" stroke-width="0.03" stroke="#000000" fill="none"/>
<path d="M6.0703125 15.052974704011977L6 15.093569644814371L5.6484375 14.890594940802394L5.6484375 16.514392572898217L5.578125 16.55498751370061L3.7499999999999996 15.499519052838329L3.7499999999999996 11.115265446179606L3.8906249999999996 11.034075564574817L3.8906249999999996 10.871695801365235L7.6875 8.679568998035872L9.515625 9.735037458898159L9.515625 9.816227340502948L8.109375 10.62812615655086L8.109375 10.709316038155652" stroke-width="0.03" stroke="#000000" fill="none"/>
<path d="M8.109375 10.62812615655086L8.4609375 10.831100860562838L8.4609375 10.912290742167627" stroke-width="0.03" stroke="#000000" fill="none"/>
<path d="M8.4609375 10.831100860562838L10.5 9.653847577293366L12.539062500000002 10.831100860562838L12.539062500000002 10.912290742167627" stroke-width="0.03" stroke="#000000" fill="none"/>
<path d="M12.539062500000002 10.831100860562838L12.890625000000002 10.62812615655086" stroke-width="0.03" stroke="#000000" fill="none"/>
<path d="M12.890625000000002 10.709316038155652L13.242187500000002 10.912290742167627" stroke-width="0.03" stroke="#000000" fill="none"/>
<path d="M13.3125 10.871695801365235L12.187500000000002 11.521214854203564L12.187500000000002 11.602404735808353L12.539062500000002 11.805379439820332L13.6640625 11.155860386982003L13.6640625 11.074670505377211L13.3125 10.871695801365235" stroke-width="0.03" stroke="#000000" fill="none"/>
<path d="M13.6640625 11.074670505377211L12.539062500000002 11.72418955821554L12.187500000000002 11.521214854203564" stroke-width="0.03" stroke="#000000" fill="none"/>
<path d="M12.539062500000002 11.72418955821554L12.539062500000002 11.805379439820332" stroke-width="0.03" stroke="#000000" fill="none"/>
<path d="M11.90625 12.251923788646682L11.4140625 12.536088374263452L12.046875 12.90144284148501" stroke-width="0.03" stroke="#000000" fill="none"/>
<path d="M11.976562500000002 12.860847900682616L12.1171875 12.779658019077825L11.90625 12.65787319667064L11.765625 12.739063078275429" stroke-width="0.03" stroke="#000000" fill="none"/>
<path d="M11.90625 12.65787319667064L11.90625 12.251923788646682L10.9921875 11.72418955821554L10.5 12.00835414383231L10.0078125 11.72418955821554L9.09375 12.251923788646682L9.09375 12.65787319667064L8.8828125 12.779658019077825L8.8828125 12.860847900682616" stroke-width="0.03" stroke="#000000" fill="none"/>
<path d="M8.8125 12.820252959880222L8.0390625 13.266797308706572L8.0390625 13.429177071916154L7.898437500000001 13.510366953520945L7.898437500000001 14.403455651173648L8.25 14.606430355185626" stroke-width="0.03" stroke="#000000" fill="none"/>
<path d="M8.25 14.687620236790417L8.25 14.525240473580833L8.53125 14.362860710371251L8.8125 14.525240473580833L9.375 14.200480947161669L9.375 13.55096189432334L9.09375 13.388582131113758L9.09375 13.063822604694593L9.234375 12.982632723089804L10.359375 13.632151775928133L10.359375 14.606430355185626L10.5 14.525240473580833L10.640625 14.606430355185626L10.640625 13.632151775928133L11.765625 12.982632723089804L11.90625 13.063822604694593L11.90625 13.388582131113758L11.625000000000002 13.55096189432334L11.625000000000002 14.200480947161669L10.78125 14.687620236790417L11.625000000000002 15.174759526419164L11.625000000000002 15.499519052838329L12.046875 15.7430886976527L11.484375000000002 16.067848224071867" stroke-width="0.03" stroke="#000000" fill="none"/>
<path d="M11.34375 15.661898816047911L11.625000000000002 15.499519052838329" stroke-width="0.03" stroke="#000000" fill="none"/>
<path d="M11.484375000000002 15.580708934443118L11.484375000000002 16.879747040119774L11.34375 16.960936921724567L11.0625 16.79855715851499L11.0625 16.473797632095824L10.5 16.14903810567666L10.5 15.174759526419164L9.65625 15.661898816047911L9.65625 16.960936921724567L9.9375 16.79855715851499L9.9375 16.473797632095824L10.5 16.14903810567666" stroke-width="0.03" stroke="#000000" fill="none"/>
<path d="M10.5 16.636177395305403L10.359375 16.717367276910196L10.359375 17.77283573777248L10.5 17.69164585616769L10.640625 17.77283573777248L11.4140625 17.326291388946128L11.4140625 16.920341980922174" stroke-width="0.03" stroke="#000000" fill="none"/>
<path d="M11.34375 16.960936921724567L11.34375 15.661898816047911L10.5 15.174759526419164" stroke-width="0.03" stroke="#000000" fill="none"/>
<path d="M10.5 15.012379763209582L10.640625 14.931189881604789L10.640625 14.768810118395209L10.5 14.687620236790417L10.359375 14.768810118395209L10.359375 14.931189881604789L10.5 15.012379763209582L10.5 14.525240473580833" stroke-width="0.03" stroke="#000000" fill="none"/>
<path d="M10.640625 14.768810118395209L10.218750000000002 15.012379763209582L10.218750000000002 14.85L9.375 15.337139289628746L8.25 14.687620236790417" stroke-width="0.03" stroke="#000000" fill="none"/>
<path d="M8.25 14.525240473580833L9.375 15.174759526419164L9.375 15.499519052838329L9.65625 15.661898816047911" stroke-width="0.03" stroke="#000000" fill="none"/>
<path d="M9.515625 15.580708934443118L10.359375 15.093569644814371L10.218750000000002 15.012379763209582" stroke-width="0.03" stroke="#000000" fill="none"/>
<path d="M10.359375 14.768810118395209L10.78125 15.012379763209582L10.78125 14.85L11.625000000000002 15.337139289628746L12.75 14.687620236790417L12.75 14.525240473580833L12.46875 14.362860710371251L12.187500000000002 14.525240473580833L11.625000000000002 14.200480947161669" stroke-width="0.03" stroke="#000000" fill="none"/>
<path d="M12.046875 13.956911302347297L12.9609375 13.429177071916154L12.9609375 13.266797308706572L12.187500000000002 12.820252959880222L11.835937500000002 13.023227663892198" stroke-width="0.03" stroke="#000000" fill="none"/>
<path d="M11.90625 13.063822604694593L10.78125 13.713341657532922L10.78125 14.687620236790417" stroke-width="0.03" stroke="#000000" fill="none"/>
<path d="M10.78125 15.012379763209582L10.640625 15.093569644814371L11.484375000000002 15.580708934443118" stroke-width="0.03" stroke="#000000" fill="none"/>
<path d="M11.625000000000002 15.174759526419164L12.75 14.525240473580833" stroke-width="0.03" stroke="#000000" fill="none"/>
<path d="M12.75 14.606430355185626L13.1015625 14.403455651173648L13.1015625 13.510366953520945L12.9609375 13.429177071916154" stroke-width="0.03" stroke="#000000" fill="none"/>
<path d="M12.9609375 13.266797308706572L12.046875 13.794531539137715L12.046875 13.956911302347297L12.187500000000002 14.038101183952087L13.1015625 13.510366953520945" stroke-width="0.03" stroke="#000000" fill="none"/>
<path d="M13.8046875 13.10441754549699L15.28125 12.251923788646682L15.28125 13.956911302347297L14.15625 14.606430355185626L14.15625 15.012379763209582L14.2265625 15.052974704011977L15.351562500000002 14.403455651173648L15.351562500000002 13.997506243149692L15.28125 13.956911302347297" stroke-width="0.03" stroke="#000000" fill="none"/>
<path d="M15.351562500000002 13.997506243149692L14.2265625 14.647025295988021L14.15625 14.606430355185626" stroke-width="0.03" stroke="#000000" fill="none"/>
<path d="M14.2265625 14.647025295988021L14.2265625 15.052974704011977" stroke-width="0.03" stroke="#000000" fill="none"/>
<path d="M14.9296875 15.052974704011977L15.28125 14.85L15.351562500000002 14.890594940802394L15.351562500000002 16.514392572898217L15.421875 16.55498751370061L17.25 15.499519052838329L17.25 11.115265446179606L17.109375 11.034075564574817L17.109375 10.871695801365235L13.3125 8.679568998035872" stroke-width="0.03" stroke="#000000" fill="none"/>
<path d="M13.1015625 8.720163938838269L15.351562500000002 7.421125833161611" stroke-width="0.03" stroke="#000000" fill="none"/>
<path d="M15.000000000000002 7.867670181987961L16.3359375 8.638974057233478L16.3359375 8.314214530814313L16.1953125 8.233024649209522L15.9140625 8.395404412419104" stroke-width="0.03" stroke="#000000" fill="none"/>
<path d="M16.0546875 8.476594294023895L16.3359375 8.314214530814313" stroke-width="0.03" stroke="#000000" fill="none"/>
<path d="M16.7578125 8.395404412419104L14.9296875 9.450872873281389L14.9296875 9.53206275488618L16.0546875 10.181581807724509L16.125 10.140986866922113L17.25 10.790505919760442L15.28125 11.927164262227517L15.28125 12.0895440254371L15.421875 12.170733907041893L15.421875 16.55498751370061" stroke-width="0.03" stroke="#000000" fill="none"/>
<path d="M14.9296875 17.163911625736546L14.718749999999998 17.28569644814373L14.718749999999998 17.529266092958107L12.890625000000002 18.58473455382039L12.890625000000002 18.990683961844347L12.539062500000002 19.193658665856326" stroke-width="0.03" stroke="#000000" fill="none"/>
<path d="M12.539062500000002 19.274848547461115L12.187500000000002 19.477823251473097L12.1171875 19.437228310670697L12.1171875 18.13819020499404L12.46875 17.93521550098206L12.539062500000002 17.975810441784457L12.539062500000002 19.274848547461115" stroke-width="0.03" stroke="#000000" fill="none"/>
<path d="M12.187500000000002 19.477823251473097L12.187500000000002 18.178785145796436L12.539062500000002 17.975810441784457" stroke-width="0.03" stroke="#000000" fill="none"/>
<path d="M12.187500000000002 18.178785145796436L12.1171875 18.13819020499404" stroke-width="0.03" stroke="#000000" fill="none"/>
<path d="M12.046875 17.366886329748525L12.9609375 16.83915209931738L12.9609375 16.270822928083845L13.453125 15.986658342467075L13.453125 14.931189881604789L13.1015625 14.728215177592812L12.9609375 14.809405059197603" stroke-width="0.03" stroke="#000000" fill="none"/>
<path d="M13.1015625 14.728215177592812L13.1015625 14.484645532778439L13.031250000000002 14.444050591976044" stroke-width="0.03" stroke="#000000" fill="none"/>
<path d="M13.1015625 14.484645532778439L12.9609375 14.56583541438323" stroke-width="0.03" stroke="#000000" fill="none"/>
<path d="M12.9609375 14.484645532778439L12.9609375 15.215354467221559L13.453125 14.931189881604789" stroke-width="0.03" stroke="#000000" fill="none"/>
<path d="M13.1015625 16.189633046479052L13.1015625 16.352012809688635L13.8046875 16.75796221771259" stroke-width="0.03" stroke="#000000" fill="none"/>
<path d="M13.1015625 16.352012809688635L12.9609375 16.433202691293424" stroke-width="0.03" stroke="#000000" fill="none"/>
<path d="M12.046875 16.79855715851499L11.4140625 17.163911625736546" stroke-width="0.03" stroke="#000000" fill="none"/>
<path d="M11.484375000000002 17.123316684934153L11.484375000000002 17.28569644814373L11.4140625 17.24510150734134" stroke-width="0.03" stroke="#000000" fill="none"/>
<path d="M11.484375000000002 17.28569644814373L11.6953125 17.163911625736546L11.6953125 17.001531862526964" stroke-width="0.03" stroke="#000000" fill="none"/>
<path d="M11.6953125 17.163911625736546L12.046875 17.366886329748525L12.046875 16.79855715851499" stroke-width="0.03" stroke="#000000" fill="none"/>
<path d="M11.0625 16.473797632095824L10.640625 16.717367276910196L10.640625 17.77283573777248" stroke-width="0.03" stroke="#000000" fill="none"/>
<path d="M10.5 17.69164585616769L10.5 16.636177395305403L10.640625 16.717367276910196" stroke-width="0.03" stroke="#000000" fill="none"/>
<path d="M10.359375 16.717367276910196L9.9375 16.473797632095824" stroke-width="0.03" stroke="#000000" fill="none"/>
<path d="M9.65625 16.960936921724567L9.515625 16.879747040119774L9.515625 15.580708934443118" stroke-width="0.03" stroke="#000000" fill="none"/>
<path d="M9.375 15.499519052838329L8.953125 15.7430886976527L8.953125 15.093569644814371" stroke-width="0.03" stroke="#000000" fill="none"/>
<path d="M9.375 15.174759526419164L10.218750000000002 14.687620236790417L10.218750000000002 13.713341657532922L10.5 13.55096189432334L10.5 13.063822604694593L9.9375 13.388582131113758" stroke-width="0.03" stroke="#000000" fill="none"/>
<path d="M10.218750000000002 13.713341657532922L9.09375 13.063822604694593" stroke-width="0.03" stroke="#000000" fill="none"/>
<path d="M9.1640625 13.023227663892198L8.8125 12.820252959880222" stroke-width="0.03" stroke="#000000" fill="none"/>
<path d="M8.8828125 12.779658019077825L9.0234375 12.860847900682616" stroke-width="0.03" stroke="#000000" fill="none"/>
<path d="M8.953125 12.90144284148501L9.5859375 12.536088374263452L9.09375 12.251923788646682" stroke-width="0.03" stroke="#000000" fill="none"/>
<path d="M9.09375 12.65787319667064L9.234375 12.739063078275429" stroke-width="0.03" stroke="#000000" fill="none"/>
<path d="M9.375 13.55096189432334L8.953125 13.794531539137715L8.953125 13.956911302347297L8.8125 14.038101183952087L7.898437500000001 13.510366953520945" stroke-width="0.03" stroke="#000000" fill="none"/>
<path d="M8.0390625 13.429177071916154L8.953125 13.956911302347297" stroke-width="0.03" stroke="#000000" fill="none"/>
<path d="M8.8125 14.038101183952087L8.8125 14.525240473580833" stroke-width="0.03" stroke="#000000" fill="none"/>
<path d="M9.375 14.200480947161669L10.218750000000002 14.687620236790417" stroke-width="0.03" stroke="#000000" fill="none"/>
<path d="M10.78125 13.713341657532922L10.5 13.55096189432334" stroke-width="0.03" stroke="#000000" fill="none"/>
<path d="M10.5 13.063822604694593L11.0625 13.388582131113758" stroke-width="0.03" stroke="#000000" fill="none"/>
<path d="M11.625000000000002 13.55096189432334L12.046875 13.794531539137715" stroke-width="0.03" stroke="#000000" fill="none"/>
<path d="M12.187500000000002 14.038101183952087L12.187500000000002 14.525240473580833" stroke-width="0.03" stroke="#000000" fill="none"/>
<path d="M12.046875 15.093569644814371L12.046875 15.7430886976527" stroke-width="0.03" stroke="#000000" fill="none"/>
<path d="M9.515625 16.067848224071867L8.953125 15.7430886976527" stroke-width="0.03" stroke="#000000" fill="none"/>
<path d="M8.0390625 15.215354467221559L8.0390625 14.484645532778439" stroke-width="0.03" stroke="#000000" fill="none"/>
<path d="M7.96875 14.444050591976044L7.898437500000001 14.484645532778439L7.898437500000001 14.728215177592812L8.0390625 14.809405059197603" stroke-width="0.03" stroke="#000000" fill="none"/>
<path d="M7.898437500000001 14.728215177592812L7.546875 14.931189881604789L7.546875 15.986658342467075L8.0390625 16.270822928083845L8.0390625 16.83915209931738L8.953125 17.366886329748525L9.3046875 17.163911625736546L9.3046875 17.001531862526964" stroke-width="0.03" stroke="#000000" fill="none"/>
<path d="M9.3046875 17.163911625736546L9.515625 17.28569644814373L9.5859375 17.24510150734134" stroke-width="0.03" stroke="#000000" fill="none"/>
<path d="M9.5859375 17.326291388946128L9.5859375 16.920341980922174" stroke-width="0.03" stroke="#000000" fill="none"/>
<path d="M9.515625 17.123316684934153L9.515625 17.28569644814373" stroke-width="0.03" stroke="#000000" fill="none"/>
<path d="M9.5859375 17.326291388946128L10.359375 17.77283573777248" stroke-width="0.03" stroke="#000000" fill="none"/>
<path d="M10.5 18.5035446722156L10.5 20.208532185916212L10.359375 20.289722067521005L8.8828125 19.437228310670697L8.8828125 18.13819020499404L8.53125 17.93521550098206L8.4609375 17.975810441784457L8.4609375 19.274848547461115L8.8125 19.477823251473097L8.8828125 19.437228310670697" stroke-width="0.03" stroke="#000000" fill="none"/>
<path d="M8.8125 19.477823251473097L8.8125 18.178785145796436L8.8828125 18.13819020499404" stroke-width="0.03" stroke="#000000" fill="none"/>
<path d="M8.8125 18.178785145796436L8.4609375 17.975810441784457" stroke-width="0.03" stroke="#000000" fill="none"/>
<path d="M8.109375 18.58473455382039L8.0390625 18.625329494622786L8.0390625 19.03127890264674L8.109375 18.990683961844347L8.4609375 19.193658665856326" stroke-width="0.03" stroke="#000000" fill="none"/>
<path d="M8.109375 18.990683961844347L8.109375 18.58473455382039L6.28125 17.529266092958107L6.28125 17.28569644814373L6.0703125 17.163911625736546L6.0703125 15.052974704011977L5.71875 14.85L5.6484375 14.890594940802394" stroke-width="0.03" stroke="#000000" fill="none"/>
<path d="M5.71875 14.85L5.71875 14.444050591976044" stroke-width="0.03" stroke="#000000" fill="none"/>
<path d="M6 15.093569644814371L6 17.448076211353314L8.0390625 18.625329494622786" stroke-width="0.03" stroke="#000000" fill="none"/>
<path d="M8.0390625 19.03127890264674L6.6328125 18.219380086598832L6.5625 18.259975027401225L6.5625 20.370911949125794L10.359375 22.563038752455157L10.5 22.481848870850367L10.640625 22.563038752455157L14.437500000000002 20.370911949125794L14.437500000000002 18.259975027401225L14.367187500000002 18.219380086598832L12.9609375 19.03127890264674L12.890625000000002 18.990683961844347" stroke-width="0.03" stroke="#000000" fill="none"/>
<path d="M12.9609375 19.03127890264674L12.9609375 18.625329494622786L12.890625000000002 18.58473455382039" stroke-width="0.03" stroke="#000000" fill="none"/>
<path d="M12.9609375 18.625329494622786L15.000000000000002 17.448076211353314L15.000000000000002 15.093569644814371L15.351562500000002 14.890594940802394" stroke-width="0.03" stroke="#000000" fill="none"/>
<path d="M15.28125 14.85L15.28125 14.444050591976044" stroke-width="0.03" stroke="#000000" fill="none"/>
<path d="M14.9296875 15.052974704011977L14.9296875 17.163911625736546" stroke-width="0.03" stroke="#000000" fill="none"/>
<path d="M14.718749999999998 17.28569644814373L15.000000000000002 17.448076211353314" stroke-width="0.03" stroke="#000000" fill="none"/>
<path d="M14.437500000000002 18.259975027401225L10.640625 20.452101830730584L10.5 20.370911949125794L10.359375 20.452101830730584L6.5625 18.259975027401225" stroke-width="0.03" stroke="#000000" fill="none"/>
<path d="M6 17.448076211353314L6.28125 17.28569644814373" stroke-width="0.03" stroke="#000000" fill="none"/>
<path d="M5.578125 16.55498751370061L5.578125 12.170733907041893L5.71875 12.0895440254371L5.71875 11.927164262227517L3.7499999999999996 10.790505919760442L4.875 10.140986866922113L4.9453125 10.181581807724509L6.0703125 9.53206275488618L6.0703125 9.450872873281389L4.2421875 8.395404412419104L3.1171875 9.044923465257433L3.1171875 9.694442518095762L3.3984375 9.856822281305345L3.3984375 10.019202044514927" stroke-width="0.03" stroke="#000000" fill="none"/>
<path d="M3.2578125 10.100391926119716L3.8203125000000004 9.775632399700552L4.03125 9.897417222107741L4.03125 10.059796985317323L3.7499999999999996 10.222176748526905L3.7499999999999996 10.952885682970024L3.1171875 11.318240150191585L3.1171875 11.64299967661075L2.976562500000001 11.72418955821554L2.765625 11.602404735808353L2.765625 10.952885682970024L3.2578125 10.668721097353256L3.46875 10.790505919760442L3.46875 10.222176748526905L3.2578125 10.100391926119716L3.2578125 10.668721097353256" stroke-width="0.03" stroke="#000000" fill="none"/>
<path d="M3.46875 10.790505919760442L2.976562500000001 11.074670505377211L2.976562500000001 11.72418955821554" stroke-width="0.03" stroke="#000000" fill="none"/>
<path d="M3.1171875 11.64299967661075L3.609375 11.927164262227517" stroke-width="0.03" stroke="#000000" fill="none"/>
<path d="M3.609375 11.602404735808353L3.1171875 11.318240150191585" stroke-width="0.03" stroke="#000000" fill="none"/>
<path d="M2.976562500000001 11.074670505377211L2.765625 10.952885682970024" stroke-width="0.03" stroke="#000000" fill="none"/>
<path d="M2.765625 11.115265446179606L2.624999999999999 11.196455327784399L2.34375 11.034075564574817L1.7812499999999996 11.358835090993981L1.7812499999999996 12.65787319667064L3.609375 13.713341657532922L3.679687499999999 13.672746716730527L3.679687499999999 12.37370861105387L3.609375 12.333113670251475L3.609375 11.034075564574817L5.578125 12.170733907041893" stroke-width="0.03" stroke="#000000" fill="none"/>
<path d="M5.71875 12.251923788646682L5.859375000000001 12.170733907041893" stroke-width="0.03" stroke="#000000" fill="none"/>
<path d="M5.859375000000001 12.00835414383231L7.3359375 12.860847900682616" stroke-width="0.03" stroke="#000000" fill="none"/>
<path d="M7.3359375 13.023227663892198L7.1953125 13.10441754549699" stroke-width="0.03" stroke="#000000" fill="none"/>
<path d="M8.0390625 13.266797308706572L8.953125 13.794531539137715" stroke-width="0.03" stroke="#000000" fill="none"/>
<path d="M8.0390625 14.56583541438323L7.898437500000001 14.484645532778439" stroke-width="0.03" stroke="#000000" fill="none"/>
<path d="M7.546875 14.931189881604789L8.0390625 15.215354467221559" stroke-width="0.03" stroke="#000000" fill="none"/>
<path d="M7.898437500000001 16.189633046479052L7.898437500000001 16.352012809688635L7.1953125 16.75796221771259" stroke-width="0.03" stroke="#000000" fill="none"/>
<path d="M7.898437500000001 16.352012809688635L8.0390625 16.433202691293424" stroke-width="0.03" stroke="#000000" fill="none"/>
<path d="M8.953125 16.79855715851499L8.953125 17.366886329748525" stroke-width="0.03" stroke="#000000" fill="none"/>
<path d="M8.953125 16.79855715851499L9.5859375 17.163911625736546" stroke-width="0.03" stroke="#000000" fill="none"/>
<path d="M10.359375 18.58473455382039L10.359375 20.289722067521005" stroke-width="0.03" stroke="#000000" fill="none"/>
<path d="M10.359375 20.452101830730584L10.359375 22.72541851566474L9.234375 22.07589946282641L9.234375 21.994709581221617L8.109375 21.345190528383288L8.0390625 21.385785469185684L8.0390625 23.496722390910254L9.1640625 24.146241443748586L9.7265625 23.821481917329418L9.7265625 23.496722390910254L9.867187500000002 23.41553250930546" stroke-width="0.03" stroke="#000000" fill="none"/>
<path d="M10.0078125 23.496722390910254L10.5 23.212557805293486L10.9921875 23.496722390910254L11.5546875 23.17196286449109L11.5546875 22.928393219676718L11.4140625 22.847203338071925L11.4140625 22.27887416683839" stroke-width="0.03" stroke="#000000" fill="none"/>
<path d="M11.1328125 22.44125393004797L11.1328125 23.009583101281507L11.4140625 22.847203338071925" stroke-width="0.03" stroke="#000000" fill="none"/>
<path d="M11.5546875 22.928393219676718L10.9921875 23.253152746095882L10.9921875 23.496722390910254" stroke-width="0.03" stroke="#000000" fill="none"/>
<path d="M11.1328125 23.41553250930546L11.273437500000002 23.496722390910254L11.273437500000002 23.821481917329418L11.835937500000002 24.146241443748586L12.9609375 23.496722390910254L12.9609375 21.385785469185684L12.890625000000002 21.345190528383288L11.765625 21.994709581221617L11.765625 22.07589946282641L10.640625 22.72541851566474L10.640625 20.452101830730584" stroke-width="0.03" stroke="#000000" fill="none"/>
<path d="M10.640625 20.289722067521005L12.1171875 19.437228310670697" stroke-width="0.03" stroke="#000000" fill="none"/>
<path d="M10.640625 18.58473455382039L10.640625 20.289722067521005L10.5 20.208532185916212" stroke-width="0.03" stroke="#000000" fill="none"/>
<path d="M10.5 20.370911949125794L10.5 22.644228634059946L9.867187500000002 23.009583101281507L9.5859375 22.847203338071925L9.5859375 22.27887416683839" stroke-width="0.03" stroke="#000000" fill="none"/>
<path d="M9.867187500000002 22.44125393004797L9.867187500000002 23.009583101281507" stroke-width="0.03" stroke="#000000" fill="none"/>
<path d="M10.0078125 23.253152746095882L10.5 22.96898816047911L10.9921875 23.253152746095882" stroke-width="0.03" stroke="#000000" fill="none"/>
<path d="M11.1328125 23.009583101281507L10.5 22.644228634059946" stroke-width="0.03" stroke="#000000" fill="none"/>
<path d="M10.5 22.96898816047911L10.5 23.212557805293486" stroke-width="0.03" stroke="#000000" fill="none"/>
<path d="M10.0078125 23.253152746095882L10.0078125 23.496722390910254L9.4453125 23.17196286449109L9.4453125 22.928393219676718L9.5859375 22.847203338071925" stroke-width="0.03" stroke="#000000" fill="none"/>
<path d="M9.4453125 22.928393219676718L10.0078125 23.253152746095882" stroke-width="0.03" stroke="#000000" fill="none"/>
<path d="M9.1640625 24.146241443748586L9.1640625 22.035304522024013L9.234375 21.994709581221617" stroke-width="0.03" stroke="#000000" fill="none"/>
<path d="M9.1640625 22.035304522024013L6.984375 20.776861357149752L6.984375 20.939241120359334L6.703125 20.776861357149752L6.703125 20.61448159394017L6.6328125 20.573886653137773L6.6328125 20.41150688992819" stroke-width="0.03" stroke="#000000" fill="none"/>
<path d="M6.492187500000001 20.16793724511382L6.5625 20.12734230431142" stroke-width="0.03" stroke="#000000" fill="none"/>
<path d="M6.5625 20.04615242270663L6.28125 19.883772659497048L6.28125 19.559013133077883" stroke-width="0.03" stroke="#000000" fill="none"/>
<path d="M6.28125 19.640203014682676L6 19.802582777892262L4.5234375 18.95008902104195L4.5234375 18.30056996820362L3.9609375 17.975810441784457L3.9609375 16.270822928083845L4.2421875 16.10844316487426" stroke-width="0.03" stroke="#000000" fill="none"/>
<path d="M4.3125 16.14903810567666L4.03125 15.986658342467075L4.03125 15.661898816047911" stroke-width="0.03" stroke="#000000" fill="none"/>
<path d="M3.9609375 15.621303875245514L3.8906249999999996 15.661898816047911L3.8906249999999996 17.123316684934153L1.6406249999999998 15.824278579257493L1.6406249999999998 14.362860710371251L2.203125 14.038101183952087" stroke-width="0.03" stroke="#000000" fill="none"/>
<path d="M2.203125 14.444050591976044L2.203125 12.90144284148501L1.9218750000000004 13.063822604694593L1.9218750000000004 13.226202367904175L2.203125 13.388582131113758" stroke-width="0.03" stroke="#000000" fill="none"/>
<path d="M2.203125 13.226202367904175L1.9218750000000004 13.063822604694593" stroke-width="0.03" stroke="#000000" fill="none"/>
<path d="M3.1874999999999996 13.46977201271855L3.1874999999999996 15.012379763209582L3.609375 14.768810118395209" stroke-width="0.03" stroke="#000000" fill="none"/>
<path d="M3.609375 14.931189881604789L3.609375 12.414303551856264L1.7812499999999996 11.358835090993981" stroke-width="0.03" stroke="#000000" fill="none"/>
<path d="M3.7499999999999996 10.952885682970024L5.71875 12.0895440254371" stroke-width="0.03" stroke="#000000" fill="none"/>
<path d="M5.71875 11.927164262227517L9.515625 9.735037458898159" stroke-width="0.03" stroke="#000000" fill="none"/>
<path d="M10.5 9.653847577293366L10.5 9.97860710371253" stroke-width="0.03" stroke="#000000" fill="none"/>
<path d="M11.484375000000002 9.735037458898159L15.28125 11.927164262227517" stroke-width="0.03" stroke="#000000" fill="none"/>
<path d="M15.28125 12.0895440254371L17.25 10.952885682970024L17.882812500000004 11.318240150191585L17.882812500000004 11.64299967661075L18.0234375 11.72418955821554L18.234375 11.602404735808353L18.234375 10.952885682970024L17.7421875 10.668721097353256L17.53125 10.790505919760442L17.53125 10.222176748526905L17.7421875 10.100391926119716L17.1796875 9.775632399700552L16.96875 9.897417222107741L16.96875 10.059796985317323L17.25 10.222176748526905L17.25 10.952885682970024" stroke-width="0.03" stroke="#000000" fill="none"/>
<path d="M17.390625 11.034075564574817L15.421875 12.170733907041893" stroke-width="0.03" stroke="#000000" fill="none"/>
<path d="M15.28125 12.251923788646682L15.140625 12.170733907041893" stroke-width="0.03" stroke="#000000" fill="none"/>
<path d="M15.140625 12.00835414383231L13.6640625 11.155860386982003" stroke-width="0.03" stroke="#000000" fill="none"/>
<path d="M14.648437500000002 9.288493110071807L14.859375 9.166708287664619L14.718749999999998 9.085518406059828L14.5078125 9.207303228467016" stroke-width="0.03" stroke="#000000" fill="none"/>
<path d="M14.859375 9.166708287664619L14.859375 9.410277932478992" stroke-width="0.03" stroke="#000000" fill="none"/>
<path d="M15.351562500000002 9.207303228467016L14.015625 8.435999353221499" stroke-width="0.03" stroke="#000000" fill="none"/>
<path d="M13.875 8.841948761245455L16.0546875 10.100391926119716L17.882812500000004 9.044923465257433L17.882812500000004 9.694442518095762L17.6015625 9.856822281305345L17.6015625 10.019202044514927" stroke-width="0.03" stroke="#000000" fill="none"/>
<path d="M17.7421875 10.100391926119716L17.7421875 10.668721097353256" stroke-width="0.03" stroke="#000000" fill="none"/>
<path d="M17.53125 10.790505919760442L18.0234375 11.074670505377211L18.0234375 11.72418955821554" stroke-width="0.03" stroke="#000000" fill="none"/>
<path d="M17.882812500000004 11.64299967661075L17.390625 11.927164262227517" stroke-width="0.03" stroke="#000000" fill="none"/>
<path d="M17.390625 11.602404735808353L17.882812500000004 11.318240150191585" stroke-width="0.03" stroke="#000000" fill="none"/>
<path d="M18.0234375 11.074670505377211L18.234375 10.952885682970024" stroke-width="0.03" stroke="#000000" fill="none"/>
<path d="M18.234375 11.115265446179606L18.375 11.196455327784399L18.656250000000004 11.034075564574817L19.21875 11.358835090993981L19.21875 12.65787319667064L17.390625 13.713341657532922L17.320312500000004 13.672746716730527L17.320312500000004 12.37370861105387L17.390625 12.333113670251475L17.390625 11.034075564574817" stroke-width="0.03" stroke="#000000" fill="none"/>
<path d="M17.25 10.222176748526905L16.7578125 10.506341334143674" stroke-width="0.03" stroke="#000000" fill="none"/>
<path d="M16.4765625 10.343961570934091L16.96875 10.059796985317323" stroke-width="0.03" stroke="#000000" fill="none"/>
<path d="M16.96875 9.897417222107741L17.53125 10.222176748526905" stroke-width="0.03" stroke="#000000" fill="none"/>
<path d="M17.882812500000004 9.044923465257433L16.7578125 8.395404412419104" stroke-width="0.03" stroke="#000000" fill="none"/>
<path d="M16.0546875 10.100391926119716L16.0546875 10.181581807724509" stroke-width="0.03" stroke="#000000" fill="none"/>
<path d="M17.320312500000004 12.37370861105387L17.390625 12.414303551856264L17.390625 14.931189881604789L17.53125 14.85L17.53125 15.174759526419164L17.390625 15.255949408023953L17.390625 15.337139289628746L17.25 15.418329171233536" stroke-width="0.03" stroke="#000000" fill="none"/>
<path d="M17.109375 15.661898816047911L19.359375000000004 14.362860710371251L19.359375000000004 15.824278579257493L17.109375 17.123316684934153L17.0390625 17.082721744131756" stroke-width="0.03" stroke="#000000" fill="none"/>
<path d="M17.109375 17.123316684934153L17.109375 15.661898816047911L17.0390625 15.621303875245514" stroke-width="0.03" stroke="#000000" fill="none"/>
<path d="M16.96875 15.661898816047911L16.96875 15.986658342467075L16.6875 16.14903810567666" stroke-width="0.03" stroke="#000000" fill="none"/>
<path d="M16.7578125 16.10844316487426L17.0390625 16.270822928083845L17.0390625 17.975810441784457L16.4765625 18.30056996820362L16.4765625 18.95008902104195L15.000000000000002 19.802582777892262L14.718749999999998 19.640203014682676" stroke-width="0.03" stroke="#000000" fill="none"/>
<path d="M14.718749999999998 19.559013133077883L14.718749999999998 19.883772659497048L14.437500000000002 20.04615242270663" stroke-width="0.03" stroke="#000000" fill="none"/>
<path d="M14.437500000000002 20.12734230431142L14.5078125 20.16793724511382L14.5078125 22.76601345646713L13.945312500000002 22.44125393004797" stroke-width="0.03" stroke="#000000" fill="none"/>
<path d="M14.296875000000002 22.238279226035992L12.9609375 23.009583101281507L13.242187500000002 23.17196286449109L13.382812500000002 23.090772982886296L13.382812500000002 22.76601345646713" stroke-width="0.03" stroke="#000000" fill="none"/>
<path d="M13.242187500000002 22.847203338071925L13.242187500000002 23.17196286449109" stroke-width="0.03" stroke="#000000" fill="none"/>
<path d="M14.5078125 22.76601345646713L15.773437500000002 22.035304522024013L15.773437500000002 19.437228310670697L15.703125000000002 19.3966333698683" stroke-width="0.03" stroke="#000000" fill="none"/>
<path d="M15.773437500000002 19.437228310670697L14.5078125 20.16793724511382" stroke-width="0.03" stroke="#000000" fill="none"/>
<path d="M14.367187500000002 20.41150688992819L14.367187500000002 20.573886653137773L14.296875000000002 20.61448159394017L14.296875000000002 20.776861357149752L14.015625 20.939241120359334L14.015625 20.776861357149752L11.835937500000002 22.035304522024013L11.765625 21.994709581221617" stroke-width="0.03" stroke="#000000" fill="none"/>
<path d="M11.835937500000002 22.035304522024013L11.835937500000002 24.146241443748586" stroke-width="0.03" stroke="#000000" fill="none"/>
<path d="M12.9609375 21.87292475881443L14.296875000000002 21.101620883568916L14.296875000000002 22.238279226035992" stroke-width="0.03" stroke="#000000" fill="none"/>
<path d="M14.296875000000002 21.101620883568916L13.875 20.858051238754545" stroke-width="0.03" stroke="#000000" fill="none"/>
<path d="M13.382812500000002 21.142215824371313L13.382812500000002 21.385785469185684L13.242187500000002 21.466975350790477L13.031250000000002 21.345190528383288" stroke-width="0.03" stroke="#000000" fill="none"/>
<path d="M13.242187500000002 21.223405705976102L13.242187500000002 21.466975350790477" stroke-width="0.03" stroke="#000000" fill="none"/>
<path d="M14.437500000000002 19.721392896287465L14.9296875 19.437228310670697L14.9296875 19.193658665856326L15.000000000000002 19.15306372505393L15.000000000000002 19.802582777892262" stroke-width="0.03" stroke="#000000" fill="none"/>
<path d="M15.773437500000002 19.761987837089862L17.390625 18.828304198634765L17.390625 16.960936921724567" stroke-width="0.03" stroke="#000000" fill="none"/>
<path d="M18.0234375 16.59558245450301L18.0234375 18.78770925783237L17.671875 18.990683961844347L17.671875 19.3966333698683L15.773437500000002 20.492696771532984" stroke-width="0.03" stroke="#000000" fill="none"/>
<path d="M15.773437500000002 20.97983606116173L16.8984375 20.330317008323398L16.8984375 19.843177718694655" stroke-width="0.03" stroke="#000000" fill="none"/>
<path d="M17.390625 18.828304198634765L16.4765625 18.30056996820362" stroke-width="0.03" stroke="#000000" fill="none"/>
<path d="M18.0234375 17.894620560179668L18.4453125 17.651050915365293L18.4453125 16.352012809688635" stroke-width="0.03" stroke="#000000" fill="none"/>
<path d="M17.0390625 16.270822928083845L16.4765625 16.59558245450301L16.4765625 16.514392572898217L16.6875 16.39260775049103L16.6875 15.824278579257493" stroke-width="0.03" stroke="#000000" fill="none"/>
<path d="M17.390625 14.768810118395209L17.8125 15.012379763209582L18.796875 14.444050591976044L18.796875 12.90144284148501L19.078125 13.063822604694593L19.078125 13.226202367904175L18.796875 13.388582131113758" stroke-width="0.03" stroke="#000000" fill="none"/>
<path d="M18.796875 13.226202367904175L19.078125 13.063822604694593" stroke-width="0.03" stroke="#000000" fill="none"/>
<path d="M18.796875 14.038101183952087L19.359375000000004 14.362860710371251" stroke-width="0.03" stroke="#000000" fill="none"/>
<path d="M17.8125 15.012379763209582L17.8125 13.46977201271855" stroke-width="0.03" stroke="#000000" fill="none"/>
<path d="M17.6015625 13.9163163615449L17.390625 14.038101183952087" stroke-width="0.03" stroke="#000000" fill="none"/>
<path d="M17.390625 14.200480947161669L17.6015625 14.078696124754483L17.6015625 13.9163163615449L17.390625 13.794531539137715" stroke-width="0.03" stroke="#000000" fill="none"/>
<path d="M17.390625 12.414303551856264L19.21875 11.358835090993981" stroke-width="0.03" stroke="#000000" fill="none"/>
<path d="M15.000000000000002 15.093569644814371L14.9296875 15.052974704011977" stroke-width="0.03" stroke="#000000" fill="none"/>
<path d="M12.1171875 12.860847900682616L12.1171875 12.779658019077825" stroke-width="0.03" stroke="#000000" fill="none"/>
<path d="M10.640625 11.927164262227517L10.5 11.845974380622728L10.359375 11.927164262227517" stroke-width="0.03" stroke="#000000" fill="none"/>
<path d="M10.5 11.845974380622728L10.5 11.034075564574817" stroke-width="0.03" stroke="#000000" fill="none"/>
<path d="M8.8125 11.521214854203564L8.4609375 11.72418955821554L7.3359375 11.074670505377211" stroke-width="0.03" stroke="#000000" fill="none"/>
<path d="M7.3359375 11.155860386982003L8.4609375 11.805379439820332L8.8125 11.602404735808353L8.8125 11.521214854203564L7.6875 10.871695801365235" stroke-width="0.03" stroke="#000000" fill="none"/>
<path d="M8.4609375 11.72418955821554L8.4609375 11.805379439820332" stroke-width="0.03" stroke="#000000" fill="none"/>
<path d="M8.25 9.004328524455037L8.7421875 8.720163938838269L8.953125 8.841948761245455L9.0234375 8.80135382044306L8.4609375 8.476594294023895" stroke-width="0.03" stroke="#000000" fill="none"/>
<path d="M7.898437500000001 8.720163938838269L5.6484375 7.421125833161611L5.6484375 8.07064488599994" stroke-width="0.03" stroke="#000000" fill="none"/>
<path d="M6 7.867670181987961L4.6640625 8.638974057233478L4.6640625 8.314214530814313L4.8046875 8.233024649209522L5.0859375 8.395404412419104" stroke-width="0.03" stroke="#000000" fill="none"/>
<path d="M4.9453125 8.476594294023895L4.6640625 8.314214530814313" stroke-width="0.03" stroke="#000000" fill="none"/>
<path d="M5.6484375 9.207303228467016L6.984375 8.435999353221499L6 7.867670181987961" stroke-width="0.03" stroke="#000000" fill="none"/>
<path d="M6.984375 8.435999353221499L6.984375 8.923138642850246" stroke-width="0.03" stroke="#000000" fill="none"/>
<path d="M6.984375 8.760758879640663L7.265625000000001 8.598379116431081L7.40625 8.679568998035872L7.4765625 8.638974057233478L7.6171875 8.720163938838269" stroke-width="0.03" stroke="#000000" fill="none"/>
<path d="M7.125 8.841948761245455L4.9453125 10.100391926119716L3.1171875 9.044923465257433" stroke-width="0.03" stroke="#000000" fill="none"/>
<path d="M3.46875 10.222176748526905L4.03125 9.897417222107741" stroke-width="0.03" stroke="#000000" fill="none"/>
<path d="M4.03125 10.059796985317323L4.5234375 10.343961570934091" stroke-width="0.03" stroke="#000000" fill="none"/>
<path d="M4.2421875 10.506341334143674L3.7499999999999996 10.222176748526905" stroke-width="0.03" stroke="#000000" fill="none"/>
<path d="M4.9453125 10.181581807724509L4.9453125 10.100391926119716" stroke-width="0.03" stroke="#000000" fill="none"/>
<path d="M6.140625 9.410277932478992L6.140625 9.166708287664619L6.28125 9.085518406059828L6.492187500000001 9.207303228467016" stroke-width="0.03" stroke="#000000" fill="none"/>
<path d="M6.3515625 9.288493110071807L6.140625 9.166708287664619" stroke-width="0.03" stroke="#000000" fill="none"/>
<path d="M6.984375 8.760758879640663L7.125 8.841948761245455" stroke-width="0.03" stroke="#000000" fill="none"/>
<path d="M7.828125 7.218151129149632L8.953125 6.568632076311303L9.375 6.8122017211256765" stroke-width="0.03" stroke="#000000" fill="none"/>
<path d="M10.1484375 6.365657372299325L8.25 7.4617207739640055" stroke-width="0.03" stroke="#000000" fill="none"/>
<path d="M8.8828125 7.827075241185566L10.5 6.893391602730468L12.1171875 7.827075241185566" stroke-width="0.03" stroke="#000000" fill="none"/>
<path d="M11.835937500000002 7.989455004395149L11.835937500000002 8.07064488599994" stroke-width="0.03" stroke="#000000" fill="none"/>
<path d="M11.976562500000002 8.80135382044306L12.539062500000002 8.476594294023895" stroke-width="0.03" stroke="#000000" fill="none"/>
<path d="M12.2578125 8.720163938838269L12.046875 8.841948761245455L11.976562500000002 8.80135382044306" stroke-width="0.03" stroke="#000000" fill="none"/>
<path d="M12.2578125 8.720163938838269L12.75 9.004328524455037" stroke-width="0.03" stroke="#000000" fill="none"/>
<path d="M12.75 7.4617207739640055L10.8515625 6.365657372299325L10.5 6.568632076311303L10.1484375 6.365657372299325" stroke-width="0.03" stroke="#000000" fill="none"/>
<path d="M10.5 6.893391602730468L10.5 7.948860063592752" stroke-width="0.03" stroke="#000000" fill="none"/>
<path d="M11.625000000000002 6.8122017211256765L12.046875 6.568632076311303L13.171875 7.218151129149632" stroke-width="0.03" stroke="#000000" fill="none"/>
<path d="M7.264131938244363 2.2599663291074443L1.5 2.2599663291074443" stroke-width="0.03" stroke="#000000" fill="none"/>
<path d="M2.0824957911384305 2.015598694615191L2.0824957911384305 1.7268634256306838" stroke-width="0.03" stroke="#000000" fill="none"/>
<path d="M2.061871843353823 1.5824957911384305L2.0824957911384305 1.6031197389230383L2.1031197389230383 1.5824957911384305L2.0824957911384305 1.5618718433538228L2.061871843353823 1.5824957911384305" stroke-width="0.03" stroke="#000000" fill="none"/>
<path d="M2.226863425630684 1.953726851261368L2.2474873734152916 1.9949747468305832L2.3093592167691144 2.015598694615191L2.3712310601229376 2.015598694615191L2.4331029034767604 1.9949747468305832L2.4537268512613677 1.953726851261368L2.4537268512613677 1.9331029034767604L2.4331029034767604 1.891855007907545L2.391855007907545 1.8712310601229374L2.2887352689845066 1.8506071123383299L2.2474873734152916 1.8299831645537221L2.226863425630684 1.7887352689845069L2.2474873734152916 1.7474873734152916L2.3093592167691144 1.7268634256306838L2.3712310601229376 1.7268634256306838L2.4331029034767604 1.7474873734152916L2.4537268512613677 1.7887352689845069" stroke-width="0.03" stroke="#000000" fill="none"/>
<path d="M2.680590276892052 1.7268634256306838L2.6393423813228365 1.7474873734152916L2.5980944857536215 1.7887352689845069L2.5774705379690137 1.8506071123383299L2.5774705379690137 1.891855007907545L2.5980944857536215 1.953726851261368L2.6393423813228365 1.9949747468305832L2.680590276892052 2.015598694615191L2.7424621202458748 2.015598694615191L2.78371001581509 1.9949747468305832L2.8249579113843053 1.953726851261368L2.845581859168913 1.891855007907545L2.845581859168913 1.8506071123383299L2.8249579113843053 1.7887352689845069L2.78371001581509 1.7474873734152916L2.7424621202458748 1.7268634256306838L2.680590276892052 1.7268634256306838" stroke-width="0.03" stroke="#000000" fill="none"/>
<path d="M2.907453702522736 2.056846590184406L3.237436867076458 2.056846590184406" stroke-width="0.03" stroke="#000000" fill="none"/>
<path d="M3.2993087104302807 1.953726851261368L3.3199326582148885 1.9949747468305832L3.3818045015687113 2.015598694615191L3.443676344922534 2.015598694615191L3.5055481882763573 1.9949747468305832L3.526172136060965 1.953726851261368L3.526172136060965 1.9331029034767604L3.5055481882763573 1.891855007907545L3.464300292707142 1.8712310601229374L3.361180553784104 1.8506071123383299L3.3199326582148885 1.8299831645537221L3.2993087104302807 1.7887352689845069L3.3199326582148885 1.7474873734152916L3.3818045015687113 1.7268634256306838L3.443676344922534 1.7268634256306838L3.5055481882763573 1.7474873734152916L3.526172136060965 1.7887352689845069" stroke-width="0.03" stroke="#000000" fill="none"/>
<path d="M3.6705397705532183 1.8093592167691144L3.732411613907041 1.7474873734152916L3.773659509476256 1.7268634256306838L3.8355313528300794 1.7268634256306838L3.8767792483992944 1.7474873734152916L3.897403196183902 1.8093592167691144L3.897403196183902 2.015598694615191" stroke-width="0.03" stroke="#000000" fill="none"/>
<path d="M3.6705397705532183 2.015598694615191L3.6705397705532183 1.7268634256306838" stroke-width="0.03" stroke="#000000" fill="none"/>
<path d="M4.144890569599194 1.7268634256306838L4.103642674029978 1.7474873734152916L4.062394778460764 1.7887352689845069L4.041770830676155 1.8506071123383299L4.041770830676155 1.891855007907545L4.062394778460764 1.953726851261368L4.103642674029978 1.9949747468305832L4.144890569599194 2.015598694615191L4.206762412953017 2.015598694615191L4.2480103085222325 1.9949747468305832L4.289258204091447 1.953726851261368L4.309882151876055 1.891855007907545L4.309882151876055 1.8506071123383299L4.289258204091447 1.7887352689845069L4.2480103085222325 1.7474873734152916L4.206762412953017 1.7268634256306838L4.144890569599194 1.7268634256306838" stroke-width="0.03" stroke="#000000" fill="none"/>
<path d="M4.4336258385837 1.7268634256306838L4.516121629722131 2.015598694615191L4.5986174208605615 1.7268634256306838L4.681113211998992 2.015598694615191L4.7636090031374225 1.7268634256306838" stroke-width="0.03" stroke="#000000" fill="none"/>
<path d="M4.866728742060461 1.7268634256306838L5.011096376552715 1.7268634256306838" stroke-width="0.03" stroke="#000000" fill="none"/>
<path d="M5.031720324337321 1.5824957911384305L4.990472428768107 1.5824957911384305L4.949224533198891 1.6031197389230383L4.928600585414284 1.664991582276861L4.928600585414284 2.015598694615191" stroke-width="0.03" stroke="#000000" fill="none"/>
<path d="M5.155464011044968 2.015598694615191L5.155464011044968 1.5824957911384305" stroke-width="0.03" stroke="#000000" fill="none"/>
<path d="M5.547319018952512 1.7268634256306838L5.547319018952512 2.015598694615191" stroke-width="0.03" stroke="#000000" fill="none"/>
<path d="M5.547319018952512 1.953726851261368L5.506071123383298 1.9949747468305832L5.464823227814082 2.015598694615191L5.402951384460259 2.015598694615191L5.3617034888910435 1.9949747468305832L5.320455593321829 1.953726851261368L5.299831645537221 1.891855007907545L5.299831645537221 1.8506071123383299L5.320455593321829 1.7887352689845069L5.3617034888910435 1.7474873734152916L5.402951384460259 1.7268634256306838L5.464823227814082 1.7268634256306838L5.506071123383298 1.7474873734152916L5.547319018952512 1.7887352689845069" stroke-width="0.03" stroke="#000000" fill="none"/>
<path d="M5.712310601229374 1.9331029034767604L5.91855007907545 1.7268634256306838" stroke-width="0.03" stroke="#000000" fill="none"/>
<path d="M5.794806392367804 1.8506071123383299L5.939174026860058 2.015598694615191" stroke-width="0.03" stroke="#000000" fill="none"/>
<path d="M6.042293765783096 1.8506071123383299L6.2897811391983875 1.8506071123383299L6.2897811391983875 1.8093592167691144L6.26915719141378 1.7681113211998993L6.248533243629172 1.7474873734152916L6.207285348059957 1.7268634256306838L6.145413504706134 1.7268634256306838L6.104165609136919 1.7474873734152916L6.062917713567703 1.7887352689845069L6.042293765783096 1.8506071123383299L6.042293765783096 1.891855007907545L6.062917713567703 1.953726851261368L6.104165609136919 1.9949747468305832L6.145413504706134 2.015598694615191L6.207285348059957 2.015598694615191L6.248533243629172 1.9949747468305832L6.2897811391983875 1.953726851261368" stroke-width="0.03" stroke="#000000" fill="none"/>
<path d="M6.578516408182894 2.015598694615191L6.578516408182894 1.5824957911384305L6.516644564829072 1.6443676344922533L6.475396669259856 1.664991582276861" stroke-width="0.03" stroke="#000000" fill="none"/>
<path d="M5.712310601229374 1.5824957911384305L5.712310601229374 2.015598694615191" stroke-width="0.03" stroke="#000000" fill="none"/>
<path d="M4.472782338339579 2.7109515319598065L4.345319331208673 2.9786238469347097" stroke-width="0.03" stroke="#000000" fill="none"/>
<path d="M4.29433412835631 2.7109515319598065L4.472782338339579 2.7109515319598065" stroke-width="0.03" stroke="#000000" fill="none"/>
<path d="M4.039408114094497 2.7109515319598065L4.039408114094497 2.9786238469347097L4.128632219086132 2.9786238469347097L4.1668711212254035 2.965877546221619L4.192363722651585 2.9403849447954378L4.205110023364676 2.9148923433692566L4.217856324077767 2.8766534412299847L4.217856324077767 2.8129219376645316L4.205110023364676 2.7746830355252596L4.192363722651585 2.7491904340990785L4.1668711212254035 2.7236978326728973L4.128632219086132 2.7109515319598065L4.039408114094497 2.7109515319598065" stroke-width="0.03" stroke="#000000" fill="none"/>
<path d="M3.9501840091028635 2.7746830355252596L3.9374377083897727 2.7491904340990785L3.911945106963592 2.7236978326728973L3.8864525055374104 2.7109515319598065L3.835467302685048 2.7109515319598065L3.8099747012588665 2.7236978326728973L3.784482099832686 2.7491904340990785L3.771735799119595 2.7746830355252596L3.758989498406504 2.8129219376645316L3.758989498406504 2.8766534412299847L3.771735799119595 2.9148923433692566L3.784482099832686 2.9403849447954378L3.8099747012588665 2.965877546221619L3.835467302685048 2.9786238469347097L3.8864525055374104 2.9786238469347097L3.911945106963592 2.965877546221619L3.9374377083897727 2.9403849447954378L3.9501840091028635 2.9148923433692566" stroke-width="0.03" stroke="#000000" fill="none"/>
<path d="M3.6825116941279608 2.9786238469347097L3.504063484144692 2.9786238469347097L3.631526491275598 2.8511608398038035L3.6570190927017796 2.8129219376645316L3.66976539341487 2.7874293362383504L3.66976539341487 2.761936734812169L3.6570190927017796 2.736444133385988L3.644272791988689 2.7236978326728973L3.6187801905625077 2.7109515319598065L3.567794987710145 2.7109515319598065L3.542302386283964 2.7236978326728973L3.5295560855708734 2.736444133385988L3.5168097848577826 2.761936734812169L3.5168097848577826 2.7746830355252596" stroke-width="0.03" stroke="#000000" fill="none"/>
<path d="M3.414839379153058 2.889399741943075L3.287376372022152 2.889399741943075" stroke-width="0.03" stroke="#000000" fill="none"/>
<path d="M3.24913746988288 2.9786238469347097L3.351107875587605 2.7109515319598065L3.4530782812923295 2.9786238469347097" stroke-width="0.03" stroke="#000000" fill="none"/>
<path d="M3.0834355606127017 2.7109515319598065L3.0451966584734302 2.7236978326728973L3.0324503577603394 2.7491904340990785L3.0324503577603394 2.7746830355252596L3.0451966584734302 2.8001756369514412L3.0706892598996114 2.8129219376645316L3.1216744627519737 2.825668238377622L3.1599133648912456 2.8384145390907127L3.185405966317427 2.8639071405168943L3.198152267030517 2.889399741943075L3.198152267030517 2.927638644082347L3.185405966317427 2.953131245508528L3.1726596656043364 2.965877546221619L3.1344207634650645 2.9786238469347097L3.0834355606127017 2.9786238469347097L3.0451966584734302 2.965877546221619L3.0324503577603394 2.953131245508528L3.0197040570472486 2.927638644082347L3.0197040570472486 2.889399741943075L3.0324503577603394 2.8639071405168943L3.057942959186521 2.8384145390907127L3.0961818613257925 2.825668238377622L3.147167064178155 2.8129219376645316L3.1726596656043364 2.8001756369514412L3.185405966317427 2.7746830355252596L3.185405966317427 2.7491904340990785L3.1726596656043364 2.7236978326728973L3.1344207634650645 2.7109515319598065L3.0834355606127017 2.7109515319598065" stroke-width="0.03" stroke="#000000" fill="none"/>
<path d="M2.930479952055615 2.8001756369514412L2.917733651342524 2.8384145390907127L2.892241049916343 2.8639071405168943L2.854002147777071 2.8766534412299847L2.84125584706398 2.8766534412299847L2.8030169449247087 2.8639071405168943L2.777524343498527 2.8384145390907127L2.7647780427854367 2.8001756369514412L2.7647780427854367 2.7874293362383504L2.777524343498527 2.7491904340990785L2.8030169449247087 2.7236978326728973L2.84125584706398 2.7109515319598065L2.854002147777071 2.7109515319598065L2.892241049916343 2.7236978326728973L2.917733651342524 2.7491904340990785L2.930479952055615 2.8001756369514412L2.930479952055615 2.8639071405168943L2.917733651342524 2.927638644082347L2.892241049916343 2.965877546221619L2.854002147777071 2.9786238469347097L2.82850954635089 2.9786238469347097L2.790270644211618 2.965877546221619L2.777524343498527 2.9403849447954378" stroke-width="0.03" stroke="#000000" fill="none"/>
<path d="M2.560837231375987 2.9786238469347097L2.6883002385068933 2.7109515319598065L2.5098520285236243 2.7109515319598065" stroke-width="0.03" stroke="#000000" fill="none"/>
<path d="M2.433374224245081 2.8001756369514412L2.293164916401084 2.9786238469347097" stroke-width="0.03" stroke="#000000" fill="none"/>
<path d="M2.433374224245081 2.9786238469347097L2.293164916401084 2.8001756369514412" stroke-width="0.03" stroke="#000000" fill="none"/>
<path d="M2.1147167064178154 2.7109515319598065L2.076477804278544 2.7236978326728973L2.0509852028523623 2.761936734812169L2.038238902139272 2.825668238377622L2.038238902139272 2.8639071405168943L2.0509852028523623 2.927638644082347L2.076477804278544 2.965877546221619L2.1147167064178154 2.9786238469347097L2.140209307843997 2.9786238469347097L2.1784482099832685 2.965877546221619L2.2039408114094496 2.927638644082347L2.2166871121225404 2.8639071405168943L2.2166871121225404 2.825668238377622L2.2039408114094496 2.761936734812169L2.1784482099832685 2.7236978326728973L2.140209307843997 2.7109515319598065L2.1147167064178154 2.7109515319598065" stroke-width="0.03" stroke="#000000" fill="none"/>
<path d="M3.679687499999999 12.37370861105387L3.609375 12.414303551856264" stroke-width="0.03" stroke="#000000" fill="none"/>
<path d="M3.609375 13.794531539137715L3.3984375 13.9163163615449L3.3984375 14.078696124754483L3.609375 14.200480947161669" stroke-width="0.03" stroke="#000000" fill="none"/>
<path d="M3.609375 14.038101183952087L3.3984375 13.9163163615449" stroke-width="0.03" stroke="#000000" fill="none"/>
<path d="M3.46875 14.85L3.46875 15.174759526419164L3.609375 15.255949408023953L3.609375 15.337139289628746L3.7499999999999996 15.418329171233536" stroke-width="0.03" stroke="#000000" fill="none"/>
<path d="M3.8906249999999996 15.661898816047911L1.6406249999999998 14.362860710371251" stroke-width="0.03" stroke="#000000" fill="none"/>
<path d="M2.203125 14.444050591976044L3.1874999999999996 15.012379763209582" stroke-width="0.03" stroke="#000000" fill="none"/>
<path d="M3.46875 14.85L3.609375 14.931189881604789" stroke-width="0.03" stroke="#000000" fill="none"/>
<path d="M4.3125 15.824278579257493L4.3125 16.39260775049103L4.5234375 16.514392572898217L4.5234375 16.59558245450301L3.9609375 16.270822928083845" stroke-width="0.03" stroke="#000000" fill="none"/>
<path d="M3.609375 16.960936921724567L3.609375 18.828304198634765L5.2265625 19.761987837089862" stroke-width="0.03" stroke="#000000" fill="none"/>
<path d="M5.2265625 19.437228310670697L5.296875 19.3966333698683" stroke-width="0.03" stroke="#000000" fill="none"/>
<path d="M5.2265625 19.437228310670697L5.2265625 22.035304522024013L6.492187500000001 22.76601345646713L7.0546875 22.44125393004797" stroke-width="0.03" stroke="#000000" fill="none"/>
<path d="M6.703125 22.238279226035992L6.703125 21.101620883568916L7.125 20.858051238754545" stroke-width="0.03" stroke="#000000" fill="none"/>
<path d="M6.703125 21.101620883568916L8.0390625 21.87292475881443" stroke-width="0.03" stroke="#000000" fill="none"/>
<path d="M7.757812499999999 21.466975350790477L7.96875 21.345190528383288" stroke-width="0.03" stroke="#000000" fill="none"/>
<path d="M7.757812499999999 21.223405705976102L7.757812499999999 21.466975350790477L7.6171875 21.385785469185684L7.6171875 21.142215824371313" stroke-width="0.03" stroke="#000000" fill="none"/>
<path d="M6.703125 22.238279226035992L8.0390625 23.009583101281507L7.757812499999999 23.17196286449109L7.6171875 23.090772982886296L7.6171875 22.76601345646713" stroke-width="0.03" stroke="#000000" fill="none"/>
<path d="M7.757812499999999 22.847203338071925L7.757812499999999 23.17196286449109" stroke-width="0.03" stroke="#000000" fill="none"/>
<path d="M6.492187500000001 22.76601345646713L6.492187500000001 20.16793724511382L5.2265625 19.437228310670697" stroke-width="0.03" stroke="#000000" fill="none"/>
<path d="M6 19.15306372505393L6 19.802582777892262" stroke-width="0.03" stroke="#000000" fill="none"/>
<path d="M6.0703125 19.437228310670697L6.0703125 19.193658665856326L6 19.15306372505393" stroke-width="0.03" stroke="#000000" fill="none"/>
<path d="M6.0703125 19.437228310670697L6.5625 19.721392896287465" stroke-width="0.03" stroke="#000000" fill="none"/>
<path d="M5.2265625 20.492696771532984L3.328125000000001 19.3966333698683L3.328125000000001 18.990683961844347L2.976562500000001 18.78770925783237L2.976562500000001 16.59558245450301" stroke-width="0.03" stroke="#000000" fill="none"/>
<path d="M2.5546875 16.352012809688635L2.5546875 17.651050915365293L2.976562500000001 17.894620560179668" stroke-width="0.03" stroke="#000000" fill="none"/>
<path d="M3.609375 18.828304198634765L4.5234375 18.30056996820362" stroke-width="0.03" stroke="#000000" fill="none"/>
<path d="M3.8906249999999996 17.123316684934153L3.9609375 17.082721744131756" stroke-width="0.03" stroke="#000000" fill="none"/>
<path d="M4.1015625 19.843177718694655L4.1015625 20.330317008323398L5.2265625 20.97983606116173" stroke-width="0.03" stroke="#000000" fill="none"/>
</svg>
