<?xml version="1.0" standalone="no"?>
<svg width="21cm" height="29.7cm" version="1.1" xmlns="http://www.w3.org/2000/svg" viewBox="0.0 0.0 21.000001 29.700001">
<path d="M4.9453125 7.9082651227903575L6.0703125 7.2587460699520285L9.0234375 8.963733583652642L9.0234375 9.126113346862224" stroke-width="0.03" stroke="#000000" fill="none"/>
<path d="M8.8828125 9.044923465257433L9.0234375 8.963733583652642" stroke-width="0.03" stroke="#000000" fill="none"/>
<path d="M8.8828125 9.044923465257433L10.0078125 9.694442518095762" stroke-width="0.03" stroke="#000000" fill="none"/>
<path d="M10.1484375 9.613252636490971L10.5 9.816227340502948L10.8515625 9.613252636490971" stroke-width="0.03" stroke="#000000" fill="none"/>
<path d="M10.9921875 9.694442518095762L12.1171875 9.044923465257433L11.976562500000002 8.963733583652642L14.9296875 7.2587460699520285L16.0546875 7.9082651227903575L16.0546875 8.233024649209522" stroke-width="0.03" stroke="#000000" fill="none"/>
<path d="M15.984375 8.192429708407126L15.703125000000002 8.354809471616708" stroke-width="0.03" stroke="#000000" fill="none"/>
<path d="M15.6328125 8.314214530814313L14.15625 9.166708287664619" stroke-width="0.03" stroke="#000000" fill="none"/>
<path d="M14.015625 9.085518406059828L16.0546875 7.9082651227903575" stroke-width="0.03" stroke="#000000" fill="none"/>
<path d="M15.984375 8.192429708407126L17.671875 9.166708287664619L17.671875 9.897417222107741" stroke-width="0.03" stroke="#000000" fill="none"/>
<path d="M17.390625 10.059796985317323L17.390625 9.329088050874201L16.828125 9.004328524455037L16.1953125 9.369682991676598L16.1953125 9.53206275488618L16.617187500000004 9.775632399700552L16.617187500000004 10.506341334143674" stroke-width="0.03" stroke="#000000" fill="none"/>
<path d="M16.7578125 10.42515145253888L16.7578125 9.694442518095762L17.671875 9.166708287664619" stroke-width="0.03" stroke="#000000" fill="none"/>
<path d="M18.0234375 9.694442518095762L16.1953125 10.749910978958045" stroke-width="0.03" stroke="#000000" fill="none"/>
<path d="M16.1953125 10.668721097353256L15.140625 11.277645209389188L15.140625 12.00835414383231" stroke-width="0.03" stroke="#000000" fill="none"/>
<path d="M15.2109375 12.048949084634705L14.9296875 12.211328847844287L14.015625 11.683594617413146" stroke-width="0.03" stroke="#000000" fill="none"/>
<path d="M14.015625 11.521214854203564L13.734375 11.683594617413146L14.015625 11.845974380622728L11.765625 13.145012486299386L11.765625 13.713341657532922L11.1328125 14.078696124754483L11.1328125 14.484645532778439L11.484375000000002 14.687620236790417L11.484375000000002 15.418329171233536L10.8515625 15.783683638455097L10.8515625 16.514392572898217L11.34375 16.79855715851499L11.34375 19.3966333698683L11.625000000000002 19.23425360665872L11.625000000000002 19.559013133077883L11.765625 19.477823251473097L11.765625 19.15306372505393L13.593750000000002 18.097595264191643L13.593750000000002 18.5035446722156L13.5234375 18.462949731413204L13.5234375 18.13819020499404" stroke-width="0.03" stroke="#000000" fill="none"/>
<path d="M13.593750000000002 18.5035446722156L15.2109375 17.569861033760503L15.2109375 15.702493756850306L15.140625 15.661898816047911L14.859375 15.824278579257493" stroke-width="0.03" stroke="#000000" fill="none"/>
<path d="M14.859375 15.905468460862282L15.2109375 15.702493756850306" stroke-width="0.03" stroke="#000000" fill="none"/>
<path d="M14.859375 15.905468460862282L14.859375 13.794531539137715L15.140625 13.632151775928133L15.140625 13.46977201271855L14.718749999999998 13.226202367904175" stroke-width="0.03" stroke="#000000" fill="none"/>
<path d="M14.859375 13.145012486299386L12.609375 14.444050591976044L11.90625 14.038101183952087L11.90625 13.226202367904175L14.15625 11.927164262227517L14.2265625 11.967759203029914L14.2265625 12.698468137473034L11.976562500000002 13.997506243149692L12.609375 14.362860710371251L12.609375 14.444050591976044" stroke-width="0.03" stroke="#000000" fill="none"/>
<path d="M12.609375 14.362860710371251L14.859375 13.063822604694593L14.859375 13.145012486299386" stroke-width="0.03" stroke="#000000" fill="none"/>
<path d="M14.859375 13.063822604694593L14.2265625 12.698468137473034" stroke-width="0.03" stroke="#000000" fill="none"/>
<path d="M14.2265625 12.45489849265866L14.296875000000002 12.414303551856264L14.296875000000002 12.170733907041893L14.2265625 12.130138966239496" stroke-width="0.03" stroke="#000000" fill="none"/>
<path d="M14.2265625 12.211328847844287L14.296875000000002 12.170733907041893" stroke-width="0.03" stroke="#000000" fill="none"/>
<path d="M14.2265625 11.967759203029914L11.976562500000002 13.266797308706572L11.90625 13.226202367904175" stroke-width="0.03" stroke="#000000" fill="none"/>
<path d="M11.976562500000002 13.266797308706572L11.976562500000002 13.997506243149692" stroke-width="0.03" stroke="#000000" fill="none"/>
<path d="M11.90625 14.038101183952087L11.6953125 14.159886006359274L11.6953125 14.078696124754483L11.5546875 13.997506243149692L11.5546875 14.078696124754483L11.484375000000002 14.038101183952087L11.6953125 13.9163163615449L11.835937500000002 13.997506243149692L11.835937500000002 14.078696124754483L11.90625 14.11929106555688L11.90625 14.281670828766462L11.6953125 14.403455651173648L11.5546875 14.322265769568856L11.5546875 14.241075887964065L11.484375000000002 14.200480947161669L11.484375000000002 14.038101183952087" stroke-width="0.03" stroke="#000000" fill="none"/>
<path d="M11.4140625 13.9163163615449L11.4140625 14.322265769568856L11.765625 14.525240473580833L11.765625 15.255949408023953L12.46875 14.85L12.46875 15.174759526419164L11.765625 15.580708934443118L11.765625 16.39260775049103L11.484375000000002 16.55498751370061L11.1328125 16.352012809688635L10.8515625 16.514392572898217" stroke-width="0.03" stroke="#000000" fill="none"/>
<path d="M10.7109375 16.352012809688635L10.570312500000002 16.433202691293424L10.5 16.39260775049103L10.4296875 16.433202691293424L10.2890625 16.352012809688635L10.2890625 16.10844316487426L10.4296875 16.02725328326947L10.5 16.067848224071867L10.570312500000002 16.02725328326947L10.7109375 16.10844316487426L10.7109375 16.352012809688635" stroke-width="0.03" stroke="#000000" fill="none"/>
<path d="M10.570312500000002 16.270822928083845L10.7109375 16.189633046479052L10.640625 16.14903810567666L10.7109375 16.10844316487426" stroke-width="0.03" stroke="#000000" fill="none"/>
<path d="M10.8515625 16.10844316487426L11.484375000000002 15.7430886976527L11.484375000000002 16.55498751370061" stroke-width="0.03" stroke="#000000" fill="none"/>
<path d="M11.34375 16.79855715851499L12.609375 16.067848224071867L12.609375 14.606430355185626L12.1171875 14.322265769568856L11.484375000000002 14.687620236790417" stroke-width="0.03" stroke="#000000" fill="none"/>
<path d="M11.765625 14.85L12.1171875 14.647025295988021L12.1171875 14.322265769568856" stroke-width="0.03" stroke="#000000" fill="none"/>
<path d="M11.90625 14.11929106555688L11.765625 14.200480947161669L11.6953125 14.159886006359274" stroke-width="0.03" stroke="#000000" fill="none"/>
<path d="M11.765625 14.200480947161669L11.765625 14.362860710371251L11.6953125 14.322265769568856L11.6953125 14.403455651173648" stroke-width="0.03" stroke="#000000" fill="none"/>
<path d="M11.5546875 14.241075887964065L11.1328125 14.484645532778439" stroke-width="0.03" stroke="#000000" fill="none"/>
<path d="M11.1328125 14.078696124754483L10.5 13.713341657532922L9.867187500000002 14.078696124754483L9.867187500000002 14.484645532778439L9.515625 14.687620236790417L9.515625 15.418329171233536L10.1484375 15.783683638455097L10.1484375 16.514392572898217L9.65625 16.79855715851499L9.65625 19.3966333698683L9.375 19.23425360665872L9.375 19.559013133077883L9.234375 19.477823251473097L9.234375 19.15306372505393L7.40625 18.097595264191643L7.40625 18.5035446722156L5.7890625 17.569861033760503L5.7890625 15.702493756850306L5.859375000000001 15.661898816047911L6.140625 15.824278579257493" stroke-width="0.03" stroke="#000000" fill="none"/>
<path d="M6.140625 15.905468460862282L6.140625 13.794531539137715L5.859375000000001 13.632151775928133L5.859375000000001 13.46977201271855L6.28125 13.226202367904175" stroke-width="0.03" stroke="#000000" fill="none"/>
<path d="M6.140625 13.145012486299386L6.140625 13.063822604694593L6.7734375 12.698468137473034L9.0234375 13.997506243149692L9.0234375 13.266797308706572L9.09375 13.226202367904175L6.84375 11.927164262227517L6.7734375 11.967759203029914L6.7734375 12.698468137473034" stroke-width="0.03" stroke="#000000" fill="none"/>
<path d="M6.7734375 12.45489849265866L6.703125 12.414303551856264L6.703125 12.170733907041893L6.7734375 12.130138966239496" stroke-width="0.03" stroke="#000000" fill="none"/>
<path d="M6.7734375 12.211328847844287L6.703125 12.170733907041893" stroke-width="0.03" stroke="#000000" fill="none"/>
<path d="M6.7734375 11.967759203029914L9.0234375 13.266797308706572" stroke-width="0.03" stroke="#000000" fill="none"/>
<path d="M9.09375 13.226202367904175L9.09375 14.038101183952087L9.3046875 14.159886006359274L9.3046875 14.078696124754483L9.4453125 13.997506243149692L9.4453125 14.078696124754483L9.515625 14.038101183952087L9.3046875 13.9163163615449L9.1640625 13.997506243149692L9.1640625 14.078696124754483L9.09375 14.11929106555688L9.09375 14.281670828766462L9.3046875 14.403455651173648L9.4453125 14.322265769568856L9.4453125 14.241075887964065L9.515625 14.200480947161669L9.515625 14.038101183952087" stroke-width="0.03" stroke="#000000" fill="none"/>
<path d="M9.5859375 13.9163163615449L10.218750000000002 13.55096189432334L9.515625 13.145012486299386L9.515625 13.55096189432334L9.234375 13.713341657532922L9.234375 13.145012486299386L10.5 12.414303551856264L11.765625 13.145012486299386" stroke-width="0.03" stroke="#000000" fill="none"/>
<path d="M11.484375000000002 13.145012486299386L10.78125 13.55096189432334L11.4140625 13.9163163615449" stroke-width="0.03" stroke="#000000" fill="none"/>
<path d="M11.1328125 13.753936598335319L11.484375000000002 13.55096189432334L11.484375000000002 13.145012486299386L11.203125 12.982632723089804L10.5 13.388582131113758L9.796875 12.982632723089804L9.515625 13.145012486299386" stroke-width="0.03" stroke="#000000" fill="none"/>
<path d="M9.234375 13.145012486299386L6.984375 11.845974380622728L7.265625000000001 11.683594617413146L6.984375 11.521214854203564L7.125 11.44002497259877L7.40625 11.602404735808353L9.234375 10.54693627494607L8.8828125 10.343961570934091L10.5 9.410277932478992L12.1171875 10.343961570934091L12.1171875 10.42515145253888L11.835937500000002 10.587531215748463" stroke-width="0.03" stroke="#000000" fill="none"/>
<path d="M11.765625 10.54693627494607L12.1171875 10.343961570934091" stroke-width="0.03" stroke="#000000" fill="none"/>
<path d="M11.765625 10.54693627494607L13.593750000000002 11.602404735808353L13.875 11.44002497259877L14.015625 11.521214854203564L14.015625 12.00835414383231" stroke-width="0.03" stroke="#000000" fill="none"/>
<path d="M13.734375 11.521214854203564L13.242187500000002 11.237050268586794L13.945312500000002 10.831100860562838L13.945312500000002 10.587531215748463L15.140625 11.277645209389188" stroke-width="0.03" stroke="#000000" fill="none"/>
<path d="M15.000000000000002 11.764784499017935L14.859375 11.845974380622728" stroke-width="0.03" stroke="#000000" fill="none"/>
<path d="M15.000000000000002 11.927164262227517L15.000000000000002 11.764784499017935L14.367187500000002 11.399430031796376L14.2265625 11.480619913401167" stroke-width="0.03" stroke="#000000" fill="none"/>
<path d="M14.367187500000002 11.399430031796376L14.367187500000002 11.074670505377211L13.945312500000002 10.831100860562838" stroke-width="0.03" stroke="#000000" fill="none"/>
<path d="M13.945312500000002 10.587531215748463L12.890625000000002 11.196455327784399" stroke-width="0.03" stroke="#000000" fill="none"/>
<path d="M13.242187500000002 11.237050268586794L13.242187500000002 11.399430031796376" stroke-width="0.03" stroke="#000000" fill="none"/>
<path d="M13.945312500000002 11.318240150191585L14.367187500000002 11.074670505377211" stroke-width="0.03" stroke="#000000" fill="none"/>
<path d="M13.945312500000002 11.318240150191585L15.2109375 12.048949084634705L15.2109375 12.130138966239496L15.28125 12.170733907041893L15.28125 13.632151775928133L15.703125000000002 13.388582131113758L15.421875 13.226202367904175L15.421875 12.495493433461057L15.28125 12.414303551856264" stroke-width="0.03" stroke="#000000" fill="none"/>
<path d="M15.28125 12.576683315065846L15.421875 12.495493433461057" stroke-width="0.03" stroke="#000000" fill="none"/>
<path d="M15.28125 12.251923788646682L15.9140625 12.617278255868243L15.9140625 13.997506243149692L14.859375 14.606430355185626" stroke-width="0.03" stroke="#000000" fill="none"/>
<path d="M15.000000000000002 14.281670828766462L15.703125000000002 13.875721420742504L15.703125000000002 13.388582131113758" stroke-width="0.03" stroke="#000000" fill="none"/>
<path d="M15.421875 13.226202367904175L15.28125 13.307392249508968" stroke-width="0.03" stroke="#000000" fill="none"/>
<path d="M15.140625 13.46977201271855L14.859375 13.632151775928133L14.859375 13.307392249508968L12.609375 14.606430355185626" stroke-width="0.03" stroke="#000000" fill="none"/>
<path d="M12.46875 14.85L12.1171875 14.647025295988021" stroke-width="0.03" stroke="#000000" fill="none"/>
<path d="M11.835937500000002 13.997506243149692L11.6953125 14.078696124754483" stroke-width="0.03" stroke="#000000" fill="none"/>
<path d="M11.765625 13.713341657532922L11.484375000000002 13.55096189432334" stroke-width="0.03" stroke="#000000" fill="none"/>
<path d="M10.5 13.388582131113758L10.5 12.414303551856264" stroke-width="0.03" stroke="#000000" fill="none"/>
<path d="M10.5 13.713341657532922L10.5 14.85L9.515625 15.418329171233536" stroke-width="0.03" stroke="#000000" fill="none"/>
<path d="M9.234375 15.580708934443118L8.390625 16.067848224071867L9.65625 16.79855715851499" stroke-width="0.03" stroke="#000000" fill="none"/>
<path d="M9.796875 16.879747040119774L10.5 16.473797632095824L11.203125 16.879747040119774L11.203125 19.477823251473097L11.1328125 19.51841819227549L10.5 19.15306372505393L10.5 16.55498751370061L11.1328125 16.920341980922174L11.1328125 19.51841819227549" stroke-width="0.03" stroke="#000000" fill="none"/>
<path d="M10.9921875 19.437228310670697L10.921875000000002 19.477823251473097L10.7109375 19.356038429065904L10.7109375 19.274848547461115" stroke-width="0.03" stroke="#000000" fill="none"/>
<path d="M10.5 19.15306372505393L9.867187500000002 19.51841819227549L9.796875 19.477823251473097L9.796875 16.879747040119774L9.867187500000002 16.920341980922174L9.867187500000002 19.51841819227549" stroke-width="0.03" stroke="#000000" fill="none"/>
<path d="M10.0078125 19.437228310670697L10.078125 19.477823251473097L10.2890625 19.356038429065904L10.2890625 19.274848547461115" stroke-width="0.03" stroke="#000000" fill="none"/>
<path d="M10.078125 19.3966333698683L10.078125 19.477823251473097" stroke-width="0.03" stroke="#000000" fill="none"/>
<path d="M9.796875 19.31544348826351L9.375 19.559013133077883" stroke-width="0.03" stroke="#000000" fill="none"/>
<path d="M9.515625 19.477823251473097L10.4296875 20.005557481904233L10.5 19.96496254110184L10.570312500000002 20.005557481904233L11.484375000000002 19.477823251473097" stroke-width="0.03" stroke="#000000" fill="none"/>
<path d="M11.625000000000002 19.559013133077883L11.203125 19.31544348826351" stroke-width="0.03" stroke="#000000" fill="none"/>
<path d="M10.921875000000002 19.3966333698683L10.921875000000002 19.477823251473097" stroke-width="0.03" stroke="#000000" fill="none"/>
<path d="M10.570312500000002 20.005557481904233L10.570312500000002 20.330317008323398L10.5 20.289722067521005L10.4296875 20.330317008323398L9.1640625 19.59960807388028L9.1640625 20.086747363509026L8.7421875 19.843177718694655L8.53125 19.96496254110184L8.53125 18.747114317029972" stroke-width="0.03" stroke="#000000" fill="none"/>
<path d="M8.7421875 19.03127890264674L8.8828125 18.95008902104195" stroke-width="0.03" stroke="#000000" fill="none"/>
<path d="M8.7421875 19.03127890264674L8.7421875 19.843177718694655" stroke-width="0.03" stroke="#000000" fill="none"/>
<path d="M8.53125 19.96496254110184L9.7265625 20.655076534742566L9.7265625 21.87292475881443L9.9375 21.751139936407245L9.9375 21.42638040998808L10.5 21.101620883568916L10.5 20.776861357149752L10.570312500000002 20.81745629795215L10.570312500000002 20.898646179556938L10.5 20.858051238754545L10.4296875 20.898646179556938L10.2890625 20.81745629795215L10.2890625 20.736266416347355L10.5 20.61448159394017L10.7109375 20.736266416347355L10.7109375 20.81745629795215L10.570312500000002 20.898646179556938" stroke-width="0.03" stroke="#000000" fill="none"/>
<path d="M10.570312500000002 20.81745629795215L10.7109375 20.736266416347355" stroke-width="0.03" stroke="#000000" fill="none"/>
<path d="M10.5 20.776861357149752L10.4296875 20.81745629795215L10.4296875 20.898646179556938" stroke-width="0.03" stroke="#000000" fill="none"/>
<path d="M10.4296875 20.81745629795215L10.2890625 20.736266416347355" stroke-width="0.03" stroke="#000000" fill="none"/>
<path d="M10.5 20.61448159394017L10.5 19.96496254110184" stroke-width="0.03" stroke="#000000" fill="none"/>
<path d="M10.4296875 20.005557481904233L10.4296875 20.330317008323398" stroke-width="0.03" stroke="#000000" fill="none"/>
<path d="M10.359375 20.289722067521005L9.7265625 20.655076534742566" stroke-width="0.03" stroke="#000000" fill="none"/>
<path d="M10.078125 20.289722067521005L10.218750000000002 20.208532185916212" stroke-width="0.03" stroke="#000000" fill="none"/>
<path d="M10.078125 20.12734230431142L10.078125 20.289722067521005L9.4453125 19.924367600299444L9.4453125 19.761987837089862" stroke-width="0.03" stroke="#000000" fill="none"/>
<path d="M9.4453125 19.924367600299444L9.1640625 20.086747363509026" stroke-width="0.03" stroke="#000000" fill="none"/>
<path d="M9.234375 19.31544348826351L8.7421875 19.03127890264674" stroke-width="0.03" stroke="#000000" fill="none"/>
<path d="M7.4765625 18.462949731413204L7.40625 18.5035446722156" stroke-width="0.03" stroke="#000000" fill="none"/>
<path d="M7.4765625 18.462949731413204L7.4765625 18.13819020499404" stroke-width="0.03" stroke="#000000" fill="none"/>
<path d="M6.28125 17.85402561937727L6.28125 19.15306372505393L6.140625 19.071873843449136L6.28125 18.990683961844347" stroke-width="0.03" stroke="#000000" fill="none"/>
<path d="M6.140625 19.071873843449136L6.140625 22.481848870850367L7.265625000000001 23.131367923688696L7.546875 22.96898816047911" stroke-width="0.03" stroke="#000000" fill="none"/>
<path d="M7.4765625 22.928393219676718L7.4765625 22.603633693257553" stroke-width="0.03" stroke="#000000" fill="none"/>
<path d="M7.40625 22.563038752455157L7.40625 20.858051238754545" stroke-width="0.03" stroke="#000000" fill="none"/>
<path d="M7.265625000000001 20.776861357149752L7.265625000000001 23.131367923688696" stroke-width="0.03" stroke="#000000" fill="none"/>
<path d="M7.4765625 22.928393219676718L9.1640625 23.90267179893421L9.796875 23.53731733171265" stroke-width="0.03" stroke="#000000" fill="none"/>
<path d="M9.796875 23.212557805293486L9.1640625 23.577912272515047L8.6015625 23.253152746095882L8.6015625 22.52244381165276L8.7421875 22.44125393004797L9.1640625 22.684823574862342L9.796875 22.31946910764078" stroke-width="0.03" stroke="#000000" fill="none"/>
<path d="M9.796875 22.481848870850367L9.1640625 22.847203338071925L8.6015625 22.52244381165276" stroke-width="0.03" stroke="#000000" fill="none"/>
<path d="M8.4609375 23.090772982886296L8.390625 23.131367923688696L7.40625 22.563038752455157" stroke-width="0.03" stroke="#000000" fill="none"/>
<path d="M7.828125 21.588760173197663L8.0390625 21.466975350790477L8.0390625 21.223405705976102L7.828125 21.345190528383288L7.6875 21.2640006467785L7.6875 21.507570291592874L7.828125 21.588760173197663L7.828125 21.345190528383288" stroke-width="0.03" stroke="#000000" fill="none"/>
<path d="M7.6875 21.2640006467785L7.898437500000001 21.142215824371313" stroke-width="0.03" stroke="#000000" fill="none"/>
<path d="M8.390625 21.42638040998808L8.390625 23.131367923688696" stroke-width="0.03" stroke="#000000" fill="none"/>
<path d="M8.4609375 23.090772982886296L8.4609375 21.466975350790477" stroke-width="0.03" stroke="#000000" fill="none"/>
<path d="M8.53125 21.507570291592874L8.7421875 21.385785469185684L8.7421875 21.304595587580895" stroke-width="0.03" stroke="#000000" fill="none"/>
<path d="M8.53125 21.18281076517371L8.53125 21.507570291592874L7.265625000000001 20.776861357149752" stroke-width="0.03" stroke="#000000" fill="none"/>
<path d="M8.53125 21.18281076517371L9.7265625 21.87292475881443" stroke-width="0.03" stroke="#000000" fill="none"/>
<path d="M9.796875 21.832329818012038L9.796875 23.943266739736604L10.0078125 24.06505156214379L10.5 23.780886976527025L10.9921875 24.06505156214379L11.203125 23.943266739736604L11.203125 21.832329818012038" stroke-width="0.03" stroke="#000000" fill="none"/>
<path d="M11.273437500000002 21.87292475881443L12.46875 21.18281076517371L12.46875 21.507570291592874L13.734375 20.776861357149752L13.734375 23.131367923688696L14.859375 22.481848870850367L14.859375 19.071873843449136L14.718749999999998 18.990683961844347" stroke-width="0.03" stroke="#000000" fill="none"/>
<path d="M14.718749999999998 19.15306372505393L14.859375 19.071873843449136" stroke-width="0.03" stroke="#000000" fill="none"/>
<path d="M14.718749999999998 19.15306372505393L14.718749999999998 17.85402561937727" stroke-width="0.03" stroke="#000000" fill="none"/>
<path d="M14.859375 17.77283573777248L14.859375 17.366886329748525L15.2109375 17.163911625736546" stroke-width="0.03" stroke="#000000" fill="none"/>
<path d="M15.2109375 17.001531862526964L16.3359375 16.352012809688635L16.3359375 16.514392572898217L19.289062500000004 14.809405059197603L19.289062500000004 13.510366953520945L19.0078125 13.347987190311363" stroke-width="0.03" stroke="#000000" fill="none"/>
<path d="M19.0078125 13.429177071916154L18.7265625 13.591556835125736" stroke-width="0.03" stroke="#000000" fill="none"/>
<path d="M18.7265625 13.672746716730527L17.25 14.525240473580833" stroke-width="0.03" stroke="#000000" fill="none"/>
<path d="M17.25 14.687620236790417L19.289062500000004 13.510366953520945" stroke-width="0.03" stroke="#000000" fill="none"/>
<path d="M19.0078125 13.429177071916154L19.0078125 11.480619913401167L18.375 11.115265446179606" stroke-width="0.03" stroke="#000000" fill="none"/>
<path d="M18.09375 11.277645209389188L18.7265625 11.64299967661075L18.7265625 12.292518729449078L18.09375 12.65787319667064L17.953125000000004 12.576683315065846L17.953125000000004 12.0895440254371L17.320312500000004 11.72418955821554" stroke-width="0.03" stroke="#000000" fill="none"/>
<path d="M17.4609375 11.64299967661075L18.09375 12.00835414383231L18.09375 12.65787319667064" stroke-width="0.03" stroke="#000000" fill="none"/>
<path d="M17.953125000000004 12.0895440254371L16.96875 12.65787319667064" stroke-width="0.03" stroke="#000000" fill="none"/>
<path d="M17.0390625 13.10441754549699L16.96875 13.145012486299386" stroke-width="0.03" stroke="#000000" fill="none"/>
<path d="M17.0390625 13.10441754549699L17.25 13.226202367904175L17.25 14.687620236790417" stroke-width="0.03" stroke="#000000" fill="none"/>
<path d="M17.4609375 14.078696124754483L17.671875 13.956911302347297L17.671875 13.794531539137715L17.4609375 13.672746716730527L17.25 13.794531539137715L17.4609375 13.9163163615449L17.671875 13.794531539137715" stroke-width="0.03" stroke="#000000" fill="none"/>
<path d="M17.4609375 13.9163163615449L17.4609375 14.078696124754483L17.25 13.956911302347297" stroke-width="0.03" stroke="#000000" fill="none"/>
<path d="M17.25 13.388582131113758L18.7265625 12.536088374263452L18.656250000000004 12.495493433461057L17.25 13.307392249508968" stroke-width="0.03" stroke="#000000" fill="none"/>
<path d="M17.25 13.226202367904175L16.96875 13.388582131113758L16.96875 12.00835414383231L16.7578125 11.886569321425123L16.4765625 12.048949084634705L15.9140625 11.72418955821554L15.9140625 11.074670505377211L16.1953125 10.912290742167627L16.1953125 10.668721097353256L15.000000000000002 9.97860710371253L15.28125 9.816227340502948L14.015625 9.085518406059828" stroke-width="0.03" stroke="#000000" fill="none"/>
<path d="M14.648437500000002 9.207303228467016L14.859375 9.085518406059828L15.000000000000002 9.166708287664619L15.000000000000002 9.410277932478992L14.7890625 9.53206275488618L14.7890625 9.288493110071807L14.648437500000002 9.207303228467016L14.648437500000002 9.450872873281389" stroke-width="0.03" stroke="#000000" fill="none"/>
<path d="M14.7890625 9.288493110071807L15.000000000000002 9.166708287664619" stroke-width="0.03" stroke="#000000" fill="none"/>
<path d="M15.140625 9.735037458898159L16.617187500000004 8.882543702047851L16.617187500000004 8.963733583652642L15.2109375 9.775632399700552" stroke-width="0.03" stroke="#000000" fill="none"/>
<path d="M15.28125 9.816227340502948L15.28125 10.059796985317323L15.2109375 10.100391926119716" stroke-width="0.03" stroke="#000000" fill="none"/>
<path d="M15.6328125 10.343961570934091L16.617187500000004 9.775632399700552" stroke-width="0.03" stroke="#000000" fill="none"/>
<path d="M16.7578125 9.694442518095762L16.1953125 9.369682991676598" stroke-width="0.03" stroke="#000000" fill="none"/>
<path d="M16.617187500000004 8.882543702047851L15.6328125 8.314214530814313" stroke-width="0.03" stroke="#000000" fill="none"/>
<path d="M14.648437500000002 7.421125833161611L13.8046875 6.933986543532863L11.1328125 8.476594294023895" stroke-width="0.03" stroke="#000000" fill="none"/>
<path d="M10.9921875 8.395404412419104L11.34375 8.192429708407126L11.484375000000002 8.273619590011917" stroke-width="0.03" stroke="#000000" fill="none"/>
<path d="M11.5546875 8.233024649209522L11.273437500000002 8.07064488599994L11.4140625 7.989455004395149" stroke-width="0.03" stroke="#000000" fill="none"/>
<path d="M11.4140625 8.07064488599994L11.4140625 7.827075241185566" stroke-width="0.03" stroke="#000000" fill="none"/>
<path d="M11.484375000000002 7.78648030038317L11.5546875 7.827075241185566L11.5546875 8.151834767604731L11.6953125 8.07064488599994L11.765625 8.111239826802334" stroke-width="0.03" stroke="#000000" fill="none"/>
<path d="M11.5546875 8.151834767604731L11.4140625 8.07064488599994" stroke-width="0.03" stroke="#000000" fill="none"/>
<path d="M11.273437500000002 8.07064488599994L11.273437500000002 8.233024649209522L10.9921875 8.07064488599994" stroke-width="0.03" stroke="#000000" fill="none"/>
<path d="M10.8515625 8.07064488599994L12.2578125 7.2587460699520285L12.3984375 7.33993595155682L12.3984375 7.745885359580775" stroke-width="0.03" stroke="#000000" fill="none"/>
<path d="M12.187500000000002 7.867670181987961L12.046875 7.78648030038317L11.976562500000002 7.827075241185566L11.976562500000002 7.989455004395149" stroke-width="0.03" stroke="#000000" fill="none"/>
<path d="M12.1171875 7.9082651227903575L11.976562500000002 7.827075241185566" stroke-width="0.03" stroke="#000000" fill="none"/>
<path d="M11.6953125 7.583505596371193L11.4140625 7.421125833161611" stroke-width="0.03" stroke="#000000" fill="none"/>
<path d="M11.34375 7.4617207739640055L11.625000000000002 7.624100537173588" stroke-width="0.03" stroke="#000000" fill="none"/>
<path d="M11.5546875 7.664695477975984L11.5546875 7.745885359580775L10.8515625 8.151834767604731L10.5 7.948860063592752L10.5 7.867670181987961L10.1484375 8.07064488599994L10.1484375 8.151834767604731L9.4453125 7.745885359580775L9.4453125 7.664695477975984L9.796875 7.4617207739640055L8.6015625 6.771606780323281L8.6015625 6.852796661928072L9.7265625 7.502315714766402" stroke-width="0.03" stroke="#000000" fill="none"/>
<path d="M9.65625 7.4617207739640055L9.375 7.624100537173588" stroke-width="0.03" stroke="#000000" fill="none"/>
<path d="M9.3046875 7.583505596371193L9.5859375 7.421125833161611" stroke-width="0.03" stroke="#000000" fill="none"/>
<path d="M9.515625 7.78648030038317L9.4453125 7.827075241185566L9.4453125 8.151834767604731L9.5859375 8.07064488599994L9.5859375 7.827075241185566" stroke-width="0.03" stroke="#000000" fill="none"/>
<path d="M9.4453125 7.827075241185566L8.6015625 7.33993595155682L8.7421875 7.2587460699520285L10.1484375 8.07064488599994" stroke-width="0.03" stroke="#000000" fill="none"/>
<path d="M10.1484375 8.151834767604731L10.5 7.948860063592752" stroke-width="0.03" stroke="#000000" fill="none"/>
<path d="M10.5 7.867670181987961L10.8515625 8.07064488599994L10.8515625 8.151834767604731" stroke-width="0.03" stroke="#000000" fill="none"/>
<path d="M10.8515625 8.314214530814313L10.78125 8.354809471616708L10.78125 8.679568998035872L10.5 8.841948761245455L10.218750000000002 8.679568998035872L10.218750000000002 8.354809471616708L10.1484375 8.314214530814313L9.3046875 8.80135382044306L9.3046875 9.126113346862224L9.375 9.166708287664619L10.218750000000002 8.679568998035872" stroke-width="0.03" stroke="#000000" fill="none"/>
<path d="M10.2890625 8.720163938838269L10.4296875 8.638974057233478L10.218750000000002 8.51718923482629" stroke-width="0.03" stroke="#000000" fill="none"/>
<path d="M10.359375 8.598379116431081L10.5 8.51718923482629L10.640625 8.598379116431081" stroke-width="0.03" stroke="#000000" fill="none"/>
<path d="M10.570312500000002 8.638974057233478L10.78125 8.51718923482629" stroke-width="0.03" stroke="#000000" fill="none"/>
<path d="M10.78125 8.679568998035872L11.625000000000002 9.166708287664619L11.6953125 9.126113346862224L11.6953125 8.80135382044306L10.8515625 8.314214530814313" stroke-width="0.03" stroke="#000000" fill="none"/>
<path d="M10.78125 8.354809471616708L11.625000000000002 8.841948761245455L11.6953125 8.80135382044306" stroke-width="0.03" stroke="#000000" fill="none"/>
<path d="M11.625000000000002 8.841948761245455L11.625000000000002 9.166708287664619" stroke-width="0.03" stroke="#000000" fill="none"/>
<path d="M11.976562500000002 9.126113346862224L11.976562500000002 8.963733583652642" stroke-width="0.03" stroke="#000000" fill="none"/>
<path d="M11.5546875 7.827075241185566L12.3984375 7.33993595155682" stroke-width="0.03" stroke="#000000" fill="none"/>
<path d="M12.2578125 6.933986543532863L13.031250000000002 7.380530892359214L13.031250000000002 7.05577136594005L10.78125 5.756733260263392L10.7109375 5.797328201065787L10.7109375 6.040897845880161L10.5 6.1626826682873475L10.2890625 6.040897845880161L10.2890625 5.797328201065787L10.218750000000002 5.756733260263392L7.96875 7.05577136594005L7.96875 7.380530892359214L8.7421875 6.933986543532863" stroke-width="0.03" stroke="#000000" fill="none"/>
<path d="M8.6015625 7.33993595155682L8.6015625 7.745885359580775" stroke-width="0.03" stroke="#000000" fill="none"/>
<path d="M8.8125 7.867670181987961L8.953125 7.78648030038317L9.0234375 7.827075241185566L9.0234375 7.989455004395149" stroke-width="0.03" stroke="#000000" fill="none"/>
<path d="M8.8828125 7.9082651227903575L9.0234375 7.827075241185566" stroke-width="0.03" stroke="#000000" fill="none"/>
<path d="M9.234375 8.111239826802334L9.3046875 8.07064488599994L9.4453125 8.151834767604731" stroke-width="0.03" stroke="#000000" fill="none"/>
<path d="M9.4453125 8.233024649209522L9.7265625 8.07064488599994L9.5859375 7.989455004395149" stroke-width="0.03" stroke="#000000" fill="none"/>
<path d="M9.7265625 8.07064488599994L9.7265625 8.233024649209522L10.0078125 8.07064488599994" stroke-width="0.03" stroke="#000000" fill="none"/>
<path d="M10.0078125 8.395404412419104L9.65625 8.192429708407126L9.515625 8.273619590011917" stroke-width="0.03" stroke="#000000" fill="none"/>
<path d="M9.867187500000002 8.476594294023895L7.1953125 6.933986543532863L6.3515625 7.421125833161611" stroke-width="0.03" stroke="#000000" fill="none"/>
<path d="M5.3671875 8.314214530814313L4.382812499999999 8.882543702047851L4.382812499999999 8.963733583652642L5.7890625 9.775632399700552" stroke-width="0.03" stroke="#000000" fill="none"/>
<path d="M5.859375000000001 9.735037458898159L4.382812499999999 8.882543702047851" stroke-width="0.03" stroke="#000000" fill="none"/>
<path d="M4.171875 9.004328524455037L3.609375 9.329088050874201L3.609375 10.059796985317323" stroke-width="0.03" stroke="#000000" fill="none"/>
<path d="M3.328125000000001 9.897417222107741L3.328125000000001 9.166708287664619L5.015625 8.192429708407126L5.296875 8.354809471616708" stroke-width="0.03" stroke="#000000" fill="none"/>
<path d="M5.3671875 8.314214530814313L6.84375 9.166708287664619" stroke-width="0.03" stroke="#000000" fill="none"/>
<path d="M6.984375 9.085518406059828L5.71875 9.816227340502948L5.71875 10.059796985317323L5.7890625 10.100391926119716" stroke-width="0.03" stroke="#000000" fill="none"/>
<path d="M6 9.97860710371253L4.8046875 10.668721097353256L4.8046875 10.912290742167627L5.0859375 11.074670505377211L5.0859375 11.72418955821554L4.5234375 12.048949084634705L4.2421875 11.886569321425123L4.03125 12.00835414383231L4.03125 13.388582131113758L3.7499999999999996 13.226202367904175L3.7499999999999996 14.687620236790417L1.7109375000000002 13.510366953520945L1.9921874999999998 13.347987190311363" stroke-width="0.03" stroke="#000000" fill="none"/>
<path d="M1.9921874999999998 13.429177071916154L1.9921874999999998 11.480619913401167L2.624999999999999 11.115265446179606" stroke-width="0.03" stroke="#000000" fill="none"/>
<path d="M2.90625 11.277645209389188L2.2734375000000004 11.64299967661075L2.2734375000000004 12.292518729449078L2.90625 12.65787319667064L3.046875 12.576683315065846L3.046875 12.0895440254371L3.679687499999999 11.72418955821554" stroke-width="0.03" stroke="#000000" fill="none"/>
<path d="M3.539062500000001 11.64299967661075L2.90625 12.00835414383231L2.90625 12.65787319667064" stroke-width="0.03" stroke="#000000" fill="none"/>
<path d="M2.34375 12.495493433461057L2.2734375000000004 12.536088374263452L2.2734375000000004 13.672746716730527L3.7499999999999996 14.525240473580833" stroke-width="0.03" stroke="#000000" fill="none"/>
<path d="M3.539062500000001 14.078696124754483L3.7499999999999996 13.956911302347297" stroke-width="0.03" stroke="#000000" fill="none"/>
<path d="M3.7499999999999996 13.794531539137715L3.539062500000001 13.9163163615449L3.328125000000001 13.794531539137715L3.328125000000001 13.956911302347297L3.539062500000001 14.078696124754483L3.539062500000001 13.9163163615449" stroke-width="0.03" stroke="#000000" fill="none"/>
<path d="M3.7499999999999996 13.794531539137715L3.539062500000001 13.672746716730527L3.328125000000001 13.794531539137715" stroke-width="0.03" stroke="#000000" fill="none"/>
<path d="M3.7499999999999996 13.388582131113758L2.2734375000000004 12.536088374263452" stroke-width="0.03" stroke="#000000" fill="none"/>
<path d="M2.34375 12.495493433461057L3.7499999999999996 13.307392249508968" stroke-width="0.03" stroke="#000000" fill="none"/>
<path d="M3.7499999999999996 13.226202367904175L3.9609375 13.10441754549699L4.03125 13.145012486299386" stroke-width="0.03" stroke="#000000" fill="none"/>
<path d="M4.03125 12.65787319667064L3.046875 12.0895440254371" stroke-width="0.03" stroke="#000000" fill="none"/>
<path d="M2.90625 12.00835414383231L1.9921874999999998 11.480619913401167" stroke-width="0.03" stroke="#000000" fill="none"/>
<path d="M2.2734375000000004 10.912290742167627L2.2734375000000004 10.668721097353256L2.765625 10.384556511736488L5.015625 11.683594617413146L5.015625 11.115265446179606L2.765625 9.816227340502948L2.765625 10.384556511736488" stroke-width="0.03" stroke="#000000" fill="none"/>
<path d="M2.2734375000000004 10.668721097353256L4.5234375 11.967759203029914L5.015625 11.683594617413146" stroke-width="0.03" stroke="#000000" fill="none"/>
<path d="M5.0859375 11.72418955821554L5.3671875 11.886569321425123L5.3671875 11.805379439820332L5.296875 11.764784499017935L5.4375 11.683594617413146L5.5078125 11.72418955821554L5.5078125 11.967759203029914L6.0703125 12.292518729449078L6 12.333113670251475L6 13.388582131113758" stroke-width="0.03" stroke="#000000" fill="none"/>
<path d="M6.140625 13.307392249508968L6.140625 13.632151775928133L5.859375000000001 13.46977201271855" stroke-width="0.03" stroke="#000000" fill="none"/>
<path d="M5.71875 13.632151775928133L5.71875 12.170733907041893L5.7890625 12.130138966239496L5.7890625 12.048949084634705L7.0546875 11.318240150191585L6.6328125 11.074670505377211L7.0546875 10.831100860562838L7.0546875 10.587531215748463L5.859375000000001 11.277645209389188L5.859375000000001 12.00835414383231" stroke-width="0.03" stroke="#000000" fill="none"/>
<path d="M5.7890625 12.048949084634705L6.0703125 12.211328847844287L6.984375 11.683594617413146" stroke-width="0.03" stroke="#000000" fill="none"/>
<path d="M6.984375 11.521214854203564L6.984375 12.00835414383231" stroke-width="0.03" stroke="#000000" fill="none"/>
<path d="M7.265625000000001 11.521214854203564L7.757812499999999 11.237050268586794L7.0546875 10.831100860562838" stroke-width="0.03" stroke="#000000" fill="none"/>
<path d="M7.0546875 10.587531215748463L8.109375 11.196455327784399" stroke-width="0.03" stroke="#000000" fill="none"/>
<path d="M7.757812499999999 11.237050268586794L7.757812499999999 11.399430031796376" stroke-width="0.03" stroke="#000000" fill="none"/>
<path d="M6.7734375 11.480619913401167L6.6328125 11.399430031796376L6 11.764784499017935L6 11.927164262227517" stroke-width="0.03" stroke="#000000" fill="none"/>
<path d="M6.140625 11.845974380622728L6 11.764784499017935" stroke-width="0.03" stroke="#000000" fill="none"/>
<path d="M6.0703125 12.211328847844287L6.0703125 12.292518729449078" stroke-width="0.03" stroke="#000000" fill="none"/>
<path d="M6 12.333113670251475L5.71875 12.170733907041893" stroke-width="0.03" stroke="#000000" fill="none"/>
<path d="M5.71875 12.251923788646682L5.0859375 12.617278255868243L5.0859375 13.997506243149692L6.140625 14.606430355185626" stroke-width="0.03" stroke="#000000" fill="none"/>
<path d="M6 14.281670828766462L6.140625 14.200480947161669" stroke-width="0.03" stroke="#000000" fill="none"/>
<path d="M6 14.281670828766462L6 13.713341657532922" stroke-width="0.03" stroke="#000000" fill="none"/>
<path d="M5.71875 13.632151775928133L5.296875 13.388582131113758L5.578125 13.226202367904175L5.578125 12.495493433461057L5.71875 12.414303551856264" stroke-width="0.03" stroke="#000000" fill="none"/>
<path d="M5.71875 12.576683315065846L5.578125 12.495493433461057" stroke-width="0.03" stroke="#000000" fill="none"/>
<path d="M5.296875 12.0895440254371L5.5078125 11.967759203029914" stroke-width="0.03" stroke="#000000" fill="none"/>
<path d="M5.3671875 11.886569321425123L5.296875 11.927164262227517L5.2265625 11.886569321425123L5.2265625 12.048949084634705L5.296875 12.0895440254371L5.296875 11.927164262227517" stroke-width="0.03" stroke="#000000" fill="none"/>
<path d="M5.296875 11.845974380622728L5.2265625 11.886569321425123" stroke-width="0.03" stroke="#000000" fill="none"/>
<path d="M5.296875 11.845974380622728L5.296875 11.764784499017935" stroke-width="0.03" stroke="#000000" fill="none"/>
<path d="M5.3671875 11.805379439820332L5.5078125 11.72418955821554" stroke-width="0.03" stroke="#000000" fill="none"/>
<path d="M5.859375000000001 11.277645209389188L4.8046875 10.668721097353256" stroke-width="0.03" stroke="#000000" fill="none"/>
<path d="M4.8046875 10.749910978958045L2.976562500000001 9.694442518095762L2.765625 9.816227340502948" stroke-width="0.03" stroke="#000000" fill="none"/>
<path d="M3.328125000000001 9.166708287664619L4.2421875 9.694442518095762L4.2421875 10.42515145253888" stroke-width="0.03" stroke="#000000" fill="none"/>
<path d="M4.382812499999999 10.506341334143674L4.382812499999999 9.775632399700552L4.8046875 9.53206275488618L4.8046875 9.369682991676598L4.171875 9.004328524455037" stroke-width="0.03" stroke="#000000" fill="none"/>
<path d="M4.2421875 9.694442518095762L4.8046875 9.369682991676598" stroke-width="0.03" stroke="#000000" fill="none"/>
<path d="M4.382812499999999 9.775632399700552L5.3671875 10.343961570934091" stroke-width="0.03" stroke="#000000" fill="none"/>
<path d="M5.71875 9.816227340502948L6 9.97860710371253" stroke-width="0.03" stroke="#000000" fill="none"/>
<path d="M6.210937500000001 9.53206275488618L6.210937500000001 9.288493110071807L6.3515625 9.207303228467016L6.140625 9.085518406059828L6 9.166708287664619L6 9.410277932478992L6.210937500000001 9.53206275488618" stroke-width="0.03" stroke="#000000" fill="none"/>
<path d="M6.3515625 9.450872873281389L6.3515625 9.207303228467016" stroke-width="0.03" stroke="#000000" fill="none"/>
<path d="M6.210937500000001 9.288493110071807L6 9.166708287664619" stroke-width="0.03" stroke="#000000" fill="none"/>
<path d="M6.984375 9.085518406059828L4.9453125 7.9082651227903575L4.9453125 8.233024649209522" stroke-width="0.03" stroke="#000000" fill="none"/>
<path d="M5.0859375 11.074670505377211L5.015625 11.115265446179606" stroke-width="0.03" stroke="#000000" fill="none"/>
<path d="M4.5234375 11.967759203029914L4.5234375 12.048949084634705" stroke-width="0.03" stroke="#000000" fill="none"/>
<path d="M4.1015625 11.967759203029914L2.2734375000000004 10.912290742167627" stroke-width="0.03" stroke="#000000" fill="none"/>
<path d="M4.03125 12.00835414383231L5.0859375 12.617278255868243" stroke-width="0.03" stroke="#000000" fill="none"/>
<path d="M5.578125 13.226202367904175L5.71875 13.307392249508968" stroke-width="0.03" stroke="#000000" fill="none"/>
<path d="M6.140625 13.307392249508968L8.390625 14.606430355185626L8.390625 16.067848224071867" stroke-width="0.03" stroke="#000000" fill="none"/>
<path d="M8.53125 15.174759526419164L8.53125 14.85L8.8828125 14.647025295988021L8.8828125 14.322265769568856L9.515625 14.687620236790417" stroke-width="0.03" stroke="#000000" fill="none"/>
<path d="M9.234375 14.85L8.8828125 14.647025295988021" stroke-width="0.03" stroke="#000000" fill="none"/>
<path d="M8.8828125 14.322265769568856L8.390625 14.606430355185626" stroke-width="0.03" stroke="#000000" fill="none"/>
<path d="M8.390625 14.444050591976044L9.09375 14.038101183952087" stroke-width="0.03" stroke="#000000" fill="none"/>
<path d="M9.0234375 13.997506243149692L8.390625 14.362860710371251L6.140625 13.063822604694593" stroke-width="0.03" stroke="#000000" fill="none"/>
<path d="M6.140625 13.145012486299386L8.390625 14.444050591976044L8.390625 14.362860710371251" stroke-width="0.03" stroke="#000000" fill="none"/>
<path d="M8.53125 14.85L9.234375 15.255949408023953L9.234375 14.525240473580833L9.5859375 14.322265769568856L9.5859375 13.9163163615449" stroke-width="0.03" stroke="#000000" fill="none"/>
<path d="M9.3046875 14.078696124754483L9.1640625 13.997506243149692" stroke-width="0.03" stroke="#000000" fill="none"/>
<path d="M9.09375 14.11929106555688L9.234375 14.200480947161669L9.3046875 14.159886006359274" stroke-width="0.03" stroke="#000000" fill="none"/>
<path d="M9.234375 14.200480947161669L9.234375 14.362860710371251L9.3046875 14.322265769568856L9.3046875 14.403455651173648" stroke-width="0.03" stroke="#000000" fill="none"/>
<path d="M9.4453125 14.241075887964065L9.867187500000002 14.484645532778439" stroke-width="0.03" stroke="#000000" fill="none"/>
<path d="M9.867187500000002 14.078696124754483L9.234375 13.713341657532922" stroke-width="0.03" stroke="#000000" fill="none"/>
<path d="M9.515625 13.55096189432334L9.867187500000002 13.753936598335319" stroke-width="0.03" stroke="#000000" fill="none"/>
<path d="M10.5 14.85L11.484375000000002 15.418329171233536" stroke-width="0.03" stroke="#000000" fill="none"/>
<path d="M11.765625 15.580708934443118L12.609375 16.067848224071867" stroke-width="0.03" stroke="#000000" fill="none"/>
<path d="M11.1328125 15.946063401664679L11.1328125 16.352012809688635" stroke-width="0.03" stroke="#000000" fill="none"/>
<path d="M10.8515625 16.10844316487426L10.5 15.905468460862282L10.1484375 16.10844316487426L9.515625 15.7430886976527L9.515625 16.55498751370061L9.234375 16.39260775049103L9.234375 15.580708934443118L8.53125 15.174759526419164" stroke-width="0.03" stroke="#000000" fill="none"/>
<path d="M9.867187500000002 15.946063401664679L9.867187500000002 16.352012809688635L10.1484375 16.514392572898217" stroke-width="0.03" stroke="#000000" fill="none"/>
<path d="M10.4296875 16.433202691293424L10.4296875 16.270822928083845L10.5 16.230227987281445L10.570312500000002 16.270822928083845L10.570312500000002 16.433202691293424" stroke-width="0.03" stroke="#000000" fill="none"/>
<path d="M10.5 16.473797632095824L10.5 16.230227987281445" stroke-width="0.03" stroke="#000000" fill="none"/>
<path d="M10.4296875 16.270822928083845L10.2890625 16.189633046479052L10.359375 16.14903810567666L10.2890625 16.10844316487426" stroke-width="0.03" stroke="#000000" fill="none"/>
<path d="M10.5 16.067848224071867L10.5 15.580708934443118L10.1484375 15.783683638455097" stroke-width="0.03" stroke="#000000" fill="none"/>
<path d="M10.5 15.580708934443118L10.8515625 15.783683638455097" stroke-width="0.03" stroke="#000000" fill="none"/>
<path d="M10.5 16.55498751370061L9.867187500000002 16.920341980922174" stroke-width="0.03" stroke="#000000" fill="none"/>
<path d="M9.515625 16.55498751370061L9.867187500000002 16.352012809688635" stroke-width="0.03" stroke="#000000" fill="none"/>
<path d="M11.1328125 16.920341980922174L11.203125 16.879747040119774" stroke-width="0.03" stroke="#000000" fill="none"/>
<path d="M12.46875 18.747114317029972L12.46875 19.96496254110184L11.273437500000002 20.655076534742566L11.273437500000002 21.87292475881443L11.0625 21.751139936407245L11.0625 21.42638040998808L10.5 21.101620883568916" stroke-width="0.03" stroke="#000000" fill="none"/>
<path d="M10.5 21.18281076517371L10.0078125 21.466975350790477L10.0078125 24.06505156214379" stroke-width="0.03" stroke="#000000" fill="none"/>
<path d="M10.5 23.780886976527025L10.5 21.18281076517371L10.9921875 21.466975350790477L10.9921875 24.06505156214379" stroke-width="0.03" stroke="#000000" fill="none"/>
<path d="M11.203125 23.53731733171265L11.835937500000002 23.90267179893421L13.5234375 22.928393219676718L13.5234375 22.603633693257553" stroke-width="0.03" stroke="#000000" fill="none"/>
<path d="M13.593750000000002 22.563038752455157L12.609375 23.131367923688696L12.539062500000002 23.090772982886296L12.539062500000002 21.466975350790477" stroke-width="0.03" stroke="#000000" fill="none"/>
<path d="M12.609375 21.42638040998808L12.609375 23.131367923688696" stroke-width="0.03" stroke="#000000" fill="none"/>
<path d="M12.3984375 23.253152746095882L11.835937500000002 23.577912272515047L11.203125 23.212557805293486" stroke-width="0.03" stroke="#000000" fill="none"/>
<path d="M11.203125 22.481848870850367L11.835937500000002 22.847203338071925L12.3984375 22.52244381165276L12.3984375 23.253152746095882" stroke-width="0.03" stroke="#000000" fill="none"/>
<path d="M11.835937500000002 22.847203338071925L11.835937500000002 23.90267179893421" stroke-width="0.03" stroke="#000000" fill="none"/>
<path d="M11.835937500000002 22.684823574862342L12.2578125 22.44125393004797L12.3984375 22.52244381165276" stroke-width="0.03" stroke="#000000" fill="none"/>
<path d="M11.835937500000002 22.684823574862342L11.835937500000002 21.548165232395267" stroke-width="0.03" stroke="#000000" fill="none"/>
<path d="M12.2578125 21.385785469185684L12.2578125 21.304595587580895" stroke-width="0.03" stroke="#000000" fill="none"/>
<path d="M12.2578125 21.385785469185684L12.46875 21.507570291592874" stroke-width="0.03" stroke="#000000" fill="none"/>
<path d="M12.9609375 21.466975350790477L12.9609375 21.223405705976102L13.171875 21.345190528383288L13.3125 21.2640006467785L13.3125 21.507570291592874L13.171875 21.588760173197663L12.9609375 21.466975350790477" stroke-width="0.03" stroke="#000000" fill="none"/>
<path d="M13.171875 21.588760173197663L13.171875 21.345190528383288" stroke-width="0.03" stroke="#000000" fill="none"/>
<path d="M13.3125 21.2640006467785L13.1015625 21.142215824371313" stroke-width="0.03" stroke="#000000" fill="none"/>
<path d="M13.593750000000002 20.858051238754545L13.593750000000002 22.563038752455157" stroke-width="0.03" stroke="#000000" fill="none"/>
<path d="M13.453125 22.96898816047911L13.734375 23.131367923688696" stroke-width="0.03" stroke="#000000" fill="none"/>
<path d="M14.859375 22.157089344431203L15.703125000000002 21.669950054802452L15.703125000000002 18.58473455382039" stroke-width="0.03" stroke="#000000" fill="none"/>
<path d="M15.843750000000002 18.5035446722156L15.843750000000002 18.909494080239554L15.703125000000002 18.990683961844347" stroke-width="0.03" stroke="#000000" fill="none"/>
<path d="M15.703125000000002 19.071873843449136L15.984375 18.909494080239554L15.843750000000002 18.828304198634765L16.125 18.665924435425183" stroke-width="0.03" stroke="#000000" fill="none"/>
<path d="M16.1953125 18.544139613017997L16.546875 18.341164909006018L16.546875 17.93521550098206L17.953125000000004 17.123316684934153L17.953125000000004 16.960936921724567L17.6015625 16.75796221771259" stroke-width="0.03" stroke="#000000" fill="none"/>
<path d="M17.390625 16.879747040119774L17.390625 17.04212680332936L17.320312500000004 17.082721744131756L17.1796875 17.001531862526964" stroke-width="0.03" stroke="#000000" fill="none"/>
<path d="M17.320312500000004 16.920341980922174L17.320312500000004 17.082721744131756" stroke-width="0.03" stroke="#000000" fill="none"/>
<path d="M16.96875 17.123316684934153L16.96875 17.204506566538942L16.828125 17.28569644814373L16.828125 17.448076211353314L17.0390625 17.569861033760503" stroke-width="0.03" stroke="#000000" fill="none"/>
<path d="M17.109375 17.529266092958107L17.109375 17.448076211353314L16.828125 17.28569644814373" stroke-width="0.03" stroke="#000000" fill="none"/>
<path d="M16.7578125 17.24510150734134L16.7578125 17.569861033760503L16.8984375 17.48867115215571" stroke-width="0.03" stroke="#000000" fill="none"/>
<path d="M16.7578125 17.569861033760503L16.617187500000004 17.48867115215571L16.617187500000004 17.813430678574875" stroke-width="0.03" stroke="#000000" fill="none"/>
<path d="M16.546875 17.93521550098206L16.4765625 17.894620560179668L16.4765625 18.30056996820362L16.546875 18.341164909006018" stroke-width="0.03" stroke="#000000" fill="none"/>
<path d="M16.4765625 18.30056996820362L16.125 18.5035446722156L16.125 19.31544348826351L16.1953125 19.356038429065904L16.546875 19.15306372505393L16.546875 20.53329171233538L16.4765625 20.492696771532984L16.4765625 19.193658665856326" stroke-width="0.03" stroke="#000000" fill="none"/>
<path d="M16.4765625 19.274848547461115L16.1953125 19.437228310670697" stroke-width="0.03" stroke="#000000" fill="none"/>
<path d="M16.1953125 19.51841819227549L16.4765625 19.356038429065904" stroke-width="0.03" stroke="#000000" fill="none"/>
<path d="M16.125 19.23425360665872L16.0546875 19.274848547461115L16.0546875 20.249127126718612L16.1953125 20.16793724511382L16.1953125 18.544139613017997L16.125 18.5035446722156" stroke-width="0.03" stroke="#000000" fill="none"/>
<path d="M15.984375 18.422354790610807L15.140625 18.909494080239554L14.859375 18.747114317029972L14.859375 18.665924435425183L15.703125000000002 18.178785145796436L15.703125000000002 17.85402561937727L15.984375 17.69164585616769L15.984375 16.717367276910196L16.0546875 16.6767723361078L16.3359375 16.83915209931738L16.3359375 17.813430678574875L16.265625 17.85402561937727L15.984375 17.69164585616769" stroke-width="0.03" stroke="#000000" fill="none"/>
<path d="M15.9140625 17.732240796970082L15.9140625 17.894620560179668L16.125 17.77283573777248" stroke-width="0.03" stroke="#000000" fill="none"/>
<path d="M15.984375 17.85402561937727L15.984375 18.016405382586854L15.843750000000002 18.097595264191643" stroke-width="0.03" stroke="#000000" fill="none"/>
<path d="M15.843750000000002 18.016405382586854L15.703125000000002 18.097595264191643" stroke-width="0.03" stroke="#000000" fill="none"/>
<path d="M15.703125000000002 18.178785145796436L15.984375 18.341164909006018L15.984375 18.422354790610807" stroke-width="0.03" stroke="#000000" fill="none"/>
<path d="M15.984375 18.341164909006018L15.140625 18.828304198634765L15.140625 18.909494080239554" stroke-width="0.03" stroke="#000000" fill="none"/>
<path d="M15.140625 18.828304198634765L14.859375 18.665924435425183" stroke-width="0.03" stroke="#000000" fill="none"/>
<path d="M15.773437500000002 19.112468784251533L15.9140625 19.03127890264674L16.125 19.15306372505393" stroke-width="0.03" stroke="#000000" fill="none"/>
<path d="M16.0546875 19.274848547461115L15.773437500000002 19.112468784251533L15.773437500000002 19.274848547461115L15.703125000000002 19.31544348826351" stroke-width="0.03" stroke="#000000" fill="none"/>
<path d="M15.703125000000002 19.559013133077883L15.843750000000002 19.640203014682676L15.843750000000002 19.721392896287465L15.703125000000002 19.802582777892262" stroke-width="0.03" stroke="#000000" fill="none"/>
<path d="M15.703125000000002 19.721392896287465L15.843750000000002 19.640203014682676" stroke-width="0.03" stroke="#000000" fill="none"/>
<path d="M15.703125000000002 20.04615242270663L16.0546875 20.249127126718612" stroke-width="0.03" stroke="#000000" fill="none"/>
<path d="M16.4765625 20.330317008323398L15.703125000000002 20.776861357149752L15.984375 20.939241120359334L18.234375 19.640203014682676L18.234375 19.559013133077883L18.0234375 19.437228310670697L17.390625 19.802582777892262" stroke-width="0.03" stroke="#000000" fill="none"/>
<path d="M17.390625 20.04615242270663L18.234375 19.559013133077883" stroke-width="0.03" stroke="#000000" fill="none"/>
<path d="M18.0234375 19.437228310670697L18.0234375 19.193658665856326L18.234375 19.071873843449136L18.234375 18.341164909006018" stroke-width="0.03" stroke="#000000" fill="none"/>
<path d="M18.4453125 18.219380086598832L18.4453125 19.193658665856326L18.515625 19.15306372505393L18.515625 16.55498751370061L18.234375 16.39260775049103L18.234375 17.28569644814373" stroke-width="0.03" stroke="#000000" fill="none"/>
<path d="M18.375 17.204506566538942L17.25 17.85402561937727" stroke-width="0.03" stroke="#000000" fill="none"/>
<path d="M17.25 17.93521550098206L18.4453125 17.24510150734134L18.375 17.204506566538942" stroke-width="0.03" stroke="#000000" fill="none"/>
<path d="M17.953125000000004 16.960936921724567L17.109375 17.448076211353314" stroke-width="0.03" stroke="#000000" fill="none"/>
<path d="M17.1796875 17.48867115215571L16.4765625 17.894620560179668" stroke-width="0.03" stroke="#000000" fill="none"/>
<path d="M16.265625 17.85402561937727L16.265625 16.879747040119774L15.984375 16.717367276910196" stroke-width="0.03" stroke="#000000" fill="none"/>
<path d="M16.265625 16.879747040119774L16.3359375 16.83915209931738" stroke-width="0.03" stroke="#000000" fill="none"/>
<path d="M16.3359375 16.514392572898217L16.1953125 16.433202691293424" stroke-width="0.03" stroke="#000000" fill="none"/>
<path d="M16.6875 17.28569644814373L16.6875 17.448076211353314L16.3359375 17.651050915365293" stroke-width="0.03" stroke="#000000" fill="none"/>
<path d="M16.3359375 17.48867115215571L19.0078125 15.946063401664679L19.0078125 14.971784822407185" stroke-width="0.03" stroke="#000000" fill="none"/>
<path d="M18.7265625 13.672746716730527L18.7265625 12.536088374263452" stroke-width="0.03" stroke="#000000" fill="none"/>
<path d="M18.09375 12.00835414383231L19.0078125 11.480619913401167" stroke-width="0.03" stroke="#000000" fill="none"/>
<path d="M18.7265625 10.912290742167627L16.8984375 11.967759203029914" stroke-width="0.03" stroke="#000000" fill="none"/>
<path d="M16.96875 12.00835414383231L15.9140625 12.617278255868243" stroke-width="0.03" stroke="#000000" fill="none"/>
<path d="M15.703125000000002 12.0895440254371L15.773437500000002 12.048949084634705L15.773437500000002 11.886569321425123L15.703125000000002 11.845974380622728L15.703125000000002 11.764784499017935L15.5625 11.683594617413146L15.4921875 11.72418955821554L15.4921875 11.967759203029914L14.9296875 12.292518729449078L14.9296875 12.211328847844287" stroke-width="0.03" stroke="#000000" fill="none"/>
<path d="M14.9296875 12.292518729449078L15.000000000000002 12.333113670251475L15.28125 12.170733907041893" stroke-width="0.03" stroke="#000000" fill="none"/>
<path d="M15.4921875 11.967759203029914L15.703125000000002 12.0895440254371L15.703125000000002 11.927164262227517L15.773437500000002 11.886569321425123" stroke-width="0.03" stroke="#000000" fill="none"/>
<path d="M15.703125000000002 11.927164262227517L15.6328125 11.886569321425123L15.6328125 11.805379439820332L15.4921875 11.72418955821554" stroke-width="0.03" stroke="#000000" fill="none"/>
<path d="M15.6328125 11.805379439820332L15.703125000000002 11.764784499017935" stroke-width="0.03" stroke="#000000" fill="none"/>
<path d="M15.6328125 11.886569321425123L15.9140625 11.72418955821554" stroke-width="0.03" stroke="#000000" fill="none"/>
<path d="M15.984375 11.683594617413146L18.234375 10.384556511736488L18.7265625 10.668721097353256L18.7265625 10.912290742167627" stroke-width="0.03" stroke="#000000" fill="none"/>
<path d="M18.7265625 10.668721097353256L16.4765625 11.967759203029914L15.984375 11.683594617413146L15.984375 11.115265446179606L18.234375 9.816227340502948L18.234375 10.384556511736488" stroke-width="0.03" stroke="#000000" fill="none"/>
<path d="M18.234375 9.816227340502948L18.0234375 9.694442518095762" stroke-width="0.03" stroke="#000000" fill="none"/>
<path d="M15.984375 11.115265446179606L15.9140625 11.074670505377211" stroke-width="0.03" stroke="#000000" fill="none"/>
<path d="M16.4765625 11.967759203029914L16.4765625 12.048949084634705" stroke-width="0.03" stroke="#000000" fill="none"/>
<path d="M15.000000000000002 12.333113670251475L15.000000000000002 13.388582131113758" stroke-width="0.03" stroke="#000000" fill="none"/>
<path d="M15.000000000000002 13.713341657532922L15.000000000000002 14.281670828766462L14.859375 14.200480947161669" stroke-width="0.03" stroke="#000000" fill="none"/>
<path d="M15.703125000000002 13.875721420742504L15.9140625 13.997506243149692" stroke-width="0.03" stroke="#000000" fill="none"/>
<path d="M14.718749999999998 12.982632723089804L14.718749999999998 12.90144284148501L14.5078125 12.779658019077825L14.437500000000002 12.820252959880222" stroke-width="0.03" stroke="#000000" fill="none"/>
<path d="M14.648437500000002 12.942037782287407L14.718749999999998 12.90144284148501" stroke-width="0.03" stroke="#000000" fill="none"/>
<path d="M14.859375 17.366886329748525L15.2109375 17.569861033760503" stroke-width="0.03" stroke="#000000" fill="none"/>
<path d="M15.703125000000002 17.93521550098206L15.843750000000002 18.016405382586854L15.843750000000002 18.259975027401225" stroke-width="0.03" stroke="#000000" fill="none"/>
<path d="M15.984375 18.016405382586854L15.843750000000002 17.93521550098206L15.843750000000002 17.85402561937727" stroke-width="0.03" stroke="#000000" fill="none"/>
<path d="M15.843750000000002 17.93521550098206L15.773437500000002 17.975810441784457" stroke-width="0.03" stroke="#000000" fill="none"/>
<path d="M15.9140625 17.894620560179668L15.773437500000002 17.813430678574875" stroke-width="0.03" stroke="#000000" fill="none"/>
<path d="M15.984375 18.909494080239554L15.984375 19.071873843449136" stroke-width="0.03" stroke="#000000" fill="none"/>
<path d="M17.25 18.909494080239554L17.320312500000004 18.86889913943716L17.320312500000004 20.16793724511382L17.25 20.12734230431142L17.25 18.747114317029972L18.4453125 18.057000323389246L18.4453125 16.59558245450301L18.515625 16.55498751370061" stroke-width="0.03" stroke="#000000" fill="none"/>
<path d="M18.4453125 16.59558245450301L18.234375 16.473797632095824" stroke-width="0.03" stroke="#000000" fill="none"/>
<path d="M17.390625 17.448076211353314L17.390625 17.77283573777248" stroke-width="0.03" stroke="#000000" fill="none"/>
<path d="M17.320312500000004 17.813430678574875L17.320312500000004 17.48867115215571" stroke-width="0.03" stroke="#000000" fill="none"/>
<path d="M17.25 17.529266092958107L17.25 17.93521550098206" stroke-width="0.03" stroke="#000000" fill="none"/>
<path d="M17.25 17.529266092958107L17.1796875 17.48867115215571" stroke-width="0.03" stroke="#000000" fill="none"/>
<path d="M17.390625 18.665924435425183L17.390625 18.747114317029972L18.515625 18.097595264191643L18.4453125 18.057000323389246" stroke-width="0.03" stroke="#000000" fill="none"/>
<path d="M18.515625 18.178785145796436L17.390625 18.828304198634765L17.390625 20.12734230431142" stroke-width="0.03" stroke="#000000" fill="none"/>
<path d="M17.25 20.12734230431142L15.984375 20.858051238754545L15.984375 20.939241120359334" stroke-width="0.03" stroke="#000000" fill="none"/>
<path d="M15.984375 20.858051238754545L15.773437500000002 20.736266416347355" stroke-width="0.03" stroke="#000000" fill="none"/>
<path d="M17.25 18.828304198634765L17.320312500000004 18.78770925783237L17.320312500000004 18.706519376227575" stroke-width="0.03" stroke="#000000" fill="none"/>
<path d="M17.320312500000004 18.78770925783237L17.25 18.747114317029972" stroke-width="0.03" stroke="#000000" fill="none"/>
<path d="M18.234375 19.071873843449136L18.4453125 19.193658665856326" stroke-width="0.03" stroke="#000000" fill="none"/>
<path d="M12.46875 19.96496254110184L12.2578125 19.843177718694655L11.835937500000002 20.086747363509026L11.5546875 19.924367600299444L10.921875000000002 20.289722067521005L10.78125 20.208532185916212" stroke-width="0.03" stroke="#000000" fill="none"/>
<path d="M10.640625 20.289722067521005L11.273437500000002 20.655076534742566" stroke-width="0.03" stroke="#000000" fill="none"/>
<path d="M10.921875000000002 20.289722067521005L10.921875000000002 20.12734230431142" stroke-width="0.03" stroke="#000000" fill="none"/>
<path d="M10.570312500000002 20.330317008323398L11.835937500000002 19.59960807388028L11.835937500000002 20.086747363509026" stroke-width="0.03" stroke="#000000" fill="none"/>
<path d="M11.5546875 19.924367600299444L11.5546875 19.761987837089862" stroke-width="0.03" stroke="#000000" fill="none"/>
<path d="M11.765625 19.31544348826351L12.2578125 19.03127890264674L12.2578125 19.843177718694655" stroke-width="0.03" stroke="#000000" fill="none"/>
<path d="M12.2578125 19.03127890264674L12.1171875 18.95008902104195" stroke-width="0.03" stroke="#000000" fill="none"/>
<path d="M11.0625 21.42638040998808L10.9921875 21.466975350790477" stroke-width="0.03" stroke="#000000" fill="none"/>
<path d="M11.203125 22.31946910764078L11.835937500000002 22.684823574862342" stroke-width="0.03" stroke="#000000" fill="none"/>
<path d="M10.0078125 21.466975350790477L9.9375 21.42638040998808" stroke-width="0.03" stroke="#000000" fill="none"/>
<path d="M9.1640625 21.548165232395267L9.1640625 22.684823574862342" stroke-width="0.03" stroke="#000000" fill="none"/>
<path d="M9.1640625 22.847203338071925L9.1640625 23.90267179893421" stroke-width="0.03" stroke="#000000" fill="none"/>
<path d="M6.140625 22.157089344431203L5.296875 21.669950054802452L5.296875 18.58473455382039" stroke-width="0.03" stroke="#000000" fill="none"/>
<path d="M5.15625 18.5035446722156L5.15625 18.909494080239554L5.296875 18.990683961844347" stroke-width="0.03" stroke="#000000" fill="none"/>
<path d="M5.296875 19.071873843449136L5.015625 18.909494080239554L5.015625 19.071873843449136" stroke-width="0.03" stroke="#000000" fill="none"/>
<path d="M5.0859375 19.03127890264674L4.875 19.15306372505393" stroke-width="0.03" stroke="#000000" fill="none"/>
<path d="M4.875 19.23425360665872L4.9453125 19.274848547461115L4.9453125 20.249127126718612L5.296875 20.04615242270663" stroke-width="0.03" stroke="#000000" fill="none"/>
<path d="M5.296875 19.802582777892262L5.15625 19.721392896287465L5.15625 19.640203014682676L5.296875 19.559013133077883" stroke-width="0.03" stroke="#000000" fill="none"/>
<path d="M5.296875 19.721392896287465L5.15625 19.640203014682676" stroke-width="0.03" stroke="#000000" fill="none"/>
<path d="M5.296875 19.31544348826351L5.2265625 19.274848547461115L5.2265625 19.112468784251533L5.0859375 19.03127890264674" stroke-width="0.03" stroke="#000000" fill="none"/>
<path d="M5.015625 18.909494080239554L5.15625 18.828304198634765L4.875 18.665924435425183" stroke-width="0.03" stroke="#000000" fill="none"/>
<path d="M4.8046875 18.544139613017997L4.875 18.5035446722156L4.5234375 18.30056996820362L4.5234375 17.894620560179668L3.8203125000000004 17.48867115215571L3.7499999999999996 17.529266092958107L3.7499999999999996 17.93521550098206L2.5546875 17.24510150734134L2.624999999999999 17.204506566538942L3.7499999999999996 17.85402561937727" stroke-width="0.03" stroke="#000000" fill="none"/>
<path d="M3.679687499999999 17.813430678574875L3.679687499999999 17.48867115215571" stroke-width="0.03" stroke="#000000" fill="none"/>
<path d="M3.609375 17.448076211353314L3.609375 17.77283573777248" stroke-width="0.03" stroke="#000000" fill="none"/>
<path d="M3.8906249999999996 17.529266092958107L3.8906249999999996 17.448076211353314L3.046875 16.960936921724567L3.3984375 16.75796221771259" stroke-width="0.03" stroke="#000000" fill="none"/>
<path d="M3.609375 16.879747040119774L3.609375 17.04212680332936L3.679687499999999 17.082721744131756L3.8203125000000004 17.001531862526964" stroke-width="0.03" stroke="#000000" fill="none"/>
<path d="M3.679687499999999 16.920341980922174L3.679687499999999 17.082721744131756" stroke-width="0.03" stroke="#000000" fill="none"/>
<path d="M4.03125 17.123316684934153L4.03125 17.204506566538942L4.171875 17.28569644814373L4.171875 17.448076211353314L3.9609375 17.569861033760503" stroke-width="0.03" stroke="#000000" fill="none"/>
<path d="M3.8906249999999996 17.448076211353314L4.171875 17.28569644814373" stroke-width="0.03" stroke="#000000" fill="none"/>
<path d="M4.2421875 17.24510150734134L4.2421875 17.569861033760503L4.1015625 17.48867115215571" stroke-width="0.03" stroke="#000000" fill="none"/>
<path d="M4.2421875 17.569861033760503L4.382812499999999 17.48867115215571L4.382812499999999 17.813430678574875" stroke-width="0.03" stroke="#000000" fill="none"/>
<path d="M4.453125 17.93521550098206L4.5234375 17.894620560179668" stroke-width="0.03" stroke="#000000" fill="none"/>
<path d="M4.453125 17.93521550098206L4.453125 18.341164909006018L4.8046875 18.544139613017997L4.8046875 20.16793724511382L4.9453125 20.249127126718612" stroke-width="0.03" stroke="#000000" fill="none"/>
<path d="M4.5234375 20.330317008323398L5.296875 20.776861357149752L5.015625 20.939241120359334L2.765625 19.640203014682676L2.765625 19.559013133077883L2.976562500000001 19.437228310670697L3.609375 19.802582777892262" stroke-width="0.03" stroke="#000000" fill="none"/>
<path d="M3.609375 20.04615242270663L2.765625 19.559013133077883" stroke-width="0.03" stroke="#000000" fill="none"/>
<path d="M2.976562500000001 19.437228310670697L2.976562500000001 19.193658665856326L2.765625 19.071873843449136L2.765625 18.341164909006018" stroke-width="0.03" stroke="#000000" fill="none"/>
<path d="M2.5546875 18.219380086598832L2.5546875 19.193658665856326L2.765625 19.071873843449136" stroke-width="0.03" stroke="#000000" fill="none"/>
<path d="M2.5546875 19.193658665856326L2.484375000000001 19.15306372505393L2.484375000000001 16.55498751370061L2.765625 16.39260775049103L2.765625 17.28569644814373" stroke-width="0.03" stroke="#000000" fill="none"/>
<path d="M3.046875 17.123316684934153L3.046875 16.960936921724567" stroke-width="0.03" stroke="#000000" fill="none"/>
<path d="M3.046875 17.123316684934153L4.453125 17.93521550098206" stroke-width="0.03" stroke="#000000" fill="none"/>
<path d="M4.6640625 17.813430678574875L4.6640625 16.83915209931738L4.9453125 16.6767723361078L5.015625 16.717367276910196L5.015625 17.69164585616769L4.734375 17.85402561937727L4.6640625 17.813430678574875" stroke-width="0.03" stroke="#000000" fill="none"/>
<path d="M4.734375 17.85402561937727L4.734375 16.879747040119774L5.015625 16.717367276910196" stroke-width="0.03" stroke="#000000" fill="none"/>
<path d="M4.734375 16.879747040119774L4.6640625 16.83915209931738" stroke-width="0.03" stroke="#000000" fill="none"/>
<path d="M4.6640625 16.514392572898217L4.8046875 16.433202691293424" stroke-width="0.03" stroke="#000000" fill="none"/>
<path d="M4.6640625 16.352012809688635L4.6640625 16.514392572898217L1.7109375000000002 14.809405059197603L1.7109375000000002 13.510366953520945" stroke-width="0.03" stroke="#000000" fill="none"/>
<path d="M1.9921874999999998 13.429177071916154L2.2734375000000004 13.591556835125736" stroke-width="0.03" stroke="#000000" fill="none"/>
<path d="M1.9921874999999998 14.971784822407185L1.9921874999999998 15.946063401664679L4.6640625 17.48867115215571" stroke-width="0.03" stroke="#000000" fill="none"/>
<path d="M4.6640625 17.651050915365293L4.3125 17.448076211353314L4.3125 17.28569644814373" stroke-width="0.03" stroke="#000000" fill="none"/>
<path d="M4.875 17.77283573777248L5.0859375 17.894620560179668L5.2265625 17.813430678574875" stroke-width="0.03" stroke="#000000" fill="none"/>
<path d="M5.15625 17.85402561937727L5.15625 17.93521550098206L5.015625 18.016405382586854L5.15625 18.097595264191643" stroke-width="0.03" stroke="#000000" fill="none"/>
<path d="M5.15625 18.016405382586854L5.296875 17.93521550098206" stroke-width="0.03" stroke="#000000" fill="none"/>
<path d="M5.296875 17.85402561937727L5.296875 18.178785145796436L5.015625 18.341164909006018L5.015625 18.422354790610807L5.859375000000001 18.909494080239554L6.140625 18.747114317029972L6.140625 18.665924435425183L5.296875 18.178785145796436" stroke-width="0.03" stroke="#000000" fill="none"/>
<path d="M5.296875 18.097595264191643L5.15625 18.016405382586854L5.15625 18.259975027401225" stroke-width="0.03" stroke="#000000" fill="none"/>
<path d="M5.015625 18.341164909006018L5.859375000000001 18.828304198634765L5.859375000000001 18.909494080239554" stroke-width="0.03" stroke="#000000" fill="none"/>
<path d="M5.859375000000001 18.828304198634765L6.140625 18.665924435425183" stroke-width="0.03" stroke="#000000" fill="none"/>
<path d="M6.140625 17.77283573777248L6.140625 17.366886329748525L5.7890625 17.163911625736546" stroke-width="0.03" stroke="#000000" fill="none"/>
<path d="M5.7890625 17.001531862526964L4.6640625 16.352012809688635" stroke-width="0.03" stroke="#000000" fill="none"/>
<path d="M5.7890625 15.702493756850306L6.140625 15.905468460862282" stroke-width="0.03" stroke="#000000" fill="none"/>
<path d="M6.140625 17.366886329748525L5.7890625 17.569861033760503" stroke-width="0.03" stroke="#000000" fill="none"/>
<path d="M5.296875 17.85402561937727L5.015625 17.69164585616769" stroke-width="0.03" stroke="#000000" fill="none"/>
<path d="M5.0859375 17.732240796970082L5.0859375 17.894620560179668" stroke-width="0.03" stroke="#000000" fill="none"/>
<path d="M5.15625 17.93521550098206L5.2265625 17.975810441784457" stroke-width="0.03" stroke="#000000" fill="none"/>
<path d="M5.015625 18.016405382586854L5.015625 17.85402561937727" stroke-width="0.03" stroke="#000000" fill="none"/>
<path d="M4.5234375 18.30056996820362L4.453125 18.341164909006018" stroke-width="0.03" stroke="#000000" fill="none"/>
<path d="M4.875 18.5035446722156L4.875 19.31544348826351L4.8046875 19.356038429065904L4.453125 19.15306372505393L4.453125 20.53329171233538L4.5234375 20.492696771532984L4.5234375 19.193658665856326" stroke-width="0.03" stroke="#000000" fill="none"/>
<path d="M4.5234375 19.274848547461115L4.8046875 19.437228310670697" stroke-width="0.03" stroke="#000000" fill="none"/>
<path d="M4.8046875 19.51841819227549L4.5234375 19.356038429065904" stroke-width="0.03" stroke="#000000" fill="none"/>
<path d="M4.9453125 19.274848547461115L5.2265625 19.112468784251533" stroke-width="0.03" stroke="#000000" fill="none"/>
<path d="M3.7499999999999996 18.909494080239554L3.679687499999999 18.86889913943716L3.679687499999999 20.16793724511382L3.7499999999999996 20.12734230431142L3.7499999999999996 18.747114317029972L2.5546875 18.057000323389246L2.5546875 16.59558245450301L2.484375000000001 16.55498751370061" stroke-width="0.03" stroke="#000000" fill="none"/>
<path d="M2.5546875 16.59558245450301L2.765625 16.473797632095824" stroke-width="0.03" stroke="#000000" fill="none"/>
<path d="M2.5546875 18.057000323389246L2.484375000000001 18.097595264191643L3.609375 18.747114317029972L3.609375 18.665924435425183" stroke-width="0.03" stroke="#000000" fill="none"/>
<path d="M3.679687499999999 18.706519376227575L3.679687499999999 18.78770925783237L3.7499999999999996 18.828304198634765" stroke-width="0.03" stroke="#000000" fill="none"/>
<path d="M3.679687499999999 18.78770925783237L3.7499999999999996 18.747114317029972" stroke-width="0.03" stroke="#000000" fill="none"/>
<path d="M3.609375 18.828304198634765L3.609375 20.12734230431142" stroke-width="0.03" stroke="#000000" fill="none"/>
<path d="M3.7499999999999996 20.12734230431142L5.015625 20.858051238754545L5.015625 20.939241120359334" stroke-width="0.03" stroke="#000000" fill="none"/>
<path d="M5.015625 20.858051238754545L5.2265625 20.736266416347355" stroke-width="0.03" stroke="#000000" fill="none"/>
<path d="M3.609375 18.828304198634765L2.484375000000001 18.178785145796436" stroke-width="0.03" stroke="#000000" fill="none"/>
<path d="M5.0859375 13.997506243149692L5.296875 13.875721420742504L5.296875 13.388582131113758" stroke-width="0.03" stroke="#000000" fill="none"/>
<path d="M5.296875 13.875721420742504L6 14.281670828766462" stroke-width="0.03" stroke="#000000" fill="none"/>
<path d="M6.28125 12.982632723089804L6.28125 12.90144284148501L6.492187500000001 12.779658019077825L6.5625 12.820252959880222" stroke-width="0.03" stroke="#000000" fill="none"/>
<path d="M6.3515625 12.942037782287407L6.28125 12.90144284148501" stroke-width="0.03" stroke="#000000" fill="none"/>
<path d="M6.6328125 11.399430031796376L6.6328125 11.074670505377211" stroke-width="0.03" stroke="#000000" fill="none"/>
<path d="M8.8828125 10.42515145253888L8.8828125 10.343961570934091" stroke-width="0.03" stroke="#000000" fill="none"/>
<path d="M8.8828125 10.42515145253888L9.1640625 10.587531215748463" stroke-width="0.03" stroke="#000000" fill="none"/>
<path d="M9.375 9.166708287664619L9.375 8.841948761245455L10.218750000000002 8.354809471616708" stroke-width="0.03" stroke="#000000" fill="none"/>
<path d="M10.5 8.51718923482629L10.5 8.679568998035872L10.4296875 8.720163938838269" stroke-width="0.03" stroke="#000000" fill="none"/>
<path d="M10.4296875 8.638974057233478L10.4296875 8.80135382044306" stroke-width="0.03" stroke="#000000" fill="none"/>
<path d="M10.5 8.679568998035872L10.570312500000002 8.720163938838269" stroke-width="0.03" stroke="#000000" fill="none"/>
<path d="M10.570312500000002 8.638974057233478L10.570312500000002 8.80135382044306" stroke-width="0.03" stroke="#000000" fill="none"/>
<path d="M10.7109375 8.720163938838269L10.570312500000002 8.638974057233478" stroke-width="0.03" stroke="#000000" fill="none"/>
<path d="M10.5 9.410277932478992L10.5 9.816227340502948" stroke-width="0.03" stroke="#000000" fill="none"/>
<path d="M9.375 8.841948761245455L9.3046875 8.80135382044306" stroke-width="0.03" stroke="#000000" fill="none"/>
<path d="M8.0390625 7.33993595155682L8.0390625 7.096366306742446L7.96875 7.05577136594005" stroke-width="0.03" stroke="#000000" fill="none"/>
<path d="M8.0390625 7.096366306742446L9.3046875 6.365657372299325L9.3046875 6.284467490694534L10.4296875 6.933986543532863L10.359375 6.974581484335259" stroke-width="0.03" stroke="#000000" fill="none"/>
<path d="M10.4296875 7.015176425137655L10.5 6.974581484335259L10.570312500000002 7.015176425137655" stroke-width="0.03" stroke="#000000" fill="none"/>
<path d="M10.640625 6.974581484335259L10.570312500000002 6.933986543532863L11.6953125 6.284467490694534L11.6953125 6.365657372299325L12.9609375 7.096366306742446L13.031250000000002 7.05577136594005" stroke-width="0.03" stroke="#000000" fill="none"/>
<path d="M12.9609375 7.096366306742446L12.9609375 7.33993595155682" stroke-width="0.03" stroke="#000000" fill="none"/>
<path d="M12.3984375 6.852796661928072L11.273437500000002 7.502315714766402" stroke-width="0.03" stroke="#000000" fill="none"/>
<path d="M11.203125 7.4617207739640055L12.3984375 6.771606780323281L12.3984375 6.852796661928072" stroke-width="0.03" stroke="#000000" fill="none"/>
<path d="M11.6953125 6.365657372299325L10.5 7.05577136594005L9.3046875 6.365657372299325" stroke-width="0.03" stroke="#000000" fill="none"/>
<path d="M9.375 6.243872549892139L10.5 6.893391602730468L11.625000000000002 6.243872549892139" stroke-width="0.03" stroke="#000000" fill="none"/>
<path d="M11.5546875 6.284467490694534L10.7109375 5.797328201065787" stroke-width="0.03" stroke="#000000" fill="none"/>
<path d="M10.7109375 6.040897845880161L11.34375 6.406252313101721" stroke-width="0.03" stroke="#000000" fill="none"/>
<path d="M10.5 6.974581484335259L10.5 7.05577136594005" stroke-width="0.03" stroke="#000000" fill="none"/>
<path d="M11.203125 7.4617207739640055L11.5546875 7.664695477975984" stroke-width="0.03" stroke="#000000" fill="none"/>
<path d="M10.2890625 6.040897845880161L9.65625 6.406252313101721" stroke-width="0.03" stroke="#000000" fill="none"/>
<path d="M9.4453125 6.284467490694534L10.2890625 5.797328201065787" stroke-width="0.03" stroke="#000000" fill="none"/>
<path d="M7.264131938244363 2.2599663291074443L1.5 2.2599663291074443" stroke-width="0.03" stroke="#000000" fill="none"/>
<path d="M2.0824957911384305 2.015598694615191L2.0824957911384305 1.7268634256306838" stroke-width="0.03" stroke="#000000" fill="none"/>
<path d="M2.061871843353823 1.5824957911384305L2.0824957911384305 1.6031197389230383L2.1031197389230383 1.5824957911384305L2.0824957911384305 1.5618718433538228L2.061871843353823 1.5824957911384305" stroke-width="0.03" stroke="#000000" fill="none"/>
<path d="M2.226863425630684 1.953726851261368L2.2474873734152916 1.9949747468305832L2.3093592167691144 2.015598694615191L2.3712310601229376 2.015598694615191L2.4331029034767604 1.9949747468305832L2.4537268512613677 1.953726851261368L2.4537268512613677 1.9331029034767604L2.4331029034767604 1.891855007907545L2.391855007907545 1.8712310601229374L2.2887352689845066 1.8506071123383299L2.2474873734152916 1.8299831645537221L2.226863425630684 1.7887352689845069L2.2474873734152916 1.7474873734152916L2.3093592167691144 1.7268634256306838L2.3712310601229376 1.7268634256306838L2.4331029034767604 1.7474873734152916L2.4537268512613677 1.7887352689845069" stroke-width="0.03" stroke="#000000" fill="none"/>
<path d="M2.680590276892052 1.7268634256306838L2.6393423813228365 1.7474873734152916L2.5980944857536215 1.7887352689845069L2.5774705379690137 1.8506071123383299L2.5774705379690137 1.891855007907545L2.5980944857536215 1.953726851261368L2.6393423813228365 1.9949747468305832L2.680590276892052 2.015598694615191L2.7424621202458748 2.015598694615191L2.78371001581509 1.9949747468305832L2.8249579113843053 1.953726851261368L2.845581859168913 1.891855007907545L2.845581859168913 1.8506071123383299L2.8249579113843053 1.7887352689845069L2.78371001581509 1.7474873734152916L2.7424621202458748 1.7268634256306838L2.680590276892052 1.7268634256306838" stroke-width="0.03" stroke="#000000" fill="none"/>
<path d="M2.907453702522736 2.056846590184406L3.237436867076458 2.056846590184406" stroke-width="0.03" stroke="#000000" fill="none"/>
<path d="M3.2993087104302807 1.953726851261368L3.3199326582148885 1.9949747468305832L3.3818045015687113 2.015598694615191L3.443676344922534 2.015598694615191L3.5055481882763573 1.9949747468305832L3.526172136060965 1.953726851261368L3.526172136060965 1.9331029034767604L3.5055481882763573 1.891855007907545L3.464300292707142 1.8712310601229374L3.361180553784104 1.8506071123383299L3.3199326582148885 1.8299831645537221L3.2993087104302807 1.7887352689845069L3.3199326582148885 1.7474873734152916L3.3818045015687113 1.7268634256306838L3.443676344922534 1.7268634256306838L3.5055481882763573 1.7474873734152916L3.526172136060965 1.7887352689845069" stroke-width="0.03" stroke="#000000" fill="none"/>
<path d="M3.6705397705532183 1.8093592167691144L3.732411613907041 1.7474873734152916L3.773659509476256 1.7268634256306838L3.8355313528300794 1.7268634256306838L3.8767792483992944 1.7474873734152916L3.897403196183902 1.8093592167691144L3.897403196183902 2.015598694615191" stroke-width="0.03" stroke="#000000" fill="none"/>
<path d="M3.6705397705532183 2.015598694615191L3.6705397705532183 1.7268634256306838" stroke-width="0.03" stroke="#000000" fill="none"/>
<path d="M4.144890569599194 1.7268634256306838L4.103642674029978 1.7474873734152916L4.062394778460764 1.7887352689845069L4.041770830676155 1.8506071123383299L4.041770830676155 1.891855007907545L4.062394778460764 1.953726851261368L4.103642674029978 1.9949747468305832L4.144890569599194 2.015598694615191L4.206762412953017 2.015598694615191L4.2480103085222325 1.9949747468305832L4.289258204091447 1.953726851261368L4.309882151876055 1.891855007907545L4.309882151876055 1.8506071123383299L4.289258204091447 1.7887352689845069L4.2480103085222325 1.7474873734152916L4.206762412953017 1.7268634256306838L4.144890569599194 1.7268634256306838" stroke-width="0.03" stroke="#000000" fill="none"/>
<path d="M4.4336258385837 1.7268634256306838L4.516121629722131 2.015598694615191L4.5986174208605615 1.7268634256306838L4.681113211998992 2.015598694615191L4.7636090031374225 1.7268634256306838" stroke-width="0.03" stroke="#000000" fill="none"/>
<path d="M4.866728742060461 1.7268634256306838L5.011096376552715 1.7268634256306838" stroke-width="0.03" stroke="#000000" fill="none"/>
<path d="M5.031720324337321 1.5824957911384305L4.990472428768107 1.5824957911384305L4.949224533198891 1.6031197389230383L4.928600585414284 1.664991582276861L4.928600585414284 2.015598694615191" stroke-width="0.03" stroke="#000000" fill="none"/>
<path d="M5.155464011044968 2.015598694615191L5.155464011044968 1.5824957911384305" stroke-width="0.03" stroke="#000000" fill="none"/>
<path d="M5.547319018952512 1.7268634256306838L5.547319018952512 2.015598694615191" stroke-width="0.03" stroke="#000000" fill="none"/>
<path d="M5.547319018952512 1.953726851261368L5.506071123383298 1.9949747468305832L5.464823227814082 2.015598694615191L5.402951384460259 2.015598694615191L5.3617034888910435 1.9949747468305832L5.320455593321829 1.953726851261368L5.299831645537221 1.891855007907545L5.299831645537221 1.8506071123383299L5.320455593321829 1.7887352689845069L5.3617034888910435 1.7474873734152916L5.402951384460259 1.7268634256306838L5.464823227814082 1.7268634256306838L5.506071123383298 1.7474873734152916L5.547319018952512 1.7887352689845069" stroke-width="0.03" stroke="#000000" fill="none"/>
<path d="M5.712310601229374 1.9331029034767604L5.91855007907545 1.7268634256306838" stroke-width="0.03" stroke="#000000" fill="none"/>
<path d="M5.794806392367804 1.8506071123383299L5.939174026860058 2.015598694615191" stroke-width="0.03" stroke="#000000" fill="none"/>
<path d="M6.042293765783096 1.8506071123383299L6.2897811391983875 1.8506071123383299L6.2897811391983875 1.8093592167691144L6.26915719141378 1.7681113211998993L6.248533243629172 1.7474873734152916L6.207285348059957 1.7268634256306838L6.145413504706134 1.7268634256306838L6.104165609136919 1.7474873734152916L6.062917713567703 1.7887352689845069L6.042293765783096 1.8506071123383299L6.042293765783096 1.891855007907545L6.062917713567703 1.953726851261368L6.104165609136919 1.9949747468305832L6.145413504706134 2.015598694615191L6.207285348059957 2.015598694615191L6.248533243629172 1.9949747468305832L6.2897811391983875 1.953726851261368" stroke-width="0.03" stroke="#000000" fill="none"/>
<path d="M6.578516408182894 2.015598694615191L6.578516408182894 1.5824957911384305L6.516644564829072 1.6443676344922533L6.475396669259856 1.664991582276861" stroke-width="0.03" stroke="#000000" fill="none"/>
<path d="M5.712310601229374 1.5824957911384305L5.712310601229374 2.015598694615191" stroke-width="0.03" stroke="#000000" fill="none"/>
<path d="M4.370811932634854 2.7109515319598065L4.332573030495582 2.7236978326728973L4.319826729782491 2.7491904340990785L4.319826729782491 2.7746830355252596L4.332573030495582 2.8001756369514412L4.358065631921763 2.8129219376645316L4.409050834774126 2.825668238377622L4.4472897369133975 2.8384145390907127L4.472782338339579 2.8639071405168943L4.485528639052669 2.889399741943075L4.485528639052669 2.927638644082347L4.472782338339579 2.953131245508528L4.460036037626487 2.965877546221619L4.421797135487216 2.9786238469347097L4.370811932634854 2.9786238469347097L4.332573030495582 2.965877546221619L4.319826729782491 2.953131245508528L4.3070804290694005 2.927638644082347L4.3070804290694005 2.889399741943075L4.319826729782491 2.8639071405168943L4.345319331208673 2.8384145390907127L4.383558233347944 2.825668238377622L4.434543436200307 2.8129219376645316L4.460036037626487 2.8001756369514412L4.472782338339579 2.7746830355252596L4.472782338339579 2.7491904340990785L4.460036037626487 2.7236978326728973L4.421797135487216 2.7109515319598065L4.370811932634854 2.7109515319598065" stroke-width="0.03" stroke="#000000" fill="none"/>
<path d="M4.07764701623377 2.7109515319598065L4.217856324077767 2.7109515319598065L4.141378519799223 2.8129219376645316L4.179617421938495 2.8129219376645316L4.205110023364676 2.825668238377622L4.217856324077767 2.8384145390907127L4.230602624790857 2.8766534412299847L4.230602624790857 2.902146042656166L4.217856324077767 2.9403849447954378L4.192363722651585 2.965877546221619L4.154124820512314 2.9786238469347097L4.115885918373042 2.9786238469347097L4.07764701623377 2.965877546221619L4.064900715520679 2.953131245508528L4.052154414807589 2.927638644082347" stroke-width="0.03" stroke="#000000" fill="none"/>
<path d="M3.8737062048243196 2.7109515319598065L3.835467302685048 2.7236978326728973L3.8099747012588665 2.761936734812169L3.797228400545776 2.825668238377622L3.797228400545776 2.8639071405168943L3.8099747012588665 2.927638644082347L3.835467302685048 2.965877546221619L3.8737062048243196 2.9786238469347097L3.899198806250501 2.9786238469347097L3.9374377083897727 2.965877546221619L3.9629303098159543 2.927638644082347L3.9756766105290446 2.8639071405168943L3.9756766105290446 2.825668238377622L3.9629303098159543 2.761936734812169L3.9374377083897727 2.7236978326728973L3.899198806250501 2.7109515319598065L3.8737062048243196 2.7109515319598065" stroke-width="0.03" stroke="#000000" fill="none"/>
<path d="M3.6570190927017796 2.8384145390907127L3.695257994841051 2.825668238377622L3.708004295554142 2.8129219376645316L3.7207505962672327 2.7874293362383504L3.7207505962672327 2.761936734812169L3.708004295554142 2.736444133385988L3.695257994841051 2.7236978326728973L3.6570190927017796 2.7109515319598065L3.542302386283964 2.7109515319598065L3.542302386283964 2.9786238469347097L3.6570190927017796 2.9786238469347097L3.695257994841051 2.965877546221619L3.708004295554142 2.953131245508528L3.7207505962672327 2.927638644082347L3.7207505962672327 2.889399741943075L3.708004295554142 2.8639071405168943L3.695257994841051 2.8511608398038035L3.6570190927017796 2.8384145390907127L3.542302386283964 2.8384145390907127" stroke-width="0.03" stroke="#000000" fill="none"/>
<path d="M3.376600477013786 2.9786238469347097L3.376600477013786 2.7109515319598065L3.338361574874514 2.7491904340990785L3.312868973448333 2.761936734812169" stroke-width="0.03" stroke="#000000" fill="none"/>
<path d="M3.210898567743608 2.7109515319598065L3.0451966584734302 2.7109515319598065L3.0451966584734302 2.9786238469347097L3.210898567743608 2.9786238469347097" stroke-width="0.03" stroke="#000000" fill="none"/>
<path d="M3.147167064178155 2.8384145390907127L3.0451966584734302 2.8384145390907127" stroke-width="0.03" stroke="#000000" fill="none"/>
<path d="M2.777524343498527 2.7109515319598065L2.777524343498527 2.9786238469347097L2.8667484484901617 2.9786238469347097L2.9049873506294333 2.965877546221619L2.930479952055615 2.9403849447954378L2.943226252768705 2.9148923433692566L2.955972553481796 2.8766534412299847L2.955972553481796 2.8129219376645316L2.943226252768705 2.7746830355252596L2.930479952055615 2.7491904340990785L2.9049873506294333 2.7236978326728973L2.8667484484901617 2.7109515319598065L2.777524343498527 2.7109515319598065" stroke-width="0.03" stroke="#000000" fill="none"/>
<path d="M2.6883002385068933 2.7109515319598065L2.560837231375987 2.9786238469347097" stroke-width="0.03" stroke="#000000" fill="none"/>
<path d="M2.433374224245081 2.9786238469347097L2.293164916401084 2.8001756369514412" stroke-width="0.03" stroke="#000000" fill="none"/>
<path d="M2.433374224245081 2.8001756369514412L2.293164916401084 2.9786238469347097" stroke-width="0.03" stroke="#000000" fill="none"/>
<path d="M2.1147167064178154 2.7109515319598065L2.076477804278544 2.7236978326728973L2.0509852028523623 2.761936734812169L2.038238902139272 2.825668238377622L2.038238902139272 2.8639071405168943L2.0509852028523623 2.927638644082347L2.076477804278544 2.965877546221619L2.1147167064178154 2.9786238469347097L2.140209307843997 2.9786238469347097L2.1784482099832685 2.965877546221619L2.2039408114094496 2.927638644082347L2.2166871121225404 2.8639071405168943L2.2166871121225404 2.825668238377622L2.2039408114094496 2.761936734812169L2.1784482099832685 2.7236978326728973L2.140209307843997 2.7109515319598065L2.1147167064178154 2.7109515319598065" stroke-width="0.03" stroke="#000000" fill="none"/>
<path d="M2.5098520285236243 2.7109515319598065L2.6883002385068933 2.7109515319598065" stroke-width="0.03" stroke="#000000" fill="none"/>
</svg>
