<?xml version="1.0" standalone="no"?>
<svg width="21cm" height="29.7cm" version="1.1" xmlns="http://www.w3.org/2000/svg" viewBox="0.0 0.0 21.000001 29.700001">
<path d="M7.3359375 6.609227017113699L9.867187500000002 5.147809148227458L10.0078125 5.2289990298322495L10.0078125 5.391378793041832L7.4765625 6.852796661928072L7.3359375 6.771606780323281L7.3359375 6.609227017113699L7.4765625 6.69041689871849L7.4765625 6.852796661928072" stroke-width="0.03" stroke="#000000" fill="none"/>
<path d="M7.4765625 6.69041689871849L10.0078125 5.2289990298322495" stroke-width="0.03" stroke="#000000" fill="none"/>
<path d="M10.9921875 5.2289990298322495L11.1328125 5.147809148227458L13.6640625 6.609227017113699L13.6640625 6.771606780323281L13.5234375 6.852796661928072L10.9921875 5.391378793041832L10.9921875 5.2289990298322495L13.5234375 6.69041689871849L13.5234375 6.852796661928072" stroke-width="0.03" stroke="#000000" fill="none"/>
<path d="M13.5234375 6.69041689871849L13.6640625 6.609227017113699" stroke-width="0.03" stroke="#000000" fill="none"/>
<path d="M12.890625000000002 6.487442194706512L11.203125 7.4617207739640055L11.484375000000002 7.624100537173588" stroke-width="0.03" stroke="#000000" fill="none"/>
<path d="M11.625000000000002 7.542910655568797L11.625000000000002 7.218151129149632L10.921875000000002 6.8122017211256765L10.5 7.05577136594005L10.078125 6.8122017211256765L9.375 7.218151129149632L9.375 7.542910655568797" stroke-width="0.03" stroke="#000000" fill="none"/>
<path d="M9.515625 7.624100537173588L9.796875 7.4617207739640055L8.109375 6.487442194706512L8.109375 6.893391602730468L8.1796875 6.933986543532863" stroke-width="0.03" stroke="#000000" fill="none"/>
<path d="M8.25 6.893391602730468L6 8.192429708407126L6 9.085518406059828" stroke-width="0.03" stroke="#000000" fill="none"/>
<path d="M5.859375000000001 9.166708287664619L5.859375000000001 8.679568998035872L6 8.598379116431081" stroke-width="0.03" stroke="#000000" fill="none"/>
<path d="M6 8.51718923482629L5.71875 8.354809471616708L5.5078125 8.476594294023895L5.5078125 9.450872873281389" stroke-width="0.03" stroke="#000000" fill="none"/>
<path d="M5.5078125 9.369682991676598L6.140625 9.004328524455037L6.3515625 9.126113346862224" stroke-width="0.03" stroke="#000000" fill="none"/>
<path d="M5.859375000000001 8.679568998035872L5.5078125 8.476594294023895" stroke-width="0.03" stroke="#000000" fill="none"/>
<path d="M6 8.192429708407126L6.984375 8.760758879640663" stroke-width="0.03" stroke="#000000" fill="none"/>
<path d="M7.1953125 8.638974057233478L5.6484375 9.53206275488618L5.2265625 9.288493110071807L4.6640625 9.613252636490971L4.6640625 9.938012162910134L9.375 12.65787319667064" stroke-width="0.03" stroke="#000000" fill="none"/>
<path d="M9.515625 12.576683315065846L9.515625 12.495493433461057L9.5859375 12.45489849265866" stroke-width="0.03" stroke="#000000" fill="none"/>
<path d="M9.5859375 12.536088374263452L9.515625 12.495493433461057" stroke-width="0.03" stroke="#000000" fill="none"/>
<path d="M9.65625 12.495493433461057L8.4609375 13.18560742710178L8.4609375 13.672746716730527L8.0390625 13.9163163615449L8.0390625 15.29654434882635" stroke-width="0.03" stroke="#000000" fill="none"/>
<path d="M8.0390625 15.215354467221559L7.96875 15.174759526419164L7.96875 15.255949408023953" stroke-width="0.03" stroke="#000000" fill="none"/>
<path d="M7.96875 15.174759526419164L8.0390625 15.134164585616768" stroke-width="0.03" stroke="#000000" fill="none"/>
<path d="M8.0390625 14.971784822407185L3.328125000000001 12.251923788646682L3.046875 12.414303551856264L3.046875 13.063822604694593L3.46875 13.307392249508968L3.46875 15.093569644814371L5.71875 16.39260775049103L6.28125 16.067848224071867" stroke-width="0.03" stroke="#000000" fill="none"/>
<path d="M5.71875 16.39260775049103L5.71875 14.606430355185626L7.40625 15.580708934443118L7.6171875 15.458924112035932L7.6171875 15.377734230431141L7.6875 15.337139289628746L7.6875 14.768810118395209L7.40625 14.931189881604789L3.046875 12.414303551856264" stroke-width="0.03" stroke="#000000" fill="none"/>
<path d="M3.3984375 12.292518729449078L4.734375 11.521214854203564L5.5078125 11.967759203029914L5.4375 12.00835414383231L5.4375 13.46977201271855" stroke-width="0.03" stroke="#000000" fill="none"/>
<path d="M5.7890625 13.672746716730527L5.9296875 13.591556835125736L5.9296875 13.429177071916154L6 13.388582131113758L6 12.982632723089804L6.5625 12.65787319667064L6.5625 12.576683315065846L6.6328125 12.536088374263452L6.6328125 11.886569321425123L6.984375 11.683594617413146L7.3359375 11.886569321425123L7.4765625 11.805379439820332L7.6875 11.927164262227517L7.898437500000001 11.805379439820332" stroke-width="0.03" stroke="#000000" fill="none"/>
<path d="M7.6875 11.683594617413146L7.6875 11.927164262227517" stroke-width="0.03" stroke="#000000" fill="none"/>
<path d="M7.4765625 11.805379439820332L7.4765625 11.72418955821554L7.125 11.521214854203564L6.984375 11.602404735808353L6.984375 11.683594617413146" stroke-width="0.03" stroke="#000000" fill="none"/>
<path d="M6.984375 11.602404735808353L7.3359375 11.805379439820332L7.3359375 11.886569321425123" stroke-width="0.03" stroke="#000000" fill="none"/>
<path d="M7.3359375 11.805379439820332L7.4765625 11.72418955821554" stroke-width="0.03" stroke="#000000" fill="none"/>
<path d="M7.125 11.521214854203564L7.125 11.358835090993981" stroke-width="0.03" stroke="#000000" fill="none"/>
<path d="M6.7734375 11.155860386982003L5.5078125 11.886569321425123L5.15625 11.683594617413146L5.15625 11.764784499017935L5.0859375 11.805379439820332L5.0859375 13.266797308706572" stroke-width="0.03" stroke="#000000" fill="none"/>
<path d="M5.0859375 13.023227663892198L4.8046875 12.860847900682616L4.8046875 12.292518729449078L5.0859375 12.45489849265866" stroke-width="0.03" stroke="#000000" fill="none"/>
<path d="M5.0859375 12.130138966239496L4.1015625 12.698468137473034" stroke-width="0.03" stroke="#000000" fill="none"/>
<path d="M3.539062500000001 12.048949084634705L4.3125 11.602404735808353L4.3125 11.764784499017935" stroke-width="0.03" stroke="#000000" fill="none"/>
<path d="M4.2421875 11.805379439820332L4.2421875 11.64299967661075" stroke-width="0.03" stroke="#000000" fill="none"/>
<path d="M4.59375 11.602404735808353L4.59375 11.44002497259877L4.734375 11.358835090993981" stroke-width="0.03" stroke="#000000" fill="none"/>
<path d="M4.734375 11.521214854203564L4.734375 9.97860710371253" stroke-width="0.03" stroke="#000000" fill="none"/>
<path d="M4.59375 10.222176748526905L4.3125 10.384556511736488L4.3125 11.277645209389188L3.539062500000001 11.72418955821554L3.46875 11.683594617413146L3.46875 12.00835414383231L3.539062500000001 12.048949084634705L3.539062500000001 11.72418955821554" stroke-width="0.03" stroke="#000000" fill="none"/>
<path d="M3.46875 11.683594617413146L4.2421875 11.237050268586794L4.3125 11.277645209389188" stroke-width="0.03" stroke="#000000" fill="none"/>
<path d="M4.2421875 11.237050268586794L4.2421875 10.343961570934091L4.5234375 10.181581807724509L4.59375 10.222176748526905L4.59375 11.115265446179606L4.734375 11.034075564574817" stroke-width="0.03" stroke="#000000" fill="none"/>
<path d="M4.734375 10.952885682970024L4.59375 11.034075564574817" stroke-width="0.03" stroke="#000000" fill="none"/>
<path d="M4.3125 10.384556511736488L4.2421875 10.343961570934091" stroke-width="0.03" stroke="#000000" fill="none"/>
<path d="M4.6640625 9.613252636490971L9.0234375 12.130138966239496L9.0234375 12.45489849265866L9.515625 12.170733907041893L9.515625 12.0895440254371L9.5859375 12.048949084634705L9.5859375 11.805379439820332L7.898437500000001 10.831100860562838L9.4453125 9.938012162910134L7.1953125 8.638974057233478" stroke-width="0.03" stroke="#000000" fill="none"/>
<path d="M7.6171875 8.882543702047851L9.65625 7.705290418778379L8.25 6.893391602730468" stroke-width="0.03" stroke="#000000" fill="none"/>
<path d="M9.234375 5.837923141868183L10.5 6.568632076311303L11.765625 5.837923141868183" stroke-width="0.03" stroke="#000000" fill="none"/>
<path d="M12.890625000000002 6.487442194706512L12.890625000000002 6.893391602730468L12.8203125 6.933986543532863" stroke-width="0.03" stroke="#000000" fill="none"/>
<path d="M12.75 6.893391602730468L11.34375 7.705290418778379L11.34375 7.867670181987961L11.625000000000002 8.030049945197543L11.625000000000002 8.354809471616708" stroke-width="0.03" stroke="#000000" fill="none"/>
<path d="M11.90625 8.192429708407126L10.5 9.004328524455037L9.09375 8.192429708407126L9.0234375 8.233024649209522L9.0234375 9.288493110071807" stroke-width="0.03" stroke="#000000" fill="none"/>
<path d="M8.6015625 9.044923465257433L8.25 9.24789816926941" stroke-width="0.03" stroke="#000000" fill="none"/>
<path d="M8.6015625 9.044923465257433L9.796875 9.735037458898159" stroke-width="0.03" stroke="#000000" fill="none"/>
<path d="M9.796875 9.97860710371253L9.796875 9.410277932478992L10.4296875 9.044923465257433L9.0234375 8.233024649209522" stroke-width="0.03" stroke="#000000" fill="none"/>
<path d="M9.375 8.354809471616708L9.375 8.030049945197543L9.65625 7.867670181987961L9.65625 7.705290418778379" stroke-width="0.03" stroke="#000000" fill="none"/>
<path d="M9.375 8.030049945197543L9.796875 8.273619590011917L9.796875 8.598379116431081" stroke-width="0.03" stroke="#000000" fill="none"/>
<path d="M9.796875 8.273619590011917L10.5 7.867670181987961L11.203125 8.273619590011917L11.625000000000002 8.030049945197543" stroke-width="0.03" stroke="#000000" fill="none"/>
<path d="M11.90625 8.192429708407126L11.976562500000002 8.233024649209522L11.976562500000002 9.288493110071807" stroke-width="0.03" stroke="#000000" fill="none"/>
<path d="M12.3984375 9.044923465257433L11.203125 9.735037458898159" stroke-width="0.03" stroke="#000000" fill="none"/>
<path d="M11.203125 9.97860710371253L11.1328125 10.019202044514927L10.921875000000002 9.897417222107741L10.640625 10.059796985317323" stroke-width="0.03" stroke="#000000" fill="none"/>
<path d="M10.570312500000002 10.019202044514927L10.5 10.059796985317323L10.4296875 10.019202044514927L8.4609375 11.155860386982003" stroke-width="0.03" stroke="#000000" fill="none"/>
<path d="M8.390625 12.0895440254371L7.6875 12.495493433461057L7.6875 13.226202367904175L7.0546875 13.591556835125736L7.0546875 14.403455651173648" stroke-width="0.03" stroke="#000000" fill="none"/>
<path d="M7.1953125 14.484645532778439L7.1953125 13.997506243149692L7.757812499999999 13.672746716730527L8.109375 13.875721420742504" stroke-width="0.03" stroke="#000000" fill="none"/>
<path d="M8.0390625 13.9163163615449L8.109375 13.956911302347297L8.109375 15.337139289628746" stroke-width="0.03" stroke="#000000" fill="none"/>
<path d="M8.25 15.337139289628746L9.375 14.687620236790417L9.867187500000002 14.971784822407185L9.867187500000002 15.215354467221559L10.078125 15.337139289628746L10.078125 15.905468460862282L8.953125 16.55498751370061L8.8828125 16.514392572898217" stroke-width="0.03" stroke="#000000" fill="none"/>
<path d="M8.953125 16.55498751370061L8.953125 15.986658342467075L8.7421875 15.864873520059888L8.7421875 15.621303875245514L9.867187500000002 14.971784822407185" stroke-width="0.03" stroke="#000000" fill="none"/>
<path d="M9.9375 15.012379763209582L10.0078125 14.971784822407185L10.0078125 14.56583541438323L10.359375 14.362860710371251L10.359375 14.281670828766462L10.5 14.200480947161669L10.5 12.820252959880222L10.2890625 12.942037782287407L9.796875 12.65787319667064L9.796875 13.956911302347297L10.2890625 14.241075887964065L10.5 14.11929106555688L10.7109375 14.241075887964065L11.203125 13.956911302347297L11.203125 12.65787319667064L11.1328125 12.617278255868243" stroke-width="0.03" stroke="#000000" fill="none"/>
<path d="M11.0625 12.65787319667064L11.6953125 12.292518729449078" stroke-width="0.03" stroke="#000000" fill="none"/>
<path d="M11.484375000000002 12.170733907041893L11.484375000000002 12.0895440254371L11.4140625 12.048949084634705L11.4140625 11.805379439820332L13.1015625 10.831100860562838L11.5546875 9.938012162910134L13.8046875 8.638974057233478L15.351562500000002 9.53206275488618L15.773437500000002 9.288493110071807L16.3359375 9.613252636490971L16.3359375 9.938012162910134L11.625000000000002 12.65787319667064" stroke-width="0.03" stroke="#000000" fill="none"/>
<path d="M11.484375000000002 12.576683315065846L11.484375000000002 12.495493433461057L11.4140625 12.45489849265866" stroke-width="0.03" stroke="#000000" fill="none"/>
<path d="M11.4140625 12.536088374263452L11.484375000000002 12.495493433461057" stroke-width="0.03" stroke="#000000" fill="none"/>
<path d="M11.34375 12.495493433461057L12.539062500000002 13.18560742710178L12.539062500000002 13.672746716730527L12.9609375 13.9163163615449L12.9609375 15.29654434882635" stroke-width="0.03" stroke="#000000" fill="none"/>
<path d="M12.890625000000002 15.337139289628746L12.890625000000002 13.956911302347297L12.9609375 13.9163163615449" stroke-width="0.03" stroke="#000000" fill="none"/>
<path d="M12.890625000000002 13.875721420742504L13.242187500000002 13.672746716730527L13.8046875 13.997506243149692L13.8046875 14.484645532778439" stroke-width="0.03" stroke="#000000" fill="none"/>
<path d="M13.945312500000002 14.403455651173648L13.945312500000002 13.591556835125736L13.3125 13.226202367904175L13.3125 12.495493433461057L12.609375 12.0895440254371" stroke-width="0.03" stroke="#000000" fill="none"/>
<path d="M12.46875 12.170733907041893L12.890625000000002 12.414303551856264L12.890625000000002 13.063822604694593L12.539062500000002 13.266797308706572" stroke-width="0.03" stroke="#000000" fill="none"/>
<path d="M12.539062500000002 13.18560742710178L12.46875 13.226202367904175L11.273437500000002 12.536088374263452" stroke-width="0.03" stroke="#000000" fill="none"/>
<path d="M11.203125 12.65787319667064L10.7109375 12.942037782287407L10.5 12.820252959880222" stroke-width="0.03" stroke="#000000" fill="none"/>
<path d="M10.2890625 12.942037782287407L10.2890625 14.241075887964065" stroke-width="0.03" stroke="#000000" fill="none"/>
<path d="M10.359375 14.281670828766462L10.5 14.362860710371251L10.640625 14.281670828766462L10.640625 14.362860710371251L10.9921875 14.56583541438323L10.9921875 14.971784822407185L11.0625 15.012379763209582L11.0625 15.174759526419164L12.2578125 15.864873520059888L12.046875 15.986658342467075L12.046875 16.55498751370061L12.1171875 16.514392572898217" stroke-width="0.03" stroke="#000000" fill="none"/>
<path d="M12.046875 16.55498751370061L10.921875000000002 15.905468460862282L10.921875000000002 15.337139289628746L11.1328125 15.215354467221559L11.1328125 14.971784822407185L11.625000000000002 14.687620236790417L12.75 15.337139289628746L12.75 15.418329171233536" stroke-width="0.03" stroke="#000000" fill="none"/>
<path d="M12.75 15.337139289628746L12.2578125 15.621303875245514L11.1328125 14.971784822407185" stroke-width="0.03" stroke="#000000" fill="none"/>
<path d="M11.0625 15.012379763209582L10.921875000000002 15.093569644814371L10.0078125 14.56583541438323" stroke-width="0.03" stroke="#000000" fill="none"/>
<path d="M9.9375 15.012379763209582L9.9375 15.174759526419164L8.7421875 15.864873520059888" stroke-width="0.03" stroke="#000000" fill="none"/>
<path d="M8.7421875 15.621303875245514L8.25 15.337139289628746L8.25 15.418329171233536" stroke-width="0.03" stroke="#000000" fill="none"/>
<path d="M8.3203125 15.458924112035932L8.0390625 15.621303875245514L8.0390625 16.270822928083845L8.6015625 16.59558245450301L8.6015625 17.082721744131756L8.671875 17.04212680332936L9.1640625 17.326291388946128L8.8828125 17.48867115215571L8.8828125 22.52244381165276L9.1640625 22.360064048443178L9.1640625 16.920341980922174" stroke-width="0.03" stroke="#000000" fill="none"/>
<path d="M9.0234375 16.83915209931738L8.953125 16.879747040119774L8.8828125 16.83915209931738" stroke-width="0.03" stroke="#000000" fill="none"/>
<path d="M8.953125 16.79855715851499L8.953125 16.879747040119774" stroke-width="0.03" stroke="#000000" fill="none"/>
<path d="M8.8828125 16.75796221771259L10.078125 17.448076211353314L10.5 17.204506566538942L10.921875000000002 17.448076211353314L12.1171875 16.75796221771259" stroke-width="0.03" stroke="#000000" fill="none"/>
<path d="M12.1171875 16.6767723361078L10.921875000000002 17.366886329748525L10.5 17.123316684934153L10.078125 17.366886329748525L8.8828125 16.6767723361078" stroke-width="0.03" stroke="#000000" fill="none"/>
<path d="M8.8828125 16.433202691293424L8.6015625 16.59558245450301" stroke-width="0.03" stroke="#000000" fill="none"/>
<path d="M8.8828125 16.433202691293424L8.8828125 17.163911625736546" stroke-width="0.03" stroke="#000000" fill="none"/>
<path d="M8.6015625 17.082721744131756L8.53125 17.04212680332936L8.3203125 17.163911625736546L8.3203125 19.112468784251533L6.7734375 18.219380086598832L6.7734375 20.81745629795215L8.3203125 21.71054499560485L8.3203125 22.197684285233596L8.8828125 22.52244381165276" stroke-width="0.03" stroke="#000000" fill="none"/>
<path d="M9.1640625 22.27887416683839L10.5 21.507570291592874L11.835937500000002 22.27887416683839" stroke-width="0.03" stroke="#000000" fill="none"/>
<path d="M11.835937500000002 22.360064048443178L11.835937500000002 16.920341980922174" stroke-width="0.03" stroke="#000000" fill="none"/>
<path d="M11.976562500000002 16.83915209931738L12.046875 16.879747040119774L12.1171875 16.83915209931738" stroke-width="0.03" stroke="#000000" fill="none"/>
<path d="M12.046875 16.79855715851499L12.046875 16.879747040119774" stroke-width="0.03" stroke="#000000" fill="none"/>
<path d="M12.1171875 17.163911625736546L12.1171875 16.433202691293424L12.679687500000002 16.10844316487426L12.679687500000002 15.458924112035932L13.3125 15.093569644814371" stroke-width="0.03" stroke="#000000" fill="none"/>
<path d="M13.3125 15.337139289628746L13.3125 14.768810118395209L13.593750000000002 14.931189881604789L17.953125000000004 12.414303551856264L17.953125000000004 13.063822604694593L17.53125 13.307392249508968L17.53125 15.093569644814371L15.28125 16.39260775049103L14.718749999999998 16.067848224071867" stroke-width="0.03" stroke="#000000" fill="none"/>
<path d="M15.28125 16.39260775049103L15.28125 14.606430355185626L13.593750000000002 15.580708934443118L13.382812500000002 15.458924112035932L13.382812500000002 15.377734230431141L13.3125 15.337139289628746" stroke-width="0.03" stroke="#000000" fill="none"/>
<path d="M13.382812500000002 15.377734230431141L12.9609375 15.621303875245514L12.679687500000002 15.458924112035932" stroke-width="0.03" stroke="#000000" fill="none"/>
<path d="M12.9609375 15.621303875245514L12.9609375 16.270822928083845L12.3984375 16.59558245450301L12.3984375 17.082721744131756L12.46875 17.04212680332936L12.679687500000002 17.163911625736546L12.679687500000002 19.112468784251533L14.2265625 18.219380086598832L14.2265625 20.81745629795215L12.679687500000002 21.71054499560485L12.679687500000002 22.197684285233596L12.1171875 22.52244381165276L11.835937500000002 22.360064048443178" stroke-width="0.03" stroke="#000000" fill="none"/>
<path d="M11.5546875 22.360064048443178L11.273437500000002 22.52244381165276L10.5 22.07589946282641L9.7265625 22.52244381165276L9.4453125 22.360064048443178L9.4453125 22.27887416683839L10.218750000000002 21.832329818012038L10.078125 21.751139936407245" stroke-width="0.03" stroke="#000000" fill="none"/>
<path d="M10.0078125 21.79173487720964L10.1484375 21.87292475881443" stroke-width="0.03" stroke="#000000" fill="none"/>
<path d="M10.359375 21.588760173197663L10.5 21.669950054802452L10.640625 21.588760173197663" stroke-width="0.03" stroke="#000000" fill="none"/>
<path d="M10.5 21.507570291592874L10.5 20.61448159394017L10.570312500000002 20.655076534742566L11.835937500000002 19.924367600299444" stroke-width="0.03" stroke="#000000" fill="none"/>
<path d="M11.835937500000002 20.330317008323398L10.570312500000002 21.06102594276652L10.5 21.020431001964123L10.4296875 21.06102594276652L9.1640625 20.330317008323398" stroke-width="0.03" stroke="#000000" fill="none"/>
<path d="M9.375 20.452101830730584L9.375 20.776861357149752L9.867187500000002 21.06102594276652L9.867187500000002 20.736266416347355" stroke-width="0.03" stroke="#000000" fill="none"/>
<path d="M10.1484375 20.898646179556938L9.1640625 21.466975350790477" stroke-width="0.03" stroke="#000000" fill="none"/>
<path d="M9.4453125 22.27887416683839L9.7265625 22.44125393004797L9.7265625 22.52244381165276" stroke-width="0.03" stroke="#000000" fill="none"/>
<path d="M9.7265625 22.44125393004797L10.5 21.994709581221617L11.273437500000002 22.44125393004797L11.273437500000002 22.52244381165276" stroke-width="0.03" stroke="#000000" fill="none"/>
<path d="M11.273437500000002 22.44125393004797L11.5546875 22.27887416683839L10.78125 21.832329818012038L10.921875000000002 21.751139936407245" stroke-width="0.03" stroke="#000000" fill="none"/>
<path d="M10.9921875 21.79173487720964L10.8515625 21.87292475881443" stroke-width="0.03" stroke="#000000" fill="none"/>
<path d="M10.5 21.994709581221617L10.5 22.07589946282641" stroke-width="0.03" stroke="#000000" fill="none"/>
<path d="M10.4296875 21.06102594276652L10.4296875 20.655076534742566L10.5 20.61448159394017" stroke-width="0.03" stroke="#000000" fill="none"/>
<path d="M10.4296875 20.655076534742566L9.1640625 19.924367600299444" stroke-width="0.03" stroke="#000000" fill="none"/>
<path d="M9.1640625 19.51841819227549L9.3046875 19.437228310670697L9.3046875 19.03127890264674L9.375 18.990683961844347L9.515625 19.071873843449136L9.515625 19.477823251473097L9.867187500000002 19.68079795548507L10.4296875 19.356038429065904L10.5 19.3966333698683L10.570312500000002 19.356038429065904L11.1328125 19.68079795548507L11.484375000000002 19.477823251473097L11.5546875 19.51841819227549L11.6953125 19.437228310670697L11.6953125 19.03127890264674L11.625000000000002 18.990683961844347L11.484375000000002 19.071873843449136L11.484375000000002 19.477823251473097" stroke-width="0.03" stroke="#000000" fill="none"/>
<path d="M11.5546875 19.51841819227549L11.5546875 19.112468784251533L11.484375000000002 19.071873843449136" stroke-width="0.03" stroke="#000000" fill="none"/>
<path d="M11.5546875 19.112468784251533L11.6953125 19.03127890264674" stroke-width="0.03" stroke="#000000" fill="none"/>
<path d="M11.625000000000002 18.990683961844347L11.625000000000002 18.747114317029972L11.835937500000002 18.625329494622786" stroke-width="0.03" stroke="#000000" fill="none"/>
<path d="M11.625000000000002 18.747114317029972L11.835937500000002 18.86889913943716" stroke-width="0.03" stroke="#000000" fill="none"/>
<path d="M11.6953125 19.437228310670697L11.835937500000002 19.51841819227549" stroke-width="0.03" stroke="#000000" fill="none"/>
<path d="M11.1328125 19.68079795548507L11.1328125 18.462949731413204L10.5 18.097595264191643L9.867187500000002 18.462949731413204L9.867187500000002 19.68079795548507" stroke-width="0.03" stroke="#000000" fill="none"/>
<path d="M9.515625 19.477823251473097L9.4453125 19.51841819227549L9.3046875 19.437228310670697" stroke-width="0.03" stroke="#000000" fill="none"/>
<path d="M9.4453125 19.51841819227549L9.4453125 19.112468784251533L9.515625 19.071873843449136" stroke-width="0.03" stroke="#000000" fill="none"/>
<path d="M9.4453125 19.112468784251533L9.3046875 19.03127890264674" stroke-width="0.03" stroke="#000000" fill="none"/>
<path d="M9.375 18.990683961844347L9.375 18.747114317029972L9.1640625 18.625329494622786" stroke-width="0.03" stroke="#000000" fill="none"/>
<path d="M9.375 18.747114317029972L9.1640625 18.86889913943716" stroke-width="0.03" stroke="#000000" fill="none"/>
<path d="M9.867187500000002 18.462949731413204L9.1640625 18.057000323389246" stroke-width="0.03" stroke="#000000" fill="none"/>
<path d="M9.1640625 17.894620560179668L9.5859375 18.13819020499404L10.1484375 17.813430678574875L10.1484375 17.407481270550917" stroke-width="0.03" stroke="#000000" fill="none"/>
<path d="M10.078125 17.366886329748525L10.078125 17.448076211353314" stroke-width="0.03" stroke="#000000" fill="none"/>
<path d="M10.5 17.204506566538942L10.5 17.123316684934153" stroke-width="0.03" stroke="#000000" fill="none"/>
<path d="M10.8515625 17.407481270550917L10.8515625 17.813430678574875L11.4140625 18.13819020499404L11.835937500000002 17.894620560179668" stroke-width="0.03" stroke="#000000" fill="none"/>
<path d="M11.835937500000002 18.057000323389246L11.1328125 18.462949731413204" stroke-width="0.03" stroke="#000000" fill="none"/>
<path d="M11.4140625 18.13819020499404L11.4140625 17.163911625736546" stroke-width="0.03" stroke="#000000" fill="none"/>
<path d="M11.835937500000002 17.326291388946128L12.328125000000002 17.04212680332936L12.3984375 17.082721744131756" stroke-width="0.03" stroke="#000000" fill="none"/>
<path d="M12.679687500000002 17.163911625736546L12.1171875 17.48867115215571L12.1171875 22.52244381165276" stroke-width="0.03" stroke="#000000" fill="none"/>
<path d="M11.5546875 22.360064048443178L11.5546875 22.27887416683839" stroke-width="0.03" stroke="#000000" fill="none"/>
<path d="M11.835937500000002 21.466975350790477L10.8515625 20.898646179556938" stroke-width="0.03" stroke="#000000" fill="none"/>
<path d="M10.570312500000002 21.06102594276652L10.570312500000002 20.655076534742566" stroke-width="0.03" stroke="#000000" fill="none"/>
<path d="M11.1328125 20.736266416347355L11.1328125 21.06102594276652L11.625000000000002 20.776861357149752L11.625000000000002 20.452101830730584" stroke-width="0.03" stroke="#000000" fill="none"/>
<path d="M10.5 19.3966333698683L10.5 18.097595264191643" stroke-width="0.03" stroke="#000000" fill="none"/>
<path d="M10.921875000000002 17.448076211353314L10.921875000000002 17.366886329748525" stroke-width="0.03" stroke="#000000" fill="none"/>
<path d="M11.835937500000002 17.326291388946128L12.1171875 17.48867115215571" stroke-width="0.03" stroke="#000000" fill="none"/>
<path d="M12.3984375 16.59558245450301L12.1171875 16.433202691293424" stroke-width="0.03" stroke="#000000" fill="none"/>
<path d="M12.46875 16.230227987281445L12.46875 15.986658342467075L12.679687500000002 15.864873520059888" stroke-width="0.03" stroke="#000000" fill="none"/>
<path d="M12.679687500000002 15.946063401664679L12.539062500000002 16.02725328326947L12.539062500000002 16.189633046479052" stroke-width="0.03" stroke="#000000" fill="none"/>
<path d="M12.609375 16.14903810567666L12.539062500000002 16.10844316487426" stroke-width="0.03" stroke="#000000" fill="none"/>
<path d="M12.539062500000002 16.02725328326947L12.9609375 16.270822928083845" stroke-width="0.03" stroke="#000000" fill="none"/>
<path d="M12.679687500000002 16.02725328326947L12.609375 15.986658342467075" stroke-width="0.03" stroke="#000000" fill="none"/>
<path d="M12.2578125 15.864873520059888L12.2578125 15.621303875245514" stroke-width="0.03" stroke="#000000" fill="none"/>
<path d="M12.046875 15.986658342467075L10.921875000000002 15.337139289628746" stroke-width="0.03" stroke="#000000" fill="none"/>
<path d="M10.921875000000002 15.255949408023953L11.0625 15.174759526419164" stroke-width="0.03" stroke="#000000" fill="none"/>
<path d="M10.921875000000002 15.255949408023953L10.921875000000002 15.093569644814371" stroke-width="0.03" stroke="#000000" fill="none"/>
<path d="M10.8515625 15.215354467221559L10.5 15.418329171233536L10.1484375 15.215354467221559L10.078125 15.255949408023953L9.9375 15.174759526419164" stroke-width="0.03" stroke="#000000" fill="none"/>
<path d="M10.078125 15.255949408023953L10.078125 15.093569644814371L10.9921875 14.56583541438323" stroke-width="0.03" stroke="#000000" fill="none"/>
<path d="M10.7109375 14.241075887964065L10.7109375 12.942037782287407" stroke-width="0.03" stroke="#000000" fill="none"/>
<path d="M10.5 12.576683315065846L10.7109375 12.45489849265866" stroke-width="0.03" stroke="#000000" fill="none"/>
<path d="M10.640625 12.414303551856264L10.5 12.495493433461057L10.359375 12.414303551856264" stroke-width="0.03" stroke="#000000" fill="none"/>
<path d="M10.4296875 12.37370861105387L10.4296875 12.45489849265866" stroke-width="0.03" stroke="#000000" fill="none"/>
<path d="M10.5 12.495493433461057L10.5 12.00835414383231L9.9375 12.333113670251475L9.9375 12.65787319667064L10.5 12.333113670251475L11.0625 12.65787319667064L11.0625 12.333113670251475L11.484375000000002 12.0895440254371" stroke-width="0.03" stroke="#000000" fill="none"/>
<path d="M11.484375000000002 12.170733907041893L11.976562500000002 12.45489849265866L11.976562500000002 12.130138966239496L16.3359375 9.613252636490971" stroke-width="0.03" stroke="#000000" fill="none"/>
<path d="M16.265625 9.97860710371253L16.265625 11.521214854203564L17.6015625 12.292518729449078" stroke-width="0.03" stroke="#000000" fill="none"/>
<path d="M17.671875 12.251923788646682L12.9609375 14.971784822407185" stroke-width="0.03" stroke="#000000" fill="none"/>
<path d="M12.9609375 15.134164585616768L13.031250000000002 15.174759526419164L13.031250000000002 15.255949408023953" stroke-width="0.03" stroke="#000000" fill="none"/>
<path d="M13.031250000000002 15.174759526419164L12.9609375 15.215354467221559" stroke-width="0.03" stroke="#000000" fill="none"/>
<path d="M13.593750000000002 14.931189881604789L13.593750000000002 15.580708934443118" stroke-width="0.03" stroke="#000000" fill="none"/>
<path d="M12.9609375 14.484645532778439L13.8046875 13.997506243149692" stroke-width="0.03" stroke="#000000" fill="none"/>
<path d="M13.945312500000002 13.591556835125736L15.000000000000002 12.982632723089804L15.000000000000002 13.388582131113758L15.070312500000002 13.429177071916154L15.070312500000002 13.591556835125736L15.2109375 13.672746716730527" stroke-width="0.03" stroke="#000000" fill="none"/>
<path d="M15.070312500000002 13.591556835125736L14.718749999999998 13.794531539137715L14.648437500000002 13.753936598335319L14.648437500000002 13.591556835125736L15.000000000000002 13.388582131113758" stroke-width="0.03" stroke="#000000" fill="none"/>
<path d="M15.070312500000002 13.429177071916154L14.718749999999998 13.632151775928133L14.718749999999998 13.794531539137715" stroke-width="0.03" stroke="#000000" fill="none"/>
<path d="M14.648437500000002 13.753936598335319L14.437500000000002 13.875721420742504L14.437500000000002 14.11929106555688" stroke-width="0.03" stroke="#000000" fill="none"/>
<path d="M14.648437500000002 13.997506243149692L14.437500000000002 13.875721420742504" stroke-width="0.03" stroke="#000000" fill="none"/>
<path d="M14.648437500000002 13.591556835125736L14.718749999999998 13.632151775928133" stroke-width="0.03" stroke="#000000" fill="none"/>
<path d="M15.000000000000002 12.982632723089804L14.437500000000002 12.65787319667064L14.437500000000002 12.576683315065846L14.367187500000002 12.536088374263452L14.367187500000002 11.886569321425123L14.015625 11.683594617413146L13.6640625 11.886569321425123L13.5234375 11.805379439820332L13.3125 11.927164262227517L13.1015625 11.805379439820332" stroke-width="0.03" stroke="#000000" fill="none"/>
<path d="M13.3125 11.683594617413146L13.3125 11.927164262227517" stroke-width="0.03" stroke="#000000" fill="none"/>
<path d="M13.5234375 11.805379439820332L13.5234375 11.72418955821554L13.875 11.521214854203564L14.015625 11.602404735808353L14.015625 11.683594617413146" stroke-width="0.03" stroke="#000000" fill="none"/>
<path d="M14.015625 11.602404735808353L13.6640625 11.805379439820332L13.6640625 11.886569321425123" stroke-width="0.03" stroke="#000000" fill="none"/>
<path d="M13.6640625 11.805379439820332L13.5234375 11.72418955821554" stroke-width="0.03" stroke="#000000" fill="none"/>
<path d="M13.875 11.521214854203564L13.875 11.358835090993981" stroke-width="0.03" stroke="#000000" fill="none"/>
<path d="M14.2265625 11.155860386982003L15.4921875 11.886569321425123L15.843750000000002 11.683594617413146L15.843750000000002 11.764784499017935L15.9140625 11.805379439820332L15.9140625 13.266797308706572" stroke-width="0.03" stroke="#000000" fill="none"/>
<path d="M15.9140625 13.023227663892198L16.1953125 12.860847900682616L16.1953125 12.292518729449078L15.9140625 12.45489849265866" stroke-width="0.03" stroke="#000000" fill="none"/>
<path d="M15.9140625 12.130138966239496L16.8984375 12.698468137473034" stroke-width="0.03" stroke="#000000" fill="none"/>
<path d="M17.4609375 12.048949084634705L17.53125 12.00835414383231L17.53125 11.683594617413146L16.7578125 11.237050268586794L16.6875 11.277645209389188L16.6875 10.384556511736488L16.7578125 10.343961570934091L16.4765625 10.181581807724509L16.40625 10.222176748526905L16.40625 11.115265446179606L16.265625 11.034075564574817" stroke-width="0.03" stroke="#000000" fill="none"/>
<path d="M16.265625 10.952885682970024L16.40625 11.034075564574817" stroke-width="0.03" stroke="#000000" fill="none"/>
<path d="M16.265625 11.358835090993981L16.40625 11.44002497259877L16.40625 11.602404735808353" stroke-width="0.03" stroke="#000000" fill="none"/>
<path d="M16.265625 11.521214854203564L15.4921875 11.967759203029914L15.5625 12.00835414383231L15.5625 13.46977201271855" stroke-width="0.03" stroke="#000000" fill="none"/>
<path d="M14.437500000000002 12.576683315065846L13.3125 13.226202367904175" stroke-width="0.03" stroke="#000000" fill="none"/>
<path d="M13.3125 12.495493433461057L14.367187500000002 11.886569321425123" stroke-width="0.03" stroke="#000000" fill="none"/>
<path d="M14.7890625 11.074670505377211L15.070312500000002 10.912290742167627L15.5625 11.196455327784399L15.28125 11.358835090993981" stroke-width="0.03" stroke="#000000" fill="none"/>
<path d="M15.5625 11.521214854203564L15.5625 10.384556511736488" stroke-width="0.03" stroke="#000000" fill="none"/>
<path d="M16.40625 10.222176748526905L16.6875 10.384556511736488" stroke-width="0.03" stroke="#000000" fill="none"/>
<path d="M16.7578125 10.343961570934091L16.7578125 11.237050268586794" stroke-width="0.03" stroke="#000000" fill="none"/>
<path d="M16.6875 11.277645209389188L17.4609375 11.72418955821554L17.53125 11.683594617413146" stroke-width="0.03" stroke="#000000" fill="none"/>
<path d="M17.4609375 11.72418955821554L17.4609375 12.048949084634705L16.6875 11.602404735808353L16.6875 11.764784499017935" stroke-width="0.03" stroke="#000000" fill="none"/>
<path d="M16.7578125 11.805379439820332L16.7578125 11.64299967661075" stroke-width="0.03" stroke="#000000" fill="none"/>
<path d="M15.9140625 11.805379439820332L15.5625 12.00835414383231" stroke-width="0.03" stroke="#000000" fill="none"/>
<path d="M15.4921875 11.967759203029914L15.4921875 11.886569321425123" stroke-width="0.03" stroke="#000000" fill="none"/>
<path d="M15.843750000000002 11.683594617413146L14.578125 10.952885682970024" stroke-width="0.03" stroke="#000000" fill="none"/>
<path d="M15.28125 9.491467814083784L15.4921875 9.369682991676598L14.859375 9.004328524455037L14.648437500000002 9.126113346862224" stroke-width="0.03" stroke="#000000" fill="none"/>
<path d="M15.000000000000002 9.085518406059828L15.000000000000002 8.192429708407126L12.75 6.893391602730468" stroke-width="0.03" stroke="#000000" fill="none"/>
<path d="M11.976562500000002 8.233024649209522L10.570312500000002 9.044923465257433L11.203125 9.410277932478992L11.203125 9.97860710371253" stroke-width="0.03" stroke="#000000" fill="none"/>
<path d="M11.1328125 10.019202044514927L11.1328125 9.450872873281389L11.203125 9.410277932478992" stroke-width="0.03" stroke="#000000" fill="none"/>
<path d="M11.1328125 9.450872873281389L10.5 9.085518406059828L9.867187500000002 9.450872873281389L9.867187500000002 10.019202044514927L9.796875 9.97860710371253" stroke-width="0.03" stroke="#000000" fill="none"/>
<path d="M9.867187500000002 10.019202044514927L10.078125 9.897417222107741L10.359375 10.059796985317323" stroke-width="0.03" stroke="#000000" fill="none"/>
<path d="M10.5 10.059796985317323L10.5 9.085518406059828" stroke-width="0.03" stroke="#000000" fill="none"/>
<path d="M10.5 9.004328524455037L10.5 7.867670181987961" stroke-width="0.03" stroke="#000000" fill="none"/>
<path d="M10.5 7.05577136594005L10.5 6.974581484335259L10.570312500000002 7.015176425137655" stroke-width="0.03" stroke="#000000" fill="none"/>
<path d="M10.5 6.974581484335259L10.4296875 7.015176425137655" stroke-width="0.03" stroke="#000000" fill="none"/>
<path d="M11.34375 7.705290418778379L13.382812500000002 8.882543702047851" stroke-width="0.03" stroke="#000000" fill="none"/>
<path d="M14.015625 8.760758879640663L15.000000000000002 8.192429708407126" stroke-width="0.03" stroke="#000000" fill="none"/>
<path d="M15.28125 8.354809471616708L15.000000000000002 8.51718923482629" stroke-width="0.03" stroke="#000000" fill="none"/>
<path d="M15.000000000000002 8.598379116431081L15.140625 8.679568998035872L15.140625 9.166708287664619" stroke-width="0.03" stroke="#000000" fill="none"/>
<path d="M15.4921875 9.450872873281389L15.4921875 8.476594294023895L15.28125 8.354809471616708" stroke-width="0.03" stroke="#000000" fill="none"/>
<path d="M15.4921875 8.476594294023895L15.140625 8.679568998035872" stroke-width="0.03" stroke="#000000" fill="none"/>
<path d="M12.75 9.24789816926941L12.3984375 9.044923465257433" stroke-width="0.03" stroke="#000000" fill="none"/>
<path d="M11.5546875 9.938012162910134L11.5546875 10.587531215748463" stroke-width="0.03" stroke="#000000" fill="none"/>
<path d="M10.570312500000002 10.019202044514927L12.539062500000002 11.155860386982003" stroke-width="0.03" stroke="#000000" fill="none"/>
<path d="M11.976562500000002 12.130138966239496L11.4140625 11.805379439820332" stroke-width="0.03" stroke="#000000" fill="none"/>
<path d="M11.0625 12.333113670251475L10.5 12.00835414383231" stroke-width="0.03" stroke="#000000" fill="none"/>
<path d="M10.570312500000002 12.37370861105387L10.570312500000002 12.45489849265866" stroke-width="0.03" stroke="#000000" fill="none"/>
<path d="M10.5 12.576683315065846L10.2890625 12.45489849265866" stroke-width="0.03" stroke="#000000" fill="none"/>
<path d="M9.9375 12.333113670251475L9.515625 12.0895440254371" stroke-width="0.03" stroke="#000000" fill="none"/>
<path d="M9.5859375 11.805379439820332L9.0234375 12.130138966239496" stroke-width="0.03" stroke="#000000" fill="none"/>
<path d="M9.3046875 12.292518729449078L9.9375 12.65787319667064" stroke-width="0.03" stroke="#000000" fill="none"/>
<path d="M9.867187500000002 12.617278255868243L9.796875 12.65787319667064" stroke-width="0.03" stroke="#000000" fill="none"/>
<path d="M9.7265625 12.536088374263452L8.53125 13.226202367904175L8.4609375 13.18560742710178" stroke-width="0.03" stroke="#000000" fill="none"/>
<path d="M8.53125 13.226202367904175L8.53125 13.713341657532922L8.109375 13.956911302347297" stroke-width="0.03" stroke="#000000" fill="none"/>
<path d="M8.4609375 13.672746716730527L8.53125 13.713341657532922" stroke-width="0.03" stroke="#000000" fill="none"/>
<path d="M8.4609375 13.266797308706572L8.109375 13.063822604694593L8.109375 12.414303551856264L8.53125 12.170733907041893" stroke-width="0.03" stroke="#000000" fill="none"/>
<path d="M8.109375 12.414303551856264L8.953125 12.90144284148501" stroke-width="0.03" stroke="#000000" fill="none"/>
<path d="M7.6875 13.226202367904175L6.5625 12.576683315065846" stroke-width="0.03" stroke="#000000" fill="none"/>
<path d="M6.6328125 11.886569321425123L7.6875 12.495493433461057" stroke-width="0.03" stroke="#000000" fill="none"/>
<path d="M7.0546875 13.591556835125736L6 12.982632723089804" stroke-width="0.03" stroke="#000000" fill="none"/>
<path d="M6 13.388582131113758L6.3515625 13.591556835125736L6.3515625 13.753936598335319L6.28125 13.794531539137715L5.9296875 13.591556835125736" stroke-width="0.03" stroke="#000000" fill="none"/>
<path d="M5.9296875 13.429177071916154L6.28125 13.632151775928133L6.28125 13.794531539137715" stroke-width="0.03" stroke="#000000" fill="none"/>
<path d="M6.3515625 13.753936598335319L6.5625 13.875721420742504L6.5625 14.11929106555688" stroke-width="0.03" stroke="#000000" fill="none"/>
<path d="M6.3515625 13.997506243149692L6.5625 13.875721420742504" stroke-width="0.03" stroke="#000000" fill="none"/>
<path d="M6.3515625 13.591556835125736L6.28125 13.632151775928133" stroke-width="0.03" stroke="#000000" fill="none"/>
<path d="M7.1953125 13.997506243149692L8.0390625 14.484645532778439" stroke-width="0.03" stroke="#000000" fill="none"/>
<path d="M7.6875 15.093569644814371L8.3203125 15.458924112035932L8.3203125 16.10844316487426L8.8828125 16.433202691293424" stroke-width="0.03" stroke="#000000" fill="none"/>
<path d="M8.53125 16.230227987281445L8.53125 15.986658342467075L8.3203125 15.864873520059888" stroke-width="0.03" stroke="#000000" fill="none"/>
<path d="M8.3203125 15.946063401664679L8.4609375 16.02725328326947L8.4609375 16.189633046479052" stroke-width="0.03" stroke="#000000" fill="none"/>
<path d="M8.390625 16.14903810567666L8.4609375 16.10844316487426" stroke-width="0.03" stroke="#000000" fill="none"/>
<path d="M8.4609375 16.02725328326947L8.0390625 16.270822928083845" stroke-width="0.03" stroke="#000000" fill="none"/>
<path d="M8.3203125 16.02725328326947L8.390625 15.986658342467075" stroke-width="0.03" stroke="#000000" fill="none"/>
<path d="M8.0390625 15.621303875245514L7.6171875 15.377734230431141" stroke-width="0.03" stroke="#000000" fill="none"/>
<path d="M7.40625 15.580708934443118L7.40625 14.931189881604789" stroke-width="0.03" stroke="#000000" fill="none"/>
<path d="M6.28125 14.931189881604789L6.28125 17.204506566538942L6.3515625 17.24510150734134L6.3515625 17.326291388946128L8.3203125 18.462949731413204" stroke-width="0.03" stroke="#000000" fill="none"/>
<path d="M8.8828125 17.48867115215571L8.3203125 17.163911625736546" stroke-width="0.03" stroke="#000000" fill="none"/>
<path d="M7.3359375 17.894620560179668L6.7734375 18.219380086598832" stroke-width="0.03" stroke="#000000" fill="none"/>
<path d="M6.6328125 17.894620560179668L6.140625 18.178785145796436L5.5078125 17.813430678574875L5.5078125 19.437228310670697L6.421875 18.909494080239554" stroke-width="0.03" stroke="#000000" fill="none"/>
<path d="M6.421875 19.3966333698683L6.421875 18.016405382586854" stroke-width="0.03" stroke="#000000" fill="none"/>
<path d="M6.6328125 17.894620560179668L6.6328125 17.813430678574875L6.421875 17.69164585616769L6.421875 17.366886329748525" stroke-width="0.03" stroke="#000000" fill="none"/>
<path d="M6.3515625 17.24510150734134L5.5078125 17.732240796970082L5.5078125 17.001531862526964L5.4375 16.960936921724567L5.9296875 16.6767723361078L6 16.717367276910196L6 16.960936921724567L6.28125 17.123316684934153" stroke-width="0.03" stroke="#000000" fill="none"/>
<path d="M6 16.717367276910196L5.5078125 17.001531862526964" stroke-width="0.03" stroke="#000000" fill="none"/>
<path d="M5.4375 16.960936921724567L5.4375 17.69164585616769L4.03125 16.879747040119774L4.9453125 16.352012809688635" stroke-width="0.03" stroke="#000000" fill="none"/>
<path d="M4.5234375 16.10844316487426L4.5234375 15.702493756850306" stroke-width="0.03" stroke="#000000" fill="none"/>
<path d="M4.5234375 16.10844316487426L5.71875 16.79855715851499" stroke-width="0.03" stroke="#000000" fill="none"/>
<path d="M5.5078125 17.732240796970082L6.140625 18.097595264191643L6.140625 18.178785145796436" stroke-width="0.03" stroke="#000000" fill="none"/>
<path d="M6.140625 18.097595264191643L6.6328125 17.813430678574875" stroke-width="0.03" stroke="#000000" fill="none"/>
<path d="M5.4375 17.77283573777248L4.453125 18.341164909006018L5.15625 18.747114317029972L5.4375 18.58473455382039" stroke-width="0.03" stroke="#000000" fill="none"/>
<path d="M5.15625 18.747114317029972L5.15625 19.23425360665872L5.4375 19.071873843449136" stroke-width="0.03" stroke="#000000" fill="none"/>
<path d="M5.4375 19.3966333698683L5.4375 17.77283573777248L4.03125 16.960936921724567L4.03125 16.879747040119774" stroke-width="0.03" stroke="#000000" fill="none"/>
<path d="M4.3125 17.123316684934153L4.03125 17.28569644814373L4.03125 17.610455974562896L3.8906249999999996 17.69164585616769L2.484375000000001 16.879747040119774L2.484375000000001 14.281670828766462L3.2578125 13.83512647994011" stroke-width="0.03" stroke="#000000" fill="none"/>
<path d="M3.2578125 13.672746716730527L2.8359374999999996 13.9163163615449L2.8359374999999996 14.078696124754483" stroke-width="0.03" stroke="#000000" fill="none"/>
<path d="M2.765625 14.11929106555688L2.484375000000001 13.956911302347297L2.484375000000001 13.713341657532922L3.328125000000001 13.226202367904175" stroke-width="0.03" stroke="#000000" fill="none"/>
<path d="M3.2578125 13.266797308706572L3.2578125 13.997506243149692L3.46875 14.11929106555688" stroke-width="0.03" stroke="#000000" fill="none"/>
<path d="M2.8359374999999996 13.9163163615449L2.484375000000001 13.713341657532922" stroke-width="0.03" stroke="#000000" fill="none"/>
<path d="M2.484375000000001 14.281670828766462L3.46875 14.85" stroke-width="0.03" stroke="#000000" fill="none"/>
<path d="M3.8906249999999996 15.337139289628746L3.8906249999999996 17.69164585616769" stroke-width="0.03" stroke="#000000" fill="none"/>
<path d="M3.7499999999999996 17.610455974562896L3.7499999999999996 17.93521550098206L2.0625000000000004 16.960936921724567L2.4140625000000004 16.75796221771259L2.484375000000001 16.79855715851499" stroke-width="0.03" stroke="#000000" fill="none"/>
<path d="M2.0625000000000004 16.230227987281445L1.9218750000000004 16.311417868886238L1.9218750000000004 19.23425360665872L1.7812499999999996 19.15306372505393L1.7812499999999996 16.230227987281445L1.9218750000000004 16.14903810567666L2.0625000000000004 16.230227987281445L2.0625000000000004 19.15306372505393L1.9218750000000004 19.23425360665872" stroke-width="0.03" stroke="#000000" fill="none"/>
<path d="M2.0625000000000004 18.259975027401225L3.328125000000001 18.990683961844347L3.328125000000001 20.452101830730584" stroke-width="0.03" stroke="#000000" fill="none"/>
<path d="M2.5546875 20.005557481904233L2.4140625000000004 20.086747363509026L2.4140625000000004 20.249127126718612L4.9453125 21.71054499560485L5.0859375 21.62935511400006L5.0859375 21.466975350790477L2.5546875 20.005557481904233" stroke-width="0.03" stroke="#000000" fill="none"/>
<path d="M2.4140625000000004 20.086747363509026L4.9453125 21.548165232395267L5.0859375 21.466975350790477" stroke-width="0.03" stroke="#000000" fill="none"/>
<path d="M4.9453125 21.548165232395267L4.9453125 21.71054499560485" stroke-width="0.03" stroke="#000000" fill="none"/>
<path d="M4.453125 21.101620883568916L4.8046875 20.898646179556938L4.8046875 20.81745629795215" stroke-width="0.03" stroke="#000000" fill="none"/>
<path d="M4.734375 20.776861357149752L4.734375 19.15306372505393L4.875 19.071873843449136L5.15625 19.23425360665872" stroke-width="0.03" stroke="#000000" fill="none"/>
<path d="M5.4375 19.3966333698683L5.5078125 19.437228310670697" stroke-width="0.03" stroke="#000000" fill="none"/>
<path d="M4.734375 19.477823251473097L4.453125 19.640203014682676L3.7499999999999996 19.23425360665872L3.7499999999999996 18.747114317029972L3.328125000000001 18.5035446722156L3.328125000000001 17.69164585616769L3.609375 17.529266092958107" stroke-width="0.03" stroke="#000000" fill="none"/>
<path d="M4.03125 17.28569644814373L4.453125 17.529266092958107L4.453125 18.341164909006018" stroke-width="0.03" stroke="#000000" fill="none"/>
<path d="M3.7499999999999996 18.747114317029972L3.679687499999999 18.78770925783237L3.7499999999999996 18.828304198634765" stroke-width="0.03" stroke="#000000" fill="none"/>
<path d="M3.679687499999999 18.78770925783237L3.679687499999999 18.706519376227575" stroke-width="0.03" stroke="#000000" fill="none"/>
<path d="M4.453125 19.15306372505393L4.453125 21.101620883568916" stroke-width="0.03" stroke="#000000" fill="none"/>
<path d="M4.734375 20.776861357149752L6.984375 22.07589946282641L7.757812499999999 21.62935511400006" stroke-width="0.03" stroke="#000000" fill="none"/>
<path d="M7.6171875 21.548165232395267L7.6171875 21.304595587580895" stroke-width="0.03" stroke="#000000" fill="none"/>
<path d="M7.6171875 21.548165232395267L8.25 21.913519699616828L8.25 21.669950054802452" stroke-width="0.03" stroke="#000000" fill="none"/>
<path d="M8.3203125 21.87292475881443L7.4765625 22.360064048443178L7.265625000000001 22.238279226035992L7.265625000000001 21.913519699616828" stroke-width="0.03" stroke="#000000" fill="none"/>
<path d="M7.3359375 21.87292475881443L7.4765625 21.954114640419224L7.4765625 22.360064048443178" stroke-width="0.03" stroke="#000000" fill="none"/>
<path d="M7.4765625 21.954114640419224L7.898437500000001 21.71054499560485" stroke-width="0.03" stroke="#000000" fill="none"/>
<path d="M6.984375 22.07589946282641L6.984375 20.939241120359334" stroke-width="0.03" stroke="#000000" fill="none"/>
<path d="M6.7734375 20.330317008323398L4.734375 19.15306372505393" stroke-width="0.03" stroke="#000000" fill="none"/>
<path d="M4.734375 19.31544348826351L4.453125 19.15306372505393" stroke-width="0.03" stroke="#000000" fill="none"/>
<path d="M5.296875 17.85402561937727L5.296875 17.69164585616769" stroke-width="0.03" stroke="#000000" fill="none"/>
<path d="M5.296875 17.85402561937727L5.4375 17.93521550098206" stroke-width="0.03" stroke="#000000" fill="none"/>
<path d="M4.734375 17.366886329748525L4.453125 17.529266092958107" stroke-width="0.03" stroke="#000000" fill="none"/>
<path d="M6.421875 19.3966333698683L6.7734375 19.59960807388028" stroke-width="0.03" stroke="#000000" fill="none"/>
<path d="M9.5859375 18.13819020499404L9.5859375 17.163911625736546" stroke-width="0.03" stroke="#000000" fill="none"/>
<path d="M8.953125 15.986658342467075L10.078125 15.337139289628746" stroke-width="0.03" stroke="#000000" fill="none"/>
<path d="M10.078125 15.093569644814371L9.9375 15.012379763209582" stroke-width="0.03" stroke="#000000" fill="none"/>
<path d="M10.5 15.418329171233536L10.5 14.362860710371251" stroke-width="0.03" stroke="#000000" fill="none"/>
<path d="M10.640625 14.281670828766462L10.5 14.200480947161669" stroke-width="0.03" stroke="#000000" fill="none"/>
<path d="M10.8515625 15.215354467221559L10.921875000000002 15.255949408023953" stroke-width="0.03" stroke="#000000" fill="none"/>
<path d="M12.46875 13.713341657532922L12.539062500000002 13.672746716730527" stroke-width="0.03" stroke="#000000" fill="none"/>
<path d="M12.46875 13.713341657532922L12.46875 13.226202367904175" stroke-width="0.03" stroke="#000000" fill="none"/>
<path d="M12.46875 13.713341657532922L12.890625000000002 13.956911302347297" stroke-width="0.03" stroke="#000000" fill="none"/>
<path d="M12.046875 12.90144284148501L12.890625000000002 12.414303551856264" stroke-width="0.03" stroke="#000000" fill="none"/>
<path d="M14.718749999999998 14.931189881604789L14.718749999999998 17.204506566538942L14.648437500000002 17.24510150734134L14.648437500000002 17.326291388946128L12.679687500000002 18.462949731413204" stroke-width="0.03" stroke="#000000" fill="none"/>
<path d="M13.6640625 17.894620560179668L14.2265625 18.219380086598832" stroke-width="0.03" stroke="#000000" fill="none"/>
<path d="M14.367187500000002 17.894620560179668L14.367187500000002 17.813430678574875L14.578125 17.69164585616769L14.578125 17.366886329748525" stroke-width="0.03" stroke="#000000" fill="none"/>
<path d="M14.648437500000002 17.24510150734134L15.4921875 17.732240796970082L15.4921875 17.001531862526964L15.5625 16.960936921724567L15.070312500000002 16.6767723361078L15.000000000000002 16.717367276910196L15.000000000000002 16.960936921724567L14.718749999999998 17.123316684934153" stroke-width="0.03" stroke="#000000" fill="none"/>
<path d="M15.000000000000002 16.717367276910196L15.4921875 17.001531862526964" stroke-width="0.03" stroke="#000000" fill="none"/>
<path d="M15.5625 16.960936921724567L15.5625 17.69164585616769L16.96875 16.879747040119774L16.0546875 16.352012809688635" stroke-width="0.03" stroke="#000000" fill="none"/>
<path d="M16.4765625 16.10844316487426L15.28125 16.79855715851499" stroke-width="0.03" stroke="#000000" fill="none"/>
<path d="M15.4921875 17.732240796970082L14.859375 18.097595264191643L14.859375 18.178785145796436L14.367187500000002 17.894620560179668" stroke-width="0.03" stroke="#000000" fill="none"/>
<path d="M14.367187500000002 17.813430678574875L14.859375 18.097595264191643" stroke-width="0.03" stroke="#000000" fill="none"/>
<path d="M14.859375 18.178785145796436L15.4921875 17.813430678574875L15.4921875 19.437228310670697L14.578125 18.909494080239554" stroke-width="0.03" stroke="#000000" fill="none"/>
<path d="M14.578125 19.3966333698683L14.2265625 19.59960807388028" stroke-width="0.03" stroke="#000000" fill="none"/>
<path d="M14.578125 19.3966333698683L14.578125 18.016405382586854" stroke-width="0.03" stroke="#000000" fill="none"/>
<path d="M15.5625 17.93521550098206L15.703125000000002 17.85402561937727L15.703125000000002 17.69164585616769" stroke-width="0.03" stroke="#000000" fill="none"/>
<path d="M15.5625 17.77283573777248L16.96875 16.960936921724567L16.96875 16.879747040119774" stroke-width="0.03" stroke="#000000" fill="none"/>
<path d="M16.6875 17.123316684934153L16.96875 17.28569644814373L16.96875 17.610455974562896L17.109375 17.69164585616769L18.515625 16.879747040119774L18.515625 14.281670828766462L17.7421875 13.83512647994011" stroke-width="0.03" stroke="#000000" fill="none"/>
<path d="M17.7421875 13.997506243149692L17.53125 14.11929106555688" stroke-width="0.03" stroke="#000000" fill="none"/>
<path d="M17.7421875 13.997506243149692L17.7421875 13.266797308706572L17.53125 13.388582131113758" stroke-width="0.03" stroke="#000000" fill="none"/>
<path d="M17.671875 13.226202367904175L18.515625 13.713341657532922L18.515625 13.956911302347297L18.234375 14.11929106555688" stroke-width="0.03" stroke="#000000" fill="none"/>
<path d="M18.1640625 14.078696124754483L18.1640625 13.9163163615449L18.515625 13.713341657532922" stroke-width="0.03" stroke="#000000" fill="none"/>
<path d="M18.1640625 13.9163163615449L17.7421875 13.672746716730527" stroke-width="0.03" stroke="#000000" fill="none"/>
<path d="M18.515625 14.281670828766462L17.53125 14.85" stroke-width="0.03" stroke="#000000" fill="none"/>
<path d="M17.109375 15.337139289628746L17.109375 17.69164585616769" stroke-width="0.03" stroke="#000000" fill="none"/>
<path d="M17.25 17.610455974562896L17.25 17.93521550098206L18.9375 16.960936921724567L18.585937500000004 16.75796221771259L18.515625 16.79855715851499" stroke-width="0.03" stroke="#000000" fill="none"/>
<path d="M18.9375 16.230227987281445L19.078125 16.14903810567666L19.21875 16.230227987281445L19.21875 19.15306372505393L19.078125 19.23425360665872L18.9375 19.15306372505393L18.9375 16.230227987281445L19.078125 16.311417868886238L19.078125 19.23425360665872" stroke-width="0.03" stroke="#000000" fill="none"/>
<path d="M18.585937500000004 20.086747363509026L16.0546875 21.548165232395267L15.9140625 21.466975350790477L15.9140625 21.62935511400006L16.0546875 21.71054499560485L18.585937500000004 20.249127126718612L18.585937500000004 20.086747363509026L18.4453125 20.005557481904233L15.9140625 21.466975350790477" stroke-width="0.03" stroke="#000000" fill="none"/>
<path d="M16.0546875 21.548165232395267L16.0546875 21.71054499560485" stroke-width="0.03" stroke="#000000" fill="none"/>
<path d="M16.546875 21.101620883568916L16.546875 19.15306372505393L16.265625 19.31544348826351" stroke-width="0.03" stroke="#000000" fill="none"/>
<path d="M16.265625 19.15306372505393L14.2265625 20.330317008323398" stroke-width="0.03" stroke="#000000" fill="none"/>
<path d="M14.015625 20.939241120359334L14.015625 22.07589946282641L16.265625 20.776861357149752L16.265625 19.15306372505393L16.125 19.071873843449136L15.843750000000002 19.23425360665872L15.5625 19.071873843449136" stroke-width="0.03" stroke="#000000" fill="none"/>
<path d="M15.5625 19.3966333698683L15.4921875 19.437228310670697" stroke-width="0.03" stroke="#000000" fill="none"/>
<path d="M15.5625 19.3966333698683L15.5625 17.77283573777248L16.546875 18.341164909006018L15.843750000000002 18.747114317029972L15.5625 18.58473455382039" stroke-width="0.03" stroke="#000000" fill="none"/>
<path d="M15.843750000000002 18.747114317029972L15.843750000000002 19.23425360665872" stroke-width="0.03" stroke="#000000" fill="none"/>
<path d="M16.265625 19.477823251473097L16.546875 19.640203014682676L17.25 19.23425360665872L17.25 18.747114317029972L17.671875 18.5035446722156L17.671875 17.69164585616769L17.390625 17.529266092958107" stroke-width="0.03" stroke="#000000" fill="none"/>
<path d="M16.96875 17.28569644814373L16.546875 17.529266092958107L16.546875 18.341164909006018" stroke-width="0.03" stroke="#000000" fill="none"/>
<path d="M17.25 18.747114317029972L17.320312500000004 18.78770925783237L17.320312500000004 18.706519376227575" stroke-width="0.03" stroke="#000000" fill="none"/>
<path d="M17.320312500000004 18.78770925783237L17.25 18.828304198634765" stroke-width="0.03" stroke="#000000" fill="none"/>
<path d="M17.671875 18.990683961844347L18.9375 18.259975027401225" stroke-width="0.03" stroke="#000000" fill="none"/>
<path d="M17.671875 18.990683961844347L17.671875 20.452101830730584" stroke-width="0.03" stroke="#000000" fill="none"/>
<path d="M16.546875 21.101620883568916L16.1953125 20.898646179556938L16.1953125 20.81745629795215" stroke-width="0.03" stroke="#000000" fill="none"/>
<path d="M14.015625 22.07589946282641L13.242187500000002 21.62935511400006" stroke-width="0.03" stroke="#000000" fill="none"/>
<path d="M13.1015625 21.71054499560485L13.5234375 21.954114640419224L13.5234375 22.360064048443178L13.734375 22.238279226035992L13.734375 21.913519699616828" stroke-width="0.03" stroke="#000000" fill="none"/>
<path d="M13.6640625 21.87292475881443L13.5234375 21.954114640419224" stroke-width="0.03" stroke="#000000" fill="none"/>
<path d="M13.5234375 22.360064048443178L12.679687500000002 21.87292475881443" stroke-width="0.03" stroke="#000000" fill="none"/>
<path d="M12.75 21.913519699616828L13.382812500000002 21.548165232395267L13.382812500000002 21.304595587580895" stroke-width="0.03" stroke="#000000" fill="none"/>
<path d="M12.75 21.669950054802452L12.75 21.913519699616828" stroke-width="0.03" stroke="#000000" fill="none"/>
<path d="M16.265625 17.366886329748525L16.546875 17.529266092958107" stroke-width="0.03" stroke="#000000" fill="none"/>
<path d="M16.4765625 16.10844316487426L16.4765625 15.702493756850306" stroke-width="0.03" stroke="#000000" fill="none"/>
<path d="M19.078125 16.311417868886238L19.21875 16.230227987281445" stroke-width="0.03" stroke="#000000" fill="none"/>
<path d="M17.953125000000004 12.414303551856264L17.671875 12.251923788646682" stroke-width="0.03" stroke="#000000" fill="none"/>
<path d="M11.203125 8.598379116431081L11.203125 8.273619590011917" stroke-width="0.03" stroke="#000000" fill="none"/>
<path d="M10.640625 8.923138642850246L10.5 8.841948761245455L10.359375 8.923138642850246" stroke-width="0.03" stroke="#000000" fill="none"/>
<path d="M9.867187500000002 9.450872873281389L9.796875 9.410277932478992" stroke-width="0.03" stroke="#000000" fill="none"/>
<path d="M9.4453125 9.938012162910134L9.4453125 10.587531215748463" stroke-width="0.03" stroke="#000000" fill="none"/>
<path d="M6.421875 10.952885682970024L5.15625 11.683594617413146" stroke-width="0.03" stroke="#000000" fill="none"/>
<path d="M5.0859375 11.805379439820332L5.4375 12.00835414383231" stroke-width="0.03" stroke="#000000" fill="none"/>
<path d="M5.5078125 11.967759203029914L5.5078125 11.886569321425123" stroke-width="0.03" stroke="#000000" fill="none"/>
<path d="M5.4375 11.521214854203564L5.4375 10.384556511736488" stroke-width="0.03" stroke="#000000" fill="none"/>
<path d="M5.9296875 10.912290742167627L5.4375 11.196455327784399L5.71875 11.358835090993981" stroke-width="0.03" stroke="#000000" fill="none"/>
<path d="M5.9296875 10.912290742167627L6.210937500000001 11.074670505377211" stroke-width="0.03" stroke="#000000" fill="none"/>
<path d="M5.71875 9.491467814083784L5.5078125 9.369682991676598" stroke-width="0.03" stroke="#000000" fill="none"/>
<path d="M3.2578125 13.266797308706572L3.46875 13.388582131113758" stroke-width="0.03" stroke="#000000" fill="none"/>
<path d="M1.7812499999999996 16.230227987281445L1.9218750000000004 16.311417868886238" stroke-width="0.03" stroke="#000000" fill="none"/>
<path d="M2.293164916401084 2.9786238469347097L2.433374224245081 2.8001756369514412" stroke-width="0.03" stroke="#000000" fill="none"/>
<path d="M2.293164916401084 2.8001756369514412L2.433374224245081 2.9786238469347097" stroke-width="0.03" stroke="#000000" fill="none"/>
<path d="M2.5735835320890774 2.7109515319598065L2.5353446299498055 2.7236978326728973L2.522598329236715 2.7491904340990785L2.522598329236715 2.7746830355252596L2.5353446299498055 2.8001756369514412L2.560837231375987 2.8129219376645316L2.6118224342283494 2.825668238377622L2.6500613363676213 2.8384145390907127L2.6755539377938025 2.8639071405168943L2.6883002385068933 2.889399741943075L2.6883002385068933 2.927638644082347L2.6755539377938025 2.953131245508528L2.6628076370807117 2.965877546221619L2.62456873494144 2.9786238469347097L2.5735835320890774 2.9786238469347097L2.5353446299498055 2.965877546221619L2.522598329236715 2.953131245508528L2.5098520285236243 2.927638644082347L2.5098520285236243 2.889399741943075L2.522598329236715 2.8639071405168943L2.5480909306628963 2.8384145390907127L2.586329832802168 2.825668238377622L2.6373150356545305 2.8129219376645316L2.6628076370807117 2.8001756369514412L2.6755539377938025 2.7746830355252596L2.6755539377938025 2.7491904340990785L2.6628076370807117 2.7236978326728973L2.62456873494144 2.7109515319598065L2.5735835320890774 2.7109515319598065" stroke-width="0.03" stroke="#000000" fill="none"/>
<path d="M2.777524343498527 2.9403849447954378L2.790270644211618 2.965877546221619L2.82850954635089 2.9786238469347097L2.854002147777071 2.9786238469347097L2.892241049916343 2.965877546221619L2.917733651342524 2.927638644082347L2.930479952055615 2.8639071405168943L2.930479952055615 2.8001756369514412L2.917733651342524 2.7491904340990785L2.892241049916343 2.7236978326728973L2.854002147777071 2.7109515319598065L2.84125584706398 2.7109515319598065L2.8030169449247087 2.7236978326728973L2.777524343498527 2.7491904340990785L2.7647780427854367 2.7874293362383504L2.7647780427854367 2.8001756369514412L2.777524343498527 2.8384145390907127L2.8030169449247087 2.8639071405168943L2.84125584706398 2.8766534412299847L2.854002147777071 2.8766534412299847L2.892241049916343 2.8639071405168943L2.917733651342524 2.8384145390907127L2.930479952055615 2.8001756369514412" stroke-width="0.03" stroke="#000000" fill="none"/>
<path d="M3.0324503577603394 2.8384145390907127L3.1344207634650645 2.8384145390907127" stroke-width="0.03" stroke="#000000" fill="none"/>
<path d="M3.274630071309061 2.8384145390907127L3.3893467777268764 2.8384145390907127L3.4275856798661484 2.8511608398038035L3.440331980579239 2.8639071405168943L3.4530782812923295 2.889399741943075L3.4530782812923295 2.927638644082347L3.440331980579239 2.953131245508528L3.4275856798661484 2.965877546221619L3.3893467777268764 2.9786238469347097L3.274630071309061 2.9786238469347097L3.274630071309061 2.7109515319598065L3.3893467777268764 2.7109515319598065L3.4275856798661484 2.7236978326728973L3.440331980579239 2.736444133385988L3.4530782812923295 2.761936734812169L3.4530782812923295 2.7874293362383504L3.440331980579239 2.8129219376645316L3.4275856798661484 2.825668238377622L3.3893467777268764 2.8384145390907127" stroke-width="0.03" stroke="#000000" fill="none"/>
<path d="M3.542302386283964 2.8384145390907127L3.644272791988689 2.8384145390907127" stroke-width="0.03" stroke="#000000" fill="none"/>
<path d="M3.708004295554142 2.7109515319598065L3.542302386283964 2.7109515319598065L3.542302386283964 2.9786238469347097L3.708004295554142 2.9786238469347097" stroke-width="0.03" stroke="#000000" fill="none"/>
<path d="M3.848213603398139 2.7109515319598065L3.8099747012588665 2.7236978326728973L3.784482099832686 2.761936734812169L3.771735799119595 2.825668238377622L3.771735799119595 2.8639071405168943L3.784482099832686 2.927638644082347L3.8099747012588665 2.965877546221619L3.848213603398139 2.9786238469347097L3.8737062048243196 2.9786238469347097L3.911945106963592 2.965877546221619L3.9374377083897727 2.927638644082347L3.9501840091028635 2.8639071405168943L3.9501840091028635 2.825668238377622L3.9374377083897727 2.761936734812169L3.911945106963592 2.7236978326728973L3.8737062048243196 2.7109515319598065L3.848213603398139 2.7109515319598065" stroke-width="0.03" stroke="#000000" fill="none"/>
<path d="M4.026661813381407 2.927638644082347L4.039408114094497 2.953131245508528L4.052154414807589 2.965877546221619L4.0903933169468605 2.9786238469347097L4.128632219086132 2.9786238469347097L4.1668711212254035 2.965877546221619L4.192363722651585 2.9403849447954378L4.205110023364676 2.902146042656166L4.205110023364676 2.8766534412299847L4.192363722651585 2.8384145390907127L4.1668711212254035 2.8129219376645316L4.128632219086132 2.8001756369514412L4.0903933169468605 2.8001756369514412L4.052154414807589 2.8129219376645316L4.039408114094497 2.825668238377622L4.052154414807589 2.7109515319598065L4.179617421938495 2.7109515319598065" stroke-width="0.03" stroke="#000000" fill="none"/>
<path d="M4.345319331208673 2.7109515319598065L4.3070804290694005 2.7236978326728973L4.29433412835631 2.7491904340990785L4.29433412835631 2.7746830355252596L4.3070804290694005 2.8001756369514412L4.332573030495582 2.8129219376645316L4.383558233347944 2.825668238377622L4.421797135487216 2.8384145390907127L4.4472897369133975 2.8639071405168943L4.460036037626487 2.889399741943075L4.460036037626487 2.927638644082347L4.4472897369133975 2.953131245508528L4.434543436200307 2.965877546221619L4.396304534061034 2.9786238469347097L4.345319331208673 2.9786238469347097L4.3070804290694005 2.965877546221619L4.29433412835631 2.953131245508528L4.28158782764322 2.927638644082347L4.28158782764322 2.889399741943075L4.29433412835631 2.8639071405168943L4.319826729782491 2.8384145390907127L4.358065631921763 2.825668238377622L4.409050834774126 2.8129219376645316L4.434543436200307 2.8001756369514412L4.4472897369133975 2.7746830355252596L4.4472897369133975 2.7491904340990785L4.434543436200307 2.7236978326728973L4.396304534061034 2.7109515319598065L4.345319331208673 2.7109515319598065" stroke-width="0.03" stroke="#000000" fill="none"/>
<path d="M4.516121629722131 2.015598694615191L4.4336258385837 1.7268634256306838" stroke-width="0.03" stroke="#000000" fill="none"/>
<path d="M4.5986174208605615 1.7268634256306838L4.516121629722131 2.015598694615191" stroke-width="0.03" stroke="#000000" fill="none"/>
<path d="M4.681113211998992 2.015598694615191L4.5986174208605615 1.7268634256306838" stroke-width="0.03" stroke="#000000" fill="none"/>
<path d="M4.7636090031374225 1.7268634256306838L4.681113211998992 2.015598694615191" stroke-width="0.03" stroke="#000000" fill="none"/>
<path d="M4.928600585414284 2.015598694615191L4.928600585414284 1.664991582276861L4.949224533198891 1.6031197389230383L4.990472428768107 1.5824957911384305L5.031720324337321 1.5824957911384305" stroke-width="0.03" stroke="#000000" fill="none"/>
<path d="M5.155464011044968 1.5824957911384305L5.155464011044968 2.015598694615191" stroke-width="0.03" stroke="#000000" fill="none"/>
<path d="M5.011096376552715 1.7268634256306838L4.866728742060461 1.7268634256306838" stroke-width="0.03" stroke="#000000" fill="none"/>
<path d="M5.547319018952512 1.7268634256306838L5.547319018952512 2.015598694615191" stroke-width="0.03" stroke="#000000" fill="none"/>
<path d="M5.547319018952512 1.953726851261368L5.506071123383298 1.9949747468305832L5.464823227814082 2.015598694615191L5.402951384460259 2.015598694615191L5.3617034888910435 1.9949747468305832L5.320455593321829 1.953726851261368L5.299831645537221 1.891855007907545L5.299831645537221 1.8506071123383299L5.320455593321829 1.7887352689845069L5.3617034888910435 1.7474873734152916L5.402951384460259 1.7268634256306838L5.464823227814082 1.7268634256306838L5.506071123383298 1.7474873734152916L5.547319018952512 1.7887352689845069" stroke-width="0.03" stroke="#000000" fill="none"/>
<path d="M5.712310601229374 1.9331029034767604L5.91855007907545 1.7268634256306838" stroke-width="0.03" stroke="#000000" fill="none"/>
<path d="M5.794806392367804 1.8506071123383299L5.939174026860058 2.015598694615191" stroke-width="0.03" stroke="#000000" fill="none"/>
<path d="M6.042293765783096 1.8506071123383299L6.2897811391983875 1.8506071123383299L6.2897811391983875 1.8093592167691144L6.26915719141378 1.7681113211998993L6.248533243629172 1.7474873734152916L6.207285348059957 1.7268634256306838L6.145413504706134 1.7268634256306838L6.104165609136919 1.7474873734152916L6.062917713567703 1.7887352689845069L6.042293765783096 1.8506071123383299L6.042293765783096 1.891855007907545L6.062917713567703 1.953726851261368L6.104165609136919 1.9949747468305832L6.145413504706134 2.015598694615191L6.207285348059957 2.015598694615191L6.248533243629172 1.9949747468305832L6.2897811391983875 1.953726851261368" stroke-width="0.03" stroke="#000000" fill="none"/>
<path d="M6.578516408182894 2.015598694615191L6.578516408182894 1.5824957911384305L6.516644564829072 1.6443676344922533L6.475396669259856 1.664991582276861" stroke-width="0.03" stroke="#000000" fill="none"/>
<path d="M5.712310601229374 1.5824957911384305L5.712310601229374 2.015598694615191" stroke-width="0.03" stroke="#000000" fill="none"/>
<path d="M7.264131938244363 2.2599663291074443L1.5 2.2599663291074443" stroke-width="0.03" stroke="#000000" fill="none"/>
<path d="M2.0824957911384305 2.015598694615191L2.0824957911384305 1.7268634256306838" stroke-width="0.03" stroke="#000000" fill="none"/>
<path d="M2.061871843353823 1.5824957911384305L2.0824957911384305 1.6031197389230383L2.1031197389230383 1.5824957911384305L2.0824957911384305 1.5618718433538228L2.061871843353823 1.5824957911384305" stroke-width="0.03" stroke="#000000" fill="none"/>
<path d="M2.226863425630684 1.953726851261368L2.2474873734152916 1.9949747468305832L2.3093592167691144 2.015598694615191L2.3712310601229376 2.015598694615191L2.4331029034767604 1.9949747468305832L2.4537268512613677 1.953726851261368L2.4537268512613677 1.9331029034767604L2.4331029034767604 1.891855007907545L2.391855007907545 1.8712310601229374L2.2887352689845066 1.8506071123383299L2.2474873734152916 1.8299831645537221L2.226863425630684 1.7887352689845069L2.2474873734152916 1.7474873734152916L2.3093592167691144 1.7268634256306838L2.3712310601229376 1.7268634256306838L2.4331029034767604 1.7474873734152916L2.4537268512613677 1.7887352689845069" stroke-width="0.03" stroke="#000000" fill="none"/>
<path d="M2.680590276892052 1.7268634256306838L2.6393423813228365 1.7474873734152916L2.5980944857536215 1.7887352689845069L2.5774705379690137 1.8506071123383299L2.5774705379690137 1.891855007907545L2.5980944857536215 1.953726851261368L2.6393423813228365 1.9949747468305832L2.680590276892052 2.015598694615191L2.7424621202458748 2.015598694615191L2.78371001581509 1.9949747468305832L2.8249579113843053 1.953726851261368L2.845581859168913 1.891855007907545L2.845581859168913 1.8506071123383299L2.8249579113843053 1.7887352689845069L2.78371001581509 1.7474873734152916L2.7424621202458748 1.7268634256306838L2.680590276892052 1.7268634256306838" stroke-width="0.03" stroke="#000000" fill="none"/>
<path d="M2.907453702522736 2.056846590184406L3.237436867076458 2.056846590184406" stroke-width="0.03" stroke="#000000" fill="none"/>
<path d="M3.2993087104302807 1.953726851261368L3.3199326582148885 1.9949747468305832L3.3818045015687113 2.015598694615191L3.443676344922534 2.015598694615191L3.5055481882763573 1.9949747468305832L3.526172136060965 1.953726851261368L3.526172136060965 1.9331029034767604L3.5055481882763573 1.891855007907545L3.464300292707142 1.8712310601229374L3.361180553784104 1.8506071123383299L3.3199326582148885 1.8299831645537221L3.2993087104302807 1.7887352689845069L3.3199326582148885 1.7474873734152916L3.3818045015687113 1.7268634256306838L3.443676344922534 1.7268634256306838L3.5055481882763573 1.7474873734152916L3.526172136060965 1.7887352689845069" stroke-width="0.03" stroke="#000000" fill="none"/>
<path d="M3.6705397705532183 1.8093592167691144L3.732411613907041 1.7474873734152916L3.773659509476256 1.7268634256306838L3.8355313528300794 1.7268634256306838L3.8767792483992944 1.7474873734152916L3.897403196183902 1.8093592167691144L3.897403196183902 2.015598694615191" stroke-width="0.03" stroke="#000000" fill="none"/>
<path d="M3.6705397705532183 2.015598694615191L3.6705397705532183 1.7268634256306838" stroke-width="0.03" stroke="#000000" fill="none"/>
<path d="M4.144890569599194 1.7268634256306838L4.103642674029978 1.7474873734152916L4.062394778460764 1.7887352689845069L4.041770830676155 1.8506071123383299L4.041770830676155 1.891855007907545L4.062394778460764 1.953726851261368L4.103642674029978 1.9949747468305832L4.144890569599194 2.015598694615191L4.206762412953017 2.015598694615191L4.2480103085222325 1.9949747468305832L4.289258204091447 1.953726851261368L4.309882151876055 1.891855007907545L4.309882151876055 1.8506071123383299L4.289258204091447 1.7887352689845069L4.2480103085222325 1.7474873734152916L4.206762412953017 1.7268634256306838L4.144890569599194 1.7268634256306838" stroke-width="0.03" stroke="#000000" fill="none"/>
<path d="M3.198152267030517 2.7109515319598065L3.0324503577603394 2.7109515319598065L3.0324503577603394 2.9786238469347097L3.198152267030517 2.9786238469347097" stroke-width="0.03" stroke="#000000" fill="none"/>
<path d="M2.1147167064178154 2.7109515319598065L2.076477804278544 2.7236978326728973L2.0509852028523623 2.761936734812169L2.038238902139272 2.825668238377622L2.038238902139272 2.8639071405168943L2.0509852028523623 2.927638644082347L2.076477804278544 2.965877546221619L2.1147167064178154 2.9786238469347097L2.140209307843997 2.9786238469347097L2.1784482099832685 2.965877546221619L2.2039408114094496 2.927638644082347L2.2166871121225404 2.8639071405168943L2.2166871121225404 2.825668238377622L2.2039408114094496 2.761936734812169L2.1784482099832685 2.7236978326728973L2.140209307843997 2.7109515319598065L2.1147167064178154 2.7109515319598065" stroke-width="0.03" stroke="#000000" fill="none"/>
</svg>
