<?xml version="1.0" standalone="no"?>
<svg width="21cm" height="29.7cm" version="1.1" xmlns="http://www.w3.org/2000/svg" viewBox="0.0 0.0 21.000001 29.700001">
<path d="M3.3984375 9.044923465257433L5.15625 8.030049945197543L8.953125 10.222176748526905L8.953125 10.303366630131695" stroke-width="0.03" stroke="#000000" fill="none"/>
<path d="M8.953125 10.222176748526905L8.7421875 10.343961570934091" stroke-width="0.03" stroke="#000000" fill="none"/>
<path d="M8.7421875 10.42515145253888L8.4609375 10.587531215748463L8.4609375 10.831100860562838" stroke-width="0.03" stroke="#000000" fill="none"/>
<path d="M8.4609375 10.668721097353256L8.3203125 10.749910978958045" stroke-width="0.03" stroke="#000000" fill="none"/>
<path d="M8.1796875 10.668721097353256L8.53125 10.465746393341277L8.109375 10.222176748526905L8.109375 10.059796985317323L8.1796875 10.019202044514927L8.8125 10.384556511736488L10.218750000000002 9.572657695688576L9.796875 9.329088050874201L10.078125 9.166708287664619L10.5 9.410277932478992L10.921875000000002 9.166708287664619L11.203125 9.329088050874201L11.203125 9.816227340502948" stroke-width="0.03" stroke="#000000" fill="none"/>
<path d="M11.203125 9.572657695688576L11.835937500000002 9.207303228467016L12.679687500000002 9.694442518095762L13.1015625 9.450872873281389L13.242187500000002 9.53206275488618" stroke-width="0.03" stroke="#000000" fill="none"/>
<path d="M13.382812500000002 9.450872873281389L13.382812500000002 8.638974057233478L12.046875 7.867670181987961L11.34375 8.273619590011917L11.34375 9.166708287664619L11.1328125 9.288493110071807" stroke-width="0.03" stroke="#000000" fill="none"/>
<path d="M11.203125 9.329088050874201L10.78125 9.572657695688576L12.187500000000002 10.384556511736488L12.8203125 10.019202044514927L12.890625000000002 10.059796985317323L12.890625000000002 10.222176748526905L12.46875 10.465746393341277L12.46875 10.54693627494607" stroke-width="0.03" stroke="#000000" fill="none"/>
<path d="M12.539062500000002 10.587531215748463L12.2578125 10.749910978958045L10.5 9.735037458898159L8.7421875 10.749910978958045L8.4609375 10.587531215748463" stroke-width="0.03" stroke="#000000" fill="none"/>
<path d="M8.53125 10.54693627494607L8.53125 10.465746393341277" stroke-width="0.03" stroke="#000000" fill="none"/>
<path d="M8.7421875 10.42515145253888L8.109375 10.059796985317323" stroke-width="0.03" stroke="#000000" fill="none"/>
<path d="M8.3203125 9.694442518095762L9.1640625 9.207303228467016L9.796875 9.572657695688576" stroke-width="0.03" stroke="#000000" fill="none"/>
<path d="M9.796875 9.816227340502948L9.796875 9.329088050874201" stroke-width="0.03" stroke="#000000" fill="none"/>
<path d="M9.867187500000002 9.288493110071807L9.65625 9.166708287664619L9.375 9.329088050874201" stroke-width="0.03" stroke="#000000" fill="none"/>
<path d="M9.65625 9.166708287664619L9.65625 8.273619590011917L8.953125 7.867670181987961L7.6171875 8.638974057233478L7.6171875 9.450872873281389" stroke-width="0.03" stroke="#000000" fill="none"/>
<path d="M7.757812499999999 9.53206275488618L7.898437500000001 9.450872873281389L8.3203125 9.694442518095762L8.3203125 9.044923465257433L9.65625 8.273619590011917" stroke-width="0.03" stroke="#000000" fill="none"/>
<path d="M10.1484375 8.476594294023895L10.5 8.273619590011917L10.8515625 8.476594294023895L10.8515625 9.207303228467016" stroke-width="0.03" stroke="#000000" fill="none"/>
<path d="M10.640625 9.329088050874201L10.5 9.24789816926941L10.5 8.273619590011917" stroke-width="0.03" stroke="#000000" fill="none"/>
<path d="M10.8515625 8.476594294023895L13.1015625 7.177556188347237L10.78125 5.837923141868183L10.5 6.000302905077765L10.218750000000002 5.837923141868183L7.898437500000001 7.177556188347237L7.898437500000001 8.476594294023895" stroke-width="0.03" stroke="#000000" fill="none"/>
<path d="M7.6875 8.598379116431081L7.6171875 8.557784175628687L6.84375 9.004328524455037" stroke-width="0.03" stroke="#000000" fill="none"/>
<path d="M7.1953125 9.207303228467016L7.6171875 8.963733583652642" stroke-width="0.03" stroke="#000000" fill="none"/>
<path d="M7.6171875 8.638974057233478L8.3203125 9.044923465257433" stroke-width="0.03" stroke="#000000" fill="none"/>
<path d="M7.265625000000001 8.760758879640663L6.421875 8.273619590011917L6 8.51718923482629" stroke-width="0.03" stroke="#000000" fill="none"/>
<path d="M5.859375000000001 8.435999353221499L7.6171875 7.421125833161611L7.898437500000001 7.583505596371193" stroke-width="0.03" stroke="#000000" fill="none"/>
<path d="M7.898437500000001 7.177556188347237L10.1484375 8.476594294023895L10.1484375 9.207303228467016" stroke-width="0.03" stroke="#000000" fill="none"/>
<path d="M10.359375 9.329088050874201L10.5 9.24789816926941" stroke-width="0.03" stroke="#000000" fill="none"/>
<path d="M10.5 9.735037458898159L10.5 10.222176748526905L8.953125 11.115265446179606" stroke-width="0.03" stroke="#000000" fill="none"/>
<path d="M8.7421875 10.99348062377242L8.7421875 10.749910978958045" stroke-width="0.03" stroke="#000000" fill="none"/>
<path d="M8.1796875 10.668721097353256L10.5 12.00835414383231L12.8203125 10.668721097353256L12.46875 10.465746393341277" stroke-width="0.03" stroke="#000000" fill="none"/>
<path d="M12.539062500000002 10.587531215748463L12.539062500000002 10.831100860562838" stroke-width="0.03" stroke="#000000" fill="none"/>
<path d="M12.539062500000002 10.668721097353256L12.679687500000002 10.749910978958045" stroke-width="0.03" stroke="#000000" fill="none"/>
<path d="M12.539062500000002 10.587531215748463L12.2578125 10.42515145253888L12.890625000000002 10.059796985317323" stroke-width="0.03" stroke="#000000" fill="none"/>
<path d="M12.679687500000002 9.694442518095762L12.679687500000002 9.044923465257433L13.382812500000002 8.638974057233478" stroke-width="0.03" stroke="#000000" fill="none"/>
<path d="M13.382812500000002 8.557784175628687L13.3125 8.598379116431081" stroke-width="0.03" stroke="#000000" fill="none"/>
<path d="M13.382812500000002 8.557784175628687L14.15625 9.004328524455037" stroke-width="0.03" stroke="#000000" fill="none"/>
<path d="M13.8046875 9.207303228467016L13.382812500000002 8.963733583652642" stroke-width="0.03" stroke="#000000" fill="none"/>
<path d="M13.734375 8.760758879640663L14.578125 8.273619590011917L15.000000000000002 8.51718923482629" stroke-width="0.03" stroke="#000000" fill="none"/>
<path d="M15.140625 8.435999353221499L13.382812500000002 7.421125833161611L13.1015625 7.583505596371193" stroke-width="0.03" stroke="#000000" fill="none"/>
<path d="M13.1015625 7.177556188347237L13.1015625 8.476594294023895" stroke-width="0.03" stroke="#000000" fill="none"/>
<path d="M12.679687500000002 9.044923465257433L11.34375 8.273619590011917" stroke-width="0.03" stroke="#000000" fill="none"/>
<path d="M11.34375 9.166708287664619L11.625000000000002 9.329088050874201" stroke-width="0.03" stroke="#000000" fill="none"/>
<path d="M12.046875 10.222176748526905L15.843750000000002 8.030049945197543L17.6015625 9.044923465257433L17.6015625 9.207303228467016L13.8046875 11.399430031796376L12.9609375 10.912290742167627L12.9609375 10.749910978958045L10.640625 12.0895440254371L10.8515625 12.211328847844287L10.8515625 12.37370861105387L11.34375 12.65787319667064L11.34375 12.820252959880222L11.1328125 12.942037782287407" stroke-width="0.03" stroke="#000000" fill="none"/>
<path d="M11.203125 12.982632723089804L10.7109375 13.266797308706572L10.5 13.145012486299386L10.2890625 13.266797308706572L9.796875 12.982632723089804L10.0078125 12.860847900682616L9.65625 12.65787319667064L9.65625 12.820252959880222L9.867187500000002 12.942037782287407" stroke-width="0.03" stroke="#000000" fill="none"/>
<path d="M9.796875 12.982632723089804L9.796875 13.145012486299386L10.0078125 13.266797308706572" stroke-width="0.03" stroke="#000000" fill="none"/>
<path d="M10.078125 13.226202367904175L9.3046875 13.672746716730527L9.3046875 13.9163163615449L9.4453125 13.997506243149692L9.4453125 13.753936598335319L9.3046875 13.672746716730527" stroke-width="0.03" stroke="#000000" fill="none"/>
<path d="M9.375 13.632151775928133L8.390625 13.063822604694593L8.0390625 13.266797308706572L8.0390625 13.429177071916154L7.898437500000001 13.510366953520945L7.898437500000001 13.9163163615449L8.8828125 14.484645532778439" stroke-width="0.03" stroke="#000000" fill="none"/>
<path d="M8.8828125 14.403455651173648L9.09375 14.281670828766462L9.234375 14.362860710371251L9.234375 14.281670828766462L9.375 14.200480947161669L9.375 14.038101183952087L8.0390625 13.266797308706572" stroke-width="0.03" stroke="#000000" fill="none"/>
<path d="M8.0390625 13.429177071916154L9.375 14.200480947161669" stroke-width="0.03" stroke="#000000" fill="none"/>
<path d="M9.375 14.038101183952087L9.4453125 13.997506243149692" stroke-width="0.03" stroke="#000000" fill="none"/>
<path d="M9.4453125 13.753936598335319L10.218750000000002 13.307392249508968L10.078125 13.226202367904175" stroke-width="0.03" stroke="#000000" fill="none"/>
<path d="M10.218750000000002 13.307392249508968L10.218750000000002 13.388582131113758L10.2890625 13.429177071916154L10.5 13.307392249508968L10.7109375 13.429177071916154L10.78125 13.388582131113758L10.78125 13.307392249508968L10.921875000000002 13.226202367904175L11.6953125 13.672746716730527L11.6953125 13.9163163615449L11.5546875 13.997506243149692L11.5546875 13.753936598335319L11.6953125 13.672746716730527" stroke-width="0.03" stroke="#000000" fill="none"/>
<path d="M11.625000000000002 13.632151775928133L12.609375 13.063822604694593L12.9609375 13.266797308706572L12.9609375 13.429177071916154L11.625000000000002 14.200480947161669L11.765625 14.281670828766462L11.765625 14.362860710371251L11.976562500000002 14.484645532778439L11.976562500000002 15.377734230431141L11.90625 15.337139289628746L11.835937500000002 15.377734230431141L11.835937500000002 15.621303875245514L11.976562500000002 15.702493756850306L11.976562500000002 15.458924112035932L11.625000000000002 15.255949408023953L11.625000000000002 15.499519052838329L11.4140625 15.621303875245514L11.765625 15.824278579257493L11.765625 16.39260775049103L11.976562500000002 16.270822928083845L11.976562500000002 16.6767723361078L11.835937500000002 16.59558245450301L11.835937500000002 16.352012809688635" stroke-width="0.03" stroke="#000000" fill="none"/>
<path d="M11.765625 16.39260775049103L11.625000000000002 16.311417868886238L11.625000000000002 16.067848224071867" stroke-width="0.03" stroke="#000000" fill="none"/>
<path d="M11.6953125 16.02725328326947L10.921875000000002 16.473797632095824L10.7109375 16.352012809688635L10.7109375 16.189633046479052L10.640625 16.230227987281445L10.5 16.14903810567666L10.359375 16.230227987281445L10.2890625 16.189633046479052L10.078125 16.311417868886238L9.3046875 15.864873520059888L9.3046875 16.02725328326947L10.078125 16.473797632095824L10.2890625 16.352012809688635L10.2890625 16.189633046479052" stroke-width="0.03" stroke="#000000" fill="none"/>
<path d="M10.359375 16.230227987281445L10.359375 17.77283573777248L10.5 17.69164585616769L10.640625 17.77283573777248L10.9921875 17.569861033760503L10.9921875 16.433202691293424" stroke-width="0.03" stroke="#000000" fill="none"/>
<path d="M10.921875000000002 16.473797632095824L10.921875000000002 16.311417868886238L11.6953125 15.864873520059888L11.625000000000002 15.824278579257493L11.625000000000002 15.7430886976527L11.835937500000002 15.621303875245514" stroke-width="0.03" stroke="#000000" fill="none"/>
<path d="M11.976562500000002 15.702493756850306L11.765625 15.824278579257493" stroke-width="0.03" stroke="#000000" fill="none"/>
<path d="M11.6953125 15.864873520059888L11.6953125 16.02725328326947" stroke-width="0.03" stroke="#000000" fill="none"/>
<path d="M11.625000000000002 15.499519052838329L11.34375 15.337139289628746L10.9921875 15.540113993640723L10.5 15.255949408023953L10.5 14.281670828766462L10.8515625 14.078696124754483L10.5 13.875721420742504L10.5 13.55096189432334L10.2890625 13.672746716730527L10.2890625 13.266797308706572" stroke-width="0.03" stroke="#000000" fill="none"/>
<path d="M10.5 13.307392249508968L10.5 13.145012486299386" stroke-width="0.03" stroke="#000000" fill="none"/>
<path d="M10.7109375 13.266797308706572L10.7109375 13.672746716730527L10.5 13.55096189432334" stroke-width="0.03" stroke="#000000" fill="none"/>
<path d="M10.5 13.875721420742504L10.1484375 14.078696124754483L10.1484375 14.647025295988021L10.9921875 15.134164585616768L10.9921875 15.540113993640723" stroke-width="0.03" stroke="#000000" fill="none"/>
<path d="M11.34375 15.337139289628746L11.34375 14.931189881604789L10.8515625 14.647025295988021L10.0078125 15.134164585616768L10.0078125 15.540113993640723L9.65625 15.337139289628746L9.375 15.499519052838329L9.375 15.255949408023953L9.0234375 15.458924112035932L9.0234375 15.702493756850306L9.234375 15.824278579257493L9.234375 16.39260775049103L9.0234375 16.270822928083845L9.0234375 16.6767723361078L9.1640625 16.59558245450301L9.1640625 16.352012809688635" stroke-width="0.03" stroke="#000000" fill="none"/>
<path d="M9.234375 16.39260775049103L9.375 16.311417868886238L9.375 16.067848224071867" stroke-width="0.03" stroke="#000000" fill="none"/>
<path d="M9.3046875 15.864873520059888L9.375 15.824278579257493L9.375 15.7430886976527L9.1640625 15.621303875245514L9.0234375 15.702493756850306" stroke-width="0.03" stroke="#000000" fill="none"/>
<path d="M9.1640625 15.621303875245514L9.1640625 15.377734230431141L9.09375 15.337139289628746L9.0234375 15.377734230431141L8.8828125 15.29654434882635L8.8828125 14.403455651173648L9.0234375 14.484645532778439L9.0234375 15.377734230431141" stroke-width="0.03" stroke="#000000" fill="none"/>
<path d="M9.0234375 15.458924112035932L8.53125 15.174759526419164L8.671875 15.093569644814371L8.8828125 15.215354467221559" stroke-width="0.03" stroke="#000000" fill="none"/>
<path d="M8.53125 15.174759526419164L8.53125 15.418329171233536L8.1796875 15.215354467221559L8.1796875 15.783683638455097L8.53125 15.986658342467075L8.53125 16.39260775049103L8.390625 16.473797632095824L8.1796875 16.352012809688635L8.1796875 19.03127890264674L9.0234375 19.51841819227549L9.0234375 23.90267179893421L7.265625000000001 22.88779827887432L7.265625000000001 18.5035446722156L7.3359375 18.462949731413204" stroke-width="0.03" stroke="#000000" fill="none"/>
<path d="M7.265625000000001 18.5035446722156L7.4765625 18.625329494622786" stroke-width="0.03" stroke="#000000" fill="none"/>
<path d="M7.4765625 18.544139613017997L7.4765625 19.274848547461115L7.546875 19.31544348826351L7.6875 19.23425360665872L7.6875 18.747114317029972L7.757812499999999 18.706519376227575" stroke-width="0.03" stroke="#000000" fill="none"/>
<path d="M7.6875 18.747114317029972L8.0390625 18.95008902104195L8.0390625 16.270822928083845L5.71875 14.931189881604789L5.71875 15.337139289628746L5.296875 15.093569644814371L5.15625 15.174759526419164L5.15625 15.255949408023953L5.7890625 15.621303875245514L5.7890625 17.24510150734134L5.3671875 17.001531862526964L5.7890625 16.75796221771259" stroke-width="0.03" stroke="#000000" fill="none"/>
<path d="M5.578125 16.879747040119774L4.9453125 16.514392572898217L4.9453125 15.540113993640723L4.5234375 15.29654434882635L4.5234375 15.134164585616768" stroke-width="0.03" stroke="#000000" fill="none"/>
<path d="M4.382812499999999 15.052974704011977L3.679687499999999 15.458924112035932L3.679687499999999 17.001531862526964L4.382812499999999 17.407481270550917L5.15625 16.960936921724567L5.15625 16.636177395305403" stroke-width="0.03" stroke="#000000" fill="none"/>
<path d="M5.15625 16.960936921724567L5.3671875 17.082721744131756" stroke-width="0.03" stroke="#000000" fill="none"/>
<path d="M5.3671875 17.001531862526964L5.3671875 17.326291388946128L5.7890625 17.569861033760503L5.7890625 18.057000323389246L6.0703125 18.219380086598832L6.492187500000001 17.975810441784457" stroke-width="0.03" stroke="#000000" fill="none"/>
<path d="M6.28125 18.097595264191643L6.28125 18.828304198634765L7.125 19.31544348826351L7.125 19.802582777892262L7.265625000000001 19.883772659497048" stroke-width="0.03" stroke="#000000" fill="none"/>
<path d="M7.265625000000001 20.04615242270663L6.5625 20.452101830730584L5.2265625 19.68079795548507L5.2265625 18.86889913943716L6 18.422354790610807L6 18.178785145796436" stroke-width="0.03" stroke="#000000" fill="none"/>
<path d="M6.0703125 18.219380086598832L6.0703125 17.732240796970082L7.4765625 18.544139613017997" stroke-width="0.03" stroke="#000000" fill="none"/>
<path d="M7.546875 18.58473455382039L7.546875 19.31544348826351" stroke-width="0.03" stroke="#000000" fill="none"/>
<path d="M7.125 19.31544348826351L6.5625 19.640203014682676L5.2265625 18.86889913943716" stroke-width="0.03" stroke="#000000" fill="none"/>
<path d="M5.15625 18.341164909006018L5.7890625 17.975810441784457" stroke-width="0.03" stroke="#000000" fill="none"/>
<path d="M5.7890625 17.732240796970082L5.6484375 17.651050915365293L4.8046875 18.13819020499404L5.15625 18.341164909006018L5.15625 20.939241120359334L6.28125 20.289722067521005" stroke-width="0.03" stroke="#000000" fill="none"/>
<path d="M6.492187500000001 20.41150688992819L6.492187500000001 20.492696771532984L7.265625000000001 20.939241120359334" stroke-width="0.03" stroke="#000000" fill="none"/>
<path d="M7.265625000000001 20.53329171233538L6.84375 20.289722067521005" stroke-width="0.03" stroke="#000000" fill="none"/>
<path d="M6.5625 20.452101830730584L6.5625 19.640203014682676" stroke-width="0.03" stroke="#000000" fill="none"/>
<path d="M6.84375 20.69567147554496L6.84375 21.669950054802452L7.265625000000001 21.913519699616828" stroke-width="0.03" stroke="#000000" fill="none"/>
<path d="M7.265625000000001 22.07589946282641L5.5078125 21.06102594276652L5.5078125 20.736266416347355" stroke-width="0.03" stroke="#000000" fill="none"/>
<path d="M5.15625 20.939241120359334L2.8359374999999996 19.59960807388028L2.8359374999999996 19.274848547461115L2.5546875 19.112468784251533L2.5546875 16.433202691293424L3.679687499999999 15.783683638455097" stroke-width="0.03" stroke="#000000" fill="none"/>
<path d="M3.679687499999999 15.540113993640723L3.609375 15.499519052838329L3.609375 14.606430355185626" stroke-width="0.03" stroke="#000000" fill="none"/>
<path d="M3.9609375 14.809405059197603L3.9609375 15.29654434882635" stroke-width="0.03" stroke="#000000" fill="none"/>
<path d="M3.679687499999999 15.458924112035932L4.382812499999999 15.864873520059888L4.9453125 15.540113993640723" stroke-width="0.03" stroke="#000000" fill="none"/>
<path d="M5.15625 15.174759526419164L5.7890625 15.540113993640723L5.7890625 15.215354467221559L6 15.093569644814371" stroke-width="0.03" stroke="#000000" fill="none"/>
<path d="M5.859375000000001 15.012379763209582L5.859375000000001 15.174759526419164" stroke-width="0.03" stroke="#000000" fill="none"/>
<path d="M5.7890625 15.215354467221559L6.0703125 15.377734230431141L6.0703125 17.407481270550917L7.828125 18.422354790610807L8.0390625 18.30056996820362" stroke-width="0.03" stroke="#000000" fill="none"/>
<path d="M7.828125 18.422354790610807L7.828125 18.747114317029972L8.0390625 18.625329494622786" stroke-width="0.03" stroke="#000000" fill="none"/>
<path d="M7.898437500000001 18.706519376227575L8.0390625 18.78770925783237" stroke-width="0.03" stroke="#000000" fill="none"/>
<path d="M7.828125 18.747114317029972L7.546875 18.58473455382039" stroke-width="0.03" stroke="#000000" fill="none"/>
<path d="M8.0390625 18.057000323389246L6.492187500000001 17.163911625736546L6.0703125 17.407481270550917" stroke-width="0.03" stroke="#000000" fill="none"/>
<path d="M5.6484375 17.48867115215571L5.6484375 17.651050915365293" stroke-width="0.03" stroke="#000000" fill="none"/>
<path d="M5.4375 17.366886329748525L4.8046875 17.732240796970082L2.5546875 16.433202691293424" stroke-width="0.03" stroke="#000000" fill="none"/>
<path d="M2.624999999999999 16.067848224071867L2.624999999999999 14.038101183952087" stroke-width="0.03" stroke="#000000" fill="none"/>
<path d="M2.765625 14.11929106555688L2.765625 14.606430355185626L3.609375 15.093569644814371" stroke-width="0.03" stroke="#000000" fill="none"/>
<path d="M4.382812499999999 15.864873520059888L4.382812499999999 17.407481270550917" stroke-width="0.03" stroke="#000000" fill="none"/>
<path d="M4.8046875 17.732240796970082L4.8046875 18.13819020499404" stroke-width="0.03" stroke="#000000" fill="none"/>
<path d="M6 18.422354790610807L6.28125 18.58473455382039" stroke-width="0.03" stroke="#000000" fill="none"/>
<path d="M6.492187500000001 17.163911625736546L6.492187500000001 15.377734230431141" stroke-width="0.03" stroke="#000000" fill="none"/>
<path d="M6.28125 15.255949408023953L6.0703125 15.377734230431141" stroke-width="0.03" stroke="#000000" fill="none"/>
<path d="M5.7890625 15.29654434882635L5.71875 15.337139289628746" stroke-width="0.03" stroke="#000000" fill="none"/>
<path d="M5.71875 15.580708934443118L5.71875 15.824278579257493L1.9218750000000004 13.632151775928133L1.9218750000000004 11.602404735808353L2.0625000000000004 11.521214854203564L5.859375000000001 13.713341657532922L5.859375000000001 14.687620236790417L5.71875 14.768810118395209L5.71875 13.794531539137715L5.859375000000001 13.713341657532922" stroke-width="0.03" stroke="#000000" fill="none"/>
<path d="M5.9296875 13.83512647994011L5.9296875 13.510366953520945L6 13.46977201271855" stroke-width="0.03" stroke="#000000" fill="none"/>
<path d="M5.9296875 13.510366953520945L6.140625 13.632151775928133" stroke-width="0.03" stroke="#000000" fill="none"/>
<path d="M6.140625 13.55096189432334L6.140625 13.956911302347297L5.9296875 13.83512647994011" stroke-width="0.03" stroke="#000000" fill="none"/>
<path d="M5.71875 13.794531539137715L1.9218750000000004 11.602404735808353" stroke-width="0.03" stroke="#000000" fill="none"/>
<path d="M2.695312500000001 11.074670505377211L2.695312500000001 10.749910978958045L3.046875 10.54693627494607L3.7499999999999996 10.952885682970024L3.7499999999999996 10.54693627494607L3.046875 10.140986866922113L3.328125000000001 9.97860710371253L4.03125 10.384556511736488L4.03125 10.790505919760442L4.1015625 10.749910978958045L4.1015625 11.074670505377211L4.03125 11.115265446179606L4.03125 11.196455327784399L3.7499999999999996 11.358835090993981L3.679687499999999 11.318240150191585" stroke-width="0.03" stroke="#000000" fill="none"/>
<path d="M3.7499999999999996 11.277645209389188L3.3984375 11.480619913401167L2.695312500000001 11.074670505377211" stroke-width="0.03" stroke="#000000" fill="none"/>
<path d="M2.695312500000001 10.749910978958045L3.3984375 11.155860386982003L3.3984375 11.480619913401167" stroke-width="0.03" stroke="#000000" fill="none"/>
<path d="M3.3984375 11.155860386982003L3.7499999999999996 10.952885682970024" stroke-width="0.03" stroke="#000000" fill="none"/>
<path d="M3.7499999999999996 11.277645209389188L3.7499999999999996 11.358835090993981" stroke-width="0.03" stroke="#000000" fill="none"/>
<path d="M3.609375 11.764784499017935L3.046875 12.0895440254371" stroke-width="0.03" stroke="#000000" fill="none"/>
<path d="M3.609375 12.0895440254371L4.6640625 11.480619913401167L4.6640625 10.262771689329298L4.9453125 10.100391926119716" stroke-width="0.03" stroke="#000000" fill="none"/>
<path d="M4.6640625 10.262771689329298L5.015625 10.465746393341277L5.015625 10.952885682970024" stroke-width="0.03" stroke="#000000" fill="none"/>
<path d="M4.9453125 10.912290742167627L4.8046875 10.99348062377242L4.8046875 11.155860386982003L6.140625 11.927164262227517L6.28125 11.845974380622728L6.28125 11.683594617413146L4.9453125 10.912290742167627" stroke-width="0.03" stroke="#000000" fill="none"/>
<path d="M4.8046875 10.99348062377242L6.140625 11.764784499017935L6.28125 11.683594617413146" stroke-width="0.03" stroke="#000000" fill="none"/>
<path d="M6.140625 11.764784499017935L6.140625 11.927164262227517" stroke-width="0.03" stroke="#000000" fill="none"/>
<path d="M5.859375000000001 11.44002497259877L6.28125 11.196455327784399L7.546875 11.927164262227517" stroke-width="0.03" stroke="#000000" fill="none"/>
<path d="M7.546875 11.845974380622728L7.546875 11.196455327784399L9.867187500000002 12.536088374263452" stroke-width="0.03" stroke="#000000" fill="none"/>
<path d="M10.078125 12.414303551856264L7.757812499999999 11.074670505377211" stroke-width="0.03" stroke="#000000" fill="none"/>
<path d="M7.828125 11.034075564574817L8.4609375 11.399430031796376" stroke-width="0.03" stroke="#000000" fill="none"/>
<path d="M8.390625 11.44002497259877L8.6015625 11.318240150191585" stroke-width="0.03" stroke="#000000" fill="none"/>
<path d="M8.109375 11.602404735808353L6.703125 12.414303551856264L6.703125 12.65787319667064L6.492187500000001 12.779658019077825L6.492187500000001 14.403455651173648L7.1953125 14.809405059197603L7.4765625 14.647025295988021" stroke-width="0.03" stroke="#000000" fill="none"/>
<path d="M7.757812499999999 14.809405059197603L8.0390625 14.647025295988021" stroke-width="0.03" stroke="#000000" fill="none"/>
<path d="M8.0390625 14.728215177592812L8.0390625 13.997506243149692" stroke-width="0.03" stroke="#000000" fill="none"/>
<path d="M7.898437500000001 13.510366953520945L9.234375 14.281670828766462" stroke-width="0.03" stroke="#000000" fill="none"/>
<path d="M9.234375 14.362860710371251L9.0234375 14.484645532778439" stroke-width="0.03" stroke="#000000" fill="none"/>
<path d="M9.65625 14.931189881604789L10.1484375 14.647025295988021" stroke-width="0.03" stroke="#000000" fill="none"/>
<path d="M10.5 14.281670828766462L10.1484375 14.078696124754483" stroke-width="0.03" stroke="#000000" fill="none"/>
<path d="M10.8515625 14.078696124754483L10.8515625 14.647025295988021" stroke-width="0.03" stroke="#000000" fill="none"/>
<path d="M10.9921875 15.134164585616768L11.34375 14.931189881604789" stroke-width="0.03" stroke="#000000" fill="none"/>
<path d="M11.765625 14.362860710371251L11.90625 14.281670828766462L12.1171875 14.403455651173648L12.1171875 15.29654434882635L11.976562500000002 15.377734230431141" stroke-width="0.03" stroke="#000000" fill="none"/>
<path d="M11.976562500000002 15.458924112035932L12.46875 15.174759526419164L12.328125000000002 15.093569644814371L12.1171875 15.215354467221559" stroke-width="0.03" stroke="#000000" fill="none"/>
<path d="M12.46875 15.255949408023953L12.679687500000002 15.134164585616768L12.8203125 15.215354467221559L12.8203125 15.783683638455097L12.46875 15.986658342467075L12.46875 16.39260775049103L12.609375 16.473797632095824L12.8203125 16.352012809688635L12.8203125 19.03127890264674L11.976562500000002 19.51841819227549L11.976562500000002 23.90267179893421L13.734375 22.88779827887432L13.734375 18.5035446722156L13.6640625 18.462949731413204" stroke-width="0.03" stroke="#000000" fill="none"/>
<path d="M13.734375 18.5035446722156L13.5234375 18.625329494622786" stroke-width="0.03" stroke="#000000" fill="none"/>
<path d="M13.5234375 18.544139613017997L14.9296875 17.732240796970082L14.9296875 18.219380086598832L14.5078125 17.975810441784457" stroke-width="0.03" stroke="#000000" fill="none"/>
<path d="M14.718749999999998 18.097595264191643L14.718749999999998 18.828304198634765L13.875 19.31544348826351L13.875 19.802582777892262L13.734375 19.883772659497048" stroke-width="0.03" stroke="#000000" fill="none"/>
<path d="M13.734375 20.04615242270663L14.437500000000002 20.452101830730584L15.773437500000002 19.68079795548507L15.773437500000002 18.86889913943716L15.000000000000002 18.422354790610807L14.718749999999998 18.58473455382039" stroke-width="0.03" stroke="#000000" fill="none"/>
<path d="M15.000000000000002 18.422354790610807L15.000000000000002 18.178785145796436" stroke-width="0.03" stroke="#000000" fill="none"/>
<path d="M14.9296875 18.219380086598832L15.2109375 18.057000323389246L15.2109375 17.569861033760503L15.6328125 17.326291388946128L15.6328125 17.001531862526964L15.2109375 16.75796221771259" stroke-width="0.03" stroke="#000000" fill="none"/>
<path d="M15.421875 16.879747040119774L16.0546875 16.514392572898217L16.0546875 15.540113993640723L16.4765625 15.29654434882635L16.4765625 15.134164585616768" stroke-width="0.03" stroke="#000000" fill="none"/>
<path d="M16.617187500000004 15.052974704011977L17.320312500000004 15.458924112035932L17.320312500000004 17.001531862526964L16.617187500000004 17.407481270550917L15.843750000000002 16.960936921724567L15.843750000000002 16.636177395305403" stroke-width="0.03" stroke="#000000" fill="none"/>
<path d="M15.843750000000002 16.960936921724567L15.6328125 17.082721744131756" stroke-width="0.03" stroke="#000000" fill="none"/>
<path d="M15.6328125 17.001531862526964L15.2109375 17.24510150734134L15.2109375 15.621303875245514L15.843750000000002 15.255949408023953L15.843750000000002 15.174759526419164L15.703125000000002 15.093569644814371L15.28125 15.337139289628746L15.2109375 15.29654434882635" stroke-width="0.03" stroke="#000000" fill="none"/>
<path d="M15.2109375 15.215354467221559L14.9296875 15.377734230431141L14.718749999999998 15.255949408023953" stroke-width="0.03" stroke="#000000" fill="none"/>
<path d="M14.5078125 15.377734230431141L14.5078125 17.163911625736546L12.9609375 18.057000323389246" stroke-width="0.03" stroke="#000000" fill="none"/>
<path d="M12.9609375 18.30056996820362L13.171875 18.422354790610807L14.9296875 17.407481270550917L14.9296875 15.377734230431141" stroke-width="0.03" stroke="#000000" fill="none"/>
<path d="M15.140625 15.174759526419164L15.140625 15.012379763209582" stroke-width="0.03" stroke="#000000" fill="none"/>
<path d="M15.000000000000002 15.093569644814371L15.2109375 15.215354467221559L15.2109375 15.540113993640723L15.843750000000002 15.174759526419164" stroke-width="0.03" stroke="#000000" fill="none"/>
<path d="M16.0546875 15.540113993640723L16.617187500000004 15.864873520059888L17.320312500000004 15.458924112035932" stroke-width="0.03" stroke="#000000" fill="none"/>
<path d="M17.390625 15.499519052838329L17.320312500000004 15.540113993640723" stroke-width="0.03" stroke="#000000" fill="none"/>
<path d="M17.390625 15.499519052838329L17.390625 14.606430355185626" stroke-width="0.03" stroke="#000000" fill="none"/>
<path d="M17.0390625 14.809405059197603L17.0390625 15.29654434882635" stroke-width="0.03" stroke="#000000" fill="none"/>
<path d="M17.390625 15.093569644814371L18.234375 14.606430355185626L18.234375 14.11929106555688" stroke-width="0.03" stroke="#000000" fill="none"/>
<path d="M18.375 14.038101183952087L18.375 16.067848224071867L18.09375 16.230227987281445" stroke-width="0.03" stroke="#000000" fill="none"/>
<path d="M18.4453125 16.433202691293424L16.1953125 17.732240796970082L15.5625 17.366886329748525" stroke-width="0.03" stroke="#000000" fill="none"/>
<path d="M15.351562500000002 17.48867115215571L15.351562500000002 17.651050915365293L16.1953125 18.13819020499404L15.843750000000002 18.341164909006018L15.843750000000002 20.939241120359334L14.718749999999998 20.289722067521005" stroke-width="0.03" stroke="#000000" fill="none"/>
<path d="M14.5078125 20.41150688992819L14.5078125 20.492696771532984L13.734375 20.939241120359334" stroke-width="0.03" stroke="#000000" fill="none"/>
<path d="M13.734375 20.53329171233538L14.15625 20.289722067521005" stroke-width="0.03" stroke="#000000" fill="none"/>
<path d="M14.437500000000002 20.452101830730584L14.437500000000002 19.640203014682676L15.773437500000002 18.86889913943716" stroke-width="0.03" stroke="#000000" fill="none"/>
<path d="M15.843750000000002 18.341164909006018L15.2109375 17.975810441784457" stroke-width="0.03" stroke="#000000" fill="none"/>
<path d="M15.2109375 17.732240796970082L15.351562500000002 17.651050915365293" stroke-width="0.03" stroke="#000000" fill="none"/>
<path d="M14.9296875 17.407481270550917L14.5078125 17.163911625736546" stroke-width="0.03" stroke="#000000" fill="none"/>
<path d="M13.8046875 16.75796221771259L12.9609375 17.24510150734134" stroke-width="0.03" stroke="#000000" fill="none"/>
<path d="M12.609375 17.448076211353314L12.3984375 17.569861033760503" stroke-width="0.03" stroke="#000000" fill="none"/>
<path d="M12.1171875 17.732240796970082L11.835937500000002 17.894620560179668L11.835937500000002 17.24510150734134L11.5546875 17.082721744131756" stroke-width="0.03" stroke="#000000" fill="none"/>
<path d="M11.625000000000002 17.04212680332936L10.9921875 17.407481270550917" stroke-width="0.03" stroke="#000000" fill="none"/>
<path d="M10.640625 17.77283573777248L10.640625 16.230227987281445" stroke-width="0.03" stroke="#000000" fill="none"/>
<path d="M10.7109375 16.189633046479052L10.921875000000002 16.311417868886238" stroke-width="0.03" stroke="#000000" fill="none"/>
<path d="M10.5 16.14903810567666L10.5 17.69164585616769" stroke-width="0.03" stroke="#000000" fill="none"/>
<path d="M10.359375 17.77283573777248L10.0078125 17.569861033760503L10.0078125 16.433202691293424" stroke-width="0.03" stroke="#000000" fill="none"/>
<path d="M10.078125 16.473797632095824L10.078125 16.311417868886238" stroke-width="0.03" stroke="#000000" fill="none"/>
<path d="M10.0078125 15.540113993640723L10.5 15.255949408023953" stroke-width="0.03" stroke="#000000" fill="none"/>
<path d="M10.0078125 15.134164585616768L9.65625 14.931189881604789L9.65625 15.337139289628746" stroke-width="0.03" stroke="#000000" fill="none"/>
<path d="M9.5859375 15.621303875245514L9.234375 15.824278579257493" stroke-width="0.03" stroke="#000000" fill="none"/>
<path d="M9.375 15.499519052838329L9.5859375 15.621303875245514" stroke-width="0.03" stroke="#000000" fill="none"/>
<path d="M8.53125 15.255949408023953L8.3203125 15.134164585616768L8.1796875 15.215354467221559" stroke-width="0.03" stroke="#000000" fill="none"/>
<path d="M8.25 15.174759526419164L7.828125 14.931189881604789L7.828125 14.768810118395209" stroke-width="0.03" stroke="#000000" fill="none"/>
<path d="M7.757812499999999 14.809405059197603L7.757812499999999 13.347987190311363L7.1953125 13.023227663892198L7.1953125 13.18560742710178L6.492187500000001 12.779658019077825" stroke-width="0.03" stroke="#000000" fill="none"/>
<path d="M6.6328125 12.698468137473034L5.2265625 11.886569321425123L5.2265625 12.211328847844287" stroke-width="0.03" stroke="#000000" fill="none"/>
<path d="M5.15625 12.170733907041893L5.2265625 12.130138966239496" stroke-width="0.03" stroke="#000000" fill="none"/>
<path d="M5.2265625 11.967759203029914L5.015625 11.845974380622728L5.15625 11.764784499017935L5.15625 11.602404735808353L5.3671875 11.480619913401167" stroke-width="0.03" stroke="#000000" fill="none"/>
<path d="M5.5078125 11.561809795005958L5.5078125 11.64299967661075" stroke-width="0.03" stroke="#000000" fill="none"/>
<path d="M5.578125 11.602404735808353L5.296875 11.764784499017935L5.296875 11.845974380622728L5.2265625 11.886569321425123" stroke-width="0.03" stroke="#000000" fill="none"/>
<path d="M5.15625 11.764784499017935L7.828125 13.307392249508968L7.828125 13.226202367904175L7.265625000000001 12.90144284148501L7.265625000000001 12.982632723089804L7.1953125 13.023227663892198" stroke-width="0.03" stroke="#000000" fill="none"/>
<path d="M7.265625000000001 12.90144284148501L7.40625 12.820252959880222L6.703125 12.414303551856264" stroke-width="0.03" stroke="#000000" fill="none"/>
<path d="M6.703125 12.576683315065846L5.296875 11.764784499017935" stroke-width="0.03" stroke="#000000" fill="none"/>
<path d="M5.3671875 11.72418955821554L5.15625 11.602404735808353" stroke-width="0.03" stroke="#000000" fill="none"/>
<path d="M5.015625 11.683594617413146L4.6640625 11.886569321425123" stroke-width="0.03" stroke="#000000" fill="none"/>
<path d="M4.453125 11.764784499017935L4.3125 11.845974380622728L4.3125 12.00835414383231L5.6484375 12.779658019077825L5.7890625 12.698468137473034L5.7890625 12.536088374263452L4.453125 11.764784499017935" stroke-width="0.03" stroke="#000000" fill="none"/>
<path d="M4.3125 11.845974380622728L5.6484375 12.617278255868243L5.7890625 12.536088374263452" stroke-width="0.03" stroke="#000000" fill="none"/>
<path d="M5.6484375 12.617278255868243L5.6484375 12.779658019077825" stroke-width="0.03" stroke="#000000" fill="none"/>
<path d="M5.2265625 12.860847900682616L5.15625 12.820252959880222L5.15625 12.495493433461057" stroke-width="0.03" stroke="#000000" fill="none"/>
<path d="M5.2265625 12.536088374263452L5.2265625 13.023227663892198L6.492187500000001 13.753936598335319" stroke-width="0.03" stroke="#000000" fill="none"/>
<path d="M6.492187500000001 13.83512647994011L6.421875 13.794531539137715L5.859375000000001 14.11929106555688L8.1796875 15.458924112035932" stroke-width="0.03" stroke="#000000" fill="none"/>
<path d="M8.1796875 15.702493756850306L5.859375000000001 14.362860710371251" stroke-width="0.03" stroke="#000000" fill="none"/>
<path d="M5.859375000000001 14.444050591976044L6.492187500000001 14.809405059197603" stroke-width="0.03" stroke="#000000" fill="none"/>
<path d="M6.492187500000001 14.728215177592812L6.492187500000001 14.971784822407185" stroke-width="0.03" stroke="#000000" fill="none"/>
<path d="M7.1953125 14.809405059197603L7.1953125 14.484645532778439L7.757812499999999 14.809405059197603" stroke-width="0.03" stroke="#000000" fill="none"/>
<path d="M7.96875 14.687620236790417L8.0390625 14.728215177592812" stroke-width="0.03" stroke="#000000" fill="none"/>
<path d="M7.828125 15.499519052838329L7.828125 15.7430886976527" stroke-width="0.03" stroke="#000000" fill="none"/>
<path d="M8.0390625 15.864873520059888L8.1796875 15.783683638455097" stroke-width="0.03" stroke="#000000" fill="none"/>
<path d="M8.1796875 15.946063401664679L8.3203125 15.864873520059888" stroke-width="0.03" stroke="#000000" fill="none"/>
<path d="M8.390625 15.905468460862282L8.390625 16.067848224071867L8.53125 16.14903810567666" stroke-width="0.03" stroke="#000000" fill="none"/>
<path d="M8.53125 16.230227987281445L8.390625 16.311417868886238L8.390625 18.990683961844347" stroke-width="0.03" stroke="#000000" fill="none"/>
<path d="M8.3203125 18.95008902104195L8.1796875 19.03127890264674" stroke-width="0.03" stroke="#000000" fill="none"/>
<path d="M8.3203125 18.95008902104195L9.1640625 19.437228310670697L9.1640625 23.821481917329418L9.0234375 23.90267179893421" stroke-width="0.03" stroke="#000000" fill="none"/>
<path d="M9.867187500000002 23.496722390910254L9.867187500000002 22.684823574862342L10.218750000000002 22.481848870850367L10.1484375 22.44125393004797L10.1484375 22.52244381165276" stroke-width="0.03" stroke="#000000" fill="none"/>
<path d="M10.1484375 22.44125393004797L10.4296875 22.27887416683839L10.5 22.31946910764078L10.570312500000002 22.27887416683839L10.8515625 22.44125393004797L10.8515625 22.52244381165276" stroke-width="0.03" stroke="#000000" fill="none"/>
<path d="M10.8515625 22.44125393004797L10.78125 22.481848870850367L11.1328125 22.684823574862342L11.1328125 23.496722390910254L10.8515625 23.659102154119836L10.5 23.45612745010786L10.1484375 23.659102154119836L9.867187500000002 23.496722390910254" stroke-width="0.03" stroke="#000000" fill="none"/>
<path d="M10.1484375 23.659102154119836L10.1484375 22.847203338071925L9.867187500000002 22.684823574862342" stroke-width="0.03" stroke="#000000" fill="none"/>
<path d="M10.1484375 22.847203338071925L10.5 22.644228634059946L10.8515625 22.847203338071925L10.8515625 23.659102154119836" stroke-width="0.03" stroke="#000000" fill="none"/>
<path d="M10.5 23.45612745010786L10.5 22.644228634059946" stroke-width="0.03" stroke="#000000" fill="none"/>
<path d="M10.8515625 22.847203338071925L11.1328125 22.684823574862342" stroke-width="0.03" stroke="#000000" fill="none"/>
<path d="M11.273437500000002 22.360064048443178L11.273437500000002 22.035304522024013" stroke-width="0.03" stroke="#000000" fill="none"/>
<path d="M11.5546875 22.197684285233596L11.835937500000002 22.035304522024013" stroke-width="0.03" stroke="#000000" fill="none"/>
<path d="M11.5546875 22.197684285233596L11.5546875 21.79173487720964L11.1328125 21.548165232395267" stroke-width="0.03" stroke="#000000" fill="none"/>
<path d="M11.1328125 21.62935511400006L10.9921875 21.71054499560485L10.8515625 21.62935511400006L10.8515625 20.086747363509026L10.9921875 20.005557481904233L11.1328125 20.086747363509026L11.1328125 21.62935511400006" stroke-width="0.03" stroke="#000000" fill="none"/>
<path d="M10.9921875 21.71054499560485L10.9921875 20.16793724511382L11.1328125 20.086747363509026" stroke-width="0.03" stroke="#000000" fill="none"/>
<path d="M10.9921875 20.16793724511382L10.8515625 20.086747363509026" stroke-width="0.03" stroke="#000000" fill="none"/>
<path d="M11.1328125 20.573886653137773L11.5546875 20.330317008323398L11.5546875 18.86889913943716" stroke-width="0.03" stroke="#000000" fill="none"/>
<path d="M11.625000000000002 18.909494080239554L11.625000000000002 18.828304198634765" stroke-width="0.03" stroke="#000000" fill="none"/>
<path d="M11.625000000000002 18.909494080239554L12.187500000000002 19.23425360665872L12.187500000000002 16.55498751370061" stroke-width="0.03" stroke="#000000" fill="none"/>
<path d="M12.3984375 16.433202691293424L12.3984375 19.112468784251533" stroke-width="0.03" stroke="#000000" fill="none"/>
<path d="M12.46875 19.071873843449136L12.46875 18.341164909006018" stroke-width="0.03" stroke="#000000" fill="none"/>
<path d="M12.3984375 18.38175984980841L12.609375 18.259975027401225" stroke-width="0.03" stroke="#000000" fill="none"/>
<path d="M12.9609375 18.625329494622786L13.171875 18.747114317029972L13.453125 18.58473455382039L13.453125 19.31544348826351L13.5234375 19.274848547461115L13.5234375 18.544139613017997" stroke-width="0.03" stroke="#000000" fill="none"/>
<path d="M13.3125 18.747114317029972L12.9609375 18.95008902104195L12.9609375 16.270822928083845L15.28125 14.931189881604789L15.28125 15.337139289628746" stroke-width="0.03" stroke="#000000" fill="none"/>
<path d="M15.28125 15.580708934443118L15.28125 15.824278579257493L19.078125 13.632151775928133L19.078125 11.602404735808353L18.9375 11.521214854203564L15.140625 13.713341657532922L15.140625 14.687620236790417L15.28125 14.768810118395209L15.28125 13.794531539137715L15.140625 13.713341657532922" stroke-width="0.03" stroke="#000000" fill="none"/>
<path d="M15.070312500000002 13.83512647994011L14.859375 13.956911302347297L14.859375 13.55096189432334" stroke-width="0.03" stroke="#000000" fill="none"/>
<path d="M14.859375 13.632151775928133L15.070312500000002 13.510366953520945L15.070312500000002 13.83512647994011" stroke-width="0.03" stroke="#000000" fill="none"/>
<path d="M15.28125 13.794531539137715L19.078125 11.602404735808353" stroke-width="0.03" stroke="#000000" fill="none"/>
<path d="M18.3046875 11.074670505377211L17.6015625 11.480619913401167L17.25 11.277645209389188L17.25 11.358835090993981L17.320312500000004 11.318240150191585" stroke-width="0.03" stroke="#000000" fill="none"/>
<path d="M17.25 11.358835090993981L16.96875 11.196455327784399L16.96875 11.115265446179606L16.8984375 11.074670505377211L16.8984375 10.749910978958045L16.96875 10.709316038155652" stroke-width="0.03" stroke="#000000" fill="none"/>
<path d="M16.96875 10.790505919760442L16.96875 10.384556511736488L17.671875 9.97860710371253L17.953125000000004 10.140986866922113L17.953125000000004 10.54693627494607L18.3046875 10.749910978958045L18.3046875 11.074670505377211" stroke-width="0.03" stroke="#000000" fill="none"/>
<path d="M18.3046875 10.749910978958045L17.6015625 11.155860386982003L17.6015625 11.480619913401167" stroke-width="0.03" stroke="#000000" fill="none"/>
<path d="M17.6015625 11.155860386982003L17.25 10.952885682970024L17.25 10.54693627494607L16.96875 10.384556511736488" stroke-width="0.03" stroke="#000000" fill="none"/>
<path d="M17.25 10.54693627494607L17.953125000000004 10.140986866922113" stroke-width="0.03" stroke="#000000" fill="none"/>
<path d="M17.953125000000004 10.54693627494607L17.25 10.952885682970024" stroke-width="0.03" stroke="#000000" fill="none"/>
<path d="M16.96875 10.790505919760442L16.8984375 10.749910978958045" stroke-width="0.03" stroke="#000000" fill="none"/>
<path d="M16.617187500000004 10.42515145253888L16.3359375 10.587531215748463" stroke-width="0.03" stroke="#000000" fill="none"/>
<path d="M16.3359375 10.262771689329298L15.984375 10.465746393341277L15.984375 10.952885682970024" stroke-width="0.03" stroke="#000000" fill="none"/>
<path d="M16.0546875 10.912290742167627L14.718749999999998 11.683594617413146L14.718749999999998 11.845974380622728L14.859375 11.927164262227517L16.1953125 11.155860386982003L16.1953125 10.99348062377242L16.0546875 10.912290742167627" stroke-width="0.03" stroke="#000000" fill="none"/>
<path d="M16.1953125 10.99348062377242L14.859375 11.764784499017935L14.718749999999998 11.683594617413146" stroke-width="0.03" stroke="#000000" fill="none"/>
<path d="M14.859375 11.764784499017935L14.859375 11.927164262227517" stroke-width="0.03" stroke="#000000" fill="none"/>
<path d="M15.140625 11.44002497259877L14.718749999999998 11.196455327784399L13.453125 11.927164262227517" stroke-width="0.03" stroke="#000000" fill="none"/>
<path d="M13.382812500000002 11.886569321425123L13.453125 11.845974380622728L13.453125 11.196455327784399L11.1328125 12.536088374263452" stroke-width="0.03" stroke="#000000" fill="none"/>
<path d="M10.921875000000002 12.414303551856264L13.242187500000002 11.074670505377211" stroke-width="0.03" stroke="#000000" fill="none"/>
<path d="M13.171875 11.034075564574817L12.539062500000002 11.399430031796376" stroke-width="0.03" stroke="#000000" fill="none"/>
<path d="M12.609375 11.44002497259877L12.3984375 11.318240150191585" stroke-width="0.03" stroke="#000000" fill="none"/>
<path d="M12.2578125 10.99348062377242L12.2578125 10.749910978958045" stroke-width="0.03" stroke="#000000" fill="none"/>
<path d="M12.2578125 10.343961570934091L12.046875 10.222176748526905L12.046875 10.303366630131695" stroke-width="0.03" stroke="#000000" fill="none"/>
<path d="M12.046875 11.115265446179606L10.5 10.222176748526905" stroke-width="0.03" stroke="#000000" fill="none"/>
<path d="M10.5 11.034075564574817L9.65625 11.521214854203564" stroke-width="0.03" stroke="#000000" fill="none"/>
<path d="M9.3046875 11.72418955821554L9.09375 11.845974380622728" stroke-width="0.03" stroke="#000000" fill="none"/>
<path d="M8.8125 12.00835414383231L8.53125 12.170733907041893L9.09375 12.495493433461057L9.09375 12.820252959880222" stroke-width="0.03" stroke="#000000" fill="none"/>
<path d="M9.1640625 12.779658019077825L8.53125 13.145012486299386" stroke-width="0.03" stroke="#000000" fill="none"/>
<path d="M9.09375 12.739063078275429L9.1640625 12.779658019077825" stroke-width="0.03" stroke="#000000" fill="none"/>
<path d="M9.09375 12.576683315065846L9.234375 12.495493433461057L9.65625 12.739063078275429" stroke-width="0.03" stroke="#000000" fill="none"/>
<path d="M9.65625 12.65787319667064L10.1484375 12.37370861105387L10.1484375 12.211328847844287L10.359375 12.0895440254371L8.0390625 10.749910978958045L7.1953125 11.237050268586794L7.1953125 11.399430031796376L3.3984375 9.207303228467016L3.3984375 9.044923465257433L7.1953125 11.237050268586794" stroke-width="0.03" stroke="#000000" fill="none"/>
<path d="M7.1953125 11.399430031796376L8.0390625 10.912290742167627L8.0390625 10.749910978958045" stroke-width="0.03" stroke="#000000" fill="none"/>
<path d="M7.96875 10.952885682970024L10.2890625 12.292518729449078L10.5 12.170733907041893L10.7109375 12.292518729449078L13.031250000000002 10.952885682970024" stroke-width="0.03" stroke="#000000" fill="none"/>
<path d="M12.9609375 10.749910978958045L13.8046875 11.237050268586794L13.8046875 11.399430031796376" stroke-width="0.03" stroke="#000000" fill="none"/>
<path d="M13.6640625 11.399430031796376L13.453125 11.521214854203564L13.8046875 11.72418955821554" stroke-width="0.03" stroke="#000000" fill="none"/>
<path d="M13.734375 11.683594617413146L13.945312500000002 11.561809795005958L13.945312500000002 11.64299967661075" stroke-width="0.03" stroke="#000000" fill="none"/>
<path d="M13.945312500000002 11.561809795005958L13.6640625 11.399430031796376" stroke-width="0.03" stroke="#000000" fill="none"/>
<path d="M13.8046875 11.237050268586794L17.6015625 9.044923465257433" stroke-width="0.03" stroke="#000000" fill="none"/>
<path d="M16.617187500000004 9.775632399700552L16.617187500000004 10.42515145253888" stroke-width="0.03" stroke="#000000" fill="none"/>
<path d="M16.3359375 10.262771689329298L16.3359375 11.480619913401167L15.984375 11.683594617413146L16.3359375 11.886569321425123" stroke-width="0.03" stroke="#000000" fill="none"/>
<path d="M16.546875 11.764784499017935L15.2109375 12.536088374263452L15.2109375 12.698468137473034L15.351562500000002 12.779658019077825L16.6875 12.00835414383231L16.6875 11.845974380622728L16.546875 11.764784499017935" stroke-width="0.03" stroke="#000000" fill="none"/>
<path d="M16.6875 11.845974380622728L15.351562500000002 12.617278255868243L15.2109375 12.536088374263452" stroke-width="0.03" stroke="#000000" fill="none"/>
<path d="M15.351562500000002 12.617278255868243L15.351562500000002 12.779658019077825" stroke-width="0.03" stroke="#000000" fill="none"/>
<path d="M15.773437500000002 12.860847900682616L15.843750000000002 12.820252959880222L15.843750000000002 12.495493433461057" stroke-width="0.03" stroke="#000000" fill="none"/>
<path d="M15.773437500000002 12.536088374263452L15.773437500000002 13.023227663892198L14.5078125 13.753936598335319" stroke-width="0.03" stroke="#000000" fill="none"/>
<path d="M14.5078125 13.83512647994011L14.578125 13.794531539137715L15.140625 14.11929106555688L12.8203125 15.458924112035932" stroke-width="0.03" stroke="#000000" fill="none"/>
<path d="M12.8203125 15.215354467221559L12.46875 15.418329171233536L12.46875 15.174759526419164" stroke-width="0.03" stroke="#000000" fill="none"/>
<path d="M12.75 15.174759526419164L13.171875 14.931189881604789L13.171875 14.768810118395209" stroke-width="0.03" stroke="#000000" fill="none"/>
<path d="M13.242187500000002 14.809405059197603L13.8046875 14.484645532778439L13.8046875 14.809405059197603L14.5078125 14.403455651173648L14.5078125 12.779658019077825L14.296875000000002 12.65787319667064L14.296875000000002 12.414303551856264L12.890625000000002 11.602404735808353L12.187500000000002 12.00835414383231L12.187500000000002 12.333113670251475" stroke-width="0.03" stroke="#000000" fill="none"/>
<path d="M12.46875 12.170733907041893L11.90625 12.495493433461057L11.90625 12.820252959880222" stroke-width="0.03" stroke="#000000" fill="none"/>
<path d="M11.835937500000002 12.779658019077825L11.90625 12.739063078275429" stroke-width="0.03" stroke="#000000" fill="none"/>
<path d="M11.835937500000002 12.779658019077825L12.46875 13.145012486299386" stroke-width="0.03" stroke="#000000" fill="none"/>
<path d="M12.9609375 13.266797308706572L11.625000000000002 14.038101183952087L11.5546875 13.997506243149692" stroke-width="0.03" stroke="#000000" fill="none"/>
<path d="M11.625000000000002 14.038101183952087L11.625000000000002 14.200480947161669" stroke-width="0.03" stroke="#000000" fill="none"/>
<path d="M11.765625 14.281670828766462L13.1015625 13.510366953520945L12.9609375 13.429177071916154" stroke-width="0.03" stroke="#000000" fill="none"/>
<path d="M13.1015625 13.510366953520945L13.1015625 13.9163163615449L12.1171875 14.484645532778439" stroke-width="0.03" stroke="#000000" fill="none"/>
<path d="M12.1171875 14.403455651173648L11.976562500000002 14.484645532778439" stroke-width="0.03" stroke="#000000" fill="none"/>
<path d="M11.5546875 13.753936598335319L10.78125 13.307392249508968" stroke-width="0.03" stroke="#000000" fill="none"/>
<path d="M10.9921875 13.266797308706572L11.203125 13.145012486299386L11.203125 12.982632723089804L10.9921875 12.860847900682616L11.34375 12.65787319667064" stroke-width="0.03" stroke="#000000" fill="none"/>
<path d="M11.34375 12.739063078275429L11.765625 12.495493433461057L11.90625 12.576683315065846" stroke-width="0.03" stroke="#000000" fill="none"/>
<path d="M11.90625 12.495493433461057L13.171875 13.226202367904175L13.734375 12.90144284148501L13.734375 12.982632723089804L13.8046875 13.023227663892198L13.8046875 13.18560742710178L14.5078125 12.779658019077825" stroke-width="0.03" stroke="#000000" fill="none"/>
<path d="M14.367187500000002 12.698468137473034L15.773437500000002 11.886569321425123L15.773437500000002 12.211328847844287" stroke-width="0.03" stroke="#000000" fill="none"/>
<path d="M15.843750000000002 12.170733907041893L15.773437500000002 12.130138966239496" stroke-width="0.03" stroke="#000000" fill="none"/>
<path d="M15.773437500000002 11.967759203029914L15.984375 11.845974380622728L15.843750000000002 11.764784499017935L15.843750000000002 11.602404735808353L15.6328125 11.480619913401167" stroke-width="0.03" stroke="#000000" fill="none"/>
<path d="M15.4921875 11.561809795005958L15.4921875 11.64299967661075" stroke-width="0.03" stroke="#000000" fill="none"/>
<path d="M15.421875 11.602404735808353L15.703125000000002 11.764784499017935L15.703125000000002 11.845974380622728L15.773437500000002 11.886569321425123" stroke-width="0.03" stroke="#000000" fill="none"/>
<path d="M15.703125000000002 11.764784499017935L14.296875000000002 12.576683315065846" stroke-width="0.03" stroke="#000000" fill="none"/>
<path d="M14.296875000000002 12.414303551856264L13.593750000000002 12.820252959880222L13.734375 12.90144284148501" stroke-width="0.03" stroke="#000000" fill="none"/>
<path d="M13.8046875 13.023227663892198L13.242187500000002 13.347987190311363L13.171875 13.307392249508968L13.171875 13.226202367904175" stroke-width="0.03" stroke="#000000" fill="none"/>
<path d="M13.171875 13.307392249508968L15.843750000000002 11.764784499017935" stroke-width="0.03" stroke="#000000" fill="none"/>
<path d="M15.984375 11.683594617413146L15.984375 11.277645209389188" stroke-width="0.03" stroke="#000000" fill="none"/>
<path d="M15.843750000000002 11.602404735808353L15.6328125 11.72418955821554" stroke-width="0.03" stroke="#000000" fill="none"/>
<path d="M15.984375 11.845974380622728L15.984375 12.0895440254371" stroke-width="0.03" stroke="#000000" fill="none"/>
<path d="M16.617187500000004 12.048949084634705L17.0390625 12.292518729449078L17.0390625 12.617278255868243" stroke-width="0.03" stroke="#000000" fill="none"/>
<path d="M17.0390625 12.292518729449078L17.390625 12.0895440254371L16.3359375 11.480619913401167" stroke-width="0.03" stroke="#000000" fill="none"/>
<path d="M17.109375 11.927164262227517L17.390625 11.764784499017935L17.953125000000004 12.0895440254371" stroke-width="0.03" stroke="#000000" fill="none"/>
<path d="M17.390625 12.0895440254371L17.390625 12.414303551856264" stroke-width="0.03" stroke="#000000" fill="none"/>
<path d="M16.125 13.145012486299386L15.773437500000002 12.942037782287407" stroke-width="0.03" stroke="#000000" fill="none"/>
<path d="M15.070312500000002 13.510366953520945L15.000000000000002 13.46977201271855" stroke-width="0.03" stroke="#000000" fill="none"/>
<path d="M15.140625 14.362860710371251L12.8203125 15.702493756850306" stroke-width="0.03" stroke="#000000" fill="none"/>
<path d="M12.8203125 15.783683638455097L12.9609375 15.864873520059888L12.9609375 16.10844316487426L15.28125 14.768810118395209" stroke-width="0.03" stroke="#000000" fill="none"/>
<path d="M15.140625 14.606430355185626L12.8203125 15.946063401664679L12.8203125 16.189633046479052L12.609375 16.311417868886238L12.609375 18.990683961844347" stroke-width="0.03" stroke="#000000" fill="none"/>
<path d="M12.679687500000002 18.95008902104195L11.835937500000002 19.437228310670697L11.835937500000002 23.821481917329418L11.976562500000002 23.90267179893421" stroke-width="0.03" stroke="#000000" fill="none"/>
<path d="M11.835937500000002 22.684823574862342L11.273437500000002 22.360064048443178" stroke-width="0.03" stroke="#000000" fill="none"/>
<path d="M11.5546875 22.197684285233596L10.5 21.588760173197663L9.4453125 22.197684285233596L9.1640625 22.035304522024013" stroke-width="0.03" stroke="#000000" fill="none"/>
<path d="M9.4453125 22.197684285233596L9.4453125 21.79173487720964L9.867187500000002 21.548165232395267" stroke-width="0.03" stroke="#000000" fill="none"/>
<path d="M9.867187500000002 21.62935511400006L9.867187500000002 20.086747363509026L10.0078125 20.005557481904233L10.1484375 20.086747363509026L10.1484375 21.62935511400006L10.0078125 21.71054499560485L9.867187500000002 21.62935511400006" stroke-width="0.03" stroke="#000000" fill="none"/>
<path d="M10.0078125 21.71054499560485L10.0078125 20.16793724511382L9.867187500000002 20.086747363509026" stroke-width="0.03" stroke="#000000" fill="none"/>
<path d="M10.0078125 20.16793724511382L10.1484375 20.086747363509026" stroke-width="0.03" stroke="#000000" fill="none"/>
<path d="M9.867187500000002 20.573886653137773L9.4453125 20.330317008323398L9.4453125 18.86889913943716" stroke-width="0.03" stroke="#000000" fill="none"/>
<path d="M9.375 18.909494080239554L8.8125 19.23425360665872L8.8125 16.55498751370061" stroke-width="0.03" stroke="#000000" fill="none"/>
<path d="M8.6015625 16.433202691293424L8.6015625 19.112468784251533" stroke-width="0.03" stroke="#000000" fill="none"/>
<path d="M8.53125 19.071873843449136L8.53125 18.341164909006018" stroke-width="0.03" stroke="#000000" fill="none"/>
<path d="M8.6015625 18.38175984980841L8.390625 18.259975027401225" stroke-width="0.03" stroke="#000000" fill="none"/>
<path d="M8.8828125 18.544139613017997L8.8828125 17.732240796970082L9.1640625 17.569861033760503" stroke-width="0.03" stroke="#000000" fill="none"/>
<path d="M8.8828125 17.732240796970082L9.1640625 17.894620560179668L9.1640625 17.24510150734134L9.4453125 17.082721744131756" stroke-width="0.03" stroke="#000000" fill="none"/>
<path d="M9.375 17.04212680332936L9.375 17.123316684934153" stroke-width="0.03" stroke="#000000" fill="none"/>
<path d="M9.375 17.04212680332936L10.0078125 17.407481270550917" stroke-width="0.03" stroke="#000000" fill="none"/>
<path d="M10.4296875 17.975810441784457L10.5 17.93521550098206L10.570312500000002 17.975810441784457L11.835937500000002 17.24510150734134" stroke-width="0.03" stroke="#000000" fill="none"/>
<path d="M11.765625 17.204506566538942L11.90625 17.123316684934153L11.90625 16.636177395305403" stroke-width="0.03" stroke="#000000" fill="none"/>
<path d="M11.976562500000002 16.6767723361078L12.46875 16.39260775049103" stroke-width="0.03" stroke="#000000" fill="none"/>
<path d="M12.609375 16.311417868886238L12.46875 16.230227987281445" stroke-width="0.03" stroke="#000000" fill="none"/>
<path d="M12.46875 16.14903810567666L12.609375 16.067848224071867L12.609375 15.905468460862282" stroke-width="0.03" stroke="#000000" fill="none"/>
<path d="M12.679687500000002 15.864873520059888L12.8203125 15.946063401664679" stroke-width="0.03" stroke="#000000" fill="none"/>
<path d="M12.8203125 16.189633046479052L12.609375 16.067848224071867" stroke-width="0.03" stroke="#000000" fill="none"/>
<path d="M12.9609375 16.270822928083845L13.8046875 16.75796221771259L13.8046875 15.783683638455097" stroke-width="0.03" stroke="#000000" fill="none"/>
<path d="M13.8046875 15.377734230431141L13.8046875 15.134164585616768" stroke-width="0.03" stroke="#000000" fill="none"/>
<path d="M13.8046875 14.809405059197603L13.5234375 14.647025295988021" stroke-width="0.03" stroke="#000000" fill="none"/>
<path d="M13.242187500000002 14.809405059197603L13.242187500000002 13.347987190311363" stroke-width="0.03" stroke="#000000" fill="none"/>
<path d="M12.9609375 13.997506243149692L12.9609375 14.728215177592812L13.031250000000002 14.687620236790417" stroke-width="0.03" stroke="#000000" fill="none"/>
<path d="M12.9609375 14.647025295988021L13.242187500000002 14.809405059197603" stroke-width="0.03" stroke="#000000" fill="none"/>
<path d="M13.171875 15.499519052838329L13.171875 15.7430886976527" stroke-width="0.03" stroke="#000000" fill="none"/>
<path d="M12.609375 16.717367276910196L12.3984375 16.83915209931738" stroke-width="0.03" stroke="#000000" fill="none"/>
<path d="M11.625000000000002 17.04212680332936L11.625000000000002 17.123316684934153" stroke-width="0.03" stroke="#000000" fill="none"/>
<path d="M11.835937500000002 17.569861033760503L12.1171875 17.732240796970082L12.1171875 18.544139613017997L10.7109375 19.356038429065904L10.5 19.23425360665872L10.2890625 19.356038429065904L8.8828125 18.544139613017997" stroke-width="0.03" stroke="#000000" fill="none"/>
<path d="M9.09375 19.071873843449136L9.09375 19.31544348826351L9.375 19.477823251473097L9.4453125 19.437228310670697" stroke-width="0.03" stroke="#000000" fill="none"/>
<path d="M9.375 19.477823251473097L9.375 19.23425360665872" stroke-width="0.03" stroke="#000000" fill="none"/>
<path d="M9.4453125 19.274848547461115L9.09375 19.071873843449136" stroke-width="0.03" stroke="#000000" fill="none"/>
<path d="M9.375 18.909494080239554L9.375 18.828304198634765" stroke-width="0.03" stroke="#000000" fill="none"/>
<path d="M9.1640625 19.437228310670697L9.0234375 19.51841819227549" stroke-width="0.03" stroke="#000000" fill="none"/>
<path d="M9.515625 20.370911949125794L9.1640625 20.573886653137773" stroke-width="0.03" stroke="#000000" fill="none"/>
<path d="M9.5859375 20.492696771532984L9.5859375 20.41150688992819" stroke-width="0.03" stroke="#000000" fill="none"/>
<path d="M9.5859375 20.492696771532984L9.867187500000002 20.655076534742566" stroke-width="0.03" stroke="#000000" fill="none"/>
<path d="M10.1484375 20.736266416347355L10.4296875 20.898646179556938L10.5 20.858051238754545L10.570312500000002 20.898646179556938L10.8515625 20.736266416347355" stroke-width="0.03" stroke="#000000" fill="none"/>
<path d="M10.78125 20.776861357149752L10.8515625 20.81745629795215" stroke-width="0.03" stroke="#000000" fill="none"/>
<path d="M10.8515625 20.97983606116173L10.640625 21.101620883568916L10.5 21.020431001964123L10.5 17.93521550098206" stroke-width="0.03" stroke="#000000" fill="none"/>
<path d="M10.4296875 17.975810441784457L10.4296875 18.625329494622786L10.2890625 18.544139613017997L10.2890625 19.356038429065904" stroke-width="0.03" stroke="#000000" fill="none"/>
<path d="M10.4296875 19.274848547461115L10.4296875 20.898646179556938" stroke-width="0.03" stroke="#000000" fill="none"/>
<path d="M10.359375 20.858051238754545L10.359375 21.101620883568916L10.1484375 20.97983606116173" stroke-width="0.03" stroke="#000000" fill="none"/>
<path d="M10.1484375 20.81745629795215L10.218750000000002 20.776861357149752" stroke-width="0.03" stroke="#000000" fill="none"/>
<path d="M10.359375 21.101620883568916L10.5 21.020431001964123" stroke-width="0.03" stroke="#000000" fill="none"/>
<path d="M10.570312500000002 20.898646179556938L10.570312500000002 19.274848547461115" stroke-width="0.03" stroke="#000000" fill="none"/>
<path d="M10.7109375 19.356038429065904L10.7109375 18.544139613017997L10.570312500000002 18.625329494622786L10.5 18.58473455382039L10.4296875 18.625329494622786" stroke-width="0.03" stroke="#000000" fill="none"/>
<path d="M10.570312500000002 18.625329494622786L10.570312500000002 17.975810441784457" stroke-width="0.03" stroke="#000000" fill="none"/>
<path d="M10.4296875 17.975810441784457L9.1640625 17.24510150734134" stroke-width="0.03" stroke="#000000" fill="none"/>
<path d="M9.234375 17.204506566538942L9.09375 17.123316684934153L9.09375 16.636177395305403" stroke-width="0.03" stroke="#000000" fill="none"/>
<path d="M9.0234375 16.6767723361078L8.53125 16.39260775049103" stroke-width="0.03" stroke="#000000" fill="none"/>
<path d="M8.390625 16.311417868886238L8.1796875 16.189633046479052L8.1796875 15.946063401664679L5.859375000000001 14.606430355185626" stroke-width="0.03" stroke="#000000" fill="none"/>
<path d="M5.71875 14.768810118395209L8.0390625 16.10844316487426L8.0390625 15.864873520059888" stroke-width="0.03" stroke="#000000" fill="none"/>
<path d="M8.1796875 16.189633046479052L8.390625 16.067848224071867" stroke-width="0.03" stroke="#000000" fill="none"/>
<path d="M8.0390625 16.270822928083845L7.1953125 16.75796221771259L7.1953125 15.783683638455097" stroke-width="0.03" stroke="#000000" fill="none"/>
<path d="M7.1953125 15.377734230431141L7.1953125 15.134164585616768" stroke-width="0.03" stroke="#000000" fill="none"/>
<path d="M5.7890625 15.783683638455097L5.71875 15.824278579257493" stroke-width="0.03" stroke="#000000" fill="none"/>
<path d="M7.1953125 16.75796221771259L8.0390625 17.24510150734134" stroke-width="0.03" stroke="#000000" fill="none"/>
<path d="M8.390625 17.448076211353314L8.6015625 17.569861033760503" stroke-width="0.03" stroke="#000000" fill="none"/>
<path d="M8.6015625 16.83915209931738L8.390625 16.717367276910196" stroke-width="0.03" stroke="#000000" fill="none"/>
<path d="M7.757812499999999 13.347987190311363L7.828125 13.307392249508968" stroke-width="0.03" stroke="#000000" fill="none"/>
<path d="M7.828125 13.226202367904175L9.09375 12.495493433461057" stroke-width="0.03" stroke="#000000" fill="none"/>
<path d="M8.8125 12.333113670251475L8.8125 12.00835414383231L8.109375 11.602404735808353" stroke-width="0.03" stroke="#000000" fill="none"/>
<path d="M7.546875 11.521214854203564L7.1953125 11.72418955821554" stroke-width="0.03" stroke="#000000" fill="none"/>
<path d="M7.265625000000001 11.683594617413146L7.0546875 11.561809795005958L7.3359375 11.399430031796376L7.546875 11.521214854203564" stroke-width="0.03" stroke="#000000" fill="none"/>
<path d="M7.546875 11.845974380622728L7.6171875 11.886569321425123" stroke-width="0.03" stroke="#000000" fill="none"/>
<path d="M7.0546875 11.64299967661075L7.0546875 11.561809795005958" stroke-width="0.03" stroke="#000000" fill="none"/>
<path d="M6.210937500000001 11.237050268586794L6.210937500000001 10.831100860562838" stroke-width="0.03" stroke="#000000" fill="none"/>
<path d="M6.0703125 11.237050268586794L5.7890625 11.399430031796376" stroke-width="0.03" stroke="#000000" fill="none"/>
<path d="M6.0703125 11.237050268586794L6.140625 11.277645209389188" stroke-width="0.03" stroke="#000000" fill="none"/>
<path d="M5.015625 11.277645209389188L5.015625 11.683594617413146L4.6640625 11.480619913401167" stroke-width="0.03" stroke="#000000" fill="none"/>
<path d="M5.015625 11.845974380622728L5.015625 12.0895440254371" stroke-width="0.03" stroke="#000000" fill="none"/>
<path d="M4.382812499999999 12.048949084634705L3.9609375 12.292518729449078L3.9609375 12.617278255868243" stroke-width="0.03" stroke="#000000" fill="none"/>
<path d="M3.9609375 12.292518729449078L3.609375 12.0895440254371L3.609375 12.414303551856264" stroke-width="0.03" stroke="#000000" fill="none"/>
<path d="M3.8906249999999996 11.927164262227517L3.609375 11.764784499017935" stroke-width="0.03" stroke="#000000" fill="none"/>
<path d="M4.1015625 10.749910978958045L4.03125 10.709316038155652" stroke-width="0.03" stroke="#000000" fill="none"/>
<path d="M4.03125 10.384556511736488L3.7499999999999996 10.54693627494607" stroke-width="0.03" stroke="#000000" fill="none"/>
<path d="M4.382812499999999 10.42515145253888L4.382812499999999 9.775632399700552" stroke-width="0.03" stroke="#000000" fill="none"/>
<path d="M4.382812499999999 10.42515145253888L4.6640625 10.587531215748463" stroke-width="0.03" stroke="#000000" fill="none"/>
<path d="M5.015625 10.465746393341277L5.296875 10.303366630131695" stroke-width="0.03" stroke="#000000" fill="none"/>
<path d="M3.046875 10.140986866922113L3.046875 10.54693627494607" stroke-width="0.03" stroke="#000000" fill="none"/>
<path d="M4.875 13.145012486299386L5.2265625 12.942037782287407" stroke-width="0.03" stroke="#000000" fill="none"/>
<path d="M2.90625 16.230227987281445L2.624999999999999 16.067848224071867" stroke-width="0.03" stroke="#000000" fill="none"/>
<path d="M9.7265625 12.211328847844287L9.9375 12.0895440254371" stroke-width="0.03" stroke="#000000" fill="none"/>
<path d="M10.1484375 12.37370861105387L10.5 12.576683315065846L10.8515625 12.37370861105387" stroke-width="0.03" stroke="#000000" fill="none"/>
<path d="M10.7109375 12.292518729449078L10.7109375 12.45489849265866" stroke-width="0.03" stroke="#000000" fill="none"/>
<path d="M10.640625 12.495493433461057L10.5 12.414303551856264L10.5 12.170733907041893" stroke-width="0.03" stroke="#000000" fill="none"/>
<path d="M10.5 12.00835414383231L10.5 11.034075564574817L11.34375 11.521214854203564" stroke-width="0.03" stroke="#000000" fill="none"/>
<path d="M11.6953125 11.72418955821554L11.90625 11.845974380622728" stroke-width="0.03" stroke="#000000" fill="none"/>
<path d="M12.187500000000002 12.00835414383231L12.46875 12.170733907041893" stroke-width="0.03" stroke="#000000" fill="none"/>
<path d="M11.273437500000002 12.211328847844287L11.0625 12.0895440254371" stroke-width="0.03" stroke="#000000" fill="none"/>
<path d="M10.5 12.414303551856264L10.359375 12.495493433461057" stroke-width="0.03" stroke="#000000" fill="none"/>
<path d="M10.2890625 12.45489849265866L10.2890625 12.292518729449078" stroke-width="0.03" stroke="#000000" fill="none"/>
<path d="M14.7890625 11.237050268586794L14.7890625 10.831100860562838" stroke-width="0.03" stroke="#000000" fill="none"/>
<path d="M14.9296875 11.237050268586794L14.859375 11.277645209389188" stroke-width="0.03" stroke="#000000" fill="none"/>
<path d="M14.9296875 11.237050268586794L15.2109375 11.399430031796376" stroke-width="0.03" stroke="#000000" fill="none"/>
<path d="M15.703125000000002 10.303366630131695L15.984375 10.465746393341277" stroke-width="0.03" stroke="#000000" fill="none"/>
<path d="M16.0546875 10.100391926119716L16.3359375 10.262771689329298" stroke-width="0.03" stroke="#000000" fill="none"/>
<path d="M15.140625 14.444050591976044L14.5078125 14.809405059197603" stroke-width="0.03" stroke="#000000" fill="none"/>
<path d="M14.5078125 14.728215177592812L14.5078125 14.971784822407185" stroke-width="0.03" stroke="#000000" fill="none"/>
<path d="M15.2109375 15.783683638455097L15.28125 15.824278579257493" stroke-width="0.03" stroke="#000000" fill="none"/>
<path d="M16.617187500000004 15.864873520059888L16.617187500000004 17.407481270550917" stroke-width="0.03" stroke="#000000" fill="none"/>
<path d="M16.1953125 17.732240796970082L16.1953125 18.13819020499404" stroke-width="0.03" stroke="#000000" fill="none"/>
<path d="M18.1640625 19.274848547461115L18.4453125 19.112468784251533L18.4453125 16.433202691293424L17.320312500000004 15.783683638455097" stroke-width="0.03" stroke="#000000" fill="none"/>
<path d="M18.1640625 19.274848547461115L18.1640625 19.59960807388028L15.843750000000002 20.939241120359334" stroke-width="0.03" stroke="#000000" fill="none"/>
<path d="M15.4921875 21.06102594276652L13.734375 22.07589946282641" stroke-width="0.03" stroke="#000000" fill="none"/>
<path d="M13.734375 21.913519699616828L14.15625 21.669950054802452L14.15625 20.69567147554496" stroke-width="0.03" stroke="#000000" fill="none"/>
<path d="M14.437500000000002 19.640203014682676L13.875 19.31544348826351" stroke-width="0.03" stroke="#000000" fill="none"/>
<path d="M13.453125 19.31544348826351L13.3125 19.23425360665872L13.3125 18.747114317029972L13.242187500000002 18.706519376227575" stroke-width="0.03" stroke="#000000" fill="none"/>
<path d="M13.171875 18.747114317029972L13.171875 18.422354790610807" stroke-width="0.03" stroke="#000000" fill="none"/>
<path d="M13.1015625 18.706519376227575L12.9609375 18.78770925783237" stroke-width="0.03" stroke="#000000" fill="none"/>
<path d="M12.8203125 19.03127890264674L12.679687500000002 18.95008902104195" stroke-width="0.03" stroke="#000000" fill="none"/>
<path d="M11.90625 19.071873843449136L11.5546875 19.274848547461115" stroke-width="0.03" stroke="#000000" fill="none"/>
<path d="M11.625000000000002 19.23425360665872L11.625000000000002 19.477823251473097L11.90625 19.31544348826351L11.90625 19.071873843449136" stroke-width="0.03" stroke="#000000" fill="none"/>
<path d="M11.835937500000002 19.437228310670697L11.976562500000002 19.51841819227549" stroke-width="0.03" stroke="#000000" fill="none"/>
<path d="M11.625000000000002 19.477823251473097L11.5546875 19.437228310670697" stroke-width="0.03" stroke="#000000" fill="none"/>
<path d="M11.484375000000002 20.370911949125794L11.835937500000002 20.573886653137773" stroke-width="0.03" stroke="#000000" fill="none"/>
<path d="M11.4140625 20.492696771532984L11.1328125 20.655076534742566" stroke-width="0.03" stroke="#000000" fill="none"/>
<path d="M11.4140625 20.492696771532984L11.4140625 20.41150688992819" stroke-width="0.03" stroke="#000000" fill="none"/>
<path d="M10.640625 20.858051238754545L10.640625 21.101620883568916" stroke-width="0.03" stroke="#000000" fill="none"/>
<path d="M10.5 21.18281076517371L10.1484375 21.385785469185684" stroke-width="0.03" stroke="#000000" fill="none"/>
<path d="M10.5 21.18281076517371L10.5 21.588760173197663" stroke-width="0.03" stroke="#000000" fill="none"/>
<path d="M10.5 21.18281076517371L10.8515625 21.385785469185684" stroke-width="0.03" stroke="#000000" fill="none"/>
<path d="M11.5546875 21.79173487720964L11.835937500000002 21.62935511400006" stroke-width="0.03" stroke="#000000" fill="none"/>
<path d="M9.7265625 22.035304522024013L9.7265625 22.360064048443178L9.1640625 22.684823574862342" stroke-width="0.03" stroke="#000000" fill="none"/>
<path d="M9.4453125 21.79173487720964L9.1640625 21.62935511400006" stroke-width="0.03" stroke="#000000" fill="none"/>
<path d="M15.4921875 21.06102594276652L15.4921875 20.736266416347355" stroke-width="0.03" stroke="#000000" fill="none"/>
<path d="M7.264131938244363 2.2599663291074443L1.5 2.2599663291074443" stroke-width="0.03" stroke="#000000" fill="none"/>
<path d="M2.0824957911384305 2.015598694615191L2.0824957911384305 1.7268634256306838" stroke-width="0.03" stroke="#000000" fill="none"/>
<path d="M2.061871843353823 1.5824957911384305L2.0824957911384305 1.6031197389230383L2.1031197389230383 1.5824957911384305L2.0824957911384305 1.5618718433538228L2.061871843353823 1.5824957911384305" stroke-width="0.03" stroke="#000000" fill="none"/>
<path d="M2.226863425630684 1.953726851261368L2.2474873734152916 1.9949747468305832L2.3093592167691144 2.015598694615191L2.3712310601229376 2.015598694615191L2.4331029034767604 1.9949747468305832L2.4537268512613677 1.953726851261368L2.4537268512613677 1.9331029034767604L2.4331029034767604 1.891855007907545L2.391855007907545 1.8712310601229374L2.2887352689845066 1.8506071123383299L2.2474873734152916 1.8299831645537221L2.226863425630684 1.7887352689845069L2.2474873734152916 1.7474873734152916L2.3093592167691144 1.7268634256306838L2.3712310601229376 1.7268634256306838L2.4331029034767604 1.7474873734152916L2.4537268512613677 1.7887352689845069" stroke-width="0.03" stroke="#000000" fill="none"/>
<path d="M2.680590276892052 1.7268634256306838L2.6393423813228365 1.7474873734152916L2.5980944857536215 1.7887352689845069L2.5774705379690137 1.8506071123383299L2.5774705379690137 1.891855007907545L2.5980944857536215 1.953726851261368L2.6393423813228365 1.9949747468305832L2.680590276892052 2.015598694615191L2.7424621202458748 2.015598694615191L2.78371001581509 1.9949747468305832L2.8249579113843053 1.953726851261368L2.845581859168913 1.891855007907545L2.845581859168913 1.8506071123383299L2.8249579113843053 1.7887352689845069L2.78371001581509 1.7474873734152916L2.7424621202458748 1.7268634256306838L2.680590276892052 1.7268634256306838" stroke-width="0.03" stroke="#000000" fill="none"/>
<path d="M2.907453702522736 2.056846590184406L3.237436867076458 2.056846590184406" stroke-width="0.03" stroke="#000000" fill="none"/>
<path d="M3.2993087104302807 1.953726851261368L3.3199326582148885 1.9949747468305832L3.3818045015687113 2.015598694615191L3.443676344922534 2.015598694615191L3.5055481882763573 1.9949747468305832L3.526172136060965 1.953726851261368L3.526172136060965 1.9331029034767604L3.5055481882763573 1.891855007907545L3.464300292707142 1.8712310601229374L3.361180553784104 1.8506071123383299L3.3199326582148885 1.8299831645537221L3.2993087104302807 1.7887352689845069L3.3199326582148885 1.7474873734152916L3.3818045015687113 1.7268634256306838L3.443676344922534 1.7268634256306838L3.5055481882763573 1.7474873734152916L3.526172136060965 1.7887352689845069" stroke-width="0.03" stroke="#000000" fill="none"/>
<path d="M3.6705397705532183 1.8093592167691144L3.732411613907041 1.7474873734152916L3.773659509476256 1.7268634256306838L3.8355313528300794 1.7268634256306838L3.8767792483992944 1.7474873734152916L3.897403196183902 1.8093592167691144L3.897403196183902 2.015598694615191" stroke-width="0.03" stroke="#000000" fill="none"/>
<path d="M3.6705397705532183 2.015598694615191L3.6705397705532183 1.7268634256306838" stroke-width="0.03" stroke="#000000" fill="none"/>
<path d="M4.144890569599194 1.7268634256306838L4.103642674029978 1.7474873734152916L4.062394778460764 1.7887352689845069L4.041770830676155 1.8506071123383299L4.041770830676155 1.891855007907545L4.062394778460764 1.953726851261368L4.103642674029978 1.9949747468305832L4.144890569599194 2.015598694615191L4.206762412953017 2.015598694615191L4.2480103085222325 1.9949747468305832L4.289258204091447 1.953726851261368L4.309882151876055 1.891855007907545L4.309882151876055 1.8506071123383299L4.289258204091447 1.7887352689845069L4.2480103085222325 1.7474873734152916L4.206762412953017 1.7268634256306838L4.144890569599194 1.7268634256306838" stroke-width="0.03" stroke="#000000" fill="none"/>
<path d="M4.4336258385837 1.7268634256306838L4.516121629722131 2.015598694615191L4.5986174208605615 1.7268634256306838L4.681113211998992 2.015598694615191L4.7636090031374225 1.7268634256306838" stroke-width="0.03" stroke="#000000" fill="none"/>
<path d="M4.866728742060461 1.7268634256306838L5.011096376552715 1.7268634256306838" stroke-width="0.03" stroke="#000000" fill="none"/>
<path d="M5.031720324337321 1.5824957911384305L4.990472428768107 1.5824957911384305L4.949224533198891 1.6031197389230383L4.928600585414284 1.664991582276861L4.928600585414284 2.015598694615191" stroke-width="0.03" stroke="#000000" fill="none"/>
<path d="M5.155464011044968 2.015598694615191L5.155464011044968 1.5824957911384305" stroke-width="0.03" stroke="#000000" fill="none"/>
<path d="M5.547319018952512 1.7268634256306838L5.547319018952512 2.015598694615191" stroke-width="0.03" stroke="#000000" fill="none"/>
<path d="M5.547319018952512 1.953726851261368L5.506071123383298 1.9949747468305832L5.464823227814082 2.015598694615191L5.402951384460259 2.015598694615191L5.3617034888910435 1.9949747468305832L5.320455593321829 1.953726851261368L5.299831645537221 1.891855007907545L5.299831645537221 1.8506071123383299L5.320455593321829 1.7887352689845069L5.3617034888910435 1.7474873734152916L5.402951384460259 1.7268634256306838L5.464823227814082 1.7268634256306838L5.506071123383298 1.7474873734152916L5.547319018952512 1.7887352689845069" stroke-width="0.03" stroke="#000000" fill="none"/>
<path d="M5.712310601229374 1.9331029034767604L5.91855007907545 1.7268634256306838" stroke-width="0.03" stroke="#000000" fill="none"/>
<path d="M5.794806392367804 1.8506071123383299L5.939174026860058 2.015598694615191" stroke-width="0.03" stroke="#000000" fill="none"/>
<path d="M6.042293765783096 1.8506071123383299L6.2897811391983875 1.8506071123383299L6.2897811391983875 1.8093592167691144L6.26915719141378 1.7681113211998993L6.248533243629172 1.7474873734152916L6.207285348059957 1.7268634256306838L6.145413504706134 1.7268634256306838L6.104165609136919 1.7474873734152916L6.062917713567703 1.7887352689845069L6.042293765783096 1.8506071123383299L6.042293765783096 1.891855007907545L6.062917713567703 1.953726851261368L6.104165609136919 1.9949747468305832L6.145413504706134 2.015598694615191L6.207285348059957 2.015598694615191L6.248533243629172 1.9949747468305832L6.2897811391983875 1.953726851261368" stroke-width="0.03" stroke="#000000" fill="none"/>
<path d="M6.578516408182894 2.015598694615191L6.578516408182894 1.5824957911384305L6.516644564829072 1.6443676344922533L6.475396669259856 1.664991582276861" stroke-width="0.03" stroke="#000000" fill="none"/>
<path d="M5.712310601229374 1.5824957911384305L5.712310601229374 2.015598694615191" stroke-width="0.03" stroke="#000000" fill="none"/>
<path d="M4.5237675411919405 2.7746830355252596L4.511021240478851 2.7491904340990785L4.485528639052669 2.7236978326728973L4.460036037626487 2.7109515319598065L4.409050834774126 2.7109515319598065L4.383558233347944 2.7236978326728973L4.358065631921763 2.7491904340990785L4.345319331208673 2.7746830355252596L4.332573030495582 2.8129219376645316L4.332573030495582 2.8766534412299847L4.345319331208673 2.9148923433692566L4.358065631921763 2.9403849447954378L4.383558233347944 2.965877546221619L4.409050834774126 2.9786238469347097L4.460036037626487 2.9786238469347097L4.485528639052669 2.965877546221619L4.511021240478851 2.9403849447954378L4.5237675411919405 2.9148923433692566" stroke-width="0.03" stroke="#000000" fill="none"/>
<path d="M4.192363722651585 2.8384145390907127L4.230602624790857 2.825668238377622L4.243348925503947 2.8129219376645316L4.256095226217038 2.7874293362383504L4.256095226217038 2.761936734812169L4.243348925503947 2.736444133385988L4.230602624790857 2.7236978326728973L4.192363722651585 2.7109515319598065L4.07764701623377 2.7109515319598065L4.07764701623377 2.9786238469347097L4.192363722651585 2.9786238469347097L4.230602624790857 2.965877546221619L4.243348925503947 2.953131245508528L4.256095226217038 2.927638644082347L4.256095226217038 2.889399741943075L4.243348925503947 2.8639071405168943L4.230602624790857 2.8511608398038035L4.192363722651585 2.8384145390907127L4.07764701623377 2.8384145390907127" stroke-width="0.03" stroke="#000000" fill="none"/>
<path d="M3.8099747012588665 2.7109515319598065L3.8099747012588665 2.9786238469347097L3.899198806250501 2.9786238469347097L3.9374377083897727 2.965877546221619L3.9629303098159543 2.9403849447954378L3.9756766105290446 2.9148923433692566L3.9884229112421354 2.8766534412299847L3.9884229112421354 2.8129219376645316L3.9756766105290446 2.7746830355252596L3.9629303098159543 2.7491904340990785L3.9374377083897727 2.7236978326728973L3.899198806250501 2.7109515319598065L3.8099747012588665 2.7109515319598065" stroke-width="0.03" stroke="#000000" fill="none"/>
<path d="M3.7207505962672327 2.7109515319598065L3.5932875891363265 2.9786238469347097" stroke-width="0.03" stroke="#000000" fill="none"/>
<path d="M3.4530782812923295 2.7491904340990785L3.440331980579239 2.7236978326728973L3.402093078439967 2.7109515319598065L3.376600477013786 2.7109515319598065L3.338361574874514 2.7236978326728973L3.312868973448333 2.761936734812169L3.3001226727352426 2.825668238377622L3.3001226727352426 2.889399741943075L3.312868973448333 2.9403849447954378L3.338361574874514 2.965877546221619L3.376600477013786 2.9786238469347097L3.3893467777268764 2.9786238469347097L3.4275856798661484 2.965877546221619L3.4530782812923295 2.9403849447954378L3.4658245820054203 2.902146042656166L3.4658245820054203 2.889399741943075L3.4530782812923295 2.8511608398038035L3.4275856798661484 2.825668238377622L3.3893467777268764 2.8129219376645316L3.376600477013786 2.8129219376645316L3.338361574874514 2.825668238377622L3.312868973448333 2.8511608398038035L3.3001226727352426 2.889399741943075" stroke-width="0.03" stroke="#000000" fill="none"/>
<path d="M3.210898567743608 2.9786238469347097L3.0324503577603394 2.9786238469347097L3.1599133648912456 2.8511608398038035L3.185405966317427 2.8129219376645316L3.198152267030517 2.7874293362383504L3.198152267030517 2.761936734812169L3.185405966317427 2.736444133385988L3.1726596656043364 2.7236978326728973L3.147167064178155 2.7109515319598065L3.0961818613257925 2.7109515319598065L3.0706892598996114 2.7236978326728973L3.057942959186521 2.736444133385988L3.0451966584734302 2.761936734812169L3.0451966584734302 2.7746830355252596" stroke-width="0.03" stroke="#000000" fill="none"/>
<path d="M2.892241049916343 2.8384145390907127L2.930479952055615 2.825668238377622L2.943226252768705 2.8129219376645316L2.955972553481796 2.7874293362383504L2.955972553481796 2.761936734812169L2.943226252768705 2.736444133385988L2.930479952055615 2.7236978326728973L2.892241049916343 2.7109515319598065L2.777524343498527 2.7109515319598065L2.777524343498527 2.9786238469347097L2.892241049916343 2.9786238469347097L2.930479952055615 2.965877546221619L2.943226252768705 2.953131245508528L2.955972553481796 2.927638644082347L2.955972553481796 2.889399741943075L2.943226252768705 2.8639071405168943L2.930479952055615 2.8511608398038035L2.892241049916343 2.8384145390907127L2.777524343498527 2.8384145390907127" stroke-width="0.03" stroke="#000000" fill="none"/>
<path d="M2.5735835320890774 2.7109515319598065L2.5353446299498055 2.7236978326728973L2.522598329236715 2.7491904340990785L2.522598329236715 2.7746830355252596L2.5353446299498055 2.8001756369514412L2.560837231375987 2.8129219376645316L2.6118224342283494 2.825668238377622L2.6500613363676213 2.8384145390907127L2.6755539377938025 2.8639071405168943L2.6883002385068933 2.889399741943075L2.6883002385068933 2.927638644082347L2.6755539377938025 2.953131245508528L2.6628076370807117 2.965877546221619L2.62456873494144 2.9786238469347097L2.5735835320890774 2.9786238469347097L2.5353446299498055 2.965877546221619L2.522598329236715 2.953131245508528L2.5098520285236243 2.927638644082347L2.5098520285236243 2.889399741943075L2.522598329236715 2.8639071405168943L2.5480909306628963 2.8384145390907127L2.586329832802168 2.825668238377622L2.6373150356545305 2.8129219376645316L2.6628076370807117 2.8001756369514412L2.6755539377938025 2.7746830355252596L2.6755539377938025 2.7491904340990785L2.6628076370807117 2.7236978326728973L2.62456873494144 2.7109515319598065L2.5735835320890774 2.7109515319598065" stroke-width="0.03" stroke="#000000" fill="none"/>
<path d="M2.433374224245081 2.8001756369514412L2.293164916401084 2.9786238469347097" stroke-width="0.03" stroke="#000000" fill="none"/>
<path d="M2.433374224245081 2.9786238469347097L2.293164916401084 2.8001756369514412" stroke-width="0.03" stroke="#000000" fill="none"/>
<path d="M2.1147167064178154 2.7109515319598065L2.076477804278544 2.7236978326728973L2.0509852028523623 2.761936734812169L2.038238902139272 2.825668238377622L2.038238902139272 2.8639071405168943L2.0509852028523623 2.927638644082347L2.076477804278544 2.965877546221619L2.1147167064178154 2.9786238469347097L2.140209307843997 2.9786238469347097L2.1784482099832685 2.965877546221619L2.2039408114094496 2.927638644082347L2.2166871121225404 2.8639071405168943L2.2166871121225404 2.825668238377622L2.2039408114094496 2.761936734812169L2.1784482099832685 2.7236978326728973L2.140209307843997 2.7109515319598065L2.1147167064178154 2.7109515319598065" stroke-width="0.03" stroke="#000000" fill="none"/>
<path d="M3.542302386283964 2.7109515319598065L3.7207505962672327 2.7109515319598065" stroke-width="0.03" stroke="#000000" fill="none"/>
</svg>
