<?xml version="1.0" standalone="no"?>
<svg width="21cm" height="29.7cm" version="1.1" xmlns="http://www.w3.org/2000/svg" viewBox="0.0 0.0 21.000001 29.700001">
<path d="M10.1484375 5.2289990298322495L10.359375 5.107214207425063L10.5 5.188404089029854L10.640625 5.107214207425063L10.8515625 5.2289990298322495L10.8515625 5.391378793041832" stroke-width="0.03" stroke="#000000" fill="none"/>
<path d="M10.7109375 5.310188911437041L10.8515625 5.2289990298322495" stroke-width="0.03" stroke="#000000" fill="none"/>
<path d="M10.7109375 5.310188911437041L12.9609375 6.609227017113699L12.9609375 6.771606780323281" stroke-width="0.03" stroke="#000000" fill="none"/>
<path d="M12.8203125 6.69041689871849L12.9609375 6.609227017113699" stroke-width="0.03" stroke="#000000" fill="none"/>
<path d="M12.609375 6.568632076311303L12.609375 6.406252313101721L12.3984375 6.5280371355089075L12.3984375 6.609227017113699L12.539062500000002 6.5280371355089075L14.15625 7.4617207739640055L14.15625 7.705290418778379L14.0859375 7.745885359580775" stroke-width="0.03" stroke="#000000" fill="none"/>
<path d="M14.15625 7.542910655568797L14.5078125 7.745885359580775L14.578125 7.705290418778379L17.6015625 9.450872873281389L17.6015625 9.53206275488618L17.1796875 9.775632399700552L17.1796875 9.694442518095762L15.703125000000002 8.841948761245455" stroke-width="0.03" stroke="#000000" fill="none"/>
<path d="M15.4921875 8.963733583652642L16.617187500000004 9.613252636490971L16.617187500000004 10.100391926119716" stroke-width="0.03" stroke="#000000" fill="none"/>
<path d="M16.617187500000004 9.613252636490971L16.1953125 9.856822281305345" stroke-width="0.03" stroke="#000000" fill="none"/>
<path d="M17.1796875 9.775632399700552L18.1640625 10.343961570934091L18.1640625 10.42515145253888L18.234375 10.465746393341277L18.234375 11.602404735808353L18.3046875 11.64299967661075L18.3046875 13.347987190311363" stroke-width="0.03" stroke="#000000" fill="none"/>
<path d="M18.09375 13.46977201271855L18.09375 12.170733907041893L17.671875 11.927164262227517" stroke-width="0.03" stroke="#000000" fill="none"/>
<path d="M17.671875 12.414303551856264L18.09375 12.170733907041893" stroke-width="0.03" stroke="#000000" fill="none"/>
<path d="M18.3046875 11.64299967661075L18.8671875 11.318240150191585L18.8671875 10.100391926119716L18.796875 10.059796985317323L18.1640625 10.42515145253888" stroke-width="0.03" stroke="#000000" fill="none"/>
<path d="M18.1640625 10.343961570934091L18.796875 9.97860710371253L17.7421875 9.369682991676598L17.1796875 9.694442518095762" stroke-width="0.03" stroke="#000000" fill="none"/>
<path d="M17.671875 9.410277932478992L14.5078125 7.583505596371193L14.367187500000002 7.664695477975984" stroke-width="0.03" stroke="#000000" fill="none"/>
<path d="M14.367187500000002 7.9082651227903575L11.625000000000002 9.491467814083784L11.835937500000002 9.613252636490971L11.835937500000002 10.181581807724509" stroke-width="0.03" stroke="#000000" fill="none"/>
<path d="M11.835937500000002 10.100391926119716L12.609375 10.54693627494607L12.609375 10.62812615655086L16.0546875 8.638974057233478L16.0546875 8.557784175628687L12.609375 10.54693627494607" stroke-width="0.03" stroke="#000000" fill="none"/>
<path d="M12.75 10.709316038155652L11.5546875 10.019202044514927L10.9921875 10.343961570934091L10.9921875 10.587531215748463L10.8515625 10.668721097353256L10.8515625 10.831100860562838L10.78125 10.871695801365235L10.78125 11.034075564574817" stroke-width="0.03" stroke="#000000" fill="none"/>
<path d="M10.7109375 11.074670505377211L10.7109375 10.262771689329298L11.835937500000002 9.613252636490971" stroke-width="0.03" stroke="#000000" fill="none"/>
<path d="M11.835937500000002 9.938012162910134L12.609375 9.491467814083784L13.1015625 9.775632399700552" stroke-width="0.03" stroke="#000000" fill="none"/>
<path d="M12.679687500000002 9.53206275488618L13.453125 9.085518406059828" stroke-width="0.03" stroke="#000000" fill="none"/>
<path d="M13.593750000000002 9.085518406059828L13.945312500000002 8.882543702047851L13.945312500000002 8.963733583652642L13.593750000000002 9.166708287664619L13.242187500000002 8.963733583652642L13.242187500000002 8.882543702047851L13.593750000000002 8.679568998035872L14.296875000000002 9.085518406059828" stroke-width="0.03" stroke="#000000" fill="none"/>
<path d="M14.5078125 8.963733583652642L13.875 8.598379116431081L13.875 8.841948761245455" stroke-width="0.03" stroke="#000000" fill="none"/>
<path d="M13.875 8.598379116431081L14.367187500000002 8.314214530814313L14.367187500000002 7.9082651227903575L13.242187500000002 7.2587460699520285L11.976562500000002 7.989455004395149L10.7109375 7.2587460699520285L10.5 7.380530892359214L10.2890625 7.2587460699520285L9.0234375 7.989455004395149L7.757812499999999 7.2587460699520285L6.6328125 7.9082651227903575L6.6328125 8.314214530814313L7.125 8.598379116431081L7.125 8.841948761245455" stroke-width="0.03" stroke="#000000" fill="none"/>
<path d="M7.0546875 8.882543702047851L7.0546875 8.963733583652642L7.40625 9.166708287664619L7.757812499999999 8.963733583652642L7.757812499999999 8.882543702047851L7.40625 8.679568998035872L6.703125 9.085518406059828" stroke-width="0.03" stroke="#000000" fill="none"/>
<path d="M6.492187500000001 8.963733583652642L7.125 8.598379116431081" stroke-width="0.03" stroke="#000000" fill="none"/>
<path d="M7.0546875 8.882543702047851L7.40625 9.085518406059828L7.757812499999999 8.882543702047851" stroke-width="0.03" stroke="#000000" fill="none"/>
<path d="M7.546875 9.085518406059828L8.3203125 9.53206275488618" stroke-width="0.03" stroke="#000000" fill="none"/>
<path d="M8.390625 9.491467814083784L7.898437500000001 9.775632399700552" stroke-width="0.03" stroke="#000000" fill="none"/>
<path d="M8.390625 9.491467814083784L9.1640625 9.938012162910134" stroke-width="0.03" stroke="#000000" fill="none"/>
<path d="M9.1640625 10.100391926119716L8.390625 10.54693627494607L8.390625 10.62812615655086L4.9453125 8.638974057233478L4.9453125 8.557784175628687L8.390625 10.54693627494607" stroke-width="0.03" stroke="#000000" fill="none"/>
<path d="M8.25 10.709316038155652L9.4453125 10.019202044514927L10.0078125 10.343961570934091L10.0078125 10.587531215748463L10.1484375 10.668721097353256L10.1484375 10.831100860562838L10.218750000000002 10.871695801365235L10.218750000000002 11.034075564574817" stroke-width="0.03" stroke="#000000" fill="none"/>
<path d="M10.2890625 11.074670505377211L10.2890625 10.262771689329298L9.1640625 9.613252636490971L9.375 9.491467814083784L6.6328125 7.9082651227903575" stroke-width="0.03" stroke="#000000" fill="none"/>
<path d="M6.492187500000001 7.745885359580775L6.84375 7.542910655568797" stroke-width="0.03" stroke="#000000" fill="none"/>
<path d="M6.84375 7.4617207739640055L8.4609375 6.5280371355089075L8.6015625 6.609227017113699L9.234375 6.243872549892139L9.796875 6.568632076311303" stroke-width="0.03" stroke="#000000" fill="none"/>
<path d="M9.515625 6.406252313101721L10.359375 5.919113023472974L10.5 6.000302905077765L10.640625 5.919113023472974L11.484375000000002 6.406252313101721" stroke-width="0.03" stroke="#000000" fill="none"/>
<path d="M11.765625 6.243872549892139L11.203125 6.568632076311303" stroke-width="0.03" stroke="#000000" fill="none"/>
<path d="M11.765625 6.243872549892139L12.3984375 6.609227017113699" stroke-width="0.03" stroke="#000000" fill="none"/>
<path d="M12.3984375 6.5280371355089075L10.5 5.431973733844227L8.6015625 6.5280371355089075L8.6015625 6.609227017113699" stroke-width="0.03" stroke="#000000" fill="none"/>
<path d="M8.6015625 6.5280371355089075L8.390625 6.406252313101721L8.390625 6.568632076311303" stroke-width="0.03" stroke="#000000" fill="none"/>
<path d="M8.1796875 6.69041689871849L8.0390625 6.609227017113699L10.2890625 5.310188911437041L10.1484375 5.2289990298322495L10.1484375 5.391378793041832" stroke-width="0.03" stroke="#000000" fill="none"/>
<path d="M10.5 5.431973733844227L10.5 6.000302905077765" stroke-width="0.03" stroke="#000000" fill="none"/>
<path d="M10.5 6.1626826682873475L8.25 7.4617207739640055L8.25 7.542910655568797" stroke-width="0.03" stroke="#000000" fill="none"/>
<path d="M8.25 7.4617207739640055L9.09375 7.948860063592752" stroke-width="0.03" stroke="#000000" fill="none"/>
<path d="M9.867187500000002 8.476594294023895L10.4296875 8.151834767604731L10.5 8.192429708407126L10.570312500000002 8.151834767604731L11.1328125 8.476594294023895L11.1328125 8.557784175628687L10.921875000000002 8.679568998035872L10.5 8.435999353221499L10.078125 8.679568998035872L9.867187500000002 8.557784175628687L9.867187500000002 8.476594294023895L10.078125 8.598379116431081L10.078125 8.679568998035872" stroke-width="0.03" stroke="#000000" fill="none"/>
<path d="M10.078125 8.598379116431081L10.5 8.354809471616708L10.921875000000002 8.598379116431081L11.1328125 8.476594294023895" stroke-width="0.03" stroke="#000000" fill="none"/>
<path d="M10.921875000000002 8.598379116431081L10.921875000000002 8.679568998035872" stroke-width="0.03" stroke="#000000" fill="none"/>
<path d="M10.78125 8.679568998035872L10.5 8.841948761245455L10.218750000000002 8.679568998035872L10.5 8.51718923482629L10.78125 8.679568998035872" stroke-width="0.03" stroke="#000000" fill="none"/>
<path d="M10.5 8.51718923482629L10.5 8.841948761245455" stroke-width="0.03" stroke="#000000" fill="none"/>
<path d="M10.5 8.435999353221499L10.5 8.354809471616708" stroke-width="0.03" stroke="#000000" fill="none"/>
<path d="M11.90625 7.948860063592752L12.75 7.4617207739640055L10.5 6.1626826682873475" stroke-width="0.03" stroke="#000000" fill="none"/>
<path d="M8.0390625 6.609227017113699L8.0390625 6.771606780323281" stroke-width="0.03" stroke="#000000" fill="none"/>
<path d="M7.125 7.624100537173588L6.84375 7.4617207739640055L6.84375 7.705290418778379L6.914062500000001 7.745885359580775" stroke-width="0.03" stroke="#000000" fill="none"/>
<path d="M6.6328125 7.664695477975984L6.492187500000001 7.583505596371193L3.328125000000001 9.410277932478992" stroke-width="0.03" stroke="#000000" fill="none"/>
<path d="M3.3984375 9.450872873281389L6.421875 7.705290418778379L6.492187500000001 7.745885359580775" stroke-width="0.03" stroke="#000000" fill="none"/>
<path d="M6.421875 8.923138642850246L6.3515625 8.963733583652642" stroke-width="0.03" stroke="#000000" fill="none"/>
<path d="M6.421875 8.923138642850246L8.671875 10.222176748526905L8.671875 10.303366630131695" stroke-width="0.03" stroke="#000000" fill="none"/>
<path d="M8.671875 10.222176748526905L8.6015625 10.262771689329298" stroke-width="0.03" stroke="#000000" fill="none"/>
<path d="M8.7421875 10.343961570934091L8.7421875 10.42515145253888" stroke-width="0.03" stroke="#000000" fill="none"/>
<path d="M8.7421875 10.343961570934091L5.296875 8.354809471616708" stroke-width="0.03" stroke="#000000" fill="none"/>
<path d="M5.296875 8.841948761245455L3.8203125000000004 9.694442518095762L3.8203125000000004 9.775632399700552L2.8359374999999996 10.343961570934091L2.8359374999999996 10.42515145253888L2.765625 10.465746393341277L2.765625 11.602404735808353L2.695312500000001 11.64299967661075L2.695312500000001 13.347987190311363" stroke-width="0.03" stroke="#000000" fill="none"/>
<path d="M2.90625 13.46977201271855L2.90625 12.170733907041893L3.328125000000001 11.927164262227517" stroke-width="0.03" stroke="#000000" fill="none"/>
<path d="M3.328125000000001 12.414303551856264L2.90625 12.170733907041893" stroke-width="0.03" stroke="#000000" fill="none"/>
<path d="M2.695312500000001 11.64299967661075L2.1328124999999996 11.318240150191585L2.1328124999999996 10.100391926119716L2.203125 10.059796985317323L2.8359374999999996 10.42515145253888" stroke-width="0.03" stroke="#000000" fill="none"/>
<path d="M2.8359374999999996 10.343961570934091L2.203125 9.97860710371253L3.2578125 9.369682991676598L3.8203125000000004 9.694442518095762" stroke-width="0.03" stroke="#000000" fill="none"/>
<path d="M3.8203125000000004 9.775632399700552L3.3984375 9.53206275488618L3.3984375 9.450872873281389" stroke-width="0.03" stroke="#000000" fill="none"/>
<path d="M4.382812499999999 9.613252636490971L5.5078125 8.963733583652642" stroke-width="0.03" stroke="#000000" fill="none"/>
<path d="M5.9296875 9.207303228467016L3.8906249999999996 10.384556511736488L3.8906249999999996 11.034075564574817L3.328125000000001 11.358835090993981L3.328125000000001 13.713341657532922" stroke-width="0.03" stroke="#000000" fill="none"/>
<path d="M3.328125000000001 14.200480947161669L3.328125000000001 14.281670828766462L5.578125 15.580708934443118L5.6484375 15.540113993640723" stroke-width="0.03" stroke="#000000" fill="none"/>
<path d="M5.71875 15.580708934443118L5.7890625 15.540113993640723" stroke-width="0.03" stroke="#000000" fill="none"/>
<path d="M5.71875 15.580708934443118L2.2734375000000004 13.591556835125736" stroke-width="0.03" stroke="#000000" fill="none"/>
<path d="M2.2734375000000004 13.18560742710178L2.34375 13.145012486299386L5.7890625 15.134164585616768L5.71875 15.174759526419164L5.71875 16.067848224071867" stroke-width="0.03" stroke="#000000" fill="none"/>
<path d="M5.7890625 16.02725328326947L5.296875 16.311417868886238L5.296875 16.55498751370061L2.5546875 14.971784822407185L2.5546875 16.270822928083845L3.8203125000000004 17.001531862526964L3.8203125000000004 18.462949731413204L4.03125 18.58473455382039L4.03125 18.828304198634765L5.296875 19.559013133077883L5.296875 21.020431001964123L6.421875 21.669950054802452L6.7734375 21.466975350790477L6.7734375 20.898646179556938L6.984375 20.776861357149752" stroke-width="0.03" stroke="#000000" fill="none"/>
<path d="M7.0546875 20.81745629795215L7.125 20.776861357149752L7.125 20.370911949125794L6.7734375 20.16793724511382L6.703125 20.208532185916212L6.703125 20.61448159394017L7.40625 21.020431001964123" stroke-width="0.03" stroke="#000000" fill="none"/>
<path d="M7.40625 21.2640006467785L6.7734375 20.898646179556938" stroke-width="0.03" stroke="#000000" fill="none"/>
<path d="M7.0546875 20.81745629795215L7.0546875 20.41150688992819L7.125 20.370911949125794" stroke-width="0.03" stroke="#000000" fill="none"/>
<path d="M7.0546875 20.41150688992819L6.703125 20.208532185916212" stroke-width="0.03" stroke="#000000" fill="none"/>
<path d="M6.984375 20.289722067521005L6.984375 19.3966333698683" stroke-width="0.03" stroke="#000000" fill="none"/>
<path d="M6.914062500000001 19.356038429065904L6.914062500000001 18.462949731413204" stroke-width="0.03" stroke="#000000" fill="none"/>
<path d="M7.0546875 18.38175984980841L7.828125 18.828304198634765L7.828125 22.80660839726953L7.898437500000001 22.76601345646713L7.898437500000001 18.78770925783237L7.828125 18.828304198634765" stroke-width="0.03" stroke="#000000" fill="none"/>
<path d="M7.898437500000001 19.03127890264674L8.0390625 19.112468784251533L8.0390625 17.732240796970082L8.25 17.610455974562896L8.390625 17.69164585616769" stroke-width="0.03" stroke="#000000" fill="none"/>
<path d="M8.390625 17.529266092958107L8.6015625 17.407481270550917L9.9375 18.178785145796436L10.0078125 18.13819020499404L10.0078125 15.621303875245514L9.5859375 15.377734230431141L9.515625 15.418329171233536L9.515625 14.931189881604789L7.3359375 13.672746716730527L7.3359375 15.215354467221559L7.125 15.337139289628746L6.7734375 15.134164585616768L6.7734375 15.540113993640723L5.578125 14.85L5.578125 15.012379763209582" stroke-width="0.03" stroke="#000000" fill="none"/>
<path d="M5.71875 15.174759526419164L2.2734375000000004 13.18560742710178" stroke-width="0.03" stroke="#000000" fill="none"/>
<path d="M3.3984375 14.322265769568856L3.3984375 15.052974704011977L2.90625 14.768810118395209L2.5546875 14.971784822407185" stroke-width="0.03" stroke="#000000" fill="none"/>
<path d="M2.34375 14.931189881604789L2.34375 15.337139289628746" stroke-width="0.03" stroke="#000000" fill="none"/>
<path d="M2.2734375000000004 15.377734230431141L2.484375000000001 15.255949408023953L2.5546875 15.29654434882635" stroke-width="0.03" stroke="#000000" fill="none"/>
<path d="M2.5546875 15.540113993640723L2.2734375000000004 15.377734230431141L2.2734375000000004 17.24510150734134L2.4140625000000004 17.326291388946128L2.4140625000000004 18.057000323389246L2.976562500000001 18.38175984980841" stroke-width="0.03" stroke="#000000" fill="none"/>
<path d="M2.695312500000001 18.219380086598832L2.695312500000001 19.193658665856326L2.8359374999999996 19.274848547461115L2.8359374999999996 19.437228310670697L3.679687499999999 19.924367600299444" stroke-width="0.03" stroke="#000000" fill="none"/>
<path d="M3.679687499999999 19.59960807388028L3.679687499999999 20.249127126718612L4.3125 20.61448159394017L4.3125 20.776861357149752L5.9296875 21.71054499560485L6.140625 21.588760173197663L6.140625 21.507570291592874" stroke-width="0.03" stroke="#000000" fill="none"/>
<path d="M6 21.669950054802452L6.3515625 21.87292475881443L6.3515625 21.954114640419224L9.375 23.699697094922232L9.4453125 23.659102154119836L9.4453125 23.17196286449109L10.4296875 23.740292035724625L10.5 23.699697094922232L10.570312500000002 23.740292035724625L11.5546875 23.17196286449109L11.625000000000002 23.212557805293486L13.1015625 22.360064048443178" stroke-width="0.03" stroke="#000000" fill="none"/>
<path d="M13.1015625 22.116494403628806L11.976562500000002 22.76601345646713L11.5546875 22.52244381165276" stroke-width="0.03" stroke="#000000" fill="none"/>
<path d="M11.976562500000002 22.27887416683839L11.976562500000002 22.76601345646713" stroke-width="0.03" stroke="#000000" fill="none"/>
<path d="M11.625000000000002 23.212557805293486L11.625000000000002 23.862076858131815L10.570312500000002 24.47100097016775L10.5 24.430406029365354L10.5 23.699697094922232" stroke-width="0.03" stroke="#000000" fill="none"/>
<path d="M10.4296875 23.740292035724625L10.4296875 24.47100097016775L9.375 23.862076858131815L9.375 23.212557805293486L9.4453125 23.17196286449109" stroke-width="0.03" stroke="#000000" fill="none"/>
<path d="M9.375 23.212557805293486L7.898437500000001 22.360064048443178" stroke-width="0.03" stroke="#000000" fill="none"/>
<path d="M7.898437500000001 22.116494403628806L9.0234375 22.76601345646713L9.4453125 22.52244381165276" stroke-width="0.03" stroke="#000000" fill="none"/>
<path d="M9.0234375 22.27887416683839L9.0234375 22.76601345646713" stroke-width="0.03" stroke="#000000" fill="none"/>
<path d="M9.9375 22.80660839726953L10.5 22.481848870850367L10.5 18.747114317029972L10.570312500000002 18.78770925783237L11.6953125 18.13819020499404L11.625000000000002 18.097595264191643L12.609375 17.529266092958107L12.3984375 17.407481270550917L11.0625 18.178785145796436L10.9921875 18.13819020499404L10.9921875 15.621303875245514L11.4140625 15.377734230431141L11.484375000000002 15.418329171233536L11.484375000000002 14.931189881604789L13.6640625 13.672746716730527L13.593750000000002 13.632151775928133L13.593750000000002 13.55096189432334L13.382812500000002 13.429177071916154L11.273437500000002 14.647025295988021L11.0625 14.525240473580833L11.0625 14.281670828766462L13.171875 13.063822604694593L13.171875 12.820252959880222L13.1015625 12.779658019077825L13.1015625 12.698468137473034L11.765625 11.927164262227517L11.765625 11.683594617413146L12.1171875 11.480619913401167L11.765625 11.277645209389188L12.9609375 10.587531215748463L12.8203125 10.506341334143674" stroke-width="0.03" stroke="#000000" fill="none"/>
<path d="M12.3984375 10.262771689329298L12.328125000000002 10.222176748526905L12.328125000000002 10.303366630131695" stroke-width="0.03" stroke="#000000" fill="none"/>
<path d="M12.328125000000002 10.222176748526905L14.578125 8.923138642850246L14.648437500000002 8.963733583652642" stroke-width="0.03" stroke="#000000" fill="none"/>
<path d="M15.070312500000002 9.207303228467016L17.109375 10.384556511736488L17.109375 11.034075564574817L17.671875 11.358835090993981L17.671875 13.713341657532922" stroke-width="0.03" stroke="#000000" fill="none"/>
<path d="M17.671875 14.200480947161669L17.671875 14.281670828766462L15.421875 15.580708934443118L15.351562500000002 15.540113993640723" stroke-width="0.03" stroke="#000000" fill="none"/>
<path d="M15.421875 15.499519052838329L15.421875 15.580708934443118" stroke-width="0.03" stroke="#000000" fill="none"/>
<path d="M15.28125 15.580708934443118L18.7265625 13.591556835125736" stroke-width="0.03" stroke="#000000" fill="none"/>
<path d="M18.7265625 13.18560742710178L15.28125 15.174759526419164L15.28125 16.067848224071867" stroke-width="0.03" stroke="#000000" fill="none"/>
<path d="M15.2109375 16.02725328326947L15.703125000000002 16.311417868886238L15.703125000000002 16.55498751370061L18.4453125 14.971784822407185L18.4453125 16.270822928083845L17.1796875 17.001531862526964L17.1796875 18.462949731413204L16.96875 18.58473455382039L16.96875 18.828304198634765L15.703125000000002 19.559013133077883L15.703125000000002 21.020431001964123L14.578125 21.669950054802452L14.2265625 21.466975350790477L14.2265625 20.898646179556938L14.015625 20.776861357149752" stroke-width="0.03" stroke="#000000" fill="none"/>
<path d="M13.945312500000002 20.81745629795215L13.945312500000002 20.41150688992819L14.296875000000002 20.208532185916212L14.296875000000002 20.61448159394017L13.593750000000002 21.020431001964123" stroke-width="0.03" stroke="#000000" fill="none"/>
<path d="M13.593750000000002 21.2640006467785L14.2265625 20.898646179556938" stroke-width="0.03" stroke="#000000" fill="none"/>
<path d="M13.945312500000002 20.81745629795215L13.875 20.776861357149752L13.875 20.370911949125794L14.2265625 20.16793724511382L14.296875000000002 20.208532185916212" stroke-width="0.03" stroke="#000000" fill="none"/>
<path d="M14.015625 20.289722067521005L14.015625 19.3966333698683" stroke-width="0.03" stroke="#000000" fill="none"/>
<path d="M14.0859375 19.356038429065904L13.593750000000002 19.640203014682676" stroke-width="0.03" stroke="#000000" fill="none"/>
<path d="M14.0859375 19.356038429065904L14.0859375 18.462949731413204" stroke-width="0.03" stroke="#000000" fill="none"/>
<path d="M13.945312500000002 18.38175984980841L13.171875 18.828304198634765L13.171875 22.80660839726953L13.1015625 22.76601345646713L13.1015625 18.78770925783237L13.171875 18.828304198634765" stroke-width="0.03" stroke="#000000" fill="none"/>
<path d="M13.1015625 19.03127890264674L12.9609375 19.112468784251533L12.9609375 17.732240796970082L12.75 17.610455974562896L12.609375 17.69164585616769" stroke-width="0.03" stroke="#000000" fill="none"/>
<path d="M12.609375 17.529266092958107L12.609375 17.93521550098206L12.9609375 17.732240796970082" stroke-width="0.03" stroke="#000000" fill="none"/>
<path d="M13.3125 17.77283573777248L13.945312500000002 17.407481270550917L13.945312500000002 17.24510150734134L13.8046875 17.163911625736546L13.8046875 17.082721744131756L13.6640625 17.001531862526964" stroke-width="0.03" stroke="#000000" fill="none"/>
<path d="M13.6640625 16.920341980922174L14.367187500000002 17.326291388946128L14.578125 17.204506566538942L14.578125 16.960936921724567L13.875 16.55498751370061" stroke-width="0.03" stroke="#000000" fill="none"/>
<path d="M13.945312500000002 16.514392572898217L14.0859375 16.59558245450301L14.15625 16.55498751370061L14.15625 16.311417868886238L14.015625 16.230227987281445" stroke-width="0.03" stroke="#000000" fill="none"/>
<path d="M13.945312500000002 16.270822928083845L13.3125 16.636177395305403" stroke-width="0.03" stroke="#000000" fill="none"/>
<path d="M13.453125 16.636177395305403L13.5234375 16.59558245450301L13.5234375 16.514392572898217" stroke-width="0.03" stroke="#000000" fill="none"/>
<path d="M13.5234375 16.59558245450301L13.3125 16.473797632095824L13.3125 18.016405382586854L14.15625 17.529266092958107L13.945312500000002 17.407481270550917" stroke-width="0.03" stroke="#000000" fill="none"/>
<path d="M13.945312500000002 17.24510150734134L13.3125 17.610455974562896" stroke-width="0.03" stroke="#000000" fill="none"/>
<path d="M13.3125 17.28569644814373L13.6640625 17.082721744131756L13.6640625 16.6767723361078L14.015625 16.473797632095824L14.015625 16.067848224071867" stroke-width="0.03" stroke="#000000" fill="none"/>
<path d="M13.945312500000002 16.10844316487426L13.945312500000002 16.270822928083845" stroke-width="0.03" stroke="#000000" fill="none"/>
<path d="M14.015625 16.311417868886238L14.0859375 16.352012809688635L14.0859375 16.59558245450301" stroke-width="0.03" stroke="#000000" fill="none"/>
<path d="M14.15625 16.55498751370061L14.296875000000002 16.636177395305403L14.437500000000002 16.55498751370061L14.437500000000002 15.824278579257493" stroke-width="0.03" stroke="#000000" fill="none"/>
<path d="M14.296875000000002 15.905468460862282L14.296875000000002 16.636177395305403" stroke-width="0.03" stroke="#000000" fill="none"/>
<path d="M14.437500000000002 16.55498751370061L14.648437500000002 16.6767723361078L15.2109375 16.352012809688635L15.2109375 14.971784822407185" stroke-width="0.03" stroke="#000000" fill="none"/>
<path d="M15.2109375 15.134164585616768L18.656250000000004 13.145012486299386L18.7265625 13.18560742710178" stroke-width="0.03" stroke="#000000" fill="none"/>
<path d="M17.6015625 14.322265769568856L17.6015625 15.052974704011977L18.09375 14.768810118395209L18.4453125 14.971784822407185" stroke-width="0.03" stroke="#000000" fill="none"/>
<path d="M18.656250000000004 14.931189881604789L18.7265625 14.890594940802394L18.7265625 11.399430031796376L18.656250000000004 11.358835090993981L18.234375 11.602404735808353" stroke-width="0.03" stroke="#000000" fill="none"/>
<path d="M17.671875 11.358835090993981L15.421875 12.65787319667064L15.421875 13.55096189432334L14.437500000000002 14.11929106555688L14.437500000000002 13.956911302347297" stroke-width="0.03" stroke="#000000" fill="none"/>
<path d="M14.5078125 13.9163163615449L13.945312500000002 14.241075887964065L13.875 14.200480947161669L13.875 15.337139289628746L14.2265625 15.134164585616768L14.2265625 15.540113993640723L15.421875 14.85L15.421875 15.012379763209582" stroke-width="0.03" stroke="#000000" fill="none"/>
<path d="M15.28125 15.174759526419164L15.2109375 15.134164585616768" stroke-width="0.03" stroke="#000000" fill="none"/>
<path d="M15.2109375 15.540113993640723L15.28125 15.580708934443118" stroke-width="0.03" stroke="#000000" fill="none"/>
<path d="M15.421875 16.14903810567666L16.1953125 15.702493756850306L16.1953125 15.134164585616768" stroke-width="0.03" stroke="#000000" fill="none"/>
<path d="M16.1953125 15.621303875245514L16.96875 15.174759526419164" stroke-width="0.03" stroke="#000000" fill="none"/>
<path d="M17.0390625 15.052974704011977L17.390625 14.85L17.320312500000004 14.809405059197603L16.96875 15.012379763209582L16.96875 15.418329171233536L17.0390625 15.458924112035932L17.390625 15.255949408023953L17.390625 14.444050591976044" stroke-width="0.03" stroke="#000000" fill="none"/>
<path d="M17.390625 14.931189881604789L17.6015625 15.052974704011977" stroke-width="0.03" stroke="#000000" fill="none"/>
<path d="M17.0390625 15.052974704011977L17.0390625 15.458924112035932" stroke-width="0.03" stroke="#000000" fill="none"/>
<path d="M17.0390625 15.052974704011977L16.96875 15.012379763209582" stroke-width="0.03" stroke="#000000" fill="none"/>
<path d="M18.4453125 15.29654434882635L18.515625 15.255949408023953L18.7265625 15.377734230431141L18.7265625 17.24510150734134L18.585937500000004 17.326291388946128L18.585937500000004 18.057000323389246L18.0234375 18.38175984980841" stroke-width="0.03" stroke="#000000" fill="none"/>
<path d="M18.3046875 18.219380086598832L18.3046875 19.193658665856326L18.1640625 19.274848547461115L18.1640625 19.437228310670697L17.320312500000004 19.924367600299444" stroke-width="0.03" stroke="#000000" fill="none"/>
<path d="M17.320312500000004 19.59960807388028L17.320312500000004 20.249127126718612L16.6875 20.61448159394017L16.6875 20.776861357149752L15.070312500000002 21.71054499560485L14.859375 21.588760173197663L14.859375 21.507570291592874" stroke-width="0.03" stroke="#000000" fill="none"/>
<path d="M15.000000000000002 21.669950054802452L14.648437500000002 21.87292475881443L14.648437500000002 21.954114640419224L11.625000000000002 23.699697094922232L11.5546875 23.659102154119836L11.5546875 23.17196286449109" stroke-width="0.03" stroke="#000000" fill="none"/>
<path d="M11.0625 22.80660839726953L13.1015625 21.62935511400006" stroke-width="0.03" stroke="#000000" fill="none"/>
<path d="M13.5234375 21.385785469185684L13.593750000000002 21.345190528383288L13.593750000000002 18.747114317029972L13.5234375 18.706519376227575" stroke-width="0.03" stroke="#000000" fill="none"/>
<path d="M13.5234375 18.625329494622786L13.5234375 22.603633693257553" stroke-width="0.03" stroke="#000000" fill="none"/>
<path d="M14.578125 21.669950054802452L14.578125 18.5035446722156L14.367187500000002 18.625329494622786L13.875 18.341164909006018" stroke-width="0.03" stroke="#000000" fill="none"/>
<path d="M14.15625 18.178785145796436L12.9609375 18.86889913943716" stroke-width="0.03" stroke="#000000" fill="none"/>
<path d="M13.5234375 18.78770925783237L13.593750000000002 18.747114317029972" stroke-width="0.03" stroke="#000000" fill="none"/>
<path d="M13.5234375 18.625329494622786L13.453125 18.58473455382039" stroke-width="0.03" stroke="#000000" fill="none"/>
<path d="M14.15625 18.178785145796436L14.15625 17.529266092958107" stroke-width="0.03" stroke="#000000" fill="none"/>
<path d="M14.367187500000002 17.326291388946128L14.367187500000002 18.625329494622786" stroke-width="0.03" stroke="#000000" fill="none"/>
<path d="M15.6328125 18.544139613017997L15.6328125 18.30056996820362L16.0546875 18.057000323389246L16.0546875 17.569861033760503L16.265625 17.448076211353314L16.3359375 17.48867115215571L16.3359375 18.13819020499404L16.265625 18.178785145796436L16.265625 18.259975027401225L15.703125000000002 18.58473455382039L15.6328125 18.544139613017997" stroke-width="0.03" stroke="#000000" fill="none"/>
<path d="M15.703125000000002 18.58473455382039L15.703125000000002 18.341164909006018L16.125 18.097595264191643L16.125 17.610455974562896L16.3359375 17.48867115215571" stroke-width="0.03" stroke="#000000" fill="none"/>
<path d="M16.125 17.610455974562896L16.0546875 17.569861033760503" stroke-width="0.03" stroke="#000000" fill="none"/>
<path d="M15.984375 17.69164585616769L15.703125000000002 17.85402561937727L15.703125000000002 18.178785145796436L15.984375 18.016405382586854L15.984375 17.69164585616769" stroke-width="0.03" stroke="#000000" fill="none"/>
<path d="M15.703125000000002 17.85402561937727L15.984375 18.016405382586854" stroke-width="0.03" stroke="#000000" fill="none"/>
<path d="M16.0546875 18.057000323389246L16.125 18.097595264191643" stroke-width="0.03" stroke="#000000" fill="none"/>
<path d="M15.703125000000002 18.341164909006018L15.6328125 18.30056996820362" stroke-width="0.03" stroke="#000000" fill="none"/>
<path d="M15.773437500000002 19.51841819227549L15.773437500000002 20.492696771532984L18.0234375 19.193658665856326L18.0234375 16.59558245450301L17.953125000000004 16.55498751370061" stroke-width="0.03" stroke="#000000" fill="none"/>
<path d="M18.0234375 16.59558245450301L17.1796875 17.082721744131756" stroke-width="0.03" stroke="#000000" fill="none"/>
<path d="M18.585937500000004 17.326291388946128L18.656250000000004 17.366886329748525L18.656250000000004 19.559013133077883L16.7578125 20.655076534742566L16.7578125 20.898646179556938L16.617187500000004 20.81745629795215" stroke-width="0.03" stroke="#000000" fill="none"/>
<path d="M16.7578125 20.655076534742566L16.6875 20.61448159394017" stroke-width="0.03" stroke="#000000" fill="none"/>
<path d="M16.40625 20.939241120359334L16.40625 21.101620883568916L18.656250000000004 19.802582777892262L18.656250000000004 19.96496254110184L18.515625 19.883772659497048" stroke-width="0.03" stroke="#000000" fill="none"/>
<path d="M18.656250000000004 19.96496254110184L18.8671875 19.843177718694655L18.8671875 19.68079795548507L19.0078125 19.59960807388028L19.0078125 19.356038429065904L18.8671875 19.274848547461115" stroke-width="0.03" stroke="#000000" fill="none"/>
<path d="M19.0078125 19.356038429065904L18.8671875 19.437228310670697L18.8671875 16.83915209931738L18.7265625 16.75796221771259" stroke-width="0.03" stroke="#000000" fill="none"/>
<path d="M18.8671875 16.83915209931738L18.7265625 16.920341980922174" stroke-width="0.03" stroke="#000000" fill="none"/>
<path d="M18.7265625 17.163911625736546L18.8671875 17.24510150734134L18.656250000000004 17.366886329748525" stroke-width="0.03" stroke="#000000" fill="none"/>
<path d="M18.4453125 15.540113993640723L18.7265625 15.377734230431141" stroke-width="0.03" stroke="#000000" fill="none"/>
<path d="M18.656250000000004 15.337139289628746L18.656250000000004 14.931189881604789" stroke-width="0.03" stroke="#000000" fill="none"/>
<path d="M18.796875 15.012379763209582L18.656250000000004 15.093569644814371" stroke-width="0.03" stroke="#000000" fill="none"/>
<path d="M18.796875 15.012379763209582L18.796875 11.358835090993981" stroke-width="0.03" stroke="#000000" fill="none"/>
<path d="M18.234375 10.465746393341277L18.8671875 10.100391926119716" stroke-width="0.03" stroke="#000000" fill="none"/>
<path d="M18.796875 10.059796985317323L18.796875 9.97860710371253" stroke-width="0.03" stroke="#000000" fill="none"/>
<path d="M17.109375 10.384556511736488L14.859375 11.683594617413146L14.859375 12.576683315065846L15.2109375 12.779658019077825L15.2109375 13.429177071916154L14.5078125 13.83512647994011" stroke-width="0.03" stroke="#000000" fill="none"/>
<path d="M14.5078125 13.9163163615449L14.5078125 12.617278255868243L14.437500000000002 12.576683315065846L14.437500000000002 12.495493433461057L13.3125 11.845974380622728L12.75 12.170733907041893L12.75 12.251923788646682L11.765625 11.683594617413146" stroke-width="0.03" stroke="#000000" fill="none"/>
<path d="M11.765625 11.521214854203564L11.765625 11.277645209389188" stroke-width="0.03" stroke="#000000" fill="none"/>
<path d="M11.765625 11.521214854203564L11.90625 11.602404735808353" stroke-width="0.03" stroke="#000000" fill="none"/>
<path d="M11.484375000000002 11.034075564574817L10.8515625 10.668721097353256" stroke-width="0.03" stroke="#000000" fill="none"/>
<path d="M10.8515625 10.831100860562838L11.0625 10.952885682970024L11.0625 11.115265446179606" stroke-width="0.03" stroke="#000000" fill="none"/>
<path d="M10.9921875 11.074670505377211L10.9921875 10.99348062377242L11.0625 10.952885682970024" stroke-width="0.03" stroke="#000000" fill="none"/>
<path d="M10.9921875 10.99348062377242L10.78125 10.871695801365235" stroke-width="0.03" stroke="#000000" fill="none"/>
<path d="M10.8515625 10.99348062377242L10.5 11.196455327784399L10.1484375 10.99348062377242L9.796875 11.196455327784399" stroke-width="0.03" stroke="#000000" fill="none"/>
<path d="M9.867187500000002 11.237050268586794L10.0078125 11.155860386982003L10.640625 11.521214854203564" stroke-width="0.03" stroke="#000000" fill="none"/>
<path d="M10.570312500000002 11.399430031796376L10.5 11.358835090993981L10.4296875 11.399430031796376" stroke-width="0.03" stroke="#000000" fill="none"/>
<path d="M10.5 11.358835090993981L10.5 11.602404735808353L11.835937500000002 10.831100860562838L10.9921875 10.343961570934091" stroke-width="0.03" stroke="#000000" fill="none"/>
<path d="M10.9921875 10.587531215748463L11.625000000000002 10.952885682970024" stroke-width="0.03" stroke="#000000" fill="none"/>
<path d="M11.203125 11.196455327784399L10.8515625 10.99348062377242" stroke-width="0.03" stroke="#000000" fill="none"/>
<path d="M10.9921875 11.155860386982003L10.359375 11.521214854203564" stroke-width="0.03" stroke="#000000" fill="none"/>
<path d="M10.5 11.602404735808353L9.1640625 10.831100860562838L10.0078125 10.343961570934091" stroke-width="0.03" stroke="#000000" fill="none"/>
<path d="M10.0078125 10.587531215748463L9.375 10.952885682970024" stroke-width="0.03" stroke="#000000" fill="none"/>
<path d="M9.515625 11.034075564574817L10.1484375 10.668721097353256" stroke-width="0.03" stroke="#000000" fill="none"/>
<path d="M10.1484375 10.831100860562838L9.9375 10.952885682970024L9.9375 11.115265446179606" stroke-width="0.03" stroke="#000000" fill="none"/>
<path d="M10.0078125 11.074670505377211L10.0078125 10.99348062377242L9.9375 10.952885682970024" stroke-width="0.03" stroke="#000000" fill="none"/>
<path d="M10.0078125 10.99348062377242L10.218750000000002 10.871695801365235" stroke-width="0.03" stroke="#000000" fill="none"/>
<path d="M10.4296875 11.155860386982003L10.5 11.115265446179606L10.5 10.140986866922113L10.2890625 10.262771689329298" stroke-width="0.03" stroke="#000000" fill="none"/>
<path d="M10.5 10.140986866922113L10.7109375 10.262771689329298" stroke-width="0.03" stroke="#000000" fill="none"/>
<path d="M10.5 11.115265446179606L10.570312500000002 11.155860386982003" stroke-width="0.03" stroke="#000000" fill="none"/>
<path d="M10.9921875 11.155860386982003L11.1328125 11.237050268586794" stroke-width="0.03" stroke="#000000" fill="none"/>
<path d="M12.2578125 10.42515145253888L12.2578125 10.343961570934091L15.703125000000002 8.354809471616708" stroke-width="0.03" stroke="#000000" fill="none"/>
<path d="M14.15625 7.4617207739640055L13.875 7.624100537173588" stroke-width="0.03" stroke="#000000" fill="none"/>
<path d="M12.75 7.542910655568797L12.75 7.4617207739640055" stroke-width="0.03" stroke="#000000" fill="none"/>
<path d="M13.242187500000002 8.882543702047851L13.593750000000002 9.085518406059828L13.593750000000002 9.166708287664619" stroke-width="0.03" stroke="#000000" fill="none"/>
<path d="M14.0859375 11.237050268586794L13.1015625 11.805379439820332L13.242187500000002 11.886569321425123" stroke-width="0.03" stroke="#000000" fill="none"/>
<path d="M13.382812500000002 11.886569321425123L14.0859375 11.480619913401167L14.0859375 11.237050268586794L14.859375 11.683594617413146" stroke-width="0.03" stroke="#000000" fill="none"/>
<path d="M14.648437500000002 11.805379439820332L13.945312500000002 12.211328847844287" stroke-width="0.03" stroke="#000000" fill="none"/>
<path d="M14.437500000000002 12.495493433461057L13.875 12.820252959880222L12.75 12.170733907041893" stroke-width="0.03" stroke="#000000" fill="none"/>
<path d="M13.1015625 12.698468137473034L10.921875000000002 13.956911302347297L10.921875000000002 14.038101183952087L10.5 13.794531539137715L10.078125 14.038101183952087L7.898437500000001 12.779658019077825L7.898437500000001 12.698468137473034L9.234375 11.927164262227517L9.234375 11.683594617413146L8.8828125 11.480619913401167L9.234375 11.277645209389188L8.0390625 10.587531215748463L8.1796875 10.506341334143674" stroke-width="0.03" stroke="#000000" fill="none"/>
<path d="M9.1640625 10.181581807724509L9.1640625 9.613252636490971" stroke-width="0.03" stroke="#000000" fill="none"/>
<path d="M9.234375 11.277645209389188L9.234375 11.521214854203564L9.09375 11.602404735808353" stroke-width="0.03" stroke="#000000" fill="none"/>
<path d="M9.234375 11.683594617413146L8.25 12.251923788646682L8.25 12.170733907041893L7.6875 11.845974380622728L6.5625 12.495493433461057L6.5625 12.576683315065846L6.492187500000001 12.617278255868243L6.492187500000001 13.9163163615449L7.0546875 14.241075887964065L7.125 14.200480947161669L7.125 15.337139289628746" stroke-width="0.03" stroke="#000000" fill="none"/>
<path d="M6.984375 15.418329171233536L6.7734375 15.540113993640723" stroke-width="0.03" stroke="#000000" fill="none"/>
<path d="M6.984375 15.418329171233536L6.984375 15.255949408023953" stroke-width="0.03" stroke="#000000" fill="none"/>
<path d="M6.703125 15.905468460862282L6.703125 16.636177395305403L6.84375 16.55498751370061L6.84375 16.311417868886238L6.984375 16.230227987281445" stroke-width="0.03" stroke="#000000" fill="none"/>
<path d="M6.984375 16.311417868886238L6.914062500000001 16.352012809688635L6.914062500000001 16.59558245450301L7.0546875 16.514392572898217" stroke-width="0.03" stroke="#000000" fill="none"/>
<path d="M7.125 16.55498751370061L6.421875 16.960936921724567L6.421875 17.204506566538942L6.6328125 17.326291388946128L7.3359375 16.920341980922174" stroke-width="0.03" stroke="#000000" fill="none"/>
<path d="M7.3359375 17.001531862526964L7.1953125 17.082721744131756L7.1953125 17.163911625736546L7.0546875 17.24510150734134L7.0546875 17.407481270550917L6.84375 17.529266092958107L6.84375 18.178785145796436L8.0390625 18.86889913943716" stroke-width="0.03" stroke="#000000" fill="none"/>
<path d="M7.4765625 18.78770925783237L7.40625 18.747114317029972L7.4765625 18.706519376227575" stroke-width="0.03" stroke="#000000" fill="none"/>
<path d="M7.4765625 18.625329494622786L7.546875 18.58473455382039" stroke-width="0.03" stroke="#000000" fill="none"/>
<path d="M7.4765625 18.625329494622786L7.4765625 22.603633693257553" stroke-width="0.03" stroke="#000000" fill="none"/>
<path d="M7.898437500000001 21.62935511400006L9.9375 22.80660839726953L9.9375 20.208532185916212L10.7109375 19.761987837089862L11.0625 19.96496254110184L11.625000000000002 19.640203014682676L11.835937500000002 19.761987837089862L11.835937500000002 18.625329494622786L11.6953125 18.706519376227575" stroke-width="0.03" stroke="#000000" fill="none"/>
<path d="M11.6953125 18.78770925783237L10.570312500000002 19.437228310670697L10.5 19.3966333698683L10.4296875 19.437228310670697L9.3046875 18.78770925783237L9.3046875 18.13819020499404L9.375 18.097595264191643L8.390625 17.529266092958107L8.390625 17.93521550098206L8.0390625 17.732240796970082" stroke-width="0.03" stroke="#000000" fill="none"/>
<path d="M7.6875 17.77283573777248L7.0546875 17.407481270550917" stroke-width="0.03" stroke="#000000" fill="none"/>
<path d="M7.0546875 17.24510150734134L7.6875 17.610455974562896" stroke-width="0.03" stroke="#000000" fill="none"/>
<path d="M7.6875 17.28569644814373L7.3359375 17.082721744131756L7.3359375 16.6767723361078L6.984375 16.473797632095824L6.984375 16.067848224071867" stroke-width="0.03" stroke="#000000" fill="none"/>
<path d="M7.0546875 16.10844316487426L7.0546875 16.270822928083845L7.6875 16.636177395305403" stroke-width="0.03" stroke="#000000" fill="none"/>
<path d="M7.546875 16.636177395305403L7.4765625 16.59558245450301L7.4765625 16.514392572898217" stroke-width="0.03" stroke="#000000" fill="none"/>
<path d="M7.4765625 16.59558245450301L7.6875 16.473797632095824L7.6875 18.016405382586854L6.84375 17.529266092958107" stroke-width="0.03" stroke="#000000" fill="none"/>
<path d="M6.6328125 17.326291388946128L6.6328125 18.625329494622786L6.421875 18.5035446722156L6.421875 21.669950054802452" stroke-width="0.03" stroke="#000000" fill="none"/>
<path d="M6.210937500000001 21.79173487720964L6.210937500000001 21.954114640419224L9.375 23.780886976527025" stroke-width="0.03" stroke="#000000" fill="none"/>
<path d="M10.570312500000002 23.740292035724625L10.570312500000002 24.47100097016775" stroke-width="0.03" stroke="#000000" fill="none"/>
<path d="M10.5 24.430406029365354L10.4296875 24.47100097016775" stroke-width="0.03" stroke="#000000" fill="none"/>
<path d="M11.625000000000002 23.780886976527025L14.7890625 21.954114640419224L14.7890625 21.79173487720964" stroke-width="0.03" stroke="#000000" fill="none"/>
<path d="M15.070312500000002 21.71054499560485L15.070312500000002 21.385785469185684" stroke-width="0.03" stroke="#000000" fill="none"/>
<path d="M15.703125000000002 20.452101830730584L15.773437500000002 20.492696771532984" stroke-width="0.03" stroke="#000000" fill="none"/>
<path d="M16.265625 21.020431001964123L16.40625 21.101620883568916" stroke-width="0.03" stroke="#000000" fill="none"/>
<path d="M18.1640625 19.274848547461115L18.656250000000004 19.559013133077883" stroke-width="0.03" stroke="#000000" fill="none"/>
<path d="M15.703125000000002 16.311417868886238L14.578125 16.960936921724567" stroke-width="0.03" stroke="#000000" fill="none"/>
<path d="M14.578125 17.204506566538942L13.734375 16.717367276910196L13.6640625 16.75796221771259" stroke-width="0.03" stroke="#000000" fill="none"/>
<path d="M13.734375 16.717367276910196L13.734375 16.636177395305403" stroke-width="0.03" stroke="#000000" fill="none"/>
<path d="M13.453125 16.39260775049103L13.453125 17.123316684934153L13.3125 17.204506566538942" stroke-width="0.03" stroke="#000000" fill="none"/>
<path d="M13.453125 17.204506566538942L13.593750000000002 17.28569644814373L13.8046875 17.163911625736546" stroke-width="0.03" stroke="#000000" fill="none"/>
<path d="M13.8046875 17.082721744131756L13.593750000000002 17.204506566538942L13.5234375 17.163911625736546" stroke-width="0.03" stroke="#000000" fill="none"/>
<path d="M13.593750000000002 17.204506566538942L13.593750000000002 17.28569644814373" stroke-width="0.03" stroke="#000000" fill="none"/>
<path d="M13.3125 16.473797632095824L14.648437500000002 15.702493756850306L14.648437500000002 16.6767723361078" stroke-width="0.03" stroke="#000000" fill="none"/>
<path d="M14.15625 16.311417868886238L14.0859375 16.352012809688635" stroke-width="0.03" stroke="#000000" fill="none"/>
<path d="M14.2265625 15.540113993640723L14.015625 15.418329171233536L14.015625 15.255949408023953" stroke-width="0.03" stroke="#000000" fill="none"/>
<path d="M13.875 15.337139289628746L13.6640625 15.215354467221559L13.6640625 13.672746716730527" stroke-width="0.03" stroke="#000000" fill="none"/>
<path d="M13.593750000000002 13.632151775928133L11.4140625 14.890594940802394L11.4140625 15.377734230431141" stroke-width="0.03" stroke="#000000" fill="none"/>
<path d="M11.34375 15.337139289628746L10.921875000000002 15.580708934443118L10.5 15.337139289628746L10.078125 15.580708934443118L9.65625 15.337139289628746L9.65625 14.85L7.40625 13.55096189432334L7.40625 13.632151775928133L9.5859375 14.890594940802394L9.5859375 15.377734230431141" stroke-width="0.03" stroke="#000000" fill="none"/>
<path d="M9.65625 15.337139289628746L10.5 14.85L10.5 13.875721420742504L10.921875000000002 14.11929106555688L10.921875000000002 14.606430355185626L11.34375 14.85L11.34375 15.337139289628746L10.5 14.85" stroke-width="0.03" stroke="#000000" fill="none"/>
<path d="M10.218750000000002 14.687620236790417L10.5 14.525240473580833L10.78125 14.687620236790417L10.78125 15.012379763209582L10.5 15.174759526419164L10.218750000000002 15.012379763209582L10.218750000000002 14.687620236790417" stroke-width="0.03" stroke="#000000" fill="none"/>
<path d="M10.078125 14.606430355185626L9.65625 14.85" stroke-width="0.03" stroke="#000000" fill="none"/>
<path d="M9.5859375 14.890594940802394L9.515625 14.931189881604789" stroke-width="0.03" stroke="#000000" fill="none"/>
<path d="M9.7265625 14.647025295988021L9.9375 14.525240473580833L9.9375 14.281670828766462L7.828125 13.063822604694593L7.828125 12.820252959880222L7.898437500000001 12.779658019077825" stroke-width="0.03" stroke="#000000" fill="none"/>
<path d="M7.898437500000001 12.698468137473034L10.078125 13.956911302347297L10.078125 14.038101183952087" stroke-width="0.03" stroke="#000000" fill="none"/>
<path d="M10.078125 13.956911302347297L10.5 13.713341657532922L10.921875000000002 13.956911302347297" stroke-width="0.03" stroke="#000000" fill="none"/>
<path d="M10.921875000000002 14.038101183952087L13.1015625 12.779658019077825" stroke-width="0.03" stroke="#000000" fill="none"/>
<path d="M13.171875 12.820252959880222L10.921875000000002 14.11929106555688" stroke-width="0.03" stroke="#000000" fill="none"/>
<path d="M11.0625 14.281670828766462L11.273437500000002 14.403455651173648L13.382812500000002 13.18560742710178L13.382812500000002 13.429177071916154" stroke-width="0.03" stroke="#000000" fill="none"/>
<path d="M13.593750000000002 13.55096189432334L11.34375 14.85" stroke-width="0.03" stroke="#000000" fill="none"/>
<path d="M11.4140625 14.890594940802394L11.484375000000002 14.931189881604789" stroke-width="0.03" stroke="#000000" fill="none"/>
<path d="M11.273437500000002 14.647025295988021L11.273437500000002 14.403455651173648" stroke-width="0.03" stroke="#000000" fill="none"/>
<path d="M11.0625 14.525240473580833L10.921875000000002 14.606430355185626" stroke-width="0.03" stroke="#000000" fill="none"/>
<path d="M10.5 15.337139289628746L10.5 15.499519052838329L10.2890625 15.621303875245514L10.2890625 18.057000323389246L10.078125 18.178785145796436L10.0078125 18.13819020499404" stroke-width="0.03" stroke="#000000" fill="none"/>
<path d="M9.9375 18.178785145796436L9.9375 15.661898816047911L10.0078125 15.621303875245514" stroke-width="0.03" stroke="#000000" fill="none"/>
<path d="M10.078125 15.580708934443118L10.078125 18.178785145796436" stroke-width="0.03" stroke="#000000" fill="none"/>
<path d="M10.2890625 18.057000323389246L10.5 18.178785145796436L10.7109375 18.057000323389246L10.7109375 15.621303875245514L10.5 15.499519052838329" stroke-width="0.03" stroke="#000000" fill="none"/>
<path d="M10.5 15.7430886976527L10.7109375 15.621303875245514" stroke-width="0.03" stroke="#000000" fill="none"/>
<path d="M10.921875000000002 15.580708934443118L10.921875000000002 18.178785145796436L10.7109375 18.057000323389246" stroke-width="0.03" stroke="#000000" fill="none"/>
<path d="M10.5 18.178785145796436L10.5 15.7430886976527L10.2890625 15.621303875245514" stroke-width="0.03" stroke="#000000" fill="none"/>
<path d="M9.9375 15.661898816047911L9.515625 15.418329171233536" stroke-width="0.03" stroke="#000000" fill="none"/>
<path d="M9.7265625 14.647025295988021L9.7265625 14.403455651173648L7.6171875 13.18560742710178L7.828125 13.063822604694593" stroke-width="0.03" stroke="#000000" fill="none"/>
<path d="M7.828125 12.820252959880222L10.078125 14.11929106555688L10.078125 14.606430355185626L9.9375 14.525240473580833" stroke-width="0.03" stroke="#000000" fill="none"/>
<path d="M9.9375 14.281670828766462L9.7265625 14.403455651173648" stroke-width="0.03" stroke="#000000" fill="none"/>
<path d="M9.7265625 14.647025295988021L7.6171875 13.429177071916154L7.40625 13.55096189432334" stroke-width="0.03" stroke="#000000" fill="none"/>
<path d="M7.40625 13.632151775928133L7.3359375 13.672746716730527" stroke-width="0.03" stroke="#000000" fill="none"/>
<path d="M7.6171875 13.429177071916154L7.6171875 13.18560742710178" stroke-width="0.03" stroke="#000000" fill="none"/>
<path d="M7.125 12.90144284148501L7.0546875 12.942037782287407L7.0546875 14.241075887964065" stroke-width="0.03" stroke="#000000" fill="none"/>
<path d="M6.5625 14.11929106555688L6.5625 13.956911302347297" stroke-width="0.03" stroke="#000000" fill="none"/>
<path d="M6.492187500000001 13.83512647994011L5.7890625 13.429177071916154L5.578125 13.55096189432334L5.578125 12.65787319667064L6.3515625 12.211328847844287L6.3515625 11.805379439820332L6.914062500000001 11.480619913401167L7.6171875 11.886569321425123" stroke-width="0.03" stroke="#000000" fill="none"/>
<path d="M7.757812499999999 11.886569321425123L7.898437500000001 11.805379439820332L6.914062500000001 11.237050268586794L6.140625 11.683594617413146L6.140625 12.576683315065846L5.7890625 12.779658019077825L5.7890625 13.429177071916154" stroke-width="0.03" stroke="#000000" fill="none"/>
<path d="M5.578125 13.55096189432334L6.5625 14.11929106555688" stroke-width="0.03" stroke="#000000" fill="none"/>
<path d="M6.492187500000001 13.18560742710178L5.7890625 12.779658019077825" stroke-width="0.03" stroke="#000000" fill="none"/>
<path d="M5.578125 12.65787319667064L3.328125000000001 11.358835090993981" stroke-width="0.03" stroke="#000000" fill="none"/>
<path d="M2.765625 11.602404735808353L2.34375 11.358835090993981L2.2734375000000004 11.399430031796376L2.2734375000000004 14.890594940802394L2.34375 14.931189881604789" stroke-width="0.03" stroke="#000000" fill="none"/>
<path d="M2.34375 15.093569644814371L2.203125 15.012379763209582L2.203125 11.358835090993981" stroke-width="0.03" stroke="#000000" fill="none"/>
<path d="M2.765625 10.465746393341277L2.1328124999999996 10.100391926119716" stroke-width="0.03" stroke="#000000" fill="none"/>
<path d="M2.203125 10.059796985317323L2.203125 9.97860710371253" stroke-width="0.03" stroke="#000000" fill="none"/>
<path d="M3.8906249999999996 10.384556511736488L6.140625 11.683594617413146" stroke-width="0.03" stroke="#000000" fill="none"/>
<path d="M6.3515625 11.805379439820332L7.0546875 12.211328847844287" stroke-width="0.03" stroke="#000000" fill="none"/>
<path d="M6.5625 12.495493433461057L7.125 12.820252959880222L7.125 12.90144284148501L3.8906249999999996 11.034075564574817" stroke-width="0.03" stroke="#000000" fill="none"/>
<path d="M4.382812499999999 10.100391926119716L4.382812499999999 9.613252636490971L4.8046875 9.856822281305345" stroke-width="0.03" stroke="#000000" fill="none"/>
<path d="M6.914062500000001 11.237050268586794L6.914062500000001 11.480619913401167" stroke-width="0.03" stroke="#000000" fill="none"/>
<path d="M6.492187500000001 12.617278255868243L7.0546875 12.942037782287407" stroke-width="0.03" stroke="#000000" fill="none"/>
<path d="M7.125 12.820252959880222L8.25 12.170733907041893" stroke-width="0.03" stroke="#000000" fill="none"/>
<path d="M10.078125 14.11929106555688L10.5 13.875721420742504" stroke-width="0.03" stroke="#000000" fill="none"/>
<path d="M10.5 13.794531539137715L10.5 13.713341657532922" stroke-width="0.03" stroke="#000000" fill="none"/>
<path d="M11.484375000000002 15.418329171233536L11.0625 15.661898816047911L11.0625 18.178785145796436" stroke-width="0.03" stroke="#000000" fill="none"/>
<path d="M10.9921875 18.13819020499404L10.921875000000002 18.178785145796436" stroke-width="0.03" stroke="#000000" fill="none"/>
<path d="M10.570312500000002 18.78770925783237L10.570312500000002 19.437228310670697" stroke-width="0.03" stroke="#000000" fill="none"/>
<path d="M10.4296875 19.437228310670697L10.4296875 18.78770925783237L10.5 18.747114317029972" stroke-width="0.03" stroke="#000000" fill="none"/>
<path d="M10.4296875 18.78770925783237L9.3046875 18.13819020499404" stroke-width="0.03" stroke="#000000" fill="none"/>
<path d="M9.1640625 18.625329494622786L9.1640625 19.761987837089862L9.9375 20.208532185916212" stroke-width="0.03" stroke="#000000" fill="none"/>
<path d="M9.9375 19.96496254110184L10.2890625 19.761987837089862L11.0625 20.208532185916212L11.835937500000002 19.761987837089862" stroke-width="0.03" stroke="#000000" fill="none"/>
<path d="M11.625000000000002 19.640203014682676L11.625000000000002 18.828304198634765" stroke-width="0.03" stroke="#000000" fill="none"/>
<path d="M11.6953125 18.78770925783237L11.6953125 18.13819020499404" stroke-width="0.03" stroke="#000000" fill="none"/>
<path d="M11.0625 19.15306372505393L11.0625 19.96496254110184" stroke-width="0.03" stroke="#000000" fill="none"/>
<path d="M11.0625 20.208532185916212L11.0625 22.80660839726953L10.5 22.481848870850367" stroke-width="0.03" stroke="#000000" fill="none"/>
<path d="M9.9375 19.96496254110184L9.9375 19.15306372505393" stroke-width="0.03" stroke="#000000" fill="none"/>
<path d="M9.375 18.828304198634765L9.375 19.640203014682676L9.9375 19.96496254110184" stroke-width="0.03" stroke="#000000" fill="none"/>
<path d="M9.375 19.640203014682676L9.1640625 19.761987837089862" stroke-width="0.03" stroke="#000000" fill="none"/>
<path d="M9.3046875 18.706519376227575L9.1640625 18.625329494622786" stroke-width="0.03" stroke="#000000" fill="none"/>
<path d="M7.40625 18.747114317029972L7.40625 21.345190528383288L7.4765625 21.385785469185684" stroke-width="0.03" stroke="#000000" fill="none"/>
<path d="M5.9296875 21.385785469185684L5.9296875 21.71054499560485" stroke-width="0.03" stroke="#000000" fill="none"/>
<path d="M4.734375 21.020431001964123L4.59375 21.101620883568916L2.34375 19.802582777892262L2.34375 19.96496254110184L2.1328124999999996 19.843177718694655L2.1328124999999996 19.68079795548507L1.9921874999999998 19.59960807388028L1.9921874999999998 19.356038429065904L2.1328124999999996 19.274848547461115" stroke-width="0.03" stroke="#000000" fill="none"/>
<path d="M1.9921874999999998 19.356038429065904L2.1328124999999996 19.437228310670697L2.1328124999999996 16.83915209931738L2.2734375000000004 16.75796221771259" stroke-width="0.03" stroke="#000000" fill="none"/>
<path d="M2.1328124999999996 16.83915209931738L2.2734375000000004 16.920341980922174" stroke-width="0.03" stroke="#000000" fill="none"/>
<path d="M2.2734375000000004 17.163911625736546L2.1328124999999996 17.24510150734134L2.34375 17.366886329748525L2.4140625000000004 17.326291388946128" stroke-width="0.03" stroke="#000000" fill="none"/>
<path d="M2.34375 17.366886329748525L2.34375 19.559013133077883L4.2421875 20.655076534742566L4.2421875 20.898646179556938L4.382812499999999 20.81745629795215" stroke-width="0.03" stroke="#000000" fill="none"/>
<path d="M4.2421875 20.655076534742566L4.3125 20.61448159394017" stroke-width="0.03" stroke="#000000" fill="none"/>
<path d="M4.59375 20.939241120359334L4.59375 21.101620883568916" stroke-width="0.03" stroke="#000000" fill="none"/>
<path d="M5.2265625 20.492696771532984L5.296875 20.452101830730584" stroke-width="0.03" stroke="#000000" fill="none"/>
<path d="M5.2265625 20.492696771532984L5.2265625 19.51841819227549" stroke-width="0.03" stroke="#000000" fill="none"/>
<path d="M5.296875 18.58473455382039L5.3671875 18.544139613017997L5.3671875 18.30056996820362L4.9453125 18.057000323389246L4.9453125 17.569861033760503L4.734375 17.448076211353314L4.6640625 17.48867115215571L4.6640625 18.13819020499404L4.734375 18.178785145796436L4.734375 18.259975027401225L5.296875 18.58473455382039L5.296875 18.341164909006018L5.3671875 18.30056996820362" stroke-width="0.03" stroke="#000000" fill="none"/>
<path d="M5.296875 18.341164909006018L4.875 18.097595264191643L4.875 17.610455974562896L4.6640625 17.48867115215571" stroke-width="0.03" stroke="#000000" fill="none"/>
<path d="M4.875 17.610455974562896L4.9453125 17.569861033760503" stroke-width="0.03" stroke="#000000" fill="none"/>
<path d="M5.015625 17.69164585616769L5.015625 18.016405382586854L5.296875 18.178785145796436L5.296875 17.85402561937727L5.015625 17.69164585616769" stroke-width="0.03" stroke="#000000" fill="none"/>
<path d="M5.015625 18.016405382586854L5.296875 17.85402561937727" stroke-width="0.03" stroke="#000000" fill="none"/>
<path d="M4.9453125 18.057000323389246L4.875 18.097595264191643" stroke-width="0.03" stroke="#000000" fill="none"/>
<path d="M3.8203125000000004 17.082721744131756L2.976562500000001 16.59558245450301L3.046875 16.55498751370061" stroke-width="0.03" stroke="#000000" fill="none"/>
<path d="M2.976562500000001 16.59558245450301L2.976562500000001 19.193658665856326L5.2265625 20.492696771532984" stroke-width="0.03" stroke="#000000" fill="none"/>
<path d="M6.914062500000001 19.356038429065904L7.40625 19.640203014682676" stroke-width="0.03" stroke="#000000" fill="none"/>
<path d="M6.6328125 18.625329494622786L7.125 18.341164909006018" stroke-width="0.03" stroke="#000000" fill="none"/>
<path d="M7.40625 17.28569644814373L7.546875 17.204506566538942" stroke-width="0.03" stroke="#000000" fill="none"/>
<path d="M7.546875 17.123316684934153L7.546875 16.39260775049103" stroke-width="0.03" stroke="#000000" fill="none"/>
<path d="M7.6875 16.473797632095824L6.3515625 15.702493756850306L6.3515625 16.6767723361078L5.7890625 16.352012809688635L5.7890625 14.971784822407185" stroke-width="0.03" stroke="#000000" fill="none"/>
<path d="M5.578125 15.499519052838329L5.578125 15.580708934443118" stroke-width="0.03" stroke="#000000" fill="none"/>
<path d="M5.578125 16.14903810567666L4.8046875 15.702493756850306L4.8046875 15.134164585616768" stroke-width="0.03" stroke="#000000" fill="none"/>
<path d="M4.8046875 15.621303875245514L4.03125 15.174759526419164" stroke-width="0.03" stroke="#000000" fill="none"/>
<path d="M3.9609375 15.052974704011977L4.03125 15.012379763209582L4.03125 15.418329171233536L3.9609375 15.458924112035932L3.609375 15.255949408023953L3.609375 14.444050591976044" stroke-width="0.03" stroke="#000000" fill="none"/>
<path d="M3.679687499999999 14.809405059197603L3.609375 14.85L3.9609375 15.052974704011977L3.9609375 15.458924112035932" stroke-width="0.03" stroke="#000000" fill="none"/>
<path d="M4.03125 15.012379763209582L3.679687499999999 14.809405059197603" stroke-width="0.03" stroke="#000000" fill="none"/>
<path d="M3.609375 14.931189881604789L3.3984375 15.052974704011977" stroke-width="0.03" stroke="#000000" fill="none"/>
<path d="M5.296875 16.311417868886238L6.421875 16.960936921724567" stroke-width="0.03" stroke="#000000" fill="none"/>
<path d="M6.421875 17.204506566538942L7.265625000000001 16.717367276910196L7.3359375 16.75796221771259" stroke-width="0.03" stroke="#000000" fill="none"/>
<path d="M7.265625000000001 16.717367276910196L7.265625000000001 16.636177395305403" stroke-width="0.03" stroke="#000000" fill="none"/>
<path d="M6.914062500000001 16.59558245450301L6.84375 16.55498751370061" stroke-width="0.03" stroke="#000000" fill="none"/>
<path d="M6.703125 16.636177395305403L6.5625 16.55498751370061L6.5625 15.824278579257493" stroke-width="0.03" stroke="#000000" fill="none"/>
<path d="M6.84375 16.311417868886238L6.914062500000001 16.352012809688635" stroke-width="0.03" stroke="#000000" fill="none"/>
<path d="M6.5625 16.55498751370061L6.3515625 16.6767723361078" stroke-width="0.03" stroke="#000000" fill="none"/>
<path d="M7.1953125 17.082721744131756L7.40625 17.204506566538942L7.40625 17.28569644814373L7.1953125 17.163911625736546" stroke-width="0.03" stroke="#000000" fill="none"/>
<path d="M7.40625 17.204506566538942L7.4765625 17.163911625736546" stroke-width="0.03" stroke="#000000" fill="none"/>
<path d="M7.546875 17.123316684934153L7.6875 17.204506566538942" stroke-width="0.03" stroke="#000000" fill="none"/>
<path d="M10.9921875 15.621303875245514L11.0625 15.661898816047911" stroke-width="0.03" stroke="#000000" fill="none"/>
<path d="M13.945312500000002 14.241075887964065L13.945312500000002 12.942037782287407L14.5078125 12.617278255868243" stroke-width="0.03" stroke="#000000" fill="none"/>
<path d="M14.648437500000002 12.211328847844287L14.648437500000002 11.805379439820332L14.0859375 11.480619913401167" stroke-width="0.03" stroke="#000000" fill="none"/>
<path d="M14.648437500000002 12.211328847844287L15.421875 12.65787319667064" stroke-width="0.03" stroke="#000000" fill="none"/>
<path d="M15.2109375 12.779658019077825L14.5078125 13.18560742710178" stroke-width="0.03" stroke="#000000" fill="none"/>
<path d="M13.945312500000002 12.942037782287407L13.875 12.90144284148501L13.875 12.820252959880222" stroke-width="0.03" stroke="#000000" fill="none"/>
<path d="M13.875 12.90144284148501L17.109375 11.034075564574817" stroke-width="0.03" stroke="#000000" fill="none"/>
<path d="M15.421875 13.55096189432334L15.2109375 13.429177071916154" stroke-width="0.03" stroke="#000000" fill="none"/>
<path d="M13.382812500000002 13.18560742710178L13.171875 13.063822604694593" stroke-width="0.03" stroke="#000000" fill="none"/>
<path d="M7.40625 9.166708287664619L7.40625 9.085518406059828" stroke-width="0.03" stroke="#000000" fill="none"/>
<path d="M4.4472897369133975 2.9786238469347097L4.345319331208673 2.7109515319598065L4.243348925503947 2.9786238469347097" stroke-width="0.03" stroke="#000000" fill="none"/>
<path d="M4.28158782764322 2.889399741943075L4.409050834774126 2.889399741943075" stroke-width="0.03" stroke="#000000" fill="none"/>
<path d="M4.179617421938495 2.8001756369514412L4.1668711212254035 2.8384145390907127L4.141378519799223 2.8639071405168943L4.10313961765995 2.8766534412299847L4.0903933169468605 2.8766534412299847L4.052154414807589 2.8639071405168943L4.026661813381407 2.8384145390907127L4.013915512668317 2.8001756369514412L4.013915512668317 2.7874293362383504L4.026661813381407 2.7491904340990785L4.052154414807589 2.7236978326728973L4.0903933169468605 2.7109515319598065L4.10313961765995 2.7109515319598065L4.141378519799223 2.7236978326728973L4.1668711212254035 2.7491904340990785L4.179617421938495 2.8001756369514412L4.179617421938495 2.8639071405168943L4.1668711212254035 2.927638644082347L4.141378519799223 2.965877546221619L4.10313961765995 2.9786238469347097L4.07764701623377 2.9786238469347097L4.039408114094497 2.965877546221619L4.026661813381407 2.9403849447954378" stroke-width="0.03" stroke="#000000" fill="none"/>
<path d="M3.9246914076766823 2.8001756369514412L3.911945106963592 2.8384145390907127L3.8864525055374104 2.8639071405168943L3.848213603398139 2.8766534412299847L3.835467302685048 2.8766534412299847L3.797228400545776 2.8639071405168943L3.771735799119595 2.8384145390907127L3.758989498406504 2.8001756369514412L3.758989498406504 2.7874293362383504L3.771735799119595 2.7491904340990785L3.797228400545776 2.7236978326728973L3.835467302685048 2.7109515319598065L3.848213603398139 2.7109515319598065L3.8864525055374104 2.7236978326728973L3.911945106963592 2.7491904340990785L3.9246914076766823 2.8001756369514412L3.9246914076766823 2.8639071405168943L3.911945106963592 2.927638644082347L3.8864525055374104 2.965877546221619L3.848213603398139 2.9786238469347097L3.8227210019719573 2.9786238469347097L3.784482099832686 2.965877546221619L3.771735799119595 2.9403849447954378" stroke-width="0.03" stroke="#000000" fill="none"/>
<path d="M3.6060338898494173 2.9786238469347097L3.6060338898494173 2.7109515319598065L3.567794987710145 2.7491904340990785L3.542302386283964 2.761936734812169" stroke-width="0.03" stroke="#000000" fill="none"/>
<path d="M3.312868973448333 2.7109515319598065L3.274630071309061 2.7236978326728973L3.2618837705959702 2.7491904340990785L3.2618837705959702 2.7746830355252596L3.274630071309061 2.8001756369514412L3.3001226727352426 2.8129219376645316L3.351107875587605 2.825668238377622L3.3893467777268764 2.8384145390907127L3.414839379153058 2.8639071405168943L3.4275856798661484 2.889399741943075L3.4275856798661484 2.927638644082347L3.414839379153058 2.953131245508528L3.402093078439967 2.965877546221619L3.3638541763006957 2.9786238469347097L3.312868973448333 2.9786238469347097L3.274630071309061 2.965877546221619L3.2618837705959702 2.953131245508528L3.24913746988288 2.927638644082347L3.24913746988288 2.889399741943075L3.2618837705959702 2.8639071405168943L3.287376372022152 2.8384145390907127L3.3256152741614233 2.825668238377622L3.376600477013786 2.8129219376645316L3.402093078439967 2.8001756369514412L3.414839379153058 2.7746830355252596L3.414839379153058 2.7491904340990785L3.402093078439967 2.7236978326728973L3.3638541763006957 2.7109515319598065L3.312868973448333 2.7109515319598065" stroke-width="0.03" stroke="#000000" fill="none"/>
<path d="M3.057942959186521 2.7109515319598065L3.0197040570472486 2.7236978326728973L3.0069577563341583 2.7491904340990785L3.0069577563341583 2.7746830355252596L3.0197040570472486 2.8001756369514412L3.0451966584734302 2.8129219376645316L3.0961818613257925 2.825668238377622L3.1344207634650645 2.8384145390907127L3.1599133648912456 2.8639071405168943L3.1726596656043364 2.889399741943075L3.1726596656043364 2.927638644082347L3.1599133648912456 2.953131245508528L3.147167064178155 2.965877546221619L3.1089281620388833 2.9786238469347097L3.057942959186521 2.9786238469347097L3.0197040570472486 2.965877546221619L3.0069577563341583 2.953131245508528L2.994211455621068 2.927638644082347L2.994211455621068 2.889399741943075L3.0069577563341583 2.8639071405168943L3.0324503577603394 2.8384145390907127L3.0706892598996114 2.825668238377622L3.1216744627519737 2.8129219376645316L3.147167064178155 2.8001756369514412L3.1599133648912456 2.7746830355252596L3.1599133648912456 2.7491904340990785L3.147167064178155 2.7236978326728973L3.1089281620388833 2.7109515319598065L3.057942959186521 2.7109515319598065" stroke-width="0.03" stroke="#000000" fill="none"/>
<path d="M2.917733651342524 2.7109515319598065L2.790270644211618 2.9786238469347097" stroke-width="0.03" stroke="#000000" fill="none"/>
<path d="M2.6883002385068933 2.9786238469347097L2.586329832802168 2.7109515319598065L2.484359427097443 2.9786238469347097" stroke-width="0.03" stroke="#000000" fill="none"/>
<path d="M2.433374224245081 2.9786238469347097L2.293164916401084 2.8001756369514412" stroke-width="0.03" stroke="#000000" fill="none"/>
<path d="M2.433374224245081 2.8001756369514412L2.293164916401084 2.9786238469347097" stroke-width="0.03" stroke="#000000" fill="none"/>
<path d="M2.522598329236715 2.889399741943075L2.6500613363676213 2.889399741943075" stroke-width="0.03" stroke="#000000" fill="none"/>
<path d="M2.7392854413592556 2.7109515319598065L2.917733651342524 2.7109515319598065" stroke-width="0.03" stroke="#000000" fill="none"/>
<path d="M2.907453702522736 2.056846590184406L3.237436867076458 2.056846590184406" stroke-width="0.03" stroke="#000000" fill="none"/>
<path d="M3.2993087104302807 1.953726851261368L3.3199326582148885 1.9949747468305832L3.3818045015687113 2.015598694615191L3.443676344922534 2.015598694615191L3.5055481882763573 1.9949747468305832L3.526172136060965 1.953726851261368L3.526172136060965 1.9331029034767604L3.5055481882763573 1.891855007907545L3.464300292707142 1.8712310601229374L3.361180553784104 1.8506071123383299L3.3199326582148885 1.8299831645537221L3.2993087104302807 1.7887352689845069L3.3199326582148885 1.7474873734152916L3.3818045015687113 1.7268634256306838L3.443676344922534 1.7268634256306838L3.5055481882763573 1.7474873734152916L3.526172136060965 1.7887352689845069" stroke-width="0.03" stroke="#000000" fill="none"/>
<path d="M3.6705397705532183 1.8093592167691144L3.732411613907041 1.7474873734152916L3.773659509476256 1.7268634256306838L3.8355313528300794 1.7268634256306838L3.8767792483992944 1.7474873734152916L3.897403196183902 1.8093592167691144L3.897403196183902 2.015598694615191" stroke-width="0.03" stroke="#000000" fill="none"/>
<path d="M3.6705397705532183 2.015598694615191L3.6705397705532183 1.7268634256306838" stroke-width="0.03" stroke="#000000" fill="none"/>
<path d="M4.144890569599194 1.7268634256306838L4.103642674029978 1.7474873734152916L4.062394778460764 1.7887352689845069L4.041770830676155 1.8506071123383299L4.041770830676155 1.891855007907545L4.062394778460764 1.953726851261368L4.103642674029978 1.9949747468305832L4.144890569599194 2.015598694615191L4.206762412953017 2.015598694615191L4.2480103085222325 1.9949747468305832L4.289258204091447 1.953726851261368L4.309882151876055 1.891855007907545L4.309882151876055 1.8506071123383299L4.289258204091447 1.7887352689845069L4.2480103085222325 1.7474873734152916L4.206762412953017 1.7268634256306838L4.144890569599194 1.7268634256306838" stroke-width="0.03" stroke="#000000" fill="none"/>
<path d="M4.4336258385837 1.7268634256306838L4.516121629722131 2.015598694615191L4.5986174208605615 1.7268634256306838L4.681113211998992 2.015598694615191L4.7636090031374225 1.7268634256306838" stroke-width="0.03" stroke="#000000" fill="none"/>
<path d="M4.866728742060461 1.7268634256306838L5.011096376552715 1.7268634256306838" stroke-width="0.03" stroke="#000000" fill="none"/>
<path d="M5.031720324337321 1.5824957911384305L4.990472428768107 1.5824957911384305L4.949224533198891 1.6031197389230383L4.928600585414284 1.664991582276861L4.928600585414284 2.015598694615191" stroke-width="0.03" stroke="#000000" fill="none"/>
<path d="M5.155464011044968 2.015598694615191L5.155464011044968 1.5824957911384305" stroke-width="0.03" stroke="#000000" fill="none"/>
<path d="M5.547319018952512 1.7268634256306838L5.547319018952512 2.015598694615191" stroke-width="0.03" stroke="#000000" fill="none"/>
<path d="M5.547319018952512 1.953726851261368L5.506071123383298 1.9949747468305832L5.464823227814082 2.015598694615191L5.402951384460259 2.015598694615191L5.3617034888910435 1.9949747468305832L5.320455593321829 1.953726851261368L5.299831645537221 1.891855007907545L5.299831645537221 1.8506071123383299L5.320455593321829 1.7887352689845069L5.3617034888910435 1.7474873734152916L5.402951384460259 1.7268634256306838L5.464823227814082 1.7268634256306838L5.506071123383298 1.7474873734152916L5.547319018952512 1.7887352689845069" stroke-width="0.03" stroke="#000000" fill="none"/>
<path d="M5.712310601229374 1.9331029034767604L5.91855007907545 1.7268634256306838" stroke-width="0.03" stroke="#000000" fill="none"/>
<path d="M5.794806392367804 1.8506071123383299L5.939174026860058 2.015598694615191" stroke-width="0.03" stroke="#000000" fill="none"/>
<path d="M6.042293765783096 1.8506071123383299L6.2897811391983875 1.8506071123383299L6.2897811391983875 1.8093592167691144L6.26915719141378 1.7681113211998993L6.248533243629172 1.7474873734152916L6.207285348059957 1.7268634256306838L6.145413504706134 1.7268634256306838L6.104165609136919 1.7474873734152916L6.062917713567703 1.7887352689845069L6.042293765783096 1.8506071123383299L6.042293765783096 1.891855007907545L6.062917713567703 1.953726851261368L6.104165609136919 1.9949747468305832L6.145413504706134 2.015598694615191L6.207285348059957 2.015598694615191L6.248533243629172 1.9949747468305832L6.2897811391983875 1.953726851261368" stroke-width="0.03" stroke="#000000" fill="none"/>
<path d="M6.578516408182894 2.015598694615191L6.578516408182894 1.5824957911384305L6.516644564829072 1.6443676344922533L6.475396669259856 1.664991582276861" stroke-width="0.03" stroke="#000000" fill="none"/>
<path d="M5.712310601229374 1.5824957911384305L5.712310601229374 2.015598694615191" stroke-width="0.03" stroke="#000000" fill="none"/>
<path d="M7.264131938244363 2.2599663291074443L1.5 2.2599663291074443" stroke-width="0.03" stroke="#000000" fill="none"/>
<path d="M2.0824957911384305 2.015598694615191L2.0824957911384305 1.7268634256306838" stroke-width="0.03" stroke="#000000" fill="none"/>
<path d="M2.061871843353823 1.5824957911384305L2.0824957911384305 1.6031197389230383L2.1031197389230383 1.5824957911384305L2.0824957911384305 1.5618718433538228L2.061871843353823 1.5824957911384305" stroke-width="0.03" stroke="#000000" fill="none"/>
<path d="M2.226863425630684 1.953726851261368L2.2474873734152916 1.9949747468305832L2.3093592167691144 2.015598694615191L2.3712310601229376 2.015598694615191L2.4331029034767604 1.9949747468305832L2.4537268512613677 1.953726851261368L2.4537268512613677 1.9331029034767604L2.4331029034767604 1.891855007907545L2.391855007907545 1.8712310601229374L2.2887352689845066 1.8506071123383299L2.2474873734152916 1.8299831645537221L2.226863425630684 1.7887352689845069L2.2474873734152916 1.7474873734152916L2.3093592167691144 1.7268634256306838L2.3712310601229376 1.7268634256306838L2.4331029034767604 1.7474873734152916L2.4537268512613677 1.7887352689845069" stroke-width="0.03" stroke="#000000" fill="none"/>
<path d="M2.680590276892052 1.7268634256306838L2.6393423813228365 1.7474873734152916L2.5980944857536215 1.7887352689845069L2.5774705379690137 1.8506071123383299L2.5774705379690137 1.891855007907545L2.5980944857536215 1.953726851261368L2.6393423813228365 1.9949747468305832L2.680590276892052 2.015598694615191L2.7424621202458748 2.015598694615191L2.78371001581509 1.9949747468305832L2.8249579113843053 1.953726851261368L2.845581859168913 1.891855007907545L2.845581859168913 1.8506071123383299L2.8249579113843053 1.7887352689845069L2.78371001581509 1.7474873734152916L2.7424621202458748 1.7268634256306838L2.680590276892052 1.7268634256306838" stroke-width="0.03" stroke="#000000" fill="none"/>
<path d="M2.1147167064178154 2.7109515319598065L2.076477804278544 2.7236978326728973L2.0509852028523623 2.761936734812169L2.038238902139272 2.825668238377622L2.038238902139272 2.8639071405168943L2.0509852028523623 2.927638644082347L2.076477804278544 2.965877546221619L2.1147167064178154 2.9786238469347097L2.140209307843997 2.9786238469347097L2.1784482099832685 2.965877546221619L2.2039408114094496 2.927638644082347L2.2166871121225404 2.8639071405168943L2.2166871121225404 2.825668238377622L2.2039408114094496 2.761936734812169L2.1784482099832685 2.7236978326728973L2.140209307843997 2.7109515319598065L2.1147167064178154 2.7109515319598065" stroke-width="0.03" stroke="#000000" fill="none"/>
<path d="M2.8359374999999996 19.274848547461115L2.34375 19.559013133077883" stroke-width="0.03" stroke="#000000" fill="none"/>
<path d="M2.484375000000001 19.883772659497048L2.34375 19.96496254110184" stroke-width="0.03" stroke="#000000" fill="none"/>
<path d="M13.875 20.370911949125794L13.945312500000002 20.41150688992819" stroke-width="0.03" stroke="#000000" fill="none"/>
</svg>
