<?xml version="1.0" standalone="no"?>
<svg width="21cm" height="29.7cm" version="1.1" xmlns="http://www.w3.org/2000/svg" viewBox="0.0 0.0 21.000001 29.700001">
<path d="M2.5546875 9.126113346862224L3.046875 8.841948761245455L5.15625 10.059796985317323L5.15625 10.465746393341277L4.6640625 10.749910978958045L2.5546875 9.53206275488618L2.5546875 9.126113346862224L4.6640625 10.343961570934091L5.15625 10.059796985317323" stroke-width="0.03" stroke="#000000" fill="none"/>
<path d="M5.15625 10.303366630131695L6.28125 9.653847577293366L6.3515625 9.694442518095762L6.3515625 9.775632399700552L5.296875 10.384556511736488L5.296875 11.845974380622728L4.03125 12.576683315065846L4.03125 13.794531539137715L3.9609375 13.83512647994011L3.8906249999999996 13.794531539137715L3.8906249999999996 12.495493433461057" stroke-width="0.03" stroke="#000000" fill="none"/>
<path d="M3.9609375 12.45489849265866L3.9609375 13.83512647994011" stroke-width="0.03" stroke="#000000" fill="none"/>
<path d="M4.8046875 13.429177071916154L4.8046875 13.10441754549699L5.9296875 12.45489849265866L6.7734375 12.942037782287407" stroke-width="0.03" stroke="#000000" fill="none"/>
<path d="M6.7734375 13.023227663892198L6.210937500000001 13.347987190311363" stroke-width="0.03" stroke="#000000" fill="none"/>
<path d="M6.0703125 13.429177071916154L5.71875 13.632151775928133L5.71875 13.956911302347297L4.8046875 13.429177071916154" stroke-width="0.03" stroke="#000000" fill="none"/>
<path d="M4.8046875 13.10441754549699L5.71875 13.632151775928133" stroke-width="0.03" stroke="#000000" fill="none"/>
<path d="M5.71875 13.956911302347297L6.0703125 13.753936598335319" stroke-width="0.03" stroke="#000000" fill="none"/>
<path d="M6.210937500000001 13.753936598335319L7.40625 13.063822604694593L7.40625 11.683594617413146L7.6875 11.845974380622728L7.6875 13.226202367904175L6.492187500000001 13.9163163615449L6.492187500000001 15.134164585616768L6.210937500000001 14.971784822407185" stroke-width="0.03" stroke="#000000" fill="none"/>
<path d="M6.492187500000001 15.134164585616768L7.546875 14.525240473580833" stroke-width="0.03" stroke="#000000" fill="none"/>
<path d="M7.40625 14.606430355185626L7.40625 14.768810118395209L7.546875 14.85" stroke-width="0.03" stroke="#000000" fill="none"/>
<path d="M7.546875 15.012379763209582L7.3359375 15.134164585616768L7.3359375 16.10844316487426L7.828125 16.39260775049103L7.828125 16.960936921724567L8.671875 17.448076211353314L8.8828125 17.326291388946128" stroke-width="0.03" stroke="#000000" fill="none"/>
<path d="M8.7421875 17.24510150734134L8.7421875 15.864873520059888L7.546875 15.174759526419164L7.546875 14.200480947161669" stroke-width="0.03" stroke="#000000" fill="none"/>
<path d="M7.6875 14.11929106555688L8.0390625 13.9163163615449L9.0234375 14.484645532778439" stroke-width="0.03" stroke="#000000" fill="none"/>
<path d="M9.234375 14.362860710371251L8.7421875 14.647025295988021L8.7421875 14.890594940802394L6.984375 13.875721420742504L6.984375 13.713341657532922L7.265625000000001 13.55096189432334L7.96875 13.956911302347297L7.96875 14.11929106555688L7.6875 14.281670828766462L7.6875 14.11929106555688L6.984375 13.713341657532922" stroke-width="0.03" stroke="#000000" fill="none"/>
<path d="M6.7734375 13.429177071916154L6.703125 13.388582131113758" stroke-width="0.03" stroke="#000000" fill="none"/>
<path d="M6.84375 13.388582131113758L6.84375 13.063822604694593" stroke-width="0.03" stroke="#000000" fill="none"/>
<path d="M6.7734375 13.023227663892198L6.7734375 12.779658019077825L6.84375 12.739063078275429L6.84375 12.65787319667064L7.0546875 12.536088374263452L7.0546875 11.886569321425123" stroke-width="0.03" stroke="#000000" fill="none"/>
<path d="M7.0546875 11.72418955821554L7.0546875 11.318240150191585L6.140625 10.790505919760442L6.421875 10.62812615655086L7.3359375 11.155860386982003L7.3359375 11.561809795005958" stroke-width="0.03" stroke="#000000" fill="none"/>
<path d="M7.3359375 11.72418955821554L7.3359375 12.45489849265866" stroke-width="0.03" stroke="#000000" fill="none"/>
<path d="M7.40625 12.414303551856264L7.125 12.576683315065846" stroke-width="0.03" stroke="#000000" fill="none"/>
<path d="M7.0546875 12.536088374263452L7.40625 12.739063078275429L7.1953125 12.860847900682616L7.1953125 12.942037782287407L7.125 12.982632723089804L7.125 13.226202367904175L6.7734375 13.023227663892198" stroke-width="0.03" stroke="#000000" fill="none"/>
<path d="M6.7734375 12.860847900682616L6.28125 12.576683315065846L6.28125 12.65787319667064" stroke-width="0.03" stroke="#000000" fill="none"/>
<path d="M6.28125 12.576683315065846L6.421875 12.495493433461057L7.1953125 12.942037782287407" stroke-width="0.03" stroke="#000000" fill="none"/>
<path d="M7.1953125 12.860847900682616L6.84375 12.65787319667064" stroke-width="0.03" stroke="#000000" fill="none"/>
<path d="M6.914062500000001 12.617278255868243L6.421875 12.333113670251475L6.421875 12.495493433461057" stroke-width="0.03" stroke="#000000" fill="none"/>
<path d="M6.421875 12.333113670251475L6.492187500000001 12.292518729449078" stroke-width="0.03" stroke="#000000" fill="none"/>
<path d="M6.140625 12.0895440254371L6.140625 10.790505919760442" stroke-width="0.03" stroke="#000000" fill="none"/>
<path d="M6 10.790505919760442L7.546875 9.897417222107741L7.546875 11.44002497259877" stroke-width="0.03" stroke="#000000" fill="none"/>
<path d="M7.3359375 11.155860386982003L7.0546875 11.318240150191585" stroke-width="0.03" stroke="#000000" fill="none"/>
<path d="M7.3359375 11.805379439820332L7.40625 11.764784499017935" stroke-width="0.03" stroke="#000000" fill="none"/>
<path d="M7.3359375 11.886569321425123L7.40625 11.927164262227517" stroke-width="0.03" stroke="#000000" fill="none"/>
<path d="M7.6875 11.845974380622728L8.7421875 11.237050268586794L8.4609375 11.074670505377211" stroke-width="0.03" stroke="#000000" fill="none"/>
<path d="M8.7421875 11.237050268586794L8.7421875 12.45489849265866" stroke-width="0.03" stroke="#000000" fill="none"/>
<path d="M8.7421875 12.292518729449078L8.8828125 12.211328847844287L9.0234375 12.292518729449078" stroke-width="0.03" stroke="#000000" fill="none"/>
<path d="M9.1640625 12.211328847844287L9.1640625 11.967759203029914L10.0078125 11.480619913401167L10.5 11.764784499017935L10.9921875 11.480619913401167L11.835937500000002 11.967759203029914L11.835937500000002 12.211328847844287" stroke-width="0.03" stroke="#000000" fill="none"/>
<path d="M11.976562500000002 12.292518729449078L12.1171875 12.211328847844287L12.2578125 12.292518729449078" stroke-width="0.03" stroke="#000000" fill="none"/>
<path d="M12.2578125 12.45489849265866L12.2578125 11.237050268586794L12.539062500000002 11.074670505377211" stroke-width="0.03" stroke="#000000" fill="none"/>
<path d="M12.2578125 11.237050268586794L13.3125 11.845974380622728L13.593750000000002 11.683594617413146L13.593750000000002 13.063822604694593L14.7890625 13.753936598335319L14.5078125 13.9163163615449L14.5078125 15.134164585616768L14.7890625 14.971784822407185" stroke-width="0.03" stroke="#000000" fill="none"/>
<path d="M14.5078125 15.134164585616768L13.453125 14.525240473580833" stroke-width="0.03" stroke="#000000" fill="none"/>
<path d="M13.593750000000002 14.606430355185626L13.593750000000002 14.768810118395209L13.453125 14.85" stroke-width="0.03" stroke="#000000" fill="none"/>
<path d="M13.453125 15.012379763209582L13.6640625 15.134164585616768L13.6640625 16.10844316487426L13.171875 16.39260775049103L13.171875 16.960936921724567L12.328125000000002 17.448076211353314L12.1171875 17.326291388946128" stroke-width="0.03" stroke="#000000" fill="none"/>
<path d="M11.976562500000002 17.407481270550917L11.976562500000002 17.569861033760503L11.835937500000002 17.651050915365293" stroke-width="0.03" stroke="#000000" fill="none"/>
<path d="M11.6953125 17.569861033760503L12.75 18.178785145796436L12.75 18.5035446722156" stroke-width="0.03" stroke="#000000" fill="none"/>
<path d="M12.75 18.178785145796436L11.6953125 18.78770925783237L10.5 18.097595264191643L9.3046875 18.78770925783237L9.3046875 19.112468784251533L10.5 18.422354790610807L10.5 18.097595264191643" stroke-width="0.03" stroke="#000000" fill="none"/>
<path d="M10.5 18.422354790610807L11.6953125 19.112468784251533L11.6953125 18.78770925783237" stroke-width="0.03" stroke="#000000" fill="none"/>
<path d="M11.625000000000002 19.071873843449136L11.5546875 19.112468784251533" stroke-width="0.03" stroke="#000000" fill="none"/>
<path d="M11.484375000000002 19.071873843449136L11.484375000000002 18.990683961844347" stroke-width="0.03" stroke="#000000" fill="none"/>
<path d="M11.625000000000002 19.15306372505393L10.9921875 18.78770925783237" stroke-width="0.03" stroke="#000000" fill="none"/>
<path d="M11.0625 18.747114317029972L10.78125 18.909494080239554" stroke-width="0.03" stroke="#000000" fill="none"/>
<path d="M10.78125 18.990683961844347L10.570312500000002 19.112468784251533L10.5 19.071873843449136L10.4296875 19.112468784251533L10.218750000000002 18.990683961844347L9.65625 19.31544348826351" stroke-width="0.03" stroke="#000000" fill="none"/>
<path d="M9.515625 19.3966333698683L9.1640625 19.59960807388028L9.1640625 20.655076534742566L8.8828125 20.492696771532984L8.8828125 19.437228310670697L9.234375 19.23425360665872" stroke-width="0.03" stroke="#000000" fill="none"/>
<path d="M9.375 19.15306372505393L10.0078125 18.78770925783237" stroke-width="0.03" stroke="#000000" fill="none"/>
<path d="M9.9375 18.747114317029972L10.218750000000002 18.909494080239554" stroke-width="0.03" stroke="#000000" fill="none"/>
<path d="M10.218750000000002 18.990683961844347L10.218750000000002 18.58473455382039L10.4296875 18.706519376227575L10.5 18.665924435425183L10.570312500000002 18.706519376227575L10.78125 18.58473455382039L10.78125 18.990683961844347L11.34375 19.31544348826351" stroke-width="0.03" stroke="#000000" fill="none"/>
<path d="M11.484375000000002 19.3966333698683L11.835937500000002 19.59960807388028L11.835937500000002 20.655076534742566L10.7109375 20.005557481904233L10.7109375 19.03127890264674" stroke-width="0.03" stroke="#000000" fill="none"/>
<path d="M10.640625 19.071873843449136L10.640625 19.640203014682676L10.7109375 19.59960807388028" stroke-width="0.03" stroke="#000000" fill="none"/>
<path d="M10.640625 19.640203014682676L10.5 19.559013133077883L10.5 18.665924435425183" stroke-width="0.03" stroke="#000000" fill="none"/>
<path d="M10.4296875 18.706519376227575L10.4296875 19.112468784251533" stroke-width="0.03" stroke="#000000" fill="none"/>
<path d="M10.359375 19.071873843449136L10.359375 19.640203014682676L10.5 19.559013133077883" stroke-width="0.03" stroke="#000000" fill="none"/>
<path d="M10.359375 19.640203014682676L10.2890625 19.59960807388028" stroke-width="0.03" stroke="#000000" fill="none"/>
<path d="M10.2890625 20.005557481904233L9.1640625 20.655076534742566" stroke-width="0.03" stroke="#000000" fill="none"/>
<path d="M9.234375 20.776861357149752L10.5 20.04615242270663L11.765625 20.776861357149752L11.765625 21.588760173197663L10.5 20.858051238754545L9.234375 21.588760173197663L8.1796875 20.97983606116173L8.109375 21.020431001964123L8.109375 21.101620883568916L9.234375 21.751139936407245" stroke-width="0.03" stroke="#000000" fill="none"/>
<path d="M9.3046875 21.71054499560485L8.109375 21.020431001964123" stroke-width="0.03" stroke="#000000" fill="none"/>
<path d="M7.6875 22.07589946282641L7.6875 19.883772659497048L9.0234375 19.112468784251533" stroke-width="0.03" stroke="#000000" fill="none"/>
<path d="M8.8828125 19.437228310670697L9.1640625 19.59960807388028" stroke-width="0.03" stroke="#000000" fill="none"/>
<path d="M9.4453125 19.112468784251533L9.375 19.071873843449136" stroke-width="0.03" stroke="#000000" fill="none"/>
<path d="M9.515625 19.071873843449136L9.515625 18.990683961844347" stroke-width="0.03" stroke="#000000" fill="none"/>
<path d="M9.3046875 18.78770925783237L8.25 18.178785145796436L8.25 18.5035446722156" stroke-width="0.03" stroke="#000000" fill="none"/>
<path d="M8.25 18.178785145796436L9.3046875 17.569861033760503" stroke-width="0.03" stroke="#000000" fill="none"/>
<path d="M9.1640625 17.651050915365293L9.0234375 17.569861033760503L9.0234375 17.407481270550917" stroke-width="0.03" stroke="#000000" fill="none"/>
<path d="M8.7421875 17.24510150734134L9.5859375 17.732240796970082" stroke-width="0.03" stroke="#000000" fill="none"/>
<path d="M9.5859375 17.569861033760503L9.867187500000002 17.407481270550917L10.0078125 17.48867115215571L10.0078125 18.30056996820362L9.7265625 18.462949731413204L9.5859375 18.38175984980841L9.5859375 16.352012809688635L9.796875 16.473797632095824L10.2890625 16.189633046479052L10.2890625 15.215354467221559L10.078125 15.093569644814371L10.078125 14.85L9.234375 14.362860710371251" stroke-width="0.03" stroke="#000000" fill="none"/>
<path d="M9.1640625 14.078696124754483L8.7421875 14.322265769568856" stroke-width="0.03" stroke="#000000" fill="none"/>
<path d="M8.671875 14.281670828766462L8.671875 13.875721420742504L8.7421875 13.83512647994011L8.7421875 13.753936598335319L9.09375 13.55096189432334" stroke-width="0.03" stroke="#000000" fill="none"/>
<path d="M9.1640625 13.591556835125736L9.1640625 14.078696124754483" stroke-width="0.03" stroke="#000000" fill="none"/>
<path d="M9.4453125 13.997506243149692L9.4453125 13.429177071916154L9.65625 13.307392249508968L7.898437500000001 12.292518729449078L7.757812499999999 12.37370861105387L7.757812499999999 12.698468137473034L8.4609375 13.10441754549699L8.6015625 13.023227663892198L8.6015625 12.698468137473034L8.4609375 12.779658019077825L7.757812499999999 12.37370861105387" stroke-width="0.03" stroke="#000000" fill="none"/>
<path d="M7.40625 12.333113670251475L7.3359375 12.292518729449078" stroke-width="0.03" stroke="#000000" fill="none"/>
<path d="M6.984375 12.576683315065846L6.140625 12.0895440254371" stroke-width="0.03" stroke="#000000" fill="none"/>
<path d="M6 12.251923788646682L4.734375 12.982632723089804L4.734375 14.768810118395209L2.8359374999999996 13.672746716730527L2.8359374999999996 12.130138966239496" stroke-width="0.03" stroke="#000000" fill="none"/>
<path d="M2.8359374999999996 12.292518729449078L2.34375 12.00835414383231L2.34375 11.845974380622728" stroke-width="0.03" stroke="#000000" fill="none"/>
<path d="M1.5703124999999991 11.399430031796376L1.5703124999999991 10.831100860562838L1.9218750000000004 10.62812615655086L4.03125 11.845974380622728L4.03125 12.414303551856264L3.679687499999999 12.617278255868243L1.5703124999999991 11.399430031796376" stroke-width="0.03" stroke="#000000" fill="none"/>
<path d="M1.5703124999999991 10.831100860562838L3.679687499999999 12.048949084634705L4.03125 11.845974380622728" stroke-width="0.03" stroke="#000000" fill="none"/>
<path d="M3.9609375 11.805379439820332L3.9609375 11.237050268586794L4.1015625 11.155860386982003L4.1015625 10.99348062377242L4.03125 10.952885682970024L4.5234375 10.668721097353256" stroke-width="0.03" stroke="#000000" fill="none"/>
<path d="M4.59375 10.709316038155652L4.1015625 10.99348062377242" stroke-width="0.03" stroke="#000000" fill="none"/>
<path d="M4.03125 10.952885682970024L4.03125 11.115265446179606L4.1015625 11.155860386982003" stroke-width="0.03" stroke="#000000" fill="none"/>
<path d="M4.03125 11.115265446179606L3.8906249999999996 11.196455327784399L3.8906249999999996 11.764784499017935" stroke-width="0.03" stroke="#000000" fill="none"/>
<path d="M3.679687499999999 12.048949084634705L3.679687499999999 12.617278255868243" stroke-width="0.03" stroke="#000000" fill="none"/>
<path d="M4.03125 12.576683315065846L4.734375 12.982632723089804" stroke-width="0.03" stroke="#000000" fill="none"/>
<path d="M5.296875 11.845974380622728L6 12.251923788646682L6 10.790505919760442L5.296875 10.384556511736488" stroke-width="0.03" stroke="#000000" fill="none"/>
<path d="M5.15625 10.384556511736488L6.3515625 9.694442518095762" stroke-width="0.03" stroke="#000000" fill="none"/>
<path d="M5.6484375 8.80135382044306L4.3125 9.572657695688576" stroke-width="0.03" stroke="#000000" fill="none"/>
<path d="M4.453125 9.491467814083784L3.9609375 9.207303228467016L3.8203125000000004 9.288493110071807" stroke-width="0.03" stroke="#000000" fill="none"/>
<path d="M3.679687499999999 10.181581807724509L3.679687499999999 10.668721097353256L4.1015625 10.912290742167627L4.1015625 10.42515145253888" stroke-width="0.03" stroke="#000000" fill="none"/>
<path d="M4.6640625 10.343961570934091L4.6640625 10.749910978958045" stroke-width="0.03" stroke="#000000" fill="none"/>
<path d="M3.9609375 11.237050268586794L3.8906249999999996 11.196455327784399" stroke-width="0.03" stroke="#000000" fill="none"/>
<path d="M3.8906249999999996 11.277645209389188L3.46875 11.521214854203564" stroke-width="0.03" stroke="#000000" fill="none"/>
<path d="M3.46875 11.034075564574817L3.046875 11.277645209389188" stroke-width="0.03" stroke="#000000" fill="none"/>
<path d="M3.46875 11.034075564574817L3.8906249999999996 11.277645209389188" stroke-width="0.03" stroke="#000000" fill="none"/>
<path d="M2.8359374999999996 13.347987190311363L2.203125 13.713341657532922L2.203125 15.174759526419164L3.8203125000000004 16.10844316487426" stroke-width="0.03" stroke="#000000" fill="none"/>
<path d="M3.8203125000000004 16.352012809688635L2.8359374999999996 15.783683638455097L2.8359374999999996 15.540113993640723" stroke-width="0.03" stroke="#000000" fill="none"/>
<path d="M3.3984375 16.10844316487426L3.3984375 16.920341980922174" stroke-width="0.03" stroke="#000000" fill="none"/>
<path d="M3.3984375 16.83915209931738L3.328125000000001 16.79855715851499L2.624999999999999 17.204506566538942L2.624999999999999 18.828304198634765L3.1171875 19.112468784251533L3.1171875 19.68079795548507L4.5234375 20.492696771532984L5.2265625 20.086747363509026L5.2265625 20.005557481904233" stroke-width="0.03" stroke="#000000" fill="none"/>
<path d="M5.15625 19.96496254110184L5.859375000000001 20.370911949125794" stroke-width="0.03" stroke="#000000" fill="none"/>
<path d="M6.0703125 20.005557481904233L6.0703125 21.87292475881443L7.3359375 22.603633693257553L7.96875 22.238279226035992" stroke-width="0.03" stroke="#000000" fill="none"/>
<path d="M7.6875 22.07589946282641L9.0234375 22.847203338071925" stroke-width="0.03" stroke="#000000" fill="none"/>
<path d="M8.8828125 22.76601345646713L8.8828125 23.33434262770067L9.0234375 23.41553250930546" stroke-width="0.03" stroke="#000000" fill="none"/>
<path d="M9.0234375 24.308621206958165L9.0234375 21.87292475881443L9.375 21.669950054802452L9.867187500000002 21.954114640419224L9.867187500000002 24.389811088562954L9.515625 24.592785792574933L9.0234375 24.308621206958165" stroke-width="0.03" stroke="#000000" fill="none"/>
<path d="M9.515625 24.592785792574933L9.515625 22.157089344431203L9.0234375 21.87292475881443" stroke-width="0.03" stroke="#000000" fill="none"/>
<path d="M9.234375 21.588760173197663L9.234375 20.776861357149752L7.6875 19.883772659497048" stroke-width="0.03" stroke="#000000" fill="none"/>
<path d="M6.914062500000001 20.41150688992819L6.84375 20.452101830730584L4.6640625 19.193658665856326L4.6640625 19.112468784251533" stroke-width="0.03" stroke="#000000" fill="none"/>
<path d="M4.875 19.31544348826351L4.875 20.12734230431142L5.3671875 19.843177718694655L5.3671875 19.59960807388028" stroke-width="0.03" stroke="#000000" fill="none"/>
<path d="M5.15625 19.31544348826351L5.0859375 19.356038429065904L4.03125 18.747114317029972L4.03125 18.58473455382039L3.8906249999999996 18.5035446722156L3.8906249999999996 17.28569644814373L3.9609375 17.24510150734134L4.03125 17.28569644814373" stroke-width="0.03" stroke="#000000" fill="none"/>
<path d="M4.03125 17.366886329748525L4.03125 15.580708934443118L4.1015625 15.540113993640723L5.15625 16.14903810567666L5.15625 17.93521550098206L5.0859375 17.975810441784457L6.6328125 18.86889913943716L6.6328125 20.086747363509026L5.0859375 19.193658665856326L5.0859375 19.356038429065904" stroke-width="0.03" stroke="#000000" fill="none"/>
<path d="M5.15625 19.31544348826351L5.15625 19.23425360665872" stroke-width="0.03" stroke="#000000" fill="none"/>
<path d="M4.875 20.12734230431142L4.5234375 19.924367600299444L4.5234375 20.492696771532984" stroke-width="0.03" stroke="#000000" fill="none"/>
<path d="M5.859375000000001 21.020431001964123L5.859375000000001 19.883772659497048" stroke-width="0.03" stroke="#000000" fill="none"/>
<path d="M6.6328125 20.086747363509026L6.703125 20.04615242270663L6.703125 18.828304198634765L5.15625 17.93521550098206" stroke-width="0.03" stroke="#000000" fill="none"/>
<path d="M5.0859375 17.975810441784457L5.0859375 16.189633046479052L4.03125 15.580708934443118" stroke-width="0.03" stroke="#000000" fill="none"/>
<path d="M3.8203125000000004 15.215354467221559L3.8906249999999996 15.174759526419164L6.492187500000001 16.6767723361078L7.40625 16.14903810567666" stroke-width="0.03" stroke="#000000" fill="none"/>
<path d="M7.546875 16.230227987281445L6.5625 16.79855715851499L6.5625 17.123316684934153L6.84375 17.28569644814373L7.828125 16.717367276910196" stroke-width="0.03" stroke="#000000" fill="none"/>
<path d="M7.828125 16.879747040119774L6.914062500000001 17.407481270550917L6.914062500000001 20.41150688992819" stroke-width="0.03" stroke="#000000" fill="none"/>
<path d="M6.84375 20.452101830730584L6.84375 17.28569644814373" stroke-width="0.03" stroke="#000000" fill="none"/>
<path d="M6.914062500000001 17.407481270550917L7.3359375 17.651050915365293L7.3359375 22.603633693257553" stroke-width="0.03" stroke="#000000" fill="none"/>
<path d="M6.0703125 21.142215824371313L5.859375000000001 21.020431001964123" stroke-width="0.03" stroke="#000000" fill="none"/>
<path d="M6.6328125 18.86889913943716L6.703125 18.828304198634765" stroke-width="0.03" stroke="#000000" fill="none"/>
<path d="M6.3515625 18.38175984980841L6.140625 18.5035446722156L6.140625 17.77283573777248L6.3515625 17.651050915365293" stroke-width="0.03" stroke="#000000" fill="none"/>
<path d="M6.3515625 17.569861033760503L6.0703125 17.407481270550917L6.0703125 17.082721744131756" stroke-width="0.03" stroke="#000000" fill="none"/>
<path d="M6 17.04212680332936L5.7890625 17.163911625736546L5.15625 16.79855715851499L5.3671875 16.6767723361078L6.3515625 17.24510150734134L6.3515625 18.38175984980841" stroke-width="0.03" stroke="#000000" fill="none"/>
<path d="M6.140625 17.77283573777248L5.7890625 17.569861033760503L5.7890625 17.163911625736546" stroke-width="0.03" stroke="#000000" fill="none"/>
<path d="M6.0703125 17.407481270550917L5.7890625 17.569861033760503" stroke-width="0.03" stroke="#000000" fill="none"/>
<path d="M5.6484375 17.651050915365293L5.6484375 18.219380086598832" stroke-width="0.03" stroke="#000000" fill="none"/>
<path d="M5.6484375 17.651050915365293L5.15625 17.366886329748525" stroke-width="0.03" stroke="#000000" fill="none"/>
<path d="M4.03125 17.366886329748525L3.8906249999999996 17.28569644814373" stroke-width="0.03" stroke="#000000" fill="none"/>
<path d="M3.8203125000000004 17.48867115215571L3.1171875 17.082721744131756L3.1171875 17.48867115215571L2.624999999999999 17.204506566538942" stroke-width="0.03" stroke="#000000" fill="none"/>
<path d="M3.1171875 17.082721744131756L3.609375 16.79855715851499L3.8203125000000004 16.920341980922174" stroke-width="0.03" stroke="#000000" fill="none"/>
<path d="M3.8203125000000004 17.732240796970082L3.8203125000000004 15.215354467221559L6.5625 16.79855715851499" stroke-width="0.03" stroke="#000000" fill="none"/>
<path d="M6.492187500000001 16.6767723361078L6.492187500000001 16.189633046479052L7.3359375 15.702493756850306" stroke-width="0.03" stroke="#000000" fill="none"/>
<path d="M7.3359375 15.134164585616768L7.898437500000001 15.458924112035932L7.898437500000001 16.352012809688635L8.671875 16.79855715851499L8.671875 17.448076211353314" stroke-width="0.03" stroke="#000000" fill="none"/>
<path d="M8.1796875 17.163911625736546L7.3359375 17.651050915365293" stroke-width="0.03" stroke="#000000" fill="none"/>
<path d="M7.6171875 18.13819020499404L7.546875 18.178785145796436L7.546875 18.259975027401225L9.796875 19.559013133077883L9.867187500000002 19.51841819227549L9.867187500000002 19.437228310670697L7.6171875 18.13819020499404" stroke-width="0.03" stroke="#000000" fill="none"/>
<path d="M7.546875 18.178785145796436L9.796875 19.477823251473097L9.796875 19.559013133077883" stroke-width="0.03" stroke="#000000" fill="none"/>
<path d="M9.796875 19.477823251473097L9.867187500000002 19.437228310670697" stroke-width="0.03" stroke="#000000" fill="none"/>
<path d="M9.867187500000002 18.86889913943716L9.867187500000002 18.78770925783237" stroke-width="0.03" stroke="#000000" fill="none"/>
<path d="M9.7265625 18.462949731413204L9.7265625 17.651050915365293L10.078125 17.448076211353314L10.078125 16.311417868886238" stroke-width="0.03" stroke="#000000" fill="none"/>
<path d="M10.1484375 16.59558245450301L10.5 16.79855715851499L10.8515625 16.59558245450301" stroke-width="0.03" stroke="#000000" fill="none"/>
<path d="M10.921875000000002 16.636177395305403L10.5 16.39260775049103L10.078125 16.636177395305403" stroke-width="0.03" stroke="#000000" fill="none"/>
<path d="M10.078125 16.717367276910196L10.4296875 16.920341980922174L10.4296875 17.082721744131756L10.078125 16.879747040119774" stroke-width="0.03" stroke="#000000" fill="none"/>
<path d="M10.1484375 16.920341980922174L10.1484375 17.24510150734134L10.5 17.04212680332936L10.5 16.879747040119774L10.570312500000002 16.920341980922174L10.570312500000002 17.082721744131756L10.921875000000002 16.879747040119774" stroke-width="0.03" stroke="#000000" fill="none"/>
<path d="M10.8515625 16.920341980922174L10.8515625 17.24510150734134L10.921875000000002 17.204506566538942" stroke-width="0.03" stroke="#000000" fill="none"/>
<path d="M10.8515625 17.24510150734134L10.5 17.04212680332936" stroke-width="0.03" stroke="#000000" fill="none"/>
<path d="M10.4296875 16.920341980922174L10.5 16.879747040119774" stroke-width="0.03" stroke="#000000" fill="none"/>
<path d="M10.5 16.79855715851499L10.5 15.7430886976527L10.2890625 15.864873520059888" stroke-width="0.03" stroke="#000000" fill="none"/>
<path d="M10.5 15.7430886976527L10.7109375 15.864873520059888" stroke-width="0.03" stroke="#000000" fill="none"/>
<path d="M10.7109375 16.189633046479052L10.7109375 15.215354467221559L10.921875000000002 15.093569644814371L10.921875000000002 14.85L11.765625 14.362860710371251L12.2578125 14.647025295988021L12.2578125 14.890594940802394L14.015625 13.875721420742504L14.015625 13.713341657532922L13.734375 13.55096189432334L13.031250000000002 13.956911302347297L13.031250000000002 14.11929106555688L13.3125 14.281670828766462L13.3125 14.11929106555688L14.015625 13.713341657532922" stroke-width="0.03" stroke="#000000" fill="none"/>
<path d="M14.2265625 13.429177071916154L14.296875000000002 13.388582131113758" stroke-width="0.03" stroke="#000000" fill="none"/>
<path d="M14.15625 13.388582131113758L14.15625 13.063822604694593" stroke-width="0.03" stroke="#000000" fill="none"/>
<path d="M14.2265625 13.023227663892198L13.875 13.226202367904175L13.875 12.982632723089804L13.8046875 12.942037782287407L13.8046875 12.860847900682616L13.593750000000002 12.739063078275429L13.945312500000002 12.536088374263452L13.945312500000002 11.886569321425123" stroke-width="0.03" stroke="#000000" fill="none"/>
<path d="M13.945312500000002 11.72418955821554L13.945312500000002 11.318240150191585L14.859375 10.790505919760442L14.578125 10.62812615655086L13.6640625 11.155860386982003L13.6640625 11.561809795005958" stroke-width="0.03" stroke="#000000" fill="none"/>
<path d="M13.6640625 11.72418955821554L13.6640625 12.45489849265866" stroke-width="0.03" stroke="#000000" fill="none"/>
<path d="M13.593750000000002 12.414303551856264L13.875 12.576683315065846" stroke-width="0.03" stroke="#000000" fill="none"/>
<path d="M13.945312500000002 12.536088374263452L14.15625 12.65787319667064L14.15625 12.739063078275429L14.2265625 12.779658019077825L14.2265625 13.023227663892198L14.7890625 13.347987190311363" stroke-width="0.03" stroke="#000000" fill="none"/>
<path d="M14.9296875 13.429177071916154L15.28125 13.632151775928133L15.28125 13.956911302347297L16.1953125 13.429177071916154L16.1953125 13.10441754549699L15.070312500000002 12.45489849265866L14.2265625 12.942037782287407" stroke-width="0.03" stroke="#000000" fill="none"/>
<path d="M14.2265625 12.860847900682616L14.718749999999998 12.576683315065846L14.578125 12.495493433461057L13.8046875 12.942037782287407" stroke-width="0.03" stroke="#000000" fill="none"/>
<path d="M13.8046875 12.860847900682616L14.15625 12.65787319667064" stroke-width="0.03" stroke="#000000" fill="none"/>
<path d="M14.0859375 12.617278255868243L14.578125 12.333113670251475L14.5078125 12.292518729449078" stroke-width="0.03" stroke="#000000" fill="none"/>
<path d="M14.578125 12.333113670251475L14.578125 12.495493433461057" stroke-width="0.03" stroke="#000000" fill="none"/>
<path d="M14.718749999999998 12.576683315065846L14.718749999999998 12.65787319667064" stroke-width="0.03" stroke="#000000" fill="none"/>
<path d="M14.859375 13.063822604694593L14.7890625 13.10441754549699L14.7890625 15.702493756850306L14.859375 15.7430886976527L14.9296875 15.702493756850306L14.9296875 13.10441754549699L14.859375 13.063822604694593" stroke-width="0.03" stroke="#000000" fill="none"/>
<path d="M14.9296875 13.10441754549699L14.859375 13.145012486299386L14.859375 15.7430886976527" stroke-width="0.03" stroke="#000000" fill="none"/>
<path d="M14.5078125 16.189633046479052L18.796875 13.713341657532922L18.796875 15.174759526419164L17.1796875 16.10844316487426" stroke-width="0.03" stroke="#000000" fill="none"/>
<path d="M17.1796875 16.352012809688635L18.1640625 15.783683638455097L18.1640625 15.540113993640723" stroke-width="0.03" stroke="#000000" fill="none"/>
<path d="M17.6015625 16.10844316487426L17.6015625 16.920341980922174" stroke-width="0.03" stroke="#000000" fill="none"/>
<path d="M17.6015625 16.83915209931738L17.671875 16.79855715851499L18.375 17.204506566538942L18.375 18.828304198634765L17.882812500000004 19.112468784251533L17.882812500000004 19.68079795548507L16.4765625 20.492696771532984L15.773437500000002 20.086747363509026L15.773437500000002 20.005557481904233" stroke-width="0.03" stroke="#000000" fill="none"/>
<path d="M15.843750000000002 19.96496254110184L15.140625 20.370911949125794" stroke-width="0.03" stroke="#000000" fill="none"/>
<path d="M14.9296875 20.005557481904233L14.9296875 21.87292475881443L13.6640625 22.603633693257553L13.031250000000002 22.238279226035992" stroke-width="0.03" stroke="#000000" fill="none"/>
<path d="M13.3125 22.07589946282641L11.976562500000002 22.847203338071925" stroke-width="0.03" stroke="#000000" fill="none"/>
<path d="M12.1171875 22.76601345646713L12.1171875 23.33434262770067L11.976562500000002 23.41553250930546" stroke-width="0.03" stroke="#000000" fill="none"/>
<path d="M11.976562500000002 24.308621206958165L11.484375000000002 24.592785792574933L11.1328125 24.389811088562954L11.1328125 21.954114640419224L11.625000000000002 21.669950054802452L11.976562500000002 21.87292475881443L11.976562500000002 24.308621206958165" stroke-width="0.03" stroke="#000000" fill="none"/>
<path d="M11.484375000000002 24.592785792574933L11.484375000000002 22.157089344431203L11.976562500000002 21.87292475881443" stroke-width="0.03" stroke="#000000" fill="none"/>
<path d="M11.765625 21.751139936407245L12.890625000000002 21.101620883568916L12.890625000000002 21.020431001964123L12.8203125 20.97983606116173L11.765625 21.588760173197663" stroke-width="0.03" stroke="#000000" fill="none"/>
<path d="M11.6953125 21.71054499560485L12.890625000000002 21.020431001964123" stroke-width="0.03" stroke="#000000" fill="none"/>
<path d="M12.1171875 20.492696771532984L11.835937500000002 20.655076534742566" stroke-width="0.03" stroke="#000000" fill="none"/>
<path d="M11.765625 20.776861357149752L13.3125 19.883772659497048L11.976562500000002 19.112468784251533" stroke-width="0.03" stroke="#000000" fill="none"/>
<path d="M11.765625 19.23425360665872L12.1171875 19.437228310670697L12.1171875 20.492696771532984" stroke-width="0.03" stroke="#000000" fill="none"/>
<path d="M11.835937500000002 19.59960807388028L12.1171875 19.437228310670697" stroke-width="0.03" stroke="#000000" fill="none"/>
<path d="M11.203125 19.477823251473097L13.453125 18.178785145796436L13.382812500000002 18.13819020499404L11.1328125 19.437228310670697L11.1328125 19.51841819227549L11.203125 19.559013133077883L13.453125 18.259975027401225L13.453125 18.178785145796436" stroke-width="0.03" stroke="#000000" fill="none"/>
<path d="M13.6640625 17.651050915365293L14.0859375 17.407481270550917L13.171875 16.879747040119774" stroke-width="0.03" stroke="#000000" fill="none"/>
<path d="M13.171875 16.717367276910196L14.15625 17.28569644814373L14.437500000000002 17.123316684934153L14.437500000000002 16.79855715851499L13.453125 16.230227987281445" stroke-width="0.03" stroke="#000000" fill="none"/>
<path d="M13.593750000000002 16.14903810567666L14.5078125 16.6767723361078L17.109375 15.174759526419164L17.1796875 15.215354467221559L17.1796875 17.732240796970082L17.109375 17.77283573777248" stroke-width="0.03" stroke="#000000" fill="none"/>
<path d="M17.1796875 17.48867115215571L17.882812500000004 17.082721744131756L17.882812500000004 17.48867115215571L18.375 17.204506566538942" stroke-width="0.03" stroke="#000000" fill="none"/>
<path d="M17.882812500000004 17.082721744131756L17.390625 16.79855715851499L17.1796875 16.920341980922174" stroke-width="0.03" stroke="#000000" fill="none"/>
<path d="M17.0390625 17.24510150734134L16.96875 17.28569644814373" stroke-width="0.03" stroke="#000000" fill="none"/>
<path d="M17.0390625 17.24510150734134L17.109375 17.28569644814373L17.109375 18.5035446722156L16.96875 18.58473455382039L16.96875 18.747114317029972L15.9140625 19.356038429065904L15.843750000000002 19.31544348826351L15.843750000000002 19.23425360665872" stroke-width="0.03" stroke="#000000" fill="none"/>
<path d="M15.9140625 19.193658665856326L14.367187500000002 20.086747363509026L14.296875000000002 20.04615242270663L14.296875000000002 18.828304198634765L15.843750000000002 17.93521550098206L15.843750000000002 16.14903810567666L16.8984375 15.540113993640723L16.96875 15.580708934443118L16.96875 17.366886329748525L17.109375 17.28569644814373" stroke-width="0.03" stroke="#000000" fill="none"/>
<path d="M15.843750000000002 17.366886329748525L15.351562500000002 17.651050915365293L15.351562500000002 18.219380086598832" stroke-width="0.03" stroke="#000000" fill="none"/>
<path d="M14.859375 18.5035446722156L14.859375 17.77283573777248L14.648437500000002 17.651050915365293" stroke-width="0.03" stroke="#000000" fill="none"/>
<path d="M14.648437500000002 17.569861033760503L14.9296875 17.407481270550917L14.9296875 17.082721744131756" stroke-width="0.03" stroke="#000000" fill="none"/>
<path d="M15.000000000000002 17.04212680332936L15.2109375 17.163911625736546L15.843750000000002 16.79855715851499L15.6328125 16.6767723361078L14.648437500000002 17.24510150734134L14.648437500000002 18.38175984980841L14.859375 18.5035446722156" stroke-width="0.03" stroke="#000000" fill="none"/>
<path d="M14.367187500000002 18.86889913943716L15.9140625 17.975810441784457L15.9140625 16.189633046479052L16.96875 15.580708934443118" stroke-width="0.03" stroke="#000000" fill="none"/>
<path d="M17.1796875 15.215354467221559L14.437500000000002 16.79855715851499" stroke-width="0.03" stroke="#000000" fill="none"/>
<path d="M14.5078125 16.6767723361078L14.5078125 16.189633046479052L13.6640625 15.702493756850306" stroke-width="0.03" stroke="#000000" fill="none"/>
<path d="M13.453125 15.174759526419164L12.2578125 15.864873520059888L12.2578125 17.24510150734134L11.4140625 17.732240796970082" stroke-width="0.03" stroke="#000000" fill="none"/>
<path d="M11.4140625 17.569861033760503L11.273437500000002 17.651050915365293L10.921875000000002 17.448076211353314L10.921875000000002 16.311417868886238" stroke-width="0.03" stroke="#000000" fill="none"/>
<path d="M10.7109375 16.189633046479052L11.203125 16.473797632095824L11.4140625 16.352012809688635L11.4140625 18.38175984980841L11.273437500000002 18.462949731413204L10.9921875 18.30056996820362L10.9921875 17.48867115215571L11.1328125 17.407481270550917L11.4140625 17.569861033760503" stroke-width="0.03" stroke="#000000" fill="none"/>
<path d="M11.273437500000002 17.651050915365293L11.273437500000002 18.462949731413204" stroke-width="0.03" stroke="#000000" fill="none"/>
<path d="M11.1328125 18.78770925783237L11.1328125 18.86889913943716" stroke-width="0.03" stroke="#000000" fill="none"/>
<path d="M11.1328125 19.437228310670697L11.203125 19.477823251473097L11.203125 19.559013133077883" stroke-width="0.03" stroke="#000000" fill="none"/>
<path d="M10.570312500000002 19.112468784251533L10.570312500000002 18.706519376227575" stroke-width="0.03" stroke="#000000" fill="none"/>
<path d="M10.2890625 19.03127890264674L10.2890625 20.005557481904233" stroke-width="0.03" stroke="#000000" fill="none"/>
<path d="M10.5 20.04615242270663L10.5 20.858051238754545" stroke-width="0.03" stroke="#000000" fill="none"/>
<path d="M9.867187500000002 21.954114640419224L9.515625 22.157089344431203" stroke-width="0.03" stroke="#000000" fill="none"/>
<path d="M9.867187500000002 22.116494403628806L10.359375 22.400658989245574L10.5 22.31946910764078L10.5 22.238279226035992L10.359375 22.31946910764078L9.867187500000002 22.035304522024013" stroke-width="0.03" stroke="#000000" fill="none"/>
<path d="M10.2890625 22.360064048443178L9.867187500000002 22.603633693257553" stroke-width="0.03" stroke="#000000" fill="none"/>
<path d="M9.867187500000002 23.090772982886296L10.2890625 22.847203338071925L10.2890625 22.360064048443178" stroke-width="0.03" stroke="#000000" fill="none"/>
<path d="M10.359375 22.31946910764078L10.359375 22.400658989245574" stroke-width="0.03" stroke="#000000" fill="none"/>
<path d="M10.5 22.31946910764078L10.640625 22.400658989245574L11.1328125 22.116494403628806" stroke-width="0.03" stroke="#000000" fill="none"/>
<path d="M11.1328125 22.035304522024013L10.640625 22.31946910764078L10.5 22.238279226035992" stroke-width="0.03" stroke="#000000" fill="none"/>
<path d="M10.640625 22.31946910764078L10.640625 22.400658989245574" stroke-width="0.03" stroke="#000000" fill="none"/>
<path d="M10.7109375 22.360064048443178L10.7109375 22.847203338071925L11.1328125 23.090772982886296" stroke-width="0.03" stroke="#000000" fill="none"/>
<path d="M11.1328125 22.603633693257553L10.7109375 22.360064048443178" stroke-width="0.03" stroke="#000000" fill="none"/>
<path d="M11.1328125 21.954114640419224L11.484375000000002 22.157089344431203" stroke-width="0.03" stroke="#000000" fill="none"/>
<path d="M13.3125 22.07589946282641L13.3125 19.883772659497048" stroke-width="0.03" stroke="#000000" fill="none"/>
<path d="M14.0859375 20.41150688992819L14.0859375 17.407481270550917" stroke-width="0.03" stroke="#000000" fill="none"/>
<path d="M14.15625 17.28569644814373L14.15625 20.452101830730584L14.0859375 20.41150688992819" stroke-width="0.03" stroke="#000000" fill="none"/>
<path d="M14.15625 20.452101830730584L16.3359375 19.193658665856326L16.3359375 19.112468784251533" stroke-width="0.03" stroke="#000000" fill="none"/>
<path d="M16.125 19.31544348826351L16.125 20.12734230431142L15.6328125 19.843177718694655L15.6328125 19.59960807388028" stroke-width="0.03" stroke="#000000" fill="none"/>
<path d="M15.9140625 19.356038429065904L15.9140625 19.193658665856326" stroke-width="0.03" stroke="#000000" fill="none"/>
<path d="M16.4765625 19.924367600299444L16.125 20.12734230431142" stroke-width="0.03" stroke="#000000" fill="none"/>
<path d="M16.4765625 19.924367600299444L16.4765625 20.492696771532984" stroke-width="0.03" stroke="#000000" fill="none"/>
<path d="M15.140625 21.020431001964123L14.9296875 21.142215824371313" stroke-width="0.03" stroke="#000000" fill="none"/>
<path d="M15.140625 21.020431001964123L15.140625 19.883772659497048" stroke-width="0.03" stroke="#000000" fill="none"/>
<path d="M14.367187500000002 20.086747363509026L14.367187500000002 18.86889913943716L14.296875000000002 18.828304198634765" stroke-width="0.03" stroke="#000000" fill="none"/>
<path d="M14.859375 17.77283573777248L15.2109375 17.569861033760503L15.2109375 17.163911625736546" stroke-width="0.03" stroke="#000000" fill="none"/>
<path d="M14.9296875 17.407481270550917L15.2109375 17.569861033760503" stroke-width="0.03" stroke="#000000" fill="none"/>
<path d="M15.843750000000002 17.93521550098206L15.9140625 17.975810441784457" stroke-width="0.03" stroke="#000000" fill="none"/>
<path d="M14.437500000000002 17.123316684934153L13.171875 16.39260775049103" stroke-width="0.03" stroke="#000000" fill="none"/>
<path d="M13.1015625 16.352012809688635L12.328125000000002 16.79855715851499L12.328125000000002 17.448076211353314" stroke-width="0.03" stroke="#000000" fill="none"/>
<path d="M12.8203125 17.163911625736546L13.6640625 17.651050915365293L13.6640625 22.603633693257553" stroke-width="0.03" stroke="#000000" fill="none"/>
<path d="M12.328125000000002 16.79855715851499L12.2578125 16.75796221771259" stroke-width="0.03" stroke="#000000" fill="none"/>
<path d="M12.2578125 15.864873520059888L13.1015625 16.352012809688635L13.1015625 15.458924112035932L13.031250000000002 15.418329171233536" stroke-width="0.03" stroke="#000000" fill="none"/>
<path d="M13.1015625 15.458924112035932L13.6640625 15.134164585616768" stroke-width="0.03" stroke="#000000" fill="none"/>
<path d="M13.453125 15.174759526419164L13.453125 14.200480947161669" stroke-width="0.03" stroke="#000000" fill="none"/>
<path d="M13.3125 14.11929106555688L12.9609375 13.9163163615449L11.976562500000002 14.484645532778439" stroke-width="0.03" stroke="#000000" fill="none"/>
<path d="M12.187500000000002 14.281670828766462L12.187500000000002 13.875721420742504L11.835937500000002 13.672746716730527" stroke-width="0.03" stroke="#000000" fill="none"/>
<path d="M11.835937500000002 13.591556835125736L11.835937500000002 14.078696124754483L12.2578125 14.322265769568856" stroke-width="0.03" stroke="#000000" fill="none"/>
<path d="M12.328125000000002 14.281670828766462L12.328125000000002 13.875721420742504L12.46875 13.794531539137715L12.46875 14.200480947161669" stroke-width="0.03" stroke="#000000" fill="none"/>
<path d="M12.46875 14.11929106555688L12.75 13.956911302347297L12.3984375 13.753936598335319L12.3984375 13.347987190311363L12.328125000000002 13.307392249508968" stroke-width="0.03" stroke="#000000" fill="none"/>
<path d="M12.3984375 13.347987190311363L12.1171875 13.510366953520945" stroke-width="0.03" stroke="#000000" fill="none"/>
<path d="M12.046875 13.46977201271855L12.3984375 13.672746716730527L12.2578125 13.753936598335319L12.2578125 13.83512647994011L12.328125000000002 13.875721420742504" stroke-width="0.03" stroke="#000000" fill="none"/>
<path d="M12.2578125 13.83512647994011L12.3984375 13.753936598335319" stroke-width="0.03" stroke="#000000" fill="none"/>
<path d="M12.2578125 13.753936598335319L11.90625 13.55096189432334" stroke-width="0.03" stroke="#000000" fill="none"/>
<path d="M11.5546875 13.429177071916154L10.7109375 13.9163163615449L10.5 13.794531539137715L10.2890625 13.9163163615449L9.4453125 13.429177071916154" stroke-width="0.03" stroke="#000000" fill="none"/>
<path d="M9.4453125 13.753936598335319L8.4609375 13.18560742710178L8.4609375 12.779658019077825" stroke-width="0.03" stroke="#000000" fill="none"/>
<path d="M8.4609375 12.617278255868243L9.3046875 12.130138966239496L10.5 12.820252959880222L11.6953125 12.130138966239496L12.539062500000002 12.617278255868243" stroke-width="0.03" stroke="#000000" fill="none"/>
<path d="M12.539062500000002 12.779658019077825L13.242187500000002 12.37370861105387L13.242187500000002 12.698468137473034L12.539062500000002 13.10441754549699L12.3984375 13.023227663892198L12.3984375 12.698468137473034L12.539062500000002 12.779658019077825L12.539062500000002 13.18560742710178L11.5546875 13.753936598335319" stroke-width="0.03" stroke="#000000" fill="none"/>
<path d="M11.5546875 13.997506243149692L10.7109375 14.484645532778439L10.5 14.362860710371251L10.2890625 14.484645532778439L9.4453125 13.997506243149692" stroke-width="0.03" stroke="#000000" fill="none"/>
<path d="M9.7265625 14.159886006359274L9.7265625 14.403455651173648L9.515625 14.525240473580833" stroke-width="0.03" stroke="#000000" fill="none"/>
<path d="M9.7265625 14.403455651173648L8.8125 13.875721420742504L8.8125 14.281670828766462" stroke-width="0.03" stroke="#000000" fill="none"/>
<path d="M8.53125 14.200480947161669L8.53125 13.794531539137715L8.671875 13.875721420742504" stroke-width="0.03" stroke="#000000" fill="none"/>
<path d="M8.7421875 13.83512647994011L8.6015625 13.753936598335319L8.6015625 13.347987190311363L8.671875 13.307392249508968" stroke-width="0.03" stroke="#000000" fill="none"/>
<path d="M8.6015625 13.347987190311363L8.8828125 13.510366953520945" stroke-width="0.03" stroke="#000000" fill="none"/>
<path d="M8.953125 13.46977201271855L8.6015625 13.672746716730527L8.7421875 13.753936598335319" stroke-width="0.03" stroke="#000000" fill="none"/>
<path d="M8.8125 13.875721420742504L9.1640625 13.672746716730527" stroke-width="0.03" stroke="#000000" fill="none"/>
<path d="M8.6015625 13.753936598335319L8.25 13.956911302347297L8.25 14.038101183952087" stroke-width="0.03" stroke="#000000" fill="none"/>
<path d="M8.25 13.956911302347297L8.53125 14.11929106555688" stroke-width="0.03" stroke="#000000" fill="none"/>
<path d="M8.7421875 14.647025295988021L9.5859375 15.134164585616768L10.078125 14.85" stroke-width="0.03" stroke="#000000" fill="none"/>
<path d="M10.1484375 15.052974704011977L10.1484375 14.647025295988021L10.5 14.444050591976044L10.8515625 14.647025295988021L10.8515625 15.052974704011977L10.5 15.255949408023953L10.1484375 15.052974704011977" stroke-width="0.03" stroke="#000000" fill="none"/>
<path d="M10.2890625 15.215354467221559L9.796875 15.499519052838329L9.796875 16.473797632095824" stroke-width="0.03" stroke="#000000" fill="none"/>
<path d="M10.078125 17.204506566538942L10.1484375 17.24510150734134" stroke-width="0.03" stroke="#000000" fill="none"/>
<path d="M10.570312500000002 16.920341980922174L10.921875000000002 16.717367276910196" stroke-width="0.03" stroke="#000000" fill="none"/>
<path d="M11.203125 16.473797632095824L11.203125 15.499519052838329L11.4140625 15.377734230431141L11.4140625 15.134164585616768L10.921875000000002 14.85" stroke-width="0.03" stroke="#000000" fill="none"/>
<path d="M10.7109375 15.215354467221559L11.203125 15.499519052838329" stroke-width="0.03" stroke="#000000" fill="none"/>
<path d="M11.4140625 15.377734230431141L10.5 14.85L9.5859375 15.377734230431141L9.796875 15.499519052838329" stroke-width="0.03" stroke="#000000" fill="none"/>
<path d="M9.5859375 15.377734230431141L9.5859375 15.134164585616768" stroke-width="0.03" stroke="#000000" fill="none"/>
<path d="M10.5 14.85L10.5 13.794531539137715" stroke-width="0.03" stroke="#000000" fill="none"/>
<path d="M10.2890625 13.9163163615449L10.2890625 14.484645532778439" stroke-width="0.03" stroke="#000000" fill="none"/>
<path d="M10.7109375 14.484645532778439L10.7109375 13.9163163615449" stroke-width="0.03" stroke="#000000" fill="none"/>
<path d="M11.273437500000002 14.159886006359274L11.273437500000002 14.403455651173648L11.484375000000002 14.525240473580833" stroke-width="0.03" stroke="#000000" fill="none"/>
<path d="M11.273437500000002 14.403455651173648L12.187500000000002 13.875721420742504" stroke-width="0.03" stroke="#000000" fill="none"/>
<path d="M12.75 13.956911302347297L12.75 14.038101183952087" stroke-width="0.03" stroke="#000000" fill="none"/>
<path d="M12.2578125 14.647025295988021L11.4140625 15.134164585616768" stroke-width="0.03" stroke="#000000" fill="none"/>
<path d="M11.5546875 13.997506243149692L11.5546875 13.429177071916154L11.34375 13.307392249508968L13.1015625 12.292518729449078L13.242187500000002 12.37370861105387" stroke-width="0.03" stroke="#000000" fill="none"/>
<path d="M13.593750000000002 12.333113670251475L13.6640625 12.292518729449078" stroke-width="0.03" stroke="#000000" fill="none"/>
<path d="M13.593750000000002 11.927164262227517L13.6640625 11.886569321425123" stroke-width="0.03" stroke="#000000" fill="none"/>
<path d="M13.6640625 11.805379439820332L13.593750000000002 11.764784499017935" stroke-width="0.03" stroke="#000000" fill="none"/>
<path d="M13.3125 11.845974380622728L13.3125 13.226202367904175L14.5078125 13.9163163615449" stroke-width="0.03" stroke="#000000" fill="none"/>
<path d="M14.578125 13.632151775928133L14.648437500000002 13.591556835125736" stroke-width="0.03" stroke="#000000" fill="none"/>
<path d="M14.718749999999998 13.632151775928133L14.718749999999998 13.713341657532922" stroke-width="0.03" stroke="#000000" fill="none"/>
<path d="M14.7890625 13.672746716730527L14.15625 13.307392249508968" stroke-width="0.03" stroke="#000000" fill="none"/>
<path d="M13.875 12.982632723089804L14.2265625 12.779658019077825" stroke-width="0.03" stroke="#000000" fill="none"/>
<path d="M14.015625 12.576683315065846L14.859375 12.0895440254371L14.859375 10.790505919760442" stroke-width="0.03" stroke="#000000" fill="none"/>
<path d="M15.000000000000002 10.790505919760442L15.703125000000002 10.384556511736488L15.703125000000002 11.845974380622728L16.96875 12.576683315065846L16.96875 13.794531539137715L17.0390625 13.83512647994011L17.109375 13.794531539137715L17.109375 12.495493433461057" stroke-width="0.03" stroke="#000000" fill="none"/>
<path d="M17.0390625 12.45489849265866L17.0390625 13.83512647994011" stroke-width="0.03" stroke="#000000" fill="none"/>
<path d="M16.1953125 13.10441754549699L15.28125 13.632151775928133" stroke-width="0.03" stroke="#000000" fill="none"/>
<path d="M15.28125 13.956911302347297L14.9296875 13.753936598335319" stroke-width="0.03" stroke="#000000" fill="none"/>
<path d="M14.9296875 13.997506243149692L16.265625 14.768810118395209L18.1640625 13.672746716730527L18.1640625 12.130138966239496" stroke-width="0.03" stroke="#000000" fill="none"/>
<path d="M18.1640625 12.292518729449078L18.656250000000004 12.00835414383231L18.656250000000004 11.845974380622728" stroke-width="0.03" stroke="#000000" fill="none"/>
<path d="M19.429687500000004 11.399430031796376L17.320312500000004 12.617278255868243L16.96875 12.414303551856264L16.96875 11.845974380622728L19.078125 10.62812615655086L19.429687500000004 10.831100860562838L19.429687500000004 11.399430031796376" stroke-width="0.03" stroke="#000000" fill="none"/>
<path d="M19.429687500000004 10.831100860562838L17.320312500000004 12.048949084634705L16.96875 11.845974380622728" stroke-width="0.03" stroke="#000000" fill="none"/>
<path d="M17.0390625 11.805379439820332L17.0390625 11.237050268586794L16.8984375 11.155860386982003L16.8984375 10.99348062377242L16.96875 10.952885682970024L16.4765625 10.668721097353256" stroke-width="0.03" stroke="#000000" fill="none"/>
<path d="M16.40625 10.709316038155652L16.8984375 10.99348062377242" stroke-width="0.03" stroke="#000000" fill="none"/>
<path d="M16.96875 10.952885682970024L16.96875 11.115265446179606L16.8984375 11.155860386982003" stroke-width="0.03" stroke="#000000" fill="none"/>
<path d="M16.96875 11.115265446179606L17.109375 11.196455327784399L17.109375 11.764784499017935" stroke-width="0.03" stroke="#000000" fill="none"/>
<path d="M17.320312500000004 12.048949084634705L17.320312500000004 12.617278255868243" stroke-width="0.03" stroke="#000000" fill="none"/>
<path d="M16.96875 12.576683315065846L16.265625 12.982632723089804L16.265625 14.768810118395209" stroke-width="0.03" stroke="#000000" fill="none"/>
<path d="M15.843750000000002 16.14903810567666L15.9140625 16.189633046479052" stroke-width="0.03" stroke="#000000" fill="none"/>
<path d="M14.859375 13.145012486299386L14.7890625 13.10441754549699" stroke-width="0.03" stroke="#000000" fill="none"/>
<path d="M15.000000000000002 12.251923788646682L15.703125000000002 11.845974380622728" stroke-width="0.03" stroke="#000000" fill="none"/>
<path d="M15.000000000000002 12.251923788646682L15.000000000000002 10.790505919760442L13.453125 9.897417222107741L13.453125 11.44002497259877" stroke-width="0.03" stroke="#000000" fill="none"/>
<path d="M13.6640625 11.155860386982003L13.945312500000002 11.318240150191585" stroke-width="0.03" stroke="#000000" fill="none"/>
<path d="M14.2265625 11.886569321425123L14.15625 11.927164262227517L11.90625 10.62812615655086L11.90625 10.709316038155652L14.15625 12.00835414383231L14.2265625 11.967759203029914L14.2265625 11.886569321425123L11.976562500000002 10.587531215748463L11.90625 10.62812615655086" stroke-width="0.03" stroke="#000000" fill="none"/>
<path d="M11.34375 10.709316038155652L15.6328125 8.233024649209522L14.367187500000002 7.502315714766402L12.75 8.435999353221499" stroke-width="0.03" stroke="#000000" fill="none"/>
<path d="M12.539062500000002 8.314214530814313L13.5234375 7.745885359580775L13.734375 7.867670181987961" stroke-width="0.03" stroke="#000000" fill="none"/>
<path d="M12.9609375 8.07064488599994L12.2578125 7.664695477975984" stroke-width="0.03" stroke="#000000" fill="none"/>
<path d="M12.328125000000002 7.705290418778379L12.3984375 7.664695477975984L12.3984375 6.852796661928072L10.9921875 6.040897845880161L10.5 6.32506243149693L10.0078125 6.040897845880161L8.6015625 6.852796661928072L8.6015625 7.664695477975984L8.671875 7.705290418778379" stroke-width="0.03" stroke="#000000" fill="none"/>
<path d="M8.7421875 7.664695477975984L8.0390625 8.07064488599994" stroke-width="0.03" stroke="#000000" fill="none"/>
<path d="M8.25 8.435999353221499L6.6328125 7.502315714766402L5.3671875 8.233024649209522L5.3671875 8.963733583652642" stroke-width="0.03" stroke="#000000" fill="none"/>
<path d="M5.6484375 8.80135382044306L7.546875 9.897417222107741" stroke-width="0.03" stroke="#000000" fill="none"/>
<path d="M7.4765625 8.963733583652642L7.4765625 8.882543702047851L9.65625 7.624100537173588L9.7265625 7.664695477975984" stroke-width="0.03" stroke="#000000" fill="none"/>
<path d="M9.4453125 7.745885359580775L8.7421875 7.33993595155682L9.09375 7.136961247544841L8.6015625 6.852796661928072" stroke-width="0.03" stroke="#000000" fill="none"/>
<path d="M8.7421875 7.33993595155682L8.7421875 7.9082651227903575L8.953125 8.030049945197543" stroke-width="0.03" stroke="#000000" fill="none"/>
<path d="M9.3046875 7.989455004395149L9.3046875 7.9082651227903575L10.359375 7.299341010754423L10.5 7.380530892359214L10.640625 7.299341010754423L11.6953125 7.9082651227903575L11.6953125 7.989455004395149L11.625000000000002 8.030049945197543" stroke-width="0.03" stroke="#000000" fill="none"/>
<path d="M11.5546875 7.989455004395149L11.6953125 7.9082651227903575" stroke-width="0.03" stroke="#000000" fill="none"/>
<path d="M11.5546875 7.989455004395149L13.1015625 8.882543702047851L13.1015625 8.963733583652642L12.046875 9.572657695688576L10.5 8.679568998035872L10.5 8.598379116431081L8.953125 9.491467814083784L7.898437500000001 8.882543702047851L7.898437500000001 8.963733583652642L8.953125 9.572657695688576L10.5 8.679568998035872" stroke-width="0.03" stroke="#000000" fill="none"/>
<path d="M10.5 8.598379116431081L12.046875 9.491467814083784L13.1015625 8.882543702047851" stroke-width="0.03" stroke="#000000" fill="none"/>
<path d="M13.5234375 8.882543702047851L10.78125 10.465746393341277L10.5 10.303366630131695L10.218750000000002 10.465746393341277L10.218750000000002 11.602404735808353" stroke-width="0.03" stroke="#000000" fill="none"/>
<path d="M10.078125 11.521214854203564L10.078125 10.465746393341277L7.4765625 8.963733583652642" stroke-width="0.03" stroke="#000000" fill="none"/>
<path d="M7.4765625 8.882543702047851L10.218750000000002 10.465746393341277" stroke-width="0.03" stroke="#000000" fill="none"/>
<path d="M10.078125 10.465746393341277L9.65625 10.709316038155652L9.65625 11.683594617413146" stroke-width="0.03" stroke="#000000" fill="none"/>
<path d="M9.1640625 11.967759203029914L9.7265625 12.292518729449078L10.5 11.845974380622728L11.273437500000002 12.292518729449078L11.835937500000002 11.967759203029914" stroke-width="0.03" stroke="#000000" fill="none"/>
<path d="M11.34375 11.683594617413146L11.34375 10.709316038155652L10.921875000000002 10.465746393341277L13.5234375 8.963733583652642L13.5234375 8.882543702047851L11.34375 7.624100537173588L11.273437500000002 7.664695477975984" stroke-width="0.03" stroke="#000000" fill="none"/>
<path d="M11.5546875 7.745885359580775L12.2578125 7.33993595155682L11.90625 7.136961247544841L12.3984375 6.852796661928072" stroke-width="0.03" stroke="#000000" fill="none"/>
<path d="M12.2578125 7.33993595155682L12.2578125 7.9082651227903575L12.046875 8.030049945197543" stroke-width="0.03" stroke="#000000" fill="none"/>
<path d="M11.484375000000002 9.24789816926941L10.8515625 9.613252636490971L10.8515625 9.856822281305345" stroke-width="0.03" stroke="#000000" fill="none"/>
<path d="M10.78125 9.897417222107741L10.5 9.735037458898159L10.5 9.410277932478992L10.1484375 9.613252636490971L10.1484375 9.856822281305345" stroke-width="0.03" stroke="#000000" fill="none"/>
<path d="M10.218750000000002 9.897417222107741L10.5 9.735037458898159" stroke-width="0.03" stroke="#000000" fill="none"/>
<path d="M10.5 10.059796985317323L11.484375000000002 9.491467814083784L11.484375000000002 9.24789816926941" stroke-width="0.03" stroke="#000000" fill="none"/>
<path d="M10.9921875 8.963733583652642L10.5 9.24789816926941L10.0078125 8.963733583652642" stroke-width="0.03" stroke="#000000" fill="none"/>
<path d="M9.515625 9.24789816926941L9.515625 9.491467814083784L10.5 10.059796985317323" stroke-width="0.03" stroke="#000000" fill="none"/>
<path d="M10.5 10.303366630131695L10.5 11.764784499017935" stroke-width="0.03" stroke="#000000" fill="none"/>
<path d="M10.5 11.845974380622728L10.5 12.820252959880222" stroke-width="0.03" stroke="#000000" fill="none"/>
<path d="M9.7265625 12.37370861105387L9.7265625 12.292518729449078" stroke-width="0.03" stroke="#000000" fill="none"/>
<path d="M10.78125 11.602404735808353L10.78125 10.465746393341277" stroke-width="0.03" stroke="#000000" fill="none"/>
<path d="M10.921875000000002 10.465746393341277L10.921875000000002 11.521214854203564" stroke-width="0.03" stroke="#000000" fill="none"/>
<path d="M11.273437500000002 12.292518729449078L11.273437500000002 12.37370861105387" stroke-width="0.03" stroke="#000000" fill="none"/>
<path d="M13.3125 13.226202367904175L13.593750000000002 13.063822604694593" stroke-width="0.03" stroke="#000000" fill="none"/>
<path d="M14.15625 12.00835414383231L14.15625 11.927164262227517" stroke-width="0.03" stroke="#000000" fill="none"/>
<path d="M15.000000000000002 12.251923788646682L16.265625 12.982632723089804" stroke-width="0.03" stroke="#000000" fill="none"/>
<path d="M17.109375 11.277645209389188L17.53125 11.034075564574817L17.953125000000004 11.277645209389188" stroke-width="0.03" stroke="#000000" fill="none"/>
<path d="M17.53125 11.521214854203564L17.109375 11.277645209389188" stroke-width="0.03" stroke="#000000" fill="none"/>
<path d="M17.109375 11.196455327784399L17.0390625 11.237050268586794" stroke-width="0.03" stroke="#000000" fill="none"/>
<path d="M16.8984375 10.912290742167627L17.320312500000004 10.668721097353256L17.320312500000004 10.181581807724509" stroke-width="0.03" stroke="#000000" fill="none"/>
<path d="M16.8984375 10.42515145253888L16.8984375 10.912290742167627" stroke-width="0.03" stroke="#000000" fill="none"/>
<path d="M16.3359375 10.749910978958045L18.4453125 9.53206275488618L18.4453125 9.126113346862224L17.953125000000004 8.841948761245455L15.843750000000002 10.059796985317323L15.843750000000002 10.465746393341277L16.3359375 10.749910978958045L16.3359375 10.343961570934091L15.843750000000002 10.059796985317323" stroke-width="0.03" stroke="#000000" fill="none"/>
<path d="M15.843750000000002 10.303366630131695L14.718749999999998 9.653847577293366L14.648437500000002 9.694442518095762L14.648437500000002 9.775632399700552L15.703125000000002 10.384556511736488" stroke-width="0.03" stroke="#000000" fill="none"/>
<path d="M15.843750000000002 10.384556511736488L14.648437500000002 9.694442518095762" stroke-width="0.03" stroke="#000000" fill="none"/>
<path d="M15.351562500000002 8.80135382044306L13.453125 9.897417222107741" stroke-width="0.03" stroke="#000000" fill="none"/>
<path d="M12.046875 9.572657695688576L12.046875 9.491467814083784" stroke-width="0.03" stroke="#000000" fill="none"/>
<path d="M10.8515625 9.613252636490971L10.5 9.410277932478992" stroke-width="0.03" stroke="#000000" fill="none"/>
<path d="M10.1484375 9.613252636490971L9.515625 9.24789816926941" stroke-width="0.03" stroke="#000000" fill="none"/>
<path d="M8.953125 9.491467814083784L8.953125 9.572657695688576" stroke-width="0.03" stroke="#000000" fill="none"/>
<path d="M9.0234375 10.587531215748463L6.7734375 11.886569321425123L6.7734375 11.967759203029914L6.84375 12.00835414383231L9.09375 10.709316038155652L9.09375 10.62812615655086L9.0234375 10.587531215748463" stroke-width="0.03" stroke="#000000" fill="none"/>
<path d="M9.09375 10.62812615655086L6.84375 11.927164262227517L6.7734375 11.886569321425123" stroke-width="0.03" stroke="#000000" fill="none"/>
<path d="M6.84375 11.927164262227517L6.84375 12.00835414383231" stroke-width="0.03" stroke="#000000" fill="none"/>
<path d="M6.7734375 12.779658019077825L7.125 12.982632723089804" stroke-width="0.03" stroke="#000000" fill="none"/>
<path d="M7.40625 13.063822604694593L7.6875 13.226202367904175" stroke-width="0.03" stroke="#000000" fill="none"/>
<path d="M6.84375 13.307392249508968L6.210937500000001 13.672746716730527" stroke-width="0.03" stroke="#000000" fill="none"/>
<path d="M6.28125 13.632151775928133L6.28125 13.713341657532922" stroke-width="0.03" stroke="#000000" fill="none"/>
<path d="M6.210937500000001 13.753936598335319L6.492187500000001 13.9163163615449" stroke-width="0.03" stroke="#000000" fill="none"/>
<path d="M6.421875 13.632151775928133L6.3515625 13.591556835125736" stroke-width="0.03" stroke="#000000" fill="none"/>
<path d="M6.140625 13.145012486299386L6.210937500000001 13.10441754549699L6.140625 13.063822604694593L6.0703125 13.10441754549699L6.0703125 15.702493756850306L6.140625 15.7430886976527L6.210937500000001 15.702493756850306L6.210937500000001 13.10441754549699" stroke-width="0.03" stroke="#000000" fill="none"/>
<path d="M6.140625 13.145012486299386L6.140625 15.7430886976527" stroke-width="0.03" stroke="#000000" fill="none"/>
<path d="M6.492187500000001 16.189633046479052L2.203125 13.713341657532922" stroke-width="0.03" stroke="#000000" fill="none"/>
<path d="M4.734375 14.768810118395209L6.0703125 13.997506243149692" stroke-width="0.03" stroke="#000000" fill="none"/>
<path d="M6.140625 13.145012486299386L6.0703125 13.10441754549699" stroke-width="0.03" stroke="#000000" fill="none"/>
<path d="M7.898437500000001 15.458924112035932L7.96875 15.418329171233536" stroke-width="0.03" stroke="#000000" fill="none"/>
<path d="M8.7421875 15.864873520059888L7.898437500000001 16.352012809688635" stroke-width="0.03" stroke="#000000" fill="none"/>
<path d="M7.828125 16.39260775049103L6.5625 17.123316684934153" stroke-width="0.03" stroke="#000000" fill="none"/>
<path d="M5.15625 16.14903810567666L5.0859375 16.189633046479052" stroke-width="0.03" stroke="#000000" fill="none"/>
<path d="M3.8906249999999996 17.77283573777248L3.8203125000000004 17.732240796970082" stroke-width="0.03" stroke="#000000" fill="none"/>
<path d="M8.671875 16.79855715851499L8.7421875 16.75796221771259" stroke-width="0.03" stroke="#000000" fill="none"/>
<path d="M9.5859375 17.569861033760503L9.7265625 17.651050915365293" stroke-width="0.03" stroke="#000000" fill="none"/>
<path d="M9.65625 10.709316038155652L5.3671875 8.233024649209522" stroke-width="0.03" stroke="#000000" fill="none"/>
<path d="M7.265625000000001 7.867670181987961L7.4765625 7.745885359580775L8.4609375 8.314214530814313" stroke-width="0.03" stroke="#000000" fill="none"/>
<path d="M7.898437500000001 8.882543702047851L9.4453125 7.989455004395149L9.3046875 7.9082651227903575" stroke-width="0.03" stroke="#000000" fill="none"/>
<path d="M9.3046875 7.989455004395149L9.375 8.030049945197543" stroke-width="0.03" stroke="#000000" fill="none"/>
<path d="M15.351562500000002 8.80135382044306L16.6875 9.572657695688576" stroke-width="0.03" stroke="#000000" fill="none"/>
<path d="M16.546875 9.491467814083784L17.0390625 9.207303228467016L17.1796875 9.288493110071807" stroke-width="0.03" stroke="#000000" fill="none"/>
<path d="M18.4453125 9.126113346862224L16.3359375 10.343961570934091" stroke-width="0.03" stroke="#000000" fill="none"/>
<path d="M15.6328125 8.963733583652642L15.6328125 8.233024649209522" stroke-width="0.03" stroke="#000000" fill="none"/>
<path d="M18.1640625 13.347987190311363L18.796875 13.713341657532922" stroke-width="0.03" stroke="#000000" fill="none"/>
<path d="M7.264131938244363 2.2599663291074443L1.5 2.2599663291074443" stroke-width="0.03" stroke="#000000" fill="none"/>
<path d="M2.0824957911384305 2.015598694615191L2.0824957911384305 1.7268634256306838" stroke-width="0.03" stroke="#000000" fill="none"/>
<path d="M2.061871843353823 1.5824957911384305L2.0824957911384305 1.6031197389230383L2.1031197389230383 1.5824957911384305L2.0824957911384305 1.5618718433538228L2.061871843353823 1.5824957911384305" stroke-width="0.03" stroke="#000000" fill="none"/>
<path d="M2.226863425630684 1.953726851261368L2.2474873734152916 1.9949747468305832L2.3093592167691144 2.015598694615191L2.3712310601229376 2.015598694615191L2.4331029034767604 1.9949747468305832L2.4537268512613677 1.953726851261368L2.4537268512613677 1.9331029034767604L2.4331029034767604 1.891855007907545L2.391855007907545 1.8712310601229374L2.2887352689845066 1.8506071123383299L2.2474873734152916 1.8299831645537221L2.226863425630684 1.7887352689845069L2.2474873734152916 1.7474873734152916L2.3093592167691144 1.7268634256306838L2.3712310601229376 1.7268634256306838L2.4331029034767604 1.7474873734152916L2.4537268512613677 1.7887352689845069" stroke-width="0.03" stroke="#000000" fill="none"/>
<path d="M2.680590276892052 1.7268634256306838L2.6393423813228365 1.7474873734152916L2.5980944857536215 1.7887352689845069L2.5774705379690137 1.8506071123383299L2.5774705379690137 1.891855007907545L2.5980944857536215 1.953726851261368L2.6393423813228365 1.9949747468305832L2.680590276892052 2.015598694615191L2.7424621202458748 2.015598694615191L2.78371001581509 1.9949747468305832L2.8249579113843053 1.953726851261368L2.845581859168913 1.891855007907545L2.845581859168913 1.8506071123383299L2.8249579113843053 1.7887352689845069L2.78371001581509 1.7474873734152916L2.7424621202458748 1.7268634256306838L2.680590276892052 1.7268634256306838" stroke-width="0.03" stroke="#000000" fill="none"/>
<path d="M2.907453702522736 2.056846590184406L3.237436867076458 2.056846590184406" stroke-width="0.03" stroke="#000000" fill="none"/>
<path d="M3.2993087104302807 1.953726851261368L3.3199326582148885 1.9949747468305832L3.3818045015687113 2.015598694615191L3.443676344922534 2.015598694615191L3.5055481882763573 1.9949747468305832L3.526172136060965 1.953726851261368L3.526172136060965 1.9331029034767604L3.5055481882763573 1.891855007907545L3.464300292707142 1.8712310601229374L3.361180553784104 1.8506071123383299L3.3199326582148885 1.8299831645537221L3.2993087104302807 1.7887352689845069L3.3199326582148885 1.7474873734152916L3.3818045015687113 1.7268634256306838L3.443676344922534 1.7268634256306838L3.5055481882763573 1.7474873734152916L3.526172136060965 1.7887352689845069" stroke-width="0.03" stroke="#000000" fill="none"/>
<path d="M3.6705397705532183 1.8093592167691144L3.732411613907041 1.7474873734152916L3.773659509476256 1.7268634256306838L3.8355313528300794 1.7268634256306838L3.8767792483992944 1.7474873734152916L3.897403196183902 1.8093592167691144L3.897403196183902 2.015598694615191" stroke-width="0.03" stroke="#000000" fill="none"/>
<path d="M3.6705397705532183 2.015598694615191L3.6705397705532183 1.7268634256306838" stroke-width="0.03" stroke="#000000" fill="none"/>
<path d="M4.144890569599194 1.7268634256306838L4.103642674029978 1.7474873734152916L4.062394778460764 1.7887352689845069L4.041770830676155 1.8506071123383299L4.041770830676155 1.891855007907545L4.062394778460764 1.953726851261368L4.103642674029978 1.9949747468305832L4.144890569599194 2.015598694615191L4.206762412953017 2.015598694615191L4.2480103085222325 1.9949747468305832L4.289258204091447 1.953726851261368L4.309882151876055 1.891855007907545L4.309882151876055 1.8506071123383299L4.289258204091447 1.7887352689845069L4.2480103085222325 1.7474873734152916L4.206762412953017 1.7268634256306838L4.144890569599194 1.7268634256306838" stroke-width="0.03" stroke="#000000" fill="none"/>
<path d="M4.4336258385837 1.7268634256306838L4.516121629722131 2.015598694615191L4.5986174208605615 1.7268634256306838L4.681113211998992 2.015598694615191L4.7636090031374225 1.7268634256306838" stroke-width="0.03" stroke="#000000" fill="none"/>
<path d="M4.866728742060461 1.7268634256306838L5.011096376552715 1.7268634256306838" stroke-width="0.03" stroke="#000000" fill="none"/>
<path d="M5.031720324337321 1.5824957911384305L4.990472428768107 1.5824957911384305L4.949224533198891 1.6031197389230383L4.928600585414284 1.664991582276861L4.928600585414284 2.015598694615191" stroke-width="0.03" stroke="#000000" fill="none"/>
<path d="M5.155464011044968 2.015598694615191L5.155464011044968 1.5824957911384305" stroke-width="0.03" stroke="#000000" fill="none"/>
<path d="M5.547319018952512 1.7268634256306838L5.547319018952512 2.015598694615191" stroke-width="0.03" stroke="#000000" fill="none"/>
<path d="M5.547319018952512 1.953726851261368L5.506071123383298 1.9949747468305832L5.464823227814082 2.015598694615191L5.402951384460259 2.015598694615191L5.3617034888910435 1.9949747468305832L5.320455593321829 1.953726851261368L5.299831645537221 1.891855007907545L5.299831645537221 1.8506071123383299L5.320455593321829 1.7887352689845069L5.3617034888910435 1.7474873734152916L5.402951384460259 1.7268634256306838L5.464823227814082 1.7268634256306838L5.506071123383298 1.7474873734152916L5.547319018952512 1.7887352689845069" stroke-width="0.03" stroke="#000000" fill="none"/>
<path d="M5.712310601229374 1.9331029034767604L5.91855007907545 1.7268634256306838" stroke-width="0.03" stroke="#000000" fill="none"/>
<path d="M5.794806392367804 1.8506071123383299L5.939174026860058 2.015598694615191" stroke-width="0.03" stroke="#000000" fill="none"/>
<path d="M6.042293765783096 1.8506071123383299L6.2897811391983875 1.8506071123383299L6.2897811391983875 1.8093592167691144L6.26915719141378 1.7681113211998993L6.248533243629172 1.7474873734152916L6.207285348059957 1.7268634256306838L6.145413504706134 1.7268634256306838L6.104165609136919 1.7474873734152916L6.062917713567703 1.7887352689845069L6.042293765783096 1.8506071123383299L6.042293765783096 1.891855007907545L6.062917713567703 1.953726851261368L6.104165609136919 1.9949747468305832L6.145413504706134 2.015598694615191L6.207285348059957 2.015598694615191L6.248533243629172 1.9949747468305832L6.2897811391983875 1.953726851261368" stroke-width="0.03" stroke="#000000" fill="none"/>
<path d="M6.578516408182894 2.015598694615191L6.578516408182894 1.5824957911384305L6.516644564829072 1.6443676344922533L6.475396669259856 1.664991582276861" stroke-width="0.03" stroke="#000000" fill="none"/>
<path d="M5.712310601229374 1.5824957911384305L5.712310601229374 2.015598694615191" stroke-width="0.03" stroke="#000000" fill="none"/>
<path d="M4.5237675411919405 2.7746830355252596L4.511021240478851 2.7491904340990785L4.485528639052669 2.7236978326728973L4.460036037626487 2.7109515319598065L4.409050834774126 2.7109515319598065L4.383558233347944 2.7236978326728973L4.358065631921763 2.7491904340990785L4.345319331208673 2.7746830355252596L4.332573030495582 2.8129219376645316L4.332573030495582 2.8766534412299847L4.345319331208673 2.9148923433692566L4.358065631921763 2.9403849447954378L4.383558233347944 2.965877546221619L4.409050834774126 2.9786238469347097L4.460036037626487 2.9786238469347097L4.485528639052669 2.965877546221619L4.511021240478851 2.9403849447954378L4.5237675411919405 2.9148923433692566" stroke-width="0.03" stroke="#000000" fill="none"/>
<path d="M4.243348925503947 2.7491904340990785L4.230602624790857 2.7236978326728973L4.192363722651585 2.7109515319598065L4.1668711212254035 2.7109515319598065L4.128632219086132 2.7236978326728973L4.10313961765995 2.761936734812169L4.0903933169468605 2.825668238377622L4.0903933169468605 2.889399741943075L4.10313961765995 2.9403849447954378L4.128632219086132 2.965877546221619L4.1668711212254035 2.9786238469347097L4.179617421938495 2.9786238469347097L4.217856324077767 2.965877546221619L4.243348925503947 2.9403849447954378L4.256095226217038 2.902146042656166L4.256095226217038 2.889399741943075L4.243348925503947 2.8511608398038035L4.217856324077767 2.825668238377622L4.179617421938495 2.8129219376645316L4.1668711212254035 2.8129219376645316L4.128632219086132 2.825668238377622L4.10313961765995 2.8511608398038035L4.0903933169468605 2.889399741943075" stroke-width="0.03" stroke="#000000" fill="none"/>
<path d="M3.8227210019719573 2.927638644082347L3.835467302685048 2.953131245508528L3.848213603398139 2.965877546221619L3.8864525055374104 2.9786238469347097L3.9246914076766823 2.9786238469347097L3.9629303098159543 2.965877546221619L3.9884229112421354 2.9403849447954378L4.001169211955226 2.902146042656166L4.001169211955226 2.8766534412299847L3.9884229112421354 2.8384145390907127L3.9756766105290446 2.825668238377622L3.9501840091028635 2.8129219376645316L3.911945106963592 2.8129219376645316L3.9884229112421354 2.7109515319598065L3.848213603398139 2.7109515319598065" stroke-width="0.03" stroke="#000000" fill="none"/>
<path d="M3.7207505962672327 2.7109515319598065L3.5932875891363265 2.7109515319598065L3.5805412884232357 2.825668238377622L3.5932875891363265 2.8129219376645316L3.631526491275598 2.8001756369514412L3.66976539341487 2.8001756369514412L3.708004295554142 2.8129219376645316L3.733496896980323 2.8384145390907127L3.7462431976934134 2.8766534412299847L3.7462431976934134 2.902146042656166L3.733496896980323 2.9403849447954378L3.708004295554142 2.965877546221619L3.66976539341487 2.9786238469347097L3.631526491275598 2.9786238469347097L3.5932875891363265 2.965877546221619L3.5805412884232357 2.953131245508528L3.567794987710145 2.927638644082347" stroke-width="0.03" stroke="#000000" fill="none"/>
<path d="M3.4913171834316015 2.9148923433692566L3.478570882718511 2.9403849447954378L3.4530782812923295 2.965877546221619L3.4275856798661484 2.9786238469347097L3.376600477013786 2.9786238469347097L3.351107875587605 2.965877546221619L3.3256152741614233 2.9403849447954378L3.312868973448333 2.9148923433692566L3.3001226727352426 2.8766534412299847L3.3001226727352426 2.8129219376645316L3.312868973448333 2.7746830355252596L3.3256152741614233 2.7491904340990785L3.351107875587605 2.7236978326728973L3.376600477013786 2.7109515319598065L3.4275856798661484 2.7109515319598065L3.4530782812923295 2.7236978326728973L3.478570882718511 2.7491904340990785L3.4913171834316015 2.7746830355252596" stroke-width="0.03" stroke="#000000" fill="none"/>
<path d="M3.0706892598996114 2.7109515319598065L3.210898567743608 2.7109515319598065L3.1344207634650645 2.8129219376645316L3.1726596656043364 2.8129219376645316L3.198152267030517 2.825668238377622L3.210898567743608 2.8384145390907127L3.2236448684566987 2.8766534412299847L3.2236448684566987 2.902146042656166L3.210898567743608 2.9403849447954378L3.185405966317427 2.965877546221619L3.147167064178155 2.9786238469347097L3.1089281620388833 2.9786238469347097L3.0706892598996114 2.965877546221619L3.057942959186521 2.953131245508528L3.0451966584734302 2.927638644082347" stroke-width="0.03" stroke="#000000" fill="none"/>
<path d="M2.790270644211618 2.9786238469347097L2.790270644211618 2.7109515319598065L2.879494749203252 2.7109515319598065L2.917733651342524 2.7236978326728973L2.943226252768705 2.7491904340990785L2.955972553481796 2.7746830355252596L2.9687188541948863 2.8129219376645316L2.9687188541948863 2.8766534412299847L2.955972553481796 2.9148923433692566L2.943226252768705 2.9403849447954378L2.917733651342524 2.965877546221619L2.879494749203252 2.9786238469347097L2.790270644211618 2.9786238469347097" stroke-width="0.03" stroke="#000000" fill="none"/>
<path d="M2.7010465392199836 2.9148923433692566L2.6883002385068933 2.9403849447954378L2.6628076370807117 2.965877546221619L2.6373150356545305 2.9786238469347097L2.586329832802168 2.9786238469347097L2.560837231375987 2.965877546221619L2.5353446299498055 2.9403849447954378L2.522598329236715 2.9148923433692566L2.5098520285236243 2.8766534412299847L2.5098520285236243 2.8129219376645316L2.522598329236715 2.7746830355252596L2.5353446299498055 2.7491904340990785L2.560837231375987 2.7236978326728973L2.586329832802168 2.7109515319598065L2.6373150356545305 2.7109515319598065L2.6628076370807117 2.7236978326728973L2.6883002385068933 2.7491904340990785L2.7010465392199836 2.7746830355252596" stroke-width="0.03" stroke="#000000" fill="none"/>
<path d="M2.433374224245081 2.8001756369514412L2.293164916401084 2.9786238469347097" stroke-width="0.03" stroke="#000000" fill="none"/>
<path d="M2.433374224245081 2.9786238469347097L2.293164916401084 2.8001756369514412" stroke-width="0.03" stroke="#000000" fill="none"/>
<path d="M2.1147167064178154 2.7109515319598065L2.076477804278544 2.7236978326728973L2.0509852028523623 2.761936734812169L2.038238902139272 2.825668238377622L2.038238902139272 2.8639071405168943L2.0509852028523623 2.927638644082347L2.076477804278544 2.965877546221619L2.1147167064178154 2.9786238469347097L2.140209307843997 2.9786238469347097L2.1784482099832685 2.965877546221619L2.2039408114094496 2.927638644082347L2.2166871121225404 2.8639071405168943L2.2166871121225404 2.825668238377622L2.2039408114094496 2.761936734812169L2.1784482099832685 2.7236978326728973L2.140209307843997 2.7109515319598065L2.1147167064178154 2.7109515319598065" stroke-width="0.03" stroke="#000000" fill="none"/>
</svg>
