<?xml version="1.0" standalone="no"?>
<svg width="21cm" height="29.7cm" version="1.1" xmlns="http://www.w3.org/2000/svg" viewBox="0.0 0.0 21.000001 29.700001">
<path d="M8.3203125 7.502315714766402L8.671875 7.299341010754423L10.5 8.354809471616708L12.328125000000002 7.299341010754423L12.679687500000002 7.502315714766402L12.679687500000002 9.044923465257433" stroke-width="0.03" stroke="#000000" fill="none"/>
<path d="M12.046875 8.679568998035872L10.5 9.572657695688576L8.953125 8.679568998035872L6.703125 9.97860710371253L6.703125 11.44002497259877L8.0390625 12.211328847844287" stroke-width="0.03" stroke="#000000" fill="none"/>
<path d="M7.6171875 12.617278255868243L8.671875 12.00835414383231" stroke-width="0.03" stroke="#000000" fill="none"/>
<path d="M8.6015625 11.886569321425123L8.6015625 11.074670505377211L6.703125 9.97860710371253" stroke-width="0.03" stroke="#000000" fill="none"/>
<path d="M6.703125 10.384556511736488L5.2265625 11.237050268586794L5.2265625 11.480619913401167L6.0703125 11.967759203029914L6.0703125 12.292518729449078L5.7890625 12.45489849265866L4.9453125 11.967759203029914L4.734375 12.0895440254371L4.734375 13.794531539137715" stroke-width="0.03" stroke="#000000" fill="none"/>
<path d="M4.382812499999999 13.997506243149692L5.6484375 13.266797308706572L6.984375 14.038101183952087" stroke-width="0.03" stroke="#000000" fill="none"/>
<path d="M7.125 13.46977201271855L7.6171875 13.18560742710178L7.6171875 12.617278255868243L5.2265625 11.237050268586794" stroke-width="0.03" stroke="#000000" fill="none"/>
<path d="M4.734375 12.0895440254371L7.125 13.46977201271855L7.125 14.687620236790417" stroke-width="0.03" stroke="#000000" fill="none"/>
<path d="M6.984375 14.687620236790417L6.28125 15.093569644814371L4.382812499999999 13.997506243149692L4.382812499999999 16.59558245450301L5.9296875 17.48867115215571L5.9296875 19.274848547461115L8.1796875 20.573886653137773L9.4453125 19.843177718694655L9.4453125 18.30056996820362" stroke-width="0.03" stroke="#000000" fill="none"/>
<path d="M10.0078125 18.462949731413204L10.5 18.178785145796436L10.9921875 18.462949731413204L12.046875 17.85402561937727" stroke-width="0.03" stroke="#000000" fill="none"/>
<path d="M12.1171875 17.975810441784457L12.8203125 18.38175984980841L13.242187500000002 18.13819020499404L13.242187500000002 18.219380086598832L13.5234375 18.38175984980841L14.0859375 18.057000323389246L14.0859375 17.894620560179668" stroke-width="0.03" stroke="#000000" fill="none"/>
<path d="M14.15625 17.85402561937727L13.945312500000002 17.975810441784457L13.8046875 17.894620560179668L13.8046875 17.569861033760503L14.015625 17.448076211353314L14.15625 17.529266092958107L14.15625 17.85402561937727" stroke-width="0.03" stroke="#000000" fill="none"/>
<path d="M13.945312500000002 17.975810441784457L13.945312500000002 17.651050915365293L14.15625 17.529266092958107" stroke-width="0.03" stroke="#000000" fill="none"/>
<path d="M14.15625 17.610455974562896L14.718749999999998 17.28569644814373L14.718749999999998 16.636177395305403" stroke-width="0.03" stroke="#000000" fill="none"/>
<path d="M14.648437500000002 16.6767723361078L14.9296875 16.514392572898217L14.9296875 16.270822928083845L14.7890625 16.189633046479052L14.5078125 16.352012809688635L14.5078125 16.59558245450301L14.648437500000002 16.6767723361078L14.648437500000002 16.433202691293424L14.9296875 16.270822928083845" stroke-width="0.03" stroke="#000000" fill="none"/>
<path d="M14.9296875 16.433202691293424L15.070312500000002 16.352012809688635L15.070312500000002 15.702493756850306L14.7890625 15.540113993640723L14.718749999999998 15.580708934443118L14.15625 15.255949408023953" stroke-width="0.03" stroke="#000000" fill="none"/>
<path d="M14.15625 15.580708934443118L14.718749999999998 15.905468460862282L15.070312500000002 15.702493756850306" stroke-width="0.03" stroke="#000000" fill="none"/>
<path d="M14.718749999999998 15.580708934443118L14.718749999999998 15.093569644814371L14.015625 14.687620236790417" stroke-width="0.03" stroke="#000000" fill="none"/>
<path d="M14.015625 14.768810118395209L14.015625 13.388582131113758L13.5234375 13.10441754549699L13.5234375 12.536088374263452L12.328125000000002 11.845974380622728" stroke-width="0.03" stroke="#000000" fill="none"/>
<path d="M12.3984375 11.886569321425123L12.3984375 11.074670505377211L11.976562500000002 10.831100860562838L12.046875 10.790505919760442L12.046875 10.465746393341277L11.484375000000002 10.140986866922113L11.34375 10.222176748526905" stroke-width="0.03" stroke="#000000" fill="none"/>
<path d="M11.273437500000002 10.181581807724509L10.9921875 10.343961570934091L10.9921875 10.506341334143674L11.203125 10.62812615655086L11.484375000000002 10.465746393341277L11.484375000000002 10.303366630131695L11.273437500000002 10.181581807724509" stroke-width="0.03" stroke="#000000" fill="none"/>
<path d="M11.484375000000002 10.303366630131695L11.203125 10.465746393341277L10.9921875 10.343961570934091" stroke-width="0.03" stroke="#000000" fill="none"/>
<path d="M11.0625 10.303366630131695L10.5 9.97860710371253L9.9375 10.303366630131695" stroke-width="0.03" stroke="#000000" fill="none"/>
<path d="M10.0078125 10.343961570934091L9.796875 10.465746393341277L9.515625 10.303366630131695L9.515625 10.465746393341277L9.796875 10.62812615655086L10.0078125 10.506341334143674L10.0078125 10.343961570934091L9.7265625 10.181581807724509L9.515625 10.303366630131695" stroke-width="0.03" stroke="#000000" fill="none"/>
<path d="M9.65625 10.222176748526905L9.515625 10.140986866922113L8.953125 10.465746393341277L8.953125 10.790505919760442L9.0234375 10.831100860562838L9.0234375 11.480619913401167" stroke-width="0.03" stroke="#000000" fill="none"/>
<path d="M9.3046875 11.318240150191585L9.3046875 10.668721097353256L8.953125 10.465746393341277" stroke-width="0.03" stroke="#000000" fill="none"/>
<path d="M9.0234375 10.831100860562838L8.6015625 11.074670505377211" stroke-width="0.03" stroke="#000000" fill="none"/>
<path d="M8.671875 11.683594617413146L10.4296875 10.668721097353256L10.5 10.709316038155652L10.570312500000002 10.668721097353256L12.328125000000002 11.683594617413146L12.328125000000002 13.794531539137715L14.15625 14.85L14.15625 16.879747040119774L14.0859375 16.920341980922174L14.0859375 17.001531862526964L12.328125000000002 18.016405382586854L10.5 16.960936921724567L10.5 16.39260775049103L12.328125000000002 17.448076211353314L13.6640625 16.6767723361078L13.6640625 15.134164585616768L11.835937500000002 14.078696124754483L11.835937500000002 11.967759203029914L10.5 11.196455327784399L9.1640625 11.967759203029914L8.671875 11.683594617413146L8.671875 13.794531539137715L6.84375 14.85L6.84375 16.879747040119774L6.914062500000001 16.920341980922174L6.914062500000001 17.001531862526964L8.671875 18.016405382586854L10.5 16.960936921724567" stroke-width="0.03" stroke="#000000" fill="none"/>
<path d="M10.218750000000002 17.123316684934153L10.218750000000002 17.529266092958107L10.0078125 17.651050915365293L9.65625 17.448076211353314" stroke-width="0.03" stroke="#000000" fill="none"/>
<path d="M10.0078125 17.24510150734134L10.0078125 17.651050915365293" stroke-width="0.03" stroke="#000000" fill="none"/>
<path d="M10.5 18.178785145796436L10.5 18.990683961844347L10.218750000000002 19.15306372505393" stroke-width="0.03" stroke="#000000" fill="none"/>
<path d="M10.5 18.990683961844347L10.78125 19.15306372505393" stroke-width="0.03" stroke="#000000" fill="none"/>
<path d="M10.5 19.640203014682676L10.218750000000002 19.802582777892262L10.218750000000002 18.5035446722156" stroke-width="0.03" stroke="#000000" fill="none"/>
<path d="M10.0078125 18.462949731413204L10.0078125 21.223405705976102L10.218750000000002 21.101620883568916L10.218750000000002 20.12734230431142L10.5 19.96496254110184L10.78125 20.12734230431142L10.78125 21.101620883568916L10.9921875 21.223405705976102L12.46875 20.370911949125794" stroke-width="0.03" stroke="#000000" fill="none"/>
<path d="M12.8203125 20.573886653137773L15.070312500000002 19.274848547461115L15.070312500000002 17.48867115215571L16.617187500000004 16.59558245450301L16.617187500000004 13.997506243149692L15.351562500000002 13.266797308706572L14.015625 14.038101183952087" stroke-width="0.03" stroke="#000000" fill="none"/>
<path d="M13.875 13.46977201271855L16.265625 12.0895440254371L16.265625 13.794531539137715" stroke-width="0.03" stroke="#000000" fill="none"/>
<path d="M16.617187500000004 13.997506243149692L14.718749999999998 15.093569644814371" stroke-width="0.03" stroke="#000000" fill="none"/>
<path d="M14.15625 14.85L13.6640625 15.134164585616768" stroke-width="0.03" stroke="#000000" fill="none"/>
<path d="M13.875 14.687620236790417L13.875 13.46977201271855L13.382812500000002 13.18560742710178L13.382812500000002 12.617278255868243L15.773437500000002 11.237050268586794L15.773437500000002 11.480619913401167L14.9296875 11.967759203029914L14.9296875 12.292518729449078L15.2109375 12.45489849265866L16.0546875 11.967759203029914L16.265625 12.0895440254371" stroke-width="0.03" stroke="#000000" fill="none"/>
<path d="M15.773437500000002 11.237050268586794L14.296875000000002 10.384556511736488" stroke-width="0.03" stroke="#000000" fill="none"/>
<path d="M14.296875000000002 9.97860710371253L12.3984375 11.074670505377211" stroke-width="0.03" stroke="#000000" fill="none"/>
<path d="M11.976562500000002 10.831100860562838L11.976562500000002 11.480619913401167" stroke-width="0.03" stroke="#000000" fill="none"/>
<path d="M11.6953125 11.318240150191585L11.6953125 10.668721097353256L12.046875 10.465746393341277" stroke-width="0.03" stroke="#000000" fill="none"/>
<path d="M11.6953125 10.668721097353256L11.4140625 10.506341334143674" stroke-width="0.03" stroke="#000000" fill="none"/>
<path d="M11.203125 10.465746393341277L11.203125 10.62812615655086" stroke-width="0.03" stroke="#000000" fill="none"/>
<path d="M11.1328125 10.587531215748463L11.1328125 10.99348062377242" stroke-width="0.03" stroke="#000000" fill="none"/>
<path d="M10.5 11.196455327784399L10.5 14.85L7.3359375 16.6767723361078L7.3359375 15.134164585616768L9.1640625 14.078696124754483L9.1640625 11.967759203029914" stroke-width="0.03" stroke="#000000" fill="none"/>
<path d="M8.671875 11.845974380622728L7.4765625 12.536088374263452L7.4765625 13.10441754549699L6.984375 13.388582131113758L6.984375 14.768810118395209" stroke-width="0.03" stroke="#000000" fill="none"/>
<path d="M6.84375 14.85L7.3359375 15.134164585616768" stroke-width="0.03" stroke="#000000" fill="none"/>
<path d="M6.84375 15.255949408023953L6.28125 15.580708934443118L6.210937500000001 15.540113993640723L5.9296875 15.702493756850306L5.9296875 16.352012809688635L6.0703125 16.433202691293424" stroke-width="0.03" stroke="#000000" fill="none"/>
<path d="M6.0703125 16.514392572898217L6.0703125 16.270822928083845L6.210937500000001 16.189633046479052L6.492187500000001 16.352012809688635L6.492187500000001 16.59558245450301L6.3515625 16.6767723361078L6.0703125 16.514392572898217" stroke-width="0.03" stroke="#000000" fill="none"/>
<path d="M6.0703125 16.270822928083845L6.3515625 16.433202691293424L6.492187500000001 16.352012809688635" stroke-width="0.03" stroke="#000000" fill="none"/>
<path d="M6.492187500000001 16.433202691293424L6.84375 16.230227987281445" stroke-width="0.03" stroke="#000000" fill="none"/>
<path d="M6.3515625 16.433202691293424L6.3515625 16.6767723361078" stroke-width="0.03" stroke="#000000" fill="none"/>
<path d="M6.28125 16.636177395305403L6.28125 17.28569644814373L6.84375 17.610455974562896" stroke-width="0.03" stroke="#000000" fill="none"/>
<path d="M6.84375 17.529266092958107L6.984375 17.448076211353314L7.1953125 17.569861033760503L7.1953125 17.894620560179668L7.0546875 17.975810441784457L6.84375 17.85402561937727L6.84375 17.529266092958107L7.0546875 17.651050915365293L7.1953125 17.569861033760503" stroke-width="0.03" stroke="#000000" fill="none"/>
<path d="M7.125 17.529266092958107L7.4765625 17.326291388946128" stroke-width="0.03" stroke="#000000" fill="none"/>
<path d="M7.0546875 17.651050915365293L7.0546875 17.975810441784457" stroke-width="0.03" stroke="#000000" fill="none"/>
<path d="M6.914062500000001 17.894620560179668L6.914062500000001 18.057000323389246L7.4765625 18.38175984980841L7.757812499999999 18.219380086598832L7.757812499999999 18.13819020499404L8.3203125 17.813430678574875" stroke-width="0.03" stroke="#000000" fill="none"/>
<path d="M8.0390625 17.651050915365293L7.4765625 17.975810441784457L7.4765625 18.38175984980841" stroke-width="0.03" stroke="#000000" fill="none"/>
<path d="M7.757812499999999 18.13819020499404L8.1796875 18.38175984980841L8.8828125 17.975810441784457" stroke-width="0.03" stroke="#000000" fill="none"/>
<path d="M8.8125 17.93521550098206L10.0078125 18.625329494622786L10.5 18.341164909006018L10.9921875 18.625329494622786L12.187500000000002 17.93521550098206" stroke-width="0.03" stroke="#000000" fill="none"/>
<path d="M12.328125000000002 18.016405382586854L12.328125000000002 17.448076211353314" stroke-width="0.03" stroke="#000000" fill="none"/>
<path d="M12.679687500000002 17.813430678574875L13.242187500000002 18.13819020499404" stroke-width="0.03" stroke="#000000" fill="none"/>
<path d="M13.5234375 17.975810441784457L13.8046875 17.813430678574875" stroke-width="0.03" stroke="#000000" fill="none"/>
<path d="M13.945312500000002 17.651050915365293L13.8046875 17.569861033760503" stroke-width="0.03" stroke="#000000" fill="none"/>
<path d="M13.875 17.529266092958107L13.5234375 17.326291388946128" stroke-width="0.03" stroke="#000000" fill="none"/>
<path d="M13.5234375 17.975810441784457L13.5234375 18.38175984980841" stroke-width="0.03" stroke="#000000" fill="none"/>
<path d="M13.5234375 17.975810441784457L12.9609375 17.651050915365293" stroke-width="0.03" stroke="#000000" fill="none"/>
<path d="M12.8203125 18.38175984980841L12.8203125 20.573886653137773L11.5546875 19.843177718694655L11.5546875 18.30056996820362" stroke-width="0.03" stroke="#000000" fill="none"/>
<path d="M10.9921875 18.462949731413204L10.9921875 21.223405705976102" stroke-width="0.03" stroke="#000000" fill="none"/>
<path d="M10.0078125 21.223405705976102L8.53125 20.370911949125794" stroke-width="0.03" stroke="#000000" fill="none"/>
<path d="M8.1796875 20.573886653137773L8.1796875 18.38175984980841" stroke-width="0.03" stroke="#000000" fill="none"/>
<path d="M8.671875 18.016405382586854L8.671875 17.448076211353314L7.3359375 16.6767723361078" stroke-width="0.03" stroke="#000000" fill="none"/>
<path d="M6.914062500000001 16.920341980922174L6.28125 17.28569644814373" stroke-width="0.03" stroke="#000000" fill="none"/>
<path d="M5.9296875 17.48867115215571L5.2265625 17.894620560179668L5.2265625 20.41150688992819L6.5625 19.640203014682676" stroke-width="0.03" stroke="#000000" fill="none"/>
<path d="M5.2265625 20.41150688992819L4.875 20.208532185916212L4.875 18.097595264191643L3.046875 17.04212680332936L3.046875 16.636177395305403L4.382812499999999 15.864873520059888" stroke-width="0.03" stroke="#000000" fill="none"/>
<path d="M3.046875 16.636177395305403L5.2265625 17.894620560179668" stroke-width="0.03" stroke="#000000" fill="none"/>
<path d="M4.875 18.828304198634765L4.1015625 19.274848547461115L4.1015625 19.59960807388028L4.734375 19.96496254110184L4.875 19.883772659497048" stroke-width="0.03" stroke="#000000" fill="none"/>
<path d="M4.734375 19.96496254110184L4.734375 19.640203014682676L4.875 19.559013133077883" stroke-width="0.03" stroke="#000000" fill="none"/>
<path d="M4.734375 19.640203014682676L4.1015625 19.274848547461115" stroke-width="0.03" stroke="#000000" fill="none"/>
<path d="M3.46875 18.178785145796436L4.2421875 17.732240796970082" stroke-width="0.03" stroke="#000000" fill="none"/>
<path d="M3.609375 17.366886329748525L3.46875 17.448076211353314L3.1874999999999996 17.28569644814373L3.1874999999999996 18.016405382586854L3.46875 18.178785145796436L3.46875 17.448076211353314" stroke-width="0.03" stroke="#000000" fill="none"/>
<path d="M3.328125000000001 17.204506566538942L3.1874999999999996 17.28569644814373" stroke-width="0.03" stroke="#000000" fill="none"/>
<path d="M5.9296875 15.702493756850306L6.28125 15.905468460862282L6.84375 15.580708934443118" stroke-width="0.03" stroke="#000000" fill="none"/>
<path d="M6.28125 15.580708934443118L6.28125 15.093569644814371" stroke-width="0.03" stroke="#000000" fill="none"/>
<path d="M6.28125 15.905468460862282L6.28125 16.230227987281445" stroke-width="0.03" stroke="#000000" fill="none"/>
<path d="M7.1953125 17.813430678574875L7.4765625 17.975810441784457" stroke-width="0.03" stroke="#000000" fill="none"/>
<path d="M8.671875 17.448076211353314L10.5 16.39260775049103" stroke-width="0.03" stroke="#000000" fill="none"/>
<path d="M10.5 15.986658342467075L10.0078125 16.270822928083845L9.867187500000002 16.189633046479052L9.867187500000002 16.10844316487426L10.359375 15.824278579257493L9.867187500000002 15.540113993640723L10.0078125 15.458924112035932L10.5 15.7430886976527L10.9921875 15.458924112035932L11.1328125 15.540113993640723L11.1328125 15.621303875245514L10.7109375 15.864873520059888" stroke-width="0.03" stroke="#000000" fill="none"/>
<path d="M10.640625 15.824278579257493L11.1328125 15.540113993640723" stroke-width="0.03" stroke="#000000" fill="none"/>
<path d="M11.484375000000002 15.499519052838329L11.5546875 15.458924112035932L11.5546875 15.377734230431141L11.6953125 15.29654434882635L11.90625 15.418329171233536L11.90625 15.499519052838329L11.6953125 15.621303875245514L11.484375000000002 15.499519052838329L11.484375000000002 15.661898816047911L11.6953125 15.783683638455097L11.765625 15.7430886976527L11.765625 15.499519052838329L11.90625 15.418329171233536" stroke-width="0.03" stroke="#000000" fill="none"/>
<path d="M11.765625 15.499519052838329L11.5546875 15.377734230431141" stroke-width="0.03" stroke="#000000" fill="none"/>
<path d="M11.6953125 15.621303875245514L11.6953125 15.783683638455097" stroke-width="0.03" stroke="#000000" fill="none"/>
<path d="M11.1328125 16.10844316487426L10.9921875 16.189633046479052L10.9921875 16.270822928083845L10.5 15.986658342467075L10.5 15.905468460862282L10.0078125 16.189633046479052L10.0078125 16.270822928083845" stroke-width="0.03" stroke="#000000" fill="none"/>
<path d="M10.0078125 16.189633046479052L9.867187500000002 16.10844316487426" stroke-width="0.03" stroke="#000000" fill="none"/>
<path d="M10.2890625 15.864873520059888L9.867187500000002 15.621303875245514L9.867187500000002 15.540113993640723" stroke-width="0.03" stroke="#000000" fill="none"/>
<path d="M9.515625 15.499519052838329L9.3046875 15.621303875245514L9.09375 15.499519052838329L9.09375 15.418329171233536L9.3046875 15.29654434882635L9.4453125 15.377734230431141L9.4453125 15.458924112035932L9.515625 15.499519052838329L9.515625 15.661898816047911L9.3046875 15.783683638455097L9.234375 15.7430886976527L9.234375 15.499519052838329L9.09375 15.418329171233536" stroke-width="0.03" stroke="#000000" fill="none"/>
<path d="M9.234375 15.499519052838329L9.4453125 15.377734230431141" stroke-width="0.03" stroke="#000000" fill="none"/>
<path d="M9.3046875 15.621303875245514L9.3046875 15.783683638455097" stroke-width="0.03" stroke="#000000" fill="none"/>
<path d="M9.5859375 15.052974704011977L9.7265625 14.971784822407185L9.7265625 14.403455651173648L10.218750000000002 14.11929106555688L10.218750000000002 13.956911302347297L10.1484375 13.9163163615449L9.7265625 14.159886006359274" stroke-width="0.03" stroke="#000000" fill="none"/>
<path d="M9.7265625 14.241075887964065L10.218750000000002 13.956911302347297" stroke-width="0.03" stroke="#000000" fill="none"/>
<path d="M10.4296875 13.672746716730527L10.5 13.632151775928133L10.570312500000002 13.672746716730527L10.7109375 13.591556835125736L10.7109375 13.347987190311363L10.640625 13.307392249508968L10.4296875 13.429177071916154L10.2890625 13.347987190311363L10.2890625 13.591556835125736L10.4296875 13.672746716730527L10.4296875 13.429177071916154" stroke-width="0.03" stroke="#000000" fill="none"/>
<path d="M10.359375 13.307392249508968L10.2890625 13.347987190311363" stroke-width="0.03" stroke="#000000" fill="none"/>
<path d="M10.359375 13.307392249508968L10.570312500000002 13.429177071916154L10.7109375 13.347987190311363" stroke-width="0.03" stroke="#000000" fill="none"/>
<path d="M10.570312500000002 13.429177071916154L10.570312500000002 13.672746716730527" stroke-width="0.03" stroke="#000000" fill="none"/>
<path d="M10.78125 13.956911302347297L10.8515625 13.9163163615449L11.273437500000002 14.159886006359274" stroke-width="0.03" stroke="#000000" fill="none"/>
<path d="M11.273437500000002 14.241075887964065L11.273437500000002 13.672746716730527L11.34375 13.632151775928133L11.484375000000002 13.713341657532922L11.484375000000002 14.281670828766462L11.976562500000002 14.56583541438323L11.976562500000002 14.728215177592812L11.90625 14.768810118395209L11.4140625 14.484645532778439L11.4140625 15.052974704011977L11.484375000000002 15.012379763209582L11.484375000000002 14.525240473580833" stroke-width="0.03" stroke="#000000" fill="none"/>
<path d="M11.4140625 14.322265769568856L11.484375000000002 14.281670828766462" stroke-width="0.03" stroke="#000000" fill="none"/>
<path d="M11.4140625 14.322265769568856L11.4140625 13.753936598335319L11.273437500000002 13.672746716730527" stroke-width="0.03" stroke="#000000" fill="none"/>
<path d="M11.4140625 13.753936598335319L11.484375000000002 13.713341657532922" stroke-width="0.03" stroke="#000000" fill="none"/>
<path d="M11.835937500000002 14.078696124754483L12.328125000000002 13.794531539137715" stroke-width="0.03" stroke="#000000" fill="none"/>
<path d="M12.609375 13.956911302347297L12.9609375 13.753936598335319L13.171875 13.875721420742504L13.171875 14.281670828766462" stroke-width="0.03" stroke="#000000" fill="none"/>
<path d="M12.8203125 14.078696124754483L13.171875 13.875721420742504" stroke-width="0.03" stroke="#000000" fill="none"/>
<path d="M13.382812500000002 13.18560742710178L14.0859375 12.779658019077825L14.367187500000002 12.942037782287407" stroke-width="0.03" stroke="#000000" fill="none"/>
<path d="M14.0859375 12.779658019077825L14.0859375 12.45489849265866" stroke-width="0.03" stroke="#000000" fill="none"/>
<path d="M14.648437500000002 12.45489849265866L15.000000000000002 12.251923788646682L15.000000000000002 11.927164262227517" stroke-width="0.03" stroke="#000000" fill="none"/>
<path d="M15.000000000000002 12.251923788646682L15.28125 12.414303551856264" stroke-width="0.03" stroke="#000000" fill="none"/>
<path d="M14.9296875 12.617278255868243L13.8046875 13.266797308706572" stroke-width="0.03" stroke="#000000" fill="none"/>
<path d="M13.5234375 12.779658019077825L14.648437500000002 12.130138966239496L14.648437500000002 12.45489849265866L14.9296875 12.617278255868243" stroke-width="0.03" stroke="#000000" fill="none"/>
<path d="M14.296875000000002 11.44002497259877L12.9609375 12.211328847844287" stroke-width="0.03" stroke="#000000" fill="none"/>
<path d="M13.382812500000002 12.617278255868243L12.328125000000002 12.00835414383231" stroke-width="0.03" stroke="#000000" fill="none"/>
<path d="M12.328125000000002 11.683594617413146L11.835937500000002 11.967759203029914" stroke-width="0.03" stroke="#000000" fill="none"/>
<path d="M12.328125000000002 12.820252959880222L12.679687500000002 13.023227663892198L12.679687500000002 13.266797308706572L12.328125000000002 13.46977201271855" stroke-width="0.03" stroke="#000000" fill="none"/>
<path d="M12.328125000000002 13.226202367904175L12.679687500000002 13.023227663892198" stroke-width="0.03" stroke="#000000" fill="none"/>
<path d="M11.976562500000002 14.56583541438323L11.90625 14.606430355185626L11.4140625 14.322265769568856" stroke-width="0.03" stroke="#000000" fill="none"/>
<path d="M11.273437500000002 14.403455651173648L11.273437500000002 14.971784822407185L11.4140625 15.052974704011977" stroke-width="0.03" stroke="#000000" fill="none"/>
<path d="M11.90625 14.768810118395209L11.90625 14.606430355185626" stroke-width="0.03" stroke="#000000" fill="none"/>
<path d="M11.273437500000002 14.403455651173648L10.78125 14.11929106555688L10.78125 13.956911302347297L11.273437500000002 14.241075887964065" stroke-width="0.03" stroke="#000000" fill="none"/>
<path d="M10.5 14.85L13.6640625 16.6767723361078" stroke-width="0.03" stroke="#000000" fill="none"/>
<path d="M14.0859375 16.920341980922174L14.718749999999998 17.28569644814373" stroke-width="0.03" stroke="#000000" fill="none"/>
<path d="M15.070312500000002 17.48867115215571L15.773437500000002 17.894620560179668L15.773437500000002 20.41150688992819L14.437500000000002 19.640203014682676" stroke-width="0.03" stroke="#000000" fill="none"/>
<path d="M15.773437500000002 20.41150688992819L16.125 20.208532185916212L16.125 18.097595264191643L17.953125000000004 17.04212680332936L17.953125000000004 16.636177395305403L16.617187500000004 15.864873520059888" stroke-width="0.03" stroke="#000000" fill="none"/>
<path d="M17.953125000000004 16.636177395305403L15.773437500000002 17.894620560179668" stroke-width="0.03" stroke="#000000" fill="none"/>
<path d="M16.125 18.828304198634765L16.8984375 19.274848547461115L16.8984375 19.59960807388028L16.265625 19.96496254110184L16.125 19.883772659497048" stroke-width="0.03" stroke="#000000" fill="none"/>
<path d="M16.265625 19.96496254110184L16.265625 19.640203014682676L16.125 19.559013133077883" stroke-width="0.03" stroke="#000000" fill="none"/>
<path d="M16.265625 19.640203014682676L16.8984375 19.274848547461115" stroke-width="0.03" stroke="#000000" fill="none"/>
<path d="M17.53125 18.178785145796436L17.8125 18.016405382586854L17.8125 17.28569644814373L17.671875 17.204506566538942" stroke-width="0.03" stroke="#000000" fill="none"/>
<path d="M17.8125 17.28569644814373L17.53125 17.448076211353314L17.390625 17.366886329748525" stroke-width="0.03" stroke="#000000" fill="none"/>
<path d="M17.53125 17.448076211353314L17.53125 18.178785145796436L16.7578125 17.732240796970082" stroke-width="0.03" stroke="#000000" fill="none"/>
<path d="M14.648437500000002 16.433202691293424L14.5078125 16.352012809688635" stroke-width="0.03" stroke="#000000" fill="none"/>
<path d="M14.5078125 16.433202691293424L14.15625 16.230227987281445" stroke-width="0.03" stroke="#000000" fill="none"/>
<path d="M14.718749999999998 16.230227987281445L14.718749999999998 15.905468460862282" stroke-width="0.03" stroke="#000000" fill="none"/>
<path d="M11.1328125 16.10844316487426L11.1328125 16.189633046479052L10.9921875 16.270822928083845" stroke-width="0.03" stroke="#000000" fill="none"/>
<path d="M10.9921875 16.189633046479052L10.5 15.905468460862282" stroke-width="0.03" stroke="#000000" fill="none"/>
<path d="M10.640625 15.824278579257493L11.1328125 16.10844316487426" stroke-width="0.03" stroke="#000000" fill="none"/>
<path d="M10.78125 17.123316684934153L10.78125 17.529266092958107L10.9921875 17.651050915365293L11.34375 17.448076211353314" stroke-width="0.03" stroke="#000000" fill="none"/>
<path d="M10.9921875 17.24510150734134L10.9921875 17.651050915365293" stroke-width="0.03" stroke="#000000" fill="none"/>
<path d="M10.78125 18.5035446722156L10.78125 19.802582777892262L10.5 19.640203014682676L10.5 20.04615242270663L10.218750000000002 20.208532185916212" stroke-width="0.03" stroke="#000000" fill="none"/>
<path d="M10.5 20.04615242270663L10.78125 20.208532185916212" stroke-width="0.03" stroke="#000000" fill="none"/>
<path d="M10.0078125 18.462949731413204L8.953125 17.85402561937727" stroke-width="0.03" stroke="#000000" fill="none"/>
<path d="M9.5859375 15.052974704011977L9.5859375 14.484645532778439L9.09375 14.768810118395209L9.0234375 14.728215177592812L9.0234375 14.56583541438323L9.515625 14.281670828766462L9.5859375 14.322265769568856L9.5859375 13.753936598335319L9.515625 13.713341657532922L9.65625 13.632151775928133L9.7265625 13.672746716730527L9.7265625 14.241075887964065" stroke-width="0.03" stroke="#000000" fill="none"/>
<path d="M9.5859375 14.322265769568856L9.09375 14.606430355185626L9.09375 14.768810118395209" stroke-width="0.03" stroke="#000000" fill="none"/>
<path d="M9.09375 14.606430355185626L9.0234375 14.56583541438323" stroke-width="0.03" stroke="#000000" fill="none"/>
<path d="M9.515625 14.525240473580833L9.515625 15.012379763209582L9.5859375 15.052974704011977" stroke-width="0.03" stroke="#000000" fill="none"/>
<path d="M9.515625 14.281670828766462L9.515625 13.713341657532922" stroke-width="0.03" stroke="#000000" fill="none"/>
<path d="M9.5859375 13.753936598335319L9.7265625 13.672746716730527" stroke-width="0.03" stroke="#000000" fill="none"/>
<path d="M9.1640625 14.078696124754483L8.671875 13.794531539137715" stroke-width="0.03" stroke="#000000" fill="none"/>
<path d="M8.390625 13.956911302347297L8.0390625 13.753936598335319L7.828125 13.875721420742504L7.828125 14.281670828766462" stroke-width="0.03" stroke="#000000" fill="none"/>
<path d="M8.1796875 14.078696124754483L7.828125 13.875721420742504" stroke-width="0.03" stroke="#000000" fill="none"/>
<path d="M7.6171875 13.18560742710178L6.914062500000001 12.779658019077825L6.6328125 12.942037782287407" stroke-width="0.03" stroke="#000000" fill="none"/>
<path d="M6.914062500000001 12.779658019077825L6.914062500000001 12.45489849265866" stroke-width="0.03" stroke="#000000" fill="none"/>
<path d="M6.3515625 12.45489849265866L6.0703125 12.617278255868243L7.1953125 13.266797308706572" stroke-width="0.03" stroke="#000000" fill="none"/>
<path d="M7.4765625 12.779658019077825L6.3515625 12.130138966239496L6.3515625 12.45489849265866L6 12.251923788646682L6 11.927164262227517" stroke-width="0.03" stroke="#000000" fill="none"/>
<path d="M6 12.251923788646682L5.71875 12.414303551856264" stroke-width="0.03" stroke="#000000" fill="none"/>
<path d="M8.3203125 13.023227663892198L8.671875 12.820252959880222" stroke-width="0.03" stroke="#000000" fill="none"/>
<path d="M8.671875 13.226202367904175L8.3203125 13.023227663892198L8.3203125 13.266797308706572L8.671875 13.46977201271855" stroke-width="0.03" stroke="#000000" fill="none"/>
<path d="M9.867187500000002 10.99348062377242L9.867187500000002 10.587531215748463" stroke-width="0.03" stroke="#000000" fill="none"/>
<path d="M9.796875 10.62812615655086L9.796875 10.465746393341277" stroke-width="0.03" stroke="#000000" fill="none"/>
<path d="M9.5859375 10.506341334143674L9.3046875 10.668721097353256" stroke-width="0.03" stroke="#000000" fill="none"/>
<path d="M10.5 10.709316038155652L10.5 9.97860710371253" stroke-width="0.03" stroke="#000000" fill="none"/>
<path d="M10.5 9.572657695688576L10.5 8.760758879640663L8.3203125 7.502315714766402L8.3203125 9.044923465257433" stroke-width="0.03" stroke="#000000" fill="none"/>
<path d="M9.234375 7.624100537173588L9.234375 7.4617207739640055L8.953125 7.299341010754423L9.5859375 6.933986543532863L9.867187500000002 7.096366306742446L9.867187500000002 7.989455004395149" stroke-width="0.03" stroke="#000000" fill="none"/>
<path d="M9.234375 7.4617207739640055L9.867187500000002 7.096366306742446" stroke-width="0.03" stroke="#000000" fill="none"/>
<path d="M8.953125 7.299341010754423L8.953125 7.4617207739640055" stroke-width="0.03" stroke="#000000" fill="none"/>
<path d="M10.5 8.760758879640663L12.679687500000002 7.502315714766402" stroke-width="0.03" stroke="#000000" fill="none"/>
<path d="M12.046875 7.4617207739640055L12.046875 7.299341010754423L11.4140625 6.933986543532863L11.1328125 7.096366306742446L11.1328125 7.989455004395149" stroke-width="0.03" stroke="#000000" fill="none"/>
<path d="M11.765625 7.624100537173588L11.765625 7.4617207739640055L12.046875 7.299341010754423" stroke-width="0.03" stroke="#000000" fill="none"/>
<path d="M11.765625 7.4617207739640055L11.1328125 7.096366306742446" stroke-width="0.03" stroke="#000000" fill="none"/>
<path d="M12.046875 8.679568998035872L14.296875000000002 9.97860710371253L14.296875000000002 11.44002497259877" stroke-width="0.03" stroke="#000000" fill="none"/>
<path d="M7.264131938244363 2.2599663291074443L1.5 2.2599663291074443" stroke-width="0.03" stroke="#000000" fill="none"/>
<path d="M2.0824957911384305 2.015598694615191L2.0824957911384305 1.7268634256306838" stroke-width="0.03" stroke="#000000" fill="none"/>
<path d="M2.061871843353823 1.5824957911384305L2.0824957911384305 1.6031197389230383L2.1031197389230383 1.5824957911384305L2.0824957911384305 1.5618718433538228L2.061871843353823 1.5824957911384305" stroke-width="0.03" stroke="#000000" fill="none"/>
<path d="M2.226863425630684 1.953726851261368L2.2474873734152916 1.9949747468305832L2.3093592167691144 2.015598694615191L2.3712310601229376 2.015598694615191L2.4331029034767604 1.9949747468305832L2.4537268512613677 1.953726851261368L2.4537268512613677 1.9331029034767604L2.4331029034767604 1.891855007907545L2.391855007907545 1.8712310601229374L2.2887352689845066 1.8506071123383299L2.2474873734152916 1.8299831645537221L2.226863425630684 1.7887352689845069L2.2474873734152916 1.7474873734152916L2.3093592167691144 1.7268634256306838L2.3712310601229376 1.7268634256306838L2.4331029034767604 1.7474873734152916L2.4537268512613677 1.7887352689845069" stroke-width="0.03" stroke="#000000" fill="none"/>
<path d="M2.680590276892052 1.7268634256306838L2.6393423813228365 1.7474873734152916L2.5980944857536215 1.7887352689845069L2.5774705379690137 1.8506071123383299L2.5774705379690137 1.891855007907545L2.5980944857536215 1.953726851261368L2.6393423813228365 1.9949747468305832L2.680590276892052 2.015598694615191L2.7424621202458748 2.015598694615191L2.78371001581509 1.9949747468305832L2.8249579113843053 1.953726851261368L2.845581859168913 1.891855007907545L2.845581859168913 1.8506071123383299L2.8249579113843053 1.7887352689845069L2.78371001581509 1.7474873734152916L2.7424621202458748 1.7268634256306838L2.680590276892052 1.7268634256306838" stroke-width="0.03" stroke="#000000" fill="none"/>
<path d="M2.907453702522736 2.056846590184406L3.237436867076458 2.056846590184406" stroke-width="0.03" stroke="#000000" fill="none"/>
<path d="M3.2993087104302807 1.953726851261368L3.3199326582148885 1.9949747468305832L3.3818045015687113 2.015598694615191L3.443676344922534 2.015598694615191L3.5055481882763573 1.9949747468305832L3.526172136060965 1.953726851261368L3.526172136060965 1.9331029034767604L3.5055481882763573 1.891855007907545L3.464300292707142 1.8712310601229374L3.361180553784104 1.8506071123383299L3.3199326582148885 1.8299831645537221L3.2993087104302807 1.7887352689845069L3.3199326582148885 1.7474873734152916L3.3818045015687113 1.7268634256306838L3.443676344922534 1.7268634256306838L3.5055481882763573 1.7474873734152916L3.526172136060965 1.7887352689845069" stroke-width="0.03" stroke="#000000" fill="none"/>
<path d="M3.6705397705532183 1.8093592167691144L3.732411613907041 1.7474873734152916L3.773659509476256 1.7268634256306838L3.8355313528300794 1.7268634256306838L3.8767792483992944 1.7474873734152916L3.897403196183902 1.8093592167691144L3.897403196183902 2.015598694615191" stroke-width="0.03" stroke="#000000" fill="none"/>
<path d="M3.6705397705532183 2.015598694615191L3.6705397705532183 1.7268634256306838" stroke-width="0.03" stroke="#000000" fill="none"/>
<path d="M4.144890569599194 1.7268634256306838L4.103642674029978 1.7474873734152916L4.062394778460764 1.7887352689845069L4.041770830676155 1.8506071123383299L4.041770830676155 1.891855007907545L4.062394778460764 1.953726851261368L4.103642674029978 1.9949747468305832L4.144890569599194 2.015598694615191L4.206762412953017 2.015598694615191L4.2480103085222325 1.9949747468305832L4.289258204091447 1.953726851261368L4.309882151876055 1.891855007907545L4.309882151876055 1.8506071123383299L4.289258204091447 1.7887352689845069L4.2480103085222325 1.7474873734152916L4.206762412953017 1.7268634256306838L4.144890569599194 1.7268634256306838" stroke-width="0.03" stroke="#000000" fill="none"/>
<path d="M4.4336258385837 1.7268634256306838L4.516121629722131 2.015598694615191L4.5986174208605615 1.7268634256306838L4.681113211998992 2.015598694615191L4.7636090031374225 1.7268634256306838" stroke-width="0.03" stroke="#000000" fill="none"/>
<path d="M4.866728742060461 1.7268634256306838L5.011096376552715 1.7268634256306838" stroke-width="0.03" stroke="#000000" fill="none"/>
<path d="M5.031720324337321 1.5824957911384305L4.990472428768107 1.5824957911384305L4.949224533198891 1.6031197389230383L4.928600585414284 1.664991582276861L4.928600585414284 2.015598694615191" stroke-width="0.03" stroke="#000000" fill="none"/>
<path d="M5.155464011044968 2.015598694615191L5.155464011044968 1.5824957911384305" stroke-width="0.03" stroke="#000000" fill="none"/>
<path d="M5.547319018952512 1.7268634256306838L5.547319018952512 2.015598694615191" stroke-width="0.03" stroke="#000000" fill="none"/>
<path d="M5.547319018952512 1.953726851261368L5.506071123383298 1.9949747468305832L5.464823227814082 2.015598694615191L5.402951384460259 2.015598694615191L5.3617034888910435 1.9949747468305832L5.320455593321829 1.953726851261368L5.299831645537221 1.891855007907545L5.299831645537221 1.8506071123383299L5.320455593321829 1.7887352689845069L5.3617034888910435 1.7474873734152916L5.402951384460259 1.7268634256306838L5.464823227814082 1.7268634256306838L5.506071123383298 1.7474873734152916L5.547319018952512 1.7887352689845069" stroke-width="0.03" stroke="#000000" fill="none"/>
<path d="M5.712310601229374 1.9331029034767604L5.91855007907545 1.7268634256306838" stroke-width="0.03" stroke="#000000" fill="none"/>
<path d="M5.794806392367804 1.8506071123383299L5.939174026860058 2.015598694615191" stroke-width="0.03" stroke="#000000" fill="none"/>
<path d="M6.042293765783096 1.8506071123383299L6.2897811391983875 1.8506071123383299L6.2897811391983875 1.8093592167691144L6.26915719141378 1.7681113211998993L6.248533243629172 1.7474873734152916L6.207285348059957 1.7268634256306838L6.145413504706134 1.7268634256306838L6.104165609136919 1.7474873734152916L6.062917713567703 1.7887352689845069L6.042293765783096 1.8506071123383299L6.042293765783096 1.891855007907545L6.062917713567703 1.953726851261368L6.104165609136919 1.9949747468305832L6.145413504706134 2.015598694615191L6.207285348059957 2.015598694615191L6.248533243629172 1.9949747468305832L6.2897811391983875 1.953726851261368" stroke-width="0.03" stroke="#000000" fill="none"/>
<path d="M6.578516408182894 2.015598694615191L6.578516408182894 1.5824957911384305L6.516644564829072 1.6443676344922533L6.475396669259856 1.664991582276861" stroke-width="0.03" stroke="#000000" fill="none"/>
<path d="M5.712310601229374 1.5824957911384305L5.712310601229374 2.015598694615191" stroke-width="0.03" stroke="#000000" fill="none"/>
<path d="M4.49827493976576 2.7491904340990785L4.485528639052669 2.7236978326728973L4.4472897369133975 2.7109515319598065L4.421797135487216 2.7109515319598065L4.383558233347944 2.7236978326728973L4.358065631921763 2.761936734812169L4.345319331208673 2.825668238377622L4.345319331208673 2.889399741943075L4.358065631921763 2.9403849447954378L4.383558233347944 2.965877546221619L4.421797135487216 2.9786238469347097L4.434543436200307 2.9786238469347097L4.472782338339579 2.965877546221619L4.49827493976576 2.9403849447954378L4.511021240478851 2.902146042656166L4.511021240478851 2.889399741943075L4.49827493976576 2.8511608398038035L4.472782338339579 2.825668238377622L4.434543436200307 2.8129219376645316L4.421797135487216 2.8129219376645316L4.383558233347944 2.825668238377622L4.358065631921763 2.8511608398038035L4.345319331208673 2.889399741943075" stroke-width="0.03" stroke="#000000" fill="none"/>
<path d="M4.243348925503947 2.8001756369514412L4.230602624790857 2.8384145390907127L4.205110023364676 2.8639071405168943L4.1668711212254035 2.8766534412299847L4.154124820512314 2.8766534412299847L4.115885918373042 2.8639071405168943L4.0903933169468605 2.8384145390907127L4.07764701623377 2.8001756369514412L4.07764701623377 2.7874293362383504L4.0903933169468605 2.7491904340990785L4.115885918373042 2.7236978326728973L4.154124820512314 2.7109515319598065L4.1668711212254035 2.7109515319598065L4.205110023364676 2.7236978326728973L4.230602624790857 2.7491904340990785L4.243348925503947 2.8001756369514412L4.243348925503947 2.8639071405168943L4.230602624790857 2.927638644082347L4.205110023364676 2.965877546221619L4.1668711212254035 2.9786238469347097L4.141378519799223 2.9786238469347097L4.10313961765995 2.965877546221619L4.0903933169468605 2.9403849447954378" stroke-width="0.03" stroke="#000000" fill="none"/>
<path d="M3.9884229112421354 2.8001756369514412L3.9756766105290446 2.8384145390907127L3.9501840091028635 2.8639071405168943L3.911945106963592 2.8766534412299847L3.899198806250501 2.8766534412299847L3.8609599041112292 2.8639071405168943L3.835467302685048 2.8384145390907127L3.8227210019719573 2.8001756369514412L3.8227210019719573 2.7874293362383504L3.835467302685048 2.7491904340990785L3.8609599041112292 2.7236978326728973L3.899198806250501 2.7109515319598065L3.911945106963592 2.7109515319598065L3.9501840091028635 2.7236978326728973L3.9756766105290446 2.7491904340990785L3.9884229112421354 2.8001756369514412L3.9884229112421354 2.8639071405168943L3.9756766105290446 2.927638644082347L3.9501840091028635 2.965877546221619L3.911945106963592 2.9786238469347097L3.8864525055374104 2.9786238469347097L3.848213603398139 2.965877546221619L3.835467302685048 2.9403849447954378" stroke-width="0.03" stroke="#000000" fill="none"/>
<path d="M3.567794987710145 2.9786238469347097L3.567794987710145 2.7109515319598065L3.6570190927017796 2.7109515319598065L3.695257994841051 2.7236978326728973L3.7207505962672327 2.7491904340990785L3.733496896980323 2.7746830355252596L3.7462431976934134 2.8129219376645316L3.7462431976934134 2.8766534412299847L3.733496896980323 2.9148923433692566L3.7207505962672327 2.9403849447954378L3.695257994841051 2.965877546221619L3.6570190927017796 2.9786238469347097L3.567794987710145 2.9786238469347097" stroke-width="0.03" stroke="#000000" fill="none"/>
<path d="M3.478570882718511 2.9148923433692566L3.4658245820054203 2.9403849447954378L3.440331980579239 2.965877546221619L3.414839379153058 2.9786238469347097L3.3638541763006957 2.9786238469347097L3.338361574874514 2.965877546221619L3.312868973448333 2.9403849447954378L3.3001226727352426 2.9148923433692566L3.287376372022152 2.8766534412299847L3.287376372022152 2.8129219376645316L3.3001226727352426 2.7746830355252596L3.312868973448333 2.7491904340990785L3.338361574874514 2.7236978326728973L3.3638541763006957 2.7109515319598065L3.414839379153058 2.7109515319598065L3.440331980579239 2.7236978326728973L3.4658245820054203 2.7491904340990785L3.478570882718511 2.7746830355252596" stroke-width="0.03" stroke="#000000" fill="none"/>
<path d="M3.057942959186521 2.7109515319598065L3.198152267030517 2.7109515319598065L3.1216744627519737 2.8129219376645316L3.1599133648912456 2.8129219376645316L3.185405966317427 2.825668238377622L3.198152267030517 2.8384145390907127L3.210898567743608 2.8766534412299847L3.210898567743608 2.902146042656166L3.198152267030517 2.9403849447954378L3.1726596656043364 2.965877546221619L3.1344207634650645 2.9786238469347097L3.0961818613257925 2.9786238469347097L3.057942959186521 2.965877546221619L3.0451966584734302 2.953131245508528L3.0324503577603394 2.927638644082347" stroke-width="0.03" stroke="#000000" fill="none"/>
<path d="M2.82850954635089 2.9786238469347097L2.955972553481796 2.7109515319598065L2.777524343498527 2.7109515319598065" stroke-width="0.03" stroke="#000000" fill="none"/>
<path d="M2.522598329236715 2.7109515319598065L2.522598329236715 2.9786238469347097L2.6118224342283494 2.9786238469347097L2.6500613363676213 2.965877546221619L2.6755539377938025 2.9403849447954378L2.6883002385068933 2.9148923433692566L2.7010465392199836 2.8766534412299847L2.7010465392199836 2.8129219376645316L2.6883002385068933 2.7746830355252596L2.6755539377938025 2.7491904340990785L2.6500613363676213 2.7236978326728973L2.6118224342283494 2.7109515319598065L2.522598329236715 2.7109515319598065" stroke-width="0.03" stroke="#000000" fill="none"/>
<path d="M2.433374224245081 2.8001756369514412L2.293164916401084 2.9786238469347097" stroke-width="0.03" stroke="#000000" fill="none"/>
<path d="M2.433374224245081 2.9786238469347097L2.293164916401084 2.8001756369514412" stroke-width="0.03" stroke="#000000" fill="none"/>
<path d="M2.1147167064178154 2.7109515319598065L2.076477804278544 2.7236978326728973L2.0509852028523623 2.761936734812169L2.038238902139272 2.825668238377622L2.038238902139272 2.8639071405168943L2.0509852028523623 2.927638644082347L2.076477804278544 2.965877546221619L2.1147167064178154 2.9786238469347097L2.140209307843997 2.9786238469347097L2.1784482099832685 2.965877546221619L2.2039408114094496 2.927638644082347L2.2166871121225404 2.8639071405168943L2.2166871121225404 2.825668238377622L2.2039408114094496 2.761936734812169L2.1784482099832685 2.7236978326728973L2.140209307843997 2.7109515319598065L2.1147167064178154 2.7109515319598065" stroke-width="0.03" stroke="#000000" fill="none"/>
</svg>
