<?xml version="1.0" standalone="no"?>
<svg width="21cm" height="29.7cm" version="1.1" xmlns="http://www.w3.org/2000/svg" viewBox="0.0 0.0 21.000001 29.700001">
<path d="M3.679687499999999 8.720163938838269L6.421875 7.136961247544841L6.492187500000001 7.177556188347237" stroke-width="0.03" stroke="#000000" fill="none"/>
<path d="M7.4765625 6.609227017113699L3.7499999999999996 8.760758879640663L3.679687499999999 8.720163938838269L3.679687499999999 9.044923465257433L3.7499999999999996 9.085518406059828L5.4375 8.111239826802334" stroke-width="0.03" stroke="#000000" fill="none"/>
<path d="M5.5078125 8.151834767604731L3.2578125 9.450872873281389L2.90625 9.24789816926941L2.2734375000000004 9.613252636490971L2.2734375000000004 9.775632399700552" stroke-width="0.03" stroke="#000000" fill="none"/>
<path d="M2.34375 9.735037458898159L2.203125 9.816227340502948L2.203125 10.059796985317323L2.484375000000001 10.222176748526905L2.484375000000001 9.97860710371253L2.203125 9.816227340502948" stroke-width="0.03" stroke="#000000" fill="none"/>
<path d="M2.34375 9.735037458898159L2.624999999999999 9.897417222107741L2.624999999999999 9.97860710371253L3.8906249999999996 10.709316038155652L4.5234375 10.343961570934091L4.5234375 10.181581807724509L3.3984375 9.53206275488618L3.7499999999999996 9.329088050874201L3.609375 9.24789816926941" stroke-width="0.03" stroke="#000000" fill="none"/>
<path d="M3.7499999999999996 9.24789816926941L3.8203125000000004 9.207303228467016L5.4375 10.140986866922113L6.914062500000001 9.288493110071807L10.5 11.358835090993981L14.0859375 9.288493110071807L15.5625 10.140986866922113L17.1796875 9.207303228467016L17.25 9.24789816926941L17.25 9.572657695688576L15.9140625 10.343961570934091" stroke-width="0.03" stroke="#000000" fill="none"/>
<path d="M15.6328125 10.181581807724509L17.25 9.24789816926941" stroke-width="0.03" stroke="#000000" fill="none"/>
<path d="M17.25 9.329088050874201L17.390625 9.24789816926941" stroke-width="0.03" stroke="#000000" fill="none"/>
<path d="M17.25 9.329088050874201L17.6015625 9.53206275488618L16.4765625 10.181581807724509L16.4765625 10.343961570934091L17.109375 10.709316038155652L18.375 9.97860710371253L18.375 9.897417222107741L18.656250000000004 9.735037458898159L18.796875 9.816227340502948L18.796875 10.059796985317323L18.515625 10.222176748526905L18.515625 9.97860710371253L18.796875 9.816227340502948" stroke-width="0.03" stroke="#000000" fill="none"/>
<path d="M18.7265625 9.775632399700552L18.7265625 9.613252636490971L18.09375 9.24789816926941L17.7421875 9.450872873281389L15.4921875 8.151834767604731" stroke-width="0.03" stroke="#000000" fill="none"/>
<path d="M15.5625 8.111239826802334L17.25 9.085518406059828L17.320312500000004 9.044923465257433L17.320312500000004 8.720163938838269L14.578125 7.136961247544841L14.5078125 7.177556188347237" stroke-width="0.03" stroke="#000000" fill="none"/>
<path d="M13.5234375 6.609227017113699L12.3984375 7.2587460699520285L12.3984375 7.33993595155682L14.648437500000002 8.638974057233478L15.773437500000002 7.989455004395149L15.773437500000002 7.9082651227903575L14.648437500000002 8.557784175628687L12.3984375 7.2587460699520285" stroke-width="0.03" stroke="#000000" fill="none"/>
<path d="M12.75 7.05577136594005L12.1171875 6.69041689871849L10.78125 7.4617207739640055L10.78125 7.542910655568797L10.8515625 7.583505596371193" stroke-width="0.03" stroke="#000000" fill="none"/>
<path d="M10.921875000000002 7.542910655568797L10.78125 7.4617207739640055" stroke-width="0.03" stroke="#000000" fill="none"/>
<path d="M10.9921875 7.502315714766402L10.5 7.78648030038317L10.0078125 7.502315714766402" stroke-width="0.03" stroke="#000000" fill="none"/>
<path d="M10.078125 7.542910655568797L10.218750000000002 7.4617207739640055L10.218750000000002 7.542910655568797L10.1484375 7.583505596371193" stroke-width="0.03" stroke="#000000" fill="none"/>
<path d="M10.0078125 7.583505596371193L9.65625 7.78648030038317" stroke-width="0.03" stroke="#000000" fill="none"/>
<path d="M9.515625 7.705290418778379L8.390625 8.354809471616708L8.3203125 8.314214530814313L7.3359375 8.882543702047851L7.3359375 9.044923465257433" stroke-width="0.03" stroke="#000000" fill="none"/>
<path d="M7.3359375 8.882543702047851L8.390625 9.491467814083784L7.96875 9.735037458898159L7.96875 9.816227340502948L5.859375000000001 8.598379116431081L5.859375000000001 8.760758879640663L6.84375 9.329088050874201" stroke-width="0.03" stroke="#000000" fill="none"/>
<path d="M6.7734375 9.369682991676598L6.0703125 8.963733583652642L5.7890625 9.126113346862224" stroke-width="0.03" stroke="#000000" fill="none"/>
<path d="M5.71875 9.085518406059828L6.0703125 8.882543702047851" stroke-width="0.03" stroke="#000000" fill="none"/>
<path d="M5.859375000000001 8.598379116431081L6.0703125 8.476594294023895" stroke-width="0.03" stroke="#000000" fill="none"/>
<path d="M6.3515625 8.557784175628687L8.6015625 7.2587460699520285L7.4765625 6.609227017113699" stroke-width="0.03" stroke="#000000" fill="none"/>
<path d="M8.25 7.05577136594005L8.8828125 6.69041689871849L10.218750000000002 7.4617207739640055" stroke-width="0.03" stroke="#000000" fill="none"/>
<path d="M10.0078125 7.33993595155682L8.390625 8.273619590011917L7.6875 7.867670181987961" stroke-width="0.03" stroke="#000000" fill="none"/>
<path d="M7.757812499999999 8.233024649209522L6.84375 8.760758879640663" stroke-width="0.03" stroke="#000000" fill="none"/>
<path d="M6.492187500000001 8.557784175628687L8.25 9.572657695688576" stroke-width="0.03" stroke="#000000" fill="none"/>
<path d="M7.96875 9.735037458898159L10.078125 10.952885682970024L10.5 10.709316038155652L10.921875000000002 10.952885682970024L13.031250000000002 9.735037458898159L12.609375 9.491467814083784L13.6640625 8.882543702047851L13.6640625 9.044923465257433" stroke-width="0.03" stroke="#000000" fill="none"/>
<path d="M13.6640625 8.882543702047851L12.679687500000002 8.314214530814313L12.609375 8.354809471616708L11.484375000000002 7.705290418778379L10.5 8.273619590011917L9.515625 7.705290418778379" stroke-width="0.03" stroke="#000000" fill="none"/>
<path d="M10.0078125 7.583505596371193L10.0078125 7.33993595155682" stroke-width="0.03" stroke="#000000" fill="none"/>
<path d="M10.5 7.218151129149632L11.4140625 6.69041689871849L11.765625 6.893391602730468" stroke-width="0.03" stroke="#000000" fill="none"/>
<path d="M10.9921875 7.33993595155682L10.9921875 7.583505596371193L11.34375 7.78648030038317" stroke-width="0.03" stroke="#000000" fill="none"/>
<path d="M10.9921875 7.33993595155682L12.609375 8.273619590011917L13.3125 7.867670181987961" stroke-width="0.03" stroke="#000000" fill="none"/>
<path d="M13.242187500000002 8.233024649209522L13.1015625 8.314214530814313" stroke-width="0.03" stroke="#000000" fill="none"/>
<path d="M13.031250000000002 8.273619590011917L12.8203125 8.395404412419104" stroke-width="0.03" stroke="#000000" fill="none"/>
<path d="M12.609375 8.354809471616708L12.609375 8.273619590011917" stroke-width="0.03" stroke="#000000" fill="none"/>
<path d="M13.031250000000002 8.273619590011917L13.593750000000002 8.598379116431081L13.593750000000002 8.679568998035872L13.453125 8.760758879640663" stroke-width="0.03" stroke="#000000" fill="none"/>
<path d="M13.382812500000002 8.720163938838269L13.593750000000002 8.598379116431081" stroke-width="0.03" stroke="#000000" fill="none"/>
<path d="M13.734375 8.51718923482629L13.734375 8.111239826802334" stroke-width="0.03" stroke="#000000" fill="none"/>
<path d="M13.242187500000002 8.233024649209522L14.15625 8.760758879640663" stroke-width="0.03" stroke="#000000" fill="none"/>
<path d="M14.5078125 8.557784175628687L12.75 9.572657695688576" stroke-width="0.03" stroke="#000000" fill="none"/>
<path d="M13.031250000000002 9.735037458898159L13.031250000000002 9.816227340502948L15.140625 8.598379116431081L15.140625 8.760758879640663L14.15625 9.329088050874201" stroke-width="0.03" stroke="#000000" fill="none"/>
<path d="M14.2265625 9.369682991676598L14.9296875 8.963733583652642L15.2109375 9.126113346862224" stroke-width="0.03" stroke="#000000" fill="none"/>
<path d="M15.28125 9.085518406059828L14.9296875 8.882543702047851" stroke-width="0.03" stroke="#000000" fill="none"/>
<path d="M15.140625 8.598379116431081L14.9296875 8.476594294023895" stroke-width="0.03" stroke="#000000" fill="none"/>
<path d="M14.648437500000002 8.557784175628687L14.648437500000002 8.638974057233478" stroke-width="0.03" stroke="#000000" fill="none"/>
<path d="M15.28125 8.679568998035872L15.843750000000002 8.354809471616708" stroke-width="0.03" stroke="#000000" fill="none"/>
<path d="M15.5625 8.51718923482629L15.2109375 8.314214530814313" stroke-width="0.03" stroke="#000000" fill="none"/>
<path d="M15.28125 8.679568998035872L15.28125 9.004328524455037L15.351562500000002 9.044923465257433" stroke-width="0.03" stroke="#000000" fill="none"/>
<path d="M15.6328125 8.882543702047851L15.28125 8.679568998035872" stroke-width="0.03" stroke="#000000" fill="none"/>
<path d="M15.773437500000002 8.80135382044306L14.5078125 9.53206275488618" stroke-width="0.03" stroke="#000000" fill="none"/>
<path d="M14.367187500000002 9.288493110071807L14.367187500000002 9.207303228467016" stroke-width="0.03" stroke="#000000" fill="none"/>
<path d="M15.28125 9.491467814083784L16.4765625 8.80135382044306L17.109375 9.166708287664619L17.109375 9.24789816926941" stroke-width="0.03" stroke="#000000" fill="none"/>
<path d="M17.109375 9.166708287664619L15.9140625 9.856822281305345L15.9140625 9.938012162910134" stroke-width="0.03" stroke="#000000" fill="none"/>
<path d="M15.9140625 9.856822281305345L15.28125 9.491467814083784L15.28125 9.97860710371253" stroke-width="0.03" stroke="#000000" fill="none"/>
<path d="M15.070312500000002 9.856822281305345L15.28125 9.735037458898159" stroke-width="0.03" stroke="#000000" fill="none"/>
<path d="M15.6328125 10.181581807724509L16.3359375 10.587531215748463L16.3359375 11.480619913401167L17.109375 11.927164262227517L17.109375 12.739063078275429L18.7265625 11.805379439820332L18.7265625 11.886569321425123L17.109375 12.820252959880222L17.109375 14.525240473580833L13.5234375 16.59558245450301L13.5234375 20.736266416347355L12.046875 21.588760173197663L12.046875 23.45612745010786L11.976562500000002 23.496722390910254L11.6953125 23.33434262770067L11.6953125 21.79173487720964" stroke-width="0.03" stroke="#000000" fill="none"/>
<path d="M11.976562500000002 21.62935511400006L11.273437500000002 22.035304522024013L10.5 21.588760173197663L9.7265625 22.035304522024013L9.0234375 21.62935511400006L9.0234375 23.496722390910254L8.953125 23.45612745010786L8.953125 21.588760173197663L7.4765625 20.736266416347355L7.4765625 16.59558245450301L3.8906249999999996 14.525240473580833L3.8906249999999996 12.820252959880222L2.2734375000000004 11.886569321425123L2.2734375000000004 11.805379439820332L2.5546875 11.64299967661075L3.8906249999999996 12.414303551856264" stroke-width="0.03" stroke="#000000" fill="none"/>
<path d="M3.8906249999999996 12.739063078275429L3.8906249999999996 11.927164262227517L4.6640625 11.480619913401167L4.6640625 10.587531215748463L5.3671875 10.181581807724509L3.7499999999999996 9.24789816926941L3.7499999999999996 9.572657695688576L5.0859375 10.343961570934091" stroke-width="0.03" stroke="#000000" fill="none"/>
<path d="M4.734375 10.54693627494607L4.453125 10.384556511736488" stroke-width="0.03" stroke="#000000" fill="none"/>
<path d="M4.5234375 10.181581807724509L3.8906249999999996 10.54693627494607L3.8906249999999996 11.034075564574817L9.7265625 14.403455651173648L9.7265625 14.241075887964065L7.4765625 12.942037782287407L7.4765625 13.10441754549699L7.3359375 13.18560742710178L7.3359375 13.753936598335319L9.5859375 15.052974704011977L9.7265625 14.971784822407185L9.7265625 15.052974704011977L9.65625 15.012379763209582" stroke-width="0.03" stroke="#000000" fill="none"/>
<path d="M9.7265625 15.052974704011977L10.218750000000002 14.768810118395209L10.218750000000002 14.687620236790417L10.2890625 14.647025295988021L10.2890625 14.078696124754483L10.218750000000002 14.038101183952087" stroke-width="0.03" stroke="#000000" fill="none"/>
<path d="M10.218750000000002 13.956911302347297L10.218750000000002 14.11929106555688L10.2890625 14.078696124754483" stroke-width="0.03" stroke="#000000" fill="none"/>
<path d="M10.218750000000002 13.956911302347297L7.96875 12.65787319667064L7.4765625 12.942037782287407" stroke-width="0.03" stroke="#000000" fill="none"/>
<path d="M7.6171875 12.860847900682616L6.140625 12.00835414383231L6.28125 11.927164262227517L7.757812499999999 12.779658019077825" stroke-width="0.03" stroke="#000000" fill="none"/>
<path d="M7.3359375 13.18560742710178L9.5859375 14.484645532778439L9.5859375 15.377734230431141L10.359375 15.824278579257493L10.359375 18.422354790610807L10.5 18.341164909006018L10.640625 18.422354790610807L11.1328125 18.13819020499404L11.1328125 15.540113993640723L10.9921875 15.458924112035932L11.0625 15.418329171233536L10.570312500000002 15.134164585616768L10.5 15.174759526419164L10.4296875 15.134164585616768L9.9375 15.418329171233536L9.9375 15.499519052838329" stroke-width="0.03" stroke="#000000" fill="none"/>
<path d="M9.867187500000002 15.540113993640723L10.0078125 15.458924112035932L9.9375 15.418329171233536" stroke-width="0.03" stroke="#000000" fill="none"/>
<path d="M9.867187500000002 15.540113993640723L9.867187500000002 18.13819020499404L10.359375 18.422354790610807" stroke-width="0.03" stroke="#000000" fill="none"/>
<path d="M10.218750000000002 18.341164909006018L10.218750000000002 20.04615242270663L10.078125 19.96496254110184L10.078125 18.259975027401225" stroke-width="0.03" stroke="#000000" fill="none"/>
<path d="M10.640625 18.422354790610807L10.640625 15.824278579257493L10.5 15.7430886976527L10.359375 15.824278579257493" stroke-width="0.03" stroke="#000000" fill="none"/>
<path d="M10.5 15.7430886976527L10.5 22.481848870850367L10.078125 22.72541851566474L9.4453125 22.360064048443178L9.4453125 23.659102154119836L9.09375 23.45612745010786L9.09375 23.61850721331744" stroke-width="0.03" stroke="#000000" fill="none"/>
<path d="M9.0234375 23.496722390910254L9.3046875 23.33434262770067L9.3046875 21.79173487720964" stroke-width="0.03" stroke="#000000" fill="none"/>
<path d="M8.953125 21.994709581221617L8.8828125 22.035304522024013L8.8828125 23.41553250930546L8.953125 23.374937568503068" stroke-width="0.03" stroke="#000000" fill="none"/>
<path d="M8.8828125 23.41553250930546L8.25 23.050178042083903L8.25 21.669950054802452L8.671875 21.42638040998808" stroke-width="0.03" stroke="#000000" fill="none"/>
<path d="M8.4609375 21.304595587580895L8.4609375 21.548165232395267" stroke-width="0.03" stroke="#000000" fill="none"/>
<path d="M8.25 21.669950054802452L8.8828125 22.035304522024013" stroke-width="0.03" stroke="#000000" fill="none"/>
<path d="M9.4453125 22.360064048443178L9.5859375 22.27887416683839L10.218750000000002 22.644228634059946L10.218750000000002 24.10564650294619L10.1484375 24.146241443748586L10.1484375 24.47100097016775L10.2890625 24.55219085177254L10.5 24.430406029365354L10.7109375 24.55219085177254L10.8515625 24.47100097016775L10.8515625 24.146241443748586L10.78125 24.10564650294619L10.78125 22.644228634059946L11.4140625 22.27887416683839L11.5546875 22.360064048443178L11.5546875 23.659102154119836L11.90625 23.45612745010786L11.90625 23.61850721331744" stroke-width="0.03" stroke="#000000" fill="none"/>
<path d="M11.976562500000002 23.496722390910254L11.976562500000002 21.62935511400006" stroke-width="0.03" stroke="#000000" fill="none"/>
<path d="M12.046875 21.994709581221617L12.1171875 22.035304522024013L12.1171875 23.41553250930546L12.046875 23.374937568503068" stroke-width="0.03" stroke="#000000" fill="none"/>
<path d="M12.1171875 23.41553250930546L12.75 23.050178042083903L12.75 21.669950054802452L12.328125000000002 21.42638040998808" stroke-width="0.03" stroke="#000000" fill="none"/>
<path d="M12.539062500000002 21.304595587580895L12.539062500000002 21.548165232395267" stroke-width="0.03" stroke="#000000" fill="none"/>
<path d="M12.75 21.669950054802452L12.1171875 22.035304522024013" stroke-width="0.03" stroke="#000000" fill="none"/>
<path d="M11.5546875 22.360064048443178L10.921875000000002 22.72541851566474L10.5 22.481848870850367" stroke-width="0.03" stroke="#000000" fill="none"/>
<path d="M10.078125 22.72541851566474L10.078125 24.592785792574933L10.218750000000002 24.511595910970144" stroke-width="0.03" stroke="#000000" fill="none"/>
<path d="M10.2890625 24.55219085177254L10.2890625 24.227431325353376L10.5 24.10564650294619L10.7109375 24.227431325353376L10.8515625 24.146241443748586" stroke-width="0.03" stroke="#000000" fill="none"/>
<path d="M10.7109375 24.227431325353376L10.7109375 24.55219085177254" stroke-width="0.03" stroke="#000000" fill="none"/>
<path d="M10.78125 24.511595910970144L10.921875000000002 24.592785792574933L11.5546875 24.227431325353376L11.5546875 23.821481917329418L13.8046875 22.52244381165276" stroke-width="0.03" stroke="#000000" fill="none"/>
<path d="M13.8046875 22.603633693257553L12.1171875 23.577912272515047L12.1171875 23.659102154119836L12.3984375 23.821481917329418L15.140625 22.238279226035992L15.140625 22.157089344431203" stroke-width="0.03" stroke="#000000" fill="none"/>
<path d="M16.125 21.588760173197663L12.3984375 23.740292035724625L12.1171875 23.577912272515047" stroke-width="0.03" stroke="#000000" fill="none"/>
<path d="M12.3984375 23.740292035724625L12.3984375 23.821481917329418" stroke-width="0.03" stroke="#000000" fill="none"/>
<path d="M11.835937500000002 23.41553250930546L11.5546875 23.577912272515047" stroke-width="0.03" stroke="#000000" fill="none"/>
<path d="M11.5546875 23.496722390910254L11.765625 23.374937568503068" stroke-width="0.03" stroke="#000000" fill="none"/>
<path d="M11.6953125 23.17196286449109L11.5546875 23.090772982886296" stroke-width="0.03" stroke="#000000" fill="none"/>
<path d="M10.921875000000002 22.72541851566474L10.921875000000002 24.592785792574933" stroke-width="0.03" stroke="#000000" fill="none"/>
<path d="M10.5 24.430406029365354L10.5 24.10564650294619" stroke-width="0.03" stroke="#000000" fill="none"/>
<path d="M10.2890625 24.227431325353376L10.1484375 24.146241443748586" stroke-width="0.03" stroke="#000000" fill="none"/>
<path d="M10.078125 24.592785792574933L9.4453125 24.227431325353376L9.4453125 23.821481917329418L7.1953125 22.52244381165276" stroke-width="0.03" stroke="#000000" fill="none"/>
<path d="M7.1953125 22.603633693257553L8.8828125 23.577912272515047L8.8828125 23.659102154119836L8.6015625 23.821481917329418L5.859375000000001 22.238279226035992L5.859375000000001 22.157089344431203" stroke-width="0.03" stroke="#000000" fill="none"/>
<path d="M4.875 21.588760173197663L4.875 20.289722067521005L4.9453125 20.249127126718612L7.1953125 21.548165232395267L7.1953125 22.847203338071925L7.125 22.88779827887432L7.125 21.588760173197663L7.1953125 21.548165232395267" stroke-width="0.03" stroke="#000000" fill="none"/>
<path d="M7.125 21.588760173197663L4.875 20.289722067521005" stroke-width="0.03" stroke="#000000" fill="none"/>
<path d="M4.875 20.69567147554496L4.2421875 20.330317008323398L4.2421875 18.78770925783237L4.3125 18.747114317029972L4.382812499999999 18.78770925783237" stroke-width="0.03" stroke="#000000" fill="none"/>
<path d="M4.382812499999999 18.86889913943716L4.2421875 18.78770925783237" stroke-width="0.03" stroke="#000000" fill="none"/>
<path d="M4.382812499999999 18.95008902104195L4.382812499999999 18.38175984980841L3.8906249999999996 18.097595264191643" stroke-width="0.03" stroke="#000000" fill="none"/>
<path d="M3.9609375 18.057000323389246L3.7499999999999996 18.178785145796436L3.7499999999999996 16.311417868886238L3.046875 15.905468460862282" stroke-width="0.03" stroke="#000000" fill="none"/>
<path d="M3.3984375 15.783683638455097L3.3984375 14.728215177592812" stroke-width="0.03" stroke="#000000" fill="none"/>
<path d="M3.046875 14.525240473580833L4.8046875 15.540113993640723" stroke-width="0.03" stroke="#000000" fill="none"/>
<path d="M4.8046875 15.702493756850306L4.8046875 15.215354467221559L4.875 15.174759526419164L2.765625 13.956911302347297L2.90625 13.875721420742504L3.8906249999999996 14.444050591976044" stroke-width="0.03" stroke="#000000" fill="none"/>
<path d="M3.8906249999999996 14.362860710371251L3.1874999999999996 13.956911302347297L3.1874999999999996 13.632151775928133" stroke-width="0.03" stroke="#000000" fill="none"/>
<path d="M3.1171875 13.591556835125736L3.1171875 13.997506243149692" stroke-width="0.03" stroke="#000000" fill="none"/>
<path d="M2.765625 13.956911302347297L2.765625 14.200480947161669" stroke-width="0.03" stroke="#000000" fill="none"/>
<path d="M2.976562500000001 14.403455651173648L3.046875 14.362860710371251L1.9218750000000004 13.713341657532922L1.8515625 13.753936598335319L2.976562500000001 14.403455651173648L2.976562500000001 17.001531862526964L1.8515625 16.352012809688635L1.8515625 12.048949084634705L2.1328124999999996 11.886569321425123L2.1328124999999996 13.83512647994011" stroke-width="0.03" stroke="#000000" fill="none"/>
<path d="M2.203125 13.875721420742504L2.203125 11.277645209389188L1.8515625 11.074670505377211L1.8515625 10.343961570934091L1.9921874999999998 10.262771689329298" stroke-width="0.03" stroke="#000000" fill="none"/>
<path d="M1.9921874999999998 10.181581807724509L2.203125 10.059796985317323" stroke-width="0.03" stroke="#000000" fill="none"/>
<path d="M1.9921874999999998 10.181581807724509L1.9921874999999998 10.343961570934091L2.2734375000000004 10.506341334143674L2.34375 10.465746393341277L3.609375 11.196455327784399L3.609375 11.927164262227517L3.46875 12.00835414383231L2.34375 11.358835090993981L2.34375 11.764784499017935L2.203125 11.683594617413146" stroke-width="0.03" stroke="#000000" fill="none"/>
<path d="M2.2734375000000004 11.805379439820332L3.8906249999999996 12.739063078275429" stroke-width="0.03" stroke="#000000" fill="none"/>
<path d="M3.539062500000001 12.617278255868243L3.46875 12.65787319667064L3.46875 13.388582131113758L3.8906249999999996 13.145012486299386" stroke-width="0.03" stroke="#000000" fill="none"/>
<path d="M3.8906249999999996 13.388582131113758L3.679687499999999 13.266797308706572" stroke-width="0.03" stroke="#000000" fill="none"/>
<path d="M3.46875 13.388582131113758L2.2734375000000004 12.698468137473034L2.2734375000000004 11.967759203029914L2.34375 11.927164262227517" stroke-width="0.03" stroke="#000000" fill="none"/>
<path d="M2.2734375000000004 11.967759203029914L3.46875 12.65787319667064" stroke-width="0.03" stroke="#000000" fill="none"/>
<path d="M3.46875 12.00835414383231L3.46875 11.277645209389188L1.8515625 10.343961570934091" stroke-width="0.03" stroke="#000000" fill="none"/>
<path d="M1.9921874999999998 10.181581807724509L2.2734375000000004 10.343961570934091L2.484375000000001 10.222176748526905" stroke-width="0.03" stroke="#000000" fill="none"/>
<path d="M2.2734375000000004 10.343961570934091L2.2734375000000004 10.506341334143674" stroke-width="0.03" stroke="#000000" fill="none"/>
<path d="M2.484375000000001 9.97860710371253L2.624999999999999 9.897417222107741" stroke-width="0.03" stroke="#000000" fill="none"/>
<path d="M2.2734375000000004 9.613252636490971L3.8906249999999996 10.54693627494607" stroke-width="0.03" stroke="#000000" fill="none"/>
<path d="M3.609375 10.54693627494607L3.328125000000001 10.709316038155652L3.328125000000001 11.034075564574817" stroke-width="0.03" stroke="#000000" fill="none"/>
<path d="M3.46875 11.277645209389188L3.8906249999999996 11.034075564574817" stroke-width="0.03" stroke="#000000" fill="none"/>
<path d="M3.7499999999999996 11.521214854203564L3.609375 11.602404735808353L3.9609375 11.805379439820332" stroke-width="0.03" stroke="#000000" fill="none"/>
<path d="M3.9609375 11.886569321425123L3.9609375 11.561809795005958L4.382812499999999 11.318240150191585L4.382812499999999 10.831100860562838L4.6640625 10.668721097353256" stroke-width="0.03" stroke="#000000" fill="none"/>
<path d="M4.59375 10.709316038155652L4.2421875 10.506341334143674L4.2421875 10.668721097353256L4.453125 10.790505919760442" stroke-width="0.03" stroke="#000000" fill="none"/>
<path d="M4.382812499999999 10.831100860562838L4.6640625 10.99348062377242" stroke-width="0.03" stroke="#000000" fill="none"/>
<path d="M4.6640625 10.587531215748463L8.8125 12.982632723089804L8.8125 13.145012486299386" stroke-width="0.03" stroke="#000000" fill="none"/>
<path d="M8.8125 12.982632723089804L10.218750000000002 12.170733907041893L10.4296875 12.292518729449078L10.218750000000002 12.414303551856264L10.2890625 12.45489849265866L10.2890625 12.860847900682616L10.359375 12.820252959880222L10.5 12.90144284148501L10.640625 12.820252959880222L10.7109375 12.860847900682616L10.78125 12.820252959880222L10.78125 12.170733907041893L12.187500000000002 12.982632723089804L16.3359375 10.587531215748463" stroke-width="0.03" stroke="#000000" fill="none"/>
<path d="M16.265625 10.54693627494607L16.546875 10.384556511736488" stroke-width="0.03" stroke="#000000" fill="none"/>
<path d="M16.4765625 10.181581807724509L17.109375 10.54693627494607L17.109375 11.034075564574817L11.273437500000002 14.403455651173648L11.4140625 14.484645532778439L11.4140625 15.377734230431141L10.640625 15.824278579257493" stroke-width="0.03" stroke="#000000" fill="none"/>
<path d="M11.0625 15.499519052838329L11.0625 15.418329171233536" stroke-width="0.03" stroke="#000000" fill="none"/>
<path d="M10.921875000000002 15.255949408023953L11.0625 15.174759526419164L11.4140625 15.377734230431141" stroke-width="0.03" stroke="#000000" fill="none"/>
<path d="M11.4140625 15.052974704011977L13.6640625 13.753936598335319L13.6640625 13.18560742710178L13.5234375 13.10441754549699L13.5234375 12.942037782287407L13.031250000000002 12.65787319667064L10.78125 13.956911302347297L10.78125 14.11929106555688L10.7109375 14.078696124754483L10.78125 14.038101183952087" stroke-width="0.03" stroke="#000000" fill="none"/>
<path d="M10.7109375 14.078696124754483L10.7109375 14.647025295988021L10.78125 14.687620236790417L10.78125 14.768810118395209L11.273437500000002 15.052974704011977L11.34375 15.012379763209582" stroke-width="0.03" stroke="#000000" fill="none"/>
<path d="M11.273437500000002 15.052974704011977L11.273437500000002 14.971784822407185L11.4140625 15.052974704011977" stroke-width="0.03" stroke="#000000" fill="none"/>
<path d="M11.0625 15.012379763209582L10.9921875 15.052974704011977L10.570312500000002 14.809405059197603L10.570312500000002 14.322265769568856L10.640625 14.281670828766462L10.5 14.200480947161669L10.5 13.794531539137715L11.273437500000002 14.241075887964065L13.5234375 12.942037782287407" stroke-width="0.03" stroke="#000000" fill="none"/>
<path d="M13.382812500000002 12.860847900682616L14.859375 12.00835414383231L14.718749999999998 11.927164262227517L13.242187500000002 12.779658019077825" stroke-width="0.03" stroke="#000000" fill="none"/>
<path d="M13.6640625 13.18560742710178L11.4140625 14.484645532778439" stroke-width="0.03" stroke="#000000" fill="none"/>
<path d="M11.273437500000002 14.403455651173648L11.273437500000002 14.241075887964065" stroke-width="0.03" stroke="#000000" fill="none"/>
<path d="M10.640625 14.281670828766462L10.640625 14.687620236790417L10.7109375 14.728215177592812L10.7109375 14.809405059197603L11.0625 15.012379763209582L11.0625 15.174759526419164" stroke-width="0.03" stroke="#000000" fill="none"/>
<path d="M10.9921875 15.134164585616768L10.921875000000002 15.174759526419164L10.921875000000002 15.255949408023953L10.570312500000002 15.052974704011977L10.5 15.093569644814371L10.4296875 15.052974704011977L10.078125 15.255949408023953L9.9375 15.174759526419164L9.5859375 15.377734230431141" stroke-width="0.03" stroke="#000000" fill="none"/>
<path d="M9.9375 15.174759526419164L9.9375 15.012379763209582L10.2890625 14.809405059197603L10.2890625 14.728215177592812L10.359375 14.687620236790417L10.359375 14.281670828766462L10.5 14.200480947161669" stroke-width="0.03" stroke="#000000" fill="none"/>
<path d="M10.5 14.281670828766462L10.4296875 14.322265769568856L10.359375 14.281670828766462" stroke-width="0.03" stroke="#000000" fill="none"/>
<path d="M10.4296875 14.322265769568856L10.4296875 14.809405059197603L10.0078125 15.052974704011977L9.9375 15.012379763209582" stroke-width="0.03" stroke="#000000" fill="none"/>
<path d="M10.0078125 15.052974704011977L10.0078125 15.134164585616768L10.078125 15.174759526419164L10.078125 15.255949408023953" stroke-width="0.03" stroke="#000000" fill="none"/>
<path d="M10.078125 15.174759526419164L10.5 14.931189881604789L10.921875000000002 15.174759526419164" stroke-width="0.03" stroke="#000000" fill="none"/>
<path d="M10.9921875 15.134164585616768L10.9921875 15.052974704011977" stroke-width="0.03" stroke="#000000" fill="none"/>
<path d="M10.9921875 15.134164585616768L10.5 14.85L10.0078125 15.134164585616768" stroke-width="0.03" stroke="#000000" fill="none"/>
<path d="M10.2890625 14.728215177592812L10.4296875 14.809405059197603" stroke-width="0.03" stroke="#000000" fill="none"/>
<path d="M10.5 14.85L10.5 14.281670828766462L10.570312500000002 14.322265769568856" stroke-width="0.03" stroke="#000000" fill="none"/>
<path d="M10.7109375 14.728215177592812L10.570312500000002 14.809405059197603" stroke-width="0.03" stroke="#000000" fill="none"/>
<path d="M10.5 14.931189881604789L10.5 15.093569644814371" stroke-width="0.03" stroke="#000000" fill="none"/>
<path d="M9.7265625 14.403455651173648L9.5859375 14.484645532778439" stroke-width="0.03" stroke="#000000" fill="none"/>
<path d="M9.7265625 14.241075887964065L10.5 13.794531539137715" stroke-width="0.03" stroke="#000000" fill="none"/>
<path d="M10.4296875 12.860847900682616L10.5 12.820252959880222L10.570312500000002 12.860847900682616" stroke-width="0.03" stroke="#000000" fill="none"/>
<path d="M10.5 12.820252959880222L10.5 12.333113670251475L10.2890625 12.45489849265866" stroke-width="0.03" stroke="#000000" fill="none"/>
<path d="M10.5 12.333113670251475L10.7109375 12.45489849265866L10.7109375 12.860847900682616" stroke-width="0.03" stroke="#000000" fill="none"/>
<path d="M10.78125 12.739063078275429L10.921875000000002 12.65787319667064L11.976562500000002 13.266797308706572" stroke-width="0.03" stroke="#000000" fill="none"/>
<path d="M12.187500000000002 13.145012486299386L12.187500000000002 12.982632723089804" stroke-width="0.03" stroke="#000000" fill="none"/>
<path d="M12.8203125 14.241075887964065L12.9609375 14.322265769568856L12.9609375 15.946063401664679L12.75 16.067848224071867L12.75 15.824278579257493L12.679687500000002 15.864873520059888L12.679687500000002 16.10844316487426L12.46875 16.230227987281445L12.1171875 16.02725328326947L12.1171875 16.10844316487426L12.679687500000002 16.433202691293424L12.679687500000002 16.189633046479052L12.46875 16.311417868886238L12.46875 16.230227987281445" stroke-width="0.03" stroke="#000000" fill="none"/>
<path d="M12.679687500000002 16.10844316487426L12.2578125 15.864873520059888L12.187500000000002 15.905468460862282" stroke-width="0.03" stroke="#000000" fill="none"/>
<path d="M12.2578125 15.864873520059888L12.2578125 15.783683638455097" stroke-width="0.03" stroke="#000000" fill="none"/>
<path d="M12.187500000000002 15.824278579257493L12.328125000000002 15.7430886976527L12.328125000000002 15.661898816047911L12.3984375 15.621303875245514L12.9609375 15.946063401664679" stroke-width="0.03" stroke="#000000" fill="none"/>
<path d="M12.9609375 16.02725328326947L12.75 16.14903810567666L12.75 16.39260775049103L12.9609375 16.270822928083845L12.9609375 16.02725328326947" stroke-width="0.03" stroke="#000000" fill="none"/>
<path d="M12.75 16.14903810567666L12.9609375 16.270822928083845" stroke-width="0.03" stroke="#000000" fill="none"/>
<path d="M12.679687500000002 16.433202691293424L11.273437500000002 17.24510150734134L11.273437500000002 22.035304522024013" stroke-width="0.03" stroke="#000000" fill="none"/>
<path d="M11.34375 21.994709581221617L11.34375 22.31946910764078" stroke-width="0.03" stroke="#000000" fill="none"/>
<path d="M11.1328125 22.44125393004797L11.1328125 22.035304522024013" stroke-width="0.03" stroke="#000000" fill="none"/>
<path d="M11.203125 21.994709581221617L10.921875000000002 22.157089344431203L10.5 21.913519699616828L10.078125 22.157089344431203L9.796875 21.994709581221617" stroke-width="0.03" stroke="#000000" fill="none"/>
<path d="M9.7265625 22.035304522024013L9.7265625 17.24510150734134L9.867187500000002 17.163911625736546" stroke-width="0.03" stroke="#000000" fill="none"/>
<path d="M9.7265625 17.24510150734134L8.3203125 16.433202691293424L8.3203125 16.189633046479052L8.53125 16.311417868886238L8.53125 16.230227987281445L8.3203125 16.10844316487426L8.3203125 15.864873520059888L8.671875 15.661898816047911L8.6015625 15.621303875245514L8.0390625 15.946063401664679L8.25 16.067848224071867L8.25 15.824278579257493L8.3203125 15.864873520059888" stroke-width="0.03" stroke="#000000" fill="none"/>
<path d="M8.3203125 16.10844316487426L8.7421875 15.864873520059888L8.8125 15.905468460862282" stroke-width="0.03" stroke="#000000" fill="none"/>
<path d="M8.8125 15.824278579257493L8.8125 15.986658342467075L8.8828125 16.02725328326947L8.8828125 16.10844316487426L8.3203125 16.433202691293424" stroke-width="0.03" stroke="#000000" fill="none"/>
<path d="M8.25 16.39260775049103L8.25 16.14903810567666L8.0390625 16.02725328326947L8.0390625 16.270822928083845L8.25 16.39260775049103" stroke-width="0.03" stroke="#000000" fill="none"/>
<path d="M8.25 16.14903810567666L8.0390625 16.270822928083845" stroke-width="0.03" stroke="#000000" fill="none"/>
<path d="M8.0390625 15.946063401664679L8.0390625 14.322265769568856L3.8906249999999996 11.927164262227517" stroke-width="0.03" stroke="#000000" fill="none"/>
<path d="M3.8906249999999996 12.00835414383231L3.609375 11.845974380622728" stroke-width="0.03" stroke="#000000" fill="none"/>
<path d="M3.7499999999999996 11.521214854203564L3.9609375 11.64299967661075" stroke-width="0.03" stroke="#000000" fill="none"/>
<path d="M3.9609375 11.561809795005958L4.2421875 11.72418955821554" stroke-width="0.03" stroke="#000000" fill="none"/>
<path d="M2.8359374999999996 11.64299967661075L2.695312500000001 11.72418955821554" stroke-width="0.03" stroke="#000000" fill="none"/>
<path d="M2.484375000000001 11.683594617413146L2.484375000000001 11.44002497259877" stroke-width="0.03" stroke="#000000" fill="none"/>
<path d="M2.4140625000000004 11.399430031796376L2.4140625000000004 11.72418955821554" stroke-width="0.03" stroke="#000000" fill="none"/>
<path d="M2.1328124999999996 11.886569321425123L2.0625000000000004 11.845974380622728L1.7812499999999996 12.00835414383231L1.7812499999999996 15.174759526419164L1.8515625 15.215354467221559" stroke-width="0.03" stroke="#000000" fill="none"/>
<path d="M3.046875 15.418329171233536L3.3984375 15.215354467221559" stroke-width="0.03" stroke="#000000" fill="none"/>
<path d="M3.539062500000001 15.29654434882635L3.609375 15.255949408023953L3.7499999999999996 15.337139289628746" stroke-width="0.03" stroke="#000000" fill="none"/>
<path d="M3.7499999999999996 15.418329171233536L3.539062500000001 15.29654434882635L3.539062500000001 15.946063401664679L3.7499999999999996 16.067848224071867" stroke-width="0.03" stroke="#000000" fill="none"/>
<path d="M3.7499999999999996 16.230227987281445L3.7499999999999996 15.093569644814371L3.8906249999999996 15.012379763209582" stroke-width="0.03" stroke="#000000" fill="none"/>
<path d="M3.7499999999999996 15.093569644814371L4.8046875 15.702493756850306" stroke-width="0.03" stroke="#000000" fill="none"/>
<path d="M4.8046875 15.215354467221559L6.914062500000001 16.433202691293424L7.0546875 16.352012809688635" stroke-width="0.03" stroke="#000000" fill="none"/>
<path d="M6.914062500000001 16.433202691293424L6.914062500000001 16.920341980922174L7.3359375 17.163911625736546L7.4765625 17.082721744131756" stroke-width="0.03" stroke="#000000" fill="none"/>
<path d="M7.3359375 17.163911625736546L7.3359375 19.59960807388028L6.914062500000001 19.356038429065904L6.914062500000001 20.573886653137773L7.0546875 20.492696771532984" stroke-width="0.03" stroke="#000000" fill="none"/>
<path d="M6.914062500000001 20.573886653137773L5.9296875 20.005557481904233L5.9296875 19.924367600299444L4.8046875 19.274848547461115L4.8046875 18.13819020499404L3.8203125000000004 17.569861033760503L3.8203125000000004 16.270822928083845L3.7499999999999996 16.230227987281445" stroke-width="0.03" stroke="#000000" fill="none"/>
<path d="M3.7499999999999996 16.311417868886238L3.8203125000000004 16.270822928083845" stroke-width="0.03" stroke="#000000" fill="none"/>
<path d="M3.539062500000001 15.864873520059888L3.3984375 15.783683638455097" stroke-width="0.03" stroke="#000000" fill="none"/>
<path d="M3.046875 16.960936921724567L2.976562500000001 17.001531862526964" stroke-width="0.03" stroke="#000000" fill="none"/>
<path d="M3.046875 16.960936921724567L3.046875 14.362860710371251" stroke-width="0.03" stroke="#000000" fill="none"/>
<path d="M2.765625 13.794531539137715L3.046875 13.632151775928133L3.046875 13.55096189432334" stroke-width="0.03" stroke="#000000" fill="none"/>
<path d="M2.765625 13.388582131113758L2.765625 13.794531539137715L2.203125 13.46977201271855" stroke-width="0.03" stroke="#000000" fill="none"/>
<path d="M2.484375000000001 13.632151775928133L2.484375000000001 14.038101183952087" stroke-width="0.03" stroke="#000000" fill="none"/>
<path d="M2.624999999999999 13.307392249508968L2.624999999999999 12.90144284148501" stroke-width="0.03" stroke="#000000" fill="none"/>
<path d="M2.624999999999999 13.307392249508968L3.8906249999999996 14.038101183952087" stroke-width="0.03" stroke="#000000" fill="none"/>
<path d="M3.7499999999999996 14.281670828766462L3.679687499999999 14.322265769568856" stroke-width="0.03" stroke="#000000" fill="none"/>
<path d="M2.2734375000000004 12.617278255868243L2.203125 12.576683315065846L2.2734375000000004 12.536088374263452" stroke-width="0.03" stroke="#000000" fill="none"/>
<path d="M1.8515625 12.048949084634705L1.7812499999999996 12.00835414383231" stroke-width="0.03" stroke="#000000" fill="none"/>
<path d="M3.46875 9.572657695688576L3.7499999999999996 9.410277932478992" stroke-width="0.03" stroke="#000000" fill="none"/>
<path d="M3.7499999999999996 9.491467814083784L3.539062500000001 9.613252636490971" stroke-width="0.03" stroke="#000000" fill="none"/>
<path d="M3.8906249999999996 9.653847577293366L3.8906249999999996 9.816227340502948" stroke-width="0.03" stroke="#000000" fill="none"/>
<path d="M3.8906249999999996 9.24789816926941L3.8906249999999996 9.166708287664619L4.5234375 8.80135382044306L5.71875 9.491467814083784L5.71875 9.97860710371253" stroke-width="0.03" stroke="#000000" fill="none"/>
<path d="M5.71875 9.735037458898159L5.9296875 9.856822281305345" stroke-width="0.03" stroke="#000000" fill="none"/>
<path d="M5.71875 9.491467814083784L5.0859375 9.856822281305345L5.0859375 9.938012162910134" stroke-width="0.03" stroke="#000000" fill="none"/>
<path d="M5.0859375 9.856822281305345L3.8906249999999996 9.166708287664619" stroke-width="0.03" stroke="#000000" fill="none"/>
<path d="M3.7499999999999996 9.085518406059828L3.7499999999999996 8.760758879640663" stroke-width="0.03" stroke="#000000" fill="none"/>
<path d="M4.382812499999999 8.80135382044306L4.382812499999999 8.882543702047851" stroke-width="0.03" stroke="#000000" fill="none"/>
<path d="M4.382812499999999 8.80135382044306L4.453125 8.841948761245455" stroke-width="0.03" stroke="#000000" fill="none"/>
<path d="M4.875 9.004328524455037L5.2265625 8.80135382044306L6.492187500000001 9.53206275488618" stroke-width="0.03" stroke="#000000" fill="none"/>
<path d="M6.6328125 9.288493110071807L6.6328125 9.207303228467016" stroke-width="0.03" stroke="#000000" fill="none"/>
<path d="M6.3515625 8.638974057233478L8.6015625 7.33993595155682L8.6015625 7.2587460699520285" stroke-width="0.03" stroke="#000000" fill="none"/>
<path d="M9.234375 6.893391602730468L9.5859375 6.69041689871849L10.5 7.218151129149632" stroke-width="0.03" stroke="#000000" fill="none"/>
<path d="M8.390625 8.273619590011917L8.390625 8.354809471616708" stroke-width="0.03" stroke="#000000" fill="none"/>
<path d="M8.1796875 8.395404412419104L7.96875 8.273619590011917L7.40625 8.598379116431081L7.40625 8.679568998035872L7.546875 8.760758879640663" stroke-width="0.03" stroke="#000000" fill="none"/>
<path d="M7.6171875 8.720163938838269L7.40625 8.598379116431081" stroke-width="0.03" stroke="#000000" fill="none"/>
<path d="M7.265625000000001 8.51718923482629L7.265625000000001 8.111239826802334" stroke-width="0.03" stroke="#000000" fill="none"/>
<path d="M7.757812499999999 8.233024649209522L7.898437500000001 8.314214530814313" stroke-width="0.03" stroke="#000000" fill="none"/>
<path d="M6.3515625 8.557784175628687L6.3515625 8.638974057233478L5.2265625 7.989455004395149L5.2265625 7.9082651227903575L6.3515625 8.557784175628687" stroke-width="0.03" stroke="#000000" fill="none"/>
<path d="M5.7890625 8.314214530814313L5.4375 8.51718923482629" stroke-width="0.03" stroke="#000000" fill="none"/>
<path d="M5.71875 8.679568998035872L5.3671875 8.882543702047851" stroke-width="0.03" stroke="#000000" fill="none"/>
<path d="M5.6484375 9.044923465257433L5.71875 9.004328524455037L5.71875 8.679568998035872L5.15625 8.354809471616708" stroke-width="0.03" stroke="#000000" fill="none"/>
<path d="M6.140625 12.00835414383231L6.140625 12.333113670251475L5.859375000000001 12.495493433461057L5.859375000000001 12.65787319667064L7.3359375 13.510366953520945" stroke-width="0.03" stroke="#000000" fill="none"/>
<path d="M7.3359375 13.347987190311363L5.859375000000001 12.495493433461057" stroke-width="0.03" stroke="#000000" fill="none"/>
<path d="M8.0390625 14.322265769568856L8.1796875 14.241075887964065" stroke-width="0.03" stroke="#000000" fill="none"/>
<path d="M8.390625 14.362860710371251L8.390625 15.580708934443118L8.53125 15.661898816047911" stroke-width="0.03" stroke="#000000" fill="none"/>
<path d="M8.671875 15.661898816047911L8.671875 15.7430886976527L8.8125 15.824278579257493" stroke-width="0.03" stroke="#000000" fill="none"/>
<path d="M8.7421875 15.864873520059888L8.7421875 15.783683638455097" stroke-width="0.03" stroke="#000000" fill="none"/>
<path d="M8.8828125 16.02725328326947L8.53125 16.230227987281445" stroke-width="0.03" stroke="#000000" fill="none"/>
<path d="M8.8125 16.14903810567666L8.8125 16.311417868886238L9.867187500000002 16.920341980922174" stroke-width="0.03" stroke="#000000" fill="none"/>
<path d="M11.1328125 16.920341980922174L12.187500000000002 16.311417868886238L12.187500000000002 16.14903810567666" stroke-width="0.03" stroke="#000000" fill="none"/>
<path d="M12.1171875 16.02725328326947L12.187500000000002 15.986658342467075L12.187500000000002 15.824278579257493" stroke-width="0.03" stroke="#000000" fill="none"/>
<path d="M12.328125000000002 15.661898816047911L12.679687500000002 15.864873520059888" stroke-width="0.03" stroke="#000000" fill="none"/>
<path d="M12.46875 15.661898816047911L12.609375 15.580708934443118L12.609375 14.362860710371251" stroke-width="0.03" stroke="#000000" fill="none"/>
<path d="M12.9609375 14.322265769568856L17.109375 11.927164262227517" stroke-width="0.03" stroke="#000000" fill="none"/>
<path d="M17.0390625 11.886569321425123L17.0390625 11.561809795005958L16.617187500000004 11.318240150191585L16.617187500000004 10.831100860562838L16.3359375 10.668721097353256" stroke-width="0.03" stroke="#000000" fill="none"/>
<path d="M16.40625 10.709316038155652L16.7578125 10.506341334143674L16.7578125 10.668721097353256L16.546875 10.790505919760442" stroke-width="0.03" stroke="#000000" fill="none"/>
<path d="M16.617187500000004 10.831100860562838L16.3359375 10.99348062377242" stroke-width="0.03" stroke="#000000" fill="none"/>
<path d="M17.109375 11.034075564574817L17.53125 11.277645209389188L19.1484375 10.343961570934091L19.0078125 10.262771689329298" stroke-width="0.03" stroke="#000000" fill="none"/>
<path d="M19.0078125 10.181581807724509L18.7265625 10.343961570934091L18.515625 10.222176748526905" stroke-width="0.03" stroke="#000000" fill="none"/>
<path d="M18.7265625 10.343961570934091L18.7265625 10.506341334143674L19.0078125 10.343961570934091L19.0078125 10.181581807724509L18.796875 10.059796985317323" stroke-width="0.03" stroke="#000000" fill="none"/>
<path d="M18.515625 9.97860710371253L18.375 9.897417222107741" stroke-width="0.03" stroke="#000000" fill="none"/>
<path d="M18.7265625 9.613252636490971L17.109375 10.54693627494607" stroke-width="0.03" stroke="#000000" fill="none"/>
<path d="M17.390625 10.54693627494607L17.671875 10.709316038155652L17.671875 11.034075564574817" stroke-width="0.03" stroke="#000000" fill="none"/>
<path d="M17.53125 11.277645209389188L17.53125 12.00835414383231L18.656250000000004 11.358835090993981L18.656250000000004 11.764784499017935L18.796875 11.683594617413146" stroke-width="0.03" stroke="#000000" fill="none"/>
<path d="M18.7265625 11.805379439820332L18.4453125 11.64299967661075L17.109375 12.414303551856264" stroke-width="0.03" stroke="#000000" fill="none"/>
<path d="M17.109375 12.00835414383231L17.390625 11.845974380622728" stroke-width="0.03" stroke="#000000" fill="none"/>
<path d="M17.390625 11.927164262227517L17.390625 11.196455327784399L18.656250000000004 10.465746393341277L18.7265625 10.506341334143674" stroke-width="0.03" stroke="#000000" fill="none"/>
<path d="M19.1484375 10.343961570934091L19.1484375 11.074670505377211L18.796875 11.277645209389188L18.796875 13.875721420742504" stroke-width="0.03" stroke="#000000" fill="none"/>
<path d="M18.8671875 13.83512647994011L18.8671875 11.886569321425123L18.9375 11.845974380622728L19.21875 12.00835414383231L19.21875 15.174759526419164L19.1484375 15.215354467221559" stroke-width="0.03" stroke="#000000" fill="none"/>
<path d="M19.1484375 16.352012809688635L18.0234375 17.001531862526964L17.953125000000004 16.960936921724567L17.953125000000004 14.362860710371251L19.078125 13.713341657532922L19.1484375 13.753936598335319L18.0234375 14.403455651173648L18.0234375 17.001531862526964" stroke-width="0.03" stroke="#000000" fill="none"/>
<path d="M18.375 16.79855715851499L18.375 17.529266092958107L17.0390625 18.30056996820362L16.96875 18.259975027401225L16.96875 18.178785145796436" stroke-width="0.03" stroke="#000000" fill="none"/>
<path d="M17.0390625 18.13819020499404L17.0390625 18.30056996820362" stroke-width="0.03" stroke="#000000" fill="none"/>
<path d="M17.109375 18.097595264191643L16.617187500000004 18.38175984980841L16.617187500000004 18.95008902104195" stroke-width="0.03" stroke="#000000" fill="none"/>
<path d="M16.617187500000004 18.86889913943716L16.7578125 18.78770925783237L16.6875 18.747114317029972L16.617187500000004 18.78770925783237" stroke-width="0.03" stroke="#000000" fill="none"/>
<path d="M16.7578125 18.78770925783237L16.7578125 20.330317008323398L16.125 20.69567147554496" stroke-width="0.03" stroke="#000000" fill="none"/>
<path d="M16.125 20.289722067521005L13.875 21.588760173197663L13.875 22.88779827887432L13.8046875 22.847203338071925L13.8046875 21.548165232395267L16.0546875 20.249127126718612L16.125 20.289722067521005L16.125 21.588760173197663" stroke-width="0.03" stroke="#000000" fill="none"/>
<path d="M15.140625 20.776861357149752L15.140625 19.96496254110184L15.070312500000002 19.924367600299444L16.1953125 19.274848547461115L16.1953125 18.13819020499404L17.1796875 17.569861033760503L17.1796875 16.270822928083845L17.25 16.230227987281445L17.25 15.093569644814371L17.109375 15.012379763209582" stroke-width="0.03" stroke="#000000" fill="none"/>
<path d="M17.25 15.093569644814371L16.1953125 15.702493756850306L16.1953125 15.215354467221559L16.125 15.174759526419164L18.234375 13.956911302347297L18.09375 13.875721420742504L17.109375 14.444050591976044" stroke-width="0.03" stroke="#000000" fill="none"/>
<path d="M17.109375 14.362860710371251L17.8125 13.956911302347297L17.8125 13.632151775928133" stroke-width="0.03" stroke="#000000" fill="none"/>
<path d="M17.882812500000004 13.591556835125736L17.882812500000004 13.997506243149692" stroke-width="0.03" stroke="#000000" fill="none"/>
<path d="M18.234375 13.956911302347297L18.234375 14.200480947161669" stroke-width="0.03" stroke="#000000" fill="none"/>
<path d="M18.0234375 14.403455651173648L17.953125000000004 14.362860710371251" stroke-width="0.03" stroke="#000000" fill="none"/>
<path d="M17.953125000000004 14.525240473580833L16.1953125 15.540113993640723" stroke-width="0.03" stroke="#000000" fill="none"/>
<path d="M16.1953125 15.215354467221559L14.0859375 16.433202691293424L13.945312500000002 16.352012809688635" stroke-width="0.03" stroke="#000000" fill="none"/>
<path d="M14.0859375 16.433202691293424L14.0859375 16.920341980922174L13.6640625 17.163911625736546L13.5234375 17.082721744131756" stroke-width="0.03" stroke="#000000" fill="none"/>
<path d="M13.6640625 17.163911625736546L13.6640625 19.59960807388028L14.0859375 19.356038429065904L14.0859375 20.573886653137773L13.945312500000002 20.492696771532984" stroke-width="0.03" stroke="#000000" fill="none"/>
<path d="M14.0859375 20.573886653137773L15.070312500000002 20.005557481904233L15.070312500000002 19.924367600299444" stroke-width="0.03" stroke="#000000" fill="none"/>
<path d="M15.140625 19.96496254110184L16.7578125 19.03127890264674L16.546875 18.909494080239554L16.1953125 19.112468784251533" stroke-width="0.03" stroke="#000000" fill="none"/>
<path d="M16.7578125 19.924367600299444L17.109375 19.721392896287465L17.109375 18.665924435425183L18.0234375 18.13819020499404L18.0234375 17.732240796970082" stroke-width="0.03" stroke="#000000" fill="none"/>
<path d="M17.25 18.178785145796436L17.25 16.311417868886238L17.953125000000004 15.905468460862282" stroke-width="0.03" stroke="#000000" fill="none"/>
<path d="M17.6015625 15.783683638455097L17.4609375 15.864873520059888" stroke-width="0.03" stroke="#000000" fill="none"/>
<path d="M17.4609375 15.946063401664679L17.25 16.067848224071867" stroke-width="0.03" stroke="#000000" fill="none"/>
<path d="M17.1796875 16.270822928083845L17.25 16.311417868886238" stroke-width="0.03" stroke="#000000" fill="none"/>
<path d="M17.4609375 15.946063401664679L17.4609375 15.29654434882635L17.390625 15.255949408023953L17.25 15.337139289628746" stroke-width="0.03" stroke="#000000" fill="none"/>
<path d="M17.25 15.418329171233536L17.4609375 15.29654434882635" stroke-width="0.03" stroke="#000000" fill="none"/>
<path d="M17.6015625 15.215354467221559L17.953125000000004 15.418329171233536" stroke-width="0.03" stroke="#000000" fill="none"/>
<path d="M17.6015625 15.783683638455097L17.6015625 14.728215177592812" stroke-width="0.03" stroke="#000000" fill="none"/>
<path d="M17.320312500000004 14.322265769568856L17.25 14.281670828766462" stroke-width="0.03" stroke="#000000" fill="none"/>
<path d="M17.109375 14.038101183952087L18.375 13.307392249508968L18.375 12.90144284148501" stroke-width="0.03" stroke="#000000" fill="none"/>
<path d="M18.7265625 12.698468137473034L17.53125 13.388582131113758L17.109375 13.145012486299386" stroke-width="0.03" stroke="#000000" fill="none"/>
<path d="M17.109375 13.388582131113758L17.320312500000004 13.266797308706572" stroke-width="0.03" stroke="#000000" fill="none"/>
<path d="M17.53125 13.388582131113758L17.53125 12.65787319667064L17.4609375 12.617278255868243" stroke-width="0.03" stroke="#000000" fill="none"/>
<path d="M17.53125 12.65787319667064L18.7265625 11.967759203029914L18.656250000000004 11.927164262227517" stroke-width="0.03" stroke="#000000" fill="none"/>
<path d="M18.7265625 11.967759203029914L18.7265625 12.698468137473034" stroke-width="0.03" stroke="#000000" fill="none"/>
<path d="M18.7265625 12.617278255868243L18.796875 12.576683315065846L18.7265625 12.536088374263452" stroke-width="0.03" stroke="#000000" fill="none"/>
<path d="M19.1484375 12.048949084634705L19.21875 12.00835414383231" stroke-width="0.03" stroke="#000000" fill="none"/>
<path d="M19.1484375 12.048949084634705L19.1484375 16.352012809688635" stroke-width="0.03" stroke="#000000" fill="none"/>
<path d="M18.515625 14.038101183952087L18.515625 13.632151775928133" stroke-width="0.03" stroke="#000000" fill="none"/>
<path d="M18.234375 13.794531539137715L18.796875 13.46977201271855" stroke-width="0.03" stroke="#000000" fill="none"/>
<path d="M18.234375 13.388582131113758L18.234375 13.794531539137715L17.953125000000004 13.632151775928133L17.953125000000004 13.55096189432334" stroke-width="0.03" stroke="#000000" fill="none"/>
<path d="M17.53125 12.00835414383231L17.390625 11.927164262227517" stroke-width="0.03" stroke="#000000" fill="none"/>
<path d="M17.390625 11.602404735808353L17.0390625 11.805379439820332" stroke-width="0.03" stroke="#000000" fill="none"/>
<path d="M17.0390625 11.64299967661075L17.25 11.521214854203564L17.390625 11.602404735808353" stroke-width="0.03" stroke="#000000" fill="none"/>
<path d="M17.0390625 11.561809795005958L16.7578125 11.72418955821554" stroke-width="0.03" stroke="#000000" fill="none"/>
<path d="M18.1640625 11.64299967661075L18.3046875 11.72418955821554" stroke-width="0.03" stroke="#000000" fill="none"/>
<path d="M18.515625 11.683594617413146L18.515625 11.44002497259877" stroke-width="0.03" stroke="#000000" fill="none"/>
<path d="M18.585937500000004 11.399430031796376L18.585937500000004 11.72418955821554" stroke-width="0.03" stroke="#000000" fill="none"/>
<path d="M18.8671875 11.886569321425123L19.1484375 12.048949084634705" stroke-width="0.03" stroke="#000000" fill="none"/>
<path d="M17.53125 9.572657695688576L17.25 9.410277932478992" stroke-width="0.03" stroke="#000000" fill="none"/>
<path d="M17.25 9.491467814083784L17.4609375 9.613252636490971" stroke-width="0.03" stroke="#000000" fill="none"/>
<path d="M17.109375 9.653847577293366L17.109375 9.816227340502948" stroke-width="0.03" stroke="#000000" fill="none"/>
<path d="M17.25 9.085518406059828L17.25 8.760758879640663L13.5234375 6.609227017113699" stroke-width="0.03" stroke="#000000" fill="none"/>
<path d="M15.773437500000002 8.80135382044306L16.125 9.004328524455037" stroke-width="0.03" stroke="#000000" fill="none"/>
<path d="M16.546875 8.841948761245455L16.617187500000004 8.80135382044306L16.617187500000004 8.882543702047851" stroke-width="0.03" stroke="#000000" fill="none"/>
<path d="M17.25 8.760758879640663L17.320312500000004 8.720163938838269" stroke-width="0.03" stroke="#000000" fill="none"/>
<path d="M14.859375 12.00835414383231L14.859375 12.333113670251475L15.140625 12.495493433461057L15.140625 12.65787319667064L13.6640625 13.510366953520945" stroke-width="0.03" stroke="#000000" fill="none"/>
<path d="M13.6640625 13.347987190311363L15.140625 12.495493433461057" stroke-width="0.03" stroke="#000000" fill="none"/>
<path d="M13.8046875 16.433202691293424L13.8046875 16.75796221771259L13.5234375 16.920341980922174" stroke-width="0.03" stroke="#000000" fill="none"/>
<path d="M13.5234375 16.83915209931738L13.734375 16.717367276910196L13.734375 16.473797632095824" stroke-width="0.03" stroke="#000000" fill="none"/>
<path d="M13.734375 16.717367276910196L13.5234375 16.59558245450301" stroke-width="0.03" stroke="#000000" fill="none"/>
<path d="M13.8046875 16.75796221771259L14.0859375 16.920341980922174" stroke-width="0.03" stroke="#000000" fill="none"/>
<path d="M13.945312500000002 19.437228310670697L13.945312500000002 21.466975350790477" stroke-width="0.03" stroke="#000000" fill="none"/>
<path d="M13.875 21.588760173197663L13.8046875 21.548165232395267" stroke-width="0.03" stroke="#000000" fill="none"/>
<path d="M13.8046875 21.87292475881443L13.593750000000002 21.994709581221617L13.453125 21.913519699616828L13.453125 20.776861357149752" stroke-width="0.03" stroke="#000000" fill="none"/>
<path d="M13.382812500000002 20.81745629795215L13.382812500000002 21.62935511400006L13.1015625 21.79173487720964" stroke-width="0.03" stroke="#000000" fill="none"/>
<path d="M13.1015625 21.87292475881443L13.453125 21.669950054802452" stroke-width="0.03" stroke="#000000" fill="none"/>
<path d="M13.593750000000002 21.994709581221617L13.593750000000002 19.559013133077883L13.6640625 19.59960807388028" stroke-width="0.03" stroke="#000000" fill="none"/>
<path d="M14.296875000000002 20.452101830730584L14.296875000000002 20.61448159394017L14.367187500000002 20.655076534742566L14.9296875 20.330317008323398L14.9296875 20.086747363509026" stroke-width="0.03" stroke="#000000" fill="none"/>
<path d="M14.859375 20.370911949125794L14.859375 20.53329171233538L13.945312500000002 21.06102594276652" stroke-width="0.03" stroke="#000000" fill="none"/>
<path d="M14.367187500000002 20.81745629795215L14.718749999999998 21.020431001964123" stroke-width="0.03" stroke="#000000" fill="none"/>
<path d="M14.367187500000002 20.655076534742566L14.367187500000002 20.41150688992819" stroke-width="0.03" stroke="#000000" fill="none"/>
<path d="M13.453125 21.020431001964123L13.382812500000002 20.97983606116173" stroke-width="0.03" stroke="#000000" fill="none"/>
<path d="M13.1015625 20.97983606116173L13.1015625 22.44125393004797L12.75 22.644228634059946" stroke-width="0.03" stroke="#000000" fill="none"/>
<path d="M12.679687500000002 23.090772982886296L12.679687500000002 23.17196286449109L12.609375 23.131367923688696" stroke-width="0.03" stroke="#000000" fill="none"/>
<path d="M13.453125 22.72541851566474L13.453125 22.07589946282641L13.171875 21.913519699616828L13.1015625 21.954114640419224" stroke-width="0.03" stroke="#000000" fill="none"/>
<path d="M13.1015625 22.27887416683839L13.453125 22.07589946282641" stroke-width="0.03" stroke="#000000" fill="none"/>
<path d="M13.453125 22.400658989245574L13.8046875 22.197684285233596" stroke-width="0.03" stroke="#000000" fill="none"/>
<path d="M11.1328125 22.44125393004797L10.9921875 22.360064048443178L10.9921875 22.116494403628806" stroke-width="0.03" stroke="#000000" fill="none"/>
<path d="M10.921875000000002 22.157089344431203L10.921875000000002 21.832329818012038" stroke-width="0.03" stroke="#000000" fill="none"/>
<path d="M10.078125 21.832329818012038L10.078125 22.157089344431203" stroke-width="0.03" stroke="#000000" fill="none"/>
<path d="M10.0078125 22.116494403628806L10.0078125 22.360064048443178L9.867187500000002 22.44125393004797L9.867187500000002 22.035304522024013" stroke-width="0.03" stroke="#000000" fill="none"/>
<path d="M9.65625 21.994709581221617L9.65625 22.31946910764078" stroke-width="0.03" stroke="#000000" fill="none"/>
<path d="M9.4453125 23.090772982886296L9.3046875 23.17196286449109" stroke-width="0.03" stroke="#000000" fill="none"/>
<path d="M9.234375 23.374937568503068L9.4453125 23.496722390910254" stroke-width="0.03" stroke="#000000" fill="none"/>
<path d="M9.4453125 23.577912272515047L9.1640625 23.41553250930546" stroke-width="0.03" stroke="#000000" fill="none"/>
<path d="M8.8828125 23.577912272515047L8.6015625 23.740292035724625L4.875 21.588760173197663" stroke-width="0.03" stroke="#000000" fill="none"/>
<path d="M5.859375000000001 20.776861357149752L5.859375000000001 19.96496254110184L5.9296875 19.924367600299444" stroke-width="0.03" stroke="#000000" fill="none"/>
<path d="M5.859375000000001 19.96496254110184L4.2421875 19.03127890264674L4.453125 18.909494080239554L4.8046875 19.112468784251533" stroke-width="0.03" stroke="#000000" fill="none"/>
<path d="M4.2421875 19.924367600299444L3.8906249999999996 19.721392896287465L3.8906249999999996 18.665924435425183L2.976562500000001 18.13819020499404L2.976562500000001 17.732240796970082" stroke-width="0.03" stroke="#000000" fill="none"/>
<path d="M2.624999999999999 17.529266092958107L2.624999999999999 16.79855715851499" stroke-width="0.03" stroke="#000000" fill="none"/>
<path d="M2.624999999999999 17.529266092958107L3.9609375 18.30056996820362L4.03125 18.259975027401225L4.03125 18.178785145796436" stroke-width="0.03" stroke="#000000" fill="none"/>
<path d="M3.9609375 18.13819020499404L3.9609375 18.30056996820362" stroke-width="0.03" stroke="#000000" fill="none"/>
<path d="M3.9609375 18.057000323389246L3.9609375 17.651050915365293" stroke-width="0.03" stroke="#000000" fill="none"/>
<path d="M6.914062500000001 16.920341980922174L7.1953125 16.75796221771259L7.1953125 16.433202691293424" stroke-width="0.03" stroke="#000000" fill="none"/>
<path d="M7.265625000000001 16.473797632095824L7.265625000000001 16.717367276910196L7.4765625 16.83915209931738" stroke-width="0.03" stroke="#000000" fill="none"/>
<path d="M7.4765625 16.920341980922174L7.1953125 16.75796221771259" stroke-width="0.03" stroke="#000000" fill="none"/>
<path d="M7.265625000000001 16.717367276910196L7.4765625 16.59558245450301" stroke-width="0.03" stroke="#000000" fill="none"/>
<path d="M7.0546875 19.437228310670697L7.0546875 21.466975350790477" stroke-width="0.03" stroke="#000000" fill="none"/>
<path d="M7.0546875 21.06102594276652L6.140625 20.53329171233538L6.140625 20.370911949125794" stroke-width="0.03" stroke="#000000" fill="none"/>
<path d="M6.0703125 20.330317008323398L6.0703125 20.086747363509026" stroke-width="0.03" stroke="#000000" fill="none"/>
<path d="M6.0703125 20.330317008323398L6.6328125 20.655076534742566L6.703125 20.61448159394017L6.703125 20.452101830730584" stroke-width="0.03" stroke="#000000" fill="none"/>
<path d="M6.6328125 20.41150688992819L6.6328125 20.655076534742566" stroke-width="0.03" stroke="#000000" fill="none"/>
<path d="M6.6328125 20.81745629795215L6.28125 21.020431001964123" stroke-width="0.03" stroke="#000000" fill="none"/>
<path d="M7.1953125 21.87292475881443L7.40625 21.994709581221617L7.546875 21.913519699616828L7.546875 20.776861357149752" stroke-width="0.03" stroke="#000000" fill="none"/>
<path d="M7.6171875 20.81745629795215L7.6171875 21.62935511400006L7.898437500000001 21.79173487720964" stroke-width="0.03" stroke="#000000" fill="none"/>
<path d="M7.898437500000001 21.87292475881443L7.546875 21.669950054802452" stroke-width="0.03" stroke="#000000" fill="none"/>
<path d="M7.40625 21.994709581221617L7.40625 19.559013133077883L7.3359375 19.59960807388028" stroke-width="0.03" stroke="#000000" fill="none"/>
<path d="M7.6171875 20.97983606116173L7.546875 21.020431001964123" stroke-width="0.03" stroke="#000000" fill="none"/>
<path d="M7.898437500000001 20.97983606116173L7.898437500000001 22.44125393004797L8.25 22.644228634059946" stroke-width="0.03" stroke="#000000" fill="none"/>
<path d="M8.3203125 23.090772982886296L8.3203125 23.17196286449109L8.390625 23.131367923688696" stroke-width="0.03" stroke="#000000" fill="none"/>
<path d="M8.6015625 23.740292035724625L8.6015625 23.821481917329418" stroke-width="0.03" stroke="#000000" fill="none"/>
<path d="M7.546875 22.72541851566474L7.546875 22.07589946282641L7.828125 21.913519699616828L7.898437500000001 21.954114640419224" stroke-width="0.03" stroke="#000000" fill="none"/>
<path d="M7.898437500000001 22.27887416683839L7.546875 22.07589946282641" stroke-width="0.03" stroke="#000000" fill="none"/>
<path d="M7.546875 22.400658989245574L7.1953125 22.197684285233596" stroke-width="0.03" stroke="#000000" fill="none"/>
<path d="M10.218750000000002 22.96898816047911L10.5 23.131367923688696L10.78125 22.96898816047911" stroke-width="0.03" stroke="#000000" fill="none"/>
<path d="M10.78125 20.04615242270663L10.921875000000002 19.96496254110184L10.921875000000002 18.259975027401225" stroke-width="0.03" stroke="#000000" fill="none"/>
<path d="M10.78125 18.341164909006018L10.78125 20.04615242270663L10.5 19.883772659497048L10.218750000000002 20.04615242270663" stroke-width="0.03" stroke="#000000" fill="none"/>
<path d="M11.273437500000002 17.24510150734134L11.1328125 17.163911625736546" stroke-width="0.03" stroke="#000000" fill="none"/>
<path d="M10.2890625 12.860847900682616L10.218750000000002 12.820252959880222L10.218750000000002 12.170733907041893" stroke-width="0.03" stroke="#000000" fill="none"/>
<path d="M10.2890625 12.130138966239496L10.5 12.00835414383231L10.7109375 12.130138966239496L10.5 12.251923788646682L10.2890625 12.130138966239496" stroke-width="0.03" stroke="#000000" fill="none"/>
<path d="M10.5 12.00835414383231L10.5 12.251923788646682" stroke-width="0.03" stroke="#000000" fill="none"/>
<path d="M10.570312500000002 12.292518729449078L10.78125 12.170733907041893" stroke-width="0.03" stroke="#000000" fill="none"/>
<path d="M10.570312500000002 12.292518729449078L10.78125 12.414303551856264L10.7109375 12.45489849265866" stroke-width="0.03" stroke="#000000" fill="none"/>
<path d="M10.218750000000002 12.739063078275429L10.078125 12.65787319667064L9.0234375 13.266797308706572" stroke-width="0.03" stroke="#000000" fill="none"/>
<path d="M10.218750000000002 11.196455327784399L10.5 11.034075564574817L10.5 10.709316038155652" stroke-width="0.03" stroke="#000000" fill="none"/>
<path d="M10.5 11.034075564574817L10.78125 11.196455327784399" stroke-width="0.03" stroke="#000000" fill="none"/>
<path d="M10.7109375 11.237050268586794L10.5 11.115265446179606L10.2890625 11.237050268586794" stroke-width="0.03" stroke="#000000" fill="none"/>
<path d="M10.078125 11.115265446179606L10.078125 10.952885682970024" stroke-width="0.03" stroke="#000000" fill="none"/>
<path d="M10.5 11.115265446179606L10.5 11.358835090993981" stroke-width="0.03" stroke="#000000" fill="none"/>
<path d="M10.921875000000002 11.115265446179606L10.921875000000002 10.952885682970024" stroke-width="0.03" stroke="#000000" fill="none"/>
<path d="M17.0390625 17.651050915365293L17.0390625 18.057000323389246L17.25 18.178785145796436" stroke-width="0.03" stroke="#000000" fill="none"/>
<path d="M7.264131938244363 2.2599663291074443L1.5 2.2599663291074443" stroke-width="0.03" stroke="#000000" fill="none"/>
<path d="M2.0824957911384305 2.015598694615191L2.0824957911384305 1.7268634256306838" stroke-width="0.03" stroke="#000000" fill="none"/>
<path d="M2.061871843353823 1.5824957911384305L2.0824957911384305 1.6031197389230383L2.1031197389230383 1.5824957911384305L2.0824957911384305 1.5618718433538228L2.061871843353823 1.5824957911384305" stroke-width="0.03" stroke="#000000" fill="none"/>
<path d="M2.226863425630684 1.953726851261368L2.2474873734152916 1.9949747468305832L2.3093592167691144 2.015598694615191L2.3712310601229376 2.015598694615191L2.4331029034767604 1.9949747468305832L2.4537268512613677 1.953726851261368L2.4537268512613677 1.9331029034767604L2.4331029034767604 1.891855007907545L2.391855007907545 1.8712310601229374L2.2887352689845066 1.8506071123383299L2.2474873734152916 1.8299831645537221L2.226863425630684 1.7887352689845069L2.2474873734152916 1.7474873734152916L2.3093592167691144 1.7268634256306838L2.3712310601229376 1.7268634256306838L2.4331029034767604 1.7474873734152916L2.4537268512613677 1.7887352689845069" stroke-width="0.03" stroke="#000000" fill="none"/>
<path d="M2.680590276892052 1.7268634256306838L2.6393423813228365 1.7474873734152916L2.5980944857536215 1.7887352689845069L2.5774705379690137 1.8506071123383299L2.5774705379690137 1.891855007907545L2.5980944857536215 1.953726851261368L2.6393423813228365 1.9949747468305832L2.680590276892052 2.015598694615191L2.7424621202458748 2.015598694615191L2.78371001581509 1.9949747468305832L2.8249579113843053 1.953726851261368L2.845581859168913 1.891855007907545L2.845581859168913 1.8506071123383299L2.8249579113843053 1.7887352689845069L2.78371001581509 1.7474873734152916L2.7424621202458748 1.7268634256306838L2.680590276892052 1.7268634256306838" stroke-width="0.03" stroke="#000000" fill="none"/>
<path d="M2.907453702522736 2.056846590184406L3.237436867076458 2.056846590184406" stroke-width="0.03" stroke="#000000" fill="none"/>
<path d="M3.2993087104302807 1.953726851261368L3.3199326582148885 1.9949747468305832L3.3818045015687113 2.015598694615191L3.443676344922534 2.015598694615191L3.5055481882763573 1.9949747468305832L3.526172136060965 1.953726851261368L3.526172136060965 1.9331029034767604L3.5055481882763573 1.891855007907545L3.464300292707142 1.8712310601229374L3.361180553784104 1.8506071123383299L3.3199326582148885 1.8299831645537221L3.2993087104302807 1.7887352689845069L3.3199326582148885 1.7474873734152916L3.3818045015687113 1.7268634256306838L3.443676344922534 1.7268634256306838L3.5055481882763573 1.7474873734152916L3.526172136060965 1.7887352689845069" stroke-width="0.03" stroke="#000000" fill="none"/>
<path d="M3.6705397705532183 1.8093592167691144L3.732411613907041 1.7474873734152916L3.773659509476256 1.7268634256306838L3.8355313528300794 1.7268634256306838L3.8767792483992944 1.7474873734152916L3.897403196183902 1.8093592167691144L3.897403196183902 2.015598694615191" stroke-width="0.03" stroke="#000000" fill="none"/>
<path d="M3.6705397705532183 2.015598694615191L3.6705397705532183 1.7268634256306838" stroke-width="0.03" stroke="#000000" fill="none"/>
<path d="M4.144890569599194 1.7268634256306838L4.103642674029978 1.7474873734152916L4.062394778460764 1.7887352689845069L4.041770830676155 1.8506071123383299L4.041770830676155 1.891855007907545L4.062394778460764 1.953726851261368L4.103642674029978 1.9949747468305832L4.144890569599194 2.015598694615191L4.206762412953017 2.015598694615191L4.2480103085222325 1.9949747468305832L4.289258204091447 1.953726851261368L4.309882151876055 1.891855007907545L4.309882151876055 1.8506071123383299L4.289258204091447 1.7887352689845069L4.2480103085222325 1.7474873734152916L4.206762412953017 1.7268634256306838L4.144890569599194 1.7268634256306838" stroke-width="0.03" stroke="#000000" fill="none"/>
<path d="M4.4336258385837 1.7268634256306838L4.516121629722131 2.015598694615191L4.5986174208605615 1.7268634256306838L4.681113211998992 2.015598694615191L4.7636090031374225 1.7268634256306838" stroke-width="0.03" stroke="#000000" fill="none"/>
<path d="M4.866728742060461 1.7268634256306838L5.011096376552715 1.7268634256306838" stroke-width="0.03" stroke="#000000" fill="none"/>
<path d="M5.031720324337321 1.5824957911384305L4.990472428768107 1.5824957911384305L4.949224533198891 1.6031197389230383L4.928600585414284 1.664991582276861L4.928600585414284 2.015598694615191" stroke-width="0.03" stroke="#000000" fill="none"/>
<path d="M5.155464011044968 2.015598694615191L5.155464011044968 1.5824957911384305" stroke-width="0.03" stroke="#000000" fill="none"/>
<path d="M5.547319018952512 1.7268634256306838L5.547319018952512 2.015598694615191" stroke-width="0.03" stroke="#000000" fill="none"/>
<path d="M5.547319018952512 1.953726851261368L5.506071123383298 1.9949747468305832L5.464823227814082 2.015598694615191L5.402951384460259 2.015598694615191L5.3617034888910435 1.9949747468305832L5.320455593321829 1.953726851261368L5.299831645537221 1.891855007907545L5.299831645537221 1.8506071123383299L5.320455593321829 1.7887352689845069L5.3617034888910435 1.7474873734152916L5.402951384460259 1.7268634256306838L5.464823227814082 1.7268634256306838L5.506071123383298 1.7474873734152916L5.547319018952512 1.7887352689845069" stroke-width="0.03" stroke="#000000" fill="none"/>
<path d="M5.712310601229374 1.9331029034767604L5.91855007907545 1.7268634256306838" stroke-width="0.03" stroke="#000000" fill="none"/>
<path d="M5.794806392367804 1.8506071123383299L5.939174026860058 2.015598694615191" stroke-width="0.03" stroke="#000000" fill="none"/>
<path d="M6.042293765783096 1.8506071123383299L6.2897811391983875 1.8506071123383299L6.2897811391983875 1.8093592167691144L6.26915719141378 1.7681113211998993L6.248533243629172 1.7474873734152916L6.207285348059957 1.7268634256306838L6.145413504706134 1.7268634256306838L6.104165609136919 1.7474873734152916L6.062917713567703 1.7887352689845069L6.042293765783096 1.8506071123383299L6.042293765783096 1.891855007907545L6.062917713567703 1.953726851261368L6.104165609136919 1.9949747468305832L6.145413504706134 2.015598694615191L6.207285348059957 2.015598694615191L6.248533243629172 1.9949747468305832L6.2897811391983875 1.953726851261368" stroke-width="0.03" stroke="#000000" fill="none"/>
<path d="M6.578516408182894 2.015598694615191L6.578516408182894 1.5824957911384305L6.516644564829072 1.6443676344922533L6.475396669259856 1.664991582276861" stroke-width="0.03" stroke="#000000" fill="none"/>
<path d="M5.712310601229374 1.5824957911384305L5.712310601229374 2.015598694615191" stroke-width="0.03" stroke="#000000" fill="none"/>
<path d="M4.256095226217038 2.761936734812169L4.28158782764322 2.7491904340990785L4.319826729782491 2.7109515319598065L4.319826729782491 2.9786238469347097" stroke-width="0.03" stroke="#000000" fill="none"/>
<path d="M4.154124820512314 2.889399741943075L3.9629303098159543 2.889399741943075L4.0903933169468605 2.7109515319598065L4.0903933169468605 2.9786238469347097" stroke-width="0.03" stroke="#000000" fill="none"/>
<path d="M3.8099747012588665 2.9786238469347097L3.8099747012588665 2.7109515319598065L3.771735799119595 2.7491904340990785L3.7462431976934134 2.761936734812169" stroke-width="0.03" stroke="#000000" fill="none"/>
<path d="M3.644272791988689 2.889399741943075L3.4530782812923295 2.889399741943075L3.5805412884232357 2.7109515319598065L3.5805412884232357 2.9786238469347097" stroke-width="0.03" stroke="#000000" fill="none"/>
<path d="M3.3893467777268764 2.9786238469347097L3.2236448684566987 2.9786238469347097L3.2236448684566987 2.7109515319598065L3.3893467777268764 2.7109515319598065" stroke-width="0.03" stroke="#000000" fill="none"/>
<path d="M3.3256152741614233 2.8384145390907127L3.2236448684566987 2.8384145390907127" stroke-width="0.03" stroke="#000000" fill="none"/>
<path d="M3.0961818613257925 2.8384145390907127L2.994211455621068 2.8384145390907127" stroke-width="0.03" stroke="#000000" fill="none"/>
<path d="M2.892241049916343 2.889399741943075L2.7647780427854367 2.889399741943075" stroke-width="0.03" stroke="#000000" fill="none"/>
<path d="M2.7265391406461648 2.9786238469347097L2.82850954635089 2.7109515319598065L2.930479952055615 2.9786238469347097" stroke-width="0.03" stroke="#000000" fill="none"/>
<path d="M2.994211455621068 2.9786238469347097L2.994211455621068 2.7109515319598065L3.1599133648912456 2.7109515319598065" stroke-width="0.03" stroke="#000000" fill="none"/>
<path d="M2.6883002385068933 2.7109515319598065L2.522598329236715 2.7109515319598065L2.522598329236715 2.9786238469347097L2.6883002385068933 2.9786238469347097" stroke-width="0.03" stroke="#000000" fill="none"/>
<path d="M2.62456873494144 2.8384145390907127L2.522598329236715 2.8384145390907127" stroke-width="0.03" stroke="#000000" fill="none"/>
<path d="M2.433374224245081 2.8001756369514412L2.293164916401084 2.9786238469347097" stroke-width="0.03" stroke="#000000" fill="none"/>
<path d="M2.433374224245081 2.9786238469347097L2.293164916401084 2.8001756369514412" stroke-width="0.03" stroke="#000000" fill="none"/>
<path d="M2.1147167064178154 2.7109515319598065L2.076477804278544 2.7236978326728973L2.0509852028523623 2.761936734812169L2.038238902139272 2.825668238377622L2.038238902139272 2.8639071405168943L2.0509852028523623 2.927638644082347L2.076477804278544 2.965877546221619L2.1147167064178154 2.9786238469347097L2.140209307843997 2.9786238469347097L2.1784482099832685 2.965877546221619L2.2039408114094496 2.927638644082347L2.2166871121225404 2.8639071405168943L2.2166871121225404 2.825668238377622L2.2039408114094496 2.761936734812169L2.1784482099832685 2.7236978326728973L2.140209307843997 2.7109515319598065L2.1147167064178154 2.7109515319598065" stroke-width="0.03" stroke="#000000" fill="none"/>
</svg>
