<?xml version="1.0" standalone="no"?>
<svg width="21cm" height="29.7cm" version="1.1" xmlns="http://www.w3.org/2000/svg" viewBox="0.0 0.0 21.000001 29.700001">
<path d="M4.453125 8.111239826802334L4.8046875 7.9082651227903575L8.8828125 10.262771689329298L8.8828125 10.912290742167627L8.53125 11.115265446179606L7.40625 10.465746393341277L7.40625 10.384556511736488L5.7890625 9.450872873281389L4.382812499999999 10.262771689329298" stroke-width="0.03" stroke="#000000" fill="none"/>
<path d="M4.382812499999999 10.019202044514927L4.1015625 10.181581807724509L4.1015625 10.668721097353256L3.8906249999999996 10.54693627494607L3.8203125000000004 10.587531215748463L3.8203125000000004 10.99348062377242L3.46875 11.196455327784399L3.46875 11.277645209389188L3.679687499999999 11.399430031796376L3.679687499999999 11.72418955821554L3.2578125 11.967759203029914L2.1328124999999996 11.318240150191585L2.1328124999999996 10.99348062377242L2.976562500000001 10.506341334143674L5.4375 11.927164262227517L5.0859375 12.130138966239496L5.0859375 14.403455651173648L3.46875 13.46977201271855L3.46875 11.845974380622728" stroke-width="0.03" stroke="#000000" fill="none"/>
<path d="M3.2578125 11.967759203029914L3.2578125 11.64299967661075L3.679687499999999 11.399430031796376" stroke-width="0.03" stroke="#000000" fill="none"/>
<path d="M3.46875 11.196455327784399L5.0859375 12.130138966239496" stroke-width="0.03" stroke="#000000" fill="none"/>
<path d="M5.4375 11.927164262227517L5.4375 11.521214854203564L3.8203125000000004 10.587531215748463" stroke-width="0.03" stroke="#000000" fill="none"/>
<path d="M4.1015625 10.668721097353256L4.382812499999999 10.506341334143674L4.382812499999999 10.019202044514927L3.2578125 9.369682991676598L2.976562500000001 9.53206275488618L2.976562500000001 10.506341334143674" stroke-width="0.03" stroke="#000000" fill="none"/>
<path d="M2.976562500000001 9.53206275488618L4.1015625 10.181581807724509" stroke-width="0.03" stroke="#000000" fill="none"/>
<path d="M4.453125 8.760758879640663L4.453125 8.111239826802334L8.53125 10.465746393341277L9.515625 9.897417222107741L10.218750000000002 10.303366630131695L10.218750000000002 11.196455327784399L8.8125 12.00835414383231L8.390625 11.764784499017935L8.390625 11.521214854203564L8.25 11.44002497259877L7.6171875 11.805379439820332L7.6171875 13.18560742710178L6.421875 13.875721420742504L6.421875 14.606430355185626L6.5625 14.687620236790417L6.7734375 14.56583541438323L7.1953125 14.809405059197603L7.1953125 16.433202691293424L6.421875 16.879747040119774L5.71875 16.473797632095824L5.71875 15.337139289628746L6.28125 15.012379763209582L5.15625 14.362860710371251L5.0859375 14.403455651173648" stroke-width="0.03" stroke="#000000" fill="none"/>
<path d="M5.5078125 14.56583541438323L5.5078125 11.967759203029914L7.757812499999999 10.668721097353256" stroke-width="0.03" stroke="#000000" fill="none"/>
<path d="M7.40625 10.871695801365235L7.96875 11.196455327784399" stroke-width="0.03" stroke="#000000" fill="none"/>
<path d="M8.109375 11.115265446179606L6.7734375 11.886569321425123" stroke-width="0.03" stroke="#000000" fill="none"/>
<path d="M6.84375 11.927164262227517L6.28125 12.251923788646682L6.0703125 12.130138966239496L6.0703125 12.292518729449078L5.9296875 12.37370861105387L5.9296875 13.023227663892198" stroke-width="0.03" stroke="#000000" fill="none"/>
<path d="M5.7890625 13.10441754549699L5.5078125 13.266797308706572" stroke-width="0.03" stroke="#000000" fill="none"/>
<path d="M5.6484375 13.429177071916154L5.7890625 13.347987190311363" stroke-width="0.03" stroke="#000000" fill="none"/>
<path d="M5.6484375 13.429177071916154L5.6484375 13.753936598335319L6.0703125 13.997506243149692" stroke-width="0.03" stroke="#000000" fill="none"/>
<path d="M6.421875 13.875721420742504L6.5625 13.956911302347297L6.5625 14.687620236790417" stroke-width="0.03" stroke="#000000" fill="none"/>
<path d="M6.421875 14.444050591976044L5.859375000000001 14.768810118395209" stroke-width="0.03" stroke="#000000" fill="none"/>
<path d="M6.0703125 14.647025295988021L6.0703125 13.10441754549699" stroke-width="0.03" stroke="#000000" fill="none"/>
<path d="M6.140625 13.145012486299386L6.28125 13.063822604694593L6.28125 14.525240473580833" stroke-width="0.03" stroke="#000000" fill="none"/>
<path d="M6.0703125 14.484645532778439L5.5078125 14.159886006359274" stroke-width="0.03" stroke="#000000" fill="none"/>
<path d="M5.5078125 13.753936598335319L5.6484375 13.672746716730527" stroke-width="0.03" stroke="#000000" fill="none"/>
<path d="M5.7890625 13.510366953520945L5.7890625 12.617278255868243L5.9296875 12.536088374263452" stroke-width="0.03" stroke="#000000" fill="none"/>
<path d="M5.9296875 12.37370861105387L6.140625 12.495493433461057L6.140625 13.145012486299386L5.7890625 12.942037782287407" stroke-width="0.03" stroke="#000000" fill="none"/>
<path d="M5.9296875 12.698468137473034L5.7890625 12.617278255868243" stroke-width="0.03" stroke="#000000" fill="none"/>
<path d="M6.140625 12.495493433461057L6.28125 12.414303551856264L6.28125 12.251923788646682" stroke-width="0.03" stroke="#000000" fill="none"/>
<path d="M6.28125 12.414303551856264L6.0703125 12.292518729449078" stroke-width="0.03" stroke="#000000" fill="none"/>
<path d="M6.0703125 12.130138966239496L6.6328125 11.805379439820332" stroke-width="0.03" stroke="#000000" fill="none"/>
<path d="M6.492187500000001 11.72418955821554L6.84375 11.927164262227517L6.84375 12.0895440254371L8.109375 11.358835090993981" stroke-width="0.03" stroke="#000000" fill="none"/>
<path d="M8.109375 11.521214854203564L8.109375 10.871695801365235" stroke-width="0.03" stroke="#000000" fill="none"/>
<path d="M8.53125 11.115265446179606L8.53125 10.465746393341277" stroke-width="0.03" stroke="#000000" fill="none"/>
<path d="M8.671875 10.140986866922113L9.867187500000002 9.450872873281389L9.867187500000002 8.963733583652642L8.25 8.030049945197543L6.6328125 8.963733583652642L6.6328125 8.557784175628687L7.757812499999999 7.9082651227903575L8.109375 8.111239826802334" stroke-width="0.03" stroke="#000000" fill="none"/>
<path d="M7.3359375 7.502315714766402L6.492187500000001 7.989455004395149L5.9296875 7.664695477975984L5.9296875 7.502315714766402L6.7734375 7.015176425137655L7.3359375 7.33993595155682L7.3359375 7.502315714766402" stroke-width="0.03" stroke="#000000" fill="none"/>
<path d="M7.3359375 7.33993595155682L6.492187500000001 7.827075241185566L6.492187500000001 7.989455004395149" stroke-width="0.03" stroke="#000000" fill="none"/>
<path d="M6.492187500000001 7.827075241185566L5.9296875 7.502315714766402" stroke-width="0.03" stroke="#000000" fill="none"/>
<path d="M6.6328125 8.557784175628687L6.984375 8.760758879640663" stroke-width="0.03" stroke="#000000" fill="none"/>
<path d="M5.71875 9.491467814083784L4.453125 8.760758879640663" stroke-width="0.03" stroke="#000000" fill="none"/>
<path d="M5.4375 11.521214854203564L7.40625 10.384556511736488" stroke-width="0.03" stroke="#000000" fill="none"/>
<path d="M7.0546875 11.074670505377211L7.0546875 11.237050268586794" stroke-width="0.03" stroke="#000000" fill="none"/>
<path d="M7.125 11.196455327784399L6.84375 11.358835090993981L6.84375 11.521214854203564" stroke-width="0.03" stroke="#000000" fill="none"/>
<path d="M6.84375 11.358835090993981L6.984375 11.44002497259877L6.210937500000001 11.886569321425123L6.210937500000001 12.048949084634705" stroke-width="0.03" stroke="#000000" fill="none"/>
<path d="M6.3515625 11.967759203029914L6.210937500000001 11.886569321425123" stroke-width="0.03" stroke="#000000" fill="none"/>
<path d="M6.6328125 11.64299967661075L6.6328125 11.318240150191585" stroke-width="0.03" stroke="#000000" fill="none"/>
<path d="M7.125 11.196455327784399L7.546875 11.44002497259877" stroke-width="0.03" stroke="#000000" fill="none"/>
<path d="M7.6171875 11.805379439820332L7.757812499999999 11.886569321425123L7.757812499999999 13.266797308706572L6.5625 13.956911302347297" stroke-width="0.03" stroke="#000000" fill="none"/>
<path d="M6.84375 13.632151775928133L6.84375 12.739063078275429L7.6171875 12.292518729449078" stroke-width="0.03" stroke="#000000" fill="none"/>
<path d="M7.757812499999999 11.886569321425123L8.390625 11.521214854203564" stroke-width="0.03" stroke="#000000" fill="none"/>
<path d="M8.671875 11.034075564574817L8.8125 11.115265446179606L10.218750000000002 10.303366630131695" stroke-width="0.03" stroke="#000000" fill="none"/>
<path d="M10.078125 10.222176748526905L10.7109375 9.856822281305345L11.1328125 10.100391926119716" stroke-width="0.03" stroke="#000000" fill="none"/>
<path d="M10.921875000000002 10.222176748526905L10.2890625 9.856822281305345L9.867187500000002 10.100391926119716" stroke-width="0.03" stroke="#000000" fill="none"/>
<path d="M9.3046875 10.019202044514927L9.09375 9.897417222107741" stroke-width="0.03" stroke="#000000" fill="none"/>
<path d="M8.953125 9.97860710371253L8.953125 10.222176748526905" stroke-width="0.03" stroke="#000000" fill="none"/>
<path d="M8.8125 10.222176748526905L8.8125 10.059796985317323" stroke-width="0.03" stroke="#000000" fill="none"/>
<path d="M8.25 9.897417222107741L9.867187500000002 8.963733583652642" stroke-width="0.03" stroke="#000000" fill="none"/>
<path d="M9.796875 8.51718923482629L9.4453125 8.720163938838269" stroke-width="0.03" stroke="#000000" fill="none"/>
<path d="M9.796875 8.51718923482629L10.5 8.923138642850246L11.203125 8.51718923482629L11.5546875 8.720163938838269" stroke-width="0.03" stroke="#000000" fill="none"/>
<path d="M11.1328125 8.963733583652642L12.75 8.030049945197543L14.367187500000002 8.963733583652642L14.367187500000002 8.557784175628687L13.242187500000002 7.9082651227903575L12.890625000000002 8.111239826802334" stroke-width="0.03" stroke="#000000" fill="none"/>
<path d="M13.6640625 7.502315714766402L13.6640625 7.33993595155682L14.2265625 7.015176425137655L15.070312500000002 7.502315714766402L15.070312500000002 7.664695477975984L14.5078125 7.989455004395149L13.6640625 7.502315714766402" stroke-width="0.03" stroke="#000000" fill="none"/>
<path d="M13.6640625 7.33993595155682L14.5078125 7.827075241185566L15.070312500000002 7.502315714766402" stroke-width="0.03" stroke="#000000" fill="none"/>
<path d="M14.5078125 7.827075241185566L14.5078125 7.989455004395149" stroke-width="0.03" stroke="#000000" fill="none"/>
<path d="M14.367187500000002 8.557784175628687L14.015625 8.760758879640663" stroke-width="0.03" stroke="#000000" fill="none"/>
<path d="M15.2109375 9.450872873281389L13.593750000000002 10.384556511736488L13.593750000000002 10.465746393341277L12.46875 11.115265446179606L12.1171875 10.912290742167627L12.1171875 10.262771689329298L16.1953125 7.9082651227903575L16.546875 8.111239826802334L16.546875 8.760758879640663L15.28125 9.491467814083784" stroke-width="0.03" stroke="#000000" fill="none"/>
<path d="M15.2109375 9.450872873281389L16.617187500000004 10.262771689329298" stroke-width="0.03" stroke="#000000" fill="none"/>
<path d="M16.617187500000004 10.019202044514927L17.7421875 9.369682991676598L18.0234375 9.53206275488618L18.0234375 10.506341334143674L18.8671875 10.99348062377242L18.8671875 11.318240150191585L17.7421875 11.967759203029914L17.320312500000004 11.72418955821554L17.320312500000004 11.399430031796376L17.53125 11.277645209389188L17.53125 11.196455327784399L17.1796875 10.99348062377242L17.1796875 10.587531215748463L17.109375 10.54693627494607L16.8984375 10.668721097353256L16.617187500000004 10.506341334143674L16.617187500000004 10.019202044514927L16.8984375 10.181581807724509L16.8984375 10.668721097353256" stroke-width="0.03" stroke="#000000" fill="none"/>
<path d="M17.1796875 10.587531215748463L15.5625 11.521214854203564L15.5625 11.927164262227517L15.9140625 12.130138966239496L15.9140625 14.403455651173648L17.53125 13.46977201271855L17.53125 11.845974380622728" stroke-width="0.03" stroke="#000000" fill="none"/>
<path d="M17.7421875 11.967759203029914L17.7421875 11.64299967661075L17.320312500000004 11.399430031796376" stroke-width="0.03" stroke="#000000" fill="none"/>
<path d="M17.53125 11.196455327784399L15.9140625 12.130138966239496" stroke-width="0.03" stroke="#000000" fill="none"/>
<path d="M15.5625 11.927164262227517L18.0234375 10.506341334143674" stroke-width="0.03" stroke="#000000" fill="none"/>
<path d="M18.0234375 9.53206275488618L16.8984375 10.181581807724509" stroke-width="0.03" stroke="#000000" fill="none"/>
<path d="M17.7421875 11.64299967661075L18.8671875 10.99348062377242" stroke-width="0.03" stroke="#000000" fill="none"/>
<path d="M18.796875 12.65787319667064L17.53125 13.388582131113758" stroke-width="0.03" stroke="#000000" fill="none"/>
<path d="M17.53125 14.444050591976044L17.53125 16.311417868886238L15.9140625 17.24510150734134L15.4921875 17.001531862526964L15.4921875 15.621303875245514" stroke-width="0.03" stroke="#000000" fill="none"/>
<path d="M15.351562500000002 15.702493756850306L15.4921875 15.783683638455097" stroke-width="0.03" stroke="#000000" fill="none"/>
<path d="M15.4921875 15.946063401664679L15.28125 15.824278579257493" stroke-width="0.03" stroke="#000000" fill="none"/>
<path d="M15.28125 15.7430886976527L19.359375000000004 13.388582131113758L19.359375000000004 12.982632723089804L18.796875 12.65787319667064" stroke-width="0.03" stroke="#000000" fill="none"/>
<path d="M19.359375000000004 12.982632723089804L15.28125 15.337139289628746L14.718749999999998 15.012379763209582L14.718749999999998 15.418329171233536L15.28125 15.7430886976527" stroke-width="0.03" stroke="#000000" fill="none"/>
<path d="M15.28125 15.337139289628746L15.28125 16.473797632095824L14.578125 16.879747040119774L13.8046875 16.433202691293424L13.8046875 14.809405059197603L14.2265625 14.56583541438323L14.437500000000002 14.687620236790417L14.578125 14.606430355185626L14.578125 13.875721420742504L13.382812500000002 13.18560742710178L13.382812500000002 11.805379439820332L12.75 11.44002497259877L12.609375 11.521214854203564L12.609375 11.764784499017935L12.187500000000002 12.00835414383231L10.78125 11.196455327784399L10.78125 10.303366630131695L11.484375000000002 9.897417222107741L12.46875 10.465746393341277L16.546875 8.111239826802334" stroke-width="0.03" stroke="#000000" fill="none"/>
<path d="M15.5625 11.521214854203564L13.593750000000002 10.384556511736488" stroke-width="0.03" stroke="#000000" fill="none"/>
<path d="M13.242187500000002 10.668721097353256L15.4921875 11.967759203029914L15.4921875 14.56583541438323" stroke-width="0.03" stroke="#000000" fill="none"/>
<path d="M15.4921875 14.159886006359274L14.9296875 14.484645532778439" stroke-width="0.03" stroke="#000000" fill="none"/>
<path d="M14.9296875 14.647025295988021L14.9296875 13.10441754549699" stroke-width="0.03" stroke="#000000" fill="none"/>
<path d="M14.859375 13.145012486299386L15.2109375 12.942037782287407" stroke-width="0.03" stroke="#000000" fill="none"/>
<path d="M15.070312500000002 13.023227663892198L15.070312500000002 12.37370861105387L14.9296875 12.292518729449078L14.718749999999998 12.414303551856264L14.718749999999998 12.251923788646682L14.15625 11.927164262227517L14.5078125 11.72418955821554" stroke-width="0.03" stroke="#000000" fill="none"/>
<path d="M14.367187500000002 11.64299967661075L14.367187500000002 11.318240150191585" stroke-width="0.03" stroke="#000000" fill="none"/>
<path d="M14.15625 11.358835090993981L14.015625 11.44002497259877L14.7890625 11.886569321425123L14.7890625 12.048949084634705" stroke-width="0.03" stroke="#000000" fill="none"/>
<path d="M14.648437500000002 11.967759203029914L14.7890625 11.886569321425123" stroke-width="0.03" stroke="#000000" fill="none"/>
<path d="M14.9296875 12.130138966239496L14.718749999999998 12.251923788646682" stroke-width="0.03" stroke="#000000" fill="none"/>
<path d="M14.718749999999998 12.414303551856264L14.859375 12.495493433461057L14.859375 13.145012486299386L14.718749999999998 13.063822604694593L14.718749999999998 14.525240473580833" stroke-width="0.03" stroke="#000000" fill="none"/>
<path d="M14.578125 14.444050591976044L15.140625 14.768810118395209" stroke-width="0.03" stroke="#000000" fill="none"/>
<path d="M14.718749999999998 15.012379763209582L15.843750000000002 14.362860710371251L15.9140625 14.403455651173648" stroke-width="0.03" stroke="#000000" fill="none"/>
<path d="M15.4921875 13.753936598335319L15.351562500000002 13.672746716730527" stroke-width="0.03" stroke="#000000" fill="none"/>
<path d="M15.351562500000002 13.753936598335319L14.9296875 13.997506243149692" stroke-width="0.03" stroke="#000000" fill="none"/>
<path d="M14.578125 13.875721420742504L14.437500000000002 13.956911302347297L14.437500000000002 14.687620236790417" stroke-width="0.03" stroke="#000000" fill="none"/>
<path d="M14.718749999999998 15.174759526419164L14.578125 15.255949408023953L13.8046875 14.809405059197603" stroke-width="0.03" stroke="#000000" fill="none"/>
<path d="M13.593750000000002 14.444050591976044L13.6640625 14.403455651173648L13.6640625 13.9163163615449L12.890625000000002 13.46977201271855L12.8203125 13.510366953520945L12.8203125 12.617278255868243L12.3984375 12.37370861105387L12.3984375 13.266797308706572L10.5 12.170733907041893L8.6015625 13.266797308706572L8.6015625 12.37370861105387L8.53125 12.333113670251475L8.109375 12.576683315065846L8.109375 13.46977201271855L7.3359375 13.9163163615449L7.3359375 14.403455651173648L7.40625 14.444050591976044L8.1796875 13.997506243149692L8.1796875 16.189633046479052L10.078125 17.28569644814373L9.3046875 17.732240796970082L9.3046875 17.813430678574875L9.7265625 18.057000323389246L10.5 17.610455974562896L11.273437500000002 18.057000323389246L11.6953125 17.813430678574875L11.6953125 17.732240796970082L10.921875000000002 17.28569644814373L12.8203125 16.189633046479052L12.8203125 13.997506243149692L13.593750000000002 14.444050591976044L13.593750000000002 13.956911302347297L13.6640625 13.9163163615449" stroke-width="0.03" stroke="#000000" fill="none"/>
<path d="M13.593750000000002 13.956911302347297L12.8203125 13.510366953520945" stroke-width="0.03" stroke="#000000" fill="none"/>
<path d="M12.890625000000002 13.46977201271855L12.890625000000002 12.576683315065846L12.46875 12.333113670251475L12.3984375 12.37370861105387" stroke-width="0.03" stroke="#000000" fill="none"/>
<path d="M12.187500000000002 12.00835414383231L12.187500000000002 11.115265446179606L10.78125 10.303366630131695" stroke-width="0.03" stroke="#000000" fill="none"/>
<path d="M10.5 10.62812615655086L10.218750000000002 10.790505919760442" stroke-width="0.03" stroke="#000000" fill="none"/>
<path d="M10.5 10.62812615655086L10.78125 10.790505919760442" stroke-width="0.03" stroke="#000000" fill="none"/>
<path d="M10.570312500000002 11.155860386982003L10.5 11.196455327784399L10.4296875 11.155860386982003L9.9375 11.44002497259877L9.867187500000002 11.399430031796376" stroke-width="0.03" stroke="#000000" fill="none"/>
<path d="M9.9375 11.358835090993981L9.9375 11.44002497259877" stroke-width="0.03" stroke="#000000" fill="none"/>
<path d="M9.7265625 11.480619913401167L9.7265625 12.130138966239496L10.2890625 11.805379439820332L10.1484375 11.72418955821554L9.7265625 11.967759203029914" stroke-width="0.03" stroke="#000000" fill="none"/>
<path d="M10.2890625 11.805379439820332L10.2890625 12.211328847844287L8.6015625 13.18560742710178" stroke-width="0.03" stroke="#000000" fill="none"/>
<path d="M8.1796875 13.510366953520945L7.40625 13.956911302347297L7.40625 14.444050591976044" stroke-width="0.03" stroke="#000000" fill="none"/>
<path d="M7.1953125 14.809405059197603L6.421875 15.255949408023953L6.28125 15.174759526419164" stroke-width="0.03" stroke="#000000" fill="none"/>
<path d="M6.421875 15.255949408023953L6.421875 16.879747040119774" stroke-width="0.03" stroke="#000000" fill="none"/>
<path d="M6.28125 16.79855715851499L6.28125 17.529266092958107L6.703125 17.77283573777248" stroke-width="0.03" stroke="#000000" fill="none"/>
<path d="M6.703125 17.529266092958107L6.0703125 17.163911625736546L6.0703125 16.6767723361078" stroke-width="0.03" stroke="#000000" fill="none"/>
<path d="M5.71875 16.230227987281445L5.5078125 16.10844316487426" stroke-width="0.03" stroke="#000000" fill="none"/>
<path d="M5.5078125 15.946063401664679L5.71875 15.824278579257493" stroke-width="0.03" stroke="#000000" fill="none"/>
<path d="M5.71875 15.7430886976527L6.28125 15.418329171233536L6.28125 15.012379763209582" stroke-width="0.03" stroke="#000000" fill="none"/>
<path d="M5.71875 15.337139289628746L1.6406249999999998 12.982632723089804L1.6406249999999998 13.388582131113758L5.71875 15.7430886976527" stroke-width="0.03" stroke="#000000" fill="none"/>
<path d="M5.6484375 15.702493756850306L5.5078125 15.783683638455097" stroke-width="0.03" stroke="#000000" fill="none"/>
<path d="M5.5078125 15.621303875245514L5.5078125 17.001531862526964L5.0859375 17.24510150734134L3.46875 16.311417868886238L3.46875 14.444050591976044L3.1171875 14.647025295988021L3.1171875 15.946063401664679L3.46875 16.14903810567666" stroke-width="0.03" stroke="#000000" fill="none"/>
<path d="M2.5546875 15.783683638455097L2.4140625000000004 15.864873520059888L1.8515625 15.540113993640723L1.8515625 14.56583541438323L1.9921874999999998 14.484645532778439L2.5546875 14.809405059197603L2.5546875 15.783683638455097" stroke-width="0.03" stroke="#000000" fill="none"/>
<path d="M2.4140625000000004 15.864873520059888L2.4140625000000004 14.890594940802394L2.5546875 14.809405059197603" stroke-width="0.03" stroke="#000000" fill="none"/>
<path d="M2.4140625000000004 14.890594940802394L1.8515625 14.56583541438323" stroke-width="0.03" stroke="#000000" fill="none"/>
<path d="M3.1171875 14.647025295988021L3.46875 14.85" stroke-width="0.03" stroke="#000000" fill="none"/>
<path d="M3.46875 13.388582131113758L2.203125 12.65787319667064L1.6406249999999998 12.982632723089804" stroke-width="0.03" stroke="#000000" fill="none"/>
<path d="M2.1328124999999996 10.99348062377242L3.2578125 11.64299967661075" stroke-width="0.03" stroke="#000000" fill="none"/>
<path d="M5.6484375 13.429177071916154L5.7890625 13.510366953520945" stroke-width="0.03" stroke="#000000" fill="none"/>
<path d="M6.84375 13.145012486299386L7.1953125 12.942037782287407L7.1953125 12.536088374263452" stroke-width="0.03" stroke="#000000" fill="none"/>
<path d="M7.0546875 12.698468137473034L7.0546875 12.860847900682616L6.914062500000001 12.942037782287407" stroke-width="0.03" stroke="#000000" fill="none"/>
<path d="M6.84375 12.90144284148501L7.0546875 13.023227663892198" stroke-width="0.03" stroke="#000000" fill="none"/>
<path d="M7.1953125 12.779658019077825L6.984375 12.65787319667064" stroke-width="0.03" stroke="#000000" fill="none"/>
<path d="M6.84375 12.739063078275429L7.757812499999999 13.266797308706572" stroke-width="0.03" stroke="#000000" fill="none"/>
<path d="M8.109375 13.46977201271855L8.1796875 13.510366953520945L8.1796875 12.617278255868243L8.109375 12.576683315065846" stroke-width="0.03" stroke="#000000" fill="none"/>
<path d="M8.1796875 12.617278255868243L8.6015625 12.37370861105387" stroke-width="0.03" stroke="#000000" fill="none"/>
<path d="M8.8125 12.00835414383231L8.8125 11.115265446179606" stroke-width="0.03" stroke="#000000" fill="none"/>
<path d="M10.5 11.196455327784399L10.5 9.97860710371253" stroke-width="0.03" stroke="#000000" fill="none"/>
<path d="M11.1328125 9.450872873281389L11.1328125 8.963733583652642L12.75 9.897417222107741" stroke-width="0.03" stroke="#000000" fill="none"/>
<path d="M12.328125000000002 10.140986866922113L11.1328125 9.450872873281389" stroke-width="0.03" stroke="#000000" fill="none"/>
<path d="M11.6953125 10.019202044514927L11.90625 9.897417222107741" stroke-width="0.03" stroke="#000000" fill="none"/>
<path d="M12.046875 9.97860710371253L12.046875 10.222176748526905" stroke-width="0.03" stroke="#000000" fill="none"/>
<path d="M12.187500000000002 10.222176748526905L12.187500000000002 10.059796985317323" stroke-width="0.03" stroke="#000000" fill="none"/>
<path d="M12.46875 10.465746393341277L12.46875 11.115265446179606" stroke-width="0.03" stroke="#000000" fill="none"/>
<path d="M12.328125000000002 11.034075564574817L12.187500000000002 11.115265446179606" stroke-width="0.03" stroke="#000000" fill="none"/>
<path d="M12.609375 11.521214854203564L13.242187500000002 11.886569321425123L13.382812500000002 11.805379439820332" stroke-width="0.03" stroke="#000000" fill="none"/>
<path d="M13.242187500000002 11.886569321425123L13.242187500000002 13.266797308706572L14.437500000000002 13.956911302347297" stroke-width="0.03" stroke="#000000" fill="none"/>
<path d="M14.15625 13.632151775928133L14.15625 12.739063078275429L13.382812500000002 12.292518729449078" stroke-width="0.03" stroke="#000000" fill="none"/>
<path d="M13.8046875 12.536088374263452L13.8046875 12.942037782287407L14.15625 13.145012486299386" stroke-width="0.03" stroke="#000000" fill="none"/>
<path d="M14.0859375 12.942037782287407L13.945312500000002 12.860847900682616L13.945312500000002 12.698468137473034" stroke-width="0.03" stroke="#000000" fill="none"/>
<path d="M14.015625 12.65787319667064L13.8046875 12.779658019077825" stroke-width="0.03" stroke="#000000" fill="none"/>
<path d="M13.945312500000002 13.023227663892198L14.15625 12.90144284148501" stroke-width="0.03" stroke="#000000" fill="none"/>
<path d="M14.15625 12.739063078275429L13.242187500000002 13.266797308706572" stroke-width="0.03" stroke="#000000" fill="none"/>
<path d="M12.890625000000002 12.576683315065846L12.8203125 12.617278255868243" stroke-width="0.03" stroke="#000000" fill="none"/>
<path d="M12.3984375 13.18560742710178L10.7109375 12.211328847844287L10.7109375 11.805379439820332L10.8515625 11.72418955821554L11.273437500000002 11.967759203029914" stroke-width="0.03" stroke="#000000" fill="none"/>
<path d="M11.273437500000002 12.130138966239496L11.273437500000002 11.480619913401167" stroke-width="0.03" stroke="#000000" fill="none"/>
<path d="M11.1328125 11.399430031796376L11.0625 11.44002497259877L10.570312500000002 11.155860386982003" stroke-width="0.03" stroke="#000000" fill="none"/>
<path d="M11.0625 11.358835090993981L11.0625 11.44002497259877" stroke-width="0.03" stroke="#000000" fill="none"/>
<path d="M10.7109375 11.805379439820332L11.273437500000002 12.130138966239496" stroke-width="0.03" stroke="#000000" fill="none"/>
<path d="M10.5 12.170733907041893L10.5 12.65787319667064L8.6015625 13.753936598335319L8.6015625 15.946063401664679L10.5 17.04212680332936L12.3984375 15.946063401664679L12.3984375 13.753936598335319L10.5 12.65787319667064" stroke-width="0.03" stroke="#000000" fill="none"/>
<path d="M10.2890625 12.779658019077825L10.2890625 12.860847900682616L9.375 13.388582131113758L9.375 14.038101183952087L10.0078125 14.403455651173648L10.5 14.11929106555688L10.9921875 14.403455651173648L11.625000000000002 14.038101183952087L11.625000000000002 13.388582131113758L10.7109375 12.860847900682616L10.7109375 12.779658019077825" stroke-width="0.03" stroke="#000000" fill="none"/>
<path d="M10.5 13.46977201271855L10.0078125 13.753936598335319L9.375 13.388582131113758" stroke-width="0.03" stroke="#000000" fill="none"/>
<path d="M10.0078125 13.753936598335319L10.0078125 14.403455651173648" stroke-width="0.03" stroke="#000000" fill="none"/>
<path d="M9.867187500000002 14.322265769568856L9.7265625 14.403455651173648L9.7265625 14.56583541438323" stroke-width="0.03" stroke="#000000" fill="none"/>
<path d="M9.7265625 14.403455651173648L10.1484375 14.647025295988021L9.867187500000002 14.809405059197603" stroke-width="0.03" stroke="#000000" fill="none"/>
<path d="M9.867187500000002 14.647025295988021L9.3046875 14.971784822407185L8.671875 14.606430355185626L8.671875 15.661898816047911L8.6015625 15.702493756850306" stroke-width="0.03" stroke="#000000" fill="none"/>
<path d="M8.6015625 15.946063401664679L8.1796875 16.189633046479052" stroke-width="0.03" stroke="#000000" fill="none"/>
<path d="M8.109375 15.986658342467075L7.757812499999999 16.189633046479052L7.6171875 16.10844316487426L7.6171875 15.621303875245514" stroke-width="0.03" stroke="#000000" fill="none"/>
<path d="M7.757812499999999 15.540113993640723L7.1953125 15.864873520059888" stroke-width="0.03" stroke="#000000" fill="none"/>
<path d="M7.1953125 16.02725328326947L7.265625000000001 16.067848224071867L7.265625000000001 16.636177395305403L7.3359375 16.6767723361078L7.3359375 16.75796221771259L7.828125 17.04212680332936L7.828125 17.123316684934153" stroke-width="0.03" stroke="#000000" fill="none"/>
<path d="M7.757812499999999 17.082721744131756L7.828125 17.04212680332936" stroke-width="0.03" stroke="#000000" fill="none"/>
<path d="M7.96875 17.204506566538942L8.53125 16.879747040119774L7.96875 16.55498751370061L7.96875 16.717367276910196L8.390625 16.960936921724567" stroke-width="0.03" stroke="#000000" fill="none"/>
<path d="M7.96875 16.55498751370061L8.3203125 16.352012809688635L10.0078125 17.326291388946128" stroke-width="0.03" stroke="#000000" fill="none"/>
<path d="M10.5 17.529266092958107L9.7265625 17.975810441784457L9.7265625 18.057000323389246" stroke-width="0.03" stroke="#000000" fill="none"/>
<path d="M9.7265625 17.975810441784457L9.3046875 17.732240796970082" stroke-width="0.03" stroke="#000000" fill="none"/>
<path d="M8.8828125 17.732240796970082L8.109375 18.178785145796436L8.109375 18.341164909006018" stroke-width="0.03" stroke="#000000" fill="none"/>
<path d="M8.25 18.422354790610807L7.6875 18.747114317029972L6.703125 18.178785145796436L6.703125 17.366886329748525L7.4765625 16.920341980922174L8.8828125 17.732240796970082L8.8828125 18.219380086598832L8.671875 18.341164909006018L8.671875 18.5035446722156L9.3046875 18.86889913943716L10.5 18.178785145796436L11.6953125 18.86889913943716L12.328125000000002 18.5035446722156L12.328125000000002 18.341164909006018L12.1171875 18.219380086598832L12.1171875 17.732240796970082L13.5234375 16.920341980922174L14.296875000000002 17.366886329748525L14.296875000000002 18.178785145796436L13.3125 18.747114317029972L12.75 18.422354790610807L12.75 19.721392896287465L12.8203125 19.761987837089862L12.8203125 21.62935511400006L11.4140625 22.44125393004797" stroke-width="0.03" stroke="#000000" fill="none"/>
<path d="M11.625000000000002 22.563038752455157L11.34375 22.72541851566474L10.921875000000002 22.481848870850367L11.203125 22.31946910764078L11.625000000000002 22.563038752455157L11.625000000000002 23.862076858131815L11.34375 24.024456621341397L10.5 23.53731733171265L10.5 20.69567147554496L10.1484375 20.898646179556938L10.1484375 22.76601345646713L10.078125 22.72541851566474L10.078125 22.481848870850367L9.796875 22.31946910764078L9.375 22.563038752455157L9.375 23.862076858131815L9.65625 24.024456621341397L10.5 23.53731733171265" stroke-width="0.03" stroke="#000000" fill="none"/>
<path d="M10.1484375 22.76601345646713L10.5 22.563038752455157L10.8515625 22.76601345646713L10.921875000000002 22.72541851566474L10.921875000000002 22.481848870850367" stroke-width="0.03" stroke="#000000" fill="none"/>
<path d="M10.8515625 22.76601345646713L10.8515625 20.898646179556938L10.5 20.69567147554496" stroke-width="0.03" stroke="#000000" fill="none"/>
<path d="M10.5 20.61448159394017L12.75 19.31544348826351" stroke-width="0.03" stroke="#000000" fill="none"/>
<path d="M12.3984375 19.51841819227549L12.3984375 18.86889913943716" stroke-width="0.03" stroke="#000000" fill="none"/>
<path d="M12.539062500000002 18.78770925783237L11.203125 19.559013133077883" stroke-width="0.03" stroke="#000000" fill="none"/>
<path d="M11.203125 19.477823251473097L10.640625 19.802582777892262L10.640625 20.04615242270663L10.5 19.96496254110184L10.359375 20.04615242270663L9.796875 19.721392896287465" stroke-width="0.03" stroke="#000000" fill="none"/>
<path d="M9.796875 19.883772659497048L9.796875 19.477823251473097L9.9375 19.3966333698683L8.671875 18.665924435425183" stroke-width="0.03" stroke="#000000" fill="none"/>
<path d="M8.8125 18.58473455382039L8.25 18.909494080239554" stroke-width="0.03" stroke="#000000" fill="none"/>
<path d="M8.4609375 18.78770925783237L9.796875 19.559013133077883" stroke-width="0.03" stroke="#000000" fill="none"/>
<path d="M9.796875 19.477823251473097L10.359375 19.802582777892262L10.359375 20.04615242270663" stroke-width="0.03" stroke="#000000" fill="none"/>
<path d="M10.218750000000002 19.96496254110184L10.078125 20.04615242270663L9.3046875 19.59960807388028L9.3046875 19.761987837089862L9.0234375 19.59960807388028L9.0234375 19.112468784251533" stroke-width="0.03" stroke="#000000" fill="none"/>
<path d="M9.3046875 18.86889913943716L9.3046875 18.706519376227575L10.5 18.016405382586854L11.6953125 18.706519376227575L12.328125000000002 18.341164909006018" stroke-width="0.03" stroke="#000000" fill="none"/>
<path d="M12.187500000000002 18.58473455382039L12.75 18.909494080239554" stroke-width="0.03" stroke="#000000" fill="none"/>
<path d="M12.328125000000002 18.665924435425183L11.0625 19.3966333698683L11.203125 19.477823251473097L11.203125 19.883772659497048" stroke-width="0.03" stroke="#000000" fill="none"/>
<path d="M11.34375 19.802582777892262L11.625000000000002 19.96496254110184" stroke-width="0.03" stroke="#000000" fill="none"/>
<path d="M11.6953125 19.761987837089862L11.976562500000002 19.59960807388028L11.976562500000002 19.112468784251533" stroke-width="0.03" stroke="#000000" fill="none"/>
<path d="M11.6953125 18.86889913943716L11.6953125 18.706519376227575" stroke-width="0.03" stroke="#000000" fill="none"/>
<path d="M11.273437500000002 18.625329494622786L10.5 19.071873843449136L9.7265625 18.625329494622786" stroke-width="0.03" stroke="#000000" fill="none"/>
<path d="M9.3046875 18.706519376227575L8.671875 18.341164909006018" stroke-width="0.03" stroke="#000000" fill="none"/>
<path d="M8.25 18.422354790610807L8.25 19.721392896287465L8.1796875 19.761987837089862L8.1796875 21.62935511400006L9.5859375 22.44125393004797" stroke-width="0.03" stroke="#000000" fill="none"/>
<path d="M9.375 22.563038752455157L9.65625 22.72541851566474L10.078125 22.481848870850367" stroke-width="0.03" stroke="#000000" fill="none"/>
<path d="M9.65625 22.72541851566474L9.65625 24.024456621341397" stroke-width="0.03" stroke="#000000" fill="none"/>
<path d="M8.25 23.131367923688696L7.6875 23.45612745010786L7.3359375 23.253152746095882L7.3359375 18.544139613017997L7.898437500000001 18.219380086598832L8.25 18.422354790610807" stroke-width="0.03" stroke="#000000" fill="none"/>
<path d="M8.109375 18.178785145796436L6.703125 17.366886329748525" stroke-width="0.03" stroke="#000000" fill="none"/>
<path d="M6.28125 17.28569644814373L7.3359375 16.6767723361078" stroke-width="0.03" stroke="#000000" fill="none"/>
<path d="M6.84375 16.636177395305403L6.84375 16.960936921724567L7.125 17.123316684934153" stroke-width="0.03" stroke="#000000" fill="none"/>
<path d="M7.1953125 16.10844316487426L7.265625000000001 16.067848224071867" stroke-width="0.03" stroke="#000000" fill="none"/>
<path d="M7.757812499999999 16.189633046479052L7.757812499999999 15.540113993640723" stroke-width="0.03" stroke="#000000" fill="none"/>
<path d="M8.109375 15.986658342467075L8.109375 14.038101183952087" stroke-width="0.03" stroke="#000000" fill="none"/>
<path d="M7.40625 13.956911302347297L7.3359375 13.9163163615449" stroke-width="0.03" stroke="#000000" fill="none"/>
<path d="M8.671875 14.606430355185626L9.234375 14.281670828766462L9.867187500000002 14.647025295988021L9.867187500000002 15.215354467221559L10.359375 15.499519052838329L10.359375 16.230227987281445L9.796875 16.55498751370061L8.8828125 16.02725328326947L8.8125 16.067848224071867" stroke-width="0.03" stroke="#000000" fill="none"/>
<path d="M9.3046875 15.540113993640723L10.5 14.85L11.6953125 15.540113993640723L11.203125 15.824278579257493L11.203125 16.55498751370061L12.1171875 16.02725328326947L12.187500000000002 16.067848224071867" stroke-width="0.03" stroke="#000000" fill="none"/>
<path d="M12.3984375 15.946063401664679L12.8203125 16.189633046479052" stroke-width="0.03" stroke="#000000" fill="none"/>
<path d="M12.679687500000002 16.352012809688635L10.9921875 17.326291388946128" stroke-width="0.03" stroke="#000000" fill="none"/>
<path d="M10.5 17.529266092958107L10.5 17.610455974562896" stroke-width="0.03" stroke="#000000" fill="none"/>
<path d="M10.5 17.529266092958107L11.273437500000002 17.975810441784457L11.273437500000002 18.057000323389246" stroke-width="0.03" stroke="#000000" fill="none"/>
<path d="M11.273437500000002 17.975810441784457L11.6953125 17.732240796970082" stroke-width="0.03" stroke="#000000" fill="none"/>
<path d="M12.1171875 17.732240796970082L12.890625000000002 18.178785145796436L12.890625000000002 18.341164909006018" stroke-width="0.03" stroke="#000000" fill="none"/>
<path d="M12.890625000000002 18.178785145796436L14.296875000000002 17.366886329748525" stroke-width="0.03" stroke="#000000" fill="none"/>
<path d="M14.296875000000002 17.529266092958107L14.9296875 17.163911625736546L14.9296875 16.6767723361078" stroke-width="0.03" stroke="#000000" fill="none"/>
<path d="M14.718749999999998 16.79855715851499L14.718749999999998 17.529266092958107L14.296875000000002 17.77283573777248" stroke-width="0.03" stroke="#000000" fill="none"/>
<path d="M14.0859375 18.30056996820362L14.0859375 18.544139613017997" stroke-width="0.03" stroke="#000000" fill="none"/>
<path d="M13.945312500000002 18.625329494622786L13.734375 18.5035446722156" stroke-width="0.03" stroke="#000000" fill="none"/>
<path d="M13.6640625 18.544139613017997L13.6640625 23.253152746095882L13.3125 23.45612745010786L12.75 23.131367923688696L12.75 21.669950054802452" stroke-width="0.03" stroke="#000000" fill="none"/>
<path d="M13.6640625 21.142215824371313L15.28125 20.208532185916212L15.28125 18.341164909006018L14.859375 18.097595264191643L13.6640625 18.78770925783237" stroke-width="0.03" stroke="#000000" fill="none"/>
<path d="M13.6640625 18.625329494622786L13.8046875 18.706519376227575" stroke-width="0.03" stroke="#000000" fill="none"/>
<path d="M13.6640625 18.544139613017997L13.1015625 18.219380086598832L12.75 18.422354790610807" stroke-width="0.03" stroke="#000000" fill="none"/>
<path d="M13.3125 18.747114317029972L13.3125 23.45612745010786" stroke-width="0.03" stroke="#000000" fill="none"/>
<path d="M14.437500000000002 22.400658989245574L14.437500000000002 21.751139936407245L15.28125 21.2640006467785L15.421875 21.345190528383288L15.421875 21.994709581221617L14.578125 22.481848870850367L14.437500000000002 22.400658989245574" stroke-width="0.03" stroke="#000000" fill="none"/>
<path d="M14.578125 22.481848870850367L14.578125 21.832329818012038L14.437500000000002 21.751139936407245" stroke-width="0.03" stroke="#000000" fill="none"/>
<path d="M14.578125 21.832329818012038L15.421875 21.345190528383288" stroke-width="0.03" stroke="#000000" fill="none"/>
<path d="M15.140625 20.69567147554496L14.015625 21.345190528383288L13.6640625 21.142215824371313" stroke-width="0.03" stroke="#000000" fill="none"/>
<path d="M14.015625 21.345190528383288L14.015625 20.939241120359334" stroke-width="0.03" stroke="#000000" fill="none"/>
<path d="M15.140625 20.69567147554496L15.140625 20.289722067521005" stroke-width="0.03" stroke="#000000" fill="none"/>
<path d="M15.28125 18.828304198634765L15.6328125 18.625329494622786L15.6328125 17.813430678574875L16.3359375 17.407481270550917L16.3359375 17.001531862526964" stroke-width="0.03" stroke="#000000" fill="none"/>
<path d="M15.9140625 17.24510150734134L15.9140625 15.377734230431141" stroke-width="0.03" stroke="#000000" fill="none"/>
<path d="M15.4921875 16.10844316487426L15.28125 16.230227987281445" stroke-width="0.03" stroke="#000000" fill="none"/>
<path d="M14.578125 16.879747040119774L14.578125 15.255949408023953" stroke-width="0.03" stroke="#000000" fill="none"/>
<path d="M13.8046875 15.864873520059888L13.242187500000002 15.540113993640723L13.242187500000002 16.189633046479052L12.890625000000002 15.986658342467075L12.890625000000002 14.038101183952087" stroke-width="0.03" stroke="#000000" fill="none"/>
<path d="M12.328125000000002 14.606430355185626L11.6953125 14.971784822407185L11.1328125 14.647025295988021L11.1328125 15.215354467221559L10.640625 15.499519052838329L10.640625 16.230227987281445L11.203125 16.55498751370061" stroke-width="0.03" stroke="#000000" fill="none"/>
<path d="M11.203125 15.824278579257493L10.640625 15.499519052838329" stroke-width="0.03" stroke="#000000" fill="none"/>
<path d="M10.640625 15.661898816047911L10.5 15.7430886976527L10.359375 15.661898816047911" stroke-width="0.03" stroke="#000000" fill="none"/>
<path d="M10.5 15.7430886976527L10.5 15.255949408023953L10.78125 15.418329171233536" stroke-width="0.03" stroke="#000000" fill="none"/>
<path d="M10.5 15.255949408023953L10.218750000000002 15.418329171233536" stroke-width="0.03" stroke="#000000" fill="none"/>
<path d="M10.359375 15.499519052838329L9.796875 15.824278579257493L9.796875 16.55498751370061" stroke-width="0.03" stroke="#000000" fill="none"/>
<path d="M9.796875 15.824278579257493L9.3046875 15.540113993640723L9.3046875 14.971784822407185" stroke-width="0.03" stroke="#000000" fill="none"/>
<path d="M10.1484375 14.647025295988021L10.1484375 14.322265769568856" stroke-width="0.03" stroke="#000000" fill="none"/>
<path d="M10.5 14.85L10.5 13.46977201271855L10.9921875 13.753936598335319L11.625000000000002 13.388582131113758" stroke-width="0.03" stroke="#000000" fill="none"/>
<path d="M10.9921875 13.753936598335319L10.9921875 14.403455651173648" stroke-width="0.03" stroke="#000000" fill="none"/>
<path d="M10.8515625 14.322265769568856L10.8515625 14.647025295988021L11.1328125 14.809405059197603" stroke-width="0.03" stroke="#000000" fill="none"/>
<path d="M11.1328125 14.647025295988021L11.765625 14.281670828766462L12.328125000000002 14.606430355185626L12.328125000000002 15.661898816047911L12.3984375 15.702493756850306" stroke-width="0.03" stroke="#000000" fill="none"/>
<path d="M12.679687500000002 16.352012809688635L13.031250000000002 16.55498751370061L13.031250000000002 16.717367276910196L12.609375 16.960936921724567" stroke-width="0.03" stroke="#000000" fill="none"/>
<path d="M12.46875 16.879747040119774L13.031250000000002 16.55498751370061" stroke-width="0.03" stroke="#000000" fill="none"/>
<path d="M13.242187500000002 16.189633046479052L13.382812500000002 16.10844316487426L13.382812500000002 15.621303875245514" stroke-width="0.03" stroke="#000000" fill="none"/>
<path d="M13.734375 16.067848224071867L13.8046875 16.02725328326947" stroke-width="0.03" stroke="#000000" fill="none"/>
<path d="M13.8046875 16.10844316487426L13.734375 16.067848224071867L13.734375 16.636177395305403L13.6640625 16.6767723361078L13.6640625 16.75796221771259L13.171875 17.04212680332936L13.171875 17.123316684934153" stroke-width="0.03" stroke="#000000" fill="none"/>
<path d="M13.171875 17.04212680332936L13.242187500000002 17.082721744131756" stroke-width="0.03" stroke="#000000" fill="none"/>
<path d="M13.031250000000002 17.204506566538942L12.46875 16.879747040119774" stroke-width="0.03" stroke="#000000" fill="none"/>
<path d="M13.6640625 16.6767723361078L14.718749999999998 17.28569644814373" stroke-width="0.03" stroke="#000000" fill="none"/>
<path d="M14.15625 16.960936921724567L13.875 17.123316684934153" stroke-width="0.03" stroke="#000000" fill="none"/>
<path d="M14.15625 16.960936921724567L14.15625 16.636177395305403" stroke-width="0.03" stroke="#000000" fill="none"/>
<path d="M15.28125 18.341164909006018L13.6640625 19.274848547461115" stroke-width="0.03" stroke="#000000" fill="none"/>
<path d="M12.8203125 19.761987837089862L10.8515625 20.898646179556938" stroke-width="0.03" stroke="#000000" fill="none"/>
<path d="M10.5 20.61448159394017L8.25 19.31544348826351" stroke-width="0.03" stroke="#000000" fill="none"/>
<path d="M8.6015625 19.51841819227549L8.6015625 18.86889913943716" stroke-width="0.03" stroke="#000000" fill="none"/>
<path d="M9.09375 19.640203014682676L8.953125 19.721392896287465" stroke-width="0.03" stroke="#000000" fill="none"/>
<path d="M9.3046875 19.761987837089862L9.4453125 19.68079795548507" stroke-width="0.03" stroke="#000000" fill="none"/>
<path d="M9.65625 19.802582777892262L9.375 19.96496254110184" stroke-width="0.03" stroke="#000000" fill="none"/>
<path d="M10.078125 20.04615242270663L10.078125 19.883772659497048" stroke-width="0.03" stroke="#000000" fill="none"/>
<path d="M10.359375 19.802582777892262L10.5 19.721392896287465L10.640625 19.802582777892262" stroke-width="0.03" stroke="#000000" fill="none"/>
<path d="M10.5 19.721392896287465L10.5 19.96496254110184" stroke-width="0.03" stroke="#000000" fill="none"/>
<path d="M10.640625 20.04615242270663L11.203125 19.721392896287465" stroke-width="0.03" stroke="#000000" fill="none"/>
<path d="M10.921875000000002 19.883772659497048L10.921875000000002 20.04615242270663L10.78125 19.96496254110184" stroke-width="0.03" stroke="#000000" fill="none"/>
<path d="M10.921875000000002 20.04615242270663L11.6953125 19.59960807388028L11.6953125 19.761987837089862L11.5546875 19.68079795548507" stroke-width="0.03" stroke="#000000" fill="none"/>
<path d="M11.90625 19.640203014682676L12.046875 19.721392896287465" stroke-width="0.03" stroke="#000000" fill="none"/>
<path d="M10.8515625 18.86889913943716L10.5 18.665924435425183L10.1484375 18.86889913943716" stroke-width="0.03" stroke="#000000" fill="none"/>
<path d="M10.359375 18.909494080239554L10.5 18.828304198634765L10.640625 18.909494080239554" stroke-width="0.03" stroke="#000000" fill="none"/>
<path d="M10.640625 18.990683961844347L10.640625 18.747114317029972" stroke-width="0.03" stroke="#000000" fill="none"/>
<path d="M10.359375 18.747114317029972L10.359375 18.990683961844347" stroke-width="0.03" stroke="#000000" fill="none"/>
<path d="M10.5 19.071873843449136L10.5 18.016405382586854" stroke-width="0.03" stroke="#000000" fill="none"/>
<path d="M11.6953125 15.540113993640723L11.6953125 14.971784822407185" stroke-width="0.03" stroke="#000000" fill="none"/>
<path d="M11.273437500000002 14.56583541438323L11.273437500000002 14.403455651173648L11.1328125 14.322265769568856" stroke-width="0.03" stroke="#000000" fill="none"/>
<path d="M11.273437500000002 14.403455651173648L10.8515625 14.647025295988021" stroke-width="0.03" stroke="#000000" fill="none"/>
<path d="M12.890625000000002 11.521214854203564L12.890625000000002 10.871695801365235" stroke-width="0.03" stroke="#000000" fill="none"/>
<path d="M12.890625000000002 11.115265446179606L14.2265625 11.886569321425123" stroke-width="0.03" stroke="#000000" fill="none"/>
<path d="M14.15625 11.927164262227517L14.15625 12.0895440254371L12.890625000000002 11.358835090993981" stroke-width="0.03" stroke="#000000" fill="none"/>
<path d="M13.031250000000002 11.196455327784399L13.593750000000002 10.871695801365235" stroke-width="0.03" stroke="#000000" fill="none"/>
<path d="M13.945312500000002 11.074670505377211L13.945312500000002 11.237050268586794" stroke-width="0.03" stroke="#000000" fill="none"/>
<path d="M13.875 11.196455327784399L13.453125 11.44002497259877" stroke-width="0.03" stroke="#000000" fill="none"/>
<path d="M13.875 11.196455327784399L14.15625 11.358835090993981L14.15625 11.521214854203564" stroke-width="0.03" stroke="#000000" fill="none"/>
<path d="M14.367187500000002 11.805379439820332L14.9296875 12.130138966239496L14.9296875 12.292518729449078" stroke-width="0.03" stroke="#000000" fill="none"/>
<path d="M15.070312500000002 12.37370861105387L14.859375 12.495493433461057" stroke-width="0.03" stroke="#000000" fill="none"/>
<path d="M15.070312500000002 12.536088374263452L15.2109375 12.617278255868243L15.2109375 13.510366953520945L15.351562500000002 13.429177071916154L15.351562500000002 13.753936598335319" stroke-width="0.03" stroke="#000000" fill="none"/>
<path d="M15.351562500000002 13.429177071916154L15.2109375 13.347987190311363" stroke-width="0.03" stroke="#000000" fill="none"/>
<path d="M15.2109375 13.10441754549699L15.4921875 13.266797308706572" stroke-width="0.03" stroke="#000000" fill="none"/>
<path d="M15.070312500000002 12.698468137473034L15.2109375 12.617278255868243" stroke-width="0.03" stroke="#000000" fill="none"/>
<path d="M17.53125 14.444050591976044L17.882812500000004 14.647025295988021L17.882812500000004 15.946063401664679L17.53125 16.14903810567666" stroke-width="0.03" stroke="#000000" fill="none"/>
<path d="M18.4453125 15.783683638455097L18.4453125 14.809405059197603L19.0078125 14.484645532778439L19.1484375 14.56583541438323L19.1484375 15.540113993640723L18.585937500000004 15.864873520059888L18.4453125 15.783683638455097" stroke-width="0.03" stroke="#000000" fill="none"/>
<path d="M18.585937500000004 15.864873520059888L18.585937500000004 14.890594940802394L19.1484375 14.56583541438323" stroke-width="0.03" stroke="#000000" fill="none"/>
<path d="M18.585937500000004 14.890594940802394L18.4453125 14.809405059197603" stroke-width="0.03" stroke="#000000" fill="none"/>
<path d="M17.882812500000004 14.647025295988021L17.53125 14.85" stroke-width="0.03" stroke="#000000" fill="none"/>
<path d="M10.1484375 20.898646179556938L8.1796875 19.761987837089862" stroke-width="0.03" stroke="#000000" fill="none"/>
<path d="M7.3359375 19.274848547461115L5.71875 18.341164909006018L6.140625 18.097595264191643L7.3359375 18.78770925783237" stroke-width="0.03" stroke="#000000" fill="none"/>
<path d="M7.3359375 18.625329494622786L7.1953125 18.706519376227575" stroke-width="0.03" stroke="#000000" fill="none"/>
<path d="M7.0546875 18.625329494622786L7.265625000000001 18.5035446722156" stroke-width="0.03" stroke="#000000" fill="none"/>
<path d="M6.914062500000001 18.544139613017997L6.914062500000001 18.30056996820362" stroke-width="0.03" stroke="#000000" fill="none"/>
<path d="M7.6875 18.747114317029972L7.6875 23.45612745010786" stroke-width="0.03" stroke="#000000" fill="none"/>
<path d="M8.25 23.131367923688696L8.25 21.669950054802452" stroke-width="0.03" stroke="#000000" fill="none"/>
<path d="M7.3359375 21.142215824371313L6.984375 21.345190528383288L5.859375000000001 20.69567147554496L5.859375000000001 20.289722067521005" stroke-width="0.03" stroke="#000000" fill="none"/>
<path d="M5.71875 20.208532185916212L5.71875 18.341164909006018" stroke-width="0.03" stroke="#000000" fill="none"/>
<path d="M5.3671875 18.625329494622786L5.3671875 17.813430678574875L4.6640625 17.407481270550917L4.6640625 17.001531862526964" stroke-width="0.03" stroke="#000000" fill="none"/>
<path d="M5.0859375 17.24510150734134L5.0859375 15.377734230431141" stroke-width="0.03" stroke="#000000" fill="none"/>
<path d="M5.3671875 18.625329494622786L5.71875 18.828304198634765" stroke-width="0.03" stroke="#000000" fill="none"/>
<path d="M5.71875 20.208532185916212L7.3359375 21.142215824371313" stroke-width="0.03" stroke="#000000" fill="none"/>
<path d="M6.984375 21.345190528383288L6.984375 20.939241120359334" stroke-width="0.03" stroke="#000000" fill="none"/>
<path d="M6.5625 21.751139936407245L6.421875 21.832329818012038L6.421875 22.481848870850367L5.578125 21.994709581221617L5.578125 21.345190528383288L5.71875 21.2640006467785L6.5625 21.751139936407245L6.5625 22.400658989245574L6.421875 22.481848870850367" stroke-width="0.03" stroke="#000000" fill="none"/>
<path d="M6.421875 21.832329818012038L5.578125 21.345190528383288" stroke-width="0.03" stroke="#000000" fill="none"/>
<path d="M11.34375 22.72541851566474L11.34375 24.024456621341397" stroke-width="0.03" stroke="#000000" fill="none"/>
<path d="M7.264131938244363 2.2599663291074443L1.5 2.2599663291074443" stroke-width="0.03" stroke="#000000" fill="none"/>
<path d="M2.0824957911384305 2.015598694615191L2.0824957911384305 1.7268634256306838" stroke-width="0.03" stroke="#000000" fill="none"/>
<path d="M2.061871843353823 1.5824957911384305L2.0824957911384305 1.6031197389230383L2.1031197389230383 1.5824957911384305L2.0824957911384305 1.5618718433538228L2.061871843353823 1.5824957911384305" stroke-width="0.03" stroke="#000000" fill="none"/>
<path d="M2.226863425630684 1.953726851261368L2.2474873734152916 1.9949747468305832L2.3093592167691144 2.015598694615191L2.3712310601229376 2.015598694615191L2.4331029034767604 1.9949747468305832L2.4537268512613677 1.953726851261368L2.4537268512613677 1.9331029034767604L2.4331029034767604 1.891855007907545L2.391855007907545 1.8712310601229374L2.2887352689845066 1.8506071123383299L2.2474873734152916 1.8299831645537221L2.226863425630684 1.7887352689845069L2.2474873734152916 1.7474873734152916L2.3093592167691144 1.7268634256306838L2.3712310601229376 1.7268634256306838L2.4331029034767604 1.7474873734152916L2.4537268512613677 1.7887352689845069" stroke-width="0.03" stroke="#000000" fill="none"/>
<path d="M2.680590276892052 1.7268634256306838L2.6393423813228365 1.7474873734152916L2.5980944857536215 1.7887352689845069L2.5774705379690137 1.8506071123383299L2.5774705379690137 1.891855007907545L2.5980944857536215 1.953726851261368L2.6393423813228365 1.9949747468305832L2.680590276892052 2.015598694615191L2.7424621202458748 2.015598694615191L2.78371001581509 1.9949747468305832L2.8249579113843053 1.953726851261368L2.845581859168913 1.891855007907545L2.845581859168913 1.8506071123383299L2.8249579113843053 1.7887352689845069L2.78371001581509 1.7474873734152916L2.7424621202458748 1.7268634256306838L2.680590276892052 1.7268634256306838" stroke-width="0.03" stroke="#000000" fill="none"/>
<path d="M2.907453702522736 2.056846590184406L3.237436867076458 2.056846590184406" stroke-width="0.03" stroke="#000000" fill="none"/>
<path d="M3.2993087104302807 1.953726851261368L3.3199326582148885 1.9949747468305832L3.3818045015687113 2.015598694615191L3.443676344922534 2.015598694615191L3.5055481882763573 1.9949747468305832L3.526172136060965 1.953726851261368L3.526172136060965 1.9331029034767604L3.5055481882763573 1.891855007907545L3.464300292707142 1.8712310601229374L3.361180553784104 1.8506071123383299L3.3199326582148885 1.8299831645537221L3.2993087104302807 1.7887352689845069L3.3199326582148885 1.7474873734152916L3.3818045015687113 1.7268634256306838L3.443676344922534 1.7268634256306838L3.5055481882763573 1.7474873734152916L3.526172136060965 1.7887352689845069" stroke-width="0.03" stroke="#000000" fill="none"/>
<path d="M3.6705397705532183 1.8093592167691144L3.732411613907041 1.7474873734152916L3.773659509476256 1.7268634256306838L3.8355313528300794 1.7268634256306838L3.8767792483992944 1.7474873734152916L3.897403196183902 1.8093592167691144L3.897403196183902 2.015598694615191" stroke-width="0.03" stroke="#000000" fill="none"/>
<path d="M3.6705397705532183 2.015598694615191L3.6705397705532183 1.7268634256306838" stroke-width="0.03" stroke="#000000" fill="none"/>
<path d="M4.144890569599194 1.7268634256306838L4.103642674029978 1.7474873734152916L4.062394778460764 1.7887352689845069L4.041770830676155 1.8506071123383299L4.041770830676155 1.891855007907545L4.062394778460764 1.953726851261368L4.103642674029978 1.9949747468305832L4.144890569599194 2.015598694615191L4.206762412953017 2.015598694615191L4.2480103085222325 1.9949747468305832L4.289258204091447 1.953726851261368L4.309882151876055 1.891855007907545L4.309882151876055 1.8506071123383299L4.289258204091447 1.7887352689845069L4.2480103085222325 1.7474873734152916L4.206762412953017 1.7268634256306838L4.144890569599194 1.7268634256306838" stroke-width="0.03" stroke="#000000" fill="none"/>
<path d="M4.4336258385837 1.7268634256306838L4.516121629722131 2.015598694615191L4.5986174208605615 1.7268634256306838L4.681113211998992 2.015598694615191L4.7636090031374225 1.7268634256306838" stroke-width="0.03" stroke="#000000" fill="none"/>
<path d="M4.866728742060461 1.7268634256306838L5.011096376552715 1.7268634256306838" stroke-width="0.03" stroke="#000000" fill="none"/>
<path d="M5.031720324337321 1.5824957911384305L4.990472428768107 1.5824957911384305L4.949224533198891 1.6031197389230383L4.928600585414284 1.664991582276861L4.928600585414284 2.015598694615191" stroke-width="0.03" stroke="#000000" fill="none"/>
<path d="M5.155464011044968 2.015598694615191L5.155464011044968 1.5824957911384305" stroke-width="0.03" stroke="#000000" fill="none"/>
<path d="M5.547319018952512 1.7268634256306838L5.547319018952512 2.015598694615191" stroke-width="0.03" stroke="#000000" fill="none"/>
<path d="M5.547319018952512 1.953726851261368L5.506071123383298 1.9949747468305832L5.464823227814082 2.015598694615191L5.402951384460259 2.015598694615191L5.3617034888910435 1.9949747468305832L5.320455593321829 1.953726851261368L5.299831645537221 1.891855007907545L5.299831645537221 1.8506071123383299L5.320455593321829 1.7887352689845069L5.3617034888910435 1.7474873734152916L5.402951384460259 1.7268634256306838L5.464823227814082 1.7268634256306838L5.506071123383298 1.7474873734152916L5.547319018952512 1.7887352689845069" stroke-width="0.03" stroke="#000000" fill="none"/>
<path d="M5.712310601229374 1.9331029034767604L5.91855007907545 1.7268634256306838" stroke-width="0.03" stroke="#000000" fill="none"/>
<path d="M5.794806392367804 1.8506071123383299L5.939174026860058 2.015598694615191" stroke-width="0.03" stroke="#000000" fill="none"/>
<path d="M6.042293765783096 1.8506071123383299L6.2897811391983875 1.8506071123383299L6.2897811391983875 1.8093592167691144L6.26915719141378 1.7681113211998993L6.248533243629172 1.7474873734152916L6.207285348059957 1.7268634256306838L6.145413504706134 1.7268634256306838L6.104165609136919 1.7474873734152916L6.062917713567703 1.7887352689845069L6.042293765783096 1.8506071123383299L6.042293765783096 1.891855007907545L6.062917713567703 1.953726851261368L6.104165609136919 1.9949747468305832L6.145413504706134 2.015598694615191L6.207285348059957 2.015598694615191L6.248533243629172 1.9949747468305832L6.2897811391983875 1.953726851261368" stroke-width="0.03" stroke="#000000" fill="none"/>
<path d="M6.434148773690641 1.6856155300614688L6.434148773690641 1.664991582276861L6.454772721475249 1.6237436867076458L6.475396669259856 1.6031197389230383L6.516644564829072 1.5824957911384305L6.599140355967502 1.5824957911384305L6.640388251536717 1.6031197389230383L6.661012199321325 1.6237436867076458L6.681636147105933 1.664991582276861L6.681636147105933 1.7062394778460763L6.661012199321325 1.7474873734152916L6.61976430375211 1.8093592167691144L6.413524825906033 2.015598694615191L6.702260094890541 2.015598694615191" stroke-width="0.03" stroke="#000000" fill="none"/>
<path d="M5.712310601229374 2.015598694615191L5.712310601229374 1.5824957911384305" stroke-width="0.03" stroke="#000000" fill="none"/>
<path d="M4.243348925503947 2.7746830355252596L4.243348925503947 2.761936734812169L4.256095226217038 2.736444133385988L4.268841526930129 2.7236978326728973L4.29433412835631 2.7109515319598065L4.345319331208673 2.7109515319598065L4.370811932634854 2.7236978326728973L4.383558233347944 2.736444133385988L4.396304534061034 2.761936734812169L4.396304534061034 2.7874293362383504L4.383558233347944 2.8129219376645316L4.358065631921763 2.8511608398038035L4.230602624790857 2.9786238469347097L4.409050834774126 2.9786238469347097" stroke-width="0.03" stroke="#000000" fill="none"/>
<path d="M4.039408114094497 2.7109515319598065L4.001169211955226 2.7236978326728973L3.9884229112421354 2.7491904340990785L3.9884229112421354 2.7746830355252596L4.001169211955226 2.8001756369514412L4.026661813381407 2.8129219376645316L4.07764701623377 2.825668238377622L4.115885918373042 2.8384145390907127L4.141378519799223 2.8639071405168943L4.154124820512314 2.889399741943075L4.154124820512314 2.927638644082347L4.141378519799223 2.953131245508528L4.128632219086132 2.965877546221619L4.0903933169468605 2.9786238469347097L4.039408114094497 2.9786238469347097L4.001169211955226 2.965877546221619L3.9884229112421354 2.953131245508528L3.9756766105290446 2.927638644082347L3.9756766105290446 2.889399741943075L3.9884229112421354 2.8639071405168943L4.013915512668317 2.8384145390907127L4.052154414807589 2.825668238377622L4.10313961765995 2.8129219376645316L4.128632219086132 2.8001756369514412L4.141378519799223 2.7746830355252596L4.141378519799223 2.7491904340990785L4.128632219086132 2.7236978326728973L4.0903933169468605 2.7109515319598065L4.039408114094497 2.7109515319598065" stroke-width="0.03" stroke="#000000" fill="none"/>
<path d="M3.9246914076766823 2.7109515319598065L3.758989498406504 2.7109515319598065L3.758989498406504 2.9786238469347097" stroke-width="0.03" stroke="#000000" fill="none"/>
<path d="M3.758989498406504 2.8384145390907127L3.8609599041112292 2.8384145390907127" stroke-width="0.03" stroke="#000000" fill="none"/>
<path d="M3.6570190927017796 2.8001756369514412L3.644272791988689 2.8384145390907127L3.6187801905625077 2.8639071405168943L3.5805412884232357 2.8766534412299847L3.567794987710145 2.8766534412299847L3.5295560855708734 2.8639071405168943L3.504063484144692 2.8384145390907127L3.4913171834316015 2.8001756369514412L3.4913171834316015 2.7874293362383504L3.504063484144692 2.7491904340990785L3.5295560855708734 2.7236978326728973L3.567794987710145 2.7109515319598065L3.5805412884232357 2.7109515319598065L3.6187801905625077 2.7236978326728973L3.644272791988689 2.7491904340990785L3.6570190927017796 2.8001756369514412L3.6570190927017796 2.8639071405168943L3.644272791988689 2.927638644082347L3.6187801905625077 2.965877546221619L3.5805412884232357 2.9786238469347097L3.5550486869970546 2.9786238469347097L3.5168097848577826 2.965877546221619L3.504063484144692 2.9403849447954378" stroke-width="0.03" stroke="#000000" fill="none"/>
<path d="M3.4275856798661484 2.9786238469347097L3.2618837705959702 2.9786238469347097L3.2618837705959702 2.7109515319598065L3.4275856798661484 2.7109515319598065" stroke-width="0.03" stroke="#000000" fill="none"/>
<path d="M3.3638541763006957 2.8384145390907127L3.2618837705959702 2.8384145390907127" stroke-width="0.03" stroke="#000000" fill="none"/>
<path d="M3.1344207634650645 2.8384145390907127L3.0324503577603394 2.8384145390907127" stroke-width="0.03" stroke="#000000" fill="none"/>
<path d="M2.955972553481796 2.889399741943075L2.7647780427854367 2.889399741943075L2.892241049916343 2.7109515319598065L2.892241049916343 2.9786238469347097" stroke-width="0.03" stroke="#000000" fill="none"/>
<path d="M3.0324503577603394 2.9786238469347097L3.0324503577603394 2.7109515319598065L3.198152267030517 2.7109515319598065" stroke-width="0.03" stroke="#000000" fill="none"/>
<path d="M2.586329832802168 2.7109515319598065L2.5480909306628963 2.7236978326728973L2.522598329236715 2.761936734812169L2.5098520285236243 2.825668238377622L2.5098520285236243 2.8639071405168943L2.522598329236715 2.927638644082347L2.5480909306628963 2.965877546221619L2.586329832802168 2.9786238469347097L2.6118224342283494 2.9786238469347097L2.6500613363676213 2.965877546221619L2.6755539377938025 2.927638644082347L2.6883002385068933 2.8639071405168943L2.6883002385068933 2.825668238377622L2.6755539377938025 2.761936734812169L2.6500613363676213 2.7236978326728973L2.6118224342283494 2.7109515319598065L2.586329832802168 2.7109515319598065" stroke-width="0.03" stroke="#000000" fill="none"/>
<path d="M2.433374224245081 2.8001756369514412L2.293164916401084 2.9786238469347097" stroke-width="0.03" stroke="#000000" fill="none"/>
<path d="M2.433374224245081 2.9786238469347097L2.293164916401084 2.8001756369514412" stroke-width="0.03" stroke="#000000" fill="none"/>
<path d="M2.1147167064178154 2.7109515319598065L2.076477804278544 2.7236978326728973L2.0509852028523623 2.761936734812169L2.038238902139272 2.825668238377622L2.038238902139272 2.8639071405168943L2.0509852028523623 2.927638644082347L2.076477804278544 2.965877546221619L2.1147167064178154 2.9786238469347097L2.140209307843997 2.9786238469347097L2.1784482099832685 2.965877546221619L2.2039408114094496 2.927638644082347L2.2166871121225404 2.8639071405168943L2.2166871121225404 2.825668238377622L2.2039408114094496 2.761936734812169L2.1784482099832685 2.7236978326728973L2.140209307843997 2.7109515319598065L2.1147167064178154 2.7109515319598065" stroke-width="0.03" stroke="#000000" fill="none"/>
</svg>
