<?xml version="1.0" standalone="no"?>
<svg width="21cm" height="29.7cm" version="1.1" xmlns="http://www.w3.org/2000/svg" viewBox="0.0 0.0 21.000001 29.700001">
<path d="M3.1171875 9.856822281305345L6.492187500000001 7.9082651227903575L7.0546875 8.233024649209522L7.0546875 9.450872873281389" stroke-width="0.03" stroke="#000000" fill="none"/>
<path d="M6.984375 9.410277932478992L6.140625 9.897417222107741" stroke-width="0.03" stroke="#000000" fill="none"/>
<path d="M6.0703125 9.856822281305345L4.03125 11.034075564574817L4.03125 11.115265446179606L3.9609375 11.155860386982003L3.9609375 13.510366953520945L4.171875 13.632151775928133L4.2421875 13.591556835125736L4.2421875 14.647025295988021L5.015625 14.200480947161669L5.015625 12.576683315065846L5.15625 12.495493433461057L7.1953125 13.672746716730527L7.1953125 14.56583541438323" stroke-width="0.03" stroke="#000000" fill="none"/>
<path d="M7.0546875 14.647025295988021L7.0546875 13.753936598335319L5.015625 12.576683315065846" stroke-width="0.03" stroke="#000000" fill="none"/>
<path d="M5.296875 12.576683315065846L5.296875 12.414303551856264L5.7890625 12.130138966239496L6.3515625 12.45489849265866L6.3515625 11.886569321425123L5.7890625 11.561809795005958L5.9296875 11.480619913401167" stroke-width="0.03" stroke="#000000" fill="none"/>
<path d="M5.7890625 11.399430031796376L5.7890625 11.237050268586794L7.1953125 10.42515145253888L7.1953125 9.53206275488618L6.984375 9.410277932478992" stroke-width="0.03" stroke="#000000" fill="none"/>
<path d="M7.0546875 9.288493110071807L7.898437500000001 9.775632399700552L10.1484375 8.476594294023895L10.1484375 7.502315714766402L9.3046875 7.015176425137655L7.0546875 8.314214530814313L7.898437500000001 8.80135382044306L10.1484375 7.502315714766402" stroke-width="0.03" stroke="#000000" fill="none"/>
<path d="M10.8515625 7.502315714766402L11.6953125 7.015176425137655L13.945312500000002 8.314214530814313L13.1015625 8.80135382044306L10.8515625 7.502315714766402L10.8515625 8.476594294023895L13.1015625 9.775632399700552L13.945312500000002 9.288493110071807" stroke-width="0.03" stroke="#000000" fill="none"/>
<path d="M14.015625 9.410277932478992L13.8046875 9.53206275488618L13.8046875 10.42515145253888L15.2109375 11.237050268586794L15.2109375 11.399430031796376L13.171875 12.576683315065846L12.3984375 12.130138966239496" stroke-width="0.03" stroke="#000000" fill="none"/>
<path d="M12.3984375 11.967759203029914L13.171875 12.414303551856264L15.2109375 11.237050268586794" stroke-width="0.03" stroke="#000000" fill="none"/>
<path d="M15.070312500000002 11.480619913401167L15.2109375 11.561809795005958L15.2109375 12.130138966239496L14.648437500000002 12.45489849265866L15.140625 12.739063078275429L15.703125000000002 12.414303551856264L15.703125000000002 12.576683315065846" stroke-width="0.03" stroke="#000000" fill="none"/>
<path d="M15.843750000000002 12.495493433461057L13.8046875 13.672746716730527L13.8046875 14.56583541438323" stroke-width="0.03" stroke="#000000" fill="none"/>
<path d="M13.945312500000002 14.647025295988021L13.945312500000002 13.753936598335319L15.984375 12.576683315065846L15.984375 14.200480947161669L16.7578125 14.647025295988021L16.96875 14.525240473580833L16.96875 13.55096189432334" stroke-width="0.03" stroke="#000000" fill="none"/>
<path d="M17.0390625 13.510366953520945L16.828125 13.632151775928133L16.7578125 13.591556835125736L16.7578125 14.647025295988021" stroke-width="0.03" stroke="#000000" fill="none"/>
<path d="M16.8984375 14.56583541438323L17.953125000000004 15.174759526419164L18.515625 14.85L18.515625 10.952885682970024L17.882812500000004 10.587531215748463L17.882812500000004 9.856822281305345L14.5078125 7.9082651227903575L13.945312500000002 8.233024649209522L13.945312500000002 9.450872873281389" stroke-width="0.03" stroke="#000000" fill="none"/>
<path d="M14.015625 9.410277932478992L14.859375 9.897417222107741" stroke-width="0.03" stroke="#000000" fill="none"/>
<path d="M14.9296875 9.856822281305345L14.718749999999998 9.97860710371253L14.718749999999998 10.059796985317323L13.8046875 9.53206275488618" stroke-width="0.03" stroke="#000000" fill="none"/>
<path d="M13.8046875 10.262771689329298L13.1015625 9.856822281305345L10.921875000000002 11.115265446179606L10.921875000000002 11.277645209389188L11.90625 11.845974380622728" stroke-width="0.03" stroke="#000000" fill="none"/>
<path d="M11.90625 11.683594617413146L12.2578125 11.480619913401167L12.3984375 11.561809795005958L12.3984375 12.779658019077825L12.046875 12.982632723089804L11.90625 12.90144284148501L11.90625 11.683594617413146" stroke-width="0.03" stroke="#000000" fill="none"/>
<path d="M12.046875 11.764784499017935L12.3984375 11.561809795005958" stroke-width="0.03" stroke="#000000" fill="none"/>
<path d="M12.046875 11.764784499017935L12.046875 12.982632723089804" stroke-width="0.03" stroke="#000000" fill="none"/>
<path d="M11.765625 13.226202367904175L10.9921875 13.672746716730527" stroke-width="0.03" stroke="#000000" fill="none"/>
<path d="M10.78125 13.55096189432334L10.78125 13.388582131113758L10.640625 13.307392249508968L10.5 13.388582131113758L10.359375 13.307392249508968L10.218750000000002 13.388582131113758L10.218750000000002 13.55096189432334" stroke-width="0.03" stroke="#000000" fill="none"/>
<path d="M10.359375 13.46977201271855L9.515625 13.956911302347297L9.515625 14.281670828766462L9.234375 14.444050591976044L9.234375 15.418329171233536L9.09375 15.337139289628746L9.09375 15.499519052838329L9.234375 15.580708934443118L9.234375 15.7430886976527L9.375 15.824278579257493L9.515625 15.7430886976527" stroke-width="0.03" stroke="#000000" fill="none"/>
<path d="M9.375 15.661898816047911L9.375 15.824278579257493" stroke-width="0.03" stroke="#000000" fill="none"/>
<path d="M9.375 15.661898816047911L10.218750000000002 16.14903810567666L10.5 15.986658342467075L10.78125 16.14903810567666L11.625000000000002 15.661898816047911L11.625000000000002 15.824278579257493L11.484375000000002 15.7430886976527" stroke-width="0.03" stroke="#000000" fill="none"/>
<path d="M11.625000000000002 15.824278579257493L11.765625 15.7430886976527L11.765625 15.580708934443118L11.90625 15.499519052838329L11.90625 15.337139289628746L11.765625 15.255949408023953" stroke-width="0.03" stroke="#000000" fill="none"/>
<path d="M11.765625 15.418329171233536L11.90625 15.337139289628746" stroke-width="0.03" stroke="#000000" fill="none"/>
<path d="M11.765625 15.418329171233536L11.765625 14.444050591976044L11.484375000000002 14.281670828766462L11.484375000000002 13.956911302347297L10.640625 13.46977201271855L10.78125 13.388582131113758" stroke-width="0.03" stroke="#000000" fill="none"/>
<path d="M10.5 13.388582131113758L10.5 11.521214854203564L9.09375 12.333113670251475" stroke-width="0.03" stroke="#000000" fill="none"/>
<path d="M9.09375 11.845974380622728L10.078125 11.277645209389188L10.078125 11.115265446179606L7.898437500000001 9.856822281305345L7.1953125 10.262771689329298" stroke-width="0.03" stroke="#000000" fill="none"/>
<path d="M7.1953125 9.53206275488618L6.28125 10.059796985317323L6.28125 9.97860710371253L6.0703125 9.856822281305345" stroke-width="0.03" stroke="#000000" fill="none"/>
<path d="M6.28125 9.97860710371253L4.2421875 11.155860386982003L4.03125 11.034075564574817" stroke-width="0.03" stroke="#000000" fill="none"/>
<path d="M4.03125 11.115265446179606L4.2421875 11.237050268586794L4.2421875 11.155860386982003" stroke-width="0.03" stroke="#000000" fill="none"/>
<path d="M4.2421875 11.237050268586794L4.171875 11.277645209389188L3.9609375 11.155860386982003" stroke-width="0.03" stroke="#000000" fill="none"/>
<path d="M4.171875 11.277645209389188L4.171875 13.632151775928133" stroke-width="0.03" stroke="#000000" fill="none"/>
<path d="M4.03125 13.55096189432334L4.03125 14.525240473580833L4.2421875 14.647025295988021" stroke-width="0.03" stroke="#000000" fill="none"/>
<path d="M4.1015625 14.56583541438323L3.046875 15.174759526419164L2.484375000000001 14.85L2.484375000000001 10.952885682970024L3.1171875 10.587531215748463L3.1171875 9.856822281305345L3.679687499999999 10.181581807724509L3.679687499999999 10.912290742167627L3.046875 11.277645209389188L3.046875 15.174759526419164" stroke-width="0.03" stroke="#000000" fill="none"/>
<path d="M3.1171875 15.134164585616768L3.1171875 17.732240796970082L3.9609375 18.219380086598832L4.8046875 17.732240796970082L4.8046875 15.134164585616768L3.9609375 14.647025295988021" stroke-width="0.03" stroke="#000000" fill="none"/>
<path d="M3.9609375 15.621303875245514L4.8046875 15.134164585616768" stroke-width="0.03" stroke="#000000" fill="none"/>
<path d="M4.875 15.093569644814371L4.875 14.281670828766462" stroke-width="0.03" stroke="#000000" fill="none"/>
<path d="M4.875 15.093569644814371L7.0546875 16.352012809688635L7.1953125 16.270822928083845L7.1953125 15.134164585616768" stroke-width="0.03" stroke="#000000" fill="none"/>
<path d="M7.0546875 15.052974704011977L8.109375 14.444050591976044L8.109375 14.606430355185626L7.0546875 15.215354467221559L6.703125 15.012379763209582L6.703125 14.85L7.757812499999999 14.241075887964065L8.109375 14.444050591976044" stroke-width="0.03" stroke="#000000" fill="none"/>
<path d="M8.4609375 14.56583541438323L8.4609375 14.241075887964065L8.953125 13.956911302347297L9.65625 14.362860710371251L9.65625 14.038101183952087L10.5 13.55096189432334L11.34375 14.038101183952087L11.484375000000002 13.956911302347297" stroke-width="0.03" stroke="#000000" fill="none"/>
<path d="M11.34375 14.038101183952087L11.34375 14.362860710371251L11.625000000000002 14.525240473580833L11.765625 14.444050591976044" stroke-width="0.03" stroke="#000000" fill="none"/>
<path d="M11.625000000000002 14.525240473580833L11.625000000000002 15.499519052838329L10.78125 15.986658342467075L10.5 15.824278579257493L10.218750000000002 15.986658342467075L10.218750000000002 16.14903810567666" stroke-width="0.03" stroke="#000000" fill="none"/>
<path d="M10.218750000000002 15.986658342467075L9.375 15.499519052838329L9.375 14.525240473580833L9.65625 14.362860710371251" stroke-width="0.03" stroke="#000000" fill="none"/>
<path d="M9.375 14.525240473580833L9.234375 14.444050591976044" stroke-width="0.03" stroke="#000000" fill="none"/>
<path d="M9.234375 14.687620236790417L8.4609375 14.241075887964065" stroke-width="0.03" stroke="#000000" fill="none"/>
<path d="M8.4609375 14.56583541438323L9.234375 15.012379763209582" stroke-width="0.03" stroke="#000000" fill="none"/>
<path d="M9.234375 15.255949408023953L9.09375 15.337139289628746" stroke-width="0.03" stroke="#000000" fill="none"/>
<path d="M9.234375 15.580708934443118L7.6171875 16.514392572898217L9.0234375 17.326291388946128" stroke-width="0.03" stroke="#000000" fill="none"/>
<path d="M8.6015625 17.569861033760503L7.6171875 17.001531862526964L7.4765625 17.082721744131756L7.4765625 19.59960807388028L8.1796875 20.005557481904233" stroke-width="0.03" stroke="#000000" fill="none"/>
<path d="M8.3203125 19.924367600299444L7.546875 20.370911949125794L7.546875 20.61448159394017L8.390625 21.101620883568916" stroke-width="0.03" stroke="#000000" fill="none"/>
<path d="M8.390625 21.18281076517371L8.390625 20.939241120359334L8.4609375 20.898646179556938L7.546875 20.370911949125794" stroke-width="0.03" stroke="#000000" fill="none"/>
<path d="M7.546875 20.53329171233538L6.492187500000001 21.142215824371313L6.492187500000001 21.79173487720964L9.867187500000002 23.740292035724625L10.5 23.374937568503068L11.1328125 23.740292035724625L14.5078125 21.79173487720964L14.5078125 21.142215824371313L13.453125 20.53329171233538" stroke-width="0.03" stroke="#000000" fill="none"/>
<path d="M13.453125 20.61448159394017L12.609375 21.101620883568916" stroke-width="0.03" stroke="#000000" fill="none"/>
<path d="M12.609375 21.18281076517371L10.570312500000002 22.360064048443178L10.5 22.31946910764078L10.5 22.07589946282641L10.570312500000002 22.116494403628806L12.609375 20.939241120359334L12.539062500000002 20.898646179556938L13.453125 20.370911949125794L12.679687500000002 19.924367600299444L11.273437500000002 20.736266416347355L11.1328125 20.655076534742566L11.1328125 18.30056996820362L11.90625 17.85402561937727" stroke-width="0.03" stroke="#000000" fill="none"/>
<path d="M12.046875 17.93521550098206L11.273437500000002 18.38175984980841L11.1328125 18.30056996820362" stroke-width="0.03" stroke="#000000" fill="none"/>
<path d="M11.273437500000002 18.38175984980841L11.273437500000002 20.736266416347355" stroke-width="0.03" stroke="#000000" fill="none"/>
<path d="M11.1328125 20.492696771532984L10.9921875 20.573886653137773L10.5 20.289722067521005L10.0078125 20.573886653137773L9.867187500000002 20.492696771532984" stroke-width="0.03" stroke="#000000" fill="none"/>
<path d="M10.0078125 20.573886653137773L10.0078125 19.924367600299444L10.5 19.640203014682676L10.9921875 19.924367600299444L11.1328125 19.843177718694655" stroke-width="0.03" stroke="#000000" fill="none"/>
<path d="M10.9921875 19.924367600299444L10.9921875 20.573886653137773" stroke-width="0.03" stroke="#000000" fill="none"/>
<path d="M10.5 20.289722067521005L10.5 19.640203014682676" stroke-width="0.03" stroke="#000000" fill="none"/>
<path d="M10.0078125 19.924367600299444L9.867187500000002 19.843177718694655" stroke-width="0.03" stroke="#000000" fill="none"/>
<path d="M9.867187500000002 19.356038429065904L10.5 18.990683961844347L11.1328125 19.356038429065904" stroke-width="0.03" stroke="#000000" fill="none"/>
<path d="M10.5 18.990683961844347L10.5 17.204506566538942L9.65625 17.69164585616769L9.65625 18.178785145796436" stroke-width="0.03" stroke="#000000" fill="none"/>
<path d="M9.7265625 18.38175984980841L9.867187500000002 18.30056996820362L9.867187500000002 20.655076534742566L9.7265625 20.736266416347355L8.3203125 19.924367600299444" stroke-width="0.03" stroke="#000000" fill="none"/>
<path d="M7.40625 19.640203014682676L6.5625 20.12734230431142L4.3125 18.828304198634765L4.3125 19.802582777892262L6.5625 21.101620883568916L6.5625 20.12734230431142" stroke-width="0.03" stroke="#000000" fill="none"/>
<path d="M7.40625 19.640203014682676L7.40625 20.61448159394017" stroke-width="0.03" stroke="#000000" fill="none"/>
<path d="M7.40625 19.640203014682676L5.15625 18.341164909006018L4.3125 18.828304198634765" stroke-width="0.03" stroke="#000000" fill="none"/>
<path d="M3.9609375 18.219380086598832L3.9609375 15.621303875245514L3.1171875 15.134164585616768" stroke-width="0.03" stroke="#000000" fill="none"/>
<path d="M4.8046875 16.270822928083845L5.5078125 16.6767723361078" stroke-width="0.03" stroke="#000000" fill="none"/>
<path d="M5.5078125 17.082721744131756L5.5078125 15.864873520059888L5.859375000000001 15.661898816047911" stroke-width="0.03" stroke="#000000" fill="none"/>
<path d="M6 15.7430886976527L6 16.79855715851499L6.5625 17.123316684934153L6.5625 17.77283573777248L7.4765625 18.30056996820362" stroke-width="0.03" stroke="#000000" fill="none"/>
<path d="M7.4765625 18.462949731413204L7.125 18.665924435425183L6.0703125 18.057000323389246L6.0703125 18.86889913943716" stroke-width="0.03" stroke="#000000" fill="none"/>
<path d="M6.421875 19.071873843449136L6.421875 18.259975027401225" stroke-width="0.03" stroke="#000000" fill="none"/>
<path d="M6.5625 17.69164585616769L6.0703125 17.407481270550917L6.0703125 16.83915209931738" stroke-width="0.03" stroke="#000000" fill="none"/>
<path d="M6.421875 17.04212680332936L6.421875 17.204506566538942L6.0703125 17.407481270550917" stroke-width="0.03" stroke="#000000" fill="none"/>
<path d="M6.421875 17.204506566538942L6.5625 17.28569644814373" stroke-width="0.03" stroke="#000000" fill="none"/>
<path d="M7.265625000000001 17.77283573777248L7.3359375 17.732240796970082L7.4765625 17.813430678574875" stroke-width="0.03" stroke="#000000" fill="none"/>
<path d="M7.4765625 17.894620560179668L7.265625000000001 17.77283573777248L7.265625000000001 17.85402561937727L7.4765625 17.975810441784457" stroke-width="0.03" stroke="#000000" fill="none"/>
<path d="M7.125 18.097595264191643L7.125 18.665924435425183" stroke-width="0.03" stroke="#000000" fill="none"/>
<path d="M8.4609375 18.057000323389246L8.4609375 17.651050915365293L9.515625 17.04212680332936L9.65625 17.123316684934153L9.65625 17.529266092958107L8.6015625 18.13819020499404L8.4609375 18.057000323389246" stroke-width="0.03" stroke="#000000" fill="none"/>
<path d="M8.6015625 18.13819020499404L8.6015625 17.732240796970082L7.4765625 17.082721744131756" stroke-width="0.03" stroke="#000000" fill="none"/>
<path d="M7.6171875 16.514392572898217L7.6171875 14.890594940802394" stroke-width="0.03" stroke="#000000" fill="none"/>
<path d="M7.6171875 14.322265769568856L7.6171875 14.159886006359274L8.4609375 13.672746716730527L8.4609375 12.698468137473034L8.6015625 12.617278255868243" stroke-width="0.03" stroke="#000000" fill="none"/>
<path d="M8.6015625 12.779658019077825L8.6015625 11.561809795005958L8.7421875 11.480619913401167L9.09375 11.683594617413146L9.09375 12.90144284148501L8.953125 12.982632723089804L8.6015625 12.779658019077825" stroke-width="0.03" stroke="#000000" fill="none"/>
<path d="M8.4609375 12.698468137473034L8.0390625 12.45489849265866" stroke-width="0.03" stroke="#000000" fill="none"/>
<path d="M7.828125 12.414303551856264L8.6015625 11.967759203029914" stroke-width="0.03" stroke="#000000" fill="none"/>
<path d="M8.6015625 12.130138966239496L7.828125 12.576683315065846L5.7890625 11.399430031796376" stroke-width="0.03" stroke="#000000" fill="none"/>
<path d="M5.7890625 11.561809795005958L5.7890625 12.130138966239496" stroke-width="0.03" stroke="#000000" fill="none"/>
<path d="M5.296875 12.414303551856264L5.859375000000001 12.739063078275429L6.3515625 12.45489849265866" stroke-width="0.03" stroke="#000000" fill="none"/>
<path d="M5.859375000000001 12.739063078275429L5.859375000000001 12.90144284148501" stroke-width="0.03" stroke="#000000" fill="none"/>
<path d="M6.28125 13.145012486299386L6.914062500000001 12.779658019077825L6.914062500000001 12.048949084634705" stroke-width="0.03" stroke="#000000" fill="none"/>
<path d="M6.492187500000001 11.805379439820332L6.3515625 11.886569321425123" stroke-width="0.03" stroke="#000000" fill="none"/>
<path d="M5.7890625 11.237050268586794L7.828125 12.414303551856264L7.828125 12.576683315065846" stroke-width="0.03" stroke="#000000" fill="none"/>
<path d="M6.914062500000001 12.779658019077825L8.4609375 13.672746716730527" stroke-width="0.03" stroke="#000000" fill="none"/>
<path d="M8.8828125 13.9163163615449L8.953125 13.875721420742504" stroke-width="0.03" stroke="#000000" fill="none"/>
<path d="M8.8828125 13.9163163615449L8.8828125 13.997506243149692" stroke-width="0.03" stroke="#000000" fill="none"/>
<path d="M8.953125 13.956911302347297L8.953125 13.388582131113758L9.234375 13.226202367904175L10.0078125 13.672746716730527" stroke-width="0.03" stroke="#000000" fill="none"/>
<path d="M9.7265625 13.83512647994011L8.953125 13.388582131113758" stroke-width="0.03" stroke="#000000" fill="none"/>
<path d="M8.953125 12.982632723089804L8.953125 11.764784499017935L10.078125 11.115265446179606" stroke-width="0.03" stroke="#000000" fill="none"/>
<path d="M10.5 11.521214854203564L11.90625 12.333113670251475" stroke-width="0.03" stroke="#000000" fill="none"/>
<path d="M12.3984375 12.617278255868243L12.539062500000002 12.698468137473034L12.9609375 12.45489849265866" stroke-width="0.03" stroke="#000000" fill="none"/>
<path d="M13.171875 12.414303551856264L13.171875 12.576683315065846" stroke-width="0.03" stroke="#000000" fill="none"/>
<path d="M12.539062500000002 12.698468137473034L12.539062500000002 13.672746716730527L13.382812500000002 14.159886006359274L13.382812500000002 14.322265769568856" stroke-width="0.03" stroke="#000000" fill="none"/>
<path d="M13.242187500000002 14.241075887964065L12.890625000000002 14.444050591976044L12.890625000000002 14.606430355185626L13.945312500000002 15.215354467221559L14.296875000000002 15.012379763209582L14.296875000000002 14.85L13.242187500000002 14.241075887964065" stroke-width="0.03" stroke="#000000" fill="none"/>
<path d="M13.382812500000002 14.159886006359274L13.8046875 13.9163163615449" stroke-width="0.03" stroke="#000000" fill="none"/>
<path d="M13.945312500000002 13.753936598335319L13.8046875 13.672746716730527" stroke-width="0.03" stroke="#000000" fill="none"/>
<path d="M14.0859375 12.779658019077825L12.539062500000002 13.672746716730527" stroke-width="0.03" stroke="#000000" fill="none"/>
<path d="M12.1171875 13.9163163615449L12.1171875 13.997506243149692" stroke-width="0.03" stroke="#000000" fill="none"/>
<path d="M12.046875 13.956911302347297L11.34375 14.362860710371251" stroke-width="0.03" stroke="#000000" fill="none"/>
<path d="M11.273437500000002 13.83512647994011L12.046875 13.388582131113758L11.765625 13.226202367904175" stroke-width="0.03" stroke="#000000" fill="none"/>
<path d="M12.046875 13.388582131113758L12.046875 13.956911302347297L12.539062500000002 14.241075887964065L12.539062500000002 14.56583541438323L11.765625 15.012379763209582" stroke-width="0.03" stroke="#000000" fill="none"/>
<path d="M11.765625 14.687620236790417L12.539062500000002 14.241075887964065" stroke-width="0.03" stroke="#000000" fill="none"/>
<path d="M12.890625000000002 14.444050591976044L13.945312500000002 15.052974704011977L14.296875000000002 14.85" stroke-width="0.03" stroke="#000000" fill="none"/>
<path d="M13.945312500000002 15.052974704011977L13.945312500000002 16.352012809688635L13.8046875 16.270822928083845L13.8046875 15.134164585616768" stroke-width="0.03" stroke="#000000" fill="none"/>
<path d="M13.382812500000002 14.890594940802394L13.382812500000002 16.514392572898217L11.976562500000002 17.326291388946128" stroke-width="0.03" stroke="#000000" fill="none"/>
<path d="M12.3984375 17.569861033760503L13.382812500000002 17.001531862526964L13.5234375 17.082721744131756L13.5234375 19.59960807388028L12.8203125 20.005557481904233" stroke-width="0.03" stroke="#000000" fill="none"/>
<path d="M13.453125 20.370911949125794L13.453125 20.61448159394017" stroke-width="0.03" stroke="#000000" fill="none"/>
<path d="M13.593750000000002 20.61448159394017L13.593750000000002 19.640203014682676L15.843750000000002 18.341164909006018L16.6875 18.828304198634765L16.6875 19.802582777892262L14.437500000000002 21.101620883568916L14.437500000000002 20.12734230431142L16.6875 18.828304198634765" stroke-width="0.03" stroke="#000000" fill="none"/>
<path d="M17.0390625 18.219380086598832L17.882812500000004 17.732240796970082L17.882812500000004 15.134164585616768L17.0390625 15.621303875245514L16.1953125 15.134164585616768L17.0390625 14.647025295988021" stroke-width="0.03" stroke="#000000" fill="none"/>
<path d="M16.1953125 15.134164585616768L16.1953125 17.732240796970082L17.0390625 18.219380086598832L17.0390625 15.621303875245514" stroke-width="0.03" stroke="#000000" fill="none"/>
<path d="M17.953125000000004 15.174759526419164L17.953125000000004 11.277645209389188L18.515625 10.952885682970024" stroke-width="0.03" stroke="#000000" fill="none"/>
<path d="M17.953125000000004 11.277645209389188L17.320312500000004 10.912290742167627L17.320312500000004 10.181581807724509L17.882812500000004 9.856822281305345" stroke-width="0.03" stroke="#000000" fill="none"/>
<path d="M17.320312500000004 10.181581807724509L13.945312500000002 8.233024649209522" stroke-width="0.03" stroke="#000000" fill="none"/>
<path d="M13.1015625 8.80135382044306L13.1015625 9.775632399700552" stroke-width="0.03" stroke="#000000" fill="none"/>
<path d="M12.1171875 10.019202044514927L11.625000000000002 10.303366630131695" stroke-width="0.03" stroke="#000000" fill="none"/>
<path d="M11.484375000000002 10.54693627494607L11.4140625 10.587531215748463L11.4140625 10.668721097353256L11.5546875 10.749910978958045" stroke-width="0.03" stroke="#000000" fill="none"/>
<path d="M11.625000000000002 10.709316038155652L11.4140625 10.587531215748463" stroke-width="0.03" stroke="#000000" fill="none"/>
<path d="M11.484375000000002 10.54693627494607L11.6953125 10.668721097353256" stroke-width="0.03" stroke="#000000" fill="none"/>
<path d="M11.976562500000002 10.506341334143674L11.0625 9.97860710371253L10.5 10.303366630131695L9.9375 9.97860710371253L9.0234375 10.506341334143674" stroke-width="0.03" stroke="#000000" fill="none"/>
<path d="M8.8828125 10.42515145253888L8.8828125 10.019202044514927L9.9375 9.410277932478992L9.234375 9.004328524455037" stroke-width="0.03" stroke="#000000" fill="none"/>
<path d="M8.8828125 9.207303228467016L9.5859375 9.613252636490971" stroke-width="0.03" stroke="#000000" fill="none"/>
<path d="M10.0078125 10.019202044514927L10.5 9.735037458898159L10.9921875 10.019202044514927" stroke-width="0.03" stroke="#000000" fill="none"/>
<path d="M10.640625 10.222176748526905L10.5 10.140986866922113L10.5 9.735037458898159" stroke-width="0.03" stroke="#000000" fill="none"/>
<path d="M10.5 10.140986866922113L10.359375 10.222176748526905" stroke-width="0.03" stroke="#000000" fill="none"/>
<path d="M9.5859375 10.587531215748463L9.375 10.709316038155652" stroke-width="0.03" stroke="#000000" fill="none"/>
<path d="M9.4453125 10.749910978958045L9.5859375 10.668721097353256L9.5859375 10.587531215748463L9.515625 10.54693627494607L9.3046875 10.668721097353256" stroke-width="0.03" stroke="#000000" fill="none"/>
<path d="M9.375 10.303366630131695L8.8828125 10.019202044514927" stroke-width="0.03" stroke="#000000" fill="none"/>
<path d="M7.898437500000001 9.775632399700552L7.898437500000001 8.80135382044306" stroke-width="0.03" stroke="#000000" fill="none"/>
<path d="M7.0546875 8.233024649209522L3.679687499999999 10.181581807724509" stroke-width="0.03" stroke="#000000" fill="none"/>
<path d="M3.1171875 10.587531215748463L3.679687499999999 10.912290742167627" stroke-width="0.03" stroke="#000000" fill="none"/>
<path d="M3.046875 11.277645209389188L2.484375000000001 10.952885682970024" stroke-width="0.03" stroke="#000000" fill="none"/>
<path d="M7.0546875 13.753936598335319L7.1953125 13.672746716730527" stroke-width="0.03" stroke="#000000" fill="none"/>
<path d="M7.1953125 13.9163163615449L7.6171875 14.159886006359274" stroke-width="0.03" stroke="#000000" fill="none"/>
<path d="M7.0546875 15.052974704011977L7.0546875 16.352012809688635" stroke-width="0.03" stroke="#000000" fill="none"/>
<path d="M6.421875 16.14903810567666L6.3515625 16.189633046479052L6.28125 16.14903810567666L6.28125 15.905468460862282" stroke-width="0.03" stroke="#000000" fill="none"/>
<path d="M6.3515625 15.946063401664679L6.3515625 16.189633046479052" stroke-width="0.03" stroke="#000000" fill="none"/>
<path d="M6.421875 16.14903810567666L6.421875 15.986658342467075" stroke-width="0.03" stroke="#000000" fill="none"/>
<path d="M6 16.14903810567666L5.5078125 15.864873520059888" stroke-width="0.03" stroke="#000000" fill="none"/>
<path d="M4.8046875 16.6767723361078L5.5078125 17.082721744131756" stroke-width="0.03" stroke="#000000" fill="none"/>
<path d="M5.5078125 17.732240796970082L5.5078125 18.544139613017997" stroke-width="0.03" stroke="#000000" fill="none"/>
<path d="M5.4375 18.5035446722156L5.4375 17.77283573777248L4.8046875 17.407481270550917" stroke-width="0.03" stroke="#000000" fill="none"/>
<path d="M4.8046875 17.326291388946128L5.5078125 17.732240796970082" stroke-width="0.03" stroke="#000000" fill="none"/>
<path d="M7.0546875 15.052974704011977L6.703125 14.85" stroke-width="0.03" stroke="#000000" fill="none"/>
<path d="M8.8828125 14.809405059197603L8.8828125 15.783683638455097L9.7265625 16.270822928083845" stroke-width="0.03" stroke="#000000" fill="none"/>
<path d="M10.0078125 16.02725328326947L10.0078125 16.920341980922174L10.5 16.636177395305403L10.5 15.824278579257493" stroke-width="0.03" stroke="#000000" fill="none"/>
<path d="M10.78125 15.986658342467075L10.78125 16.14903810567666" stroke-width="0.03" stroke="#000000" fill="none"/>
<path d="M10.9921875 16.02725328326947L10.9921875 16.920341980922174L10.5 16.636177395305403" stroke-width="0.03" stroke="#000000" fill="none"/>
<path d="M10.4296875 16.6767723361078L10.5 16.717367276910196L10.570312500000002 16.6767723361078" stroke-width="0.03" stroke="#000000" fill="none"/>
<path d="M10.9921875 16.920341980922174L11.273437500000002 16.75796221771259L11.273437500000002 15.864873520059888" stroke-width="0.03" stroke="#000000" fill="none"/>
<path d="M11.273437500000002 16.270822928083845L12.1171875 15.783683638455097L12.1171875 14.809405059197603" stroke-width="0.03" stroke="#000000" fill="none"/>
<path d="M11.765625 15.580708934443118L13.382812500000002 16.514392572898217" stroke-width="0.03" stroke="#000000" fill="none"/>
<path d="M13.945312500000002 16.352012809688635L16.125 15.093569644814371L16.125 14.281670828766462" stroke-width="0.03" stroke="#000000" fill="none"/>
<path d="M16.828125 13.632151775928133L16.828125 11.277645209389188L17.0390625 11.155860386982003L16.96875 11.115265446179606L16.96875 11.034075564574817L14.9296875 9.856822281305345" stroke-width="0.03" stroke="#000000" fill="none"/>
<path d="M14.718749999999998 9.97860710371253L16.7578125 11.155860386982003L16.96875 11.034075564574817" stroke-width="0.03" stroke="#000000" fill="none"/>
<path d="M16.96875 11.115265446179606L16.7578125 11.237050268586794L16.7578125 11.155860386982003" stroke-width="0.03" stroke="#000000" fill="none"/>
<path d="M16.7578125 11.237050268586794L16.828125 11.277645209389188" stroke-width="0.03" stroke="#000000" fill="none"/>
<path d="M17.0390625 11.155860386982003L17.0390625 13.510366953520945" stroke-width="0.03" stroke="#000000" fill="none"/>
<path d="M15.984375 12.576683315065846L15.843750000000002 12.495493433461057" stroke-width="0.03" stroke="#000000" fill="none"/>
<path d="M15.703125000000002 12.414303551856264L15.2109375 12.130138966239496" stroke-width="0.03" stroke="#000000" fill="none"/>
<path d="M15.2109375 11.561809795005958L14.648437500000002 11.886569321425123L14.5078125 11.805379439820332" stroke-width="0.03" stroke="#000000" fill="none"/>
<path d="M14.648437500000002 11.886569321425123L14.648437500000002 12.45489849265866" stroke-width="0.03" stroke="#000000" fill="none"/>
<path d="M15.140625 12.739063078275429L15.140625 12.90144284148501" stroke-width="0.03" stroke="#000000" fill="none"/>
<path d="M14.718749999999998 13.145012486299386L14.0859375 12.779658019077825L14.0859375 12.048949084634705" stroke-width="0.03" stroke="#000000" fill="none"/>
<path d="M12.046875 11.764784499017935L10.921875000000002 11.115265446179606" stroke-width="0.03" stroke="#000000" fill="none"/>
<path d="M12.1171875 10.42515145253888L12.1171875 10.019202044514927L11.0625 9.410277932478992L11.765625 9.004328524455037" stroke-width="0.03" stroke="#000000" fill="none"/>
<path d="M12.1171875 9.207303228467016L11.4140625 9.613252636490971" stroke-width="0.03" stroke="#000000" fill="none"/>
<path d="M11.203125 8.679568998035872L10.5 9.085518406059828L9.796875 8.679568998035872" stroke-width="0.03" stroke="#000000" fill="none"/>
<path d="M9.867187500000002 8.638974057233478L10.5 9.004328524455037L11.1328125 8.638974057233478" stroke-width="0.03" stroke="#000000" fill="none"/>
<path d="M8.953125 11.764784499017935L8.6015625 11.561809795005958" stroke-width="0.03" stroke="#000000" fill="none"/>
<path d="M9.65625 13.46977201271855L10.5 12.982632723089804L11.34375 13.46977201271855" stroke-width="0.03" stroke="#000000" fill="none"/>
<path d="M12.046875 13.875721420742504L12.1171875 13.9163163615449" stroke-width="0.03" stroke="#000000" fill="none"/>
<path d="M10.5 13.55096189432334L10.5 14.85L9.375 15.499519052838329" stroke-width="0.03" stroke="#000000" fill="none"/>
<path d="M9.7265625 15.864873520059888L9.7265625 16.75796221771259L10.0078125 16.920341980922174" stroke-width="0.03" stroke="#000000" fill="none"/>
<path d="M9.65625 17.123316684934153L8.6015625 17.732240796970082" stroke-width="0.03" stroke="#000000" fill="none"/>
<path d="M8.953125 17.93521550098206L9.7265625 18.38175984980841L9.7265625 20.736266416347355" stroke-width="0.03" stroke="#000000" fill="none"/>
<path d="M8.390625 20.939241120359334L10.4296875 22.116494403628806L10.4296875 22.360064048443178L8.390625 21.18281076517371" stroke-width="0.03" stroke="#000000" fill="none"/>
<path d="M6.492187500000001 21.142215824371313L9.867187500000002 23.090772982886296L10.5 22.72541851566474L11.1328125 23.090772982886296L14.5078125 21.142215824371313" stroke-width="0.03" stroke="#000000" fill="none"/>
<path d="M14.437500000000002 20.12734230431142L13.593750000000002 19.640203014682676" stroke-width="0.03" stroke="#000000" fill="none"/>
<path d="M13.875 18.665924435425183L14.9296875 18.057000323389246L14.9296875 18.86889913943716" stroke-width="0.03" stroke="#000000" fill="none"/>
<path d="M14.578125 19.071873843449136L14.578125 18.259975027401225" stroke-width="0.03" stroke="#000000" fill="none"/>
<path d="M14.437500000000002 17.77283573777248L13.5234375 18.30056996820362" stroke-width="0.03" stroke="#000000" fill="none"/>
<path d="M13.5234375 18.462949731413204L13.875 18.665924435425183L13.875 18.097595264191643" stroke-width="0.03" stroke="#000000" fill="none"/>
<path d="M13.734375 17.85402561937727L13.5234375 17.975810441784457" stroke-width="0.03" stroke="#000000" fill="none"/>
<path d="M13.5234375 17.894620560179668L13.734375 17.77283573777248L13.6640625 17.732240796970082L13.5234375 17.813430678574875" stroke-width="0.03" stroke="#000000" fill="none"/>
<path d="M13.734375 17.77283573777248L13.734375 17.85402561937727" stroke-width="0.03" stroke="#000000" fill="none"/>
<path d="M14.437500000000002 17.77283573777248L14.437500000000002 17.123316684934153L15.000000000000002 16.79855715851499L15.000000000000002 15.7430886976527" stroke-width="0.03" stroke="#000000" fill="none"/>
<path d="M15.140625 15.661898816047911L15.4921875 15.864873520059888L15.4921875 17.082721744131756L16.1953125 16.6767723361078" stroke-width="0.03" stroke="#000000" fill="none"/>
<path d="M16.1953125 16.270822928083845L15.4921875 16.6767723361078" stroke-width="0.03" stroke="#000000" fill="none"/>
<path d="M14.9296875 16.83915209931738L14.9296875 17.407481270550917L14.437500000000002 17.69164585616769" stroke-width="0.03" stroke="#000000" fill="none"/>
<path d="M14.437500000000002 17.28569644814373L14.578125 17.204506566538942L14.9296875 17.407481270550917" stroke-width="0.03" stroke="#000000" fill="none"/>
<path d="M14.578125 17.204506566538942L14.578125 17.04212680332936" stroke-width="0.03" stroke="#000000" fill="none"/>
<path d="M14.648437500000002 16.189633046479052L14.718749999999998 16.14903810567666L14.718749999999998 15.905468460862282" stroke-width="0.03" stroke="#000000" fill="none"/>
<path d="M14.648437500000002 15.946063401664679L14.648437500000002 16.189633046479052L14.578125 16.14903810567666L14.578125 15.986658342467075" stroke-width="0.03" stroke="#000000" fill="none"/>
<path d="M15.000000000000002 16.14903810567666L15.4921875 15.864873520059888" stroke-width="0.03" stroke="#000000" fill="none"/>
<path d="M16.1953125 17.326291388946128L15.4921875 17.732240796970082L15.4921875 18.544139613017997" stroke-width="0.03" stroke="#000000" fill="none"/>
<path d="M15.5625 18.5035446722156L15.5625 17.77283573777248L16.1953125 17.407481270550917" stroke-width="0.03" stroke="#000000" fill="none"/>
<path d="M13.5234375 17.082721744131756L12.3984375 17.732240796970082L11.34375 17.123316684934153L11.34375 17.529266092958107L12.3984375 18.13819020499404L12.539062500000002 18.057000323389246L12.539062500000002 17.651050915365293L11.484375000000002 17.04212680332936L11.34375 17.123316684934153" stroke-width="0.03" stroke="#000000" fill="none"/>
<path d="M11.484375000000002 17.610455974562896L11.34375 17.69164585616769L11.34375 18.178785145796436" stroke-width="0.03" stroke="#000000" fill="none"/>
<path d="M11.34375 17.69164585616769L10.5 17.204506566538942" stroke-width="0.03" stroke="#000000" fill="none"/>
<path d="M9.65625 17.69164585616769L9.515625 17.610455974562896" stroke-width="0.03" stroke="#000000" fill="none"/>
<path d="M9.09375 17.85402561937727L9.867187500000002 18.30056996820362" stroke-width="0.03" stroke="#000000" fill="none"/>
<path d="M12.3984375 18.13819020499404L12.3984375 17.732240796970082" stroke-width="0.03" stroke="#000000" fill="none"/>
<path d="M11.625000000000002 15.499519052838329L10.5 14.85" stroke-width="0.03" stroke="#000000" fill="none"/>
<path d="M10.640625 14.931189881604789L10.5 15.012379763209582L10.359375 14.931189881604789L10.359375 14.768810118395209L10.5 14.687620236790417L10.640625 14.768810118395209L10.640625 14.931189881604789" stroke-width="0.03" stroke="#000000" fill="none"/>
<path d="M9.65625 14.038101183952087L9.515625 13.956911302347297" stroke-width="0.03" stroke="#000000" fill="none"/>
<path d="M10.218750000000002 13.388582131113758L10.359375 13.46977201271855" stroke-width="0.03" stroke="#000000" fill="none"/>
<path d="M17.320312500000004 10.912290742167627L17.882812500000004 10.587531215748463" stroke-width="0.03" stroke="#000000" fill="none"/>
<path d="M12.609375 20.939241120359334L12.609375 21.18281076517371" stroke-width="0.03" stroke="#000000" fill="none"/>
<path d="M10.570312500000002 22.116494403628806L10.570312500000002 22.360064048443178" stroke-width="0.03" stroke="#000000" fill="none"/>
<path d="M10.5 22.31946910764078L10.4296875 22.360064048443178" stroke-width="0.03" stroke="#000000" fill="none"/>
<path d="M10.4296875 22.116494403628806L10.5 22.07589946282641" stroke-width="0.03" stroke="#000000" fill="none"/>
<path d="M10.5 22.72541851566474L10.5 23.374937568503068" stroke-width="0.03" stroke="#000000" fill="none"/>
<path d="M9.867187500000002 23.090772982886296L9.867187500000002 23.740292035724625" stroke-width="0.03" stroke="#000000" fill="none"/>
<path d="M11.1328125 23.740292035724625L11.1328125 23.090772982886296" stroke-width="0.03" stroke="#000000" fill="none"/>
<path d="M7.264131938244363 2.2599663291074443L1.5 2.2599663291074443" stroke-width="0.03" stroke="#000000" fill="none"/>
<path d="M2.0824957911384305 2.015598694615191L2.0824957911384305 1.7268634256306838" stroke-width="0.03" stroke="#000000" fill="none"/>
<path d="M2.061871843353823 1.5824957911384305L2.0824957911384305 1.6031197389230383L2.1031197389230383 1.5824957911384305L2.0824957911384305 1.5618718433538228L2.061871843353823 1.5824957911384305" stroke-width="0.03" stroke="#000000" fill="none"/>
<path d="M2.226863425630684 1.953726851261368L2.2474873734152916 1.9949747468305832L2.3093592167691144 2.015598694615191L2.3712310601229376 2.015598694615191L2.4331029034767604 1.9949747468305832L2.4537268512613677 1.953726851261368L2.4537268512613677 1.9331029034767604L2.4331029034767604 1.891855007907545L2.391855007907545 1.8712310601229374L2.2887352689845066 1.8506071123383299L2.2474873734152916 1.8299831645537221L2.226863425630684 1.7887352689845069L2.2474873734152916 1.7474873734152916L2.3093592167691144 1.7268634256306838L2.3712310601229376 1.7268634256306838L2.4331029034767604 1.7474873734152916L2.4537268512613677 1.7887352689845069" stroke-width="0.03" stroke="#000000" fill="none"/>
<path d="M2.680590276892052 1.7268634256306838L2.6393423813228365 1.7474873734152916L2.5980944857536215 1.7887352689845069L2.5774705379690137 1.8506071123383299L2.5774705379690137 1.891855007907545L2.5980944857536215 1.953726851261368L2.6393423813228365 1.9949747468305832L2.680590276892052 2.015598694615191L2.7424621202458748 2.015598694615191L2.78371001581509 1.9949747468305832L2.8249579113843053 1.953726851261368L2.845581859168913 1.891855007907545L2.845581859168913 1.8506071123383299L2.8249579113843053 1.7887352689845069L2.78371001581509 1.7474873734152916L2.7424621202458748 1.7268634256306838L2.680590276892052 1.7268634256306838" stroke-width="0.03" stroke="#000000" fill="none"/>
<path d="M2.907453702522736 2.056846590184406L3.237436867076458 2.056846590184406" stroke-width="0.03" stroke="#000000" fill="none"/>
<path d="M3.2993087104302807 1.953726851261368L3.3199326582148885 1.9949747468305832L3.3818045015687113 2.015598694615191L3.443676344922534 2.015598694615191L3.5055481882763573 1.9949747468305832L3.526172136060965 1.953726851261368L3.526172136060965 1.9331029034767604L3.5055481882763573 1.891855007907545L3.464300292707142 1.8712310601229374L3.361180553784104 1.8506071123383299L3.3199326582148885 1.8299831645537221L3.2993087104302807 1.7887352689845069L3.3199326582148885 1.7474873734152916L3.3818045015687113 1.7268634256306838L3.443676344922534 1.7268634256306838L3.5055481882763573 1.7474873734152916L3.526172136060965 1.7887352689845069" stroke-width="0.03" stroke="#000000" fill="none"/>
<path d="M3.6705397705532183 1.8093592167691144L3.732411613907041 1.7474873734152916L3.773659509476256 1.7268634256306838L3.8355313528300794 1.7268634256306838L3.8767792483992944 1.7474873734152916L3.897403196183902 1.8093592167691144L3.897403196183902 2.015598694615191" stroke-width="0.03" stroke="#000000" fill="none"/>
<path d="M3.6705397705532183 2.015598694615191L3.6705397705532183 1.7268634256306838" stroke-width="0.03" stroke="#000000" fill="none"/>
<path d="M4.144890569599194 1.7268634256306838L4.103642674029978 1.7474873734152916L4.062394778460764 1.7887352689845069L4.041770830676155 1.8506071123383299L4.041770830676155 1.891855007907545L4.062394778460764 1.953726851261368L4.103642674029978 1.9949747468305832L4.144890569599194 2.015598694615191L4.206762412953017 2.015598694615191L4.2480103085222325 1.9949747468305832L4.289258204091447 1.953726851261368L4.309882151876055 1.891855007907545L4.309882151876055 1.8506071123383299L4.289258204091447 1.7887352689845069L4.2480103085222325 1.7474873734152916L4.206762412953017 1.7268634256306838L4.144890569599194 1.7268634256306838" stroke-width="0.03" stroke="#000000" fill="none"/>
<path d="M4.4336258385837 1.7268634256306838L4.516121629722131 2.015598694615191L4.5986174208605615 1.7268634256306838L4.681113211998992 2.015598694615191L4.7636090031374225 1.7268634256306838" stroke-width="0.03" stroke="#000000" fill="none"/>
<path d="M4.866728742060461 1.7268634256306838L5.011096376552715 1.7268634256306838" stroke-width="0.03" stroke="#000000" fill="none"/>
<path d="M5.031720324337321 1.5824957911384305L4.990472428768107 1.5824957911384305L4.949224533198891 1.6031197389230383L4.928600585414284 1.664991582276861L4.928600585414284 2.015598694615191" stroke-width="0.03" stroke="#000000" fill="none"/>
<path d="M5.155464011044968 2.015598694615191L5.155464011044968 1.5824957911384305" stroke-width="0.03" stroke="#000000" fill="none"/>
<path d="M5.547319018952512 1.7268634256306838L5.547319018952512 2.015598694615191" stroke-width="0.03" stroke="#000000" fill="none"/>
<path d="M5.547319018952512 1.953726851261368L5.506071123383298 1.9949747468305832L5.464823227814082 2.015598694615191L5.402951384460259 2.015598694615191L5.3617034888910435 1.9949747468305832L5.320455593321829 1.953726851261368L5.299831645537221 1.891855007907545L5.299831645537221 1.8506071123383299L5.320455593321829 1.7887352689845069L5.3617034888910435 1.7474873734152916L5.402951384460259 1.7268634256306838L5.464823227814082 1.7268634256306838L5.506071123383298 1.7474873734152916L5.547319018952512 1.7887352689845069" stroke-width="0.03" stroke="#000000" fill="none"/>
<path d="M5.712310601229374 1.9331029034767604L5.91855007907545 1.7268634256306838" stroke-width="0.03" stroke="#000000" fill="none"/>
<path d="M5.794806392367804 1.8506071123383299L5.939174026860058 2.015598694615191" stroke-width="0.03" stroke="#000000" fill="none"/>
<path d="M6.042293765783096 1.8506071123383299L6.2897811391983875 1.8506071123383299L6.2897811391983875 1.8093592167691144L6.26915719141378 1.7681113211998993L6.248533243629172 1.7474873734152916L6.207285348059957 1.7268634256306838L6.145413504706134 1.7268634256306838L6.104165609136919 1.7474873734152916L6.062917713567703 1.7887352689845069L6.042293765783096 1.8506071123383299L6.042293765783096 1.891855007907545L6.062917713567703 1.953726851261368L6.104165609136919 1.9949747468305832L6.145413504706134 2.015598694615191L6.207285348059957 2.015598694615191L6.248533243629172 1.9949747468305832L6.2897811391983875 1.953726851261368" stroke-width="0.03" stroke="#000000" fill="none"/>
<path d="M6.434148773690641 1.6856155300614688L6.434148773690641 1.664991582276861L6.454772721475249 1.6237436867076458L6.475396669259856 1.6031197389230383L6.516644564829072 1.5824957911384305L6.599140355967502 1.5824957911384305L6.640388251536717 1.6031197389230383L6.661012199321325 1.6237436867076458L6.681636147105933 1.664991582276861L6.681636147105933 1.7062394778460763L6.661012199321325 1.7474873734152916L6.61976430375211 1.8093592167691144L6.413524825906033 2.015598694615191L6.702260094890541 2.015598694615191" stroke-width="0.03" stroke="#000000" fill="none"/>
<path d="M5.712310601229374 2.015598694615191L5.712310601229374 1.5824957911384305" stroke-width="0.03" stroke="#000000" fill="none"/>
<path d="M4.396304534061034 2.7109515319598065L4.358065631921763 2.7236978326728973L4.345319331208673 2.7491904340990785L4.345319331208673 2.7746830355252596L4.358065631921763 2.8001756369514412L4.383558233347944 2.8129219376645316L4.434543436200307 2.825668238377622L4.472782338339579 2.8384145390907127L4.49827493976576 2.8639071405168943L4.511021240478851 2.889399741943075L4.511021240478851 2.927638644082347L4.49827493976576 2.953131245508528L4.485528639052669 2.965877546221619L4.4472897369133975 2.9786238469347097L4.396304534061034 2.9786238469347097L4.358065631921763 2.965877546221619L4.345319331208673 2.953131245508528L4.332573030495582 2.927638644082347L4.332573030495582 2.889399741943075L4.345319331208673 2.8639071405168943L4.370811932634854 2.8384145390907127L4.409050834774126 2.825668238377622L4.460036037626487 2.8129219376645316L4.485528639052669 2.8001756369514412L4.49827493976576 2.7746830355252596L4.49827493976576 2.7491904340990785L4.485528639052669 2.7236978326728973L4.4472897369133975 2.7109515319598065L4.396304534061034 2.7109515319598065" stroke-width="0.03" stroke="#000000" fill="none"/>
<path d="M4.192363722651585 2.8384145390907127L4.230602624790857 2.825668238377622L4.243348925503947 2.8129219376645316L4.256095226217038 2.7874293362383504L4.256095226217038 2.761936734812169L4.243348925503947 2.736444133385988L4.230602624790857 2.7236978326728973L4.192363722651585 2.7109515319598065L4.07764701623377 2.7109515319598065L4.07764701623377 2.9786238469347097L4.192363722651585 2.9786238469347097L4.230602624790857 2.965877546221619L4.243348925503947 2.953131245508528L4.256095226217038 2.927638644082347L4.256095226217038 2.889399741943075L4.243348925503947 2.8639071405168943L4.230602624790857 2.8511608398038035L4.192363722651585 2.8384145390907127L4.07764701623377 2.8384145390907127" stroke-width="0.03" stroke="#000000" fill="none"/>
<path d="M3.9884229112421354 2.9786238469347097L3.8099747012588665 2.9786238469347097L3.9374377083897727 2.8511608398038035L3.9629303098159543 2.8129219376645316L3.9756766105290446 2.7874293362383504L3.9756766105290446 2.761936734812169L3.9629303098159543 2.736444133385988L3.9501840091028635 2.7236978326728973L3.9246914076766823 2.7109515319598065L3.8737062048243196 2.7109515319598065L3.848213603398139 2.7236978326728973L3.835467302685048 2.736444133385988L3.8227210019719573 2.761936734812169L3.8227210019719573 2.7746830355252596" stroke-width="0.03" stroke="#000000" fill="none"/>
<path d="M3.733496896980323 2.7746830355252596L3.7207505962672327 2.7491904340990785L3.695257994841051 2.7236978326728973L3.66976539341487 2.7109515319598065L3.6187801905625077 2.7109515319598065L3.5932875891363265 2.7236978326728973L3.567794987710145 2.7491904340990785L3.5550486869970546 2.7746830355252596L3.542302386283964 2.8129219376645316L3.542302386283964 2.8766534412299847L3.5550486869970546 2.9148923433692566L3.567794987710145 2.9403849447954378L3.5932875891363265 2.965877546221619L3.6187801905625077 2.9786238469347097L3.66976539341487 2.9786238469347097L3.695257994841051 2.965877546221619L3.7207505962672327 2.9403849447954378L3.733496896980323 2.9148923433692566" stroke-width="0.03" stroke="#000000" fill="none"/>
<path d="M3.4658245820054203 2.9148923433692566L3.4530782812923295 2.9403849447954378L3.4275856798661484 2.965877546221619L3.402093078439967 2.9786238469347097L3.351107875587605 2.9786238469347097L3.3256152741614233 2.965877546221619L3.3001226727352426 2.9403849447954378L3.287376372022152 2.9148923433692566L3.274630071309061 2.8766534412299847L3.274630071309061 2.8129219376645316L3.287376372022152 2.7746830355252596L3.3001226727352426 2.7491904340990785L3.3256152741614233 2.7236978326728973L3.351107875587605 2.7109515319598065L3.402093078439967 2.7109515319598065L3.4275856798661484 2.7236978326728973L3.4530782812923295 2.7491904340990785L3.4658245820054203 2.7746830355252596" stroke-width="0.03" stroke="#000000" fill="none"/>
<path d="M3.1726596656043364 2.7109515319598065L3.0451966584734302 2.7109515319598065L3.0324503577603394 2.825668238377622L3.0451966584734302 2.8129219376645316L3.0834355606127017 2.8001756369514412L3.1216744627519737 2.8001756369514412L3.1599133648912456 2.8129219376645316L3.185405966317427 2.8384145390907127L3.198152267030517 2.8766534412299847L3.198152267030517 2.902146042656166L3.185405966317427 2.9403849447954378L3.1599133648912456 2.965877546221619L3.1216744627519737 2.9786238469347097L3.0834355606127017 2.9786238469347097L3.0451966584734302 2.965877546221619L3.0324503577603394 2.953131245508528L3.0197040570472486 2.927638644082347" stroke-width="0.03" stroke="#000000" fill="none"/>
<path d="M2.7647780427854367 2.927638644082347L2.777524343498527 2.953131245508528L2.790270644211618 2.965877546221619L2.82850954635089 2.9786238469347097L2.8667484484901617 2.9786238469347097L2.9049873506294333 2.965877546221619L2.930479952055615 2.9403849447954378L2.943226252768705 2.902146042656166L2.943226252768705 2.8766534412299847L2.930479952055615 2.8384145390907127L2.917733651342524 2.825668238377622L2.892241049916343 2.8129219376645316L2.854002147777071 2.8129219376645316L2.930479952055615 2.7109515319598065L2.790270644211618 2.7109515319598065" stroke-width="0.03" stroke="#000000" fill="none"/>
<path d="M2.5480909306628963 2.761936734812169L2.5735835320890774 2.7491904340990785L2.6118224342283494 2.7109515319598065L2.6118224342283494 2.9786238469347097" stroke-width="0.03" stroke="#000000" fill="none"/>
<path d="M2.433374224245081 2.9786238469347097L2.293164916401084 2.8001756369514412" stroke-width="0.03" stroke="#000000" fill="none"/>
<path d="M2.433374224245081 2.8001756369514412L2.293164916401084 2.9786238469347097" stroke-width="0.03" stroke="#000000" fill="none"/>
<path d="M2.1147167064178154 2.7109515319598065L2.076477804278544 2.7236978326728973L2.0509852028523623 2.761936734812169L2.038238902139272 2.825668238377622L2.038238902139272 2.8639071405168943L2.0509852028523623 2.927638644082347L2.076477804278544 2.965877546221619L2.1147167064178154 2.9786238469347097L2.140209307843997 2.9786238469347097L2.1784482099832685 2.965877546221619L2.2039408114094496 2.927638644082347L2.2166871121225404 2.8639071405168943L2.2166871121225404 2.825668238377622L2.2039408114094496 2.761936734812169L2.1784482099832685 2.7236978326728973L2.140209307843997 2.7109515319598065L2.1147167064178154 2.7109515319598065" stroke-width="0.03" stroke="#000000" fill="none"/>
</svg>
