<?xml version="1.0" standalone="no"?>
<svg width="21cm" height="29.7cm" version="1.1" xmlns="http://www.w3.org/2000/svg" viewBox="0.0 0.0 21.000001 29.700001">
<path d="M4.453125 8.841948761245455L6.6328125 7.583505596371193L6.914062500000001 7.745885359580775L6.914062500000001 7.9082651227903575" stroke-width="0.03" stroke="#000000" fill="none"/>
<path d="M6.914062500000001 7.745885359580775L4.734375 9.004328524455037L4.453125 8.841948761245455L4.453125 9.97860710371253" stroke-width="0.03" stroke="#000000" fill="none"/>
<path d="M4.453125 9.897417222107741L4.382812499999999 9.938012162910134" stroke-width="0.03" stroke="#000000" fill="none"/>
<path d="M4.734375 10.140986866922113L5.015625 9.97860710371253L5.296875 10.140986866922113" stroke-width="0.03" stroke="#000000" fill="none"/>
<path d="M5.296875 10.059796985317323L5.2265625 10.100391926119716" stroke-width="0.03" stroke="#000000" fill="none"/>
<path d="M5.4375 10.059796985317323L6 9.735037458898159L6.914062500000001 10.262771689329298L6.914062500000001 10.42515145253888L6.3515625 10.749910978958045L6.210937500000001 10.668721097353256L5.9296875 10.831100860562838" stroke-width="0.03" stroke="#000000" fill="none"/>
<path d="M6.210937500000001 10.99348062377242L5.6484375 11.318240150191585L3.3984375 10.019202044514927L3.9609375 9.694442518095762L6.210937500000001 10.99348062377242L6.210937500000001 11.399430031796376L5.6484375 11.72418955821554L5.6484375 11.318240150191585" stroke-width="0.03" stroke="#000000" fill="none"/>
<path d="M5.6484375 11.72418955821554L6.84375 12.414303551856264L9.1640625 11.074670505377211L8.953125 10.952885682970024L8.8828125 10.99348062377242L8.8828125 10.262771689329298L9.796875 9.735037458898159L9.65625 9.653847577293366L10.359375 9.24789816926941L10.5 9.329088050874201L10.640625 9.24789816926941L11.34375 9.653847577293366L11.34375 9.816227340502948" stroke-width="0.03" stroke="#000000" fill="none"/>
<path d="M11.203125 9.735037458898159L11.34375 9.653847577293366" stroke-width="0.03" stroke="#000000" fill="none"/>
<path d="M11.203125 9.735037458898159L12.1171875 10.262771689329298L12.1171875 10.99348062377242L12.046875 10.952885682970024L11.835937500000002 11.074670505377211L11.835937500000002 11.155860386982003L11.90625 11.196455327784399" stroke-width="0.03" stroke="#000000" fill="none"/>
<path d="M11.90625 11.277645209389188L11.90625 11.115265446179606L12.328125000000002 10.871695801365235L12.3984375 10.912290742167627L12.46875 10.871695801365235L12.46875 10.790505919760442L12.1171875 10.587531215748463" stroke-width="0.03" stroke="#000000" fill="none"/>
<path d="M12.1171875 10.668721097353256L12.3984375 10.831100860562838L13.734375 10.059796985317323L14.648437500000002 10.587531215748463L15.5625 10.059796985317323L15.5625 10.54693627494607" stroke-width="0.03" stroke="#000000" fill="none"/>
<path d="M15.703125000000002 10.465746393341277L15.703125000000002 9.491467814083784L13.453125 8.192429708407126L13.1015625 8.395404412419104L13.1015625 8.882543702047851L13.8046875 9.288493110071807L13.8046875 9.613252636490971L14.5078125 10.019202044514927" stroke-width="0.03" stroke="#000000" fill="none"/>
<path d="M14.0859375 10.262771689329298L15.000000000000002 9.735037458898159L15.5625 10.059796985317323" stroke-width="0.03" stroke="#000000" fill="none"/>
<path d="M15.703125000000002 10.059796985317323L15.773437500000002 10.100391926119716" stroke-width="0.03" stroke="#000000" fill="none"/>
<path d="M15.703125000000002 10.140986866922113L15.984375 9.97860710371253L16.265625 10.140986866922113L16.265625 9.004328524455037L16.546875 8.841948761245455L14.367187500000002 7.583505596371193L14.0859375 7.745885359580775L14.0859375 7.9082651227903575" stroke-width="0.03" stroke="#000000" fill="none"/>
<path d="M14.0859375 7.745885359580775L16.265625 9.004328524455037" stroke-width="0.03" stroke="#000000" fill="none"/>
<path d="M16.546875 8.841948761245455L16.546875 9.97860710371253" stroke-width="0.03" stroke="#000000" fill="none"/>
<path d="M16.546875 9.897417222107741L16.617187500000004 9.938012162910134" stroke-width="0.03" stroke="#000000" fill="none"/>
<path d="M17.0390625 9.694442518095762L14.7890625 10.99348062377242L14.7890625 11.399430031796376L15.351562500000002 11.72418955821554L15.351562500000002 11.318240150191585L17.6015625 10.019202044514927L17.0390625 9.694442518095762" stroke-width="0.03" stroke="#000000" fill="none"/>
<path d="M17.6015625 10.019202044514927L17.6015625 10.749910978958045L18.234375 11.115265446179606L18.234375 11.764784499017935L15.984375 13.063822604694593L15.6328125 12.860847900682616L15.6328125 12.211328847844287L15.984375 12.414303551856264L18.234375 11.115265446179606" stroke-width="0.03" stroke="#000000" fill="none"/>
<path d="M17.6015625 10.749910978958045L12.609375 13.632151775928133L12.609375 14.606430355185626L12.9609375 14.403455651173648L13.031250000000002 14.444050591976044L13.031250000000002 14.768810118395209" stroke-width="0.03" stroke="#000000" fill="none"/>
<path d="M12.890625000000002 14.687620236790417L12.328125000000002 15.012379763209582L12.187500000000002 14.931189881604789" stroke-width="0.03" stroke="#000000" fill="none"/>
<path d="M12.187500000000002 14.85L12.1171875 14.890594940802394L11.273437500000002 14.403455651173648L11.273437500000002 13.429177071916154L11.34375 13.388582131113758L10.570312500000002 12.942037782287407L11.835937500000002 12.211328847844287L11.835937500000002 12.860847900682616L11.273437500000002 13.18560742710178L11.273437500000002 13.347987190311363" stroke-width="0.03" stroke="#000000" fill="none"/>
<path d="M11.34375 13.388582131113758L11.34375 14.362860710371251L12.187500000000002 14.85L12.187500000000002 15.7430886976527L13.453125 15.012379763209582L12.890625000000002 14.687620236790417" stroke-width="0.03" stroke="#000000" fill="none"/>
<path d="M13.031250000000002 14.444050591976044L12.328125000000002 14.85L12.328125000000002 15.012379763209582" stroke-width="0.03" stroke="#000000" fill="none"/>
<path d="M12.328125000000002 14.85L11.835937500000002 14.56583541438323L11.835937500000002 14.647025295988021" stroke-width="0.03" stroke="#000000" fill="none"/>
<path d="M11.765625 14.606430355185626L12.187500000000002 14.362860710371251L12.609375 14.606430355185626" stroke-width="0.03" stroke="#000000" fill="none"/>
<path d="M12.1171875 14.403455651173648L11.6953125 14.159886006359274L11.6953125 13.672746716730527" stroke-width="0.03" stroke="#000000" fill="none"/>
<path d="M11.765625 13.632151775928133L11.34375 13.875721420742504" stroke-width="0.03" stroke="#000000" fill="none"/>
<path d="M11.34375 13.794531539137715L11.4140625 13.83512647994011L11.4140625 13.266797308706572L11.273437500000002 13.18560742710178" stroke-width="0.03" stroke="#000000" fill="none"/>
<path d="M11.4140625 13.266797308706572L12.1171875 12.860847900682616L11.835937500000002 12.698468137473034" stroke-width="0.03" stroke="#000000" fill="none"/>
<path d="M11.835937500000002 12.45489849265866L11.90625 12.414303551856264L11.90625 12.251923788646682L11.765625 12.170733907041893L10.5 12.90144284148501L9.234375 12.170733907041893L9.09375 12.251923788646682L9.09375 12.414303551856264L9.1640625 12.45489849265866" stroke-width="0.03" stroke="#000000" fill="none"/>
<path d="M9.1640625 12.292518729449078L9.09375 12.251923788646682" stroke-width="0.03" stroke="#000000" fill="none"/>
<path d="M9.1640625 12.211328847844287L9.1640625 12.860847900682616L9.7265625 13.18560742710178L9.7265625 13.347987190311363" stroke-width="0.03" stroke="#000000" fill="none"/>
<path d="M9.65625 13.388582131113758L10.4296875 12.942037782287407L9.1640625 12.211328847844287" stroke-width="0.03" stroke="#000000" fill="none"/>
<path d="M9.515625 12.333113670251475L9.9375 12.0895440254371L10.921875000000002 12.65787319667064" stroke-width="0.03" stroke="#000000" fill="none"/>
<path d="M10.570312500000002 12.860847900682616L10.5 12.820252959880222L10.4296875 12.860847900682616" stroke-width="0.03" stroke="#000000" fill="none"/>
<path d="M10.5 12.820252959880222L10.5 12.414303551856264" stroke-width="0.03" stroke="#000000" fill="none"/>
<path d="M10.078125 12.65787319667064L11.0625 12.0895440254371L11.484375000000002 12.333113670251475" stroke-width="0.03" stroke="#000000" fill="none"/>
<path d="M11.835937500000002 12.292518729449078L11.90625 12.251923788646682" stroke-width="0.03" stroke="#000000" fill="none"/>
<path d="M12.1171875 12.860847900682616L12.1171875 12.942037782287407L11.765625 13.145012486299386L11.765625 13.632151775928133" stroke-width="0.03" stroke="#000000" fill="none"/>
<path d="M11.765625 13.145012486299386L12.609375 13.632151775928133" stroke-width="0.03" stroke="#000000" fill="none"/>
<path d="M11.6953125 14.159886006359274L11.273437500000002 14.403455651173648" stroke-width="0.03" stroke="#000000" fill="none"/>
<path d="M11.484375000000002 14.444050591976044L11.625000000000002 14.362860710371251L11.34375 14.200480947161669L11.484375000000002 14.11929106555688L11.484375000000002 14.444050591976044" stroke-width="0.03" stroke="#000000" fill="none"/>
<path d="M10.921875000000002 14.606430355185626L8.8828125 15.783683638455097L8.8828125 14.890594940802394L9.7265625 14.403455651173648L9.7265625 13.429177071916154L9.65625 13.388582131113758L9.65625 14.362860710371251L8.8125 14.85L8.8125 15.7430886976527L7.546875 15.012379763209582L8.109375 14.687620236790417L8.671875 15.012379763209582L8.8125 14.931189881604789" stroke-width="0.03" stroke="#000000" fill="none"/>
<path d="M8.8125 14.85L8.8828125 14.890594940802394" stroke-width="0.03" stroke="#000000" fill="none"/>
<path d="M8.671875 14.85L9.1640625 14.56583541438323L9.1640625 14.647025295988021" stroke-width="0.03" stroke="#000000" fill="none"/>
<path d="M9.234375 14.606430355185626L8.8125 14.362860710371251L8.390625 14.606430355185626L8.0390625 14.403455651173648L7.96875 14.444050591976044L7.96875 14.768810118395209" stroke-width="0.03" stroke="#000000" fill="none"/>
<path d="M7.757812499999999 14.890594940802394L7.6875 14.85L7.546875 14.931189881604789L7.546875 15.093569644814371L8.8125 15.824278579257493L8.8125 17.28569644814373L8.953125 17.366886329748525L9.09375 17.28569644814373L9.09375 17.204506566538942" stroke-width="0.03" stroke="#000000" fill="none"/>
<path d="M8.953125 17.28569644814373L8.953125 17.366886329748525" stroke-width="0.03" stroke="#000000" fill="none"/>
<path d="M8.8828125 17.326291388946128L9.4453125 17.001531862526964L9.4453125 16.352012809688635L9.5859375 16.270822928083845" stroke-width="0.03" stroke="#000000" fill="none"/>
<path d="M9.65625 16.311417868886238L10.5 15.824278579257493L11.34375 16.311417868886238L12.1171875 15.864873520059888L12.1171875 17.326291388946128L11.5546875 17.001531862526964L11.5546875 16.352012809688635L11.4140625 16.270822928083845" stroke-width="0.03" stroke="#000000" fill="none"/>
<path d="M11.34375 16.311417868886238L11.34375 16.230227987281445L10.5 15.7430886976527L9.65625 16.230227987281445L8.8828125 15.783683638455097" stroke-width="0.03" stroke="#000000" fill="none"/>
<path d="M8.8828125 15.864873520059888L8.8828125 17.326291388946128" stroke-width="0.03" stroke="#000000" fill="none"/>
<path d="M8.8125 16.960936921724567L8.390625 16.717367276910196L8.390625 15.580708934443118" stroke-width="0.03" stroke="#000000" fill="none"/>
<path d="M8.7421875 15.783683638455097L8.7421875 15.864873520059888L8.390625 16.067848224071867" stroke-width="0.03" stroke="#000000" fill="none"/>
<path d="M8.7421875 15.864873520059888L8.8125 15.905468460862282" stroke-width="0.03" stroke="#000000" fill="none"/>
<path d="M8.8828125 15.864873520059888L9.65625 16.311417868886238L9.65625 16.230227987281445" stroke-width="0.03" stroke="#000000" fill="none"/>
<path d="M9.5859375 16.433202691293424L10.078125 16.14903810567666L10.0078125 16.10844316487426" stroke-width="0.03" stroke="#000000" fill="none"/>
<path d="M10.078125 16.067848224071867L10.078125 16.55498751370061L9.65625 16.79855715851499L9.65625 17.204506566538942L9.5859375 17.24510150734134L9.3046875 17.082721744131756" stroke-width="0.03" stroke="#000000" fill="none"/>
<path d="M9.5859375 17.24510150734134L9.5859375 16.433202691293424L9.4453125 16.352012809688635" stroke-width="0.03" stroke="#000000" fill="none"/>
<path d="M9.65625 16.79855715851499L10.5 17.28569644814373L11.34375 16.79855715851499L10.921875000000002 16.55498751370061L10.921875000000002 16.067848224071867" stroke-width="0.03" stroke="#000000" fill="none"/>
<path d="M10.9921875 16.10844316487426L10.921875000000002 16.14903810567666L11.4140625 16.433202691293424L11.5546875 16.352012809688635" stroke-width="0.03" stroke="#000000" fill="none"/>
<path d="M11.4140625 16.433202691293424L11.4140625 17.24510150734134L11.6953125 17.082721744131756" stroke-width="0.03" stroke="#000000" fill="none"/>
<path d="M11.90625 17.204506566538942L11.90625 17.28569644814373L12.046875 17.366886329748525L12.187500000000002 17.28569644814373L12.187500000000002 15.824278579257493L13.453125 15.093569644814371L13.453125 14.931189881604789L13.3125 14.85L13.242187500000002 14.890594940802394" stroke-width="0.03" stroke="#000000" fill="none"/>
<path d="M13.382812500000002 14.971784822407185L13.453125 14.931189881604789" stroke-width="0.03" stroke="#000000" fill="none"/>
<path d="M13.171875 15.255949408023953L13.171875 15.7430886976527L12.187500000000002 16.311417868886238" stroke-width="0.03" stroke="#000000" fill="none"/>
<path d="M12.187500000000002 15.905468460862282L12.2578125 15.864873520059888L12.2578125 15.783683638455097" stroke-width="0.03" stroke="#000000" fill="none"/>
<path d="M12.2578125 15.864873520059888L12.609375 16.067848224071867" stroke-width="0.03" stroke="#000000" fill="none"/>
<path d="M12.609375 15.580708934443118L12.609375 16.717367276910196L12.187500000000002 16.960936921724567" stroke-width="0.03" stroke="#000000" fill="none"/>
<path d="M12.046875 17.28569644814373L12.046875 17.366886329748525" stroke-width="0.03" stroke="#000000" fill="none"/>
<path d="M11.4140625 17.24510150734134L11.34375 17.204506566538942L11.34375 16.79855715851499" stroke-width="0.03" stroke="#000000" fill="none"/>
<path d="M10.921875000000002 16.473797632095824L10.5 16.230227987281445L10.5 15.7430886976527" stroke-width="0.03" stroke="#000000" fill="none"/>
<path d="M10.640625 15.905468460862282L10.359375 16.067848224071867L10.359375 15.905468460862282L10.640625 16.067848224071867L10.640625 15.905468460862282" stroke-width="0.03" stroke="#000000" fill="none"/>
<path d="M10.5 16.230227987281445L10.078125 16.473797632095824" stroke-width="0.03" stroke="#000000" fill="none"/>
<path d="M10.5 17.28569644814373L10.5 23.050178042083903L9.867187500000002 23.41553250930546L9.3046875 23.090772982886296L9.3046875 20.492696771532984L9.65625 20.289722067521005L10.218750000000002 20.61448159394017L10.218750000000002 19.23425360665872L7.898437500000001 17.894620560179668L7.96875 17.85402561937727L7.96875 17.366886329748525L7.0546875 16.83915209931738L7.0546875 15.783683638455097L6.6328125 15.540113993640723L6.5625 15.580708934443118L6.3515625 15.458924112035932L6.3515625 15.377734230431141L5.71875 15.7430886976527L5.71875 16.79855715851499L5.578125 16.717367276910196L5.71875 16.636177395305403" stroke-width="0.03" stroke="#000000" fill="none"/>
<path d="M5.71875 16.473797632095824L5.2265625 16.189633046479052L5.2265625 16.02725328326947" stroke-width="0.03" stroke="#000000" fill="none"/>
<path d="M5.0859375 16.10844316487426L5.0859375 16.270822928083845L5.2265625 16.189633046479052" stroke-width="0.03" stroke="#000000" fill="none"/>
<path d="M5.0859375 16.270822928083845L5.015625 16.230227987281445L5.015625 16.067848224071867L5.3671875 15.864873520059888L5.15625 15.7430886976527L5.15625 15.093569644814371L4.3125 14.606430355185626L4.03125 14.768810118395209L4.03125 15.580708934443118L3.609375 15.824278579257493L3.2578125 15.621303875245514L3.2578125 13.023227663892198L4.1015625 12.536088374263452" stroke-width="0.03" stroke="#000000" fill="none"/>
<path d="M4.2421875 12.617278255868243L3.8203125000000004 12.860847900682616L3.8203125000000004 13.510366953520945L4.734375 14.038101183952087L4.875 13.956911302347297L4.875 13.307392249508968L4.734375 13.226202367904175L4.734375 12.90144284148501" stroke-width="0.03" stroke="#000000" fill="none"/>
<path d="M5.015625 13.063822604694593L5.3671875 12.860847900682616L5.3671875 12.211328847844287L5.015625 12.414303551856264L2.765625 11.115265446179606L3.3984375 10.749910978958045L3.3984375 10.019202044514927" stroke-width="0.03" stroke="#000000" fill="none"/>
<path d="M3.3984375 10.749910978958045L8.390625 13.632151775928133L8.390625 14.606430355185626" stroke-width="0.03" stroke="#000000" fill="none"/>
<path d="M8.671875 14.85L8.671875 15.012379763209582" stroke-width="0.03" stroke="#000000" fill="none"/>
<path d="M8.671875 14.85L7.96875 14.444050591976044" stroke-width="0.03" stroke="#000000" fill="none"/>
<path d="M7.6171875 14.971784822407185L7.546875 14.931189881604789" stroke-width="0.03" stroke="#000000" fill="none"/>
<path d="M7.828125 15.255949408023953L7.828125 15.7430886976527L8.8125 16.311417868886238" stroke-width="0.03" stroke="#000000" fill="none"/>
<path d="M7.96875 17.366886329748525L7.3359375 17.732240796970082L6.421875 17.204506566538942L6.421875 16.14903810567666L5.71875 15.7430886976527" stroke-width="0.03" stroke="#000000" fill="none"/>
<path d="M6 15.580708934443118L6 15.174759526419164L6.0703125 15.134164585616768L6.140625 15.174759526419164L6.140625 15.255949408023953L6.5625 15.499519052838329L6.703125 15.418329171233536L6.703125 12.820252959880222L6.5625 12.739063078275429L6.5625 12.576683315065846L6.703125 12.495493433461057L6.84375 12.576683315065846L9.09375 11.277645209389188L9.09375 11.115265446179606L8.671875 10.871695801365235L8.6015625 10.912290742167627L8.53125 10.871695801365235L8.53125 10.790505919760442L8.8828125 10.587531215748463" stroke-width="0.03" stroke="#000000" fill="none"/>
<path d="M8.8828125 10.668721097353256L8.6015625 10.831100860562838L7.265625000000001 10.059796985317323L6.3515625 10.587531215748463L5.4375 10.059796985317323L5.4375 10.54693627494607" stroke-width="0.03" stroke="#000000" fill="none"/>
<path d="M5.296875 10.465746393341277L5.296875 9.491467814083784L7.546875 8.192429708407126L7.898437500000001 8.395404412419104L7.898437500000001 8.882543702047851L7.1953125 9.288493110071807L7.1953125 9.613252636490971L6.492187500000001 10.019202044514927" stroke-width="0.03" stroke="#000000" fill="none"/>
<path d="M6.3515625 10.587531215748463L6.3515625 10.749910978958045" stroke-width="0.03" stroke="#000000" fill="none"/>
<path d="M5.6484375 9.938012162910134L5.6484375 9.694442518095762L5.296875 9.491467814083784" stroke-width="0.03" stroke="#000000" fill="none"/>
<path d="M5.6484375 9.694442518095762L7.898437500000001 8.395404412419104" stroke-width="0.03" stroke="#000000" fill="none"/>
<path d="M7.898437500000001 8.557784175628687L8.1796875 8.720163938838269" stroke-width="0.03" stroke="#000000" fill="none"/>
<path d="M8.1796875 8.80135382044306L8.1796875 8.395404412419104L8.25 8.354809471616708L7.1953125 7.745885359580775L7.1953125 8.151834767604731L7.40625 8.273619590011917" stroke-width="0.03" stroke="#000000" fill="none"/>
<path d="M7.4765625 7.583505596371193L7.4765625 7.096366306742446L8.0390625 6.771606780323281L8.4609375 7.015176425137655" stroke-width="0.03" stroke="#000000" fill="none"/>
<path d="M7.898437500000001 7.33993595155682L7.4765625 7.096366306742446" stroke-width="0.03" stroke="#000000" fill="none"/>
<path d="M8.1796875 8.395404412419104L10.0078125 9.450872873281389" stroke-width="0.03" stroke="#000000" fill="none"/>
<path d="M9.65625 9.653847577293366L9.65625 9.816227340502948" stroke-width="0.03" stroke="#000000" fill="none"/>
<path d="M9.515625 9.897417222107741L9.0234375 9.613252636490971L9.0234375 9.450872873281389L8.953125 9.410277932478992L8.953125 9.24789816926941L8.1796875 8.80135382044306" stroke-width="0.03" stroke="#000000" fill="none"/>
<path d="M8.4609375 9.288493110071807L8.53125 9.24789816926941L8.8828125 9.450872873281389L8.8828125 9.856822281305345L8.8125 9.897417222107741L8.6015625 9.775632399700552L8.6015625 9.450872873281389L8.4609375 9.369682991676598L8.4609375 9.288493110071807L8.8125 9.491467814083784L8.953125 9.410277932478992" stroke-width="0.03" stroke="#000000" fill="none"/>
<path d="M9.0234375 9.450872873281389L8.8828125 9.53206275488618" stroke-width="0.03" stroke="#000000" fill="none"/>
<path d="M8.8125 9.491467814083784L8.8125 9.897417222107741" stroke-width="0.03" stroke="#000000" fill="none"/>
<path d="M8.8828125 9.694442518095762L9.0234375 9.613252636490971" stroke-width="0.03" stroke="#000000" fill="none"/>
<path d="M8.7421875 9.369682991676598L8.953125 9.24789816926941" stroke-width="0.03" stroke="#000000" fill="none"/>
<path d="M8.6015625 9.450872873281389L8.0390625 9.775632399700552L7.1953125 9.288493110071807" stroke-width="0.03" stroke="#000000" fill="none"/>
<path d="M7.1953125 9.613252636490971L8.0390625 10.100391926119716L8.6015625 9.775632399700552" stroke-width="0.03" stroke="#000000" fill="none"/>
<path d="M8.0390625 9.775632399700552L8.0390625 10.100391926119716" stroke-width="0.03" stroke="#000000" fill="none"/>
<path d="M8.8828125 10.262771689329298L9.5859375 10.668721097353256L9.5859375 11.399430031796376L10.5 10.871695801365235L11.4140625 11.399430031796376L11.835937500000002 11.155860386982003" stroke-width="0.03" stroke="#000000" fill="none"/>
<path d="M11.835937500000002 11.074670505377211L14.15625 12.414303551856264L15.351562500000002 11.72418955821554" stroke-width="0.03" stroke="#000000" fill="none"/>
<path d="M15.351562500000002 11.318240150191585L14.7890625 10.99348062377242" stroke-width="0.03" stroke="#000000" fill="none"/>
<path d="M14.648437500000002 10.749910978958045L14.7890625 10.668721097353256L15.070312500000002 10.831100860562838" stroke-width="0.03" stroke="#000000" fill="none"/>
<path d="M14.648437500000002 10.749910978958045L14.648437500000002 10.587531215748463" stroke-width="0.03" stroke="#000000" fill="none"/>
<path d="M14.648437500000002 10.749910978958045L14.0859375 10.42515145253888L14.0859375 10.262771689329298" stroke-width="0.03" stroke="#000000" fill="none"/>
<path d="M13.8046875 9.613252636490971L12.9609375 10.100391926119716L12.3984375 9.775632399700552L12.3984375 9.450872873281389L12.539062500000002 9.369682991676598L12.539062500000002 9.288493110071807L12.46875 9.24789816926941L12.1171875 9.450872873281389L12.1171875 9.856822281305345L12.187500000000002 9.897417222107741L12.3984375 9.775632399700552" stroke-width="0.03" stroke="#000000" fill="none"/>
<path d="M12.187500000000002 9.897417222107741L12.187500000000002 9.491467814083784L12.539062500000002 9.288493110071807" stroke-width="0.03" stroke="#000000" fill="none"/>
<path d="M12.3984375 9.450872873281389L12.9609375 9.775632399700552L13.8046875 9.288493110071807" stroke-width="0.03" stroke="#000000" fill="none"/>
<path d="M14.578125 8.841948761245455L15.140625 8.51718923482629L11.5546875 6.446847253904116L10.5 7.05577136594005L9.4453125 6.446847253904116L5.859375000000001 8.51718923482629L5.859375000000001 9.166708287664619" stroke-width="0.03" stroke="#000000" fill="none"/>
<path d="M6.421875 8.841948761245455L5.859375000000001 8.51718923482629" stroke-width="0.03" stroke="#000000" fill="none"/>
<path d="M4.734375 9.004328524455037L4.734375 10.140986866922113" stroke-width="0.03" stroke="#000000" fill="none"/>
<path d="M5.15625 10.384556511736488L5.296875 10.303366630131695" stroke-width="0.03" stroke="#000000" fill="none"/>
<path d="M5.3671875 12.211328847844287L6.5625 12.90144284148501L6.703125 12.820252959880222" stroke-width="0.03" stroke="#000000" fill="none"/>
<path d="M6.5625 12.90144284148501L6.5625 15.580708934443118" stroke-width="0.03" stroke="#000000" fill="none"/>
<path d="M6.6328125 15.540113993640723L6.6328125 15.458924112035932" stroke-width="0.03" stroke="#000000" fill="none"/>
<path d="M7.0546875 15.783683638455097L6.421875 16.14903810567666" stroke-width="0.03" stroke="#000000" fill="none"/>
<path d="M6.0703125 15.540113993640723L6.0703125 15.215354467221559L4.734375 14.444050591976044L4.734375 13.388582131113758L3.8203125000000004 12.860847900682616" stroke-width="0.03" stroke="#000000" fill="none"/>
<path d="M3.7499999999999996 12.739063078275429L3.7499999999999996 12.65787319667064" stroke-width="0.03" stroke="#000000" fill="none"/>
<path d="M3.8203125000000004 12.698468137473034L3.539062500000001 12.536088374263452L3.539062500000001 12.211328847844287L2.5546875 12.779658019077825L2.2734375000000004 12.617278255868243L3.2578125 12.048949084634705" stroke-width="0.03" stroke="#000000" fill="none"/>
<path d="M3.1874999999999996 12.00835414383231L3.1874999999999996 12.0895440254371" stroke-width="0.03" stroke="#000000" fill="none"/>
<path d="M2.765625 11.764784499017935L2.765625 11.115265446179606" stroke-width="0.03" stroke="#000000" fill="none"/>
<path d="M2.765625 11.764784499017935L5.015625 13.063822604694593L5.015625 12.414303551856264" stroke-width="0.03" stroke="#000000" fill="none"/>
<path d="M4.875 13.307392249508968L4.734375 13.388582131113758" stroke-width="0.03" stroke="#000000" fill="none"/>
<path d="M4.3125 13.794531539137715L4.3125 14.606430355185626" stroke-width="0.03" stroke="#000000" fill="none"/>
<path d="M4.03125 14.768810118395209L4.875 15.255949408023953L5.15625 15.093569644814371" stroke-width="0.03" stroke="#000000" fill="none"/>
<path d="M4.875 15.255949408023953L4.875 15.905468460862282L4.734375 15.824278579257493L4.6640625 15.864873520059888L4.6640625 15.946063401664679L5.015625 16.14903810567666L5.3671875 15.946063401664679L5.3671875 15.864873520059888" stroke-width="0.03" stroke="#000000" fill="none"/>
<path d="M5.15625 15.7430886976527L4.875 15.905468460862282" stroke-width="0.03" stroke="#000000" fill="none"/>
<path d="M4.875 16.067848224071867L4.875 16.311417868886238L4.1015625 15.864873520059888L3.7499999999999996 16.067848224071867L3.7499999999999996 16.14903810567666L2.695312500000001 15.540113993640723L3.046875 15.337139289628746L3.2578125 15.458924112035932" stroke-width="0.03" stroke="#000000" fill="none"/>
<path d="M3.609375 15.824278579257493L3.609375 13.226202367904175L3.2578125 13.023227663892198" stroke-width="0.03" stroke="#000000" fill="none"/>
<path d="M3.609375 13.226202367904175L3.8203125000000004 13.10441754549699" stroke-width="0.03" stroke="#000000" fill="none"/>
<path d="M3.9609375 12.617278255868243L3.9609375 12.45489849265866" stroke-width="0.03" stroke="#000000" fill="none"/>
<path d="M3.2578125 13.672746716730527L2.695312500000001 13.997506243149692L2.695312500000001 18.13819020499404L3.7499999999999996 18.747114317029972L3.7499999999999996 19.96496254110184L7.3359375 22.035304522024013L7.898437500000001 21.71054499560485" stroke-width="0.03" stroke="#000000" fill="none"/>
<path d="M8.4609375 21.62935511400006L8.671875 21.507570291592874" stroke-width="0.03" stroke="#000000" fill="none"/>
<path d="M8.8828125 21.62935511400006L9.3046875 21.385785469185684" stroke-width="0.03" stroke="#000000" fill="none"/>
<path d="M9.3046875 21.548165232395267L8.4609375 22.035304522024013L6.210937500000001 20.736266416347355L6.210937500000001 20.330317008323398L6.6328125 20.086747363509026L7.3359375 20.492696771532984L7.6171875 20.330317008323398L7.6171875 19.356038429065904L7.0546875 19.03127890264674L7.0546875 18.78770925783237L6.984375 18.747114317029972L6.6328125 18.95008902104195L6.6328125 19.356038429065904L6.703125 19.3966333698683L6.7734375 19.356038429065904L6.7734375 19.193658665856326L7.0546875 19.03127890264674" stroke-width="0.03" stroke="#000000" fill="none"/>
<path d="M7.0546875 18.78770925783237L6.703125 18.990683961844347L6.703125 19.3966333698683" stroke-width="0.03" stroke="#000000" fill="none"/>
<path d="M6.7734375 19.193658665856326L7.3359375 19.51841819227549L7.3359375 20.492696771532984" stroke-width="0.03" stroke="#000000" fill="none"/>
<path d="M7.6171875 20.330317008323398L8.3203125 20.736266416347355" stroke-width="0.03" stroke="#000000" fill="none"/>
<path d="M8.3203125 20.249127126718612L8.4609375 20.16793724511382L9.0234375 20.492696771532984L9.0234375 20.655076534742566L9.3046875 20.81745629795215" stroke-width="0.03" stroke="#000000" fill="none"/>
<path d="M9.3046875 20.492696771532984L9.867187500000002 20.81745629795215L10.218750000000002 20.61448159394017" stroke-width="0.03" stroke="#000000" fill="none"/>
<path d="M9.867187500000002 20.81745629795215L9.867187500000002 23.41553250930546" stroke-width="0.03" stroke="#000000" fill="none"/>
<path d="M10.5 23.050178042083903L11.1328125 23.41553250930546L11.6953125 23.090772982886296L11.6953125 20.492696771532984L11.34375 20.289722067521005L10.78125 20.61448159394017L11.1328125 20.81745629795215L11.1328125 23.41553250930546" stroke-width="0.03" stroke="#000000" fill="none"/>
<path d="M11.6953125 22.603633693257553L11.765625 22.563038752455157" stroke-width="0.03" stroke="#000000" fill="none"/>
<path d="M11.6953125 22.52244381165276L12.679687500000002 23.090772982886296L14.859375 21.832329818012038L14.859375 21.507570291592874L14.718749999999998 21.42638040998808" stroke-width="0.03" stroke="#000000" fill="none"/>
<path d="M14.859375 21.507570291592874L12.679687500000002 22.76601345646713L11.6953125 22.197684285233596L11.976562500000002 22.035304522024013L11.976562500000002 21.71054499560485" stroke-width="0.03" stroke="#000000" fill="none"/>
<path d="M12.046875 21.751139936407245L11.976562500000002 21.79173487720964" stroke-width="0.03" stroke="#000000" fill="none"/>
<path d="M12.1171875 21.62935511400006L12.679687500000002 21.304595587580895L12.679687500000002 20.249127126718612L12.539062500000002 20.16793724511382L11.976562500000002 20.492696771532984L11.976562500000002 20.655076534742566L11.6953125 20.81745629795215" stroke-width="0.03" stroke="#000000" fill="none"/>
<path d="M11.6953125 20.492696771532984L11.1328125 20.81745629795215" stroke-width="0.03" stroke="#000000" fill="none"/>
<path d="M10.78125 20.61448159394017L10.78125 19.23425360665872L13.1015625 17.894620560179668L13.031250000000002 17.85402561937727L13.031250000000002 17.366886329748525L13.945312500000002 16.83915209931738L13.945312500000002 15.783683638455097L14.367187500000002 15.540113993640723L14.437500000000002 15.580708934443118L14.648437500000002 15.458924112035932L14.648437500000002 15.377734230431141L15.28125 15.7430886976527L15.28125 16.79855715851499L15.421875 16.717367276910196L15.28125 16.636177395305403" stroke-width="0.03" stroke="#000000" fill="none"/>
<path d="M15.28125 16.473797632095824L15.773437500000002 16.189633046479052L15.773437500000002 16.02725328326947" stroke-width="0.03" stroke="#000000" fill="none"/>
<path d="M15.9140625 16.10844316487426L15.9140625 16.270822928083845L15.773437500000002 16.189633046479052" stroke-width="0.03" stroke="#000000" fill="none"/>
<path d="M15.9140625 16.270822928083845L15.984375 16.230227987281445L15.984375 16.067848224071867L16.3359375 15.864873520059888L16.3359375 15.946063401664679L15.984375 16.14903810567666L15.6328125 15.946063401664679L15.6328125 15.864873520059888L15.843750000000002 15.7430886976527L15.843750000000002 15.093569644814371L16.6875 14.606430355185626L16.96875 14.768810118395209L16.96875 15.580708934443118L17.390625 15.824278579257493L17.7421875 15.621303875245514L17.7421875 13.023227663892198L16.8984375 12.536088374263452" stroke-width="0.03" stroke="#000000" fill="none"/>
<path d="M17.0390625 12.45489849265866L17.0390625 12.617278255868243" stroke-width="0.03" stroke="#000000" fill="none"/>
<path d="M17.1796875 12.698468137473034L17.4609375 12.536088374263452L17.4609375 12.211328847844287L18.4453125 12.779658019077825L18.4453125 15.29654434882635L18.7265625 15.134164585616768L18.7265625 12.617278255868243L17.7421875 12.048949084634705" stroke-width="0.03" stroke="#000000" fill="none"/>
<path d="M17.8125 12.00835414383231L17.8125 12.0895440254371" stroke-width="0.03" stroke="#000000" fill="none"/>
<path d="M17.25 12.65787319667064L17.25 12.739063078275429" stroke-width="0.03" stroke="#000000" fill="none"/>
<path d="M17.1796875 12.860847900682616L16.265625 13.388582131113758L16.125 13.307392249508968L16.125 13.956911302347297L16.265625 14.038101183952087L17.1796875 13.510366953520945L17.1796875 12.860847900682616L16.7578125 12.617278255868243" stroke-width="0.03" stroke="#000000" fill="none"/>
<path d="M16.265625 12.90144284148501L16.265625 13.226202367904175L16.125 13.307392249508968" stroke-width="0.03" stroke="#000000" fill="none"/>
<path d="M16.265625 13.388582131113758L16.265625 14.444050591976044L14.9296875 15.215354467221559L14.859375 15.174759526419164L14.859375 15.255949408023953L14.437500000000002 15.499519052838329L14.296875000000002 15.418329171233536L14.296875000000002 12.820252959880222L14.437500000000002 12.739063078275429L14.437500000000002 12.576683315065846L14.296875000000002 12.495493433461057L14.15625 12.576683315065846L11.90625 11.277645209389188" stroke-width="0.03" stroke="#000000" fill="none"/>
<path d="M11.4140625 11.399430031796376L11.4140625 10.668721097353256L12.1171875 10.262771689329298" stroke-width="0.03" stroke="#000000" fill="none"/>
<path d="M12.1171875 9.694442518095762L11.976562500000002 9.613252636490971L11.976562500000002 9.450872873281389L12.046875 9.410277932478992L12.046875 9.24789816926941L12.8203125 8.80135382044306L12.8203125 8.395404412419104L12.75 8.354809471616708L13.8046875 7.745885359580775L13.8046875 8.151834767604731L13.593750000000002 8.273619590011917" stroke-width="0.03" stroke="#000000" fill="none"/>
<path d="M13.1015625 8.395404412419104L15.351562500000002 9.694442518095762L15.351562500000002 9.938012162910134" stroke-width="0.03" stroke="#000000" fill="none"/>
<path d="M15.351562500000002 9.694442518095762L15.703125000000002 9.491467814083784" stroke-width="0.03" stroke="#000000" fill="none"/>
<path d="M15.140625 9.166708287664619L15.140625 8.51718923482629" stroke-width="0.03" stroke="#000000" fill="none"/>
<path d="M13.5234375 7.583505596371193L13.5234375 7.096366306742446L12.9609375 6.771606780323281L12.539062500000002 7.015176425137655" stroke-width="0.03" stroke="#000000" fill="none"/>
<path d="M13.1015625 7.33993595155682L13.5234375 7.096366306742446" stroke-width="0.03" stroke="#000000" fill="none"/>
<path d="M12.8203125 8.395404412419104L10.9921875 9.450872873281389" stroke-width="0.03" stroke="#000000" fill="none"/>
<path d="M11.484375000000002 9.897417222107741L11.976562500000002 9.613252636490971" stroke-width="0.03" stroke="#000000" fill="none"/>
<path d="M12.1171875 9.53206275488618L11.976562500000002 9.450872873281389" stroke-width="0.03" stroke="#000000" fill="none"/>
<path d="M12.046875 9.410277932478992L12.187500000000002 9.491467814083784" stroke-width="0.03" stroke="#000000" fill="none"/>
<path d="M12.2578125 9.369682991676598L12.046875 9.24789816926941" stroke-width="0.03" stroke="#000000" fill="none"/>
<path d="M12.8203125 8.720163938838269L13.1015625 8.557784175628687" stroke-width="0.03" stroke="#000000" fill="none"/>
<path d="M12.9609375 9.775632399700552L12.9609375 10.100391926119716" stroke-width="0.03" stroke="#000000" fill="none"/>
<path d="M12.3984375 10.831100860562838L12.3984375 10.912290742167627" stroke-width="0.03" stroke="#000000" fill="none"/>
<path d="M11.4140625 10.668721097353256L10.5 10.140986866922113L9.5859375 10.668721097353256" stroke-width="0.03" stroke="#000000" fill="none"/>
<path d="M9.1640625 11.074670505377211L9.1640625 11.155860386982003L9.09375 11.196455327784399" stroke-width="0.03" stroke="#000000" fill="none"/>
<path d="M9.1640625 11.155860386982003L9.5859375 11.399430031796376" stroke-width="0.03" stroke="#000000" fill="none"/>
<path d="M10.5 10.871695801365235L10.5 10.140986866922113" stroke-width="0.03" stroke="#000000" fill="none"/>
<path d="M8.6015625 10.831100860562838L8.6015625 10.912290742167627" stroke-width="0.03" stroke="#000000" fill="none"/>
<path d="M9.1640625 12.698468137473034L8.8828125 12.860847900682616L8.8828125 12.942037782287407L9.234375 13.145012486299386L9.234375 13.632151775928133L9.65625 13.875721420742504" stroke-width="0.03" stroke="#000000" fill="none"/>
<path d="M9.65625 13.794531539137715L9.5859375 13.83512647994011L9.5859375 13.266797308706572L9.7265625 13.18560742710178" stroke-width="0.03" stroke="#000000" fill="none"/>
<path d="M9.5859375 13.266797308706572L8.8828125 12.860847900682616" stroke-width="0.03" stroke="#000000" fill="none"/>
<path d="M9.234375 13.145012486299386L8.390625 13.632151775928133" stroke-width="0.03" stroke="#000000" fill="none"/>
<path d="M8.8828125 14.403455651173648L9.3046875 14.159886006359274L9.3046875 13.672746716730527" stroke-width="0.03" stroke="#000000" fill="none"/>
<path d="M9.7265625 13.429177071916154L10.5 12.982632723089804L11.273437500000002 13.429177071916154" stroke-width="0.03" stroke="#000000" fill="none"/>
<path d="M10.5 12.982632723089804L10.5 15.337139289628746L10.921875000000002 15.093569644814371L10.921875000000002 14.606430355185626L10.5 14.362860710371251L10.078125 14.606430355185626L10.078125 15.093569644814371L10.5 15.337139289628746" stroke-width="0.03" stroke="#000000" fill="none"/>
<path d="M10.078125 14.606430355185626L12.1171875 15.783683638455097L12.1171875 14.890594940802394" stroke-width="0.03" stroke="#000000" fill="none"/>
<path d="M12.1171875 15.783683638455097L11.34375 16.230227987281445" stroke-width="0.03" stroke="#000000" fill="none"/>
<path d="M13.031250000000002 17.366886329748525L13.6640625 17.732240796970082L14.578125 17.204506566538942L14.578125 16.14903810567666L13.945312500000002 15.783683638455097" stroke-width="0.03" stroke="#000000" fill="none"/>
<path d="M14.367187500000002 15.540113993640723L14.367187500000002 15.458924112035932" stroke-width="0.03" stroke="#000000" fill="none"/>
<path d="M14.437500000000002 15.580708934443118L14.437500000000002 12.90144284148501L15.6328125 12.211328847844287" stroke-width="0.03" stroke="#000000" fill="none"/>
<path d="M15.984375 12.414303551856264L15.984375 13.063822604694593" stroke-width="0.03" stroke="#000000" fill="none"/>
<path d="M16.6875 13.794531539137715L16.6875 14.606430355185626" stroke-width="0.03" stroke="#000000" fill="none"/>
<path d="M16.96875 14.768810118395209L16.125 15.255949408023953L15.843750000000002 15.093569644814371" stroke-width="0.03" stroke="#000000" fill="none"/>
<path d="M16.125 15.255949408023953L16.125 15.905468460862282L16.265625 15.824278579257493L16.3359375 15.864873520059888" stroke-width="0.03" stroke="#000000" fill="none"/>
<path d="M16.125 15.905468460862282L15.843750000000002 15.7430886976527" stroke-width="0.03" stroke="#000000" fill="none"/>
<path d="M15.6328125 15.864873520059888L15.984375 16.067848224071867" stroke-width="0.03" stroke="#000000" fill="none"/>
<path d="M16.125 16.067848224071867L16.125 16.311417868886238L16.8984375 15.864873520059888L17.25 16.067848224071867L17.25 16.14903810567666L18.3046875 15.540113993640723L17.953125000000004 15.337139289628746L17.7421875 15.458924112035932" stroke-width="0.03" stroke="#000000" fill="none"/>
<path d="M17.390625 15.824278579257493L17.390625 13.226202367904175L17.7421875 13.023227663892198" stroke-width="0.03" stroke="#000000" fill="none"/>
<path d="M17.390625 13.226202367904175L17.1796875 13.10441754549699" stroke-width="0.03" stroke="#000000" fill="none"/>
<path d="M17.7421875 13.672746716730527L18.3046875 13.997506243149692L18.3046875 18.13819020499404L17.25 18.747114317029972L17.25 19.96496254110184L13.6640625 22.035304522024013L13.1015625 21.71054499560485" stroke-width="0.03" stroke="#000000" fill="none"/>
<path d="M12.539062500000002 21.62935511400006L14.7890625 20.330317008323398L14.367187500000002 20.086747363509026L13.6640625 20.492696771532984L13.382812500000002 20.330317008323398L13.382812500000002 19.356038429065904L13.945312500000002 19.03127890264674L13.945312500000002 18.78770925783237L14.015625 18.747114317029972L14.367187500000002 18.95008902104195L14.367187500000002 19.356038429065904L14.296875000000002 19.3966333698683L14.2265625 19.356038429065904L14.2265625 19.193658665856326L13.945312500000002 19.03127890264674" stroke-width="0.03" stroke="#000000" fill="none"/>
<path d="M13.945312500000002 18.78770925783237L14.296875000000002 18.990683961844347L14.296875000000002 19.3966333698683" stroke-width="0.03" stroke="#000000" fill="none"/>
<path d="M14.2265625 19.193658665856326L13.6640625 19.51841819227549L13.6640625 20.492696771532984" stroke-width="0.03" stroke="#000000" fill="none"/>
<path d="M13.382812500000002 20.330317008323398L12.679687500000002 20.736266416347355" stroke-width="0.03" stroke="#000000" fill="none"/>
<path d="M12.1171875 20.573886653137773L13.031250000000002 20.04615242270663L13.031250000000002 18.5035446722156L13.3125 18.341164909006018" stroke-width="0.03" stroke="#000000" fill="none"/>
<path d="M13.382812500000002 18.38175984980841L13.031250000000002 18.58473455382039L12.9609375 18.544139613017997L12.9609375 18.462949731413204L13.031250000000002 18.422354790610807L13.031250000000002 17.93521550098206L12.890625000000002 17.85402561937727L10.640625 19.15306372505393L10.640625 19.31544348826351L10.5 19.3966333698683L10.359375 19.31544348826351L10.359375 19.15306372505393L8.109375 17.85402561937727L7.96875 17.93521550098206L7.96875 18.422354790610807L8.0390625 18.462949731413204L8.0390625 18.544139613017997L7.96875 18.58473455382039L7.6171875 18.38175984980841" stroke-width="0.03" stroke="#000000" fill="none"/>
<path d="M7.6875 18.341164909006018L7.96875 18.5035446722156L7.96875 20.04615242270663L8.8828125 20.573886653137773L9.0234375 20.492696771532984" stroke-width="0.03" stroke="#000000" fill="none"/>
<path d="M8.8828125 20.573886653137773L8.8828125 21.62935511400006L8.3203125 21.304595587580895L8.3203125 20.249127126718612" stroke-width="0.03" stroke="#000000" fill="none"/>
<path d="M7.6171875 19.356038429065904L7.3359375 19.51841819227549" stroke-width="0.03" stroke="#000000" fill="none"/>
<path d="M6.6328125 19.112468784251533L6.421875 18.990683961844347L6.5625 18.909494080239554L6.5625 18.828304198634765L6.703125 18.747114317029972L6.703125 18.178785145796436" stroke-width="0.03" stroke="#000000" fill="none"/>
<path d="M6.5625 18.097595264191643L6.421875 18.178785145796436L5.71875 17.77283573777248L5.71875 17.610455974562896L5.578125 17.529266092958107L5.578125 16.717367276910196" stroke-width="0.03" stroke="#000000" fill="none"/>
<path d="M5.578125 17.123316684934153L3.7499999999999996 16.067848224071867" stroke-width="0.03" stroke="#000000" fill="none"/>
<path d="M4.03125 15.905468460862282L3.7499999999999996 15.7430886976527" stroke-width="0.03" stroke="#000000" fill="none"/>
<path d="M4.6640625 15.864873520059888L5.015625 16.067848224071867" stroke-width="0.03" stroke="#000000" fill="none"/>
<path d="M5.015625 16.230227987281445L4.875 16.311417868886238" stroke-width="0.03" stroke="#000000" fill="none"/>
<path d="M6.0703125 15.215354467221559L6.140625 15.174759526419164" stroke-width="0.03" stroke="#000000" fill="none"/>
<path d="M7.0546875 16.83915209931738L6.421875 17.204506566538942" stroke-width="0.03" stroke="#000000" fill="none"/>
<path d="M6.421875 18.016405382586854L6.421875 18.178785145796436" stroke-width="0.03" stroke="#000000" fill="none"/>
<path d="M6.421875 18.016405382586854L7.3359375 18.544139613017997L7.96875 18.178785145796436L7.898437500000001 18.13819020499404L7.898437500000001 17.894620560179668" stroke-width="0.03" stroke="#000000" fill="none"/>
<path d="M7.96875 17.85402561937727L8.0390625 17.894620560179668" stroke-width="0.03" stroke="#000000" fill="none"/>
<path d="M8.0390625 18.462949731413204L7.96875 18.5035446722156" stroke-width="0.03" stroke="#000000" fill="none"/>
<path d="M7.3359375 18.544139613017997L7.3359375 17.732240796970082" stroke-width="0.03" stroke="#000000" fill="none"/>
<path d="M6.703125 18.747114317029972L6.84375 18.828304198634765" stroke-width="0.03" stroke="#000000" fill="none"/>
<path d="M6.703125 18.909494080239554L6.5625 18.828304198634765" stroke-width="0.03" stroke="#000000" fill="none"/>
<path d="M6.5625 18.909494080239554L6.703125 18.990683961844347" stroke-width="0.03" stroke="#000000" fill="none"/>
<path d="M6.421875 18.990683961844347L6.421875 19.883772659497048L6.0703125 20.086747363509026L6 20.04615242270663L6 21.2640006467785L6.3515625 21.06102594276652L6.3515625 20.81745629795215" stroke-width="0.03" stroke="#000000" fill="none"/>
<path d="M6.210937500000001 20.330317008323398L8.4609375 21.62935511400006L8.4609375 22.035304522024013" stroke-width="0.03" stroke="#000000" fill="none"/>
<path d="M9.0234375 22.035304522024013L9.0234375 21.71054499560485" stroke-width="0.03" stroke="#000000" fill="none"/>
<path d="M8.953125 21.751139936407245L9.0234375 21.79173487720964" stroke-width="0.03" stroke="#000000" fill="none"/>
<path d="M9.1640625 21.62935511400006L9.3046875 21.71054499560485" stroke-width="0.03" stroke="#000000" fill="none"/>
<path d="M9.0234375 22.035304522024013L9.3046875 22.197684285233596L8.3203125 22.76601345646713L6.140625 21.507570291592874L6.28125 21.42638040998808" stroke-width="0.03" stroke="#000000" fill="none"/>
<path d="M6.140625 21.507570291592874L6.140625 21.832329818012038L8.3203125 23.090772982886296L9.3046875 22.52244381165276" stroke-width="0.03" stroke="#000000" fill="none"/>
<path d="M9.234375 22.563038752455157L9.3046875 22.603633693257553" stroke-width="0.03" stroke="#000000" fill="none"/>
<path d="M8.3203125 22.76601345646713L8.3203125 23.090772982886296" stroke-width="0.03" stroke="#000000" fill="none"/>
<path d="M7.3359375 22.035304522024013L7.3359375 21.385785469185684" stroke-width="0.03" stroke="#000000" fill="none"/>
<path d="M6.3515625 20.249127126718612L6.3515625 19.924367600299444" stroke-width="0.03" stroke="#000000" fill="none"/>
<path d="M6.0703125 20.086747363509026L6.0703125 17.975810441784457" stroke-width="0.03" stroke="#000000" fill="none"/>
<path d="M3.7499999999999996 18.747114317029972L3.539062500000001 18.86889913943716L3.7499999999999996 18.990683961844347" stroke-width="0.03" stroke="#000000" fill="none"/>
<path d="M3.539062500000001 18.86889913943716L3.539062500000001 18.625329494622786" stroke-width="0.03" stroke="#000000" fill="none"/>
<path d="M3.46875 18.909494080239554L3.46875 19.721392896287465L3.7499999999999996 19.883772659497048" stroke-width="0.03" stroke="#000000" fill="none"/>
<path d="M3.46875 18.909494080239554L2.765625 18.5035446722156L2.765625 18.178785145796436" stroke-width="0.03" stroke="#000000" fill="none"/>
<path d="M2.695312500000001 17.001531862526964L2.2734375000000004 16.75796221771259L2.2734375000000004 16.10844316487426L2.695312500000001 15.864873520059888" stroke-width="0.03" stroke="#000000" fill="none"/>
<path d="M2.2734375000000004 16.10844316487426L2.695312500000001 16.352012809688635" stroke-width="0.03" stroke="#000000" fill="none"/>
<path d="M2.5546875 15.29654434882635L2.695312500000001 15.215354467221559" stroke-width="0.03" stroke="#000000" fill="none"/>
<path d="M2.5546875 15.29654434882635L2.5546875 12.779658019077825" stroke-width="0.03" stroke="#000000" fill="none"/>
<path d="M2.2734375000000004 12.617278255868243L2.2734375000000004 15.134164585616768L2.5546875 15.29654434882635" stroke-width="0.03" stroke="#000000" fill="none"/>
<path d="M3.2578125 14.322265769568856L2.695312500000001 13.997506243149692" stroke-width="0.03" stroke="#000000" fill="none"/>
<path d="M6.84375 12.576683315065846L6.84375 12.414303551856264" stroke-width="0.03" stroke="#000000" fill="none"/>
<path d="M9.3046875 14.159886006359274L9.7265625 14.403455651173648" stroke-width="0.03" stroke="#000000" fill="none"/>
<path d="M9.515625 14.444050591976044L9.515625 14.11929106555688L9.65625 14.200480947161669L9.375 14.362860710371251L9.515625 14.444050591976044" stroke-width="0.03" stroke="#000000" fill="none"/>
<path d="M10.359375 19.15306372505393L10.218750000000002 19.23425360665872" stroke-width="0.03" stroke="#000000" fill="none"/>
<path d="M10.640625 19.15306372505393L10.78125 19.23425360665872" stroke-width="0.03" stroke="#000000" fill="none"/>
<path d="M11.976562500000002 20.492696771532984L12.1171875 20.573886653137773L12.1171875 21.62935511400006L11.6953125 21.385785469185684" stroke-width="0.03" stroke="#000000" fill="none"/>
<path d="M11.6953125 21.548165232395267L12.539062500000002 22.035304522024013L14.7890625 20.736266416347355L14.7890625 20.330317008323398" stroke-width="0.03" stroke="#000000" fill="none"/>
<path d="M14.648437500000002 20.249127126718612L14.648437500000002 19.924367600299444" stroke-width="0.03" stroke="#000000" fill="none"/>
<path d="M14.578125 19.883772659497048L14.578125 18.990683961844347L14.437500000000002 18.909494080239554L14.437500000000002 18.828304198634765L14.296875000000002 18.747114317029972L14.296875000000002 18.178785145796436" stroke-width="0.03" stroke="#000000" fill="none"/>
<path d="M14.437500000000002 18.097595264191643L14.578125 18.178785145796436L15.28125 17.77283573777248L15.28125 17.610455974562896L15.421875 17.529266092958107L15.421875 16.717367276910196" stroke-width="0.03" stroke="#000000" fill="none"/>
<path d="M15.421875 17.123316684934153L17.25 16.067848224071867" stroke-width="0.03" stroke="#000000" fill="none"/>
<path d="M16.96875 15.905468460862282L17.25 15.7430886976527" stroke-width="0.03" stroke="#000000" fill="none"/>
<path d="M18.3046875 15.864873520059888L18.7265625 16.10844316487426L18.7265625 16.75796221771259L18.3046875 17.001531862526964" stroke-width="0.03" stroke="#000000" fill="none"/>
<path d="M18.3046875 16.352012809688635L18.7265625 16.10844316487426" stroke-width="0.03" stroke="#000000" fill="none"/>
<path d="M18.4453125 15.29654434882635L18.3046875 15.215354467221559" stroke-width="0.03" stroke="#000000" fill="none"/>
<path d="M17.7421875 14.322265769568856L18.3046875 13.997506243149692" stroke-width="0.03" stroke="#000000" fill="none"/>
<path d="M18.4453125 12.779658019077825L18.7265625 12.617278255868243" stroke-width="0.03" stroke="#000000" fill="none"/>
<path d="M15.843750000000002 10.384556511736488L15.703125000000002 10.303366630131695" stroke-width="0.03" stroke="#000000" fill="none"/>
<path d="M14.15625 12.414303551856264L14.15625 12.576683315065846" stroke-width="0.03" stroke="#000000" fill="none"/>
<path d="M14.296875000000002 12.820252959880222L14.437500000000002 12.90144284148501" stroke-width="0.03" stroke="#000000" fill="none"/>
<path d="M14.9296875 15.134164585616768L14.859375 15.174759526419164" stroke-width="0.03" stroke="#000000" fill="none"/>
<path d="M14.9296875 15.215354467221559L14.9296875 15.540113993640723" stroke-width="0.03" stroke="#000000" fill="none"/>
<path d="M15.000000000000002 15.580708934443118L15.000000000000002 15.174759526419164L14.9296875 15.134164585616768" stroke-width="0.03" stroke="#000000" fill="none"/>
<path d="M15.28125 15.7430886976527L14.578125 16.14903810567666" stroke-width="0.03" stroke="#000000" fill="none"/>
<path d="M13.945312500000002 16.83915209931738L14.578125 17.204506566538942" stroke-width="0.03" stroke="#000000" fill="none"/>
<path d="M14.578125 18.016405382586854L13.6640625 18.544139613017997L13.031250000000002 18.178785145796436L13.1015625 18.13819020499404L13.1015625 17.894620560179668" stroke-width="0.03" stroke="#000000" fill="none"/>
<path d="M13.031250000000002 17.85402561937727L12.9609375 17.894620560179668" stroke-width="0.03" stroke="#000000" fill="none"/>
<path d="M12.9609375 18.462949731413204L13.031250000000002 18.5035446722156" stroke-width="0.03" stroke="#000000" fill="none"/>
<path d="M13.6640625 18.544139613017997L13.6640625 17.732240796970082" stroke-width="0.03" stroke="#000000" fill="none"/>
<path d="M14.578125 18.016405382586854L14.578125 18.178785145796436" stroke-width="0.03" stroke="#000000" fill="none"/>
<path d="M14.9296875 17.975810441784457L14.9296875 20.086747363509026L15.000000000000002 20.04615242270663L15.000000000000002 21.2640006467785L14.648437500000002 21.06102594276652L14.648437500000002 20.81745629795215" stroke-width="0.03" stroke="#000000" fill="none"/>
<path d="M15.28125 21.101620883568916L15.703125000000002 21.345190528383288L16.265625 21.020431001964123L16.265625 20.53329171233538" stroke-width="0.03" stroke="#000000" fill="none"/>
<path d="M15.703125000000002 20.858051238754545L15.703125000000002 21.345190528383288" stroke-width="0.03" stroke="#000000" fill="none"/>
<path d="M14.9296875 20.086747363509026L14.578125 19.883772659497048" stroke-width="0.03" stroke="#000000" fill="none"/>
<path d="M14.367187500000002 19.112468784251533L14.578125 18.990683961844347" stroke-width="0.03" stroke="#000000" fill="none"/>
<path d="M14.437500000000002 18.909494080239554L14.296875000000002 18.990683961844347" stroke-width="0.03" stroke="#000000" fill="none"/>
<path d="M14.296875000000002 18.909494080239554L14.437500000000002 18.828304198634765" stroke-width="0.03" stroke="#000000" fill="none"/>
<path d="M14.296875000000002 18.747114317029972L14.15625 18.828304198634765" stroke-width="0.03" stroke="#000000" fill="none"/>
<path d="M13.6640625 19.51841819227549L13.382812500000002 19.356038429065904" stroke-width="0.03" stroke="#000000" fill="none"/>
<path d="M13.6640625 21.385785469185684L13.6640625 22.035304522024013" stroke-width="0.03" stroke="#000000" fill="none"/>
<path d="M12.539062500000002 22.035304522024013L12.539062500000002 21.62935511400006L12.328125000000002 21.507570291592874" stroke-width="0.03" stroke="#000000" fill="none"/>
<path d="M11.835937500000002 21.62935511400006L11.6953125 21.71054499560485" stroke-width="0.03" stroke="#000000" fill="none"/>
<path d="M12.679687500000002 22.76601345646713L12.679687500000002 23.090772982886296" stroke-width="0.03" stroke="#000000" fill="none"/>
<path d="M17.25 19.883772659497048L17.53125 19.721392896287465L17.53125 18.909494080239554L18.234375 18.5035446722156L18.234375 18.178785145796436" stroke-width="0.03" stroke="#000000" fill="none"/>
<path d="M17.4609375 18.625329494622786L17.4609375 18.86889913943716L17.25 18.990683961844347" stroke-width="0.03" stroke="#000000" fill="none"/>
<path d="M17.4609375 18.86889913943716L17.25 18.747114317029972" stroke-width="0.03" stroke="#000000" fill="none"/>
<path d="M16.125 16.311417868886238L15.984375 16.230227987281445" stroke-width="0.03" stroke="#000000" fill="none"/>
<path d="M10.7109375 6.933986543532863L10.5 6.8122017211256765L10.2890625 6.933986543532863" stroke-width="0.03" stroke="#000000" fill="none"/>
<path d="M10.5 6.8122017211256765L10.5 7.05577136594005" stroke-width="0.03" stroke="#000000" fill="none"/>
<path d="M10.5 6.731011839520885L11.203125 6.32506243149693L11.484375000000002 6.487442194706512" stroke-width="0.03" stroke="#000000" fill="none"/>
<path d="M10.5 6.731011839520885L9.796875 6.32506243149693L9.515625 6.487442194706512" stroke-width="0.03" stroke="#000000" fill="none"/>
<path d="M7.264131938244363 2.2599663291074443L1.5 2.2599663291074443" stroke-width="0.03" stroke="#000000" fill="none"/>
<path d="M2.0824957911384305 2.015598694615191L2.0824957911384305 1.7268634256306838" stroke-width="0.03" stroke="#000000" fill="none"/>
<path d="M2.061871843353823 1.5824957911384305L2.0824957911384305 1.6031197389230383L2.1031197389230383 1.5824957911384305L2.0824957911384305 1.5618718433538228L2.061871843353823 1.5824957911384305" stroke-width="0.03" stroke="#000000" fill="none"/>
<path d="M2.226863425630684 1.953726851261368L2.2474873734152916 1.9949747468305832L2.3093592167691144 2.015598694615191L2.3712310601229376 2.015598694615191L2.4331029034767604 1.9949747468305832L2.4537268512613677 1.953726851261368L2.4537268512613677 1.9331029034767604L2.4331029034767604 1.891855007907545L2.391855007907545 1.8712310601229374L2.2887352689845066 1.8506071123383299L2.2474873734152916 1.8299831645537221L2.226863425630684 1.7887352689845069L2.2474873734152916 1.7474873734152916L2.3093592167691144 1.7268634256306838L2.3712310601229376 1.7268634256306838L2.4331029034767604 1.7474873734152916L2.4537268512613677 1.7887352689845069" stroke-width="0.03" stroke="#000000" fill="none"/>
<path d="M2.680590276892052 1.7268634256306838L2.6393423813228365 1.7474873734152916L2.5980944857536215 1.7887352689845069L2.5774705379690137 1.8506071123383299L2.5774705379690137 1.891855007907545L2.5980944857536215 1.953726851261368L2.6393423813228365 1.9949747468305832L2.680590276892052 2.015598694615191L2.7424621202458748 2.015598694615191L2.78371001581509 1.9949747468305832L2.8249579113843053 1.953726851261368L2.845581859168913 1.891855007907545L2.845581859168913 1.8506071123383299L2.8249579113843053 1.7887352689845069L2.78371001581509 1.7474873734152916L2.7424621202458748 1.7268634256306838L2.680590276892052 1.7268634256306838" stroke-width="0.03" stroke="#000000" fill="none"/>
<path d="M2.907453702522736 2.056846590184406L3.237436867076458 2.056846590184406" stroke-width="0.03" stroke="#000000" fill="none"/>
<path d="M3.2993087104302807 1.953726851261368L3.3199326582148885 1.9949747468305832L3.3818045015687113 2.015598694615191L3.443676344922534 2.015598694615191L3.5055481882763573 1.9949747468305832L3.526172136060965 1.953726851261368L3.526172136060965 1.9331029034767604L3.5055481882763573 1.891855007907545L3.464300292707142 1.8712310601229374L3.361180553784104 1.8506071123383299L3.3199326582148885 1.8299831645537221L3.2993087104302807 1.7887352689845069L3.3199326582148885 1.7474873734152916L3.3818045015687113 1.7268634256306838L3.443676344922534 1.7268634256306838L3.5055481882763573 1.7474873734152916L3.526172136060965 1.7887352689845069" stroke-width="0.03" stroke="#000000" fill="none"/>
<path d="M3.6705397705532183 1.8093592167691144L3.732411613907041 1.7474873734152916L3.773659509476256 1.7268634256306838L3.8355313528300794 1.7268634256306838L3.8767792483992944 1.7474873734152916L3.897403196183902 1.8093592167691144L3.897403196183902 2.015598694615191" stroke-width="0.03" stroke="#000000" fill="none"/>
<path d="M3.6705397705532183 2.015598694615191L3.6705397705532183 1.7268634256306838" stroke-width="0.03" stroke="#000000" fill="none"/>
<path d="M4.144890569599194 1.7268634256306838L4.103642674029978 1.7474873734152916L4.062394778460764 1.7887352689845069L4.041770830676155 1.8506071123383299L4.041770830676155 1.891855007907545L4.062394778460764 1.953726851261368L4.103642674029978 1.9949747468305832L4.144890569599194 2.015598694615191L4.206762412953017 2.015598694615191L4.2480103085222325 1.9949747468305832L4.289258204091447 1.953726851261368L4.309882151876055 1.891855007907545L4.309882151876055 1.8506071123383299L4.289258204091447 1.7887352689845069L4.2480103085222325 1.7474873734152916L4.206762412953017 1.7268634256306838L4.144890569599194 1.7268634256306838" stroke-width="0.03" stroke="#000000" fill="none"/>
<path d="M4.4336258385837 1.7268634256306838L4.516121629722131 2.015598694615191L4.5986174208605615 1.7268634256306838L4.681113211998992 2.015598694615191L4.7636090031374225 1.7268634256306838" stroke-width="0.03" stroke="#000000" fill="none"/>
<path d="M4.866728742060461 1.7268634256306838L5.011096376552715 1.7268634256306838" stroke-width="0.03" stroke="#000000" fill="none"/>
<path d="M5.031720324337321 1.5824957911384305L4.990472428768107 1.5824957911384305L4.949224533198891 1.6031197389230383L4.928600585414284 1.664991582276861L4.928600585414284 2.015598694615191" stroke-width="0.03" stroke="#000000" fill="none"/>
<path d="M5.155464011044968 2.015598694615191L5.155464011044968 1.5824957911384305" stroke-width="0.03" stroke="#000000" fill="none"/>
<path d="M5.547319018952512 1.7268634256306838L5.547319018952512 2.015598694615191" stroke-width="0.03" stroke="#000000" fill="none"/>
<path d="M5.547319018952512 1.953726851261368L5.506071123383298 1.9949747468305832L5.464823227814082 2.015598694615191L5.402951384460259 2.015598694615191L5.3617034888910435 1.9949747468305832L5.320455593321829 1.953726851261368L5.299831645537221 1.891855007907545L5.299831645537221 1.8506071123383299L5.320455593321829 1.7887352689845069L5.3617034888910435 1.7474873734152916L5.402951384460259 1.7268634256306838L5.464823227814082 1.7268634256306838L5.506071123383298 1.7474873734152916L5.547319018952512 1.7887352689845069" stroke-width="0.03" stroke="#000000" fill="none"/>
<path d="M5.712310601229374 1.9331029034767604L5.91855007907545 1.7268634256306838" stroke-width="0.03" stroke="#000000" fill="none"/>
<path d="M5.794806392367804 1.8506071123383299L5.939174026860058 2.015598694615191" stroke-width="0.03" stroke="#000000" fill="none"/>
<path d="M6.042293765783096 1.8506071123383299L6.2897811391983875 1.8506071123383299L6.2897811391983875 1.8093592167691144L6.26915719141378 1.7681113211998993L6.248533243629172 1.7474873734152916L6.207285348059957 1.7268634256306838L6.145413504706134 1.7268634256306838L6.104165609136919 1.7474873734152916L6.062917713567703 1.7887352689845069L6.042293765783096 1.8506071123383299L6.042293765783096 1.891855007907545L6.062917713567703 1.953726851261368L6.104165609136919 1.9949747468305832L6.145413504706134 2.015598694615191L6.207285348059957 2.015598694615191L6.248533243629172 1.9949747468305832L6.2897811391983875 1.953726851261368" stroke-width="0.03" stroke="#000000" fill="none"/>
<path d="M6.434148773690641 1.6856155300614688L6.434148773690641 1.664991582276861L6.454772721475249 1.6237436867076458L6.475396669259856 1.6031197389230383L6.516644564829072 1.5824957911384305L6.599140355967502 1.5824957911384305L6.640388251536717 1.6031197389230383L6.661012199321325 1.6237436867076458L6.681636147105933 1.664991582276861L6.681636147105933 1.7062394778460763L6.661012199321325 1.7474873734152916L6.61976430375211 1.8093592167691144L6.413524825906033 2.015598694615191L6.702260094890541 2.015598694615191" stroke-width="0.03" stroke="#000000" fill="none"/>
<path d="M5.712310601229374 2.015598694615191L5.712310601229374 1.5824957911384305" stroke-width="0.03" stroke="#000000" fill="none"/>
<path d="M4.460036037626487 2.7109515319598065L4.29433412835631 2.7109515319598065L4.29433412835631 2.9786238469347097" stroke-width="0.03" stroke="#000000" fill="none"/>
<path d="M4.29433412835631 2.8384145390907127L4.396304534061034 2.8384145390907127" stroke-width="0.03" stroke="#000000" fill="none"/>
<path d="M4.230602624790857 2.7109515319598065L4.064900715520679 2.7109515319598065L4.064900715520679 2.9786238469347097" stroke-width="0.03" stroke="#000000" fill="none"/>
<path d="M4.064900715520679 2.8384145390907127L4.1668711212254035 2.8384145390907127" stroke-width="0.03" stroke="#000000" fill="none"/>
<path d="M3.9501840091028635 2.7109515319598065L3.8227210019719573 2.7109515319598065L3.8099747012588665 2.825668238377622L3.8227210019719573 2.8129219376645316L3.8609599041112292 2.8001756369514412L3.899198806250501 2.8001756369514412L3.9374377083897727 2.8129219376645316L3.9629303098159543 2.8384145390907127L3.9756766105290446 2.8766534412299847L3.9756766105290446 2.902146042656166L3.9629303098159543 2.9403849447954378L3.9374377083897727 2.965877546221619L3.899198806250501 2.9786238469347097L3.8609599041112292 2.9786238469347097L3.8227210019719573 2.965877546221619L3.8099747012588665 2.953131245508528L3.797228400545776 2.927638644082347" stroke-width="0.03" stroke="#000000" fill="none"/>
<path d="M3.644272791988689 2.9786238469347097L3.644272791988689 2.7109515319598065L3.6060338898494173 2.7491904340990785L3.5805412884232357 2.761936734812169" stroke-width="0.03" stroke="#000000" fill="none"/>
<path d="M3.287376372022152 2.7109515319598065L3.287376372022152 2.9786238469347097L3.376600477013786 2.9786238469347097L3.414839379153058 2.965877546221619L3.440331980579239 2.9403849447954378L3.4530782812923295 2.9148923433692566L3.4658245820054203 2.8766534412299847L3.4658245820054203 2.8129219376645316L3.4530782812923295 2.7746830355252596L3.440331980579239 2.7491904340990785L3.414839379153058 2.7236978326728973L3.376600477013786 2.7109515319598065L3.287376372022152 2.7109515319598065" stroke-width="0.03" stroke="#000000" fill="none"/>
<path d="M3.0961818613257925 2.7109515319598065L3.057942959186521 2.7236978326728973L3.0324503577603394 2.761936734812169L3.0197040570472486 2.825668238377622L3.0197040570472486 2.8639071405168943L3.0324503577603394 2.927638644082347L3.057942959186521 2.965877546221619L3.0961818613257925 2.9786238469347097L3.1216744627519737 2.9786238469347097L3.1599133648912456 2.965877546221619L3.185405966317427 2.927638644082347L3.198152267030517 2.8639071405168943L3.198152267030517 2.825668238377622L3.185405966317427 2.761936734812169L3.1599133648912456 2.7236978326728973L3.1216744627519737 2.7109515319598065L3.0961818613257925 2.7109515319598065" stroke-width="0.03" stroke="#000000" fill="none"/>
<path d="M2.82850954635089 2.7109515319598065L2.790270644211618 2.7236978326728973L2.777524343498527 2.7491904340990785L2.777524343498527 2.7746830355252596L2.790270644211618 2.8001756369514412L2.815763245637799 2.8129219376645316L2.8667484484901617 2.825668238377622L2.9049873506294333 2.8384145390907127L2.930479952055615 2.8639071405168943L2.943226252768705 2.889399741943075L2.943226252768705 2.927638644082347L2.930479952055615 2.953131245508528L2.917733651342524 2.965877546221619L2.879494749203252 2.9786238469347097L2.82850954635089 2.9786238469347097L2.790270644211618 2.965877546221619L2.777524343498527 2.953131245508528L2.7647780427854367 2.927638644082347L2.7647780427854367 2.889399741943075L2.777524343498527 2.8639071405168943L2.8030169449247087 2.8384145390907127L2.84125584706398 2.825668238377622L2.892241049916343 2.8129219376645316L2.917733651342524 2.8001756369514412L2.930479952055615 2.7746830355252596L2.930479952055615 2.7491904340990785L2.917733651342524 2.7236978326728973L2.879494749203252 2.7109515319598065L2.82850954635089 2.7109515319598065" stroke-width="0.03" stroke="#000000" fill="none"/>
<path d="M2.5480909306628963 2.761936734812169L2.5735835320890774 2.7491904340990785L2.6118224342283494 2.7109515319598065L2.6118224342283494 2.9786238469347097" stroke-width="0.03" stroke="#000000" fill="none"/>
<path d="M2.433374224245081 2.9786238469347097L2.293164916401084 2.8001756369514412" stroke-width="0.03" stroke="#000000" fill="none"/>
<path d="M2.433374224245081 2.8001756369514412L2.293164916401084 2.9786238469347097" stroke-width="0.03" stroke="#000000" fill="none"/>
<path d="M2.1147167064178154 2.7109515319598065L2.076477804278544 2.7236978326728973L2.0509852028523623 2.761936734812169L2.038238902139272 2.825668238377622L2.038238902139272 2.8639071405168943L2.0509852028523623 2.927638644082347L2.076477804278544 2.965877546221619L2.1147167064178154 2.9786238469347097L2.140209307843997 2.9786238469347097L2.1784482099832685 2.965877546221619L2.2039408114094496 2.927638644082347L2.2166871121225404 2.8639071405168943L2.2166871121225404 2.825668238377622L2.2039408114094496 2.761936734812169L2.1784482099832685 2.7236978326728973L2.140209307843997 2.7109515319598065L2.1147167064178154 2.7109515319598065" stroke-width="0.03" stroke="#000000" fill="none"/>
<path d="M4.734375 20.53329171233538L4.734375 21.020431001964123L5.296875 21.345190528383288L5.71875 21.101620883568916" stroke-width="0.03" stroke="#000000" fill="none"/>
<path d="M5.296875 20.858051238754545L5.296875 21.345190528383288" stroke-width="0.03" stroke="#000000" fill="none"/>
</svg>
