<?xml version="1.0" standalone="no"?>
<svg width="21cm" height="29.7cm" version="1.1" xmlns="http://www.w3.org/2000/svg" viewBox="0.0 0.0 21.000001 29.700001">
<path d="M2.976562500000001 8.963733583652642L3.1171875 8.882543702047851L3.328125000000001 9.004328524455037L3.328125000000001 10.54693627494607L3.679687499999999 10.343961570934091L3.46875 10.222176748526905L3.328125000000001 10.303366630131695" stroke-width="0.03" stroke="#000000" fill="none"/>
<path d="M3.46875 10.54693627494607L5.5078125 9.369682991676598L6.210937500000001 9.775632399700552" stroke-width="0.03" stroke="#000000" fill="none"/>
<path d="M6.3515625 9.694442518095762L6.140625 9.572657695688576L6 9.653847577293366" stroke-width="0.03" stroke="#000000" fill="none"/>
<path d="M6.5625 9.572657695688576L5.3671875 10.262771689329298L5.3671875 10.42515145253888L5.6484375 10.587531215748463L5.6484375 10.99348062377242" stroke-width="0.03" stroke="#000000" fill="none"/>
<path d="M5.3671875 11.155860386982003L6 10.790505919760442L9.09375 12.576683315065846L9.375 12.414303551856264L10.0078125 12.779658019077825L10.0078125 12.942037782287407L9.1640625 13.429177071916154L10.4296875 14.159886006359274L10.5 14.11929106555688L10.570312500000002 14.159886006359274L11.835937500000002 13.429177071916154L10.9921875 12.942037782287407L10.9921875 12.779658019077825L11.625000000000002 12.414303551856264L11.90625 12.576683315065846L15.000000000000002 10.790505919760442L15.6328125 11.155860386982003L15.6328125 11.318240150191585L14.7890625 11.805379439820332" stroke-width="0.03" stroke="#000000" fill="none"/>
<path d="M14.7890625 11.72418955821554L11.976562500000002 13.347987190311363L10.9921875 12.779658019077825" stroke-width="0.03" stroke="#000000" fill="none"/>
<path d="M11.0625 12.739063078275429L11.0625 12.495493433461057L11.203125 12.414303551856264L10.640625 12.0895440254371L10.9921875 11.886569321425123L11.90625 12.414303551856264L15.6328125 10.262771689329298L15.6328125 10.42515145253888L15.351562500000002 10.587531215748463L15.351562500000002 10.99348062377242" stroke-width="0.03" stroke="#000000" fill="none"/>
<path d="M15.6328125 11.155860386982003L14.718749999999998 11.683594617413146" stroke-width="0.03" stroke="#000000" fill="none"/>
<path d="M14.648437500000002 11.64299967661075L11.835937500000002 13.266797308706572L11.835937500000002 13.9163163615449L11.484375000000002 13.713341657532922L11.835937500000002 13.510366953520945" stroke-width="0.03" stroke="#000000" fill="none"/>
<path d="M11.976562500000002 13.347987190311363L11.976562500000002 13.997506243149692L12.539062500000002 14.322265769568856L12.539062500000002 15.458924112035932L12.3984375 15.377734230431141L12.3984375 14.403455651173648L11.1328125 15.134164585616768L11.1328125 15.215354467221559L11.0625 15.255949408023953L10.5 14.931189881604789L9.9375 15.255949408023953L9.9375 16.717367276910196L9.09375 16.230227987281445L8.953125 16.311417868886238L8.953125 17.04212680332936L9.234375 17.204506566538942L9.234375 20.776861357149752L9.867187500000002 21.142215824371313L10.0078125 21.06102594276652L10.0078125 20.086747363509026" stroke-width="0.03" stroke="#000000" fill="none"/>
<path d="M9.9375 20.12734230431142L10.5 19.802582777892262L11.0625 20.12734230431142L11.203125 20.04615242270663L11.203125 16.79855715851499L10.640625 16.473797632095824L10.9921875 16.270822928083845L10.8515625 16.189633046479052L10.5 16.39260775049103L10.1484375 16.189633046479052L10.0078125 16.270822928083845L10.0078125 16.6767723361078" stroke-width="0.03" stroke="#000000" fill="none"/>
<path d="M9.9375 16.879747040119774L10.5 16.55498751370061L11.0625 16.879747040119774L12.046875 16.311417868886238L11.90625 16.230227987281445L11.0625 16.717367276910196L11.0625 15.255949408023953" stroke-width="0.03" stroke="#000000" fill="none"/>
<path d="M11.1328125 15.215354467221559L10.5 14.85L9.867187500000002 15.215354467221559L9.9375 15.255949408023953" stroke-width="0.03" stroke="#000000" fill="none"/>
<path d="M9.867187500000002 15.215354467221559L9.867187500000002 15.134164585616768L10.4296875 14.809405059197603L10.4296875 14.159886006359274" stroke-width="0.03" stroke="#000000" fill="none"/>
<path d="M10.5 14.11929106555688L10.5 14.85" stroke-width="0.03" stroke="#000000" fill="none"/>
<path d="M10.5 14.931189881604789L10.5 16.39260775049103" stroke-width="0.03" stroke="#000000" fill="none"/>
<path d="M10.5 16.55498751370061L10.5 18.909494080239554L10.2890625 19.03127890264674L10.2890625 19.68079795548507L10.359375 19.721392896287465L10.5 19.640203014682676L10.640625 19.721392896287465L10.7109375 19.68079795548507L10.7109375 19.03127890264674L10.5 18.909494080239554" stroke-width="0.03" stroke="#000000" fill="none"/>
<path d="M10.5 18.990683961844347L10.359375 19.071873843449136L10.2890625 19.03127890264674" stroke-width="0.03" stroke="#000000" fill="none"/>
<path d="M10.359375 19.071873843449136L10.359375 19.721392896287465" stroke-width="0.03" stroke="#000000" fill="none"/>
<path d="M10.5 19.883772659497048L10.218750000000002 20.04615242270663L10.1484375 20.005557481904233" stroke-width="0.03" stroke="#000000" fill="none"/>
<path d="M10.218750000000002 19.96496254110184L10.218750000000002 20.04615242270663" stroke-width="0.03" stroke="#000000" fill="none"/>
<path d="M9.9375 20.12734230431142L9.9375 16.879747040119774L8.953125 16.311417868886238" stroke-width="0.03" stroke="#000000" fill="none"/>
<path d="M8.953125 16.39260775049103L8.7421875 16.514392572898217L8.1796875 16.189633046479052L8.1796875 15.540113993640723L8.390625 15.418329171233536" stroke-width="0.03" stroke="#000000" fill="none"/>
<path d="M8.4609375 15.458924112035932L8.6015625 15.377734230431141L8.6015625 14.403455651173648L9.867187500000002 15.134164585616768" stroke-width="0.03" stroke="#000000" fill="none"/>
<path d="M10.4296875 14.809405059197603L9.1640625 14.078696124754483L9.515625 13.875721420742504L9.515625 13.713341657532922L9.1640625 13.510366953520945" stroke-width="0.03" stroke="#000000" fill="none"/>
<path d="M9.0234375 13.347987190311363L10.0078125 12.779658019077825" stroke-width="0.03" stroke="#000000" fill="none"/>
<path d="M9.9375 12.739063078275429L9.9375 12.495493433461057L9.796875 12.414303551856264L10.359375 12.0895440254371L10.0078125 11.886569321425123L9.09375 12.414303551856264L5.3671875 10.262771689329298" stroke-width="0.03" stroke="#000000" fill="none"/>
<path d="M5.6484375 10.587531215748463L4.59375 11.196455327784399L4.59375 11.44002497259877L4.382812499999999 11.561809795005958L4.382812499999999 12.779658019077825L4.734375 12.576683315065846" stroke-width="0.03" stroke="#000000" fill="none"/>
<path d="M4.734375 12.251923788646682L4.875 12.170733907041893L5.71875 12.65787319667064" stroke-width="0.03" stroke="#000000" fill="none"/>
<path d="M5.6484375 12.698468137473034L6.210937500000001 12.37370861105387L6.210937500000001 11.72418955821554L6.3515625 11.64299967661075L9.1640625 13.266797308706572L9.1640625 13.9163163615449L9.515625 13.713341657532922" stroke-width="0.03" stroke="#000000" fill="none"/>
<path d="M9.1640625 14.078696124754483L9.1640625 14.484645532778439L9.0234375 14.56583541438323L8.671875 14.362860710371251" stroke-width="0.03" stroke="#000000" fill="none"/>
<path d="M8.4609375 14.322265769568856L9.0234375 13.997506243149692L9.0234375 13.347987190311363L6.210937500000001 11.72418955821554" stroke-width="0.03" stroke="#000000" fill="none"/>
<path d="M6.28125 11.683594617413146L5.3671875 11.155860386982003L5.3671875 11.318240150191585L6.210937500000001 11.805379439820332" stroke-width="0.03" stroke="#000000" fill="none"/>
<path d="M6.210937500000001 11.967759203029914L6.140625 12.00835414383231L6.140625 12.333113670251475L5.859375000000001 12.495493433461057L5.859375000000001 12.576683315065846" stroke-width="0.03" stroke="#000000" fill="none"/>
<path d="M5.859375000000001 12.495493433461057L5.9296875 12.536088374263452" stroke-width="0.03" stroke="#000000" fill="none"/>
<path d="M6.210937500000001 12.536088374263452L6.3515625 12.45489849265866L6.3515625 12.292518729449078L6.421875 12.251923788646682L6.984375 12.576683315065846L6.984375 12.820252959880222L9.0234375 13.997506243149692" stroke-width="0.03" stroke="#000000" fill="none"/>
<path d="M9.0234375 14.159886006359274L8.4609375 14.484645532778439L5.6484375 12.860847900682616L5.6484375 12.698468137473034L8.4609375 14.322265769568856L8.4609375 15.458924112035932L7.828125 15.093569644814371L7.828125 14.768810118395209L4.734375 12.982632723089804L4.734375 12.251923788646682L5.6484375 12.779658019077825" stroke-width="0.03" stroke="#000000" fill="none"/>
<path d="M5.5078125 12.536088374263452L5.5078125 11.967759203029914L6 11.683594617413146" stroke-width="0.03" stroke="#000000" fill="none"/>
<path d="M5.859375000000001 11.602404735808353L5.5078125 11.805379439820332L5.5078125 11.64299967661075L4.9453125 11.318240150191585L4.8046875 11.399430031796376L4.8046875 11.561809795005958L4.6640625 11.64299967661075L4.6640625 11.805379439820332L5.2265625 12.130138966239496L5.3671875 12.048949084634705L5.3671875 12.45489849265866" stroke-width="0.03" stroke="#000000" fill="none"/>
<path d="M5.5078125 12.130138966239496L5.6484375 12.048949084634705L5.6484375 11.886569321425123" stroke-width="0.03" stroke="#000000" fill="none"/>
<path d="M5.5078125 11.967759203029914L5.6484375 12.048949084634705" stroke-width="0.03" stroke="#000000" fill="none"/>
<path d="M5.3671875 11.886569321425123L5.2265625 11.967759203029914L5.2265625 12.130138966239496" stroke-width="0.03" stroke="#000000" fill="none"/>
<path d="M5.2265625 11.967759203029914L4.6640625 11.64299967661075" stroke-width="0.03" stroke="#000000" fill="none"/>
<path d="M4.8046875 11.561809795005958L5.3671875 11.886569321425123L5.3671875 11.72418955821554L5.5078125 11.64299967661075" stroke-width="0.03" stroke="#000000" fill="none"/>
<path d="M5.3671875 11.72418955821554L4.8046875 11.399430031796376" stroke-width="0.03" stroke="#000000" fill="none"/>
<path d="M4.59375 11.44002497259877L3.46875 10.790505919760442L3.2578125 10.912290742167627L3.2578125 13.266797308706572L3.9609375 13.672746716730527" stroke-width="0.03" stroke="#000000" fill="none"/>
<path d="M3.9609375 13.83512647994011L3.7499999999999996 13.713341657532922L3.7499999999999996 13.55096189432334" stroke-width="0.03" stroke="#000000" fill="none"/>
<path d="M3.9609375 14.078696124754483L3.9609375 12.698468137473034L4.1015625 12.617278255868243L4.382812499999999 12.779658019077825" stroke-width="0.03" stroke="#000000" fill="none"/>
<path d="M3.9609375 12.698468137473034L7.6875 14.85L7.6875 15.905468460862282L8.0390625 16.10844316487426L8.0390625 15.458924112035932L8.25 15.337139289628746" stroke-width="0.03" stroke="#000000" fill="none"/>
<path d="M8.1796875 15.540113993640723L8.0390625 15.458924112035932" stroke-width="0.03" stroke="#000000" fill="none"/>
<path d="M8.0390625 15.702493756850306L7.6875 15.905468460862282" stroke-width="0.03" stroke="#000000" fill="none"/>
<path d="M7.6875 16.067848224071867L7.6875 16.473797632095824L8.0390625 16.6767723361078L8.0390625 16.270822928083845L7.6875 16.067848224071867" stroke-width="0.03" stroke="#000000" fill="none"/>
<path d="M8.0390625 16.270822928083845L7.6875 16.473797632095824" stroke-width="0.03" stroke="#000000" fill="none"/>
<path d="M8.1796875 16.352012809688635L8.1796875 16.75796221771259L9.09375 17.28569644814373L9.234375 17.204506566538942" stroke-width="0.03" stroke="#000000" fill="none"/>
<path d="M9.09375 17.28569644814373L9.09375 21.588760173197663L9.234375 21.507570291592874L9.234375 21.18281076517371L9.5859375 20.97983606116173" stroke-width="0.03" stroke="#000000" fill="none"/>
<path d="M9.867187500000002 21.142215824371313L9.867187500000002 20.086747363509026" stroke-width="0.03" stroke="#000000" fill="none"/>
<path d="M9.9375 20.12734230431142L9.796875 20.04615242270663L9.796875 16.79855715851499L10.359375 16.473797632095824L10.0078125 16.270822928083845" stroke-width="0.03" stroke="#000000" fill="none"/>
<path d="M9.3046875 16.352012809688635L9.3046875 16.189633046479052L9.09375 16.067848224071867L9.0234375 16.10844316487426L8.953125 16.067848224071867L8.953125 15.661898816047911L9.0234375 15.621303875245514L8.7421875 15.458924112035932L8.7421875 15.215354467221559L8.6015625 15.134164585616768" stroke-width="0.03" stroke="#000000" fill="none"/>
<path d="M8.6015625 15.29654434882635L8.7421875 15.215354467221559" stroke-width="0.03" stroke="#000000" fill="none"/>
<path d="M8.7421875 15.458924112035932L8.671875 15.499519052838329L8.671875 15.580708934443118L9.0234375 15.783683638455097L9.0234375 16.10844316487426" stroke-width="0.03" stroke="#000000" fill="none"/>
<path d="M9.09375 16.067848224071867L9.09375 15.7430886976527L9.0234375 15.702493756850306L8.953125 15.7430886976527" stroke-width="0.03" stroke="#000000" fill="none"/>
<path d="M8.953125 15.661898816047911L8.671875 15.499519052838329" stroke-width="0.03" stroke="#000000" fill="none"/>
<path d="M8.7421875 15.621303875245514L8.7421875 15.783683638455097L8.8125 15.824278579257493L8.8125 15.905468460862282L8.953125 15.986658342467075" stroke-width="0.03" stroke="#000000" fill="none"/>
<path d="M8.8125 15.824278579257493L8.1796875 16.189633046479052" stroke-width="0.03" stroke="#000000" fill="none"/>
<path d="M8.1796875 16.352012809688635L8.7421875 16.6767723361078L8.953125 16.55498751370061" stroke-width="0.03" stroke="#000000" fill="none"/>
<path d="M8.7421875 16.514392572898217L8.7421875 16.6767723361078" stroke-width="0.03" stroke="#000000" fill="none"/>
<path d="M8.53125 16.55498751370061L8.1796875 16.75796221771259" stroke-width="0.03" stroke="#000000" fill="none"/>
<path d="M9.1640625 16.270822928083845L9.3046875 16.189633046479052" stroke-width="0.03" stroke="#000000" fill="none"/>
<path d="M9.0234375 15.783683638455097L9.09375 15.7430886976527" stroke-width="0.03" stroke="#000000" fill="none"/>
<path d="M9.0234375 15.702493756850306L9.0234375 15.621303875245514" stroke-width="0.03" stroke="#000000" fill="none"/>
<path d="M9.0234375 14.56583541438323L9.0234375 14.159886006359274" stroke-width="0.03" stroke="#000000" fill="none"/>
<path d="M7.828125 14.768810118395209L7.6875 14.85" stroke-width="0.03" stroke="#000000" fill="none"/>
<path d="M6.7734375 12.942037782287407L6.984375 12.820252959880222" stroke-width="0.03" stroke="#000000" fill="none"/>
<path d="M6.914062500000001 12.779658019077825L6.7734375 12.860847900682616L6.210937500000001 12.536088374263452L6.210937500000001 12.617278255868243L6.7734375 12.942037782287407L6.7734375 12.860847900682616" stroke-width="0.03" stroke="#000000" fill="none"/>
<path d="M6.914062500000001 12.779658019077825L6.914062500000001 12.617278255868243L6.984375 12.576683315065846" stroke-width="0.03" stroke="#000000" fill="none"/>
<path d="M6.914062500000001 12.617278255868243L6.3515625 12.292518729449078" stroke-width="0.03" stroke="#000000" fill="none"/>
<path d="M6.140625 12.333113670251475L6.914062500000001 12.779658019077825" stroke-width="0.03" stroke="#000000" fill="none"/>
<path d="M6.210937500000001 12.048949084634705L6.140625 12.00835414383231" stroke-width="0.03" stroke="#000000" fill="none"/>
<path d="M5.3671875 11.237050268586794L5.0859375 11.399430031796376" stroke-width="0.03" stroke="#000000" fill="none"/>
<path d="M4.59375 11.196455327784399L3.46875 10.54693627494607L3.46875 10.790505919760442" stroke-width="0.03" stroke="#000000" fill="none"/>
<path d="M3.328125000000001 10.709316038155652L3.46875 10.62812615655086" stroke-width="0.03" stroke="#000000" fill="none"/>
<path d="M3.328125000000001 10.709316038155652L3.328125000000001 10.871695801365235" stroke-width="0.03" stroke="#000000" fill="none"/>
<path d="M3.2578125 10.912290742167627L4.382812499999999 11.561809795005958" stroke-width="0.03" stroke="#000000" fill="none"/>
<path d="M4.8046875 11.886569321425123L4.8046875 12.211328847844287" stroke-width="0.03" stroke="#000000" fill="none"/>
<path d="M3.2578125 12.292518729449078L3.046875 12.414303551856264L3.046875 12.739063078275429L3.2578125 12.860847900682616" stroke-width="0.03" stroke="#000000" fill="none"/>
<path d="M3.046875 12.739063078275429L2.34375 13.145012486299386L3.9609375 14.078696124754483" stroke-width="0.03" stroke="#000000" fill="none"/>
<path d="M3.2578125 12.536088374263452L3.046875 12.414303551856264" stroke-width="0.03" stroke="#000000" fill="none"/>
<path d="M3.2578125 11.72418955821554L2.34375 12.251923788646682L2.203125 12.170733907041893L2.203125 13.063822604694593L1.7109375000000002 12.779658019077825L1.7109375000000002 15.052974704011977L3.9609375 16.352012809688635L3.9609375 18.38175984980841L4.171875 18.5035446722156L4.171875 18.747114317029972L5.9296875 19.761987837089862L5.9296875 22.360064048443178L7.898437500000001 23.496722390910254L8.390625 23.212557805293486" stroke-width="0.03" stroke="#000000" fill="none"/>
<path d="M8.671875 23.212557805293486L9.5859375 22.684823574862342" stroke-width="0.03" stroke="#000000" fill="none"/>
<path d="M9.7265625 22.76601345646713L8.671875 23.374937568503068L7.898437500000001 22.928393219676718L7.898437500000001 23.496722390910254" stroke-width="0.03" stroke="#000000" fill="none"/>
<path d="M7.898437500000001 22.76601345646713L8.6015625 22.360064048443178L8.8828125 22.52244381165276L9.09375 22.400658989245574" stroke-width="0.03" stroke="#000000" fill="none"/>
<path d="M8.8828125 22.27887416683839L8.8828125 22.52244381165276" stroke-width="0.03" stroke="#000000" fill="none"/>
<path d="M8.6015625 22.360064048443178L8.6015625 22.116494403628806" stroke-width="0.03" stroke="#000000" fill="none"/>
<path d="M8.25 21.913519699616828L8.25 21.101620883568916" stroke-width="0.03" stroke="#000000" fill="none"/>
<path d="M8.109375 21.020431001964123L8.109375 21.2640006467785L8.25 21.345190528383288" stroke-width="0.03" stroke="#000000" fill="none"/>
<path d="M7.898437500000001 20.898646179556938L7.898437500000001 22.76601345646713L8.671875 23.212557805293486L8.671875 23.374937568503068" stroke-width="0.03" stroke="#000000" fill="none"/>
<path d="M9.0234375 23.983861680539L10.359375 23.212557805293486L10.0078125 23.009583101281507L10.078125 22.96898816047911" stroke-width="0.03" stroke="#000000" fill="none"/>
<path d="M10.0078125 23.009583101281507L10.0078125 23.253152746095882L10.1484375 23.33434262770067" stroke-width="0.03" stroke="#000000" fill="none"/>
<path d="M10.2890625 23.090772982886296L10.5 22.96898816047911L10.7109375 23.090772982886296L12.75 21.913519699616828L12.75 21.101620883568916" stroke-width="0.03" stroke="#000000" fill="none"/>
<path d="M12.890625000000002 21.020431001964123L12.890625000000002 21.2640006467785L12.75 21.345190528383288" stroke-width="0.03" stroke="#000000" fill="none"/>
<path d="M13.1015625 20.898646179556938L11.90625 21.588760173197663L11.765625 21.507570291592874L11.765625 21.18281076517371L11.4140625 20.97983606116173" stroke-width="0.03" stroke="#000000" fill="none"/>
<path d="M11.1328125 21.142215824371313L11.765625 20.776861357149752L11.765625 17.204506566538942L12.046875 17.04212680332936L12.046875 16.311417868886238" stroke-width="0.03" stroke="#000000" fill="none"/>
<path d="M12.046875 16.39260775049103L12.2578125 16.514392572898217L12.8203125 16.189633046479052L12.8203125 15.540113993640723L12.609375 15.418329171233536" stroke-width="0.03" stroke="#000000" fill="none"/>
<path d="M12.539062500000002 15.458924112035932L13.171875 15.093569644814371L13.171875 14.768810118395209L16.265625 12.982632723089804L16.265625 12.251923788646682L16.125 12.170733907041893L15.28125 12.65787319667064" stroke-width="0.03" stroke="#000000" fill="none"/>
<path d="M15.351562500000002 12.698468137473034L12.539062500000002 14.322265769568856" stroke-width="0.03" stroke="#000000" fill="none"/>
<path d="M12.539062500000002 14.484645532778439L15.351562500000002 12.860847900682616L15.351562500000002 12.698468137473034L14.7890625 12.37370861105387L14.7890625 11.72418955821554L14.648437500000002 11.64299967661075" stroke-width="0.03" stroke="#000000" fill="none"/>
<path d="M14.7890625 11.967759203029914L14.859375 12.00835414383231L14.859375 12.333113670251475L15.140625 12.495493433461057L15.140625 12.576683315065846" stroke-width="0.03" stroke="#000000" fill="none"/>
<path d="M15.070312500000002 12.536088374263452L15.140625 12.495493433461057" stroke-width="0.03" stroke="#000000" fill="none"/>
<path d="M14.859375 12.333113670251475L14.0859375 12.779658019077825L14.0859375 12.617278255868243L14.015625 12.576683315065846L14.578125 12.251923788646682L14.648437500000002 12.292518729449078L14.648437500000002 12.45489849265866L14.7890625 12.536088374263452L14.7890625 12.617278255868243L14.2265625 12.942037782287407L14.015625 12.820252959880222L11.976562500000002 13.997506243149692" stroke-width="0.03" stroke="#000000" fill="none"/>
<path d="M11.835937500000002 14.078696124754483L10.570312500000002 14.809405059197603L11.1328125 15.134164585616768" stroke-width="0.03" stroke="#000000" fill="none"/>
<path d="M10.570312500000002 14.809405059197603L10.570312500000002 14.159886006359274" stroke-width="0.03" stroke="#000000" fill="none"/>
<path d="M11.484375000000002 13.875721420742504L11.484375000000002 13.713341657532922" stroke-width="0.03" stroke="#000000" fill="none"/>
<path d="M11.484375000000002 13.875721420742504L11.835937500000002 14.078696124754483L11.835937500000002 14.484645532778439L11.976562500000002 14.56583541438323L12.328125000000002 14.362860710371251" stroke-width="0.03" stroke="#000000" fill="none"/>
<path d="M12.539062500000002 14.484645532778439L11.976562500000002 14.159886006359274L11.976562500000002 14.56583541438323" stroke-width="0.03" stroke="#000000" fill="none"/>
<path d="M12.3984375 15.134164585616768L12.2578125 15.215354467221559L12.2578125 15.458924112035932L11.976562500000002 15.621303875245514L11.976562500000002 15.702493756850306L12.046875 15.7430886976527" stroke-width="0.03" stroke="#000000" fill="none"/>
<path d="M11.976562500000002 15.702493756850306L11.90625 15.7430886976527L11.90625 16.067848224071867L11.6953125 16.189633046479052L11.6953125 16.352012809688635" stroke-width="0.03" stroke="#000000" fill="none"/>
<path d="M11.6953125 16.189633046479052L11.835937500000002 16.270822928083845" stroke-width="0.03" stroke="#000000" fill="none"/>
<path d="M11.90625 16.067848224071867L11.976562500000002 16.10844316487426L12.046875 16.067848224071867L12.046875 15.661898816047911L11.976562500000002 15.621303875245514" stroke-width="0.03" stroke="#000000" fill="none"/>
<path d="M12.046875 15.661898816047911L12.328125000000002 15.499519052838329L12.328125000000002 15.580708934443118L11.976562500000002 15.783683638455097L11.976562500000002 16.10844316487426" stroke-width="0.03" stroke="#000000" fill="none"/>
<path d="M12.046875 15.986658342467075L12.187500000000002 15.905468460862282L12.187500000000002 15.824278579257493L12.2578125 15.783683638455097L12.2578125 15.621303875245514" stroke-width="0.03" stroke="#000000" fill="none"/>
<path d="M12.328125000000002 15.499519052838329L12.2578125 15.458924112035932" stroke-width="0.03" stroke="#000000" fill="none"/>
<path d="M12.3984375 15.29654434882635L12.2578125 15.215354467221559" stroke-width="0.03" stroke="#000000" fill="none"/>
<path d="M12.75 15.337139289628746L12.9609375 15.458924112035932L12.9609375 16.10844316487426L13.3125 15.905468460862282L13.3125 14.85L17.0390625 12.698468137473034L16.8984375 12.617278255868243L16.617187500000004 12.779658019077825L16.265625 12.576683315065846" stroke-width="0.03" stroke="#000000" fill="none"/>
<path d="M16.265625 12.251923788646682L15.351562500000002 12.779658019077825" stroke-width="0.03" stroke="#000000" fill="none"/>
<path d="M15.4921875 12.536088374263452L15.4921875 11.967759203029914L15.000000000000002 11.683594617413146" stroke-width="0.03" stroke="#000000" fill="none"/>
<path d="M15.140625 11.602404735808353L15.4921875 11.805379439820332L15.4921875 11.64299967661075L16.0546875 11.318240150191585L16.1953125 11.399430031796376L16.1953125 11.561809795005958L15.6328125 11.886569321425123L15.6328125 11.72418955821554L16.1953125 11.399430031796376" stroke-width="0.03" stroke="#000000" fill="none"/>
<path d="M16.1953125 11.561809795005958L16.3359375 11.64299967661075L16.3359375 11.805379439820332L15.773437500000002 12.130138966239496L15.6328125 12.048949084634705L15.6328125 12.45489849265866" stroke-width="0.03" stroke="#000000" fill="none"/>
<path d="M15.4921875 12.130138966239496L15.351562500000002 12.048949084634705L15.351562500000002 11.886569321425123" stroke-width="0.03" stroke="#000000" fill="none"/>
<path d="M15.4921875 11.967759203029914L15.351562500000002 12.048949084634705" stroke-width="0.03" stroke="#000000" fill="none"/>
<path d="M15.6328125 11.886569321425123L15.773437500000002 11.967759203029914L16.3359375 11.64299967661075" stroke-width="0.03" stroke="#000000" fill="none"/>
<path d="M16.40625 11.44002497259877L17.53125 10.790505919760442L17.7421875 10.912290742167627L17.7421875 13.266797308706572L17.0390625 13.672746716730527" stroke-width="0.03" stroke="#000000" fill="none"/>
<path d="M17.0390625 13.83512647994011L17.25 13.713341657532922L17.25 13.55096189432334" stroke-width="0.03" stroke="#000000" fill="none"/>
<path d="M17.0390625 14.078696124754483L18.656250000000004 13.145012486299386L18.656250000000004 12.251923788646682L18.796875 12.170733907041893L17.7421875 11.561809795005958" stroke-width="0.03" stroke="#000000" fill="none"/>
<path d="M17.7421875 11.72418955821554L18.656250000000004 12.251923788646682" stroke-width="0.03" stroke="#000000" fill="none"/>
<path d="M18.796875 12.170733907041893L18.796875 13.063822604694593L19.289062500000004 12.779658019077825L19.289062500000004 15.052974704011977L17.0390625 16.352012809688635L17.0390625 18.38175984980841L16.828125 18.5035446722156L16.828125 18.747114317029972L15.070312500000002 19.761987837089862L15.070312500000002 22.360064048443178L13.1015625 23.496722390910254L12.609375 23.212557805293486" stroke-width="0.03" stroke="#000000" fill="none"/>
<path d="M12.328125000000002 23.212557805293486L13.1015625 22.76601345646713L13.1015625 20.898646179556938" stroke-width="0.03" stroke="#000000" fill="none"/>
<path d="M11.765625 21.18281076517371L10.7109375 21.79173487720964L10.7109375 23.090772982886296" stroke-width="0.03" stroke="#000000" fill="none"/>
<path d="M10.640625 23.050178042083903L10.5 23.131367923688696L10.359375 23.050178042083903" stroke-width="0.03" stroke="#000000" fill="none"/>
<path d="M10.2890625 23.090772982886296L10.2890625 21.79173487720964L10.5 21.669950054802452L10.7109375 21.79173487720964" stroke-width="0.03" stroke="#000000" fill="none"/>
<path d="M10.5 21.669950054802452L10.5 22.96898816047911" stroke-width="0.03" stroke="#000000" fill="none"/>
<path d="M10.2890625 23.090772982886296L8.25 21.913519699616828" stroke-width="0.03" stroke="#000000" fill="none"/>
<path d="M9.09375 21.588760173197663L7.898437500000001 20.898646179556938" stroke-width="0.03" stroke="#000000" fill="none"/>
<path d="M9.234375 21.18281076517371L10.2890625 21.79173487720964" stroke-width="0.03" stroke="#000000" fill="none"/>
<path d="M10.359375 21.507570291592874L10.5 21.42638040998808L10.5 20.776861357149752L10.359375 20.858051238754545L10.359375 21.507570291592874L10.218750000000002 21.42638040998808L10.218750000000002 20.776861357149752L10.359375 20.69567147554496L10.0078125 20.492696771532984" stroke-width="0.03" stroke="#000000" fill="none"/>
<path d="M10.0078125 20.330317008323398L10.5 20.61448159394017L10.9921875 20.330317008323398" stroke-width="0.03" stroke="#000000" fill="none"/>
<path d="M10.9921875 20.492696771532984L10.640625 20.69567147554496L10.78125 20.776861357149752L10.78125 21.42638040998808L10.640625 21.507570291592874L10.5 21.42638040998808" stroke-width="0.03" stroke="#000000" fill="none"/>
<path d="M10.640625 21.507570291592874L10.640625 20.858051238754545L10.78125 20.776861357149752" stroke-width="0.03" stroke="#000000" fill="none"/>
<path d="M10.640625 20.858051238754545L10.5 20.776861357149752" stroke-width="0.03" stroke="#000000" fill="none"/>
<path d="M10.5 20.61448159394017L10.5 20.452101830730584L10.359375 20.53329171233538" stroke-width="0.03" stroke="#000000" fill="none"/>
<path d="M10.5 20.452101830730584L10.640625 20.53329171233538" stroke-width="0.03" stroke="#000000" fill="none"/>
<path d="M10.359375 20.858051238754545L10.218750000000002 20.776861357149752" stroke-width="0.03" stroke="#000000" fill="none"/>
<path d="M9.9375 21.101620883568916L10.218750000000002 21.2640006467785" stroke-width="0.03" stroke="#000000" fill="none"/>
<path d="M10.78125 21.2640006467785L11.0625 21.101620883568916" stroke-width="0.03" stroke="#000000" fill="none"/>
<path d="M10.9921875 21.06102594276652L10.9921875 20.086747363509026" stroke-width="0.03" stroke="#000000" fill="none"/>
<path d="M11.0625 20.12734230431142L11.0625 16.879747040119774" stroke-width="0.03" stroke="#000000" fill="none"/>
<path d="M10.9921875 16.6767723361078L10.9921875 16.270822928083845" stroke-width="0.03" stroke="#000000" fill="none"/>
<path d="M11.90625 15.7430886976527L11.976562500000002 15.783683638455097" stroke-width="0.03" stroke="#000000" fill="none"/>
<path d="M12.187500000000002 15.824278579257493L12.8203125 16.189633046479052" stroke-width="0.03" stroke="#000000" fill="none"/>
<path d="M12.8203125 16.352012809688635L12.2578125 16.6767723361078L12.046875 16.55498751370061" stroke-width="0.03" stroke="#000000" fill="none"/>
<path d="M12.2578125 16.514392572898217L12.2578125 16.6767723361078" stroke-width="0.03" stroke="#000000" fill="none"/>
<path d="M12.46875 16.55498751370061L12.8203125 16.75796221771259L11.90625 17.28569644814373L11.765625 17.204506566538942" stroke-width="0.03" stroke="#000000" fill="none"/>
<path d="M11.90625 17.28569644814373L11.90625 21.588760173197663" stroke-width="0.03" stroke="#000000" fill="none"/>
<path d="M12.3984375 22.116494403628806L12.3984375 22.360064048443178L12.1171875 22.52244381165276L11.90625 22.400658989245574" stroke-width="0.03" stroke="#000000" fill="none"/>
<path d="M12.1171875 22.27887416683839L12.1171875 22.52244381165276" stroke-width="0.03" stroke="#000000" fill="none"/>
<path d="M12.3984375 22.360064048443178L13.1015625 22.76601345646713" stroke-width="0.03" stroke="#000000" fill="none"/>
<path d="M13.1015625 22.928393219676718L12.328125000000002 23.374937568503068L11.273437500000002 22.76601345646713" stroke-width="0.03" stroke="#000000" fill="none"/>
<path d="M11.4140625 22.684823574862342L12.328125000000002 23.212557805293486L12.328125000000002 23.374937568503068" stroke-width="0.03" stroke="#000000" fill="none"/>
<path d="M11.976562500000002 23.983861680539L11.835937500000002 24.06505156214379L10.5 23.293747686898275L9.1640625 24.06505156214379L9.0234375 23.983861680539L9.0234375 24.227431325353376L9.1640625 24.308621206958165L10.5 23.53731733171265L11.835937500000002 24.308621206958165L11.976562500000002 24.227431325353376L11.976562500000002 23.983861680539L10.640625 23.212557805293486L10.9921875 23.009583101281507L10.921875000000002 22.96898816047911" stroke-width="0.03" stroke="#000000" fill="none"/>
<path d="M10.9921875 23.009583101281507L10.9921875 23.253152746095882L10.8515625 23.33434262770067" stroke-width="0.03" stroke="#000000" fill="none"/>
<path d="M10.5 23.293747686898275L10.5 23.53731733171265" stroke-width="0.03" stroke="#000000" fill="none"/>
<path d="M9.1640625 24.06505156214379L9.1640625 24.308621206958165" stroke-width="0.03" stroke="#000000" fill="none"/>
<path d="M11.835937500000002 24.308621206958165L11.835937500000002 24.06505156214379" stroke-width="0.03" stroke="#000000" fill="none"/>
<path d="M13.1015625 23.496722390910254L13.1015625 22.928393219676718" stroke-width="0.03" stroke="#000000" fill="none"/>
<path d="M15.070312500000002 21.62935511400006L15.984375 21.101620883568916L15.984375 20.69567147554496L15.6328125 20.492696771532984L15.6328125 20.898646179556938L15.984375 20.69567147554496" stroke-width="0.03" stroke="#000000" fill="none"/>
<path d="M15.843750000000002 20.61448159394017L16.546875 20.208532185916212L16.546875 19.640203014682676L16.3359375 19.761987837089862L16.1953125 19.68079795548507L16.1953125 19.112468784251533" stroke-width="0.03" stroke="#000000" fill="none"/>
<path d="M16.3359375 19.03127890264674L16.3359375 19.761987837089862" stroke-width="0.03" stroke="#000000" fill="none"/>
<path d="M16.40625 19.721392896287465L16.40625 19.802582777892262L16.546875 19.883772659497048L17.671875 19.23425360665872L17.671875 18.990683961844347L17.882812500000004 18.86889913943716L17.882812500000004 17.569861033760503L17.7421875 17.48867115215571L17.671875 17.529266092958107" stroke-width="0.03" stroke="#000000" fill="none"/>
<path d="M17.671875 17.448076211353314L17.0390625 17.813430678574875" stroke-width="0.03" stroke="#000000" fill="none"/>
<path d="M17.0390625 17.651050915365293L17.53125 17.366886329748525L17.671875 17.448076211353314L17.671875 17.69164585616769L18.1640625 17.407481270550917L18.1640625 16.59558245450301" stroke-width="0.03" stroke="#000000" fill="none"/>
<path d="M18.3046875 16.6767723361078L18.656250000000004 16.473797632095824L18.656250000000004 15.418329171233536" stroke-width="0.03" stroke="#000000" fill="none"/>
<path d="M17.953125000000004 15.824278579257493L17.953125000000004 16.79855715851499" stroke-width="0.03" stroke="#000000" fill="none"/>
<path d="M18.09375 16.879747040119774L17.53125 17.204506566538942L17.53125 17.28569644814373L17.25 17.123316684934153L17.25 17.04212680332936L17.8125 16.717367276910196L18.09375 16.879747040119774L18.09375 16.960936921724567L17.53125 17.28569644814373" stroke-width="0.03" stroke="#000000" fill="none"/>
<path d="M17.53125 17.204506566538942L17.25 17.04212680332936" stroke-width="0.03" stroke="#000000" fill="none"/>
<path d="M17.0390625 16.83915209931738L15.4921875 17.732240796970082L15.4921875 19.51841819227549" stroke-width="0.03" stroke="#000000" fill="none"/>
<path d="M15.773437500000002 19.59960807388028L15.843750000000002 19.559013133077883L16.125 19.721392896287465L16.125 20.370911949125794L16.0546875 20.41150688992819L15.773437500000002 20.249127126718612L15.773437500000002 19.59960807388028L16.0546875 19.761987837089862L16.0546875 20.41150688992819" stroke-width="0.03" stroke="#000000" fill="none"/>
<path d="M15.9140625 20.330317008323398L15.070312500000002 20.81745629795215" stroke-width="0.03" stroke="#000000" fill="none"/>
<path d="M16.125 20.208532185916212L16.546875 19.96496254110184" stroke-width="0.03" stroke="#000000" fill="none"/>
<path d="M16.617187500000004 19.843177718694655L17.109375 20.12734230431142L17.25 20.04615242270663L17.25 19.477823251473097" stroke-width="0.03" stroke="#000000" fill="none"/>
<path d="M17.109375 19.559013133077883L17.109375 20.12734230431142" stroke-width="0.03" stroke="#000000" fill="none"/>
<path d="M16.265625 20.12734230431142L16.265625 20.370911949125794" stroke-width="0.03" stroke="#000000" fill="none"/>
<path d="M16.0546875 19.761987837089862L16.125 19.721392896287465" stroke-width="0.03" stroke="#000000" fill="none"/>
<path d="M15.4921875 19.03127890264674L16.617187500000004 18.38175984980841L16.617187500000004 17.082721744131756" stroke-width="0.03" stroke="#000000" fill="none"/>
<path d="M16.40625 17.204506566538942L16.40625 18.259975027401225L15.4921875 18.78770925783237" stroke-width="0.03" stroke="#000000" fill="none"/>
<path d="M15.4921875 18.625329494622786L16.1953125 18.219380086598832L16.1953125 18.13819020499404L16.265625 18.097595264191643L16.265625 17.28569644814373" stroke-width="0.03" stroke="#000000" fill="none"/>
<path d="M16.40625 18.259975027401225L16.617187500000004 18.38175984980841" stroke-width="0.03" stroke="#000000" fill="none"/>
<path d="M17.882812500000004 18.38175984980841L18.375 18.097595264191643L18.375 17.93521550098206L17.882812500000004 17.651050915365293" stroke-width="0.03" stroke="#000000" fill="none"/>
<path d="M17.953125000000004 17.529266092958107L17.953125000000004 17.04212680332936" stroke-width="0.03" stroke="#000000" fill="none"/>
<path d="M17.953125000000004 17.204506566538942L18.1640625 17.082721744131756" stroke-width="0.03" stroke="#000000" fill="none"/>
<path d="M18.3046875 16.6767723361078L18.3046875 16.270822928083845L17.953125000000004 16.473797632095824L18.3046875 16.6767723361078" stroke-width="0.03" stroke="#000000" fill="none"/>
<path d="M18.375 17.93521550098206L17.882812500000004 18.219380086598832" stroke-width="0.03" stroke="#000000" fill="none"/>
<path d="M17.0390625 14.078696124754483L17.0390625 12.698468137473034" stroke-width="0.03" stroke="#000000" fill="none"/>
<path d="M16.617187500000004 12.779658019077825L16.617187500000004 11.561809795005958L17.7421875 10.912290742167627" stroke-width="0.03" stroke="#000000" fill="none"/>
<path d="M17.671875 10.871695801365235L17.671875 10.709316038155652L17.53125 10.62812615655086" stroke-width="0.03" stroke="#000000" fill="none"/>
<path d="M17.53125 10.54693627494607L16.40625 11.196455327784399L16.40625 11.44002497259877L16.617187500000004 11.561809795005958" stroke-width="0.03" stroke="#000000" fill="none"/>
<path d="M16.40625 11.196455327784399L15.351562500000002 10.587531215748463" stroke-width="0.03" stroke="#000000" fill="none"/>
<path d="M15.6328125 10.262771689329298L14.437500000000002 9.572657695688576L16.0546875 8.638974057233478L16.828125 9.085518406059828L16.96875 9.004328524455037L16.96875 10.222176748526905" stroke-width="0.03" stroke="#000000" fill="none"/>
<path d="M16.828125 10.140986866922113L16.828125 9.085518406059828" stroke-width="0.03" stroke="#000000" fill="none"/>
<path d="M16.96875 9.004328524455037L16.1953125 8.557784175628687L16.6875 8.273619590011917L14.718749999999998 7.136961247544841L12.46875 8.435999353221499L10.7109375 7.421125833161611L10.5 7.542910655568797L10.2890625 7.421125833161611L8.53125 8.435999353221499L6.28125 7.136961247544841L4.3125 8.273619590011917L4.3125 8.841948761245455" stroke-width="0.03" stroke="#000000" fill="none"/>
<path d="M4.171875 9.085518406059828L4.9453125 8.638974057233478L6.5625 9.572657695688576" stroke-width="0.03" stroke="#000000" fill="none"/>
<path d="M5.15625 9.572657695688576L4.9453125 9.450872873281389L4.9453125 8.638974057233478" stroke-width="0.03" stroke="#000000" fill="none"/>
<path d="M4.8046875 8.557784175628687L4.03125 9.004328524455037L4.03125 10.222176748526905" stroke-width="0.03" stroke="#000000" fill="none"/>
<path d="M4.171875 10.140986866922113L4.171875 9.085518406059828L4.03125 9.004328524455037" stroke-width="0.03" stroke="#000000" fill="none"/>
<path d="M3.328125000000001 9.004328524455037L3.1874999999999996 9.085518406059828L2.976562500000001 8.963733583652642L2.976562500000001 10.506341334143674L3.1874999999999996 10.62812615655086L3.1874999999999996 9.085518406059828" stroke-width="0.03" stroke="#000000" fill="none"/>
<path d="M3.679687499999999 10.343961570934091L3.679687499999999 10.42515145253888" stroke-width="0.03" stroke="#000000" fill="none"/>
<path d="M3.1874999999999996 10.62812615655086L1.8515625 11.399430031796376L1.8515625 11.561809795005958L3.1874999999999996 10.790505919760442L3.1874999999999996 11.196455327784399L2.976562500000001 11.074670505377211L2.976562500000001 10.912290742167627" stroke-width="0.03" stroke="#000000" fill="none"/>
<path d="M3.1874999999999996 11.196455327784399L3.2578125 11.155860386982003" stroke-width="0.03" stroke="#000000" fill="none"/>
<path d="M3.2578125 11.561809795005958L2.203125 12.170733907041893" stroke-width="0.03" stroke="#000000" fill="none"/>
<path d="M2.34375 12.251923788646682L2.34375 13.145012486299386" stroke-width="0.03" stroke="#000000" fill="none"/>
<path d="M2.203125 12.495493433461057L1.7109375000000002 12.779658019077825" stroke-width="0.03" stroke="#000000" fill="none"/>
<path d="M1.8515625 11.561809795005958L1.6406249999999998 11.44002497259877L1.6406249999999998 11.277645209389188L2.976562500000001 10.506341334143674" stroke-width="0.03" stroke="#000000" fill="none"/>
<path d="M1.8515625 11.399430031796376L1.6406249999999998 11.277645209389188" stroke-width="0.03" stroke="#000000" fill="none"/>
<path d="M4.6640625 9.856822281305345L4.6640625 9.613252636490971L4.9453125 9.450872873281389" stroke-width="0.03" stroke="#000000" fill="none"/>
<path d="M4.875 9.735037458898159L4.6640625 9.613252636490971" stroke-width="0.03" stroke="#000000" fill="none"/>
<path d="M4.8046875 8.557784175628687L4.3125 8.273619590011917" stroke-width="0.03" stroke="#000000" fill="none"/>
<path d="M6.914062500000001 7.502315714766402L7.828125 6.974581484335259L8.1796875 7.177556188347237L8.1796875 7.583505596371193L7.828125 7.380530892359214L8.1796875 7.177556188347237" stroke-width="0.03" stroke="#000000" fill="none"/>
<path d="M8.1796875 7.33993595155682L8.8828125 6.933986543532863L9.375 7.218151129149632L9.1640625 7.33993595155682L9.1640625 7.502315714766402L9.65625 7.78648030038317" stroke-width="0.03" stroke="#000000" fill="none"/>
<path d="M9.796875 7.705290418778379L9.1640625 7.33993595155682" stroke-width="0.03" stroke="#000000" fill="none"/>
<path d="M9.1640625 7.2587460699520285L9.1640625 7.096366306742446L10.2890625 6.446847253904116L10.5 6.568632076311303L10.7109375 6.446847253904116L11.835937500000002 7.096366306742446L11.835937500000002 7.2587460699520285L11.765625 7.299341010754423" stroke-width="0.03" stroke="#000000" fill="none"/>
<path d="M11.835937500000002 7.33993595155682L11.203125 7.705290418778379" stroke-width="0.03" stroke="#000000" fill="none"/>
<path d="M11.34375 7.78648030038317L11.835937500000002 7.502315714766402L11.835937500000002 7.33993595155682L11.625000000000002 7.218151129149632L12.1171875 6.933986543532863L12.8203125 7.33993595155682" stroke-width="0.03" stroke="#000000" fill="none"/>
<path d="M12.8203125 7.177556188347237L13.171875 6.974581484335259L14.0859375 7.502315714766402" stroke-width="0.03" stroke="#000000" fill="none"/>
<path d="M13.382812500000002 7.9082651227903575L12.539062500000002 7.421125833161611" stroke-width="0.03" stroke="#000000" fill="none"/>
<path d="M12.539062500000002 7.2587460699520285L11.976562500000002 7.583505596371193L11.90625 7.542910655568797L11.90625 7.867670181987961L11.976562500000002 7.9082651227903575L12.539062500000002 7.583505596371193L12.539062500000002 7.2587460699520285L12.46875 7.218151129149632L11.90625 7.542910655568797" stroke-width="0.03" stroke="#000000" fill="none"/>
<path d="M11.976562500000002 7.583505596371193L11.976562500000002 7.9082651227903575" stroke-width="0.03" stroke="#000000" fill="none"/>
<path d="M12.046875 8.192429708407126L10.5 9.085518406059828L8.953125 8.192429708407126" stroke-width="0.03" stroke="#000000" fill="none"/>
<path d="M9.0234375 7.9082651227903575L9.09375 7.867670181987961L9.09375 7.542910655568797L8.53125 7.218151129149632L8.4609375 7.2587460699520285L8.4609375 7.583505596371193L9.0234375 7.9082651227903575L9.0234375 7.583505596371193L9.09375 7.542910655568797" stroke-width="0.03" stroke="#000000" fill="none"/>
<path d="M9.0234375 7.583505596371193L8.4609375 7.2587460699520285" stroke-width="0.03" stroke="#000000" fill="none"/>
<path d="M8.4609375 7.421125833161611L7.6171875 7.9082651227903575" stroke-width="0.03" stroke="#000000" fill="none"/>
<path d="M8.671875 7.299341010754423L9.09375 7.05577136594005" stroke-width="0.03" stroke="#000000" fill="none"/>
<path d="M9.234375 7.05577136594005L9.234375 6.487442194706512L9.375 6.406252313101721L9.867187500000002 6.69041689871849" stroke-width="0.03" stroke="#000000" fill="none"/>
<path d="M9.7265625 6.771606780323281L9.234375 6.487442194706512" stroke-width="0.03" stroke="#000000" fill="none"/>
<path d="M9.1640625 7.2587460699520285L9.234375 7.299341010754423" stroke-width="0.03" stroke="#000000" fill="none"/>
<path d="M8.8125 7.218151129149632L8.6015625 7.096366306742446" stroke-width="0.03" stroke="#000000" fill="none"/>
<path d="M9.375 8.435999353221499L10.5 7.78648030038317L11.625000000000002 8.435999353221499" stroke-width="0.03" stroke="#000000" fill="none"/>
<path d="M11.4140625 8.557784175628687L10.5 8.030049945197543L10.5 7.78648030038317" stroke-width="0.03" stroke="#000000" fill="none"/>
<path d="M10.5 8.030049945197543L9.5859375 8.557784175628687" stroke-width="0.03" stroke="#000000" fill="none"/>
<path d="M9.7265625 8.638974057233478L10.4296875 8.233024649209522L10.5 8.273619590011917L10.570312500000002 8.233024649209522L11.273437500000002 8.638974057233478" stroke-width="0.03" stroke="#000000" fill="none"/>
<path d="M11.765625 7.05577136594005L11.765625 6.487442194706512L11.625000000000002 6.406252313101721L11.1328125 6.69041689871849" stroke-width="0.03" stroke="#000000" fill="none"/>
<path d="M11.273437500000002 6.771606780323281L11.765625 6.487442194706512" stroke-width="0.03" stroke="#000000" fill="none"/>
<path d="M11.90625 7.05577136594005L12.328125000000002 7.299341010754423" stroke-width="0.03" stroke="#000000" fill="none"/>
<path d="M12.187500000000002 7.218151129149632L12.3984375 7.096366306742446" stroke-width="0.03" stroke="#000000" fill="none"/>
<path d="M12.8203125 7.177556188347237L12.8203125 7.583505596371193L13.171875 7.380530892359214L12.8203125 7.177556188347237" stroke-width="0.03" stroke="#000000" fill="none"/>
<path d="M14.648437500000002 9.694442518095762L14.859375 9.572657695688576L15.000000000000002 9.653847577293366" stroke-width="0.03" stroke="#000000" fill="none"/>
<path d="M14.7890625 9.775632399700552L15.4921875 9.369682991676598L17.53125 10.54693627494607L17.53125 10.790505919760442" stroke-width="0.03" stroke="#000000" fill="none"/>
<path d="M17.671875 10.54693627494607L17.671875 9.004328524455037L17.882812500000004 8.882543702047851L18.0234375 8.963733583652642L18.0234375 10.506341334143674L19.359375000000004 11.277645209389188L19.359375000000004 11.44002497259877L19.1484375 11.561809795005958L17.8125 10.790505919760442L17.8125 11.196455327784399L18.0234375 11.074670505377211L18.0234375 10.912290742167627" stroke-width="0.03" stroke="#000000" fill="none"/>
<path d="M17.8125 10.62812615655086L18.0234375 10.506341334143674" stroke-width="0.03" stroke="#000000" fill="none"/>
<path d="M17.8125 10.62812615655086L17.8125 9.085518406059828L17.671875 9.004328524455037" stroke-width="0.03" stroke="#000000" fill="none"/>
<path d="M17.8125 9.085518406059828L18.0234375 8.963733583652642" stroke-width="0.03" stroke="#000000" fill="none"/>
<path d="M16.6875 8.841948761245455L16.6875 8.273619590011917" stroke-width="0.03" stroke="#000000" fill="none"/>
<path d="M16.0546875 8.638974057233478L16.0546875 9.450872873281389L15.843750000000002 9.572657695688576" stroke-width="0.03" stroke="#000000" fill="none"/>
<path d="M16.0546875 9.450872873281389L16.3359375 9.613252636490971L16.3359375 9.856822281305345" stroke-width="0.03" stroke="#000000" fill="none"/>
<path d="M16.125 9.735037458898159L16.3359375 9.613252636490971" stroke-width="0.03" stroke="#000000" fill="none"/>
<path d="M17.320312500000004 10.343961570934091L17.53125 10.222176748526905L17.671875 10.303366630131695" stroke-width="0.03" stroke="#000000" fill="none"/>
<path d="M17.671875 10.54693627494607L17.320312500000004 10.343961570934091L17.320312500000004 10.42515145253888" stroke-width="0.03" stroke="#000000" fill="none"/>
<path d="M17.8125 10.62812615655086L19.1484375 11.399430031796376L19.359375000000004 11.277645209389188" stroke-width="0.03" stroke="#000000" fill="none"/>
<path d="M19.1484375 11.399430031796376L19.1484375 11.561809795005958" stroke-width="0.03" stroke="#000000" fill="none"/>
<path d="M18.796875 12.495493433461057L19.289062500000004 12.779658019077825" stroke-width="0.03" stroke="#000000" fill="none"/>
<path d="M18.656250000000004 13.145012486299386L17.953125000000004 12.739063078275429L17.7421875 12.860847900682616" stroke-width="0.03" stroke="#000000" fill="none"/>
<path d="M17.953125000000004 12.739063078275429L17.953125000000004 12.414303551856264L17.7421875 12.292518729449078" stroke-width="0.03" stroke="#000000" fill="none"/>
<path d="M17.7421875 12.536088374263452L17.953125000000004 12.414303551856264" stroke-width="0.03" stroke="#000000" fill="none"/>
<path d="M17.8125 11.196455327784399L17.7421875 11.155860386982003" stroke-width="0.03" stroke="#000000" fill="none"/>
<path d="M16.1953125 11.886569321425123L16.1953125 12.211328847844287" stroke-width="0.03" stroke="#000000" fill="none"/>
<path d="M15.773437500000002 12.130138966239496L15.773437500000002 11.967759203029914" stroke-width="0.03" stroke="#000000" fill="none"/>
<path d="M15.6328125 11.72418955821554L15.4921875 11.64299967661075" stroke-width="0.03" stroke="#000000" fill="none"/>
<path d="M15.6328125 11.237050268586794L15.9140625 11.399430031796376" stroke-width="0.03" stroke="#000000" fill="none"/>
<path d="M14.859375 12.00835414383231L14.7890625 12.048949084634705" stroke-width="0.03" stroke="#000000" fill="none"/>
<path d="M14.648437500000002 12.292518729449078L14.0859375 12.617278255868243" stroke-width="0.03" stroke="#000000" fill="none"/>
<path d="M14.015625 12.576683315065846L14.015625 12.820252959880222" stroke-width="0.03" stroke="#000000" fill="none"/>
<path d="M14.0859375 12.779658019077825L14.2265625 12.860847900682616L14.2265625 12.942037782287407" stroke-width="0.03" stroke="#000000" fill="none"/>
<path d="M14.2265625 12.860847900682616L14.7890625 12.536088374263452" stroke-width="0.03" stroke="#000000" fill="none"/>
<path d="M13.3125 14.85L13.171875 14.768810118395209" stroke-width="0.03" stroke="#000000" fill="none"/>
<path d="M12.9609375 15.458924112035932L12.8203125 15.540113993640723" stroke-width="0.03" stroke="#000000" fill="none"/>
<path d="M12.9609375 15.702493756850306L13.3125 15.905468460862282" stroke-width="0.03" stroke="#000000" fill="none"/>
<path d="M13.3125 16.067848224071867L12.9609375 16.270822928083845L12.9609375 16.6767723361078L13.3125 16.473797632095824L13.3125 16.067848224071867" stroke-width="0.03" stroke="#000000" fill="none"/>
<path d="M12.9609375 16.270822928083845L13.3125 16.473797632095824" stroke-width="0.03" stroke="#000000" fill="none"/>
<path d="M12.8203125 16.352012809688635L12.8203125 16.75796221771259" stroke-width="0.03" stroke="#000000" fill="none"/>
<path d="M10.7109375 19.03127890264674L10.640625 19.071873843449136L10.640625 19.721392896287465" stroke-width="0.03" stroke="#000000" fill="none"/>
<path d="M10.5 19.883772659497048L10.5 18.990683961844347L10.640625 19.071873843449136" stroke-width="0.03" stroke="#000000" fill="none"/>
<path d="M10.5 19.883772659497048L10.78125 20.04615242270663L10.8515625 20.005557481904233" stroke-width="0.03" stroke="#000000" fill="none"/>
<path d="M10.78125 19.96496254110184L10.78125 20.04615242270663" stroke-width="0.03" stroke="#000000" fill="none"/>
<path d="M11.1328125 20.086747363509026L11.1328125 21.142215824371313L10.9921875 21.06102594276652" stroke-width="0.03" stroke="#000000" fill="none"/>
<path d="M5.9296875 20.81745629795215L5.0859375 20.330317008323398" stroke-width="0.03" stroke="#000000" fill="none"/>
<path d="M5.2265625 20.249127126718612L4.9453125 20.41150688992819L4.875 20.370911949125794L4.875 19.721392896287465L5.15625 19.559013133077883L5.2265625 19.59960807388028L5.2265625 20.249127126718612" stroke-width="0.03" stroke="#000000" fill="none"/>
<path d="M5.3671875 20.492696771532984L5.015625 20.69567147554496L5.015625 21.101620883568916L5.9296875 21.62935511400006" stroke-width="0.03" stroke="#000000" fill="none"/>
<path d="M5.3671875 20.898646179556938L5.3671875 20.492696771532984" stroke-width="0.03" stroke="#000000" fill="none"/>
<path d="M5.15625 20.61448159394017L4.453125 20.208532185916212L4.453125 19.640203014682676L4.6640625 19.761987837089862L4.8046875 19.68079795548507L4.8046875 19.112468784251533" stroke-width="0.03" stroke="#000000" fill="none"/>
<path d="M4.6640625 19.03127890264674L4.6640625 19.761987837089862" stroke-width="0.03" stroke="#000000" fill="none"/>
<path d="M4.59375 19.721392896287465L4.59375 19.802582777892262L4.453125 19.883772659497048L3.328125000000001 19.23425360665872L3.328125000000001 18.990683961844347L3.1171875 18.86889913943716L3.1171875 17.569861033760503L3.2578125 17.48867115215571L3.328125000000001 17.529266092958107" stroke-width="0.03" stroke="#000000" fill="none"/>
<path d="M3.328125000000001 17.448076211353314L3.46875 17.366886329748525L3.9609375 17.651050915365293" stroke-width="0.03" stroke="#000000" fill="none"/>
<path d="M3.9609375 17.813430678574875L3.328125000000001 17.448076211353314L3.328125000000001 17.69164585616769L2.8359374999999996 17.407481270550917L2.8359374999999996 16.59558245450301" stroke-width="0.03" stroke="#000000" fill="none"/>
<path d="M2.695312500000001 16.6767723361078L3.046875 16.473797632095824L2.695312500000001 16.270822928083845L2.695312500000001 16.6767723361078L2.34375 16.473797632095824L2.34375 15.418329171233536" stroke-width="0.03" stroke="#000000" fill="none"/>
<path d="M3.046875 15.824278579257493L3.046875 16.79855715851499" stroke-width="0.03" stroke="#000000" fill="none"/>
<path d="M2.90625 16.879747040119774L3.1874999999999996 16.717367276910196L3.7499999999999996 17.04212680332936L3.7499999999999996 17.123316684934153L3.46875 17.28569644814373L2.90625 16.960936921724567L2.90625 16.879747040119774L3.46875 17.204506566538942L3.46875 17.28569644814373" stroke-width="0.03" stroke="#000000" fill="none"/>
<path d="M3.46875 17.204506566538942L3.7499999999999996 17.04212680332936" stroke-width="0.03" stroke="#000000" fill="none"/>
<path d="M3.9609375 16.83915209931738L5.5078125 17.732240796970082L5.5078125 19.51841819227549" stroke-width="0.03" stroke="#000000" fill="none"/>
<path d="M5.2265625 19.59960807388028L4.9453125 19.761987837089862L4.9453125 20.41150688992819" stroke-width="0.03" stroke="#000000" fill="none"/>
<path d="M4.734375 20.370911949125794L4.734375 20.12734230431142" stroke-width="0.03" stroke="#000000" fill="none"/>
<path d="M4.875 20.208532185916212L4.453125 19.96496254110184" stroke-width="0.03" stroke="#000000" fill="none"/>
<path d="M4.382812499999999 19.843177718694655L3.8906249999999996 20.12734230431142L3.7499999999999996 20.04615242270663L3.7499999999999996 19.477823251473097" stroke-width="0.03" stroke="#000000" fill="none"/>
<path d="M3.8906249999999996 19.559013133077883L3.8906249999999996 20.12734230431142" stroke-width="0.03" stroke="#000000" fill="none"/>
<path d="M4.875 19.721392896287465L4.9453125 19.761987837089862" stroke-width="0.03" stroke="#000000" fill="none"/>
<path d="M5.5078125 19.03127890264674L4.382812499999999 18.38175984980841L4.382812499999999 17.082721744131756" stroke-width="0.03" stroke="#000000" fill="none"/>
<path d="M4.59375 17.204506566538942L4.59375 18.259975027401225L5.5078125 18.78770925783237" stroke-width="0.03" stroke="#000000" fill="none"/>
<path d="M5.5078125 18.625329494622786L4.8046875 18.219380086598832L4.8046875 18.13819020499404L4.734375 18.097595264191643L4.734375 17.28569644814373" stroke-width="0.03" stroke="#000000" fill="none"/>
<path d="M4.59375 18.259975027401225L4.382812499999999 18.38175984980841" stroke-width="0.03" stroke="#000000" fill="none"/>
<path d="M3.1171875 18.38175984980841L2.624999999999999 18.097595264191643L2.624999999999999 17.93521550098206L3.1171875 17.651050915365293" stroke-width="0.03" stroke="#000000" fill="none"/>
<path d="M3.046875 17.529266092958107L3.046875 17.04212680332936" stroke-width="0.03" stroke="#000000" fill="none"/>
<path d="M3.046875 17.204506566538942L2.8359374999999996 17.082721744131756" stroke-width="0.03" stroke="#000000" fill="none"/>
<path d="M2.624999999999999 17.93521550098206L3.1171875 18.219380086598832" stroke-width="0.03" stroke="#000000" fill="none"/>
<path d="M5.015625 20.69567147554496L5.3671875 20.898646179556938" stroke-width="0.03" stroke="#000000" fill="none"/>
<path d="M9.9375 13.145012486299386L10.1484375 13.023227663892198L10.1484375 12.942037782287407L10.218750000000002 12.90144284148501L10.570312500000002 13.10441754549699L10.570312500000002 13.18560742710178L10.5 13.145012486299386L10.4296875 13.18560742710178L10.1484375 13.023227663892198" stroke-width="0.03" stroke="#000000" fill="none"/>
<path d="M10.1484375 12.942037782287407L10.4296875 13.10441754549699L10.4296875 13.18560742710178" stroke-width="0.03" stroke="#000000" fill="none"/>
<path d="M10.5 13.145012486299386L10.5 13.063822604694593" stroke-width="0.03" stroke="#000000" fill="none"/>
<path d="M10.4296875 13.10441754549699L10.78125 12.90144284148501L10.8515625 12.942037782287407L10.8515625 13.023227663892198L11.0625 13.145012486299386L11.203125 13.063822604694593" stroke-width="0.03" stroke="#000000" fill="none"/>
<path d="M11.0625 12.982632723089804L11.0625 13.145012486299386" stroke-width="0.03" stroke="#000000" fill="none"/>
<path d="M10.8515625 13.023227663892198L10.570312500000002 13.18560742710178" stroke-width="0.03" stroke="#000000" fill="none"/>
<path d="M10.570312500000002 13.10441754549699L10.8515625 12.942037782287407" stroke-width="0.03" stroke="#000000" fill="none"/>
<path d="M10.7109375 12.942037782287407L10.570312500000002 12.860847900682616L10.5 12.90144284148501L10.4296875 12.860847900682616L10.2890625 12.942037782287407" stroke-width="0.03" stroke="#000000" fill="none"/>
<path d="M10.5 12.90144284148501L10.5 12.170733907041893L9.9375 12.495493433461057" stroke-width="0.03" stroke="#000000" fill="none"/>
<path d="M9.796875 12.414303551856264L9.796875 12.65787319667064" stroke-width="0.03" stroke="#000000" fill="none"/>
<path d="M9.9375 12.982632723089804L9.9375 13.145012486299386L9.796875 13.063822604694593" stroke-width="0.03" stroke="#000000" fill="none"/>
<path d="M10.0078125 12.292518729449078L10.0078125 11.886569321425123" stroke-width="0.03" stroke="#000000" fill="none"/>
<path d="M10.1484375 11.805379439820332L10.5 11.602404735808353L10.8515625 11.805379439820332L10.5 12.00835414383231L10.1484375 11.805379439820332" stroke-width="0.03" stroke="#000000" fill="none"/>
<path d="M10.5 11.602404735808353L10.5 12.00835414383231" stroke-width="0.03" stroke="#000000" fill="none"/>
<path d="M10.5 12.170733907041893L11.0625 12.495493433461057" stroke-width="0.03" stroke="#000000" fill="none"/>
<path d="M11.203125 12.414303551856264L11.203125 12.65787319667064" stroke-width="0.03" stroke="#000000" fill="none"/>
<path d="M10.9921875 12.292518729449078L10.9921875 11.886569321425123" stroke-width="0.03" stroke="#000000" fill="none"/>
<path d="M11.90625 12.414303551856264L11.90625 12.576683315065846" stroke-width="0.03" stroke="#000000" fill="none"/>
<path d="M9.09375 12.576683315065846L9.09375 12.414303551856264" stroke-width="0.03" stroke="#000000" fill="none"/>
<path d="M7.264131938244363 2.2599663291074443L1.5 2.2599663291074443" stroke-width="0.03" stroke="#000000" fill="none"/>
<path d="M2.0824957911384305 2.015598694615191L2.0824957911384305 1.7268634256306838" stroke-width="0.03" stroke="#000000" fill="none"/>
<path d="M2.061871843353823 1.5824957911384305L2.0824957911384305 1.6031197389230383L2.1031197389230383 1.5824957911384305L2.0824957911384305 1.5618718433538228L2.061871843353823 1.5824957911384305" stroke-width="0.03" stroke="#000000" fill="none"/>
<path d="M2.226863425630684 1.953726851261368L2.2474873734152916 1.9949747468305832L2.3093592167691144 2.015598694615191L2.3712310601229376 2.015598694615191L2.4331029034767604 1.9949747468305832L2.4537268512613677 1.953726851261368L2.4537268512613677 1.9331029034767604L2.4331029034767604 1.891855007907545L2.391855007907545 1.8712310601229374L2.2887352689845066 1.8506071123383299L2.2474873734152916 1.8299831645537221L2.226863425630684 1.7887352689845069L2.2474873734152916 1.7474873734152916L2.3093592167691144 1.7268634256306838L2.3712310601229376 1.7268634256306838L2.4331029034767604 1.7474873734152916L2.4537268512613677 1.7887352689845069" stroke-width="0.03" stroke="#000000" fill="none"/>
<path d="M2.680590276892052 1.7268634256306838L2.6393423813228365 1.7474873734152916L2.5980944857536215 1.7887352689845069L2.5774705379690137 1.8506071123383299L2.5774705379690137 1.891855007907545L2.5980944857536215 1.953726851261368L2.6393423813228365 1.9949747468305832L2.680590276892052 2.015598694615191L2.7424621202458748 2.015598694615191L2.78371001581509 1.9949747468305832L2.8249579113843053 1.953726851261368L2.845581859168913 1.891855007907545L2.845581859168913 1.8506071123383299L2.8249579113843053 1.7887352689845069L2.78371001581509 1.7474873734152916L2.7424621202458748 1.7268634256306838L2.680590276892052 1.7268634256306838" stroke-width="0.03" stroke="#000000" fill="none"/>
<path d="M2.907453702522736 2.056846590184406L3.237436867076458 2.056846590184406" stroke-width="0.03" stroke="#000000" fill="none"/>
<path d="M3.2993087104302807 1.953726851261368L3.3199326582148885 1.9949747468305832L3.3818045015687113 2.015598694615191L3.443676344922534 2.015598694615191L3.5055481882763573 1.9949747468305832L3.526172136060965 1.953726851261368L3.526172136060965 1.9331029034767604L3.5055481882763573 1.891855007907545L3.464300292707142 1.8712310601229374L3.361180553784104 1.8506071123383299L3.3199326582148885 1.8299831645537221L3.2993087104302807 1.7887352689845069L3.3199326582148885 1.7474873734152916L3.3818045015687113 1.7268634256306838L3.443676344922534 1.7268634256306838L3.5055481882763573 1.7474873734152916L3.526172136060965 1.7887352689845069" stroke-width="0.03" stroke="#000000" fill="none"/>
<path d="M3.6705397705532183 1.8093592167691144L3.732411613907041 1.7474873734152916L3.773659509476256 1.7268634256306838L3.8355313528300794 1.7268634256306838L3.8767792483992944 1.7474873734152916L3.897403196183902 1.8093592167691144L3.897403196183902 2.015598694615191" stroke-width="0.03" stroke="#000000" fill="none"/>
<path d="M3.6705397705532183 2.015598694615191L3.6705397705532183 1.7268634256306838" stroke-width="0.03" stroke="#000000" fill="none"/>
<path d="M4.144890569599194 1.7268634256306838L4.103642674029978 1.7474873734152916L4.062394778460764 1.7887352689845069L4.041770830676155 1.8506071123383299L4.041770830676155 1.891855007907545L4.062394778460764 1.953726851261368L4.103642674029978 1.9949747468305832L4.144890569599194 2.015598694615191L4.206762412953017 2.015598694615191L4.2480103085222325 1.9949747468305832L4.289258204091447 1.953726851261368L4.309882151876055 1.891855007907545L4.309882151876055 1.8506071123383299L4.289258204091447 1.7887352689845069L4.2480103085222325 1.7474873734152916L4.206762412953017 1.7268634256306838L4.144890569599194 1.7268634256306838" stroke-width="0.03" stroke="#000000" fill="none"/>
<path d="M4.4336258385837 1.7268634256306838L4.516121629722131 2.015598694615191L4.5986174208605615 1.7268634256306838L4.681113211998992 2.015598694615191L4.7636090031374225 1.7268634256306838" stroke-width="0.03" stroke="#000000" fill="none"/>
<path d="M4.866728742060461 1.7268634256306838L5.011096376552715 1.7268634256306838" stroke-width="0.03" stroke="#000000" fill="none"/>
<path d="M5.031720324337321 1.5824957911384305L4.990472428768107 1.5824957911384305L4.949224533198891 1.6031197389230383L4.928600585414284 1.664991582276861L4.928600585414284 2.015598694615191" stroke-width="0.03" stroke="#000000" fill="none"/>
<path d="M5.155464011044968 2.015598694615191L5.155464011044968 1.5824957911384305" stroke-width="0.03" stroke="#000000" fill="none"/>
<path d="M5.547319018952512 1.7268634256306838L5.547319018952512 2.015598694615191" stroke-width="0.03" stroke="#000000" fill="none"/>
<path d="M5.547319018952512 1.953726851261368L5.506071123383298 1.9949747468305832L5.464823227814082 2.015598694615191L5.402951384460259 2.015598694615191L5.3617034888910435 1.9949747468305832L5.320455593321829 1.953726851261368L5.299831645537221 1.891855007907545L5.299831645537221 1.8506071123383299L5.320455593321829 1.7887352689845069L5.3617034888910435 1.7474873734152916L5.402951384460259 1.7268634256306838L5.464823227814082 1.7268634256306838L5.506071123383298 1.7474873734152916L5.547319018952512 1.7887352689845069" stroke-width="0.03" stroke="#000000" fill="none"/>
<path d="M5.712310601229374 1.9331029034767604L5.91855007907545 1.7268634256306838" stroke-width="0.03" stroke="#000000" fill="none"/>
<path d="M5.794806392367804 1.8506071123383299L5.939174026860058 2.015598694615191" stroke-width="0.03" stroke="#000000" fill="none"/>
<path d="M6.042293765783096 1.8506071123383299L6.2897811391983875 1.8506071123383299L6.2897811391983875 1.8093592167691144L6.26915719141378 1.7681113211998993L6.248533243629172 1.7474873734152916L6.207285348059957 1.7268634256306838L6.145413504706134 1.7268634256306838L6.104165609136919 1.7474873734152916L6.062917713567703 1.7887352689845069L6.042293765783096 1.8506071123383299L6.042293765783096 1.891855007907545L6.062917713567703 1.953726851261368L6.104165609136919 1.9949747468305832L6.145413504706134 2.015598694615191L6.207285348059957 2.015598694615191L6.248533243629172 1.9949747468305832L6.2897811391983875 1.953726851261368" stroke-width="0.03" stroke="#000000" fill="none"/>
<path d="M6.434148773690641 1.6856155300614688L6.434148773690641 1.664991582276861L6.454772721475249 1.6237436867076458L6.475396669259856 1.6031197389230383L6.516644564829072 1.5824957911384305L6.599140355967502 1.5824957911384305L6.640388251536717 1.6031197389230383L6.661012199321325 1.6237436867076458L6.681636147105933 1.664991582276861L6.681636147105933 1.7062394778460763L6.661012199321325 1.7474873734152916L6.61976430375211 1.8093592167691144L6.413524825906033 2.015598694615191L6.702260094890541 2.015598694615191" stroke-width="0.03" stroke="#000000" fill="none"/>
<path d="M5.712310601229374 2.015598694615191L5.712310601229374 1.5824957911384305" stroke-width="0.03" stroke="#000000" fill="none"/>
<path d="M4.332573030495582 2.7109515319598065L4.29433412835631 2.7236978326728973L4.28158782764322 2.7491904340990785L4.28158782764322 2.7746830355252596L4.29433412835631 2.8001756369514412L4.319826729782491 2.8129219376645316L4.370811932634854 2.825668238377622L4.409050834774126 2.8384145390907127L4.434543436200307 2.8639071405168943L4.4472897369133975 2.889399741943075L4.4472897369133975 2.927638644082347L4.434543436200307 2.953131245508528L4.421797135487216 2.965877546221619L4.383558233347944 2.9786238469347097L4.332573030495582 2.9786238469347097L4.29433412835631 2.965877546221619L4.28158782764322 2.953131245508528L4.268841526930129 2.927638644082347L4.268841526930129 2.889399741943075L4.28158782764322 2.8639071405168943L4.3070804290694005 2.8384145390907127L4.345319331208673 2.825668238377622L4.396304534061034 2.8129219376645316L4.421797135487216 2.8001756369514412L4.434543436200307 2.7746830355252596L4.434543436200307 2.7491904340990785L4.421797135487216 2.7236978326728973L4.383558233347944 2.7109515319598065L4.332573030495582 2.7109515319598065" stroke-width="0.03" stroke="#000000" fill="none"/>
<path d="M4.07764701623377 2.7109515319598065L4.039408114094497 2.7236978326728973L4.026661813381407 2.7491904340990785L4.026661813381407 2.7746830355252596L4.039408114094497 2.8001756369514412L4.064900715520679 2.8129219376645316L4.115885918373042 2.825668238377622L4.154124820512314 2.8384145390907127L4.179617421938495 2.8639071405168943L4.192363722651585 2.889399741943075L4.192363722651585 2.927638644082347L4.179617421938495 2.953131245508528L4.1668711212254035 2.965877546221619L4.128632219086132 2.9786238469347097L4.07764701623377 2.9786238469347097L4.039408114094497 2.965877546221619L4.026661813381407 2.953131245508528L4.013915512668317 2.927638644082347L4.013915512668317 2.889399741943075L4.026661813381407 2.8639071405168943L4.052154414807589 2.8384145390907127L4.0903933169468605 2.825668238377622L4.141378519799223 2.8129219376645316L4.1668711212254035 2.8001756369514412L4.179617421938495 2.7746830355252596L4.179617421938495 2.7491904340990785L4.1668711212254035 2.7236978326728973L4.128632219086132 2.7109515319598065L4.07764701623377 2.7109515319598065" stroke-width="0.03" stroke="#000000" fill="none"/>
<path d="M3.9246914076766823 2.8001756369514412L3.911945106963592 2.8384145390907127L3.8864525055374104 2.8639071405168943L3.848213603398139 2.8766534412299847L3.835467302685048 2.8766534412299847L3.797228400545776 2.8639071405168943L3.771735799119595 2.8384145390907127L3.758989498406504 2.8001756369514412L3.758989498406504 2.7874293362383504L3.771735799119595 2.7491904340990785L3.797228400545776 2.7236978326728973L3.835467302685048 2.7109515319598065L3.848213603398139 2.7109515319598065L3.8864525055374104 2.7236978326728973L3.911945106963592 2.7491904340990785L3.9246914076766823 2.8001756369514412L3.9246914076766823 2.8639071405168943L3.911945106963592 2.927638644082347L3.8864525055374104 2.965877546221619L3.848213603398139 2.9786238469347097L3.8227210019719573 2.9786238469347097L3.784482099832686 2.965877546221619L3.771735799119595 2.9403849447954378" stroke-width="0.03" stroke="#000000" fill="none"/>
<path d="M3.504063484144692 2.927638644082347L3.5168097848577826 2.953131245508528L3.5295560855708734 2.965877546221619L3.567794987710145 2.9786238469347097L3.6060338898494173 2.9786238469347097L3.644272791988689 2.965877546221619L3.66976539341487 2.9403849447954378L3.6825116941279608 2.902146042656166L3.6825116941279608 2.8766534412299847L3.66976539341487 2.8384145390907127L3.6570190927017796 2.825668238377622L3.631526491275598 2.8129219376645316L3.5932875891363265 2.8129219376645316L3.66976539341487 2.7109515319598065L3.5295560855708734 2.7109515319598065" stroke-width="0.03" stroke="#000000" fill="none"/>
<path d="M3.351107875587605 2.7109515319598065L3.24913746988288 2.9786238469347097" stroke-width="0.03" stroke="#000000" fill="none"/>
<path d="M3.287376372022152 2.889399741943075L3.414839379153058 2.889399741943075" stroke-width="0.03" stroke="#000000" fill="none"/>
<path d="M3.4530782812923295 2.9786238469347097L3.351107875587605 2.7109515319598065" stroke-width="0.03" stroke="#000000" fill="none"/>
<path d="M3.185405966317427 2.7491904340990785L3.1726596656043364 2.7236978326728973L3.1344207634650645 2.7109515319598065L3.1089281620388833 2.7109515319598065L3.0706892598996114 2.7236978326728973L3.0451966584734302 2.761936734812169L3.0324503577603394 2.825668238377622L3.0324503577603394 2.889399741943075L3.0451966584734302 2.9403849447954378L3.0706892598996114 2.965877546221619L3.1089281620388833 2.9786238469347097L3.1216744627519737 2.9786238469347097L3.1599133648912456 2.965877546221619L3.185405966317427 2.9403849447954378L3.198152267030517 2.902146042656166L3.198152267030517 2.889399741943075L3.185405966317427 2.8511608398038035L3.1599133648912456 2.825668238377622L3.1216744627519737 2.8129219376645316L3.1089281620388833 2.8129219376645316L3.0706892598996114 2.825668238377622L3.0451966584734302 2.8511608398038035L3.0324503577603394 2.889399741943075" stroke-width="0.03" stroke="#000000" fill="none"/>
<path d="M2.930479952055615 2.8001756369514412L2.917733651342524 2.8384145390907127L2.892241049916343 2.8639071405168943L2.854002147777071 2.8766534412299847L2.84125584706398 2.8766534412299847L2.8030169449247087 2.8639071405168943L2.777524343498527 2.8384145390907127L2.7647780427854367 2.8001756369514412L2.7647780427854367 2.7874293362383504L2.777524343498527 2.7491904340990785L2.8030169449247087 2.7236978326728973L2.84125584706398 2.7109515319598065L2.854002147777071 2.7109515319598065L2.892241049916343 2.7236978326728973L2.917733651342524 2.7491904340990785L2.930479952055615 2.8001756369514412L2.930479952055615 2.8639071405168943L2.917733651342524 2.927638644082347L2.892241049916343 2.965877546221619L2.854002147777071 2.9786238469347097L2.82850954635089 2.9786238469347097L2.790270644211618 2.965877546221619L2.777524343498527 2.9403849447954378" stroke-width="0.03" stroke="#000000" fill="none"/>
<path d="M2.6883002385068933 2.9786238469347097L2.5098520285236243 2.9786238469347097L2.6373150356545305 2.8511608398038035L2.6628076370807117 2.8129219376645316L2.6755539377938025 2.7874293362383504L2.6755539377938025 2.761936734812169L2.6628076370807117 2.736444133385988L2.6500613363676213 2.7236978326728973L2.62456873494144 2.7109515319598065L2.5735835320890774 2.7109515319598065L2.5480909306628963 2.7236978326728973L2.5353446299498055 2.736444133385988L2.522598329236715 2.761936734812169L2.522598329236715 2.7746830355252596" stroke-width="0.03" stroke="#000000" fill="none"/>
<path d="M2.433374224245081 2.8001756369514412L2.293164916401084 2.9786238469347097" stroke-width="0.03" stroke="#000000" fill="none"/>
<path d="M2.433374224245081 2.9786238469347097L2.293164916401084 2.8001756369514412" stroke-width="0.03" stroke="#000000" fill="none"/>
<path d="M2.1147167064178154 2.7109515319598065L2.076477804278544 2.7236978326728973L2.0509852028523623 2.761936734812169L2.038238902139272 2.825668238377622L2.038238902139272 2.8639071405168943L2.0509852028523623 2.927638644082347L2.076477804278544 2.965877546221619L2.1147167064178154 2.9786238469347097L2.140209307843997 2.9786238469347097L2.1784482099832685 2.965877546221619L2.2039408114094496 2.927638644082347L2.2166871121225404 2.8639071405168943L2.2166871121225404 2.825668238377622L2.2039408114094496 2.761936734812169L2.1784482099832685 2.7236978326728973L2.140209307843997 2.7109515319598065L2.1147167064178154 2.7109515319598065" stroke-width="0.03" stroke="#000000" fill="none"/>
</svg>
