<?xml version="1.0" standalone="no"?>
<svg width="21cm" height="29.7cm" version="1.1" xmlns="http://www.w3.org/2000/svg" viewBox="0.0 0.0 21.000001 29.700001">
<path d="M5.0859375 8.151834767604731L7.546875 6.731011839520885L8.109375 7.05577136594005L8.109375 7.4617207739640055" stroke-width="0.03" stroke="#000000" fill="none"/>
<path d="M8.109375 7.05577136594005L5.6484375 8.476594294023895L5.6484375 9.126113346862224" stroke-width="0.03" stroke="#000000" fill="none"/>
<path d="M6 9.329088050874201L6.0703125 9.288493110071807L6.28125 9.410277932478992L6.28125 10.465746393341277L5.9296875 10.668721097353256" stroke-width="0.03" stroke="#000000" fill="none"/>
<path d="M5.7890625 10.587531215748463L5.296875 10.871695801365235L5.296875 11.034075564574817L6.492187500000001 11.72418955821554L6.492187500000001 11.886569321425123L6.3515625 11.967759203029914L5.15625 11.277645209389188L5.15625 11.764784499017935L4.734375 12.00835414383231L5.9296875 12.698468137473034L5.9296875 12.860847900682616L5.7890625 12.942037782287407L4.59375 12.251923788646682L4.59375 12.0895440254371L3.7499999999999996 12.576683315065846L2.484375000000001 11.845974380622728L3.8906249999999996 11.034075564574817L5.15625 11.764784499017935" stroke-width="0.03" stroke="#000000" fill="none"/>
<path d="M5.296875 11.845974380622728L4.875 12.0895440254371" stroke-width="0.03" stroke="#000000" fill="none"/>
<path d="M4.59375 12.0895440254371L5.7890625 12.779658019077825L5.7890625 12.942037782287407" stroke-width="0.03" stroke="#000000" fill="none"/>
<path d="M5.7890625 12.779658019077825L5.9296875 12.698468137473034" stroke-width="0.03" stroke="#000000" fill="none"/>
<path d="M6.0703125 13.266797308706572L6.914062500000001 12.779658019077825L6.914062500000001 11.805379439820332L7.40625 11.521214854203564L5.7890625 10.587531215748463" stroke-width="0.03" stroke="#000000" fill="none"/>
<path d="M5.296875 10.871695801365235L6.914062500000001 11.805379439820332" stroke-width="0.03" stroke="#000000" fill="none"/>
<path d="M7.3359375 11.805379439820332L7.6171875 11.64299967661075L9.09375 12.495493433461057L9.09375 13.226202367904175L8.8125 13.388582131113758L7.3359375 12.536088374263452L7.3359375 11.805379439820332L8.8125 12.65787319667064L8.8125 13.388582131113758" stroke-width="0.03" stroke="#000000" fill="none"/>
<path d="M8.4609375 13.18560742710178L8.25 13.307392249508968L7.6875 12.982632723089804L7.6875 12.90144284148501L7.757812499999999 12.860847900682616L8.25 13.145012486299386L8.3203125 13.10441754549699" stroke-width="0.03" stroke="#000000" fill="none"/>
<path d="M8.390625 13.145012486299386L8.25 13.226202367904175L7.4765625 12.779658019077825L7.3359375 12.860847900682616" stroke-width="0.03" stroke="#000000" fill="none"/>
<path d="M7.265625000000001 12.820252959880222L7.1953125 12.860847900682616L7.1953125 12.942037782287407L7.125 12.982632723089804L7.125 13.063822604694593L9.1640625 14.241075887964065L9.234375 14.200480947161669L9.234375 15.580708934443118L10.4296875 16.270822928083845L10.359375 16.311417868886238L10.359375 18.665924435425183L10.4296875 18.706519376227575L10.5 18.665924435425183L10.570312500000002 18.706519376227575L10.640625 18.665924435425183L10.640625 16.311417868886238L10.570312500000002 16.270822928083845L11.765625 15.580708934443118L11.765625 14.200480947161669L11.835937500000002 14.241075887964065L13.875 13.063822604694593L13.875 12.982632723089804L13.8046875 12.942037782287407L13.8046875 12.860847900682616L13.734375 12.820252959880222L11.6953125 13.997506243149692L11.6953125 14.078696124754483L10.5 13.388582131113758L9.3046875 14.078696124754483L9.3046875 13.997506243149692L7.265625000000001 12.820252959880222" stroke-width="0.03" stroke="#000000" fill="none"/>
<path d="M7.1953125 12.860847900682616L9.234375 14.038101183952087L9.3046875 13.997506243149692" stroke-width="0.03" stroke="#000000" fill="none"/>
<path d="M9.234375 14.038101183952087L9.234375 14.11929106555688L9.1640625 14.159886006359274L7.125 12.982632723089804" stroke-width="0.03" stroke="#000000" fill="none"/>
<path d="M7.1953125 12.942037782287407L9.234375 14.11929106555688" stroke-width="0.03" stroke="#000000" fill="none"/>
<path d="M9.3046875 14.159886006359274L10.5 13.46977201271855L11.6953125 14.159886006359274L11.6953125 15.540113993640723L10.5 16.230227987281445L9.3046875 15.540113993640723L9.3046875 14.159886006359274" stroke-width="0.03" stroke="#000000" fill="none"/>
<path d="M9.1640625 14.159886006359274L9.1640625 14.241075887964065" stroke-width="0.03" stroke="#000000" fill="none"/>
<path d="M9.3046875 14.403455651173648L9.515625 14.281670828766462L10.0078125 14.56583541438323L10.0078125 13.753936598335319" stroke-width="0.03" stroke="#000000" fill="none"/>
<path d="M9.515625 14.038101183952087L9.515625 14.281670828766462" stroke-width="0.03" stroke="#000000" fill="none"/>
<path d="M10.0078125 14.56583541438323L9.3046875 14.971784822407185" stroke-width="0.03" stroke="#000000" fill="none"/>
<path d="M9.234375 15.580708934443118L10.5 14.85L11.765625 15.580708934443118" stroke-width="0.03" stroke="#000000" fill="none"/>
<path d="M11.6953125 14.971784822407185L10.9921875 14.56583541438323L10.9921875 13.753936598335319" stroke-width="0.03" stroke="#000000" fill="none"/>
<path d="M11.484375000000002 14.038101183952087L11.484375000000002 14.281670828766462L11.6953125 14.403455651173648" stroke-width="0.03" stroke="#000000" fill="none"/>
<path d="M11.835937500000002 14.241075887964065L11.835937500000002 14.159886006359274L13.875 12.982632723089804" stroke-width="0.03" stroke="#000000" fill="none"/>
<path d="M13.8046875 12.942037782287407L11.765625 14.11929106555688L11.765625 14.038101183952087L13.8046875 12.860847900682616" stroke-width="0.03" stroke="#000000" fill="none"/>
<path d="M13.6640625 12.860847900682616L13.5234375 12.779658019077825L12.75 13.226202367904175L12.609375 13.145012486299386" stroke-width="0.03" stroke="#000000" fill="none"/>
<path d="M12.539062500000002 13.18560742710178L12.75 13.307392249508968L13.3125 12.982632723089804L13.3125 12.90144284148501L13.242187500000002 12.860847900682616L12.75 13.145012486299386L12.679687500000002 13.10441754549699" stroke-width="0.03" stroke="#000000" fill="none"/>
<path d="M12.75 13.063822604694593L12.75 13.145012486299386" stroke-width="0.03" stroke="#000000" fill="none"/>
<path d="M12.75 13.226202367904175L12.75 13.307392249508968" stroke-width="0.03" stroke="#000000" fill="none"/>
<path d="M12.9609375 13.672746716730527L13.5234375 13.347987190311363L13.593750000000002 13.388582131113758L13.593750000000002 13.46977201271855L13.1015625 13.753936598335319L13.1015625 13.83512647994011" stroke-width="0.03" stroke="#000000" fill="none"/>
<path d="M13.031250000000002 13.875721420742504L13.031250000000002 13.713341657532922L13.8046875 13.266797308706572L13.945312500000002 13.347987190311363" stroke-width="0.03" stroke="#000000" fill="none"/>
<path d="M14.0859375 13.266797308706572L12.609375 14.11929106555688L12.609375 14.444050591976044L13.242187500000002 14.809405059197603L14.718749999999998 13.956911302347297L14.718749999999998 13.632151775928133L14.0859375 13.266797308706572" stroke-width="0.03" stroke="#000000" fill="none"/>
<path d="M13.8046875 13.266797308706572L13.8046875 13.10441754549699" stroke-width="0.03" stroke="#000000" fill="none"/>
<path d="M14.0859375 12.779658019077825L15.703125000000002 11.845974380622728L16.125 12.0895440254371" stroke-width="0.03" stroke="#000000" fill="none"/>
<path d="M16.265625 12.00835414383231L15.070312500000002 12.698468137473034L15.070312500000002 12.860847900682616L15.2109375 12.942037782287407L16.40625 12.251923788646682L16.40625 12.0895440254371L17.25 12.576683315065846L18.515625 11.845974380622728L17.109375 11.034075564574817L15.843750000000002 11.764784499017935L16.265625 12.00835414383231" stroke-width="0.03" stroke="#000000" fill="none"/>
<path d="M16.40625 12.0895440254371L15.2109375 12.779658019077825L15.2109375 12.942037782287407" stroke-width="0.03" stroke="#000000" fill="none"/>
<path d="M15.2109375 12.779658019077825L15.070312500000002 12.698468137473034" stroke-width="0.03" stroke="#000000" fill="none"/>
<path d="M14.9296875 13.266797308706572L16.546875 12.333113670251475L16.40625 12.251923788646682" stroke-width="0.03" stroke="#000000" fill="none"/>
<path d="M16.546875 12.333113670251475L16.546875 12.90144284148501L14.9296875 13.83512647994011L14.718749999999998 13.713341657532922" stroke-width="0.03" stroke="#000000" fill="none"/>
<path d="M14.718749999999998 13.632151775928133L13.242187500000002 14.484645532778439L12.609375 14.11929106555688" stroke-width="0.03" stroke="#000000" fill="none"/>
<path d="M12.9609375 13.9163163615449L12.9609375 13.672746716730527L13.031250000000002 13.713341657532922" stroke-width="0.03" stroke="#000000" fill="none"/>
<path d="M13.1015625 13.753936598335319L13.171875 13.794531539137715" stroke-width="0.03" stroke="#000000" fill="none"/>
<path d="M13.242187500000002 14.484645532778439L13.242187500000002 15.215354467221559L13.031250000000002 15.093569644814371L13.031250000000002 14.687620236790417" stroke-width="0.03" stroke="#000000" fill="none"/>
<path d="M13.1015625 14.728215177592812L13.1015625 14.971784822407185L13.031250000000002 15.012379763209582L12.9609375 14.971784822407185L12.9609375 14.647025295988021" stroke-width="0.03" stroke="#000000" fill="none"/>
<path d="M13.031250000000002 15.093569644814371L12.46875 15.418329171233536L12.46875 15.986658342467075L11.976562500000002 16.270822928083845L11.976562500000002 16.920341980922174L11.625000000000002 17.123316684934153" stroke-width="0.03" stroke="#000000" fill="none"/>
<path d="M11.6953125 17.163911625736546L11.90625 17.04212680332936L11.90625 16.960936921724567L11.835937500000002 16.920341980922174L11.5546875 17.082721744131756" stroke-width="0.03" stroke="#000000" fill="none"/>
<path d="M11.5546875 17.407481270550917L12.187500000000002 17.04212680332936L12.187500000000002 17.28569644814373" stroke-width="0.03" stroke="#000000" fill="none"/>
<path d="M12.328125000000002 17.204506566538942L12.328125000000002 16.473797632095824L12.8203125 16.189633046479052L12.8203125 15.621303875245514L12.46875 15.418329171233536" stroke-width="0.03" stroke="#000000" fill="none"/>
<path d="M12.8203125 15.621303875245514L13.453125 15.255949408023953" stroke-width="0.03" stroke="#000000" fill="none"/>
<path d="M13.453125 15.093569644814371L13.242187500000002 15.215354467221559" stroke-width="0.03" stroke="#000000" fill="none"/>
<path d="M13.453125 14.931189881604789L15.070312500000002 13.997506243149692" stroke-width="0.03" stroke="#000000" fill="none"/>
<path d="M14.9296875 13.83512647994011L14.9296875 13.266797308706572L14.0859375 12.779658019077825L14.0859375 11.805379439820332L13.593750000000002 11.521214854203564L15.2109375 10.587531215748463L15.703125000000002 10.871695801365235L15.703125000000002 11.034075564574817L14.5078125 11.72418955821554L14.5078125 11.886569321425123L14.648437500000002 11.967759203029914L15.843750000000002 11.277645209389188L15.843750000000002 11.764784499017935" stroke-width="0.03" stroke="#000000" fill="none"/>
<path d="M15.703125000000002 11.845974380622728L15.703125000000002 11.358835090993981" stroke-width="0.03" stroke="#000000" fill="none"/>
<path d="M15.843750000000002 11.115265446179606L14.648437500000002 11.805379439820332L14.5078125 11.72418955821554" stroke-width="0.03" stroke="#000000" fill="none"/>
<path d="M14.648437500000002 11.805379439820332L14.648437500000002 11.967759203029914" stroke-width="0.03" stroke="#000000" fill="none"/>
<path d="M14.0859375 11.805379439820332L15.703125000000002 10.871695801365235" stroke-width="0.03" stroke="#000000" fill="none"/>
<path d="M15.703125000000002 11.034075564574817L15.843750000000002 11.115265446179606L15.843750000000002 10.140986866922113L17.109375 9.410277932478992L17.109375 11.034075564574817" stroke-width="0.03" stroke="#000000" fill="none"/>
<path d="M17.8125 11.44002497259877L17.8125 10.62812615655086L17.109375 10.222176748526905" stroke-width="0.03" stroke="#000000" fill="none"/>
<path d="M17.109375 9.735037458898159L17.8125 10.140986866922113L17.8125 9.735037458898159L18.09375 9.572657695688576L18.515625 9.816227340502948L18.515625 10.222176748526905L18.234375 10.384556511736488L18.234375 9.97860710371253L18.515625 9.816227340502948" stroke-width="0.03" stroke="#000000" fill="none"/>
<path d="M18.234375 9.97860710371253L17.8125 9.735037458898159" stroke-width="0.03" stroke="#000000" fill="none"/>
<path d="M17.8125 9.816227340502948L15.984375 8.760758879640663L14.718749999999998 9.491467814083784L15.843750000000002 10.140986866922113" stroke-width="0.03" stroke="#000000" fill="none"/>
<path d="M15.070312500000002 10.668721097353256L14.718749999999998 10.465746393341277L14.718749999999998 9.410277932478992L14.9296875 9.288493110071807L15.000000000000002 9.329088050874201" stroke-width="0.03" stroke="#000000" fill="none"/>
<path d="M14.7890625 9.450872873281389L14.718749999999998 9.410277932478992" stroke-width="0.03" stroke="#000000" fill="none"/>
<path d="M14.5078125 9.369682991676598L14.367187500000002 9.450872873281389L14.718749999999998 9.653847577293366" stroke-width="0.03" stroke="#000000" fill="none"/>
<path d="M14.5078125 9.53206275488618L14.5078125 9.369682991676598L13.593750000000002 8.841948761245455" stroke-width="0.03" stroke="#000000" fill="none"/>
<path d="M13.3125 9.004328524455037L13.945312500000002 8.638974057233478L13.945312500000002 8.07064488599994L11.6953125 6.771606780323281L10.921875000000002 7.218151129149632" stroke-width="0.03" stroke="#000000" fill="none"/>
<path d="M10.8515625 7.177556188347237L10.8515625 7.096366306742446L10.570312500000002 6.933986543532863L10.5 6.974581484335259L10.4296875 6.933986543532863L10.1484375 7.096366306742446L10.1484375 7.177556188347237" stroke-width="0.03" stroke="#000000" fill="none"/>
<path d="M10.078125 7.218151129149632L9.3046875 6.771606780323281L7.0546875 8.07064488599994L7.0546875 8.638974057233478L7.6875 9.004328524455037" stroke-width="0.03" stroke="#000000" fill="none"/>
<path d="M7.757812499999999 8.963733583652642L7.265625000000001 9.24789816926941L7.265625000000001 10.059796985317323L7.4765625 10.181581807724509" stroke-width="0.03" stroke="#000000" fill="none"/>
<path d="M7.40625 10.222176748526905L7.898437500000001 9.938012162910134L8.6015625 10.343961570934091L9.09375 10.059796985317323L9.09375 9.735037458898159L7.757812499999999 8.963733583652642" stroke-width="0.03" stroke="#000000" fill="none"/>
<path d="M7.40625 8.841948761245455L6.492187500000001 9.369682991676598L6.492187500000001 9.53206275488618" stroke-width="0.03" stroke="#000000" fill="none"/>
<path d="M6.6328125 9.450872873281389L6.28125 9.653847577293366" stroke-width="0.03" stroke="#000000" fill="none"/>
<path d="M6.28125 9.491467814083784L5.15625 10.140986866922113L3.8906249999999996 9.410277932478992L3.8906249999999996 11.034075564574817" stroke-width="0.03" stroke="#000000" fill="none"/>
<path d="M3.1874999999999996 11.44002497259877L3.1874999999999996 10.62812615655086L3.8906249999999996 10.222176748526905" stroke-width="0.03" stroke="#000000" fill="none"/>
<path d="M3.8906249999999996 9.735037458898159L3.1874999999999996 10.140986866922113L3.1874999999999996 9.735037458898159L2.90625 9.572657695688576L2.484375000000001 9.816227340502948L2.484375000000001 10.222176748526905L2.765625 10.384556511736488L2.765625 9.97860710371253L2.484375000000001 9.816227340502948" stroke-width="0.03" stroke="#000000" fill="none"/>
<path d="M2.765625 9.97860710371253L3.1874999999999996 9.735037458898159" stroke-width="0.03" stroke="#000000" fill="none"/>
<path d="M3.1874999999999996 9.816227340502948L5.015625 8.760758879640663L6.28125 9.491467814083784" stroke-width="0.03" stroke="#000000" fill="none"/>
<path d="M6.210937500000001 9.450872873281389L6.28125 9.410277932478992" stroke-width="0.03" stroke="#000000" fill="none"/>
<path d="M6.492187500000001 9.369682991676598L6.6328125 9.450872873281389" stroke-width="0.03" stroke="#000000" fill="none"/>
<path d="M7.125 9.653847577293366L6.28125 10.140986866922113" stroke-width="0.03" stroke="#000000" fill="none"/>
<path d="M7.125 9.653847577293366L7.265625000000001 9.735037458898159" stroke-width="0.03" stroke="#000000" fill="none"/>
<path d="M7.265625000000001 9.24789816926941L8.6015625 10.019202044514927L8.6015625 10.343961570934091" stroke-width="0.03" stroke="#000000" fill="none"/>
<path d="M8.6015625 10.019202044514927L9.09375 9.735037458898159" stroke-width="0.03" stroke="#000000" fill="none"/>
<path d="M8.8125 9.410277932478992L8.671875 9.491467814083784" stroke-width="0.03" stroke="#000000" fill="none"/>
<path d="M8.8125 9.410277932478992L9.7265625 9.938012162910134L10.078125 9.735037458898159L10.5 9.97860710371253L10.921875000000002 9.735037458898159L11.273437500000002 9.938012162910134L12.187500000000002 9.410277932478992L12.328125000000002 9.491467814083784" stroke-width="0.03" stroke="#000000" fill="none"/>
<path d="M11.90625 9.735037458898159L13.242187500000002 8.963733583652642L13.734375 9.24789816926941L13.734375 10.059796985317323L13.5234375 10.181581807724509" stroke-width="0.03" stroke="#000000" fill="none"/>
<path d="M13.593750000000002 10.222176748526905L11.90625 11.196455327784399L10.5 10.384556511736488L9.09375 11.196455327784399L9.09375 12.251923788646682L7.4765625 11.318240150191585" stroke-width="0.03" stroke="#000000" fill="none"/>
<path d="M7.40625 11.521214854203564L7.40625 11.764784499017935" stroke-width="0.03" stroke="#000000" fill="none"/>
<path d="M7.265625000000001 11.44002497259877L7.828125 11.115265446179606L7.828125 10.952885682970024L7.40625 10.709316038155652L7.40625 10.222176748526905L9.09375 11.196455327784399" stroke-width="0.03" stroke="#000000" fill="none"/>
<path d="M8.53125 11.927164262227517L8.3203125 12.048949084634705" stroke-width="0.03" stroke="#000000" fill="none"/>
<path d="M8.25 12.00835414383231L8.4609375 11.886569321425123" stroke-width="0.03" stroke="#000000" fill="none"/>
<path d="M9.09375 12.251923788646682L10.5 11.44002497259877L10.5 10.384556511736488" stroke-width="0.03" stroke="#000000" fill="none"/>
<path d="M10.5 9.97860710371253L10.5 9.166708287664619L11.273437500000002 9.613252636490971L13.945312500000002 8.07064488599994" stroke-width="0.03" stroke="#000000" fill="none"/>
<path d="M13.734375 9.24789816926941L12.3984375 10.019202044514927L11.90625 9.735037458898159L11.90625 10.059796985317323L12.3984375 10.343961570934091L13.1015625 9.938012162910134L13.593750000000002 10.222176748526905L13.593750000000002 10.709316038155652L13.171875 10.952885682970024L13.171875 11.115265446179606L13.734375 11.44002497259877" stroke-width="0.03" stroke="#000000" fill="none"/>
<path d="M13.875 11.358835090993981L13.171875 10.952885682970024" stroke-width="0.03" stroke="#000000" fill="none"/>
<path d="M13.5234375 11.318240150191585L11.90625 12.251923788646682L10.5 11.44002497259877" stroke-width="0.03" stroke="#000000" fill="none"/>
<path d="M10.5 12.170733907041893L10.0078125 12.45489849265866L9.375 12.0895440254371" stroke-width="0.03" stroke="#000000" fill="none"/>
<path d="M9.234375 12.170733907041893L9.4453125 12.292518729449078L9.4453125 12.536088374263452L10.0078125 12.860847900682616L10.5 12.576683315065846L10.5 12.170733907041893L10.9921875 12.45489849265866L11.625000000000002 12.0895440254371" stroke-width="0.03" stroke="#000000" fill="none"/>
<path d="M11.765625 12.170733907041893L11.5546875 12.292518729449078L11.5546875 12.536088374263452L10.9921875 12.860847900682616L10.5 12.576683315065846" stroke-width="0.03" stroke="#000000" fill="none"/>
<path d="M10.0078125 12.45489849265866L10.0078125 12.860847900682616" stroke-width="0.03" stroke="#000000" fill="none"/>
<path d="M9.4453125 12.536088374263452L9.09375 12.739063078275429" stroke-width="0.03" stroke="#000000" fill="none"/>
<path d="M9.09375 12.65787319667064L9.3046875 12.536088374263452L9.375 12.576683315065846L9.375 12.65787319667064L9.09375 12.820252959880222" stroke-width="0.03" stroke="#000000" fill="none"/>
<path d="M8.8125 12.65787319667064L9.4453125 12.292518729449078" stroke-width="0.03" stroke="#000000" fill="none"/>
<path d="M8.25 13.063822604694593L8.25 13.145012486299386" stroke-width="0.03" stroke="#000000" fill="none"/>
<path d="M8.25 13.226202367904175L8.25 13.307392249508968" stroke-width="0.03" stroke="#000000" fill="none"/>
<path d="M8.0390625 13.672746716730527L7.96875 13.713341657532922L7.1953125 13.266797308706572L7.0546875 13.347987190311363" stroke-width="0.03" stroke="#000000" fill="none"/>
<path d="M6.914062500000001 13.266797308706572L6.28125 13.632151775928133L6.28125 13.956911302347297L7.757812499999999 14.809405059197603L8.390625 14.444050591976044L8.390625 14.11929106555688L6.914062500000001 13.266797308706572" stroke-width="0.03" stroke="#000000" fill="none"/>
<path d="M7.1953125 13.266797308706572L7.1953125 13.10441754549699" stroke-width="0.03" stroke="#000000" fill="none"/>
<path d="M7.40625 13.388582131113758L7.4765625 13.347987190311363L8.0390625 13.672746716730527L8.0390625 13.9163163615449" stroke-width="0.03" stroke="#000000" fill="none"/>
<path d="M7.96875 13.875721420742504L7.96875 13.713341657532922" stroke-width="0.03" stroke="#000000" fill="none"/>
<path d="M7.898437500000001 13.753936598335319L7.828125 13.794531539137715" stroke-width="0.03" stroke="#000000" fill="none"/>
<path d="M7.898437500000001 13.83512647994011L7.898437500000001 13.753936598335319L7.40625 13.46977201271855L7.40625 13.388582131113758" stroke-width="0.03" stroke="#000000" fill="none"/>
<path d="M7.4765625 12.779658019077825L7.4765625 12.617278255868243" stroke-width="0.03" stroke="#000000" fill="none"/>
<path d="M6.914062500000001 12.779658019077825L5.296875 11.845974380622728L5.296875 11.358835090993981" stroke-width="0.03" stroke="#000000" fill="none"/>
<path d="M5.15625 11.115265446179606L5.296875 11.034075564574817" stroke-width="0.03" stroke="#000000" fill="none"/>
<path d="M5.15625 11.115265446179606L5.15625 10.140986866922113" stroke-width="0.03" stroke="#000000" fill="none"/>
<path d="M5.15625 11.115265446179606L6.3515625 11.805379439820332L6.492187500000001 11.72418955821554" stroke-width="0.03" stroke="#000000" fill="none"/>
<path d="M6.3515625 11.805379439820332L6.3515625 11.967759203029914" stroke-width="0.03" stroke="#000000" fill="none"/>
<path d="M7.125 11.358835090993981L7.828125 10.952885682970024" stroke-width="0.03" stroke="#000000" fill="none"/>
<path d="M9.7265625 9.938012162910134L9.7265625 9.613252636490971L10.5 9.166708287664619" stroke-width="0.03" stroke="#000000" fill="none"/>
<path d="M10.5 9.735037458898159L10.2890625 9.856822281305345" stroke-width="0.03" stroke="#000000" fill="none"/>
<path d="M10.4296875 9.938012162910134L10.4296875 9.775632399700552" stroke-width="0.03" stroke="#000000" fill="none"/>
<path d="M10.5 9.735037458898159L10.7109375 9.856822281305345" stroke-width="0.03" stroke="#000000" fill="none"/>
<path d="M10.570312500000002 9.938012162910134L10.570312500000002 9.775632399700552" stroke-width="0.03" stroke="#000000" fill="none"/>
<path d="M11.273437500000002 9.613252636490971L11.273437500000002 9.938012162910134" stroke-width="0.03" stroke="#000000" fill="none"/>
<path d="M12.3984375 10.019202044514927L12.3984375 10.343961570934091" stroke-width="0.03" stroke="#000000" fill="none"/>
<path d="M11.90625 11.196455327784399L11.90625 12.251923788646682" stroke-width="0.03" stroke="#000000" fill="none"/>
<path d="M11.90625 12.495493433461057L13.382812500000002 11.64299967661075L13.6640625 11.805379439820332L13.6640625 12.536088374263452L12.187500000000002 13.388582131113758L11.90625 13.226202367904175L11.90625 12.495493433461057" stroke-width="0.03" stroke="#000000" fill="none"/>
<path d="M11.90625 12.65787319667064L11.6953125 12.536088374263452L11.625000000000002 12.576683315065846L11.625000000000002 12.65787319667064L11.90625 12.820252959880222" stroke-width="0.03" stroke="#000000" fill="none"/>
<path d="M11.90625 12.739063078275429L11.5546875 12.536088374263452" stroke-width="0.03" stroke="#000000" fill="none"/>
<path d="M11.5546875 12.292518729449078L12.187500000000002 12.65787319667064L12.187500000000002 13.388582131113758" stroke-width="0.03" stroke="#000000" fill="none"/>
<path d="M12.187500000000002 12.65787319667064L13.6640625 11.805379439820332" stroke-width="0.03" stroke="#000000" fill="none"/>
<path d="M13.593750000000002 11.764784499017935L13.593750000000002 11.521214854203564" stroke-width="0.03" stroke="#000000" fill="none"/>
<path d="M12.75 12.00835414383231L12.539062500000002 11.886569321425123" stroke-width="0.03" stroke="#000000" fill="none"/>
<path d="M12.46875 11.927164262227517L12.679687500000002 12.048949084634705" stroke-width="0.03" stroke="#000000" fill="none"/>
<path d="M13.5234375 12.617278255868243L13.5234375 12.779658019077825" stroke-width="0.03" stroke="#000000" fill="none"/>
<path d="M14.0859375 14.322265769568856L14.0859375 14.56583541438323" stroke-width="0.03" stroke="#000000" fill="none"/>
<path d="M14.015625 14.606430355185626L14.015625 14.362860710371251" stroke-width="0.03" stroke="#000000" fill="none"/>
<path d="M13.453125 14.931189881604789L13.453125 16.55498751370061L14.367187500000002 17.082721744131756L12.9609375 17.894620560179668L12.046875 17.366886329748525L13.453125 16.55498751370061" stroke-width="0.03" stroke="#000000" fill="none"/>
<path d="M12.8203125 16.189633046479052L12.46875 15.986658342467075" stroke-width="0.03" stroke="#000000" fill="none"/>
<path d="M12.328125000000002 16.473797632095824L11.976562500000002 16.270822928083845" stroke-width="0.03" stroke="#000000" fill="none"/>
<path d="M11.976562500000002 16.920341980922174L12.187500000000002 17.04212680332936" stroke-width="0.03" stroke="#000000" fill="none"/>
<path d="M12.046875 17.366886329748525L12.046875 19.23425360665872" stroke-width="0.03" stroke="#000000" fill="none"/>
<path d="M11.835937500000002 19.193658665856326L11.34375 19.477823251473097L11.34375 21.345190528383288L11.203125 21.2640006467785L11.0625 21.345190528383288L11.0625 19.96496254110184L10.921875000000002 19.883772659497048L11.0625 19.802582777892262L11.203125 19.883772659497048L11.203125 21.2640006467785" stroke-width="0.03" stroke="#000000" fill="none"/>
<path d="M11.34375 21.345190528383288L11.835937500000002 21.06102594276652L11.835937500000002 19.193658665856326L11.625000000000002 19.071873843449136" stroke-width="0.03" stroke="#000000" fill="none"/>
<path d="M11.5546875 19.112468784251533L11.835937500000002 18.95008902104195L11.835937500000002 17.24510150734134L11.203125 16.879747040119774L10.921875000000002 17.04212680332936L10.921875000000002 18.747114317029972L11.5546875 19.112468784251533L11.5546875 17.407481270550917L10.921875000000002 17.04212680332936" stroke-width="0.03" stroke="#000000" fill="none"/>
<path d="M10.921875000000002 17.448076211353314L10.7109375 17.569861033760503L10.7109375 18.219380086598832L10.78125 18.259975027401225L10.8515625 18.219380086598832L10.8515625 17.651050915365293L10.921875000000002 17.610455974562896" stroke-width="0.03" stroke="#000000" fill="none"/>
<path d="M10.921875000000002 17.529266092958107L10.78125 17.610455974562896L10.7109375 17.569861033760503" stroke-width="0.03" stroke="#000000" fill="none"/>
<path d="M10.78125 17.610455974562896L10.78125 18.5035446722156L10.640625 18.58473455382039" stroke-width="0.03" stroke="#000000" fill="none"/>
<path d="M10.570312500000002 18.706519376227575L10.570312500000002 16.352012809688635L10.640625 16.311417868886238" stroke-width="0.03" stroke="#000000" fill="none"/>
<path d="M10.570312500000002 16.352012809688635L10.5 16.311417868886238L10.4296875 16.352012809688635L10.4296875 18.706519376227575" stroke-width="0.03" stroke="#000000" fill="none"/>
<path d="M10.5 18.665924435425183L10.5 16.311417868886238" stroke-width="0.03" stroke="#000000" fill="none"/>
<path d="M10.4296875 16.352012809688635L10.359375 16.311417868886238" stroke-width="0.03" stroke="#000000" fill="none"/>
<path d="M10.2890625 16.10844316487426L10.5 15.986658342467075L10.7109375 16.10844316487426" stroke-width="0.03" stroke="#000000" fill="none"/>
<path d="M10.5 15.986658342467075L10.5 15.418329171233536L9.796875 15.824278579257493" stroke-width="0.03" stroke="#000000" fill="none"/>
<path d="M10.5 15.418329171233536L11.203125 15.824278579257493" stroke-width="0.03" stroke="#000000" fill="none"/>
<path d="M10.5 14.85L10.5 13.388582131113758" stroke-width="0.03" stroke="#000000" fill="none"/>
<path d="M10.9921875 12.860847900682616L10.9921875 12.45489849265866" stroke-width="0.03" stroke="#000000" fill="none"/>
<path d="M11.6953125 13.997506243149692L11.765625 14.038101183952087" stroke-width="0.03" stroke="#000000" fill="none"/>
<path d="M11.765625 14.11929106555688L11.835937500000002 14.159886006359274" stroke-width="0.03" stroke="#000000" fill="none"/>
<path d="M11.484375000000002 14.281670828766462L10.9921875 14.56583541438323" stroke-width="0.03" stroke="#000000" fill="none"/>
<path d="M13.453125 14.931189881604789L14.367187500000002 15.458924112035932L14.367187500000002 17.082721744131756" stroke-width="0.03" stroke="#000000" fill="none"/>
<path d="M14.718749999999998 17.28569644814373L15.140625 17.04212680332936L15.140625 16.636177395305403L16.0546875 16.10844316487426L16.0546875 15.946063401664679" stroke-width="0.03" stroke="#000000" fill="none"/>
<path d="M15.6328125 16.189633046479052L16.96875 15.418329171233536L16.96875 14.85L16.265625 14.444050591976044L16.0546875 14.56583541438323" stroke-width="0.03" stroke="#000000" fill="none"/>
<path d="M16.0546875 14.484645532778439L14.367187500000002 15.458924112035932" stroke-width="0.03" stroke="#000000" fill="none"/>
<path d="M15.351562500000002 15.458924112035932L16.0546875 15.052974704011977L16.0546875 14.484645532778439L15.6328125 14.241075887964065L15.2109375 14.484645532778439L15.070312500000002 14.403455651173648L15.070312500000002 13.753936598335319" stroke-width="0.03" stroke="#000000" fill="none"/>
<path d="M15.2109375 13.672746716730527L15.2109375 14.484645532778439" stroke-width="0.03" stroke="#000000" fill="none"/>
<path d="M15.351562500000002 15.458924112035932L15.351562500000002 16.02725328326947L15.6328125 16.189633046479052L15.6328125 15.621303875245514L15.351562500000002 15.458924112035932" stroke-width="0.03" stroke="#000000" fill="none"/>
<path d="M15.6328125 15.621303875245514L16.96875 14.85" stroke-width="0.03" stroke="#000000" fill="none"/>
<path d="M17.25 15.174759526419164L17.25 14.11929106555688L17.109375 14.038101183952087" stroke-width="0.03" stroke="#000000" fill="none"/>
<path d="M17.109375 14.200480947161669L17.25 14.11929106555688" stroke-width="0.03" stroke="#000000" fill="none"/>
<path d="M17.109375 14.200480947161669L17.109375 13.794531539137715" stroke-width="0.03" stroke="#000000" fill="none"/>
<path d="M17.25 13.875721420742504L18.515625 13.145012486299386L18.515625 11.034075564574817" stroke-width="0.03" stroke="#000000" fill="none"/>
<path d="M18.585937500000004 11.074670505377211L18.8671875 10.912290742167627L18.8671875 10.42515145253888L18.515625 10.222176748526905" stroke-width="0.03" stroke="#000000" fill="none"/>
<path d="M18.234375 10.384556511736488L18.585937500000004 10.587531215748463L18.8671875 10.42515145253888" stroke-width="0.03" stroke="#000000" fill="none"/>
<path d="M18.585937500000004 10.587531215748463L18.585937500000004 11.074670505377211L18.234375 10.871695801365235L18.234375 11.683594617413146" stroke-width="0.03" stroke="#000000" fill="none"/>
<path d="M18.515625 11.521214854203564L18.7265625 11.64299967661075L18.8671875 11.561809795005958L18.8671875 12.617278255868243L18.7265625 12.698468137473034L18.515625 12.576683315065846" stroke-width="0.03" stroke="#000000" fill="none"/>
<path d="M18.7265625 12.698468137473034L18.7265625 11.64299967661075" stroke-width="0.03" stroke="#000000" fill="none"/>
<path d="M18.8671875 11.561809795005958L18.515625 11.358835090993981" stroke-width="0.03" stroke="#000000" fill="none"/>
<path d="M17.25 12.576683315065846L17.25 13.875721420742504" stroke-width="0.03" stroke="#000000" fill="none"/>
<path d="M17.320312500000004 13.83512647994011L17.320312500000004 13.9163163615449L16.40625 13.388582131113758L16.40625 12.982632723089804" stroke-width="0.03" stroke="#000000" fill="none"/>
<path d="M16.6875 13.55096189432334L16.6875 14.525240473580833L16.546875 14.606430355185626" stroke-width="0.03" stroke="#000000" fill="none"/>
<path d="M16.96875 15.337139289628746L17.6015625 14.971784822407185L18.09375 15.255949408023953L18.09375 17.85402561937727L17.320312500000004 18.30056996820362" stroke-width="0.03" stroke="#000000" fill="none"/>
<path d="M17.320312500000004 18.38175984980841L17.390625 18.422354790610807L17.390625 18.747114317029972L17.320312500000004 18.78770925783237L17.320312500000004 18.86889913943716L17.0390625 19.03127890264674L16.96875 18.990683961844347" stroke-width="0.03" stroke="#000000" fill="none"/>
<path d="M16.8984375 19.03127890264674L16.8984375 19.924367600299444L14.648437500000002 21.223405705976102L14.15625 20.939241120359334L14.15625 20.208532185916212" stroke-width="0.03" stroke="#000000" fill="none"/>
<path d="M14.2265625 20.16793724511382L13.734375 20.452101830730584L13.031250000000002 20.04615242270663L13.031250000000002 19.802582777892262" stroke-width="0.03" stroke="#000000" fill="none"/>
<path d="M12.9609375 19.843177718694655L13.453125 19.559013133077883L13.453125 18.747114317029972L13.945312500000002 18.462949731413204L14.2265625 18.625329494622786L14.2265625 20.16793724511382" stroke-width="0.03" stroke="#000000" fill="none"/>
<path d="M14.15625 20.53329171233538L13.242187500000002 21.06102594276652L13.1015625 20.97983606116173" stroke-width="0.03" stroke="#000000" fill="none"/>
<path d="M13.242187500000002 21.06102594276652L13.242187500000002 20.898646179556938L12.890625000000002 21.101620883568916" stroke-width="0.03" stroke="#000000" fill="none"/>
<path d="M13.031250000000002 21.18281076517371L11.90625 21.832329818012038L11.90625 23.293747686898275L10.5 22.481848870850367L9.09375 23.293747686898275L9.09375 21.832329818012038L9.9375 21.345190528383288L9.9375 19.96496254110184L10.078125 19.883772659497048L10.078125 21.2640006467785L10.5 21.020431001964123L10.921875000000002 21.2640006467785L10.921875000000002 19.883772659497048" stroke-width="0.03" stroke="#000000" fill="none"/>
<path d="M11.0625 19.96496254110184L11.203125 19.883772659497048" stroke-width="0.03" stroke="#000000" fill="none"/>
<path d="M11.34375 19.477823251473097L10.5 18.990683961844347L9.65625 19.477823251473097L9.65625 21.345190528383288L9.796875 21.2640006467785L9.9375 21.345190528383288" stroke-width="0.03" stroke="#000000" fill="none"/>
<path d="M9.796875 21.2640006467785L9.796875 19.883772659497048L9.9375 19.802582777892262L10.078125 19.883772659497048" stroke-width="0.03" stroke="#000000" fill="none"/>
<path d="M9.9375 19.96496254110184L9.796875 19.883772659497048" stroke-width="0.03" stroke="#000000" fill="none"/>
<path d="M9.65625 19.477823251473097L9.1640625 19.193658665856326L9.375 19.071873843449136" stroke-width="0.03" stroke="#000000" fill="none"/>
<path d="M9.4453125 19.112468784251533L10.078125 18.747114317029972L10.078125 17.04212680332936L9.796875 16.879747040119774L9.1640625 17.24510150734134L9.1640625 18.95008902104195L9.4453125 19.112468784251533L9.4453125 17.407481270550917L10.078125 17.04212680332936" stroke-width="0.03" stroke="#000000" fill="none"/>
<path d="M10.078125 17.448076211353314L10.2890625 17.569861033760503L10.2890625 18.219380086598832L10.218750000000002 18.259975027401225L10.1484375 18.219380086598832L10.1484375 17.651050915365293L10.078125 17.610455974562896" stroke-width="0.03" stroke="#000000" fill="none"/>
<path d="M10.078125 17.529266092958107L10.218750000000002 17.610455974562896L10.2890625 17.569861033760503" stroke-width="0.03" stroke="#000000" fill="none"/>
<path d="M10.218750000000002 17.610455974562896L10.218750000000002 18.5035446722156L10.359375 18.58473455382039" stroke-width="0.03" stroke="#000000" fill="none"/>
<path d="M10.218750000000002 18.5035446722156L10.078125 18.58473455382039" stroke-width="0.03" stroke="#000000" fill="none"/>
<path d="M10.5 18.990683961844347L10.5 20.858051238754545L10.078125 21.101620883568916" stroke-width="0.03" stroke="#000000" fill="none"/>
<path d="M10.5 21.020431001964123L10.5 22.481848870850367" stroke-width="0.03" stroke="#000000" fill="none"/>
<path d="M10.5 23.293747686898275L11.203125 22.88779827887432" stroke-width="0.03" stroke="#000000" fill="none"/>
<path d="M11.625000000000002 23.131367923688696L10.921875000000002 23.53731733171265L11.273437500000002 23.740292035724625L11.273437500000002 24.06505156214379L10.8515625 24.308621206958165L10.5 24.10564650294619L10.1484375 24.308621206958165L9.7265625 24.06505156214379L9.7265625 23.740292035724625L10.078125 23.53731733171265L9.375 23.131367923688696" stroke-width="0.03" stroke="#000000" fill="none"/>
<path d="M9.375 23.45612745010786L9.1640625 23.577912272515047L8.25 23.050178042083903L8.25 23.212557805293486L9.1640625 23.740292035724625L9.515625 23.53731733171265" stroke-width="0.03" stroke="#000000" fill="none"/>
<path d="M9.7265625 23.740292035724625L10.1484375 23.983861680539L10.1484375 24.308621206958165" stroke-width="0.03" stroke="#000000" fill="none"/>
<path d="M10.1484375 23.983861680539L10.5 23.780886976527025L10.8515625 23.983861680539L11.273437500000002 23.740292035724625" stroke-width="0.03" stroke="#000000" fill="none"/>
<path d="M11.203125 23.699697094922232L13.031250000000002 22.644228634059946L13.031250000000002 21.18281076517371" stroke-width="0.03" stroke="#000000" fill="none"/>
<path d="M13.1015625 21.223405705976102L13.031250000000002 21.2640006467785" stroke-width="0.03" stroke="#000000" fill="none"/>
<path d="M13.1015625 21.223405705976102L13.1015625 21.466975350790477L13.031250000000002 21.507570291592874" stroke-width="0.03" stroke="#000000" fill="none"/>
<path d="M13.1015625 21.223405705976102L12.187500000000002 20.69567147554496L11.835937500000002 20.898646179556938" stroke-width="0.03" stroke="#000000" fill="none"/>
<path d="M12.46875 20.858051238754545L13.3125 20.370911949125794L13.3125 20.208532185916212" stroke-width="0.03" stroke="#000000" fill="none"/>
<path d="M13.734375 20.452101830730584L13.734375 18.909494080239554L13.453125 18.747114317029972" stroke-width="0.03" stroke="#000000" fill="none"/>
<path d="M13.734375 18.909494080239554L14.2265625 18.625329494622786" stroke-width="0.03" stroke="#000000" fill="none"/>
<path d="M14.367187500000002 19.03127890264674L14.2265625 19.112468784251533" stroke-width="0.03" stroke="#000000" fill="none"/>
<path d="M14.367187500000002 19.03127890264674L14.367187500000002 17.975810441784457L14.718749999999998 17.77283573777248L14.718749999999998 17.28569644814373L15.421875 17.69164585616769L14.648437500000002 18.13819020499404L14.648437500000002 21.223405705976102" stroke-width="0.03" stroke="#000000" fill="none"/>
<path d="M15.703125000000002 20.61448159394017L16.0546875 20.81745629795215L16.0546875 21.466975350790477L13.593750000000002 22.88779827887432L13.031250000000002 22.563038752455157" stroke-width="0.03" stroke="#000000" fill="none"/>
<path d="M12.75 23.050178042083903L11.835937500000002 23.577912272515047L11.835937500000002 23.740292035724625L11.484375000000002 23.53731733171265" stroke-width="0.03" stroke="#000000" fill="none"/>
<path d="M11.625000000000002 23.45612745010786L11.835937500000002 23.577912272515047" stroke-width="0.03" stroke="#000000" fill="none"/>
<path d="M11.835937500000002 23.740292035724625L12.75 23.212557805293486L12.75 23.050178042083903L12.539062500000002 22.928393219676718" stroke-width="0.03" stroke="#000000" fill="none"/>
<path d="M13.593750000000002 22.88779827887432L13.593750000000002 22.238279226035992L16.0546875 20.81745629795215" stroke-width="0.03" stroke="#000000" fill="none"/>
<path d="M15.773437500000002 19.68079795548507L17.0390625 18.95008902104195L17.0390625 19.03127890264674" stroke-width="0.03" stroke="#000000" fill="none"/>
<path d="M17.0390625 18.625329494622786L15.773437500000002 19.356038429065904L15.5625 19.23425360665872L15.5625 19.559013133077883L15.773437500000002 19.68079795548507L15.773437500000002 19.356038429065904" stroke-width="0.03" stroke="#000000" fill="none"/>
<path d="M15.5625 19.23425360665872L16.828125 18.5035446722156L17.0390625 18.625329494622786L17.0390625 17.163911625736546L16.828125 17.04212680332936L17.109375 16.879747040119774L17.320312500000004 17.001531862526964L17.320312500000004 18.462949731413204L17.390625 18.422354790610807" stroke-width="0.03" stroke="#000000" fill="none"/>
<path d="M16.828125 18.5035446722156L16.828125 17.04212680332936" stroke-width="0.03" stroke="#000000" fill="none"/>
<path d="M17.0390625 17.163911625736546L17.320312500000004 17.001531862526964" stroke-width="0.03" stroke="#000000" fill="none"/>
<path d="M18.09375 16.473797632095824L18.4453125 16.6767723361078L19.0078125 16.352012809688635L19.0078125 13.510366953520945L18.4453125 13.18560742710178" stroke-width="0.03" stroke="#000000" fill="none"/>
<path d="M17.882812500000004 13.510366953520945L18.4453125 13.83512647994011L18.4453125 16.6767723361078" stroke-width="0.03" stroke="#000000" fill="none"/>
<path d="M18.09375 15.255949408023953L15.421875 16.79855715851499L15.421875 17.69164585616769" stroke-width="0.03" stroke="#000000" fill="none"/>
<path d="M14.9296875 17.407481270550917L14.718749999999998 17.529266092958107" stroke-width="0.03" stroke="#000000" fill="none"/>
<path d="M14.718749999999998 17.366886329748525L14.859375 17.448076211353314" stroke-width="0.03" stroke="#000000" fill="none"/>
<path d="M14.9296875 17.407481270550917L14.9296875 17.163911625736546" stroke-width="0.03" stroke="#000000" fill="none"/>
<path d="M14.9296875 17.326291388946128L14.7890625 17.24510150734134" stroke-width="0.03" stroke="#000000" fill="none"/>
<path d="M15.140625 16.636177395305403L15.421875 16.79855715851499" stroke-width="0.03" stroke="#000000" fill="none"/>
<path d="M14.648437500000002 18.13819020499404L14.367187500000002 17.975810441784457" stroke-width="0.03" stroke="#000000" fill="none"/>
<path d="M12.9609375 17.894620560179668L12.9609375 19.843177718694655L12.539062500000002 19.59960807388028L12.539062500000002 19.112468784251533L12.3984375 19.03127890264674L11.835937500000002 19.356038429065904" stroke-width="0.03" stroke="#000000" fill="none"/>
<path d="M11.835937500000002 19.51841819227549L12.539062500000002 19.112468784251533" stroke-width="0.03" stroke="#000000" fill="none"/>
<path d="M12.046875 18.097595264191643L11.835937500000002 18.219380086598832" stroke-width="0.03" stroke="#000000" fill="none"/>
<path d="M11.835937500000002 18.13819020499404L12.046875 18.016405382586854" stroke-width="0.03" stroke="#000000" fill="none"/>
<path d="M10.921875000000002 17.69164585616769L10.8515625 17.651050915365293" stroke-width="0.03" stroke="#000000" fill="none"/>
<path d="M10.1484375 17.651050915365293L10.078125 17.69164585616769" stroke-width="0.03" stroke="#000000" fill="none"/>
<path d="M9.4453125 17.407481270550917L8.8125 17.04212680332936L8.8125 17.28569644814373" stroke-width="0.03" stroke="#000000" fill="none"/>
<path d="M8.671875 17.204506566538942L8.671875 16.473797632095824L8.1796875 16.189633046479052L8.1796875 15.621303875245514L8.53125 15.418329171233536L7.96875 15.093569644814371L7.96875 14.687620236790417" stroke-width="0.03" stroke="#000000" fill="none"/>
<path d="M7.898437500000001 14.728215177592812L7.898437500000001 14.971784822407185L7.96875 15.012379763209582L8.0390625 14.971784822407185L8.0390625 14.647025295988021" stroke-width="0.03" stroke="#000000" fill="none"/>
<path d="M7.757812499999999 14.484645532778439L8.390625 14.11929106555688" stroke-width="0.03" stroke="#000000" fill="none"/>
<path d="M7.757812499999999 14.484645532778439L7.757812499999999 15.215354467221559L7.96875 15.093569644814371" stroke-width="0.03" stroke="#000000" fill="none"/>
<path d="M7.757812499999999 15.215354467221559L7.546875 15.093569644814371" stroke-width="0.03" stroke="#000000" fill="none"/>
<path d="M7.546875 14.931189881604789L6.6328125 15.458924112035932L6.6328125 17.082721744131756L8.0390625 17.894620560179668L8.0390625 19.843177718694655L8.4609375 19.59960807388028L8.4609375 19.112468784251533L8.6015625 19.03127890264674L9.1640625 19.356038429065904" stroke-width="0.03" stroke="#000000" fill="none"/>
<path d="M9.1640625 19.193658665856326L9.1640625 21.06102594276652L9.65625 21.345190528383288" stroke-width="0.03" stroke="#000000" fill="none"/>
<path d="M9.1640625 20.898646179556938L8.8125 20.69567147554496L7.898437500000001 21.223405705976102L7.898437500000001 21.466975350790477L7.96875 21.507570291592874" stroke-width="0.03" stroke="#000000" fill="none"/>
<path d="M7.96875 21.2640006467785L7.898437500000001 21.223405705976102" stroke-width="0.03" stroke="#000000" fill="none"/>
<path d="M7.96875 21.18281076517371L7.96875 22.644228634059946L9.796875 23.699697094922232" stroke-width="0.03" stroke="#000000" fill="none"/>
<path d="M9.1640625 23.740292035724625L9.1640625 23.577912272515047" stroke-width="0.03" stroke="#000000" fill="none"/>
<path d="M9.796875 22.88779827887432L10.5 23.293747686898275" stroke-width="0.03" stroke="#000000" fill="none"/>
<path d="M10.5 23.780886976527025L10.5 24.10564650294619" stroke-width="0.03" stroke="#000000" fill="none"/>
<path d="M10.8515625 23.983861680539L10.8515625 24.308621206958165" stroke-width="0.03" stroke="#000000" fill="none"/>
<path d="M11.90625 21.832329818012038L11.0625 21.345190528383288" stroke-width="0.03" stroke="#000000" fill="none"/>
<path d="M10.921875000000002 21.101620883568916L10.5 20.858051238754545" stroke-width="0.03" stroke="#000000" fill="none"/>
<path d="M9.09375 21.832329818012038L7.96875 21.18281076517371" stroke-width="0.03" stroke="#000000" fill="none"/>
<path d="M8.109375 21.101620883568916L7.757812499999999 20.898646179556938L7.757812499999999 21.06102594276652L7.898437500000001 20.97983606116173" stroke-width="0.03" stroke="#000000" fill="none"/>
<path d="M7.757812499999999 21.06102594276652L6.84375 20.53329171233538" stroke-width="0.03" stroke="#000000" fill="none"/>
<path d="M6.84375 20.208532185916212L6.84375 20.939241120359334L6.3515625 21.223405705976102L4.1015625 19.924367600299444L4.1015625 19.03127890264674" stroke-width="0.03" stroke="#000000" fill="none"/>
<path d="M4.03125 18.990683961844347L3.9609375 19.03127890264674L3.679687499999999 18.86889913943716L3.679687499999999 18.78770925783237L3.609375 18.747114317029972L3.609375 18.422354790610807L3.679687499999999 18.38175984980841" stroke-width="0.03" stroke="#000000" fill="none"/>
<path d="M3.679687499999999 18.30056996820362L2.90625 17.85402561937727L2.90625 15.255949408023953L3.3984375 14.971784822407185L4.03125 15.337139289628746" stroke-width="0.03" stroke="#000000" fill="none"/>
<path d="M4.03125 15.418329171233536L4.03125 14.85L4.734375 14.444050591976044L4.9453125 14.56583541438323" stroke-width="0.03" stroke="#000000" fill="none"/>
<path d="M4.9453125 14.484645532778439L5.3671875 14.241075887964065L5.7890625 14.484645532778439L5.9296875 14.403455651173648L5.9296875 13.753936598335319" stroke-width="0.03" stroke="#000000" fill="none"/>
<path d="M6.0703125 13.83512647994011L6.28125 13.713341657532922" stroke-width="0.03" stroke="#000000" fill="none"/>
<path d="M6.28125 13.632151775928133L7.757812499999999 14.484645532778439" stroke-width="0.03" stroke="#000000" fill="none"/>
<path d="M7.546875 14.931189881604789L7.546875 16.55498751370061L6.6328125 17.082721744131756" stroke-width="0.03" stroke="#000000" fill="none"/>
<path d="M6.28125 17.28569644814373L5.578125 17.69164585616769L6.3515625 18.13819020499404L6.6328125 17.975810441784457L6.28125 17.77283573777248L6.28125 17.28569644814373L5.859375000000001 17.04212680332936L5.859375000000001 16.636177395305403L4.9453125 16.10844316487426L4.9453125 15.946063401664679" stroke-width="0.03" stroke="#000000" fill="none"/>
<path d="M5.3671875 16.189633046479052L5.6484375 16.02725328326947L5.6484375 15.458924112035932L4.9453125 15.052974704011977L4.9453125 14.484645532778439L6.6328125 15.458924112035932" stroke-width="0.03" stroke="#000000" fill="none"/>
<path d="M6.984375 14.606430355185626L6.984375 14.362860710371251" stroke-width="0.03" stroke="#000000" fill="none"/>
<path d="M6.914062500000001 14.322265769568856L6.914062500000001 14.56583541438323" stroke-width="0.03" stroke="#000000" fill="none"/>
<path d="M7.546875 14.931189881604789L5.9296875 13.997506243149692" stroke-width="0.03" stroke="#000000" fill="none"/>
<path d="M6.0703125 13.83512647994011L6.0703125 13.266797308706572L4.453125 12.333113670251475L4.59375 12.251923788646682" stroke-width="0.03" stroke="#000000" fill="none"/>
<path d="M4.453125 12.333113670251475L4.453125 12.90144284148501L6.0703125 13.83512647994011" stroke-width="0.03" stroke="#000000" fill="none"/>
<path d="M5.7890625 13.672746716730527L5.7890625 14.484645532778439" stroke-width="0.03" stroke="#000000" fill="none"/>
<path d="M5.6484375 15.458924112035932L5.3671875 15.621303875245514L4.03125 14.85" stroke-width="0.03" stroke="#000000" fill="none"/>
<path d="M3.7499999999999996 15.174759526419164L3.7499999999999996 14.11929106555688L3.8906249999999996 14.038101183952087" stroke-width="0.03" stroke="#000000" fill="none"/>
<path d="M3.8906249999999996 14.200480947161669L3.8906249999999996 13.794531539137715" stroke-width="0.03" stroke="#000000" fill="none"/>
<path d="M3.7499999999999996 13.875721420742504L3.7499999999999996 12.576683315065846" stroke-width="0.03" stroke="#000000" fill="none"/>
<path d="M4.59375 12.982632723089804L4.59375 13.388582131113758L3.679687499999999 13.9163163615449L3.46875 13.794531539137715L3.46875 13.713341657532922" stroke-width="0.03" stroke="#000000" fill="none"/>
<path d="M3.679687499999999 13.83512647994011L3.679687499999999 13.9163163615449" stroke-width="0.03" stroke="#000000" fill="none"/>
<path d="M3.7499999999999996 13.875721420742504L2.484375000000001 13.145012486299386L2.484375000000001 11.034075564574817" stroke-width="0.03" stroke="#000000" fill="none"/>
<path d="M2.4140625000000004 11.074670505377211L2.765625 10.871695801365235L2.765625 11.683594617413146" stroke-width="0.03" stroke="#000000" fill="none"/>
<path d="M2.484375000000001 11.521214854203564L2.2734375000000004 11.64299967661075L2.1328124999999996 11.561809795005958L2.1328124999999996 12.617278255868243L2.2734375000000004 12.698468137473034L2.484375000000001 12.576683315065846" stroke-width="0.03" stroke="#000000" fill="none"/>
<path d="M2.2734375000000004 12.698468137473034L2.2734375000000004 11.64299967661075" stroke-width="0.03" stroke="#000000" fill="none"/>
<path d="M2.1328124999999996 11.561809795005958L2.484375000000001 11.358835090993981" stroke-width="0.03" stroke="#000000" fill="none"/>
<path d="M2.4140625000000004 11.074670505377211L2.4140625000000004 10.587531215748463L2.1328124999999996 10.42515145253888L2.1328124999999996 10.912290742167627L2.4140625000000004 11.074670505377211" stroke-width="0.03" stroke="#000000" fill="none"/>
<path d="M2.4140625000000004 10.587531215748463L2.765625 10.384556511736488" stroke-width="0.03" stroke="#000000" fill="none"/>
<path d="M2.484375000000001 10.222176748526905L2.1328124999999996 10.42515145253888" stroke-width="0.03" stroke="#000000" fill="none"/>
<path d="M3.46875 9.653847577293366L3.46875 9.24789816926941L4.382812499999999 8.720163938838269L4.5234375 8.80135382044306L4.5234375 9.044923465257433" stroke-width="0.03" stroke="#000000" fill="none"/>
<path d="M4.5234375 8.80135382044306L3.609375 9.329088050874201L3.46875 9.24789816926941" stroke-width="0.03" stroke="#000000" fill="none"/>
<path d="M3.609375 9.329088050874201L3.609375 9.572657695688576" stroke-width="0.03" stroke="#000000" fill="none"/>
<path d="M5.0859375 8.80135382044306L5.0859375 8.151834767604731L5.6484375 8.476594294023895" stroke-width="0.03" stroke="#000000" fill="none"/>
<path d="M7.0546875 8.07064488599994L9.7265625 9.613252636490971" stroke-width="0.03" stroke="#000000" fill="none"/>
<path d="M9.234375 8.273619590011917L10.5 7.542910655568797L10.5 7.299341010754423L9.234375 8.030049945197543L9.234375 8.273619590011917L8.953125 8.111239826802334L8.953125 7.867670181987961L10.218750000000002 7.136961247544841L10.1484375 7.096366306742446" stroke-width="0.03" stroke="#000000" fill="none"/>
<path d="M10.5 7.299341010754423L11.765625 8.030049945197543L11.765625 8.273619590011917L12.046875 8.111239826802334L12.046875 7.867670181987961L10.78125 7.136961247544841L10.8515625 7.096366306742446" stroke-width="0.03" stroke="#000000" fill="none"/>
<path d="M10.5 7.542910655568797L11.765625 8.273619590011917" stroke-width="0.03" stroke="#000000" fill="none"/>
<path d="M11.765625 8.030049945197543L12.046875 7.867670181987961" stroke-width="0.03" stroke="#000000" fill="none"/>
<path d="M12.890625000000002 7.4617207739640055L12.890625000000002 7.05577136594005L13.453125 6.731011839520885L15.9140625 8.151834767604731L15.9140625 8.80135382044306" stroke-width="0.03" stroke="#000000" fill="none"/>
<path d="M16.4765625 8.80135382044306L16.617187500000004 8.720163938838269L17.53125 9.24789816926941L17.53125 9.653847577293366" stroke-width="0.03" stroke="#000000" fill="none"/>
<path d="M17.390625 9.572657695688576L17.390625 9.329088050874201L17.53125 9.24789816926941" stroke-width="0.03" stroke="#000000" fill="none"/>
<path d="M17.390625 9.329088050874201L16.4765625 8.80135382044306L16.4765625 9.044923465257433" stroke-width="0.03" stroke="#000000" fill="none"/>
<path d="M15.9140625 8.151834767604731L15.351562500000002 8.476594294023895L15.351562500000002 9.126113346862224" stroke-width="0.03" stroke="#000000" fill="none"/>
<path d="M15.351562500000002 8.476594294023895L12.890625000000002 7.05577136594005" stroke-width="0.03" stroke="#000000" fill="none"/>
<path d="M13.875 9.653847577293366L13.734375 9.735037458898159" stroke-width="0.03" stroke="#000000" fill="none"/>
<path d="M13.875 9.653847577293366L14.718749999999998 10.140986866922113" stroke-width="0.03" stroke="#000000" fill="none"/>
<path d="M17.53125 13.713341657532922L17.53125 13.794531539137715L17.320312500000004 13.9163163615449" stroke-width="0.03" stroke="#000000" fill="none"/>
<path d="M18.4453125 13.83512647994011L19.0078125 13.510366953520945" stroke-width="0.03" stroke="#000000" fill="none"/>
<path d="M10.921875000000002 18.58473455382039L10.78125 18.5035446722156" stroke-width="0.03" stroke="#000000" fill="none"/>
<path d="M9.1640625 18.219380086598832L8.953125 18.097595264191643" stroke-width="0.03" stroke="#000000" fill="none"/>
<path d="M8.953125 18.016405382586854L9.1640625 18.13819020499404" stroke-width="0.03" stroke="#000000" fill="none"/>
<path d="M8.953125 17.366886329748525L8.0390625 17.894620560179668" stroke-width="0.03" stroke="#000000" fill="none"/>
<path d="M7.546875 18.747114317029972L7.265625000000001 18.909494080239554L7.265625000000001 20.452101830730584L6.7734375 20.16793724511382L6.7734375 18.625329494622786L7.0546875 18.462949731413204L7.546875 18.747114317029972L7.546875 19.559013133077883L8.0390625 19.843177718694655" stroke-width="0.03" stroke="#000000" fill="none"/>
<path d="M7.96875 19.802582777892262L7.96875 20.04615242270663L7.265625000000001 20.452101830730584" stroke-width="0.03" stroke="#000000" fill="none"/>
<path d="M7.6875 20.370911949125794L7.6875 20.208532185916212" stroke-width="0.03" stroke="#000000" fill="none"/>
<path d="M7.6875 20.370911949125794L8.53125 20.858051238754545" stroke-width="0.03" stroke="#000000" fill="none"/>
<path d="M7.96875 21.913519699616828L7.40625 22.238279226035992L4.9453125 20.81745629795215L5.296875 20.61448159394017" stroke-width="0.03" stroke="#000000" fill="none"/>
<path d="M4.9453125 20.81745629795215L4.9453125 21.466975350790477L7.40625 22.88779827887432L7.96875 22.563038752455157" stroke-width="0.03" stroke="#000000" fill="none"/>
<path d="M8.25 23.050178042083903L8.4609375 22.928393219676718" stroke-width="0.03" stroke="#000000" fill="none"/>
<path d="M7.40625 22.88779827887432L7.40625 22.238279226035992" stroke-width="0.03" stroke="#000000" fill="none"/>
<path d="M6.3515625 21.223405705976102L6.3515625 18.13819020499404" stroke-width="0.03" stroke="#000000" fill="none"/>
<path d="M6.6328125 17.975810441784457L6.6328125 19.03127890264674L6.7734375 19.112468784251533" stroke-width="0.03" stroke="#000000" fill="none"/>
<path d="M6.7734375 18.625329494622786L7.265625000000001 18.909494080239554" stroke-width="0.03" stroke="#000000" fill="none"/>
<path d="M8.4609375 19.112468784251533L9.1640625 19.51841819227549" stroke-width="0.03" stroke="#000000" fill="none"/>
<path d="M8.953125 19.23425360665872L8.953125 17.366886329748525L7.546875 16.55498751370061" stroke-width="0.03" stroke="#000000" fill="none"/>
<path d="M8.1796875 16.189633046479052L8.53125 15.986658342467075L9.0234375 16.270822928083845L9.0234375 16.920341980922174L9.375 17.123316684934153" stroke-width="0.03" stroke="#000000" fill="none"/>
<path d="M9.3046875 17.163911625736546L9.09375 17.04212680332936L9.09375 16.960936921724567L9.1640625 16.920341980922174L9.4453125 17.082721744131756" stroke-width="0.03" stroke="#000000" fill="none"/>
<path d="M9.0234375 16.920341980922174L8.8125 17.04212680332936" stroke-width="0.03" stroke="#000000" fill="none"/>
<path d="M8.671875 16.473797632095824L9.0234375 16.270822928083845" stroke-width="0.03" stroke="#000000" fill="none"/>
<path d="M8.53125 15.986658342467075L8.53125 15.418329171233536" stroke-width="0.03" stroke="#000000" fill="none"/>
<path d="M8.1796875 15.621303875245514L7.546875 15.255949408023953" stroke-width="0.03" stroke="#000000" fill="none"/>
<path d="M5.859375000000001 16.636177395305403L5.578125 16.79855715851499L5.578125 17.69164585616769" stroke-width="0.03" stroke="#000000" fill="none"/>
<path d="M6.0703125 17.407481270550917L6.0703125 17.163911625736546" stroke-width="0.03" stroke="#000000" fill="none"/>
<path d="M6.0703125 17.326291388946128L6.210937500000001 17.24510150734134" stroke-width="0.03" stroke="#000000" fill="none"/>
<path d="M6.28125 17.366886329748525L6.140625 17.448076211353314" stroke-width="0.03" stroke="#000000" fill="none"/>
<path d="M6.0703125 17.407481270550917L6.28125 17.529266092958107" stroke-width="0.03" stroke="#000000" fill="none"/>
<path d="M5.578125 16.79855715851499L2.90625 15.255949408023953" stroke-width="0.03" stroke="#000000" fill="none"/>
<path d="M4.03125 15.418329171233536L5.3671875 16.189633046479052L5.3671875 15.621303875245514" stroke-width="0.03" stroke="#000000" fill="none"/>
<path d="M4.453125 14.606430355185626L4.3125 14.525240473580833L4.3125 13.55096189432334" stroke-width="0.03" stroke="#000000" fill="none"/>
<path d="M3.8906249999999996 14.200480947161669L3.7499999999999996 14.11929106555688" stroke-width="0.03" stroke="#000000" fill="none"/>
<path d="M3.1171875 13.510366953520945L2.5546875 13.83512647994011L1.9921874999999998 13.510366953520945L1.9921874999999998 16.352012809688635L2.5546875 16.6767723361078L2.90625 16.473797632095824" stroke-width="0.03" stroke="#000000" fill="none"/>
<path d="M2.5546875 16.6767723361078L2.5546875 13.83512647994011" stroke-width="0.03" stroke="#000000" fill="none"/>
<path d="M2.5546875 13.18560742710178L1.9921874999999998 13.510366953520945" stroke-width="0.03" stroke="#000000" fill="none"/>
<path d="M3.8906249999999996 16.879747040119774L3.679687499999999 17.001531862526964L3.679687499999999 18.462949731413204L3.609375 18.422354790610807" stroke-width="0.03" stroke="#000000" fill="none"/>
<path d="M3.9609375 18.625329494622786L4.171875 18.5035446722156L5.4375 19.23425360665872L5.4375 19.559013133077883L5.2265625 19.68079795548507L3.9609375 18.95008902104195L3.9609375 19.03127890264674" stroke-width="0.03" stroke="#000000" fill="none"/>
<path d="M3.9609375 18.625329494622786L3.9609375 17.163911625736546L3.679687499999999 17.001531862526964" stroke-width="0.03" stroke="#000000" fill="none"/>
<path d="M3.8906249999999996 16.879747040119774L4.171875 17.04212680332936L4.171875 18.5035446722156" stroke-width="0.03" stroke="#000000" fill="none"/>
<path d="M3.9609375 18.625329494622786L5.2265625 19.356038429065904L5.4375 19.23425360665872" stroke-width="0.03" stroke="#000000" fill="none"/>
<path d="M5.2265625 19.356038429065904L5.2265625 19.68079795548507" stroke-width="0.03" stroke="#000000" fill="none"/>
<path d="M3.9609375 17.163911625736546L4.171875 17.04212680332936" stroke-width="0.03" stroke="#000000" fill="none"/>
<path d="M13.031250000000002 21.913519699616828L13.593750000000002 22.238279226035992" stroke-width="0.03" stroke="#000000" fill="none"/>
<path d="M9.234375 8.030049945197543L8.953125 7.867670181987961" stroke-width="0.03" stroke="#000000" fill="none"/>
<path d="M7.264131938244363 2.2599663291074443L1.5 2.2599663291074443" stroke-width="0.03" stroke="#000000" fill="none"/>
<path d="M2.0824957911384305 2.015598694615191L2.0824957911384305 1.7268634256306838" stroke-width="0.03" stroke="#000000" fill="none"/>
<path d="M2.061871843353823 1.5824957911384305L2.0824957911384305 1.6031197389230383L2.1031197389230383 1.5824957911384305L2.0824957911384305 1.5618718433538228L2.061871843353823 1.5824957911384305" stroke-width="0.03" stroke="#000000" fill="none"/>
<path d="M2.226863425630684 1.953726851261368L2.2474873734152916 1.9949747468305832L2.3093592167691144 2.015598694615191L2.3712310601229376 2.015598694615191L2.4331029034767604 1.9949747468305832L2.4537268512613677 1.953726851261368L2.4537268512613677 1.9331029034767604L2.4331029034767604 1.891855007907545L2.391855007907545 1.8712310601229374L2.2887352689845066 1.8506071123383299L2.2474873734152916 1.8299831645537221L2.226863425630684 1.7887352689845069L2.2474873734152916 1.7474873734152916L2.3093592167691144 1.7268634256306838L2.3712310601229376 1.7268634256306838L2.4331029034767604 1.7474873734152916L2.4537268512613677 1.7887352689845069" stroke-width="0.03" stroke="#000000" fill="none"/>
<path d="M2.680590276892052 1.7268634256306838L2.6393423813228365 1.7474873734152916L2.5980944857536215 1.7887352689845069L2.5774705379690137 1.8506071123383299L2.5774705379690137 1.891855007907545L2.5980944857536215 1.953726851261368L2.6393423813228365 1.9949747468305832L2.680590276892052 2.015598694615191L2.7424621202458748 2.015598694615191L2.78371001581509 1.9949747468305832L2.8249579113843053 1.953726851261368L2.845581859168913 1.891855007907545L2.845581859168913 1.8506071123383299L2.8249579113843053 1.7887352689845069L2.78371001581509 1.7474873734152916L2.7424621202458748 1.7268634256306838L2.680590276892052 1.7268634256306838" stroke-width="0.03" stroke="#000000" fill="none"/>
<path d="M2.907453702522736 2.056846590184406L3.237436867076458 2.056846590184406" stroke-width="0.03" stroke="#000000" fill="none"/>
<path d="M3.2993087104302807 1.953726851261368L3.3199326582148885 1.9949747468305832L3.3818045015687113 2.015598694615191L3.443676344922534 2.015598694615191L3.5055481882763573 1.9949747468305832L3.526172136060965 1.953726851261368L3.526172136060965 1.9331029034767604L3.5055481882763573 1.891855007907545L3.464300292707142 1.8712310601229374L3.361180553784104 1.8506071123383299L3.3199326582148885 1.8299831645537221L3.2993087104302807 1.7887352689845069L3.3199326582148885 1.7474873734152916L3.3818045015687113 1.7268634256306838L3.443676344922534 1.7268634256306838L3.5055481882763573 1.7474873734152916L3.526172136060965 1.7887352689845069" stroke-width="0.03" stroke="#000000" fill="none"/>
<path d="M3.6705397705532183 1.8093592167691144L3.732411613907041 1.7474873734152916L3.773659509476256 1.7268634256306838L3.8355313528300794 1.7268634256306838L3.8767792483992944 1.7474873734152916L3.897403196183902 1.8093592167691144L3.897403196183902 2.015598694615191" stroke-width="0.03" stroke="#000000" fill="none"/>
<path d="M3.6705397705532183 2.015598694615191L3.6705397705532183 1.7268634256306838" stroke-width="0.03" stroke="#000000" fill="none"/>
<path d="M4.144890569599194 1.7268634256306838L4.103642674029978 1.7474873734152916L4.062394778460764 1.7887352689845069L4.041770830676155 1.8506071123383299L4.041770830676155 1.891855007907545L4.062394778460764 1.953726851261368L4.103642674029978 1.9949747468305832L4.144890569599194 2.015598694615191L4.206762412953017 2.015598694615191L4.2480103085222325 1.9949747468305832L4.289258204091447 1.953726851261368L4.309882151876055 1.891855007907545L4.309882151876055 1.8506071123383299L4.289258204091447 1.7887352689845069L4.2480103085222325 1.7474873734152916L4.206762412953017 1.7268634256306838L4.144890569599194 1.7268634256306838" stroke-width="0.03" stroke="#000000" fill="none"/>
<path d="M4.4336258385837 1.7268634256306838L4.516121629722131 2.015598694615191L4.5986174208605615 1.7268634256306838L4.681113211998992 2.015598694615191L4.7636090031374225 1.7268634256306838" stroke-width="0.03" stroke="#000000" fill="none"/>
<path d="M4.866728742060461 1.7268634256306838L5.011096376552715 1.7268634256306838" stroke-width="0.03" stroke="#000000" fill="none"/>
<path d="M5.031720324337321 1.5824957911384305L4.990472428768107 1.5824957911384305L4.949224533198891 1.6031197389230383L4.928600585414284 1.664991582276861L4.928600585414284 2.015598694615191" stroke-width="0.03" stroke="#000000" fill="none"/>
<path d="M5.155464011044968 2.015598694615191L5.155464011044968 1.5824957911384305" stroke-width="0.03" stroke="#000000" fill="none"/>
<path d="M5.547319018952512 1.7268634256306838L5.547319018952512 2.015598694615191" stroke-width="0.03" stroke="#000000" fill="none"/>
<path d="M5.547319018952512 1.953726851261368L5.506071123383298 1.9949747468305832L5.464823227814082 2.015598694615191L5.402951384460259 2.015598694615191L5.3617034888910435 1.9949747468305832L5.320455593321829 1.953726851261368L5.299831645537221 1.891855007907545L5.299831645537221 1.8506071123383299L5.320455593321829 1.7887352689845069L5.3617034888910435 1.7474873734152916L5.402951384460259 1.7268634256306838L5.464823227814082 1.7268634256306838L5.506071123383298 1.7474873734152916L5.547319018952512 1.7887352689845069" stroke-width="0.03" stroke="#000000" fill="none"/>
<path d="M5.712310601229374 1.9331029034767604L5.91855007907545 1.7268634256306838" stroke-width="0.03" stroke="#000000" fill="none"/>
<path d="M5.794806392367804 1.8506071123383299L5.939174026860058 2.015598694615191" stroke-width="0.03" stroke="#000000" fill="none"/>
<path d="M6.042293765783096 1.8506071123383299L6.2897811391983875 1.8506071123383299L6.2897811391983875 1.8093592167691144L6.26915719141378 1.7681113211998993L6.248533243629172 1.7474873734152916L6.207285348059957 1.7268634256306838L6.145413504706134 1.7268634256306838L6.104165609136919 1.7474873734152916L6.062917713567703 1.7887352689845069L6.042293765783096 1.8506071123383299L6.042293765783096 1.891855007907545L6.062917713567703 1.953726851261368L6.104165609136919 1.9949747468305832L6.145413504706134 2.015598694615191L6.207285348059957 2.015598694615191L6.248533243629172 1.9949747468305832L6.2897811391983875 1.953726851261368" stroke-width="0.03" stroke="#000000" fill="none"/>
<path d="M6.434148773690641 1.6856155300614688L6.434148773690641 1.664991582276861L6.454772721475249 1.6237436867076458L6.475396669259856 1.6031197389230383L6.516644564829072 1.5824957911384305L6.599140355967502 1.5824957911384305L6.640388251536717 1.6031197389230383L6.661012199321325 1.6237436867076458L6.681636147105933 1.664991582276861L6.681636147105933 1.7062394778460763L6.661012199321325 1.7474873734152916L6.61976430375211 1.8093592167691144L6.413524825906033 2.015598694615191L6.702260094890541 2.015598694615191" stroke-width="0.03" stroke="#000000" fill="none"/>
<path d="M5.712310601229374 2.015598694615191L5.712310601229374 1.5824957911384305" stroke-width="0.03" stroke="#000000" fill="none"/>
<path d="M4.345319331208673 2.7109515319598065L4.3070804290694005 2.7236978326728973L4.28158782764322 2.761936734812169L4.268841526930129 2.825668238377622L4.268841526930129 2.8639071405168943L4.28158782764322 2.927638644082347L4.3070804290694005 2.965877546221619L4.345319331208673 2.9786238469347097L4.370811932634854 2.9786238469347097L4.409050834774126 2.965877546221619L4.434543436200307 2.927638644082347L4.4472897369133975 2.8639071405168943L4.4472897369133975 2.825668238377622L4.434543436200307 2.761936734812169L4.409050834774126 2.7236978326728973L4.370811932634854 2.7109515319598065L4.345319331208673 2.7109515319598065" stroke-width="0.03" stroke="#000000" fill="none"/>
<path d="M4.052154414807589 2.761936734812169L4.07764701623377 2.7491904340990785L4.115885918373042 2.7109515319598065L4.115885918373042 2.9786238469347097" stroke-width="0.03" stroke="#000000" fill="none"/>
<path d="M3.835467302685048 2.7109515319598065L3.797228400545776 2.7236978326728973L3.771735799119595 2.761936734812169L3.758989498406504 2.825668238377622L3.758989498406504 2.8639071405168943L3.771735799119595 2.927638644082347L3.797228400545776 2.965877546221619L3.835467302685048 2.9786238469347097L3.8609599041112292 2.9786238469347097L3.899198806250501 2.965877546221619L3.9246914076766823 2.927638644082347L3.9374377083897727 2.8639071405168943L3.9374377083897727 2.825668238377622L3.9246914076766823 2.761936734812169L3.899198806250501 2.7236978326728973L3.8609599041112292 2.7109515319598065L3.835467302685048 2.7109515319598065" stroke-width="0.03" stroke="#000000" fill="none"/>
<path d="M3.708004295554142 2.7109515319598065L3.542302386283964 2.7109515319598065L3.542302386283964 2.9786238469347097" stroke-width="0.03" stroke="#000000" fill="none"/>
<path d="M3.542302386283964 2.8384145390907127L3.644272791988689 2.8384145390907127" stroke-width="0.03" stroke="#000000" fill="none"/>
<path d="M3.338361574874514 2.7109515319598065L3.3001226727352426 2.7236978326728973L3.287376372022152 2.7491904340990785L3.287376372022152 2.7746830355252596L3.3001226727352426 2.8001756369514412L3.3256152741614233 2.8129219376645316L3.376600477013786 2.825668238377622L3.414839379153058 2.8384145390907127L3.440331980579239 2.8639071405168943L3.4530782812923295 2.889399741943075L3.4530782812923295 2.927638644082347L3.440331980579239 2.953131245508528L3.4275856798661484 2.965877546221619L3.3893467777268764 2.9786238469347097L3.338361574874514 2.9786238469347097L3.3001226727352426 2.965877546221619L3.287376372022152 2.953131245508528L3.274630071309061 2.927638644082347L3.274630071309061 2.889399741943075L3.287376372022152 2.8639071405168943L3.312868973448333 2.8384145390907127L3.351107875587605 2.825668238377622L3.402093078439967 2.8129219376645316L3.4275856798661484 2.8001756369514412L3.440331980579239 2.7746830355252596L3.440331980579239 2.7491904340990785L3.4275856798661484 2.7236978326728973L3.3893467777268764 2.7109515319598065L3.338361574874514 2.7109515319598065" stroke-width="0.03" stroke="#000000" fill="none"/>
<path d="M3.185405966317427 2.8001756369514412L3.1726596656043364 2.8384145390907127L3.147167064178155 2.8639071405168943L3.1089281620388833 2.8766534412299847L3.0961818613257925 2.8766534412299847L3.057942959186521 2.8639071405168943L3.0324503577603394 2.8384145390907127L3.0197040570472486 2.8001756369514412L3.0197040570472486 2.7874293362383504L3.0324503577603394 2.7491904340990785L3.057942959186521 2.7236978326728973L3.0961818613257925 2.7109515319598065L3.1089281620388833 2.7109515319598065L3.147167064178155 2.7236978326728973L3.1726596656043364 2.7491904340990785L3.185405966317427 2.8001756369514412L3.185405966317427 2.8639071405168943L3.1726596656043364 2.927638644082347L3.147167064178155 2.965877546221619L3.1089281620388833 2.9786238469347097L3.0834355606127017 2.9786238469347097L3.0451966584734302 2.965877546221619L3.0324503577603394 2.9403849447954378" stroke-width="0.03" stroke="#000000" fill="none"/>
<path d="M2.7647780427854367 2.927638644082347L2.777524343498527 2.953131245508528L2.790270644211618 2.965877546221619L2.82850954635089 2.9786238469347097L2.8667484484901617 2.9786238469347097L2.9049873506294333 2.965877546221619L2.930479952055615 2.9403849447954378L2.943226252768705 2.902146042656166L2.943226252768705 2.8766534412299847L2.930479952055615 2.8384145390907127L2.917733651342524 2.825668238377622L2.892241049916343 2.8129219376645316L2.854002147777071 2.8129219376645316L2.930479952055615 2.7109515319598065L2.790270644211618 2.7109515319598065" stroke-width="0.03" stroke="#000000" fill="none"/>
<path d="M2.5353446299498055 2.7109515319598065L2.6755539377938025 2.7109515319598065L2.5990761335152586 2.8129219376645316L2.6373150356545305 2.8129219376645316L2.6628076370807117 2.825668238377622L2.6755539377938025 2.8384145390907127L2.6883002385068933 2.8766534412299847L2.6883002385068933 2.902146042656166L2.6755539377938025 2.9403849447954378L2.6500613363676213 2.965877546221619L2.6118224342283494 2.9786238469347097L2.5735835320890774 2.9786238469347097L2.5353446299498055 2.965877546221619L2.522598329236715 2.953131245508528L2.5098520285236243 2.927638644082347" stroke-width="0.03" stroke="#000000" fill="none"/>
<path d="M2.433374224245081 2.9786238469347097L2.293164916401084 2.8001756369514412" stroke-width="0.03" stroke="#000000" fill="none"/>
<path d="M2.433374224245081 2.8001756369514412L2.293164916401084 2.9786238469347097" stroke-width="0.03" stroke="#000000" fill="none"/>
<path d="M2.1147167064178154 2.7109515319598065L2.076477804278544 2.7236978326728973L2.0509852028523623 2.761936734812169L2.038238902139272 2.825668238377622L2.038238902139272 2.8639071405168943L2.0509852028523623 2.927638644082347L2.076477804278544 2.965877546221619L2.1147167064178154 2.9786238469347097L2.140209307843997 2.9786238469347097L2.1784482099832685 2.965877546221619L2.2039408114094496 2.927638644082347L2.2166871121225404 2.8639071405168943L2.2166871121225404 2.825668238377622L2.2039408114094496 2.761936734812169L2.1784482099832685 2.7236978326728973L2.140209307843997 2.7109515319598065L2.1147167064178154 2.7109515319598065" stroke-width="0.03" stroke="#000000" fill="none"/>
</svg>
