<?xml version="1.0" standalone="no"?>
<svg width="21cm" height="29.7cm" version="1.1" xmlns="http://www.w3.org/2000/svg" viewBox="0.0 0.0 21.000001 29.700001">
<path d="M6.84375 6.8122017211256765L8.390625 5.919113023472974L9.375 6.487442194706512L9.375 6.731011839520885L7.828125 7.624100537173588L7.1953125 7.2587460699520285L6.5625 7.624100537173588L6.5625 9.004328524455037L6.7734375 9.126113346862224" stroke-width="0.03" stroke="#000000" fill="none"/>
<path d="M6.703125 9.329088050874201L4.453125 10.62812615655086L4.453125 11.358835090993981L3.8203125000000004 11.72418955821554L3.539062500000001 11.561809795005958L4.171875 11.196455327784399L4.453125 11.358835090993981" stroke-width="0.03" stroke="#000000" fill="none"/>
<path d="M4.171875 11.196455327784399L4.171875 10.465746393341277L6.421875 9.166708287664619L6.703125 9.329088050874201L6.703125 11.115265446179606" stroke-width="0.03" stroke="#000000" fill="none"/>
<path d="M6.7734375 11.074670505377211L6.28125 11.358835090993981L6.28125 11.764784499017935L6.6328125 11.967759203029914" stroke-width="0.03" stroke="#000000" fill="none"/>
<path d="M6.6328125 12.37370861105387L5.859375000000001 11.927164262227517L6.28125 11.683594617413146" stroke-width="0.03" stroke="#000000" fill="none"/>
<path d="M6.140625 11.764784499017935L5.9296875 11.64299967661075L5.9296875 11.074670505377211" stroke-width="0.03" stroke="#000000" fill="none"/>
<path d="M6.28125 11.358835090993981L6.6328125 11.561809795005958" stroke-width="0.03" stroke="#000000" fill="none"/>
<path d="M6.6328125 11.237050268586794L7.546875 10.709316038155652L7.828125 10.871695801365235L8.953125 10.222176748526905L8.953125 10.059796985317323L7.828125 9.410277932478992L6.703125 10.059796985317323L7.828125 10.709316038155652L7.828125 10.871695801365235" stroke-width="0.03" stroke="#000000" fill="none"/>
<path d="M7.828125 10.709316038155652L8.953125 10.059796985317323" stroke-width="0.03" stroke="#000000" fill="none"/>
<path d="M8.8828125 9.938012162910134L8.8828125 9.126113346862224L9.0234375 9.044923465257433L10.2890625 9.775632399700552L10.5 9.653847577293366L10.7109375 9.775632399700552L11.976562500000002 9.044923465257433L12.1171875 9.126113346862224L12.1171875 9.938012162910134" stroke-width="0.03" stroke="#000000" fill="none"/>
<path d="M12.187500000000002 9.97860710371253L11.34375 9.491467814083784L10.7109375 9.856822281305345L10.5 9.735037458898159L10.2890625 9.856822281305345L9.65625 9.491467814083784L8.8125 9.97860710371253" stroke-width="0.03" stroke="#000000" fill="none"/>
<path d="M9.0234375 9.856822281305345L9.0234375 9.044923465257433" stroke-width="0.03" stroke="#000000" fill="none"/>
<path d="M8.8828125 9.126113346862224L6.7734375 7.9082651227903575L6.7734375 9.856822281305345L6.703125 9.897417222107741" stroke-width="0.03" stroke="#000000" fill="none"/>
<path d="M6.7734375 9.856822281305345L6.914062500000001 9.938012162910134" stroke-width="0.03" stroke="#000000" fill="none"/>
<path d="M6.703125 10.62812615655086L4.9453125 11.64299967661075L4.9453125 13.672746716730527" stroke-width="0.03" stroke="#000000" fill="none"/>
<path d="M4.9453125 13.510366953520945L5.0859375 13.591556835125736" stroke-width="0.03" stroke="#000000" fill="none"/>
<path d="M5.3671875 13.510366953520945L5.3671875 12.942037782287407L5.71875 12.739063078275429L6.0703125 12.942037782287407" stroke-width="0.03" stroke="#000000" fill="none"/>
<path d="M6.421875 12.739063078275429L5.6484375 12.292518729449078L5.6484375 12.779658019077825" stroke-width="0.03" stroke="#000000" fill="none"/>
<path d="M5.6484375 12.617278255868243L5.4375 12.495493433461057L4.9453125 12.779658019077825" stroke-width="0.03" stroke="#000000" fill="none"/>
<path d="M5.3671875 12.942037782287407L5.71875 13.145012486299386" stroke-width="0.03" stroke="#000000" fill="none"/>
<path d="M5.4375 13.307392249508968L6.492187500000001 12.698468137473034" stroke-width="0.03" stroke="#000000" fill="none"/>
<path d="M6.492187500000001 12.617278255868243L6.5625 12.576683315065846L6.5625 12.495493433461057L6.84375 12.333113670251475L7.40625 12.65787319667064L7.40625 12.739063078275429L7.6875 12.576683315065846L7.125 12.251923788646682L6.914062500000001 12.37370861105387" stroke-width="0.03" stroke="#000000" fill="none"/>
<path d="M6.6328125 12.45489849265866L6.6328125 11.237050268586794L7.898437500000001 11.967759203029914L10.5 10.465746393341277L13.1015625 11.967759203029914L14.367187500000002 11.237050268586794L14.367187500000002 12.45489849265866" stroke-width="0.03" stroke="#000000" fill="none"/>
<path d="M14.367187500000002 12.37370861105387L15.140625 11.927164262227517L15.140625 12.170733907041893L13.875 12.90144284148501L13.875 12.820252959880222L13.593750000000002 12.65787319667064L14.15625 12.333113670251475L14.437500000000002 12.495493433461057L14.437500000000002 12.576683315065846L14.5078125 12.617278255868243L14.5078125 12.942037782287407L13.945312500000002 13.266797308706572L13.875 13.226202367904175L13.875 13.55096189432334L14.437500000000002 13.226202367904175L14.437500000000002 12.982632723089804" stroke-width="0.03" stroke="#000000" fill="none"/>
<path d="M14.578125 12.739063078275429L15.351562500000002 12.292518729449078L15.351562500000002 12.779658019077825" stroke-width="0.03" stroke="#000000" fill="none"/>
<path d="M15.28125 12.739063078275429L14.9296875 12.942037782287407" stroke-width="0.03" stroke="#000000" fill="none"/>
<path d="M15.28125 13.145012486299386L15.6328125 12.942037782287407L15.28125 12.739063078275429" stroke-width="0.03" stroke="#000000" fill="none"/>
<path d="M15.351562500000002 12.617278255868243L15.5625 12.495493433461057L16.0546875 12.779658019077825" stroke-width="0.03" stroke="#000000" fill="none"/>
<path d="M15.6328125 12.942037782287407L15.6328125 13.510366953520945L15.5625 13.55096189432334" stroke-width="0.03" stroke="#000000" fill="none"/>
<path d="M15.6328125 13.429177071916154L17.1796875 14.322265769568856L17.4609375 14.159886006359274L17.4609375 11.561809795005958L16.828125 11.196455327784399L16.546875 11.358835090993981L16.546875 10.62812615655086L14.296875000000002 9.329088050874201L14.578125 9.166708287664619L16.828125 10.465746393341277L16.828125 11.196455327784399" stroke-width="0.03" stroke="#000000" fill="none"/>
<path d="M16.546875 11.358835090993981L17.1796875 11.72418955821554L17.4609375 11.561809795005958" stroke-width="0.03" stroke="#000000" fill="none"/>
<path d="M17.1796875 11.72418955821554L17.1796875 14.322265769568856" stroke-width="0.03" stroke="#000000" fill="none"/>
<path d="M17.320312500000004 14.484645532778439L17.53125 14.362860710371251L18.7265625 15.052974704011977L18.7265625 15.783683638455097L18.09375 16.14903810567666L18.09375 17.93521550098206L18.3046875 18.057000323389246L19.289062500000004 17.48867115215571L19.289062500000004 15.702493756850306L18.7265625 15.377734230431141" stroke-width="0.03" stroke="#000000" fill="none"/>
<path d="M18.7265625 15.052974704011977L18.375 15.255949408023953L18.375 15.093569644814371L16.6875 14.11929106555688L16.546875 14.200480947161669" stroke-width="0.03" stroke="#000000" fill="none"/>
<path d="M16.6875 14.11929106555688L16.6875 14.038101183952087" stroke-width="0.03" stroke="#000000" fill="none"/>
<path d="M16.546875 13.956911302347297L15.421875 14.606430355185626L15.421875 15.905468460862282L15.28125 15.824278579257493L15.28125 14.525240473580833L15.5625 14.362860710371251L15.5625 13.307392249508968L14.5078125 12.698468137473034" stroke-width="0.03" stroke="#000000" fill="none"/>
<path d="M14.5078125 12.617278255868243L13.945312500000002 12.942037782287407L13.945312500000002 13.266797308706572" stroke-width="0.03" stroke="#000000" fill="none"/>
<path d="M13.875 13.55096189432334L13.593750000000002 13.388582131113758L13.593750000000002 13.063822604694593L13.3125 12.90144284148501L13.3125 12.576683315065846L13.875 12.251923788646682L14.0859375 12.37370861105387" stroke-width="0.03" stroke="#000000" fill="none"/>
<path d="M14.437500000000002 12.495493433461057L13.875 12.820252959880222" stroke-width="0.03" stroke="#000000" fill="none"/>
<path d="M13.875 12.90144284148501L13.945312500000002 12.942037782287407" stroke-width="0.03" stroke="#000000" fill="none"/>
<path d="M13.593750000000002 13.063822604694593L13.1015625 13.347987190311363L13.1015625 11.967759203029914" stroke-width="0.03" stroke="#000000" fill="none"/>
<path d="M13.3125 12.576683315065846L13.593750000000002 12.739063078275429L13.593750000000002 12.65787319667064" stroke-width="0.03" stroke="#000000" fill="none"/>
<path d="M13.031250000000002 12.820252959880222L12.890625000000002 12.90144284148501L10.640625 11.602404735808353L10.640625 12.0895440254371L10.9921875 12.292518729449078L10.9921875 13.429177071916154L10.7109375 13.591556835125736L10.5 13.46977201271855L10.2890625 13.591556835125736L10.0078125 13.429177071916154L10.0078125 12.292518729449078L10.359375 12.0895440254371L10.359375 11.602404735808353L10.218750000000002 11.521214854203564L7.96875 12.820252959880222L7.96875 13.388582131113758L8.109375 13.46977201271855L7.6171875 13.753936598335319L7.4765625 13.672746716730527L7.96875 13.388582131113758" stroke-width="0.03" stroke="#000000" fill="none"/>
<path d="M7.898437500000001 13.347987190311363L6.703125 14.038101183952087L5.4375 13.307392249508968L5.4375 14.362860710371251L5.71875 14.525240473580833L5.71875 15.824278579257493L5.578125 15.905468460862282L4.453125 15.255949408023953L4.453125 13.956911302347297L5.578125 14.606430355185626L5.578125 15.905468460862282" stroke-width="0.03" stroke="#000000" fill="none"/>
<path d="M5.4375 15.905468460862282L4.734375 16.311417868886238L2.624999999999999 15.093569644814371L2.624999999999999 15.255949408023953L2.2734375000000004 15.052974704011977L3.46875 14.362860710371251L3.679687499999999 14.484645532778439" stroke-width="0.03" stroke="#000000" fill="none"/>
<path d="M3.8203125000000004 14.322265769568856L5.3671875 13.429177071916154" stroke-width="0.03" stroke="#000000" fill="none"/>
<path d="M5.3671875 13.510366953520945L5.4375 13.55096189432334" stroke-width="0.03" stroke="#000000" fill="none"/>
<path d="M5.71875 14.525240473580833L5.578125 14.606430355185626" stroke-width="0.03" stroke="#000000" fill="none"/>
<path d="M4.453125 14.200480947161669L4.3125 14.11929106555688L2.624999999999999 15.093569644814371" stroke-width="0.03" stroke="#000000" fill="none"/>
<path d="M2.2734375000000004 15.052974704011977L2.2734375000000004 15.783683638455097L2.90625 16.14903810567666L2.90625 17.93521550098206L2.695312500000001 18.057000323389246L1.7109375000000002 17.48867115215571L1.7109375000000002 15.702493756850306L2.2734375000000004 15.377734230431141" stroke-width="0.03" stroke="#000000" fill="none"/>
<path d="M1.7109375000000002 15.702493756850306L2.695312500000001 16.270822928083845L2.695312500000001 19.924367600299444L3.8203125000000004 20.573886653137773" stroke-width="0.03" stroke="#000000" fill="none"/>
<path d="M3.8203125000000004 20.005557481904233L4.03125 19.883772659497048L5.578125 20.776861357149752L5.578125 21.507570291592874L6.210937500000001 21.87292475881443L7.40625 21.18281076517371L7.40625 20.939241120359334" stroke-width="0.03" stroke="#000000" fill="none"/>
<path d="M7.6171875 20.898646179556938L9.1640625 20.005557481904233" stroke-width="0.03" stroke="#000000" fill="none"/>
<path d="M9.09375 19.96496254110184L9.09375 19.883772659497048" stroke-width="0.03" stroke="#000000" fill="none"/>
<path d="M9.09375 19.96496254110184L9.5859375 20.249127126718612L9.9375 20.04615242270663L9.9375 19.640203014682676" stroke-width="0.03" stroke="#000000" fill="none"/>
<path d="M9.5859375 19.843177718694655L9.5859375 20.249127126718612" stroke-width="0.03" stroke="#000000" fill="none"/>
<path d="M9.867187500000002 20.086747363509026L10.2890625 20.330317008323398L10.5 20.208532185916212L10.7109375 20.330317008323398L11.1328125 20.086747363509026" stroke-width="0.03" stroke="#000000" fill="none"/>
<path d="M11.0625 20.04615242270663L11.0625 19.640203014682676" stroke-width="0.03" stroke="#000000" fill="none"/>
<path d="M11.0625 20.04615242270663L11.4140625 20.249127126718612L11.90625 19.96496254110184L11.90625 19.883772659497048" stroke-width="0.03" stroke="#000000" fill="none"/>
<path d="M11.835937500000002 20.005557481904233L13.382812500000002 20.898646179556938L13.382812500000002 21.223405705976102L11.1328125 22.52244381165276L10.5 22.157089344431203L9.867187500000002 22.52244381165276L7.6171875 21.223405705976102L7.6171875 20.898646179556938L9.867187500000002 22.197684285233596L10.5 21.832329818012038L11.1328125 22.197684285233596L13.382812500000002 20.898646179556938" stroke-width="0.03" stroke="#000000" fill="none"/>
<path d="M13.593750000000002 20.939241120359334L13.593750000000002 21.18281076517371L14.7890625 21.87292475881443L15.421875 21.507570291592874L15.421875 20.776861357149752L16.96875 19.883772659497048L17.1796875 20.005557481904233L17.1796875 21.142215824371313L15.6328125 22.035304522024013L15.070312500000002 21.71054499560485" stroke-width="0.03" stroke="#000000" fill="none"/>
<path d="M14.7890625 21.87292475881443L14.7890625 21.466975350790477L14.648437500000002 21.548165232395267L12.9609375 20.573886653137773L12.9609375 20.41150688992819" stroke-width="0.03" stroke="#000000" fill="none"/>
<path d="M12.9609375 20.573886653137773L12.890625000000002 20.61448159394017" stroke-width="0.03" stroke="#000000" fill="none"/>
<path d="M12.75 20.53329171233538L13.875 19.883772659497048L13.875 18.58473455382039L13.734375 18.5035446722156L12.609375 19.15306372505393L12.609375 19.477823251473097L11.6953125 20.005557481904233L10.640625 19.3966333698683" stroke-width="0.03" stroke="#000000" fill="none"/>
<path d="M10.570312500000002 19.437228310670697L10.8515625 19.274848547461115L10.8515625 18.625329494622786L10.78125 18.58473455382039L11.0625 18.422354790610807L10.78125 18.259975027401225L10.5 18.422354790610807L10.218750000000002 18.259975027401225L9.9375 18.422354790610807L9.9375 19.071873843449136L10.1484375 19.193658665856326" stroke-width="0.03" stroke="#000000" fill="none"/>
<path d="M10.1484375 19.274848547461115L10.1484375 18.625329494622786L10.218750000000002 18.58473455382039L9.9375 18.422354790610807" stroke-width="0.03" stroke="#000000" fill="none"/>
<path d="M10.1484375 18.625329494622786L10.4296875 18.78770925783237L10.4296875 19.437228310670697L10.1484375 19.274848547461115" stroke-width="0.03" stroke="#000000" fill="none"/>
<path d="M10.2890625 19.437228310670697L10.2890625 20.330317008323398" stroke-width="0.03" stroke="#000000" fill="none"/>
<path d="M10.5 20.208532185916212L10.5 18.747114317029972L10.570312500000002 18.78770925783237L10.8515625 18.625329494622786" stroke-width="0.03" stroke="#000000" fill="none"/>
<path d="M11.0625 18.422354790610807L11.0625 19.071873843449136L10.8515625 19.193658665856326" stroke-width="0.03" stroke="#000000" fill="none"/>
<path d="M10.7109375 19.437228310670697L10.7109375 20.330317008323398" stroke-width="0.03" stroke="#000000" fill="none"/>
<path d="M10.9921875 20.41150688992819L10.9921875 20.16793724511382" stroke-width="0.03" stroke="#000000" fill="none"/>
<path d="M10.9921875 20.41150688992819L11.484375000000002 20.69567147554496" stroke-width="0.03" stroke="#000000" fill="none"/>
<path d="M11.4140625 20.249127126718612L11.4140625 19.843177718694655" stroke-width="0.03" stroke="#000000" fill="none"/>
<path d="M11.6953125 20.005557481904233L11.6953125 18.544139613017997L10.5 17.85402561937727L9.3046875 18.544139613017997L9.3046875 20.005557481904233L8.390625 19.477823251473097L8.390625 19.15306372505393L7.265625000000001 18.5035446722156L7.125 18.58473455382039L7.125 19.883772659497048L8.25 20.53329171233538L8.25 19.23425360665872L7.125 18.58473455382039" stroke-width="0.03" stroke="#000000" fill="none"/>
<path d="M7.0546875 18.706519376227575L6.3515625 19.112468784251533L6.3515625 21.548165232395267L6.210937500000001 21.466975350790477L6.210937500000001 21.87292475881443" stroke-width="0.03" stroke="#000000" fill="none"/>
<path d="M5.9296875 21.71054499560485L5.3671875 22.035304522024013L3.8203125000000004 21.142215824371313L3.8203125000000004 20.005557481904233" stroke-width="0.03" stroke="#000000" fill="none"/>
<path d="M3.9609375 19.924367600299444L2.8359374999999996 19.274848547461115L2.695312500000001 19.356038429065904" stroke-width="0.03" stroke="#000000" fill="none"/>
<path d="M2.8359374999999996 19.274848547461115L2.8359374999999996 17.975810441784457" stroke-width="0.03" stroke="#000000" fill="none"/>
<path d="M2.203125 17.77283573777248L2.203125 19.071873843449136L5.3671875 20.898646179556938L5.578125 20.776861357149752" stroke-width="0.03" stroke="#000000" fill="none"/>
<path d="M5.3671875 20.898646179556938L5.3671875 22.035304522024013" stroke-width="0.03" stroke="#000000" fill="none"/>
<path d="M6.3515625 21.548165232395267L8.0390625 20.573886653137773L8.0390625 20.41150688992819" stroke-width="0.03" stroke="#000000" fill="none"/>
<path d="M8.0390625 20.573886653137773L8.109375 20.61448159394017" stroke-width="0.03" stroke="#000000" fill="none"/>
<path d="M8.7421875 20.249127126718612L10.5 21.2640006467785L12.2578125 20.249127126718612" stroke-width="0.03" stroke="#000000" fill="none"/>
<path d="M12.1171875 20.330317008323398L12.1171875 20.16793724511382" stroke-width="0.03" stroke="#000000" fill="none"/>
<path d="M12.75 20.53329171233538L12.75 19.23425360665872L13.875 18.58473455382039" stroke-width="0.03" stroke="#000000" fill="none"/>
<path d="M13.945312500000002 18.706519376227575L14.648437500000002 19.112468784251533L14.648437500000002 21.548165232395267" stroke-width="0.03" stroke="#000000" fill="none"/>
<path d="M15.421875 20.776861357149752L15.6328125 20.898646179556938L18.796875 19.071873843449136L18.796875 17.77283573777248" stroke-width="0.03" stroke="#000000" fill="none"/>
<path d="M18.1640625 17.975810441784457L18.1640625 19.274848547461115L17.0390625 19.924367600299444" stroke-width="0.03" stroke="#000000" fill="none"/>
<path d="M17.1796875 20.573886653137773L18.3046875 19.924367600299444L18.3046875 16.270822928083845L19.289062500000004 15.702493756850306" stroke-width="0.03" stroke="#000000" fill="none"/>
<path d="M18.375 15.093569644814371L16.265625 16.311417868886238L16.265625 16.473797632095824L15.000000000000002 17.204506566538942L14.9296875 17.163911625736546L14.9296875 17.407481270550917L14.718749999999998 17.529266092958107L14.718749999999998 18.259975027401225L13.875 18.747114317029972" stroke-width="0.03" stroke="#000000" fill="none"/>
<path d="M14.0859375 18.625329494622786L14.7890625 19.03127890264674L14.648437500000002 19.112468784251533" stroke-width="0.03" stroke="#000000" fill="none"/>
<path d="M14.7890625 19.03127890264674L14.7890625 17.569861033760503L15.000000000000002 17.448076211353314L15.000000000000002 17.204506566538942" stroke-width="0.03" stroke="#000000" fill="none"/>
<path d="M14.9296875 17.163911625736546L15.5625 16.79855715851499L15.5625 15.824278579257493" stroke-width="0.03" stroke="#000000" fill="none"/>
<path d="M15.5625 15.905468460862282L16.265625 16.311417868886238" stroke-width="0.03" stroke="#000000" fill="none"/>
<path d="M16.265625 16.473797632095824L15.5625 16.067848224071867" stroke-width="0.03" stroke="#000000" fill="none"/>
<path d="M15.421875 15.905468460862282L16.546875 15.255949408023953L16.546875 13.956911302347297" stroke-width="0.03" stroke="#000000" fill="none"/>
<path d="M16.0546875 13.672746716730527L16.0546875 11.64299967661075L14.296875000000002 10.62812615655086" stroke-width="0.03" stroke="#000000" fill="none"/>
<path d="M14.296875000000002 10.790505919760442L14.437500000000002 10.709316038155652" stroke-width="0.03" stroke="#000000" fill="none"/>
<path d="M14.2265625 11.074670505377211L14.15625 11.115265446179606" stroke-width="0.03" stroke="#000000" fill="none"/>
<path d="M14.2265625 11.074670505377211L14.718749999999998 11.358835090993981L14.718749999999998 11.764784499017935L14.367187500000002 11.967759203029914" stroke-width="0.03" stroke="#000000" fill="none"/>
<path d="M14.367187500000002 11.561809795005958L14.718749999999998 11.358835090993981" stroke-width="0.03" stroke="#000000" fill="none"/>
<path d="M14.718749999999998 11.683594617413146L15.140625 11.927164262227517" stroke-width="0.03" stroke="#000000" fill="none"/>
<path d="M15.140625 12.170733907041893L15.351562500000002 12.292518729449078" stroke-width="0.03" stroke="#000000" fill="none"/>
<path d="M15.070312500000002 11.64299967661075L14.859375 11.764784499017935" stroke-width="0.03" stroke="#000000" fill="none"/>
<path d="M15.070312500000002 11.64299967661075L15.070312500000002 11.074670505377211" stroke-width="0.03" stroke="#000000" fill="none"/>
<path d="M14.367187500000002 11.237050268586794L13.453125 10.709316038155652L13.171875 10.871695801365235L12.046875 10.222176748526905L12.046875 10.059796985317323L13.171875 9.410277932478992L14.296875000000002 10.059796985317323L13.171875 10.709316038155652L12.046875 10.059796985317323" stroke-width="0.03" stroke="#000000" fill="none"/>
<path d="M11.976562500000002 9.856822281305345L11.976562500000002 9.044923465257433" stroke-width="0.03" stroke="#000000" fill="none"/>
<path d="M12.1171875 9.126113346862224L14.2265625 7.9082651227903575L14.0859375 7.827075241185566L14.437500000000002 7.624100537173588L14.437500000000002 9.004328524455037L14.2265625 9.126113346862224" stroke-width="0.03" stroke="#000000" fill="none"/>
<path d="M14.296875000000002 9.329088050874201L14.296875000000002 11.115265446179606" stroke-width="0.03" stroke="#000000" fill="none"/>
<path d="M13.171875 10.871695801365235L13.171875 10.709316038155652" stroke-width="0.03" stroke="#000000" fill="none"/>
<path d="M14.0859375 9.938012162910134L14.2265625 9.856822281305345L14.296875000000002 9.897417222107741" stroke-width="0.03" stroke="#000000" fill="none"/>
<path d="M14.2265625 9.856822281305345L14.2265625 7.9082651227903575" stroke-width="0.03" stroke="#000000" fill="none"/>
<path d="M14.437500000000002 7.624100537173588L13.8046875 7.2587460699520285L13.171875 7.624100537173588L11.625000000000002 6.731011839520885L11.625000000000002 6.487442194706512L12.609375 5.919113023472974L14.15625 6.8122017211256765L14.15625 7.4617207739640055" stroke-width="0.03" stroke="#000000" fill="none"/>
<path d="M14.15625 6.8122017211256765L13.171875 7.380530892359214L13.171875 7.624100537173588" stroke-width="0.03" stroke="#000000" fill="none"/>
<path d="M13.171875 7.380530892359214L10.0078125 5.553758556251414L8.8828125 6.203277609089743" stroke-width="0.03" stroke="#000000" fill="none"/>
<path d="M9.375 6.649821957916094L10.5 6.000302905077765L11.625000000000002 6.649821957916094" stroke-width="0.03" stroke="#000000" fill="none"/>
<path d="M12.1171875 6.203277609089743L10.9921875 5.553758556251414L7.828125 7.380530892359214L7.828125 7.624100537173588" stroke-width="0.03" stroke="#000000" fill="none"/>
<path d="M7.828125 7.380530892359214L6.84375 6.8122017211256765L6.84375 7.4617207739640055" stroke-width="0.03" stroke="#000000" fill="none"/>
<path d="M6.5625 7.624100537173588L6.914062500000001 7.827075241185566L6.7734375 7.9082651227903575" stroke-width="0.03" stroke="#000000" fill="none"/>
<path d="M6.5625 10.709316038155652L6.703125 10.790505919760442" stroke-width="0.03" stroke="#000000" fill="none"/>
<path d="M6.7734375 11.074670505377211L6.84375 11.115265446179606" stroke-width="0.03" stroke="#000000" fill="none"/>
<path d="M5.859375000000001 11.927164262227517L5.859375000000001 12.170733907041893L7.125 12.90144284148501L7.0546875 12.942037782287407L7.0546875 13.266797308706572L6.492187500000001 12.942037782287407L6.492187500000001 12.617278255868243L7.0546875 12.942037782287407" stroke-width="0.03" stroke="#000000" fill="none"/>
<path d="M7.125 12.90144284148501L7.125 12.820252959880222L7.40625 12.65787319667064" stroke-width="0.03" stroke="#000000" fill="none"/>
<path d="M7.6875 12.576683315065846L7.6875 12.90144284148501L7.40625 13.063822604694593L7.40625 13.388582131113758L7.125 13.55096189432334L6.5625 13.226202367904175L6.5625 12.982632723089804" stroke-width="0.03" stroke="#000000" fill="none"/>
<path d="M6.5625 12.495493433461057L7.125 12.820252959880222" stroke-width="0.03" stroke="#000000" fill="none"/>
<path d="M7.40625 13.063822604694593L7.898437500000001 13.347987190311363L7.898437500000001 11.967759203029914" stroke-width="0.03" stroke="#000000" fill="none"/>
<path d="M7.96875 12.820252959880222L8.109375 12.90144284148501L10.359375 11.602404735808353" stroke-width="0.03" stroke="#000000" fill="none"/>
<path d="M10.5 11.44002497259877L10.78125 11.277645209389188L11.5546875 11.72418955821554L11.5546875 11.967759203029914" stroke-width="0.03" stroke="#000000" fill="none"/>
<path d="M11.625000000000002 12.00835414383231L11.625000000000002 11.44002497259877L11.484375000000002 11.358835090993981L11.203125 11.521214854203564" stroke-width="0.03" stroke="#000000" fill="none"/>
<path d="M11.34375 11.602404735808353L11.625000000000002 11.44002497259877" stroke-width="0.03" stroke="#000000" fill="none"/>
<path d="M11.5546875 11.72418955821554L11.34375 11.845974380622728" stroke-width="0.03" stroke="#000000" fill="none"/>
<path d="M10.9921875 12.292518729449078L10.7109375 12.45489849265866L10.5 12.333113670251475L10.2890625 12.45489849265866L10.0078125 12.292518729449078" stroke-width="0.03" stroke="#000000" fill="none"/>
<path d="M10.2890625 12.45489849265866L10.2890625 13.591556835125736" stroke-width="0.03" stroke="#000000" fill="none"/>
<path d="M10.5 13.632151775928133L9.867187500000002 13.997506243149692" stroke-width="0.03" stroke="#000000" fill="none"/>
<path d="M9.867187500000002 13.753936598335319L9.65625 13.875721420742504L9.4453125 13.753936598335319L9.4453125 14.241075887964065L9.0234375 14.484645532778439L9.0234375 14.728215177592812L9.234375 14.85L9.65625 14.606430355185626L9.65625 15.337139289628746L10.2890625 15.702493756850306L9.867187500000002 15.946063401664679L9.867187500000002 16.189633046479052L10.078125 16.311417868886238L10.5 16.067848224071867L10.921875000000002 16.311417868886238L11.1328125 16.189633046479052L11.1328125 15.946063401664679L10.7109375 15.702493756850306L11.34375 15.337139289628746L11.34375 14.606430355185626L11.765625 14.85L11.976562500000002 14.728215177592812L11.976562500000002 14.484645532778439L11.5546875 14.241075887964065L11.34375 14.362860710371251L11.34375 13.875721420742504L11.5546875 13.753936598335319L11.5546875 14.241075887964065" stroke-width="0.03" stroke="#000000" fill="none"/>
<path d="M11.34375 14.362860710371251L11.765625 14.606430355185626L11.765625 14.85" stroke-width="0.03" stroke="#000000" fill="none"/>
<path d="M11.765625 14.606430355185626L11.976562500000002 14.484645532778439" stroke-width="0.03" stroke="#000000" fill="none"/>
<path d="M11.5546875 14.728215177592812L11.5546875 15.458924112035932L10.921875000000002 15.824278579257493" stroke-width="0.03" stroke="#000000" fill="none"/>
<path d="M11.1328125 15.946063401664679L10.921875000000002 16.067848224071867L10.921875000000002 16.311417868886238" stroke-width="0.03" stroke="#000000" fill="none"/>
<path d="M10.921875000000002 16.067848224071867L10.5 15.824278579257493L10.078125 16.067848224071867L10.078125 16.311417868886238" stroke-width="0.03" stroke="#000000" fill="none"/>
<path d="M10.078125 16.067848224071867L9.867187500000002 15.946063401664679" stroke-width="0.03" stroke="#000000" fill="none"/>
<path d="M10.078125 15.824278579257493L9.4453125 15.458924112035932L9.4453125 14.728215177592812" stroke-width="0.03" stroke="#000000" fill="none"/>
<path d="M9.234375 14.606430355185626L9.65625 14.362860710371251L9.65625 13.875721420742504" stroke-width="0.03" stroke="#000000" fill="none"/>
<path d="M9.65625 13.632151775928133L9.4453125 13.753936598335319" stroke-width="0.03" stroke="#000000" fill="none"/>
<path d="M9.65625 13.632151775928133L9.867187500000002 13.753936598335319L9.867187500000002 14.241075887964065L10.5 13.875721420742504L11.1328125 14.241075887964065L11.1328125 13.753936598335319L11.34375 13.632151775928133L11.5546875 13.753936598335319" stroke-width="0.03" stroke="#000000" fill="none"/>
<path d="M11.34375 13.875721420742504L11.1328125 13.753936598335319" stroke-width="0.03" stroke="#000000" fill="none"/>
<path d="M11.1328125 13.997506243149692L10.5 13.632151775928133L10.5 12.333113670251475" stroke-width="0.03" stroke="#000000" fill="none"/>
<path d="M10.7109375 12.45489849265866L10.7109375 13.591556835125736" stroke-width="0.03" stroke="#000000" fill="none"/>
<path d="M10.5 13.875721420742504L10.5 14.85L9.65625 15.337139289628746" stroke-width="0.03" stroke="#000000" fill="none"/>
<path d="M9.4453125 15.458924112035932L8.3203125 16.10844316487426L8.3203125 15.864873520059888L9.3046875 15.29654434882635L9.0234375 15.134164585616768L8.0390625 15.702493756850306L8.0390625 16.10844316487426L7.6171875 16.352012809688635L7.4765625 16.270822928083845L7.4765625 13.672746716730527" stroke-width="0.03" stroke="#000000" fill="none"/>
<path d="M7.6171875 13.753936598335319L7.6171875 16.352012809688635" stroke-width="0.03" stroke="#000000" fill="none"/>
<path d="M7.546875 16.55498751370061L6.703125 17.04212680332936L9.3046875 18.544139613017997" stroke-width="0.03" stroke="#000000" fill="none"/>
<path d="M10.0078125 18.057000323389246L10.5 17.77283573777248L10.9921875 18.057000323389246L13.242187500000002 16.75796221771259L13.242187500000002 16.59558245450301L12.8203125 16.352012809688635L12.46875 16.55498751370061L11.484375000000002 15.986658342467075L11.484375000000002 15.661898816047911L11.6953125 15.540113993640723L11.6953125 15.29654434882635L11.976562500000002 15.134164585616768L12.9609375 15.702493756850306L12.9609375 16.10844316487426L13.382812500000002 16.352012809688635L13.5234375 16.270822928083845L13.5234375 13.672746716730527L13.031250000000002 13.388582131113758L13.031250000000002 12.820252959880222L10.78125 11.521214854203564L10.640625 11.602404735808353" stroke-width="0.03" stroke="#000000" fill="none"/>
<path d="M10.5 11.44002497259877L10.5 10.465746393341277" stroke-width="0.03" stroke="#000000" fill="none"/>
<path d="M10.2890625 9.856822281305345L10.2890625 9.775632399700552" stroke-width="0.03" stroke="#000000" fill="none"/>
<path d="M10.5 9.735037458898159L10.5 9.653847577293366" stroke-width="0.03" stroke="#000000" fill="none"/>
<path d="M10.7109375 9.775632399700552L10.7109375 9.856822281305345" stroke-width="0.03" stroke="#000000" fill="none"/>
<path d="M10.218750000000002 11.277645209389188L9.4453125 11.72418955821554L9.4453125 11.967759203029914" stroke-width="0.03" stroke="#000000" fill="none"/>
<path d="M9.375 12.00835414383231L9.375 11.44002497259877L9.515625 11.358835090993981L9.796875 11.521214854203564" stroke-width="0.03" stroke="#000000" fill="none"/>
<path d="M9.65625 11.602404735808353L9.375 11.44002497259877" stroke-width="0.03" stroke="#000000" fill="none"/>
<path d="M9.4453125 11.72418955821554L9.65625 11.845974380622728" stroke-width="0.03" stroke="#000000" fill="none"/>
<path d="M10.218750000000002 11.277645209389188L10.5 11.44002497259877" stroke-width="0.03" stroke="#000000" fill="none"/>
<path d="M10.5 14.11929106555688L9.867187500000002 14.484645532778439L9.867187500000002 15.215354467221559L10.5 15.580708934443118L11.1328125 15.215354467221559L11.1328125 14.484645532778439L10.5 14.11929106555688" stroke-width="0.03" stroke="#000000" fill="none"/>
<path d="M10.5 14.687620236790417L10.359375 14.768810118395209L10.359375 14.931189881604789L10.5 15.012379763209582L10.640625 14.931189881604789L10.640625 14.768810118395209L10.5 14.687620236790417" stroke-width="0.03" stroke="#000000" fill="none"/>
<path d="M10.5 14.85L11.34375 15.337139289628746" stroke-width="0.03" stroke="#000000" fill="none"/>
<path d="M11.5546875 15.458924112035932L12.679687500000002 16.10844316487426L12.679687500000002 15.864873520059888L12.9609375 15.702493756850306" stroke-width="0.03" stroke="#000000" fill="none"/>
<path d="M12.679687500000002 15.864873520059888L11.6953125 15.29654434882635" stroke-width="0.03" stroke="#000000" fill="none"/>
<path d="M11.484375000000002 15.661898816047911L12.46875 16.230227987281445L12.679687500000002 16.10844316487426" stroke-width="0.03" stroke="#000000" fill="none"/>
<path d="M12.46875 16.230227987281445L12.46875 16.55498751370061" stroke-width="0.03" stroke="#000000" fill="none"/>
<path d="M12.679687500000002 17.082721744131756L12.679687500000002 17.326291388946128L12.46875 17.204506566538942" stroke-width="0.03" stroke="#000000" fill="none"/>
<path d="M12.3984375 17.24510150734134L12.890625000000002 17.529266092958107L13.031250000000002 17.448076211353314L13.031250000000002 17.123316684934153" stroke-width="0.03" stroke="#000000" fill="none"/>
<path d="M12.890625000000002 17.204506566538942L12.890625000000002 17.529266092958107" stroke-width="0.03" stroke="#000000" fill="none"/>
<path d="M12.679687500000002 17.326291388946128L13.453125 16.879747040119774L13.453125 16.55498751370061L13.734375 16.39260775049103L13.734375 15.499519052838329L13.5234375 15.377734230431141" stroke-width="0.03" stroke="#000000" fill="none"/>
<path d="M13.5234375 15.29654434882635L14.015625 15.580708934443118L14.015625 15.7430886976527L13.734375 15.905468460862282" stroke-width="0.03" stroke="#000000" fill="none"/>
<path d="M13.734375 15.7430886976527L14.015625 15.580708934443118" stroke-width="0.03" stroke="#000000" fill="none"/>
<path d="M13.734375 15.499519052838329L13.5234375 15.621303875245514" stroke-width="0.03" stroke="#000000" fill="none"/>
<path d="M13.382812500000002 16.352012809688635L13.382812500000002 13.753936598335319L13.5234375 13.672746716730527" stroke-width="0.03" stroke="#000000" fill="none"/>
<path d="M13.382812500000002 13.753936598335319L12.890625000000002 13.46977201271855L12.890625000000002 12.90144284148501" stroke-width="0.03" stroke="#000000" fill="none"/>
<path d="M13.1015625 13.347987190311363L14.296875000000002 14.038101183952087L15.5625 13.307392249508968" stroke-width="0.03" stroke="#000000" fill="none"/>
<path d="M15.9140625 13.591556835125736L16.0546875 13.510366953520945" stroke-width="0.03" stroke="#000000" fill="none"/>
<path d="M15.421875 14.606430355185626L15.28125 14.525240473580833" stroke-width="0.03" stroke="#000000" fill="none"/>
<path d="M14.296875000000002 14.038101183952087L14.296875000000002 17.04212680332936L11.6953125 18.544139613017997" stroke-width="0.03" stroke="#000000" fill="none"/>
<path d="M10.9921875 18.057000323389246L10.9921875 17.894620560179668L10.5 17.610455974562896L10.0078125 17.894620560179668L10.0078125 18.057000323389246L7.757812499999999 16.75796221771259L7.757812499999999 16.59558245450301L8.1796875 16.352012809688635L8.53125 16.55498751370061L9.515625 15.986658342467075L9.515625 15.661898816047911L9.3046875 15.540113993640723L9.3046875 15.29654434882635" stroke-width="0.03" stroke="#000000" fill="none"/>
<path d="M9.515625 15.661898816047911L8.53125 16.230227987281445L8.3203125 16.10844316487426" stroke-width="0.03" stroke="#000000" fill="none"/>
<path d="M8.3203125 15.864873520059888L8.0390625 15.702493756850306" stroke-width="0.03" stroke="#000000" fill="none"/>
<path d="M7.4765625 15.621303875245514L7.265625000000001 15.499519052838329L7.4765625 15.377734230431141" stroke-width="0.03" stroke="#000000" fill="none"/>
<path d="M7.4765625 15.29654434882635L6.984375 15.580708934443118L6.984375 15.7430886976527L7.265625000000001 15.905468460862282" stroke-width="0.03" stroke="#000000" fill="none"/>
<path d="M7.265625000000001 15.7430886976527L6.984375 15.580708934443118" stroke-width="0.03" stroke="#000000" fill="none"/>
<path d="M7.265625000000001 15.499519052838329L7.265625000000001 16.39260775049103L7.546875 16.55498751370061L7.546875 16.879747040119774L8.3203125 17.326291388946128L8.53125 17.204506566538942" stroke-width="0.03" stroke="#000000" fill="none"/>
<path d="M8.6015625 17.24510150734134L8.109375 17.529266092958107L7.96875 17.448076211353314L7.96875 17.123316684934153" stroke-width="0.03" stroke="#000000" fill="none"/>
<path d="M8.109375 17.204506566538942L8.109375 17.529266092958107" stroke-width="0.03" stroke="#000000" fill="none"/>
<path d="M8.3203125 17.326291388946128L8.3203125 17.082721744131756" stroke-width="0.03" stroke="#000000" fill="none"/>
<path d="M8.53125 16.55498751370061L8.53125 16.230227987281445" stroke-width="0.03" stroke="#000000" fill="none"/>
<path d="M7.757812499999999 16.59558245450301L10.0078125 17.894620560179668" stroke-width="0.03" stroke="#000000" fill="none"/>
<path d="M10.5 17.85402561937727L10.5 18.422354790610807" stroke-width="0.03" stroke="#000000" fill="none"/>
<path d="M10.5 18.747114317029972L10.4296875 18.78770925783237" stroke-width="0.03" stroke="#000000" fill="none"/>
<path d="M10.570312500000002 18.78770925783237L10.570312500000002 19.437228310670697L10.5 19.3966333698683L10.4296875 19.437228310670697" stroke-width="0.03" stroke="#000000" fill="none"/>
<path d="M10.359375 19.3966333698683L9.3046875 20.005557481904233" stroke-width="0.03" stroke="#000000" fill="none"/>
<path d="M8.8828125 20.16793724511382L8.8828125 20.330317008323398" stroke-width="0.03" stroke="#000000" fill="none"/>
<path d="M9.515625 20.69567147554496L10.0078125 20.41150688992819L10.0078125 20.16793724511382" stroke-width="0.03" stroke="#000000" fill="none"/>
<path d="M10.5 21.832329818012038L10.5 22.157089344431203" stroke-width="0.03" stroke="#000000" fill="none"/>
<path d="M9.867187500000002 22.197684285233596L9.867187500000002 22.52244381165276" stroke-width="0.03" stroke="#000000" fill="none"/>
<path d="M11.1328125 22.52244381165276L11.1328125 22.197684285233596" stroke-width="0.03" stroke="#000000" fill="none"/>
<path d="M12.75 19.23425360665872L12.609375 19.15306372505393" stroke-width="0.03" stroke="#000000" fill="none"/>
<path d="M10.9921875 17.894620560179668L13.242187500000002 16.59558245450301" stroke-width="0.03" stroke="#000000" fill="none"/>
<path d="M13.453125 16.55498751370061L14.296875000000002 17.04212680332936" stroke-width="0.03" stroke="#000000" fill="none"/>
<path d="M14.718749999999998 17.529266092958107L14.7890625 17.569861033760503" stroke-width="0.03" stroke="#000000" fill="none"/>
<path d="M14.9296875 17.407481270550917L15.000000000000002 17.448076211353314" stroke-width="0.03" stroke="#000000" fill="none"/>
<path d="M18.09375 16.14903810567666L18.3046875 16.270822928083845" stroke-width="0.03" stroke="#000000" fill="none"/>
<path d="M18.1640625 19.274848547461115L18.3046875 19.356038429065904" stroke-width="0.03" stroke="#000000" fill="none"/>
<path d="M15.6328125 20.898646179556938L15.6328125 22.035304522024013" stroke-width="0.03" stroke="#000000" fill="none"/>
<path d="M10.5 17.77283573777248L10.5 17.610455974562896" stroke-width="0.03" stroke="#000000" fill="none"/>
<path d="M10.5 16.067848224071867L10.5 15.824278579257493" stroke-width="0.03" stroke="#000000" fill="none"/>
<path d="M9.234375 14.85L9.234375 14.606430355185626L9.0234375 14.484645532778439" stroke-width="0.03" stroke="#000000" fill="none"/>
<path d="M9.4453125 14.241075887964065L9.65625 14.362860710371251" stroke-width="0.03" stroke="#000000" fill="none"/>
<path d="M8.109375 13.46977201271855L8.109375 12.90144284148501" stroke-width="0.03" stroke="#000000" fill="none"/>
<path d="M7.125 13.226202367904175L7.0546875 13.266797308706572" stroke-width="0.03" stroke="#000000" fill="none"/>
<path d="M7.125 13.226202367904175L7.125 13.55096189432334" stroke-width="0.03" stroke="#000000" fill="none"/>
<path d="M6.703125 14.038101183952087L6.703125 17.04212680332936" stroke-width="0.03" stroke="#000000" fill="none"/>
<path d="M6.0703125 17.163911625736546L6 17.204506566538942L6 17.448076211353314L6.210937500000001 17.569861033760503L6.210937500000001 19.03127890264674L6.3515625 19.112468784251533" stroke-width="0.03" stroke="#000000" fill="none"/>
<path d="M6.210937500000001 19.03127890264674L6.914062500000001 18.625329494622786" stroke-width="0.03" stroke="#000000" fill="none"/>
<path d="M7.125 18.747114317029972L6.28125 18.259975027401225L6.28125 17.529266092958107L6.0703125 17.407481270550917L6.0703125 17.163911625736546L5.4375 16.79855715851499L5.4375 15.824278579257493" stroke-width="0.03" stroke="#000000" fill="none"/>
<path d="M5.4375 16.067848224071867L4.734375 16.473797632095824L6 17.204506566538942" stroke-width="0.03" stroke="#000000" fill="none"/>
<path d="M6.0703125 17.407481270550917L6 17.448076211353314" stroke-width="0.03" stroke="#000000" fill="none"/>
<path d="M6.210937500000001 17.569861033760503L6.28125 17.529266092958107" stroke-width="0.03" stroke="#000000" fill="none"/>
<path d="M4.734375 16.473797632095824L4.734375 16.311417868886238" stroke-width="0.03" stroke="#000000" fill="none"/>
<path d="M2.90625 16.14903810567666L2.695312500000001 16.270822928083845" stroke-width="0.03" stroke="#000000" fill="none"/>
<path d="M3.8203125000000004 14.322265769568856L3.8203125000000004 11.72418955821554" stroke-width="0.03" stroke="#000000" fill="none"/>
<path d="M3.539062500000001 11.561809795005958L3.539062500000001 14.159886006359274L3.8203125000000004 14.322265769568856" stroke-width="0.03" stroke="#000000" fill="none"/>
<path d="M4.3125 14.11929106555688L4.3125 14.038101183952087" stroke-width="0.03" stroke="#000000" fill="none"/>
<path d="M5.6484375 12.292518729449078L5.859375000000001 12.170733907041893" stroke-width="0.03" stroke="#000000" fill="none"/>
<path d="M4.453125 10.62812615655086L4.171875 10.465746393341277" stroke-width="0.03" stroke="#000000" fill="none"/>
<path d="M4.179617421938495 2.9786238469347097L4.179617421938495 2.7109515319598065L4.052154414807589 2.889399741943075L4.243348925503947 2.889399741943075" stroke-width="0.03" stroke="#000000" fill="none"/>
<path d="M4.319826729782491 2.8384145390907127L4.421797135487216 2.8384145390907127" stroke-width="0.03" stroke="#000000" fill="none"/>
<path d="M4.485528639052669 2.7109515319598065L4.319826729782491 2.7109515319598065L4.319826729782491 2.9786238469347097L4.485528639052669 2.9786238469347097" stroke-width="0.03" stroke="#000000" fill="none"/>
<path d="M3.9501840091028635 2.7109515319598065L3.8227210019719573 2.7109515319598065L3.8099747012588665 2.825668238377622L3.8227210019719573 2.8129219376645316L3.8609599041112292 2.8001756369514412L3.899198806250501 2.8001756369514412L3.9374377083897727 2.8129219376645316L3.9629303098159543 2.8384145390907127L3.9756766105290446 2.8766534412299847L3.9756766105290446 2.902146042656166L3.9629303098159543 2.9403849447954378L3.9374377083897727 2.965877546221619L3.899198806250501 2.9786238469347097L3.8609599041112292 2.9786238469347097L3.8227210019719573 2.965877546221619L3.8099747012588665 2.953131245508528L3.797228400545776 2.927638644082347" stroke-width="0.03" stroke="#000000" fill="none"/>
<path d="M3.644272791988689 2.9786238469347097L3.644272791988689 2.7109515319598065L3.6060338898494173 2.7491904340990785L3.5805412884232357 2.761936734812169" stroke-width="0.03" stroke="#000000" fill="none"/>
<path d="M3.478570882718511 2.889399741943075L3.287376372022152 2.889399741943075L3.414839379153058 2.7109515319598065L3.414839379153058 2.9786238469347097" stroke-width="0.03" stroke="#000000" fill="none"/>
<path d="M3.1089281620388833 2.7109515319598065L3.0706892598996114 2.7236978326728973L3.0451966584734302 2.761936734812169L3.0324503577603394 2.825668238377622L3.0324503577603394 2.8639071405168943L3.0451966584734302 2.927638644082347L3.0706892598996114 2.965877546221619L3.1089281620388833 2.9786238469347097L3.1344207634650645 2.9786238469347097L3.1726596656043364 2.965877546221619L3.198152267030517 2.927638644082347L3.210898567743608 2.8639071405168943L3.210898567743608 2.825668238377622L3.198152267030517 2.761936734812169L3.1726596656043364 2.7236978326728973L3.1344207634650645 2.7109515319598065L3.1089281620388833 2.7109515319598065" stroke-width="0.03" stroke="#000000" fill="none"/>
<path d="M2.892241049916343 2.8384145390907127L2.930479952055615 2.825668238377622L2.943226252768705 2.8129219376645316L2.955972553481796 2.7874293362383504L2.955972553481796 2.761936734812169L2.943226252768705 2.736444133385988L2.930479952055615 2.7236978326728973L2.892241049916343 2.7109515319598065L2.777524343498527 2.7109515319598065L2.777524343498527 2.9786238469347097L2.892241049916343 2.9786238469347097L2.930479952055615 2.965877546221619L2.943226252768705 2.953131245508528L2.955972553481796 2.927638644082347L2.955972553481796 2.889399741943075L2.943226252768705 2.8639071405168943L2.930479952055615 2.8511608398038035L2.892241049916343 2.8384145390907127L2.777524343498527 2.8384145390907127" stroke-width="0.03" stroke="#000000" fill="none"/>
<path d="M2.5353446299498055 2.7109515319598065L2.6755539377938025 2.7109515319598065L2.5990761335152586 2.8129219376645316L2.6373150356545305 2.8129219376645316L2.6628076370807117 2.825668238377622L2.6755539377938025 2.8384145390907127L2.6883002385068933 2.8766534412299847L2.6883002385068933 2.902146042656166L2.6755539377938025 2.9403849447954378L2.6500613363676213 2.965877546221619L2.6118224342283494 2.9786238469347097L2.5735835320890774 2.9786238469347097L2.5353446299498055 2.965877546221619L2.522598329236715 2.953131245508528L2.5098520285236243 2.927638644082347" stroke-width="0.03" stroke="#000000" fill="none"/>
<path d="M2.433374224245081 2.9786238469347097L2.293164916401084 2.8001756369514412" stroke-width="0.03" stroke="#000000" fill="none"/>
<path d="M2.433374224245081 2.8001756369514412L2.293164916401084 2.9786238469347097" stroke-width="0.03" stroke="#000000" fill="none"/>
<path d="M2.1147167064178154 2.7109515319598065L2.076477804278544 2.7236978326728973L2.0509852028523623 2.761936734812169L2.038238902139272 2.825668238377622L2.038238902139272 2.8639071405168943L2.0509852028523623 2.927638644082347L2.076477804278544 2.965877546221619L2.1147167064178154 2.9786238469347097L2.140209307843997 2.9786238469347097L2.1784482099832685 2.965877546221619L2.2039408114094496 2.927638644082347L2.2166871121225404 2.8639071405168943L2.2166871121225404 2.825668238377622L2.2039408114094496 2.761936734812169L2.1784482099832685 2.7236978326728973L2.140209307843997 2.7109515319598065L2.1147167064178154 2.7109515319598065" stroke-width="0.03" stroke="#000000" fill="none"/>
<path d="M2.0824957911384305 2.015598694615191L2.0824957911384305 1.7268634256306838" stroke-width="0.03" stroke="#000000" fill="none"/>
<path d="M2.061871843353823 1.5824957911384305L2.0824957911384305 1.6031197389230383L2.1031197389230383 1.5824957911384305L2.0824957911384305 1.5618718433538228L2.061871843353823 1.5824957911384305" stroke-width="0.03" stroke="#000000" fill="none"/>
<path d="M2.226863425630684 1.953726851261368L2.2474873734152916 1.9949747468305832L2.3093592167691144 2.015598694615191L2.3712310601229376 2.015598694615191L2.4331029034767604 1.9949747468305832L2.4537268512613677 1.953726851261368L2.4537268512613677 1.9331029034767604L2.4331029034767604 1.891855007907545L2.391855007907545 1.8712310601229374L2.2887352689845066 1.8506071123383299L2.2474873734152916 1.8299831645537221L2.226863425630684 1.7887352689845069L2.2474873734152916 1.7474873734152916L2.3093592167691144 1.7268634256306838L2.3712310601229376 1.7268634256306838L2.4331029034767604 1.7474873734152916L2.4537268512613677 1.7887352689845069" stroke-width="0.03" stroke="#000000" fill="none"/>
<path d="M2.680590276892052 1.7268634256306838L2.6393423813228365 1.7474873734152916L2.5980944857536215 1.7887352689845069L2.5774705379690137 1.8506071123383299L2.5774705379690137 1.891855007907545L2.5980944857536215 1.953726851261368L2.6393423813228365 1.9949747468305832L2.680590276892052 2.015598694615191L2.7424621202458748 2.015598694615191L2.78371001581509 1.9949747468305832L2.8249579113843053 1.953726851261368L2.845581859168913 1.891855007907545L2.845581859168913 1.8506071123383299L2.8249579113843053 1.7887352689845069L2.78371001581509 1.7474873734152916L2.7424621202458748 1.7268634256306838L2.680590276892052 1.7268634256306838" stroke-width="0.03" stroke="#000000" fill="none"/>
<path d="M2.907453702522736 2.056846590184406L3.237436867076458 2.056846590184406" stroke-width="0.03" stroke="#000000" fill="none"/>
<path d="M3.2993087104302807 1.953726851261368L3.3199326582148885 1.9949747468305832L3.3818045015687113 2.015598694615191L3.443676344922534 2.015598694615191L3.5055481882763573 1.9949747468305832L3.526172136060965 1.953726851261368L3.526172136060965 1.9331029034767604L3.5055481882763573 1.891855007907545L3.464300292707142 1.8712310601229374L3.361180553784104 1.8506071123383299L3.3199326582148885 1.8299831645537221L3.2993087104302807 1.7887352689845069L3.3199326582148885 1.7474873734152916L3.3818045015687113 1.7268634256306838L3.443676344922534 1.7268634256306838L3.5055481882763573 1.7474873734152916L3.526172136060965 1.7887352689845069" stroke-width="0.03" stroke="#000000" fill="none"/>
<path d="M3.6705397705532183 1.8093592167691144L3.732411613907041 1.7474873734152916L3.773659509476256 1.7268634256306838L3.8355313528300794 1.7268634256306838L3.8767792483992944 1.7474873734152916L3.897403196183902 1.8093592167691144L3.897403196183902 2.015598694615191" stroke-width="0.03" stroke="#000000" fill="none"/>
<path d="M3.6705397705532183 2.015598694615191L3.6705397705532183 1.7268634256306838" stroke-width="0.03" stroke="#000000" fill="none"/>
<path d="M4.144890569599194 1.7268634256306838L4.103642674029978 1.7474873734152916L4.062394778460764 1.7887352689845069L4.041770830676155 1.8506071123383299L4.041770830676155 1.891855007907545L4.062394778460764 1.953726851261368L4.103642674029978 1.9949747468305832L4.144890569599194 2.015598694615191L4.206762412953017 2.015598694615191L4.2480103085222325 1.9949747468305832L4.289258204091447 1.953726851261368L4.309882151876055 1.891855007907545L4.309882151876055 1.8506071123383299L4.289258204091447 1.7887352689845069L4.2480103085222325 1.7474873734152916L4.206762412953017 1.7268634256306838L4.144890569599194 1.7268634256306838" stroke-width="0.03" stroke="#000000" fill="none"/>
<path d="M4.4336258385837 1.7268634256306838L4.516121629722131 2.015598694615191L4.5986174208605615 1.7268634256306838L4.681113211998992 2.015598694615191L4.7636090031374225 1.7268634256306838" stroke-width="0.03" stroke="#000000" fill="none"/>
<path d="M4.866728742060461 1.7268634256306838L5.011096376552715 1.7268634256306838" stroke-width="0.03" stroke="#000000" fill="none"/>
<path d="M5.031720324337321 1.5824957911384305L4.990472428768107 1.5824957911384305L4.949224533198891 1.6031197389230383L4.928600585414284 1.664991582276861L4.928600585414284 2.015598694615191" stroke-width="0.03" stroke="#000000" fill="none"/>
<path d="M5.155464011044968 2.015598694615191L5.155464011044968 1.5824957911384305" stroke-width="0.03" stroke="#000000" fill="none"/>
<path d="M5.547319018952512 1.7268634256306838L5.547319018952512 2.015598694615191" stroke-width="0.03" stroke="#000000" fill="none"/>
<path d="M5.547319018952512 1.953726851261368L5.506071123383298 1.9949747468305832L5.464823227814082 2.015598694615191L5.402951384460259 2.015598694615191L5.3617034888910435 1.9949747468305832L5.320455593321829 1.953726851261368L5.299831645537221 1.891855007907545L5.299831645537221 1.8506071123383299L5.320455593321829 1.7887352689845069L5.3617034888910435 1.7474873734152916L5.402951384460259 1.7268634256306838L5.464823227814082 1.7268634256306838L5.506071123383298 1.7474873734152916L5.547319018952512 1.7887352689845069" stroke-width="0.03" stroke="#000000" fill="none"/>
<path d="M5.712310601229374 1.9331029034767604L5.91855007907545 1.7268634256306838" stroke-width="0.03" stroke="#000000" fill="none"/>
<path d="M5.794806392367804 1.8506071123383299L5.939174026860058 2.015598694615191" stroke-width="0.03" stroke="#000000" fill="none"/>
<path d="M6.042293765783096 1.8506071123383299L6.2897811391983875 1.8506071123383299L6.2897811391983875 1.8093592167691144L6.26915719141378 1.7681113211998993L6.248533243629172 1.7474873734152916L6.207285348059957 1.7268634256306838L6.145413504706134 1.7268634256306838L6.104165609136919 1.7474873734152916L6.062917713567703 1.7887352689845069L6.042293765783096 1.8506071123383299L6.042293765783096 1.891855007907545L6.062917713567703 1.953726851261368L6.104165609136919 1.9949747468305832L6.145413504706134 2.015598694615191L6.207285348059957 2.015598694615191L6.248533243629172 1.9949747468305832L6.2897811391983875 1.953726851261368" stroke-width="0.03" stroke="#000000" fill="none"/>
<path d="M6.434148773690641 1.6856155300614688L6.434148773690641 1.664991582276861L6.454772721475249 1.6237436867076458L6.475396669259856 1.6031197389230383L6.516644564829072 1.5824957911384305L6.599140355967502 1.5824957911384305L6.640388251536717 1.6031197389230383L6.661012199321325 1.6237436867076458L6.681636147105933 1.664991582276861L6.681636147105933 1.7062394778460763L6.661012199321325 1.7474873734152916L6.61976430375211 1.8093592167691144L6.413524825906033 2.015598694615191L6.702260094890541 2.015598694615191" stroke-width="0.03" stroke="#000000" fill="none"/>
<path d="M7.264131938244363 2.2599663291074443L1.5 2.2599663291074443" stroke-width="0.03" stroke="#000000" fill="none"/>
<path d="M5.712310601229374 2.015598694615191L5.712310601229374 1.5824957911384305" stroke-width="0.03" stroke="#000000" fill="none"/>
<path d="M10.5 5.837923141868183L10.5 6.000302905077765" stroke-width="0.03" stroke="#000000" fill="none"/>
<path d="M16.546875 10.62812615655086L16.828125 10.465746393341277" stroke-width="0.03" stroke="#000000" fill="none"/>
<path d="M13.031250000000002 13.388582131113758L12.890625000000002 13.46977201271855" stroke-width="0.03" stroke="#000000" fill="none"/>
<path d="M8.390625 19.15306372505393L8.25 19.23425360665872" stroke-width="0.03" stroke="#000000" fill="none"/>
</svg>
