<?xml version="1.0" standalone="no"?>
<svg width="21cm" height="29.7cm" version="1.1" xmlns="http://www.w3.org/2000/svg" viewBox="0.0 0.0 21.000001 29.700001">
<path d="M6.84375 7.136961247544841L7.6875 6.649821957916094L8.25 6.974581484335259L8.25 8.354809471616708L7.40625 8.841948761245455L6.84375 8.51718923482629L6.84375 7.136961247544841L7.40625 7.4617207739640055L7.40625 8.841948761245455" stroke-width="0.03" stroke="#000000" fill="none"/>
<path d="M7.4765625 8.80135382044306L7.4765625 9.613252636490971L7.96875 9.329088050874201L7.6875 9.166708287664619L7.4765625 9.288493110071807" stroke-width="0.03" stroke="#000000" fill="none"/>
<path d="M7.96875 9.329088050874201L7.96875 9.572657695688576" stroke-width="0.03" stroke="#000000" fill="none"/>
<path d="M8.3203125 9.369682991676598L7.40625 9.897417222107741" stroke-width="0.03" stroke="#000000" fill="none"/>
<path d="M7.265625000000001 9.816227340502948L6.140625 10.465746393341277L6.140625 11.115265446179606L7.0546875 11.64299967661075" stroke-width="0.03" stroke="#000000" fill="none"/>
<path d="M7.265625000000001 11.521214854203564L7.265625000000001 11.115265446179606L8.390625 10.465746393341277L8.390625 11.034075564574817" stroke-width="0.03" stroke="#000000" fill="none"/>
<path d="M8.53125 11.115265446179606L8.53125 10.871695801365235L9.65625 10.222176748526905L9.796875 10.303366630131695L9.796875 10.952885682970024L9.515625 11.115265446179606" stroke-width="0.03" stroke="#000000" fill="none"/>
<path d="M9.375 11.034075564574817L8.8828125 11.318240150191585" stroke-width="0.03" stroke="#000000" fill="none"/>
<path d="M8.671875 11.196455327784399L8.671875 10.952885682970024L9.796875 10.303366630131695" stroke-width="0.03" stroke="#000000" fill="none"/>
<path d="M9.7265625 10.019202044514927L9.5859375 10.100391926119716L8.3203125 9.369682991676598" stroke-width="0.03" stroke="#000000" fill="none"/>
<path d="M8.25 9.085518406059828L8.25 8.760758879640663L8.671875 8.51718923482629L10.5 9.572657695688576L12.328125000000002 8.51718923482629L12.75 8.760758879640663L12.75 9.085518406059828L10.5 10.384556511736488L8.25 9.085518406059828" stroke-width="0.03" stroke="#000000" fill="none"/>
<path d="M8.25 8.760758879640663L10.5 10.059796985317323L10.5 11.683594617413146L11.625000000000002 11.034075564574817L12.1171875 11.318240150191585" stroke-width="0.03" stroke="#000000" fill="none"/>
<path d="M12.328125000000002 11.196455327784399L12.328125000000002 10.952885682970024L11.203125 10.303366630131695L11.203125 10.952885682970024L11.484375000000002 11.115265446179606" stroke-width="0.03" stroke="#000000" fill="none"/>
<path d="M11.0625 11.034075564574817L10.640625 11.277645209389188L10.640625 11.44002497259877L10.78125 11.521214854203564L10.78125 11.358835090993981L10.640625 11.277645209389188" stroke-width="0.03" stroke="#000000" fill="none"/>
<path d="M10.78125 11.358835090993981L11.0625 11.196455327784399" stroke-width="0.03" stroke="#000000" fill="none"/>
<path d="M11.0625 11.358835090993981L11.0625 10.62812615655086" stroke-width="0.03" stroke="#000000" fill="none"/>
<path d="M11.203125 10.62812615655086L10.7109375 10.343961570934091L10.7109375 10.42515145253888L11.203125 10.709316038155652" stroke-width="0.03" stroke="#000000" fill="none"/>
<path d="M11.203125 10.303366630131695L11.34375 10.222176748526905L12.46875 10.871695801365235L12.46875 11.115265446179606" stroke-width="0.03" stroke="#000000" fill="none"/>
<path d="M12.609375 11.034075564574817L12.609375 10.465746393341277L13.734375 11.115265446179606L13.734375 11.521214854203564" stroke-width="0.03" stroke="#000000" fill="none"/>
<path d="M13.593750000000002 11.44002497259877L13.5234375 11.480619913401167" stroke-width="0.03" stroke="#000000" fill="none"/>
<path d="M13.453125 11.44002497259877L12.328125000000002 12.0895440254371L13.382812500000002 12.698468137473034" stroke-width="0.03" stroke="#000000" fill="none"/>
<path d="M13.3125 12.739063078275429L11.765625 11.845974380622728L10.78125 12.414303551856264L10.78125 12.495493433461057L11.203125 12.739063078275429L11.203125 12.982632723089804L12.46875 13.713341657532922L12.46875 15.174759526419164L12.679687500000002 15.29654434882635L12.679687500000002 15.783683638455097L12.75 15.824278579257493L13.734375 15.255949408023953L13.734375 13.46977201271855" stroke-width="0.03" stroke="#000000" fill="none"/>
<path d="M13.8046875 13.429177071916154L13.8046875 14.647025295988021L13.875 14.687620236790417L13.875 15.499519052838329L15.140625 14.768810118395209L15.140625 13.956911302347297L15.000000000000002 13.875721420742504L15.000000000000002 12.739063078275429" stroke-width="0.03" stroke="#000000" fill="none"/>
<path d="M14.9296875 12.779658019077825L14.9296875 13.997506243149692L13.8046875 14.647025295988021" stroke-width="0.03" stroke="#000000" fill="none"/>
<path d="M13.875 14.687620236790417L15.140625 13.956911302347297" stroke-width="0.03" stroke="#000000" fill="none"/>
<path d="M15.000000000000002 13.875721420742504L14.9296875 13.9163163615449" stroke-width="0.03" stroke="#000000" fill="none"/>
<path d="M15.000000000000002 13.713341657532922L15.351562500000002 13.9163163615449L15.351562500000002 15.215354467221559L14.859375 14.931189881604789" stroke-width="0.03" stroke="#000000" fill="none"/>
<path d="M14.718749999999998 15.012379763209582L14.9296875 15.134164585616768L14.9296875 16.433202691293424L14.7890625 16.514392572898217L14.2265625 16.189633046479052L14.2265625 15.864873520059888" stroke-width="0.03" stroke="#000000" fill="none"/>
<path d="M14.367187500000002 15.783683638455097L13.242187500000002 16.433202691293424L13.242187500000002 17.732240796970082L12.75 18.016405382586854" stroke-width="0.03" stroke="#000000" fill="none"/>
<path d="M12.75 18.259975027401225L12.9609375 18.38175984980841L14.0859375 17.732240796970082L13.5234375 17.407481270550917L13.242187500000002 17.569861033760503" stroke-width="0.03" stroke="#000000" fill="none"/>
<path d="M13.5234375 17.24510150734134L13.5234375 16.75796221771259L13.382812500000002 16.6767723361078L13.242187500000002 16.75796221771259L13.382812500000002 16.83915209931738L13.382812500000002 17.163911625736546" stroke-width="0.03" stroke="#000000" fill="none"/>
<path d="M13.242187500000002 17.082721744131756L13.875 17.448076211353314" stroke-width="0.03" stroke="#000000" fill="none"/>
<path d="M13.8046875 17.569861033760503L14.296875000000002 17.28569644814373L14.296875000000002 17.93521550098206L14.15625 18.016405382586854L14.15625 19.477823251473097L13.242187500000002 20.005557481904233" stroke-width="0.03" stroke="#000000" fill="none"/>
<path d="M13.242187500000002 20.16793724511382L12.1171875 20.81745629795215L11.5546875 20.492696771532984L11.5546875 19.437228310670697" stroke-width="0.03" stroke="#000000" fill="none"/>
<path d="M11.765625 19.31544348826351L12.1171875 19.51841819227549L12.1171875 20.81745629795215" stroke-width="0.03" stroke="#000000" fill="none"/>
<path d="M12.046875 20.776861357149752L12.046875 21.42638040998808L10.5 20.53329171233538L8.953125 21.42638040998808L8.25 21.020431001964123L8.25 20.452101830730584" stroke-width="0.03" stroke="#000000" fill="none"/>
<path d="M7.757812499999999 20.16793724511382L7.757812499999999 18.38175984980841" stroke-width="0.03" stroke="#000000" fill="none"/>
<path d="M8.0390625 18.38175984980841L8.25 18.259975027401225" stroke-width="0.03" stroke="#000000" fill="none"/>
<path d="M8.25 18.422354790610807L8.0390625 18.544139613017997L6.914062500000001 17.894620560179668L6.914062500000001 17.732240796970082L7.4765625 17.407481270550917L7.757812499999999 17.569861033760503" stroke-width="0.03" stroke="#000000" fill="none"/>
<path d="M7.757812499999999 17.732240796970082L7.757812499999999 16.433202691293424L6.6328125 15.783683638455097L6.6328125 15.215354467221559" stroke-width="0.03" stroke="#000000" fill="none"/>
<path d="M6.421875 15.093569644814371L6.210937500000001 15.215354467221559L6.210937500000001 16.514392572898217L6.7734375 16.189633046479052L6.7734375 15.864873520059888" stroke-width="0.03" stroke="#000000" fill="none"/>
<path d="M7.0546875 16.189633046479052L7.3359375 16.352012809688635L7.4765625 16.270822928083845L7.4765625 16.433202691293424L7.3359375 16.514392572898217L6.914062500000001 16.270822928083845" stroke-width="0.03" stroke="#000000" fill="none"/>
<path d="M7.1953125 16.10844316487426L6.5625 16.473797632095824" stroke-width="0.03" stroke="#000000" fill="none"/>
<path d="M6.492187500000001 16.352012809688635L6.492187500000001 16.920341980922174L5.9296875 16.59558245450301L5.9296875 16.433202691293424L4.6640625 15.702493756850306L4.6640625 14.647025295988021" stroke-width="0.03" stroke="#000000" fill="none"/>
<path d="M4.5234375 14.56583541438323L4.5234375 13.266797308706572L5.0859375 12.942037782287407L6 13.46977201271855" stroke-width="0.03" stroke="#000000" fill="none"/>
<path d="M6 13.713341657532922L5.6484375 13.9163163615449L5.6484375 15.215354467221559L6.140625 14.931189881604789" stroke-width="0.03" stroke="#000000" fill="none"/>
<path d="M6.28125 15.012379763209582L6.0703125 15.134164585616768L6.0703125 16.433202691293424L6.210937500000001 16.514392572898217" stroke-width="0.03" stroke="#000000" fill="none"/>
<path d="M5.859375000000001 16.39260775049103L5.6484375 16.514392572898217" stroke-width="0.03" stroke="#000000" fill="none"/>
<path d="M5.578125 16.230227987281445L5.3671875 16.352012809688635" stroke-width="0.03" stroke="#000000" fill="none"/>
<path d="M4.9453125 16.920341980922174L4.9453125 17.001531862526964" stroke-width="0.03" stroke="#000000" fill="none"/>
<path d="M4.6640625 16.83915209931738L4.6640625 16.75796221771259L4.59375 16.79855715851499" stroke-width="0.03" stroke="#000000" fill="none"/>
<path d="M4.1015625 16.433202691293424L4.1015625 15.946063401664679L4.382812499999999 15.783683638455097L6.6328125 17.082721744131756L6.6328125 19.68079795548507L6.3515625 19.843177718694655L5.9296875 19.59960807388028L5.9296875 17.48867115215571L4.1015625 16.433202691293424" stroke-width="0.03" stroke="#000000" fill="none"/>
<path d="M3.7499999999999996 16.14903810567666L2.5546875 16.83915209931738L1.9921874999999998 16.514392572898217L1.9921874999999998 15.540113993640723L3.1874999999999996 14.85L3.7499999999999996 15.174759526419164L3.7499999999999996 16.14903810567666" stroke-width="0.03" stroke="#000000" fill="none"/>
<path d="M3.609375 16.230227987281445L5.6484375 17.407481270550917L5.6484375 17.651050915365293L5.859375000000001 17.77283573777248L5.859375000000001 20.12734230431142" stroke-width="0.03" stroke="#000000" fill="none"/>
<path d="M5.7890625 20.16793724511382L5.7890625 17.813430678574875L5.859375000000001 17.77283573777248" stroke-width="0.03" stroke="#000000" fill="none"/>
<path d="M5.7890625 17.813430678574875L5.578125 17.69164585616769L5.578125 17.448076211353314L5.6484375 17.407481270550917" stroke-width="0.03" stroke="#000000" fill="none"/>
<path d="M5.578125 17.448076211353314L3.539062500000001 16.270822928083845" stroke-width="0.03" stroke="#000000" fill="none"/>
<path d="M3.2578125 16.433202691293424L3.2578125 18.706519376227575L3.539062500000001 18.86889913943716L3.539062500000001 19.193658665856326L5.5078125 20.330317008323398" stroke-width="0.03" stroke="#000000" fill="none"/>
<path d="M6 20.04615242270663L4.8046875 20.736266416347355L4.8046875 21.385785469185684L5.6484375 21.87292475881443L6.84375 21.18281076517371L9.515625 22.72541851566474L10.5 22.157089344431203L11.484375000000002 22.72541851566474L14.15625 21.18281076517371L15.351562500000002 21.87292475881443L16.1953125 21.385785469185684L16.1953125 20.736266416347355L15.000000000000002 20.04615242270663L14.15625 20.53329171233538L14.15625 21.18281076517371" stroke-width="0.03" stroke="#000000" fill="none"/>
<path d="M14.15625 20.858051238754545L11.484375000000002 22.400658989245574L10.5 21.832329818012038L9.515625 22.400658989245574L6.84375 20.858051238754545" stroke-width="0.03" stroke="#000000" fill="none"/>
<path d="M6.84375 20.53329171233538L5.6484375 21.223405705976102L4.8046875 20.736266416347355" stroke-width="0.03" stroke="#000000" fill="none"/>
<path d="M5.6484375 21.223405705976102L5.6484375 21.87292475881443" stroke-width="0.03" stroke="#000000" fill="none"/>
<path d="M6.84375 21.18281076517371L6.84375 20.53329171233538L6 20.04615242270663" stroke-width="0.03" stroke="#000000" fill="none"/>
<path d="M6.3515625 19.843177718694655L6.3515625 17.24510150734134L7.757812499999999 16.433202691293424" stroke-width="0.03" stroke="#000000" fill="none"/>
<path d="M7.6171875 16.6767723361078L7.4765625 16.75796221771259L7.4765625 17.24510150734134" stroke-width="0.03" stroke="#000000" fill="none"/>
<path d="M7.6171875 17.163911625736546L7.6171875 16.83915209931738L7.757812499999999 16.75796221771259L7.6171875 16.6767723361078" stroke-width="0.03" stroke="#000000" fill="none"/>
<path d="M7.4765625 16.75796221771259L7.6171875 16.83915209931738" stroke-width="0.03" stroke="#000000" fill="none"/>
<path d="M7.757812499999999 17.082721744131756L7.125 17.448076211353314" stroke-width="0.03" stroke="#000000" fill="none"/>
<path d="M7.1953125 17.569861033760503L6.703125 17.28569644814373L6.703125 17.93521550098206L6.84375 18.016405382586854L6.84375 19.477823251473097L7.757812499999999 20.005557481904233" stroke-width="0.03" stroke="#000000" fill="none"/>
<path d="M7.757812499999999 20.16793724511382L8.8828125 20.81745629795215L9.4453125 20.492696771532984L9.4453125 19.437228310670697" stroke-width="0.03" stroke="#000000" fill="none"/>
<path d="M9.234375 19.31544348826351L8.8828125 19.51841819227549L8.8828125 20.81745629795215" stroke-width="0.03" stroke="#000000" fill="none"/>
<path d="M8.953125 20.776861357149752L8.953125 21.42638040998808" stroke-width="0.03" stroke="#000000" fill="none"/>
<path d="M9.5859375 21.06102594276652L9.9375 21.2640006467785L10.5 20.939241120359334L10.5 18.665924435425183L10.4296875 18.625329494622786L10.5 18.58473455382039L10.5 17.448076211353314L10.359375 17.529266092958107L10.359375 20.12734230431142L10.5 20.04615242270663L10.640625 20.12734230431142L10.921875000000002 19.96496254110184L10.921875000000002 17.366886329748525L10.78125 17.28569644814373L12.46875 16.311417868886238L12.46875 17.448076211353314L10.921875000000002 18.341164909006018" stroke-width="0.03" stroke="#000000" fill="none"/>
<path d="M10.921875000000002 18.422354790610807L11.976562500000002 17.813430678574875L12.046875 17.85402561937727L12.046875 19.31544348826351L12.75 18.909494080239554L12.75 17.448076211353314L12.46875 17.28569644814373" stroke-width="0.03" stroke="#000000" fill="none"/>
<path d="M12.46875 17.204506566538942L12.679687500000002 17.082721744131756L12.679687500000002 16.10844316487426L13.5234375 15.621303875245514L13.5234375 15.377734230431141" stroke-width="0.03" stroke="#000000" fill="none"/>
<path d="M13.593750000000002 15.337139289628746L13.875 15.499519052838329" stroke-width="0.03" stroke="#000000" fill="none"/>
<path d="M14.367187500000002 15.783683638455097L14.367187500000002 15.215354467221559" stroke-width="0.03" stroke="#000000" fill="none"/>
<path d="M14.578125 15.093569644814371L14.7890625 15.215354467221559L14.7890625 16.514392572898217" stroke-width="0.03" stroke="#000000" fill="none"/>
<path d="M15.070312500000002 16.433202691293424L16.3359375 15.702493756850306L16.3359375 14.647025295988021" stroke-width="0.03" stroke="#000000" fill="none"/>
<path d="M16.4765625 14.56583541438323L14.9296875 15.458924112035932" stroke-width="0.03" stroke="#000000" fill="none"/>
<path d="M14.7890625 15.215354467221559L14.9296875 15.134164585616768" stroke-width="0.03" stroke="#000000" fill="none"/>
<path d="M15.421875 16.230227987281445L15.6328125 16.352012809688635" stroke-width="0.03" stroke="#000000" fill="none"/>
<path d="M15.351562500000002 16.514392572898217L15.140625 16.39260775049103" stroke-width="0.03" stroke="#000000" fill="none"/>
<path d="M15.070312500000002 16.433202691293424L15.070312500000002 16.59558245450301L14.5078125 16.920341980922174L14.437500000000002 16.879747040119774L14.437500000000002 16.311417868886238" stroke-width="0.03" stroke="#000000" fill="none"/>
<path d="M14.5078125 16.352012809688635L14.5078125 16.920341980922174" stroke-width="0.03" stroke="#000000" fill="none"/>
<path d="M14.367187500000002 17.082721744131756L16.617187500000004 15.783683638455097L16.8984375 15.946063401664679L16.8984375 16.433202691293424L15.070312500000002 17.48867115215571L15.070312500000002 19.59960807388028L14.648437500000002 19.843177718694655L14.367187500000002 19.68079795548507L14.367187500000002 17.082721744131756" stroke-width="0.03" stroke="#000000" fill="none"/>
<path d="M14.296875000000002 17.28569644814373L14.2265625 17.24510150734134L13.734375 17.529266092958107" stroke-width="0.03" stroke="#000000" fill="none"/>
<path d="M14.0859375 17.732240796970082L14.0859375 17.894620560179668L12.9609375 18.544139613017997L12.75 18.422354790610807" stroke-width="0.03" stroke="#000000" fill="none"/>
<path d="M12.75 18.58473455382039L13.242187500000002 18.86889913943716L12.1171875 19.51841819227549" stroke-width="0.03" stroke="#000000" fill="none"/>
<path d="M12.046875 19.31544348826351L11.90625 19.23425360665872L11.90625 19.15306372505393" stroke-width="0.03" stroke="#000000" fill="none"/>
<path d="M11.90625 19.23425360665872L10.921875000000002 19.802582777892262" stroke-width="0.03" stroke="#000000" fill="none"/>
<path d="M10.921875000000002 19.721392896287465L11.976562500000002 19.112468784251533L11.976562500000002 17.813430678574875" stroke-width="0.03" stroke="#000000" fill="none"/>
<path d="M12.046875 17.85402561937727L12.75 17.448076211353314" stroke-width="0.03" stroke="#000000" fill="none"/>
<path d="M13.382812500000002 16.83915209931738L13.5234375 16.75796221771259" stroke-width="0.03" stroke="#000000" fill="none"/>
<path d="M13.6640625 16.514392572898217L14.0859375 16.270822928083845" stroke-width="0.03" stroke="#000000" fill="none"/>
<path d="M13.945312500000002 16.189633046479052L13.6640625 16.352012809688635L13.5234375 16.270822928083845L13.5234375 16.433202691293424L13.6640625 16.514392572898217L13.6640625 16.352012809688635" stroke-width="0.03" stroke="#000000" fill="none"/>
<path d="M13.8046875 16.10844316487426L14.437500000000002 16.473797632095824" stroke-width="0.03" stroke="#000000" fill="none"/>
<path d="M14.648437500000002 17.24510150734134L16.8984375 15.946063401664679" stroke-width="0.03" stroke="#000000" fill="none"/>
<path d="M17.25 16.14903810567666L17.25 15.174759526419164L17.8125 14.85L19.0078125 15.540113993640723L19.0078125 16.514392572898217L18.4453125 16.83915209931738L17.25 16.14903810567666" stroke-width="0.03" stroke="#000000" fill="none"/>
<path d="M17.390625 16.230227987281445L15.351562500000002 17.407481270550917L15.351562500000002 17.651050915365293L15.140625 17.77283573777248L15.140625 20.12734230431142" stroke-width="0.03" stroke="#000000" fill="none"/>
<path d="M15.2109375 20.16793724511382L15.2109375 17.813430678574875L15.140625 17.77283573777248" stroke-width="0.03" stroke="#000000" fill="none"/>
<path d="M15.2109375 17.813430678574875L15.421875 17.69164585616769L15.421875 17.448076211353314L15.351562500000002 17.407481270550917" stroke-width="0.03" stroke="#000000" fill="none"/>
<path d="M15.421875 17.448076211353314L17.4609375 16.270822928083845" stroke-width="0.03" stroke="#000000" fill="none"/>
<path d="M17.7421875 16.433202691293424L17.7421875 18.706519376227575L17.4609375 18.86889913943716L17.4609375 19.193658665856326L15.4921875 20.330317008323398" stroke-width="0.03" stroke="#000000" fill="none"/>
<path d="M16.1953125 20.736266416347355L15.351562500000002 21.223405705976102L14.15625 20.53329171233538" stroke-width="0.03" stroke="#000000" fill="none"/>
<path d="M14.2265625 20.492696771532984L13.5234375 20.086747363509026L14.015625 19.802582777892262L13.8046875 19.68079795548507" stroke-width="0.03" stroke="#000000" fill="none"/>
<path d="M14.015625 19.802582777892262L14.015625 20.12734230431142L13.8046875 20.249127126718612" stroke-width="0.03" stroke="#000000" fill="none"/>
<path d="M13.242187500000002 20.16793724511382L13.242187500000002 18.38175984980841" stroke-width="0.03" stroke="#000000" fill="none"/>
<path d="M12.9609375 18.38175984980841L12.9609375 18.544139613017997" stroke-width="0.03" stroke="#000000" fill="none"/>
<path d="M14.15625 18.422354790610807L14.367187500000002 18.544139613017997" stroke-width="0.03" stroke="#000000" fill="none"/>
<path d="M14.367187500000002 18.219380086598832L14.15625 18.097595264191643" stroke-width="0.03" stroke="#000000" fill="none"/>
<path d="M14.648437500000002 17.24510150734134L14.648437500000002 19.843177718694655" stroke-width="0.03" stroke="#000000" fill="none"/>
<path d="M15.140625 18.990683961844347L15.070312500000002 18.95008902104195L15.140625 18.909494080239554" stroke-width="0.03" stroke="#000000" fill="none"/>
<path d="M15.070312500000002 18.625329494622786L15.140625 18.58473455382039" stroke-width="0.03" stroke="#000000" fill="none"/>
<path d="M15.421875 17.69164585616769L15.070312500000002 17.48867115215571" stroke-width="0.03" stroke="#000000" fill="none"/>
<path d="M14.648437500000002 17.24510150734134L13.242187500000002 16.433202691293424" stroke-width="0.03" stroke="#000000" fill="none"/>
<path d="M12.75 15.824278579257493L12.75 13.875721420742504L12.890625000000002 13.956911302347297L15.140625 12.65787319667064L15.140625 12.333113670251475L15.000000000000002 12.251923788646682L15.000000000000002 12.0895440254371L14.718749999999998 11.927164262227517L12.46875 13.226202367904175L12.46875 13.388582131113758L10.78125 12.414303551856264" stroke-width="0.03" stroke="#000000" fill="none"/>
<path d="M10.5 12.333113670251475L11.34375 11.845974380622728L11.5546875 11.967759203029914" stroke-width="0.03" stroke="#000000" fill="none"/>
<path d="M11.625000000000002 11.927164262227517L11.625000000000002 11.602404735808353L12.890625000000002 10.871695801365235L13.593750000000002 11.277645209389188L13.593750000000002 11.44002497259877L14.578125 12.00835414383231" stroke-width="0.03" stroke="#000000" fill="none"/>
<path d="M14.5078125 12.048949084634705L13.453125 11.44002497259877" stroke-width="0.03" stroke="#000000" fill="none"/>
<path d="M13.593750000000002 11.277645209389188L12.328125000000002 12.00835414383231L12.328125000000002 12.0895440254371" stroke-width="0.03" stroke="#000000" fill="none"/>
<path d="M12.328125000000002 12.00835414383231L11.625000000000002 11.602404735808353" stroke-width="0.03" stroke="#000000" fill="none"/>
<path d="M12.328125000000002 10.952885682970024L12.46875 10.871695801365235" stroke-width="0.03" stroke="#000000" fill="none"/>
<path d="M12.187500000000002 10.709316038155652L13.734375 9.816227340502948L14.859375 10.465746393341277L14.859375 11.115265446179606L13.945312500000002 11.64299967661075" stroke-width="0.03" stroke="#000000" fill="none"/>
<path d="M13.734375 11.115265446179606L14.859375 10.465746393341277" stroke-width="0.03" stroke="#000000" fill="none"/>
<path d="M14.859375 10.54693627494607L15.421875 10.222176748526905L14.718749999999998 9.816227340502948L14.2265625 10.100391926119716" stroke-width="0.03" stroke="#000000" fill="none"/>
<path d="M13.593750000000002 9.897417222107741L12.679687500000002 9.369682991676598L11.4140625 10.100391926119716L11.273437500000002 10.019202044514927L10.7109375 10.343961570934091" stroke-width="0.03" stroke="#000000" fill="none"/>
<path d="M10.5 10.059796985317323L12.75 8.760758879640663" stroke-width="0.03" stroke="#000000" fill="none"/>
<path d="M12.75 8.354809471616708L12.75 6.974581484335259L13.3125 6.649821957916094L14.15625 7.136961247544841L14.15625 8.51718923482629L13.593750000000002 8.841948761245455L12.75 8.354809471616708" stroke-width="0.03" stroke="#000000" fill="none"/>
<path d="M12.75 8.192429708407126L10.7109375 9.369682991676598L10.5 9.24789816926941L10.2890625 9.369682991676598L8.25 8.192429708407126" stroke-width="0.03" stroke="#000000" fill="none"/>
<path d="M8.25 8.111239826802334L10.2890625 9.288493110071807L10.2890625 9.369682991676598" stroke-width="0.03" stroke="#000000" fill="none"/>
<path d="M10.2890625 9.288493110071807L10.5 9.166708287664619L10.7109375 9.288493110071807L10.7109375 9.369682991676598" stroke-width="0.03" stroke="#000000" fill="none"/>
<path d="M10.7109375 9.288493110071807L12.75 8.111239826802334" stroke-width="0.03" stroke="#000000" fill="none"/>
<path d="M12.75 7.78648030038317L10.78125 6.649821957916094L10.5 6.8122017211256765L10.218750000000002 6.649821957916094L8.25 7.78648030038317" stroke-width="0.03" stroke="#000000" fill="none"/>
<path d="M8.25 6.974581484335259L7.40625 7.4617207739640055" stroke-width="0.03" stroke="#000000" fill="none"/>
<path d="M6.84375 8.51718923482629L4.171875 10.059796985317323L4.171875 11.196455327784399L4.453125 11.358835090993981L4.453125 10.222176748526905L7.125 8.679568998035872" stroke-width="0.03" stroke="#000000" fill="none"/>
<path d="M7.265625000000001 9.816227340502948L8.8125 10.709316038155652" stroke-width="0.03" stroke="#000000" fill="none"/>
<path d="M8.671875 10.952885682970024L8.53125 10.871695801365235" stroke-width="0.03" stroke="#000000" fill="none"/>
<path d="M8.109375 10.871695801365235L7.40625 11.277645209389188L7.40625 11.44002497259877L7.4765625 11.480619913401167" stroke-width="0.03" stroke="#000000" fill="none"/>
<path d="M7.40625 11.44002497259877L6.421875 12.00835414383231" stroke-width="0.03" stroke="#000000" fill="none"/>
<path d="M6.492187500000001 12.048949084634705L7.546875 11.44002497259877L8.671875 12.0895440254371L7.6171875 12.698468137473034" stroke-width="0.03" stroke="#000000" fill="none"/>
<path d="M7.6875 12.739063078275429L9.234375 11.845974380622728L10.218750000000002 12.414303551856264L10.218750000000002 12.495493433461057L9.796875 12.739063078275429L9.796875 12.982632723089804L8.53125 13.713341657532922L8.53125 15.174759526419164L8.3203125 15.29654434882635L8.3203125 15.783683638455097L8.25 15.824278579257493L7.265625000000001 15.255949408023953L7.265625000000001 13.46977201271855" stroke-width="0.03" stroke="#000000" fill="none"/>
<path d="M7.1953125 13.429177071916154L7.1953125 14.647025295988021L7.125 14.687620236790417L7.125 15.499519052838329L7.40625 15.337139289628746" stroke-width="0.03" stroke="#000000" fill="none"/>
<path d="M7.4765625 15.377734230431141L7.4765625 15.621303875245514L8.3203125 16.10844316487426L8.3203125 17.082721744131756L8.53125 17.204506566538942" stroke-width="0.03" stroke="#000000" fill="none"/>
<path d="M8.53125 17.28569644814373L8.25 17.448076211353314L8.25 18.909494080239554L8.953125 19.31544348826351L9.09375 19.23425360665872L9.09375 19.15306372505393" stroke-width="0.03" stroke="#000000" fill="none"/>
<path d="M9.09375 19.23425360665872L10.078125 19.802582777892262" stroke-width="0.03" stroke="#000000" fill="none"/>
<path d="M10.078125 19.721392896287465L9.0234375 19.112468784251533L9.0234375 17.813430678574875L10.078125 18.422354790610807" stroke-width="0.03" stroke="#000000" fill="none"/>
<path d="M10.078125 18.341164909006018L8.53125 17.448076211353314L8.53125 16.311417868886238L8.6015625 16.270822928083845L9.0234375 16.514392572898217L9.234375 16.39260775049103L10.5 17.123316684934153L11.765625 16.39260775049103L11.976562500000002 16.514392572898217L12.3984375 16.270822928083845L12.46875 16.311417868886238" stroke-width="0.03" stroke="#000000" fill="none"/>
<path d="M12.3984375 15.946063401664679L11.976562500000002 16.189633046479052L11.976562500000002 16.514392572898217" stroke-width="0.03" stroke="#000000" fill="none"/>
<path d="M11.976562500000002 16.189633046479052L10.5 15.337139289628746L9.0234375 16.189633046479052L8.6015625 15.946063401664679L8.6015625 15.458924112035932L8.3203125 15.29654434882635" stroke-width="0.03" stroke="#000000" fill="none"/>
<path d="M8.6015625 15.458924112035932L10.078125 14.606430355185626L10.078125 12.90144284148501L9.796875 12.739063078275429" stroke-width="0.03" stroke="#000000" fill="none"/>
<path d="M10.078125 12.90144284148501L10.5 12.65787319667064L10.921875000000002 12.90144284148501L11.203125 12.739063078275429" stroke-width="0.03" stroke="#000000" fill="none"/>
<path d="M10.921875000000002 12.90144284148501L10.921875000000002 14.606430355185626L12.3984375 15.458924112035932L12.679687500000002 15.29654434882635" stroke-width="0.03" stroke="#000000" fill="none"/>
<path d="M12.3984375 15.458924112035932L12.3984375 15.946063401664679L10.5 14.85L8.6015625 15.946063401664679" stroke-width="0.03" stroke="#000000" fill="none"/>
<path d="M8.53125 16.311417868886238L10.218750000000002 17.28569644814373L10.078125 17.366886329748525L10.078125 19.96496254110184L10.359375 20.12734230431142" stroke-width="0.03" stroke="#000000" fill="none"/>
<path d="M10.5 19.96496254110184L10.570312500000002 19.924367600299444L10.570312500000002 18.625329494622786L10.5 18.58473455382039" stroke-width="0.03" stroke="#000000" fill="none"/>
<path d="M10.4296875 18.625329494622786L10.4296875 19.924367600299444L10.5 19.96496254110184" stroke-width="0.03" stroke="#000000" fill="none"/>
<path d="M10.640625 20.12734230431142L10.640625 17.529266092958107L10.5 17.448076211353314" stroke-width="0.03" stroke="#000000" fill="none"/>
<path d="M10.640625 17.529266092958107L10.921875000000002 17.366886329748525" stroke-width="0.03" stroke="#000000" fill="none"/>
<path d="M10.640625 17.04212680332936L10.5 16.960936921724567L10.359375 17.04212680332936" stroke-width="0.03" stroke="#000000" fill="none"/>
<path d="M10.5 16.960936921724567L10.5 17.123316684934153" stroke-width="0.03" stroke="#000000" fill="none"/>
<path d="M10.359375 17.529266092958107L10.078125 17.366886329748525" stroke-width="0.03" stroke="#000000" fill="none"/>
<path d="M10.078125 16.879747040119774L10.5 16.636177395305403L10.921875000000002 16.879747040119774" stroke-width="0.03" stroke="#000000" fill="none"/>
<path d="M10.5 16.636177395305403L10.5 15.337139289628746" stroke-width="0.03" stroke="#000000" fill="none"/>
<path d="M10.5 14.85L10.5 12.65787319667064" stroke-width="0.03" stroke="#000000" fill="none"/>
<path d="M10.5 12.333113670251475L9.65625 11.845974380622728L9.4453125 11.967759203029914" stroke-width="0.03" stroke="#000000" fill="none"/>
<path d="M9.375 11.927164262227517L9.375 11.602404735808353L8.109375 10.871695801365235" stroke-width="0.03" stroke="#000000" fill="none"/>
<path d="M7.40625 11.277645209389188L8.671875 12.00835414383231L8.671875 12.0895440254371" stroke-width="0.03" stroke="#000000" fill="none"/>
<path d="M8.671875 12.00835414383231L9.375 11.602404735808353" stroke-width="0.03" stroke="#000000" fill="none"/>
<path d="M9.375 11.034075564574817L10.5 11.683594617413146" stroke-width="0.03" stroke="#000000" fill="none"/>
<path d="M10.359375 11.44002497259877L10.218750000000002 11.521214854203564L10.218750000000002 11.358835090993981L10.359375 11.277645209389188L9.9375 11.034075564574817" stroke-width="0.03" stroke="#000000" fill="none"/>
<path d="M9.9375 11.196455327784399L10.218750000000002 11.358835090993981" stroke-width="0.03" stroke="#000000" fill="none"/>
<path d="M10.359375 11.44002497259877L10.359375 11.277645209389188" stroke-width="0.03" stroke="#000000" fill="none"/>
<path d="M9.9375 11.358835090993981L9.9375 10.62812615655086" stroke-width="0.03" stroke="#000000" fill="none"/>
<path d="M9.796875 10.62812615655086L10.2890625 10.343961570934091L10.2890625 10.42515145253888L9.796875 10.709316038155652" stroke-width="0.03" stroke="#000000" fill="none"/>
<path d="M10.2890625 10.343961570934091L9.7265625 10.019202044514927" stroke-width="0.03" stroke="#000000" fill="none"/>
<path d="M9.515625 10.059796985317323L9.515625 9.816227340502948" stroke-width="0.03" stroke="#000000" fill="none"/>
<path d="M9.234375 9.897417222107741L9.234375 9.653847577293366" stroke-width="0.03" stroke="#000000" fill="none"/>
<path d="M9.515625 9.004328524455037L9.5859375 8.963733583652642" stroke-width="0.03" stroke="#000000" fill="none"/>
<path d="M9.3046875 8.80135382044306L9.234375 8.841948761245455L9.234375 8.760758879640663" stroke-width="0.03" stroke="#000000" fill="none"/>
<path d="M10.5 9.166708287664619L10.5 9.572657695688576" stroke-width="0.03" stroke="#000000" fill="none"/>
<path d="M11.484375000000002 9.816227340502948L11.484375000000002 10.059796985317323" stroke-width="0.03" stroke="#000000" fill="none"/>
<path d="M11.765625 9.897417222107741L11.765625 9.653847577293366" stroke-width="0.03" stroke="#000000" fill="none"/>
<path d="M11.484375000000002 9.004328524455037L11.4140625 8.963733583652642" stroke-width="0.03" stroke="#000000" fill="none"/>
<path d="M11.6953125 8.80135382044306L11.765625 8.841948761245455L11.765625 8.760758879640663" stroke-width="0.03" stroke="#000000" fill="none"/>
<path d="M13.031250000000002 9.329088050874201L13.3125 9.166708287664619L13.5234375 9.288493110071807" stroke-width="0.03" stroke="#000000" fill="none"/>
<path d="M13.5234375 9.613252636490971L13.5234375 8.80135382044306" stroke-width="0.03" stroke="#000000" fill="none"/>
<path d="M13.593750000000002 8.841948761245455L13.593750000000002 7.4617207739640055L14.15625 7.136961247544841" stroke-width="0.03" stroke="#000000" fill="none"/>
<path d="M13.593750000000002 7.4617207739640055L12.75 6.974581484335259" stroke-width="0.03" stroke="#000000" fill="none"/>
<path d="M13.875 8.679568998035872L16.546875 10.222176748526905L16.546875 11.358835090993981L17.53125 11.927164262227517L17.8125 11.764784499017935L17.8125 14.85" stroke-width="0.03" stroke="#000000" fill="none"/>
<path d="M17.53125 15.012379763209582L17.53125 11.927164262227517" stroke-width="0.03" stroke="#000000" fill="none"/>
<path d="M17.8125 11.764784499017935L16.828125 11.196455327784399L16.546875 11.358835090993981" stroke-width="0.03" stroke="#000000" fill="none"/>
<path d="M16.828125 11.196455327784399L16.828125 10.059796985317323L14.15625 8.51718923482629" stroke-width="0.03" stroke="#000000" fill="none"/>
<path d="M13.5234375 9.613252636490971L13.031250000000002 9.329088050874201L13.031250000000002 9.572657695688576" stroke-width="0.03" stroke="#000000" fill="none"/>
<path d="M15.421875 10.222176748526905L15.421875 12.00835414383231L16.96875 12.90144284148501L16.96875 13.713341657532922L16.4765625 13.997506243149692" stroke-width="0.03" stroke="#000000" fill="none"/>
<path d="M16.4765625 14.56583541438323L16.4765625 13.266797308706572L15.9140625 12.942037782287407L15.000000000000002 13.46977201271855" stroke-width="0.03" stroke="#000000" fill="none"/>
<path d="M15.351562500000002 13.9163163615449L16.4765625 13.266797308706572" stroke-width="0.03" stroke="#000000" fill="none"/>
<path d="M16.40625 13.226202367904175L16.96875 12.90144284148501" stroke-width="0.03" stroke="#000000" fill="none"/>
<path d="M16.3359375 12.536088374263452L16.3359375 12.130138966239496L15.773437500000002 11.805379439820332L15.773437500000002 11.155860386982003L15.421875 10.952885682970024" stroke-width="0.03" stroke="#000000" fill="none"/>
<path d="M15.421875 11.358835090993981L15.773437500000002 11.155860386982003" stroke-width="0.03" stroke="#000000" fill="none"/>
<path d="M15.773437500000002 11.805379439820332L13.8046875 12.942037782287407L13.8046875 13.023227663892198L13.734375 12.982632723089804L12.75 13.55096189432334L12.890625000000002 13.632151775928133L12.890625000000002 13.956911302347297" stroke-width="0.03" stroke="#000000" fill="none"/>
<path d="M12.890625000000002 13.632151775928133L15.140625 12.333113670251475" stroke-width="0.03" stroke="#000000" fill="none"/>
<path d="M14.9296875 12.37370861105387L13.8046875 13.023227663892198" stroke-width="0.03" stroke="#000000" fill="none"/>
<path d="M13.734375 12.982632723089804L13.734375 12.90144284148501L14.859375 12.251923788646682L14.9296875 12.292518729449078L14.9296875 12.37370861105387" stroke-width="0.03" stroke="#000000" fill="none"/>
<path d="M15.000000000000002 12.0895440254371L12.75 13.388582131113758L12.46875 13.226202367904175" stroke-width="0.03" stroke="#000000" fill="none"/>
<path d="M12.75 13.388582131113758L12.75 13.55096189432334" stroke-width="0.03" stroke="#000000" fill="none"/>
<path d="M12.46875 13.713341657532922L12.328125000000002 13.794531539137715L12.46875 13.875721420742504" stroke-width="0.03" stroke="#000000" fill="none"/>
<path d="M12.328125000000002 13.794531539137715L12.328125000000002 13.632151775928133" stroke-width="0.03" stroke="#000000" fill="none"/>
<path d="M12.046875 13.46977201271855L12.046875 13.956911302347297L10.921875000000002 14.606430355185626" stroke-width="0.03" stroke="#000000" fill="none"/>
<path d="M10.078125 14.606430355185626L8.953125 13.956911302347297L8.53125 14.200480947161669" stroke-width="0.03" stroke="#000000" fill="none"/>
<path d="M8.53125 13.875721420742504L8.671875 13.794531539137715L8.671875 13.632151775928133" stroke-width="0.03" stroke="#000000" fill="none"/>
<path d="M8.53125 13.713341657532922L8.671875 13.794531539137715" stroke-width="0.03" stroke="#000000" fill="none"/>
<path d="M8.953125 13.956911302347297L8.953125 13.46977201271855" stroke-width="0.03" stroke="#000000" fill="none"/>
<path d="M8.53125 13.388582131113758L10.218750000000002 12.414303551856264" stroke-width="0.03" stroke="#000000" fill="none"/>
<path d="M8.53125 13.226202367904175L8.25 13.388582131113758L8.25 13.55096189432334L8.109375 13.632151775928133L8.109375 13.956911302347297L5.859375000000001 12.65787319667064L5.859375000000001 12.333113670251475L6 12.251923788646682L6 12.0895440254371L6.28125 11.927164262227517L8.53125 13.226202367904175L8.53125 13.388582131113758" stroke-width="0.03" stroke="#000000" fill="none"/>
<path d="M8.25 13.388582131113758L6 12.0895440254371" stroke-width="0.03" stroke="#000000" fill="none"/>
<path d="M6.140625 12.251923788646682L6.0703125 12.292518729449078L6.0703125 12.37370861105387L7.1953125 13.023227663892198L7.265625000000001 12.982632723089804L8.25 13.55096189432334" stroke-width="0.03" stroke="#000000" fill="none"/>
<path d="M8.109375 13.632151775928133L5.859375000000001 12.333113670251475" stroke-width="0.03" stroke="#000000" fill="none"/>
<path d="M6.140625 12.251923788646682L7.265625000000001 12.90144284148501L7.265625000000001 12.982632723089804" stroke-width="0.03" stroke="#000000" fill="none"/>
<path d="M7.1953125 13.023227663892198L7.1953125 12.942037782287407L7.265625000000001 12.90144284148501" stroke-width="0.03" stroke="#000000" fill="none"/>
<path d="M7.1953125 12.942037782287407L5.2265625 11.805379439820332L5.2265625 11.155860386982003L5.578125 10.952885682970024" stroke-width="0.03" stroke="#000000" fill="none"/>
<path d="M5.2265625 11.155860386982003L5.578125 11.358835090993981" stroke-width="0.03" stroke="#000000" fill="none"/>
<path d="M5.2265625 11.805379439820332L4.6640625 12.130138966239496L4.6640625 12.536088374263452" stroke-width="0.03" stroke="#000000" fill="none"/>
<path d="M5.015625 12.333113670251475L4.6640625 12.130138966239496" stroke-width="0.03" stroke="#000000" fill="none"/>
<path d="M4.453125 11.358835090993981L3.46875 11.927164262227517L3.1874999999999996 11.764784499017935L3.1874999999999996 14.85" stroke-width="0.03" stroke="#000000" fill="none"/>
<path d="M3.46875 15.012379763209582L3.46875 11.927164262227517" stroke-width="0.03" stroke="#000000" fill="none"/>
<path d="M3.1874999999999996 11.764784499017935L4.171875 11.196455327784399" stroke-width="0.03" stroke="#000000" fill="none"/>
<path d="M4.453125 10.222176748526905L4.171875 10.059796985317323" stroke-width="0.03" stroke="#000000" fill="none"/>
<path d="M5.578125 10.222176748526905L6.28125 9.816227340502948L6.7734375 10.100391926119716" stroke-width="0.03" stroke="#000000" fill="none"/>
<path d="M6.140625 10.465746393341277L7.265625000000001 11.115265446179606" stroke-width="0.03" stroke="#000000" fill="none"/>
<path d="M6.140625 10.54693627494607L5.578125 10.222176748526905L5.578125 12.00835414383231L4.03125 12.90144284148501L4.03125 13.713341657532922L4.5234375 13.997506243149692" stroke-width="0.03" stroke="#000000" fill="none"/>
<path d="M4.5234375 14.56583541438323L6.0703125 15.458924112035932" stroke-width="0.03" stroke="#000000" fill="none"/>
<path d="M6.210937500000001 15.215354467221559L6.0703125 15.134164585616768" stroke-width="0.03" stroke="#000000" fill="none"/>
<path d="M5.859375000000001 14.768810118395209L5.859375000000001 13.956911302347297L6 13.875721420742504L6 12.739063078275429" stroke-width="0.03" stroke="#000000" fill="none"/>
<path d="M6.0703125 12.779658019077825L6.0703125 13.997506243149692L7.1953125 14.647025295988021" stroke-width="0.03" stroke="#000000" fill="none"/>
<path d="M7.125 14.687620236790417L5.859375000000001 13.956911302347297" stroke-width="0.03" stroke="#000000" fill="none"/>
<path d="M6 13.875721420742504L6.0703125 13.9163163615449" stroke-width="0.03" stroke="#000000" fill="none"/>
<path d="M5.6484375 13.9163163615449L4.5234375 13.266797308706572" stroke-width="0.03" stroke="#000000" fill="none"/>
<path d="M4.59375 13.226202367904175L4.03125 12.90144284148501" stroke-width="0.03" stroke="#000000" fill="none"/>
<path d="M4.453125 14.85L3.7499999999999996 15.255949408023953" stroke-width="0.03" stroke="#000000" fill="none"/>
<path d="M3.7499999999999996 15.174759526419164L2.5546875 15.864873520059888L1.9921874999999998 15.540113993640723" stroke-width="0.03" stroke="#000000" fill="none"/>
<path d="M2.5546875 15.864873520059888L2.5546875 16.83915209931738" stroke-width="0.03" stroke="#000000" fill="none"/>
<path d="M4.1015625 15.946063401664679L6.3515625 17.24510150734134" stroke-width="0.03" stroke="#000000" fill="none"/>
<path d="M6.703125 17.28569644814373L6.7734375 17.24510150734134L7.265625000000001 17.529266092958107" stroke-width="0.03" stroke="#000000" fill="none"/>
<path d="M6.914062500000001 17.732240796970082L8.0390625 18.38175984980841L8.0390625 18.544139613017997" stroke-width="0.03" stroke="#000000" fill="none"/>
<path d="M8.25 18.58473455382039L7.757812499999999 18.86889913943716L8.8828125 19.51841819227549" stroke-width="0.03" stroke="#000000" fill="none"/>
<path d="M8.953125 19.31544348826351L8.953125 17.85402561937727L9.0234375 17.813430678574875" stroke-width="0.03" stroke="#000000" fill="none"/>
<path d="M8.953125 17.85402561937727L8.25 17.448076211353314" stroke-width="0.03" stroke="#000000" fill="none"/>
<path d="M7.757812499999999 17.732240796970082L8.25 18.016405382586854" stroke-width="0.03" stroke="#000000" fill="none"/>
<path d="M6.84375 18.097595264191643L6.6328125 18.219380086598832" stroke-width="0.03" stroke="#000000" fill="none"/>
<path d="M6.84375 18.422354790610807L6.6328125 18.544139613017997" stroke-width="0.03" stroke="#000000" fill="none"/>
<path d="M5.9296875 18.625329494622786L5.859375000000001 18.58473455382039" stroke-width="0.03" stroke="#000000" fill="none"/>
<path d="M5.859375000000001 18.909494080239554L5.9296875 18.95008902104195L5.859375000000001 18.990683961844347" stroke-width="0.03" stroke="#000000" fill="none"/>
<path d="M5.578125 17.69164585616769L5.9296875 17.48867115215571" stroke-width="0.03" stroke="#000000" fill="none"/>
<path d="M6.492187500000001 16.920341980922174L6.5625 16.879747040119774L6.5625 16.311417868886238" stroke-width="0.03" stroke="#000000" fill="none"/>
<path d="M7.3359375 16.352012809688635L7.3359375 16.514392572898217" stroke-width="0.03" stroke="#000000" fill="none"/>
<path d="M7.125 15.499519052838329L5.859375000000001 14.768810118395209" stroke-width="0.03" stroke="#000000" fill="none"/>
<path d="M4.6640625 15.29654434882635L4.453125 15.418329171233536L4.171875 15.255949408023953L4.171875 15.012379763209582" stroke-width="0.03" stroke="#000000" fill="none"/>
<path d="M4.453125 14.85L4.453125 15.418329171233536" stroke-width="0.03" stroke="#000000" fill="none"/>
<path d="M8.25 15.824278579257493L8.25 13.875721420742504L8.109375 13.956911302347297" stroke-width="0.03" stroke="#000000" fill="none"/>
<path d="M9.0234375 16.189633046479052L9.0234375 16.514392572898217" stroke-width="0.03" stroke="#000000" fill="none"/>
<path d="M10.5 18.665924435425183L10.570312500000002 18.625329494622786" stroke-width="0.03" stroke="#000000" fill="none"/>
<path d="M11.0625 20.858051238754545L11.0625 21.2640006467785L10.5 20.939241120359334" stroke-width="0.03" stroke="#000000" fill="none"/>
<path d="M9.9375 20.858051238754545L9.9375 21.2640006467785" stroke-width="0.03" stroke="#000000" fill="none"/>
<path d="M10.5 21.832329818012038L10.5 22.157089344431203" stroke-width="0.03" stroke="#000000" fill="none"/>
<path d="M9.515625 22.400658989245574L9.515625 22.72541851566474" stroke-width="0.03" stroke="#000000" fill="none"/>
<path d="M11.484375000000002 22.72541851566474L11.484375000000002 22.400658989245574" stroke-width="0.03" stroke="#000000" fill="none"/>
<path d="M12.046875 21.42638040998808L12.75 21.020431001964123L12.75 20.452101830730584" stroke-width="0.03" stroke="#000000" fill="none"/>
<path d="M11.4140625 21.06102594276652L11.0625 21.2640006467785" stroke-width="0.03" stroke="#000000" fill="none"/>
<path d="M7.4765625 20.086747363509026L6.7734375 20.492696771532984" stroke-width="0.03" stroke="#000000" fill="none"/>
<path d="M6.984375 20.12734230431142L6.984375 19.802582777892262L7.1953125 19.68079795548507" stroke-width="0.03" stroke="#000000" fill="none"/>
<path d="M6.984375 19.802582777892262L7.4765625 20.086747363509026" stroke-width="0.03" stroke="#000000" fill="none"/>
<path d="M7.1953125 20.249127126718612L6.984375 20.12734230431142" stroke-width="0.03" stroke="#000000" fill="none"/>
<path d="M12.046875 13.956911302347297L12.46875 14.200480947161669" stroke-width="0.03" stroke="#000000" fill="none"/>
<path d="M13.734375 12.90144284148501L13.8046875 12.942037782287407" stroke-width="0.03" stroke="#000000" fill="none"/>
<path d="M15.984375 12.333113670251475L16.3359375 12.130138966239496" stroke-width="0.03" stroke="#000000" fill="none"/>
<path d="M16.546875 10.222176748526905L16.828125 10.059796985317323" stroke-width="0.03" stroke="#000000" fill="none"/>
<path d="M16.546875 14.85L16.546875 15.418329171233536L16.3359375 15.29654434882635" stroke-width="0.03" stroke="#000000" fill="none"/>
<path d="M16.546875 15.418329171233536L16.828125 15.255949408023953L16.828125 15.012379763209582" stroke-width="0.03" stroke="#000000" fill="none"/>
<path d="M16.546875 14.85L17.25 15.255949408023953" stroke-width="0.03" stroke="#000000" fill="none"/>
<path d="M17.25 15.174759526419164L18.4453125 15.864873520059888L19.0078125 15.540113993640723" stroke-width="0.03" stroke="#000000" fill="none"/>
<path d="M18.4453125 15.864873520059888L18.4453125 16.83915209931738" stroke-width="0.03" stroke="#000000" fill="none"/>
<path d="M16.40625 16.79855715851499L16.3359375 16.75796221771259L16.3359375 16.83915209931738" stroke-width="0.03" stroke="#000000" fill="none"/>
<path d="M16.0546875 16.920341980922174L16.0546875 17.001531862526964" stroke-width="0.03" stroke="#000000" fill="none"/>
<path d="M15.351562500000002 21.223405705976102L15.351562500000002 21.87292475881443" stroke-width="0.03" stroke="#000000" fill="none"/>
<path d="M7.264131938244363 2.2599663291074443L1.5 2.2599663291074443" stroke-width="0.03" stroke="#000000" fill="none"/>
<path d="M2.0824957911384305 2.015598694615191L2.0824957911384305 1.7268634256306838" stroke-width="0.03" stroke="#000000" fill="none"/>
<path d="M2.061871843353823 1.5824957911384305L2.0824957911384305 1.6031197389230383L2.1031197389230383 1.5824957911384305L2.0824957911384305 1.5618718433538228L2.061871843353823 1.5824957911384305" stroke-width="0.03" stroke="#000000" fill="none"/>
<path d="M2.226863425630684 1.953726851261368L2.2474873734152916 1.9949747468305832L2.3093592167691144 2.015598694615191L2.3712310601229376 2.015598694615191L2.4331029034767604 1.9949747468305832L2.4537268512613677 1.953726851261368L2.4537268512613677 1.9331029034767604L2.4331029034767604 1.891855007907545L2.391855007907545 1.8712310601229374L2.2887352689845066 1.8506071123383299L2.2474873734152916 1.8299831645537221L2.226863425630684 1.7887352689845069L2.2474873734152916 1.7474873734152916L2.3093592167691144 1.7268634256306838L2.3712310601229376 1.7268634256306838L2.4331029034767604 1.7474873734152916L2.4537268512613677 1.7887352689845069" stroke-width="0.03" stroke="#000000" fill="none"/>
<path d="M2.680590276892052 1.7268634256306838L2.6393423813228365 1.7474873734152916L2.5980944857536215 1.7887352689845069L2.5774705379690137 1.8506071123383299L2.5774705379690137 1.891855007907545L2.5980944857536215 1.953726851261368L2.6393423813228365 1.9949747468305832L2.680590276892052 2.015598694615191L2.7424621202458748 2.015598694615191L2.78371001581509 1.9949747468305832L2.8249579113843053 1.953726851261368L2.845581859168913 1.891855007907545L2.845581859168913 1.8506071123383299L2.8249579113843053 1.7887352689845069L2.78371001581509 1.7474873734152916L2.7424621202458748 1.7268634256306838L2.680590276892052 1.7268634256306838" stroke-width="0.03" stroke="#000000" fill="none"/>
<path d="M2.907453702522736 2.056846590184406L3.237436867076458 2.056846590184406" stroke-width="0.03" stroke="#000000" fill="none"/>
<path d="M3.2993087104302807 1.953726851261368L3.3199326582148885 1.9949747468305832L3.3818045015687113 2.015598694615191L3.443676344922534 2.015598694615191L3.5055481882763573 1.9949747468305832L3.526172136060965 1.953726851261368L3.526172136060965 1.9331029034767604L3.5055481882763573 1.891855007907545L3.464300292707142 1.8712310601229374L3.361180553784104 1.8506071123383299L3.3199326582148885 1.8299831645537221L3.2993087104302807 1.7887352689845069L3.3199326582148885 1.7474873734152916L3.3818045015687113 1.7268634256306838L3.443676344922534 1.7268634256306838L3.5055481882763573 1.7474873734152916L3.526172136060965 1.7887352689845069" stroke-width="0.03" stroke="#000000" fill="none"/>
<path d="M3.6705397705532183 1.8093592167691144L3.732411613907041 1.7474873734152916L3.773659509476256 1.7268634256306838L3.8355313528300794 1.7268634256306838L3.8767792483992944 1.7474873734152916L3.897403196183902 1.8093592167691144L3.897403196183902 2.015598694615191" stroke-width="0.03" stroke="#000000" fill="none"/>
<path d="M3.6705397705532183 2.015598694615191L3.6705397705532183 1.7268634256306838" stroke-width="0.03" stroke="#000000" fill="none"/>
<path d="M4.144890569599194 1.7268634256306838L4.103642674029978 1.7474873734152916L4.062394778460764 1.7887352689845069L4.041770830676155 1.8506071123383299L4.041770830676155 1.891855007907545L4.062394778460764 1.953726851261368L4.103642674029978 1.9949747468305832L4.144890569599194 2.015598694615191L4.206762412953017 2.015598694615191L4.2480103085222325 1.9949747468305832L4.289258204091447 1.953726851261368L4.309882151876055 1.891855007907545L4.309882151876055 1.8506071123383299L4.289258204091447 1.7887352689845069L4.2480103085222325 1.7474873734152916L4.206762412953017 1.7268634256306838L4.144890569599194 1.7268634256306838" stroke-width="0.03" stroke="#000000" fill="none"/>
<path d="M4.4336258385837 1.7268634256306838L4.516121629722131 2.015598694615191L4.5986174208605615 1.7268634256306838L4.681113211998992 2.015598694615191L4.7636090031374225 1.7268634256306838" stroke-width="0.03" stroke="#000000" fill="none"/>
<path d="M4.866728742060461 1.7268634256306838L5.011096376552715 1.7268634256306838" stroke-width="0.03" stroke="#000000" fill="none"/>
<path d="M5.031720324337321 1.5824957911384305L4.990472428768107 1.5824957911384305L4.949224533198891 1.6031197389230383L4.928600585414284 1.664991582276861L4.928600585414284 2.015598694615191" stroke-width="0.03" stroke="#000000" fill="none"/>
<path d="M5.155464011044968 2.015598694615191L5.155464011044968 1.5824957911384305" stroke-width="0.03" stroke="#000000" fill="none"/>
<path d="M5.547319018952512 1.7268634256306838L5.547319018952512 2.015598694615191" stroke-width="0.03" stroke="#000000" fill="none"/>
<path d="M5.547319018952512 1.953726851261368L5.506071123383298 1.9949747468305832L5.464823227814082 2.015598694615191L5.402951384460259 2.015598694615191L5.3617034888910435 1.9949747468305832L5.320455593321829 1.953726851261368L5.299831645537221 1.891855007907545L5.299831645537221 1.8506071123383299L5.320455593321829 1.7887352689845069L5.3617034888910435 1.7474873734152916L5.402951384460259 1.7268634256306838L5.464823227814082 1.7268634256306838L5.506071123383298 1.7474873734152916L5.547319018952512 1.7887352689845069" stroke-width="0.03" stroke="#000000" fill="none"/>
<path d="M5.712310601229374 1.9331029034767604L5.91855007907545 1.7268634256306838" stroke-width="0.03" stroke="#000000" fill="none"/>
<path d="M5.794806392367804 1.8506071123383299L5.939174026860058 2.015598694615191" stroke-width="0.03" stroke="#000000" fill="none"/>
<path d="M6.042293765783096 1.8506071123383299L6.2897811391983875 1.8506071123383299L6.2897811391983875 1.8093592167691144L6.26915719141378 1.7681113211998993L6.248533243629172 1.7474873734152916L6.207285348059957 1.7268634256306838L6.145413504706134 1.7268634256306838L6.104165609136919 1.7474873734152916L6.062917713567703 1.7887352689845069L6.042293765783096 1.8506071123383299L6.042293765783096 1.891855007907545L6.062917713567703 1.953726851261368L6.104165609136919 1.9949747468305832L6.145413504706134 2.015598694615191L6.207285348059957 2.015598694615191L6.248533243629172 1.9949747468305832L6.2897811391983875 1.953726851261368" stroke-width="0.03" stroke="#000000" fill="none"/>
<path d="M6.434148773690641 1.6856155300614688L6.434148773690641 1.664991582276861L6.454772721475249 1.6237436867076458L6.475396669259856 1.6031197389230383L6.516644564829072 1.5824957911384305L6.599140355967502 1.5824957911384305L6.640388251536717 1.6031197389230383L6.661012199321325 1.6237436867076458L6.681636147105933 1.664991582276861L6.681636147105933 1.7062394778460763L6.661012199321325 1.7474873734152916L6.61976430375211 1.8093592167691144L6.413524825906033 2.015598694615191L6.702260094890541 2.015598694615191" stroke-width="0.03" stroke="#000000" fill="none"/>
<path d="M5.712310601229374 2.015598694615191L5.712310601229374 1.5824957911384305" stroke-width="0.03" stroke="#000000" fill="none"/>
<path d="M4.4472897369133975 2.8001756369514412L4.434543436200307 2.8384145390907127L4.409050834774126 2.8639071405168943L4.370811932634854 2.8766534412299847L4.358065631921763 2.8766534412299847L4.319826729782491 2.8639071405168943L4.29433412835631 2.8384145390907127L4.28158782764322 2.8001756369514412L4.28158782764322 2.7874293362383504L4.29433412835631 2.7491904340990785L4.319826729782491 2.7236978326728973L4.358065631921763 2.7109515319598065L4.370811932634854 2.7109515319598065L4.409050834774126 2.7236978326728973L4.434543436200307 2.7491904340990785L4.4472897369133975 2.8001756369514412L4.4472897369133975 2.8639071405168943L4.434543436200307 2.927638644082347L4.409050834774126 2.965877546221619L4.370811932634854 2.9786238469347097L4.345319331208673 2.9786238469347097L4.3070804290694005 2.965877546221619L4.29433412835631 2.9403849447954378" stroke-width="0.03" stroke="#000000" fill="none"/>
<path d="M4.1668711212254035 2.8384145390907127L4.064900715520679 2.8384145390907127" stroke-width="0.03" stroke="#000000" fill="none"/>
<path d="M4.064900715520679 2.7109515319598065L4.064900715520679 2.9786238469347097" stroke-width="0.03" stroke="#000000" fill="none"/>
<path d="M3.899198806250501 2.9786238469347097L3.899198806250501 2.7109515319598065L3.8609599041112292 2.7491904340990785L3.835467302685048 2.761936734812169" stroke-width="0.03" stroke="#000000" fill="none"/>
<path d="M3.695257994841051 2.7109515319598065L3.567794987710145 2.7109515319598065L3.5550486869970546 2.825668238377622L3.567794987710145 2.8129219376645316L3.6060338898494173 2.8001756369514412L3.644272791988689 2.8001756369514412L3.6825116941279608 2.8129219376645316L3.708004295554142 2.8384145390907127L3.7207505962672327 2.8766534412299847L3.7207505962672327 2.902146042656166L3.708004295554142 2.9403849447954378L3.6825116941279608 2.965877546221619L3.644272791988689 2.9786238469347097L3.6060338898494173 2.9786238469347097L3.567794987710145 2.965877546221619L3.5550486869970546 2.953131245508528L3.542302386283964 2.927638644082347" stroke-width="0.03" stroke="#000000" fill="none"/>
<path d="M3.4658245820054203 2.9148923433692566L3.4530782812923295 2.9403849447954378L3.4275856798661484 2.965877546221619L3.402093078439967 2.9786238469347097L3.351107875587605 2.9786238469347097L3.3256152741614233 2.965877546221619L3.3001226727352426 2.9403849447954378L3.287376372022152 2.9148923433692566L3.274630071309061 2.8766534412299847L3.274630071309061 2.8129219376645316L3.287376372022152 2.7746830355252596L3.3001226727352426 2.7491904340990785L3.3256152741614233 2.7236978326728973L3.351107875587605 2.7109515319598065L3.402093078439967 2.7109515319598065L3.4275856798661484 2.7236978326728973L3.4530782812923295 2.7491904340990785L3.4658245820054203 2.7746830355252596" stroke-width="0.03" stroke="#000000" fill="none"/>
<path d="M3.1726596656043364 2.7109515319598065L3.0451966584734302 2.7109515319598065L3.0324503577603394 2.825668238377622L3.0451966584734302 2.8129219376645316L3.0834355606127017 2.8001756369514412L3.1216744627519737 2.8001756369514412L3.1599133648912456 2.8129219376645316L3.185405966317427 2.8384145390907127L3.198152267030517 2.8766534412299847L3.198152267030517 2.902146042656166L3.185405966317427 2.9403849447954378L3.1599133648912456 2.965877546221619L3.1216744627519737 2.9786238469347097L3.0834355606127017 2.9786238469347097L3.0451966584734302 2.965877546221619L3.0324503577603394 2.953131245508528L3.0197040570472486 2.927638644082347" stroke-width="0.03" stroke="#000000" fill="none"/>
<path d="M2.930479952055615 2.8001756369514412L2.917733651342524 2.8384145390907127L2.892241049916343 2.8639071405168943L2.854002147777071 2.8766534412299847L2.84125584706398 2.8766534412299847L2.8030169449247087 2.8639071405168943L2.777524343498527 2.8384145390907127L2.7647780427854367 2.8001756369514412L2.7647780427854367 2.7874293362383504L2.777524343498527 2.7491904340990785L2.8030169449247087 2.7236978326728973L2.84125584706398 2.7109515319598065L2.854002147777071 2.7109515319598065L2.892241049916343 2.7236978326728973L2.917733651342524 2.7491904340990785L2.930479952055615 2.8001756369514412L2.930479952055615 2.8639071405168943L2.917733651342524 2.927638644082347L2.892241049916343 2.965877546221619L2.854002147777071 2.9786238469347097L2.82850954635089 2.9786238469347097L2.790270644211618 2.965877546221619L2.777524343498527 2.9403849447954378" stroke-width="0.03" stroke="#000000" fill="none"/>
<path d="M2.7010465392199836 2.889399741943075L2.5098520285236243 2.889399741943075L2.6373150356545305 2.7109515319598065L2.6373150356545305 2.9786238469347097" stroke-width="0.03" stroke="#000000" fill="none"/>
<path d="M2.433374224245081 2.9786238469347097L2.293164916401084 2.8001756369514412" stroke-width="0.03" stroke="#000000" fill="none"/>
<path d="M2.433374224245081 2.8001756369514412L2.293164916401084 2.9786238469347097" stroke-width="0.03" stroke="#000000" fill="none"/>
<path d="M2.1147167064178154 2.7109515319598065L2.076477804278544 2.7236978326728973L2.0509852028523623 2.761936734812169L2.038238902139272 2.825668238377622L2.038238902139272 2.8639071405168943L2.0509852028523623 2.927638644082347L2.076477804278544 2.965877546221619L2.1147167064178154 2.9786238469347097L2.140209307843997 2.9786238469347097L2.1784482099832685 2.965877546221619L2.2039408114094496 2.927638644082347L2.2166871121225404 2.8639071405168943L2.2166871121225404 2.825668238377622L2.2039408114094496 2.761936734812169L2.1784482099832685 2.7236978326728973L2.140209307843997 2.7109515319598065L2.1147167064178154 2.7109515319598065" stroke-width="0.03" stroke="#000000" fill="none"/>
<path d="M4.064900715520679 2.7109515319598065L4.230602624790857 2.7109515319598065" stroke-width="0.03" stroke="#000000" fill="none"/>
</svg>
