<?xml version="1.0" standalone="no"?>
<svg width="21cm" height="29.7cm" version="1.1" xmlns="http://www.w3.org/2000/svg" viewBox="0.0 0.0 21.000001 29.700001">
<path d="M6.914062500000001 6.933986543532863L7.40625 6.649821957916094L8.0390625 7.015176425137655" stroke-width="0.03" stroke="#000000" fill="none"/>
<path d="M7.898437500000001 6.933986543532863L9.4453125 6.040897845880161L10.078125 6.406252313101721L10.078125 7.05577136594005" stroke-width="0.03" stroke="#000000" fill="none"/>
<path d="M10.1484375 7.015176425137655L10.1484375 6.365657372299325L10.2890625 6.284467490694534L10.4296875 6.365657372299325L10.4296875 7.015176425137655L10.2890625 7.096366306742446L10.1484375 7.015176425137655" stroke-width="0.03" stroke="#000000" fill="none"/>
<path d="M10.2890625 7.096366306742446L10.2890625 6.446847253904116L10.4296875 6.365657372299325" stroke-width="0.03" stroke="#000000" fill="none"/>
<path d="M10.570312500000002 6.365657372299325L10.7109375 6.284467490694534L10.8515625 6.365657372299325L10.8515625 7.015176425137655L10.7109375 7.096366306742446L10.570312500000002 7.015176425137655L10.570312500000002 6.365657372299325L10.7109375 6.446847253904116L10.7109375 7.096366306742446" stroke-width="0.03" stroke="#000000" fill="none"/>
<path d="M10.921875000000002 7.05577136594005L10.921875000000002 6.406252313101721L11.5546875 6.040897845880161L13.1015625 6.933986543532863" stroke-width="0.03" stroke="#000000" fill="none"/>
<path d="M12.9609375 7.015176425137655L13.593750000000002 6.649821957916094L14.0859375 6.933986543532863L14.0859375 7.502315714766402" stroke-width="0.03" stroke="#000000" fill="none"/>
<path d="M14.2265625 7.745885359580775L13.6640625 8.07064488599994L14.15625 8.354809471616708L14.718749999999998 8.030049945197543L15.4921875 8.476594294023895L15.4921875 9.126113346862224" stroke-width="0.03" stroke="#000000" fill="none"/>
<path d="M15.4921875 9.044923465257433L16.40625 9.572657695688576" stroke-width="0.03" stroke="#000000" fill="none"/>
<path d="M16.3359375 9.613252636490971L16.6875 9.410277932478992L17.25 9.735037458898159L17.25 10.140986866922113" stroke-width="0.03" stroke="#000000" fill="none"/>
<path d="M17.390625 10.222176748526905L18.1640625 9.775632399700552L18.3046875 9.856822281305345L18.3046875 10.019202044514927L17.4609375 10.506341334143674L17.4609375 10.831100860562838L17.1796875 10.99348062377242L17.1796875 10.42515145253888L17.4609375 10.262771689329298L17.4609375 10.343961570934091L18.3046875 9.856822281305345" stroke-width="0.03" stroke="#000000" fill="none"/>
<path d="M18.585937500000004 10.506341334143674L17.7421875 10.99348062377242L17.4609375 10.831100860562838" stroke-width="0.03" stroke="#000000" fill="none"/>
<path d="M17.1796875 10.99348062377242L17.671875 11.277645209389188L17.953125000000004 11.115265446179606L17.953125000000004 14.038101183952087L18.515625 13.713341657532922L17.953125000000004 13.388582131113758" stroke-width="0.03" stroke="#000000" fill="none"/>
<path d="M18.0234375 13.429177071916154L18.0234375 12.37370861105387" stroke-width="0.03" stroke="#000000" fill="none"/>
<path d="M17.953125000000004 12.414303551856264L18.3046875 12.211328847844287L18.3046875 11.561809795005958L17.953125000000004 11.358835090993981" stroke-width="0.03" stroke="#000000" fill="none"/>
<path d="M17.953125000000004 11.196455327784399L18.7265625 10.749910978958045L18.7265625 10.587531215748463L18.585937500000004 10.506341334143674" stroke-width="0.03" stroke="#000000" fill="none"/>
<path d="M18.7265625 10.587531215748463L17.882812500000004 11.074670505377211L17.953125000000004 11.115265446179606" stroke-width="0.03" stroke="#000000" fill="none"/>
<path d="M17.671875 11.277645209389188L17.671875 14.200480947161669L16.265625 15.012379763209582L16.265625 15.174759526419164L15.421875 15.661898816047911L15.421875 16.960936921724567L15.351562500000002 17.001531862526964L15.351562500000002 17.651050915365293L14.7890625 17.975810441784457L14.2265625 17.651050915365293L14.7890625 17.326291388946128L15.351562500000002 17.651050915365293" stroke-width="0.03" stroke="#000000" fill="none"/>
<path d="M15.351562500000002 17.001531862526964L14.7890625 16.6767723361078L14.859375 16.636177395305403L14.859375 16.311417868886238" stroke-width="0.03" stroke="#000000" fill="none"/>
<path d="M14.859375 16.636177395305403L15.421875 16.960936921724567" stroke-width="0.03" stroke="#000000" fill="none"/>
<path d="M14.7890625 16.6767723361078L14.7890625 17.326291388946128" stroke-width="0.03" stroke="#000000" fill="none"/>
<path d="M14.2265625 17.651050915365293L14.2265625 17.732240796970082L13.945312500000002 17.894620560179668" stroke-width="0.03" stroke="#000000" fill="none"/>
<path d="M14.2265625 17.732240796970082L14.7890625 18.057000323389246L13.6640625 18.706519376227575L13.453125 18.58473455382039L13.453125 19.559013133077883L13.3125 19.640203014682676L13.3125 20.452101830730584L12.46875 20.939241120359334L12.3984375 20.898646179556938L12.3984375 18.30056996820362" stroke-width="0.03" stroke="#000000" fill="none"/>
<path d="M12.46875 18.259975027401225L12.46875 20.939241120359334" stroke-width="0.03" stroke="#000000" fill="none"/>
<path d="M12.1171875 21.223405705976102L10.78125 21.994709581221617L10.5 21.832329818012038L10.218750000000002 21.994709581221617L8.8828125 21.223405705976102L8.8828125 21.385785469185684L10.5 22.31946910764078L12.1171875 21.385785469185684L12.1171875 21.223405705976102L10.921875000000002 20.53329171233538" stroke-width="0.03" stroke="#000000" fill="none"/>
<path d="M11.0625 20.452101830730584L10.640625 20.69567147554496" stroke-width="0.03" stroke="#000000" fill="none"/>
<path d="M10.640625 20.776861357149752L10.570312500000002 20.81745629795215L10.5 20.776861357149752L10.5 19.640203014682676L9.375 18.990683961844347L9.375 19.640203014682676L10.5 20.289722067521005L11.625000000000002 19.640203014682676L11.625000000000002 18.990683961844347L10.5 19.640203014682676" stroke-width="0.03" stroke="#000000" fill="none"/>
<path d="M10.5 19.559013133077883L11.5546875 18.95008902104195L11.6953125 19.03127890264674L11.90625 18.909494080239554L11.90625 18.58473455382039" stroke-width="0.03" stroke="#000000" fill="none"/>
<path d="M11.835937500000002 18.625329494622786L12.9609375 17.975810441784457L12.9609375 17.732240796970082L12.890625000000002 17.69164585616769L12.679687500000002 17.813430678574875L12.609375 17.77283573777248L12.609375 17.69164585616769" stroke-width="0.03" stroke="#000000" fill="none"/>
<path d="M12.609375 17.77283573777248L12.46875 17.85402561937727L12.3984375 17.813430678574875" stroke-width="0.03" stroke="#000000" fill="none"/>
<path d="M12.46875 17.77283573777248L12.46875 17.85402561937727" stroke-width="0.03" stroke="#000000" fill="none"/>
<path d="M12.679687500000002 17.813430678574875L12.679687500000002 17.651050915365293" stroke-width="0.03" stroke="#000000" fill="none"/>
<path d="M12.75 17.610455974562896L11.625000000000002 18.259975027401225L11.625000000000002 16.39260775049103L12.3984375 15.946063401664679L12.3984375 15.052974704011977L14.015625 14.11929106555688L14.015625 15.418329171233536L13.453125 15.7430886976527L13.3125 15.661898816047911L13.1015625 15.783683638455097" stroke-width="0.03" stroke="#000000" fill="none"/>
<path d="M13.1015625 15.864873520059888L13.382812500000002 15.702493756850306" stroke-width="0.03" stroke="#000000" fill="none"/>
<path d="M13.453125 15.7430886976527L13.453125 15.499519052838329L12.539062500000002 16.02725328326947L12.539062500000002 17.082721744131756L12.75 16.960936921724567L12.609375 16.879747040119774L12.609375 16.636177395305403" stroke-width="0.03" stroke="#000000" fill="none"/>
<path d="M12.539062500000002 16.6767723361078L12.679687500000002 16.59558245450301L12.679687500000002 16.920341980922174" stroke-width="0.03" stroke="#000000" fill="none"/>
<path d="M12.75 16.960936921724567L12.75 17.610455974562896" stroke-width="0.03" stroke="#000000" fill="none"/>
<path d="M12.9609375 17.732240796970082L11.835937500000002 18.38175984980841L11.835937500000002 18.625329494622786L11.484375000000002 18.422354790610807L11.484375000000002 18.178785145796436" stroke-width="0.03" stroke="#000000" fill="none"/>
<path d="M11.34375 18.341164909006018L10.78125 18.665924435425183L10.78125 19.3966333698683" stroke-width="0.03" stroke="#000000" fill="none"/>
<path d="M10.5 19.559013133077883L10.5 18.5035446722156L10.78125 18.665924435425183" stroke-width="0.03" stroke="#000000" fill="none"/>
<path d="M10.7109375 18.38175984980841L11.0625 18.178785145796436L11.34375 18.341164909006018L11.34375 19.071873843449136" stroke-width="0.03" stroke="#000000" fill="none"/>
<path d="M11.5546875 18.95008902104195L11.5546875 18.462949731413204" stroke-width="0.03" stroke="#000000" fill="none"/>
<path d="M11.6953125 18.544139613017997L11.6953125 19.03127890264674" stroke-width="0.03" stroke="#000000" fill="none"/>
<path d="M11.835937500000002 18.38175984980841L11.273437500000002 18.057000323389246L11.273437500000002 16.189633046479052L11.484375000000002 16.067848224071867L11.5546875 16.10844316487426L12.1171875 15.783683638455097L12.3984375 15.946063401664679" stroke-width="0.03" stroke="#000000" fill="none"/>
<path d="M12.539062500000002 16.02725328326947L12.679687500000002 16.10844316487426L12.679687500000002 15.946063401664679" stroke-width="0.03" stroke="#000000" fill="none"/>
<path d="M12.679687500000002 16.10844316487426L12.539062500000002 16.189633046479052" stroke-width="0.03" stroke="#000000" fill="none"/>
<path d="M13.1015625 16.352012809688635L15.070312500000002 15.215354467221559L15.070312500000002 14.728215177592812L15.000000000000002 14.687620236790417L14.437500000000002 15.012379763209582" stroke-width="0.03" stroke="#000000" fill="none"/>
<path d="M14.437500000000002 15.093569644814371L15.070312500000002 14.728215177592812" stroke-width="0.03" stroke="#000000" fill="none"/>
<path d="M14.437500000000002 14.768810118395209L16.6875 13.46977201271855L16.7578125 13.510366953520945L16.7578125 14.484645532778439L16.0546875 14.890594940802394L16.0546875 15.052974704011977L16.265625 15.174759526419164" stroke-width="0.03" stroke="#000000" fill="none"/>
<path d="M16.265625 15.012379763209582L16.0546875 14.890594940802394" stroke-width="0.03" stroke="#000000" fill="none"/>
<path d="M16.0546875 15.052974704011977L15.2109375 15.540113993640723L15.2109375 16.10844316487426L13.945312500000002 16.83915209931738L13.945312500000002 18.30056996820362L13.453125 18.58473455382039" stroke-width="0.03" stroke="#000000" fill="none"/>
<path d="M13.6640625 18.706519376227575L13.6640625 19.68079795548507L13.5234375 19.761987837089862L13.5234375 21.385785469185684L10.9921875 22.847203338071925L10.5 22.563038752455157L10.0078125 22.847203338071925L7.4765625 21.385785469185684L7.4765625 19.761987837089862L7.3359375 19.68079795548507L7.3359375 18.706519376227575L6.210937500000001 18.057000323389246L6.210937500000001 17.975810441784457L6.7734375 17.651050915365293L6.210937500000001 17.326291388946128L6.210937500000001 16.6767723361078L6.140625 16.636177395305403L6.140625 16.311417868886238" stroke-width="0.03" stroke="#000000" fill="none"/>
<path d="M6.140625 16.636177395305403L5.578125 16.960936921724567L5.6484375 17.001531862526964L5.6484375 17.651050915365293L6.210937500000001 17.975810441784457" stroke-width="0.03" stroke="#000000" fill="none"/>
<path d="M6.210937500000001 18.057000323389246L6.7734375 17.732240796970082L6.7734375 17.651050915365293" stroke-width="0.03" stroke="#000000" fill="none"/>
<path d="M6.7734375 17.732240796970082L7.0546875 17.894620560179668" stroke-width="0.03" stroke="#000000" fill="none"/>
<path d="M7.0546875 18.30056996820362L7.0546875 16.83915209931738L5.7890625 16.10844316487426L5.7890625 15.540113993640723L4.9453125 15.052974704011977L4.9453125 14.890594940802394L4.2421875 14.484645532778439L4.2421875 13.510366953520945L4.3125 13.46977201271855L6.5625 14.768810118395209" stroke-width="0.03" stroke="#000000" fill="none"/>
<path d="M6.5625 14.85L4.2421875 13.510366953520945" stroke-width="0.03" stroke="#000000" fill="none"/>
<path d="M4.171875 13.063822604694593L5.3671875 12.37370861105387" stroke-width="0.03" stroke="#000000" fill="none"/>
<path d="M5.5078125 12.45489849265866L5.015625 12.739063078275429L5.015625 13.388582131113758L4.3125 12.982632723089804" stroke-width="0.03" stroke="#000000" fill="none"/>
<path d="M4.171875 13.063822604694593L4.171875 11.521214854203564L4.03125 11.44002497259877L4.3125 11.277645209389188L4.3125 10.952885682970024L4.453125 11.034075564574817L4.453125 11.358835090993981L4.171875 11.521214854203564" stroke-width="0.03" stroke="#000000" fill="none"/>
<path d="M4.03125 11.358835090993981L4.2421875 11.237050268586794L4.2421875 10.99348062377242" stroke-width="0.03" stroke="#000000" fill="none"/>
<path d="M4.453125 11.034075564574817L5.7890625 10.262771689329298L5.7890625 11.64299967661075" stroke-width="0.03" stroke="#000000" fill="none"/>
<path d="M5.9296875 11.561809795005958L5.5078125 11.805379439820332" stroke-width="0.03" stroke="#000000" fill="none"/>
<path d="M5.4375 11.764784499017935L5.3671875 11.805379439820332L5.3671875 11.886569321425123L6.3515625 12.45489849265866L6.3515625 13.753936598335319L5.7890625 13.429177071916154L5.7890625 12.130138966239496L6.914062500000001 11.480619913401167L7.4765625 11.805379439820332L6.3515625 12.45489849265866" stroke-width="0.03" stroke="#000000" fill="none"/>
<path d="M6.421875 12.495493433461057L7.4765625 11.886569321425123L7.4765625 11.72418955821554L7.6875 11.602404735808353L7.96875 11.764784499017935" stroke-width="0.03" stroke="#000000" fill="none"/>
<path d="M7.898437500000001 11.805379439820332L9.0234375 11.155860386982003L9.234375 11.277645209389188L9.234375 11.358835090993981L9.0234375 11.480619913401167L9.0234375 11.561809795005958L8.8828125 11.64299967661075L8.8828125 11.72418955821554" stroke-width="0.03" stroke="#000000" fill="none"/>
<path d="M8.953125 11.683594617413146L8.8828125 11.64299967661075" stroke-width="0.03" stroke="#000000" fill="none"/>
<path d="M9.0234375 11.561809795005958L9.09375 11.602404735808353" stroke-width="0.03" stroke="#000000" fill="none"/>
<path d="M9.1640625 11.561809795005958L9.0234375 11.480619913401167" stroke-width="0.03" stroke="#000000" fill="none"/>
<path d="M9.234375 11.521214854203564L8.109375 12.170733907041893L9.7265625 13.10441754549699L10.5 12.65787319667064L11.273437500000002 13.10441754549699L12.890625000000002 12.170733907041893L11.765625 11.521214854203564L11.203125 11.845974380622728L11.203125 12.00835414383231L10.9921875 12.130138966239496" stroke-width="0.03" stroke="#000000" fill="none"/>
<path d="M10.921875000000002 12.0895440254371L11.203125 11.927164262227517" stroke-width="0.03" stroke="#000000" fill="none"/>
<path d="M11.203125 11.845974380622728L11.4140625 11.967759203029914L10.5 12.495493433461057L9.5859375 11.967759203029914L9.796875 11.845974380622728L9.796875 12.00835414383231L10.0078125 12.130138966239496" stroke-width="0.03" stroke="#000000" fill="none"/>
<path d="M9.9375 12.170733907041893L10.078125 12.0895440254371L9.796875 11.927164262227517" stroke-width="0.03" stroke="#000000" fill="none"/>
<path d="M9.796875 11.845974380622728L9.234375 11.521214854203564" stroke-width="0.03" stroke="#000000" fill="none"/>
<path d="M9.234375 11.277645209389188L8.109375 11.927164262227517L7.898437500000001 11.805379439820332L7.898437500000001 12.211328847844287L8.109375 12.333113670251475" stroke-width="0.03" stroke="#000000" fill="none"/>
<path d="M7.898437500000001 12.37370861105387L7.3359375 12.698468137473034L6.703125 12.333113670251475" stroke-width="0.03" stroke="#000000" fill="none"/>
<path d="M6.421875 12.495493433461057L6.421875 13.713341657532922L6.28125 13.794531539137715L6.28125 14.038101183952087L6.5625 14.200480947161669" stroke-width="0.03" stroke="#000000" fill="none"/>
<path d="M6.5625 14.11929106555688L6.914062500000001 13.9163163615449L7.125 14.038101183952087" stroke-width="0.03" stroke="#000000" fill="none"/>
<path d="M6.984375 14.11929106555688L6.984375 15.418329171233536L7.546875 15.7430886976527L7.6875 15.661898816047911L7.898437500000001 15.783683638455097" stroke-width="0.03" stroke="#000000" fill="none"/>
<path d="M7.898437500000001 15.702493756850306L7.898437500000001 15.864873520059888L7.6171875 15.702493756850306" stroke-width="0.03" stroke="#000000" fill="none"/>
<path d="M7.546875 15.7430886976527L7.546875 15.499519052838329L8.4609375 16.02725328326947L8.4609375 17.082721744131756L8.25 16.960936921724567L8.390625 16.879747040119774L8.390625 16.636177395305403" stroke-width="0.03" stroke="#000000" fill="none"/>
<path d="M8.3203125 16.59558245450301L8.3203125 16.920341980922174" stroke-width="0.03" stroke="#000000" fill="none"/>
<path d="M8.25 16.960936921724567L8.25 17.610455974562896L9.375 18.259975027401225L9.375 16.39260775049103L9.7265625 16.189633046479052L9.515625 16.067848224071867L9.4453125 16.10844316487426L8.8828125 15.783683638455097L8.6015625 15.946063401664679L9.375 16.39260775049103" stroke-width="0.03" stroke="#000000" fill="none"/>
<path d="M9.4453125 16.10844316487426L9.4453125 16.02725328326947L8.953125 15.7430886976527L8.953125 15.174759526419164L9.0234375 15.134164585616768L9.0234375 14.241075887964065L7.3359375 13.266797308706572L7.3359375 13.672746716730527L7.0546875 13.83512647994011L6.421875 13.46977201271855" stroke-width="0.03" stroke="#000000" fill="none"/>
<path d="M6.421875 13.713341657532922L6.84375 13.956911302347297" stroke-width="0.03" stroke="#000000" fill="none"/>
<path d="M6.703125 14.038101183952087L6.28125 13.794531539137715" stroke-width="0.03" stroke="#000000" fill="none"/>
<path d="M6.5625 14.11929106555688L6.5625 15.418329171233536L6.7734375 15.540113993640723L6.84375 15.499519052838329L6.84375 15.255949408023953L6.914062500000001 15.215354467221559L6.984375 15.255949408023953" stroke-width="0.03" stroke="#000000" fill="none"/>
<path d="M6.914062500000001 15.215354467221559L6.914062500000001 15.052974704011977L6.984375 15.012379763209582" stroke-width="0.03" stroke="#000000" fill="none"/>
<path d="M6.984375 15.093569644814371L6.914062500000001 15.052974704011977" stroke-width="0.03" stroke="#000000" fill="none"/>
<path d="M6.84375 15.255949408023953L6.984375 15.337139289628746" stroke-width="0.03" stroke="#000000" fill="none"/>
<path d="M6.7734375 15.540113993640723L6.7734375 14.241075887964065L7.3359375 13.9163163615449L8.953125 14.85L8.953125 15.093569644814371L8.8828125 15.134164585616768L8.8828125 15.783683638455097" stroke-width="0.03" stroke="#000000" fill="none"/>
<path d="M8.953125 15.7430886976527L9.1640625 15.621303875245514L9.5859375 15.864873520059888L10.5 15.337139289628746L11.4140625 15.864873520059888L11.835937500000002 15.621303875245514L12.046875 15.7430886976527L11.5546875 16.02725328326947L11.5546875 16.10844316487426" stroke-width="0.03" stroke="#000000" fill="none"/>
<path d="M11.484375000000002 16.067848224071867L11.484375000000002 15.986658342467075L10.7109375 16.433202691293424L10.5 16.311417868886238L10.2890625 16.433202691293424L9.515625 15.986658342467075L9.4453125 16.02725328326947" stroke-width="0.03" stroke="#000000" fill="none"/>
<path d="M9.515625 15.986658342467075L9.515625 16.067848224071867" stroke-width="0.03" stroke="#000000" fill="none"/>
<path d="M9.5859375 15.864873520059888L9.5859375 15.783683638455097L9.234375 15.580708934443118L9.234375 15.174759526419164L9.1640625 15.134164585616768L10.078125 14.606430355185626L10.1484375 14.647025295988021L10.1484375 13.591556835125736L10.078125 13.55096189432334L10.5 13.307392249508968L10.921875000000002 13.55096189432334L10.921875000000002 14.606430355185626L11.835937500000002 15.134164585616768L11.835937500000002 15.621303875245514" stroke-width="0.03" stroke="#000000" fill="none"/>
<path d="M11.765625 15.580708934443118L11.4140625 15.783683638455097L11.4140625 15.864873520059888" stroke-width="0.03" stroke="#000000" fill="none"/>
<path d="M11.4140625 15.783683638455097L10.5 15.255949408023953L9.5859375 15.783683638455097" stroke-width="0.03" stroke="#000000" fill="none"/>
<path d="M9.234375 15.580708934443118L10.5 14.85L11.765625 15.580708934443118L11.765625 15.174759526419164L10.8515625 14.647025295988021L10.8515625 13.591556835125736L10.5 13.388582131113758L10.1484375 13.591556835125736" stroke-width="0.03" stroke="#000000" fill="none"/>
<path d="M10.078125 13.55096189432334L10.078125 14.606430355185626" stroke-width="0.03" stroke="#000000" fill="none"/>
<path d="M10.1484375 14.647025295988021L9.234375 15.174759526419164" stroke-width="0.03" stroke="#000000" fill="none"/>
<path d="M9.1640625 15.134164585616768L9.1640625 15.621303875245514" stroke-width="0.03" stroke="#000000" fill="none"/>
<path d="M8.953125 15.174759526419164L8.8828125 15.134164585616768" stroke-width="0.03" stroke="#000000" fill="none"/>
<path d="M8.953125 15.093569644814371L9.0234375 15.134164585616768" stroke-width="0.03" stroke="#000000" fill="none"/>
<path d="M8.953125 14.85L8.6015625 15.052974704011977L6.984375 14.11929106555688" stroke-width="0.03" stroke="#000000" fill="none"/>
<path d="M6.7734375 14.241075887964065L6.5625 14.11929106555688" stroke-width="0.03" stroke="#000000" fill="none"/>
<path d="M7.0546875 13.83512647994011L7.0546875 13.18560742710178L7.3359375 13.023227663892198L7.3359375 12.698468137473034" stroke-width="0.03" stroke="#000000" fill="none"/>
<path d="M7.546875 12.90144284148501L7.898437500000001 12.698468137473034L7.898437500000001 12.37370861105387L7.265625000000001 12.00835414383231" stroke-width="0.03" stroke="#000000" fill="none"/>
<path d="M7.4765625 11.886569321425123L7.898437500000001 12.130138966239496" stroke-width="0.03" stroke="#000000" fill="none"/>
<path d="M7.898437500000001 11.967759203029914L7.4765625 11.72418955821554" stroke-width="0.03" stroke="#000000" fill="none"/>
<path d="M8.109375 11.927164262227517L8.109375 12.576683315065846L9.7265625 13.510366953520945L9.9375 13.388582131113758L9.9375 13.307392249508968L10.5 12.982632723089804L10.5 12.65787319667064" stroke-width="0.03" stroke="#000000" fill="none"/>
<path d="M10.5 12.495493433461057L10.5 12.333113670251475L10.359375 12.414303551856264" stroke-width="0.03" stroke="#000000" fill="none"/>
<path d="M10.5 12.333113670251475L10.640625 12.414303551856264" stroke-width="0.03" stroke="#000000" fill="none"/>
<path d="M10.921875000000002 12.0895440254371L11.0625 12.170733907041893" stroke-width="0.03" stroke="#000000" fill="none"/>
<path d="M11.203125 12.00835414383231L11.273437500000002 12.048949084634705" stroke-width="0.03" stroke="#000000" fill="none"/>
<path d="M11.835937500000002 11.561809795005958L11.976562500000002 11.480619913401167L11.976562500000002 11.561809795005958L12.1171875 11.64299967661075L12.1171875 11.72418955821554" stroke-width="0.03" stroke="#000000" fill="none"/>
<path d="M12.046875 11.683594617413146L12.1171875 11.64299967661075" stroke-width="0.03" stroke="#000000" fill="none"/>
<path d="M11.976562500000002 11.561809795005958L11.90625 11.602404735808353" stroke-width="0.03" stroke="#000000" fill="none"/>
<path d="M11.976562500000002 11.480619913401167L11.765625 11.358835090993981L11.765625 11.277645209389188L11.976562500000002 11.155860386982003L13.1015625 11.805379439820332L13.1015625 12.211328847844287L12.890625000000002 12.333113670251475" stroke-width="0.03" stroke="#000000" fill="none"/>
<path d="M13.1015625 12.37370861105387L13.734375 12.00835414383231" stroke-width="0.03" stroke="#000000" fill="none"/>
<path d="M13.5234375 11.886569321425123L13.1015625 12.130138966239496" stroke-width="0.03" stroke="#000000" fill="none"/>
<path d="M13.1015625 11.967759203029914L13.5234375 11.72418955821554L13.3125 11.602404735808353L13.031250000000002 11.764784499017935" stroke-width="0.03" stroke="#000000" fill="none"/>
<path d="M13.1015625 11.805379439820332L12.890625000000002 11.927164262227517L12.890625000000002 12.576683315065846L11.273437500000002 13.510366953520945L11.0625 13.388582131113758L11.0625 13.307392249508968L10.5 12.982632723089804" stroke-width="0.03" stroke="#000000" fill="none"/>
<path d="M10.5 13.063822604694593L10.0078125 13.347987190311363L9.9375 13.307392249508968" stroke-width="0.03" stroke="#000000" fill="none"/>
<path d="M9.9375 13.388582131113758L10.0078125 13.429177071916154L9.234375 13.875721420742504L7.546875 12.90144284148501L7.546875 13.145012486299386L9.234375 14.11929106555688L9.234375 13.875721420742504" stroke-width="0.03" stroke="#000000" fill="none"/>
<path d="M9.234375 14.11929106555688L9.0234375 14.241075887964065" stroke-width="0.03" stroke="#000000" fill="none"/>
<path d="M8.6015625 15.052974704011977L8.6015625 15.946063401664679" stroke-width="0.03" stroke="#000000" fill="none"/>
<path d="M8.4609375 16.02725328326947L8.3203125 16.10844316487426L8.3203125 15.946063401664679" stroke-width="0.03" stroke="#000000" fill="none"/>
<path d="M8.3203125 16.10844316487426L8.4609375 16.189633046479052" stroke-width="0.03" stroke="#000000" fill="none"/>
<path d="M8.3203125 16.59558245450301L8.4609375 16.6767723361078" stroke-width="0.03" stroke="#000000" fill="none"/>
<path d="M8.390625 16.879747040119774L8.4609375 16.920341980922174" stroke-width="0.03" stroke="#000000" fill="none"/>
<path d="M8.3203125 17.651050915365293L8.3203125 17.813430678574875L8.109375 17.69164585616769L8.0390625 17.732240796970082L8.0390625 17.975810441784457L9.1640625 18.625329494622786L9.515625 18.422354790610807L9.515625 18.178785145796436" stroke-width="0.03" stroke="#000000" fill="none"/>
<path d="M9.65625 18.341164909006018L9.9375 18.178785145796436L10.2890625 18.38175984980841L10.5 18.259975027401225L10.7109375 18.38175984980841L10.7109375 16.433202691293424" stroke-width="0.03" stroke="#000000" fill="none"/>
<path d="M10.5 16.311417868886238L10.5 18.259975027401225" stroke-width="0.03" stroke="#000000" fill="none"/>
<path d="M10.2890625 18.38175984980841L10.2890625 16.433202691293424" stroke-width="0.03" stroke="#000000" fill="none"/>
<path d="M9.7265625 16.189633046479052L9.7265625 18.057000323389246L9.1640625 18.38175984980841L9.1640625 18.625329494622786" stroke-width="0.03" stroke="#000000" fill="none"/>
<path d="M9.09375 18.58473455382039L9.09375 18.909494080239554L9.3046875 19.03127890264674L9.4453125 18.95008902104195L10.5 19.559013133077883" stroke-width="0.03" stroke="#000000" fill="none"/>
<path d="M10.218750000000002 19.3966333698683L10.218750000000002 18.665924435425183L10.5 18.5035446722156" stroke-width="0.03" stroke="#000000" fill="none"/>
<path d="M10.218750000000002 18.665924435425183L9.65625 18.341164909006018L9.65625 19.071873843449136" stroke-width="0.03" stroke="#000000" fill="none"/>
<path d="M9.4453125 18.95008902104195L9.4453125 18.462949731413204" stroke-width="0.03" stroke="#000000" fill="none"/>
<path d="M9.3046875 18.544139613017997L9.3046875 19.03127890264674" stroke-width="0.03" stroke="#000000" fill="none"/>
<path d="M9.1640625 18.38175984980841L8.0390625 17.732240796970082" stroke-width="0.03" stroke="#000000" fill="none"/>
<path d="M8.3203125 17.813430678574875L8.390625 17.77283573777248L8.390625 17.69164585616769" stroke-width="0.03" stroke="#000000" fill="none"/>
<path d="M8.390625 17.77283573777248L8.53125 17.85402561937727L8.6015625 17.813430678574875" stroke-width="0.03" stroke="#000000" fill="none"/>
<path d="M8.53125 17.77283573777248L8.53125 17.85402561937727" stroke-width="0.03" stroke="#000000" fill="none"/>
<path d="M8.3203125 18.13819020499404L8.3203125 18.86889913943716L7.898437500000001 18.625329494622786L7.898437500000001 16.352012809688635L5.9296875 15.215354467221559L5.9296875 14.728215177592812L6 14.687620236790417L6.5625 15.012379763209582" stroke-width="0.03" stroke="#000000" fill="none"/>
<path d="M6.5625 15.093569644814371L5.9296875 14.728215177592812" stroke-width="0.03" stroke="#000000" fill="none"/>
<path d="M5.7890625 15.540113993640723L5.578125 15.661898816047911L5.578125 16.960936921724567" stroke-width="0.03" stroke="#000000" fill="none"/>
<path d="M5.6484375 17.001531862526964L6.210937500000001 16.6767723361078" stroke-width="0.03" stroke="#000000" fill="none"/>
<path d="M6.210937500000001 17.326291388946128L5.6484375 17.651050915365293" stroke-width="0.03" stroke="#000000" fill="none"/>
<path d="M7.0546875 18.30056996820362L7.546875 18.58473455382039L7.546875 19.559013133077883L7.6875 19.640203014682676L7.6875 20.452101830730584L8.53125 20.939241120359334L8.6015625 20.898646179556938L8.6015625 18.30056996820362" stroke-width="0.03" stroke="#000000" fill="none"/>
<path d="M8.53125 18.259975027401225L8.53125 20.939241120359334" stroke-width="0.03" stroke="#000000" fill="none"/>
<path d="M8.8828125 21.223405705976102L10.078125 20.53329171233538" stroke-width="0.03" stroke="#000000" fill="none"/>
<path d="M9.9375 20.452101830730584L10.359375 20.69567147554496" stroke-width="0.03" stroke="#000000" fill="none"/>
<path d="M10.359375 20.776861357149752L10.359375 20.208532185916212" stroke-width="0.03" stroke="#000000" fill="none"/>
<path d="M10.4296875 20.249127126718612L10.4296875 20.81745629795215L10.5 20.776861357149752" stroke-width="0.03" stroke="#000000" fill="none"/>
<path d="M10.4296875 20.81745629795215L10.359375 20.776861357149752" stroke-width="0.03" stroke="#000000" fill="none"/>
<path d="M10.570312500000002 20.81745629795215L10.570312500000002 20.249127126718612" stroke-width="0.03" stroke="#000000" fill="none"/>
<path d="M10.640625 20.208532185916212L10.640625 20.776861357149752" stroke-width="0.03" stroke="#000000" fill="none"/>
<path d="M10.921875000000002 20.370911949125794L10.921875000000002 20.04615242270663" stroke-width="0.03" stroke="#000000" fill="none"/>
<path d="M10.921875000000002 20.370911949125794L11.4140625 20.655076534742566L11.976562500000002 20.330317008323398L11.976562500000002 21.142215824371313" stroke-width="0.03" stroke="#000000" fill="none"/>
<path d="M11.976562500000002 21.466975350790477L11.976562500000002 21.62935511400006L12.9609375 21.06102594276652L12.9609375 20.655076534742566" stroke-width="0.03" stroke="#000000" fill="none"/>
<path d="M12.9609375 21.06102594276652L13.5234375 21.385785469185684" stroke-width="0.03" stroke="#000000" fill="none"/>
<path d="M13.5234375 21.71054499560485L10.9921875 23.17196286449109L10.921875000000002 23.131367923688696L10.921875000000002 24.10564650294619L10.78125 24.024456621341397L10.78125 23.050178042083903L10.5 22.88779827887432L10.5 22.563038752455157" stroke-width="0.03" stroke="#000000" fill="none"/>
<path d="M10.5 22.31946910764078L10.5 21.832329818012038" stroke-width="0.03" stroke="#000000" fill="none"/>
<path d="M10.5 21.994709581221617L10.218750000000002 22.157089344431203L10.218750000000002 21.994709581221617" stroke-width="0.03" stroke="#000000" fill="none"/>
<path d="M10.2890625 22.197684285233596L10.5 22.07589946282641L10.7109375 22.197684285233596" stroke-width="0.03" stroke="#000000" fill="none"/>
<path d="M10.78125 22.157089344431203L10.78125 21.994709581221617" stroke-width="0.03" stroke="#000000" fill="none"/>
<path d="M10.78125 22.157089344431203L10.5 21.994709581221617" stroke-width="0.03" stroke="#000000" fill="none"/>
<path d="M10.5 22.88779827887432L10.218750000000002 23.050178042083903L10.218750000000002 24.024456621341397L10.078125 24.10564650294619L9.9375 24.024456621341397L9.9375 23.131367923688696" stroke-width="0.03" stroke="#000000" fill="none"/>
<path d="M10.0078125 23.17196286449109L10.078125 23.131367923688696L10.078125 24.10564650294619" stroke-width="0.03" stroke="#000000" fill="none"/>
<path d="M10.921875000000002 24.10564650294619L11.0625 24.024456621341397L11.0625 23.131367923688696" stroke-width="0.03" stroke="#000000" fill="none"/>
<path d="M10.9921875 23.17196286449109L10.9921875 22.847203338071925" stroke-width="0.03" stroke="#000000" fill="none"/>
<path d="M11.203125 23.050178042083903L11.5546875 23.253152746095882L12.1171875 22.928393219676718L12.1171875 22.52244381165276" stroke-width="0.03" stroke="#000000" fill="none"/>
<path d="M12.1171875 22.603633693257553L13.031250000000002 22.07589946282641" stroke-width="0.03" stroke="#000000" fill="none"/>
<path d="M13.1015625 22.116494403628806L12.2578125 22.603633693257553L12.2578125 22.928393219676718L13.382812500000002 22.27887416683839" stroke-width="0.03" stroke="#000000" fill="none"/>
<path d="M13.5234375 22.360064048443178L14.296875000000002 21.913519699616828L14.296875000000002 21.2640006467785L14.7890625 20.97983606116173L14.7890625 21.62935511400006L17.0390625 20.330317008323398L17.0390625 18.625329494622786L18.515625 17.77283573777248L18.515625 15.174759526419164L18.0234375 14.890594940802394" stroke-width="0.03" stroke="#000000" fill="none"/>
<path d="M17.953125000000004 14.931189881604789L18.515625 14.606430355185626L18.515625 13.713341657532922" stroke-width="0.03" stroke="#000000" fill="none"/>
<path d="M18.375 13.632151775928133L18.375 12.333113670251475L18.3046875 12.292518729449078L18.0234375 12.45489849265866L18.09375 12.495493433461057L18.09375 13.46977201271855" stroke-width="0.03" stroke="#000000" fill="none"/>
<path d="M18.656250000000004 12.982632723089804L18.656250000000004 11.927164262227517L18.8671875 11.805379439820332L19.0078125 11.886569321425123L19.0078125 12.942037782287407L18.796875 13.063822604694593L18.656250000000004 12.982632723089804" stroke-width="0.03" stroke="#000000" fill="none"/>
<path d="M18.796875 13.063822604694593L18.796875 12.00835414383231L18.656250000000004 11.927164262227517" stroke-width="0.03" stroke="#000000" fill="none"/>
<path d="M18.585937500000004 11.967759203029914L18.3046875 12.130138966239496" stroke-width="0.03" stroke="#000000" fill="none"/>
<path d="M18.375 12.333113670251475L18.09375 12.495493433461057" stroke-width="0.03" stroke="#000000" fill="none"/>
<path d="M18.0234375 12.617278255868243L17.953125000000004 12.65787319667064" stroke-width="0.03" stroke="#000000" fill="none"/>
<path d="M17.109375 12.739063078275429L16.96875 12.820252959880222" stroke-width="0.03" stroke="#000000" fill="none"/>
<path d="M16.96875 12.982632723089804L16.828125 13.063822604694593L15.6328125 12.37370861105387" stroke-width="0.03" stroke="#000000" fill="none"/>
<path d="M15.4921875 12.45489849265866L15.2109375 12.617278255868243" stroke-width="0.03" stroke="#000000" fill="none"/>
<path d="M15.2109375 12.292518729449078L15.703125000000002 12.00835414383231L15.703125000000002 11.927164262227517L15.6328125 11.886569321425123L14.648437500000002 12.45489849265866L14.648437500000002 13.753936598335319L15.2109375 13.429177071916154L15.2109375 12.130138966239496L14.0859375 11.480619913401167L13.5234375 11.805379439820332L14.648437500000002 12.45489849265866" stroke-width="0.03" stroke="#000000" fill="none"/>
<path d="M14.578125 12.495493433461057L13.6640625 13.023227663892198L13.6640625 12.698468137473034L13.1015625 12.37370861105387L13.1015625 12.698468137473034L13.453125 12.90144284148501L13.453125 13.145012486299386L11.765625 14.11929106555688L11.765625 13.875721420742504L13.453125 12.90144284148501" stroke-width="0.03" stroke="#000000" fill="none"/>
<path d="M13.6640625 13.023227663892198L13.945312500000002 13.18560742710178L14.578125 12.820252959880222" stroke-width="0.03" stroke="#000000" fill="none"/>
<path d="M14.578125 12.495493433461057L14.578125 13.713341657532922L14.718749999999998 13.794531539137715L14.718749999999998 14.038101183952087L14.437500000000002 14.200480947161669" stroke-width="0.03" stroke="#000000" fill="none"/>
<path d="M14.437500000000002 14.11929106555688L14.2265625 14.241075887964065L13.6640625 13.9163163615449L12.046875 14.85L12.046875 15.093569644814371L11.976562500000002 15.134164585616768L12.046875 15.174759526419164L12.046875 15.7430886976527" stroke-width="0.03" stroke="#000000" fill="none"/>
<path d="M12.1171875 15.783683638455097L12.1171875 15.134164585616768L12.046875 15.093569644814371" stroke-width="0.03" stroke="#000000" fill="none"/>
<path d="M11.976562500000002 15.134164585616768L11.976562500000002 14.241075887964065L13.6640625 13.266797308706572L13.6640625 13.672746716730527L13.945312500000002 13.83512647994011L14.578125 13.46977201271855" stroke-width="0.03" stroke="#000000" fill="none"/>
<path d="M14.578125 13.713341657532922L14.15625 13.956911302347297" stroke-width="0.03" stroke="#000000" fill="none"/>
<path d="M14.0859375 13.9163163615449L13.875 14.038101183952087" stroke-width="0.03" stroke="#000000" fill="none"/>
<path d="M13.945312500000002 13.83512647994011L13.945312500000002 13.18560742710178" stroke-width="0.03" stroke="#000000" fill="none"/>
<path d="M13.6640625 13.266797308706572L13.453125 13.145012486299386" stroke-width="0.03" stroke="#000000" fill="none"/>
<path d="M13.6640625 12.698468137473034L14.296875000000002 12.333113670251475" stroke-width="0.03" stroke="#000000" fill="none"/>
<path d="M14.578125 12.495493433461057L13.5234375 11.886569321425123L13.5234375 11.72418955821554" stroke-width="0.03" stroke="#000000" fill="none"/>
<path d="M12.890625000000002 11.927164262227517L11.765625 11.277645209389188" stroke-width="0.03" stroke="#000000" fill="none"/>
<path d="M12.2578125 11.318240150191585L12.890625000000002 10.952885682970024L12.890625000000002 11.034075564574817L12.328125000000002 11.358835090993981" stroke-width="0.03" stroke="#000000" fill="none"/>
<path d="M12.46875 11.44002497259877L14.7890625 10.100391926119716L14.7890625 10.181581807724509L12.539062500000002 11.480619913401167" stroke-width="0.03" stroke="#000000" fill="none"/>
<path d="M12.890625000000002 10.952885682970024L12.46875 10.709316038155652L10.5 11.845974380622728L8.53125 10.709316038155652L8.109375 10.952885682970024L8.109375 11.034075564574817L8.671875 11.358835090993981" stroke-width="0.03" stroke="#000000" fill="none"/>
<path d="M8.7421875 11.318240150191585L8.109375 10.952885682970024" stroke-width="0.03" stroke="#000000" fill="none"/>
<path d="M8.4609375 11.480619913401167L6.210937500000001 10.181581807724509L6.210937500000001 10.100391926119716L7.0546875 9.613252636490971L7.757812499999999 10.019202044514927L7.898437500000001 9.938012162910134L7.898437500000001 9.694442518095762L7.757812499999999 9.775632399700552L6.3515625 8.963733583652642L3.8203125000000004 10.42515145253888L3.539062500000001 10.262771689329298L6.0703125 8.80135382044306L5.5078125 8.476594294023895L6.28125 8.030049945197543L6.84375 8.354809471616708L7.3359375 8.07064488599994L6.7734375 7.745885359580775L9.0234375 6.446847253904116L10.5 7.299341010754423L11.976562500000002 6.446847253904116L14.2265625 7.745885359580775L14.2265625 8.314214530814313" stroke-width="0.03" stroke="#000000" fill="none"/>
<path d="M14.2265625 8.233024649209522L14.296875000000002 8.273619590011917" stroke-width="0.03" stroke="#000000" fill="none"/>
<path d="M14.5078125 8.07064488599994L14.7890625 7.9082651227903575L13.734375 7.299341010754423L13.593750000000002 7.380530892359214" stroke-width="0.03" stroke="#000000" fill="none"/>
<path d="M13.453125 7.299341010754423L14.0859375 6.933986543532863" stroke-width="0.03" stroke="#000000" fill="none"/>
<path d="M14.7890625 7.9082651227903575L14.7890625 8.07064488599994" stroke-width="0.03" stroke="#000000" fill="none"/>
<path d="M14.578125 8.111239826802334L14.5078125 8.07064488599994" stroke-width="0.03" stroke="#000000" fill="none"/>
<path d="M15.000000000000002 8.192429708407126L15.070312500000002 8.151834767604731L17.0390625 9.288493110071807L17.0390625 9.613252636490971" stroke-width="0.03" stroke="#000000" fill="none"/>
<path d="M17.25 9.735037458898159L16.8984375 9.938012162910134" stroke-width="0.03" stroke="#000000" fill="none"/>
<path d="M16.7578125 9.450872873281389L17.0390625 9.288493110071807" stroke-width="0.03" stroke="#000000" fill="none"/>
<path d="M17.109375 9.24789816926941L17.320312500000004 9.126113346862224L17.320312500000004 8.963733583652642L16.40625 8.435999353221499L16.1953125 8.557784175628687L16.1953125 8.720163938838269L17.109375 9.24789816926941L17.109375 9.085518406059828L16.1953125 8.557784175628687" stroke-width="0.03" stroke="#000000" fill="none"/>
<path d="M15.4921875 8.476594294023895L14.9296875 8.80135382044306L17.4609375 10.262771689329298" stroke-width="0.03" stroke="#000000" fill="none"/>
<path d="M17.1796875 10.42515145253888L14.648437500000002 8.963733583652642L13.242187500000002 9.775632399700552L13.1015625 9.694442518095762L12.2578125 10.181581807724509L12.2578125 10.42515145253888L11.765625 10.140986866922113L10.5 10.871695801365235L9.234375 10.140986866922113L8.7421875 10.42515145253888L7.898437500000001 9.938012162910134" stroke-width="0.03" stroke="#000000" fill="none"/>
<path d="M7.757812499999999 10.019202044514927L7.757812499999999 9.775632399700552" stroke-width="0.03" stroke="#000000" fill="none"/>
<path d="M7.898437500000001 9.694442518095762L8.7421875 10.181581807724509L8.7421875 10.42515145253888" stroke-width="0.03" stroke="#000000" fill="none"/>
<path d="M8.7421875 10.181581807724509L9.867187500000002 9.53206275488618L9.9375 9.572657695688576L9.9375 10.222176748526905L10.5 9.897417222107741L10.5 9.24789816926941L9.9375 9.572657695688576" stroke-width="0.03" stroke="#000000" fill="none"/>
<path d="M9.867187500000002 9.53206275488618L9.867187500000002 10.181581807724509L9.9375 10.222176748526905" stroke-width="0.03" stroke="#000000" fill="none"/>
<path d="M9.867187500000002 10.181581807724509L9.5859375 10.343961570934091" stroke-width="0.03" stroke="#000000" fill="none"/>
<path d="M10.5 9.897417222107741L11.0625 10.222176748526905L11.1328125 10.181581807724509L11.1328125 9.53206275488618L12.2578125 10.181581807724509" stroke-width="0.03" stroke="#000000" fill="none"/>
<path d="M12.2578125 10.42515145253888L13.1015625 9.938012162910134L13.1015625 9.694442518095762" stroke-width="0.03" stroke="#000000" fill="none"/>
<path d="M13.242187500000002 9.775632399700552L13.242187500000002 10.019202044514927L13.945312500000002 9.613252636490971L14.7890625 10.100391926119716" stroke-width="0.03" stroke="#000000" fill="none"/>
<path d="M15.2109375 10.262771689329298L15.351562500000002 10.181581807724509L16.96875 11.115265446179606L16.96875 12.982632723089804" stroke-width="0.03" stroke="#000000" fill="none"/>
<path d="M16.828125 13.063822604694593L16.828125 11.521214854203564L16.96875 11.44002497259877L16.6875 11.277645209389188L16.6875 10.952885682970024L16.546875 11.034075564574817L16.546875 11.358835090993981L16.828125 11.521214854203564" stroke-width="0.03" stroke="#000000" fill="none"/>
<path d="M16.96875 11.358835090993981L16.7578125 11.237050268586794L16.7578125 10.99348062377242" stroke-width="0.03" stroke="#000000" fill="none"/>
<path d="M16.546875 11.034075564574817L15.2109375 10.262771689329298L15.2109375 11.64299967661075" stroke-width="0.03" stroke="#000000" fill="none"/>
<path d="M15.070312500000002 11.72418955821554L14.7890625 11.886569321425123" stroke-width="0.03" stroke="#000000" fill="none"/>
<path d="M15.070312500000002 12.048949084634705L15.5625 11.764784499017935L15.6328125 11.805379439820332L15.6328125 11.886569321425123" stroke-width="0.03" stroke="#000000" fill="none"/>
<path d="M15.6328125 11.805379439820332L15.140625 12.0895440254371" stroke-width="0.03" stroke="#000000" fill="none"/>
<path d="M15.2109375 12.211328847844287L15.703125000000002 11.927164262227517" stroke-width="0.03" stroke="#000000" fill="none"/>
<path d="M15.6328125 12.048949084634705L15.6328125 12.536088374263452" stroke-width="0.03" stroke="#000000" fill="none"/>
<path d="M15.4921875 12.45489849265866L15.984375 12.739063078275429L15.984375 13.388582131113758L16.6875 12.982632723089804" stroke-width="0.03" stroke="#000000" fill="none"/>
<path d="M16.96875 12.65787319667064L17.109375 12.739063078275429L17.109375 13.875721420742504L16.7578125 14.078696124754483" stroke-width="0.03" stroke="#000000" fill="none"/>
<path d="M17.109375 13.875721420742504L17.671875 14.200480947161669" stroke-width="0.03" stroke="#000000" fill="none"/>
<path d="M18.09375 14.85L18.09375 14.931189881604789" stroke-width="0.03" stroke="#000000" fill="none"/>
<path d="M17.953125000000004 14.931189881604789L17.953125000000004 15.499519052838329L18.515625 15.174759526419164" stroke-width="0.03" stroke="#000000" fill="none"/>
<path d="M18.656250000000004 15.418329171233536L19.1484375 15.702493756850306L19.1484375 16.270822928083845L18.515625 16.636177395305403" stroke-width="0.03" stroke="#000000" fill="none"/>
<path d="M18.656250000000004 16.55498751370061L18.656250000000004 18.341164909006018L18.0234375 18.706519376227575L17.4609375 18.38175984980841" stroke-width="0.03" stroke="#000000" fill="none"/>
<path d="M17.4609375 18.462949731413204L17.320312500000004 18.544139613017997L17.320312500000004 18.706519376227575L17.882812500000004 19.03127890264674L18.0234375 18.95008902104195L18.0234375 18.78770925783237L17.4609375 18.462949731413204" stroke-width="0.03" stroke="#000000" fill="none"/>
<path d="M17.320312500000004 18.544139613017997L17.882812500000004 18.86889913943716L17.882812500000004 19.03127890264674" stroke-width="0.03" stroke="#000000" fill="none"/>
<path d="M17.8125 19.15306372505393L17.671875 19.23425360665872L17.109375 18.909494080239554L17.109375 19.071873843449136L17.671875 19.3966333698683L17.8125 19.31544348826351L17.8125 19.15306372505393L17.25 18.828304198634765L17.109375 18.909494080239554" stroke-width="0.03" stroke="#000000" fill="none"/>
<path d="M17.0390625 19.112468784251533L17.6015625 19.437228310670697L17.6015625 20.16793724511382L16.0546875 21.06102594276652" stroke-width="0.03" stroke="#000000" fill="none"/>
<path d="M16.0546875 20.898646179556938L16.0546875 21.62935511400006L15.5625 21.913519699616828L15.070312500000002 21.62935511400006" stroke-width="0.03" stroke="#000000" fill="none"/>
<path d="M14.7890625 21.62935511400006L14.296875000000002 21.345190528383288" stroke-width="0.03" stroke="#000000" fill="none"/>
<path d="M14.367187500000002 21.385785469185684L14.296875000000002 21.42638040998808" stroke-width="0.03" stroke="#000000" fill="none"/>
<path d="M14.367187500000002 21.71054499560485L14.296875000000002 21.751139936407245" stroke-width="0.03" stroke="#000000" fill="none"/>
<path d="M14.367187500000002 21.71054499560485L14.367187500000002 22.035304522024013L14.2265625 21.954114640419224" stroke-width="0.03" stroke="#000000" fill="none"/>
<path d="M14.367187500000002 22.035304522024013L15.421875 21.42638040998808L15.421875 21.2640006467785" stroke-width="0.03" stroke="#000000" fill="none"/>
<path d="M15.5625 21.18281076517371L15.5625 21.913519699616828" stroke-width="0.03" stroke="#000000" fill="none"/>
<path d="M14.7890625 20.655076534742566L14.296875000000002 20.939241120359334L14.296875000000002 19.883772659497048L14.7890625 19.59960807388028L14.7890625 20.655076534742566L14.578125 20.53329171233538L14.296875000000002 20.69567147554496" stroke-width="0.03" stroke="#000000" fill="none"/>
<path d="M14.578125 20.53329171233538L14.578125 19.721392896287465" stroke-width="0.03" stroke="#000000" fill="none"/>
<path d="M13.6640625 19.68079795548507L13.453125 19.559013133077883" stroke-width="0.03" stroke="#000000" fill="none"/>
<path d="M13.3125 19.640203014682676L13.5234375 19.761987837089862" stroke-width="0.03" stroke="#000000" fill="none"/>
<path d="M13.1015625 18.625329494622786L12.679687500000002 18.86889913943716L12.609375 18.828304198634765L12.609375 18.178785145796436" stroke-width="0.03" stroke="#000000" fill="none"/>
<path d="M12.679687500000002 18.13819020499404L12.679687500000002 18.86889913943716" stroke-width="0.03" stroke="#000000" fill="none"/>
<path d="M13.1015625 18.625329494622786L13.1015625 16.352012809688635" stroke-width="0.03" stroke="#000000" fill="none"/>
<path d="M13.1015625 15.864873520059888L13.1015625 15.702493756850306" stroke-width="0.03" stroke="#000000" fill="none"/>
<path d="M13.3125 15.661898816047911L13.3125 15.580708934443118" stroke-width="0.03" stroke="#000000" fill="none"/>
<path d="M14.015625 15.337139289628746L14.15625 15.255949408023953L14.0859375 15.215354467221559L14.015625 15.255949408023953" stroke-width="0.03" stroke="#000000" fill="none"/>
<path d="M14.0859375 15.215354467221559L14.0859375 15.052974704011977L14.015625 15.012379763209582" stroke-width="0.03" stroke="#000000" fill="none"/>
<path d="M14.015625 15.093569644814371L14.0859375 15.052974704011977" stroke-width="0.03" stroke="#000000" fill="none"/>
<path d="M14.15625 15.255949408023953L14.15625 15.499519052838329L14.2265625 15.540113993640723L14.437500000000002 15.418329171233536L14.437500000000002 14.11929106555688L14.0859375 13.9163163615449" stroke-width="0.03" stroke="#000000" fill="none"/>
<path d="M14.296875000000002 14.038101183952087L14.718749999999998 13.794531539137715" stroke-width="0.03" stroke="#000000" fill="none"/>
<path d="M14.2265625 14.241075887964065L14.2265625 15.540113993640723" stroke-width="0.03" stroke="#000000" fill="none"/>
<path d="M14.437500000000002 14.85L16.7578125 13.510366953520945" stroke-width="0.03" stroke="#000000" fill="none"/>
<path d="M15.984375 12.739063078275429L15.2109375 13.18560742710178" stroke-width="0.03" stroke="#000000" fill="none"/>
<path d="M15.4921875 11.805379439820332L15.070312500000002 11.561809795005958" stroke-width="0.03" stroke="#000000" fill="none"/>
<path d="M15.070312500000002 11.72418955821554L15.070312500000002 11.155860386982003L14.5078125 10.831100860562838L15.2109375 10.42515145253888" stroke-width="0.03" stroke="#000000" fill="none"/>
<path d="M15.4921875 10.262771689329298L15.6328125 10.181581807724509L15.6328125 10.343961570934091" stroke-width="0.03" stroke="#000000" fill="none"/>
<path d="M15.6328125 10.181581807724509L14.648437500000002 9.613252636490971L14.296875000000002 9.816227340502948" stroke-width="0.03" stroke="#000000" fill="none"/>
<path d="M14.648437500000002 9.613252636490971L14.648437500000002 8.963733583652642" stroke-width="0.03" stroke="#000000" fill="none"/>
<path d="M15.4921875 8.963733583652642L16.3359375 9.450872873281389L16.617187500000004 9.288493110071807L16.617187500000004 9.369682991676598L16.3359375 9.53206275488618L16.3359375 9.450872873281389" stroke-width="0.03" stroke="#000000" fill="none"/>
<path d="M16.1953125 9.450872873281389L16.125 9.491467814083784" stroke-width="0.03" stroke="#000000" fill="none"/>
<path d="M16.617187500000004 9.288493110071807L15.4921875 8.638974057233478" stroke-width="0.03" stroke="#000000" fill="none"/>
<path d="M13.875 8.51718923482629L12.9609375 9.044923465257433L12.46875 8.760758879640663L13.382812500000002 8.233024649209522L13.875 8.51718923482629" stroke-width="0.03" stroke="#000000" fill="none"/>
<path d="M13.6640625 8.638974057233478L13.382812500000002 8.476594294023895L13.382812500000002 8.233024649209522" stroke-width="0.03" stroke="#000000" fill="none"/>
<path d="M13.382812500000002 8.476594294023895L12.679687500000002 8.882543702047851" stroke-width="0.03" stroke="#000000" fill="none"/>
<path d="M13.1015625 9.938012162910134L13.242187500000002 10.019202044514927" stroke-width="0.03" stroke="#000000" fill="none"/>
<path d="M11.4140625 10.343961570934091L11.1328125 10.181581807724509" stroke-width="0.03" stroke="#000000" fill="none"/>
<path d="M11.0625 10.222176748526905L11.0625 9.572657695688576L11.1328125 9.53206275488618" stroke-width="0.03" stroke="#000000" fill="none"/>
<path d="M11.0625 9.572657695688576L10.5 9.24789816926941" stroke-width="0.03" stroke="#000000" fill="none"/>
<path d="M8.53125 8.760758879640663L8.0390625 9.044923465257433L7.125 8.51718923482629L7.6171875 8.233024649209522L8.53125 8.760758879640663" stroke-width="0.03" stroke="#000000" fill="none"/>
<path d="M8.3203125 8.882543702047851L7.6171875 8.476594294023895L7.6171875 8.233024649209522" stroke-width="0.03" stroke="#000000" fill="none"/>
<path d="M7.6171875 8.476594294023895L7.3359375 8.638974057233478" stroke-width="0.03" stroke="#000000" fill="none"/>
<path d="M6.7734375 8.314214530814313L6.7734375 7.745885359580775" stroke-width="0.03" stroke="#000000" fill="none"/>
<path d="M6.914062500000001 7.502315714766402L6.914062500000001 6.933986543532863L7.546875 7.299341010754423" stroke-width="0.03" stroke="#000000" fill="none"/>
<path d="M7.40625 7.380530892359214L7.265625000000001 7.299341010754423L6.210937500000001 7.9082651227903575L6.210937500000001 8.07064488599994" stroke-width="0.03" stroke="#000000" fill="none"/>
<path d="M6.210937500000001 7.9082651227903575L6.492187500000001 8.07064488599994L6.421875 8.111239826802334" stroke-width="0.03" stroke="#000000" fill="none"/>
<path d="M6.703125 8.273619590011917L6.7734375 8.233024649209522" stroke-width="0.03" stroke="#000000" fill="none"/>
<path d="M6 8.192429708407126L5.9296875 8.151834767604731L3.9609375 9.288493110071807L3.9609375 9.613252636490971" stroke-width="0.03" stroke="#000000" fill="none"/>
<path d="M3.7499999999999996 9.735037458898159L4.3125 9.410277932478992L4.6640625 9.613252636490971" stroke-width="0.03" stroke="#000000" fill="none"/>
<path d="M4.59375 9.572657695688576L5.5078125 9.044923465257433" stroke-width="0.03" stroke="#000000" fill="none"/>
<path d="M5.5078125 8.963733583652642L4.6640625 9.450872873281389L4.382812499999999 9.288493110071807L4.382812499999999 9.369682991676598L4.6640625 9.53206275488618L4.6640625 9.450872873281389" stroke-width="0.03" stroke="#000000" fill="none"/>
<path d="M4.8046875 9.450872873281389L4.875 9.491467814083784" stroke-width="0.03" stroke="#000000" fill="none"/>
<path d="M4.382812499999999 9.288493110071807L5.5078125 8.638974057233478" stroke-width="0.03" stroke="#000000" fill="none"/>
<path d="M5.5078125 8.476594294023895L5.5078125 9.126113346862224" stroke-width="0.03" stroke="#000000" fill="none"/>
<path d="M4.8046875 8.720163938838269L3.8906249999999996 9.24789816926941L3.679687499999999 9.126113346862224L3.679687499999999 8.963733583652642L4.59375 8.435999353221499L4.8046875 8.557784175628687L4.8046875 8.720163938838269" stroke-width="0.03" stroke="#000000" fill="none"/>
<path d="M4.8046875 8.557784175628687L3.8906249999999996 9.085518406059828L3.679687499999999 8.963733583652642" stroke-width="0.03" stroke="#000000" fill="none"/>
<path d="M3.8906249999999996 9.085518406059828L3.8906249999999996 9.24789816926941" stroke-width="0.03" stroke="#000000" fill="none"/>
<path d="M3.9609375 9.288493110071807L4.2421875 9.450872873281389" stroke-width="0.03" stroke="#000000" fill="none"/>
<path d="M4.1015625 9.938012162910134L3.7499999999999996 9.735037458898159L3.7499999999999996 10.140986866922113" stroke-width="0.03" stroke="#000000" fill="none"/>
<path d="M3.609375 10.222176748526905L2.8359374999999996 9.775632399700552L2.695312500000001 9.856822281305345L2.695312500000001 10.019202044514927L3.539062500000001 10.506341334143674L3.539062500000001 10.831100860562838L3.8203125000000004 10.99348062377242L3.328125000000001 11.277645209389188L3.046875 11.115265446179606L3.046875 14.038101183952087L2.484375000000001 13.713341657532922L3.046875 13.388582131113758" stroke-width="0.03" stroke="#000000" fill="none"/>
<path d="M2.976562500000001 13.429177071916154L2.976562500000001 12.37370861105387" stroke-width="0.03" stroke="#000000" fill="none"/>
<path d="M3.046875 12.414303551856264L2.695312500000001 12.211328847844287L2.695312500000001 11.561809795005958L3.046875 11.358835090993981" stroke-width="0.03" stroke="#000000" fill="none"/>
<path d="M3.046875 11.196455327784399L2.2734375000000004 10.749910978958045L2.2734375000000004 10.587531215748463L2.4140625000000004 10.506341334143674L3.2578125 10.99348062377242L3.539062500000001 10.831100860562838" stroke-width="0.03" stroke="#000000" fill="none"/>
<path d="M3.8203125000000004 10.99348062377242L3.8203125000000004 10.42515145253888" stroke-width="0.03" stroke="#000000" fill="none"/>
<path d="M3.539062500000001 10.343961570934091L3.539062500000001 10.262771689329298" stroke-width="0.03" stroke="#000000" fill="none"/>
<path d="M3.539062500000001 10.343961570934091L2.695312500000001 9.856822281305345" stroke-width="0.03" stroke="#000000" fill="none"/>
<path d="M2.2734375000000004 10.587531215748463L3.1171875 11.074670505377211L3.046875 11.115265446179606" stroke-width="0.03" stroke="#000000" fill="none"/>
<path d="M3.328125000000001 11.277645209389188L3.328125000000001 14.200480947161669L4.734375 15.012379763209582L4.734375 15.174759526419164L5.578125 15.661898816047911" stroke-width="0.03" stroke="#000000" fill="none"/>
<path d="M4.9453125 15.052974704011977L4.734375 15.174759526419164" stroke-width="0.03" stroke="#000000" fill="none"/>
<path d="M4.734375 15.012379763209582L4.9453125 14.890594940802394" stroke-width="0.03" stroke="#000000" fill="none"/>
<path d="M4.2421875 15.621303875245514L4.2421875 16.189633046479052L3.328125000000001 15.661898816047911L3.328125000000001 15.093569644814371L4.2421875 15.621303875245514" stroke-width="0.03" stroke="#000000" fill="none"/>
<path d="M4.2421875 15.946063401664679L3.539062500000001 15.540113993640723L3.539062500000001 15.215354467221559" stroke-width="0.03" stroke="#000000" fill="none"/>
<path d="M3.539062500000001 15.540113993640723L3.328125000000001 15.661898816047911" stroke-width="0.03" stroke="#000000" fill="none"/>
<path d="M3.046875 15.499519052838329L3.046875 14.931189881604789L2.484375000000001 14.606430355185626L2.484375000000001 13.713341657532922" stroke-width="0.03" stroke="#000000" fill="none"/>
<path d="M2.624999999999999 13.632151775928133L2.624999999999999 12.333113670251475L2.695312500000001 12.292518729449078L2.976562500000001 12.45489849265866L2.90625 12.495493433461057L2.90625 13.46977201271855" stroke-width="0.03" stroke="#000000" fill="none"/>
<path d="M2.34375 12.982632723089804L2.203125 13.063822604694593L1.9921874999999998 12.942037782287407L1.9921874999999998 11.886569321425123L2.1328124999999996 11.805379439820332L2.34375 11.927164262227517L2.34375 12.982632723089804" stroke-width="0.03" stroke="#000000" fill="none"/>
<path d="M2.203125 13.063822604694593L2.203125 12.00835414383231L2.34375 11.927164262227517" stroke-width="0.03" stroke="#000000" fill="none"/>
<path d="M2.4140625000000004 11.967759203029914L2.695312500000001 11.805379439820332" stroke-width="0.03" stroke="#000000" fill="none"/>
<path d="M2.695312500000001 11.561809795005958L3.046875 11.764784499017935" stroke-width="0.03" stroke="#000000" fill="none"/>
<path d="M2.695312500000001 12.130138966239496L2.4140625000000004 11.967759203029914L2.4140625000000004 14.241075887964065L2.484375000000001 14.281670828766462" stroke-width="0.03" stroke="#000000" fill="none"/>
<path d="M2.484375000000001 14.525240473580833L2.34375 14.606430355185626L2.34375 15.824278579257493L2.484375000000001 15.905468460862282" stroke-width="0.03" stroke="#000000" fill="none"/>
<path d="M2.484375000000001 16.067848224071867L1.8515625 15.702493756850306L2.34375 15.418329171233536" stroke-width="0.03" stroke="#000000" fill="none"/>
<path d="M2.484375000000001 15.174759526419164L2.976562500000001 14.890594940802394" stroke-width="0.03" stroke="#000000" fill="none"/>
<path d="M2.90625 14.85L2.90625 14.931189881604789" stroke-width="0.03" stroke="#000000" fill="none"/>
<path d="M2.624999999999999 14.768810118395209L2.624999999999999 14.687620236790417" stroke-width="0.03" stroke="#000000" fill="none"/>
<path d="M2.624999999999999 14.768810118395209L2.34375 14.606430355185626" stroke-width="0.03" stroke="#000000" fill="none"/>
<path d="M2.484375000000001 15.174759526419164L2.484375000000001 17.77283573777248L3.9609375 18.625329494622786L3.9609375 20.330317008323398L6.210937500000001 21.62935511400006L6.703125 21.345190528383288" stroke-width="0.03" stroke="#000000" fill="none"/>
<path d="M6.703125 21.2640006467785L6.703125 21.913519699616828L7.4765625 22.360064048443178L8.0390625 22.035304522024013" stroke-width="0.03" stroke="#000000" fill="none"/>
<path d="M7.96875 22.07589946282641L8.8828125 22.603633693257553" stroke-width="0.03" stroke="#000000" fill="none"/>
<path d="M8.8125 22.563038752455157L8.7421875 22.603633693257553L8.7421875 22.928393219676718L7.6171875 22.27887416683839" stroke-width="0.03" stroke="#000000" fill="none"/>
<path d="M7.4765625 22.360064048443178L7.4765625 21.71054499560485L10.0078125 23.17196286449109L10.0078125 22.847203338071925" stroke-width="0.03" stroke="#000000" fill="none"/>
<path d="M9.796875 23.050178042083903L9.4453125 23.253152746095882L8.8828125 22.928393219676718L8.8828125 22.52244381165276" stroke-width="0.03" stroke="#000000" fill="none"/>
<path d="M8.8125 22.563038752455157L8.8125 22.88779827887432L8.7421875 22.928393219676718" stroke-width="0.03" stroke="#000000" fill="none"/>
<path d="M8.953125 22.96898816047911L8.953125 23.293747686898275L9.234375 23.131367923688696" stroke-width="0.03" stroke="#000000" fill="none"/>
<path d="M9.4453125 23.253152746095882L9.4453125 22.847203338071925" stroke-width="0.03" stroke="#000000" fill="none"/>
<path d="M8.953125 23.293747686898275L6.984375 22.157089344431203L6.984375 22.07589946282641" stroke-width="0.03" stroke="#000000" fill="none"/>
<path d="M6.7734375 21.954114640419224L6.6328125 22.035304522024013L5.578125 21.42638040998808L5.578125 21.2640006467785" stroke-width="0.03" stroke="#000000" fill="none"/>
<path d="M5.4375 21.18281076517371L5.4375 21.913519699616828L5.9296875 21.62935511400006" stroke-width="0.03" stroke="#000000" fill="none"/>
<path d="M6.210937500000001 21.62935511400006L6.210937500000001 20.97983606116173L6.703125 21.2640006467785" stroke-width="0.03" stroke="#000000" fill="none"/>
<path d="M6.6328125 21.385785469185684L6.703125 21.42638040998808" stroke-width="0.03" stroke="#000000" fill="none"/>
<path d="M6.6328125 21.71054499560485L6.6328125 22.035304522024013" stroke-width="0.03" stroke="#000000" fill="none"/>
<path d="M6.703125 21.751139936407245L6.6328125 21.71054499560485" stroke-width="0.03" stroke="#000000" fill="none"/>
<path d="M6.703125 20.939241120359334L6.703125 19.883772659497048L6.210937500000001 19.59960807388028L6.210937500000001 20.655076534742566L6.703125 20.939241120359334" stroke-width="0.03" stroke="#000000" fill="none"/>
<path d="M6.703125 20.69567147554496L6.421875 20.53329171233538L6.210937500000001 20.655076534742566" stroke-width="0.03" stroke="#000000" fill="none"/>
<path d="M6.421875 20.53329171233538L6.421875 19.721392896287465" stroke-width="0.03" stroke="#000000" fill="none"/>
<path d="M7.3359375 19.68079795548507L7.546875 19.559013133077883" stroke-width="0.03" stroke="#000000" fill="none"/>
<path d="M7.6875 19.640203014682676L7.4765625 19.761987837089862" stroke-width="0.03" stroke="#000000" fill="none"/>
<path d="M8.0390625 20.655076534742566L8.0390625 21.06102594276652L9.0234375 21.62935511400006L9.1640625 21.548165232395267" stroke-width="0.03" stroke="#000000" fill="none"/>
<path d="M9.0234375 21.466975350790477L9.0234375 21.62935511400006" stroke-width="0.03" stroke="#000000" fill="none"/>
<path d="M9.0234375 21.142215824371313L9.0234375 20.330317008323398L9.5859375 20.655076534742566L10.078125 20.370911949125794L10.078125 20.04615242270663" stroke-width="0.03" stroke="#000000" fill="none"/>
<path d="M9.5859375 19.761987837089862L9.5859375 20.655076534742566" stroke-width="0.03" stroke="#000000" fill="none"/>
<path d="M8.0390625 21.06102594276652L7.4765625 21.385785469185684" stroke-width="0.03" stroke="#000000" fill="none"/>
<path d="M7.898437500000001 22.116494403628806L8.7421875 22.603633693257553" stroke-width="0.03" stroke="#000000" fill="none"/>
<path d="M8.671875 22.481848870850367L8.671875 22.400658989245574" stroke-width="0.03" stroke="#000000" fill="none"/>
<path d="M8.0390625 22.847203338071925L7.898437500000001 22.928393219676718L7.898437500000001 23.17196286449109L8.8125 23.699697094922232L8.953125 23.61850721331744L8.953125 23.374937568503068L8.0390625 22.847203338071925" stroke-width="0.03" stroke="#000000" fill="none"/>
<path d="M7.898437500000001 22.928393219676718L8.8125 23.45612745010786L8.8125 23.699697094922232" stroke-width="0.03" stroke="#000000" fill="none"/>
<path d="M8.8125 23.45612745010786L8.953125 23.374937568503068" stroke-width="0.03" stroke="#000000" fill="none"/>
<path d="M11.5546875 23.253152746095882L11.5546875 22.847203338071925" stroke-width="0.03" stroke="#000000" fill="none"/>
<path d="M11.765625 23.131367923688696L12.046875 23.293747686898275L14.015625 22.157089344431203L14.015625 22.07589946282641" stroke-width="0.03" stroke="#000000" fill="none"/>
<path d="M13.5234375 22.360064048443178L13.5234375 21.71054499560485" stroke-width="0.03" stroke="#000000" fill="none"/>
<path d="M12.9609375 22.035304522024013L13.5234375 22.360064048443178" stroke-width="0.03" stroke="#000000" fill="none"/>
<path d="M13.1015625 22.928393219676718L12.187500000000002 23.45612745010786L12.187500000000002 23.699697094922232L13.1015625 23.17196286449109L13.1015625 22.928393219676718L12.9609375 22.847203338071925L12.046875 23.374937568503068L12.046875 23.61850721331744L12.187500000000002 23.699697094922232" stroke-width="0.03" stroke="#000000" fill="none"/>
<path d="M12.187500000000002 23.45612745010786L12.046875 23.374937568503068" stroke-width="0.03" stroke="#000000" fill="none"/>
<path d="M12.046875 23.293747686898275L12.046875 22.96898816047911" stroke-width="0.03" stroke="#000000" fill="none"/>
<path d="M12.187500000000002 22.88779827887432L12.187500000000002 22.563038752455157L12.2578125 22.603633693257553" stroke-width="0.03" stroke="#000000" fill="none"/>
<path d="M12.328125000000002 22.481848870850367L12.328125000000002 22.400658989245574" stroke-width="0.03" stroke="#000000" fill="none"/>
<path d="M12.187500000000002 22.88779827887432L12.2578125 22.928393219676718" stroke-width="0.03" stroke="#000000" fill="none"/>
<path d="M11.976562500000002 21.62935511400006L11.835937500000002 21.548165232395267" stroke-width="0.03" stroke="#000000" fill="none"/>
<path d="M11.4140625 20.655076534742566L11.4140625 19.761987837089862" stroke-width="0.03" stroke="#000000" fill="none"/>
<path d="M12.539062500000002 16.920341980922174L12.609375 16.879747040119774" stroke-width="0.03" stroke="#000000" fill="none"/>
<path d="M11.625000000000002 16.39260775049103L11.273437500000002 16.189633046479052" stroke-width="0.03" stroke="#000000" fill="none"/>
<path d="M11.484375000000002 15.986658342467075L11.5546875 16.02725328326947" stroke-width="0.03" stroke="#000000" fill="none"/>
<path d="M11.765625 15.174759526419164L11.835937500000002 15.134164585616768" stroke-width="0.03" stroke="#000000" fill="none"/>
<path d="M12.046875 15.174759526419164L12.1171875 15.134164585616768" stroke-width="0.03" stroke="#000000" fill="none"/>
<path d="M12.046875 14.85L12.3984375 15.052974704011977" stroke-width="0.03" stroke="#000000" fill="none"/>
<path d="M11.976562500000002 14.241075887964065L11.765625 14.11929106555688" stroke-width="0.03" stroke="#000000" fill="none"/>
<path d="M11.765625 13.875721420742504L10.9921875 13.429177071916154L10.9921875 13.347987190311363L10.5 13.063822604694593L10.5 13.307392249508968" stroke-width="0.03" stroke="#000000" fill="none"/>
<path d="M10.5 13.388582131113758L10.5 14.85" stroke-width="0.03" stroke="#000000" fill="none"/>
<path d="M10.5 15.255949408023953L10.5 15.337139289628746" stroke-width="0.03" stroke="#000000" fill="none"/>
<path d="M10.8515625 14.647025295988021L10.921875000000002 14.606430355185626" stroke-width="0.03" stroke="#000000" fill="none"/>
<path d="M10.8515625 13.591556835125736L10.921875000000002 13.55096189432334" stroke-width="0.03" stroke="#000000" fill="none"/>
<path d="M10.9921875 13.429177071916154L11.0625 13.388582131113758" stroke-width="0.03" stroke="#000000" fill="none"/>
<path d="M11.0625 13.307392249508968L10.9921875 13.347987190311363" stroke-width="0.03" stroke="#000000" fill="none"/>
<path d="M11.273437500000002 13.510366953520945L11.273437500000002 13.10441754549699" stroke-width="0.03" stroke="#000000" fill="none"/>
<path d="M10.0078125 13.347987190311363L10.0078125 13.429177071916154" stroke-width="0.03" stroke="#000000" fill="none"/>
<path d="M9.7265625 13.510366953520945L9.7265625 13.10441754549699" stroke-width="0.03" stroke="#000000" fill="none"/>
<path d="M9.7265625 12.048949084634705L9.796875 12.00835414383231" stroke-width="0.03" stroke="#000000" fill="none"/>
<path d="M8.53125 11.44002497259877L6.210937500000001 10.100391926119716" stroke-width="0.03" stroke="#000000" fill="none"/>
<path d="M5.7890625 10.262771689329298L5.6484375 10.181581807724509L4.03125 11.115265446179606L4.03125 12.982632723089804L4.171875 13.063822604694593" stroke-width="0.03" stroke="#000000" fill="none"/>
<path d="M4.03125 12.820252959880222L3.8906249999999996 12.739063078275429L4.03125 12.65787319667064" stroke-width="0.03" stroke="#000000" fill="none"/>
<path d="M3.8906249999999996 12.739063078275429L3.8906249999999996 13.875721420742504L4.2421875 14.078696124754483" stroke-width="0.03" stroke="#000000" fill="none"/>
<path d="M3.8906249999999996 13.875721420742504L3.328125000000001 14.200480947161669" stroke-width="0.03" stroke="#000000" fill="none"/>
<path d="M2.484375000000001 15.174759526419164L3.046875 15.499519052838329" stroke-width="0.03" stroke="#000000" fill="none"/>
<path d="M1.8515625 15.702493756850306L1.8515625 16.270822928083845L2.484375000000001 16.636177395305403" stroke-width="0.03" stroke="#000000" fill="none"/>
<path d="M2.34375 16.55498751370061L2.34375 18.341164909006018L2.976562500000001 18.706519376227575L3.539062500000001 18.38175984980841" stroke-width="0.03" stroke="#000000" fill="none"/>
<path d="M3.539062500000001 18.462949731413204L2.976562500000001 18.78770925783237L2.976562500000001 18.95008902104195L3.1171875 19.03127890264674L3.679687499999999 18.706519376227575L3.679687499999999 18.544139613017997L3.539062500000001 18.462949731413204" stroke-width="0.03" stroke="#000000" fill="none"/>
<path d="M3.679687499999999 18.544139613017997L3.1171875 18.86889913943716L3.1171875 19.03127890264674" stroke-width="0.03" stroke="#000000" fill="none"/>
<path d="M3.1874999999999996 19.15306372505393L3.7499999999999996 18.828304198634765L3.8906249999999996 18.909494080239554L3.8906249999999996 19.071873843449136L3.328125000000001 19.3966333698683L3.1874999999999996 19.31544348826351L3.1874999999999996 19.15306372505393L3.328125000000001 19.23425360665872L3.8906249999999996 18.909494080239554" stroke-width="0.03" stroke="#000000" fill="none"/>
<path d="M3.9609375 19.112468784251533L3.3984375 19.437228310670697L3.3984375 20.16793724511382L4.9453125 21.06102594276652" stroke-width="0.03" stroke="#000000" fill="none"/>
<path d="M4.9453125 20.898646179556938L4.9453125 21.62935511400006L5.4375 21.913519699616828" stroke-width="0.03" stroke="#000000" fill="none"/>
<path d="M3.9609375 19.761987837089862L3.3984375 19.437228310670697" stroke-width="0.03" stroke="#000000" fill="none"/>
<path d="M3.328125000000001 19.3966333698683L3.328125000000001 19.23425360665872" stroke-width="0.03" stroke="#000000" fill="none"/>
<path d="M3.539062500000001 19.274848547461115L3.609375 19.31544348826351" stroke-width="0.03" stroke="#000000" fill="none"/>
<path d="M3.539062500000001 18.95008902104195L3.539062500000001 18.86889913943716L3.46875 18.828304198634765" stroke-width="0.03" stroke="#000000" fill="none"/>
<path d="M3.1874999999999996 18.665924435425183L3.1874999999999996 18.58473455382039" stroke-width="0.03" stroke="#000000" fill="none"/>
<path d="M2.976562500000001 18.706519376227575L2.976562500000001 18.057000323389246" stroke-width="0.03" stroke="#000000" fill="none"/>
<path d="M2.976562500000001 18.78770925783237L3.1171875 18.86889913943716" stroke-width="0.03" stroke="#000000" fill="none"/>
<path d="M7.3359375 18.706519376227575L7.546875 18.58473455382039" stroke-width="0.03" stroke="#000000" fill="none"/>
<path d="M8.3203125 18.86889913943716L8.390625 18.828304198634765L8.390625 18.178785145796436" stroke-width="0.03" stroke="#000000" fill="none"/>
<path d="M7.6875 15.661898816047911L7.6875 15.580708934443118" stroke-width="0.03" stroke="#000000" fill="none"/>
<path d="M7.3359375 13.266797308706572L7.546875 13.145012486299386" stroke-width="0.03" stroke="#000000" fill="none"/>
<path d="M7.3359375 13.023227663892198L6.421875 12.495493433461057" stroke-width="0.03" stroke="#000000" fill="none"/>
<path d="M6.421875 12.820252959880222L7.0546875 13.18560742710178" stroke-width="0.03" stroke="#000000" fill="none"/>
<path d="M5.7890625 13.18560742710178L5.015625 12.739063078275429" stroke-width="0.03" stroke="#000000" fill="none"/>
<path d="M5.3671875 12.536088374263452L5.3671875 12.048949084634705" stroke-width="0.03" stroke="#000000" fill="none"/>
<path d="M5.296875 12.00835414383231L5.296875 11.927164262227517L5.3671875 11.886569321425123" stroke-width="0.03" stroke="#000000" fill="none"/>
<path d="M5.296875 11.927164262227517L5.7890625 12.211328847844287" stroke-width="0.03" stroke="#000000" fill="none"/>
<path d="M5.7890625 12.292518729449078L5.296875 12.00835414383231" stroke-width="0.03" stroke="#000000" fill="none"/>
<path d="M5.3671875 11.805379439820332L5.859375000000001 12.0895440254371" stroke-width="0.03" stroke="#000000" fill="none"/>
<path d="M5.9296875 12.048949084634705L5.4375 11.764784499017935" stroke-width="0.03" stroke="#000000" fill="none"/>
<path d="M5.9296875 11.72418955821554L5.9296875 11.155860386982003L6.492187500000001 10.831100860562838L5.7890625 10.42515145253888" stroke-width="0.03" stroke="#000000" fill="none"/>
<path d="M5.5078125 10.262771689329298L5.3671875 10.181581807724509L5.3671875 10.343961570934091" stroke-width="0.03" stroke="#000000" fill="none"/>
<path d="M5.3671875 10.181581807724509L6.3515625 9.613252636490971L6.703125 9.816227340502948" stroke-width="0.03" stroke="#000000" fill="none"/>
<path d="M6.3515625 9.613252636490971L6.3515625 8.963733583652642" stroke-width="0.03" stroke="#000000" fill="none"/>
<path d="M5.9296875 11.155860386982003L6.703125 11.602404735808353" stroke-width="0.03" stroke="#000000" fill="none"/>
<path d="M6.210937500000001 11.886569321425123L5.9296875 11.72418955821554" stroke-width="0.03" stroke="#000000" fill="none"/>
<path d="M5.5078125 12.45489849265866L5.7890625 12.617278255868243" stroke-width="0.03" stroke="#000000" fill="none"/>
<path d="M4.453125 11.358835090993981L4.03125 11.115265446179606" stroke-width="0.03" stroke="#000000" fill="none"/>
<path d="M2.90625 12.495493433461057L2.624999999999999 12.333113670251475" stroke-width="0.03" stroke="#000000" fill="none"/>
<path d="M2.976562500000001 12.617278255868243L3.046875 12.65787319667064" stroke-width="0.03" stroke="#000000" fill="none"/>
<path d="M2.203125 12.00835414383231L1.9921874999999998 11.886569321425123" stroke-width="0.03" stroke="#000000" fill="none"/>
<path d="M2.293164916401084 2.9786238469347097L2.433374224245081 2.8001756369514412" stroke-width="0.03" stroke="#000000" fill="none"/>
<path d="M2.293164916401084 2.8001756369514412L2.433374224245081 2.9786238469347097" stroke-width="0.03" stroke="#000000" fill="none"/>
<path d="M2.5735835320890774 2.7109515319598065L2.5353446299498055 2.7236978326728973L2.522598329236715 2.7491904340990785L2.522598329236715 2.7746830355252596L2.5353446299498055 2.8001756369514412L2.560837231375987 2.8129219376645316L2.6118224342283494 2.825668238377622L2.6500613363676213 2.8384145390907127L2.6755539377938025 2.8639071405168943L2.6883002385068933 2.889399741943075L2.6883002385068933 2.927638644082347L2.6755539377938025 2.953131245508528L2.6628076370807117 2.965877546221619L2.62456873494144 2.9786238469347097L2.5735835320890774 2.9786238469347097L2.5353446299498055 2.965877546221619L2.522598329236715 2.953131245508528L2.5098520285236243 2.927638644082347L2.5098520285236243 2.889399741943075L2.522598329236715 2.8639071405168943L2.5480909306628963 2.8384145390907127L2.586329832802168 2.825668238377622L2.6373150356545305 2.8129219376645316L2.6628076370807117 2.8001756369514412L2.6755539377938025 2.7746830355252596L2.6755539377938025 2.7491904340990785L2.6628076370807117 2.7236978326728973L2.62456873494144 2.7109515319598065L2.5735835320890774 2.7109515319598065" stroke-width="0.03" stroke="#000000" fill="none"/>
<path d="M2.790270644211618 2.7109515319598065L2.930479952055615 2.7109515319598065L2.854002147777071 2.8129219376645316L2.892241049916343 2.8129219376645316L2.917733651342524 2.825668238377622L2.930479952055615 2.8384145390907127L2.943226252768705 2.8766534412299847L2.943226252768705 2.902146042656166L2.930479952055615 2.9403849447954378L2.9049873506294333 2.965877546221619L2.8667484484901617 2.9786238469347097L2.82850954635089 2.9786238469347097L2.790270644211618 2.965877546221619L2.777524343498527 2.953131245508528L2.7647780427854367 2.927638644082347" stroke-width="0.03" stroke="#000000" fill="none"/>
<path d="M3.0324503577603394 2.9786238469347097L3.0324503577603394 2.7109515319598065L3.198152267030517 2.7109515319598065" stroke-width="0.03" stroke="#000000" fill="none"/>
<path d="M3.274630071309061 2.7746830355252596L3.274630071309061 2.761936734812169L3.287376372022152 2.736444133385988L3.3001226727352426 2.7236978326728973L3.3256152741614233 2.7109515319598065L3.376600477013786 2.7109515319598065L3.402093078439967 2.7236978326728973L3.414839379153058 2.736444133385988L3.4275856798661484 2.761936734812169L3.4275856798661484 2.7874293362383504L3.414839379153058 2.8129219376645316L3.3893467777268764 2.8511608398038035L3.2618837705959702 2.9786238469347097L3.440331980579239 2.9786238469347097" stroke-width="0.03" stroke="#000000" fill="none"/>
<path d="M3.5295560855708734 2.9403849447954378L3.542302386283964 2.965877546221619L3.5805412884232357 2.9786238469347097L3.6060338898494173 2.9786238469347097L3.644272791988689 2.965877546221619L3.66976539341487 2.927638644082347L3.6825116941279608 2.8639071405168943L3.6825116941279608 2.8001756369514412L3.66976539341487 2.7491904340990785L3.644272791988689 2.7236978326728973L3.6060338898494173 2.7109515319598065L3.5932875891363265 2.7109515319598065L3.5550486869970546 2.7236978326728973L3.5295560855708734 2.7491904340990785L3.5168097848577826 2.7874293362383504L3.5168097848577826 2.8001756369514412L3.5295560855708734 2.8384145390907127L3.5550486869970546 2.8639071405168943L3.5932875891363265 2.8766534412299847L3.6060338898494173 2.8766534412299847L3.644272791988689 2.8639071405168943L3.66976539341487 2.8384145390907127L3.6825116941279608 2.8001756369514412" stroke-width="0.03" stroke="#000000" fill="none"/>
<path d="M3.899198806250501 2.7109515319598065L3.771735799119595 2.889399741943075L3.9629303098159543 2.889399741943075" stroke-width="0.03" stroke="#000000" fill="none"/>
<path d="M3.899198806250501 2.9786238469347097L3.899198806250501 2.7109515319598065" stroke-width="0.03" stroke="#000000" fill="none"/>
<path d="M4.039408114094497 2.7746830355252596L4.039408114094497 2.761936734812169L4.052154414807589 2.736444133385988L4.064900715520679 2.7236978326728973L4.0903933169468605 2.7109515319598065L4.141378519799223 2.7109515319598065L4.1668711212254035 2.7236978326728973L4.179617421938495 2.736444133385988L4.192363722651585 2.761936734812169L4.192363722651585 2.7874293362383504L4.179617421938495 2.8129219376645316L4.154124820512314 2.8511608398038035L4.026661813381407 2.9786238469347097L4.205110023364676 2.9786238469347097" stroke-width="0.03" stroke="#000000" fill="none"/>
<path d="M4.29433412835631 2.7746830355252596L4.29433412835631 2.761936734812169L4.3070804290694005 2.736444133385988L4.319826729782491 2.7236978326728973L4.345319331208673 2.7109515319598065L4.396304534061034 2.7109515319598065L4.421797135487216 2.7236978326728973L4.434543436200307 2.736444133385988L4.4472897369133975 2.761936734812169L4.4472897369133975 2.7874293362383504L4.434543436200307 2.8129219376645316L4.409050834774126 2.8511608398038035L4.28158782764322 2.9786238469347097L4.460036037626487 2.9786238469347097" stroke-width="0.03" stroke="#000000" fill="none"/>
<path d="M4.516121629722131 2.015598694615191L4.4336258385837 1.7268634256306838" stroke-width="0.03" stroke="#000000" fill="none"/>
<path d="M4.5986174208605615 1.7268634256306838L4.516121629722131 2.015598694615191" stroke-width="0.03" stroke="#000000" fill="none"/>
<path d="M4.681113211998992 2.015598694615191L4.5986174208605615 1.7268634256306838" stroke-width="0.03" stroke="#000000" fill="none"/>
<path d="M4.7636090031374225 1.7268634256306838L4.681113211998992 2.015598694615191" stroke-width="0.03" stroke="#000000" fill="none"/>
<path d="M4.928600585414284 2.015598694615191L4.928600585414284 1.664991582276861L4.949224533198891 1.6031197389230383L4.990472428768107 1.5824957911384305L5.031720324337321 1.5824957911384305" stroke-width="0.03" stroke="#000000" fill="none"/>
<path d="M5.155464011044968 1.5824957911384305L5.155464011044968 2.015598694615191" stroke-width="0.03" stroke="#000000" fill="none"/>
<path d="M5.011096376552715 1.7268634256306838L4.866728742060461 1.7268634256306838" stroke-width="0.03" stroke="#000000" fill="none"/>
<path d="M5.547319018952512 1.7268634256306838L5.547319018952512 2.015598694615191" stroke-width="0.03" stroke="#000000" fill="none"/>
<path d="M5.547319018952512 1.953726851261368L5.506071123383298 1.9949747468305832L5.464823227814082 2.015598694615191L5.402951384460259 2.015598694615191L5.3617034888910435 1.9949747468305832L5.320455593321829 1.953726851261368L5.299831645537221 1.891855007907545L5.299831645537221 1.8506071123383299L5.320455593321829 1.7887352689845069L5.3617034888910435 1.7474873734152916L5.402951384460259 1.7268634256306838L5.464823227814082 1.7268634256306838L5.506071123383298 1.7474873734152916L5.547319018952512 1.7887352689845069" stroke-width="0.03" stroke="#000000" fill="none"/>
<path d="M5.712310601229374 1.9331029034767604L5.91855007907545 1.7268634256306838" stroke-width="0.03" stroke="#000000" fill="none"/>
<path d="M5.794806392367804 1.8506071123383299L5.939174026860058 2.015598694615191" stroke-width="0.03" stroke="#000000" fill="none"/>
<path d="M6.042293765783096 1.8506071123383299L6.2897811391983875 1.8506071123383299L6.2897811391983875 1.8093592167691144L6.26915719141378 1.7681113211998993L6.248533243629172 1.7474873734152916L6.207285348059957 1.7268634256306838L6.145413504706134 1.7268634256306838L6.104165609136919 1.7474873734152916L6.062917713567703 1.7887352689845069L6.042293765783096 1.8506071123383299L6.042293765783096 1.891855007907545L6.062917713567703 1.953726851261368L6.104165609136919 1.9949747468305832L6.145413504706134 2.015598694615191L6.207285348059957 2.015598694615191L6.248533243629172 1.9949747468305832L6.2897811391983875 1.953726851261368" stroke-width="0.03" stroke="#000000" fill="none"/>
<path d="M6.434148773690641 1.6856155300614688L6.434148773690641 1.664991582276861L6.454772721475249 1.6237436867076458L6.475396669259856 1.6031197389230383L6.516644564829072 1.5824957911384305L6.599140355967502 1.5824957911384305L6.640388251536717 1.6031197389230383L6.661012199321325 1.6237436867076458L6.681636147105933 1.664991582276861L6.681636147105933 1.7062394778460763L6.661012199321325 1.7474873734152916L6.61976430375211 1.8093592167691144L6.413524825906033 2.015598694615191L6.702260094890541 2.015598694615191" stroke-width="0.03" stroke="#000000" fill="none"/>
<path d="M7.264131938244363 2.2599663291074443L1.5 2.2599663291074443" stroke-width="0.03" stroke="#000000" fill="none"/>
<path d="M2.0824957911384305 2.015598694615191L2.0824957911384305 1.7268634256306838" stroke-width="0.03" stroke="#000000" fill="none"/>
<path d="M2.061871843353823 1.5824957911384305L2.0824957911384305 1.6031197389230383L2.1031197389230383 1.5824957911384305L2.0824957911384305 1.5618718433538228L2.061871843353823 1.5824957911384305" stroke-width="0.03" stroke="#000000" fill="none"/>
<path d="M2.226863425630684 1.953726851261368L2.2474873734152916 1.9949747468305832L2.3093592167691144 2.015598694615191L2.3712310601229376 2.015598694615191L2.4331029034767604 1.9949747468305832L2.4537268512613677 1.953726851261368L2.4537268512613677 1.9331029034767604L2.4331029034767604 1.891855007907545L2.391855007907545 1.8712310601229374L2.2887352689845066 1.8506071123383299L2.2474873734152916 1.8299831645537221L2.226863425630684 1.7887352689845069L2.2474873734152916 1.7474873734152916L2.3093592167691144 1.7268634256306838L2.3712310601229376 1.7268634256306838L2.4331029034767604 1.7474873734152916L2.4537268512613677 1.7887352689845069" stroke-width="0.03" stroke="#000000" fill="none"/>
<path d="M2.680590276892052 1.7268634256306838L2.6393423813228365 1.7474873734152916L2.5980944857536215 1.7887352689845069L2.5774705379690137 1.8506071123383299L2.5774705379690137 1.891855007907545L2.5980944857536215 1.953726851261368L2.6393423813228365 1.9949747468305832L2.680590276892052 2.015598694615191L2.7424621202458748 2.015598694615191L2.78371001581509 1.9949747468305832L2.8249579113843053 1.953726851261368L2.845581859168913 1.891855007907545L2.845581859168913 1.8506071123383299L2.8249579113843053 1.7887352689845069L2.78371001581509 1.7474873734152916L2.7424621202458748 1.7268634256306838L2.680590276892052 1.7268634256306838" stroke-width="0.03" stroke="#000000" fill="none"/>
<path d="M2.907453702522736 2.056846590184406L3.237436867076458 2.056846590184406" stroke-width="0.03" stroke="#000000" fill="none"/>
<path d="M3.2993087104302807 1.953726851261368L3.3199326582148885 1.9949747468305832L3.3818045015687113 2.015598694615191L3.443676344922534 2.015598694615191L3.5055481882763573 1.9949747468305832L3.526172136060965 1.953726851261368L3.526172136060965 1.9331029034767604L3.5055481882763573 1.891855007907545L3.464300292707142 1.8712310601229374L3.361180553784104 1.8506071123383299L3.3199326582148885 1.8299831645537221L3.2993087104302807 1.7887352689845069L3.3199326582148885 1.7474873734152916L3.3818045015687113 1.7268634256306838L3.443676344922534 1.7268634256306838L3.5055481882763573 1.7474873734152916L3.526172136060965 1.7887352689845069" stroke-width="0.03" stroke="#000000" fill="none"/>
<path d="M3.6705397705532183 1.8093592167691144L3.732411613907041 1.7474873734152916L3.773659509476256 1.7268634256306838L3.8355313528300794 1.7268634256306838L3.8767792483992944 1.7474873734152916L3.897403196183902 1.8093592167691144L3.897403196183902 2.015598694615191" stroke-width="0.03" stroke="#000000" fill="none"/>
<path d="M3.6705397705532183 2.015598694615191L3.6705397705532183 1.7268634256306838" stroke-width="0.03" stroke="#000000" fill="none"/>
<path d="M4.144890569599194 1.7268634256306838L4.103642674029978 1.7474873734152916L4.062394778460764 1.7887352689845069L4.041770830676155 1.8506071123383299L4.041770830676155 1.891855007907545L4.062394778460764 1.953726851261368L4.103642674029978 1.9949747468305832L4.144890569599194 2.015598694615191L4.206762412953017 2.015598694615191L4.2480103085222325 1.9949747468305832L4.289258204091447 1.953726851261368L4.309882151876055 1.891855007907545L4.309882151876055 1.8506071123383299L4.289258204091447 1.7887352689845069L4.2480103085222325 1.7474873734152916L4.206762412953017 1.7268634256306838L4.144890569599194 1.7268634256306838" stroke-width="0.03" stroke="#000000" fill="none"/>
<path d="M3.1344207634650645 2.8384145390907127L3.0324503577603394 2.8384145390907127" stroke-width="0.03" stroke="#000000" fill="none"/>
<path d="M3.0324503577603394 2.9786238469347097L3.198152267030517 2.9786238469347097" stroke-width="0.03" stroke="#000000" fill="none"/>
<path d="M2.1147167064178154 2.7109515319598065L2.076477804278544 2.7236978326728973L2.0509852028523623 2.761936734812169L2.038238902139272 2.825668238377622L2.038238902139272 2.8639071405168943L2.0509852028523623 2.927638644082347L2.076477804278544 2.965877546221619L2.1147167064178154 2.9786238469347097L2.140209307843997 2.9786238469347097L2.1784482099832685 2.965877546221619L2.2039408114094496 2.927638644082347L2.2166871121225404 2.8639071405168943L2.2166871121225404 2.825668238377622L2.2039408114094496 2.761936734812169L2.1784482099832685 2.7236978326728973L2.140209307843997 2.7109515319598065L2.1147167064178154 2.7109515319598065" stroke-width="0.03" stroke="#000000" fill="none"/>
<path d="M5.712310601229374 2.015598694615191L5.712310601229374 1.5824957911384305" stroke-width="0.03" stroke="#000000" fill="none"/>
<path d="M9.515625 6.731011839520885L10.078125 6.406252313101721" stroke-width="0.03" stroke="#000000" fill="none"/>
<path d="M10.1484375 6.365657372299325L10.2890625 6.446847253904116" stroke-width="0.03" stroke="#000000" fill="none"/>
<path d="M10.1484375 6.609227017113699L10.078125 6.649821957916094" stroke-width="0.03" stroke="#000000" fill="none"/>
<path d="M10.4296875 6.771606780323281L10.5 6.8122017211256765L10.570312500000002 6.771606780323281" stroke-width="0.03" stroke="#000000" fill="none"/>
<path d="M10.8515625 6.609227017113699L10.921875000000002 6.649821957916094" stroke-width="0.03" stroke="#000000" fill="none"/>
<path d="M10.921875000000002 6.406252313101721L11.484375000000002 6.731011839520885" stroke-width="0.03" stroke="#000000" fill="none"/>
<path d="M10.8515625 6.365657372299325L10.7109375 6.446847253904116" stroke-width="0.03" stroke="#000000" fill="none"/>
<path d="M14.296875000000002 11.602404735808353L15.070312500000002 11.155860386982003" stroke-width="0.03" stroke="#000000" fill="none"/>
<path d="M16.546875 11.358835090993981L16.96875 11.115265446179606" stroke-width="0.03" stroke="#000000" fill="none"/>
<path d="M17.953125000000004 11.764784499017935L18.3046875 11.561809795005958" stroke-width="0.03" stroke="#000000" fill="none"/>
<path d="M18.3046875 11.805379439820332L18.585937500000004 11.967759203029914L18.585937500000004 14.241075887964065L18.515625 14.281670828766462" stroke-width="0.03" stroke="#000000" fill="none"/>
<path d="M18.515625 14.525240473580833L18.656250000000004 14.606430355185626L18.656250000000004 15.824278579257493L18.515625 15.905468460862282" stroke-width="0.03" stroke="#000000" fill="none"/>
<path d="M18.515625 16.067848224071867L19.1484375 15.702493756850306" stroke-width="0.03" stroke="#000000" fill="none"/>
<path d="M18.656250000000004 14.606430355185626L18.375 14.768810118395209L18.375 14.687620236790417" stroke-width="0.03" stroke="#000000" fill="none"/>
<path d="M17.671875 15.093569644814371L16.7578125 15.621303875245514L16.7578125 16.189633046479052L17.671875 15.661898816047911L17.671875 15.093569644814371" stroke-width="0.03" stroke="#000000" fill="none"/>
<path d="M17.4609375 15.215354467221559L17.4609375 15.540113993640723L17.671875 15.661898816047911" stroke-width="0.03" stroke="#000000" fill="none"/>
<path d="M17.4609375 15.540113993640723L16.7578125 15.946063401664679" stroke-width="0.03" stroke="#000000" fill="none"/>
<path d="M15.421875 15.661898816047911L15.2109375 15.540113993640723" stroke-width="0.03" stroke="#000000" fill="none"/>
<path d="M14.7890625 17.975810441784457L14.7890625 18.057000323389246" stroke-width="0.03" stroke="#000000" fill="none"/>
<path d="M17.4609375 18.86889913943716L17.53125 18.828304198634765" stroke-width="0.03" stroke="#000000" fill="none"/>
<path d="M17.4609375 18.86889913943716L17.4609375 18.95008902104195" stroke-width="0.03" stroke="#000000" fill="none"/>
<path d="M17.4609375 19.274848547461115L17.390625 19.31544348826351" stroke-width="0.03" stroke="#000000" fill="none"/>
<path d="M17.6015625 19.437228310670697L17.0390625 19.761987837089862" stroke-width="0.03" stroke="#000000" fill="none"/>
<path d="M17.671875 19.3966333698683L17.671875 19.23425360665872" stroke-width="0.03" stroke="#000000" fill="none"/>
<path d="M17.882812500000004 18.86889913943716L18.0234375 18.78770925783237" stroke-width="0.03" stroke="#000000" fill="none"/>
<path d="M18.0234375 18.706519376227575L18.0234375 18.057000323389246" stroke-width="0.03" stroke="#000000" fill="none"/>
<path d="M17.8125 18.58473455382039L17.8125 18.665924435425183" stroke-width="0.03" stroke="#000000" fill="none"/>
<path d="M18.796875 12.00835414383231L19.0078125 11.886569321425123" stroke-width="0.03" stroke="#000000" fill="none"/>
<path d="M17.320312500000004 8.963733583652642L17.109375 9.085518406059828" stroke-width="0.03" stroke="#000000" fill="none"/>
</svg>
