<?xml version="1.0" standalone="no"?>
<svg width="21cm" height="29.7cm" version="1.1" xmlns="http://www.w3.org/2000/svg" viewBox="0.0 0.0 21.000001 29.700001">
<path d="M2.765625 9.085518406059828L7.0546875 6.609227017113699L7.4765625 6.852796661928072L7.4765625 8.151834767604731L2.0625000000000004 11.277645209389188L1.6406249999999998 11.034075564574817L1.6406249999999998 15.986658342467075L2.0625000000000004 16.230227987281445L3.1874999999999996 15.580708934443118L3.1874999999999996 9.329088050874201L2.765625 9.085518406059828L2.765625 10.384556511736488L1.6406249999999998 11.034075564574817" stroke-width="0.03" stroke="#000000" fill="none"/>
<path d="M2.0625000000000004 11.277645209389188L2.0625000000000004 16.230227987281445" stroke-width="0.03" stroke="#000000" fill="none"/>
<path d="M3.2578125 17.082721744131756L3.3984375 17.001531862526964" stroke-width="0.03" stroke="#000000" fill="none"/>
<path d="M3.3984375 17.082721744131756L3.328125000000001 17.123316684934153L3.328125000000001 17.77283573777248L3.7499999999999996 17.529266092958107" stroke-width="0.03" stroke="#000000" fill="none"/>
<path d="M4.03125 17.69164585616769L3.3984375 17.326291388946128L3.3984375 14.728215177592812L3.8906249999999996 14.444050591976044" stroke-width="0.03" stroke="#000000" fill="none"/>
<path d="M3.8906249999999996 14.525240473580833L3.8906249999999996 14.038101183952087" stroke-width="0.03" stroke="#000000" fill="none"/>
<path d="M4.03125 14.11929106555688L3.46875 13.794531539137715L3.46875 13.46977201271855L3.8906249999999996 13.226202367904175" stroke-width="0.03" stroke="#000000" fill="none"/>
<path d="M3.8906249999999996 13.307392249508968L3.8906249999999996 12.00835414383231L4.734375 11.521214854203564L4.734375 10.54693627494607L5.859375000000001 9.897417222107741L6.3515625 10.181581807724509L6.421875 10.140986866922113" stroke-width="0.03" stroke="#000000" fill="none"/>
<path d="M6.3515625 10.181581807724509L6.3515625 9.775632399700552L10.4296875 7.421125833161611L10.5 7.4617207739640055L10.570312500000002 7.421125833161611L14.648437500000002 9.775632399700552L15.2109375 9.450872873281389L15.2109375 9.938012162910134" stroke-width="0.03" stroke="#000000" fill="none"/>
<path d="M15.140625 9.897417222107741L14.648437500000002 10.181581807724509L14.578125 10.140986866922113" stroke-width="0.03" stroke="#000000" fill="none"/>
<path d="M14.648437500000002 10.181581807724509L14.648437500000002 9.775632399700552" stroke-width="0.03" stroke="#000000" fill="none"/>
<path d="M14.578125 9.735037458898159L12.328125000000002 11.034075564574817L12.328125000000002 11.764784499017935L10.9921875 10.99348062377242L10.5 11.277645209389188L10.0078125 10.99348062377242L8.671875 11.764784499017935L6.421875 10.465746393341277L6.421875 9.735037458898159L8.671875 11.034075564574817L8.671875 11.764784499017935" stroke-width="0.03" stroke="#000000" fill="none"/>
<path d="M8.671875 11.034075564574817L10.5 9.97860710371253L12.328125000000002 11.034075564574817" stroke-width="0.03" stroke="#000000" fill="none"/>
<path d="M12.328125000000002 11.764784499017935L14.578125 10.465746393341277L14.578125 9.735037458898159" stroke-width="0.03" stroke="#000000" fill="none"/>
<path d="M14.5078125 9.53206275488618L14.0859375 9.288493110071807L13.945312500000002 9.369682991676598" stroke-width="0.03" stroke="#000000" fill="none"/>
<path d="M14.15625 9.329088050874201L14.15625 8.760758879640663L11.90625 7.4617207739640055L11.273437500000002 7.827075241185566" stroke-width="0.03" stroke="#000000" fill="none"/>
<path d="M11.5546875 7.664695477975984L11.5546875 7.177556188347237L11.625000000000002 7.136961247544841L12.187500000000002 7.4617207739640055L12.187500000000002 7.624100537173588" stroke-width="0.03" stroke="#000000" fill="none"/>
<path d="M12.1171875 7.583505596371193L12.1171875 7.502315714766402L11.5546875 7.177556188347237" stroke-width="0.03" stroke="#000000" fill="none"/>
<path d="M12.1171875 7.502315714766402L12.187500000000002 7.4617207739640055" stroke-width="0.03" stroke="#000000" fill="none"/>
<path d="M13.5234375 6.852796661928072L13.945312500000002 6.609227017113699L18.234375 9.085518406059828L18.234375 10.384556511736488L19.359375000000004 11.034075564574817L19.359375000000004 15.986658342467075L18.9375 16.230227987281445L17.8125 15.580708934443118L17.8125 9.329088050874201L18.234375 9.085518406059828" stroke-width="0.03" stroke="#000000" fill="none"/>
<path d="M17.8125 9.329088050874201L13.5234375 6.852796661928072L13.5234375 8.151834767604731L18.9375 11.277645209389188L19.359375000000004 11.034075564574817" stroke-width="0.03" stroke="#000000" fill="none"/>
<path d="M18.9375 11.277645209389188L18.9375 16.230227987281445" stroke-width="0.03" stroke="#000000" fill="none"/>
<path d="M17.7421875 17.082721744131756L17.671875 17.123316684934153L17.671875 17.77283573777248L17.25 17.529266092958107" stroke-width="0.03" stroke="#000000" fill="none"/>
<path d="M16.96875 17.69164585616769L17.6015625 17.326291388946128L17.6015625 14.728215177592812L17.109375 14.444050591976044" stroke-width="0.03" stroke="#000000" fill="none"/>
<path d="M17.109375 14.525240473580833L16.96875 14.606430355185626" stroke-width="0.03" stroke="#000000" fill="none"/>
<path d="M17.109375 14.525240473580833L17.109375 14.038101183952087" stroke-width="0.03" stroke="#000000" fill="none"/>
<path d="M16.96875 14.11929106555688L17.53125 13.794531539137715L17.53125 13.46977201271855L17.109375 13.226202367904175" stroke-width="0.03" stroke="#000000" fill="none"/>
<path d="M17.109375 13.307392249508968L16.617187500000004 13.591556835125736L16.617187500000004 13.672746716730527" stroke-width="0.03" stroke="#000000" fill="none"/>
<path d="M16.617187500000004 13.591556835125736L16.96875 13.794531539137715L16.96875 18.5035446722156L16.8984375 18.544139613017997L16.8984375 18.625329494622786L12.8203125 20.97983606116173L12.8203125 21.62935511400006L13.1015625 21.466975350790477L13.1015625 20.81745629795215" stroke-width="0.03" stroke="#000000" fill="none"/>
<path d="M13.1015625 20.97983606116173L13.5234375 20.736266416347355L13.5234375 20.573886653137773" stroke-width="0.03" stroke="#000000" fill="none"/>
<path d="M13.453125 20.776861357149752L13.945312500000002 21.06102594276652L16.1953125 19.761987837089862L16.1953125 19.03127890264674" stroke-width="0.03" stroke="#000000" fill="none"/>
<path d="M16.1953125 19.356038429065904L16.617187500000004 19.59960807388028L16.617187500000004 19.68079795548507L16.0546875 20.005557481904233L15.9140625 19.924367600299444" stroke-width="0.03" stroke="#000000" fill="none"/>
<path d="M15.984375 19.883772659497048L16.0546875 19.924367600299444L16.0546875 20.005557481904233" stroke-width="0.03" stroke="#000000" fill="none"/>
<path d="M16.0546875 19.924367600299444L16.617187500000004 19.59960807388028" stroke-width="0.03" stroke="#000000" fill="none"/>
<path d="M15.9140625 21.466975350790477L11.625000000000002 23.943266739736604L6.210937500000001 20.81745629795215L5.0859375 21.466975350790477L5.0859375 21.954114640419224L9.375 24.430406029365354L10.5 23.780886976527025L11.625000000000002 24.430406029365354L15.9140625 21.954114640419224L15.9140625 21.466975350790477L14.7890625 20.81745629795215L9.375 23.943266739736604L5.0859375 21.466975350790477" stroke-width="0.03" stroke="#000000" fill="none"/>
<path d="M4.9453125 20.005557481904233L5.0859375 19.924367600299444" stroke-width="0.03" stroke="#000000" fill="none"/>
<path d="M5.015625 19.883772659497048L4.9453125 19.924367600299444L4.9453125 20.005557481904233L4.382812499999999 19.68079795548507L4.382812499999999 19.59960807388028L4.8046875 19.356038429065904" stroke-width="0.03" stroke="#000000" fill="none"/>
<path d="M4.8046875 19.03127890264674L4.8046875 19.761987837089862L7.0546875 21.06102594276652L7.546875 20.776861357149752" stroke-width="0.03" stroke="#000000" fill="none"/>
<path d="M7.4765625 20.736266416347355L7.4765625 20.573886653137773" stroke-width="0.03" stroke="#000000" fill="none"/>
<path d="M7.4765625 20.736266416347355L7.898437500000001 20.97983606116173" stroke-width="0.03" stroke="#000000" fill="none"/>
<path d="M7.898437500000001 20.81745629795215L7.898437500000001 21.466975350790477L8.1796875 21.62935511400006L8.6015625 21.385785469185684" stroke-width="0.03" stroke="#000000" fill="none"/>
<path d="M8.53125 21.345190528383288L8.53125 20.776861357149752L8.4609375 20.736266416347355" stroke-width="0.03" stroke="#000000" fill="none"/>
<path d="M8.53125 20.776861357149752L8.1796875 20.97983606116173L8.1796875 21.62935511400006" stroke-width="0.03" stroke="#000000" fill="none"/>
<path d="M8.53125 21.345190528383288L9.65625 21.994709581221617L10.5 21.507570291592874L11.34375 21.994709581221617L12.46875 21.345190528383288L12.46875 20.776861357149752L12.539062500000002 20.736266416347355" stroke-width="0.03" stroke="#000000" fill="none"/>
<path d="M12.46875 20.776861357149752L12.8203125 20.97983606116173" stroke-width="0.03" stroke="#000000" fill="none"/>
<path d="M12.890625000000002 20.939241120359334L12.890625000000002 18.341164909006018L14.718749999999998 17.28569644814373L14.718749999999998 15.174759526419164L14.0859375 14.809405059197603L16.3359375 13.510366953520945L16.96875 13.875721420742504L14.718749999999998 15.174759526419164" stroke-width="0.03" stroke="#000000" fill="none"/>
<path d="M14.0859375 14.809405059197603L14.0859375 16.352012809688635L13.593750000000002 16.636177395305403L13.593750000000002 17.204506566538942L12.2578125 17.975810441784457L12.2578125 20.573886653137773L12.890625000000002 20.939241120359334" stroke-width="0.03" stroke="#000000" fill="none"/>
<path d="M12.3984375 21.385785469185684L12.8203125 21.62935511400006" stroke-width="0.03" stroke="#000000" fill="none"/>
<path d="M11.6953125 21.385785469185684L11.1328125 21.71054499560485L10.5 21.345190528383288L9.867187500000002 21.71054499560485L9.3046875 21.385785469185684L9.3046875 20.898646179556938L9.4453125 20.81745629795215L9.65625 20.939241120359334L10.5 20.452101830730584L10.5 16.14903810567666L9.9375 16.473797632095824L9.9375 19.883772659497048L10.5 19.559013133077883L11.0625 19.883772659497048L12.187500000000002 19.23425360665872L12.187500000000002 14.525240473580833L11.625000000000002 14.200480947161669L11.625000000000002 13.55096189432334L14.578125 11.845974380622728L14.578125 12.495493433461057L15.140625 12.820252959880222L15.140625 14.11929106555688L11.0625 16.473797632095824L11.0625 19.883772659497048" stroke-width="0.03" stroke="#000000" fill="none"/>
<path d="M11.34375 19.721392896287465L11.34375 20.939241120359334L11.5546875 20.81745629795215L11.6953125 20.898646179556938L11.6953125 21.385785469185684" stroke-width="0.03" stroke="#000000" fill="none"/>
<path d="M11.34375 21.588760173197663L11.34375 21.994709581221617" stroke-width="0.03" stroke="#000000" fill="none"/>
<path d="M11.273437500000002 21.954114640419224L11.273437500000002 22.847203338071925L10.5 22.400658989245574L9.7265625 22.847203338071925L9.7265625 21.954114640419224" stroke-width="0.03" stroke="#000000" fill="none"/>
<path d="M9.65625 21.994709581221617L9.65625 21.588760173197663" stroke-width="0.03" stroke="#000000" fill="none"/>
<path d="M9.867187500000002 21.71054499560485L9.867187500000002 21.223405705976102L9.3046875 20.898646179556938" stroke-width="0.03" stroke="#000000" fill="none"/>
<path d="M9.65625 20.939241120359334L9.65625 19.721392896287465" stroke-width="0.03" stroke="#000000" fill="none"/>
<path d="M9.9375 19.883772659497048L8.8125 19.23425360665872L8.8125 14.525240473580833L9.375 14.200480947161669L9.375 13.55096189432334L13.453125 11.196455327784399L14.578125 11.845974380622728" stroke-width="0.03" stroke="#000000" fill="none"/>
<path d="M14.296875000000002 11.683594617413146L15.351562500000002 11.074670505377211L15.140625 10.952885682970024L15.140625 10.790505919760442L15.5625 10.54693627494607L16.125 10.871695801365235L16.125 11.602404735808353L16.7578125 11.967759203029914L16.7578125 12.617278255868243L16.3359375 12.860847900682616L16.1953125 12.779658019077825L16.1953125 12.536088374263452L15.351562500000002 12.048949084634705L15.351562500000002 11.074670505377211" stroke-width="0.03" stroke="#000000" fill="none"/>
<path d="M15.703125000000002 11.115265446179606L16.125 10.871695801365235" stroke-width="0.03" stroke="#000000" fill="none"/>
<path d="M15.9140625 10.749910978958045L16.265625 10.54693627494607L16.265625 11.521214854203564L17.109375 12.00835414383231L17.109375 13.307392249508968" stroke-width="0.03" stroke="#000000" fill="none"/>
<path d="M17.53125 13.46977201271855L16.96875 13.794531539137715" stroke-width="0.03" stroke="#000000" fill="none"/>
<path d="M17.6015625 14.728215177592812L16.96875 15.093569644814371" stroke-width="0.03" stroke="#000000" fill="none"/>
<path d="M17.6015625 17.001531862526964L17.7421875 17.082721744131756L17.7421875 17.732240796970082L17.671875 17.77283573777248" stroke-width="0.03" stroke="#000000" fill="none"/>
<path d="M17.671875 17.123316684934153L17.6015625 17.082721744131756" stroke-width="0.03" stroke="#000000" fill="none"/>
<path d="M14.718749999999998 17.28569644814373L13.6640625 16.6767723361078L13.6640625 16.59558245450301" stroke-width="0.03" stroke="#000000" fill="none"/>
<path d="M13.6640625 16.6767723361078L13.593750000000002 16.717367276910196" stroke-width="0.03" stroke="#000000" fill="none"/>
<path d="M12.8203125 16.189633046479052L12.187500000000002 16.55498751370061" stroke-width="0.03" stroke="#000000" fill="none"/>
<path d="M12.187500000000002 16.14903810567666L12.46875 15.986658342467075L12.46875 15.661898816047911" stroke-width="0.03" stroke="#000000" fill="none"/>
<path d="M12.3984375 15.702493756850306L12.3984375 15.946063401664679L12.187500000000002 16.067848224071867" stroke-width="0.03" stroke="#000000" fill="none"/>
<path d="M12.187500000000002 15.986658342467075L12.328125000000002 15.905468460862282L12.328125000000002 15.7430886976527" stroke-width="0.03" stroke="#000000" fill="none"/>
<path d="M12.328125000000002 15.905468460862282L12.3984375 15.946063401664679" stroke-width="0.03" stroke="#000000" fill="none"/>
<path d="M12.46875 15.986658342467075L12.8203125 16.189633046479052L12.8203125 15.458924112035932" stroke-width="0.03" stroke="#000000" fill="none"/>
<path d="M12.187500000000002 15.824278579257493L10.5 14.85L8.8125 15.824278579257493" stroke-width="0.03" stroke="#000000" fill="none"/>
<path d="M8.671875 15.905468460862282L8.6015625 15.946063401664679L8.8125 16.067848224071867" stroke-width="0.03" stroke="#000000" fill="none"/>
<path d="M8.8125 15.986658342467075L8.671875 15.905468460862282L8.671875 15.7430886976527" stroke-width="0.03" stroke="#000000" fill="none"/>
<path d="M8.6015625 15.702493756850306L8.6015625 15.946063401664679" stroke-width="0.03" stroke="#000000" fill="none"/>
<path d="M8.53125 15.986658342467075L8.1796875 16.189633046479052L8.1796875 15.458924112035932" stroke-width="0.03" stroke="#000000" fill="none"/>
<path d="M8.53125 15.661898816047911L8.53125 15.986658342467075L8.8125 16.14903810567666" stroke-width="0.03" stroke="#000000" fill="none"/>
<path d="M8.8125 16.55498751370061L8.1796875 16.189633046479052" stroke-width="0.03" stroke="#000000" fill="none"/>
<path d="M7.40625 16.636177395305403L7.40625 17.204506566538942L8.7421875 17.975810441784457L8.7421875 20.573886653137773L8.109375 20.939241120359334L8.109375 18.341164909006018L8.7421875 17.975810441784457" stroke-width="0.03" stroke="#000000" fill="none"/>
<path d="M8.109375 18.341164909006018L6.28125 17.28569644814373L6.28125 15.174759526419164L4.03125 13.875721420742504L4.6640625 13.510366953520945L6.914062500000001 14.809405059197603L6.914062500000001 16.352012809688635L7.40625 16.636177395305403" stroke-width="0.03" stroke="#000000" fill="none"/>
<path d="M7.3359375 16.59558245450301L7.3359375 16.6767723361078L7.40625 16.717367276910196" stroke-width="0.03" stroke="#000000" fill="none"/>
<path d="M7.3359375 16.6767723361078L6.28125 17.28569644814373" stroke-width="0.03" stroke="#000000" fill="none"/>
<path d="M6.28125 15.174759526419164L6.914062500000001 14.809405059197603" stroke-width="0.03" stroke="#000000" fill="none"/>
<path d="M5.859375000000001 14.11929106555688L5.859375000000001 12.820252959880222L6.421875 12.495493433461057L6.421875 11.845974380622728L7.546875 11.196455327784399L11.625000000000002 13.55096189432334" stroke-width="0.03" stroke="#000000" fill="none"/>
<path d="M11.625000000000002 14.200480947161669L15.351562500000002 12.048949084634705" stroke-width="0.03" stroke="#000000" fill="none"/>
<path d="M15.703125000000002 11.845974380622728L17.0390625 11.074670505377211L17.0390625 10.181581807724509L16.265625 10.62812615655086" stroke-width="0.03" stroke="#000000" fill="none"/>
<path d="M16.265625 10.54693627494607L15.140625 9.897417222107741" stroke-width="0.03" stroke="#000000" fill="none"/>
<path d="M15.2109375 9.450872873281389L14.9296875 9.288493110071807L14.367187500000002 9.613252636490971" stroke-width="0.03" stroke="#000000" fill="none"/>
<path d="M14.15625 8.760758879640663L13.5234375 9.126113346862224" stroke-width="0.03" stroke="#000000" fill="none"/>
<path d="M15.140625 10.790505919760442L15.703125000000002 11.115265446179606L15.703125000000002 11.845974380622728L16.3359375 12.211328847844287L16.3359375 12.860847900682616" stroke-width="0.03" stroke="#000000" fill="none"/>
<path d="M16.1953125 12.536088374263452L15.140625 13.145012486299386" stroke-width="0.03" stroke="#000000" fill="none"/>
<path d="M15.140625 12.820252959880222L12.187500000000002 14.525240473580833" stroke-width="0.03" stroke="#000000" fill="none"/>
<path d="M10.5 14.85L10.5 12.90144284148501" stroke-width="0.03" stroke="#000000" fill="none"/>
<path d="M10.359375 12.820252959880222L10.5 12.739063078275429L10.5 12.65787319667064L10.2890625 12.779658019077825" stroke-width="0.03" stroke="#000000" fill="none"/>
<path d="M10.218750000000002 12.739063078275429L10.5 12.576683315065846L10.5 12.170733907041893L11.1328125 12.536088374263452" stroke-width="0.03" stroke="#000000" fill="none"/>
<path d="M10.78125 12.739063078275429L10.5 12.576683315065846" stroke-width="0.03" stroke="#000000" fill="none"/>
<path d="M10.5 12.65787319667064L10.7109375 12.779658019077825" stroke-width="0.03" stroke="#000000" fill="none"/>
<path d="M10.640625 12.820252959880222L10.5 12.739063078275429" stroke-width="0.03" stroke="#000000" fill="none"/>
<path d="M10.5 12.170733907041893L9.867187500000002 12.536088374263452" stroke-width="0.03" stroke="#000000" fill="none"/>
<path d="M9.375 13.55096189432334L6.421875 11.845974380622728" stroke-width="0.03" stroke="#000000" fill="none"/>
<path d="M6.703125 11.683594617413146L5.6484375 11.074670505377211L5.859375000000001 10.952885682970024L5.859375000000001 10.790505919760442L5.4375 10.54693627494607L4.875 10.871695801365235L4.875 11.602404735808353L4.2421875 11.967759203029914L4.2421875 12.617278255868243L4.6640625 12.860847900682616L4.8046875 12.779658019077825L4.8046875 12.536088374263452L5.6484375 12.048949084634705L9.375 14.200480947161669" stroke-width="0.03" stroke="#000000" fill="none"/>
<path d="M8.8125 14.525240473580833L5.859375000000001 12.820252959880222" stroke-width="0.03" stroke="#000000" fill="none"/>
<path d="M5.859375000000001 13.145012486299386L4.8046875 12.536088374263452" stroke-width="0.03" stroke="#000000" fill="none"/>
<path d="M4.6640625 12.211328847844287L5.296875 11.845974380622728L5.296875 11.115265446179606L5.859375000000001 10.790505919760442" stroke-width="0.03" stroke="#000000" fill="none"/>
<path d="M5.6484375 11.074670505377211L5.6484375 12.048949084634705" stroke-width="0.03" stroke="#000000" fill="none"/>
<path d="M5.296875 11.845974380622728L3.9609375 11.074670505377211L3.9609375 10.181581807724509L4.734375 10.62812615655086" stroke-width="0.03" stroke="#000000" fill="none"/>
<path d="M4.734375 10.54693627494607L5.0859375 10.749910978958045" stroke-width="0.03" stroke="#000000" fill="none"/>
<path d="M4.875 10.871695801365235L5.296875 11.115265446179606" stroke-width="0.03" stroke="#000000" fill="none"/>
<path d="M4.8046875 10.506341334143674L4.1015625 10.100391926119716" stroke-width="0.03" stroke="#000000" fill="none"/>
<path d="M3.9609375 11.074670505377211L3.1874999999999996 11.521214854203564L3.9609375 11.967759203029914" stroke-width="0.03" stroke="#000000" fill="none"/>
<path d="M3.8906249999999996 12.00835414383231L4.2421875 12.211328847844287" stroke-width="0.03" stroke="#000000" fill="none"/>
<path d="M4.2421875 11.967759203029914L4.6640625 12.211328847844287L4.6640625 12.860847900682616" stroke-width="0.03" stroke="#000000" fill="none"/>
<path d="M4.382812499999999 13.591556835125736L4.03125 13.794531539137715L4.03125 18.5035446722156L4.1015625 18.544139613017997L4.1015625 18.625329494622786L8.1796875 20.97983606116173" stroke-width="0.03" stroke="#000000" fill="none"/>
<path d="M7.0546875 21.06102594276652L7.0546875 20.330317008323398" stroke-width="0.03" stroke="#000000" fill="none"/>
<path d="M4.9453125 19.924367600299444L4.382812499999999 19.59960807388028" stroke-width="0.03" stroke="#000000" fill="none"/>
<path d="M3.328125000000001 17.77283573777248L3.2578125 17.732240796970082L3.2578125 17.082721744131756L3.328125000000001 17.123316684934153" stroke-width="0.03" stroke="#000000" fill="none"/>
<path d="M4.03125 15.093569644814371L3.3984375 14.728215177592812" stroke-width="0.03" stroke="#000000" fill="none"/>
<path d="M3.8906249999999996 14.525240473580833L4.03125 14.606430355185626" stroke-width="0.03" stroke="#000000" fill="none"/>
<path d="M4.03125 13.794531539137715L3.46875 13.46977201271855" stroke-width="0.03" stroke="#000000" fill="none"/>
<path d="M3.8906249999999996 13.307392249508968L4.382812499999999 13.591556835125736L4.382812499999999 13.672746716730527" stroke-width="0.03" stroke="#000000" fill="none"/>
<path d="M5.859375000000001 14.11929106555688L9.9375 16.473797632095824" stroke-width="0.03" stroke="#000000" fill="none"/>
<path d="M10.5 16.14903810567666L11.0625 16.473797632095824" stroke-width="0.03" stroke="#000000" fill="none"/>
<path d="M12.2578125 17.975810441784457L12.890625000000002 18.341164909006018" stroke-width="0.03" stroke="#000000" fill="none"/>
<path d="M13.945312500000002 20.330317008323398L13.945312500000002 21.06102594276652" stroke-width="0.03" stroke="#000000" fill="none"/>
<path d="M11.6953125 20.898646179556938L11.1328125 21.223405705976102L10.5 20.858051238754545L9.867187500000002 21.223405705976102" stroke-width="0.03" stroke="#000000" fill="none"/>
<path d="M10.5 20.858051238754545L10.5 22.400658989245574" stroke-width="0.03" stroke="#000000" fill="none"/>
<path d="M10.5 23.293747686898275L10.5 23.780886976527025" stroke-width="0.03" stroke="#000000" fill="none"/>
<path d="M9.375 23.943266739736604L9.375 24.430406029365354" stroke-width="0.03" stroke="#000000" fill="none"/>
<path d="M9.5859375 22.76601345646713L9.5859375 21.954114640419224" stroke-width="0.03" stroke="#000000" fill="none"/>
<path d="M11.1328125 21.71054499560485L11.1328125 21.223405705976102" stroke-width="0.03" stroke="#000000" fill="none"/>
<path d="M11.34375 20.939241120359334L10.5 20.452101830730584" stroke-width="0.03" stroke="#000000" fill="none"/>
<path d="M11.4140625 21.954114640419224L11.4140625 22.76601345646713" stroke-width="0.03" stroke="#000000" fill="none"/>
<path d="M11.625000000000002 23.943266739736604L11.625000000000002 24.430406029365354" stroke-width="0.03" stroke="#000000" fill="none"/>
<path d="M16.3359375 12.211328847844287L16.7578125 11.967759203029914" stroke-width="0.03" stroke="#000000" fill="none"/>
<path d="M16.7578125 12.211328847844287L17.109375 12.00835414383231" stroke-width="0.03" stroke="#000000" fill="none"/>
<path d="M17.109375 12.0895440254371L17.8125 11.683594617413146" stroke-width="0.03" stroke="#000000" fill="none"/>
<path d="M17.8125 11.521214854203564L17.0390625 11.967759203029914" stroke-width="0.03" stroke="#000000" fill="none"/>
<path d="M17.8125 11.521214854203564L17.0390625 11.074670505377211" stroke-width="0.03" stroke="#000000" fill="none"/>
<path d="M17.8125 10.62812615655086L18.234375 10.384556511736488" stroke-width="0.03" stroke="#000000" fill="none"/>
<path d="M16.8984375 10.100391926119716L16.1953125 10.506341334143674" stroke-width="0.03" stroke="#000000" fill="none"/>
<path d="M10.570312500000002 11.237050268586794L10.5 11.196455327784399L10.4296875 11.237050268586794" stroke-width="0.03" stroke="#000000" fill="none"/>
<path d="M10.5 11.196455327784399L10.5 9.97860710371253" stroke-width="0.03" stroke="#000000" fill="none"/>
<path d="M9.7265625 7.827075241185566L9.09375 7.4617207739640055L6.84375 8.760758879640663L6.84375 9.329088050874201" stroke-width="0.03" stroke="#000000" fill="none"/>
<path d="M6.914062500000001 9.288493110071807L6.492187500000001 9.53206275488618" stroke-width="0.03" stroke="#000000" fill="none"/>
<path d="M6.6328125 9.613252636490971L6.0703125 9.288493110071807L5.7890625 9.450872873281389L5.7890625 9.938012162910134" stroke-width="0.03" stroke="#000000" fill="none"/>
<path d="M5.7890625 9.450872873281389L6.3515625 9.775632399700552" stroke-width="0.03" stroke="#000000" fill="none"/>
<path d="M6.914062500000001 9.288493110071807L7.0546875 9.369682991676598" stroke-width="0.03" stroke="#000000" fill="none"/>
<path d="M7.4765625 9.126113346862224L6.84375 8.760758879640663" stroke-width="0.03" stroke="#000000" fill="none"/>
<path d="M7.4765625 6.852796661928072L3.1874999999999996 9.329088050874201" stroke-width="0.03" stroke="#000000" fill="none"/>
<path d="M2.765625 10.384556511736488L3.1874999999999996 10.62812615655086" stroke-width="0.03" stroke="#000000" fill="none"/>
<path d="M3.1874999999999996 11.683594617413146L3.8906249999999996 12.0895440254371" stroke-width="0.03" stroke="#000000" fill="none"/>
<path d="M8.8125 7.624100537173588L8.8125 7.4617207739640055L9.375 7.136961247544841L9.4453125 7.177556188347237L9.4453125 7.664695477975984" stroke-width="0.03" stroke="#000000" fill="none"/>
<path d="M9.4453125 7.177556188347237L8.8828125 7.502315714766402L8.8828125 7.583505596371193" stroke-width="0.03" stroke="#000000" fill="none"/>
<path d="M8.8828125 7.502315714766402L8.8125 7.4617207739640055" stroke-width="0.03" stroke="#000000" fill="none"/>
<path d="M7.264131938244363 2.2599663291074443L1.5 2.2599663291074443" stroke-width="0.03" stroke="#000000" fill="none"/>
<path d="M2.0824957911384305 2.015598694615191L2.0824957911384305 1.7268634256306838" stroke-width="0.03" stroke="#000000" fill="none"/>
<path d="M2.061871843353823 1.5824957911384305L2.0824957911384305 1.6031197389230383L2.1031197389230383 1.5824957911384305L2.0824957911384305 1.5618718433538228L2.061871843353823 1.5824957911384305" stroke-width="0.03" stroke="#000000" fill="none"/>
<path d="M2.226863425630684 1.953726851261368L2.2474873734152916 1.9949747468305832L2.3093592167691144 2.015598694615191L2.3712310601229376 2.015598694615191L2.4331029034767604 1.9949747468305832L2.4537268512613677 1.953726851261368L2.4537268512613677 1.9331029034767604L2.4331029034767604 1.891855007907545L2.391855007907545 1.8712310601229374L2.2887352689845066 1.8506071123383299L2.2474873734152916 1.8299831645537221L2.226863425630684 1.7887352689845069L2.2474873734152916 1.7474873734152916L2.3093592167691144 1.7268634256306838L2.3712310601229376 1.7268634256306838L2.4331029034767604 1.7474873734152916L2.4537268512613677 1.7887352689845069" stroke-width="0.03" stroke="#000000" fill="none"/>
<path d="M2.680590276892052 1.7268634256306838L2.6393423813228365 1.7474873734152916L2.5980944857536215 1.7887352689845069L2.5774705379690137 1.8506071123383299L2.5774705379690137 1.891855007907545L2.5980944857536215 1.953726851261368L2.6393423813228365 1.9949747468305832L2.680590276892052 2.015598694615191L2.7424621202458748 2.015598694615191L2.78371001581509 1.9949747468305832L2.8249579113843053 1.953726851261368L2.845581859168913 1.891855007907545L2.845581859168913 1.8506071123383299L2.8249579113843053 1.7887352689845069L2.78371001581509 1.7474873734152916L2.7424621202458748 1.7268634256306838L2.680590276892052 1.7268634256306838" stroke-width="0.03" stroke="#000000" fill="none"/>
<path d="M2.907453702522736 2.056846590184406L3.237436867076458 2.056846590184406" stroke-width="0.03" stroke="#000000" fill="none"/>
<path d="M3.2993087104302807 1.953726851261368L3.3199326582148885 1.9949747468305832L3.3818045015687113 2.015598694615191L3.443676344922534 2.015598694615191L3.5055481882763573 1.9949747468305832L3.526172136060965 1.953726851261368L3.526172136060965 1.9331029034767604L3.5055481882763573 1.891855007907545L3.464300292707142 1.8712310601229374L3.361180553784104 1.8506071123383299L3.3199326582148885 1.8299831645537221L3.2993087104302807 1.7887352689845069L3.3199326582148885 1.7474873734152916L3.3818045015687113 1.7268634256306838L3.443676344922534 1.7268634256306838L3.5055481882763573 1.7474873734152916L3.526172136060965 1.7887352689845069" stroke-width="0.03" stroke="#000000" fill="none"/>
<path d="M3.6705397705532183 1.8093592167691144L3.732411613907041 1.7474873734152916L3.773659509476256 1.7268634256306838L3.8355313528300794 1.7268634256306838L3.8767792483992944 1.7474873734152916L3.897403196183902 1.8093592167691144L3.897403196183902 2.015598694615191" stroke-width="0.03" stroke="#000000" fill="none"/>
<path d="M3.6705397705532183 2.015598694615191L3.6705397705532183 1.7268634256306838" stroke-width="0.03" stroke="#000000" fill="none"/>
<path d="M4.144890569599194 1.7268634256306838L4.103642674029978 1.7474873734152916L4.062394778460764 1.7887352689845069L4.041770830676155 1.8506071123383299L4.041770830676155 1.891855007907545L4.062394778460764 1.953726851261368L4.103642674029978 1.9949747468305832L4.144890569599194 2.015598694615191L4.206762412953017 2.015598694615191L4.2480103085222325 1.9949747468305832L4.289258204091447 1.953726851261368L4.309882151876055 1.891855007907545L4.309882151876055 1.8506071123383299L4.289258204091447 1.7887352689845069L4.2480103085222325 1.7474873734152916L4.206762412953017 1.7268634256306838L4.144890569599194 1.7268634256306838" stroke-width="0.03" stroke="#000000" fill="none"/>
<path d="M4.4336258385837 1.7268634256306838L4.516121629722131 2.015598694615191L4.5986174208605615 1.7268634256306838L4.681113211998992 2.015598694615191L4.7636090031374225 1.7268634256306838" stroke-width="0.03" stroke="#000000" fill="none"/>
<path d="M4.866728742060461 1.7268634256306838L5.011096376552715 1.7268634256306838" stroke-width="0.03" stroke="#000000" fill="none"/>
<path d="M5.031720324337321 1.5824957911384305L4.990472428768107 1.5824957911384305L4.949224533198891 1.6031197389230383L4.928600585414284 1.664991582276861L4.928600585414284 2.015598694615191" stroke-width="0.03" stroke="#000000" fill="none"/>
<path d="M5.155464011044968 2.015598694615191L5.155464011044968 1.5824957911384305" stroke-width="0.03" stroke="#000000" fill="none"/>
<path d="M5.547319018952512 1.7268634256306838L5.547319018952512 2.015598694615191" stroke-width="0.03" stroke="#000000" fill="none"/>
<path d="M5.547319018952512 1.953726851261368L5.506071123383298 1.9949747468305832L5.464823227814082 2.015598694615191L5.402951384460259 2.015598694615191L5.3617034888910435 1.9949747468305832L5.320455593321829 1.953726851261368L5.299831645537221 1.891855007907545L5.299831645537221 1.8506071123383299L5.320455593321829 1.7887352689845069L5.3617034888910435 1.7474873734152916L5.402951384460259 1.7268634256306838L5.464823227814082 1.7268634256306838L5.506071123383298 1.7474873734152916L5.547319018952512 1.7887352689845069" stroke-width="0.03" stroke="#000000" fill="none"/>
<path d="M5.712310601229374 1.9331029034767604L5.91855007907545 1.7268634256306838" stroke-width="0.03" stroke="#000000" fill="none"/>
<path d="M5.794806392367804 1.8506071123383299L5.939174026860058 2.015598694615191" stroke-width="0.03" stroke="#000000" fill="none"/>
<path d="M6.042293765783096 1.8506071123383299L6.2897811391983875 1.8506071123383299L6.2897811391983875 1.8093592167691144L6.26915719141378 1.7681113211998993L6.248533243629172 1.7474873734152916L6.207285348059957 1.7268634256306838L6.145413504706134 1.7268634256306838L6.104165609136919 1.7474873734152916L6.062917713567703 1.7887352689845069L6.042293765783096 1.8506071123383299L6.042293765783096 1.891855007907545L6.062917713567703 1.953726851261368L6.104165609136919 1.9949747468305832L6.145413504706134 2.015598694615191L6.207285348059957 2.015598694615191L6.248533243629172 1.9949747468305832L6.2897811391983875 1.953726851261368" stroke-width="0.03" stroke="#000000" fill="none"/>
<path d="M6.434148773690641 1.6856155300614688L6.434148773690641 1.664991582276861L6.454772721475249 1.6237436867076458L6.475396669259856 1.6031197389230383L6.516644564829072 1.5824957911384305L6.599140355967502 1.5824957911384305L6.640388251536717 1.6031197389230383L6.661012199321325 1.6237436867076458L6.681636147105933 1.664991582276861L6.681636147105933 1.7062394778460763L6.661012199321325 1.7474873734152916L6.61976430375211 1.8093592167691144L6.413524825906033 2.015598694615191L6.702260094890541 2.015598694615191" stroke-width="0.03" stroke="#000000" fill="none"/>
<path d="M5.712310601229374 2.015598694615191L5.712310601229374 1.5824957911384305" stroke-width="0.03" stroke="#000000" fill="none"/>
<path d="M4.460036037626487 2.7109515319598065L4.29433412835631 2.7109515319598065L4.29433412835631 2.9786238469347097" stroke-width="0.03" stroke="#000000" fill="none"/>
<path d="M4.29433412835631 2.8384145390907127L4.396304534061034 2.8384145390907127" stroke-width="0.03" stroke="#000000" fill="none"/>
<path d="M4.0903933169468605 2.7109515319598065L4.052154414807589 2.7236978326728973L4.039408114094497 2.7491904340990785L4.039408114094497 2.7746830355252596L4.052154414807589 2.8001756369514412L4.07764701623377 2.8129219376645316L4.128632219086132 2.825668238377622L4.1668711212254035 2.8384145390907127L4.192363722651585 2.8639071405168943L4.205110023364676 2.889399741943075L4.205110023364676 2.927638644082347L4.192363722651585 2.953131245508528L4.179617421938495 2.965877546221619L4.141378519799223 2.9786238469347097L4.0903933169468605 2.9786238469347097L4.052154414807589 2.965877546221619L4.039408114094497 2.953131245508528L4.026661813381407 2.927638644082347L4.026661813381407 2.889399741943075L4.039408114094497 2.8639071405168943L4.064900715520679 2.8384145390907127L4.10313961765995 2.825668238377622L4.154124820512314 2.8129219376645316L4.179617421938495 2.8001756369514412L4.192363722651585 2.7746830355252596L4.192363722651585 2.7491904340990785L4.179617421938495 2.7236978326728973L4.141378519799223 2.7109515319598065L4.0903933169468605 2.7109515319598065" stroke-width="0.03" stroke="#000000" fill="none"/>
<path d="M3.8737062048243196 2.7109515319598065L3.771735799119595 2.9786238469347097" stroke-width="0.03" stroke="#000000" fill="none"/>
<path d="M3.8099747012588665 2.889399741943075L3.9374377083897727 2.889399741943075" stroke-width="0.03" stroke="#000000" fill="none"/>
<path d="M3.9756766105290446 2.9786238469347097L3.8737062048243196 2.7109515319598065" stroke-width="0.03" stroke="#000000" fill="none"/>
<path d="M3.6570190927017796 2.8384145390907127L3.695257994841051 2.825668238377622L3.708004295554142 2.8129219376645316L3.7207505962672327 2.7874293362383504L3.7207505962672327 2.761936734812169L3.708004295554142 2.736444133385988L3.695257994841051 2.7236978326728973L3.6570190927017796 2.7109515319598065L3.542302386283964 2.7109515319598065L3.542302386283964 2.9786238469347097L3.6570190927017796 2.9786238469347097L3.695257994841051 2.965877546221619L3.708004295554142 2.953131245508528L3.7207505962672327 2.927638644082347L3.7207505962672327 2.889399741943075L3.708004295554142 2.8639071405168943L3.695257994841051 2.8511608398038035L3.6570190927017796 2.8384145390907127L3.542302386283964 2.8384145390907127" stroke-width="0.03" stroke="#000000" fill="none"/>
<path d="M3.338361574874514 2.7109515319598065L3.3001226727352426 2.7236978326728973L3.287376372022152 2.7491904340990785L3.287376372022152 2.7746830355252596L3.3001226727352426 2.8001756369514412L3.3256152741614233 2.8129219376645316L3.376600477013786 2.825668238377622L3.414839379153058 2.8384145390907127L3.440331980579239 2.8639071405168943L3.4530782812923295 2.889399741943075L3.4530782812923295 2.927638644082347L3.440331980579239 2.953131245508528L3.4275856798661484 2.965877546221619L3.3893467777268764 2.9786238469347097L3.338361574874514 2.9786238469347097L3.3001226727352426 2.965877546221619L3.287376372022152 2.953131245508528L3.274630071309061 2.927638644082347L3.274630071309061 2.889399741943075L3.287376372022152 2.8639071405168943L3.312868973448333 2.8384145390907127L3.351107875587605 2.825668238377622L3.402093078439967 2.8129219376645316L3.4275856798661484 2.8001756369514412L3.440331980579239 2.7746830355252596L3.440331980579239 2.7491904340990785L3.4275856798661484 2.7236978326728973L3.3893467777268764 2.7109515319598065L3.338361574874514 2.7109515319598065" stroke-width="0.03" stroke="#000000" fill="none"/>
<path d="M3.0834355606127017 2.7109515319598065L3.0451966584734302 2.7236978326728973L3.0324503577603394 2.7491904340990785L3.0324503577603394 2.7746830355252596L3.0451966584734302 2.8001756369514412L3.0706892598996114 2.8129219376645316L3.1216744627519737 2.825668238377622L3.1599133648912456 2.8384145390907127L3.185405966317427 2.8639071405168943L3.198152267030517 2.889399741943075L3.198152267030517 2.927638644082347L3.185405966317427 2.953131245508528L3.1726596656043364 2.965877546221619L3.1344207634650645 2.9786238469347097L3.0834355606127017 2.9786238469347097L3.0451966584734302 2.965877546221619L3.0324503577603394 2.953131245508528L3.0197040570472486 2.927638644082347L3.0197040570472486 2.889399741943075L3.0324503577603394 2.8639071405168943L3.057942959186521 2.8384145390907127L3.0961818613257925 2.825668238377622L3.147167064178155 2.8129219376645316L3.1726596656043364 2.8001756369514412L3.185405966317427 2.7746830355252596L3.185405966317427 2.7491904340990785L3.1726596656043364 2.7236978326728973L3.1344207634650645 2.7109515319598065L3.0834355606127017 2.7109515319598065" stroke-width="0.03" stroke="#000000" fill="none"/>
<path d="M2.82850954635089 2.7109515319598065L2.790270644211618 2.7236978326728973L2.777524343498527 2.7491904340990785L2.777524343498527 2.7746830355252596L2.790270644211618 2.8001756369514412L2.815763245637799 2.8129219376645316L2.8667484484901617 2.825668238377622L2.9049873506294333 2.8384145390907127L2.930479952055615 2.8639071405168943L2.943226252768705 2.889399741943075L2.943226252768705 2.927638644082347L2.930479952055615 2.953131245508528L2.917733651342524 2.965877546221619L2.879494749203252 2.9786238469347097L2.82850954635089 2.9786238469347097L2.790270644211618 2.965877546221619L2.777524343498527 2.953131245508528L2.7647780427854367 2.927638644082347L2.7647780427854367 2.889399741943075L2.777524343498527 2.8639071405168943L2.8030169449247087 2.8384145390907127L2.84125584706398 2.825668238377622L2.892241049916343 2.8129219376645316L2.917733651342524 2.8001756369514412L2.930479952055615 2.7746830355252596L2.930479952055615 2.7491904340990785L2.917733651342524 2.7236978326728973L2.879494749203252 2.7109515319598065L2.82850954635089 2.7109515319598065" stroke-width="0.03" stroke="#000000" fill="none"/>
<path d="M2.6755539377938025 2.8001756369514412L2.6628076370807117 2.8384145390907127L2.6373150356545305 2.8639071405168943L2.5990761335152586 2.8766534412299847L2.586329832802168 2.8766534412299847L2.5480909306628963 2.8639071405168943L2.522598329236715 2.8384145390907127L2.5098520285236243 2.8001756369514412L2.5098520285236243 2.7874293362383504L2.522598329236715 2.7491904340990785L2.5480909306628963 2.7236978326728973L2.586329832802168 2.7109515319598065L2.5990761335152586 2.7109515319598065L2.6373150356545305 2.7236978326728973L2.6628076370807117 2.7491904340990785L2.6755539377938025 2.8001756369514412L2.6755539377938025 2.8639071405168943L2.6628076370807117 2.927638644082347L2.6373150356545305 2.965877546221619L2.5990761335152586 2.9786238469347097L2.5735835320890774 2.9786238469347097L2.5353446299498055 2.965877546221619L2.522598329236715 2.9403849447954378" stroke-width="0.03" stroke="#000000" fill="none"/>
<path d="M2.433374224245081 2.9786238469347097L2.293164916401084 2.8001756369514412" stroke-width="0.03" stroke="#000000" fill="none"/>
<path d="M2.433374224245081 2.8001756369514412L2.293164916401084 2.9786238469347097" stroke-width="0.03" stroke="#000000" fill="none"/>
<path d="M2.1147167064178154 2.7109515319598065L2.076477804278544 2.7236978326728973L2.0509852028523623 2.761936734812169L2.038238902139272 2.825668238377622L2.038238902139272 2.8639071405168943L2.0509852028523623 2.927638644082347L2.076477804278544 2.965877546221619L2.1147167064178154 2.9786238469347097L2.140209307843997 2.9786238469347097L2.1784482099832685 2.965877546221619L2.2039408114094496 2.927638644082347L2.2166871121225404 2.8639071405168943L2.2166871121225404 2.825668238377622L2.2039408114094496 2.761936734812169L2.1784482099832685 2.7236978326728973L2.140209307843997 2.7109515319598065L2.1147167064178154 2.7109515319598065" stroke-width="0.03" stroke="#000000" fill="none"/>
</svg>
