<?xml version="1.0" standalone="no"?>
<svg width="21cm" height="29.7cm" version="1.1" xmlns="http://www.w3.org/2000/svg" viewBox="0.0 0.0 21.000001 29.700001">
<path d="M6.492187500000001 6.933986543532863L7.6171875 6.284467490694534L9.1640625 7.177556188347237L9.1640625 7.502315714766402L8.0390625 8.151834767604731L7.6875 7.948860063592752L7.6875 7.705290418778379L7.546875 7.624100537173588L7.40625 7.705290418778379L7.40625 7.948860063592752L7.546875 8.030049945197543L7.6875 7.948860063592752" stroke-width="0.03" stroke="#000000" fill="none"/>
<path d="M7.546875 8.030049945197543L7.546875 7.78648030038317L7.6875 7.705290418778379" stroke-width="0.03" stroke="#000000" fill="none"/>
<path d="M7.546875 7.78648030038317L7.40625 7.705290418778379" stroke-width="0.03" stroke="#000000" fill="none"/>
<path d="M7.40625 7.78648030038317L6.7734375 7.421125833161611L5.7890625 7.989455004395149" stroke-width="0.03" stroke="#000000" fill="none"/>
<path d="M5.296875 7.705290418778379L3.679687499999999 8.638974057233478L3.679687499999999 9.126113346862224L7.265625000000001 11.196455327784399L7.546875 11.034075564574817L7.546875 10.871695801365235L8.8828125 10.100391926119716L8.8828125 9.775632399700552L5.296875 7.705290418778379" stroke-width="0.03" stroke="#000000" fill="none"/>
<path d="M6.492187500000001 7.583505596371193L6.492187500000001 6.933986543532863L8.0390625 7.827075241185566L8.0390625 8.151834767604731" stroke-width="0.03" stroke="#000000" fill="none"/>
<path d="M8.0390625 7.827075241185566L9.1640625 7.177556188347237" stroke-width="0.03" stroke="#000000" fill="none"/>
<path d="M7.828125 6.406252313101721L9.796875 5.269593970634645L10.5 5.675543378658601L11.203125 5.269593970634645L13.171875 6.406252313101721" stroke-width="0.03" stroke="#000000" fill="none"/>
<path d="M13.382812500000002 6.284467490694534L11.835937500000002 7.177556188347237L11.835937500000002 7.502315714766402L12.9609375 8.151834767604731L13.3125 7.948860063592752L13.3125 7.705290418778379L13.453125 7.624100537173588L13.593750000000002 7.705290418778379L13.593750000000002 7.948860063592752L13.453125 8.030049945197543L13.3125 7.948860063592752" stroke-width="0.03" stroke="#000000" fill="none"/>
<path d="M13.453125 8.030049945197543L13.453125 7.78648030038317L13.3125 7.705290418778379" stroke-width="0.03" stroke="#000000" fill="none"/>
<path d="M13.453125 7.78648030038317L13.593750000000002 7.705290418778379" stroke-width="0.03" stroke="#000000" fill="none"/>
<path d="M13.593750000000002 7.78648030038317L14.2265625 7.421125833161611L15.2109375 7.989455004395149" stroke-width="0.03" stroke="#000000" fill="none"/>
<path d="M15.703125000000002 7.705290418778379L12.1171875 9.775632399700552L12.1171875 10.100391926119716L13.453125 10.871695801365235L13.453125 11.034075564574817L13.734375 11.196455327784399L17.320312500000004 9.126113346862224L17.320312500000004 8.638974057233478L15.703125000000002 7.705290418778379" stroke-width="0.03" stroke="#000000" fill="none"/>
<path d="M14.5078125 7.583505596371193L14.5078125 6.933986543532863L13.382812500000002 6.284467490694534" stroke-width="0.03" stroke="#000000" fill="none"/>
<path d="M14.5078125 6.933986543532863L12.9609375 7.827075241185566L12.9609375 8.151834767604731" stroke-width="0.03" stroke="#000000" fill="none"/>
<path d="M12.9609375 7.827075241185566L11.835937500000002 7.177556188347237" stroke-width="0.03" stroke="#000000" fill="none"/>
<path d="M12.1171875 9.775632399700552L13.734375 10.709316038155652L13.734375 11.196455327784399" stroke-width="0.03" stroke="#000000" fill="none"/>
<path d="M13.8046875 11.237050268586794L11.5546875 12.536088374263452L11.5546875 12.698468137473034L11.203125 12.495493433461057L11.203125 13.307392249508968" stroke-width="0.03" stroke="#000000" fill="none"/>
<path d="M11.4140625 13.18560742710178L10.5 13.713341657532922L9.5859375 13.18560742710178L9.515625 13.226202367904175L9.515625 13.46977201271855L10.218750000000002 13.875721420742504" stroke-width="0.03" stroke="#000000" fill="none"/>
<path d="M10.4296875 13.753936598335319L9.5859375 14.241075887964065L9.5859375 14.322265769568856L9.515625 14.362860710371251L9.4453125 14.322265769568856L9.515625 14.281670828766462L9.5859375 14.322265769568856" stroke-width="0.03" stroke="#000000" fill="none"/>
<path d="M9.515625 14.281670828766462L9.515625 14.200480947161669L9.5859375 14.241075887964065" stroke-width="0.03" stroke="#000000" fill="none"/>
<path d="M9.515625 14.362860710371251L9.515625 15.337139289628746L8.6015625 14.809405059197603L8.6015625 14.890594940802394L9.515625 15.418329171233536L9.515625 16.473797632095824L9.5859375 16.514392572898217L9.796875 16.39260775049103L9.796875 15.580708934443118" stroke-width="0.03" stroke="#000000" fill="none"/>
<path d="M9.5859375 15.458924112035932L9.5859375 16.514392572898217" stroke-width="0.03" stroke="#000000" fill="none"/>
<path d="M9.515625 16.230227987281445L8.8125 16.636177395305403L8.8125 19.23425360665872L9.0234375 19.356038429065904" stroke-width="0.03" stroke="#000000" fill="none"/>
<path d="M8.953125 19.477823251473097L8.53125 19.721392896287465L6.914062500000001 18.78770925783237L7.1953125 18.625329494622786L8.53125 19.3966333698683L8.671875 19.31544348826351L8.953125 19.477823251473097L8.953125 23.61850721331744L8.53125 23.862076858131815L6.914062500000001 22.928393219676718L6.914062500000001 18.78770925783237" stroke-width="0.03" stroke="#000000" fill="none"/>
<path d="M7.1953125 17.48867115215571L7.1953125 16.75796221771259L6.5625 16.39260775049103L6.5625 14.525240473580833" stroke-width="0.03" stroke="#000000" fill="none"/>
<path d="M6.421875 14.444050591976044L6.140625 14.606430355185626L6.140625 17.366886329748525L8.53125 18.747114317029972L8.8125 18.58473455382039" stroke-width="0.03" stroke="#000000" fill="none"/>
<path d="M8.8125 18.422354790610807L7.1953125 17.48867115215571" stroke-width="0.03" stroke="#000000" fill="none"/>
<path d="M7.1953125 17.24510150734134L7.0546875 17.163911625736546L7.0546875 16.83915209931738L6.7734375 16.6767723361078L6.7734375 16.514392572898217" stroke-width="0.03" stroke="#000000" fill="none"/>
<path d="M6.84375 16.717367276910196L6.84375 16.960936921724567L7.0546875 17.082721744131756" stroke-width="0.03" stroke="#000000" fill="none"/>
<path d="M6.84375 16.960936921724567L6.140625 17.366886329748525" stroke-width="0.03" stroke="#000000" fill="none"/>
<path d="M5.296875 15.986658342467075L5.578125 15.824278579257493L5.578125 14.281670828766462L5.71875 14.200480947161669L5.71875 13.875721420742504L2.1328124999999996 11.805379439820332L1.7109375000000002 12.048949084634705L1.7109375000000002 13.9163163615449L5.296875 15.986658342467075L5.296875 14.11929106555688L5.71875 13.875721420742504" stroke-width="0.03" stroke="#000000" fill="none"/>
<path d="M5.71875 13.794531539137715L5.71875 12.251923788646682L5.859375000000001 12.170733907041893L5.859375000000001 12.00835414383231L7.1953125 11.237050268586794L9.4453125 12.536088374263452L9.4453125 12.698468137473034L9.796875 12.495493433461057L9.796875 13.307392249508968" stroke-width="0.03" stroke="#000000" fill="none"/>
<path d="M9.796875 13.063822604694593L9.9375 12.982632723089804L10.5 13.307392249508968L11.0625 12.982632723089804L11.203125 13.063822604694593L10.640625 13.388582131113758L10.78125 13.46977201271855L10.78125 13.55096189432334" stroke-width="0.03" stroke="#000000" fill="none"/>
<path d="M10.78125 13.46977201271855L10.640625 13.55096189432334L10.5 13.46977201271855L10.359375 13.55096189432334L10.218750000000002 13.46977201271855L10.359375 13.388582131113758L9.796875 13.063822604694593" stroke-width="0.03" stroke="#000000" fill="none"/>
<path d="M9.796875 12.739063078275429L10.5 12.333113670251475L11.203125 12.739063078275429" stroke-width="0.03" stroke="#000000" fill="none"/>
<path d="M11.203125 12.495493433461057L13.453125 11.196455327784399L13.6640625 11.318240150191585" stroke-width="0.03" stroke="#000000" fill="none"/>
<path d="M13.8046875 11.237050268586794L15.140625 12.00835414383231L15.140625 12.170733907041893L15.28125 12.251923788646682L15.28125 13.794531539137715L13.031250000000002 15.093569644814371L12.890625000000002 15.012379763209582L12.890625000000002 15.418329171233536L12.187500000000002 15.012379763209582" stroke-width="0.03" stroke="#000000" fill="none"/>
<path d="M12.3984375 15.134164585616768L11.835937500000002 15.458924112035932L11.835937500000002 15.29654434882635L11.765625 15.255949408023953" stroke-width="0.03" stroke="#000000" fill="none"/>
<path d="M11.835937500000002 15.29654434882635L11.6953125 15.377734230431141L11.625000000000002 15.337139289628746" stroke-width="0.03" stroke="#000000" fill="none"/>
<path d="M11.6953125 15.377734230431141L11.6953125 15.540113993640723L11.5546875 15.621303875245514L11.5546875 15.783683638455097L11.6953125 15.702493756850306L11.6953125 16.352012809688635L11.835937500000002 16.270822928083845L11.835937500000002 15.621303875245514L12.3984375 15.29654434882635L12.3984375 15.134164585616768" stroke-width="0.03" stroke="#000000" fill="none"/>
<path d="M12.3984375 14.890594940802394L11.484375000000002 15.418329171233536L11.484375000000002 16.473797632095824L11.4140625 16.514392572898217L11.203125 16.39260775049103L11.203125 15.580708934443118" stroke-width="0.03" stroke="#000000" fill="none"/>
<path d="M11.4140625 15.458924112035932L10.570312500000002 15.946063401664679L10.570312500000002 16.02725328326947L10.5 15.986658342467075L10.4296875 16.02725328326947L10.4296875 15.946063401664679L10.5 15.905468460862282L10.570312500000002 15.946063401664679" stroke-width="0.03" stroke="#000000" fill="none"/>
<path d="M10.5 15.905468460862282L10.5 15.986658342467075" stroke-width="0.03" stroke="#000000" fill="none"/>
<path d="M10.5 16.067848224071867L10.8515625 15.864873520059888" stroke-width="0.03" stroke="#000000" fill="none"/>
<path d="M10.78125 15.824278579257493L10.78125 15.905468460862282" stroke-width="0.03" stroke="#000000" fill="none"/>
<path d="M10.7109375 15.783683638455097L11.4140625 15.377734230431141L11.4140625 14.56583541438323L11.90625 14.85" stroke-width="0.03" stroke="#000000" fill="none"/>
<path d="M12.187500000000002 14.687620236790417L11.484375000000002 15.093569644814371" stroke-width="0.03" stroke="#000000" fill="none"/>
<path d="M11.484375000000002 15.337139289628746L12.3984375 14.809405059197603L12.187500000000002 14.687620236790417" stroke-width="0.03" stroke="#000000" fill="none"/>
<path d="M12.3984375 14.809405059197603L12.3984375 14.890594940802394" stroke-width="0.03" stroke="#000000" fill="none"/>
<path d="M12.679687500000002 15.29654434882635L12.679687500000002 16.10844316487426L11.976562500000002 16.514392572898217" stroke-width="0.03" stroke="#000000" fill="none"/>
<path d="M12.187500000000002 16.636177395305403L11.835937500000002 16.83915209931738L11.976562500000002 16.920341980922174L11.976562500000002 19.51841819227549L10.640625 20.289722067521005L10.5 20.208532185916212L10.359375 20.289722067521005L9.0234375 19.51841819227549L9.0234375 16.920341980922174L9.1640625 16.83915209931738L8.8125 16.636177395305403" stroke-width="0.03" stroke="#000000" fill="none"/>
<path d="M9.0234375 16.514392572898217L8.3203125 16.10844316487426L8.3203125 15.29654434882635" stroke-width="0.03" stroke="#000000" fill="none"/>
<path d="M8.109375 15.418329171233536L8.8125 15.012379763209582" stroke-width="0.03" stroke="#000000" fill="none"/>
<path d="M8.6015625 15.134164585616768L8.6015625 15.29654434882635L9.1640625 15.621303875245514L9.1640625 16.270822928083845L9.3046875 16.352012809688635L9.3046875 15.702493756850306L9.4453125 15.783683638455097L9.515625 15.7430886976527" stroke-width="0.03" stroke="#000000" fill="none"/>
<path d="M9.4453125 15.783683638455097L9.4453125 15.621303875245514L9.515625 15.580708934443118" stroke-width="0.03" stroke="#000000" fill="none"/>
<path d="M9.4453125 15.621303875245514L9.3046875 15.540113993640723L9.3046875 15.377734230431141L9.1640625 15.29654434882635L9.234375 15.255949408023953" stroke-width="0.03" stroke="#000000" fill="none"/>
<path d="M9.1640625 15.29654434882635L9.1640625 15.458924112035932L8.6015625 15.134164585616768" stroke-width="0.03" stroke="#000000" fill="none"/>
<path d="M8.6015625 14.809405059197603L8.8125 14.687620236790417L9.515625 15.093569644814371" stroke-width="0.03" stroke="#000000" fill="none"/>
<path d="M9.796875 15.093569644814371L10.359375 14.768810118395209L10.359375 14.11929106555688" stroke-width="0.03" stroke="#000000" fill="none"/>
<path d="M10.218750000000002 14.200480947161669L10.218750000000002 14.687620236790417L9.796875 14.931189881604789" stroke-width="0.03" stroke="#000000" fill="none"/>
<path d="M9.796875 15.255949408023953L9.796875 14.444050591976044L10.5 14.038101183952087L11.203125 14.444050591976044L11.203125 15.255949408023953L10.5 15.661898816047911L9.796875 15.255949408023953" stroke-width="0.03" stroke="#000000" fill="none"/>
<path d="M9.9375 15.337139289628746L10.5 15.012379763209582L11.0625 15.337139289628746" stroke-width="0.03" stroke="#000000" fill="none"/>
<path d="M10.921875000000002 15.418329171233536L10.5 15.174759526419164L10.078125 15.418329171233536" stroke-width="0.03" stroke="#000000" fill="none"/>
<path d="M10.2890625 15.783683638455097L9.796875 16.067848224071867" stroke-width="0.03" stroke="#000000" fill="none"/>
<path d="M10.1484375 15.864873520059888L10.5 16.067848224071867" stroke-width="0.03" stroke="#000000" fill="none"/>
<path d="M10.4296875 15.946063401664679L9.5859375 15.458924112035932" stroke-width="0.03" stroke="#000000" fill="none"/>
<path d="M9.5859375 15.377734230431141L10.5 14.85L11.4140625 15.377734230431141" stroke-width="0.03" stroke="#000000" fill="none"/>
<path d="M11.4140625 15.458924112035932L11.4140625 16.514392572898217" stroke-width="0.03" stroke="#000000" fill="none"/>
<path d="M11.484375000000002 16.230227987281445L12.187500000000002 16.636177395305403L12.187500000000002 19.23425360665872L11.976562500000002 19.356038429065904" stroke-width="0.03" stroke="#000000" fill="none"/>
<path d="M12.046875 19.477823251473097L12.328125000000002 19.31544348826351L12.46875 19.3966333698683L13.8046875 18.625329494622786L14.0859375 18.78770925783237L14.0859375 22.928393219676718L12.46875 23.862076858131815L12.046875 23.61850721331744L12.046875 19.477823251473097L12.46875 19.721392896287465L14.0859375 18.78770925783237" stroke-width="0.03" stroke="#000000" fill="none"/>
<path d="M13.8046875 17.48867115215571L12.187500000000002 18.422354790610807" stroke-width="0.03" stroke="#000000" fill="none"/>
<path d="M12.187500000000002 18.58473455382039L12.46875 18.747114317029972L12.46875 19.3966333698683" stroke-width="0.03" stroke="#000000" fill="none"/>
<path d="M12.46875 19.721392896287465L12.46875 23.862076858131815" stroke-width="0.03" stroke="#000000" fill="none"/>
<path d="M11.90625 23.699697094922232L11.34375 24.024456621341397L10.5 23.53731733171265L10.5 22.80660839726953L9.65625 23.293747686898275L9.09375 22.96898816047911L9.09375 23.699697094922232L9.65625 24.024456621341397L10.5 23.53731733171265" stroke-width="0.03" stroke="#000000" fill="none"/>
<path d="M10.5 22.80660839726953L11.34375 23.293747686898275L11.90625 22.96898816047911L11.90625 23.699697094922232" stroke-width="0.03" stroke="#000000" fill="none"/>
<path d="M11.34375 24.024456621341397L11.34375 23.293747686898275" stroke-width="0.03" stroke="#000000" fill="none"/>
<path d="M11.625000000000002 22.80660839726953L11.625000000000002 22.157089344431203L11.484375000000002 22.07589946282641L11.484375000000002 21.42638040998808" stroke-width="0.03" stroke="#000000" fill="none"/>
<path d="M11.4140625 21.385785469185684L11.4140625 20.16793724511382L11.484375000000002 20.12734230431142L11.484375000000002 19.802582777892262" stroke-width="0.03" stroke="#000000" fill="none"/>
<path d="M11.484375000000002 20.12734230431142L12.046875 20.452101830730584" stroke-width="0.03" stroke="#000000" fill="none"/>
<path d="M12.046875 20.53329171233538L11.4140625 20.16793724511382" stroke-width="0.03" stroke="#000000" fill="none"/>
<path d="M11.203125 19.96496254110184L11.203125 22.238279226035992L11.484375000000002 22.07589946282641" stroke-width="0.03" stroke="#000000" fill="none"/>
<path d="M11.625000000000002 22.157089344431203L11.0625 22.481848870850367L12.046875 23.050178042083903" stroke-width="0.03" stroke="#000000" fill="none"/>
<path d="M11.203125 22.238279226035992L10.5 21.832329818012038L9.796875 22.238279226035992L9.515625 22.07589946282641L9.515625 21.42638040998808" stroke-width="0.03" stroke="#000000" fill="none"/>
<path d="M9.5859375 21.385785469185684L8.953125 21.751139936407245" stroke-width="0.03" stroke="#000000" fill="none"/>
<path d="M9.375 22.157089344431203L9.515625 22.07589946282641" stroke-width="0.03" stroke="#000000" fill="none"/>
<path d="M9.375 22.157089344431203L9.375 22.80660839726953" stroke-width="0.03" stroke="#000000" fill="none"/>
<path d="M8.953125 23.050178042083903L9.9375 22.481848870850367L9.375 22.157089344431203" stroke-width="0.03" stroke="#000000" fill="none"/>
<path d="M9.796875 22.238279226035992L9.796875 19.96496254110184" stroke-width="0.03" stroke="#000000" fill="none"/>
<path d="M9.5859375 20.16793724511382L8.953125 20.53329171233538" stroke-width="0.03" stroke="#000000" fill="none"/>
<path d="M8.953125 20.452101830730584L9.515625 20.12734230431142L9.515625 19.802582777892262" stroke-width="0.03" stroke="#000000" fill="none"/>
<path d="M9.515625 20.12734230431142L9.5859375 20.16793724511382L9.5859375 21.385785469185684" stroke-width="0.03" stroke="#000000" fill="none"/>
<path d="M10.218750000000002 21.994709581221617L10.5 22.157089344431203L10.78125 21.994709581221617" stroke-width="0.03" stroke="#000000" fill="none"/>
<path d="M10.5 21.832329818012038L10.5 17.610455974562896L10.359375 17.69164585616769L10.359375 20.289722067521005" stroke-width="0.03" stroke="#000000" fill="none"/>
<path d="M10.640625 20.289722067521005L10.640625 17.69164585616769L10.5 17.610455974562896" stroke-width="0.03" stroke="#000000" fill="none"/>
<path d="M10.640625 17.69164585616769L11.976562500000002 16.920341980922174" stroke-width="0.03" stroke="#000000" fill="none"/>
<path d="M12.679687500000002 16.10844316487426L11.835937500000002 15.621303875245514" stroke-width="0.03" stroke="#000000" fill="none"/>
<path d="M11.6953125 15.540113993640723L11.484375000000002 15.418329171233536" stroke-width="0.03" stroke="#000000" fill="none"/>
<path d="M11.484375000000002 15.337139289628746L11.484375000000002 14.362860710371251L11.5546875 14.322265769568856L11.484375000000002 14.281670828766462L11.4140625 14.322265769568856L11.4140625 14.241075887964065L10.570312500000002 13.753936598335319L11.484375000000002 13.226202367904175L11.484375000000002 13.46977201271855L10.78125 13.875721420742504" stroke-width="0.03" stroke="#000000" fill="none"/>
<path d="M10.640625 13.632151775928133L10.640625 13.55096189432334" stroke-width="0.03" stroke="#000000" fill="none"/>
<path d="M10.5 13.46977201271855L10.5 13.713341657532922" stroke-width="0.03" stroke="#000000" fill="none"/>
<path d="M10.4296875 13.753936598335319L9.515625 13.226202367904175" stroke-width="0.03" stroke="#000000" fill="none"/>
<path d="M9.796875 13.632151775928133L9.796875 14.200480947161669L10.5 13.794531539137715L11.203125 14.200480947161669L11.203125 13.632151775928133" stroke-width="0.03" stroke="#000000" fill="none"/>
<path d="M11.203125 14.038101183952087L11.5546875 14.241075887964065L11.5546875 14.647025295988021" stroke-width="0.03" stroke="#000000" fill="none"/>
<path d="M11.484375000000002 14.606430355185626L11.5546875 14.56583541438323" stroke-width="0.03" stroke="#000000" fill="none"/>
<path d="M11.484375000000002 14.362860710371251L11.4140625 14.322265769568856" stroke-width="0.03" stroke="#000000" fill="none"/>
<path d="M11.4140625 14.241075887964065L11.484375000000002 14.200480947161669L11.484375000000002 14.281670828766462" stroke-width="0.03" stroke="#000000" fill="none"/>
<path d="M11.273437500000002 14.078696124754483L11.203125 14.11929106555688" stroke-width="0.03" stroke="#000000" fill="none"/>
<path d="M11.203125 14.444050591976044L10.640625 14.768810118395209L10.640625 14.11929106555688" stroke-width="0.03" stroke="#000000" fill="none"/>
<path d="M10.78125 14.200480947161669L10.78125 14.687620236790417L11.203125 14.931189881604789" stroke-width="0.03" stroke="#000000" fill="none"/>
<path d="M11.203125 15.093569644814371L10.640625 14.768810118395209" stroke-width="0.03" stroke="#000000" fill="none"/>
<path d="M10.5 14.85L10.5 13.794531539137715" stroke-width="0.03" stroke="#000000" fill="none"/>
<path d="M10.359375 13.632151775928133L10.359375 13.55096189432334" stroke-width="0.03" stroke="#000000" fill="none"/>
<path d="M10.218750000000002 13.55096189432334L10.218750000000002 13.46977201271855" stroke-width="0.03" stroke="#000000" fill="none"/>
<path d="M10.5 13.307392249508968L10.5 12.333113670251475" stroke-width="0.03" stroke="#000000" fill="none"/>
<path d="M9.796875 12.495493433461057L7.546875 11.196455327784399L7.3359375 11.318240150191585" stroke-width="0.03" stroke="#000000" fill="none"/>
<path d="M7.265625000000001 11.196455327784399L7.265625000000001 10.709316038155652L8.8828125 9.775632399700552" stroke-width="0.03" stroke="#000000" fill="none"/>
<path d="M9.867187500000002 10.668721097353256L8.25 11.602404735808353" stroke-width="0.03" stroke="#000000" fill="none"/>
<path d="M8.109375 11.521214854203564L8.109375 11.196455327784399L10.5 9.816227340502948L12.890625000000002 11.196455327784399L12.890625000000002 11.521214854203564" stroke-width="0.03" stroke="#000000" fill="none"/>
<path d="M12.75 11.602404735808353L11.1328125 10.668721097353256L10.5 11.034075564574817L9.867187500000002 10.668721097353256" stroke-width="0.03" stroke="#000000" fill="none"/>
<path d="M10.078125 10.790505919760442L10.218750000000002 10.709316038155652L10.5 10.871695801365235L10.78125 10.709316038155652L10.921875000000002 10.790505919760442" stroke-width="0.03" stroke="#000000" fill="none"/>
<path d="M10.7109375 10.749910978958045L10.5 10.62812615655086L10.2890625 10.749910978958045" stroke-width="0.03" stroke="#000000" fill="none"/>
<path d="M10.5 10.62812615655086L10.5 9.816227340502948" stroke-width="0.03" stroke="#000000" fill="none"/>
<path d="M8.109375 11.196455327784399L7.546875 10.871695801365235" stroke-width="0.03" stroke="#000000" fill="none"/>
<path d="M7.265625000000001 10.709316038155652L3.679687499999999 8.638974057233478" stroke-width="0.03" stroke="#000000" fill="none"/>
<path d="M3.539062500000001 9.207303228467016L2.976562500000001 9.53206275488618L2.976562500000001 10.506341334143674L3.609375 10.871695801365235L2.765625 11.358835090993981L2.765625 12.00835414383231L2.1328124999999996 11.64299967661075L2.1328124999999996 10.99348062377242L2.976562500000001 10.506341334143674" stroke-width="0.03" stroke="#000000" fill="none"/>
<path d="M3.609375 10.871695801365235L3.609375 9.897417222107741L2.976562500000001 9.53206275488618" stroke-width="0.03" stroke="#000000" fill="none"/>
<path d="M3.539062500000001 9.207303228467016L4.171875 9.572657695688576L3.609375 9.897417222107741" stroke-width="0.03" stroke="#000000" fill="none"/>
<path d="M4.171875 9.897417222107741L4.734375 10.222176748526905L4.734375 10.384556511736488L4.453125 10.54693627494607L4.453125 11.358835090993981L8.109375 13.46977201271855L8.109375 13.307392249508968L9.4453125 12.536088374263452" stroke-width="0.03" stroke="#000000" fill="none"/>
<path d="M9.796875 14.038101183952087L9.4453125 14.241075887964065L9.4453125 14.647025295988021" stroke-width="0.03" stroke="#000000" fill="none"/>
<path d="M9.515625 14.606430355185626L9.4453125 14.56583541438323" stroke-width="0.03" stroke="#000000" fill="none"/>
<path d="M9.5859375 14.56583541438323L9.09375 14.85" stroke-width="0.03" stroke="#000000" fill="none"/>
<path d="M9.375 15.337139289628746L9.3046875 15.377734230431141" stroke-width="0.03" stroke="#000000" fill="none"/>
<path d="M9.3046875 15.540113993640723L9.515625 15.418329171233536" stroke-width="0.03" stroke="#000000" fill="none"/>
<path d="M9.5859375 15.377734230431141L9.5859375 14.56583541438323" stroke-width="0.03" stroke="#000000" fill="none"/>
<path d="M9.796875 14.444050591976044L10.359375 14.768810118395209" stroke-width="0.03" stroke="#000000" fill="none"/>
<path d="M10.5 15.012379763209582L10.5 15.661898816047911" stroke-width="0.03" stroke="#000000" fill="none"/>
<path d="M10.7109375 15.783683638455097L11.203125 16.067848224071867" stroke-width="0.03" stroke="#000000" fill="none"/>
<path d="M11.484375000000002 15.7430886976527L11.5546875 15.783683638455097" stroke-width="0.03" stroke="#000000" fill="none"/>
<path d="M11.5546875 15.621303875245514L11.484375000000002 15.580708934443118" stroke-width="0.03" stroke="#000000" fill="none"/>
<path d="M10.2890625 15.783683638455097L9.5859375 15.377734230431141" stroke-width="0.03" stroke="#000000" fill="none"/>
<path d="M9.1640625 15.621303875245514L8.3203125 16.10844316487426" stroke-width="0.03" stroke="#000000" fill="none"/>
<path d="M8.109375 15.418329171233536L8.109375 15.012379763209582L7.96875 15.093569644814371L5.71875 13.794531539137715" stroke-width="0.03" stroke="#000000" fill="none"/>
<path d="M5.859375000000001 13.875721420742504L5.859375000000001 14.11929106555688L8.109375 15.418329171233536" stroke-width="0.03" stroke="#000000" fill="none"/>
<path d="M7.96875 15.093569644814371L7.96875 13.55096189432334L5.71875 12.251923788646682" stroke-width="0.03" stroke="#000000" fill="none"/>
<path d="M5.859375000000001 12.00835414383231L8.109375 13.307392249508968" stroke-width="0.03" stroke="#000000" fill="none"/>
<path d="M8.109375 13.46977201271855L7.96875 13.55096189432334" stroke-width="0.03" stroke="#000000" fill="none"/>
<path d="M9.7265625 14.078696124754483L9.796875 14.11929106555688" stroke-width="0.03" stroke="#000000" fill="none"/>
<path d="M10.218750000000002 15.824278579257493L10.218750000000002 15.905468460862282" stroke-width="0.03" stroke="#000000" fill="none"/>
<path d="M9.0234375 16.920341980922174L10.359375 17.69164585616769" stroke-width="0.03" stroke="#000000" fill="none"/>
<path d="M8.53125 18.747114317029972L8.53125 19.3966333698683" stroke-width="0.03" stroke="#000000" fill="none"/>
<path d="M8.53125 19.721392896287465L8.53125 23.862076858131815" stroke-width="0.03" stroke="#000000" fill="none"/>
<path d="M9.65625 24.024456621341397L9.65625 23.293747686898275" stroke-width="0.03" stroke="#000000" fill="none"/>
<path d="M11.4140625 21.385785469185684L12.046875 21.751139936407245" stroke-width="0.03" stroke="#000000" fill="none"/>
<path d="M14.0859375 22.360064048443178L15.070312500000002 21.79173487720964L15.070312500000002 21.06102594276652" stroke-width="0.03" stroke="#000000" fill="none"/>
<path d="M15.140625 21.101620883568916L15.28125 21.020431001964123L15.28125 20.858051238754545L15.070312500000002 20.736266416347355L15.070312500000002 20.330317008323398L16.1953125 19.68079795548507L16.4765625 19.843177718694655L16.4765625 21.62935511400006L15.351562500000002 22.27887416683839L14.7890625 21.954114640419224" stroke-width="0.03" stroke="#000000" fill="none"/>
<path d="M15.351562500000002 22.27887416683839L15.351562500000002 20.492696771532984L15.070312500000002 20.330317008323398" stroke-width="0.03" stroke="#000000" fill="none"/>
<path d="M15.351562500000002 20.492696771532984L16.4765625 19.843177718694655" stroke-width="0.03" stroke="#000000" fill="none"/>
<path d="M16.4765625 21.385785469185684L18.4453125 20.249127126718612L18.4453125 19.437228310670697L19.1484375 19.03127890264674L19.1484375 16.75796221771259" stroke-width="0.03" stroke="#000000" fill="none"/>
<path d="M19.359375000000004 16.636177395305403L17.8125 17.529266092958107L17.53125 17.366886329748525L17.53125 16.067848224071867L17.882812500000004 15.864873520059888L17.882812500000004 15.702493756850306L18.0234375 15.621303875245514L18.234375 15.7430886976527L18.234375 15.905468460862282L18.09375 15.986658342467075L17.882812500000004 15.864873520059888" stroke-width="0.03" stroke="#000000" fill="none"/>
<path d="M17.882812500000004 15.702493756850306L18.09375 15.824278579257493L18.09375 15.986658342467075" stroke-width="0.03" stroke="#000000" fill="none"/>
<path d="M18.09375 15.824278579257493L18.234375 15.7430886976527" stroke-width="0.03" stroke="#000000" fill="none"/>
<path d="M18.1640625 15.702493756850306L18.796875 15.337139289628746L18.796875 14.200480947161669" stroke-width="0.03" stroke="#000000" fill="none"/>
<path d="M19.289062500000004 13.9163163615449L15.703125000000002 15.986658342467075L15.421875 15.824278579257493L15.421875 14.281670828766462L15.28125 14.200480947161669L15.28125 13.875721420742504L18.8671875 11.805379439820332L19.289062500000004 12.048949084634705L19.289062500000004 13.9163163615449" stroke-width="0.03" stroke="#000000" fill="none"/>
<path d="M18.796875 15.012379763209582L19.359375000000004 15.337139289628746L19.359375000000004 16.636177395305403" stroke-width="0.03" stroke="#000000" fill="none"/>
<path d="M19.359375000000004 15.337139289628746L17.8125 16.230227987281445L17.53125 16.067848224071867" stroke-width="0.03" stroke="#000000" fill="none"/>
<path d="M17.8125 16.230227987281445L17.8125 17.529266092958107" stroke-width="0.03" stroke="#000000" fill="none"/>
<path d="M15.703125000000002 15.986658342467075L15.703125000000002 14.11929106555688L15.28125 13.875721420742504" stroke-width="0.03" stroke="#000000" fill="none"/>
<path d="M15.140625 13.875721420742504L15.140625 14.11929106555688L12.890625000000002 15.418329171233536" stroke-width="0.03" stroke="#000000" fill="none"/>
<path d="M13.031250000000002 15.093569644814371L13.031250000000002 13.55096189432334L15.28125 12.251923788646682" stroke-width="0.03" stroke="#000000" fill="none"/>
<path d="M15.140625 12.00835414383231L12.890625000000002 13.307392249508968L12.890625000000002 13.46977201271855L13.031250000000002 13.55096189432334" stroke-width="0.03" stroke="#000000" fill="none"/>
<path d="M12.890625000000002 13.46977201271855L16.546875 11.358835090993981L17.25 11.764784499017935L17.25 12.0895440254371L17.390625 12.170733907041893L17.953125000000004 11.845974380622728" stroke-width="0.03" stroke="#000000" fill="none"/>
<path d="M18.234375 12.00835414383231L18.8671875 11.64299967661075L18.8671875 10.99348062377242L18.0234375 10.506341334143674L18.0234375 9.53206275488618L17.4609375 9.207303228467016L16.828125 9.572657695688576L17.390625 9.897417222107741L17.390625 10.871695801365235L18.234375 11.358835090993981L18.234375 12.00835414383231" stroke-width="0.03" stroke="#000000" fill="none"/>
<path d="M18.375 12.0895440254371L17.390625 11.521214854203564L17.390625 12.170733907041893" stroke-width="0.03" stroke="#000000" fill="none"/>
<path d="M17.25 12.0895440254371L16.6875 12.414303551856264" stroke-width="0.03" stroke="#000000" fill="none"/>
<path d="M16.617187500000004 12.37370861105387L15.5625 12.982632723089804L15.5625 13.063822604694593L15.28125 13.226202367904175" stroke-width="0.03" stroke="#000000" fill="none"/>
<path d="M15.28125 12.90144284148501L17.25 11.764784499017935" stroke-width="0.03" stroke="#000000" fill="none"/>
<path d="M16.828125 11.521214854203564L16.828125 11.196455327784399L16.546875 11.034075564574817" stroke-width="0.03" stroke="#000000" fill="none"/>
<path d="M16.546875 11.358835090993981L16.546875 10.54693627494607L16.265625 10.384556511736488L16.265625 10.222176748526905L16.828125 9.897417222107741" stroke-width="0.03" stroke="#000000" fill="none"/>
<path d="M16.828125 9.410277932478992L16.828125 10.54693627494607L16.265625 10.222176748526905" stroke-width="0.03" stroke="#000000" fill="none"/>
<path d="M16.265625 10.384556511736488L15.703125000000002 10.709316038155652" stroke-width="0.03" stroke="#000000" fill="none"/>
<path d="M15.703125000000002 10.790505919760442L14.648437500000002 11.399430031796376L14.578125 11.358835090993981L14.296875000000002 11.521214854203564" stroke-width="0.03" stroke="#000000" fill="none"/>
<path d="M14.578125 11.683594617413146L16.546875 10.54693627494607" stroke-width="0.03" stroke="#000000" fill="none"/>
<path d="M15.703125000000002 10.790505919760442L15.703125000000002 10.059796985317323" stroke-width="0.03" stroke="#000000" fill="none"/>
<path d="M14.648437500000002 10.668721097353256L14.648437500000002 11.399430031796376" stroke-width="0.03" stroke="#000000" fill="none"/>
<path d="M14.578125 11.358835090993981L14.578125 10.709316038155652" stroke-width="0.03" stroke="#000000" fill="none"/>
<path d="M13.734375 10.709316038155652L17.320312500000004 8.638974057233478" stroke-width="0.03" stroke="#000000" fill="none"/>
<path d="M18.0234375 9.53206275488618L17.390625 9.897417222107741" stroke-width="0.03" stroke="#000000" fill="none"/>
<path d="M18.0234375 10.506341334143674L17.390625 10.871695801365235" stroke-width="0.03" stroke="#000000" fill="none"/>
<path d="M18.234375 11.358835090993981L18.8671875 10.99348062377242" stroke-width="0.03" stroke="#000000" fill="none"/>
<path d="M19.289062500000004 12.048949084634705L15.703125000000002 14.11929106555688" stroke-width="0.03" stroke="#000000" fill="none"/>
<path d="M15.421875 14.281670828766462L14.859375 14.606430355185626L14.859375 17.366886329748525L12.46875 18.747114317029972" stroke-width="0.03" stroke="#000000" fill="none"/>
<path d="M13.8046875 17.48867115215571L13.8046875 16.75796221771259L14.437500000000002 16.39260775049103L14.437500000000002 14.525240473580833" stroke-width="0.03" stroke="#000000" fill="none"/>
<path d="M14.578125 14.444050591976044L14.859375 14.606430355185626" stroke-width="0.03" stroke="#000000" fill="none"/>
<path d="M15.5625 13.063822604694593L16.125 13.388582131113758" stroke-width="0.03" stroke="#000000" fill="none"/>
<path d="M16.1953125 13.347987190311363L15.5625 12.982632723089804" stroke-width="0.03" stroke="#000000" fill="none"/>
<path d="M16.617187500000004 12.37370861105387L17.25 12.739063078275429" stroke-width="0.03" stroke="#000000" fill="none"/>
<path d="M13.453125 10.871695801365235L12.890625000000002 11.196455327784399" stroke-width="0.03" stroke="#000000" fill="none"/>
<path d="M11.5546875 12.536088374263452L12.890625000000002 13.307392249508968" stroke-width="0.03" stroke="#000000" fill="none"/>
<path d="M11.484375000000002 13.226202367904175L11.4140625 13.18560742710178" stroke-width="0.03" stroke="#000000" fill="none"/>
<path d="M14.2265625 16.514392572898217L14.2265625 16.6767723361078L13.945312500000002 16.83915209931738L13.945312500000002 17.163911625736546L13.8046875 17.24510150734134" stroke-width="0.03" stroke="#000000" fill="none"/>
<path d="M13.945312500000002 17.082721744131756L14.15625 16.960936921724567L14.15625 16.717367276910196" stroke-width="0.03" stroke="#000000" fill="none"/>
<path d="M14.15625 16.960936921724567L14.859375 17.366886329748525" stroke-width="0.03" stroke="#000000" fill="none"/>
<path d="M15.070312500000002 20.736266416347355L14.9296875 20.81745629795215L14.9296875 20.97983606116173L15.140625 21.101620883568916L15.140625 20.939241120359334L14.9296875 20.81745629795215" stroke-width="0.03" stroke="#000000" fill="none"/>
<path d="M15.140625 20.939241120359334L15.28125 20.858051238754545" stroke-width="0.03" stroke="#000000" fill="none"/>
<path d="M6.914062500000001 22.360064048443178L5.9296875 21.79173487720964L5.9296875 21.06102594276652" stroke-width="0.03" stroke="#000000" fill="none"/>
<path d="M5.859375000000001 21.101620883568916L6.0703125 20.97983606116173L6.0703125 20.81745629795215L5.9296875 20.736266416347355L5.9296875 20.330317008323398L4.8046875 19.68079795548507L4.5234375 19.843177718694655L4.5234375 21.62935511400006L5.6484375 22.27887416683839L6.210937500000001 21.954114640419224" stroke-width="0.03" stroke="#000000" fill="none"/>
<path d="M5.6484375 22.27887416683839L5.6484375 20.492696771532984L5.9296875 20.330317008323398" stroke-width="0.03" stroke="#000000" fill="none"/>
<path d="M5.6484375 20.492696771532984L4.5234375 19.843177718694655" stroke-width="0.03" stroke="#000000" fill="none"/>
<path d="M4.5234375 21.385785469185684L2.5546875 20.249127126718612L2.5546875 19.437228310670697L1.8515625 19.03127890264674L1.8515625 16.75796221771259" stroke-width="0.03" stroke="#000000" fill="none"/>
<path d="M1.6406249999999998 16.636177395305403L1.6406249999999998 15.337139289628746L2.203125 15.012379763209582" stroke-width="0.03" stroke="#000000" fill="none"/>
<path d="M2.203125 15.337139289628746L2.203125 14.200480947161669" stroke-width="0.03" stroke="#000000" fill="none"/>
<path d="M2.203125 15.337139289628746L2.8359374999999996 15.702493756850306" stroke-width="0.03" stroke="#000000" fill="none"/>
<path d="M2.765625 15.7430886976527L2.976562500000001 15.621303875245514L3.1171875 15.702493756850306L3.1171875 15.864873520059888L2.90625 15.986658342467075L2.765625 15.905468460862282L2.765625 15.7430886976527L2.90625 15.824278579257493L2.90625 15.986658342467075" stroke-width="0.03" stroke="#000000" fill="none"/>
<path d="M2.90625 15.824278579257493L3.1171875 15.702493756850306" stroke-width="0.03" stroke="#000000" fill="none"/>
<path d="M3.1171875 15.864873520059888L3.46875 16.067848224071867L3.46875 17.366886329748525L3.1874999999999996 17.529266092958107L1.6406249999999998 16.636177395305403" stroke-width="0.03" stroke="#000000" fill="none"/>
<path d="M1.6406249999999998 15.337139289628746L3.1874999999999996 16.230227987281445L3.46875 16.067848224071867" stroke-width="0.03" stroke="#000000" fill="none"/>
<path d="M3.1874999999999996 16.230227987281445L3.1874999999999996 17.529266092958107" stroke-width="0.03" stroke="#000000" fill="none"/>
<path d="M5.296875 14.11929106555688L1.7109375000000002 12.048949084634705" stroke-width="0.03" stroke="#000000" fill="none"/>
<path d="M2.624999999999999 12.0895440254371L3.609375 11.521214854203564L3.609375 12.170733907041893L3.046875 11.845974380622728" stroke-width="0.03" stroke="#000000" fill="none"/>
<path d="M2.765625 11.358835090993981L2.1328124999999996 10.99348062377242" stroke-width="0.03" stroke="#000000" fill="none"/>
<path d="M3.7499999999999996 11.764784499017935L4.453125 11.358835090993981" stroke-width="0.03" stroke="#000000" fill="none"/>
<path d="M4.171875 11.196455327784399L4.453125 11.034075564574817" stroke-width="0.03" stroke="#000000" fill="none"/>
<path d="M4.171875 11.196455327784399L4.171875 11.521214854203564" stroke-width="0.03" stroke="#000000" fill="none"/>
<path d="M3.7499999999999996 11.764784499017935L3.7499999999999996 12.0895440254371L3.609375 12.170733907041893" stroke-width="0.03" stroke="#000000" fill="none"/>
<path d="M3.7499999999999996 12.0895440254371L4.3125 12.414303551856264" stroke-width="0.03" stroke="#000000" fill="none"/>
<path d="M4.382812499999999 12.37370861105387L3.7499999999999996 12.739063078275429" stroke-width="0.03" stroke="#000000" fill="none"/>
<path d="M4.382812499999999 12.37370861105387L5.4375 12.982632723089804L5.4375 13.063822604694593L4.875 13.388582131113758" stroke-width="0.03" stroke="#000000" fill="none"/>
<path d="M4.8046875 13.347987190311363L5.4375 12.982632723089804" stroke-width="0.03" stroke="#000000" fill="none"/>
<path d="M5.4375 13.063822604694593L5.71875 13.226202367904175" stroke-width="0.03" stroke="#000000" fill="none"/>
<path d="M5.71875 12.90144284148501L3.7499999999999996 11.764784499017935" stroke-width="0.03" stroke="#000000" fill="none"/>
<path d="M4.171875 10.54693627494607L4.734375 10.222176748526905" stroke-width="0.03" stroke="#000000" fill="none"/>
<path d="M4.734375 10.384556511736488L5.296875 10.709316038155652" stroke-width="0.03" stroke="#000000" fill="none"/>
<path d="M5.296875 10.790505919760442L5.296875 10.059796985317323" stroke-width="0.03" stroke="#000000" fill="none"/>
<path d="M5.296875 10.790505919760442L6.3515625 11.399430031796376L6.421875 11.358835090993981L6.703125 11.521214854203564" stroke-width="0.03" stroke="#000000" fill="none"/>
<path d="M6.421875 11.358835090993981L6.421875 10.709316038155652" stroke-width="0.03" stroke="#000000" fill="none"/>
<path d="M6.3515625 10.668721097353256L6.3515625 11.399430031796376" stroke-width="0.03" stroke="#000000" fill="none"/>
<path d="M6.421875 11.683594617413146L4.453125 10.54693627494607" stroke-width="0.03" stroke="#000000" fill="none"/>
<path d="M4.171875 10.54693627494607L4.171875 9.410277932478992" stroke-width="0.03" stroke="#000000" fill="none"/>
<path d="M5.578125 14.281670828766462L6.140625 14.606430355185626" stroke-width="0.03" stroke="#000000" fill="none"/>
<path d="M5.9296875 20.736266416347355L5.71875 20.858051238754545L5.71875 21.020431001964123L5.859375000000001 21.101620883568916L5.859375000000001 20.939241120359334L6.0703125 20.81745629795215" stroke-width="0.03" stroke="#000000" fill="none"/>
<path d="M5.859375000000001 20.939241120359334L5.71875 20.858051238754545" stroke-width="0.03" stroke="#000000" fill="none"/>
<path d="M4.064900715520679 2.9786238469347097L4.192363722651585 2.7109515319598065L4.013915512668317 2.7109515319598065" stroke-width="0.03" stroke="#000000" fill="none"/>
<path d="M3.835467302685048 2.7109515319598065L3.797228400545776 2.7236978326728973L3.771735799119595 2.761936734812169L3.758989498406504 2.825668238377622L3.758989498406504 2.8639071405168943L3.771735799119595 2.927638644082347L3.797228400545776 2.965877546221619L3.835467302685048 2.9786238469347097L3.8609599041112292 2.9786238469347097L3.899198806250501 2.965877546221619L3.9246914076766823 2.927638644082347L3.9374377083897727 2.8639071405168943L3.9374377083897727 2.825668238377622L3.9246914076766823 2.761936734812169L3.899198806250501 2.7236978326728973L3.8609599041112292 2.7109515319598065L3.835467302685048 2.7109515319598065" stroke-width="0.03" stroke="#000000" fill="none"/>
<path d="M3.695257994841051 2.7109515319598065L3.5295560855708734 2.7109515319598065L3.5295560855708734 2.9786238469347097L3.695257994841051 2.9786238469347097" stroke-width="0.03" stroke="#000000" fill="none"/>
<path d="M3.631526491275598 2.8384145390907127L3.5295560855708734 2.8384145390907127" stroke-width="0.03" stroke="#000000" fill="none"/>
<path d="M3.402093078439967 2.8384145390907127L3.3001226727352426 2.8384145390907127" stroke-width="0.03" stroke="#000000" fill="none"/>
<path d="M3.3001226727352426 2.7109515319598065L3.3001226727352426 2.9786238469347097" stroke-width="0.03" stroke="#000000" fill="none"/>
<path d="M3.3001226727352426 2.7109515319598065L3.4658245820054203 2.7109515319598065" stroke-width="0.03" stroke="#000000" fill="none"/>
<path d="M3.1089281620388833 2.7109515319598065L3.0706892598996114 2.7236978326728973L3.0451966584734302 2.761936734812169L3.0324503577603394 2.825668238377622L3.0324503577603394 2.8639071405168943L3.0451966584734302 2.927638644082347L3.0706892598996114 2.965877546221619L3.1089281620388833 2.9786238469347097L3.1344207634650645 2.9786238469347097L3.1726596656043364 2.965877546221619L3.198152267030517 2.927638644082347L3.210898567743608 2.8639071405168943L3.210898567743608 2.825668238377622L3.198152267030517 2.761936734812169L3.1726596656043364 2.7236978326728973L3.1344207634650645 2.7109515319598065L3.1089281620388833 2.7109515319598065" stroke-width="0.03" stroke="#000000" fill="none"/>
<path d="M2.777524343498527 2.7109515319598065L2.777524343498527 2.9786238469347097L2.8667484484901617 2.9786238469347097L2.9049873506294333 2.965877546221619L2.930479952055615 2.9403849447954378L2.943226252768705 2.9148923433692566L2.955972553481796 2.8766534412299847L2.955972553481796 2.8129219376645316L2.943226252768705 2.7746830355252596L2.930479952055615 2.7491904340990785L2.9049873506294333 2.7236978326728973L2.8667484484901617 2.7109515319598065L2.777524343498527 2.7109515319598065" stroke-width="0.03" stroke="#000000" fill="none"/>
<path d="M2.6755539377938025 2.8001756369514412L2.6628076370807117 2.8384145390907127L2.6373150356545305 2.8639071405168943L2.5990761335152586 2.8766534412299847L2.586329832802168 2.8766534412299847L2.5480909306628963 2.8639071405168943L2.522598329236715 2.8384145390907127L2.5098520285236243 2.8001756369514412L2.5098520285236243 2.7874293362383504L2.522598329236715 2.7491904340990785L2.5480909306628963 2.7236978326728973L2.586329832802168 2.7109515319598065L2.5990761335152586 2.7109515319598065L2.6373150356545305 2.7236978326728973L2.6628076370807117 2.7491904340990785L2.6755539377938025 2.8001756369514412L2.6755539377938025 2.8639071405168943L2.6628076370807117 2.927638644082347L2.6373150356545305 2.965877546221619L2.5990761335152586 2.9786238469347097L2.5735835320890774 2.9786238469347097L2.5353446299498055 2.965877546221619L2.522598329236715 2.9403849447954378" stroke-width="0.03" stroke="#000000" fill="none"/>
<path d="M2.433374224245081 2.9786238469347097L2.293164916401084 2.8001756369514412" stroke-width="0.03" stroke="#000000" fill="none"/>
<path d="M2.433374224245081 2.8001756369514412L2.293164916401084 2.9786238469347097" stroke-width="0.03" stroke="#000000" fill="none"/>
<path d="M2.1147167064178154 2.7109515319598065L2.076477804278544 2.7236978326728973L2.0509852028523623 2.761936734812169L2.038238902139272 2.825668238377622L2.038238902139272 2.8639071405168943L2.0509852028523623 2.927638644082347L2.076477804278544 2.965877546221619L2.1147167064178154 2.9786238469347097L2.140209307843997 2.9786238469347097L2.1784482099832685 2.965877546221619L2.2039408114094496 2.927638644082347L2.2166871121225404 2.8639071405168943L2.2166871121225404 2.825668238377622L2.2039408114094496 2.761936734812169L2.1784482099832685 2.7236978326728973L2.140209307843997 2.7109515319598065L2.1147167064178154 2.7109515319598065" stroke-width="0.03" stroke="#000000" fill="none"/>
<path d="M2.0824957911384305 2.015598694615191L2.0824957911384305 1.7268634256306838" stroke-width="0.03" stroke="#000000" fill="none"/>
<path d="M2.061871843353823 1.5824957911384305L2.0824957911384305 1.6031197389230383L2.1031197389230383 1.5824957911384305L2.0824957911384305 1.5618718433538228L2.061871843353823 1.5824957911384305" stroke-width="0.03" stroke="#000000" fill="none"/>
<path d="M2.226863425630684 1.953726851261368L2.2474873734152916 1.9949747468305832L2.3093592167691144 2.015598694615191L2.3712310601229376 2.015598694615191L2.4331029034767604 1.9949747468305832L2.4537268512613677 1.953726851261368L2.4537268512613677 1.9331029034767604L2.4331029034767604 1.891855007907545L2.391855007907545 1.8712310601229374L2.2887352689845066 1.8506071123383299L2.2474873734152916 1.8299831645537221L2.226863425630684 1.7887352689845069L2.2474873734152916 1.7474873734152916L2.3093592167691144 1.7268634256306838L2.3712310601229376 1.7268634256306838L2.4331029034767604 1.7474873734152916L2.4537268512613677 1.7887352689845069" stroke-width="0.03" stroke="#000000" fill="none"/>
<path d="M2.680590276892052 1.7268634256306838L2.6393423813228365 1.7474873734152916L2.5980944857536215 1.7887352689845069L2.5774705379690137 1.8506071123383299L2.5774705379690137 1.891855007907545L2.5980944857536215 1.953726851261368L2.6393423813228365 1.9949747468305832L2.680590276892052 2.015598694615191L2.7424621202458748 2.015598694615191L2.78371001581509 1.9949747468305832L2.8249579113843053 1.953726851261368L2.845581859168913 1.891855007907545L2.845581859168913 1.8506071123383299L2.8249579113843053 1.7887352689845069L2.78371001581509 1.7474873734152916L2.7424621202458748 1.7268634256306838L2.680590276892052 1.7268634256306838" stroke-width="0.03" stroke="#000000" fill="none"/>
<path d="M2.907453702522736 2.056846590184406L3.237436867076458 2.056846590184406" stroke-width="0.03" stroke="#000000" fill="none"/>
<path d="M3.2993087104302807 1.953726851261368L3.3199326582148885 1.9949747468305832L3.3818045015687113 2.015598694615191L3.443676344922534 2.015598694615191L3.5055481882763573 1.9949747468305832L3.526172136060965 1.953726851261368L3.526172136060965 1.9331029034767604L3.5055481882763573 1.891855007907545L3.464300292707142 1.8712310601229374L3.361180553784104 1.8506071123383299L3.3199326582148885 1.8299831645537221L3.2993087104302807 1.7887352689845069L3.3199326582148885 1.7474873734152916L3.3818045015687113 1.7268634256306838L3.443676344922534 1.7268634256306838L3.5055481882763573 1.7474873734152916L3.526172136060965 1.7887352689845069" stroke-width="0.03" stroke="#000000" fill="none"/>
<path d="M3.6705397705532183 1.8093592167691144L3.732411613907041 1.7474873734152916L3.773659509476256 1.7268634256306838L3.8355313528300794 1.7268634256306838L3.8767792483992944 1.7474873734152916L3.897403196183902 1.8093592167691144L3.897403196183902 2.015598694615191" stroke-width="0.03" stroke="#000000" fill="none"/>
<path d="M3.6705397705532183 2.015598694615191L3.6705397705532183 1.7268634256306838" stroke-width="0.03" stroke="#000000" fill="none"/>
<path d="M4.144890569599194 1.7268634256306838L4.103642674029978 1.7474873734152916L4.062394778460764 1.7887352689845069L4.041770830676155 1.8506071123383299L4.041770830676155 1.891855007907545L4.062394778460764 1.953726851261368L4.103642674029978 1.9949747468305832L4.144890569599194 2.015598694615191L4.206762412953017 2.015598694615191L4.2480103085222325 1.9949747468305832L4.289258204091447 1.953726851261368L4.309882151876055 1.891855007907545L4.309882151876055 1.8506071123383299L4.289258204091447 1.7887352689845069L4.2480103085222325 1.7474873734152916L4.206762412953017 1.7268634256306838L4.144890569599194 1.7268634256306838" stroke-width="0.03" stroke="#000000" fill="none"/>
<path d="M4.4336258385837 1.7268634256306838L4.516121629722131 2.015598694615191L4.5986174208605615 1.7268634256306838L4.681113211998992 2.015598694615191L4.7636090031374225 1.7268634256306838" stroke-width="0.03" stroke="#000000" fill="none"/>
<path d="M4.866728742060461 1.7268634256306838L5.011096376552715 1.7268634256306838" stroke-width="0.03" stroke="#000000" fill="none"/>
<path d="M5.031720324337321 1.5824957911384305L4.990472428768107 1.5824957911384305L4.949224533198891 1.6031197389230383L4.928600585414284 1.664991582276861L4.928600585414284 2.015598694615191" stroke-width="0.03" stroke="#000000" fill="none"/>
<path d="M5.155464011044968 2.015598694615191L5.155464011044968 1.5824957911384305" stroke-width="0.03" stroke="#000000" fill="none"/>
<path d="M5.547319018952512 1.7268634256306838L5.547319018952512 2.015598694615191" stroke-width="0.03" stroke="#000000" fill="none"/>
<path d="M5.547319018952512 1.953726851261368L5.506071123383298 1.9949747468305832L5.464823227814082 2.015598694615191L5.402951384460259 2.015598694615191L5.3617034888910435 1.9949747468305832L5.320455593321829 1.953726851261368L5.299831645537221 1.891855007907545L5.299831645537221 1.8506071123383299L5.320455593321829 1.7887352689845069L5.3617034888910435 1.7474873734152916L5.402951384460259 1.7268634256306838L5.464823227814082 1.7268634256306838L5.506071123383298 1.7474873734152916L5.547319018952512 1.7887352689845069" stroke-width="0.03" stroke="#000000" fill="none"/>
<path d="M5.712310601229374 1.9331029034767604L5.91855007907545 1.7268634256306838" stroke-width="0.03" stroke="#000000" fill="none"/>
<path d="M5.794806392367804 1.8506071123383299L5.939174026860058 2.015598694615191" stroke-width="0.03" stroke="#000000" fill="none"/>
<path d="M6.042293765783096 1.8506071123383299L6.2897811391983875 1.8506071123383299L6.2897811391983875 1.8093592167691144L6.26915719141378 1.7681113211998993L6.248533243629172 1.7474873734152916L6.207285348059957 1.7268634256306838L6.145413504706134 1.7268634256306838L6.104165609136919 1.7474873734152916L6.062917713567703 1.7887352689845069L6.042293765783096 1.8506071123383299L6.042293765783096 1.891855007907545L6.062917713567703 1.953726851261368L6.104165609136919 1.9949747468305832L6.145413504706134 2.015598694615191L6.207285348059957 2.015598694615191L6.248533243629172 1.9949747468305832L6.2897811391983875 1.953726851261368" stroke-width="0.03" stroke="#000000" fill="none"/>
<path d="M6.434148773690641 1.6856155300614688L6.434148773690641 1.664991582276861L6.454772721475249 1.6237436867076458L6.475396669259856 1.6031197389230383L6.516644564829072 1.5824957911384305L6.599140355967502 1.5824957911384305L6.640388251536717 1.6031197389230383L6.661012199321325 1.6237436867076458L6.681636147105933 1.664991582276861L6.681636147105933 1.7062394778460763L6.661012199321325 1.7474873734152916L6.61976430375211 1.8093592167691144L6.413524825906033 2.015598694615191L6.702260094890541 2.015598694615191" stroke-width="0.03" stroke="#000000" fill="none"/>
<path d="M7.264131938244363 2.2599663291074443L1.5 2.2599663291074443" stroke-width="0.03" stroke="#000000" fill="none"/>
<path d="M4.29433412835631 2.7109515319598065L4.434543436200307 2.7109515319598065L4.358065631921763 2.8129219376645316L4.396304534061034 2.8129219376645316L4.421797135487216 2.825668238377622L4.434543436200307 2.8384145390907127L4.4472897369133975 2.8766534412299847L4.4472897369133975 2.902146042656166L4.434543436200307 2.9403849447954378L4.409050834774126 2.965877546221619L4.370811932634854 2.9786238469347097L4.332573030495582 2.9786238469347097L4.29433412835631 2.965877546221619L4.28158782764322 2.953131245508528L4.268841526930129 2.927638644082347" stroke-width="0.03" stroke="#000000" fill="none"/>
<path d="M5.712310601229374 2.015598694615191L5.712310601229374 1.5824957911384305" stroke-width="0.03" stroke="#000000" fill="none"/>
</svg>
