<?xml version="1.0" standalone="no"?>
<svg width="21cm" height="29.7cm" version="1.1" xmlns="http://www.w3.org/2000/svg" viewBox="0.0 0.0 21.000001 29.700001">
<path d="M6.84375 7.136961247544841L7.265625000000001 6.893391602730468L10.5 8.760758879640663L13.734375 6.893391602730468L14.15625 7.136961247544841L14.15625 7.78648030038317L11.34375 9.410277932478992" stroke-width="0.03" stroke="#000000" fill="none"/>
<path d="M11.484375000000002 9.572657695688576L11.5546875 9.53206275488618L10.9921875 9.207303228467016L10.921875000000002 9.24789816926941L10.921875000000002 9.653847577293366L10.78125 9.735037458898159L10.5 9.572657695688576L10.5 8.923138642850246L10.78125 9.085518406059828L10.78125 9.735037458898159" stroke-width="0.03" stroke="#000000" fill="none"/>
<path d="M10.640625 9.653847577293366L10.640625 10.222176748526905" stroke-width="0.03" stroke="#000000" fill="none"/>
<path d="M10.5 10.303366630131695L13.6640625 8.476594294023895L14.015625 8.679568998035872L14.015625 9.24789816926941L13.453125 9.572657695688576" stroke-width="0.03" stroke="#000000" fill="none"/>
<path d="M13.593750000000002 9.491467814083784L15.6328125 10.668721097353256L15.6328125 10.831100860562838" stroke-width="0.03" stroke="#000000" fill="none"/>
<path d="M15.6328125 10.668721097353256L15.9140625 10.506341334143674L13.875 9.329088050874201" stroke-width="0.03" stroke="#000000" fill="none"/>
<path d="M14.015625 9.24789816926941L14.296875000000002 9.410277932478992L14.296875000000002 9.572657695688576" stroke-width="0.03" stroke="#000000" fill="none"/>
<path d="M14.296875000000002 9.410277932478992L14.15625 9.491467814083784" stroke-width="0.03" stroke="#000000" fill="none"/>
<path d="M14.437500000000002 9.410277932478992L14.437500000000002 9.24789816926941L14.718749999999998 9.085518406059828L16.96875 10.384556511736488L16.96875 10.54693627494607L16.6875 10.709316038155652L14.437500000000002 9.410277932478992" stroke-width="0.03" stroke="#000000" fill="none"/>
<path d="M14.437500000000002 9.24789816926941L16.6875 10.54693627494607L16.6875 10.709316038155652" stroke-width="0.03" stroke="#000000" fill="none"/>
<path d="M16.6875 10.54693627494607L16.96875 10.384556511736488" stroke-width="0.03" stroke="#000000" fill="none"/>
<path d="M15.9140625 10.506341334143674L15.9140625 10.99348062377242L15.773437500000002 11.074670505377211" stroke-width="0.03" stroke="#000000" fill="none"/>
<path d="M15.773437500000002 10.912290742167627L14.859375 11.44002497259877L14.859375 12.333113670251475L15.6328125 12.779658019077825L16.546875 12.251923788646682L15.773437500000002 11.805379439820332L15.773437500000002 10.912290742167627L13.242187500000002 9.450872873281389L12.328125000000002 9.97860710371253L12.328125000000002 10.54693627494607L13.382812500000002 11.155860386982003L13.382812500000002 11.805379439820332L13.031250000000002 12.00835414383231" stroke-width="0.03" stroke="#000000" fill="none"/>
<path d="M12.679687500000002 11.72418955821554L13.031250000000002 11.521214854203564L13.031250000000002 12.576683315065846" stroke-width="0.03" stroke="#000000" fill="none"/>
<path d="M12.3984375 12.942037782287407L12.187500000000002 12.820252959880222L12.1171875 12.860847900682616" stroke-width="0.03" stroke="#000000" fill="none"/>
<path d="M11.976562500000002 12.779658019077825L12.2578125 12.617278255868243L12.2578125 12.45489849265866L12.1171875 12.37370861105387L11.6953125 12.617278255868243" stroke-width="0.03" stroke="#000000" fill="none"/>
<path d="M11.835937500000002 12.698468137473034L12.2578125 12.45489849265866" stroke-width="0.03" stroke="#000000" fill="none"/>
<path d="M12.2578125 12.942037782287407L11.34375 13.46977201271855L11.34375 14.362860710371251L12.1171875 14.809405059197603L12.1171875 15.783683638455097L11.273437500000002 16.270822928083845L11.273437500000002 17.326291388946128L11.203125 17.28569644814373" stroke-width="0.03" stroke="#000000" fill="none"/>
<path d="M11.273437500000002 17.326291388946128L12.1171875 16.83915209931738L12.1171875 15.864873520059888L12.187500000000002 15.824278579257493L12.2578125 15.864873520059888L12.187500000000002 15.905468460862282L12.1171875 15.864873520059888" stroke-width="0.03" stroke="#000000" fill="none"/>
<path d="M12.1171875 15.783683638455097L11.835937500000002 15.621303875245514L11.835937500000002 14.890594940802394L11.6953125 14.809405059197603L11.5546875 14.890594940802394L11.5546875 15.458924112035932L11.0625 15.7430886976527L11.0625 15.905468460862282L11.203125 15.986658342467075L11.835937500000002 15.621303875245514" stroke-width="0.03" stroke="#000000" fill="none"/>
<path d="M11.6953125 15.540113993640723L11.203125 15.824278579257493L11.203125 15.986658342467075" stroke-width="0.03" stroke="#000000" fill="none"/>
<path d="M11.203125 15.824278579257493L11.0625 15.7430886976527" stroke-width="0.03" stroke="#000000" fill="none"/>
<path d="M10.5 15.824278579257493L9.7265625 16.270822928083845L9.7265625 17.326291388946128L8.8828125 16.83915209931738L8.8828125 15.864873520059888L8.8125 15.824278579257493L8.7421875 15.864873520059888L8.7421875 15.783683638455097L8.8125 15.7430886976527L7.96875 15.255949408023953L7.96875 14.281670828766462L8.0390625 14.241075887964065" stroke-width="0.03" stroke="#000000" fill="none"/>
<path d="M7.96875 14.281670828766462L8.8828125 14.809405059197603L9.65625 14.362860710371251L9.65625 13.46977201271855L8.7421875 12.942037782287407L9.5859375 12.45489849265866L10.4296875 12.942037782287407L10.5 12.90144284148501L10.5 12.820252959880222L10.570312500000002 12.860847900682616L12.9609375 11.480619913401167L13.031250000000002 11.521214854203564" stroke-width="0.03" stroke="#000000" fill="none"/>
<path d="M12.679687500000002 11.64299967661075L12.679687500000002 11.72418955821554" stroke-width="0.03" stroke="#000000" fill="none"/>
<path d="M12.679687500000002 11.64299967661075L12.609375 11.602404735808353L13.382812500000002 11.155860386982003" stroke-width="0.03" stroke="#000000" fill="none"/>
<path d="M12.679687500000002 11.318240150191585L10.8515625 12.37370861105387" stroke-width="0.03" stroke="#000000" fill="none"/>
<path d="M10.8515625 12.45489849265866L10.570312500000002 12.617278255868243L10.5 12.576683315065846L10.5 12.0895440254371L10.570312500000002 12.130138966239496L10.8515625 11.967759203029914L10.78125 11.927164262227517L12.679687500000002 10.831100860562838L12.679687500000002 11.318240150191585" stroke-width="0.03" stroke="#000000" fill="none"/>
<path d="M12.679687500000002 10.831100860562838L12.3984375 10.668721097353256L11.765625 11.034075564574817" stroke-width="0.03" stroke="#000000" fill="none"/>
<path d="M11.835937500000002 11.074670505377211L11.484375000000002 11.277645209389188L10.5 10.709316038155652L9.515625 11.277645209389188L9.1640625 11.074670505377211L9.1640625 11.155860386982003L9.515625 11.358835090993981L9.65625 11.277645209389188L10.5 11.764784499017935L11.34375 11.277645209389188L11.484375000000002 11.358835090993981L11.835937500000002 11.155860386982003L11.835937500000002 11.074670505377211L10.8515625 10.506341334143674L14.015625 8.679568998035872" stroke-width="0.03" stroke="#000000" fill="none"/>
<path d="M13.382812500000002 8.638974057233478L13.031250000000002 8.435999353221499" stroke-width="0.03" stroke="#000000" fill="none"/>
<path d="M12.75 9.004328524455037L12.3984375 8.80135382044306" stroke-width="0.03" stroke="#000000" fill="none"/>
<path d="M12.046875 9.004328524455037L12.3984375 9.207303228467016" stroke-width="0.03" stroke="#000000" fill="none"/>
<path d="M12.328125000000002 9.97860710371253L14.859375 11.44002497259877" stroke-width="0.03" stroke="#000000" fill="none"/>
<path d="M14.367187500000002 11.967759203029914L12.1171875 13.266797308706572L12.1171875 13.9163163615449L12.679687500000002 14.241075887964065L14.9296875 12.942037782287407L14.367187500000002 12.617278255868243L14.367187500000002 11.967759203029914L14.2265625 11.886569321425123L11.976562500000002 13.18560742710178L11.976562500000002 13.83512647994011L11.6953125 13.672746716730527L11.6953125 13.83512647994011L11.976562500000002 13.997506243149692L11.976562500000002 14.322265769568856L12.1171875 14.403455651173648L12.3984375 14.241075887964065" stroke-width="0.03" stroke="#000000" fill="none"/>
<path d="M12.679687500000002 14.241075887964065L12.679687500000002 14.403455651173648L12.1171875 14.078696124754483L12.1171875 14.403455651173648" stroke-width="0.03" stroke="#000000" fill="none"/>
<path d="M12.1171875 14.809405059197603L13.031250000000002 14.281670828766462L13.031250000000002 15.255949408023953L12.187500000000002 15.7430886976527L12.187500000000002 15.824278579257493" stroke-width="0.03" stroke="#000000" fill="none"/>
<path d="M12.2578125 15.864873520059888L12.2578125 15.783683638455097L12.187500000000002 15.7430886976527" stroke-width="0.03" stroke="#000000" fill="none"/>
<path d="M12.2578125 15.783683638455097L14.648437500000002 14.403455651173648L14.648437500000002 14.322265769568856L13.734375 13.794531539137715" stroke-width="0.03" stroke="#000000" fill="none"/>
<path d="M14.2265625 14.078696124754483L14.578125 13.875721420742504L15.140625 14.200480947161669L15.140625 15.418329171233536L15.6328125 15.702493756850306L16.546875 15.174759526419164L16.546875 12.251923788646682" stroke-width="0.03" stroke="#000000" fill="none"/>
<path d="M16.40625 12.170733907041893L16.546875 12.0895440254371L16.96875 12.333113670251475L16.96875 14.687620236790417" stroke-width="0.03" stroke="#000000" fill="none"/>
<path d="M17.109375 14.606430355185626L16.546875 14.931189881604789" stroke-width="0.03" stroke="#000000" fill="none"/>
<path d="M16.6875 14.85L16.6875 12.495493433461057L16.546875 12.414303551856264" stroke-width="0.03" stroke="#000000" fill="none"/>
<path d="M16.6875 12.495493433461057L16.96875 12.333113670251475" stroke-width="0.03" stroke="#000000" fill="none"/>
<path d="M17.320312500000004 11.64299967661075L17.6015625 11.480619913401167L17.4609375 11.399430031796376L17.1796875 11.561809795005958L17.1796875 14.159886006359274L17.320312500000004 14.241075887964065L17.6015625 14.078696124754483L17.6015625 11.480619913401167" stroke-width="0.03" stroke="#000000" fill="none"/>
<path d="M17.320312500000004 11.64299967661075L17.320312500000004 14.241075887964065" stroke-width="0.03" stroke="#000000" fill="none"/>
<path d="M17.109375 14.281670828766462L16.96875 14.362860710371251" stroke-width="0.03" stroke="#000000" fill="none"/>
<path d="M17.109375 14.281670828766462L17.109375 14.606430355185626L17.6015625 14.890594940802394L17.6015625 15.29654434882635L14.437500000000002 17.123316684934153L14.437500000000002 20.776861357149752L14.0859375 20.97983606116173L13.593750000000002 20.69567147554496L13.593750000000002 20.04615242270663" stroke-width="0.03" stroke="#000000" fill="none"/>
<path d="M13.593750000000002 20.208532185916212L11.5546875 21.385785469185684L11.4140625 21.304595587580895" stroke-width="0.03" stroke="#000000" fill="none"/>
<path d="M11.273437500000002 21.385785469185684L13.8046875 19.924367600299444L13.8046875 18.86889913943716L13.3125 18.58473455382039L12.2578125 19.193658665856326L11.6953125 18.86889913943716L11.6953125 18.462949731413204" stroke-width="0.03" stroke="#000000" fill="none"/>
<path d="M12.1171875 18.30056996820362L12.1171875 18.706519376227575L12.187500000000002 18.665924435425183L12.187500000000002 15.905468460862282" stroke-width="0.03" stroke="#000000" fill="none"/>
<path d="M12.3984375 16.02725328326947L12.46875 15.986658342467075L12.890625000000002 16.230227987281445L12.8203125 16.270822928083845L12.8203125 16.59558245450301L12.3984375 16.352012809688635L12.3984375 16.02725328326947L12.8203125 16.270822928083845" stroke-width="0.03" stroke="#000000" fill="none"/>
<path d="M12.890625000000002 16.230227987281445L12.890625000000002 16.14903810567666L13.171875 15.986658342467075L12.75 15.7430886976527L12.46875 15.905468460862282L12.46875 15.986658342467075" stroke-width="0.03" stroke="#000000" fill="none"/>
<path d="M12.46875 15.905468460862282L12.890625000000002 16.14903810567666" stroke-width="0.03" stroke="#000000" fill="none"/>
<path d="M13.171875 16.067848224071867L15.070312500000002 14.971784822407185L15.070312500000002 15.29654434882635L14.437500000000002 15.661898816047911" stroke-width="0.03" stroke="#000000" fill="none"/>
<path d="M14.437500000000002 15.580708934443118L14.0859375 15.783683638455097L14.0859375 16.920341980922174L13.1015625 17.48867115215571L13.1015625 17.894620560179668L14.0859375 17.326291388946128L14.0859375 20.97983606116173" stroke-width="0.03" stroke="#000000" fill="none"/>
<path d="M13.593750000000002 20.69567147554496L13.3125 20.858051238754545L13.171875 20.776861357149752" stroke-width="0.03" stroke="#000000" fill="none"/>
<path d="M13.3125 20.69567147554496L13.3125 20.858051238754545" stroke-width="0.03" stroke="#000000" fill="none"/>
<path d="M13.242187500000002 20.97983606116173L10.9921875 22.27887416683839L10.9921875 22.603633693257553L11.1328125 22.684823574862342L13.382812500000002 21.385785469185684L13.382812500000002 21.06102594276652L13.242187500000002 20.97983606116173" stroke-width="0.03" stroke="#000000" fill="none"/>
<path d="M13.382812500000002 21.06102594276652L11.1328125 22.360064048443178L10.9921875 22.27887416683839" stroke-width="0.03" stroke="#000000" fill="none"/>
<path d="M11.1328125 22.360064048443178L11.1328125 22.684823574862342" stroke-width="0.03" stroke="#000000" fill="none"/>
<path d="M11.5546875 21.71054499560485L13.593750000000002 20.53329171233538" stroke-width="0.03" stroke="#000000" fill="none"/>
<path d="M14.437500000000002 20.452101830730584L14.7890625 20.249127126718612" stroke-width="0.03" stroke="#000000" fill="none"/>
<path d="M14.437500000000002 19.721392896287465L14.7890625 19.51841819227549" stroke-width="0.03" stroke="#000000" fill="none"/>
<path d="M14.437500000000002 19.31544348826351L14.7890625 19.112468784251533" stroke-width="0.03" stroke="#000000" fill="none"/>
<path d="M14.578125 18.422354790610807L15.140625 18.097595264191643L15.140625 18.016405382586854L14.7890625 17.813430678574875L14.7890625 17.651050915365293L15.070312500000002 17.48867115215571L15.6328125 17.813430678574875L15.351562500000002 17.975810441784457L15.351562500000002 21.87292475881443L15.773437500000002 21.62935511400006L15.773437500000002 17.894620560179668L19.0078125 16.02725328326947L19.0078125 15.540113993640723L18.4453125 15.215354467221559L15.6328125 16.83915209931738" stroke-width="0.03" stroke="#000000" fill="none"/>
<path d="M15.5625 16.636177395305403L15.6328125 16.59558245450301L15.6328125 17.24510150734134L15.5625 17.28569644814373L15.2109375 17.082721744131756L15.070312500000002 17.163911625736546L15.070312500000002 17.48867115215571" stroke-width="0.03" stroke="#000000" fill="none"/>
<path d="M15.070312500000002 17.326291388946128L14.578125 17.04212680332936" stroke-width="0.03" stroke="#000000" fill="none"/>
<path d="M14.437500000000002 17.28569644814373L14.9296875 17.569861033760503" stroke-width="0.03" stroke="#000000" fill="none"/>
<path d="M14.7890625 17.651050915365293L15.351562500000002 17.975810441784457" stroke-width="0.03" stroke="#000000" fill="none"/>
<path d="M15.140625 18.016405382586854L14.578125 18.341164909006018L14.578125 18.422354790610807L14.437500000000002 18.341164909006018" stroke-width="0.03" stroke="#000000" fill="none"/>
<path d="M14.437500000000002 18.259975027401225L14.578125 18.341164909006018" stroke-width="0.03" stroke="#000000" fill="none"/>
<path d="M14.7890625 18.30056996820362L14.7890625 21.548165232395267L15.351562500000002 21.87292475881443" stroke-width="0.03" stroke="#000000" fill="none"/>
<path d="M16.1953125 20.492696771532984L16.3359375 20.41150688992819L16.3359375 20.330317008323398L15.773437500000002 20.005557481904233" stroke-width="0.03" stroke="#000000" fill="none"/>
<path d="M15.843750000000002 20.04615242270663L16.617187500000004 19.59960807388028L16.617187500000004 19.112468784251533L16.265625 18.909494080239554L15.773437500000002 19.193658665856326" stroke-width="0.03" stroke="#000000" fill="none"/>
<path d="M15.773437500000002 19.59960807388028L16.617187500000004 19.112468784251533" stroke-width="0.03" stroke="#000000" fill="none"/>
<path d="M16.546875 18.990683961844347L16.4765625 19.03127890264674" stroke-width="0.03" stroke="#000000" fill="none"/>
<path d="M16.546875 18.990683961844347L16.546875 18.341164909006018L17.109375 18.016405382586854L17.109375 17.93521550098206" stroke-width="0.03" stroke="#000000" fill="none"/>
<path d="M17.25 18.016405382586854L17.671875 17.77283573777248L17.671875 16.879747040119774" stroke-width="0.03" stroke="#000000" fill="none"/>
<path d="M17.6015625 16.83915209931738L18.1640625 17.163911625736546L18.234375 17.123316684934153L18.234375 16.960936921724567L17.8125 16.717367276910196" stroke-width="0.03" stroke="#000000" fill="none"/>
<path d="M17.7421875 16.75796221771259L18.1640625 17.001531862526964L18.1640625 17.163911625736546" stroke-width="0.03" stroke="#000000" fill="none"/>
<path d="M18.1640625 17.001531862526964L18.234375 16.960936921724567" stroke-width="0.03" stroke="#000000" fill="none"/>
<path d="M17.25 17.04212680332936L17.25 18.016405382586854L16.8984375 17.813430678574875L16.8984375 17.24510150734134" stroke-width="0.03" stroke="#000000" fill="none"/>
<path d="M16.3359375 16.433202691293424L16.3359375 16.02725328326947" stroke-width="0.03" stroke="#000000" fill="none"/>
<path d="M16.6875 16.230227987281445L16.6875 15.824278579257493" stroke-width="0.03" stroke="#000000" fill="none"/>
<path d="M17.320312500000004 15.864873520059888L17.320312500000004 15.458924112035932" stroke-width="0.03" stroke="#000000" fill="none"/>
<path d="M17.6015625 14.890594940802394L14.437500000000002 16.717367276910196L14.437500000000002 15.580708934443118L14.367187500000002 15.540113993640723L14.015625 15.7430886976527L14.015625 15.905468460862282L13.171875 16.39260775049103L13.171875 17.366886329748525L13.031250000000002 17.448076211353314L13.031250000000002 17.85402561937727L13.1015625 17.894620560179668" stroke-width="0.03" stroke="#000000" fill="none"/>
<path d="M13.171875 17.85402561937727L13.171875 18.58473455382039L12.890625000000002 18.747114317029972L12.46875 18.5035446722156L12.46875 16.39260775049103" stroke-width="0.03" stroke="#000000" fill="none"/>
<path d="M12.8203125 16.59558245450301L12.890625000000002 16.55498751370061L12.890625000000002 18.747114317029972" stroke-width="0.03" stroke="#000000" fill="none"/>
<path d="M13.593750000000002 18.747114317029972L13.593750000000002 17.610455974562896" stroke-width="0.03" stroke="#000000" fill="none"/>
<path d="M13.1015625 17.48867115215571L13.031250000000002 17.448076211353314" stroke-width="0.03" stroke="#000000" fill="none"/>
<path d="M13.171875 16.879747040119774L13.593750000000002 16.636177395305403L14.0859375 16.920341980922174" stroke-width="0.03" stroke="#000000" fill="none"/>
<path d="M13.593750000000002 16.636177395305403L13.593750000000002 16.14903810567666" stroke-width="0.03" stroke="#000000" fill="none"/>
<path d="M13.171875 16.067848224071867L13.171875 15.986658342467075" stroke-width="0.03" stroke="#000000" fill="none"/>
<path d="M12.8203125 15.783683638455097L14.648437500000002 14.728215177592812L15.070312500000002 14.971784822407185" stroke-width="0.03" stroke="#000000" fill="none"/>
<path d="M15.421875 15.580708934443118L14.437500000000002 16.14903810567666" stroke-width="0.03" stroke="#000000" fill="none"/>
<path d="M14.0859375 15.783683638455097L14.015625 15.7430886976527" stroke-width="0.03" stroke="#000000" fill="none"/>
<path d="M14.367187500000002 14.647025295988021L15.140625 14.200480947161669" stroke-width="0.03" stroke="#000000" fill="none"/>
<path d="M14.648437500000002 14.322265769568856L14.296875000000002 14.525240473580833L14.367187500000002 14.56583541438323L14.367187500000002 14.647025295988021" stroke-width="0.03" stroke="#000000" fill="none"/>
<path d="M13.453125 14.687620236790417L13.031250000000002 14.931189881604789" stroke-width="0.03" stroke="#000000" fill="none"/>
<path d="M13.031250000000002 14.768810118395209L13.453125 14.525240473580833L13.3125 14.444050591976044L13.031250000000002 14.606430355185626" stroke-width="0.03" stroke="#000000" fill="none"/>
<path d="M13.031250000000002 14.444050591976044L13.1015625 14.403455651173648L13.1015625 14.159886006359274" stroke-width="0.03" stroke="#000000" fill="none"/>
<path d="M13.031250000000002 14.281670828766462L12.9609375 14.241075887964065" stroke-width="0.03" stroke="#000000" fill="none"/>
<path d="M12.679687500000002 14.403455651173648L14.9296875 13.10441754549699L14.9296875 12.942037782287407" stroke-width="0.03" stroke="#000000" fill="none"/>
<path d="M14.859375 12.333113670251475L15.773437500000002 11.805379439820332" stroke-width="0.03" stroke="#000000" fill="none"/>
<path d="M15.6328125 12.779658019077825L15.6328125 15.702493756850306" stroke-width="0.03" stroke="#000000" fill="none"/>
<path d="M15.4921875 16.514392572898217L15.6328125 16.59558245450301" stroke-width="0.03" stroke="#000000" fill="none"/>
<path d="M15.5625 16.636177395305403L15.5625 17.28569644814373" stroke-width="0.03" stroke="#000000" fill="none"/>
<path d="M15.6328125 17.48867115215571L19.0078125 15.540113993640723" stroke-width="0.03" stroke="#000000" fill="none"/>
<path d="M17.109375 14.281670828766462L16.96875 14.200480947161669" stroke-width="0.03" stroke="#000000" fill="none"/>
<path d="M17.320312500000004 11.64299967661075L17.1796875 11.561809795005958" stroke-width="0.03" stroke="#000000" fill="none"/>
<path d="M14.367187500000002 12.617278255868243L12.1171875 13.9163163615449" stroke-width="0.03" stroke="#000000" fill="none"/>
<path d="M11.976562500000002 13.997506243149692L11.34375 14.362860710371251" stroke-width="0.03" stroke="#000000" fill="none"/>
<path d="M10.921875000000002 14.606430355185626L10.570312500000002 14.809405059197603L10.570312500000002 14.403455651173648" stroke-width="0.03" stroke="#000000" fill="none"/>
<path d="M10.5 14.362860710371251L10.078125 14.606430355185626L10.078125 15.093569644814371L10.5 15.337139289628746L10.921875000000002 15.093569644814371L10.921875000000002 14.606430355185626L10.5 14.362860710371251" stroke-width="0.03" stroke="#000000" fill="none"/>
<path d="M10.4296875 14.403455651173648L10.4296875 14.809405059197603L10.078125 15.012379763209582" stroke-width="0.03" stroke="#000000" fill="none"/>
<path d="M10.1484375 15.134164585616768L10.5 14.931189881604789L10.8515625 15.134164585616768" stroke-width="0.03" stroke="#000000" fill="none"/>
<path d="M10.921875000000002 15.012379763209582L10.570312500000002 14.809405059197603" stroke-width="0.03" stroke="#000000" fill="none"/>
<path d="M10.5 14.85L9.3046875 15.540113993640723L9.796875 15.824278579257493L9.796875 15.986658342467075L9.1640625 15.621303875245514L9.1640625 14.890594940802394L9.3046875 14.809405059197603L9.4453125 14.890594940802394L9.4453125 15.458924112035932L9.9375 15.7430886976527L9.9375 15.905468460862282L9.796875 15.986658342467075" stroke-width="0.03" stroke="#000000" fill="none"/>
<path d="M9.796875 15.824278579257493L9.9375 15.7430886976527" stroke-width="0.03" stroke="#000000" fill="none"/>
<path d="M10.5 15.824278579257493L10.5 16.55498751370061L10.78125 16.39260775049103L10.921875000000002 16.473797632095824L10.921875000000002 16.79855715851499" stroke-width="0.03" stroke="#000000" fill="none"/>
<path d="M11.0625 17.04212680332936L11.203125 16.960936921724567L10.640625 16.636177395305403L10.921875000000002 16.473797632095824" stroke-width="0.03" stroke="#000000" fill="none"/>
<path d="M11.273437500000002 16.270822928083845L10.5 15.824278579257493" stroke-width="0.03" stroke="#000000" fill="none"/>
<path d="M10.5 15.337139289628746L10.5 14.931189881604789" stroke-width="0.03" stroke="#000000" fill="none"/>
<path d="M10.5 14.85L10.5 13.46977201271855L10.0078125 13.753936598335319L10.0078125 13.9163163615449L10.5 13.632151775928133L10.9921875 13.9163163615449L11.1328125 13.83512647994011L11.1328125 13.672746716730527L10.5 13.307392249508968L9.867187500000002 13.672746716730527L9.867187500000002 13.83512647994011L10.0078125 13.9163163615449" stroke-width="0.03" stroke="#000000" fill="none"/>
<path d="M10.0078125 13.753936598335319L9.867187500000002 13.672746716730527" stroke-width="0.03" stroke="#000000" fill="none"/>
<path d="M9.65625 13.46977201271855L10.5 12.982632723089804L11.34375 13.46977201271855" stroke-width="0.03" stroke="#000000" fill="none"/>
<path d="M11.1328125 13.672746716730527L10.9921875 13.753936598335319L10.5 13.46977201271855" stroke-width="0.03" stroke="#000000" fill="none"/>
<path d="M10.5 13.307392249508968L10.5 12.982632723089804" stroke-width="0.03" stroke="#000000" fill="none"/>
<path d="M10.4296875 12.942037782287407L10.4296875 12.860847900682616L8.0390625 11.480619913401167L7.96875 11.521214854203564L7.96875 12.576683315065846" stroke-width="0.03" stroke="#000000" fill="none"/>
<path d="M7.96875 12.00835414383231L7.6171875 11.805379439820332L7.6171875 11.155860386982003L8.671875 10.54693627494607L8.671875 9.97860710371253L7.757812499999999 9.450872873281389L5.2265625 10.912290742167627L5.2265625 11.805379439820332L6.140625 12.333113670251475L5.3671875 12.779658019077825L4.453125 12.251923788646682L5.2265625 11.805379439820332" stroke-width="0.03" stroke="#000000" fill="none"/>
<path d="M5.2265625 11.074670505377211L5.0859375 10.99348062377242L5.0859375 10.506341334143674L7.125 9.329088050874201" stroke-width="0.03" stroke="#000000" fill="none"/>
<path d="M6.984375 9.24789816926941L6.703125 9.410277932478992L6.703125 9.572657695688576" stroke-width="0.03" stroke="#000000" fill="none"/>
<path d="M6.84375 9.491467814083784L6.703125 9.410277932478992" stroke-width="0.03" stroke="#000000" fill="none"/>
<path d="M6.5625 9.410277932478992L4.3125 10.709316038155652L4.03125 10.54693627494607L4.03125 10.384556511736488L6.28125 9.085518406059828L6.5625 9.24789816926941L6.5625 9.410277932478992" stroke-width="0.03" stroke="#000000" fill="none"/>
<path d="M6.5625 9.24789816926941L4.3125 10.54693627494607L4.3125 10.709316038155652" stroke-width="0.03" stroke="#000000" fill="none"/>
<path d="M4.3125 10.54693627494607L4.03125 10.384556511736488" stroke-width="0.03" stroke="#000000" fill="none"/>
<path d="M5.0859375 10.506341334143674L5.3671875 10.668721097353256L5.3671875 10.831100860562838" stroke-width="0.03" stroke="#000000" fill="none"/>
<path d="M5.2265625 10.912290742167627L6.140625 11.44002497259877L6.140625 12.333113670251475" stroke-width="0.03" stroke="#000000" fill="none"/>
<path d="M6.6328125 12.617278255868243L6.0703125 12.942037782287407L6.0703125 13.10441754549699L8.3203125 14.403455651173648L8.8828125 14.078696124754483L8.8828125 14.403455651173648L9.0234375 14.322265769568856L9.0234375 13.997506243149692L9.3046875 13.83512647994011L9.3046875 13.672746716730527L9.0234375 13.510366953520945" stroke-width="0.03" stroke="#000000" fill="none"/>
<path d="M8.8828125 13.266797308706572L9.0234375 13.18560742710178L6.7734375 11.886569321425123L6.6328125 11.967759203029914L6.6328125 12.617278255868243L8.8828125 13.9163163615449L8.3203125 14.241075887964065L8.3203125 14.403455651173648" stroke-width="0.03" stroke="#000000" fill="none"/>
<path d="M8.3203125 14.241075887964065L6.0703125 12.942037782287407" stroke-width="0.03" stroke="#000000" fill="none"/>
<path d="M5.3671875 12.779658019077825L5.3671875 15.702493756850306L4.453125 15.174759526419164L4.453125 12.251923788646682" stroke-width="0.03" stroke="#000000" fill="none"/>
<path d="M4.59375 12.170733907041893L4.453125 12.0895440254371L4.03125 12.333113670251475L4.03125 14.687620236790417" stroke-width="0.03" stroke="#000000" fill="none"/>
<path d="M3.8906249999999996 14.606430355185626L3.3984375 14.890594940802394L3.3984375 15.29654434882635L6.5625 17.123316684934153L6.5625 20.776861357149752L6.914062500000001 20.97983606116173L7.40625 20.69567147554496L7.40625 20.04615242270663" stroke-width="0.03" stroke="#000000" fill="none"/>
<path d="M7.40625 20.208532185916212L9.4453125 21.385785469185684L9.5859375 21.304595587580895" stroke-width="0.03" stroke="#000000" fill="none"/>
<path d="M9.7265625 21.385785469185684L10.5 20.939241120359334L11.273437500000002 21.385785469185684L11.273437500000002 20.330317008323398L13.8046875 18.86889913943716" stroke-width="0.03" stroke="#000000" fill="none"/>
<path d="M12.2578125 19.193658665856326L12.2578125 18.30056996820362L12.187500000000002 18.341164909006018L12.1171875 18.30056996820362" stroke-width="0.03" stroke="#000000" fill="none"/>
<path d="M12.1171875 18.706519376227575L11.203125 18.178785145796436" stroke-width="0.03" stroke="#000000" fill="none"/>
<path d="M11.203125 17.448076211353314L11.4140625 17.326291388946128L11.4140625 17.24510150734134" stroke-width="0.03" stroke="#000000" fill="none"/>
<path d="M11.5546875 17.163911625736546L11.5546875 17.48867115215571L11.6953125 17.569861033760503L11.835937500000002 17.48867115215571L11.835937500000002 17.001531862526964" stroke-width="0.03" stroke="#000000" fill="none"/>
<path d="M11.6953125 17.082721744131756L11.6953125 17.569861033760503" stroke-width="0.03" stroke="#000000" fill="none"/>
<path d="M11.203125 16.960936921724567L11.203125 19.559013133077883L11.0625 19.640203014682676L10.5 19.31544348826351L10.5 16.717367276910196L9.9375 17.04212680332936L9.9375 19.640203014682676L10.5 19.31544348826351" stroke-width="0.03" stroke="#000000" fill="none"/>
<path d="M10.5 19.883772659497048L9.7265625 20.330317008323398L7.1953125 18.86889913943716L7.6875 18.58473455382039L8.7421875 19.193658665856326L9.3046875 18.86889913943716L9.3046875 18.462949731413204" stroke-width="0.03" stroke="#000000" fill="none"/>
<path d="M8.8828125 18.30056996820362L8.8125 18.341164909006018L8.7421875 18.30056996820362L8.7421875 19.193658665856326" stroke-width="0.03" stroke="#000000" fill="none"/>
<path d="M8.8828125 18.706519376227575L9.796875 18.178785145796436" stroke-width="0.03" stroke="#000000" fill="none"/>
<path d="M9.796875 17.448076211353314L9.5859375 17.326291388946128L9.5859375 17.24510150734134" stroke-width="0.03" stroke="#000000" fill="none"/>
<path d="M9.7265625 17.326291388946128L9.796875 17.28569644814373" stroke-width="0.03" stroke="#000000" fill="none"/>
<path d="M9.9375 17.04212680332936L9.796875 16.960936921724567L10.359375 16.636177395305403L10.078125 16.473797632095824L10.078125 16.79855715851499" stroke-width="0.03" stroke="#000000" fill="none"/>
<path d="M9.796875 16.960936921724567L9.796875 19.559013133077883L9.9375 19.640203014682676" stroke-width="0.03" stroke="#000000" fill="none"/>
<path d="M10.5 19.883772659497048L10.5 20.939241120359334" stroke-width="0.03" stroke="#000000" fill="none"/>
<path d="M9.867187500000002 21.304595587580895L9.867187500000002 21.466975350790477L9.4453125 21.71054499560485L7.40625 20.53329171233538" stroke-width="0.03" stroke="#000000" fill="none"/>
<path d="M7.40625 20.69567147554496L7.6875 20.858051238754545L7.828125 20.776861357149752" stroke-width="0.03" stroke="#000000" fill="none"/>
<path d="M7.6875 20.69567147554496L7.6875 20.858051238754545" stroke-width="0.03" stroke="#000000" fill="none"/>
<path d="M7.757812499999999 20.97983606116173L7.6171875 21.06102594276652L7.6171875 21.385785469185684L9.867187500000002 22.684823574862342L10.0078125 22.603633693257553L10.0078125 22.27887416683839L7.757812499999999 20.97983606116173" stroke-width="0.03" stroke="#000000" fill="none"/>
<path d="M7.6171875 21.06102594276652L9.867187500000002 22.360064048443178L10.0078125 22.27887416683839" stroke-width="0.03" stroke="#000000" fill="none"/>
<path d="M9.867187500000002 22.360064048443178L9.867187500000002 22.684823574862342" stroke-width="0.03" stroke="#000000" fill="none"/>
<path d="M9.4453125 21.71054499560485L9.4453125 21.385785469185684" stroke-width="0.03" stroke="#000000" fill="none"/>
<path d="M9.7265625 21.385785469185684L9.7265625 20.330317008323398" stroke-width="0.03" stroke="#000000" fill="none"/>
<path d="M10.5 19.883772659497048L11.273437500000002 20.330317008323398" stroke-width="0.03" stroke="#000000" fill="none"/>
<path d="M11.0625 19.640203014682676L11.0625 17.04212680332936L10.5 16.717367276910196" stroke-width="0.03" stroke="#000000" fill="none"/>
<path d="M10.5 16.55498751370061L10.218750000000002 16.39260775049103L10.078125 16.473797632095824" stroke-width="0.03" stroke="#000000" fill="none"/>
<path d="M9.7265625 16.270822928083845L8.8828125 15.783683638455097L8.8828125 14.809405059197603" stroke-width="0.03" stroke="#000000" fill="none"/>
<path d="M9.1640625 14.890594940802394L9.3046875 14.971784822407185L9.3046875 15.540113993640723" stroke-width="0.03" stroke="#000000" fill="none"/>
<path d="M9.1640625 15.621303875245514L8.8828125 15.783683638455097" stroke-width="0.03" stroke="#000000" fill="none"/>
<path d="M8.8828125 15.864873520059888L8.8125 15.905468460862282L8.7421875 15.864873520059888" stroke-width="0.03" stroke="#000000" fill="none"/>
<path d="M8.8125 15.824278579257493L8.8125 15.7430886976527" stroke-width="0.03" stroke="#000000" fill="none"/>
<path d="M8.7421875 15.783683638455097L6.3515625 14.403455651173648L6.3515625 14.322265769568856L7.265625000000001 13.794531539137715" stroke-width="0.03" stroke="#000000" fill="none"/>
<path d="M6.7734375 14.078696124754483L6.421875 13.875721420742504L5.859375000000001 14.200480947161669L5.859375000000001 15.418329171233536L5.3671875 15.702493756850306" stroke-width="0.03" stroke="#000000" fill="none"/>
<path d="M5.578125 15.580708934443118L6.5625 16.14903810567666" stroke-width="0.03" stroke="#000000" fill="none"/>
<path d="M6.984375 15.905468460862282L6.984375 15.7430886976527L6.6328125 15.540113993640723L6.5625 15.580708934443118L6.5625 16.717367276910196L3.3984375 14.890594940802394" stroke-width="0.03" stroke="#000000" fill="none"/>
<path d="M3.8906249999999996 14.606430355185626L3.8906249999999996 14.281670828766462L4.03125 14.200480947161669" stroke-width="0.03" stroke="#000000" fill="none"/>
<path d="M4.03125 14.362860710371251L3.8906249999999996 14.281670828766462" stroke-width="0.03" stroke="#000000" fill="none"/>
<path d="M3.8203125000000004 14.159886006359274L3.679687499999999 14.241075887964065L3.3984375 14.078696124754483L3.3984375 11.480619913401167L3.539062500000001 11.399430031796376L3.8203125000000004 11.561809795005958L3.8203125000000004 14.159886006359274" stroke-width="0.03" stroke="#000000" fill="none"/>
<path d="M3.679687499999999 14.241075887964065L3.679687499999999 11.64299967661075L3.3984375 11.480619913401167" stroke-width="0.03" stroke="#000000" fill="none"/>
<path d="M3.679687499999999 11.64299967661075L3.8203125000000004 11.561809795005958" stroke-width="0.03" stroke="#000000" fill="none"/>
<path d="M4.03125 12.333113670251475L4.3125 12.495493433461057L4.3125 14.85" stroke-width="0.03" stroke="#000000" fill="none"/>
<path d="M4.453125 14.931189881604789L3.8906249999999996 14.606430355185626" stroke-width="0.03" stroke="#000000" fill="none"/>
<path d="M3.679687499999999 15.458924112035932L3.679687499999999 15.864873520059888" stroke-width="0.03" stroke="#000000" fill="none"/>
<path d="M4.3125 15.824278579257493L4.3125 16.230227987281445" stroke-width="0.03" stroke="#000000" fill="none"/>
<path d="M4.6640625 16.02725328326947L4.6640625 16.433202691293424" stroke-width="0.03" stroke="#000000" fill="none"/>
<path d="M5.3671875 16.59558245450301L5.5078125 16.514392572898217" stroke-width="0.03" stroke="#000000" fill="none"/>
<path d="M5.578125 16.55498751370061L5.4375 16.636177395305403L5.3671875 16.59558245450301L5.3671875 17.24510150734134L5.4375 17.28569644814373L5.7890625 17.082721744131756L5.9296875 17.163911625736546L5.9296875 17.48867115215571L5.3671875 17.813430678574875L5.6484375 17.975810441784457L6.210937500000001 17.651050915365293L6.210937500000001 17.813430678574875L5.859375000000001 18.016405382586854L5.859375000000001 18.097595264191643L6.421875 18.422354790610807L6.5625 18.341164909006018" stroke-width="0.03" stroke="#000000" fill="none"/>
<path d="M6.5625 18.259975027401225L6.421875 18.341164909006018L6.421875 18.422354790610807" stroke-width="0.03" stroke="#000000" fill="none"/>
<path d="M6.421875 18.341164909006018L5.859375000000001 18.016405382586854" stroke-width="0.03" stroke="#000000" fill="none"/>
<path d="M5.6484375 17.975810441784457L5.6484375 21.87292475881443L5.2265625 21.62935511400006L5.2265625 17.894620560179668L1.9921874999999998 16.02725328326947L1.9921874999999998 15.540113993640723L2.5546875 15.215354467221559L5.3671875 16.83915209931738" stroke-width="0.03" stroke="#000000" fill="none"/>
<path d="M5.4375 16.636177395305403L5.4375 17.28569644814373" stroke-width="0.03" stroke="#000000" fill="none"/>
<path d="M5.3671875 17.48867115215571L5.9296875 17.163911625736546" stroke-width="0.03" stroke="#000000" fill="none"/>
<path d="M5.9296875 17.326291388946128L6.421875 17.04212680332936" stroke-width="0.03" stroke="#000000" fill="none"/>
<path d="M6.5625 17.28569644814373L6.0703125 17.569861033760503" stroke-width="0.03" stroke="#000000" fill="none"/>
<path d="M6.210937500000001 17.651050915365293L5.9296875 17.48867115215571" stroke-width="0.03" stroke="#000000" fill="none"/>
<path d="M5.3671875 17.48867115215571L5.3671875 17.813430678574875" stroke-width="0.03" stroke="#000000" fill="none"/>
<path d="M5.3671875 17.48867115215571L1.9921874999999998 15.540113993640723" stroke-width="0.03" stroke="#000000" fill="none"/>
<path d="M2.765625 16.960936921724567L3.1874999999999996 16.717367276910196" stroke-width="0.03" stroke="#000000" fill="none"/>
<path d="M3.2578125 16.75796221771259L2.8359374999999996 17.001531862526964L2.8359374999999996 17.163911625736546L2.765625 17.123316684934153L2.765625 16.960936921724567L2.8359374999999996 17.001531862526964" stroke-width="0.03" stroke="#000000" fill="none"/>
<path d="M2.8359374999999996 17.163911625736546L3.3984375 16.83915209931738" stroke-width="0.03" stroke="#000000" fill="none"/>
<path d="M3.328125000000001 16.879747040119774L3.328125000000001 17.77283573777248L3.7499999999999996 18.016405382586854L4.1015625 17.813430678574875L4.1015625 17.24510150734134" stroke-width="0.03" stroke="#000000" fill="none"/>
<path d="M3.7499999999999996 17.04212680332936L3.7499999999999996 18.016405382586854" stroke-width="0.03" stroke="#000000" fill="none"/>
<path d="M3.8906249999999996 18.016405382586854L3.8906249999999996 17.93521550098206" stroke-width="0.03" stroke="#000000" fill="none"/>
<path d="M3.8906249999999996 18.016405382586854L4.453125 18.341164909006018L4.453125 18.990683961844347L4.5234375 19.03127890264674" stroke-width="0.03" stroke="#000000" fill="none"/>
<path d="M4.382812499999999 19.112468784251533L4.734375 18.909494080239554L5.2265625 19.193658665856326" stroke-width="0.03" stroke="#000000" fill="none"/>
<path d="M5.2265625 19.59960807388028L4.382812499999999 19.112468784251533L4.382812499999999 19.59960807388028L5.15625 20.04615242270663" stroke-width="0.03" stroke="#000000" fill="none"/>
<path d="M5.2265625 20.005557481904233L4.6640625 20.330317008323398L4.6640625 20.41150688992819L4.8046875 20.492696771532984L5.2265625 20.249127126718612" stroke-width="0.03" stroke="#000000" fill="none"/>
<path d="M5.2265625 20.16793724511382L4.8046875 20.41150688992819L4.8046875 20.492696771532984" stroke-width="0.03" stroke="#000000" fill="none"/>
<path d="M4.8046875 20.41150688992819L4.6640625 20.330317008323398" stroke-width="0.03" stroke="#000000" fill="none"/>
<path d="M6.210937500000001 20.249127126718612L6.5625 20.452101830730584" stroke-width="0.03" stroke="#000000" fill="none"/>
<path d="M6.914062500000001 20.97983606116173L6.914062500000001 17.326291388946128L7.898437500000001 17.894620560179668L7.96875 17.85402561937727L7.96875 17.448076211353314L7.828125 17.366886329748525L7.828125 16.39260775049103L6.984375 15.905468460862282" stroke-width="0.03" stroke="#000000" fill="none"/>
<path d="M6.914062500000001 15.783683638455097L6.984375 15.7430886976527" stroke-width="0.03" stroke="#000000" fill="none"/>
<path d="M6.914062500000001 15.783683638455097L6.914062500000001 16.920341980922174L7.898437500000001 17.48867115215571L7.898437500000001 17.894620560179668" stroke-width="0.03" stroke="#000000" fill="none"/>
<path d="M7.828125 17.85402561937727L7.828125 18.58473455382039L8.109375 18.747114317029972L8.53125 18.5035446722156L8.53125 16.39260775049103" stroke-width="0.03" stroke="#000000" fill="none"/>
<path d="M8.6015625 16.352012809688635L8.1796875 16.59558245450301L8.109375 16.55498751370061L8.109375 18.747114317029972" stroke-width="0.03" stroke="#000000" fill="none"/>
<path d="M7.40625 18.747114317029972L7.40625 17.610455974562896" stroke-width="0.03" stroke="#000000" fill="none"/>
<path d="M7.898437500000001 17.48867115215571L7.96875 17.448076211353314" stroke-width="0.03" stroke="#000000" fill="none"/>
<path d="M7.828125 16.879747040119774L7.40625 16.636177395305403L6.914062500000001 16.920341980922174" stroke-width="0.03" stroke="#000000" fill="none"/>
<path d="M7.40625 16.636177395305403L7.40625 16.14903810567666" stroke-width="0.03" stroke="#000000" fill="none"/>
<path d="M7.828125 16.067848224071867L7.828125 15.986658342467075L8.25 15.7430886976527L8.53125 15.905468460862282L8.53125 15.986658342467075L8.109375 16.230227987281445L8.1796875 16.270822928083845L8.1796875 16.59558245450301" stroke-width="0.03" stroke="#000000" fill="none"/>
<path d="M8.1796875 16.270822928083845L8.6015625 16.02725328326947L8.6015625 16.352012809688635" stroke-width="0.03" stroke="#000000" fill="none"/>
<path d="M8.6015625 16.02725328326947L8.53125 15.986658342467075" stroke-width="0.03" stroke="#000000" fill="none"/>
<path d="M8.53125 15.905468460862282L8.109375 16.14903810567666L8.109375 16.230227987281445" stroke-width="0.03" stroke="#000000" fill="none"/>
<path d="M8.109375 16.14903810567666L7.828125 15.986658342467075" stroke-width="0.03" stroke="#000000" fill="none"/>
<path d="M7.828125 16.067848224071867L5.9296875 14.971784822407185L6.3515625 14.728215177592812L8.1796875 15.783683638455097" stroke-width="0.03" stroke="#000000" fill="none"/>
<path d="M8.8125 15.905468460862282L8.8125 18.665924435425183L8.8828125 18.706519376227575L8.8828125 18.30056996820362" stroke-width="0.03" stroke="#000000" fill="none"/>
<path d="M9.3046875 17.569861033760503L9.4453125 17.48867115215571L9.4453125 17.163911625736546" stroke-width="0.03" stroke="#000000" fill="none"/>
<path d="M9.3046875 17.082721744131756L9.3046875 17.569861033760503L9.1640625 17.48867115215571L9.1640625 17.001531862526964" stroke-width="0.03" stroke="#000000" fill="none"/>
<path d="M9.3046875 14.971784822407185L9.4453125 14.890594940802394" stroke-width="0.03" stroke="#000000" fill="none"/>
<path d="M9.65625 14.362860710371251L9.0234375 13.997506243149692" stroke-width="0.03" stroke="#000000" fill="none"/>
<path d="M9.0234375 13.83512647994011L9.3046875 13.672746716730527" stroke-width="0.03" stroke="#000000" fill="none"/>
<path d="M9.0234375 13.83512647994011L9.0234375 13.18560742710178" stroke-width="0.03" stroke="#000000" fill="none"/>
<path d="M8.8828125 13.266797308706572L8.8828125 13.9163163615449" stroke-width="0.03" stroke="#000000" fill="none"/>
<path d="M8.6015625 14.241075887964065L8.8828125 14.403455651173648" stroke-width="0.03" stroke="#000000" fill="none"/>
<path d="M7.96875 14.444050591976044L7.898437500000001 14.403455651173648L7.898437500000001 14.159886006359274" stroke-width="0.03" stroke="#000000" fill="none"/>
<path d="M7.6875 14.444050591976044L7.546875 14.525240473580833L7.546875 14.687620236790417L7.96875 14.931189881604789" stroke-width="0.03" stroke="#000000" fill="none"/>
<path d="M7.96875 14.768810118395209L7.546875 14.525240473580833" stroke-width="0.03" stroke="#000000" fill="none"/>
<path d="M7.6875 14.444050591976044L7.96875 14.606430355185626" stroke-width="0.03" stroke="#000000" fill="none"/>
<path d="M6.703125 14.525240473580833L6.6328125 14.56583541438323L6.6328125 14.647025295988021L5.859375000000001 14.200480947161669" stroke-width="0.03" stroke="#000000" fill="none"/>
<path d="M6.3515625 14.322265769568856L6.703125 14.525240473580833" stroke-width="0.03" stroke="#000000" fill="none"/>
<path d="M5.9296875 14.971784822407185L5.9296875 15.29654434882635L6.5625 15.661898816047911" stroke-width="0.03" stroke="#000000" fill="none"/>
<path d="M6.5625 15.580708934443118L6.914062500000001 15.783683638455097" stroke-width="0.03" stroke="#000000" fill="none"/>
<path d="M6.210937500000001 18.30056996820362L6.210937500000001 21.548165232395267L5.6484375 21.87292475881443" stroke-width="0.03" stroke="#000000" fill="none"/>
<path d="M6.5625 19.721392896287465L6.210937500000001 19.51841819227549" stroke-width="0.03" stroke="#000000" fill="none"/>
<path d="M6.5625 19.31544348826351L6.210937500000001 19.112468784251533" stroke-width="0.03" stroke="#000000" fill="none"/>
<path d="M7.1953125 18.86889913943716L7.1953125 19.924367600299444L9.7265625 21.385785469185684" stroke-width="0.03" stroke="#000000" fill="none"/>
<path d="M11.1328125 21.304595587580895L11.1328125 21.466975350790477L11.5546875 21.71054499560485L11.5546875 21.385785469185684" stroke-width="0.03" stroke="#000000" fill="none"/>
<path d="M15.773437500000002 20.249127126718612L16.1953125 20.492696771532984L16.1953125 20.41150688992819L16.3359375 20.330317008323398" stroke-width="0.03" stroke="#000000" fill="none"/>
<path d="M16.1953125 20.41150688992819L15.773437500000002 20.16793724511382" stroke-width="0.03" stroke="#000000" fill="none"/>
<path d="M15.6328125 17.813430678574875L15.6328125 17.48867115215571L15.070312500000002 17.163911625736546" stroke-width="0.03" stroke="#000000" fill="none"/>
<path d="M15.421875 16.55498751370061L15.5625 16.636177395305403" stroke-width="0.03" stroke="#000000" fill="none"/>
<path d="M13.453125 14.687620236790417L13.453125 14.525240473580833" stroke-width="0.03" stroke="#000000" fill="none"/>
<path d="M11.835937500000002 14.890594940802394L11.6953125 14.971784822407185L11.5546875 14.890594940802394" stroke-width="0.03" stroke="#000000" fill="none"/>
<path d="M11.6953125 14.971784822407185L11.6953125 15.540113993640723L10.5 14.85" stroke-width="0.03" stroke="#000000" fill="none"/>
<path d="M10.4296875 14.809405059197603L10.078125 14.606430355185626" stroke-width="0.03" stroke="#000000" fill="none"/>
<path d="M10.1484375 14.647025295988021L10.078125 14.687620236790417" stroke-width="0.03" stroke="#000000" fill="none"/>
<path d="M10.1484375 14.647025295988021L10.1484375 14.56583541438323" stroke-width="0.03" stroke="#000000" fill="none"/>
<path d="M10.8515625 14.56583541438323L10.8515625 14.647025295988021L10.921875000000002 14.687620236790417" stroke-width="0.03" stroke="#000000" fill="none"/>
<path d="M10.570312500000002 15.29654434882635L10.5 15.255949408023953L10.4296875 15.29654434882635" stroke-width="0.03" stroke="#000000" fill="none"/>
<path d="M10.9921875 13.9163163615449L10.9921875 13.753936598335319" stroke-width="0.03" stroke="#000000" fill="none"/>
<path d="M11.6953125 13.672746716730527L11.976562500000002 13.510366953520945" stroke-width="0.03" stroke="#000000" fill="none"/>
<path d="M12.1171875 13.266797308706572L11.976562500000002 13.18560742710178" stroke-width="0.03" stroke="#000000" fill="none"/>
<path d="M12.2578125 13.023227663892198L12.2578125 12.942037782287407L11.4140625 12.45489849265866L10.570312500000002 12.942037782287407L10.5 12.90144284148501" stroke-width="0.03" stroke="#000000" fill="none"/>
<path d="M10.5 12.820252959880222L10.4296875 12.860847900682616" stroke-width="0.03" stroke="#000000" fill="none"/>
<path d="M10.570312500000002 12.860847900682616L10.570312500000002 12.942037782287407" stroke-width="0.03" stroke="#000000" fill="none"/>
<path d="M10.570312500000002 12.617278255868243L10.570312500000002 12.130138966239496" stroke-width="0.03" stroke="#000000" fill="none"/>
<path d="M10.5 12.0895440254371L10.4296875 12.130138966239496L10.4296875 12.617278255868243L10.1484375 12.45489849265866L10.1484375 11.967759203029914L10.218750000000002 11.927164262227517L8.3203125 10.831100860562838L8.3203125 11.318240150191585L10.1484375 12.37370861105387" stroke-width="0.03" stroke="#000000" fill="none"/>
<path d="M10.4296875 12.617278255868243L10.5 12.576683315065846" stroke-width="0.03" stroke="#000000" fill="none"/>
<path d="M10.8515625 12.45489849265866L10.8515625 11.967759203029914" stroke-width="0.03" stroke="#000000" fill="none"/>
<path d="M10.921875000000002 11.521214854203564L10.5 11.277645209389188L10.5 10.709316038155652" stroke-width="0.03" stroke="#000000" fill="none"/>
<path d="M10.1484375 10.506341334143674L9.1640625 11.074670505377211" stroke-width="0.03" stroke="#000000" fill="none"/>
<path d="M9.234375 11.034075564574817L8.6015625 10.668721097353256L8.3203125 10.831100860562838" stroke-width="0.03" stroke="#000000" fill="none"/>
<path d="M8.671875 10.222176748526905L9.65625 10.790505919760442" stroke-width="0.03" stroke="#000000" fill="none"/>
<path d="M9.515625 11.277645209389188L9.515625 11.358835090993981" stroke-width="0.03" stroke="#000000" fill="none"/>
<path d="M10.078125 11.521214854203564L10.5 11.277645209389188" stroke-width="0.03" stroke="#000000" fill="none"/>
<path d="M10.1484375 11.967759203029914L10.4296875 12.130138966239496" stroke-width="0.03" stroke="#000000" fill="none"/>
<path d="M9.3046875 12.617278255868243L8.8828125 12.37370861105387L8.7421875 12.45489849265866L8.7421875 12.617278255868243L9.0234375 12.779658019077825" stroke-width="0.03" stroke="#000000" fill="none"/>
<path d="M8.8828125 12.860847900682616L8.8125 12.820252959880222L8.6015625 12.942037782287407" stroke-width="0.03" stroke="#000000" fill="none"/>
<path d="M8.7421875 12.942037782287407L8.7421875 13.023227663892198" stroke-width="0.03" stroke="#000000" fill="none"/>
<path d="M8.8828125 13.266797308706572L6.6328125 11.967759203029914" stroke-width="0.03" stroke="#000000" fill="none"/>
<path d="M6.140625 11.44002497259877L8.671875 9.97860710371253" stroke-width="0.03" stroke="#000000" fill="none"/>
<path d="M8.6015625 9.207303228467016L8.953125 9.004328524455037" stroke-width="0.03" stroke="#000000" fill="none"/>
<path d="M8.6015625 8.80135382044306L8.25 9.004328524455037" stroke-width="0.03" stroke="#000000" fill="none"/>
<path d="M7.96875 8.435999353221499L7.6171875 8.638974057233478" stroke-width="0.03" stroke="#000000" fill="none"/>
<path d="M7.3359375 8.476594294023895L6.984375 8.679568998035872L6.984375 9.24789816926941L7.546875 9.572657695688576" stroke-width="0.03" stroke="#000000" fill="none"/>
<path d="M7.40625 9.491467814083784L5.3671875 10.668721097353256" stroke-width="0.03" stroke="#000000" fill="none"/>
<path d="M4.453125 12.414303551856264L4.3125 12.495493433461057" stroke-width="0.03" stroke="#000000" fill="none"/>
<path d="M7.6171875 11.155860386982003L8.390625 11.602404735808353L8.3203125 11.64299967661075L8.3203125 11.72418955821554L7.96875 11.521214854203564" stroke-width="0.03" stroke="#000000" fill="none"/>
<path d="M8.7421875 12.45489849265866L9.1640625 12.698468137473034" stroke-width="0.03" stroke="#000000" fill="none"/>
<path d="M10.1484375 10.506341334143674L6.984375 8.679568998035872" stroke-width="0.03" stroke="#000000" fill="none"/>
<path d="M7.3359375 8.476594294023895L10.5 10.303366630131695" stroke-width="0.03" stroke="#000000" fill="none"/>
<path d="M10.359375 10.222176748526905L10.359375 9.653847577293366" stroke-width="0.03" stroke="#000000" fill="none"/>
<path d="M10.5 9.572657695688576L10.218750000000002 9.735037458898159L10.078125 9.653847577293366L10.078125 9.24789816926941L10.0078125 9.207303228467016L9.4453125 9.53206275488618L9.4453125 9.694442518095762" stroke-width="0.03" stroke="#000000" fill="none"/>
<path d="M9.515625 9.735037458898159L9.515625 9.572657695688576L9.4453125 9.53206275488618" stroke-width="0.03" stroke="#000000" fill="none"/>
<path d="M9.515625 9.572657695688576L10.078125 9.24789816926941" stroke-width="0.03" stroke="#000000" fill="none"/>
<path d="M10.218750000000002 9.085518406059828L10.5 8.923138642850246" stroke-width="0.03" stroke="#000000" fill="none"/>
<path d="M10.218750000000002 9.085518406059828L10.218750000000002 9.735037458898159" stroke-width="0.03" stroke="#000000" fill="none"/>
<path d="M10.218750000000002 9.085518406059828L6.84375 7.136961247544841L6.84375 7.78648030038317L9.65625 9.410277932478992" stroke-width="0.03" stroke="#000000" fill="none"/>
<path d="M10.78125 9.085518406059828L14.15625 7.136961247544841" stroke-width="0.03" stroke="#000000" fill="none"/>
<path d="M12.539062500000002 7.096366306742446L12.46875 7.136961247544841L12.328125000000002 7.05577136594005L12.3984375 7.015176425137655L12.539062500000002 7.096366306742446L12.539062500000002 7.583505596371193" stroke-width="0.03" stroke="#000000" fill="none"/>
<path d="M12.46875 7.624100537173588L12.46875 7.136961247544841" stroke-width="0.03" stroke="#000000" fill="none"/>
<path d="M12.328125000000002 7.05577136594005L12.328125000000002 7.705290418778379" stroke-width="0.03" stroke="#000000" fill="none"/>
<path d="M12.328125000000002 7.624100537173588L11.5546875 7.177556188347237L11.1328125 7.421125833161611L11.1328125 7.827075241185566L11.625000000000002 8.111239826802334" stroke-width="0.03" stroke="#000000" fill="none"/>
<path d="M11.976562500000002 7.9082651227903575L11.1328125 7.421125833161611" stroke-width="0.03" stroke="#000000" fill="none"/>
<path d="M11.0625 7.542910655568797L10.5 7.867670181987961L9.9375 7.542910655568797L9.867187500000002 7.583505596371193" stroke-width="0.03" stroke="#000000" fill="none"/>
<path d="M9.867187500000002 7.421125833161611L9.0234375 7.9082651227903575" stroke-width="0.03" stroke="#000000" fill="none"/>
<path d="M9.375 8.111239826802334L9.867187500000002 7.827075241185566L9.867187500000002 7.421125833161611L9.4453125 7.177556188347237L8.671875 7.624100537173588" stroke-width="0.03" stroke="#000000" fill="none"/>
<path d="M8.671875 7.705290418778379L8.671875 7.05577136594005L8.6015625 7.015176425137655L8.4609375 7.096366306742446L8.4609375 7.583505596371193" stroke-width="0.03" stroke="#000000" fill="none"/>
<path d="M8.53125 7.624100537173588L8.53125 7.136961247544841L8.671875 7.05577136594005" stroke-width="0.03" stroke="#000000" fill="none"/>
<path d="M8.53125 7.136961247544841L8.4609375 7.096366306742446" stroke-width="0.03" stroke="#000000" fill="none"/>
<path d="M11.0625 7.542910655568797L11.1328125 7.583505596371193" stroke-width="0.03" stroke="#000000" fill="none"/>
<path d="M10.921875000000002 9.24789816926941L11.484375000000002 9.572657695688576L11.484375000000002 9.735037458898159" stroke-width="0.03" stroke="#000000" fill="none"/>
<path d="M11.5546875 9.694442518095762L11.5546875 9.53206275488618" stroke-width="0.03" stroke="#000000" fill="none"/>
<path d="M12.328125000000002 10.222176748526905L11.34375 10.790505919760442" stroke-width="0.03" stroke="#000000" fill="none"/>
<path d="M11.484375000000002 11.277645209389188L11.484375000000002 11.358835090993981" stroke-width="0.03" stroke="#000000" fill="none"/>
<path d="M7.264131938244363 2.2599663291074443L1.5 2.2599663291074443" stroke-width="0.03" stroke="#000000" fill="none"/>
<path d="M2.0824957911384305 2.015598694615191L2.0824957911384305 1.7268634256306838" stroke-width="0.03" stroke="#000000" fill="none"/>
<path d="M2.061871843353823 1.5824957911384305L2.0824957911384305 1.6031197389230383L2.1031197389230383 1.5824957911384305L2.0824957911384305 1.5618718433538228L2.061871843353823 1.5824957911384305" stroke-width="0.03" stroke="#000000" fill="none"/>
<path d="M2.226863425630684 1.953726851261368L2.2474873734152916 1.9949747468305832L2.3093592167691144 2.015598694615191L2.3712310601229376 2.015598694615191L2.4331029034767604 1.9949747468305832L2.4537268512613677 1.953726851261368L2.4537268512613677 1.9331029034767604L2.4331029034767604 1.891855007907545L2.391855007907545 1.8712310601229374L2.2887352689845066 1.8506071123383299L2.2474873734152916 1.8299831645537221L2.226863425630684 1.7887352689845069L2.2474873734152916 1.7474873734152916L2.3093592167691144 1.7268634256306838L2.3712310601229376 1.7268634256306838L2.4331029034767604 1.7474873734152916L2.4537268512613677 1.7887352689845069" stroke-width="0.03" stroke="#000000" fill="none"/>
<path d="M2.680590276892052 1.7268634256306838L2.6393423813228365 1.7474873734152916L2.5980944857536215 1.7887352689845069L2.5774705379690137 1.8506071123383299L2.5774705379690137 1.891855007907545L2.5980944857536215 1.953726851261368L2.6393423813228365 1.9949747468305832L2.680590276892052 2.015598694615191L2.7424621202458748 2.015598694615191L2.78371001581509 1.9949747468305832L2.8249579113843053 1.953726851261368L2.845581859168913 1.891855007907545L2.845581859168913 1.8506071123383299L2.8249579113843053 1.7887352689845069L2.78371001581509 1.7474873734152916L2.7424621202458748 1.7268634256306838L2.680590276892052 1.7268634256306838" stroke-width="0.03" stroke="#000000" fill="none"/>
<path d="M2.907453702522736 2.056846590184406L3.237436867076458 2.056846590184406" stroke-width="0.03" stroke="#000000" fill="none"/>
<path d="M3.2993087104302807 1.953726851261368L3.3199326582148885 1.9949747468305832L3.3818045015687113 2.015598694615191L3.443676344922534 2.015598694615191L3.5055481882763573 1.9949747468305832L3.526172136060965 1.953726851261368L3.526172136060965 1.9331029034767604L3.5055481882763573 1.891855007907545L3.464300292707142 1.8712310601229374L3.361180553784104 1.8506071123383299L3.3199326582148885 1.8299831645537221L3.2993087104302807 1.7887352689845069L3.3199326582148885 1.7474873734152916L3.3818045015687113 1.7268634256306838L3.443676344922534 1.7268634256306838L3.5055481882763573 1.7474873734152916L3.526172136060965 1.7887352689845069" stroke-width="0.03" stroke="#000000" fill="none"/>
<path d="M3.6705397705532183 1.8093592167691144L3.732411613907041 1.7474873734152916L3.773659509476256 1.7268634256306838L3.8355313528300794 1.7268634256306838L3.8767792483992944 1.7474873734152916L3.897403196183902 1.8093592167691144L3.897403196183902 2.015598694615191" stroke-width="0.03" stroke="#000000" fill="none"/>
<path d="M3.6705397705532183 2.015598694615191L3.6705397705532183 1.7268634256306838" stroke-width="0.03" stroke="#000000" fill="none"/>
<path d="M4.144890569599194 1.7268634256306838L4.103642674029978 1.7474873734152916L4.062394778460764 1.7887352689845069L4.041770830676155 1.8506071123383299L4.041770830676155 1.891855007907545L4.062394778460764 1.953726851261368L4.103642674029978 1.9949747468305832L4.144890569599194 2.015598694615191L4.206762412953017 2.015598694615191L4.2480103085222325 1.9949747468305832L4.289258204091447 1.953726851261368L4.309882151876055 1.891855007907545L4.309882151876055 1.8506071123383299L4.289258204091447 1.7887352689845069L4.2480103085222325 1.7474873734152916L4.206762412953017 1.7268634256306838L4.144890569599194 1.7268634256306838" stroke-width="0.03" stroke="#000000" fill="none"/>
<path d="M4.4336258385837 1.7268634256306838L4.516121629722131 2.015598694615191L4.5986174208605615 1.7268634256306838L4.681113211998992 2.015598694615191L4.7636090031374225 1.7268634256306838" stroke-width="0.03" stroke="#000000" fill="none"/>
<path d="M4.866728742060461 1.7268634256306838L5.011096376552715 1.7268634256306838" stroke-width="0.03" stroke="#000000" fill="none"/>
<path d="M5.031720324337321 1.5824957911384305L4.990472428768107 1.5824957911384305L4.949224533198891 1.6031197389230383L4.928600585414284 1.664991582276861L4.928600585414284 2.015598694615191" stroke-width="0.03" stroke="#000000" fill="none"/>
<path d="M5.155464011044968 2.015598694615191L5.155464011044968 1.5824957911384305" stroke-width="0.03" stroke="#000000" fill="none"/>
<path d="M5.547319018952512 1.7268634256306838L5.547319018952512 2.015598694615191" stroke-width="0.03" stroke="#000000" fill="none"/>
<path d="M5.547319018952512 1.953726851261368L5.506071123383298 1.9949747468305832L5.464823227814082 2.015598694615191L5.402951384460259 2.015598694615191L5.3617034888910435 1.9949747468305832L5.320455593321829 1.953726851261368L5.299831645537221 1.891855007907545L5.299831645537221 1.8506071123383299L5.320455593321829 1.7887352689845069L5.3617034888910435 1.7474873734152916L5.402951384460259 1.7268634256306838L5.464823227814082 1.7268634256306838L5.506071123383298 1.7474873734152916L5.547319018952512 1.7887352689845069" stroke-width="0.03" stroke="#000000" fill="none"/>
<path d="M5.712310601229374 1.9331029034767604L5.91855007907545 1.7268634256306838" stroke-width="0.03" stroke="#000000" fill="none"/>
<path d="M5.794806392367804 1.8506071123383299L5.939174026860058 2.015598694615191" stroke-width="0.03" stroke="#000000" fill="none"/>
<path d="M6.042293765783096 1.8506071123383299L6.2897811391983875 1.8506071123383299L6.2897811391983875 1.8093592167691144L6.26915719141378 1.7681113211998993L6.248533243629172 1.7474873734152916L6.207285348059957 1.7268634256306838L6.145413504706134 1.7268634256306838L6.104165609136919 1.7474873734152916L6.062917713567703 1.7887352689845069L6.042293765783096 1.8506071123383299L6.042293765783096 1.891855007907545L6.062917713567703 1.953726851261368L6.104165609136919 1.9949747468305832L6.145413504706134 2.015598694615191L6.207285348059957 2.015598694615191L6.248533243629172 1.9949747468305832L6.2897811391983875 1.953726851261368" stroke-width="0.03" stroke="#000000" fill="none"/>
<path d="M6.434148773690641 1.6856155300614688L6.434148773690641 1.664991582276861L6.454772721475249 1.6237436867076458L6.475396669259856 1.6031197389230383L6.516644564829072 1.5824957911384305L6.599140355967502 1.5824957911384305L6.640388251536717 1.6031197389230383L6.661012199321325 1.6237436867076458L6.681636147105933 1.664991582276861L6.681636147105933 1.7062394778460763L6.661012199321325 1.7474873734152916L6.61976430375211 1.8093592167691144L6.413524825906033 2.015598694615191L6.702260094890541 2.015598694615191" stroke-width="0.03" stroke="#000000" fill="none"/>
<path d="M5.712310601229374 2.015598694615191L5.712310601229374 1.5824957911384305" stroke-width="0.03" stroke="#000000" fill="none"/>
<path d="M4.434543436200307 2.7109515319598065L4.268841526930129 2.7109515319598065L4.268841526930129 2.9786238469347097L4.434543436200307 2.9786238469347097" stroke-width="0.03" stroke="#000000" fill="none"/>
<path d="M4.370811932634854 2.8384145390907127L4.268841526930129 2.8384145390907127" stroke-width="0.03" stroke="#000000" fill="none"/>
<path d="M4.154124820512314 2.7109515319598065L4.026661813381407 2.7109515319598065L4.013915512668317 2.825668238377622L4.026661813381407 2.8129219376645316L4.064900715520679 2.8001756369514412L4.10313961765995 2.8001756369514412L4.141378519799223 2.8129219376645316L4.1668711212254035 2.8384145390907127L4.179617421938495 2.8766534412299847L4.179617421938495 2.902146042656166L4.1668711212254035 2.9403849447954378L4.141378519799223 2.965877546221619L4.10313961765995 2.9786238469347097L4.064900715520679 2.9786238469347097L4.026661813381407 2.965877546221619L4.013915512668317 2.953131245508528L4.001169211955226 2.927638644082347" stroke-width="0.03" stroke="#000000" fill="none"/>
<path d="M3.9246914076766823 2.9786238469347097L3.7462431976934134 2.9786238469347097L3.8737062048243196 2.8511608398038035L3.899198806250501 2.8129219376645316L3.911945106963592 2.7874293362383504L3.911945106963592 2.761936734812169L3.899198806250501 2.736444133385988L3.8864525055374104 2.7236978326728973L3.8609599041112292 2.7109515319598065L3.8099747012588665 2.7109515319598065L3.784482099832686 2.7236978326728973L3.771735799119595 2.736444133385988L3.758989498406504 2.761936734812169L3.758989498406504 2.7746830355252596" stroke-width="0.03" stroke="#000000" fill="none"/>
<path d="M3.6825116941279608 2.7109515319598065L3.5168097848577826 2.7109515319598065L3.5168097848577826 2.9786238469347097L3.6825116941279608 2.9786238469347097" stroke-width="0.03" stroke="#000000" fill="none"/>
<path d="M3.6187801905625077 2.8384145390907127L3.5168097848577826 2.8384145390907127" stroke-width="0.03" stroke="#000000" fill="none"/>
<path d="M3.351107875587605 2.9786238469347097L3.351107875587605 2.7109515319598065L3.312868973448333 2.7491904340990785L3.287376372022152 2.761936734812169" stroke-width="0.03" stroke="#000000" fill="none"/>
<path d="M3.1726596656043364 2.9786238469347097L2.994211455621068 2.9786238469347097L3.1216744627519737 2.8511608398038035L3.147167064178155 2.8129219376645316L3.1599133648912456 2.7874293362383504L3.1599133648912456 2.761936734812169L3.147167064178155 2.736444133385988L3.1344207634650645 2.7236978326728973L3.1089281620388833 2.7109515319598065L3.057942959186521 2.7109515319598065L3.0324503577603394 2.7236978326728973L3.0197040570472486 2.736444133385988L3.0069577563341583 2.761936734812169L3.0069577563341583 2.7746830355252596" stroke-width="0.03" stroke="#000000" fill="none"/>
<path d="M2.815763245637799 2.7109515319598065L2.777524343498527 2.7236978326728973L2.752031742072346 2.761936734812169L2.7392854413592556 2.825668238377622L2.7392854413592556 2.8639071405168943L2.752031742072346 2.927638644082347L2.777524343498527 2.965877546221619L2.815763245637799 2.9786238469347097L2.84125584706398 2.9786238469347097L2.879494749203252 2.965877546221619L2.9049873506294333 2.927638644082347L2.917733651342524 2.8639071405168943L2.917733651342524 2.825668238377622L2.9049873506294333 2.761936734812169L2.879494749203252 2.7236978326728973L2.84125584706398 2.7109515319598065L2.815763245637799 2.7109515319598065" stroke-width="0.03" stroke="#000000" fill="none"/>
<path d="M2.586329832802168 2.7109515319598065L2.484359427097443 2.9786238469347097" stroke-width="0.03" stroke="#000000" fill="none"/>
<path d="M2.433374224245081 2.9786238469347097L2.293164916401084 2.8001756369514412" stroke-width="0.03" stroke="#000000" fill="none"/>
<path d="M2.433374224245081 2.8001756369514412L2.293164916401084 2.9786238469347097" stroke-width="0.03" stroke="#000000" fill="none"/>
<path d="M2.522598329236715 2.889399741943075L2.6500613363676213 2.889399741943075" stroke-width="0.03" stroke="#000000" fill="none"/>
<path d="M2.6883002385068933 2.9786238469347097L2.586329832802168 2.7109515319598065" stroke-width="0.03" stroke="#000000" fill="none"/>
<path d="M2.1147167064178154 2.7109515319598065L2.076477804278544 2.7236978326728973L2.0509852028523623 2.761936734812169L2.038238902139272 2.825668238377622L2.038238902139272 2.8639071405168943L2.0509852028523623 2.927638644082347L2.076477804278544 2.965877546221619L2.1147167064178154 2.9786238469347097L2.140209307843997 2.9786238469347097L2.1784482099832685 2.965877546221619L2.2039408114094496 2.927638644082347L2.2166871121225404 2.8639071405168943L2.2166871121225404 2.825668238377622L2.2039408114094496 2.761936734812169L2.1784482099832685 2.7236978326728973L2.140209307843997 2.7109515319598065L2.1147167064178154 2.7109515319598065" stroke-width="0.03" stroke="#000000" fill="none"/>
</svg>
