<?xml version="1.0" standalone="no"?>
<svg width="21cm" height="29.7cm" version="1.1" xmlns="http://www.w3.org/2000/svg" viewBox="0.0 0.0 21.000001 29.700001">
<path d="M5.2265625 8.233024649209522L7.0546875 7.177556188347237L8.4609375 7.989455004395149L8.8828125 7.745885359580775L9.65625 8.192429708407126L9.65625 8.273619590011917L9.09375 8.598379116431081L9.0234375 8.557784175628687L8.953125 8.598379116431081" stroke-width="0.03" stroke="#000000" fill="none"/>
<path d="M8.8828125 8.557784175628687L9.0234375 8.476594294023895L9.09375 8.51718923482629L9.65625 8.192429708407126" stroke-width="0.03" stroke="#000000" fill="none"/>
<path d="M9.5859375 8.07064488599994L9.375 7.948860063592752" stroke-width="0.03" stroke="#000000" fill="none"/>
<path d="M9.375 8.030049945197543L9.375 7.542910655568797L8.3203125 6.933986543532863L7.4765625 7.421125833161611" stroke-width="0.03" stroke="#000000" fill="none"/>
<path d="M7.3359375 7.33993595155682L7.546875 7.218151129149632L7.6875 7.299341010754423" stroke-width="0.03" stroke="#000000" fill="none"/>
<path d="M7.6171875 7.827075241185566L3.8906249999999996 9.97860710371253L3.8203125000000004 9.938012162910134L3.2578125 10.262771689329298L3.3984375 10.343961570934091L3.3984375 10.749910978958045L3.046875 10.952885682970024L2.90625 10.871695801365235L2.90625 11.521214854203564L2.976562500000001 11.561809795005958L2.976562500000001 15.864873520059888L4.59375 16.79855715851499L4.59375 17.93521550098206L4.875 18.097595264191643L4.875 18.422354790610807L5.859375000000001 18.990683961844347L5.859375000000001 20.858051238754545L9.5859375 23.009583101281507L9.5859375 23.090772982886296L10.1484375 23.41553250930546L10.1484375 23.253152746095882L9.867187500000002 23.090772982886296L9.867187500000002 18.057000323389246L7.40625 16.636177395305403L7.40625 13.794531539137715L8.0390625 13.429177071916154L8.0390625 12.698468137473034L10.5 11.277645209389188L12.9609375 12.698468137473034L12.9609375 13.429177071916154L13.593750000000002 13.794531539137715L17.953125000000004 11.277645209389188L17.953125000000004 10.952885682970024L18.09375 10.871695801365235L18.09375 11.521214854203564L18.0234375 11.561809795005958L18.0234375 15.864873520059888L16.40625 16.79855715851499L16.40625 17.93521550098206L16.125 18.097595264191643L16.125 18.422354790610807L15.140625 18.990683961844347L15.140625 20.858051238754545L11.4140625 23.009583101281507L11.4140625 23.090772982886296L10.8515625 23.41553250930546L10.8515625 23.253152746095882L11.1328125 23.090772982886296L11.1328125 18.057000323389246L13.593750000000002 16.636177395305403L13.593750000000002 13.794531539137715" stroke-width="0.03" stroke="#000000" fill="none"/>
<path d="M13.382812500000002 13.83512647994011L13.031250000000002 14.038101183952087L12.75 13.875721420742504L12.75 14.038101183952087L13.031250000000002 14.200480947161669L13.382812500000002 13.997506243149692L13.382812500000002 13.83512647994011L13.1015625 13.672746716730527L12.75 13.875721420742504" stroke-width="0.03" stroke="#000000" fill="none"/>
<path d="M12.9609375 13.753936598335319L12.679687500000002 13.591556835125736L12.679687500000002 13.266797308706572" stroke-width="0.03" stroke="#000000" fill="none"/>
<path d="M12.8203125 13.18560742710178L12.46875 13.388582131113758L12.328125000000002 13.307392249508968L12.328125000000002 12.982632723089804L12.679687500000002 12.779658019077825L12.679687500000002 12.617278255868243L12.3984375 12.45489849265866L11.765625 12.820252959880222L11.765625 13.632151775928133" stroke-width="0.03" stroke="#000000" fill="none"/>
<path d="M11.90625 13.55096189432334L11.4140625 13.83512647994011" stroke-width="0.03" stroke="#000000" fill="none"/>
<path d="M11.273437500000002 13.753936598335319L11.0625 13.875721420742504L11.0625 14.038101183952087L10.921875000000002 14.11929106555688L10.921875000000002 14.444050591976044L10.5 14.200480947161669L10.078125 14.444050591976044L10.078125 14.11929106555688L9.9375 14.038101183952087L9.9375 13.875721420742504L9.7265625 13.753936598335319L9.1640625 14.078696124754483L9.1640625 14.728215177592812L9.375 14.85L9.515625 14.768810118395209L9.515625 14.606430355185626L9.796875 14.444050591976044L9.9375 14.525240473580833L9.9375 14.200480947161669L10.078125 14.11929106555688" stroke-width="0.03" stroke="#000000" fill="none"/>
<path d="M9.9375 14.200480947161669L9.796875 14.11929106555688L9.796875 14.444050591976044" stroke-width="0.03" stroke="#000000" fill="none"/>
<path d="M9.9375 14.525240473580833L9.65625 14.687620236790417L9.65625 14.85L9.9375 14.687620236790417L9.9375 15.174759526419164L10.359375 15.418329171233536L10.078125 15.580708934443118L10.078125 15.7430886976527L9.9375 15.824278579257493L9.9375 16.067848224071867L10.5 16.39260775049103L11.0625 16.067848224071867L11.0625 15.824278579257493L10.921875000000002 15.7430886976527L10.921875000000002 15.580708934443118L10.640625 15.418329171233536L11.0625 15.174759526419164L11.0625 14.687620236790417L11.34375 14.85L11.484375000000002 14.768810118395209L11.625000000000002 14.85L11.835937500000002 14.728215177592812L11.835937500000002 14.078696124754483L11.273437500000002 13.753936598335319" stroke-width="0.03" stroke="#000000" fill="none"/>
<path d="M11.0625 13.875721420742504L11.625000000000002 14.200480947161669L12.679687500000002 13.591556835125736" stroke-width="0.03" stroke="#000000" fill="none"/>
<path d="M12.46875 13.388582131113758L12.46875 13.063822604694593L12.8203125 12.860847900682616L12.679687500000002 12.779658019077825" stroke-width="0.03" stroke="#000000" fill="none"/>
<path d="M12.8203125 12.860847900682616L12.8203125 13.18560742710178" stroke-width="0.03" stroke="#000000" fill="none"/>
<path d="M12.9609375 13.429177071916154L17.320312500000004 10.912290742167627L17.320312500000004 10.181581807724509L12.9609375 12.698468137473034" stroke-width="0.03" stroke="#000000" fill="none"/>
<path d="M12.679687500000002 12.617278255868243L12.046875 12.982632723089804L11.765625 12.820252959880222" stroke-width="0.03" stroke="#000000" fill="none"/>
<path d="M11.765625 13.063822604694593L10.9921875 12.617278255868243L10.5 12.90144284148501L10.0078125 12.617278255868243L9.234375 13.063822604694593" stroke-width="0.03" stroke="#000000" fill="none"/>
<path d="M9.234375 12.820252959880222L8.953125 12.982632723089804L8.953125 13.632151775928133L9.4453125 13.9163163615449" stroke-width="0.03" stroke="#000000" fill="none"/>
<path d="M9.5859375 13.83512647994011L9.09375 13.55096189432334L8.953125 13.632151775928133" stroke-width="0.03" stroke="#000000" fill="none"/>
<path d="M9.234375 13.632151775928133L9.234375 12.820252959880222L8.6015625 12.45489849265866L8.3203125 12.617278255868243L8.3203125 12.779658019077825L8.671875 12.982632723089804L8.671875 13.307392249508968L8.53125 13.388582131113758L8.1796875 13.18560742710178L8.1796875 12.860847900682616L8.3203125 12.779658019077825" stroke-width="0.03" stroke="#000000" fill="none"/>
<path d="M8.1796875 12.860847900682616L8.53125 13.063822604694593L8.671875 12.982632723089804" stroke-width="0.03" stroke="#000000" fill="none"/>
<path d="M8.53125 13.063822604694593L8.53125 13.388582131113758" stroke-width="0.03" stroke="#000000" fill="none"/>
<path d="M8.3203125 13.266797308706572L8.3203125 13.591556835125736L8.0390625 13.753936598335319" stroke-width="0.03" stroke="#000000" fill="none"/>
<path d="M7.898437500000001 13.672746716730527L7.6171875 13.83512647994011L7.6171875 13.997506243149692L7.4765625 14.078696124754483L7.4765625 14.403455651173648L8.109375 14.768810118395209L8.8125 14.362860710371251" stroke-width="0.03" stroke="#000000" fill="none"/>
<path d="M8.671875 14.281670828766462L8.671875 14.11929106555688L9.1640625 14.403455651173648" stroke-width="0.03" stroke="#000000" fill="none"/>
<path d="M9.1640625 14.56583541438323L8.671875 14.281670828766462" stroke-width="0.03" stroke="#000000" fill="none"/>
<path d="M8.671875 14.11929106555688L8.109375 14.444050591976044L8.109375 14.768810118395209" stroke-width="0.03" stroke="#000000" fill="none"/>
<path d="M8.3203125 14.647025295988021L8.3203125 15.540113993640723L8.8125 15.824278579257493L8.8125 16.39260775049103L9.5859375 16.83915209931738" stroke-width="0.03" stroke="#000000" fill="none"/>
<path d="M9.375 16.960936921724567L10.078125 16.55498751370061" stroke-width="0.03" stroke="#000000" fill="none"/>
<path d="M10.078125 16.717367276910196L10.078125 16.14903810567666" stroke-width="0.03" stroke="#000000" fill="none"/>
<path d="M10.218750000000002 16.230227987281445L10.218750000000002 16.79855715851499L9.65625 17.123316684934153L9.65625 17.85402561937727L9.375 17.69164585616769L9.375 16.960936921724567L9.65625 17.123316684934153" stroke-width="0.03" stroke="#000000" fill="none"/>
<path d="M9.796875 17.366886329748525L10.078125 17.204506566538942L10.218750000000002 17.28569644814373L10.218750000000002 17.69164585616769L9.9375 17.85402561937727L9.796875 17.77283573777248L9.796875 17.366886329748525L9.9375 17.448076211353314L10.218750000000002 17.28569644814373" stroke-width="0.03" stroke="#000000" fill="none"/>
<path d="M10.218750000000002 17.529266092958107L10.5 17.366886329748525L10.5 16.14903810567666L11.0625 15.824278579257493" stroke-width="0.03" stroke="#000000" fill="none"/>
<path d="M10.921875000000002 15.7430886976527L10.78125 15.824278579257493L10.5 15.661898816047911L10.5 15.499519052838329L10.78125 15.661898816047911L10.78125 15.824278579257493" stroke-width="0.03" stroke="#000000" fill="none"/>
<path d="M10.78125 15.661898816047911L10.921875000000002 15.580708934443118" stroke-width="0.03" stroke="#000000" fill="none"/>
<path d="M11.0625 15.174759526419164L10.5 14.85L10.5 14.200480947161669" stroke-width="0.03" stroke="#000000" fill="none"/>
<path d="M10.5 14.362860710371251L10.078125 14.606430355185626L10.078125 15.093569644814371L10.5 15.337139289628746L10.921875000000002 15.093569644814371L10.921875000000002 14.606430355185626L10.5 14.362860710371251" stroke-width="0.03" stroke="#000000" fill="none"/>
<path d="M10.1484375 14.56583541438323L10.1484375 14.647025295988021L10.078125 14.687620236790417" stroke-width="0.03" stroke="#000000" fill="none"/>
<path d="M10.078125 14.606430355185626L10.1484375 14.647025295988021" stroke-width="0.03" stroke="#000000" fill="none"/>
<path d="M10.5 14.85L9.9375 15.174759526419164" stroke-width="0.03" stroke="#000000" fill="none"/>
<path d="M10.078125 15.580708934443118L10.218750000000002 15.661898816047911L10.218750000000002 15.824278579257493L10.5 15.661898816047911" stroke-width="0.03" stroke="#000000" fill="none"/>
<path d="M10.5 15.499519052838329L10.218750000000002 15.661898816047911" stroke-width="0.03" stroke="#000000" fill="none"/>
<path d="M10.218750000000002 15.824278579257493L10.078125 15.7430886976527" stroke-width="0.03" stroke="#000000" fill="none"/>
<path d="M9.9375 15.824278579257493L10.5 16.14903810567666" stroke-width="0.03" stroke="#000000" fill="none"/>
<path d="M10.78125 16.230227987281445L10.78125 16.79855715851499L11.34375 17.123316684934153L11.34375 17.85402561937727L11.625000000000002 17.69164585616769L11.625000000000002 16.960936921724567L10.921875000000002 16.55498751370061" stroke-width="0.03" stroke="#000000" fill="none"/>
<path d="M10.921875000000002 16.717367276910196L10.78125 16.79855715851499" stroke-width="0.03" stroke="#000000" fill="none"/>
<path d="M10.921875000000002 16.717367276910196L10.921875000000002 16.14903810567666" stroke-width="0.03" stroke="#000000" fill="none"/>
<path d="M11.4140625 16.83915209931738L12.187500000000002 16.39260775049103L12.187500000000002 15.824278579257493L12.679687500000002 15.540113993640723L12.679687500000002 14.647025295988021" stroke-width="0.03" stroke="#000000" fill="none"/>
<path d="M12.890625000000002 14.768810118395209L13.5234375 14.403455651173648L13.5234375 14.078696124754483L13.382812500000002 13.997506243149692" stroke-width="0.03" stroke="#000000" fill="none"/>
<path d="M13.5234375 14.078696124754483L12.890625000000002 14.444050591976044L12.890625000000002 14.768810118395209L12.187500000000002 14.362860710371251" stroke-width="0.03" stroke="#000000" fill="none"/>
<path d="M12.328125000000002 14.281670828766462L11.835937500000002 14.56583541438323" stroke-width="0.03" stroke="#000000" fill="none"/>
<path d="M11.835937500000002 14.403455651173648L12.328125000000002 14.11929106555688L12.890625000000002 14.444050591976044" stroke-width="0.03" stroke="#000000" fill="none"/>
<path d="M13.031250000000002 14.200480947161669L13.031250000000002 14.038101183952087" stroke-width="0.03" stroke="#000000" fill="none"/>
<path d="M12.328125000000002 14.11929106555688L12.328125000000002 14.281670828766462" stroke-width="0.03" stroke="#000000" fill="none"/>
<path d="M11.625000000000002 14.200480947161669L11.625000000000002 14.85" stroke-width="0.03" stroke="#000000" fill="none"/>
<path d="M11.484375000000002 14.768810118395209L11.484375000000002 14.606430355185626L11.203125 14.444050591976044L11.0625 14.525240473580833L11.0625 14.200480947161669L10.921875000000002 14.11929106555688" stroke-width="0.03" stroke="#000000" fill="none"/>
<path d="M11.0625 14.200480947161669L11.203125 14.11929106555688L11.203125 14.444050591976044" stroke-width="0.03" stroke="#000000" fill="none"/>
<path d="M11.0625 14.525240473580833L11.34375 14.687620236790417L11.34375 14.85" stroke-width="0.03" stroke="#000000" fill="none"/>
<path d="M11.34375 14.687620236790417L11.484375000000002 14.606430355185626" stroke-width="0.03" stroke="#000000" fill="none"/>
<path d="M10.921875000000002 14.606430355185626L10.8515625 14.647025295988021L10.8515625 14.56583541438323" stroke-width="0.03" stroke="#000000" fill="none"/>
<path d="M10.8515625 14.647025295988021L10.921875000000002 14.687620236790417" stroke-width="0.03" stroke="#000000" fill="none"/>
<path d="M11.203125 14.11929106555688L11.0625 14.038101183952087" stroke-width="0.03" stroke="#000000" fill="none"/>
<path d="M11.5546875 13.9163163615449L12.046875 13.632151775928133L12.046875 12.982632723089804" stroke-width="0.03" stroke="#000000" fill="none"/>
<path d="M12.328125000000002 12.982632723089804L12.46875 13.063822604694593" stroke-width="0.03" stroke="#000000" fill="none"/>
<path d="M12.046875 13.632151775928133L11.90625 13.55096189432334" stroke-width="0.03" stroke="#000000" fill="none"/>
<path d="M10.5 12.90144284148501L10.5 11.277645209389188" stroke-width="0.03" stroke="#000000" fill="none"/>
<path d="M10.5 9.491467814083784L11.203125 9.085518406059828L10.5 8.679568998035872L9.796875 9.085518406059828L10.5 9.491467814083784" stroke-width="0.03" stroke="#000000" fill="none"/>
<path d="M10.359375 9.410277932478992L10.5 9.329088050874201L10.5 8.679568998035872" stroke-width="0.03" stroke="#000000" fill="none"/>
<path d="M10.5 8.354809471616708L10.78125 8.192429708407126L11.765625 8.760758879640663L13.382812500000002 7.827075241185566L17.109375 9.97860710371253L17.1796875 9.938012162910134L17.7421875 10.262771689329298L17.6015625 10.343961570934091L17.6015625 10.749910978958045L17.953125000000004 10.952885682970024" stroke-width="0.03" stroke="#000000" fill="none"/>
<path d="M17.953125000000004 11.277645209389188L17.320312500000004 10.912290742167627" stroke-width="0.03" stroke="#000000" fill="none"/>
<path d="M17.6015625 10.749910978958045L17.7421875 10.668721097353256L18.585937500000004 11.155860386982003L18.585937500000004 13.347987190311363L18.7265625 13.266797308706572L18.585937500000004 13.18560742710178" stroke-width="0.03" stroke="#000000" fill="none"/>
<path d="M18.7265625 13.266797308706572L18.7265625 13.510366953520945" stroke-width="0.03" stroke="#000000" fill="none"/>
<path d="M18.8671875 13.591556835125736L18.0234375 14.078696124754483" stroke-width="0.03" stroke="#000000" fill="none"/>
<path d="M18.1640625 13.591556835125736L18.515625 13.388582131113758L18.8671875 13.591556835125736L18.8671875 15.702493756850306L17.4609375 16.514392572898217L17.4609375 17.001531862526964L16.6875 17.448076211353314L16.617187500000004 17.407481270550917L16.617187500000004 16.75796221771259L16.6875 16.717367276910196L16.7578125 16.75796221771259L16.7578125 16.59558245450301" stroke-width="0.03" stroke="#000000" fill="none"/>
<path d="M16.6875 16.636177395305403L16.6875 16.717367276910196" stroke-width="0.03" stroke="#000000" fill="none"/>
<path d="M16.617187500000004 16.75796221771259L16.6875 16.79855715851499L16.6875 17.448076211353314" stroke-width="0.03" stroke="#000000" fill="none"/>
<path d="M16.828125 17.448076211353314L17.0390625 17.326291388946128" stroke-width="0.03" stroke="#000000" fill="none"/>
<path d="M16.96875 17.28569644814373L17.390625 17.529266092958107L18.4453125 16.920341980922174L18.4453125 15.946063401664679" stroke-width="0.03" stroke="#000000" fill="none"/>
<path d="M18.585937500000004 15.864873520059888L18.585937500000004 16.10844316487426L18.4453125 16.189633046479052" stroke-width="0.03" stroke="#000000" fill="none"/>
<path d="M18.796875 15.499519052838329L16.96875 16.55498751370061L16.8984375 16.514392572898217" stroke-width="0.03" stroke="#000000" fill="none"/>
<path d="M16.96875 16.473797632095824L16.96875 16.55498751370061" stroke-width="0.03" stroke="#000000" fill="none"/>
<path d="M16.7578125 16.75796221771259L16.6875 16.79855715851499" stroke-width="0.03" stroke="#000000" fill="none"/>
<path d="M16.4765625 16.75796221771259L16.4765625 18.30056996820362L15.140625 19.071873843449136" stroke-width="0.03" stroke="#000000" fill="none"/>
<path d="M15.2109375 19.193658665856326L15.773437500000002 18.86889913943716L15.843750000000002 18.909494080239554L15.843750000000002 19.802582777892262L15.421875 20.04615242270663L15.421875 21.669950054802452L13.593750000000002 22.72541851566474L13.242187500000002 22.52244381165276L13.242187500000002 22.116494403628806L13.1015625 22.035304522024013" stroke-width="0.03" stroke="#000000" fill="none"/>
<path d="M13.242187500000002 22.116494403628806L11.34375 23.212557805293486L11.34375 23.699697094922232L13.242187500000002 22.603633693257553L13.242187500000002 22.76601345646713L13.1015625 22.684823574862342" stroke-width="0.03" stroke="#000000" fill="none"/>
<path d="M13.242187500000002 22.76601345646713L13.453125 22.644228634059946" stroke-width="0.03" stroke="#000000" fill="none"/>
<path d="M13.593750000000002 22.72541851566474L13.593750000000002 21.751139936407245" stroke-width="0.03" stroke="#000000" fill="none"/>
<path d="M14.15625 21.42638040998808L14.15625 22.157089344431203L14.296875000000002 22.238279226035992L15.2109375 21.71054499560485L15.2109375 19.59960807388028L15.140625 19.559013133077883" stroke-width="0.03" stroke="#000000" fill="none"/>
<path d="M15.2109375 19.59960807388028L15.140625 19.640203014682676" stroke-width="0.03" stroke="#000000" fill="none"/>
<path d="M15.140625 19.3966333698683L15.28125 19.31544348826351L15.28125 19.23425360665872L15.843750000000002 18.909494080239554" stroke-width="0.03" stroke="#000000" fill="none"/>
<path d="M15.9140625 19.03127890264674L15.9140625 19.274848547461115" stroke-width="0.03" stroke="#000000" fill="none"/>
<path d="M15.843750000000002 19.23425360665872L16.265625 19.477823251473097L16.265625 20.69567147554496L15.421875 21.18281076517371" stroke-width="0.03" stroke="#000000" fill="none"/>
<path d="M15.421875 21.345190528383288L15.6328125 21.223405705976102L15.6328125 21.06102594276652" stroke-width="0.03" stroke="#000000" fill="none"/>
<path d="M15.843750000000002 19.721392896287465L16.265625 19.477823251473097" stroke-width="0.03" stroke="#000000" fill="none"/>
<path d="M16.4765625 19.03127890264674L16.828125 18.828304198634765L16.828125 18.5035446722156L17.109375 18.341164909006018L17.109375 17.93521550098206L16.8984375 17.813430678574875L16.828125 17.85402561937727" stroke-width="0.03" stroke="#000000" fill="none"/>
<path d="M16.828125 18.097595264191643L17.109375 17.93521550098206" stroke-width="0.03" stroke="#000000" fill="none"/>
<path d="M16.828125 18.097595264191643L16.828125 17.366886329748525" stroke-width="0.03" stroke="#000000" fill="none"/>
<path d="M17.390625 17.529266092958107L17.390625 17.04212680332936" stroke-width="0.03" stroke="#000000" fill="none"/>
<path d="M16.265625 18.016405382586854L16.265625 18.178785145796436L16.4765625 18.30056996820362" stroke-width="0.03" stroke="#000000" fill="none"/>
<path d="M16.265625 18.178785145796436L16.125 18.259975027401225" stroke-width="0.03" stroke="#000000" fill="none"/>
<path d="M15.843750000000002 17.93521550098206L15.140625 18.341164909006018L15.140625 17.529266092958107L15.843750000000002 17.123316684934153L15.843750000000002 17.93521550098206L15.28125 17.610455974562896L15.28125 17.448076211353314" stroke-width="0.03" stroke="#000000" fill="none"/>
<path d="M15.28125 17.610455974562896L15.140625 17.69164585616769" stroke-width="0.03" stroke="#000000" fill="none"/>
<path d="M15.2109375 19.193658665856326L15.2109375 19.274848547461115L15.140625 19.31544348826351" stroke-width="0.03" stroke="#000000" fill="none"/>
<path d="M15.2109375 19.274848547461115L15.28125 19.31544348826351" stroke-width="0.03" stroke="#000000" fill="none"/>
<path d="M15.28125 19.23425360665872L15.2109375 19.193658665856326" stroke-width="0.03" stroke="#000000" fill="none"/>
<path d="M15.843750000000002 19.071873843449136L16.4765625 18.706519376227575L16.4765625 19.03127890264674L16.265625 18.909494080239554L16.265625 18.828304198634765" stroke-width="0.03" stroke="#000000" fill="none"/>
<path d="M14.296875000000002 21.345190528383288L14.296875000000002 22.238279226035992" stroke-width="0.03" stroke="#000000" fill="none"/>
<path d="M11.34375 23.212557805293486L11.273437500000002 23.17196286449109" stroke-width="0.03" stroke="#000000" fill="none"/>
<path d="M11.1328125 23.090772982886296L10.5 22.72541851566474L9.867187500000002 23.090772982886296" stroke-width="0.03" stroke="#000000" fill="none"/>
<path d="M9.7265625 23.17196286449109L9.65625 23.212557805293486L9.65625 23.699697094922232L7.757812499999999 22.603633693257553L7.757812499999999 22.76601345646713L7.898437500000001 22.684823574862342" stroke-width="0.03" stroke="#000000" fill="none"/>
<path d="M7.757812499999999 22.76601345646713L7.546875 22.644228634059946" stroke-width="0.03" stroke="#000000" fill="none"/>
<path d="M7.40625 22.72541851566474L7.757812499999999 22.52244381165276L7.757812499999999 22.116494403628806L7.898437500000001 22.035304522024013" stroke-width="0.03" stroke="#000000" fill="none"/>
<path d="M7.757812499999999 22.116494403628806L9.65625 23.212557805293486" stroke-width="0.03" stroke="#000000" fill="none"/>
<path d="M9.65625 23.699697094922232L10.5 23.212557805293486L10.5 23.050178042083903L10.1484375 23.253152746095882" stroke-width="0.03" stroke="#000000" fill="none"/>
<path d="M10.5 23.212557805293486L11.34375 23.699697094922232" stroke-width="0.03" stroke="#000000" fill="none"/>
<path d="M10.8515625 23.253152746095882L10.5 23.050178042083903" stroke-width="0.03" stroke="#000000" fill="none"/>
<path d="M10.5 22.72541851566474L10.5 17.69164585616769L11.1328125 18.057000323389246" stroke-width="0.03" stroke="#000000" fill="none"/>
<path d="M11.0625 17.85402561937727L11.203125 17.77283573777248L11.203125 17.366886329748525L10.921875000000002 17.204506566538942L10.78125 17.28569644814373L10.78125 17.69164585616769L11.0625 17.85402561937727L11.0625 17.448076211353314L10.78125 17.28569644814373" stroke-width="0.03" stroke="#000000" fill="none"/>
<path d="M10.78125 17.529266092958107L10.5 17.366886329748525" stroke-width="0.03" stroke="#000000" fill="none"/>
<path d="M10.5 17.69164585616769L9.867187500000002 18.057000323389246" stroke-width="0.03" stroke="#000000" fill="none"/>
<path d="M9.9375 17.85402561937727L9.9375 17.448076211353314" stroke-width="0.03" stroke="#000000" fill="none"/>
<path d="M9.796875 17.77283573777248L9.65625 17.85402561937727" stroke-width="0.03" stroke="#000000" fill="none"/>
<path d="M10.218750000000002 16.79855715851499L10.078125 16.717367276910196" stroke-width="0.03" stroke="#000000" fill="none"/>
<path d="M11.0625 17.448076211353314L11.203125 17.366886329748525" stroke-width="0.03" stroke="#000000" fill="none"/>
<path d="M11.34375 17.123316684934153L11.625000000000002 16.960936921724567" stroke-width="0.03" stroke="#000000" fill="none"/>
<path d="M11.203125 17.77283573777248L11.34375 17.85402561937727" stroke-width="0.03" stroke="#000000" fill="none"/>
<path d="M12.187500000000002 15.824278579257493L13.593750000000002 16.636177395305403" stroke-width="0.03" stroke="#000000" fill="none"/>
<path d="M10.570312500000002 15.29654434882635L10.5 15.255949408023953L10.4296875 15.29654434882635" stroke-width="0.03" stroke="#000000" fill="none"/>
<path d="M10.5 15.255949408023953L10.5 15.337139289628746" stroke-width="0.03" stroke="#000000" fill="none"/>
<path d="M9.65625 14.85L9.515625 14.768810118395209" stroke-width="0.03" stroke="#000000" fill="none"/>
<path d="M9.375 14.85L9.375 14.200480947161669L9.9375 13.875721420742504" stroke-width="0.03" stroke="#000000" fill="none"/>
<path d="M9.9375 14.038101183952087L9.796875 14.11929106555688" stroke-width="0.03" stroke="#000000" fill="none"/>
<path d="M9.375 14.200480947161669L8.3203125 13.591556835125736" stroke-width="0.03" stroke="#000000" fill="none"/>
<path d="M8.25 13.875721420742504L7.96875 14.038101183952087L7.6171875 13.83512647994011" stroke-width="0.03" stroke="#000000" fill="none"/>
<path d="M7.6171875 13.997506243149692L7.96875 14.200480947161669L8.25 14.038101183952087L8.25 13.875721420742504L7.898437500000001 13.672746716730527" stroke-width="0.03" stroke="#000000" fill="none"/>
<path d="M8.0390625 13.429177071916154L3.679687499999999 10.912290742167627L3.679687499999999 10.181581807724509L8.0390625 12.698468137473034" stroke-width="0.03" stroke="#000000" fill="none"/>
<path d="M8.3203125 12.617278255868243L8.953125 12.982632723089804" stroke-width="0.03" stroke="#000000" fill="none"/>
<path d="M7.96875 14.038101183952087L7.96875 14.200480947161669" stroke-width="0.03" stroke="#000000" fill="none"/>
<path d="M8.109375 14.444050591976044L7.4765625 14.078696124754483" stroke-width="0.03" stroke="#000000" fill="none"/>
<path d="M7.40625 13.794531539137715L3.046875 11.277645209389188L3.046875 10.952885682970024" stroke-width="0.03" stroke="#000000" fill="none"/>
<path d="M3.046875 11.277645209389188L3.679687499999999 10.912290742167627" stroke-width="0.03" stroke="#000000" fill="none"/>
<path d="M3.3984375 10.749910978958045L3.2578125 10.668721097353256L2.4140625000000004 11.155860386982003L2.4140625000000004 13.347987190311363L2.2734375000000004 13.266797308706572L2.4140625000000004 13.18560742710178" stroke-width="0.03" stroke="#000000" fill="none"/>
<path d="M2.2734375000000004 13.266797308706572L2.2734375000000004 13.510366953520945" stroke-width="0.03" stroke="#000000" fill="none"/>
<path d="M2.1328124999999996 13.591556835125736L2.484375000000001 13.388582131113758L2.8359374999999996 13.591556835125736L2.976562500000001 13.510366953520945" stroke-width="0.03" stroke="#000000" fill="none"/>
<path d="M2.8359374999999996 13.591556835125736L2.8359374999999996 11.399430031796376L2.4140625000000004 11.155860386982003" stroke-width="0.03" stroke="#000000" fill="none"/>
<path d="M2.8359374999999996 11.399430031796376L2.90625 11.358835090993981" stroke-width="0.03" stroke="#000000" fill="none"/>
<path d="M3.2578125 10.668721097353256L3.2578125 9.694442518095762L5.15625 8.598379116431081L5.015625 8.51718923482629L5.015625 8.679568998035872" stroke-width="0.03" stroke="#000000" fill="none"/>
<path d="M5.015625 8.51718923482629L5.2265625 8.395404412419104" stroke-width="0.03" stroke="#000000" fill="none"/>
<path d="M5.2265625 8.233024649209522L5.2265625 8.638974057233478L5.578125 8.841948761245455L5.578125 9.004328524455037" stroke-width="0.03" stroke="#000000" fill="none"/>
<path d="M5.578125 8.841948761245455L3.679687499999999 9.938012162910134L3.2578125 9.694442518095762" stroke-width="0.03" stroke="#000000" fill="none"/>
<path d="M3.679687499999999 9.938012162910134L3.679687499999999 10.019202044514927" stroke-width="0.03" stroke="#000000" fill="none"/>
<path d="M3.679687499999999 10.181581807724509L3.3984375 10.343961570934091" stroke-width="0.03" stroke="#000000" fill="none"/>
<path d="M5.2265625 8.233024649209522L6.0703125 8.720163938838269" stroke-width="0.03" stroke="#000000" fill="none"/>
<path d="M6.6328125 8.395404412419104L6 8.030049945197543L6 7.867670181987961L6.914062500000001 7.33993595155682L8.7421875 8.395404412419104L8.7421875 8.476594294023895" stroke-width="0.03" stroke="#000000" fill="none"/>
<path d="M8.7421875 8.395404412419104L8.671875 8.435999353221499" stroke-width="0.03" stroke="#000000" fill="none"/>
<path d="M9.0234375 8.476594294023895L9.0234375 8.557784175628687" stroke-width="0.03" stroke="#000000" fill="none"/>
<path d="M9.09375 8.598379116431081L9.09375 8.51718923482629" stroke-width="0.03" stroke="#000000" fill="none"/>
<path d="M9.1640625 8.720163938838269L10.5 7.948860063592752L11.835937500000002 8.720163938838269" stroke-width="0.03" stroke="#000000" fill="none"/>
<path d="M11.90625 8.598379116431081L11.976562500000002 8.557784175628687L12.046875 8.598379116431081" stroke-width="0.03" stroke="#000000" fill="none"/>
<path d="M11.976562500000002 8.557784175628687L11.976562500000002 8.476594294023895L11.90625 8.51718923482629L11.34375 8.192429708407126L11.34375 8.273619590011917L11.90625 8.598379116431081L11.90625 8.51718923482629" stroke-width="0.03" stroke="#000000" fill="none"/>
<path d="M11.976562500000002 8.476594294023895L12.1171875 8.557784175628687" stroke-width="0.03" stroke="#000000" fill="none"/>
<path d="M12.2578125 8.476594294023895L12.2578125 8.395404412419104L14.0859375 7.33993595155682L15.000000000000002 7.867670181987961L15.000000000000002 8.030049945197543L14.367187500000002 8.395404412419104" stroke-width="0.03" stroke="#000000" fill="none"/>
<path d="M14.2265625 8.314214530814313L15.000000000000002 7.867670181987961" stroke-width="0.03" stroke="#000000" fill="none"/>
<path d="M15.773437500000002 8.233024649209522L14.9296875 8.720163938838269" stroke-width="0.03" stroke="#000000" fill="none"/>
<path d="M15.421875 8.841948761245455L15.773437500000002 8.638974057233478L15.773437500000002 8.233024649209522L13.945312500000002 7.177556188347237L12.539062500000002 7.989455004395149L12.1171875 7.745885359580775L11.34375 8.192429708407126" stroke-width="0.03" stroke="#000000" fill="none"/>
<path d="M11.4140625 8.07064488599994L11.625000000000002 7.948860063592752" stroke-width="0.03" stroke="#000000" fill="none"/>
<path d="M11.625000000000002 8.030049945197543L11.625000000000002 7.542910655568797L12.679687500000002 6.933986543532863L13.5234375 7.421125833161611" stroke-width="0.03" stroke="#000000" fill="none"/>
<path d="M13.6640625 7.33993595155682L13.453125 7.218151129149632L13.3125 7.299341010754423" stroke-width="0.03" stroke="#000000" fill="none"/>
<path d="M12.046875 7.78648030038317L11.625000000000002 7.542910655568797" stroke-width="0.03" stroke="#000000" fill="none"/>
<path d="M11.1328125 7.583505596371193L10.8515625 7.745885359580775L11.484375000000002 8.111239826802334" stroke-width="0.03" stroke="#000000" fill="none"/>
<path d="M11.1328125 7.827075241185566L11.0625 7.867670181987961" stroke-width="0.03" stroke="#000000" fill="none"/>
<path d="M11.1328125 7.827075241185566L11.1328125 7.583505596371193L10.78125 7.380530892359214L10.5 7.542910655568797L10.218750000000002 7.380530892359214L9.867187500000002 7.583505596371193L9.867187500000002 7.827075241185566L9.9375 7.867670181987961" stroke-width="0.03" stroke="#000000" fill="none"/>
<path d="M10.1484375 7.745885359580775L9.515625 8.111239826802334" stroke-width="0.03" stroke="#000000" fill="none"/>
<path d="M9.375 7.542910655568797L8.953125 7.78648030038317" stroke-width="0.03" stroke="#000000" fill="none"/>
<path d="M9.867187500000002 7.583505596371193L10.1484375 7.745885359580775" stroke-width="0.03" stroke="#000000" fill="none"/>
<path d="M10.5 7.948860063592752L10.5 8.192429708407126L10.359375 8.273619590011917" stroke-width="0.03" stroke="#000000" fill="none"/>
<path d="M10.218750000000002 8.192429708407126L9.234375 8.760758879640663L7.6171875 7.827075241185566" stroke-width="0.03" stroke="#000000" fill="none"/>
<path d="M6.7734375 8.314214530814313L6 7.867670181987961" stroke-width="0.03" stroke="#000000" fill="none"/>
<path d="M10.218750000000002 8.192429708407126L10.5 8.354809471616708" stroke-width="0.03" stroke="#000000" fill="none"/>
<path d="M10.5 8.192429708407126L10.640625 8.273619590011917" stroke-width="0.03" stroke="#000000" fill="none"/>
<path d="M10.5 9.329088050874201L10.640625 9.410277932478992" stroke-width="0.03" stroke="#000000" fill="none"/>
<path d="M12.2578125 8.395404412419104L12.328125000000002 8.435999353221499" stroke-width="0.03" stroke="#000000" fill="none"/>
<path d="M15.421875 8.841948761245455L15.421875 9.004328524455037" stroke-width="0.03" stroke="#000000" fill="none"/>
<path d="M15.421875 8.841948761245455L17.320312500000004 9.938012162910134L17.7421875 9.694442518095762L15.843750000000002 8.598379116431081L15.984375 8.51718923482629L15.773437500000002 8.395404412419104" stroke-width="0.03" stroke="#000000" fill="none"/>
<path d="M15.984375 8.51718923482629L15.984375 8.679568998035872" stroke-width="0.03" stroke="#000000" fill="none"/>
<path d="M17.320312500000004 9.938012162910134L17.320312500000004 10.019202044514927" stroke-width="0.03" stroke="#000000" fill="none"/>
<path d="M17.320312500000004 10.181581807724509L17.6015625 10.343961570934091" stroke-width="0.03" stroke="#000000" fill="none"/>
<path d="M17.7421875 10.668721097353256L17.7421875 9.694442518095762" stroke-width="0.03" stroke="#000000" fill="none"/>
<path d="M18.585937500000004 11.155860386982003L18.1640625 11.399430031796376L18.09375 11.358835090993981" stroke-width="0.03" stroke="#000000" fill="none"/>
<path d="M18.1640625 11.399430031796376L18.1640625 13.591556835125736L18.0234375 13.510366953520945" stroke-width="0.03" stroke="#000000" fill="none"/>
<path d="M18.656250000000004 14.362860710371251L18.0234375 14.728215177592812" stroke-width="0.03" stroke="#000000" fill="none"/>
<path d="M18.0234375 14.890594940802394L18.796875 14.444050591976044L18.656250000000004 14.362860710371251" stroke-width="0.03" stroke="#000000" fill="none"/>
<path d="M18.796875 14.444050591976044L18.796875 15.499519052838329" stroke-width="0.03" stroke="#000000" fill="none"/>
<path d="M9.65625 14.687620236790417L9.515625 14.606430355185626" stroke-width="0.03" stroke="#000000" fill="none"/>
<path d="M8.8125 15.824278579257493L7.40625 16.636177395305403" stroke-width="0.03" stroke="#000000" fill="none"/>
<path d="M5.859375000000001 17.529266092958107L5.859375000000001 18.341164909006018L5.15625 17.93521550098206L5.15625 17.123316684934153L5.859375000000001 17.529266092958107" stroke-width="0.03" stroke="#000000" fill="none"/>
<path d="M5.71875 17.610455974562896L5.15625 17.93521550098206" stroke-width="0.03" stroke="#000000" fill="none"/>
<path d="M4.875 18.259975027401225L4.734375 18.178785145796436L4.5234375 18.30056996820362L4.5234375 16.75796221771259" stroke-width="0.03" stroke="#000000" fill="none"/>
<path d="M4.382812499999999 16.75796221771259L4.3125 16.79855715851499L4.3125 17.448076211353314L3.539062500000001 17.001531862526964L3.539062500000001 16.514392572898217L2.1328124999999996 15.702493756850306L2.1328124999999996 13.591556835125736L2.976562500000001 14.078696124754483" stroke-width="0.03" stroke="#000000" fill="none"/>
<path d="M2.976562500000001 14.728215177592812L2.34375 14.362860710371251L2.203125 14.444050591976044L2.203125 15.499519052838329L4.03125 16.55498751370061L4.1015625 16.514392572898217" stroke-width="0.03" stroke="#000000" fill="none"/>
<path d="M4.03125 16.473797632095824L4.03125 16.55498751370061" stroke-width="0.03" stroke="#000000" fill="none"/>
<path d="M4.2421875 16.59558245450301L4.2421875 16.75796221771259L4.3125 16.79855715851499" stroke-width="0.03" stroke="#000000" fill="none"/>
<path d="M4.382812499999999 16.75796221771259L4.382812499999999 17.407481270550917L4.3125 17.448076211353314" stroke-width="0.03" stroke="#000000" fill="none"/>
<path d="M4.171875 17.448076211353314L3.9609375 17.326291388946128" stroke-width="0.03" stroke="#000000" fill="none"/>
<path d="M4.03125 17.28569644814373L3.609375 17.529266092958107L2.5546875 16.920341980922174L2.5546875 15.946063401664679" stroke-width="0.03" stroke="#000000" fill="none"/>
<path d="M2.4140625000000004 15.864873520059888L2.4140625000000004 16.10844316487426L2.5546875 16.189633046479052" stroke-width="0.03" stroke="#000000" fill="none"/>
<path d="M3.609375 17.04212680332936L3.609375 17.529266092958107" stroke-width="0.03" stroke="#000000" fill="none"/>
<path d="M3.8906249999999996 17.93521550098206L4.1015625 17.813430678574875L4.171875 17.85402561937727" stroke-width="0.03" stroke="#000000" fill="none"/>
<path d="M4.171875 18.097595264191643L4.171875 17.366886329748525" stroke-width="0.03" stroke="#000000" fill="none"/>
<path d="M4.2421875 16.75796221771259L4.3125 16.717367276910196L4.382812499999999 16.75796221771259" stroke-width="0.03" stroke="#000000" fill="none"/>
<path d="M4.3125 16.717367276910196L4.3125 16.636177395305403" stroke-width="0.03" stroke="#000000" fill="none"/>
<path d="M3.8906249999999996 17.93521550098206L3.8906249999999996 18.341164909006018L4.171875 18.5035446722156L4.171875 18.828304198634765L4.5234375 19.03127890264674L4.734375 18.909494080239554L4.734375 18.828304198634765" stroke-width="0.03" stroke="#000000" fill="none"/>
<path d="M4.5234375 18.706519376227575L4.5234375 19.03127890264674" stroke-width="0.03" stroke="#000000" fill="none"/>
<path d="M4.5234375 18.706519376227575L5.15625 19.071873843449136" stroke-width="0.03" stroke="#000000" fill="none"/>
<path d="M5.0859375 19.03127890264674L5.0859375 19.274848547461115" stroke-width="0.03" stroke="#000000" fill="none"/>
<path d="M5.15625 19.23425360665872L4.734375 19.477823251473097L4.734375 20.69567147554496L5.578125 21.18281076517371" stroke-width="0.03" stroke="#000000" fill="none"/>
<path d="M5.578125 21.345190528383288L5.3671875 21.223405705976102L5.3671875 21.06102594276652" stroke-width="0.03" stroke="#000000" fill="none"/>
<path d="M5.578125 21.669950054802452L5.578125 20.04615242270663L5.15625 19.802582777892262L5.15625 18.909494080239554L5.2265625 18.86889913943716L5.7890625 19.193658665856326L5.7890625 19.274848547461115L5.71875 19.31544348826351L5.859375000000001 19.3966333698683" stroke-width="0.03" stroke="#000000" fill="none"/>
<path d="M5.859375000000001 19.31544348826351L5.7890625 19.274848547461115" stroke-width="0.03" stroke="#000000" fill="none"/>
<path d="M5.7890625 19.193658665856326L5.71875 19.23425360665872L5.15625 18.909494080239554" stroke-width="0.03" stroke="#000000" fill="none"/>
<path d="M5.71875 19.23425360665872L5.71875 19.31544348826351" stroke-width="0.03" stroke="#000000" fill="none"/>
<path d="M5.859375000000001 19.559013133077883L5.7890625 19.59960807388028L5.7890625 21.71054499560485L6.703125 22.238279226035992L6.84375 22.157089344431203L6.84375 21.42638040998808" stroke-width="0.03" stroke="#000000" fill="none"/>
<path d="M6.703125 21.345190528383288L6.703125 22.238279226035992" stroke-width="0.03" stroke="#000000" fill="none"/>
<path d="M7.40625 21.751139936407245L7.40625 22.72541851566474L5.578125 21.669950054802452" stroke-width="0.03" stroke="#000000" fill="none"/>
<path d="M5.15625 19.721392896287465L4.734375 19.477823251473097" stroke-width="0.03" stroke="#000000" fill="none"/>
<path d="M5.7890625 19.59960807388028L5.859375000000001 19.640203014682676" stroke-width="0.03" stroke="#000000" fill="none"/>
<path d="M5.859375000000001 19.071873843449136L4.5234375 18.30056996820362" stroke-width="0.03" stroke="#000000" fill="none"/>
<path d="M4.734375 18.178785145796436L4.734375 18.016405382586854" stroke-width="0.03" stroke="#000000" fill="none"/>
<path d="M4.171875 18.097595264191643L3.8906249999999996 17.93521550098206" stroke-width="0.03" stroke="#000000" fill="none"/>
<path d="M5.71875 17.610455974562896L5.71875 17.448076211353314" stroke-width="0.03" stroke="#000000" fill="none"/>
<path d="M5.71875 17.610455974562896L5.859375000000001 17.69164585616769" stroke-width="0.03" stroke="#000000" fill="none"/>
<path d="M2.976562500000001 14.890594940802394L2.203125 14.444050591976044" stroke-width="0.03" stroke="#000000" fill="none"/>
<path d="M2.293164916401084 2.9786238469347097L2.433374224245081 2.8001756369514412" stroke-width="0.03" stroke="#000000" fill="none"/>
<path d="M2.522598329236715 2.8384145390907127L2.6373150356545305 2.8384145390907127L2.6755539377938025 2.8511608398038035L2.6883002385068933 2.8639071405168943L2.7010465392199836 2.889399741943075L2.7010465392199836 2.927638644082347L2.6883002385068933 2.953131245508528L2.6755539377938025 2.965877546221619L2.6373150356545305 2.9786238469347097L2.522598329236715 2.9786238469347097L2.522598329236715 2.7109515319598065L2.6373150356545305 2.7109515319598065L2.6755539377938025 2.7236978326728973L2.6883002385068933 2.736444133385988L2.7010465392199836 2.761936734812169L2.7010465392199836 2.7874293362383504L2.6883002385068933 2.8129219376645316L2.6755539377938025 2.825668238377622L2.6373150356545305 2.8384145390907127" stroke-width="0.03" stroke="#000000" fill="none"/>
<path d="M2.433374224245081 2.9786238469347097L2.293164916401084 2.8001756369514412" stroke-width="0.03" stroke="#000000" fill="none"/>
<path d="M2.1147167064178154 2.7109515319598065L2.076477804278544 2.7236978326728973L2.0509852028523623 2.761936734812169L2.038238902139272 2.825668238377622L2.038238902139272 2.8639071405168943L2.0509852028523623 2.927638644082347L2.076477804278544 2.965877546221619L2.1147167064178154 2.9786238469347097L2.140209307843997 2.9786238469347097L2.1784482099832685 2.965877546221619L2.2039408114094496 2.927638644082347L2.2166871121225404 2.8639071405168943L2.2166871121225404 2.825668238377622L2.2039408114094496 2.761936734812169L2.1784482099832685 2.7236978326728973L2.140209307843997 2.7109515319598065L2.1147167064178154 2.7109515319598065" stroke-width="0.03" stroke="#000000" fill="none"/>
<path d="M2.0824957911384305 2.015598694615191L2.0824957911384305 1.7268634256306838" stroke-width="0.03" stroke="#000000" fill="none"/>
<path d="M2.061871843353823 1.5824957911384305L2.0824957911384305 1.6031197389230383L2.1031197389230383 1.5824957911384305L2.0824957911384305 1.5618718433538228L2.061871843353823 1.5824957911384305" stroke-width="0.03" stroke="#000000" fill="none"/>
<path d="M2.226863425630684 1.953726851261368L2.2474873734152916 1.9949747468305832L2.3093592167691144 2.015598694615191L2.3712310601229376 2.015598694615191L2.4331029034767604 1.9949747468305832L2.4537268512613677 1.953726851261368L2.4537268512613677 1.9331029034767604L2.4331029034767604 1.891855007907545L2.391855007907545 1.8712310601229374L2.2887352689845066 1.8506071123383299L2.2474873734152916 1.8299831645537221L2.226863425630684 1.7887352689845069L2.2474873734152916 1.7474873734152916L2.3093592167691144 1.7268634256306838L2.3712310601229376 1.7268634256306838L2.4331029034767604 1.7474873734152916L2.4537268512613677 1.7887352689845069" stroke-width="0.03" stroke="#000000" fill="none"/>
<path d="M2.680590276892052 1.7268634256306838L2.6393423813228365 1.7474873734152916L2.5980944857536215 1.7887352689845069L2.5774705379690137 1.8506071123383299L2.5774705379690137 1.891855007907545L2.5980944857536215 1.953726851261368L2.6393423813228365 1.9949747468305832L2.680590276892052 2.015598694615191L2.7424621202458748 2.015598694615191L2.78371001581509 1.9949747468305832L2.8249579113843053 1.953726851261368L2.845581859168913 1.891855007907545L2.845581859168913 1.8506071123383299L2.8249579113843053 1.7887352689845069L2.78371001581509 1.7474873734152916L2.7424621202458748 1.7268634256306838L2.680590276892052 1.7268634256306838" stroke-width="0.03" stroke="#000000" fill="none"/>
<path d="M2.907453702522736 2.056846590184406L3.237436867076458 2.056846590184406" stroke-width="0.03" stroke="#000000" fill="none"/>
<path d="M3.2993087104302807 1.953726851261368L3.3199326582148885 1.9949747468305832L3.3818045015687113 2.015598694615191L3.443676344922534 2.015598694615191L3.5055481882763573 1.9949747468305832L3.526172136060965 1.953726851261368L3.526172136060965 1.9331029034767604L3.5055481882763573 1.891855007907545L3.464300292707142 1.8712310601229374L3.361180553784104 1.8506071123383299L3.3199326582148885 1.8299831645537221L3.2993087104302807 1.7887352689845069L3.3199326582148885 1.7474873734152916L3.3818045015687113 1.7268634256306838L3.443676344922534 1.7268634256306838L3.5055481882763573 1.7474873734152916L3.526172136060965 1.7887352689845069" stroke-width="0.03" stroke="#000000" fill="none"/>
<path d="M3.6705397705532183 1.8093592167691144L3.732411613907041 1.7474873734152916L3.773659509476256 1.7268634256306838L3.8355313528300794 1.7268634256306838L3.8767792483992944 1.7474873734152916L3.897403196183902 1.8093592167691144L3.897403196183902 2.015598694615191" stroke-width="0.03" stroke="#000000" fill="none"/>
<path d="M3.6705397705532183 2.015598694615191L3.6705397705532183 1.7268634256306838" stroke-width="0.03" stroke="#000000" fill="none"/>
<path d="M4.144890569599194 1.7268634256306838L4.103642674029978 1.7474873734152916L4.062394778460764 1.7887352689845069L4.041770830676155 1.8506071123383299L4.041770830676155 1.891855007907545L4.062394778460764 1.953726851261368L4.103642674029978 1.9949747468305832L4.144890569599194 2.015598694615191L4.206762412953017 2.015598694615191L4.2480103085222325 1.9949747468305832L4.289258204091447 1.953726851261368L4.309882151876055 1.891855007907545L4.309882151876055 1.8506071123383299L4.289258204091447 1.7887352689845069L4.2480103085222325 1.7474873734152916L4.206762412953017 1.7268634256306838L4.144890569599194 1.7268634256306838" stroke-width="0.03" stroke="#000000" fill="none"/>
<path d="M4.4336258385837 1.7268634256306838L4.516121629722131 2.015598694615191L4.5986174208605615 1.7268634256306838L4.681113211998992 2.015598694615191L4.7636090031374225 1.7268634256306838" stroke-width="0.03" stroke="#000000" fill="none"/>
<path d="M4.866728742060461 1.7268634256306838L5.011096376552715 1.7268634256306838" stroke-width="0.03" stroke="#000000" fill="none"/>
<path d="M5.031720324337321 1.5824957911384305L4.990472428768107 1.5824957911384305L4.949224533198891 1.6031197389230383L4.928600585414284 1.664991582276861L4.928600585414284 2.015598694615191" stroke-width="0.03" stroke="#000000" fill="none"/>
<path d="M5.155464011044968 2.015598694615191L5.155464011044968 1.5824957911384305" stroke-width="0.03" stroke="#000000" fill="none"/>
<path d="M5.547319018952512 1.7268634256306838L5.547319018952512 2.015598694615191" stroke-width="0.03" stroke="#000000" fill="none"/>
<path d="M5.547319018952512 1.953726851261368L5.506071123383298 1.9949747468305832L5.464823227814082 2.015598694615191L5.402951384460259 2.015598694615191L5.3617034888910435 1.9949747468305832L5.320455593321829 1.953726851261368L5.299831645537221 1.891855007907545L5.299831645537221 1.8506071123383299L5.320455593321829 1.7887352689845069L5.3617034888910435 1.7474873734152916L5.402951384460259 1.7268634256306838L5.464823227814082 1.7268634256306838L5.506071123383298 1.7474873734152916L5.547319018952512 1.7887352689845069" stroke-width="0.03" stroke="#000000" fill="none"/>
<path d="M5.712310601229374 1.9331029034767604L5.91855007907545 1.7268634256306838" stroke-width="0.03" stroke="#000000" fill="none"/>
<path d="M5.794806392367804 1.8506071123383299L5.939174026860058 2.015598694615191" stroke-width="0.03" stroke="#000000" fill="none"/>
<path d="M6.042293765783096 1.8506071123383299L6.2897811391983875 1.8506071123383299L6.2897811391983875 1.8093592167691144L6.26915719141378 1.7681113211998993L6.248533243629172 1.7474873734152916L6.207285348059957 1.7268634256306838L6.145413504706134 1.7268634256306838L6.104165609136919 1.7474873734152916L6.062917713567703 1.7887352689845069L6.042293765783096 1.8506071123383299L6.042293765783096 1.891855007907545L6.062917713567703 1.953726851261368L6.104165609136919 1.9949747468305832L6.145413504706134 2.015598694615191L6.207285348059957 2.015598694615191L6.248533243629172 1.9949747468305832L6.2897811391983875 1.953726851261368" stroke-width="0.03" stroke="#000000" fill="none"/>
<path d="M6.434148773690641 1.6856155300614688L6.434148773690641 1.664991582276861L6.454772721475249 1.6237436867076458L6.475396669259856 1.6031197389230383L6.516644564829072 1.5824957911384305L6.599140355967502 1.5824957911384305L6.640388251536717 1.6031197389230383L6.661012199321325 1.6237436867076458L6.681636147105933 1.664991582276861L6.681636147105933 1.7062394778460763L6.661012199321325 1.7474873734152916L6.61976430375211 1.8093592167691144L6.413524825906033 2.015598694615191L6.702260094890541 2.015598694615191" stroke-width="0.03" stroke="#000000" fill="none"/>
<path d="M7.264131938244363 2.2599663291074443L1.5 2.2599663291074443" stroke-width="0.03" stroke="#000000" fill="none"/>
<path d="M2.9687188541948863 2.7746830355252596L2.955972553481796 2.7491904340990785L2.930479952055615 2.7236978326728973L2.9049873506294333 2.7109515319598065L2.854002147777071 2.7109515319598065L2.82850954635089 2.7236978326728973L2.8030169449247087 2.7491904340990785L2.790270644211618 2.7746830355252596L2.777524343498527 2.8129219376645316L2.777524343498527 2.8766534412299847L2.790270644211618 2.9148923433692566L2.8030169449247087 2.9403849447954378L2.82850954635089 2.965877546221619L2.854002147777071 2.9786238469347097L2.9049873506294333 2.9786238469347097L2.930479952055615 2.965877546221619L2.955972553481796 2.9403849447954378L2.9687188541948863 2.9148923433692566" stroke-width="0.03" stroke="#000000" fill="none"/>
<path d="M3.2363911691697895 2.9148923433692566L3.2236448684566987 2.9403849447954378L3.198152267030517 2.965877546221619L3.1726596656043364 2.9786238469347097L3.1216744627519737 2.9786238469347097L3.0961818613257925 2.965877546221619L3.0706892598996114 2.9403849447954378L3.057942959186521 2.9148923433692566L3.0451966584734302 2.8766534412299847L3.0451966584734302 2.8129219376645316L3.057942959186521 2.7746830355252596L3.0706892598996114 2.7491904340990785L3.0961818613257925 2.7236978326728973L3.1216744627519737 2.7109515319598065L3.1726596656043364 2.7109515319598065L3.198152267030517 2.7236978326728973L3.2236448684566987 2.7491904340990785L3.2363911691697895 2.7746830355252596" stroke-width="0.03" stroke="#000000" fill="none"/>
<path d="M3.3256152741614233 2.7109515319598065L3.3256152741614233 2.9786238469347097L3.440331980579239 2.9786238469347097L3.478570882718511 2.965877546221619L3.4913171834316015 2.953131245508528L3.504063484144692 2.927638644082347L3.504063484144692 2.889399741943075L3.4913171834316015 2.8639071405168943L3.478570882718511 2.8511608398038035L3.440331980579239 2.8384145390907127L3.3256152741614233 2.8384145390907127" stroke-width="0.03" stroke="#000000" fill="none"/>
<path d="M3.440331980579239 2.8384145390907127L3.478570882718511 2.825668238377622L3.4913171834316015 2.8129219376645316L3.504063484144692 2.7874293362383504L3.504063484144692 2.761936734812169L3.4913171834316015 2.736444133385988L3.478570882718511 2.7236978326728973L3.440331980579239 2.7109515319598065L3.3256152741614233 2.7109515319598065" stroke-width="0.03" stroke="#000000" fill="none"/>
<path d="M3.6060338898494173 2.7109515319598065L3.7462431976934134 2.7109515319598065L3.66976539341487 2.8129219376645316L3.708004295554142 2.8129219376645316L3.733496896980323 2.825668238377622L3.7462431976934134 2.8384145390907127L3.758989498406504 2.8766534412299847L3.758989498406504 2.902146042656166L3.7462431976934134 2.9403849447954378L3.7207505962672327 2.965877546221619L3.6825116941279608 2.9786238469347097L3.644272791988689 2.9786238469347097L3.6060338898494173 2.965877546221619L3.5932875891363265 2.953131245508528L3.5805412884232357 2.927638644082347" stroke-width="0.03" stroke="#000000" fill="none"/>
<path d="M3.8864525055374104 2.9786238469347097L4.013915512668317 2.7109515319598065L3.835467302685048 2.7109515319598065" stroke-width="0.03" stroke="#000000" fill="none"/>
<path d="M4.10313961765995 2.7109515319598065L4.10313961765995 2.9786238469347097L4.192363722651585 2.9786238469347097L4.230602624790857 2.965877546221619L4.256095226217038 2.9403849447954378L4.268841526930129 2.9148923433692566L4.28158782764322 2.8766534412299847L4.28158782764322 2.8129219376645316L4.268841526930129 2.7746830355252596L4.256095226217038 2.7491904340990785L4.230602624790857 2.7236978326728973L4.192363722651585 2.7109515319598065L4.10313961765995 2.7109515319598065" stroke-width="0.03" stroke="#000000" fill="none"/>
<path d="M4.396304534061034 2.761936734812169L4.421797135487216 2.7491904340990785L4.460036037626487 2.7109515319598065L4.460036037626487 2.9786238469347097" stroke-width="0.03" stroke="#000000" fill="none"/>
<path d="M5.712310601229374 2.015598694615191L5.712310601229374 1.5824957911384305" stroke-width="0.03" stroke="#000000" fill="none"/>
</svg>
