<?xml version="1.0" standalone="no"?>
<svg width="21cm" height="29.7cm" version="1.1" xmlns="http://www.w3.org/2000/svg" viewBox="0.0 0.0 21.000001 29.700001">
<path d="M6.914062500000001 6.69041689871849L6.984375 6.649821957916094L7.6875 7.05577136594005L7.6875 7.542910655568797L7.6171875 7.583505596371193L7.125 7.299341010754423L4.734375 8.679568998035872L4.734375 9.24789816926941" stroke-width="0.03" stroke="#000000" fill="none"/>
<path d="M4.382812499999999 9.044923465257433L2.8359374999999996 9.938012162910134" stroke-width="0.03" stroke="#000000" fill="none"/>
<path d="M2.5546875 9.775632399700552L2.4140625000000004 9.856822281305345L2.4140625000000004 10.181581807724509L6.84375 12.739063078275429L6.84375 12.414303551856264L2.4140625000000004 9.856822281305345" stroke-width="0.03" stroke="#000000" fill="none"/>
<path d="M2.5546875 9.775632399700552L6.984375 12.333113670251475L6.984375 12.65787319667064L7.4765625 12.37370861105387" stroke-width="0.03" stroke="#000000" fill="none"/>
<path d="M7.6171875 12.45489849265866L6.984375 12.820252959880222L6.984375 13.55096189432334" stroke-width="0.03" stroke="#000000" fill="none"/>
<path d="M6.84375 13.46977201271855L6.84375 12.90144284148501L6.5625 13.063822604694593L2.1328124999999996 10.506341334143674L2.1328124999999996 10.343961570934091L2.4140625000000004 10.181581807724509" stroke-width="0.03" stroke="#000000" fill="none"/>
<path d="M2.1328124999999996 10.343961570934091L6.5625 12.90144284148501L6.84375 12.739063078275429" stroke-width="0.03" stroke="#000000" fill="none"/>
<path d="M6.984375 12.820252959880222L7.6875 13.226202367904175L7.546875 13.307392249508968" stroke-width="0.03" stroke="#000000" fill="none"/>
<path d="M7.6875 13.226202367904175L7.6875 13.063822604694593" stroke-width="0.03" stroke="#000000" fill="none"/>
<path d="M7.96875 13.226202367904175L7.96875 13.388582131113758L7.828125 13.46977201271855" stroke-width="0.03" stroke="#000000" fill="none"/>
<path d="M7.96875 13.388582131113758L8.6015625 13.753936598335319L8.6015625 13.510366953520945L8.8828125 13.347987190311363L8.8828125 13.510366953520945L8.8125 13.55096189432334L8.8125 13.713341657532922L9.0234375 13.83512647994011L9.0234375 13.672746716730527L8.8125 13.55096189432334" stroke-width="0.03" stroke="#000000" fill="none"/>
<path d="M8.8828125 13.347987190311363L8.53125 13.145012486299386L8.25 13.307392249508968L8.25 13.55096189432334L8.0390625 13.672746716730527L8.0390625 13.997506243149692L8.390625 14.200480947161669L8.53125 14.11929106555688L8.53125 14.038101183952087L8.671875 13.956911302347297L8.8828125 14.078696124754483L8.7421875 14.159886006359274L8.7421875 14.484645532778439L8.953125 14.606430355185626L8.953125 15.7430886976527L8.6015625 15.946063401664679L8.6015625 15.377734230431141" stroke-width="0.03" stroke="#000000" fill="none"/>
<path d="M8.7421875 15.458924112035932L8.8828125 15.377734230431141" stroke-width="0.03" stroke="#000000" fill="none"/>
<path d="M8.953125 15.337139289628746L9.0234375 15.29654434882635L9.0234375 14.890594940802394" stroke-width="0.03" stroke="#000000" fill="none"/>
<path d="M8.953125 14.931189881604789L9.1640625 14.809405059197603" stroke-width="0.03" stroke="#000000" fill="none"/>
<path d="M9.1640625 14.890594940802394L9.867187500000002 14.484645532778439L9.867187500000002 13.672746716730527L10.4296875 13.347987190311363L10.5 13.388582131113758L10.570312500000002 13.347987190311363L11.1328125 13.672746716730527L11.1328125 14.484645532778439L11.835937500000002 14.890594940802394L11.835937500000002 15.540113993640723L11.765625 15.580708934443118L11.765625 15.661898816047911L11.203125 15.986658342467075L10.5 15.580708934443118L9.796875 15.986658342467075L9.234375 15.661898816047911L9.234375 15.580708934443118L9.1640625 15.540113993640723L9.1640625 14.890594940802394L9.4453125 15.052974704011977L9.4453125 15.458924112035932L9.796875 15.661898816047911L9.796875 15.986658342467075" stroke-width="0.03" stroke="#000000" fill="none"/>
<path d="M9.867187500000002 16.02725328326947L9.65625 16.14903810567666" stroke-width="0.03" stroke="#000000" fill="none"/>
<path d="M9.7265625 16.10844316487426L9.375 15.905468460862282L9.3046875 15.946063401664679L9.3046875 16.02725328326947" stroke-width="0.03" stroke="#000000" fill="none"/>
<path d="M9.234375 15.986658342467075L9.09375 16.067848224071867L9.09375 18.016405382586854" stroke-width="0.03" stroke="#000000" fill="none"/>
<path d="M9.1640625 18.057000323389246L7.265625000000001 16.960936921724567L7.0546875 17.082721744131756L9.0234375 18.219380086598832L9.0234375 18.462949731413204L7.0546875 17.326291388946128" stroke-width="0.03" stroke="#000000" fill="none"/>
<path d="M7.0546875 17.569861033760503L6.703125 17.366886329748525L6.703125 17.04212680332936L6.421875 16.879747040119774L6.421875 16.473797632095824" stroke-width="0.03" stroke="#000000" fill="none"/>
<path d="M6.3515625 16.433202691293424L6.3515625 17.24510150734134L7.0546875 17.651050915365293" stroke-width="0.03" stroke="#000000" fill="none"/>
<path d="M7.0546875 18.219380086598832L6.7734375 18.38175984980841L5.6484375 17.732240796970082L5.6484375 19.112468784251533L4.6640625 18.544139613017997L4.9453125 18.38175984980841L5.6484375 18.78770925783237" stroke-width="0.03" stroke="#000000" fill="none"/>
<path d="M4.6640625 18.78770925783237L4.171875 18.5035446722156L4.03125 18.58473455382039L4.03125 15.255949408023953L4.2421875 15.134164585616768" stroke-width="0.03" stroke="#000000" fill="none"/>
<path d="M4.03125 15.255949408023953L4.382812499999999 15.458924112035932L4.382812499999999 15.621303875245514L5.578125 16.311417868886238L5.859375000000001 16.14903810567666L5.859375000000001 17.448076211353314L5.578125 17.610455974562896L4.382812499999999 16.920341980922174L4.382812499999999 18.057000323389246L4.6640625 17.894620560179668L4.6640625 17.082721744131756" stroke-width="0.03" stroke="#000000" fill="none"/>
<path d="M4.171875 17.93521550098206L4.171875 18.5035446722156" stroke-width="0.03" stroke="#000000" fill="none"/>
<path d="M4.03125 18.58473455382039L6.914062500000001 20.249127126718612L7.125 20.12734230431142" stroke-width="0.03" stroke="#000000" fill="none"/>
<path d="M6.914062500000001 20.249127126718612L6.914062500000001 19.843177718694655L7.125 19.721392896287465" stroke-width="0.03" stroke="#000000" fill="none"/>
<path d="M7.125 19.640203014682676L7.0546875 19.59960807388028L7.0546875 17.001531862526964L7.4765625 16.75796221771259L9.09375 17.69164585616769" stroke-width="0.03" stroke="#000000" fill="none"/>
<path d="M9.1640625 17.813430678574875L9.3046875 17.732240796970082L9.867187500000002 18.057000323389246L9.867187500000002 19.59960807388028L9.7265625 19.68079795548507L9.1640625 19.356038429065904L9.1640625 17.813430678574875L9.7265625 18.13819020499404L9.7265625 19.68079795548507" stroke-width="0.03" stroke="#000000" fill="none"/>
<path d="M10.078125 19.15306372505393L10.359375 18.990683961844347L9.867187500000002 18.706519376227575" stroke-width="0.03" stroke="#000000" fill="none"/>
<path d="M9.867187500000002 18.544139613017997L10.5 18.909494080239554L11.1328125 18.544139613017997" stroke-width="0.03" stroke="#000000" fill="none"/>
<path d="M11.1328125 18.706519376227575L10.640625 18.990683961844347L10.921875000000002 19.15306372505393L10.921875000000002 24.26802626615577L10.78125 24.34921614776056L10.5 24.18683638455098L10.5 19.071873843449136L10.78125 19.23425360665872L10.921875000000002 19.15306372505393" stroke-width="0.03" stroke="#000000" fill="none"/>
<path d="M10.78125 19.23425360665872L10.78125 24.34921614776056" stroke-width="0.03" stroke="#000000" fill="none"/>
<path d="M10.5 24.18683638455098L10.218750000000002 24.34921614776056L10.078125 24.26802626615577L10.078125 19.15306372505393L10.218750000000002 19.23425360665872L10.5 19.071873843449136" stroke-width="0.03" stroke="#000000" fill="none"/>
<path d="M10.5 18.909494080239554L10.5 18.097595264191643L10.359375 18.178785145796436" stroke-width="0.03" stroke="#000000" fill="none"/>
<path d="M10.5 18.097595264191643L10.640625 18.178785145796436" stroke-width="0.03" stroke="#000000" fill="none"/>
<path d="M10.640625 17.85402561937727L10.5 17.77283573777248L10.5 17.04212680332936L10.2890625 17.163911625736546L10.0078125 17.001531862526964L10.0078125 17.407481270550917L10.2890625 17.569861033760503L10.5 17.448076211353314L10.7109375 17.569861033760503L10.9921875 17.407481270550917L10.9921875 17.001531862526964L10.8515625 16.920341980922174L10.78125 16.960936921724567L10.640625 16.879747040119774L10.640625 16.636177395305403L10.78125 16.717367276910196L10.78125 16.960936921724567" stroke-width="0.03" stroke="#000000" fill="none"/>
<path d="M10.9921875 17.001531862526964L10.7109375 17.163911625736546L10.5 17.04212680332936" stroke-width="0.03" stroke="#000000" fill="none"/>
<path d="M10.359375 16.879747040119774L10.218750000000002 16.960936921724567L10.1484375 16.920341980922174L10.0078125 17.001531862526964" stroke-width="0.03" stroke="#000000" fill="none"/>
<path d="M10.218750000000002 16.960936921724567L10.218750000000002 16.717367276910196L10.359375 16.636177395305403L10.359375 16.879747040119774" stroke-width="0.03" stroke="#000000" fill="none"/>
<path d="M10.218750000000002 16.717367276910196L9.9375 16.55498751370061L9.9375 16.311417868886238L8.953125 15.7430886976527" stroke-width="0.03" stroke="#000000" fill="none"/>
<path d="M8.8828125 15.783683638455097L8.8828125 15.134164585616768" stroke-width="0.03" stroke="#000000" fill="none"/>
<path d="M8.8125 15.174759526419164L8.953125 15.093569644814371" stroke-width="0.03" stroke="#000000" fill="none"/>
<path d="M8.8125 15.174759526419164L8.8125 14.687620236790417L8.6015625 14.56583541438323L8.7421875 14.484645532778439" stroke-width="0.03" stroke="#000000" fill="none"/>
<path d="M8.6015625 14.56583541438323L8.6015625 15.052974704011977L8.8125 15.174759526419164" stroke-width="0.03" stroke="#000000" fill="none"/>
<path d="M8.7421875 15.134164585616768L8.7421875 15.458924112035932L7.0546875 14.484645532778439" stroke-width="0.03" stroke="#000000" fill="none"/>
<path d="M7.0546875 14.403455651173648L7.0546875 16.59558245450301L6.84375 16.717367276910196L6.84375 14.444050591976044L6.984375 14.362860710371251" stroke-width="0.03" stroke="#000000" fill="none"/>
<path d="M6.84375 14.444050591976044L6.6328125 14.322265769568856L6.7734375 14.241075887964065" stroke-width="0.03" stroke="#000000" fill="none"/>
<path d="M6.6328125 14.322265769568856L6.6328125 16.59558245450301" stroke-width="0.03" stroke="#000000" fill="none"/>
<path d="M6.914062500000001 16.6767723361078L6.914062500000001 16.75796221771259L7.3359375 16.514392572898217L7.3359375 14.647025295988021" stroke-width="0.03" stroke="#000000" fill="none"/>
<path d="M7.265625000000001 14.525240473580833L7.40625 14.444050591976044L7.40625 13.794531539137715L6.0703125 13.023227663892198L5.9296875 13.10441754549699L5.9296875 13.753936598335319L7.265625000000001 14.525240473580833L7.265625000000001 13.875721420742504L5.9296875 13.10441754549699" stroke-width="0.03" stroke="#000000" fill="none"/>
<path d="M6.5625 13.063822604694593L6.5625 12.90144284148501" stroke-width="0.03" stroke="#000000" fill="none"/>
<path d="M6.984375 12.982632723089804L8.109375 13.632151775928133" stroke-width="0.03" stroke="#000000" fill="none"/>
<path d="M8.0390625 13.672746716730527L8.390625 13.875721420742504L8.6015625 13.753936598335319" stroke-width="0.03" stroke="#000000" fill="none"/>
<path d="M8.390625 13.875721420742504L8.390625 14.200480947161669" stroke-width="0.03" stroke="#000000" fill="none"/>
<path d="M8.53125 14.038101183952087L8.7421875 14.159886006359274" stroke-width="0.03" stroke="#000000" fill="none"/>
<path d="M8.8828125 14.322265769568856L9.515625 14.687620236790417" stroke-width="0.03" stroke="#000000" fill="none"/>
<path d="M9.234375 14.85L8.953125 14.687620236790417" stroke-width="0.03" stroke="#000000" fill="none"/>
<path d="M8.953125 14.606430355185626L8.8125 14.687620236790417" stroke-width="0.03" stroke="#000000" fill="none"/>
<path d="M8.8828125 14.56583541438323L8.8828125 13.9163163615449L9.4453125 13.591556835125736" stroke-width="0.03" stroke="#000000" fill="none"/>
<path d="M9.515625 13.632151775928133L10.5 13.063822604694593L10.5 12.65787319667064L10.0078125 12.942037782287407" stroke-width="0.03" stroke="#000000" fill="none"/>
<path d="M10.1484375 13.023227663892198L9.867187500000002 13.18560742710178" stroke-width="0.03" stroke="#000000" fill="none"/>
<path d="M9.9375 13.226202367904175L9.515625 13.46977201271855L9.515625 13.632151775928133L9.3046875 13.510366953520945L9.3046875 13.347987190311363L9.7265625 13.10441754549699L9.9375 13.226202367904175L9.9375 13.388582131113758" stroke-width="0.03" stroke="#000000" fill="none"/>
<path d="M9.9375 13.307392249508968L10.5 12.982632723089804L11.0625 13.307392249508968" stroke-width="0.03" stroke="#000000" fill="none"/>
<path d="M11.0625 13.388582131113758L11.0625 13.226202367904175L11.273437500000002 13.10441754549699L11.6953125 13.347987190311363L11.6953125 13.510366953520945L11.484375000000002 13.632151775928133L10.5 13.063822604694593" stroke-width="0.03" stroke="#000000" fill="none"/>
<path d="M10.8515625 13.023227663892198L12.539062500000002 12.048949084634705" stroke-width="0.03" stroke="#000000" fill="none"/>
<path d="M12.609375 12.0895440254371L10.7109375 10.99348062377242L10.7109375 10.749910978958045L12.679687500000002 11.886569321425123L12.679687500000002 12.048949084634705" stroke-width="0.03" stroke="#000000" fill="none"/>
<path d="M12.679687500000002 11.886569321425123L12.890625000000002 11.764784499017935L10.921875000000002 10.62812615655086" stroke-width="0.03" stroke="#000000" fill="none"/>
<path d="M11.1328125 10.506341334143674L10.78125 10.303366630131695L10.5 10.465746393341277L10.218750000000002 10.303366630131695L9.867187500000002 10.506341334143674" stroke-width="0.03" stroke="#000000" fill="none"/>
<path d="M9.796875 10.465746393341277L10.5 10.059796985317323L11.203125 10.465746393341277" stroke-width="0.03" stroke="#000000" fill="none"/>
<path d="M11.6953125 10.181581807724509L11.6953125 9.856822281305345L10.570312500000002 9.207303228467016L11.765625 8.51718923482629L10.78125 7.948860063592752L10.78125 8.273619590011917L11.484375000000002 8.679568998035872" stroke-width="0.03" stroke="#000000" fill="none"/>
<path d="M10.9921875 7.827075241185566L10.5 7.542910655568797L10.5 7.380530892359214L13.382812500000002 9.044923465257433L13.382812500000002 9.288493110071807" stroke-width="0.03" stroke="#000000" fill="none"/>
<path d="M13.382812500000002 9.044923465257433L13.031250000000002 9.24789816926941L12.890625000000002 9.166708287664619L11.6953125 9.856822281305345" stroke-width="0.03" stroke="#000000" fill="none"/>
<path d="M11.6953125 10.181581807724509L10.570312500000002 9.53206275488618L10.570312500000002 9.207303228467016" stroke-width="0.03" stroke="#000000" fill="none"/>
<path d="M10.4296875 9.207303228467016L9.3046875 9.856822281305345L9.3046875 10.181581807724509L10.4296875 9.53206275488618L10.4296875 9.207303228467016L9.234375 8.51718923482629L10.218750000000002 7.948860063592752L10.218750000000002 8.273619590011917L9.515625 8.679568998035872" stroke-width="0.03" stroke="#000000" fill="none"/>
<path d="M10.0078125 7.827075241185566L10.5 7.542910655568797" stroke-width="0.03" stroke="#000000" fill="none"/>
<path d="M10.5 7.380530892359214L7.6171875 9.044923465257433L7.6171875 9.288493110071807" stroke-width="0.03" stroke="#000000" fill="none"/>
<path d="M7.6171875 9.044923465257433L7.96875 9.24789816926941L8.109375 9.166708287664619L9.3046875 9.856822281305345" stroke-width="0.03" stroke="#000000" fill="none"/>
<path d="M8.4609375 9.694442518095762L6.984375 10.54693627494607L4.382812499999999 9.044923465257433" stroke-width="0.03" stroke="#000000" fill="none"/>
<path d="M4.734375 8.679568998035872L5.4375 9.085518406059828L5.5078125 9.044923465257433L5.71875 9.166708287664619L6.6328125 8.638974057233478L6.421875 8.51718923482629L6.421875 8.354809471616708L8.4609375 7.177556188347237L8.53125 7.218151129149632L8.7421875 7.096366306742446L9.65625 7.624100537173588" stroke-width="0.03" stroke="#000000" fill="none"/>
<path d="M9.7265625 7.583505596371193L7.1953125 9.044923465257433L7.125 9.004328524455037L6 9.653847577293366L6 9.735037458898159" stroke-width="0.03" stroke="#000000" fill="none"/>
<path d="M6.0703125 9.694442518095762L5.7890625 9.856822281305345" stroke-width="0.03" stroke="#000000" fill="none"/>
<path d="M5.71875 9.816227340502948L5.71875 9.166708287664619" stroke-width="0.03" stroke="#000000" fill="none"/>
<path d="M5.5078125 9.044923465257433L5.5078125 9.694442518095762" stroke-width="0.03" stroke="#000000" fill="none"/>
<path d="M5.4375 9.653847577293366L5.4375 9.085518406059828" stroke-width="0.03" stroke="#000000" fill="none"/>
<path d="M6 9.653847577293366L6.0703125 9.694442518095762" stroke-width="0.03" stroke="#000000" fill="none"/>
<path d="M6.210937500000001 9.775632399700552L6 9.897417222107741L6 9.97860710371253" stroke-width="0.03" stroke="#000000" fill="none"/>
<path d="M6 9.897417222107741L5.859375000000001 9.816227340502948L5.859375000000001 9.897417222107741" stroke-width="0.03" stroke="#000000" fill="none"/>
<path d="M6.0703125 10.019202044514927L6.210937500000001 9.938012162910134L6.210937500000001 9.775632399700552L6.984375 10.222176748526905L6.984375 10.384556511736488L8.109375 9.735037458898159L8.109375 9.572657695688576L7.3359375 9.126113346862224L9.867187500000002 7.664695477975984L9.867187500000002 7.745885359580775L10.218750000000002 7.948860063592752" stroke-width="0.03" stroke="#000000" fill="none"/>
<path d="M9.867187500000002 7.664695477975984L9.7265625 7.583505596371193" stroke-width="0.03" stroke="#000000" fill="none"/>
<path d="M9.375 7.4617207739640055L10.0078125 7.096366306742446L9.515625 6.8122017211256765L10.0078125 6.5280371355089075L10.5 6.8122017211256765L10.9921875 6.5280371355089075L11.484375000000002 6.8122017211256765L11.484375000000002 7.05577136594005" stroke-width="0.03" stroke="#000000" fill="none"/>
<path d="M11.4140625 7.015176425137655L11.1328125 7.177556188347237" stroke-width="0.03" stroke="#000000" fill="none"/>
<path d="M10.9921875 7.096366306742446L11.484375000000002 6.8122017211256765" stroke-width="0.03" stroke="#000000" fill="none"/>
<path d="M11.4140625 7.015176425137655L11.90625 7.299341010754423" stroke-width="0.03" stroke="#000000" fill="none"/>
<path d="M11.625000000000002 7.4617207739640055L10.9921875 7.096366306742446" stroke-width="0.03" stroke="#000000" fill="none"/>
<path d="M10.78125 6.649821957916094L10.7109375 6.609227017113699L10.5 6.731011839520885L10.2890625 6.609227017113699L10.218750000000002 6.649821957916094" stroke-width="0.03" stroke="#000000" fill="none"/>
<path d="M10.359375 6.649821957916094L10.5 6.568632076311303L10.5 5.675543378658601L8.53125 6.8122017211256765L8.53125 7.218151129149632" stroke-width="0.03" stroke="#000000" fill="none"/>
<path d="M8.3203125 7.2587460699520285L8.25 7.218151129149632L8.25 6.649821957916094L8.53125 6.8122017211256765" stroke-width="0.03" stroke="#000000" fill="none"/>
<path d="M9.09375 7.299341010754423L9.5859375 7.015176425137655L9.867187500000002 7.177556188347237" stroke-width="0.03" stroke="#000000" fill="none"/>
<path d="M9.515625 7.05577136594005L9.515625 6.8122017211256765" stroke-width="0.03" stroke="#000000" fill="none"/>
<path d="M10.5 6.568632076311303L10.640625 6.649821957916094" stroke-width="0.03" stroke="#000000" fill="none"/>
<path d="M10.5 5.675543378658601L12.46875 6.8122017211256765L12.46875 7.218151129149632L12.539062500000002 7.177556188347237L14.578125 8.354809471616708L14.578125 8.51718923482629L14.367187500000002 8.638974057233478L14.367187500000002 8.963733583652642L14.648437500000002 9.126113346862224L14.648437500000002 9.450872873281389" stroke-width="0.03" stroke="#000000" fill="none"/>
<path d="M14.578125 9.410277932478992L14.578125 9.166708287664619L14.296875000000002 9.004328524455037L14.296875000000002 9.24789816926941" stroke-width="0.03" stroke="#000000" fill="none"/>
<path d="M14.296875000000002 9.004328524455037L14.367187500000002 8.963733583652642" stroke-width="0.03" stroke="#000000" fill="none"/>
<path d="M14.578125 9.166708287664619L14.648437500000002 9.126113346862224" stroke-width="0.03" stroke="#000000" fill="none"/>
<path d="M14.367187500000002 8.638974057233478L15.28125 9.166708287664619L15.4921875 9.044923465257433L15.5625 9.085518406059828L16.265625 8.679568998035872L13.875 7.299341010754423L13.382812500000002 7.583505596371193L13.3125 7.542910655568797L13.3125 7.05577136594005L14.015625 6.649821957916094L14.0859375 6.69041689871849L14.0859375 6.852796661928072" stroke-width="0.03" stroke="#000000" fill="none"/>
<path d="M13.945312500000002 6.771606780323281L14.0859375 6.69041689871849" stroke-width="0.03" stroke="#000000" fill="none"/>
<path d="M13.945312500000002 6.771606780323281L18.0234375 9.126113346862224L18.0234375 9.207303228467016L17.7421875 9.369682991676598L13.6640625 7.015176425137655L13.6640625 6.933986543532863L17.7421875 9.288493110071807L17.7421875 9.369682991676598" stroke-width="0.03" stroke="#000000" fill="none"/>
<path d="M17.7421875 9.288493110071807L18.0234375 9.126113346862224" stroke-width="0.03" stroke="#000000" fill="none"/>
<path d="M18.4453125 9.775632399700552L14.015625 12.333113670251475L14.015625 12.65787319667064L13.5234375 12.37370861105387" stroke-width="0.03" stroke="#000000" fill="none"/>
<path d="M13.382812500000002 12.45489849265866L14.015625 12.820252959880222L14.015625 13.55096189432334" stroke-width="0.03" stroke="#000000" fill="none"/>
<path d="M14.15625 13.46977201271855L14.15625 12.90144284148501L14.437500000000002 13.063822604694593L18.8671875 10.506341334143674L18.8671875 10.343961570934091L18.585937500000004 10.181581807724509L18.585937500000004 9.856822281305345L18.4453125 9.775632399700552" stroke-width="0.03" stroke="#000000" fill="none"/>
<path d="M18.585937500000004 9.856822281305345L14.15625 12.414303551856264L14.015625 12.333113670251475" stroke-width="0.03" stroke="#000000" fill="none"/>
<path d="M14.15625 12.414303551856264L14.15625 12.739063078275429L14.437500000000002 12.90144284148501L18.8671875 10.343961570934091" stroke-width="0.03" stroke="#000000" fill="none"/>
<path d="M18.585937500000004 10.181581807724509L14.15625 12.739063078275429" stroke-width="0.03" stroke="#000000" fill="none"/>
<path d="M14.015625 12.820252959880222L13.3125 13.226202367904175L13.453125 13.307392249508968" stroke-width="0.03" stroke="#000000" fill="none"/>
<path d="M13.3125 13.226202367904175L13.3125 13.063822604694593" stroke-width="0.03" stroke="#000000" fill="none"/>
<path d="M13.031250000000002 13.226202367904175L13.031250000000002 13.388582131113758L13.171875 13.46977201271855" stroke-width="0.03" stroke="#000000" fill="none"/>
<path d="M13.031250000000002 13.388582131113758L12.3984375 13.753936598335319L12.3984375 13.510366953520945L12.1171875 13.347987190311363L12.1171875 13.510366953520945L12.187500000000002 13.55096189432334L12.187500000000002 13.713341657532922L11.976562500000002 13.83512647994011L11.976562500000002 13.672746716730527L12.187500000000002 13.55096189432334" stroke-width="0.03" stroke="#000000" fill="none"/>
<path d="M12.3984375 13.510366953520945L12.75 13.307392249508968L12.75 13.55096189432334L12.9609375 13.672746716730527L12.9609375 13.997506243149692L12.609375 14.200480947161669L12.46875 14.11929106555688L12.46875 14.038101183952087L12.328125000000002 13.956911302347297L12.1171875 14.078696124754483L12.2578125 14.159886006359274L12.2578125 14.484645532778439L12.046875 14.606430355185626L12.046875 15.7430886976527L12.3984375 15.946063401664679L12.3984375 15.377734230431141" stroke-width="0.03" stroke="#000000" fill="none"/>
<path d="M12.2578125 15.458924112035932L13.945312500000002 14.484645532778439" stroke-width="0.03" stroke="#000000" fill="none"/>
<path d="M13.945312500000002 14.403455651173648L13.945312500000002 16.59558245450301L14.15625 16.717367276910196L14.15625 14.444050591976044L14.015625 14.362860710371251" stroke-width="0.03" stroke="#000000" fill="none"/>
<path d="M14.15625 14.444050591976044L14.367187500000002 14.322265769568856L14.367187500000002 16.59558245450301" stroke-width="0.03" stroke="#000000" fill="none"/>
<path d="M14.578125 16.473797632095824L14.578125 16.879747040119774L14.296875000000002 17.04212680332936L14.296875000000002 17.366886329748525L13.945312500000002 17.569861033760503" stroke-width="0.03" stroke="#000000" fill="none"/>
<path d="M13.945312500000002 17.651050915365293L14.648437500000002 17.24510150734134L14.648437500000002 16.433202691293424" stroke-width="0.03" stroke="#000000" fill="none"/>
<path d="M15.140625 16.14903810567666L15.140625 17.448076211353314L15.421875 17.610455974562896L16.617187500000004 16.920341980922174L16.617187500000004 18.057000323389246L16.3359375 17.894620560179668L16.3359375 17.082721744131756" stroke-width="0.03" stroke="#000000" fill="none"/>
<path d="M16.828125 17.93521550098206L16.828125 18.5035446722156L16.3359375 18.78770925783237" stroke-width="0.03" stroke="#000000" fill="none"/>
<path d="M16.3359375 18.95008902104195L16.3359375 18.544139613017997L16.0546875 18.38175984980841L15.351562500000002 18.78770925783237" stroke-width="0.03" stroke="#000000" fill="none"/>
<path d="M15.351562500000002 19.112468784251533L16.3359375 18.544139613017997" stroke-width="0.03" stroke="#000000" fill="none"/>
<path d="M16.3359375 18.95008902104195L16.40625 18.990683961844347L16.40625 19.15306372505393L13.875 20.61448159394017L13.875 20.69567147554496L12.75 21.345190528383288L12.679687500000002 21.304595587580895" stroke-width="0.03" stroke="#000000" fill="none"/>
<path d="M12.75 21.345190528383288L12.75 21.2640006467785L12.46875 21.42638040998808" stroke-width="0.03" stroke="#000000" fill="none"/>
<path d="M12.46875 21.345190528383288L12.539062500000002 21.385785469185684L12.539062500000002 21.223405705976102L12.75 21.101620883568916L12.75 20.208532185916212L12.609375 20.12734230431142L13.734375 19.477823251473097L13.875 19.559013133077883L13.875 20.452101830730584L16.40625 18.990683961844347" stroke-width="0.03" stroke="#000000" fill="none"/>
<path d="M16.3359375 19.193658665856326L16.3359375 20.249127126718612L16.125 20.370911949125794L16.125 20.452101830730584L14.0859375 21.62935511400006L13.945312500000002 21.548165232395267L13.945312500000002 21.304595587580895L13.6640625 21.142215824371313L13.382812500000002 21.304595587580895L13.1015625 21.142215824371313" stroke-width="0.03" stroke="#000000" fill="none"/>
<path d="M13.171875 21.101620883568916L13.382812500000002 21.223405705976102L13.6640625 21.06102594276652L13.453125 20.939241120359334" stroke-width="0.03" stroke="#000000" fill="none"/>
<path d="M13.6640625 21.06102594276652L13.6640625 21.142215824371313" stroke-width="0.03" stroke="#000000" fill="none"/>
<path d="M13.382812500000002 21.223405705976102L13.382812500000002 21.304595587580895" stroke-width="0.03" stroke="#000000" fill="none"/>
<path d="M13.945312500000002 21.304595587580895L13.031250000000002 21.832329818012038L13.031250000000002 22.07589946282641L12.9609375 22.116494403628806L12.46875 21.832329818012038" stroke-width="0.03" stroke="#000000" fill="none"/>
<path d="M12.46875 21.751139936407245L13.031250000000002 22.07589946282641" stroke-width="0.03" stroke="#000000" fill="none"/>
<path d="M12.9609375 22.116494403628806L12.9609375 22.928393219676718L15.351562500000002 21.548165232395267L15.351562500000002 20.97983606116173L15.421875 20.939241120359334L15.843750000000002 21.18281076517371L15.843750000000002 21.994709581221617L15.773437500000002 22.035304522024013L15.6328125 21.954114640419224" stroke-width="0.03" stroke="#000000" fill="none"/>
<path d="M15.773437500000002 22.035304522024013L15.773437500000002 21.87292475881443L11.6953125 24.227431325353376L11.625000000000002 24.18683638455098L11.625000000000002 23.862076858131815L15.703125000000002 21.507570291592874L15.773437500000002 21.548165232395267L15.773437500000002 21.223405705976102L15.351562500000002 20.97983606116173" stroke-width="0.03" stroke="#000000" fill="none"/>
<path d="M15.773437500000002 21.223405705976102L15.843750000000002 21.18281076517371" stroke-width="0.03" stroke="#000000" fill="none"/>
<path d="M15.843750000000002 21.2640006467785L18.7265625 19.59960807388028L18.7265625 16.270822928083845" stroke-width="0.03" stroke="#000000" fill="none"/>
<path d="M18.656250000000004 16.311417868886238L19.359375000000004 15.905468460862282L19.359375000000004 15.824278579257493L19.21875 15.7430886976527" stroke-width="0.03" stroke="#000000" fill="none"/>
<path d="M19.21875 15.905468460862282L19.359375000000004 15.824278579257493" stroke-width="0.03" stroke="#000000" fill="none"/>
<path d="M19.21875 15.905468460862282L19.21875 11.196455327784399L19.1484375 11.155860386982003L18.8671875 11.318240150191585L18.8671875 16.02725328326947L18.9375 16.067848224071867L18.656250000000004 16.230227987281445L18.234375 15.986658342467075L18.234375 16.067848224071867L18.656250000000004 16.311417868886238L18.656250000000004 16.230227987281445" stroke-width="0.03" stroke="#000000" fill="none"/>
<path d="M18.9375 16.067848224071867L18.9375 11.358835090993981L18.8671875 11.318240150191585" stroke-width="0.03" stroke="#000000" fill="none"/>
<path d="M18.9375 11.358835090993981L19.21875 11.196455327784399" stroke-width="0.03" stroke="#000000" fill="none"/>
<path d="M18.585937500000004 10.668721097353256L18.585937500000004 12.45489849265866L15.984375 13.956911302347297L15.984375 15.661898816047911" stroke-width="0.03" stroke="#000000" fill="none"/>
<path d="M16.125 15.337139289628746L16.125 14.038101183952087L16.8984375 13.591556835125736L17.0390625 13.672746716730527L16.265625 14.11929106555688L16.265625 15.418329171233536L16.125 15.337139289628746" stroke-width="0.03" stroke="#000000" fill="none"/>
<path d="M16.265625 15.418329171233536L17.0390625 14.971784822407185L17.0390625 17.894620560179668L17.1796875 17.813430678574875L17.1796875 14.890594940802394L17.25 14.85L17.25 13.55096189432334L17.1796875 13.510366953520945" stroke-width="0.03" stroke="#000000" fill="none"/>
<path d="M17.25 13.55096189432334L17.1796875 13.591556835125736L17.1796875 13.266797308706572" stroke-width="0.03" stroke="#000000" fill="none"/>
<path d="M17.1796875 13.347987190311363L17.0390625 13.429177071916154L17.0390625 13.672746716730527" stroke-width="0.03" stroke="#000000" fill="none"/>
<path d="M16.8984375 13.591556835125736L16.8984375 13.429177071916154" stroke-width="0.03" stroke="#000000" fill="none"/>
<path d="M16.96875 13.388582131113758L17.0390625 13.429177071916154" stroke-width="0.03" stroke="#000000" fill="none"/>
<path d="M17.109375 13.307392249508968L17.1796875 13.347987190311363" stroke-width="0.03" stroke="#000000" fill="none"/>
<path d="M17.25 13.226202367904175L17.8125 13.55096189432334L18.0234375 13.429177071916154L18.0234375 13.347987190311363L17.53125 13.063822604694593" stroke-width="0.03" stroke="#000000" fill="none"/>
<path d="M17.4609375 13.10441754549699L18.0234375 13.429177071916154" stroke-width="0.03" stroke="#000000" fill="none"/>
<path d="M18.0234375 13.347987190311363L18.7265625 12.942037782287407L18.7265625 15.702493756850306L18.234375 15.986658342467075" stroke-width="0.03" stroke="#000000" fill="none"/>
<path d="M18.7265625 15.458924112035932L18.8671875 15.540113993640723" stroke-width="0.03" stroke="#000000" fill="none"/>
<path d="M18.1640625 14.56583541438323L17.1796875 15.134164585616768" stroke-width="0.03" stroke="#000000" fill="none"/>
<path d="M16.96875 15.255949408023953L16.617187500000004 15.458924112035932L16.617187500000004 15.621303875245514L15.421875 16.311417868886238L15.140625 16.14903810567666" stroke-width="0.03" stroke="#000000" fill="none"/>
<path d="M15.421875 16.311417868886238L15.421875 17.610455974562896" stroke-width="0.03" stroke="#000000" fill="none"/>
<path d="M15.351562500000002 17.732240796970082L14.2265625 18.38175984980841L13.945312500000002 18.219380086598832L15.070312500000002 17.569861033760503L15.351562500000002 17.732240796970082L15.351562500000002 19.112468784251533" stroke-width="0.03" stroke="#000000" fill="none"/>
<path d="M16.3359375 19.51841819227549L16.96875 19.15306372505393L16.96875 19.721392896287465L16.7578125 19.59960807388028" stroke-width="0.03" stroke="#000000" fill="none"/>
<path d="M16.828125 19.559013133077883L16.3359375 19.843177718694655" stroke-width="0.03" stroke="#000000" fill="none"/>
<path d="M16.125 20.370911949125794L16.4765625 20.573886653137773L16.4765625 20.898646179556938L15.984375 20.61448159394017L15.984375 20.53329171233538" stroke-width="0.03" stroke="#000000" fill="none"/>
<path d="M16.4765625 20.573886653137773L18.4453125 19.437228310670697L18.4453125 17.163911625736546L18.09375 16.960936921724567L18.09375 17.204506566538942L17.1796875 17.732240796970082" stroke-width="0.03" stroke="#000000" fill="none"/>
<path d="M17.0390625 17.894620560179668L16.96875 17.85402561937727L16.617187500000004 18.057000323389246" stroke-width="0.03" stroke="#000000" fill="none"/>
<path d="M16.828125 18.5035446722156L16.96875 18.58473455382039L16.96875 15.255949408023953L16.7578125 15.134164585616768" stroke-width="0.03" stroke="#000000" fill="none"/>
<path d="M16.617187500000004 15.458924112035932L16.40625 15.337139289628746" stroke-width="0.03" stroke="#000000" fill="none"/>
<path d="M16.3359375 15.377734230431141L16.3359375 15.458924112035932L14.0859375 16.75796221771259L13.6640625 16.514392572898217L13.6640625 14.647025295988021" stroke-width="0.03" stroke="#000000" fill="none"/>
<path d="M13.734375 14.525240473580833L15.070312500000002 13.753936598335319L15.070312500000002 13.10441754549699L14.9296875 13.023227663892198L13.593750000000002 13.794531539137715L13.593750000000002 14.444050591976044L13.734375 14.525240473580833L13.734375 13.875721420742504L15.070312500000002 13.10441754549699" stroke-width="0.03" stroke="#000000" fill="none"/>
<path d="M14.437500000000002 13.063822604694593L14.437500000000002 12.90144284148501" stroke-width="0.03" stroke="#000000" fill="none"/>
<path d="M14.015625 12.982632723089804L12.890625000000002 13.632151775928133" stroke-width="0.03" stroke="#000000" fill="none"/>
<path d="M12.9609375 13.672746716730527L12.609375 13.875721420742504L12.3984375 13.753936598335319" stroke-width="0.03" stroke="#000000" fill="none"/>
<path d="M12.609375 13.875721420742504L12.609375 14.200480947161669" stroke-width="0.03" stroke="#000000" fill="none"/>
<path d="M12.46875 14.038101183952087L12.2578125 14.159886006359274" stroke-width="0.03" stroke="#000000" fill="none"/>
<path d="M12.1171875 14.322265769568856L11.484375000000002 14.687620236790417" stroke-width="0.03" stroke="#000000" fill="none"/>
<path d="M11.765625 14.85L12.046875 14.687620236790417" stroke-width="0.03" stroke="#000000" fill="none"/>
<path d="M12.046875 14.606430355185626L12.187500000000002 14.687620236790417L12.3984375 14.56583541438323L12.2578125 14.484645532778439" stroke-width="0.03" stroke="#000000" fill="none"/>
<path d="M12.1171875 14.56583541438323L12.1171875 13.9163163615449L11.5546875 13.591556835125736" stroke-width="0.03" stroke="#000000" fill="none"/>
<path d="M11.484375000000002 13.632151775928133L11.484375000000002 13.46977201271855L11.6953125 13.347987190311363" stroke-width="0.03" stroke="#000000" fill="none"/>
<path d="M11.6953125 13.510366953520945L11.976562500000002 13.672746716730527" stroke-width="0.03" stroke="#000000" fill="none"/>
<path d="M11.765625 13.713341657532922L11.1328125 14.078696124754483" stroke-width="0.03" stroke="#000000" fill="none"/>
<path d="M11.1328125 13.753936598335319L11.4140625 13.591556835125736" stroke-width="0.03" stroke="#000000" fill="none"/>
<path d="M11.484375000000002 13.46977201271855L11.0625 13.226202367904175" stroke-width="0.03" stroke="#000000" fill="none"/>
<path d="M11.1328125 13.18560742710178L10.8515625 13.023227663892198L10.8515625 13.18560742710178" stroke-width="0.03" stroke="#000000" fill="none"/>
<path d="M10.8515625 13.266797308706572L10.921875000000002 13.226202367904175" stroke-width="0.03" stroke="#000000" fill="none"/>
<path d="M10.8515625 13.266797308706572L10.8515625 13.347987190311363L11.203125 13.55096189432334" stroke-width="0.03" stroke="#000000" fill="none"/>
<path d="M11.203125 13.46977201271855L11.203125 13.713341657532922" stroke-width="0.03" stroke="#000000" fill="none"/>
<path d="M11.1328125 13.672746716730527L10.8515625 13.83512647994011L10.5 13.632151775928133L10.1484375 13.83512647994011L9.867187500000002 13.672746716730527" stroke-width="0.03" stroke="#000000" fill="none"/>
<path d="M9.867187500000002 13.753936598335319L9.5859375 13.591556835125736" stroke-width="0.03" stroke="#000000" fill="none"/>
<path d="M9.515625 13.46977201271855L9.3046875 13.347987190311363" stroke-width="0.03" stroke="#000000" fill="none"/>
<path d="M9.3046875 13.510366953520945L9.0234375 13.672746716730527" stroke-width="0.03" stroke="#000000" fill="none"/>
<path d="M9.234375 13.713341657532922L9.867187500000002 14.078696124754483" stroke-width="0.03" stroke="#000000" fill="none"/>
<path d="M10.1484375 13.83512647994011L10.1484375 14.647025295988021L9.4453125 15.052974704011977" stroke-width="0.03" stroke="#000000" fill="none"/>
<path d="M9.4453125 15.458924112035932L10.5 14.85L11.5546875 15.458924112035932L11.203125 15.661898816047911L11.203125 15.986658342467075" stroke-width="0.03" stroke="#000000" fill="none"/>
<path d="M11.1328125 16.02725328326947L11.34375 16.14903810567666" stroke-width="0.03" stroke="#000000" fill="none"/>
<path d="M11.273437500000002 16.10844316487426L11.625000000000002 15.905468460862282L11.6953125 15.946063401664679L11.6953125 16.02725328326947" stroke-width="0.03" stroke="#000000" fill="none"/>
<path d="M11.765625 15.986658342467075L11.90625 16.067848224071867L11.90625 18.016405382586854" stroke-width="0.03" stroke="#000000" fill="none"/>
<path d="M11.835937500000002 18.057000323389246L13.734375 16.960936921724567L13.945312500000002 17.082721744131756L11.976562500000002 18.219380086598832L11.976562500000002 18.462949731413204L13.945312500000002 17.326291388946128" stroke-width="0.03" stroke="#000000" fill="none"/>
<path d="M13.875 17.04212680332936L13.945312500000002 17.001531862526964L13.945312500000002 19.59960807388028L14.2265625 19.761987837089862L14.0859375 19.843177718694655L14.0859375 20.249127126718612L16.96875 18.58473455382039" stroke-width="0.03" stroke="#000000" fill="none"/>
<path d="M17.4609375 18.30056996820362L17.953125000000004 18.016405382586854L17.953125000000004 18.58473455382039L17.4609375 18.86889913943716L17.4609375 19.437228310670697L16.96875 19.721392896287465" stroke-width="0.03" stroke="#000000" fill="none"/>
<path d="M16.828125 19.559013133077883L16.828125 19.23425360665872" stroke-width="0.03" stroke="#000000" fill="none"/>
<path d="M17.4609375 19.193658665856326L17.53125 19.15306372505393L17.53125 18.909494080239554L17.7421875 18.78770925783237L17.7421875 18.706519376227575" stroke-width="0.03" stroke="#000000" fill="none"/>
<path d="M17.671875 18.828304198634765L17.671875 18.990683961844347L18.4453125 19.437228310670697" stroke-width="0.03" stroke="#000000" fill="none"/>
<path d="M17.671875 18.990683961844347L17.53125 19.071873843449136" stroke-width="0.03" stroke="#000000" fill="none"/>
<path d="M17.4609375 18.30056996820362L17.4609375 17.569861033760503" stroke-width="0.03" stroke="#000000" fill="none"/>
<path d="M17.7421875 17.407481270550917L17.7421875 17.975810441784457L17.4609375 18.13819020499404" stroke-width="0.03" stroke="#000000" fill="none"/>
<path d="M17.7421875 17.894620560179668L17.953125000000004 18.016405382586854" stroke-width="0.03" stroke="#000000" fill="none"/>
<path d="M18.4453125 17.163911625736546L18.7265625 17.001531862526964L18.234375 16.717367276910196L18.1640625 16.75796221771259" stroke-width="0.03" stroke="#000000" fill="none"/>
<path d="M18.1640625 16.920341980922174L18.09375 16.960936921724567" stroke-width="0.03" stroke="#000000" fill="none"/>
<path d="M18.1640625 16.920341980922174L18.1640625 14.56583541438323L18.0234375 14.484645532778439L17.8125 14.606430355185626L17.53125 14.444050591976044L17.4609375 14.484645532778439L17.25 14.362860710371251" stroke-width="0.03" stroke="#000000" fill="none"/>
<path d="M17.4609375 14.484645532778439L17.4609375 14.159886006359274L17.25 14.038101183952087" stroke-width="0.03" stroke="#000000" fill="none"/>
<path d="M17.25 13.956911302347297L17.53125 14.11929106555688L17.53125 14.444050591976044" stroke-width="0.03" stroke="#000000" fill="none"/>
<path d="M17.4609375 14.159886006359274L17.53125 14.11929106555688" stroke-width="0.03" stroke="#000000" fill="none"/>
<path d="M17.8125 14.606430355185626L17.8125 13.55096189432334" stroke-width="0.03" stroke="#000000" fill="none"/>
<path d="M18.234375 12.65787319667064L18.7265625 12.942037782287407" stroke-width="0.03" stroke="#000000" fill="none"/>
<path d="M16.4765625 13.672746716730527L16.4765625 13.83512647994011" stroke-width="0.03" stroke="#000000" fill="none"/>
<path d="M16.265625 14.11929106555688L16.125 14.038101183952087" stroke-width="0.03" stroke="#000000" fill="none"/>
<path d="M16.125 14.200480947161669L15.984375 14.11929106555688" stroke-width="0.03" stroke="#000000" fill="none"/>
<path d="M16.125 14.362860710371251L15.984375 14.444050591976044" stroke-width="0.03" stroke="#000000" fill="none"/>
<path d="M16.3359375 15.458924112035932L16.617187500000004 15.621303875245514" stroke-width="0.03" stroke="#000000" fill="none"/>
<path d="M14.648437500000002 17.24510150734134L14.296875000000002 17.04212680332936" stroke-width="0.03" stroke="#000000" fill="none"/>
<path d="M13.945312500000002 17.001531862526964L13.5234375 16.75796221771259L11.90625 17.69164585616769" stroke-width="0.03" stroke="#000000" fill="none"/>
<path d="M11.835937500000002 17.813430678574875L11.273437500000002 18.13819020499404L11.273437500000002 19.68079795548507L11.1328125 19.59960807388028L11.1328125 18.057000323389246L11.6953125 17.732240796970082L11.835937500000002 17.813430678574875L11.835937500000002 19.356038429065904L11.273437500000002 19.68079795548507" stroke-width="0.03" stroke="#000000" fill="none"/>
<path d="M10.78125 18.747114317029972L10.78125 17.529266092958107" stroke-width="0.03" stroke="#000000" fill="none"/>
<path d="M10.7109375 17.569861033760503L10.7109375 17.163911625736546" stroke-width="0.03" stroke="#000000" fill="none"/>
<path d="M10.640625 17.529266092958107L10.640625 18.828304198634765" stroke-width="0.03" stroke="#000000" fill="none"/>
<path d="M10.359375 18.828304198634765L10.359375 17.529266092958107" stroke-width="0.03" stroke="#000000" fill="none"/>
<path d="M10.2890625 17.569861033760503L10.2890625 17.163911625736546" stroke-width="0.03" stroke="#000000" fill="none"/>
<path d="M10.218750000000002 17.529266092958107L10.218750000000002 18.747114317029972" stroke-width="0.03" stroke="#000000" fill="none"/>
<path d="M10.218750000000002 19.23425360665872L10.218750000000002 24.34921614776056" stroke-width="0.03" stroke="#000000" fill="none"/>
<path d="M10.078125 23.943266739736604L8.53125 23.050178042083903L8.53125 20.04615242270663L7.0546875 19.193658665856326" stroke-width="0.03" stroke="#000000" fill="none"/>
<path d="M7.265625000000001 19.477823251473097L7.125 19.559013133077883L7.125 20.452101830730584L4.59375 18.990683961844347L4.6640625 18.95008902104195L4.6640625 18.544139613017997" stroke-width="0.03" stroke="#000000" fill="none"/>
<path d="M4.59375 18.990683961844347L4.59375 19.15306372505393L7.125 20.61448159394017L7.125 20.69567147554496L8.25 21.345190528383288L8.3203125 21.304595587580895" stroke-width="0.03" stroke="#000000" fill="none"/>
<path d="M8.25 21.345190528383288L8.25 21.2640006467785L8.53125 21.42638040998808" stroke-width="0.03" stroke="#000000" fill="none"/>
<path d="M8.4609375 21.385785469185684L8.53125 21.345190528383288" stroke-width="0.03" stroke="#000000" fill="none"/>
<path d="M8.4609375 21.385785469185684L8.4609375 21.223405705976102L8.25 21.101620883568916L8.25 20.208532185916212L8.390625 20.12734230431142L7.265625000000001 19.477823251473097" stroke-width="0.03" stroke="#000000" fill="none"/>
<path d="M7.125 19.559013133077883L8.25 20.208532185916212" stroke-width="0.03" stroke="#000000" fill="none"/>
<path d="M8.25 20.04615242270663L8.390625 19.96496254110184" stroke-width="0.03" stroke="#000000" fill="none"/>
<path d="M8.390625 20.12734230431142L8.390625 21.020431001964123L8.25 21.101620883568916" stroke-width="0.03" stroke="#000000" fill="none"/>
<path d="M8.390625 21.020431001964123L8.53125 21.101620883568916" stroke-width="0.03" stroke="#000000" fill="none"/>
<path d="M8.53125 21.18281076517371L8.4609375 21.223405705976102" stroke-width="0.03" stroke="#000000" fill="none"/>
<path d="M8.53125 21.507570291592874L7.96875 21.832329818012038L7.96875 22.07589946282641L8.0390625 22.116494403628806L8.0390625 22.928393219676718L5.6484375 21.548165232395267L5.6484375 20.97983606116173L5.578125 20.939241120359334L5.15625 21.18281076517371L5.15625 21.994709581221617L5.2265625 22.035304522024013L5.3671875 21.954114640419224" stroke-width="0.03" stroke="#000000" fill="none"/>
<path d="M5.2265625 22.035304522024013L5.2265625 21.87292475881443L9.3046875 24.227431325353376L9.375 24.18683638455098L9.375 23.862076858131815L5.296875 21.507570291592874L5.2265625 21.548165232395267L5.2265625 21.223405705976102L5.6484375 20.97983606116173" stroke-width="0.03" stroke="#000000" fill="none"/>
<path d="M5.2265625 21.223405705976102L5.15625 21.18281076517371" stroke-width="0.03" stroke="#000000" fill="none"/>
<path d="M5.15625 21.2640006467785L2.2734375000000004 19.59960807388028L2.2734375000000004 16.270822928083845" stroke-width="0.03" stroke="#000000" fill="none"/>
<path d="M2.34375 16.311417868886238L2.765625 16.067848224071867L2.765625 15.986658342467075L2.2734375000000004 15.702493756850306L2.2734375000000004 12.942037782287407L2.765625 12.65787319667064" stroke-width="0.03" stroke="#000000" fill="none"/>
<path d="M2.4140625000000004 12.45489849265866L2.4140625000000004 10.668721097353256" stroke-width="0.03" stroke="#000000" fill="none"/>
<path d="M2.1328124999999996 11.318240150191585L2.0625000000000004 11.358835090993981L2.0625000000000004 16.067848224071867L2.34375 16.230227987281445L2.765625 15.986658342467075" stroke-width="0.03" stroke="#000000" fill="none"/>
<path d="M2.34375 16.230227987281445L2.34375 16.311417868886238L1.6406249999999998 15.905468460862282L1.6406249999999998 15.824278579257493L1.7812499999999996 15.7430886976527" stroke-width="0.03" stroke="#000000" fill="none"/>
<path d="M1.7812499999999996 15.905468460862282L1.7812499999999996 11.196455327784399L1.8515625 11.155860386982003L2.1328124999999996 11.318240150191585L2.1328124999999996 16.02725328326947L2.0625000000000004 16.067848224071867" stroke-width="0.03" stroke="#000000" fill="none"/>
<path d="M1.7812499999999996 15.905468460862282L1.6406249999999998 15.824278579257493" stroke-width="0.03" stroke="#000000" fill="none"/>
<path d="M2.1328124999999996 15.540113993640723L2.2734375000000004 15.458924112035932" stroke-width="0.03" stroke="#000000" fill="none"/>
<path d="M2.8359374999999996 14.56583541438323L2.976562500000001 14.484645532778439L3.1874999999999996 14.606430355185626L3.46875 14.444050591976044L3.539062500000001 14.484645532778439L3.7499999999999996 14.362860710371251" stroke-width="0.03" stroke="#000000" fill="none"/>
<path d="M3.539062500000001 14.484645532778439L3.539062500000001 14.159886006359274L3.7499999999999996 14.038101183952087" stroke-width="0.03" stroke="#000000" fill="none"/>
<path d="M3.7499999999999996 13.956911302347297L3.46875 14.11929106555688L3.46875 14.444050591976044" stroke-width="0.03" stroke="#000000" fill="none"/>
<path d="M3.539062500000001 14.159886006359274L3.46875 14.11929106555688" stroke-width="0.03" stroke="#000000" fill="none"/>
<path d="M3.1874999999999996 14.606430355185626L3.1874999999999996 13.55096189432334L3.7499999999999996 13.226202367904175" stroke-width="0.03" stroke="#000000" fill="none"/>
<path d="M3.8203125000000004 13.266797308706572L3.8203125000000004 13.591556835125736L3.7499999999999996 13.55096189432334L3.7499999999999996 14.85L3.8203125000000004 14.890594940802394L3.8203125000000004 17.813430678574875L3.9609375 17.894620560179668L4.03125 17.85402561937727L4.382812499999999 18.057000323389246" stroke-width="0.03" stroke="#000000" fill="none"/>
<path d="M3.9609375 17.894620560179668L3.9609375 14.971784822407185L4.734375 15.418329171233536L4.875 15.337139289628746L4.875 14.038101183952087L4.1015625 13.591556835125736L3.9609375 13.672746716730527L4.734375 14.11929106555688L4.734375 15.418329171233536" stroke-width="0.03" stroke="#000000" fill="none"/>
<path d="M4.6640625 15.377734230431141L4.6640625 15.458924112035932L6.914062500000001 16.75796221771259" stroke-width="0.03" stroke="#000000" fill="none"/>
<path d="M7.0546875 17.001531862526964L7.125 17.04212680332936" stroke-width="0.03" stroke="#000000" fill="none"/>
<path d="M6.703125 17.04212680332936L6.3515625 17.24510150734134" stroke-width="0.03" stroke="#000000" fill="none"/>
<path d="M5.9296875 17.569861033760503L5.6484375 17.732240796970082" stroke-width="0.03" stroke="#000000" fill="none"/>
<path d="M5.578125 17.610455974562896L5.578125 16.311417868886238" stroke-width="0.03" stroke="#000000" fill="none"/>
<path d="M5.015625 15.661898816047911L5.015625 13.956911302347297L2.4140625000000004 12.45489849265866" stroke-width="0.03" stroke="#000000" fill="none"/>
<path d="M2.2734375000000004 12.942037782287407L2.976562500000001 13.347987190311363L2.976562500000001 13.429177071916154L3.1874999999999996 13.55096189432334" stroke-width="0.03" stroke="#000000" fill="none"/>
<path d="M2.976562500000001 13.429177071916154L3.539062500000001 13.10441754549699" stroke-width="0.03" stroke="#000000" fill="none"/>
<path d="M3.46875 13.063822604694593L2.976562500000001 13.347987190311363" stroke-width="0.03" stroke="#000000" fill="none"/>
<path d="M3.7499999999999996 13.55096189432334L3.8203125000000004 13.510366953520945" stroke-width="0.03" stroke="#000000" fill="none"/>
<path d="M3.9609375 13.429177071916154L4.03125 13.388582131113758" stroke-width="0.03" stroke="#000000" fill="none"/>
<path d="M3.9609375 13.429177071916154L3.9609375 13.672746716730527" stroke-width="0.03" stroke="#000000" fill="none"/>
<path d="M4.1015625 13.591556835125736L4.1015625 13.429177071916154" stroke-width="0.03" stroke="#000000" fill="none"/>
<path d="M3.9609375 13.429177071916154L3.8203125000000004 13.347987190311363L3.8906249999999996 13.307392249508968" stroke-width="0.03" stroke="#000000" fill="none"/>
<path d="M4.5234375 13.672746716730527L4.5234375 13.83512647994011" stroke-width="0.03" stroke="#000000" fill="none"/>
<path d="M4.734375 14.11929106555688L4.875 14.038101183952087" stroke-width="0.03" stroke="#000000" fill="none"/>
<path d="M4.875 14.200480947161669L5.015625 14.11929106555688" stroke-width="0.03" stroke="#000000" fill="none"/>
<path d="M4.875 14.362860710371251L5.015625 14.444050591976044" stroke-width="0.03" stroke="#000000" fill="none"/>
<path d="M4.59375 15.337139289628746L4.382812499999999 15.458924112035932" stroke-width="0.03" stroke="#000000" fill="none"/>
<path d="M4.382812499999999 15.621303875245514L4.6640625 15.458924112035932" stroke-width="0.03" stroke="#000000" fill="none"/>
<path d="M3.8203125000000004 15.134164585616768L2.8359374999999996 14.56583541438323L2.8359374999999996 16.920341980922174L2.90625 16.960936921724567L2.90625 17.204506566538942L3.8203125000000004 17.732240796970082" stroke-width="0.03" stroke="#000000" fill="none"/>
<path d="M3.539062500000001 17.569861033760503L3.539062500000001 18.30056996820362L3.046875 18.016405382586854L3.046875 18.58473455382039L3.539062500000001 18.86889913943716L3.539062500000001 19.437228310670697L4.03125 19.721392896287465L4.2421875 19.59960807388028" stroke-width="0.03" stroke="#000000" fill="none"/>
<path d="M4.171875 19.559013133077883L4.171875 19.23425360665872" stroke-width="0.03" stroke="#000000" fill="none"/>
<path d="M4.03125 19.15306372505393L4.03125 19.721392896287465" stroke-width="0.03" stroke="#000000" fill="none"/>
<path d="M4.171875 19.559013133077883L4.6640625 19.843177718694655" stroke-width="0.03" stroke="#000000" fill="none"/>
<path d="M4.6640625 19.51841819227549L4.03125 19.15306372505393" stroke-width="0.03" stroke="#000000" fill="none"/>
<path d="M3.539062500000001 19.193658665856326L3.46875 19.15306372505393L3.46875 18.909494080239554L3.2578125 18.78770925783237L3.2578125 18.706519376227575" stroke-width="0.03" stroke="#000000" fill="none"/>
<path d="M3.328125000000001 18.828304198634765L3.328125000000001 18.990683961844347L2.5546875 19.437228310670697L2.5546875 17.163911625736546L2.90625 16.960936921724567" stroke-width="0.03" stroke="#000000" fill="none"/>
<path d="M2.8359374999999996 16.75796221771259L2.765625 16.717367276910196L2.2734375000000004 17.001531862526964L2.5546875 17.163911625736546" stroke-width="0.03" stroke="#000000" fill="none"/>
<path d="M3.2578125 17.407481270550917L3.2578125 17.975810441784457L3.539062500000001 18.13819020499404" stroke-width="0.03" stroke="#000000" fill="none"/>
<path d="M3.2578125 17.894620560179668L3.046875 18.016405382586854" stroke-width="0.03" stroke="#000000" fill="none"/>
<path d="M3.328125000000001 18.990683961844347L3.46875 19.071873843449136" stroke-width="0.03" stroke="#000000" fill="none"/>
<path d="M2.5546875 19.437228310670697L4.5234375 20.573886653137773L4.5234375 20.898646179556938L5.015625 20.61448159394017L5.015625 20.53329171233538" stroke-width="0.03" stroke="#000000" fill="none"/>
<path d="M4.875 20.452101830730584L4.875 20.370911949125794L4.6640625 20.249127126718612L4.6640625 19.193658665856326" stroke-width="0.03" stroke="#000000" fill="none"/>
<path d="M4.875 20.370911949125794L4.5234375 20.573886653137773" stroke-width="0.03" stroke="#000000" fill="none"/>
<path d="M4.875 20.452101830730584L6.914062500000001 21.62935511400006L7.0546875 21.548165232395267L7.0546875 21.304595587580895L7.3359375 21.142215824371313L7.3359375 21.06102594276652L7.546875 20.939241120359334" stroke-width="0.03" stroke="#000000" fill="none"/>
<path d="M7.3359375 21.06102594276652L7.6171875 21.223405705976102L7.828125 21.101620883568916" stroke-width="0.03" stroke="#000000" fill="none"/>
<path d="M7.898437500000001 21.142215824371313L7.6171875 21.304595587580895L7.3359375 21.142215824371313" stroke-width="0.03" stroke="#000000" fill="none"/>
<path d="M7.6171875 21.223405705976102L7.6171875 21.304595587580895" stroke-width="0.03" stroke="#000000" fill="none"/>
<path d="M7.0546875 21.304595587580895L7.96875 21.832329818012038" stroke-width="0.03" stroke="#000000" fill="none"/>
<path d="M7.96875 22.07589946282641L8.53125 21.751139936407245" stroke-width="0.03" stroke="#000000" fill="none"/>
<path d="M8.53125 21.832329818012038L8.0390625 22.116494403628806" stroke-width="0.03" stroke="#000000" fill="none"/>
<path d="M8.53125 22.644228634059946L8.0390625 22.928393219676718" stroke-width="0.03" stroke="#000000" fill="none"/>
<path d="M9.3046875 23.90267179893421L9.375 23.862076858131815" stroke-width="0.03" stroke="#000000" fill="none"/>
<path d="M9.3046875 23.90267179893421L9.3046875 24.227431325353376" stroke-width="0.03" stroke="#000000" fill="none"/>
<path d="M9.3046875 23.90267179893421L5.2265625 21.548165232395267" stroke-width="0.03" stroke="#000000" fill="none"/>
<path d="M5.71875 21.751139936407245L5.859375000000001 21.669950054802452" stroke-width="0.03" stroke="#000000" fill="none"/>
<path d="M6.914062500000001 21.62935511400006L6.914062500000001 20.492696771532984" stroke-width="0.03" stroke="#000000" fill="none"/>
<path d="M6.914062500000001 19.843177718694655L6.7734375 19.761987837089862L6.7734375 18.38175984980841" stroke-width="0.03" stroke="#000000" fill="none"/>
<path d="M7.0546875 18.219380086598832L5.9296875 17.569861033760503" stroke-width="0.03" stroke="#000000" fill="none"/>
<path d="M7.898437500000001 16.352012809688635L8.25 16.14903810567666L8.25 16.879747040119774L8.6015625 17.082721744131756L8.8125 16.960936921724567L8.8125 16.879747040119774L9.09375 16.717367276910196" stroke-width="0.03" stroke="#000000" fill="none"/>
<path d="M9.09375 16.636177395305403L8.6015625 16.352012809688635L8.6015625 17.082721744131756" stroke-width="0.03" stroke="#000000" fill="none"/>
<path d="M8.8125 16.879747040119774L9.09375 17.04212680332936" stroke-width="0.03" stroke="#000000" fill="none"/>
<path d="M9.375 16.39260775049103L9.375 16.14903810567666L9.515625 16.067848224071867" stroke-width="0.03" stroke="#000000" fill="none"/>
<path d="M9.4453125 16.10844316487426L8.8828125 15.783683638455097" stroke-width="0.03" stroke="#000000" fill="none"/>
<path d="M8.6015625 15.946063401664679L9.09375 16.230227987281445" stroke-width="0.03" stroke="#000000" fill="none"/>
<path d="M9.09375 16.067848224071867L9.375 16.230227987281445" stroke-width="0.03" stroke="#000000" fill="none"/>
<path d="M9.375 16.14903810567666L9.796875 16.39260775049103L9.796875 16.636177395305403L9.375 16.39260775049103" stroke-width="0.03" stroke="#000000" fill="none"/>
<path d="M9.796875 16.39260775049103L9.9375 16.311417868886238" stroke-width="0.03" stroke="#000000" fill="none"/>
<path d="M9.867187500000002 16.270822928083845L9.867187500000002 15.946063401664679" stroke-width="0.03" stroke="#000000" fill="none"/>
<path d="M9.796875 15.661898816047911L10.5 15.255949408023953L11.203125 15.661898816047911" stroke-width="0.03" stroke="#000000" fill="none"/>
<path d="M11.1328125 15.946063401664679L11.1328125 16.270822928083845" stroke-width="0.03" stroke="#000000" fill="none"/>
<path d="M11.0625 16.311417868886238L12.046875 15.7430886976527" stroke-width="0.03" stroke="#000000" fill="none"/>
<path d="M12.1171875 15.783683638455097L11.5546875 16.10844316487426" stroke-width="0.03" stroke="#000000" fill="none"/>
<path d="M11.484375000000002 16.067848224071867L11.625000000000002 16.14903810567666L11.625000000000002 16.39260775049103L11.203125 16.636177395305403L11.0625 16.55498751370061L11.0625 16.311417868886238L11.203125 16.39260775049103L11.203125 16.636177395305403" stroke-width="0.03" stroke="#000000" fill="none"/>
<path d="M11.0625 16.55498751370061L10.78125 16.717367276910196" stroke-width="0.03" stroke="#000000" fill="none"/>
<path d="M10.8515625 16.514392572898217L10.8515625 15.783683638455097" stroke-width="0.03" stroke="#000000" fill="none"/>
<path d="M10.5 15.255949408023953L10.5 16.717367276910196L11.0625 16.39260775049103" stroke-width="0.03" stroke="#000000" fill="none"/>
<path d="M11.203125 16.39260775049103L11.625000000000002 16.14903810567666" stroke-width="0.03" stroke="#000000" fill="none"/>
<path d="M11.625000000000002 16.230227987281445L11.90625 16.067848224071867" stroke-width="0.03" stroke="#000000" fill="none"/>
<path d="M11.90625 16.230227987281445L12.3984375 15.946063401664679" stroke-width="0.03" stroke="#000000" fill="none"/>
<path d="M12.1171875 15.783683638455097L12.1171875 15.134164585616768" stroke-width="0.03" stroke="#000000" fill="none"/>
<path d="M12.046875 15.093569644814371L12.187500000000002 15.174759526419164L12.3984375 15.052974704011977L12.3984375 14.56583541438323" stroke-width="0.03" stroke="#000000" fill="none"/>
<path d="M12.187500000000002 14.687620236790417L12.187500000000002 15.174759526419164" stroke-width="0.03" stroke="#000000" fill="none"/>
<path d="M12.2578125 15.134164585616768L12.2578125 15.458924112035932L12.1171875 15.377734230431141" stroke-width="0.03" stroke="#000000" fill="none"/>
<path d="M12.046875 15.337139289628746L12.1171875 15.29654434882635" stroke-width="0.03" stroke="#000000" fill="none"/>
<path d="M12.046875 15.337139289628746L11.976562500000002 15.29654434882635L11.976562500000002 14.890594940802394" stroke-width="0.03" stroke="#000000" fill="none"/>
<path d="M12.046875 14.931189881604789L11.835937500000002 14.809405059197603" stroke-width="0.03" stroke="#000000" fill="none"/>
<path d="M11.835937500000002 14.890594940802394L11.5546875 15.052974704011977L10.8515625 14.647025295988021L10.8515625 13.83512647994011" stroke-width="0.03" stroke="#000000" fill="none"/>
<path d="M10.5 13.632151775928133L10.5 14.85" stroke-width="0.03" stroke="#000000" fill="none"/>
<path d="M10.8515625 14.647025295988021L12.1171875 13.9163163615449" stroke-width="0.03" stroke="#000000" fill="none"/>
<path d="M12.1171875 13.347987190311363L12.46875 13.145012486299386L12.75 13.307392249508968" stroke-width="0.03" stroke="#000000" fill="none"/>
<path d="M12.75 13.388582131113758L13.875 12.739063078275429" stroke-width="0.03" stroke="#000000" fill="none"/>
<path d="M13.734375 12.65787319667064L12.679687500000002 13.266797308706572" stroke-width="0.03" stroke="#000000" fill="none"/>
<path d="M12.9609375 13.753936598335319L14.015625 13.145012486299386" stroke-width="0.03" stroke="#000000" fill="none"/>
<path d="M13.593750000000002 13.794531539137715L13.734375 13.875721420742504" stroke-width="0.03" stroke="#000000" fill="none"/>
<path d="M14.2265625 14.241075887964065L14.367187500000002 14.322265769568856" stroke-width="0.03" stroke="#000000" fill="none"/>
<path d="M13.1015625 14.971784822407185L13.1015625 15.29654434882635L12.8203125 15.134164585616768" stroke-width="0.03" stroke="#000000" fill="none"/>
<path d="M12.75 15.174759526419164L12.75 15.7430886976527L13.382812500000002 15.377734230431141L13.382812500000002 15.783683638455097L12.75 16.14903810567666L12.75 16.879747040119774L12.3984375 17.082721744131756L12.187500000000002 16.960936921724567L12.187500000000002 16.879747040119774L11.90625 16.717367276910196" stroke-width="0.03" stroke="#000000" fill="none"/>
<path d="M11.90625 16.636177395305403L12.3984375 16.352012809688635L12.3984375 17.082721744131756" stroke-width="0.03" stroke="#000000" fill="none"/>
<path d="M12.187500000000002 16.879747040119774L11.90625 17.04212680332936" stroke-width="0.03" stroke="#000000" fill="none"/>
<path d="M12.75 16.55498751370061L13.1015625 16.352012809688635L13.1015625 15.946063401664679" stroke-width="0.03" stroke="#000000" fill="none"/>
<path d="M13.1015625 16.352012809688635L12.75 16.14903810567666" stroke-width="0.03" stroke="#000000" fill="none"/>
<path d="M13.1015625 15.29654434882635L13.171875 15.255949408023953L13.382812500000002 15.377734230431141" stroke-width="0.03" stroke="#000000" fill="none"/>
<path d="M14.0859375 16.6767723361078L14.0859375 16.75796221771259" stroke-width="0.03" stroke="#000000" fill="none"/>
<path d="M14.2265625 18.38175984980841L14.2265625 19.761987837089862" stroke-width="0.03" stroke="#000000" fill="none"/>
<path d="M14.0859375 19.843177718694655L13.875 19.721392896287465" stroke-width="0.03" stroke="#000000" fill="none"/>
<path d="M13.875 19.640203014682676L13.945312500000002 19.59960807388028" stroke-width="0.03" stroke="#000000" fill="none"/>
<path d="M13.875 19.559013133077883L12.75 20.208532185916212" stroke-width="0.03" stroke="#000000" fill="none"/>
<path d="M12.75 20.04615242270663L12.609375 19.96496254110184" stroke-width="0.03" stroke="#000000" fill="none"/>
<path d="M12.609375 20.12734230431142L12.609375 21.020431001964123L12.46875 21.101620883568916" stroke-width="0.03" stroke="#000000" fill="none"/>
<path d="M12.46875 21.18281076517371L12.539062500000002 21.223405705976102" stroke-width="0.03" stroke="#000000" fill="none"/>
<path d="M12.609375 21.020431001964123L12.75 21.101620883568916" stroke-width="0.03" stroke="#000000" fill="none"/>
<path d="M12.46875 21.507570291592874L13.031250000000002 21.832329818012038" stroke-width="0.03" stroke="#000000" fill="none"/>
<path d="M12.46875 22.644228634059946L12.9609375 22.928393219676718" stroke-width="0.03" stroke="#000000" fill="none"/>
<path d="M12.46875 23.050178042083903L10.921875000000002 23.943266739736604" stroke-width="0.03" stroke="#000000" fill="none"/>
<path d="M11.625000000000002 23.862076858131815L11.6953125 23.90267179893421L11.6953125 24.227431325353376" stroke-width="0.03" stroke="#000000" fill="none"/>
<path d="M11.6953125 23.90267179893421L15.773437500000002 21.548165232395267" stroke-width="0.03" stroke="#000000" fill="none"/>
<path d="M15.28125 21.751139936407245L15.140625 21.669950054802452" stroke-width="0.03" stroke="#000000" fill="none"/>
<path d="M14.0859375 21.62935511400006L14.0859375 20.492696771532984" stroke-width="0.03" stroke="#000000" fill="none"/>
<path d="M14.0859375 20.249127126718612L13.875 20.12734230431142" stroke-width="0.03" stroke="#000000" fill="none"/>
<path d="M13.945312500000002 19.193658665856326L12.46875 20.04615242270663L12.46875 23.050178042083903" stroke-width="0.03" stroke="#000000" fill="none"/>
<path d="M12.46875 20.61448159394017L12.609375 20.53329171233538" stroke-width="0.03" stroke="#000000" fill="none"/>
<path d="M12.890625000000002 19.96496254110184L12.890625000000002 19.802582777892262" stroke-width="0.03" stroke="#000000" fill="none"/>
<path d="M11.976562500000002 18.462949731413204L11.835937500000002 18.38175984980841" stroke-width="0.03" stroke="#000000" fill="none"/>
<path d="M11.976562500000002 18.219380086598832L11.835937500000002 18.13819020499404" stroke-width="0.03" stroke="#000000" fill="none"/>
<path d="M11.273437500000002 18.13819020499404L11.1328125 18.057000323389246" stroke-width="0.03" stroke="#000000" fill="none"/>
<path d="M10.5 17.77283573777248L10.359375 17.85402561937727" stroke-width="0.03" stroke="#000000" fill="none"/>
<path d="M9.867187500000002 18.057000323389246L9.7265625 18.13819020499404" stroke-width="0.03" stroke="#000000" fill="none"/>
<path d="M9.1640625 18.13819020499404L9.0234375 18.219380086598832" stroke-width="0.03" stroke="#000000" fill="none"/>
<path d="M9.1640625 18.38175984980841L9.0234375 18.462949731413204" stroke-width="0.03" stroke="#000000" fill="none"/>
<path d="M8.109375 19.802582777892262L8.109375 19.96496254110184" stroke-width="0.03" stroke="#000000" fill="none"/>
<path d="M8.390625 20.53329171233538L8.53125 20.61448159394017" stroke-width="0.03" stroke="#000000" fill="none"/>
<path d="M7.0546875 19.59960807388028L6.7734375 19.761987837089862" stroke-width="0.03" stroke="#000000" fill="none"/>
<path d="M8.25 16.55498751370061L7.898437500000001 16.352012809688635L7.898437500000001 15.946063401664679" stroke-width="0.03" stroke="#000000" fill="none"/>
<path d="M7.6171875 15.783683638455097L7.6171875 15.377734230431141L7.828125 15.255949408023953L7.898437500000001 15.29654434882635L8.1796875 15.134164585616768" stroke-width="0.03" stroke="#000000" fill="none"/>
<path d="M8.25 15.174759526419164L8.25 15.7430886976527L7.6171875 15.377734230431141" stroke-width="0.03" stroke="#000000" fill="none"/>
<path d="M7.898437500000001 15.29654434882635L7.898437500000001 14.971784822407185" stroke-width="0.03" stroke="#000000" fill="none"/>
<path d="M7.6171875 15.783683638455097L8.25 16.14903810567666" stroke-width="0.03" stroke="#000000" fill="none"/>
<path d="M8.8828125 15.29654434882635L8.953125 15.337139289628746" stroke-width="0.03" stroke="#000000" fill="none"/>
<path d="M10.1484375 15.783683638455097L10.1484375 16.514392572898217" stroke-width="0.03" stroke="#000000" fill="none"/>
<path d="M9.9375 16.55498751370061L9.796875 16.636177395305403" stroke-width="0.03" stroke="#000000" fill="none"/>
<path d="M9.9375 16.39260775049103L10.5 16.717367276910196" stroke-width="0.03" stroke="#000000" fill="none"/>
<path d="M11.5546875 15.458924112035932L11.5546875 15.052974704011977" stroke-width="0.03" stroke="#000000" fill="none"/>
<path d="M10.1484375 14.647025295988021L8.8828125 13.9163163615449" stroke-width="0.03" stroke="#000000" fill="none"/>
<path d="M8.6015625 13.510366953520945L8.25 13.307392249508968" stroke-width="0.03" stroke="#000000" fill="none"/>
<path d="M8.25 13.388582131113758L7.125 12.739063078275429" stroke-width="0.03" stroke="#000000" fill="none"/>
<path d="M7.265625000000001 12.65787319667064L8.3203125 13.266797308706572" stroke-width="0.03" stroke="#000000" fill="none"/>
<path d="M8.0390625 13.753936598335319L6.984375 13.145012486299386" stroke-width="0.03" stroke="#000000" fill="none"/>
<path d="M6.84375 12.414303551856264L6.984375 12.333113670251475" stroke-width="0.03" stroke="#000000" fill="none"/>
<path d="M6.703125 11.927164262227517L6.703125 11.764784499017935L7.265625000000001 11.44002497259877L8.6015625 12.211328847844287L8.6015625 12.37370861105387L8.0390625 12.698468137473034L6.703125 11.927164262227517" stroke-width="0.03" stroke="#000000" fill="none"/>
<path d="M6.703125 11.764784499017935L8.0390625 12.536088374263452L8.0390625 12.698468137473034" stroke-width="0.03" stroke="#000000" fill="none"/>
<path d="M8.0390625 12.536088374263452L8.6015625 12.211328847844287" stroke-width="0.03" stroke="#000000" fill="none"/>
<path d="M8.7421875 12.211328847844287L10.359375 11.277645209389188L10.359375 10.790505919760442L8.109375 9.491467814083784L8.109375 9.166708287664619" stroke-width="0.03" stroke="#000000" fill="none"/>
<path d="M7.96875 9.24789816926941L7.96875 9.491467814083784" stroke-width="0.03" stroke="#000000" fill="none"/>
<path d="M8.0390625 9.53206275488618L8.109375 9.491467814083784" stroke-width="0.03" stroke="#000000" fill="none"/>
<path d="M8.109375 9.572657695688576L6.984375 10.222176748526905" stroke-width="0.03" stroke="#000000" fill="none"/>
<path d="M7.125 10.303366630131695L7.125 10.465746393341277" stroke-width="0.03" stroke="#000000" fill="none"/>
<path d="M6.984375 10.384556511736488L6.210937500000001 9.938012162910134" stroke-width="0.03" stroke="#000000" fill="none"/>
<path d="M6.492187500000001 10.262771689329298L6.6328125 10.181581807724509" stroke-width="0.03" stroke="#000000" fill="none"/>
<path d="M7.265625000000001 10.222176748526905L7.40625 10.303366630131695" stroke-width="0.03" stroke="#000000" fill="none"/>
<path d="M6.703125 9.24789816926941L6.703125 9.004328524455037L6.6328125 8.963733583652642L6.3515625 9.126113346862224L6.3515625 9.450872873281389" stroke-width="0.03" stroke="#000000" fill="none"/>
<path d="M6.421875 9.410277932478992L6.421875 9.166708287664619L6.703125 9.004328524455037" stroke-width="0.03" stroke="#000000" fill="none"/>
<path d="M6.6328125 8.963733583652642L6.6328125 8.638974057233478" stroke-width="0.03" stroke="#000000" fill="none"/>
<path d="M6.421875 8.354809471616708L7.40625 8.923138642850246" stroke-width="0.03" stroke="#000000" fill="none"/>
<path d="M6.421875 9.166708287664619L6.3515625 9.126113346862224" stroke-width="0.03" stroke="#000000" fill="none"/>
<path d="M6.914062500000001 7.421125833161611L6.914062500000001 7.2587460699520285" stroke-width="0.03" stroke="#000000" fill="none"/>
<path d="M6.914062500000001 6.852796661928072L6.914062500000001 6.69041689871849L7.0546875 6.771606780323281L2.976562500000001 9.126113346862224L2.976562500000001 9.207303228467016L3.2578125 9.369682991676598L7.3359375 7.015176425137655L7.3359375 6.933986543532863L3.2578125 9.288493110071807L3.2578125 9.369682991676598" stroke-width="0.03" stroke="#000000" fill="none"/>
<path d="M3.2578125 9.288493110071807L2.976562500000001 9.126113346862224" stroke-width="0.03" stroke="#000000" fill="none"/>
<path d="M1.7812499999999996 11.196455327784399L2.0625000000000004 11.358835090993981" stroke-width="0.03" stroke="#000000" fill="none"/>
<path d="M7.265625000000001 13.875721420742504L7.40625 13.794531539137715" stroke-width="0.03" stroke="#000000" fill="none"/>
<path d="M8.390625 12.0895440254371L10.2890625 10.99348062377242L10.2890625 10.749910978958045L8.3203125 11.886569321425123L8.3203125 12.048949084634705" stroke-width="0.03" stroke="#000000" fill="none"/>
<path d="M8.4609375 12.048949084634705L10.1484375 13.023227663892198L10.1484375 13.18560742710178" stroke-width="0.03" stroke="#000000" fill="none"/>
<path d="M10.078125 13.226202367904175L10.1484375 13.266797308706572L10.1484375 13.347987190311363L9.796875 13.55096189432334" stroke-width="0.03" stroke="#000000" fill="none"/>
<path d="M9.796875 13.46977201271855L9.796875 13.713341657532922" stroke-width="0.03" stroke="#000000" fill="none"/>
<path d="M9.65625 12.739063078275429L10.1484375 12.45489849265866L9.515625 12.0895440254371L9.515625 12.333113670251475L9.5859375 12.37370861105387L9.5859375 12.698468137473034" stroke-width="0.03" stroke="#000000" fill="none"/>
<path d="M9.3046875 12.536088374263452L9.5859375 12.37370861105387" stroke-width="0.03" stroke="#000000" fill="none"/>
<path d="M9.515625 12.0895440254371L9.867187500000002 11.886569321425123L10.5 12.251923788646682L11.1328125 11.886569321425123L11.484375000000002 12.0895440254371L11.484375000000002 12.333113670251475L11.4140625 12.37370861105387L11.4140625 12.698468137473034" stroke-width="0.03" stroke="#000000" fill="none"/>
<path d="M11.34375 12.739063078275429L10.8515625 12.45489849265866L11.484375000000002 12.0895440254371" stroke-width="0.03" stroke="#000000" fill="none"/>
<path d="M11.4140625 12.37370861105387L11.6953125 12.536088374263452" stroke-width="0.03" stroke="#000000" fill="none"/>
<path d="M12.2578125 12.211328847844287L10.640625 11.277645209389188L10.640625 10.790505919760442L12.890625000000002 9.491467814083784L12.890625000000002 9.166708287664619" stroke-width="0.03" stroke="#000000" fill="none"/>
<path d="M13.031250000000002 9.24789816926941L13.031250000000002 9.491467814083784" stroke-width="0.03" stroke="#000000" fill="none"/>
<path d="M12.9609375 9.53206275488618L12.890625000000002 9.491467814083784" stroke-width="0.03" stroke="#000000" fill="none"/>
<path d="M12.890625000000002 9.572657695688576L13.6640625 9.126113346862224L11.1328125 7.664695477975984L11.1328125 7.745885359580775L10.78125 7.948860063592752" stroke-width="0.03" stroke="#000000" fill="none"/>
<path d="M11.1328125 7.664695477975984L11.273437500000002 7.583505596371193L13.8046875 9.044923465257433L13.875 9.004328524455037L15.000000000000002 9.653847577293366L15.000000000000002 9.735037458898159" stroke-width="0.03" stroke="#000000" fill="none"/>
<path d="M15.000000000000002 9.653847577293366L14.9296875 9.694442518095762L15.2109375 9.856822281305345" stroke-width="0.03" stroke="#000000" fill="none"/>
<path d="M15.140625 9.816227340502948L15.000000000000002 9.897417222107741L15.000000000000002 9.97860710371253" stroke-width="0.03" stroke="#000000" fill="none"/>
<path d="M15.000000000000002 9.897417222107741L14.7890625 9.775632399700552L14.015625 10.222176748526905L14.015625 10.384556511736488L12.890625000000002 9.735037458898159L12.890625000000002 9.572657695688576L14.015625 10.222176748526905" stroke-width="0.03" stroke="#000000" fill="none"/>
<path d="M13.875 10.303366630131695L13.875 10.465746393341277" stroke-width="0.03" stroke="#000000" fill="none"/>
<path d="M14.015625 10.384556511736488L14.7890625 9.938012162910134L14.7890625 9.775632399700552" stroke-width="0.03" stroke="#000000" fill="none"/>
<path d="M14.7890625 9.938012162910134L14.9296875 10.019202044514927" stroke-width="0.03" stroke="#000000" fill="none"/>
<path d="M15.140625 9.897417222107741L15.140625 9.816227340502948" stroke-width="0.03" stroke="#000000" fill="none"/>
<path d="M15.28125 9.816227340502948L15.28125 9.166708287664619" stroke-width="0.03" stroke="#000000" fill="none"/>
<path d="M15.4921875 9.044923465257433L15.4921875 9.694442518095762" stroke-width="0.03" stroke="#000000" fill="none"/>
<path d="M15.5625 9.653847577293366L15.5625 9.085518406059828" stroke-width="0.03" stroke="#000000" fill="none"/>
<path d="M16.265625 9.24789816926941L16.265625 8.679568998035872" stroke-width="0.03" stroke="#000000" fill="none"/>
<path d="M16.617187500000004 9.044923465257433L14.015625 10.54693627494607L12.539062500000002 9.694442518095762" stroke-width="0.03" stroke="#000000" fill="none"/>
<path d="M13.593750000000002 10.303366630131695L13.734375 10.222176748526905" stroke-width="0.03" stroke="#000000" fill="none"/>
<path d="M14.367187500000002 10.181581807724509L14.5078125 10.262771689329298" stroke-width="0.03" stroke="#000000" fill="none"/>
<path d="M13.734375 11.44002497259877L12.3984375 12.211328847844287L12.3984375 12.37370861105387L12.9609375 12.698468137473034L14.296875000000002 11.927164262227517L14.296875000000002 11.764784499017935L13.734375 11.44002497259877" stroke-width="0.03" stroke="#000000" fill="none"/>
<path d="M14.296875000000002 11.764784499017935L12.9609375 12.536088374263452L12.3984375 12.211328847844287" stroke-width="0.03" stroke="#000000" fill="none"/>
<path d="M12.890625000000002 11.927164262227517L12.890625000000002 11.764784499017935" stroke-width="0.03" stroke="#000000" fill="none"/>
<path d="M12.9609375 12.536088374263452L12.9609375 12.698468137473034" stroke-width="0.03" stroke="#000000" fill="none"/>
<path d="M10.9921875 12.942037782287407L10.5 12.65787319667064" stroke-width="0.03" stroke="#000000" fill="none"/>
<path d="M10.5 12.251923788646682L10.5 11.845974380622728L10.1484375 12.048949084634705" stroke-width="0.03" stroke="#000000" fill="none"/>
<path d="M10.5 11.845974380622728L10.8515625 12.048949084634705" stroke-width="0.03" stroke="#000000" fill="none"/>
<path d="M10.7109375 10.831100860562838L10.640625 10.790505919760442" stroke-width="0.03" stroke="#000000" fill="none"/>
<path d="M10.359375 10.790505919760442L10.2890625 10.831100860562838" stroke-width="0.03" stroke="#000000" fill="none"/>
<path d="M10.078125 10.62812615655086L8.109375 11.764784499017935L8.109375 11.927164262227517" stroke-width="0.03" stroke="#000000" fill="none"/>
<path d="M8.109375 11.764784499017935L8.3203125 11.886569321425123" stroke-width="0.03" stroke="#000000" fill="none"/>
<path d="M10.5 10.465746393341277L10.5 10.059796985317323" stroke-width="0.03" stroke="#000000" fill="none"/>
<path d="M11.34375 7.624100537173588L12.2578125 7.096366306742446L12.46875 7.218151129149632" stroke-width="0.03" stroke="#000000" fill="none"/>
<path d="M12.679687500000002 7.2587460699520285L12.75 7.218151129149632L12.75 6.649821957916094L12.46875 6.8122017211256765" stroke-width="0.03" stroke="#000000" fill="none"/>
<path d="M13.3125 7.05577136594005L13.382812500000002 7.096366306742446L13.382812500000002 7.583505596371193" stroke-width="0.03" stroke="#000000" fill="none"/>
<path d="M13.382812500000002 7.096366306742446L13.6640625 6.933986543532863" stroke-width="0.03" stroke="#000000" fill="none"/>
<path d="M13.382812500000002 7.015176425137655L10.5 5.350783852239436L7.6171875 7.015176425137655" stroke-width="0.03" stroke="#000000" fill="none"/>
<path d="M7.6875 7.05577136594005L7.6171875 7.096366306742446L7.6171875 7.583505596371193" stroke-width="0.03" stroke="#000000" fill="none"/>
<path d="M7.6171875 7.096366306742446L7.3359375 6.933986543532863" stroke-width="0.03" stroke="#000000" fill="none"/>
<path d="M7.264131938244363 2.2599663291074443L1.5 2.2599663291074443" stroke-width="0.03" stroke="#000000" fill="none"/>
<path d="M2.0824957911384305 2.015598694615191L2.0824957911384305 1.7268634256306838" stroke-width="0.03" stroke="#000000" fill="none"/>
<path d="M2.061871843353823 1.5824957911384305L2.0824957911384305 1.6031197389230383L2.1031197389230383 1.5824957911384305L2.0824957911384305 1.5618718433538228L2.061871843353823 1.5824957911384305" stroke-width="0.03" stroke="#000000" fill="none"/>
<path d="M2.226863425630684 1.953726851261368L2.2474873734152916 1.9949747468305832L2.3093592167691144 2.015598694615191L2.3712310601229376 2.015598694615191L2.4331029034767604 1.9949747468305832L2.4537268512613677 1.953726851261368L2.4537268512613677 1.9331029034767604L2.4331029034767604 1.891855007907545L2.391855007907545 1.8712310601229374L2.2887352689845066 1.8506071123383299L2.2474873734152916 1.8299831645537221L2.226863425630684 1.7887352689845069L2.2474873734152916 1.7474873734152916L2.3093592167691144 1.7268634256306838L2.3712310601229376 1.7268634256306838L2.4331029034767604 1.7474873734152916L2.4537268512613677 1.7887352689845069" stroke-width="0.03" stroke="#000000" fill="none"/>
<path d="M2.680590276892052 1.7268634256306838L2.6393423813228365 1.7474873734152916L2.5980944857536215 1.7887352689845069L2.5774705379690137 1.8506071123383299L2.5774705379690137 1.891855007907545L2.5980944857536215 1.953726851261368L2.6393423813228365 1.9949747468305832L2.680590276892052 2.015598694615191L2.7424621202458748 2.015598694615191L2.78371001581509 1.9949747468305832L2.8249579113843053 1.953726851261368L2.845581859168913 1.891855007907545L2.845581859168913 1.8506071123383299L2.8249579113843053 1.7887352689845069L2.78371001581509 1.7474873734152916L2.7424621202458748 1.7268634256306838L2.680590276892052 1.7268634256306838" stroke-width="0.03" stroke="#000000" fill="none"/>
<path d="M2.907453702522736 2.056846590184406L3.237436867076458 2.056846590184406" stroke-width="0.03" stroke="#000000" fill="none"/>
<path d="M3.2993087104302807 1.953726851261368L3.3199326582148885 1.9949747468305832L3.3818045015687113 2.015598694615191L3.443676344922534 2.015598694615191L3.5055481882763573 1.9949747468305832L3.526172136060965 1.953726851261368L3.526172136060965 1.9331029034767604L3.5055481882763573 1.891855007907545L3.464300292707142 1.8712310601229374L3.361180553784104 1.8506071123383299L3.3199326582148885 1.8299831645537221L3.2993087104302807 1.7887352689845069L3.3199326582148885 1.7474873734152916L3.3818045015687113 1.7268634256306838L3.443676344922534 1.7268634256306838L3.5055481882763573 1.7474873734152916L3.526172136060965 1.7887352689845069" stroke-width="0.03" stroke="#000000" fill="none"/>
<path d="M3.6705397705532183 1.8093592167691144L3.732411613907041 1.7474873734152916L3.773659509476256 1.7268634256306838L3.8355313528300794 1.7268634256306838L3.8767792483992944 1.7474873734152916L3.897403196183902 1.8093592167691144L3.897403196183902 2.015598694615191" stroke-width="0.03" stroke="#000000" fill="none"/>
<path d="M3.6705397705532183 2.015598694615191L3.6705397705532183 1.7268634256306838" stroke-width="0.03" stroke="#000000" fill="none"/>
<path d="M4.144890569599194 1.7268634256306838L4.103642674029978 1.7474873734152916L4.062394778460764 1.7887352689845069L4.041770830676155 1.8506071123383299L4.041770830676155 1.891855007907545L4.062394778460764 1.953726851261368L4.103642674029978 1.9949747468305832L4.144890569599194 2.015598694615191L4.206762412953017 2.015598694615191L4.2480103085222325 1.9949747468305832L4.289258204091447 1.953726851261368L4.309882151876055 1.891855007907545L4.309882151876055 1.8506071123383299L4.289258204091447 1.7887352689845069L4.2480103085222325 1.7474873734152916L4.206762412953017 1.7268634256306838L4.144890569599194 1.7268634256306838" stroke-width="0.03" stroke="#000000" fill="none"/>
<path d="M4.4336258385837 1.7268634256306838L4.516121629722131 2.015598694615191L4.5986174208605615 1.7268634256306838L4.681113211998992 2.015598694615191L4.7636090031374225 1.7268634256306838" stroke-width="0.03" stroke="#000000" fill="none"/>
<path d="M4.866728742060461 1.7268634256306838L5.011096376552715 1.7268634256306838" stroke-width="0.03" stroke="#000000" fill="none"/>
<path d="M5.031720324337321 1.5824957911384305L4.990472428768107 1.5824957911384305L4.949224533198891 1.6031197389230383L4.928600585414284 1.664991582276861L4.928600585414284 2.015598694615191" stroke-width="0.03" stroke="#000000" fill="none"/>
<path d="M5.155464011044968 2.015598694615191L5.155464011044968 1.5824957911384305" stroke-width="0.03" stroke="#000000" fill="none"/>
<path d="M5.547319018952512 1.7268634256306838L5.547319018952512 2.015598694615191" stroke-width="0.03" stroke="#000000" fill="none"/>
<path d="M5.547319018952512 1.953726851261368L5.506071123383298 1.9949747468305832L5.464823227814082 2.015598694615191L5.402951384460259 2.015598694615191L5.3617034888910435 1.9949747468305832L5.320455593321829 1.953726851261368L5.299831645537221 1.891855007907545L5.299831645537221 1.8506071123383299L5.320455593321829 1.7887352689845069L5.3617034888910435 1.7474873734152916L5.402951384460259 1.7268634256306838L5.464823227814082 1.7268634256306838L5.506071123383298 1.7474873734152916L5.547319018952512 1.7887352689845069" stroke-width="0.03" stroke="#000000" fill="none"/>
<path d="M5.712310601229374 1.9331029034767604L5.91855007907545 1.7268634256306838" stroke-width="0.03" stroke="#000000" fill="none"/>
<path d="M5.794806392367804 1.8506071123383299L5.939174026860058 2.015598694615191" stroke-width="0.03" stroke="#000000" fill="none"/>
<path d="M6.042293765783096 1.8506071123383299L6.2897811391983875 1.8506071123383299L6.2897811391983875 1.8093592167691144L6.26915719141378 1.7681113211998993L6.248533243629172 1.7474873734152916L6.207285348059957 1.7268634256306838L6.145413504706134 1.7268634256306838L6.104165609136919 1.7474873734152916L6.062917713567703 1.7887352689845069L6.042293765783096 1.8506071123383299L6.042293765783096 1.891855007907545L6.062917713567703 1.953726851261368L6.104165609136919 1.9949747468305832L6.145413504706134 2.015598694615191L6.207285348059957 2.015598694615191L6.248533243629172 1.9949747468305832L6.2897811391983875 1.953726851261368" stroke-width="0.03" stroke="#000000" fill="none"/>
<path d="M6.434148773690641 1.6856155300614688L6.434148773690641 1.664991582276861L6.454772721475249 1.6237436867076458L6.475396669259856 1.6031197389230383L6.516644564829072 1.5824957911384305L6.599140355967502 1.5824957911384305L6.640388251536717 1.6031197389230383L6.661012199321325 1.6237436867076458L6.681636147105933 1.664991582276861L6.681636147105933 1.7062394778460763L6.661012199321325 1.7474873734152916L6.61976430375211 1.8093592167691144L6.413524825906033 2.015598694615191L6.702260094890541 2.015598694615191" stroke-width="0.03" stroke="#000000" fill="none"/>
<path d="M5.712310601229374 2.015598694615191L5.712310601229374 1.5824957911384305" stroke-width="0.03" stroke="#000000" fill="none"/>
<path d="M4.319826729782491 2.761936734812169L4.345319331208673 2.7491904340990785L4.383558233347944 2.7109515319598065L4.383558233347944 2.9786238469347097" stroke-width="0.03" stroke="#000000" fill="none"/>
<path d="M4.10313961765995 2.7109515319598065L4.064900715520679 2.7236978326728973L4.039408114094497 2.761936734812169L4.026661813381407 2.825668238377622L4.026661813381407 2.8639071405168943L4.039408114094497 2.927638644082347L4.064900715520679 2.965877546221619L4.10313961765995 2.9786238469347097L4.128632219086132 2.9786238469347097L4.1668711212254035 2.965877546221619L4.192363722651585 2.927638644082347L4.205110023364676 2.8639071405168943L4.205110023364676 2.825668238377622L4.192363722651585 2.761936734812169L4.1668711212254035 2.7236978326728973L4.128632219086132 2.7109515319598065L4.10313961765995 2.7109515319598065" stroke-width="0.03" stroke="#000000" fill="none"/>
<path d="M3.9501840091028635 2.9786238469347097L3.771735799119595 2.9786238469347097L3.899198806250501 2.8511608398038035L3.9246914076766823 2.8129219376645316L3.9374377083897727 2.7874293362383504L3.9374377083897727 2.761936734812169L3.9246914076766823 2.736444133385988L3.911945106963592 2.7236978326728973L3.8864525055374104 2.7109515319598065L3.835467302685048 2.7109515319598065L3.8099747012588665 2.7236978326728973L3.797228400545776 2.736444133385988L3.784482099832686 2.761936734812169L3.784482099832686 2.7746830355252596" stroke-width="0.03" stroke="#000000" fill="none"/>
<path d="M3.542302386283964 2.7109515319598065L3.6825116941279608 2.7109515319598065L3.6060338898494173 2.8129219376645316L3.644272791988689 2.8129219376645316L3.66976539341487 2.825668238377622L3.6825116941279608 2.8384145390907127L3.695257994841051 2.8766534412299847L3.695257994841051 2.902146042656166L3.6825116941279608 2.9403849447954378L3.6570190927017796 2.965877546221619L3.6187801905625077 2.9786238469347097L3.5805412884232357 2.9786238469347097L3.542302386283964 2.965877546221619L3.5295560855708734 2.953131245508528L3.5168097848577826 2.927638644082347" stroke-width="0.03" stroke="#000000" fill="none"/>
<path d="M3.402093078439967 2.8384145390907127L3.3001226727352426 2.8384145390907127" stroke-width="0.03" stroke="#000000" fill="none"/>
<path d="M3.3001226727352426 2.7109515319598065L3.3001226727352426 2.9786238469347097" stroke-width="0.03" stroke="#000000" fill="none"/>
<path d="M3.3001226727352426 2.7109515319598065L3.4658245820054203 2.7109515319598065" stroke-width="0.03" stroke="#000000" fill="none"/>
<path d="M3.057942959186521 2.7109515319598065L3.198152267030517 2.7109515319598065L3.1216744627519737 2.8129219376645316L3.1599133648912456 2.8129219376645316L3.185405966317427 2.825668238377622L3.198152267030517 2.8384145390907127L3.210898567743608 2.8766534412299847L3.210898567743608 2.902146042656166L3.198152267030517 2.9403849447954378L3.1726596656043364 2.965877546221619L3.1344207634650645 2.9786238469347097L3.0961818613257925 2.9786238469347097L3.057942959186521 2.965877546221619L3.0451966584734302 2.953131245508528L3.0324503577603394 2.927638644082347" stroke-width="0.03" stroke="#000000" fill="none"/>
<path d="M2.82850954635089 2.9786238469347097L2.955972553481796 2.7109515319598065L2.777524343498527 2.7109515319598065" stroke-width="0.03" stroke="#000000" fill="none"/>
<path d="M2.7010465392199836 2.7746830355252596L2.6883002385068933 2.7491904340990785L2.6628076370807117 2.7236978326728973L2.6373150356545305 2.7109515319598065L2.586329832802168 2.7109515319598065L2.560837231375987 2.7236978326728973L2.5353446299498055 2.7491904340990785L2.522598329236715 2.7746830355252596L2.5098520285236243 2.8129219376645316L2.5098520285236243 2.8766534412299847L2.522598329236715 2.9148923433692566L2.5353446299498055 2.9403849447954378L2.560837231375987 2.965877546221619L2.586329832802168 2.9786238469347097L2.6373150356545305 2.9786238469347097L2.6628076370807117 2.965877546221619L2.6883002385068933 2.9403849447954378L2.7010465392199836 2.9148923433692566" stroke-width="0.03" stroke="#000000" fill="none"/>
<path d="M2.433374224245081 2.9786238469347097L2.293164916401084 2.8001756369514412" stroke-width="0.03" stroke="#000000" fill="none"/>
<path d="M2.433374224245081 2.8001756369514412L2.293164916401084 2.9786238469347097" stroke-width="0.03" stroke="#000000" fill="none"/>
<path d="M2.1147167064178154 2.7109515319598065L2.076477804278544 2.7236978326728973L2.0509852028523623 2.761936734812169L2.038238902139272 2.825668238377622L2.038238902139272 2.8639071405168943L2.0509852028523623 2.927638644082347L2.076477804278544 2.965877546221619L2.1147167064178154 2.9786238469347097L2.140209307843997 2.9786238469347097L2.1784482099832685 2.965877546221619L2.2039408114094496 2.927638644082347L2.2166871121225404 2.8639071405168943L2.2166871121225404 2.825668238377622L2.2039408114094496 2.761936734812169L2.1784482099832685 2.7236978326728973L2.140209307843997 2.7109515319598065L2.1147167064178154 2.7109515319598065" stroke-width="0.03" stroke="#000000" fill="none"/>
<path d="M14.0859375 7.2587460699520285L14.0859375 7.421125833161611" stroke-width="0.03" stroke="#000000" fill="none"/>
<path d="M14.578125 8.354809471616708L13.593750000000002 8.923138642850246" stroke-width="0.03" stroke="#000000" fill="none"/>
<path d="M16.617187500000004 9.044923465257433L18.1640625 9.938012162910134" stroke-width="0.03" stroke="#000000" fill="none"/>
</svg>
