<?xml version="1.0" standalone="no"?>
<svg width="21cm" height="29.7cm" version="1.1" xmlns="http://www.w3.org/2000/svg" viewBox="0.0 0.0 21.000001 29.700001">
<path d="M8.53125 5.59435349705381L9.0234375 5.310188911437041L10.5 6.1626826682873475L11.976562500000002 5.310188911437041L12.46875 5.59435349705381L12.46875 7.299341010754423" stroke-width="0.03" stroke="#000000" fill="none"/>
<path d="M11.5546875 6.771606780323281L11.34375 6.893391602730468" stroke-width="0.03" stroke="#000000" fill="none"/>
<path d="M11.273437500000002 6.852796661928072L10.78125 7.136961247544841L10.78125 6.568632076311303L12.46875 5.59435349705381" stroke-width="0.03" stroke="#000000" fill="none"/>
<path d="M11.5546875 6.771606780323281L15.140625 8.841948761245455L15.140625 9.085518406059828" stroke-width="0.03" stroke="#000000" fill="none"/>
<path d="M14.9296875 8.963733583652642L15.140625 8.841948761245455" stroke-width="0.03" stroke="#000000" fill="none"/>
<path d="M15.351562500000002 9.207303228467016L14.859375 9.491467814083784L10.78125 7.136961247544841" stroke-width="0.03" stroke="#000000" fill="none"/>
<path d="M10.5 7.05577136594005L6.6328125 9.288493110071807L6.6328125 9.775632399700552L6.703125 9.816227340502948" stroke-width="0.03" stroke="#000000" fill="none"/>
<path d="M6.6328125 9.775632399700552L6.140625 10.059796985317323L5.6484375 9.775632399700552L5.6484375 9.207303228467016L9.7265625 6.852796661928072L10.218750000000002 7.136961247544841L10.218750000000002 6.568632076311303L10.5 6.406252313101721L10.78125 6.568632076311303" stroke-width="0.03" stroke="#000000" fill="none"/>
<path d="M10.5 6.406252313101721L10.5 7.05577136594005L14.367187500000002 9.288493110071807L14.367187500000002 9.775632399700552L14.296875000000002 9.816227340502948" stroke-width="0.03" stroke="#000000" fill="none"/>
<path d="M14.367187500000002 9.775632399700552L14.859375 10.059796985317323L15.351562500000002 9.775632399700552L15.351562500000002 9.207303228467016L11.273437500000002 6.852796661928072" stroke-width="0.03" stroke="#000000" fill="none"/>
<path d="M10.218750000000002 7.136961247544841L6.140625 9.491467814083784L5.6484375 9.207303228467016" stroke-width="0.03" stroke="#000000" fill="none"/>
<path d="M5.859375000000001 9.085518406059828L5.859375000000001 8.841948761245455L9.4453125 6.771606780323281L9.65625 6.893391602730468" stroke-width="0.03" stroke="#000000" fill="none"/>
<path d="M10.218750000000002 6.568632076311303L8.53125 5.59435349705381L8.53125 7.299341010754423" stroke-width="0.03" stroke="#000000" fill="none"/>
<path d="M8.25 8.923138642850246L6.421875 9.97860710371253L6.421875 10.54693627494607L7.40625 11.115265446179606L7.6171875 10.99348062377242L8.390625 11.44002497259877" stroke-width="0.03" stroke="#000000" fill="none"/>
<path d="M8.390625 11.764784499017935L7.265625000000001 12.414303551856264L7.6875 12.65787319667064L7.6875 13.226202367904175L7.1953125 13.510366953520945L7.1953125 14.809405059197603L7.828125 14.444050591976044L7.828125 13.307392249508968L8.8125 12.739063078275429L8.8125 12.00835414383231L8.390625 11.764784499017935L8.390625 11.034075564574817L8.53125 10.952885682970024L9.0234375 11.237050268586794L9.0234375 13.83512647994011L9.65625 13.46977201271855L9.515625 13.388582131113758L9.515625 12.495493433461057L10.0078125 12.211328847844287L10.5 12.495493433461057L10.9921875 12.211328847844287L11.484375000000002 12.495493433461057L11.484375000000002 13.388582131113758L11.34375 13.46977201271855L11.34375 13.632151775928133L11.976562500000002 13.997506243149692L11.976562500000002 14.728215177592812L12.1171875 14.809405059197603L12.2578125 14.728215177592812L12.2578125 14.159886006359274" stroke-width="0.03" stroke="#000000" fill="none"/>
<path d="M12.1171875 14.078696124754483L12.1171875 14.809405059197603" stroke-width="0.03" stroke="#000000" fill="none"/>
<path d="M12.2578125 14.728215177592812L13.031250000000002 15.174759526419164L13.031250000000002 15.7430886976527L12.539062500000002 16.02725328326947L12.539062500000002 16.59558245450301L12.046875 16.879747040119774L11.273437500000002 16.433202691293424L11.273437500000002 16.270822928083845L11.1328125 16.189633046479052L10.5 16.55498751370061L9.867187500000002 16.189633046479052L9.7265625 16.270822928083845L9.7265625 16.433202691293424L10.218750000000002 16.717367276910196" stroke-width="0.03" stroke="#000000" fill="none"/>
<path d="M10.359375 16.636177395305403L8.109375 17.93521550098206L8.109375 18.5035446722156L8.25 18.58473455382039L8.8828125 18.219380086598832L10.0078125 18.86889913943716L10.0078125 18.38175984980841L8.8828125 17.732240796970082L8.8828125 18.219380086598832" stroke-width="0.03" stroke="#000000" fill="none"/>
<path d="M8.6015625 18.38175984980841L8.6015625 19.274848547461115L8.8125 19.3966333698683L8.8125 20.53329171233538L8.3203125 20.81745629795215L6.492187500000001 19.761987837089862L6.492187500000001 18.625329494622786L7.0546875 18.30056996820362L7.0546875 16.83915209931738L5.7890625 16.10844316487426L5.7890625 14.322265769568856" stroke-width="0.03" stroke="#000000" fill="none"/>
<path d="M5.71875 14.281670828766462L5.71875 14.038101183952087L4.734375 13.46977201271855L4.2421875 13.753936598335319L4.2421875 15.864873520059888L5.2265625 16.433202691293424L5.7890625 16.10844316487426" stroke-width="0.03" stroke="#000000" fill="none"/>
<path d="M5.71875 16.14903810567666L6 16.311417868886238L6 16.230227987281445" stroke-width="0.03" stroke="#000000" fill="none"/>
<path d="M5.6484375 16.189633046479052L5.6484375 17.24510150734134L6 17.448076211353314L6 17.85402561937727L6.914062500000001 18.38175984980841" stroke-width="0.03" stroke="#000000" fill="none"/>
<path d="M6.984375 18.341164909006018L6.984375 18.016405382586854L7.0546875 18.057000323389246" stroke-width="0.03" stroke="#000000" fill="none"/>
<path d="M7.0546875 18.30056996820362L8.6015625 19.193658665856326" stroke-width="0.03" stroke="#000000" fill="none"/>
<path d="M8.8125 19.3966333698683L8.3203125 19.68079795548507L6.492187500000001 18.625329494622786" stroke-width="0.03" stroke="#000000" fill="none"/>
<path d="M6.492187500000001 18.95008902104195L4.9453125 18.057000323389246L4.9453125 16.270822928083845" stroke-width="0.03" stroke="#000000" fill="none"/>
<path d="M5.2265625 16.433202691293424L5.2265625 14.322265769568856L5.71875 14.038101183952087" stroke-width="0.03" stroke="#000000" fill="none"/>
<path d="M5.71875 14.281670828766462L6.492187500000001 14.728215177592812" stroke-width="0.03" stroke="#000000" fill="none"/>
<path d="M6.7734375 14.56583541438323L6.140625 14.931189881604789L6.140625 15.093569644814371L6.6328125 15.377734230431141L8.8828125 14.078696124754483L8.8828125 14.809405059197603L9.0234375 14.728215177592812L9.0234375 13.997506243149692L9.65625 13.632151775928133L9.65625 13.46977201271855" stroke-width="0.03" stroke="#000000" fill="none"/>
<path d="M9.515625 13.388582131113758L9.0234375 13.672746716730527" stroke-width="0.03" stroke="#000000" fill="none"/>
<path d="M9.0234375 13.429177071916154L9.234375 13.55096189432334L9.234375 12.90144284148501L9.0234375 12.779658019077825L9.09375 12.739063078275429L9.3046875 12.860847900682616L9.3046875 13.510366953520945" stroke-width="0.03" stroke="#000000" fill="none"/>
<path d="M9.4453125 13.753936598335319L9.5859375 13.83512647994011L9.5859375 14.241075887964065L9.796875 14.11929106555688L9.796875 14.200480947161669L9.5859375 14.322265769568856L9.5859375 14.56583541438323L9.515625 14.606430355185626L9.3046875 14.484645532778439" stroke-width="0.03" stroke="#000000" fill="none"/>
<path d="M9.1640625 14.484645532778439L9.515625 14.281670828766462L9.515625 13.875721420742504L9.5859375 13.83512647994011" stroke-width="0.03" stroke="#000000" fill="none"/>
<path d="M9.515625 13.794531539137715L9.515625 13.713341657532922" stroke-width="0.03" stroke="#000000" fill="none"/>
<path d="M9.515625 13.875721420742504L9.375 13.794531539137715" stroke-width="0.03" stroke="#000000" fill="none"/>
<path d="M9.234375 13.875721420742504L9.234375 14.11929106555688L9.515625 14.281670828766462" stroke-width="0.03" stroke="#000000" fill="none"/>
<path d="M9.515625 14.362860710371251L9.1640625 14.56583541438323L9.0234375 14.484645532778439" stroke-width="0.03" stroke="#000000" fill="none"/>
<path d="M9.09375 14.525240473580833L9.0234375 14.56583541438323" stroke-width="0.03" stroke="#000000" fill="none"/>
<path d="M9.1640625 14.56583541438323L9.1640625 14.484645532778439L9.0234375 14.403455651173648" stroke-width="0.03" stroke="#000000" fill="none"/>
<path d="M9.0234375 14.241075887964065L9.234375 14.11929106555688" stroke-width="0.03" stroke="#000000" fill="none"/>
<path d="M9.515625 14.362860710371251L9.515625 14.606430355185626" stroke-width="0.03" stroke="#000000" fill="none"/>
<path d="M9.5859375 14.322265769568856L10.078125 14.606430355185626L8.53125 15.499519052838329L8.53125 15.986658342467075L8.953125 16.230227987281445L10.5 15.337139289628746L12.046875 16.230227987281445L12.46875 15.986658342467075L12.46875 15.499519052838329L10.921875000000002 14.606430355185626L10.921875000000002 12.820252959880222L10.5 12.576683315065846L10.078125 12.820252959880222L10.078125 14.606430355185626" stroke-width="0.03" stroke="#000000" fill="none"/>
<path d="M10.5 14.85L8.53125 15.986658342467075" stroke-width="0.03" stroke="#000000" fill="none"/>
<path d="M8.4609375 16.02725328326947L7.40625 16.636177395305403L7.40625 14.931189881604789" stroke-width="0.03" stroke="#000000" fill="none"/>
<path d="M7.1953125 14.809405059197603L6.7734375 14.56583541438323L6.7734375 13.266797308706572L7.1953125 13.510366953520945" stroke-width="0.03" stroke="#000000" fill="none"/>
<path d="M7.125 13.063822604694593L4.453125 11.521214854203564" stroke-width="0.03" stroke="#000000" fill="none"/>
<path d="M4.5234375 11.561809795005958L4.6640625 11.480619913401167L4.6640625 11.318240150191585" stroke-width="0.03" stroke="#000000" fill="none"/>
<path d="M4.59375 11.277645209389188L7.265625000000001 12.820252959880222" stroke-width="0.03" stroke="#000000" fill="none"/>
<path d="M7.265625000000001 12.982632723089804L6.5625 13.388582131113758L3.8906249999999996 11.845974380622728L3.8906249999999996 12.576683315065846L6.5625 14.11929106555688L6.7734375 13.997506243149692" stroke-width="0.03" stroke="#000000" fill="none"/>
<path d="M6.5625 14.11929106555688L6.5625 13.388582131113758" stroke-width="0.03" stroke="#000000" fill="none"/>
<path d="M7.265625000000001 12.982632723089804L7.265625000000001 12.170733907041893L7.898437500000001 11.805379439820332L5.2265625 10.262771689329298L4.59375 10.62812615655086L7.265625000000001 12.170733907041893" stroke-width="0.03" stroke="#000000" fill="none"/>
<path d="M7.6875 12.65787319667064L8.8125 12.00835414383231" stroke-width="0.03" stroke="#000000" fill="none"/>
<path d="M9.0234375 12.130138966239496L10.5 11.277645209389188L11.976562500000002 12.130138966239496" stroke-width="0.03" stroke="#000000" fill="none"/>
<path d="M12.187500000000002 12.00835414383231L12.609375 11.764784499017935L12.609375 11.034075564574817L12.46875 10.952885682970024L11.976562500000002 11.237050268586794L11.976562500000002 13.83512647994011L11.34375 13.46977201271855" stroke-width="0.03" stroke="#000000" fill="none"/>
<path d="M11.484375000000002 13.388582131113758L11.976562500000002 13.672746716730527" stroke-width="0.03" stroke="#000000" fill="none"/>
<path d="M11.976562500000002 13.429177071916154L11.765625 13.55096189432334L11.765625 12.90144284148501L11.976562500000002 12.779658019077825L11.90625 12.739063078275429L11.6953125 12.860847900682616L11.6953125 13.510366953520945" stroke-width="0.03" stroke="#000000" fill="none"/>
<path d="M11.5546875 13.753936598335319L11.4140625 13.83512647994011L11.4140625 14.241075887964065L11.203125 14.11929106555688L11.203125 14.200480947161669L11.4140625 14.322265769568856L11.4140625 14.56583541438323L11.484375000000002 14.606430355185626L11.6953125 14.484645532778439" stroke-width="0.03" stroke="#000000" fill="none"/>
<path d="M11.835937500000002 14.484645532778439L11.976562500000002 14.403455651173648" stroke-width="0.03" stroke="#000000" fill="none"/>
<path d="M11.976562500000002 14.484645532778439L11.835937500000002 14.56583541438323L11.484375000000002 14.362860710371251L11.484375000000002 14.606430355185626" stroke-width="0.03" stroke="#000000" fill="none"/>
<path d="M11.4140625 14.322265769568856L10.921875000000002 14.606430355185626" stroke-width="0.03" stroke="#000000" fill="none"/>
<path d="M10.5 14.85L10.5 12.576683315065846" stroke-width="0.03" stroke="#000000" fill="none"/>
<path d="M10.5 12.495493433461057L10.5 11.277645209389188" stroke-width="0.03" stroke="#000000" fill="none"/>
<path d="M10.5 10.871695801365235L11.765625 10.140986866922113L11.765625 9.491467814083784L12.75 8.923138642850246L14.578125 9.97860710371253L14.578125 10.54693627494607L13.593750000000002 11.115265446179606L13.382812500000002 10.99348062377242L12.609375 11.44002497259877" stroke-width="0.03" stroke="#000000" fill="none"/>
<path d="M12.609375 11.764784499017935L13.734375 12.414303551856264L13.3125 12.65787319667064L13.3125 13.226202367904175L13.8046875 13.510366953520945L13.8046875 14.809405059197603L13.171875 14.444050591976044L13.171875 13.307392249508968L12.187500000000002 12.739063078275429L12.187500000000002 12.00835414383231L13.3125 12.65787319667064" stroke-width="0.03" stroke="#000000" fill="none"/>
<path d="M13.734375 12.820252959880222L16.40625 11.277645209389188" stroke-width="0.03" stroke="#000000" fill="none"/>
<path d="M16.3359375 11.318240150191585L16.3359375 11.480619913401167L16.4765625 11.561809795005958" stroke-width="0.03" stroke="#000000" fill="none"/>
<path d="M16.546875 11.521214854203564L13.875 13.063822604694593" stroke-width="0.03" stroke="#000000" fill="none"/>
<path d="M13.734375 12.982632723089804L13.734375 12.170733907041893L13.1015625 11.805379439820332L15.773437500000002 10.262771689329298L16.40625 10.62812615655086L13.734375 12.170733907041893" stroke-width="0.03" stroke="#000000" fill="none"/>
<path d="M13.1015625 12.048949084634705L13.1015625 11.805379439820332" stroke-width="0.03" stroke="#000000" fill="none"/>
<path d="M13.3125 11.034075564574817L11.765625 10.140986866922113" stroke-width="0.03" stroke="#000000" fill="none"/>
<path d="M11.765625 10.059796985317323L11.484375000000002 10.222176748526905L11.5546875 10.262771689329298" stroke-width="0.03" stroke="#000000" fill="none"/>
<path d="M11.765625 9.97860710371253L10.8515625 9.450872873281389L10.5 9.653847577293366L10.1484375 9.450872873281389L9.234375 9.97860710371253" stroke-width="0.03" stroke="#000000" fill="none"/>
<path d="M9.234375 10.059796985317323L9.515625 10.222176748526905L9.4453125 10.262771689329298" stroke-width="0.03" stroke="#000000" fill="none"/>
<path d="M9.234375 10.140986866922113L7.6875 11.034075564574817" stroke-width="0.03" stroke="#000000" fill="none"/>
<path d="M7.40625 11.115265446179606L7.40625 10.54693627494607L6.421875 9.97860710371253" stroke-width="0.03" stroke="#000000" fill="none"/>
<path d="M6.140625 10.059796985317323L6.140625 9.491467814083784" stroke-width="0.03" stroke="#000000" fill="none"/>
<path d="M6.0703125 8.963733583652642L5.859375000000001 8.841948761245455" stroke-width="0.03" stroke="#000000" fill="none"/>
<path d="M6.3515625 8.476594294023895L4.1015625 9.775632399700552L4.1015625 10.262771689329298" stroke-width="0.03" stroke="#000000" fill="none"/>
<path d="M4.03125 10.222176748526905L3.8906249999999996 10.303366630131695L3.8906249999999996 10.384556511736488L4.59375 10.790505919760442" stroke-width="0.03" stroke="#000000" fill="none"/>
<path d="M4.59375 10.709316038155652L3.8906249999999996 10.303366630131695" stroke-width="0.03" stroke="#000000" fill="none"/>
<path d="M4.03125 10.222176748526905L4.6640625 10.587531215748463" stroke-width="0.03" stroke="#000000" fill="none"/>
<path d="M4.59375 10.54693627494607L5.71875 9.897417222107741L6.421875 10.303366630131695" stroke-width="0.03" stroke="#000000" fill="none"/>
<path d="M5.859375000000001 10.303366630131695L5.578125 10.465746393341277" stroke-width="0.03" stroke="#000000" fill="none"/>
<path d="M5.296875 10.303366630131695L5.578125 10.140986866922113L5.859375000000001 10.303366630131695L5.859375000000001 10.62812615655086" stroke-width="0.03" stroke="#000000" fill="none"/>
<path d="M5.015625 10.303366630131695L4.1015625 9.775632399700552" stroke-width="0.03" stroke="#000000" fill="none"/>
<path d="M4.1015625 10.506341334143674L4.1015625 11.155860386982003L3.539062500000001 11.480619913401167" stroke-width="0.03" stroke="#000000" fill="none"/>
<path d="M3.328125000000001 11.358835090993981L3.2578125 11.399430031796376L3.2578125 11.561809795005958L3.8906249999999996 11.927164262227517" stroke-width="0.03" stroke="#000000" fill="none"/>
<path d="M3.8203125000000004 11.886569321425123L4.59375 11.44002497259877L4.59375 10.54693627494607" stroke-width="0.03" stroke="#000000" fill="none"/>
<path d="M4.1015625 11.155860386982003L4.9453125 11.64299967661075L4.8046875 11.72418955821554" stroke-width="0.03" stroke="#000000" fill="none"/>
<path d="M4.9453125 11.64299967661075L4.9453125 11.480619913401167" stroke-width="0.03" stroke="#000000" fill="none"/>
<path d="M5.15625 11.764784499017935L5.296875 11.683594617413146" stroke-width="0.03" stroke="#000000" fill="none"/>
<path d="M5.15625 11.764784499017935L5.15625 11.927164262227517" stroke-width="0.03" stroke="#000000" fill="none"/>
<path d="M5.15625 11.764784499017935L7.6875 13.226202367904175" stroke-width="0.03" stroke="#000000" fill="none"/>
<path d="M8.3203125 13.023227663892198L8.3203125 13.591556835125736L8.6015625 13.753936598335319L8.6015625 12.860847900682616" stroke-width="0.03" stroke="#000000" fill="none"/>
<path d="M8.7421875 12.779658019077825L8.7421875 13.83512647994011L8.8828125 13.9163163615449L6.6328125 15.215354467221559L6.6328125 15.377734230431141" stroke-width="0.03" stroke="#000000" fill="none"/>
<path d="M6.6328125 15.215354467221559L6.140625 14.931189881604789" stroke-width="0.03" stroke="#000000" fill="none"/>
<path d="M5.2265625 14.322265769568856L4.2421875 13.753936598335319" stroke-width="0.03" stroke="#000000" fill="none"/>
<path d="M4.171875 13.46977201271855L3.679687499999999 13.753936598335319L3.1874999999999996 13.46977201271855L3.1874999999999996 18.178785145796436L3.679687499999999 18.462949731413204L3.679687499999999 13.753936598335319" stroke-width="0.03" stroke="#000000" fill="none"/>
<path d="M3.1874999999999996 13.713341657532922L2.976562500000001 13.83512647994011L2.976562500000001 17.975810441784457L3.1874999999999996 18.097595264191643" stroke-width="0.03" stroke="#000000" fill="none"/>
<path d="M3.679687499999999 18.462949731413204L3.1874999999999996 18.747114317029972L1.5 17.77283573777248L1.5 18.341164909006018L2.976562500000001 19.193658665856326L2.976562500000001 20.898646179556938L3.46875 21.18281076517371L4.9453125 20.330317008323398" stroke-width="0.03" stroke="#000000" fill="none"/>
<path d="M4.03125 19.802582777892262L4.03125 19.559013133077883" stroke-width="0.03" stroke="#000000" fill="none"/>
<path d="M3.9609375 19.51841819227549L3.9609375 18.95008902104195L3.46875 19.23425360665872L3.1874999999999996 19.071873843449136L3.1874999999999996 18.747114317029972" stroke-width="0.03" stroke="#000000" fill="none"/>
<path d="M3.1874999999999996 19.071873843449136L3.7499999999999996 18.747114317029972L3.7499999999999996 14.281670828766462L4.171875 14.038101183952087L4.171875 13.46977201271855L3.679687499999999 13.18560742710178L3.1874999999999996 13.46977201271855" stroke-width="0.03" stroke="#000000" fill="none"/>
<path d="M2.976562500000001 13.83512647994011L3.1874999999999996 13.956911302347297" stroke-width="0.03" stroke="#000000" fill="none"/>
<path d="M2.90625 14.444050591976044L2.90625 11.845974380622728L3.328125000000001 11.602404735808353" stroke-width="0.03" stroke="#000000" fill="none"/>
<path d="M3.2578125 11.399430031796376L3.9609375 11.805379439820332" stroke-width="0.03" stroke="#000000" fill="none"/>
<path d="M4.03125 11.764784499017935L3.328125000000001 11.358835090993981" stroke-width="0.03" stroke="#000000" fill="none"/>
<path d="M2.90625 11.845974380622728L3.8203125000000004 12.37370861105387" stroke-width="0.03" stroke="#000000" fill="none"/>
<path d="M3.9609375 12.617278255868243L3.9609375 12.942037782287407L4.2421875 13.10441754549699L4.5234375 12.942037782287407" stroke-width="0.03" stroke="#000000" fill="none"/>
<path d="M4.2421875 12.779658019077825L4.2421875 13.10441754549699" stroke-width="0.03" stroke="#000000" fill="none"/>
<path d="M3.8203125000000004 13.18560742710178L3.8203125000000004 11.886569321425123" stroke-width="0.03" stroke="#000000" fill="none"/>
<path d="M3.8203125000000004 13.18560742710178L4.5234375 13.591556835125736" stroke-width="0.03" stroke="#000000" fill="none"/>
<path d="M4.2421875 14.078696124754483L4.171875 14.038101183952087" stroke-width="0.03" stroke="#000000" fill="none"/>
<path d="M3.7499999999999996 14.281670828766462L4.2421875 14.56583541438323" stroke-width="0.03" stroke="#000000" fill="none"/>
<path d="M2.976562500000001 14.484645532778439L2.90625 14.444050591976044" stroke-width="0.03" stroke="#000000" fill="none"/>
<path d="M4.5234375 16.02725328326947L4.5234375 18.30056996820362L6.492187500000001 19.437228310670697" stroke-width="0.03" stroke="#000000" fill="none"/>
<path d="M7.6171875 20.41150688992819L7.6171875 20.97983606116173L3.7499999999999996 18.747114317029972" stroke-width="0.03" stroke="#000000" fill="none"/>
<path d="M3.9609375 18.95008902104195L8.0390625 21.304595587580895L8.0390625 21.87292475881443L8.53125 21.588760173197663L8.53125 21.020431001964123L8.0390625 20.736266416347355L8.0390625 20.655076534742566" stroke-width="0.03" stroke="#000000" fill="none"/>
<path d="M8.0390625 20.736266416347355L7.6171875 20.97983606116173" stroke-width="0.03" stroke="#000000" fill="none"/>
<path d="M8.0390625 21.304595587580895L8.53125 21.020431001964123" stroke-width="0.03" stroke="#000000" fill="none"/>
<path d="M8.3203125 20.81745629795215L8.3203125 19.68079795548507" stroke-width="0.03" stroke="#000000" fill="none"/>
<path d="M8.6015625 20.655076534742566L8.6015625 21.466975350790477L9.7265625 22.116494403628806L10.5 21.669950054802452L11.273437500000002 22.116494403628806L12.3984375 21.466975350790477L12.3984375 20.655076534742566" stroke-width="0.03" stroke="#000000" fill="none"/>
<path d="M12.187500000000002 20.53329171233538L12.187500000000002 19.3966333698683L12.3984375 19.274848547461115L12.3984375 18.38175984980841" stroke-width="0.03" stroke="#000000" fill="none"/>
<path d="M12.1171875 18.219380086598832L10.9921875 18.86889913943716L10.9921875 18.38175984980841L12.1171875 17.732240796970082L12.1171875 18.219380086598832L12.75 18.58473455382039L12.890625000000002 18.5035446722156L12.890625000000002 17.93521550098206L10.640625 16.636177395305403L11.273437500000002 16.270822928083845" stroke-width="0.03" stroke="#000000" fill="none"/>
<path d="M11.273437500000002 16.433202691293424L10.78125 16.717367276910196" stroke-width="0.03" stroke="#000000" fill="none"/>
<path d="M10.9921875 16.59558245450301L10.9921875 16.83915209931738" stroke-width="0.03" stroke="#000000" fill="none"/>
<path d="M10.9921875 16.59558245450301L11.5546875 16.920341980922174L11.5546875 17.163911625736546L11.625000000000002 17.123316684934153L11.625000000000002 16.879747040119774L11.0625 16.55498751370061" stroke-width="0.03" stroke="#000000" fill="none"/>
<path d="M10.921875000000002 16.311417868886238L10.921875000000002 16.14903810567666L10.570312500000002 15.946063401664679L10.78125 15.824278579257493L10.7109375 15.783683638455097L10.5 15.905468460862282L10.2890625 15.783683638455097L10.218750000000002 15.824278579257493L10.218750000000002 16.067848224071867" stroke-width="0.03" stroke="#000000" fill="none"/>
<path d="M10.1484375 16.189633046479052L10.5 15.986658342467075L10.8515625 16.189633046479052L10.921875000000002 16.14903810567666" stroke-width="0.03" stroke="#000000" fill="none"/>
<path d="M10.921875000000002 16.230227987281445L10.9921875 16.270822928083845" stroke-width="0.03" stroke="#000000" fill="none"/>
<path d="M10.8515625 16.352012809688635L10.8515625 16.189633046479052" stroke-width="0.03" stroke="#000000" fill="none"/>
<path d="M10.78125 16.067848224071867L10.78125 15.824278579257493" stroke-width="0.03" stroke="#000000" fill="none"/>
<path d="M10.5 15.905468460862282L10.5 15.337139289628746" stroke-width="0.03" stroke="#000000" fill="none"/>
<path d="M10.5 14.85L12.46875 15.986658342467075" stroke-width="0.03" stroke="#000000" fill="none"/>
<path d="M12.539062500000002 16.02725328326947L13.593750000000002 16.636177395305403L13.593750000000002 14.931189881604789" stroke-width="0.03" stroke="#000000" fill="none"/>
<path d="M13.8046875 14.809405059197603L14.2265625 14.56583541438323L14.859375 14.931189881604789L14.859375 15.093569644814371L14.367187500000002 15.377734230431141L12.1171875 14.078696124754483" stroke-width="0.03" stroke="#000000" fill="none"/>
<path d="M12.1171875 13.9163163615449L12.2578125 13.83512647994011L13.171875 14.362860710371251" stroke-width="0.03" stroke="#000000" fill="none"/>
<path d="M13.171875 14.200480947161669L12.3984375 13.753936598335319L12.3984375 12.860847900682616" stroke-width="0.03" stroke="#000000" fill="none"/>
<path d="M12.2578125 12.779658019077825L12.2578125 13.83512647994011" stroke-width="0.03" stroke="#000000" fill="none"/>
<path d="M12.3984375 13.753936598335319L12.679687500000002 13.591556835125736L13.171875 13.875721420742504" stroke-width="0.03" stroke="#000000" fill="none"/>
<path d="M12.679687500000002 13.591556835125736L12.679687500000002 13.023227663892198" stroke-width="0.03" stroke="#000000" fill="none"/>
<path d="M13.3125 13.226202367904175L15.843750000000002 11.764784499017935L15.843750000000002 11.927164262227517" stroke-width="0.03" stroke="#000000" fill="none"/>
<path d="M15.843750000000002 11.764784499017935L15.703125000000002 11.683594617413146" stroke-width="0.03" stroke="#000000" fill="none"/>
<path d="M16.0546875 11.64299967661075L16.8984375 11.155860386982003L16.8984375 10.506341334143674" stroke-width="0.03" stroke="#000000" fill="none"/>
<path d="M17.109375 10.384556511736488L16.40625 10.790505919760442" stroke-width="0.03" stroke="#000000" fill="none"/>
<path d="M16.40625 10.709316038155652L17.109375 10.303366630131695L17.109375 10.384556511736488" stroke-width="0.03" stroke="#000000" fill="none"/>
<path d="M17.109375 10.303366630131695L16.96875 10.222176748526905L16.3359375 10.587531215748463" stroke-width="0.03" stroke="#000000" fill="none"/>
<path d="M16.40625 10.54693627494607L16.40625 11.44002497259877L17.1796875 11.886569321425123L17.1796875 13.18560742710178L16.4765625 13.591556835125736" stroke-width="0.03" stroke="#000000" fill="none"/>
<path d="M16.265625 13.46977201271855L15.28125 14.038101183952087L15.28125 14.281670828766462L14.5078125 14.728215177592812" stroke-width="0.03" stroke="#000000" fill="none"/>
<path d="M14.2265625 14.56583541438323L14.2265625 13.266797308706572L13.8046875 13.510366953520945" stroke-width="0.03" stroke="#000000" fill="none"/>
<path d="M13.734375 12.982632723089804L14.437500000000002 13.388582131113758L17.109375 11.845974380622728L17.109375 12.576683315065846L14.437500000000002 14.11929106555688L14.2265625 13.997506243149692" stroke-width="0.03" stroke="#000000" fill="none"/>
<path d="M14.437500000000002 14.11929106555688L14.437500000000002 13.388582131113758" stroke-width="0.03" stroke="#000000" fill="none"/>
<path d="M15.28125 14.038101183952087L15.773437500000002 14.322265769568856L15.773437500000002 16.433202691293424L15.2109375 16.10844316487426L13.945312500000002 16.83915209931738L13.945312500000002 18.30056996820362L14.5078125 18.625329494622786L14.5078125 19.761987837089862L12.679687500000002 20.81745629795215L12.187500000000002 20.53329171233538" stroke-width="0.03" stroke="#000000" fill="none"/>
<path d="M12.46875 21.020431001964123L12.9609375 20.736266416347355L13.382812500000002 20.97983606116173L17.25 18.747114317029972L17.25 14.281670828766462L16.828125 14.038101183952087L16.828125 13.46977201271855L17.320312500000004 13.18560742710178L17.8125 13.46977201271855L17.8125 18.178785145796436L17.320312500000004 18.462949731413204L17.8125 18.747114317029972L17.8125 19.071873843449136L17.53125 19.23425360665872L17.0390625 18.95008902104195L12.9609375 21.304595587580895L12.9609375 21.87292475881443L12.46875 21.588760173197663L12.46875 21.020431001964123L12.9609375 21.304595587580895" stroke-width="0.03" stroke="#000000" fill="none"/>
<path d="M13.171875 21.751139936407245L13.382812500000002 21.87292475881443L16.96875 19.802582777892262L16.96875 19.559013133077883" stroke-width="0.03" stroke="#000000" fill="none"/>
<path d="M17.0390625 19.51841819227549L12.9609375 21.87292475881443" stroke-width="0.03" stroke="#000000" fill="none"/>
<path d="M13.382812500000002 21.87292475881443L13.382812500000002 21.62935511400006" stroke-width="0.03" stroke="#000000" fill="none"/>
<path d="M13.945312500000002 21.62935511400006L11.6953125 22.928393219676718L11.273437500000002 22.684823574862342" stroke-width="0.03" stroke="#000000" fill="none"/>
<path d="M11.273437500000002 22.76601345646713L11.1328125 22.847203338071925L11.0625 22.80660839726953L11.0625 21.994709581221617" stroke-width="0.03" stroke="#000000" fill="none"/>
<path d="M11.1328125 22.035304522024013L11.1328125 22.847203338071925" stroke-width="0.03" stroke="#000000" fill="none"/>
<path d="M11.273437500000002 22.76601345646713L11.273437500000002 22.035304522024013" stroke-width="0.03" stroke="#000000" fill="none"/>
<path d="M11.203125 22.07589946282641L11.835937500000002 21.71054499560485L11.835937500000002 18.625329494622786L11.625000000000002 18.5035446722156" stroke-width="0.03" stroke="#000000" fill="none"/>
<path d="M11.835937500000002 18.625329494622786L11.203125 18.990683961844347L11.203125 22.07589946282641" stroke-width="0.03" stroke="#000000" fill="none"/>
<path d="M11.0625 22.563038752455157L10.5 22.238279226035992L10.5 21.2640006467785L10.359375 21.345190528383288" stroke-width="0.03" stroke="#000000" fill="none"/>
<path d="M10.5 21.2640006467785L10.640625 21.345190528383288" stroke-width="0.03" stroke="#000000" fill="none"/>
<path d="M10.5 21.588760173197663L10.359375 21.669950054802452" stroke-width="0.03" stroke="#000000" fill="none"/>
<path d="M10.359375 21.751139936407245L10.359375 18.665924435425183" stroke-width="0.03" stroke="#000000" fill="none"/>
<path d="M10.5 18.58473455382039L9.796875 18.990683961844347L9.796875 22.07589946282641L9.1640625 21.71054499560485L9.1640625 18.625329494622786L9.375 18.5035446722156" stroke-width="0.03" stroke="#000000" fill="none"/>
<path d="M9.1640625 18.625329494622786L9.796875 18.990683961844347" stroke-width="0.03" stroke="#000000" fill="none"/>
<path d="M10.0078125 18.38175984980841L10.5 18.097595264191643L10.9921875 18.38175984980841" stroke-width="0.03" stroke="#000000" fill="none"/>
<path d="M10.640625 18.665924435425183L10.640625 21.751139936407245" stroke-width="0.03" stroke="#000000" fill="none"/>
<path d="M10.640625 21.669950054802452L10.5 21.588760173197663" stroke-width="0.03" stroke="#000000" fill="none"/>
<path d="M10.5 21.020431001964123L10.640625 20.939241120359334" stroke-width="0.03" stroke="#000000" fill="none"/>
<path d="M10.5 21.020431001964123L10.5 18.097595264191643" stroke-width="0.03" stroke="#000000" fill="none"/>
<path d="M10.5 17.93521550098206L11.484375000000002 17.366886329748525L12.1171875 17.732240796970082" stroke-width="0.03" stroke="#000000" fill="none"/>
<path d="M12.1171875 17.48867115215571L13.593750000000002 16.636177395305403" stroke-width="0.03" stroke="#000000" fill="none"/>
<path d="M13.945312500000002 16.83915209931738L14.015625 16.879747040119774L13.945312500000002 16.920341980922174" stroke-width="0.03" stroke="#000000" fill="none"/>
<path d="M14.015625 16.879747040119774L14.015625 16.79855715851499" stroke-width="0.03" stroke="#000000" fill="none"/>
<path d="M15.000000000000002 16.311417868886238L15.28125 16.14903810567666" stroke-width="0.03" stroke="#000000" fill="none"/>
<path d="M15.351562500000002 16.189633046479052L15.351562500000002 17.24510150734134L15.000000000000002 17.448076211353314L15.000000000000002 17.85402561937727L14.0859375 18.38175984980841" stroke-width="0.03" stroke="#000000" fill="none"/>
<path d="M14.015625 18.341164909006018L14.015625 18.016405382586854L13.945312500000002 18.057000323389246" stroke-width="0.03" stroke="#000000" fill="none"/>
<path d="M13.945312500000002 18.30056996820362L12.3984375 19.193658665856326" stroke-width="0.03" stroke="#000000" fill="none"/>
<path d="M12.187500000000002 19.3966333698683L12.679687500000002 19.68079795548507L14.5078125 18.625329494622786" stroke-width="0.03" stroke="#000000" fill="none"/>
<path d="M14.5078125 18.95008902104195L16.0546875 18.057000323389246L16.0546875 16.270822928083845" stroke-width="0.03" stroke="#000000" fill="none"/>
<path d="M15.773437500000002 16.433202691293424L16.7578125 15.864873520059888L16.7578125 13.753936598335319L16.265625 13.46977201271855" stroke-width="0.03" stroke="#000000" fill="none"/>
<path d="M16.828125 13.46977201271855L17.320312500000004 13.753936598335319L17.8125 13.46977201271855" stroke-width="0.03" stroke="#000000" fill="none"/>
<path d="M17.8125 13.713341657532922L18.0234375 13.83512647994011L18.0234375 17.975810441784457L17.8125 18.097595264191643" stroke-width="0.03" stroke="#000000" fill="none"/>
<path d="M17.320312500000004 18.462949731413204L17.320312500000004 13.753936598335319" stroke-width="0.03" stroke="#000000" fill="none"/>
<path d="M17.8125 13.956911302347297L18.0234375 13.83512647994011" stroke-width="0.03" stroke="#000000" fill="none"/>
<path d="M18.09375 14.444050591976044L18.0234375 14.484645532778439" stroke-width="0.03" stroke="#000000" fill="none"/>
<path d="M18.09375 14.444050591976044L18.09375 11.845974380622728L17.671875 11.602404735808353" stroke-width="0.03" stroke="#000000" fill="none"/>
<path d="M17.7421875 11.561809795005958L17.109375 11.927164262227517" stroke-width="0.03" stroke="#000000" fill="none"/>
<path d="M17.0390625 11.805379439820332L17.7421875 11.399430031796376L17.7421875 11.561809795005958" stroke-width="0.03" stroke="#000000" fill="none"/>
<path d="M17.7421875 11.399430031796376L17.671875 11.358835090993981L16.96875 11.764784499017935" stroke-width="0.03" stroke="#000000" fill="none"/>
<path d="M17.4609375 11.480619913401167L16.8984375 11.155860386982003" stroke-width="0.03" stroke="#000000" fill="none"/>
<path d="M16.40625 10.54693627494607L15.28125 9.897417222107741L14.578125 10.303366630131695" stroke-width="0.03" stroke="#000000" fill="none"/>
<path d="M14.578125 9.97860710371253L13.593750000000002 10.54693627494607L13.593750000000002 11.115265446179606" stroke-width="0.03" stroke="#000000" fill="none"/>
<path d="M13.593750000000002 10.54693627494607L11.765625 9.491467814083784" stroke-width="0.03" stroke="#000000" fill="none"/>
<path d="M12.046875 9.329088050874201L10.5 8.435999353221499L8.953125 9.329088050874201" stroke-width="0.03" stroke="#000000" fill="none"/>
<path d="M9.234375 9.491467814083784L7.40625 10.54693627494607" stroke-width="0.03" stroke="#000000" fill="none"/>
<path d="M7.125 9.572657695688576L6.6328125 9.288493110071807" stroke-width="0.03" stroke="#000000" fill="none"/>
<path d="M6.421875 8.51718923482629L6.3515625 8.476594294023895" stroke-width="0.03" stroke="#000000" fill="none"/>
<path d="M8.25 8.923138642850246L9.234375 9.491467814083784L9.234375 10.140986866922113L10.5 10.871695801365235L10.5 10.790505919760442L10.570312500000002 10.831100860562838" stroke-width="0.03" stroke="#000000" fill="none"/>
<path d="M10.5 10.790505919760442L10.4296875 10.831100860562838" stroke-width="0.03" stroke="#000000" fill="none"/>
<path d="M10.5 9.653847577293366L10.5 7.948860063592752L8.53125 9.085518406059828" stroke-width="0.03" stroke="#000000" fill="none"/>
<path d="M10.078125 8.679568998035872L10.078125 9.491467814083784" stroke-width="0.03" stroke="#000000" fill="none"/>
<path d="M10.921875000000002 9.491467814083784L10.921875000000002 8.679568998035872" stroke-width="0.03" stroke="#000000" fill="none"/>
<path d="M10.5 7.948860063592752L12.46875 9.085518406059828" stroke-width="0.03" stroke="#000000" fill="none"/>
<path d="M13.875 9.572657695688576L14.367187500000002 9.288493110071807" stroke-width="0.03" stroke="#000000" fill="none"/>
<path d="M14.859375 9.491467814083784L14.859375 10.059796985317323" stroke-width="0.03" stroke="#000000" fill="none"/>
<path d="M15.140625 10.303366630131695L15.421875 10.140986866922113L15.703125000000002 10.303366630131695" stroke-width="0.03" stroke="#000000" fill="none"/>
<path d="M15.984375 10.303366630131695L16.8984375 9.775632399700552L14.648437500000002 8.476594294023895L14.578125 8.51718923482629" stroke-width="0.03" stroke="#000000" fill="none"/>
<path d="M15.140625 10.303366630131695L15.140625 10.62812615655086" stroke-width="0.03" stroke="#000000" fill="none"/>
<path d="M15.140625 10.303366630131695L15.421875 10.465746393341277" stroke-width="0.03" stroke="#000000" fill="none"/>
<path d="M16.0546875 11.480619913401167L16.0546875 11.64299967661075L16.1953125 11.72418955821554" stroke-width="0.03" stroke="#000000" fill="none"/>
<path d="M17.1796875 12.37370861105387L18.09375 11.845974380622728" stroke-width="0.03" stroke="#000000" fill="none"/>
<path d="M17.0390625 12.617278255868243L17.0390625 12.942037782287407L16.7578125 13.10441754549699L16.4765625 12.942037782287407" stroke-width="0.03" stroke="#000000" fill="none"/>
<path d="M16.7578125 12.779658019077825L16.7578125 13.10441754549699" stroke-width="0.03" stroke="#000000" fill="none"/>
<path d="M16.7578125 13.753936598335319L15.773437500000002 14.322265769568856" stroke-width="0.03" stroke="#000000" fill="none"/>
<path d="M15.2109375 14.322265769568856L15.2109375 16.10844316487426" stroke-width="0.03" stroke="#000000" fill="none"/>
<path d="M15.000000000000002 16.230227987281445L15.000000000000002 16.311417868886238" stroke-width="0.03" stroke="#000000" fill="none"/>
<path d="M15.351562500000002 17.163911625736546L16.0546875 17.569861033760503" stroke-width="0.03" stroke="#000000" fill="none"/>
<path d="M16.4765625 18.30056996820362L14.5078125 19.437228310670697" stroke-width="0.03" stroke="#000000" fill="none"/>
<path d="M13.382812500000002 20.41150688992819L13.382812500000002 20.97983606116173" stroke-width="0.03" stroke="#000000" fill="none"/>
<path d="M12.9609375 20.736266416347355L12.9609375 20.655076534742566" stroke-width="0.03" stroke="#000000" fill="none"/>
<path d="M12.679687500000002 20.81745629795215L12.679687500000002 19.68079795548507" stroke-width="0.03" stroke="#000000" fill="none"/>
<path d="M12.75 18.58473455382039L12.75 18.016405382586854L12.890625000000002 17.93521550098206" stroke-width="0.03" stroke="#000000" fill="none"/>
<path d="M12.75 18.016405382586854L10.5 16.717367276910196L8.25 18.016405382586854L8.25 18.58473455382039" stroke-width="0.03" stroke="#000000" fill="none"/>
<path d="M8.25 18.016405382586854L8.109375 17.93521550098206" stroke-width="0.03" stroke="#000000" fill="none"/>
<path d="M8.8828125 17.732240796970082L9.515625 17.366886329748525L10.5 17.93521550098206" stroke-width="0.03" stroke="#000000" fill="none"/>
<path d="M10.5 17.366886329748525L10.0078125 17.651050915365293" stroke-width="0.03" stroke="#000000" fill="none"/>
<path d="M9.7265625 17.48867115215571L10.5 17.04212680332936L11.273437500000002 17.48867115215571" stroke-width="0.03" stroke="#000000" fill="none"/>
<path d="M11.4140625 17.407481270550917L10.5 16.879747040119774L10.5 16.717367276910196" stroke-width="0.03" stroke="#000000" fill="none"/>
<path d="M10.5 16.879747040119774L9.5859375 17.407481270550917" stroke-width="0.03" stroke="#000000" fill="none"/>
<path d="M9.4453125 17.163911625736546L9.4453125 16.920341980922174L9.375 16.879747040119774L9.9375 16.55498751370061" stroke-width="0.03" stroke="#000000" fill="none"/>
<path d="M10.0078125 16.59558245450301L9.4453125 16.920341980922174" stroke-width="0.03" stroke="#000000" fill="none"/>
<path d="M9.375 16.879747040119774L9.375 17.123316684934153L9.4453125 17.163911625736546" stroke-width="0.03" stroke="#000000" fill="none"/>
<path d="M8.953125 16.879747040119774L9.7265625 16.433202691293424" stroke-width="0.03" stroke="#000000" fill="none"/>
<path d="M9.7265625 16.270822928083845L10.359375 16.636177395305403" stroke-width="0.03" stroke="#000000" fill="none"/>
<path d="M10.2890625 16.433202691293424L10.5 16.311417868886238L10.7109375 16.433202691293424" stroke-width="0.03" stroke="#000000" fill="none"/>
<path d="M10.5 16.311417868886238L10.5 15.986658342467075" stroke-width="0.03" stroke="#000000" fill="none"/>
<path d="M10.4296875 15.946063401664679L10.078125 16.14903810567666L10.078125 16.311417868886238" stroke-width="0.03" stroke="#000000" fill="none"/>
<path d="M10.0078125 16.270822928083845L10.078125 16.230227987281445" stroke-width="0.03" stroke="#000000" fill="none"/>
<path d="M10.078125 16.14903810567666L10.1484375 16.189633046479052L10.1484375 16.352012809688635" stroke-width="0.03" stroke="#000000" fill="none"/>
<path d="M10.0078125 16.59558245450301L10.0078125 16.83915209931738" stroke-width="0.03" stroke="#000000" fill="none"/>
<path d="M10.5 17.04212680332936L10.5 17.366886329748525L10.9921875 17.651050915365293" stroke-width="0.03" stroke="#000000" fill="none"/>
<path d="M11.5546875 16.920341980922174L11.625000000000002 16.879747040119774" stroke-width="0.03" stroke="#000000" fill="none"/>
<path d="M12.046875 16.879747040119774L12.046875 16.230227987281445" stroke-width="0.03" stroke="#000000" fill="none"/>
<path d="M12.46875 15.499519052838329L13.031250000000002 15.174759526419164" stroke-width="0.03" stroke="#000000" fill="none"/>
<path d="M12.8203125 14.809405059197603L13.031250000000002 14.687620236790417L13.031250000000002 14.606430355185626L12.8203125 14.728215177592812L12.2578125 14.403455651173648L12.46875 14.281670828766462" stroke-width="0.03" stroke="#000000" fill="none"/>
<path d="M12.2578125 14.484645532778439L12.8203125 14.809405059197603L12.8203125 14.728215177592812" stroke-width="0.03" stroke="#000000" fill="none"/>
<path d="M11.976562500000002 14.56583541438323L11.90625 14.525240473580833" stroke-width="0.03" stroke="#000000" fill="none"/>
<path d="M11.835937500000002 14.484645532778439L11.835937500000002 14.56583541438323" stroke-width="0.03" stroke="#000000" fill="none"/>
<path d="M11.835937500000002 14.484645532778439L11.484375000000002 14.281670828766462L11.484375000000002 13.875721420742504L11.625000000000002 13.794531539137715" stroke-width="0.03" stroke="#000000" fill="none"/>
<path d="M11.484375000000002 13.794531539137715L11.484375000000002 13.713341657532922" stroke-width="0.03" stroke="#000000" fill="none"/>
<path d="M11.4140625 13.83512647994011L11.484375000000002 13.875721420742504" stroke-width="0.03" stroke="#000000" fill="none"/>
<path d="M11.4140625 13.997506243149692L11.203125 14.11929106555688" stroke-width="0.03" stroke="#000000" fill="none"/>
<path d="M11.484375000000002 14.281670828766462L11.765625 14.11929106555688L11.976562500000002 14.241075887964065" stroke-width="0.03" stroke="#000000" fill="none"/>
<path d="M11.765625 14.11929106555688L11.765625 13.875721420742504" stroke-width="0.03" stroke="#000000" fill="none"/>
<path d="M12.1171875 13.9163163615449L12.1171875 11.318240150191585L11.976562500000002 11.237050268586794" stroke-width="0.03" stroke="#000000" fill="none"/>
<path d="M12.1171875 11.318240150191585L12.609375 11.034075564574817" stroke-width="0.03" stroke="#000000" fill="none"/>
<path d="M11.484375000000002 12.495493433461057L10.921875000000002 12.820252959880222" stroke-width="0.03" stroke="#000000" fill="none"/>
<path d="M11.6953125 12.860847900682616L11.765625 12.90144284148501" stroke-width="0.03" stroke="#000000" fill="none"/>
<path d="M12.1171875 13.9163163615449L14.367187500000002 15.215354467221559L14.367187500000002 15.377734230431141" stroke-width="0.03" stroke="#000000" fill="none"/>
<path d="M14.367187500000002 15.215354467221559L14.859375 14.931189881604789" stroke-width="0.03" stroke="#000000" fill="none"/>
<path d="M16.7578125 14.56583541438323L17.25 14.281670828766462" stroke-width="0.03" stroke="#000000" fill="none"/>
<path d="M16.828125 14.038101183952087L16.7578125 14.078696124754483" stroke-width="0.03" stroke="#000000" fill="none"/>
<path d="M16.4765625 16.02725328326947L16.4765625 18.30056996820362L15.000000000000002 17.448076211353314" stroke-width="0.03" stroke="#000000" fill="none"/>
<path d="M14.9296875 17.894620560179668L15.6328125 18.30056996820362" stroke-width="0.03" stroke="#000000" fill="none"/>
<path d="M17.0390625 18.95008902104195L17.0390625 19.51841819227549" stroke-width="0.03" stroke="#000000" fill="none"/>
<path d="M17.53125 19.23425360665872L17.53125 21.18281076517371L16.0546875 20.330317008323398" stroke-width="0.03" stroke="#000000" fill="none"/>
<path d="M17.53125 21.18281076517371L18.0234375 20.898646179556938L18.0234375 19.193658665856326L19.5 18.341164909006018L19.5 17.77283573777248L18.0234375 16.920341980922174" stroke-width="0.03" stroke="#000000" fill="none"/>
<path d="M19.5 17.77283573777248L17.8125 18.747114317029972" stroke-width="0.03" stroke="#000000" fill="none"/>
<path d="M17.8125 19.071873843449136L17.25 18.747114317029972" stroke-width="0.03" stroke="#000000" fill="none"/>
<path d="M13.945312500000002 21.548165232395267L13.945312500000002 21.62935511400006" stroke-width="0.03" stroke="#000000" fill="none"/>
<path d="M12.1171875 21.466975350790477L11.835937500000002 21.62935511400006" stroke-width="0.03" stroke="#000000" fill="none"/>
<path d="M11.6953125 21.87292475881443L11.6953125 22.928393219676718" stroke-width="0.03" stroke="#000000" fill="none"/>
<path d="M10.5 22.238279226035992L9.9375 22.563038752455157" stroke-width="0.03" stroke="#000000" fill="none"/>
<path d="M9.7265625 22.684823574862342L9.3046875 22.928393219676718L7.0546875 21.62935511400006L7.0546875 21.548165232395267" stroke-width="0.03" stroke="#000000" fill="none"/>
<path d="M7.6171875 21.62935511400006L7.6171875 21.87292475881443L7.828125 21.751139936407245" stroke-width="0.03" stroke="#000000" fill="none"/>
<path d="M8.0390625 21.87292475881443L3.9609375 19.51841819227549" stroke-width="0.03" stroke="#000000" fill="none"/>
<path d="M4.03125 19.802582777892262L7.6171875 21.87292475881443" stroke-width="0.03" stroke="#000000" fill="none"/>
<path d="M8.8828125 21.466975350790477L8.8828125 21.142215824371313L9.1640625 20.97983606116173" stroke-width="0.03" stroke="#000000" fill="none"/>
<path d="M8.8828125 21.142215824371313L9.1640625 21.304595587580895" stroke-width="0.03" stroke="#000000" fill="none"/>
<path d="M8.8828125 21.466975350790477L9.1640625 21.62935511400006" stroke-width="0.03" stroke="#000000" fill="none"/>
<path d="M9.3046875 21.87292475881443L9.3046875 22.928393219676718" stroke-width="0.03" stroke="#000000" fill="none"/>
<path d="M9.7265625 22.76601345646713L9.7265625 22.035304522024013" stroke-width="0.03" stroke="#000000" fill="none"/>
<path d="M9.867187500000002 22.035304522024013L9.867187500000002 22.847203338071925L9.9375 22.80660839726953L9.9375 21.994709581221617" stroke-width="0.03" stroke="#000000" fill="none"/>
<path d="M9.7265625 22.76601345646713L9.867187500000002 22.847203338071925" stroke-width="0.03" stroke="#000000" fill="none"/>
<path d="M10.5 21.020431001964123L10.359375 20.939241120359334" stroke-width="0.03" stroke="#000000" fill="none"/>
<path d="M11.835937500000002 20.97983606116173L12.1171875 21.142215824371313L12.1171875 21.466975350790477" stroke-width="0.03" stroke="#000000" fill="none"/>
<path d="M11.835937500000002 21.304595587580895L12.1171875 21.142215824371313" stroke-width="0.03" stroke="#000000" fill="none"/>
<path d="M11.203125 18.990683961844347L10.5 18.58473455382039" stroke-width="0.03" stroke="#000000" fill="none"/>
<path d="M8.8828125 17.48867115215571L7.40625 16.636177395305403" stroke-width="0.03" stroke="#000000" fill="none"/>
<path d="M7.0546875 16.83915209931738L6.984375 16.879747040119774L6.984375 16.79855715851499" stroke-width="0.03" stroke="#000000" fill="none"/>
<path d="M6.984375 16.879747040119774L7.0546875 16.920341980922174" stroke-width="0.03" stroke="#000000" fill="none"/>
<path d="M6 17.448076211353314L4.5234375 18.30056996820362" stroke-width="0.03" stroke="#000000" fill="none"/>
<path d="M4.9453125 17.569861033760503L5.6484375 17.163911625736546" stroke-width="0.03" stroke="#000000" fill="none"/>
<path d="M6.0703125 17.894620560179668L5.3671875 18.30056996820362" stroke-width="0.03" stroke="#000000" fill="none"/>
<path d="M3.46875 19.23425360665872L3.46875 21.18281076517371" stroke-width="0.03" stroke="#000000" fill="none"/>
<path d="M1.5 17.77283573777248L2.976562500000001 16.920341980922174" stroke-width="0.03" stroke="#000000" fill="none"/>
<path d="M7.96875 15.7430886976527L7.96875 15.174759526419164L8.7421875 14.728215177592812L8.7421875 14.159886006359274" stroke-width="0.03" stroke="#000000" fill="none"/>
<path d="M8.7421875 14.403455651173648L8.1796875 14.728215177592812L7.96875 14.606430355185626L7.96875 14.687620236790417L8.1796875 14.809405059197603L8.7421875 14.484645532778439" stroke-width="0.03" stroke="#000000" fill="none"/>
<path d="M8.7421875 14.403455651173648L8.53125 14.281670828766462" stroke-width="0.03" stroke="#000000" fill="none"/>
<path d="M8.7421875 14.728215177592812L8.8828125 14.809405059197603" stroke-width="0.03" stroke="#000000" fill="none"/>
<path d="M8.1796875 14.809405059197603L8.1796875 14.728215177592812" stroke-width="0.03" stroke="#000000" fill="none"/>
<path d="M7.96875 15.174759526419164L8.53125 15.499519052838329" stroke-width="0.03" stroke="#000000" fill="none"/>
<path d="M8.4609375 16.02725328326947L8.4609375 16.59558245450301L8.953125 16.879747040119774L8.953125 16.230227987281445" stroke-width="0.03" stroke="#000000" fill="none"/>
<path d="M8.4609375 16.02725328326947L7.96875 15.7430886976527" stroke-width="0.03" stroke="#000000" fill="none"/>
<path d="M7.828125 14.362860710371251L8.7421875 13.83512647994011" stroke-width="0.03" stroke="#000000" fill="none"/>
<path d="M8.6015625 13.753936598335319L7.828125 14.200480947161669" stroke-width="0.03" stroke="#000000" fill="none"/>
<path d="M7.828125 13.875721420742504L8.3203125 13.591556835125736" stroke-width="0.03" stroke="#000000" fill="none"/>
<path d="M8.8828125 13.9163163615449L8.8828125 11.318240150191585L9.0234375 11.237050268586794" stroke-width="0.03" stroke="#000000" fill="none"/>
<path d="M8.8828125 11.318240150191585L8.390625 11.034075564574817" stroke-width="0.03" stroke="#000000" fill="none"/>
<path d="M7.898437500000001 11.805379439820332L7.898437500000001 12.048949084634705" stroke-width="0.03" stroke="#000000" fill="none"/>
<path d="M9.234375 12.90144284148501L9.3046875 12.860847900682616" stroke-width="0.03" stroke="#000000" fill="none"/>
<path d="M9.515625 12.495493433461057L10.078125 12.820252959880222" stroke-width="0.03" stroke="#000000" fill="none"/>
<path d="M9.5859375 13.997506243149692L9.796875 14.11929106555688" stroke-width="0.03" stroke="#000000" fill="none"/>
<path d="M10.218750000000002 15.824278579257493L10.4296875 15.946063401664679" stroke-width="0.03" stroke="#000000" fill="none"/>
<path d="M16.8984375 10.262771689329298L16.8984375 9.775632399700552" stroke-width="0.03" stroke="#000000" fill="none"/>
<path d="M7.264131938244363 2.2599663291074443L1.5 2.2599663291074443" stroke-width="0.03" stroke="#000000" fill="none"/>
<path d="M2.0824957911384305 2.015598694615191L2.0824957911384305 1.7268634256306838" stroke-width="0.03" stroke="#000000" fill="none"/>
<path d="M2.061871843353823 1.5824957911384305L2.0824957911384305 1.6031197389230383L2.1031197389230383 1.5824957911384305L2.0824957911384305 1.5618718433538228L2.061871843353823 1.5824957911384305" stroke-width="0.03" stroke="#000000" fill="none"/>
<path d="M2.226863425630684 1.953726851261368L2.2474873734152916 1.9949747468305832L2.3093592167691144 2.015598694615191L2.3712310601229376 2.015598694615191L2.4331029034767604 1.9949747468305832L2.4537268512613677 1.953726851261368L2.4537268512613677 1.9331029034767604L2.4331029034767604 1.891855007907545L2.391855007907545 1.8712310601229374L2.2887352689845066 1.8506071123383299L2.2474873734152916 1.8299831645537221L2.226863425630684 1.7887352689845069L2.2474873734152916 1.7474873734152916L2.3093592167691144 1.7268634256306838L2.3712310601229376 1.7268634256306838L2.4331029034767604 1.7474873734152916L2.4537268512613677 1.7887352689845069" stroke-width="0.03" stroke="#000000" fill="none"/>
<path d="M2.680590276892052 1.7268634256306838L2.6393423813228365 1.7474873734152916L2.5980944857536215 1.7887352689845069L2.5774705379690137 1.8506071123383299L2.5774705379690137 1.891855007907545L2.5980944857536215 1.953726851261368L2.6393423813228365 1.9949747468305832L2.680590276892052 2.015598694615191L2.7424621202458748 2.015598694615191L2.78371001581509 1.9949747468305832L2.8249579113843053 1.953726851261368L2.845581859168913 1.891855007907545L2.845581859168913 1.8506071123383299L2.8249579113843053 1.7887352689845069L2.78371001581509 1.7474873734152916L2.7424621202458748 1.7268634256306838L2.680590276892052 1.7268634256306838" stroke-width="0.03" stroke="#000000" fill="none"/>
<path d="M2.907453702522736 2.056846590184406L3.237436867076458 2.056846590184406" stroke-width="0.03" stroke="#000000" fill="none"/>
<path d="M3.2993087104302807 1.953726851261368L3.3199326582148885 1.9949747468305832L3.3818045015687113 2.015598694615191L3.443676344922534 2.015598694615191L3.5055481882763573 1.9949747468305832L3.526172136060965 1.953726851261368L3.526172136060965 1.9331029034767604L3.5055481882763573 1.891855007907545L3.464300292707142 1.8712310601229374L3.361180553784104 1.8506071123383299L3.3199326582148885 1.8299831645537221L3.2993087104302807 1.7887352689845069L3.3199326582148885 1.7474873734152916L3.3818045015687113 1.7268634256306838L3.443676344922534 1.7268634256306838L3.5055481882763573 1.7474873734152916L3.526172136060965 1.7887352689845069" stroke-width="0.03" stroke="#000000" fill="none"/>
<path d="M3.6705397705532183 1.8093592167691144L3.732411613907041 1.7474873734152916L3.773659509476256 1.7268634256306838L3.8355313528300794 1.7268634256306838L3.8767792483992944 1.7474873734152916L3.897403196183902 1.8093592167691144L3.897403196183902 2.015598694615191" stroke-width="0.03" stroke="#000000" fill="none"/>
<path d="M3.6705397705532183 2.015598694615191L3.6705397705532183 1.7268634256306838" stroke-width="0.03" stroke="#000000" fill="none"/>
<path d="M4.144890569599194 1.7268634256306838L4.103642674029978 1.7474873734152916L4.062394778460764 1.7887352689845069L4.041770830676155 1.8506071123383299L4.041770830676155 1.891855007907545L4.062394778460764 1.953726851261368L4.103642674029978 1.9949747468305832L4.144890569599194 2.015598694615191L4.206762412953017 2.015598694615191L4.2480103085222325 1.9949747468305832L4.289258204091447 1.953726851261368L4.309882151876055 1.891855007907545L4.309882151876055 1.8506071123383299L4.289258204091447 1.7887352689845069L4.2480103085222325 1.7474873734152916L4.206762412953017 1.7268634256306838L4.144890569599194 1.7268634256306838" stroke-width="0.03" stroke="#000000" fill="none"/>
<path d="M4.4336258385837 1.7268634256306838L4.516121629722131 2.015598694615191L4.5986174208605615 1.7268634256306838L4.681113211998992 2.015598694615191L4.7636090031374225 1.7268634256306838" stroke-width="0.03" stroke="#000000" fill="none"/>
<path d="M4.866728742060461 1.7268634256306838L5.011096376552715 1.7268634256306838" stroke-width="0.03" stroke="#000000" fill="none"/>
<path d="M5.031720324337321 1.5824957911384305L4.990472428768107 1.5824957911384305L4.949224533198891 1.6031197389230383L4.928600585414284 1.664991582276861L4.928600585414284 2.015598694615191" stroke-width="0.03" stroke="#000000" fill="none"/>
<path d="M5.155464011044968 2.015598694615191L5.155464011044968 1.5824957911384305" stroke-width="0.03" stroke="#000000" fill="none"/>
<path d="M5.547319018952512 1.7268634256306838L5.547319018952512 2.015598694615191" stroke-width="0.03" stroke="#000000" fill="none"/>
<path d="M5.547319018952512 1.953726851261368L5.506071123383298 1.9949747468305832L5.464823227814082 2.015598694615191L5.402951384460259 2.015598694615191L5.3617034888910435 1.9949747468305832L5.320455593321829 1.953726851261368L5.299831645537221 1.891855007907545L5.299831645537221 1.8506071123383299L5.320455593321829 1.7887352689845069L5.3617034888910435 1.7474873734152916L5.402951384460259 1.7268634256306838L5.464823227814082 1.7268634256306838L5.506071123383298 1.7474873734152916L5.547319018952512 1.7887352689845069" stroke-width="0.03" stroke="#000000" fill="none"/>
<path d="M5.712310601229374 1.9331029034767604L5.91855007907545 1.7268634256306838" stroke-width="0.03" stroke="#000000" fill="none"/>
<path d="M5.794806392367804 1.8506071123383299L5.939174026860058 2.015598694615191" stroke-width="0.03" stroke="#000000" fill="none"/>
<path d="M6.042293765783096 1.8506071123383299L6.2897811391983875 1.8506071123383299L6.2897811391983875 1.8093592167691144L6.26915719141378 1.7681113211998993L6.248533243629172 1.7474873734152916L6.207285348059957 1.7268634256306838L6.145413504706134 1.7268634256306838L6.104165609136919 1.7474873734152916L6.062917713567703 1.7887352689845069L6.042293765783096 1.8506071123383299L6.042293765783096 1.891855007907545L6.062917713567703 1.953726851261368L6.104165609136919 1.9949747468305832L6.145413504706134 2.015598694615191L6.207285348059957 2.015598694615191L6.248533243629172 1.9949747468305832L6.2897811391983875 1.953726851261368" stroke-width="0.03" stroke="#000000" fill="none"/>
<path d="M6.434148773690641 1.6856155300614688L6.434148773690641 1.664991582276861L6.454772721475249 1.6237436867076458L6.475396669259856 1.6031197389230383L6.516644564829072 1.5824957911384305L6.599140355967502 1.5824957911384305L6.640388251536717 1.6031197389230383L6.661012199321325 1.6237436867076458L6.681636147105933 1.664991582276861L6.681636147105933 1.7062394778460763L6.661012199321325 1.7474873734152916L6.61976430375211 1.8093592167691144L6.413524825906033 2.015598694615191L6.702260094890541 2.015598694615191" stroke-width="0.03" stroke="#000000" fill="none"/>
<path d="M5.712310601229374 2.015598694615191L5.712310601229374 1.5824957911384305" stroke-width="0.03" stroke="#000000" fill="none"/>
<path d="M4.460036037626487 2.7109515319598065L4.332573030495582 2.9786238469347097" stroke-width="0.03" stroke="#000000" fill="none"/>
<path d="M4.230602624790857 2.9786238469347097L4.128632219086132 2.7109515319598065L4.026661813381407 2.9786238469347097" stroke-width="0.03" stroke="#000000" fill="none"/>
<path d="M4.064900715520679 2.889399741943075L4.192363722651585 2.889399741943075" stroke-width="0.03" stroke="#000000" fill="none"/>
<path d="M4.28158782764322 2.7109515319598065L4.460036037626487 2.7109515319598065" stroke-width="0.03" stroke="#000000" fill="none"/>
<path d="M3.9629303098159543 2.8001756369514412L3.9501840091028635 2.8384145390907127L3.9246914076766823 2.8639071405168943L3.8864525055374104 2.8766534412299847L3.8737062048243196 2.8766534412299847L3.835467302685048 2.8639071405168943L3.8099747012588665 2.8384145390907127L3.797228400545776 2.8001756369514412L3.797228400545776 2.7874293362383504L3.8099747012588665 2.7491904340990785L3.835467302685048 2.7236978326728973L3.8737062048243196 2.7109515319598065L3.8864525055374104 2.7109515319598065L3.9246914076766823 2.7236978326728973L3.9501840091028635 2.7491904340990785L3.9629303098159543 2.8001756369514412L3.9629303098159543 2.8639071405168943L3.9501840091028635 2.927638644082347L3.9246914076766823 2.965877546221619L3.8864525055374104 2.9786238469347097L3.8609599041112292 2.9786238469347097L3.8227210019719573 2.965877546221619L3.8099747012588665 2.9403849447954378" stroke-width="0.03" stroke="#000000" fill="none"/>
<path d="M3.6570190927017796 2.8384145390907127L3.695257994841051 2.825668238377622L3.708004295554142 2.8129219376645316L3.7207505962672327 2.7874293362383504L3.7207505962672327 2.761936734812169L3.708004295554142 2.736444133385988L3.695257994841051 2.7236978326728973L3.6570190927017796 2.7109515319598065L3.542302386283964 2.7109515319598065L3.542302386283964 2.9786238469347097L3.6570190927017796 2.9786238469347097L3.695257994841051 2.965877546221619L3.708004295554142 2.953131245508528L3.7207505962672327 2.927638644082347L3.7207505962672327 2.889399741943075L3.708004295554142 2.8639071405168943L3.695257994841051 2.8511608398038035L3.6570190927017796 2.8384145390907127L3.542302386283964 2.8384145390907127" stroke-width="0.03" stroke="#000000" fill="none"/>
<path d="M3.3893467777268764 2.8384145390907127L3.4275856798661484 2.825668238377622L3.440331980579239 2.8129219376645316L3.4530782812923295 2.7874293362383504L3.4530782812923295 2.761936734812169L3.440331980579239 2.736444133385988L3.4275856798661484 2.7236978326728973L3.3893467777268764 2.7109515319598065L3.274630071309061 2.7109515319598065L3.274630071309061 2.9786238469347097L3.3893467777268764 2.9786238469347097L3.4275856798661484 2.965877546221619L3.440331980579239 2.953131245508528L3.4530782812923295 2.927638644082347L3.4530782812923295 2.889399741943075L3.440331980579239 2.8639071405168943L3.4275856798661484 2.8511608398038035L3.3893467777268764 2.8384145390907127L3.274630071309061 2.8384145390907127" stroke-width="0.03" stroke="#000000" fill="none"/>
<path d="M3.198152267030517 2.889399741943075L3.0069577563341583 2.889399741943075L3.1344207634650645 2.7109515319598065L3.1344207634650645 2.9786238469347097" stroke-width="0.03" stroke="#000000" fill="none"/>
<path d="M2.8667484484901617 2.8384145390907127L2.9049873506294333 2.825668238377622L2.917733651342524 2.8129219376645316L2.930479952055615 2.7874293362383504L2.930479952055615 2.761936734812169L2.917733651342524 2.736444133385988L2.9049873506294333 2.7236978326728973L2.8667484484901617 2.7109515319598065L2.752031742072346 2.7109515319598065L2.752031742072346 2.9786238469347097L2.8667484484901617 2.9786238469347097L2.9049873506294333 2.965877546221619L2.917733651342524 2.953131245508528L2.930479952055615 2.927638644082347L2.930479952055615 2.889399741943075L2.917733651342524 2.8639071405168943L2.9049873506294333 2.8511608398038035L2.8667484484901617 2.8384145390907127L2.752031742072346 2.8384145390907127" stroke-width="0.03" stroke="#000000" fill="none"/>
<path d="M2.62456873494144 2.8384145390907127L2.522598329236715 2.8384145390907127" stroke-width="0.03" stroke="#000000" fill="none"/>
<path d="M2.433374224245081 2.8001756369514412L2.293164916401084 2.9786238469347097" stroke-width="0.03" stroke="#000000" fill="none"/>
<path d="M2.433374224245081 2.9786238469347097L2.293164916401084 2.8001756369514412" stroke-width="0.03" stroke="#000000" fill="none"/>
<path d="M2.1147167064178154 2.7109515319598065L2.076477804278544 2.7236978326728973L2.0509852028523623 2.761936734812169L2.038238902139272 2.825668238377622L2.038238902139272 2.8639071405168943L2.0509852028523623 2.927638644082347L2.076477804278544 2.965877546221619L2.1147167064178154 2.9786238469347097L2.140209307843997 2.9786238469347097L2.1784482099832685 2.965877546221619L2.2039408114094496 2.927638644082347L2.2166871121225404 2.8639071405168943L2.2166871121225404 2.825668238377622L2.2039408114094496 2.761936734812169L2.1784482099832685 2.7236978326728973L2.140209307843997 2.7109515319598065L2.1147167064178154 2.7109515319598065" stroke-width="0.03" stroke="#000000" fill="none"/>
<path d="M2.522598329236715 2.7109515319598065L2.522598329236715 2.9786238469347097" stroke-width="0.03" stroke="#000000" fill="none"/>
<path d="M2.522598329236715 2.7109515319598065L2.6883002385068933 2.7109515319598065" stroke-width="0.03" stroke="#000000" fill="none"/>
</svg>
